ply
format ascii 1.0
comment Generated by robot_control PLYWriter
element vertex 9
property float x
property float y
property float z
property uchar red
property uchar green
property uchar blue
end_header
0.700973 -0.179725 -0.123176 0 255 0
0.700887 -0.174995 -0.123119 31 223 0
0.70099 -0.170266 -0.123006 63 191 0
0.701007 -0.165535 -0.123025 95 159 0
0.700947 -0.160804 -0.123025 127 127 0
0.700918 -0.156075 -0.122909 159 95 0
0.700975 -0.151352 -0.122641 191 63 0
0.70102 -0.146635 -0.122284 223 31 0
0.701052 -0.141935 -0.121796 255 0 0
