ply
format ascii 1.0
comment Generated by robot_control PLYWriter
element vertex 65
property float x
property float y
property float z
property uchar red
property uchar green
property uchar blue
end_header
0.64008 0.0350309 -0.121672 0 255 0
0.644354 0.033487 -0.120221 3 251 0
0.648008 0.0298043 -0.11912 7 247 0
0.650268 0.024741 -0.118631 11 243 0
0.650247 0.0187869 -0.118703 15 239 0
0.647153 0.0138709 -0.119369 19 235 0
0.642496 0.0113777 -0.120496 23 231 0
0.637503 0.00992709 -0.12223 27 227 0
0.632148 0.0106577 -0.123573 31 223 0
0.627895 0.0145654 -0.12472 35 219 0
0.62369 0.0182026 -0.125639 39 215 0
0.623062 0.0239785 -0.126257 43 211 0
0.62327 0.0299315 -0.126239 47 207 0
0.624357 0.0357579 -0.125805 51 203 0
0.627647 0.040469 -0.124736 55 199 0
0.63239 0.0439324 -0.12376 59 195 0
0.637904 0.0453556 -0.122796 63 191 0
0.643217 0.0436849 -0.121572 67 187 0
0.647648 0.0422295 -0.120707 71 183 0
0.650177 0.0370838 -0.119962 75 179 0
0.650151 0.0311251 -0.119956 79 175 0
0.648673 0.0255746 -0.120635 83 171 0
0.644646 0.0212271 -0.121294 87 167 0
0.638949 0.020674 -0.12242 91 163 0
0.633524 0.0203987 -0.12335 95 159 0
0.62915 0.0240371 -0.124218 99 155 0
0.625365 0.0285606 -0.125042 103 151 0
0.623154 0.0339623 -0.125669 107 147 0
0.623234 0.0398821 -0.125903 111 143 0
0.625251 0.045475 -0.125838 115 139 0
0.628026 0.0502941 -0.125483 119 135 0
0.633077 0.0533992 -0.124863 123 131 0
0.638473 0.0550951 -0.124001 127 127 0
0.644238 0.0553955 -0.122741 131 123 0
0.648489 0.05135 -0.121835 135 119 0
0.652021 0.0465849 -0.121312 139 115 0
0.650273 0.0415332 -0.121153 143 111 0
0.648017 0.0360257 -0.121418 147 107 0
0.643823 0.0321877 -0.121912 151 103 0
0.638163 0.0316676 -0.122566 155 99 0
0.63239 0.0321801 -0.123686 159 95 0
0.628142 0.0359885 -0.124768 163 91 0
0.625454 0.0412015 -0.12565 167 87 0
0.623413 0.0467384 -0.126491 171 83 0
0.624571 0.0523662 -0.126949 175 79 0
0.626681 0.057925 -0.127072 179 75 0
0.630689 0.0622294 -0.126856 183 71 0
0.635728 0.0653542 -0.126356 187 67 0
0.641234 0.0672789 -0.125672 191 63 0
0.646234 0.0642525 -0.124751 195 59 0
0.650897 0.061163 -0.123449 199 55 0
0.652196 0.0555275 -0.122512 203 51 0
0.651192 0.0499337 -0.121649 207 47 0
0.648125 0.0449461 -0.121473 211 43 0
0.642455 0.0435877 -0.121761 215 39 0
0.637851 0.0426426 -0.122757 219 35 0
0.632455 0.0444109 -0.12411 223 31 0
0.628062 0.0479496 -0.125774 227 27 0
0.624734 0.0521005 -0.127564 231 23 0
0.623315 0.0577956 -0.128445 235 19 0
0.624697 0.0629988 -0.129702 239 15 0
0.62619 0.0678767 -0.130443 243 11 0
0.629328 0.0724499 -0.130692 247 7 0
0.634336 0.0751894 -0.130455 251 3 0
0.639661 0.0765065 -0.129791 255 0 0
