ply
format ascii 1.0
comment Generated by robot_control PLYWriter
element vertex 10
property float x
property float y
property float z
property uchar red
property uchar green
property uchar blue
end_header
0.548672 0.04485 -0.0360798 0 255 0
0.548749 0.0499565 -0.0364243 28 226 0
0.548861 0.0550605 -0.0368078 56 198 0
0.548853 0.0601721 -0.0370942 85 169 0
0.548839 0.0652851 -0.0373559 113 141 0
0.548813 0.0703981 -0.0376148 141 113 0
0.548802 0.0755081 -0.0379291 170 84 0
0.548774 0.0806192 -0.0382236 198 56 0
0.548756 0.0857353 -0.0384151 226 28 0
0.548748 0.0908529 -0.0385591 255 0 0
