ply
format ascii 1.0
comment Generated by robot_control PLYWriter
element vertex 88
property float x
property float y
property float z
property uchar red
property uchar green
property uchar blue
end_header
0.594383 -0.158557 -0.0151905 0 255 0
0.599026 -0.160985 -0.0144956 2 252 0
0.603117 -0.165065 -0.0140678 5 249 0
0.604793 -0.170363 -0.0139341 8 246 0
0.60479 -0.176354 -0.0138622 11 243 0
0.602035 -0.181208 -0.0141452 14 240 0
0.597124 -0.184408 -0.0149446 17 237 0
0.591567 -0.18623 -0.0159102 20 234 0
0.585814 -0.185826 -0.0170761 23 231 0
0.580869 -0.182782 -0.0181743 26 228 0
0.575819 -0.179821 -0.0190813 29 225 0
0.573128 -0.174627 -0.0197873 32 222 0
0.572741 -0.168676 -0.020115 35 219 0
0.572915 -0.162688 -0.0201331 38 216 0
0.575193 -0.15718 -0.0197737 41 213 0
0.579223 -0.153235 -0.0192321 43 211 0
0.584504 -0.150498 -0.0185096 46 208 0
0.589929 -0.148314 -0.0176584 49 205 0
0.595519 -0.149779 -0.0167629 52 202 0
0.600778 -0.152496 -0.0160953 55 199 0
0.603445 -0.15784 -0.015622 58 196 0
0.604793 -0.163509 -0.0153738 61 193 0
0.602371 -0.168845 -0.0154782 64 190 0
0.598769 -0.173261 -0.015928 67 187 0
0.593481 -0.176 -0.0165948 70 184 0
0.587675 -0.176689 -0.017282 73 181 0
0.582177 -0.174605 -0.0180524 76 178 0
0.577175 -0.171515 -0.0187765 79 175 0
0.573737 -0.16683 -0.0193824 82 172 0
0.571818 -0.161173 -0.0198224 85 169 0
0.570793 -0.155364 -0.0200491 87 167 0
0.57285 -0.150098 -0.0200859 90 164 0
0.576229 -0.145167 -0.0199063 93 161 0
0.580845 -0.141662 -0.0195489 96 158 0
0.586377 -0.139497 -0.018946 99 155 0
0.592251 -0.138549 -0.0183016 102 152 0
0.597374 -0.141421 -0.0175887 105 149 0
0.601277 -0.145872 -0.0170654 108 146 0
0.602779 -0.15149 -0.0166655 111 143 0
0.602743 -0.15748 -0.0165578 114 140 0
0.599212 -0.161999 -0.0166977 117 137 0
0.595005 -0.166257 -0.0169568 120 134 0
0.589293 -0.166242 -0.0173212 123 131 0
0.583408 -0.165871 -0.0179387 126 128 0
0.577967 -0.163642 -0.0185003 128 126 0
0.57375 -0.159443 -0.0191701 131 123 0
0.570818 -0.1546 -0.0198653 134 120 0
0.57081 -0.14863 -0.0203637 137 117 0
0.571326 -0.142746 -0.0206426 140 114 0
0.573889 -0.137403 -0.0207131 143 111 0
0.57785 -0.132918 -0.0205599 146 108 0
0.582705 -0.12998 -0.0202924 149 105 0
0.588632 -0.129822 -0.0199134 152 102 0
0.594344 -0.131466 -0.0193942 155 99 0
0.599079 -0.134818 -0.0186169 158 96 0
0.602815 -0.139226 -0.0180886 161 93 0
0.601813 -0.144991 -0.017653 164 90 0
0.5996 -0.150554 -0.0175442 167 87 0
0.595331 -0.154079 -0.0176548 170 84 0
0.590018 -0.156547 -0.0180508 172 82 0
0.58405 -0.156627 -0.0185803 175 79 0
0.578336 -0.155596 -0.0191503 178 76 0
0.574032 -0.1517 -0.0199267 181 73 0
0.570955 -0.146649 -0.0207798 184 70 0
0.568898 -0.14107 -0.0214862 187 67 0
0.570816 -0.135524 -0.0221131 190 64 0
0.57201 -0.129684 -0.0224522 193 61 0
0.575463 -0.12509 -0.0226098 196 58 0
0.579877 -0.121058 -0.0225535 199 55 0
0.585589 -0.120447 -0.0221707 202 52 0
0.59156 -0.120406 -0.0216759 205 49 0
0.596626 -0.122524 -0.0208762 208 46 0
0.599951 -0.12725 -0.020111 211 43 0
0.600752 -0.133053 -0.0192196 213 41 0
0.600523 -0.138955 -0.0185641 216 38 0
0.597352 -0.143953 -0.0183628 219 35 0
0.592145 -0.146592 -0.0184998 222 32 0
0.587059 -0.148281 -0.018931 225 29 0
0.581515 -0.146829 -0.0196696 228 26 0
0.576146 -0.14443 -0.0206763 231 23 0
0.571925 -0.140466 -0.0216891 234 20 0
0.56954 -0.135364 -0.0227621 237 17 0
0.568635 -0.129764 -0.0235411 240 14 0
0.570399 -0.124359 -0.0245068 243 11 0
0.572038 -0.119158 -0.0250247 246 8 0
0.575243 -0.115943 -0.0251065 249 5 0
0.579812 -0.11266 -0.0248431 252 2 0
0.584788 -0.110646 -0.0241926 255 0 0
