ply
format ascii 1.0
comment Generated by robot_control PLYWriter
element vertex 103
property float x
property float y
property float z
property uchar red
property uchar green
property uchar blue
end_header
0.620805 0.164703 -0.138766 0 255 0
0.623482 0.16126 -0.137748 2 252 0
0.626394 0.158883 -0.136763 5 250 0
0.628363 0.154513 -0.134995 7 247 0
0.628267 0.14883 -0.133168 10 245 0
0.627762 0.143651 -0.131066 12 242 0
0.624746 0.139405 -0.129468 15 240 0
0.61967 0.137189 -0.128169 17 237 0
0.615122 0.136399 -0.127388 20 235 0
0.610167 0.137946 -0.1274 22 232 0
0.606001 0.140658 -0.128216 25 230 0
0.603281 0.145509 -0.129721 27 227 0
0.603821 0.150937 -0.13175 30 225 0
0.607795 0.155134 -0.133044 32 222 0
0.613341 0.156452 -0.133816 35 220 0
0.619066 0.15651 -0.133921 37 217 0
0.623854 0.153391 -0.133572 40 215 0
0.627479 0.149371 -0.132368 42 212 0
0.630379 0.144292 -0.131171 45 210 0
0.631282 0.138883 -0.129144 47 207 0
0.628843 0.133865 -0.127732 50 205 0
0.625267 0.129839 -0.125993 52 202 0
0.620855 0.126929 -0.124809 55 200 0
0.614927 0.126594 -0.124205 57 197 0
0.609718 0.128469 -0.12434 60 195 0
0.60597 0.133042 -0.125127 62 192 0
0.605024 0.138451 -0.126496 65 189 0
0.60776 0.143532 -0.127813 67 187 0
0.612912 0.146003 -0.128918 70 185 0
0.618489 0.147052 -0.129401 72 182 0
0.623906 0.144516 -0.129239 75 179 0
0.628747 0.141184 -0.128517 77 177 0
0.631333 0.1362 -0.127387 80 175 0
0.632925 0.13078 -0.125855 82 172 0
0.631637 0.125205 -0.124401 85 169 0
0.629064 0.120108 -0.122857 87 167 0
0.623698 0.117695 -0.121892 90 165 0
0.617837 0.117395 -0.120896 92 162 0
0.612439 0.118474 -0.120947 95 159 0
0.609327 0.123484 -0.121602 97 157 0
0.608271 0.129026 -0.122997 100 155 0
0.610863 0.133915 -0.124099 102 152 0
0.615332 0.13715 -0.125051 105 149 0
0.621256 0.136958 -0.125447 107 147 0
0.626938 0.135153 -0.125359 110 145 0
0.631338 0.131241 -0.124686 112 142 0
0.634341 0.126268 -0.123559 115 139 0
0.634326 0.120409 -0.122411 117 137 0
0.633752 0.11463 -0.121143 120 135 0
0.630797 0.109923 -0.119849 122 132 0
0.625448 0.107517 -0.118777 125 129 0
0.620138 0.105683 -0.118051 127 127 0
0.615107 0.108841 -0.117927 130 124 0
0.611336 0.112884 -0.118292 132 122 0
0.609202 0.117941 -0.118973 135 119 0
0.61114 0.123321 -0.119992 137 117 0
0.615492 0.126658 -0.120898 140 114 0
0.621426 0.126905 -0.121482 142 112 0
0.627341 0.126065 -0.12165 145 109 0
0.632043 0.122656 -0.121413 147 107 0
0.635824 0.118117 -0.120915 150 104 0
0.637364 0.11268 -0.120144 152 102 0
0.636809 0.10681 -0.119104 155 99 0
0.63461 0.101567 -0.117941 157 97 0
0.629825 0.0981713 -0.116854 160 94 0
0.624502 0.0958628 -0.116107 162 92 0
0.619083 0.0983781 -0.115777 165 89 0
0.614103 0.101431 -0.115863 167 87 0
0.612683 0.107178 -0.116294 170 84 0
0.61327 0.112984 -0.117169 172 82 0
0.617334 0.116815 -0.117978 175 79 0
0.62273 0.1184 -0.118762 177 77 0
0.628322 0.116607 -0.119138 180 74 0
0.634127 0.115634 -0.119316 182 72 0
0.637488 0.110684 -0.119198 185 69 0
0.638966 0.105119 -0.118688 187 67 0
0.638765 0.0991745 -0.118012 190 64 0
0.637885 0.09346 -0.11699 192 62 0
0.634134 0.0891786 -0.115928 195 59 0
0.62902 0.0873125 -0.115173 197 57 0
0.6232 0.0877764 -0.114578 200 54 0
0.617523 0.0890634 -0.113982 202 52 0
0.615874 0.0941795 -0.113911 205 49 0
0.614246 0.0995987 -0.114482 207 47 0
0.616711 0.104318 -0.115364 210 44 0
0.620211 0.108764 -0.115952 212 42 0
0.625781 0.10871 -0.116763 215 39 0
0.631501 0.108097 -0.117562 217 37 0
0.635966 0.104511 -0.118064 220 34 0
0.639336 0.0997715 -0.118148 222 32 0
0.642188 0.0946283 -0.117888 225 29 0
0.640468 0.0893415 -0.117403 227 27 0
0.638887 0.0842608 -0.116662 230 24 0
0.635072 0.07989 -0.11567 232 22 0
0.630303 0.0775265 -0.114377 235 19 0
0.624601 0.0778765 -0.112857 237 17 0
0.620085 0.0811165 -0.112239 240 14 0
0.616715 0.0855701 -0.112239 242 12 0
0.616705 0.0912752 -0.113002 245 9 0
0.619554 0.0953584 -0.113947 247 7 0
0.622683 0.0981596 -0.114852 250 4 0
0.626763 0.099409 -0.115584 252 2 0
0.630453 0.100009 -0.116205 255 0 0
