ply
format ascii 1.0
comment Generated by robot_control PLYWriter
element vertex 8
property float x
property float y
property float z
property uchar red
property uchar green
property uchar blue
end_header
0.534621 -0.155969 -0.140838 0 255 0
0.535321 -0.161024 -0.139225 36 218 0
0.535822 -0.166072 -0.137507 72 182 0
0.536323 -0.171142 -0.135857 109 145 0
0.536726 -0.176307 -0.134502 145 109 0
0.537157 -0.181541 -0.133452 182 72 0
0.537582 -0.186802 -0.132539 218 36 0
0.537959 -0.192132 -0.132211 255 0 0
