ply
format ascii 1.0
comment Generated by robot_control PLYWriter
element vertex 12
property float x
property float y
property float z
property uchar red
property uchar green
property uchar blue
end_header
0.620779 -0.406997 -0.122819 0 255 0
0.619978 -0.411879 -0.122201 23 231 0
0.619671 -0.41681 -0.121546 46 208 0
0.619177 -0.421695 -0.120698 69 185 0
0.61866 -0.426512 -0.119531 92 162 0
0.618331 -0.431282 -0.118124 115 139 0
0.617796 -0.435947 -0.116453 139 115 0
0.617665 -0.440612 -0.114694 162 92 0
0.617354 -0.445222 -0.11282 185 69 0
0.61681 -0.449754 -0.110815 208 46 0
0.616398 -0.454277 -0.108763 231 23 0
0.616064 -0.458808 -0.10672 255 0 0
