ply
format ascii 1.0
comment Generated by robot_control PLYWriter
element vertex 65
property float x
property float y
property float z
property uchar red
property uchar green
property uchar blue
end_header
0.715747 -0.0482625 -0.105996 0 255 0
0.721016 -0.0494194 -0.105707 3 251 0
0.724769 -0.0529167 -0.105199 7 247 0
0.727225 -0.0565618 -0.104374 11 243 0
0.726685 -0.0624353 -0.103614 15 239 0
0.724314 -0.0674272 -0.102722 19 235 0
0.720143 -0.0701175 -0.102023 23 231 0
0.715469 -0.0728387 -0.101715 27 227 0
0.709605 -0.0722234 -0.101549 31 223 0
0.704691 -0.0687498 -0.101735 35 219 0
0.700784 -0.0641794 -0.102162 39 215 0
0.696896 -0.0596618 -0.103037 43 211 0
0.69668 -0.0538768 -0.103835 47 207 0
0.698499 -0.0483262 -0.104748 51 203 0
0.701334 -0.0436559 -0.105482 55 199 0
0.705325 -0.0392598 -0.106262 59 195 0
0.710736 -0.0367061 -0.106932 63 191 0
0.716632 -0.0364014 -0.107194 67 187 0
0.721205 -0.0397343 -0.107136 71 183 0
0.725291 -0.0439647 -0.106794 75 179 0
0.7269 -0.0496852 -0.106074 79 175 0
0.725974 -0.0551632 -0.105386 83 171 0
0.722468 -0.0599915 -0.10474 87 167 0
0.716672 -0.0607493 -0.104365 91 163 0
0.710965 -0.0614783 -0.104277 95 159 0
0.706102 -0.0581061 -0.104512 99 155 0
0.701786 -0.0539155 -0.105015 103 151 0
0.698781 -0.0488459 -0.105789 107 147 0
0.698631 -0.0429247 -0.106617 111 143 0
0.69926 -0.0370392 -0.107496 115 139 0
0.702808 -0.032244 -0.108295 119 135 0
0.707584 -0.0286991 -0.109034 123 131 0
0.713363 -0.0271982 -0.109658 127 127 0
0.719068 -0.0280927 -0.109922 131 123 0
0.724576 -0.0305603 -0.109894 135 119 0
0.728204 -0.0350481 -0.109388 139 115 0
0.727897 -0.041016 -0.10864 143 111 0
0.725909 -0.0465224 -0.10788 147 107 0
0.720816 -0.0496206 -0.107233 151 103 0
0.714972 -0.0504518 -0.106825 155 99 0
0.709424 -0.0491733 -0.106945 159 95 0
0.704752 -0.0454372 -0.107389 163 91 0
0.701177 -0.0409639 -0.108032 167 87 0
0.699224 -0.0353153 -0.108803 171 83 0
0.70082 -0.0297259 -0.109579 175 79 0
0.702865 -0.0241177 -0.110482 179 75 0
0.70659 -0.0199301 -0.111571 183 71 0
0.711879 -0.0171938 -0.112435 187 67 0
0.717755 -0.0165153 -0.112911 191 63 0
0.723229 -0.0181619 -0.113004 195 59 0
0.728189 -0.0215933 -0.112752 199 55 0
0.729933 -0.0269795 -0.112067 203 51 0
0.729798 -0.0326301 -0.111199 207 47 0
0.726112 -0.0372235 -0.109977 211 43 0
0.721349 -0.0404688 -0.109162 215 39 0
0.715421 -0.0409319 -0.108549 219 35 0
0.710043 -0.0397107 -0.108533 223 31 0
0.706013 -0.0353807 -0.109057 227 27 0
0.702496 -0.0307268 -0.109731 231 23 0
0.701132 -0.0252597 -0.110877 235 19 0
0.701474 -0.0193465 -0.111948 239 15 0
0.703344 -0.0139445 -0.112597 243 11 0
0.706275 -0.00912579 -0.112903 247 7 0
0.711288 -0.00801353 -0.113132 251 3 0
0.716192 -0.00598759 -0.113459 255 0 0
