ply
format ascii 1.0
comment Generated by robot_control PLYWriter
element vertex 116
property float x
property float y
property float z
property uchar red
property uchar green
property uchar blue
end_header
0.684253 0.0707138 -0.106556 0 255 0
0.688407 0.068253 -0.106609 2 252 0
0.691214 0.0647752 -0.106795 4 250 0
0.694808 0.0613612 -0.107201 6 248 0
0.696593 0.0560149 -0.107663 8 246 0
0.696554 0.0500147 -0.108024 11 243 0
0.696726 0.0444523 -0.108396 13 241 0
0.69288 0.039962 -0.108599 15 239 0
0.689052 0.0353617 -0.108561 17 237 0
0.683965 0.0322091 -0.108362 19 235 0
0.67807 0.0316429 -0.108011 22 232 0
0.672232 0.0324659 -0.107519 24 230 0
0.66731 0.0353482 -0.107158 26 228 0
0.663209 0.038697 -0.10691 28 226 0
0.661096 0.0441559 -0.106658 31 223 0
0.662796 0.0491238 -0.106517 33 221 0
0.663589 0.0548706 -0.106438 35 219 0
0.667897 0.0589663 -0.106452 37 217 0
0.672882 0.0615545 -0.106672 39 215 0
0.67889 0.0615581 -0.106924 42 212 0
0.684845 0.0613059 -0.107123 44 210 0
0.690044 0.0584837 -0.107393 46 208 0
0.693393 0.0536105 -0.107778 48 206 0
0.696764 0.0487514 -0.108183 51 204 0
0.696965 0.0430957 -0.108454 53 201 0
0.696315 0.0371463 -0.108712 55 199 0
0.694201 0.0315358 -0.108773 57 197 0
0.690809 0.0265728 -0.108716 59 195 0
0.686352 0.0228314 -0.108558 62 192 0
0.680678 0.0216339 -0.108368 64 190 0
0.674691 0.021923 -0.108088 66 188 0
0.669419 0.0241752 -0.107753 68 186 0
0.664915 0.0279994 -0.107329 70 184 0
0.66281 0.0335743 -0.107043 73 181 0
0.662747 0.0395807 -0.106813 75 179 0
0.664269 0.0452636 -0.106781 77 177 0
0.668551 0.0490559 -0.106919 79 175 0
0.673943 0.0517039 -0.107145 82 172 0
0.679462 0.0535162 -0.107439 84 170 0
0.68496 0.0511225 -0.107845 86 168 0
0.689922 0.0478782 -0.108375 88 166 0
0.69416 0.0436288 -0.108721 90 164 0
0.697128 0.0384791 -0.109124 93 161 0
0.698202 0.0327212 -0.109346 95 159 0
0.696235 0.0270432 -0.109463 97 157 0
0.694908 0.0211789 -0.109482 99 155 0
0.690962 0.0166569 -0.109422 102 153 0
0.685676 0.0139013 -0.109262 104 150 0
0.680204 0.0116489 -0.109024 106 148 0
0.674556 0.0136948 -0.108783 108 146 0
0.668757 0.0152112 -0.108398 110 144 0
0.664562 0.019168 -0.107817 113 141 0
0.662816 0.0248175 -0.107469 115 139 0
0.662811 0.0308264 -0.107267 117 137 0
0.663872 0.0363991 -0.107197 119 135 0
0.668405 0.0402838 -0.107332 121 133 0
0.67389 0.0426145 -0.107683 124 130 0
0.679758 0.043082 -0.10816 126 128 0
0.68563 0.0420555 -0.108716 128 126 0
0.69073 0.0392409 -0.109273 130 124 0
0.694471 0.0346285 -0.109737 133 121 0
0.69699 0.0292308 -0.110049 135 119 0
0.698519 0.0234677 -0.110249 137 117 0
0.698185 0.017466 -0.110383 139 115 0
0.694561 0.0126959 -0.110386 141 113 0
0.691021 0.00783711 -0.110305 144 110 0
0.686805 0.00356178 -0.110141 146 108 0
0.680931 0.00345098 -0.109881 148 106 0
0.674955 0.00367374 -0.109391 150 104 0
0.669531 0.00619172 -0.108803 153 101 0
0.664474 0.00929927 -0.10833 155 99 0
0.662783 0.0149787 -0.107886 157 97 0
0.662809 0.0209854 -0.107673 159 95 0
0.665413 0.0259308 -0.107702 161 93 0
0.669295 0.0305047 -0.107933 164 90 0
0.674578 0.0330373 -0.108425 166 88 0
0.680538 0.0333469 -0.108985 168 86 0
0.686238 0.0318164 -0.109821 170 84 0
0.691631 0.029373 -0.110595 172 82 0
0.695122 0.0245354 -0.111309 175 79 0
0.698301 0.0194832 -0.111744 177 77 0
0.698366 0.0134816 -0.1121 179 75 0
0.698447 0.00747237 -0.11228 181 73 0
0.694715 0.00284215 -0.112315 184 70 0
0.69081 -0.00163369 -0.112159 186 68 0
0.685804 -0.0048878 -0.111869 188 66 0
0.680083 -0.00640633 -0.111256 190 64 0
0.674296 -0.00559595 -0.110389 192 62 0
0.669176 -0.00262761 -0.109573 195 59 0
0.664918 0.00150858 -0.108744 197 57 0
0.662457 0.00668452 -0.108116 199 55 0
0.662642 0.0126418 -0.107797 201 53 0
0.665401 0.0178699 -0.10773 204 50 0
0.669728 0.0219465 -0.108064 206 48 0
0.674831 0.0246059 -0.108537 208 46 0
0.680697 0.0250919 -0.109305 210 44 0
0.68624 0.0230182 -0.110314 212 42 0
0.691542 0.0203821 -0.111352 215 39 0
0.695341 0.0162747 -0.112706 217 37 0
0.696943 0.010561 -0.113545 219 35 0
0.698627 0.00494693 -0.114434 221 33 0
0.698664 -0.000996798 -0.115002 223 31 0
0.696089 -0.00640603 -0.115163 226 28 0
0.691983 -0.0106137 -0.114993 228 26 0
0.687218 -0.0139871 -0.114027 230 24 0
0.681881 -0.0166395 -0.113311 232 22 0
0.676221 -0.0157652 -0.111755 235 19 0
0.670488 -0.0147244 -0.110639 237 17 0
0.667003 -0.0100329 -0.109478 239 15 0
0.664571 -0.00537431 -0.108472 241 13 0
0.662131 -0.000652855 -0.107933 243 11 0
0.66514 0.00428571 -0.107706 246 8 0
0.667224 0.00945864 -0.107669 248 6 0
0.671181 0.0130778 -0.108018 250 4 0
0.676602 0.0140833 -0.108586 252 2 0
0.680612 0.0157242 -0.109328 255 0 0
