ply
format ascii 1.0
comment Generated by robot_control PLYWriter
element vertex 12
property float x
property float y
property float z
property uchar red
property uchar green
property uchar blue
end_header
0.504834 0.126096 -0.150569 0 255 0
0.505253 0.121108 -0.149345 23 231 0
0.505713 0.11611 -0.148145 46 208 0
0.50609 0.111103 -0.146955 69 185 0
0.506555 0.106075 -0.1459 92 162 0
0.507142 0.101035 -0.144958 115 139 0
0.507718 0.0959839 -0.144069 139 115 0
0.508189 0.0909112 -0.143256 162 92 0
0.508614 0.0858136 -0.142589 185 69 0
0.509153 0.0807047 -0.142104 208 46 0
0.509767 0.0756001 -0.141674 231 23 0
0.510098 0.0704601 -0.141372 255 0 0
