ply
format ascii 1.0
comment Generated by robot_control PLYWriter
element vertex 9
property float x
property float y
property float z
property uchar red
property uchar green
property uchar blue
end_header
0.586904 0.0957065 -0.017177 0 255 0
0.586875 0.0914759 -0.0147445 31 223 0
0.586864 0.0871384 -0.0125143 63 191 0
0.586855 0.0828686 -0.0101541 95 159 0
0.586858 0.0784597 -0.00812126 127 127 0
0.586867 0.0737348 -0.00742295 159 95 0
0.586869 0.0690342 -0.00853201 191 63 0
0.58687 0.0645687 -0.010504 223 31 0
0.586864 0.0606785 -0.013402 255 0 0
