ply
format ascii 1.0
comment Generated by robot_control PLYWriter
element vertex 8
property float x
property float y
property float z
property uchar red
property uchar green
property uchar blue
end_header
0.618096 -0.173674 -0.128233 0 255 0
0.617358 -0.169122 -0.128805 36 218 0
0.616928 -0.164527 -0.129416 72 182 0
0.616552 -0.159917 -0.129922 109 145 0
0.616578 -0.155291 -0.13044 145 109 0
0.616191 -0.150668 -0.130782 182 72 0
0.615731 -0.146044 -0.131049 218 36 0
0.615001 -0.141458 -0.131223 255 0 0
