ply
format ascii 1.0
comment Generated by robot_control PLYWriter
element vertex 200
property float x
property float y
property float z
property uchar red
property uchar green
property uchar blue
end_header
0.746658 -0.0262875 -0.107891 0 255 0
0.746658 -0.0262875 -0.107891 1 253 0
0.746658 -0.0262875 -0.107891 2 252 0
0.746658 -0.0262875 -0.107891 3 251 0
0.746658 -0.0262875 -0.107891 5 249 0
0.746658 -0.0262875 -0.107891 6 248 0
0.746658 -0.0262875 -0.107891 7 247 0
0.746658 -0.0262875 -0.107891 8 246 0
0.746658 -0.0262875 -0.107891 10 244 0
0.746658 -0.0262875 -0.107891 11 243 0
0.746658 -0.0262875 -0.107891 12 242 0
0.746658 -0.0262875 -0.107891 14 240 0
0.746658 -0.0262875 -0.107891 15 239 0
0.746658 -0.0262875 -0.107891 16 238 0
0.746658 -0.0262875 -0.107891 17 237 0
0.746658 -0.0262875 -0.107891 19 235 0
0.746658 -0.0262875 -0.107891 20 234 0
0.746658 -0.0262875 -0.107891 21 233 0
0.746658 -0.0262875 -0.107891 23 231 0
0.746658 -0.0262875 -0.107891 24 230 0
0.746658 -0.0262875 -0.107891 25 229 0
0.746658 -0.0262875 -0.107891 26 228 0
0.746658 -0.0262875 -0.107891 28 226 0
0.746658 -0.0262875 -0.107891 29 225 0
0.746658 -0.0262875 -0.107891 30 224 0
0.746658 -0.0262875 -0.107891 32 222 0
0.746658 -0.0262875 -0.107891 33 221 0
0.746658 -0.0262875 -0.107891 34 220 0
0.746658 -0.0262875 -0.107891 35 219 0
0.746658 -0.0262875 -0.107891 37 217 0
0.746658 -0.0262875 -0.107891 38 216 0
0.746658 -0.0262875 -0.107891 39 215 0
0.746658 -0.0262875 -0.107891 41 213 0
0.746658 -0.0262875 -0.107891 42 212 0
0.746658 -0.0262875 -0.107891 43 211 0
0.746658 -0.0262875 -0.107891 44 210 0
0.746658 -0.0262875 -0.107891 46 208 0
0.746658 -0.0262875 -0.107891 47 207 0
0.746658 -0.0262875 -0.107891 48 206 0
0.746658 -0.0262875 -0.107891 49 205 0
0.746658 -0.0262875 -0.107891 51 203 0
0.746658 -0.0262875 -0.107891 52 202 0
0.746658 -0.0262875 -0.107891 53 201 0
0.746658 -0.0262875 -0.107891 55 199 0
0.746658 -0.0262875 -0.107891 56 198 0
0.746658 -0.0262875 -0.107891 57 197 0
0.746658 -0.0262875 -0.107891 58 196 0
0.746658 -0.0262875 -0.107891 60 194 0
0.746658 -0.0262875 -0.107891 61 193 0
0.746658 -0.0262875 -0.107891 62 192 0
0.746658 -0.0262875 -0.107891 64 190 0
0.746658 -0.0262875 -0.107891 65 189 0
0.746658 -0.0262875 -0.107891 66 188 0
0.746658 -0.0262875 -0.107891 67 187 0
0.746658 -0.0262875 -0.107891 69 185 0
0.746658 -0.0262875 -0.107891 70 184 0
0.746658 -0.0262875 -0.107891 71 183 0
0.746658 -0.0262875 -0.107891 73 181 0
0.746658 -0.0262875 -0.107891 74 180 0
0.746658 -0.0262875 -0.107891 75 179 0
0.746658 -0.0262875 -0.107891 76 178 0
0.746658 -0.0262875 -0.107891 78 176 0
0.746658 -0.0262875 -0.107891 79 175 0
0.746658 -0.0262875 -0.107891 80 174 0
0.746658 -0.0262875 -0.107891 82 172 0
0.746658 -0.0262875 -0.107891 83 171 0
0.746658 -0.0262875 -0.107891 84 170 0
0.746658 -0.0262875 -0.107891 85 169 0
0.746658 -0.0262875 -0.107891 87 167 0
0.746658 -0.0262875 -0.107891 88 166 0
0.746658 -0.0262875 -0.107891 89 165 0
0.746658 -0.0262875 -0.107891 90 164 0
0.746658 -0.0262875 -0.107891 92 162 0
0.746658 -0.0262875 -0.107891 93 161 0
0.746658 -0.0262875 -0.107891 94 160 0
0.746658 -0.0262875 -0.107891 96 158 0
0.746658 -0.0262875 -0.107891 97 157 0
0.746658 -0.0262875 -0.107891 98 156 0
0.746658 -0.0262875 -0.107891 99 155 0
0.746658 -0.0262875 -0.107891 101 153 0
0.746658 -0.0262875 -0.107891 102 152 0
0.746658 -0.0262875 -0.107891 103 151 0
0.746658 -0.0262875 -0.107891 105 149 0
0.746658 -0.0262875 -0.107891 106 148 0
0.746658 -0.0262875 -0.107891 107 147 0
0.746658 -0.0262875 -0.107891 108 146 0
0.746658 -0.0262875 -0.107891 110 144 0
0.746658 -0.0262875 -0.107891 111 143 0
0.746658 -0.0262875 -0.107891 112 142 0
0.746658 -0.0262875 -0.107891 114 140 0
0.746658 -0.0262875 -0.107891 115 139 0
0.746658 -0.0262875 -0.107891 116 138 0
0.746658 -0.0262875 -0.107891 117 137 0
0.746658 -0.0262875 -0.107891 119 135 0
0.746658 -0.0262875 -0.107891 120 134 0
0.746658 -0.0262875 -0.107891 121 133 0
0.746658 -0.0262875 -0.107891 123 131 0
0.746658 -0.0262875 -0.107891 124 130 0
0.746658 -0.0262875 -0.107891 125 129 0
0.746658 -0.0262875 -0.107891 126 128 0
0.746658 -0.0262875 -0.107891 128 126 0
0.746658 -0.0262875 -0.107891 129 125 0
0.746658 -0.0262875 -0.107891 130 124 0
0.746658 -0.0262875 -0.107891 131 123 0
0.746658 -0.0262875 -0.107891 133 121 0
0.746658 -0.0262875 -0.107891 134 120 0
0.746658 -0.0262875 -0.107891 135 119 0
0.746658 -0.0262875 -0.107891 137 117 0
0.746658 -0.0262875 -0.107891 138 116 0
0.746658 -0.0262875 -0.107891 139 115 0
0.746658 -0.0262875 -0.107891 140 114 0
0.746658 -0.0262875 -0.107891 142 112 0
0.746658 -0.0262875 -0.107891 143 111 0
0.746658 -0.0262875 -0.107891 144 110 0
0.746658 -0.0262875 -0.107891 146 108 0
0.746658 -0.0262875 -0.107891 147 107 0
0.746658 -0.0262875 -0.107891 148 106 0
0.746658 -0.0262875 -0.107891 149 105 0
0.746658 -0.0262875 -0.107891 151 103 0
0.746658 -0.0262875 -0.107891 152 102 0
0.746658 -0.0262875 -0.107891 153 101 0
0.746658 -0.0262875 -0.107891 155 99 0
0.746658 -0.0262875 -0.107891 156 98 0
0.746658 -0.0262875 -0.107891 157 97 0
0.746658 -0.0262875 -0.107891 158 96 0
0.746658 -0.0262875 -0.107891 160 94 0
0.746658 -0.0262875 -0.107891 161 93 0
0.746658 -0.0262875 -0.107891 162 92 0
0.746658 -0.0262875 -0.107891 164 90 0
0.746658 -0.0262875 -0.107891 165 89 0
0.746658 -0.0262875 -0.107891 166 88 0
0.746658 -0.0262875 -0.107891 167 87 0
0.746658 -0.0262875 -0.107891 169 85 0
0.746658 -0.0262875 -0.107891 170 84 0
0.746658 -0.0262875 -0.107891 171 83 0
0.746658 -0.0262875 -0.107891 172 82 0
0.746658 -0.0262875 -0.107891 174 80 0
0.746658 -0.0262875 -0.107891 175 79 0
0.746658 -0.0262875 -0.107891 176 78 0
0.746658 -0.0262875 -0.107891 178 76 0
0.746658 -0.0262875 -0.107891 179 75 0
0.746658 -0.0262875 -0.107891 180 74 0
0.746658 -0.0262875 -0.107891 181 73 0
0.746658 -0.0262875 -0.107891 183 71 0
0.746658 -0.0262875 -0.107891 184 70 0
0.746658 -0.0262875 -0.107891 185 69 0
0.746658 -0.0262875 -0.107891 187 67 0
0.746658 -0.0262875 -0.107891 188 66 0
0.746658 -0.0262875 -0.107891 189 65 0
0.746658 -0.0262875 -0.107891 190 64 0
0.746658 -0.0262875 -0.107891 192 62 0
0.746658 -0.0262875 -0.107891 193 61 0
0.746658 -0.0262875 -0.107891 194 60 0
0.746658 -0.0262875 -0.107891 196 58 0
0.746658 -0.0262875 -0.107891 197 57 0
0.746658 -0.0262875 -0.107891 198 56 0
0.746658 -0.0262875 -0.107891 199 55 0
0.746658 -0.0262875 -0.107891 201 53 0
0.746658 -0.0262875 -0.107891 202 52 0
0.746658 -0.0262875 -0.107891 203 51 0
0.746658 -0.0262875 -0.107891 205 49 0
0.746658 -0.0262875 -0.107891 206 48 0
0.746658 -0.0262875 -0.107891 207 47 0
0.746658 -0.0262875 -0.107891 208 46 0
0.746658 -0.0262875 -0.107891 210 44 0
0.746658 -0.0262875 -0.107891 211 43 0
0.746658 -0.0262875 -0.107891 212 42 0
0.746658 -0.0262875 -0.107891 213 41 0
0.746658 -0.0262875 -0.107891 215 39 0
0.746658 -0.0262875 -0.107891 216 38 0
0.746658 -0.0262875 -0.107891 217 37 0
0.746658 -0.0262875 -0.107891 219 35 0
0.746658 -0.0262875 -0.107891 220 34 0
0.746658 -0.0262875 -0.107891 221 33 0
0.746658 -0.0262875 -0.107891 222 32 0
0.746658 -0.0262875 -0.107891 224 30 0
0.746658 -0.0262875 -0.107891 225 29 0
0.746658 -0.0262875 -0.107891 226 28 0
0.746658 -0.0262875 -0.107891 228 26 0
0.746658 -0.0262875 -0.107891 229 25 0
0.746658 -0.0262875 -0.107891 230 24 0
0.746658 -0.0262875 -0.107891 231 23 0
0.746658 -0.0262875 -0.107891 233 21 0
0.746658 -0.0262875 -0.107891 234 20 0
0.746658 -0.0262875 -0.107891 235 19 0
0.746658 -0.0262875 -0.107891 237 17 0
0.746658 -0.0262875 -0.107891 238 16 0
0.746658 -0.0262875 -0.107891 239 15 0
0.746658 -0.0262875 -0.107891 240 14 0
0.746658 -0.0262875 -0.107891 242 12 0
0.746658 -0.0262875 -0.107891 243 11 0
0.746658 -0.0262875 -0.107891 244 10 0
0.746658 -0.0262875 -0.107891 246 8 0
0.746658 -0.0262875 -0.107891 247 7 0
0.746658 -0.0262875 -0.107891 248 6 0
0.746658 -0.0262875 -0.107891 249 5 0
0.746658 -0.0262875 -0.107891 251 3 0
0.746658 -0.0262875 -0.107891 252 2 0
0.746658 -0.0262875 -0.107891 253 1 0
0.746658 -0.0262875 -0.107891 255 0 0
