ply
format ascii 1.0
comment Generated by robot_control PLYWriter
element vertex 72
property float x
property float y
property float z
property uchar red
property uchar green
property uchar blue
end_header
0.60262 -0.288638 -0.019991 0 255 0
0.606448 -0.290821 -0.0197806 3 251 0
0.609957 -0.295228 -0.0196861 7 247 0
0.610506 -0.30095 -0.0198011 10 244 0
0.610533 -0.306985 -0.0200572 14 240 0
0.608539 -0.312471 -0.0203881 17 237 0
0.604512 -0.31689 -0.0206968 21 233 0
0.599007 -0.318297 -0.0209538 25 229 0
0.592986 -0.318279 -0.0214277 28 226 0
0.587919 -0.315725 -0.0217369 32 222 0
0.584728 -0.310848 -0.0218032 35 219 0
0.58455 -0.304819 -0.0216416 39 215 0
0.588571 -0.300579 -0.0212566 43 211 0
0.593442 -0.297072 -0.0207744 46 208 0
0.598953 -0.297494 -0.0204233 50 204 0
0.604123 -0.300596 -0.0202846 53 201 0
0.607721 -0.305226 -0.0203696 57 197 0
0.610557 -0.310553 -0.0205565 61 193 0
0.609671 -0.316321 -0.0208252 64 190 0
0.60696 -0.321698 -0.021136 68 186 0
0.604131 -0.326781 -0.0215604 71 183 0
0.598488 -0.32843 -0.0218848 75 179 0
0.592456 -0.328421 -0.0221813 79 175 0
0.587158 -0.325561 -0.0223416 82 172 0
0.584135 -0.321272 -0.022252 86 168 0
0.582674 -0.315572 -0.0220445 89 165 0
0.585217 -0.310346 -0.021823 93 161 0
0.5906 -0.307682 -0.0216181 96 158 0
0.596183 -0.307048 -0.0214474 100 154 0
0.601806 -0.308968 -0.0212973 104 150 0
0.605453 -0.313699 -0.0211554 107 147 0
0.607988 -0.31916 -0.021103 111 143 0
0.608531 -0.325104 -0.0211801 114 140 0
0.606787 -0.330511 -0.0214185 118 136 0
0.602693 -0.334934 -0.0217205 122 132 0
0.597706 -0.338137 -0.0220639 125 129 0
0.59178 -0.338226 -0.022354 129 125 0
0.586013 -0.336943 -0.0224697 132 122 0
0.582597 -0.332287 -0.0224238 136 118 0
0.582687 -0.326248 -0.0223551 140 114 0
0.584373 -0.320935 -0.0222586 143 111 0
0.58931 -0.317618 -0.0221752 147 107 0
0.595143 -0.317263 -0.0218957 150 104 0
0.600789 -0.319324 -0.0215998 154 100 0
0.604673 -0.32359 -0.0212829 158 96 0
0.606427 -0.329311 -0.0211468 161 93 0
0.606411 -0.335351 -0.0211986 165 89 0
0.605402 -0.341247 -0.0213133 168 86 0
0.600945 -0.344754 -0.0215044 172 82 0
0.596932 -0.348394 -0.0217461 175 79 0
0.590902 -0.348634 -0.0220007 179 75 0
0.585885 -0.346077 -0.0223751 183 71 0
0.581238 -0.342486 -0.0227626 186 68 0
0.580596 -0.336499 -0.0229113 190 64 0
0.58349 -0.331243 -0.0229182 193 61 0
0.588034 -0.327419 -0.0227262 197 57 0
0.593443 -0.326828 -0.0222919 201 53 0
0.598367 -0.330155 -0.0217658 204 50 0
0.603506 -0.333196 -0.0213293 208 46 0
0.605013 -0.338596 -0.0209949 211 43 0
0.606344 -0.344393 -0.0207825 215 39 0
0.60388 -0.349754 -0.0206133 219 35 0
0.600552 -0.354747 -0.0204728 222 32 0
0.595716 -0.357665 -0.0203456 226 28 0
0.590269 -0.358378 -0.0203161 229 25 0
0.58486 -0.356856 -0.020439 233 21 0
0.580674 -0.353061 -0.020985 237 17 0
0.578495 -0.347826 -0.0217202 240 14 0
0.579878 -0.34268 -0.0227854 244 10 0
0.583008 -0.338633 -0.0230463 247 7 0
0.588771 -0.338244 -0.022446 251 3 0
0.592441 -0.336828 -0.021892 255 0 0
