ply
format ascii 1.0
comment Generated by robot_control PLYWriter
element vertex 16
property float x
property float y
property float z
property uchar red
property uchar green
property uchar blue
end_header
0.582565 -0.229114 -0.128833 0 255 0
0.582565 -0.224213 -0.129895 17 238 0
0.582559 -0.219396 -0.131314 34 221 0
0.582555 -0.214457 -0.132195 51 204 0
0.582547 -0.209508 -0.133044 68 187 0
0.58254 -0.20457 -0.133962 85 169 0
0.582531 -0.199633 -0.134879 102 153 0
0.582519 -0.194682 -0.135718 119 135 0
0.582506 -0.189697 -0.136293 136 118 0
0.582505 -0.184682 -0.136436 153 101 0
0.58251 -0.179668 -0.136205 170 84 0
0.582512 -0.174673 -0.135702 187 67 0
0.582522 -0.169704 -0.134976 204 50 0
0.58253 -0.164748 -0.13416 221 33 0
0.582538 -0.159795 -0.133337 238 16 0
0.582565 -0.154884 -0.132288 255 0 0
