ply
format ascii 1.0
comment Generated by robot_control PLYWriter
element vertex 28
property float x
property float y
property float z
property uchar red
property uchar green
property uchar blue
end_header
0.526811 -0.18688 -0.105366 0 255 0
0.530913 -0.188542 -0.105399 9 245 0
0.533964 -0.193078 -0.104475 18 236 0
0.536199 -0.19814 -0.103096 28 226 0
0.533916 -0.202924 -0.101373 37 217 0
0.530961 -0.207875 -0.100169 47 207 0
0.525946 -0.210487 -0.0992826 56 198 0
0.520129 -0.21103 -0.0986481 66 188 0
0.514496 -0.209771 -0.0984929 75 179 0
0.509322 -0.207032 -0.0990789 85 169 0
0.505793 -0.202491 -0.0999727 94 160 0
0.504358 -0.196899 -0.100824 103 151 0
0.506201 -0.19173 -0.101753 113 141 0
0.510081 -0.188233 -0.103173 122 132 0
0.515664 -0.187024 -0.103523 132 122 0
0.520866 -0.189748 -0.103264 141 113 0
0.522954 -0.19499 -0.102416 151 103 0
0.521699 -0.200511 -0.101432 160 94 0
0.519092 -0.205598 -0.100496 170 84 0
0.514666 -0.209311 -0.0994567 179 75 0
0.509066 -0.210444 -0.0983698 188 66 0
0.503262 -0.209795 -0.0977008 198 56 0
0.497819 -0.207687 -0.0975667 207 47 0
0.495099 -0.20256 -0.0977426 217 37 0
0.492214 -0.198117 -0.0982706 226 28 0
0.492748 -0.192379 -0.0991003 236 18 0
0.495743 -0.18866 -0.100086 245 9 0
0.499403 -0.186386 -0.101669 255 0 0
