ply
format ascii 1.0
comment Generated by robot_control PLYWriter
element vertex 114
property float x
property float y
property float z
property uchar red
property uchar green
property uchar blue
end_header
0.722145 0.139435 -0.14193 0 255 0
0.72593 0.136235 -0.141602 2 252 0
0.728368 0.131706 -0.140784 4 250 0
0.731115 0.127562 -0.139403 6 248 0
0.732197 0.122041 -0.138011 9 245 0
0.730507 0.118028 -0.136473 11 243 0
0.728266 0.113002 -0.134885 13 241 0
0.724437 0.108801 -0.133393 15 239 0
0.71913 0.107017 -0.132654 18 236 0
0.713237 0.106605 -0.131984 20 234 0
0.707817 0.108485 -0.131998 22 232 0
0.704758 0.113244 -0.132779 24 230 0
0.703316 0.118588 -0.134129 27 227 0
0.703716 0.12377 -0.135575 29 225 0
0.707869 0.127876 -0.136849 31 223 0
0.712884 0.130782 -0.137786 33 221 0
0.718807 0.131045 -0.138136 36 218 0
0.724333 0.128836 -0.138005 38 216 0
0.728769 0.125174 -0.137546 40 214 0
0.731583 0.120007 -0.136506 42 212 0
0.732146 0.114336 -0.135132 45 209 0
0.732124 0.108617 -0.134046 47 207 0
0.728511 0.104351 -0.132554 49 205 0
0.725289 0.0995793 -0.131478 51 203 0
0.719946 0.0976681 -0.130599 54 200 0
0.714073 0.0975451 -0.130166 56 198 0
0.708705 0.100191 -0.130163 58 196 0
0.703916 0.103323 -0.130665 60 194 0
0.702798 0.109094 -0.131598 63 191 0
0.705062 0.114455 -0.132692 65 189 0
0.708829 0.11848 -0.133526 67 187 0
0.713406 0.121742 -0.134315 69 185 0
0.719344 0.121111 -0.134559 72 182 0
0.724807 0.118881 -0.134454 74 180 0
0.72976 0.115532 -0.134011 76 178 0
0.732476 0.110333 -0.133351 78 176 0
0.733146 0.104547 -0.132271 81 173 0
0.732127 0.0987418 -0.131359 83 171 0
0.729189 0.0938101 -0.12997 85 169 0
0.725529 0.0891302 -0.129189 88 166 0
0.719809 0.0886493 -0.128528 90 164 0
0.714271 0.088132 -0.128151 92 162 0
0.709114 0.0911502 -0.128216 94 160 0
0.705109 0.095302 -0.128592 97 157 0
0.704376 0.10109 -0.129597 99 155 0
0.705789 0.10668 -0.130402 101 153 0
0.710587 0.109925 -0.131018 103 151 0
0.715859 0.11269 -0.131606 106 148 0
0.721484 0.112307 -0.131756 108 146 0
0.726612 0.109404 -0.131639 110 144 0
0.73115 0.10551 -0.131202 112 142 0
0.733968 0.100597 -0.130451 115 139 0
0.734143 0.0946776 -0.129676 117 137 0
0.734383 0.0888818 -0.128526 119 135 0
0.731086 0.0839319 -0.127734 121 133 0
0.725927 0.0812017 -0.126766 124 130 0
0.720523 0.0787989 -0.126036 126 128 0
0.714808 0.0791464 -0.125726 128 126 0
0.709111 0.0810261 -0.125711 130 124 0
0.706192 0.085884 -0.126192 133 121 0
0.705022 0.0917292 -0.126813 135 119 0
0.706923 0.0969024 -0.127676 137 117 0
0.711077 0.101149 -0.128361 139 115 0
0.716553 0.103145 -0.128922 142 112 0
0.722371 0.102346 -0.129036 144 110 0
0.727405 0.0992396 -0.128835 146 108 0
0.731854 0.0952608 -0.128312 148 106 0
0.734656 0.0902024 -0.127399 151 103 0
0.734656 0.0842849 -0.126442 153 101 0
0.734028 0.0786101 -0.125409 155 99 0
0.730667 0.0737726 -0.124494 157 97 0
0.7261 0.0701875 -0.123729 160 94 0
0.720331 0.0690131 -0.123069 162 92 0
0.71435 0.0689937 -0.12269 164 90 0
0.70931 0.0720867 -0.122899 166 88 0
0.706581 0.0771797 -0.123439 169 85 0
0.706549 0.083057 -0.124473 171 83 0
0.708101 0.0887309 -0.125205 173 81 0
0.712434 0.092094 -0.126005 176 78 0
0.718288 0.0930018 -0.126455 178 76 0
0.723565 0.0921637 -0.126574 180 74 0
0.728732 0.0891243 -0.126343 182 72 0
0.732848 0.0848552 -0.12564 185 69 0
0.735723 0.0797236 -0.124635 187 67 0
0.735953 0.0739465 -0.123595 189 65 0
0.733738 0.0686071 -0.122324 191 63 0
0.730429 0.0638039 -0.121192 194 60 0
0.72566 0.0604973 -0.120209 196 58 0
0.719777 0.0599277 -0.119579 198 56 0
0.713988 0.0610932 -0.119469 200 54 0
0.709643 0.0649952 -0.119943 203 51 0
0.706536 0.07001 -0.120795 205 49 0
0.70771 0.0754409 -0.121926 207 47 0
0.710353 0.080661 -0.123206 209 45 0
0.715248 0.0832183 -0.124113 212 42 0
0.721224 0.0831009 -0.124609 214 40 0
0.72705 0.0831802 -0.12465 216 38 0
0.73156 0.0792759 -0.124274 218 36 0
0.735026 0.074726 -0.123216 221 33 0
0.736727 0.0691293 -0.122056 223 31 0
0.736754 0.0632692 -0.12083 225 29 0
0.735048 0.0580197 -0.119395 227 27 0
0.731478 0.0538224 -0.118008 230 24 0
0.726239 0.0513853 -0.117091 232 22 0
0.720925 0.0496457 -0.116457 234 20 0
0.715266 0.0510865 -0.116242 236 18 0
0.710733 0.0537697 -0.116456 239 15 0
0.708593 0.0578399 -0.117056 241 13 0
0.707129 0.063019 -0.118149 243 11 0
0.709148 0.0674967 -0.119666 245 9 0
0.712231 0.0709006 -0.121038 248 6 0
0.71558 0.0732463 -0.122132 250 4 0
0.718668 0.0759703 -0.122799 252 2 0
0.722547 0.0731368 -0.122679 255 0 0
