ply
format ascii 1.0
comment Generated by robot_control PLYWriter
element vertex 31
property float x
property float y
property float z
property uchar red
property uchar green
property uchar blue
end_header
0.674166 0.171651 -0.102324 0 255 0
0.678241 0.169494 -0.101781 8 246 0
0.682613 0.166684 -0.100634 17 238 0
0.684975 0.161464 -0.099622 25 229 0
0.684557 0.155794 -0.0981998 34 221 0
0.680218 0.151928 -0.0970451 42 212 0
0.675801 0.148232 -0.0966304 51 204 0
0.67009 0.148129 -0.0968718 59 195 0
0.665249 0.151432 -0.0976376 68 187 0
0.660897 0.155445 -0.0982867 76 178 0
0.658527 0.160679 -0.0990179 85 169 0
0.658286 0.166588 -0.0996797 93 161 0
0.659839 0.172123 -0.100566 102 153 0
0.663544 0.176644 -0.101199 110 144 0
0.6687 0.179428 -0.101708 119 135 0
0.674599 0.179848 -0.101961 127 127 0
0.680222 0.178933 -0.10174 136 118 0
0.683935 0.174438 -0.101256 144 110 0
0.686754 0.169302 -0.100777 153 101 0
0.685574 0.163737 -0.100317 161 93 0
0.681538 0.159482 -0.100018 170 84 0
0.676003 0.157446 -0.100026 178 76 0
0.670089 0.157546 -0.100224 187 67 0
0.665191 0.16052 -0.100601 195 59 0
0.662784 0.165864 -0.100945 204 50 0
0.660762 0.170908 -0.101227 212 42 0
0.660769 0.176861 -0.10118 221 33 0
0.662939 0.181761 -0.100574 229 25 0
0.6663 0.185132 -0.09929 238 16 0
0.670636 0.187904 -0.0971755 246 8 0
0.675367 0.188549 -0.0960336 255 0 0
