ply
format ascii 1.0
comment Generated by robot_control PLYWriter
element vertex 96
property float x
property float y
property float z
property uchar red
property uchar green
property uchar blue
end_header
0.627359 7.90222e-05 -0.121254 0 255 0
0.631982 -0.00165462 -0.119879 2 252 0
0.634857 -0.00500829 -0.117966 5 249 0
0.637056 -0.00934267 -0.116225 8 246 0
0.636912 -0.0150794 -0.114505 10 244 0
0.635065 -0.0192551 -0.113177 13 241 0
0.630058 -0.0224213 -0.112555 16 238 0
0.624626 -0.0243099 -0.112912 18 236 0
0.619359 -0.0225654 -0.113986 21 233 0
0.614522 -0.019434 -0.115531 24 230 0
0.610601 -0.0157036 -0.117558 26 228 0
0.608731 -0.0104399 -0.119713 29 225 0
0.608927 -0.00495216 -0.122089 32 222 0
0.610568 0.000561857 -0.123508 34 220 0
0.613033 0.00585769 -0.124277 37 217 0
0.618253 0.00876469 -0.124546 40 214 0
0.623995 0.00944324 -0.124415 42 212 0
0.629282 0.0100486 -0.123702 45 209 0
0.634319 0.00703013 -0.122518 48 206 0
0.636536 0.0019373 -0.120703 51 204 0
0.638102 -0.00299928 -0.119429 53 201 0
0.635918 -0.00803669 -0.118377 56 198 0
0.631088 -0.0115904 -0.118217 59 195 0
0.625542 -0.0136143 -0.118547 61 193 0
0.620011 -0.0121441 -0.119471 64 190 0
0.615448 -0.0101553 -0.120514 67 187 0
0.612009 -0.00550201 -0.121958 69 185 0
0.610112 -0.000200489 -0.123692 72 182 0
0.608972 0.0049122 -0.125119 75 179 0
0.610688 0.0103433 -0.126336 77 177 0
0.613181 0.0152232 -0.127195 80 174 0
0.618405 0.0177607 -0.127796 83 171 0
0.623853 0.0202493 -0.127687 85 169 0
0.629608 0.0207529 -0.127212 88 166 0
0.634999 0.0183135 -0.126344 91 163 0
0.638671 0.0140144 -0.125077 93 161 0
0.639166 0.00811941 -0.124115 96 158 0
0.636983 0.00270771 -0.123382 99 155 0
0.631915 -0.000113847 -0.123142 102 153 0
0.626684 -0.00267358 -0.123337 104 150 0
0.621072 -0.00157379 -0.123919 107 147 0
0.615692 0.000902526 -0.124898 110 144 0
0.611465 0.00492711 -0.125968 112 142 0
0.610632 0.0104531 -0.127373 115 139 0
0.610789 0.0163237 -0.128613 118 136 0
0.612124 0.0220188 -0.12966 120 134 0
0.615407 0.0266664 -0.130237 123 131 0
0.620779 0.0290538 -0.130588 126 128 0
0.626688 0.0301218 -0.130607 128 126 0
0.632606 0.030076 -0.130081 131 123 0
0.637385 0.0275092 -0.129434 134 120 0
0.638769 0.0219256 -0.128473 136 118 0
0.638425 0.0160853 -0.12777 139 115 0
0.634643 0.0117851 -0.127179 142 112 0
0.629346 0.00921636 -0.127142 144 110 0
0.623727 0.0078378 -0.127532 147 107 0
0.618264 0.0102167 -0.128233 150 104 0
0.613881 0.0139683 -0.129319 153 101 0
0.61104 0.0191066 -0.130447 155 99 0
0.61082 0.0250459 -0.131316 158 96 0
0.612635 0.0304434 -0.132548 161 93 0
0.615814 0.0353554 -0.133333 163 91 0
0.619814 0.0387137 -0.133847 166 88 0
0.62552 0.040507 -0.134006 169 85 0
0.631354 0.040677 -0.133634 171 83 0
0.636842 0.0384301 -0.133033 174 80 0
0.64071 0.03406 -0.132154 177 77 0
0.640578 0.0281332 -0.131324 179 75 0
0.638298 0.022889 -0.130603 182 72 0
0.632834 0.0204403 -0.130331 185 69 0
0.627158 0.0184803 -0.130343 187 67 0
0.621723 0.0201505 -0.130915 190 64 0
0.616533 0.0220886 -0.131783 193 61 0
0.613453 0.0269968 -0.133048 195 59 0
0.611232 0.0321514 -0.134596 198 56 0
0.612053 0.0371999 -0.13562 201 53 0
0.613206 0.0428145 -0.136582 204 50 0
0.61711 0.0473099 -0.137183 206 48 0
0.621815 0.0510067 -0.137484 209 45 0
0.62758 0.0517893 -0.137548 212 42 0
0.633474 0.051203 -0.137027 214 40 0
0.638338 0.0481873 -0.13622 217 37 0
0.640088 0.0429178 -0.134974 220 34 0
0.640009 0.0370528 -0.133745 222 32 0
0.636377 0.0328656 -0.132853 225 29 0
0.632171 0.0289493 -0.132464 228 26 0
0.626355 0.0290541 -0.132497 230 24 0
0.621098 0.0312276 -0.133336 233 21 0
0.616495 0.0337051 -0.134827 236 18 0
0.612856 0.0380994 -0.136223 238 16 0
0.612667 0.0434151 -0.138716 241 13 0
0.61244 0.0486923 -0.140964 244 10 0
0.61455 0.0536401 -0.14251 246 8 0
0.617772 0.0574243 -0.143691 249 5 0
0.62208 0.061253 -0.144003 252 2 0
0.627158 0.0616197 -0.142893 255 0 0
