ply
format ascii 1.0
comment Generated by robot_control PLYWriter
element vertex 14
property float x
property float y
property float z
property uchar red
property uchar green
property uchar blue
end_header
0.566975 -0.0145916 -0.0314184 0 255 0
0.566988 -0.00971079 -0.031071 19 235 0
0.566868 -0.00486639 -0.0303973 39 215 0
0.566774 -2.19138e-05 -0.0297122 58 196 0
0.566719 0.00481549 -0.0289754 78 176 0
0.56674 0.00964646 -0.0281961 98 156 0
0.566682 0.0144477 -0.0272515 117 137 0
0.566627 0.0192087 -0.0261211 137 117 0
0.566571 0.023966 -0.0249755 156 98 0
0.566597 0.028745 -0.023924 176 78 0
0.566658 0.0335419 -0.0229586 196 58 0
0.566706 0.0383377 -0.0219861 215 39 0
0.566646 0.0431168 -0.0209408 235 19 0
0.566677 0.0479306 -0.0200681 255 0 0
