ply
format ascii 1.0
comment Generated by robot_control PLYWriter
element vertex 34
property float x
property float y
property float z
property uchar red
property uchar green
property uchar blue
end_header
0.596858 0.0798774 -0.0816707 0 255 0
0.602026 0.0782673 -0.0810044 7 247 0
0.605331 0.0749044 -0.0798252 15 239 0
0.608288 0.0699494 -0.0789422 23 231 0
0.609496 0.0641528 -0.0785411 30 224 0
0.60837 0.0584574 -0.0782811 38 216 0
0.605893 0.053251 -0.0782083 46 208 0
0.601054 0.049873 -0.0781116 54 200 0
0.595973 0.0471391 -0.0780748 61 193 0
0.590315 0.0458108 -0.0781391 69 185 0
0.584544 0.0472733 -0.0781842 77 177 0
0.579871 0.0505409 -0.07817 85 169 0
0.576623 0.0555092 -0.0779603 92 162 0
0.574983 0.0608753 -0.0775536 100 154 0
0.577748 0.0660823 -0.0770578 108 146 0
0.58142 0.0707442 -0.0766696 115 139 0
0.586878 0.0723521 -0.0764733 123 131 0
0.592031 0.0694559 -0.0768137 131 123 0
0.597123 0.066555 -0.0774336 139 115 0
0.60033 0.0618689 -0.0783794 146 108 0
0.600542 0.0560024 -0.0791666 154 100 0
0.600601 0.0500864 -0.0798408 162 92 0
0.596943 0.0456478 -0.0804966 170 84 0
0.593435 0.0410511 -0.0810502 177 77 0
0.588011 0.0386731 -0.081481 185 69 0
0.582278 0.037349 -0.0818115 193 61 0
0.57644 0.0382522 -0.0818965 200 54 0
0.571169 0.0409301 -0.081596 208 46 0
0.567196 0.0452351 -0.080599 216 38 0
0.566795 0.0508496 -0.0791341 224 30 0
0.566783 0.0567282 -0.0782691 231 23 0
0.570648 0.0600215 -0.0776764 239 15 0
0.574814 0.0635528 -0.0769824 247 7 0
0.579163 0.0617331 -0.0762476 255 0 0
