ply
format ascii 1.0
comment Generated by robot_control PLYWriter
element vertex 8
property float x
property float y
property float z
property uchar red
property uchar green
property uchar blue
end_header
0.702655 -0.22198 -0.125981 0 255 0
0.702454 -0.216672 -0.126321 36 218 0
0.702312 -0.211354 -0.126454 72 182 0
0.701891 -0.206049 -0.126503 109 145 0
0.701682 -0.200737 -0.126267 145 109 0
0.701407 -0.195454 -0.125682 182 72 0
0.701103 -0.190201 -0.124884 218 36 0
0.701054 -0.184976 -0.123968 255 0 0
