ply
format ascii 1.0
comment Generated by robot_control PLYWriter
element vertex 59
property float x
property float y
property float z
property uchar red
property uchar green
property uchar blue
end_header
0.689446 0.110599 -0.0913571 0 255 0
0.69378 0.106893 -0.0917986 4 250 0
0.696323 0.101769 -0.0926789 8 246 0
0.696538 0.0959125 -0.0938282 13 241 0
0.695673 0.0905291 -0.0948931 17 237 0
0.692881 0.0860976 -0.0961751 21 233 0
0.689225 0.0817414 -0.0972126 26 228 0
0.683521 0.0808646 -0.0978968 30 224 0
0.678216 0.0818184 -0.0983736 35 219 0
0.673121 0.0845985 -0.098366 39 215 0
0.670614 0.0898478 -0.097963 43 211 0
0.670425 0.0957264 -0.096988 48 206 0
0.674707 0.0995773 -0.0958391 52 202 0
0.680089 0.101906 -0.0950098 57 197 0
0.686023 0.101817 -0.0945531 61 193 0
0.691082 0.0993518 -0.0945016 65 189 0
0.69533 0.095261 -0.0948459 70 184 0
0.696886 0.0896001 -0.0954617 74 180 0
0.696998 0.0836621 -0.0961986 79 175 0
0.694941 0.078326 -0.0971314 83 171 0
0.691086 0.0738141 -0.0978767 87 167 0
0.686067 0.0713506 -0.0986968 92 162 0
0.68012 0.0710218 -0.0991834 96 158 0
0.674918 0.0735632 -0.0995012 101 153 0
0.671227 0.0781839 -0.09934 105 149 0
0.670715 0.0840327 -0.0988878 109 145 0
0.673754 0.0888418 -0.0982957 114 140 0
0.678036 0.0926997 -0.0977593 118 136 0
0.683792 0.0927507 -0.0974361 123 131 0
0.689245 0.0903899 -0.0972686 127 127 0
0.694401 0.0873512 -0.0971865 131 123 0
0.696925 0.0819764 -0.0972627 136 118 0
0.697235 0.0760272 -0.0976521 140 114 0
0.695338 0.0706676 -0.0981355 145 109 0
0.693189 0.0651675 -0.0986026 149 105 0
0.689025 0.0613765 -0.0991656 153 101 0
0.683113 0.0611748 -0.099641 158 96 0
0.677523 0.0606892 -0.100057 162 92 0
0.673015 0.0640458 -0.100204 167 87 0
0.670878 0.0693821 -0.100119 171 83 0
0.67084 0.0753615 -0.0998766 175 79 0
0.673797 0.0803433 -0.0994482 180 74 0
0.679067 0.0819727 -0.0990969 184 70 0
0.684888 0.082974 -0.0987839 189 65 0
0.689235 0.079458 -0.0985256 193 61 0
0.693712 0.0759786 -0.0984391 197 57 0
0.696676 0.0708842 -0.0986018 202 52 0
0.696693 0.0649125 -0.0990006 206 48 0
0.694294 0.059605 -0.0993839 211 43 0
0.691118 0.0545602 -0.0998744 215 39 0
0.686585 0.0514021 -0.100252 219 35 0
0.680613 0.0514203 -0.100654 224 30 0
0.675379 0.0532401 -0.10082 228 26 0
0.670847 0.0559747 -0.100891 233 21 0
0.669407 0.0615325 -0.100924 237 17 0
0.670849 0.0667747 -0.100826 241 13 0
0.673891 0.0697157 -0.100627 246 8 0
0.677705 0.0720928 -0.100177 250 4 0
0.682537 0.0733525 -0.0993909 255 0 0
