ply
format ascii 1.0
comment Generated by robot_control PLYWriter
element vertex 48
property float x
property float y
property float z
property uchar red
property uchar green
property uchar blue
end_header
0.712364 -0.110208 -0.117309 0 255 0
0.716915 -0.112771 -0.118725 5 249 0
0.719016 -0.116847 -0.120203 10 244 0
0.719022 -0.122738 -0.121498 16 238 0
0.717051 -0.127955 -0.122329 21 233 0
0.713309 -0.132649 -0.122665 27 227 0
0.707711 -0.134247 -0.122487 32 222 0
0.70212 -0.133406 -0.1212 37 217 0
0.698793 -0.129218 -0.120117 43 211 0
0.698241 -0.124753 -0.119382 48 206 0
0.701558 -0.120252 -0.118987 54 200 0
0.707207 -0.118667 -0.11934 59 195 0
0.712793 -0.119999 -0.120496 65 189 0
0.716631 -0.12445 -0.12172 70 184 0
0.718168 -0.130211 -0.122555 75 179 0
0.717759 -0.136099 -0.12348 81 173 0
0.715259 -0.141563 -0.123976 86 168 0
0.710283 -0.144531 -0.124079 92 162 0
0.705005 -0.144147 -0.123732 97 157 0
0.69929 -0.143159 -0.123187 103 151 0
0.697073 -0.137909 -0.122494 108 146 0
0.699491 -0.133432 -0.122187 113 141 0
0.70282 -0.128452 -0.122296 119 135 0
0.70882 -0.128776 -0.12287 124 130 0
0.713912 -0.131868 -0.12361 130 124 0
0.717443 -0.13659 -0.124349 135 119 0
0.718309 -0.142388 -0.12524 141 113 0
0.717675 -0.148216 -0.125744 146 108 0
0.71402 -0.152929 -0.125926 151 103 0
0.708443 -0.155217 -0.125857 157 97 0
0.702662 -0.154742 -0.125454 162 92 0
0.698612 -0.150775 -0.124471 168 86 0
0.697621 -0.1454 -0.124024 173 81 0
0.700528 -0.140877 -0.12391 179 75 0
0.705916 -0.139311 -0.124293 184 70 0
0.710942 -0.140779 -0.124987 189 65 0
0.714899 -0.144091 -0.126121 195 59 0
0.717628 -0.148994 -0.127238 200 54 0
0.717856 -0.154537 -0.1278 206 48 0
0.716557 -0.159963 -0.128153 211 43 0
0.711809 -0.163539 -0.127889 217 37 0
0.707394 -0.166583 -0.12693 222 32 0
0.701591 -0.166168 -0.12583 227 27 0
0.698288 -0.161772 -0.124705 233 21 0
0.698078 -0.156824 -0.12431 238 16 0
0.700045 -0.151662 -0.124619 244 10 0
0.70476 -0.149878 -0.1252 249 5 0
0.708951 -0.149363 -0.125839 255 0 0
