ply
format ascii 1.0
comment Generated by robot_control PLYWriter
element vertex 88
property float x
property float y
property float z
property uchar red
property uchar green
property uchar blue
end_header
0.629477 0.102744 -0.123339 0 255 0
0.633857 0.100008 -0.122012 2 252 0
0.63616 0.0973144 -0.120321 5 249 0
0.637228 0.0929684 -0.118365 8 246 0
0.637054 0.0874061 -0.116708 11 243 0
0.635747 0.0825491 -0.114853 14 240 0
0.632851 0.0780642 -0.113872 17 237 0
0.629392 0.0745151 -0.113638 20 234 0
0.62394 0.0732854 -0.114115 23 231 0
0.618141 0.0736408 -0.115473 26 228 0
0.61376 0.0767654 -0.117232 29 225 0
0.611052 0.0816017 -0.118841 32 222 0
0.611573 0.0873644 -0.119781 35 219 0
0.615839 0.0915717 -0.119988 38 216 0
0.621067 0.0936373 -0.119554 41 213 0
0.626749 0.0926467 -0.118286 43 211 0
0.631745 0.0900896 -0.11685 46 208 0
0.635403 0.0856346 -0.115298 49 205 0
0.636839 0.0801685 -0.114126 52 202 0
0.636345 0.0743926 -0.112832 55 199 0
0.633721 0.0690826 -0.112139 58 196 0
0.63013 0.064293 -0.111847 61 193 0
0.624478 0.0623743 -0.112271 64 190 0
0.619216 0.0630699 -0.113034 67 187 0
0.613801 0.0650233 -0.114261 70 184 0
0.611168 0.0700138 -0.115293 73 181 0
0.61146 0.0758737 -0.116051 76 178 0
0.614371 0.0810862 -0.116172 79 175 0
0.620119 0.0821112 -0.115631 82 172 0
0.625371 0.0826013 -0.114736 85 169 0
0.630571 0.0799077 -0.113551 87 167 0
0.635434 0.0771646 -0.112572 90 164 0
0.636654 0.0713878 -0.111738 93 161 0
0.63656 0.0654428 -0.110929 96 158 0
0.635081 0.0597099 -0.110448 99 155 0
0.631185 0.0553955 -0.110439 102 152 0
0.625935 0.0526292 -0.110731 105 149 0
0.620507 0.0515538 -0.111345 108 146 0
0.615383 0.0541369 -0.112232 111 143 0
0.611438 0.0581574 -0.112977 114 140 0
0.611084 0.0640332 -0.113514 117 137 0
0.613827 0.0689608 -0.113558 120 134 0
0.618821 0.0722285 -0.113143 123 131 0
0.624098 0.0718669 -0.112459 126 128 0
0.629734 0.0699974 -0.111698 128 126 0
0.633713 0.0657754 -0.110575 131 123 0
0.636108 0.0603908 -0.10977 134 120 0
0.636474 0.0544793 -0.109214 137 117 0
0.634252 0.0490426 -0.108968 140 114 0
0.630181 0.0447435 -0.109061 143 111 0
0.626348 0.041208 -0.109362 146 108 0
0.620382 0.0413346 -0.109931 149 105 0
0.614985 0.0430404 -0.110799 152 102 0
0.611106 0.0474164 -0.111358 155 99 0
0.610988 0.0534019 -0.111599 158 96 0
0.612857 0.0588948 -0.111622 161 93 0
0.618612 0.0604243 -0.111341 164 90 0
0.624402 0.0610289 -0.110759 167 87 0
0.630073 0.0606029 -0.109923 170 84 0
0.634368 0.0566733 -0.10904 172 82 0
0.636455 0.051156 -0.108412 175 79 0
0.63615 0.0452248 -0.108096 178 76 0
0.633847 0.0397033 -0.107944 181 73 0
0.630507 0.0348819 -0.108031 184 70 0
0.626518 0.0306578 -0.108343 187 67 0
0.620701 0.0299357 -0.108819 190 64 0
0.615165 0.0313283 -0.109581 193 61 0
0.611511 0.0358463 -0.110338 196 58 0
0.610864 0.0417147 -0.110702 199 55 0
0.611889 0.0470758 -0.110754 202 52 0
0.616391 0.0503743 -0.110451 205 49 0
0.622208 0.0513932 -0.109698 208 46 0
0.627771 0.0502146 -0.108973 211 43 0
0.632343 0.0464318 -0.108167 213 41 0
0.634796 0.0416449 -0.107641 216 38 0
0.636377 0.036038 -0.107145 219 35 0
0.635433 0.030429 -0.106893 222 32 0
0.632807 0.0251433 -0.106882 225 29 0
0.628122 0.0214967 -0.107157 228 26 0
0.622809 0.0195346 -0.107812 231 23 0
0.617028 0.0191134 -0.108486 234 20 0
0.613129 0.0231982 -0.109363 237 17 0
0.609672 0.0268266 -0.110107 240 14 0
0.610167 0.031393 -0.110486 243 11 0
0.612295 0.0355119 -0.110553 246 8 0
0.614037 0.039975 -0.110145 249 5 0
0.618918 0.0414275 -0.109433 252 2 0
0.622895 0.0411745 -0.108369 255 0 0
