ply
format ascii 1.0
comment Generated by robot_control PLYWriter
element vertex 97
property float x
property float y
property float z
property uchar red
property uchar green
property uchar blue
end_header
0.6236 0.104391 -0.117157 0 255 0
0.628261 0.102137 -0.116159 2 252 0
0.631741 0.0985592 -0.114323 5 249 0
0.632139 0.0935093 -0.112927 7 247 0
0.635122 0.0887228 -0.111948 10 244 0
0.632573 0.0839888 -0.111005 13 241 0
0.62985 0.0790969 -0.110554 15 239 0
0.625913 0.0746072 -0.110421 18 236 0
0.621167 0.0719094 -0.110486 21 233 0
0.615642 0.0710077 -0.110538 23 231 0
0.61092 0.0734186 -0.110486 26 228 0
0.607527 0.0764812 -0.110466 29 225 0
0.604434 0.0811504 -0.110626 31 223 0
0.605239 0.0869702 -0.111006 34 220 0
0.607204 0.0919836 -0.111365 37 217 0
0.61284 0.0940514 -0.111548 39 215 0
0.618412 0.0958919 -0.111612 42 212 0
0.623818 0.0934192 -0.111527 45 209 0
0.628364 0.0896732 -0.111419 47 207 0
0.632629 0.0861563 -0.111208 50 204 0
0.633867 0.0806947 -0.110842 53 201 0
0.633204 0.0755361 -0.110508 55 199 0
0.632601 0.0697231 -0.110211 58 196 0
0.628411 0.0655906 -0.110049 61 193 0
0.623778 0.0621665 -0.110004 63 191 0
0.617904 0.0614872 -0.110069 66 188 0
0.612019 0.0614175 -0.11008 69 185 0
0.607434 0.0652773 -0.110046 71 183 0
0.604441 0.0702392 -0.110094 74 180 0
0.604677 0.0761832 -0.110211 77 177 0
0.607868 0.0812747 -0.110269 79 175 0
0.612399 0.084627 -0.11031 82 172 0
0.618319 0.0851661 -0.1103 85 169 0
0.623868 0.0830085 -0.110149 87 167 0
0.628478 0.0796881 -0.109903 90 164 0
0.631709 0.0746331 -0.109582 92 162 0
0.634246 0.0692046 -0.109278 95 159 0
0.632555 0.0641849 -0.108945 98 156 0
0.631781 0.058227 -0.108804 100 154 0
0.627987 0.0538405 -0.108715 103 151 0
0.622898 0.0506428 -0.108674 106 148 0
0.617356 0.0496729 -0.108628 108 146 0
0.611629 0.0510786 -0.108674 111 143 0
0.607586 0.0543911 -0.108849 114 140 0
0.604426 0.0594743 -0.109176 116 138 0
0.604434 0.065463 -0.109676 119 135 0
0.607441 0.0700936 -0.110047 122 132 0
0.612105 0.0734192 -0.11023 124 130 0
0.618112 0.0734207 -0.110067 127 127 0
0.623939 0.0723249 -0.109737 130 124 0
0.628759 0.0691962 -0.109299 132 122 0
0.632418 0.0644811 -0.108607 135 119 0
0.634787 0.0589901 -0.108098 138 116 0
0.633029 0.053312 -0.107612 140 114 0
0.630911 0.0476969 -0.107292 143 111 0
0.627151 0.043348 -0.106871 146 108 0
0.621519 0.0413764 -0.106646 148 106 0
0.616013 0.0393231 -0.106641 151 103 0
0.610258 0.0406396 -0.106847 154 100 0
0.606015 0.0446185 -0.107373 156 98 0
0.604399 0.0501607 -0.108 159 95 0
0.604586 0.0560973 -0.108572 162 92 0
0.60865 0.0601887 -0.108904 164 90 0
0.61377 0.063244 -0.10895 167 87 0
0.619627 0.0641571 -0.108711 170 84 0
0.625241 0.0626902 -0.108325 172 82 0
0.629159 0.0581801 -0.107804 175 79 0
0.632265 0.0530827 -0.10716 177 77 0
0.633109 0.0473406 -0.106521 180 74 0
0.63272 0.0414304 -0.10598 183 71 0
0.629919 0.036151 -0.10552 185 69 0
0.625623 0.0320801 -0.105153 188 66 0
0.620391 0.0291313 -0.105106 191 63 0
0.614414 0.0292765 -0.105338 193 61 0
0.60897 0.0312556 -0.105755 196 58 0
0.605295 0.0359248 -0.106275 199 55 0
0.604368 0.0416584 -0.10684 201 53 0
0.606664 0.047001 -0.107262 204 50 0
0.611092 0.0510321 -0.107441 207 47 0
0.616273 0.05377 -0.107265 209 45 0
0.622047 0.0528129 -0.106944 212 42 0
0.627091 0.0496947 -0.106428 215 39 0
0.630697 0.0451469 -0.106003 217 37 0
0.633052 0.0399665 -0.105391 220 34 0
0.632987 0.0339704 -0.105032 223 31 0
0.633049 0.0279659 -0.104816 225 29 0
0.628643 0.0240694 -0.104845 228 26 0
0.623843 0.0204692 -0.104972 231 23 0
0.618591 0.0177738 -0.105122 233 21 0
0.613222 0.0189951 -0.105274 236 18 0
0.608258 0.0215142 -0.105467 239 15 0
0.605085 0.0252998 -0.105629 241 13 0
0.604328 0.0309937 -0.105907 244 10 0
0.605247 0.0364519 -0.106204 247 7 0
0.608925 0.039431 -0.106293 249 5 0
0.613222 0.0415099 -0.106023 252 2 0
0.618709 0.0420203 -0.105378 255 0 0
