ply
format ascii 1.0
comment Generated by robot_control PLYWriter
element vertex 160
property float x
property float y
property float z
property uchar red
property uchar green
property uchar blue
end_header
0.615847 -0.304253 -0.0875773 0 255 0
0.621007 -0.304852 -0.0882011 1 253 0
0.622645 -0.309056 -0.088855 3 251 0
0.624133 -0.313395 -0.0893378 4 250 0
0.622199 -0.318289 -0.0891063 6 248 0
0.617674 -0.320907 -0.0881495 8 246 0
0.612197 -0.32037 -0.0866255 9 245 0
0.607362 -0.318722 -0.0851337 11 243 0
0.602844 -0.315276 -0.0842634 12 242 0
0.600645 -0.310127 -0.0841501 14 240 0
0.600774 -0.304177 -0.0849469 16 238 0
0.602177 -0.298936 -0.0868774 17 237 0
0.605754 -0.295317 -0.0886582 19 235 0
0.611093 -0.292985 -0.0897407 20 234 0
0.616392 -0.294198 -0.09033 22 232 0
0.620265 -0.29647 -0.0902735 24 230 0
0.622842 -0.301024 -0.0896053 25 229 0
0.622955 -0.306023 -0.0888223 27 227 0
0.619884 -0.310113 -0.087798 28 226 0
0.61414 -0.311115 -0.0869535 30 224 0
0.608369 -0.310367 -0.0862903 32 222 0
0.60422 -0.306156 -0.0865009 33 221 0
0.600702 -0.301853 -0.0880523 35 219 0
0.599661 -0.296445 -0.0900855 36 218 0
0.60083 -0.291838 -0.0931329 38 216 0
0.603315 -0.287473 -0.0962032 40 214 0
0.607852 -0.284766 -0.0984351 41 213 0
0.61345 -0.284129 -0.0999803 43 211 0
0.618762 -0.285641 -0.0993263 44 210 0
0.623056 -0.289236 -0.0972311 46 208 0
0.622682 -0.294479 -0.0944574 48 206 0
0.621091 -0.299059 -0.0913133 49 205 0
0.616389 -0.301932 -0.089015 51 203 0
0.610423 -0.302156 -0.0890407 52 202 0
0.606175 -0.299133 -0.0902246 54 200 0
0.602506 -0.294653 -0.0918447 56 198 0
0.599671 -0.289809 -0.0939187 57 197 0
0.599777 -0.284498 -0.0959989 59 195 0
0.601741 -0.279534 -0.0986937 60 194 0
0.605943 -0.276609 -0.101475 62 192 0
0.610623 -0.274235 -0.103275 64 190 0
0.616302 -0.275594 -0.104142 65 189 0
0.621415 -0.278043 -0.103459 67 187 0
0.622985 -0.283241 -0.101724 68 186 0
0.62112 -0.288179 -0.100156 70 184 0
0.616876 -0.292136 -0.0985981 72 182 0
0.611149 -0.292454 -0.0974619 73 181 0
0.605648 -0.290378 -0.0965826 75 179 0
0.601952 -0.285814 -0.0964096 76 178 0
0.599542 -0.280372 -0.0971575 78 176 0
0.599505 -0.274493 -0.0984266 80 174 0
0.601749 -0.269366 -0.0996174 81 173 0
0.606084 -0.265615 -0.100995 83 171 0
0.611564 -0.264383 -0.102084 85 169 0
0.617026 -0.265979 -0.10357 86 168 0
0.621261 -0.269904 -0.104784 88 166 0
0.622819 -0.275384 -0.105411 89 165 0
0.620393 -0.279959 -0.105184 91 163 0
0.615485 -0.282627 -0.104295 93 161 0
0.609669 -0.282231 -0.102882 94 160 0
0.604505 -0.279648 -0.101386 96 158 0
0.601289 -0.275097 -0.100129 97 157 0
0.599462 -0.269381 -0.099711 99 155 0
0.600151 -0.263917 -0.099557 101 153 0
0.602791 -0.258675 -0.099827 102 152 0
0.607873 -0.255636 -0.100589 104 150 0
0.613304 -0.255298 -0.101969 105 149 0
0.61892 -0.25681 -0.103245 107 147 0
0.622554 -0.260791 -0.104297 109 145 0
0.62255 -0.266724 -0.104496 110 144 0
0.618962 -0.271356 -0.103827 112 142 0
0.613386 -0.272945 -0.10282 113 141 0
0.607467 -0.272175 -0.102091 115 139 0
0.602404 -0.269449 -0.101516 117 137 0
0.599595 -0.264168 -0.101073 118 136 0
0.598634 -0.25847 -0.100854 120 134 0
0.598696 -0.252457 -0.100885 121 133 0
0.60286 -0.248202 -0.101466 123 131 0
0.607666 -0.244847 -0.102172 125 129 0
0.613239 -0.244524 -0.103266 126 128 0
0.618676 -0.246695 -0.103859 128 126 0
0.621078 -0.252102 -0.103759 129 125 0
0.622125 -0.257595 -0.10307 131 123 0
0.618376 -0.262166 -0.102355 133 121 0
0.612887 -0.263375 -0.101897 134 120 0
0.607282 -0.262513 -0.101677 136 118 0
0.602166 -0.259744 -0.101313 137 117 0
0.599742 -0.254273 -0.100965 139 115 0
0.598696 -0.24853 -0.10089 141 113 0
0.599553 -0.242783 -0.101269 142 112 0
0.603018 -0.237914 -0.101941 144 110 0
0.608119 -0.236282 -0.102689 145 109 0
0.613494 -0.235195 -0.102998 147 107 0
0.61854 -0.238439 -0.103187 149 105 0
0.622638 -0.242675 -0.103264 150 104 0
0.621345 -0.248131 -0.103223 152 102 0
0.617596 -0.252645 -0.103175 153 101 0
0.611987 -0.254553 -0.102945 155 99 0
0.606649 -0.252476 -0.102459 157 97 0
0.60195 -0.249732 -0.101589 158 96 0
0.599012 -0.244548 -0.101063 160 94 0
0.598595 -0.238608 -0.100829 161 93 0
0.59933 -0.232658 -0.10097 163 91 0
0.603277 -0.228251 -0.101226 165 89 0
0.608758 -0.226175 -0.101396 166 88 0
0.61474 -0.226337 -0.101809 168 86 0
0.619309 -0.229384 -0.102677 170 84 0
0.62025 -0.23506 -0.103401 171 83 0
0.620104 -0.241017 -0.10367 173 81 0
0.615116 -0.244096 -0.103164 174 80 0
0.609194 -0.244123 -0.102179 176 78 0
0.603633 -0.241997 -0.101437 178 76 0
0.599367 -0.23808 -0.100582 179 75 0
0.597822 -0.232388 -0.100121 181 73 0
0.598583 -0.226519 -0.0998581 182 72 0
0.601247 -0.221541 -0.100069 184 70 0
0.605304 -0.217347 -0.10066 186 68 0
0.610878 -0.21674 -0.101875 187 67 0
0.616163 -0.217922 -0.103121 189 65 0
0.620303 -0.221649 -0.103882 190 64 0
0.620386 -0.227642 -0.104006 192 62 0
0.617139 -0.232444 -0.10315 194 60 0
0.611959 -0.234438 -0.101825 195 59 0
0.606082 -0.23419 -0.100582 197 57 0
0.602417 -0.230421 -0.0996391 198 56 0
0.599047 -0.225498 -0.0992169 200 54 0
0.597966 -0.219698 -0.0993488 202 52 0
0.599132 -0.214045 -0.0999352 203 51 0
0.602027 -0.209667 -0.101482 205 49 0
0.606402 -0.206113 -0.103106 206 48 0
0.611902 -0.205947 -0.104913 208 46 0
0.617018 -0.208556 -0.106386 210 44 0
0.620489 -0.21325 -0.106756 211 43 0
0.620378 -0.219152 -0.105843 213 41 0
0.616776 -0.222765 -0.103762 214 40 0
0.611942 -0.224777 -0.101791 216 38 0
0.606915 -0.224478 -0.100316 218 36 0
0.601976 -0.221954 -0.0990854 219 35 0
0.598882 -0.21697 -0.0991154 221 33 0
0.596202 -0.212321 -0.0999425 222 32 0
0.596609 -0.206554 -0.101201 224 30 0
0.59931 -0.201926 -0.102957 226 28 0
0.603253 -0.198059 -0.104665 227 27 0
0.608595 -0.196529 -0.106175 229 25 0
0.614506 -0.196637 -0.107201 230 24 0
0.618075 -0.199902 -0.108168 232 22 0
0.620628 -0.204624 -0.108778 234 20 0
0.620599 -0.210493 -0.108343 235 19 0
0.617341 -0.212617 -0.10672 237 17 0
0.613442 -0.214476 -0.104666 238 16 0
0.609849 -0.215549 -0.102858 240 14 0
0.604792 -0.214771 -0.101101 242 12 0
0.60101 -0.211784 -0.100628 243 11 0
0.598703 -0.207571 -0.101344 245 9 0
0.596363 -0.203073 -0.102628 246 8 0
0.596579 -0.198296 -0.10476 248 6 0
0.599173 -0.193816 -0.106328 250 4 0
0.601286 -0.190139 -0.107493 251 3 0
0.604495 -0.187802 -0.108408 253 1 0
0.609206 -0.187114 -0.109059 255 0 0
