ply
format ascii 1.0
comment Generated by robot_control PLYWriter
element vertex 200
property float x
property float y
property float z
property uchar red
property uchar green
property uchar blue
end_header
0.567639 -0.380304 -0.0870609 0 255 0
0.567639 -0.380304 -0.0870609 1 253 0
0.567639 -0.380304 -0.0870609 2 252 0
0.567639 -0.380304 -0.0870609 3 251 0
0.567639 -0.380304 -0.0870609 5 249 0
0.567639 -0.380304 -0.0870609 6 248 0
0.567639 -0.380304 -0.0870609 7 247 0
0.567639 -0.380304 -0.0870609 8 246 0
0.567639 -0.380304 -0.0870609 10 244 0
0.567639 -0.380304 -0.0870609 11 243 0
0.567639 -0.380304 -0.0870609 12 242 0
0.567639 -0.380304 -0.0870609 14 240 0
0.567639 -0.380304 -0.0870609 15 239 0
0.567639 -0.380304 -0.0870609 16 238 0
0.567639 -0.380304 -0.0870609 17 237 0
0.567639 -0.380304 -0.0870609 19 235 0
0.567639 -0.380304 -0.0870609 20 234 0
0.567639 -0.380304 -0.0870609 21 233 0
0.567639 -0.380304 -0.0870609 23 231 0
0.567639 -0.380304 -0.0870609 24 230 0
0.567639 -0.380304 -0.0870609 25 229 0
0.567639 -0.380304 -0.0870609 26 228 0
0.567639 -0.380304 -0.0870609 28 226 0
0.567639 -0.380304 -0.0870609 29 225 0
0.567639 -0.380304 -0.0870609 30 224 0
0.567639 -0.380304 -0.0870609 32 222 0
0.567639 -0.380304 -0.0870609 33 221 0
0.567639 -0.380304 -0.0870609 34 220 0
0.567639 -0.380304 -0.0870609 35 219 0
0.567639 -0.380304 -0.0870609 37 217 0
0.567639 -0.380304 -0.0870609 38 216 0
0.567639 -0.380304 -0.0870609 39 215 0
0.567639 -0.380304 -0.0870609 41 213 0
0.567639 -0.380304 -0.0870609 42 212 0
0.567639 -0.380304 -0.0870609 43 211 0
0.567639 -0.380304 -0.0870609 44 210 0
0.567639 -0.380304 -0.0870609 46 208 0
0.567639 -0.380304 -0.0870609 47 207 0
0.567639 -0.380304 -0.0870609 48 206 0
0.567639 -0.380304 -0.0870609 49 205 0
0.567639 -0.380304 -0.0870609 51 203 0
0.567639 -0.380304 -0.0870609 52 202 0
0.567639 -0.380304 -0.0870609 53 201 0
0.567639 -0.380304 -0.0870609 55 199 0
0.567639 -0.380304 -0.0870609 56 198 0
0.567639 -0.380304 -0.0870609 57 197 0
0.567639 -0.380304 -0.0870609 58 196 0
0.567639 -0.380304 -0.0870609 60 194 0
0.567639 -0.380304 -0.0870609 61 193 0
0.567639 -0.380304 -0.0870609 62 192 0
0.567639 -0.380304 -0.0870609 64 190 0
0.567639 -0.380304 -0.0870609 65 189 0
0.567639 -0.380304 -0.0870609 66 188 0
0.567639 -0.380304 -0.0870609 67 187 0
0.567639 -0.380304 -0.0870609 69 185 0
0.567639 -0.380304 -0.0870609 70 184 0
0.567639 -0.380304 -0.0870609 71 183 0
0.567639 -0.380304 -0.0870609 73 181 0
0.567639 -0.380304 -0.0870609 74 180 0
0.567639 -0.380304 -0.0870609 75 179 0
0.567639 -0.380304 -0.0870609 76 178 0
0.567639 -0.380304 -0.0870609 78 176 0
0.567639 -0.380304 -0.0870609 79 175 0
0.567639 -0.380304 -0.0870609 80 174 0
0.567639 -0.380304 -0.0870609 82 172 0
0.567639 -0.380304 -0.0870609 83 171 0
0.567639 -0.380304 -0.0870609 84 170 0
0.567639 -0.380304 -0.0870609 85 169 0
0.567639 -0.380304 -0.0870609 87 167 0
0.567639 -0.380304 -0.0870609 88 166 0
0.567639 -0.380304 -0.0870609 89 165 0
0.567639 -0.380304 -0.0870609 90 164 0
0.567639 -0.380304 -0.0870609 92 162 0
0.567639 -0.380304 -0.0870609 93 161 0
0.567639 -0.380304 -0.0870609 94 160 0
0.567639 -0.380304 -0.0870609 96 158 0
0.567639 -0.380304 -0.0870609 97 157 0
0.567639 -0.380304 -0.0870609 98 156 0
0.567639 -0.380304 -0.0870609 99 155 0
0.567639 -0.380304 -0.0870609 101 153 0
0.567639 -0.380304 -0.0870609 102 152 0
0.567639 -0.380304 -0.0870609 103 151 0
0.567639 -0.380304 -0.0870609 105 149 0
0.567639 -0.380304 -0.0870609 106 148 0
0.567639 -0.380304 -0.0870609 107 147 0
0.567639 -0.380304 -0.0870609 108 146 0
0.567639 -0.380304 -0.0870609 110 144 0
0.567639 -0.380304 -0.0870609 111 143 0
0.567639 -0.380304 -0.0870609 112 142 0
0.567639 -0.380304 -0.0870609 114 140 0
0.567639 -0.380304 -0.0870609 115 139 0
0.567639 -0.380304 -0.0870609 116 138 0
0.567639 -0.380304 -0.0870609 117 137 0
0.567639 -0.380304 -0.0870609 119 135 0
0.567639 -0.380304 -0.0870609 120 134 0
0.567639 -0.380304 -0.0870609 121 133 0
0.567639 -0.380304 -0.0870609 123 131 0
0.567639 -0.380304 -0.0870609 124 130 0
0.567639 -0.380304 -0.0870609 125 129 0
0.567639 -0.380304 -0.0870609 126 128 0
0.567639 -0.380304 -0.0870609 128 126 0
0.567639 -0.380304 -0.0870609 129 125 0
0.567639 -0.380304 -0.0870609 130 124 0
0.567639 -0.380304 -0.0870609 131 123 0
0.567639 -0.380304 -0.0870609 133 121 0
0.567639 -0.380304 -0.0870609 134 120 0
0.567639 -0.380304 -0.0870609 135 119 0
0.567639 -0.380304 -0.0870609 137 117 0
0.567639 -0.380304 -0.0870609 138 116 0
0.567639 -0.380304 -0.0870609 139 115 0
0.567639 -0.380304 -0.0870609 140 114 0
0.567639 -0.380304 -0.0870609 142 112 0
0.567639 -0.380304 -0.0870609 143 111 0
0.567639 -0.380304 -0.0870609 144 110 0
0.567639 -0.380304 -0.0870609 146 108 0
0.567639 -0.380304 -0.0870609 147 107 0
0.567639 -0.380304 -0.0870609 148 106 0
0.567639 -0.380304 -0.0870609 149 105 0
0.567639 -0.380304 -0.0870609 151 103 0
0.567639 -0.380304 -0.0870609 152 102 0
0.567639 -0.380304 -0.0870609 153 101 0
0.567639 -0.380304 -0.0870609 155 99 0
0.567639 -0.380304 -0.0870609 156 98 0
0.567639 -0.380304 -0.0870609 157 97 0
0.567639 -0.380304 -0.0870609 158 96 0
0.567639 -0.380304 -0.0870609 160 94 0
0.567639 -0.380304 -0.0870609 161 93 0
0.567639 -0.380304 -0.0870609 162 92 0
0.567639 -0.380304 -0.0870609 164 90 0
0.567639 -0.380304 -0.0870609 165 89 0
0.567639 -0.380304 -0.0870609 166 88 0
0.567639 -0.380304 -0.0870609 167 87 0
0.567639 -0.380304 -0.0870609 169 85 0
0.567639 -0.380304 -0.0870609 170 84 0
0.567639 -0.380304 -0.0870609 171 83 0
0.567639 -0.380304 -0.0870609 172 82 0
0.567639 -0.380304 -0.0870609 174 80 0
0.567639 -0.380304 -0.0870609 175 79 0
0.567639 -0.380304 -0.0870609 176 78 0
0.567639 -0.380304 -0.0870609 178 76 0
0.567639 -0.380304 -0.0870609 179 75 0
0.567639 -0.380304 -0.0870609 180 74 0
0.567639 -0.380304 -0.0870609 181 73 0
0.567639 -0.380304 -0.0870609 183 71 0
0.567639 -0.380304 -0.0870609 184 70 0
0.567639 -0.380304 -0.0870609 185 69 0
0.567639 -0.380304 -0.0870609 187 67 0
0.567639 -0.380304 -0.0870609 188 66 0
0.567639 -0.380304 -0.0870609 189 65 0
0.567639 -0.380304 -0.0870609 190 64 0
0.567639 -0.380304 -0.0870609 192 62 0
0.567639 -0.380304 -0.0870609 193 61 0
0.567639 -0.380304 -0.0870609 194 60 0
0.567639 -0.380304 -0.0870609 196 58 0
0.567639 -0.380304 -0.0870609 197 57 0
0.567639 -0.380304 -0.0870609 198 56 0
0.567639 -0.380304 -0.0870609 199 55 0
0.567639 -0.380304 -0.0870609 201 53 0
0.567639 -0.380304 -0.0870609 202 52 0
0.567639 -0.380304 -0.0870609 203 51 0
0.567639 -0.380304 -0.0870609 205 49 0
0.567639 -0.380304 -0.0870609 206 48 0
0.567639 -0.380304 -0.0870609 207 47 0
0.567639 -0.380304 -0.0870609 208 46 0
0.567639 -0.380304 -0.0870609 210 44 0
0.567639 -0.380304 -0.0870609 211 43 0
0.567639 -0.380304 -0.0870609 212 42 0
0.567639 -0.380304 -0.0870609 213 41 0
0.567639 -0.380304 -0.0870609 215 39 0
0.567639 -0.380304 -0.0870609 216 38 0
0.567639 -0.380304 -0.0870609 217 37 0
0.567639 -0.380304 -0.0870609 219 35 0
0.567639 -0.380304 -0.0870609 220 34 0
0.567639 -0.380304 -0.0870609 221 33 0
0.567639 -0.380304 -0.0870609 222 32 0
0.567639 -0.380304 -0.0870609 224 30 0
0.567639 -0.380304 -0.0870609 225 29 0
0.567639 -0.380304 -0.0870609 226 28 0
0.567639 -0.380304 -0.0870609 228 26 0
0.567639 -0.380304 -0.0870609 229 25 0
0.567639 -0.380304 -0.0870609 230 24 0
0.567639 -0.380304 -0.0870609 231 23 0
0.567639 -0.380304 -0.0870609 233 21 0
0.567639 -0.380304 -0.0870609 234 20 0
0.567639 -0.380304 -0.0870609 235 19 0
0.567639 -0.380304 -0.0870609 237 17 0
0.567639 -0.380304 -0.0870609 238 16 0
0.567639 -0.380304 -0.0870609 239 15 0
0.567639 -0.380304 -0.0870609 240 14 0
0.567639 -0.380304 -0.0870609 242 12 0
0.567639 -0.380304 -0.0870609 243 11 0
0.567639 -0.380304 -0.0870609 244 10 0
0.567639 -0.380304 -0.0870609 246 8 0
0.567639 -0.380304 -0.0870609 247 7 0
0.567639 -0.380304 -0.0870609 248 6 0
0.567639 -0.380304 -0.0870609 249 5 0
0.567639 -0.380304 -0.0870609 251 3 0
0.567639 -0.380304 -0.0870609 252 2 0
0.567639 -0.380304 -0.0870609 253 1 0
0.567639 -0.380304 -0.0870609 255 0 0
