ply
format ascii 1.0
comment Generated by robot_control PLYWriter
element vertex 10
property float x
property float y
property float z
property uchar red
property uchar green
property uchar blue
end_header
0.670973 -0.197694 -0.0437209 0 255 0
0.671164 -0.202938 -0.0435896 28 226 0
0.671439 -0.208191 -0.0436578 56 198 0
0.671695 -0.213443 -0.0434788 85 169 0
0.671901 -0.218696 -0.0433034 113 141 0
0.672227 -0.223946 -0.0433605 141 113 0
0.672266 -0.229205 -0.0434852 170 84 0
0.672273 -0.234465 -0.0435142 198 56 0
0.672402 -0.239718 -0.0432586 226 28 0
0.672472 -0.244973 -0.0430791 255 0 0
