ply
format ascii 1.0
comment Generated by robot_control PLYWriter
element vertex 10
property float x
property float y
property float z
property uchar red
property uchar green
property uchar blue
end_header
0.632665 -0.0802547 -0.036211 0 255 0
0.632692 -0.0853081 -0.0366689 28 226 0
0.632733 -0.0903462 -0.037275 56 198 0
0.632778 -0.0953804 -0.0379101 85 169 0
0.63294 -0.100398 -0.0386458 113 141 0
0.6332 -0.105412 -0.0393901 141 113 0
0.63346 -0.110427 -0.0401214 170 84 0
0.633719 -0.115447 -0.0408188 198 56 0
0.634013 -0.120466 -0.0415099 226 28 0
0.634528 -0.125493 -0.0419715 255 0 0
