ply
format ascii 1.0
comment Generated by robot_control PLYWriter
element vertex 9
property float x
property float y
property float z
property uchar red
property uchar green
property uchar blue
end_header
0.65573 0.0925501 -0.0431623 0 255 0
0.656226 0.088029 -0.0413493 31 223 0
0.656869 0.0834143 -0.0398187 63 191 0
0.657706 0.0787553 -0.0385529 95 159 0
0.658505 0.0740093 -0.0376513 127 127 0
0.659343 0.0692124 -0.0372425 159 95 0
0.66043 0.0644438 -0.0374391 191 63 0
0.661226 0.0596477 -0.0380797 223 31 0
0.662075 0.0548974 -0.0389104 255 0 0
