ply
format ascii 1.0
comment Generated by robot_control PLYWriter
element vertex 49
property float x
property float y
property float z
property uchar red
property uchar green
property uchar blue
end_header
0.607104 0.0948177 -0.151577 0 255 0
0.610951 0.0936279 -0.148834 5 249 0
0.615139 0.0906234 -0.146996 10 244 0
0.61716 0.086385 -0.144436 15 239 0
0.618752 0.0813676 -0.14215 21 233 0
0.616872 0.0763096 -0.140555 26 228 0
0.614325 0.0709199 -0.139758 31 223 0
0.610006 0.0668096 -0.139259 37 217 0
0.604898 0.0637365 -0.139574 42 212 0
0.598945 0.0636189 -0.140488 47 207 0
0.593612 0.0655006 -0.142364 53 201 0
0.588692 0.0679519 -0.144403 58 196 0
0.585239 0.0724241 -0.146495 63 191 0
0.585324 0.07809 -0.148224 69 185 0
0.587728 0.083445 -0.149398 74 180 0
0.592034 0.0872145 -0.149913 79 175 0
0.597609 0.0893818 -0.149432 85 169 0
0.602921 0.0877754 -0.148419 90 164 0
0.607959 0.0855668 -0.146557 95 159 0
0.610365 0.0805979 -0.144841 100 154 0
0.61025 0.0748255 -0.143037 106 148 0
0.608743 0.0693068 -0.141325 111 143 0
0.605466 0.0643128 -0.140476 116 138 0
0.601374 0.0599633 -0.139971 122 132 0
0.595584 0.0584483 -0.140213 127 127 0
0.589583 0.0586929 -0.140852 132 122 0
0.58472 0.0611628 -0.142477 138 116 0
0.57982 0.0641106 -0.144004 143 111 0
0.578144 0.0689592 -0.145598 148 106 0
0.578453 0.0746881 -0.147271 154 100 0
0.58142 0.0797943 -0.148336 159 95 0
0.586257 0.0828796 -0.148902 164 90 0
0.592183 0.0834087 -0.148491 170 84 0
0.597406 0.0824682 -0.147403 175 79 0
0.601996 0.0791003 -0.145546 180 74 0
0.602711 0.0735342 -0.143347 185 69 0
0.603385 0.0678871 -0.141363 191 63 0
0.600665 0.0629213 -0.139954 196 58 0
0.597615 0.0580023 -0.138602 201 53 0
0.592259 0.0554277 -0.137865 207 47 0
0.5864 0.0543525 -0.137725 212 42 0
0.581531 0.054078 -0.138503 217 37 0
0.576278 0.056021 -0.139936 223 31 0
0.572499 0.0599869 -0.142472 228 26 0
0.570706 0.064634 -0.144985 233 21 0
0.571297 0.0693668 -0.148026 239 15 0
0.574687 0.0738617 -0.149885 244 10 0
0.578493 0.0760922 -0.151009 249 5 0
0.583213 0.0774504 -0.150789 255 0 0
