ply
format ascii 1.0
comment Generated by robot_control PLYWriter
element vertex 11
property float x
property float y
property float z
property uchar red
property uchar green
property uchar blue
end_header
0.686922 -0.116409 -0.114951 0 255 0
0.686925 -0.111361 -0.114223 25 229 0
0.687163 -0.10636 -0.113265 51 204 0
0.687204 -0.101384 -0.11215 76 178 0
0.687321 -0.0964279 -0.110965 102 153 0
0.687614 -0.0914799 -0.109764 127 127 0
0.687793 -0.0865185 -0.108603 153 101 0
0.687954 -0.0815438 -0.107496 178 76 0
0.688037 -0.0765593 -0.106442 204 50 0
0.68801 -0.0715676 -0.105404 229 25 0
0.688053 -0.06652 -0.104859 255 0 0
