ply
format ascii 1.0
comment Generated by robot_control PLYWriter
element vertex 10
property float x
property float y
property float z
property uchar red
property uchar green
property uchar blue
end_header
0.540844 -0.352225 -0.122745 0 255 0
0.540795 -0.356685 -0.121037 28 226 0
0.540835 -0.361104 -0.119194 56 198 0
0.540839 -0.365474 -0.117235 85 169 0
0.54085 -0.369869 -0.115335 113 141 0
0.540777 -0.374274 -0.113458 141 113 0
0.540686 -0.378697 -0.111629 170 84 0
0.540667 -0.383176 -0.109933 198 56 0
0.540532 -0.387688 -0.108335 226 28 0
0.540338 -0.392159 -0.106645 255 0 0
