ply
format ascii 1.0
comment Generated by robot_control PLYWriter
element vertex 11
property float x
property float y
property float z
property uchar red
property uchar green
property uchar blue
end_header
0.660684 -0.326519 -0.0769275 0 255 0
0.660596 -0.321792 -0.075778 25 229 0
0.660606 -0.316941 -0.0751858 51 204 0
0.660877 -0.312094 -0.0755127 76 178 0
0.660946 -0.307369 -0.0766775 102 153 0
0.66099 -0.302773 -0.0783235 127 127 0
0.661198 -0.29822 -0.0800817 153 101 0
0.661521 -0.293601 -0.0816279 178 76 0
0.661761 -0.288856 -0.082745 204 50 0
0.661832 -0.283998 -0.0832628 229 25 0
0.662393 -0.279152 -0.0832012 255 0 0
