ply
format ascii 1.0
comment Generated by robot_control PLYWriter
element vertex 9
property float x
property float y
property float z
property uchar red
property uchar green
property uchar blue
end_header
0.515766 -0.140935 -0.127236 0 255 0
0.515042 -0.146071 -0.127412 31 223 0
0.514246 -0.151202 -0.127549 63 191 0
0.513413 -0.156327 -0.127692 95 159 0
0.512693 -0.161466 -0.127899 127 127 0
0.511999 -0.166613 -0.127968 159 95 0
0.511081 -0.171723 -0.127838 191 63 0
0.510429 -0.176862 -0.127473 223 31 0
0.509723 -0.181971 -0.127002 255 0 0
