ply
format ascii 1.0
comment Generated by robot_control PLYWriter
element vertex 65
property float x
property float y
property float z
property uchar red
property uchar green
property uchar blue
end_header
0.587975 -0.0463217 -0.100916 0 255 0
0.591902 -0.0480925 -0.0998712 3 251 0
0.595444 -0.0518162 -0.0988787 7 247 0
0.598604 -0.0563824 -0.0979418 11 243 0
0.596931 -0.0617239 -0.0971057 15 239 0
0.594394 -0.06689 -0.0967817 19 235 0
0.589862 -0.0695676 -0.0970956 23 231 0
0.58409 -0.0706176 -0.0977085 27 227 0
0.578504 -0.0695246 -0.0989289 31 223 0
0.574199 -0.0656295 -0.100132 35 219 0
0.570132 -0.0614298 -0.101363 39 215 0
0.569017 -0.0560201 -0.102466 43 211 0
0.567799 -0.0509277 -0.103258 47 207 0
0.570289 -0.0455532 -0.103809 51 203 0
0.573195 -0.0404083 -0.103979 55 199 0
0.578033 -0.0371252 -0.103766 59 195 0
0.583708 -0.0353133 -0.10334 63 191 0
0.589376 -0.0357661 -0.102618 67 187 0
0.594102 -0.0392624 -0.101737 71 183 0
0.596247 -0.0446807 -0.1009 75 179 0
0.597474 -0.0493995 -0.100276 79 175 0
0.594714 -0.0545608 -0.10006 83 171 0
0.590439 -0.0585934 -0.100208 87 167 0
0.584489 -0.0584029 -0.100729 91 163 0
0.578556 -0.0583017 -0.101463 95 159 0
0.573749 -0.055269 -0.102213 99 155 0
0.570628 -0.0504512 -0.103422 103 151 0
0.56929 -0.0447619 -0.104517 107 147 0
0.569144 -0.0388496 -0.105379 111 143 0
0.570861 -0.0333922 -0.105951 115 139 0
0.574678 -0.0288613 -0.10618 119 135 0
0.579318 -0.0250999 -0.106103 123 131 0
0.585043 -0.0245313 -0.105793 127 127 0
0.590869 -0.024957 -0.105326 131 123 0
0.594433 -0.0296605 -0.104518 135 119 0
0.598094 -0.034276 -0.103671 139 115 0
0.596577 -0.0395583 -0.103028 143 111 0
0.592885 -0.0441812 -0.102612 147 107 0
0.588087 -0.0476311 -0.102676 151 103 0
0.582294 -0.0480599 -0.10328 155 99 0
0.577032 -0.0462784 -0.104284 159 95 0
0.572521 -0.0425016 -0.105322 163 91 0
0.569675 -0.0376251 -0.106429 167 87 0
0.567731 -0.0322422 -0.107685 171 83 0
0.569049 -0.0264496 -0.108358 175 79 0
0.571596 -0.0211284 -0.109149 179 75 0
0.575468 -0.0169408 -0.10954 183 71 0
0.581163 -0.0151462 -0.109626 187 67 0
0.587055 -0.0148439 -0.109213 191 63 0
0.592636 -0.0161011 -0.10834 195 59 0
0.59634 -0.0203965 -0.107194 199 55 0
0.598531 -0.025226 -0.105906 203 51 0
0.596312 -0.0305277 -0.10508 207 47 0
0.592867 -0.0351111 -0.104609 211 43 0
0.587322 -0.0366735 -0.104546 215 39 0
0.581784 -0.0382311 -0.105052 219 35 0
0.576523 -0.0358669 -0.106074 223 31 0
0.571952 -0.0324152 -0.107706 227 27 0
0.569015 -0.0276808 -0.109456 231 23 0
0.568604 -0.022063 -0.111024 235 19 0
0.568895 -0.0169697 -0.112203 239 15 0
0.570055 -0.011991 -0.11363 243 11 0
0.572943 -0.0080048 -0.114424 247 7 0
0.577687 -0.00554622 -0.114764 251 3 0
0.582692 -0.00427464 -0.114459 255 0 0
