ply
format ascii 1.0
comment Generated by robot_control PLYWriter
element vertex 28
property float x
property float y
property float z
property uchar red
property uchar green
property uchar blue
end_header
0.621018 0.164693 -0.138697 0 255 0
0.625974 0.162492 -0.137587 9 245 0
0.62857 0.157497 -0.135981 18 236 0
0.628351 0.15157 -0.134646 28 226 0
0.624891 0.146916 -0.133222 37 217 0
0.618839 0.147115 -0.132776 47 207 0
0.612778 0.147459 -0.133135 56 198 0
0.608014 0.150631 -0.134037 66 188 0
0.604406 0.155421 -0.13508 75 179 0
0.60259 0.160762 -0.136473 85 169 0
0.604378 0.166367 -0.137624 94 160 0
0.607589 0.17118 -0.13926 103 151 0
0.611914 0.175015 -0.140202 113 141 0
0.617805 0.176311 -0.140969 122 132 0
0.62341 0.174332 -0.141065 132 122 0
0.628003 0.171077 -0.140679 141 113 0
0.630455 0.165563 -0.139942 151 103 0
0.628928 0.159895 -0.138776 160 94 0
0.624607 0.156869 -0.137721 170 84 0
0.618562 0.15682 -0.137153 179 75 0
0.613222 0.158205 -0.137134 188 66 0
0.60852 0.161816 -0.137802 198 56 0
0.605594 0.166979 -0.138622 207 47 0
0.605217 0.172768 -0.140173 217 37 0
0.606968 0.177841 -0.142218 226 28 0
0.609262 0.182683 -0.143801 236 18 0
0.614151 0.184859 -0.14512 245 9 0
0.618955 0.185105 -0.146405 255 0 0
