ply
format ascii 1.0
comment Generated by robot_control PLYWriter
element vertex 175
property float x
property float y
property float z
property uchar red
property uchar green
property uchar blue
end_header
0.575036 0.167376 -0.116364 0 255 0
0.580264 0.165994 -0.117326 1 253 0
0.584873 0.163431 -0.117719 2 252 0
0.587108 0.158415 -0.117155 4 250 0
0.588759 0.153341 -0.115812 5 249 0
0.590436 0.148687 -0.114479 7 247 0
0.588866 0.143691 -0.112971 8 246 0
0.587866 0.138746 -0.111122 10 244 0
0.584089 0.134416 -0.109706 11 243 0
0.579583 0.130667 -0.108591 13 241 0
0.574885 0.127733 -0.107583 14 240 0
0.569135 0.128752 -0.107094 16 238 0
0.564435 0.131574 -0.107013 17 237 0
0.558673 0.132597 -0.107277 19 235 0
0.556257 0.137826 -0.107951 20 234 0
0.554635 0.143441 -0.108786 21 233 0
0.555806 0.149097 -0.109952 23 231 0
0.558218 0.15406 -0.111299 24 230 0
0.562503 0.157963 -0.112622 26 228 0
0.568123 0.159333 -0.113476 27 227 0
0.574039 0.160084 -0.114117 29 225 0
0.578655 0.156994 -0.114212 30 224 0
0.583715 0.154233 -0.113978 32 222 0
0.587497 0.149613 -0.11346 33 221 0
0.590653 0.144593 -0.112718 35 219 0
0.590486 0.138711 -0.111756 36 218 0
0.589318 0.133325 -0.110422 38 216 0
0.586634 0.128163 -0.109043 39 215 0
0.583006 0.123629 -0.107906 41 213 0
0.57835 0.119963 -0.107136 42 212 0
0.572603 0.119251 -0.106527 43 211 0
0.566635 0.119652 -0.106193 45 209 0
0.561397 0.12195 -0.106163 46 208 0
0.556419 0.125278 -0.106366 48 206 0
0.556022 0.131184 -0.10685 49 205 0
0.55471 0.136836 -0.107762 51 203 0
0.556891 0.142158 -0.108835 52 202 0
0.561101 0.146322 -0.109744 54 200 0
0.566207 0.148883 -0.110442 55 199 0
0.572169 0.149393 -0.110795 57 197 0
0.577993 0.149303 -0.110923 58 196 0
0.582931 0.145927 -0.110881 60 194 0
0.587153 0.141731 -0.110675 61 193 0
0.589608 0.136292 -0.110139 63 191 0
0.590739 0.130528 -0.109594 64 190 0
0.590282 0.124659 -0.108707 65 189 0
0.587626 0.119433 -0.107785 67 187 0
0.584022 0.1147 -0.10708 68 186 0
0.579187 0.111434 -0.106315 70 184 0
0.573407 0.109943 -0.105817 71 183 0
0.567453 0.109395 -0.105464 73 181 0
0.56211 0.111943 -0.105303 74 180 0
0.557968 0.11582 -0.105395 76 178 0
0.555725 0.121379 -0.105627 77 177 0
0.554803 0.12719 -0.106181 79 175 0
0.556637 0.132809 -0.106786 80 174 0
0.560687 0.137216 -0.107229 82 172 0
0.56621 0.139294 -0.107765 83 171 0
0.571803 0.140989 -0.108113 85 169 0
0.577676 0.139869 -0.10834 86 168 0
0.583058 0.137282 -0.108449 87 167 0
0.587065 0.132882 -0.108363 89 165 0
0.589122 0.127265 -0.10807 90 164 0
0.590743 0.121495 -0.107812 92 162 0
0.590787 0.115514 -0.107331 93 161 0
0.588408 0.110075 -0.106709 95 159 0
0.584821 0.105327 -0.106016 96 158 0
0.580384 0.101328 -0.105434 98 156 0
0.5747 0.099505 -0.104939 99 155 0
0.568757 0.0995637 -0.104595 101 153 0
0.563533 0.102349 -0.104366 102 152 0
0.559176 0.106463 -0.104306 104 150 0
0.555906 0.111115 -0.104425 105 149 0
0.555464 0.116879 -0.104675 106 148 0
0.557659 0.122448 -0.10509 108 146 0
0.561361 0.126737 -0.105565 109 145 0
0.565795 0.130682 -0.106071 111 143 0
0.571483 0.131309 -0.106459 112 142 0
0.577304 0.129966 -0.106702 114 140 0
0.582565 0.127186 -0.106862 115 139 0
0.586837 0.123149 -0.106986 117 137 0
0.589636 0.117876 -0.107011 118 136 0
0.590869 0.112113 -0.106911 120 134 0
0.590931 0.106119 -0.106693 121 133 0
0.589643 0.100546 -0.106297 123 131 0
0.585641 0.0961283 -0.105802 124 130 0
0.580752 0.0927665 -0.10528 126 128 0
0.575316 0.0903116 -0.104889 127 127 0
0.569372 0.0903334 -0.104435 128 126 0
0.563818 0.092086 -0.104231 130 124 0
0.559768 0.0965051 -0.104078 131 123 0
0.556099 0.10103 -0.103979 133 121 0
0.555695 0.106712 -0.104012 134 120 0
0.557781 0.112329 -0.104199 136 118 0
0.560669 0.117423 -0.10445 137 117 0
0.565282 0.121153 -0.10484 139 115 0
0.57101 0.121744 -0.105291 140 114 0
0.576783 0.12027 -0.105706 142 112 0
0.582549 0.11865 -0.106069 143 111 0
0.586621 0.114993 -0.106326 145 109 0
0.589068 0.109529 -0.1065 146 108 0
0.590566 0.103774 -0.10662 148 106 0
0.59076 0.097779 -0.106649 149 105 0
0.589351 0.0922715 -0.106519 150 104 0
0.585648 0.0875611 -0.106251 152 102 0
0.581809 0.083189 -0.105903 153 101 0
0.576046 0.0817014 -0.105454 155 99 0
0.570076 0.0817929 -0.104975 156 98 0
0.564401 0.0833252 -0.104584 158 96 0
0.559454 0.0866137 -0.104231 159 95 0
0.55696 0.0918558 -0.103987 161 93 0
0.55655 0.0977993 -0.103887 162 92 0
0.558055 0.103529 -0.103868 164 90 0
0.56162 0.108333 -0.104037 165 89 0
0.566007 0.111538 -0.104295 167 87 0
0.571952 0.110952 -0.104662 168 86 0
0.577878 0.110987 -0.105151 170 84 0
0.583083 0.108181 -0.105755 171 83 0
0.587277 0.104177 -0.106187 172 82 0
0.589498 0.0986178 -0.106574 174 80 0
0.590771 0.0928594 -0.106768 175 79 0
0.590351 0.0869029 -0.106864 177 77 0
0.588804 0.0811189 -0.106843 178 76 0
0.584896 0.0767703 -0.106733 180 74 0
0.579879 0.0735975 -0.106496 181 73 0
0.574155 0.0718839 -0.106158 183 71 0
0.568354 0.0715721 -0.105533 184 70 0
0.563108 0.0744245 -0.105037 186 68 0
0.558454 0.0780361 -0.104604 187 67 0
0.556514 0.0835399 -0.104103 189 65 0
0.556604 0.0895037 -0.103745 190 64 0
0.559079 0.094953 -0.103667 191 63 0
0.562741 0.099648 -0.103783 193 61 0
0.567951 0.101981 -0.104108 194 60 0
0.573809 0.103203 -0.104544 196 58 0
0.579194 0.101138 -0.10519 197 57 0
0.584248 0.0983659 -0.105853 199 55 0
0.588303 0.0939744 -0.10637 200 54 0
0.590556 0.0888706 -0.106834 202 52 0
0.592126 0.0832514 -0.107191 203 51 0
0.591759 0.0777571 -0.10742 205 49 0
0.588888 0.0725479 -0.107548 206 48 0
0.586742 0.066984 -0.107504 208 46 0
0.581336 0.0645602 -0.107265 209 45 0
0.576366 0.06193 -0.106839 211 43 0
0.570384 0.0617944 -0.106411 212 42 0
0.565167 0.0643345 -0.105771 213 41 0
0.559926 0.0670543 -0.105226 215 39 0
0.556487 0.0716246 -0.104723 216 38 0
0.556477 0.0776057 -0.104274 218 36 0
0.556733 0.0835154 -0.104002 219 35 0
0.560295 0.0883397 -0.104041 221 33 0
0.565105 0.0917377 -0.104292 222 32 0
0.570718 0.0929779 -0.104753 224 30 0
0.576586 0.0926882 -0.105366 225 29 0
0.582405 0.0915203 -0.106056 227 27 0
0.58671 0.0875333 -0.106804 228 26 0
0.590684 0.083084 -0.107412 230 24 0
0.591994 0.0774575 -0.107948 231 23 0
0.59318 0.0717731 -0.10835 233 21 0
0.591396 0.0663555 -0.108623 234 20 0
0.590048 0.060857 -0.108709 235 19 0
0.585133 0.057543 -0.108634 237 17 0
0.580552 0.0537208 -0.108391 238 16 0
0.574807 0.0524106 -0.107918 240 14 0
0.569173 0.0524813 -0.107328 241 13 0
0.563787 0.0543588 -0.106704 243 11 0
0.560142 0.058654 -0.105738 244 10 0
0.556786 0.0632041 -0.105182 246 8 0
0.556414 0.0690285 -0.104735 247 7 0
0.558804 0.0740159 -0.104627 249 5 0
0.561226 0.0776729 -0.104712 250 4 0
0.564167 0.0816695 -0.104917 252 2 0
0.569179 0.0837081 -0.105336 253 1 0
0.574763 0.0839819 -0.105923 255 0 0
