ply
format ascii 1.0
comment Generated by robot_control PLYWriter
element vertex 12
property float x
property float y
property float z
property uchar red
property uchar green
property uchar blue
end_header
0.662597 0.0152977 -0.0496216 0 255 0
0.662918 0.0116046 -0.0462472 23 231 0
0.663129 0.00762218 -0.0432113 46 208 0
0.66318 0.00338258 -0.0405164 69 185 0
0.663371 -0.000864176 -0.03784 92 162 0
0.663573 -0.00533712 -0.0355866 115 139 0
0.663882 -0.0101051 -0.034132 139 115 0
0.664076 -0.0150761 -0.0335846 162 92 0
0.664252 -0.0200714 -0.0338629 185 69 0
0.664353 -0.0250185 -0.034701 208 46 0
0.664579 -0.0299101 -0.0357883 231 23 0
0.664526 -0.034698 -0.0372957 255 0 0
