ply
format ascii 1.0
comment Generated by robot_control PLYWriter
element vertex 9
property float x
property float y
property float z
property uchar red
property uchar green
property uchar blue
end_header
0.692249 0.0254999 -0.105986 0 255 0
0.691971 0.0207954 -0.105386 31 223 0
0.691537 0.016095 -0.104777 63 191 0
0.691165 0.0113839 -0.104199 95 159 0
0.690807 0.00666149 -0.103716 127 127 0
0.690461 0.00192817 -0.10334 159 95 0
0.690233 -0.0028147 -0.103044 191 63 0
0.690261 -0.00757133 -0.102844 223 31 0
0.690302 -0.0123314 -0.102757 255 0 0
