ply
format ascii 1.0
comment Generated by robot_control PLYWriter
element vertex 8
property float x
property float y
property float z
property uchar red
property uchar green
property uchar blue
end_header
0.610401 0.0304805 -0.143693 0 255 0
0.610348 0.0351206 -0.143544 36 218 0
0.610332 0.0397616 -0.143412 72 182 0
0.610313 0.0444036 -0.143329 109 145 0
0.610291 0.0490458 -0.143249 145 109 0
0.610284 0.0536876 -0.14315 182 72 0
0.610301 0.0583292 -0.143047 218 36 0
0.610314 0.0629713 -0.142962 255 0 0
