ply
format ascii 1.0
comment Generated by robot_control PLYWriter
element vertex 33
property float x
property float y
property float z
property uchar red
property uchar green
property uchar blue
end_header
0.695899 0.0458501 -0.0937124 0 255 0
0.701143 0.0439246 -0.0926809 7 247 0
0.704748 0.040668 -0.0918183 15 239 0
0.707253 0.0353954 -0.0913605 23 231 0
0.708669 0.0299767 -0.0910034 31 223 0
0.707457 0.0241758 -0.0905865 39 215 0
0.703968 0.019383 -0.0903099 47 207 0
0.698901 0.0180715 -0.0903183 55 199 0
0.692895 0.0178616 -0.0905399 63 191 0
0.688599 0.0212451 -0.0910358 71 183 0
0.684968 0.0260304 -0.0913834 79 175 0
0.683729 0.0312449 -0.0918314 87 167 0
0.685241 0.0370221 -0.0922028 95 159 0
0.688025 0.0421037 -0.0925549 103 151 0
0.692711 0.0458111 -0.092938 111 143 0
0.698527 0.0472675 -0.0932191 119 135 0
0.704343 0.0487999 -0.09341 127 127 0
0.710098 0.047128 -0.0935385 135 119 0
0.71488 0.0435514 -0.0934404 143 111 0
0.718562 0.038819 -0.0932328 151 103 0
0.719979 0.0331714 -0.0928978 159 95 0
0.719254 0.0272524 -0.0925432 167 87 0
0.715145 0.0236774 -0.0921215 175 79 0
0.711431 0.0196159 -0.0917495 183 71 0
0.705468 0.0199142 -0.0914119 191 63 0
0.700059 0.0219085 -0.0910949 199 55 0
0.696996 0.0270439 -0.0909295 207 47 0
0.694445 0.0317408 -0.0910719 215 39 0
0.695016 0.0376163 -0.0915014 223 31 0
0.698766 0.0422087 -0.0921752 231 23 0
0.701024 0.0475673 -0.0929983 239 15 0
0.706584 0.0492673 -0.0937028 247 7 0
0.712336 0.0503505 -0.0940296 255 0 0
