ply
format ascii 1.0
comment Generated by robot_control PLYWriter
element vertex 200
property float x
property float y
property float z
property uchar red
property uchar green
property uchar blue
end_header
0.549641 -0.280359 -0.136831 0 255 0
0.549641 -0.280359 -0.136831 1 253 0
0.549641 -0.280359 -0.136831 2 252 0
0.549641 -0.280359 -0.136831 3 251 0
0.549641 -0.280359 -0.136831 5 249 0
0.549641 -0.280359 -0.136831 6 248 0
0.549641 -0.280359 -0.136831 7 247 0
0.549641 -0.280359 -0.136831 8 246 0
0.549641 -0.280359 -0.136831 10 244 0
0.549641 -0.280359 -0.136831 11 243 0
0.549641 -0.280359 -0.136831 12 242 0
0.549641 -0.280359 -0.136831 14 240 0
0.549641 -0.280359 -0.136831 15 239 0
0.549641 -0.280359 -0.136831 16 238 0
0.549641 -0.280359 -0.136831 17 237 0
0.549641 -0.280359 -0.136831 19 235 0
0.549641 -0.280359 -0.136831 20 234 0
0.549641 -0.280359 -0.136831 21 233 0
0.549641 -0.280359 -0.136831 23 231 0
0.549641 -0.280359 -0.136831 24 230 0
0.549641 -0.280359 -0.136831 25 229 0
0.549641 -0.280359 -0.136831 26 228 0
0.549641 -0.280359 -0.136831 28 226 0
0.549641 -0.280359 -0.136831 29 225 0
0.549641 -0.280359 -0.136831 30 224 0
0.549641 -0.280359 -0.136831 32 222 0
0.549641 -0.280359 -0.136831 33 221 0
0.549641 -0.280359 -0.136831 34 220 0
0.549641 -0.280359 -0.136831 35 219 0
0.549641 -0.280359 -0.136831 37 217 0
0.549641 -0.280359 -0.136831 38 216 0
0.549641 -0.280359 -0.136831 39 215 0
0.549641 -0.280359 -0.136831 41 213 0
0.549641 -0.280359 -0.136831 42 212 0
0.549641 -0.280359 -0.136831 43 211 0
0.549641 -0.280359 -0.136831 44 210 0
0.549641 -0.280359 -0.136831 46 208 0
0.549641 -0.280359 -0.136831 47 207 0
0.549641 -0.280359 -0.136831 48 206 0
0.549641 -0.280359 -0.136831 49 205 0
0.549641 -0.280359 -0.136831 51 203 0
0.549641 -0.280359 -0.136831 52 202 0
0.549641 -0.280359 -0.136831 53 201 0
0.549641 -0.280359 -0.136831 55 199 0
0.549641 -0.280359 -0.136831 56 198 0
0.549641 -0.280359 -0.136831 57 197 0
0.549641 -0.280359 -0.136831 58 196 0
0.549641 -0.280359 -0.136831 60 194 0
0.549641 -0.280359 -0.136831 61 193 0
0.549641 -0.280359 -0.136831 62 192 0
0.549641 -0.280359 -0.136831 64 190 0
0.549641 -0.280359 -0.136831 65 189 0
0.549641 -0.280359 -0.136831 66 188 0
0.549641 -0.280359 -0.136831 67 187 0
0.549641 -0.280359 -0.136831 69 185 0
0.549641 -0.280359 -0.136831 70 184 0
0.549641 -0.280359 -0.136831 71 183 0
0.549641 -0.280359 -0.136831 73 181 0
0.549641 -0.280359 -0.136831 74 180 0
0.549641 -0.280359 -0.136831 75 179 0
0.549641 -0.280359 -0.136831 76 178 0
0.549641 -0.280359 -0.136831 78 176 0
0.549641 -0.280359 -0.136831 79 175 0
0.549641 -0.280359 -0.136831 80 174 0
0.549641 -0.280359 -0.136831 82 172 0
0.549641 -0.280359 -0.136831 83 171 0
0.549641 -0.280359 -0.136831 84 170 0
0.549641 -0.280359 -0.136831 85 169 0
0.549641 -0.280359 -0.136831 87 167 0
0.549641 -0.280359 -0.136831 88 166 0
0.549641 -0.280359 -0.136831 89 165 0
0.549641 -0.280359 -0.136831 90 164 0
0.549641 -0.280359 -0.136831 92 162 0
0.549641 -0.280359 -0.136831 93 161 0
0.549641 -0.280359 -0.136831 94 160 0
0.549641 -0.280359 -0.136831 96 158 0
0.549641 -0.280359 -0.136831 97 157 0
0.549641 -0.280359 -0.136831 98 156 0
0.549641 -0.280359 -0.136831 99 155 0
0.549641 -0.280359 -0.136831 101 153 0
0.549641 -0.280359 -0.136831 102 152 0
0.549641 -0.280359 -0.136831 103 151 0
0.549641 -0.280359 -0.136831 105 149 0
0.549641 -0.280359 -0.136831 106 148 0
0.549641 -0.280359 -0.136831 107 147 0
0.549641 -0.280359 -0.136831 108 146 0
0.549641 -0.280359 -0.136831 110 144 0
0.549641 -0.280359 -0.136831 111 143 0
0.549641 -0.280359 -0.136831 112 142 0
0.549641 -0.280359 -0.136831 114 140 0
0.549641 -0.280359 -0.136831 115 139 0
0.549641 -0.280359 -0.136831 116 138 0
0.549641 -0.280359 -0.136831 117 137 0
0.549641 -0.280359 -0.136831 119 135 0
0.549641 -0.280359 -0.136831 120 134 0
0.549641 -0.280359 -0.136831 121 133 0
0.549641 -0.280359 -0.136831 123 131 0
0.549641 -0.280359 -0.136831 124 130 0
0.549641 -0.280359 -0.136831 125 129 0
0.549641 -0.280359 -0.136831 126 128 0
0.549641 -0.280359 -0.136831 128 126 0
0.549641 -0.280359 -0.136831 129 125 0
0.549641 -0.280359 -0.136831 130 124 0
0.549641 -0.280359 -0.136831 131 123 0
0.549641 -0.280359 -0.136831 133 121 0
0.549641 -0.280359 -0.136831 134 120 0
0.549641 -0.280359 -0.136831 135 119 0
0.549641 -0.280359 -0.136831 137 117 0
0.549641 -0.280359 -0.136831 138 116 0
0.549641 -0.280359 -0.136831 139 115 0
0.549641 -0.280359 -0.136831 140 114 0
0.549641 -0.280359 -0.136831 142 112 0
0.549641 -0.280359 -0.136831 143 111 0
0.549641 -0.280359 -0.136831 144 110 0
0.549641 -0.280359 -0.136831 146 108 0
0.549641 -0.280359 -0.136831 147 107 0
0.549641 -0.280359 -0.136831 148 106 0
0.549641 -0.280359 -0.136831 149 105 0
0.549641 -0.280359 -0.136831 151 103 0
0.549641 -0.280359 -0.136831 152 102 0
0.549641 -0.280359 -0.136831 153 101 0
0.549641 -0.280359 -0.136831 155 99 0
0.549641 -0.280359 -0.136831 156 98 0
0.549641 -0.280359 -0.136831 157 97 0
0.549641 -0.280359 -0.136831 158 96 0
0.549641 -0.280359 -0.136831 160 94 0
0.549641 -0.280359 -0.136831 161 93 0
0.549641 -0.280359 -0.136831 162 92 0
0.549641 -0.280359 -0.136831 164 90 0
0.549641 -0.280359 -0.136831 165 89 0
0.549641 -0.280359 -0.136831 166 88 0
0.549641 -0.280359 -0.136831 167 87 0
0.549641 -0.280359 -0.136831 169 85 0
0.549641 -0.280359 -0.136831 170 84 0
0.549641 -0.280359 -0.136831 171 83 0
0.549641 -0.280359 -0.136831 172 82 0
0.549641 -0.280359 -0.136831 174 80 0
0.549641 -0.280359 -0.136831 175 79 0
0.549641 -0.280359 -0.136831 176 78 0
0.549641 -0.280359 -0.136831 178 76 0
0.549641 -0.280359 -0.136831 179 75 0
0.549641 -0.280359 -0.136831 180 74 0
0.549641 -0.280359 -0.136831 181 73 0
0.549641 -0.280359 -0.136831 183 71 0
0.549641 -0.280359 -0.136831 184 70 0
0.549641 -0.280359 -0.136831 185 69 0
0.549641 -0.280359 -0.136831 187 67 0
0.549641 -0.280359 -0.136831 188 66 0
0.549641 -0.280359 -0.136831 189 65 0
0.549641 -0.280359 -0.136831 190 64 0
0.549641 -0.280359 -0.136831 192 62 0
0.549641 -0.280359 -0.136831 193 61 0
0.549641 -0.280359 -0.136831 194 60 0
0.549641 -0.280359 -0.136831 196 58 0
0.549641 -0.280359 -0.136831 197 57 0
0.549641 -0.280359 -0.136831 198 56 0
0.549641 -0.280359 -0.136831 199 55 0
0.549641 -0.280359 -0.136831 201 53 0
0.549641 -0.280359 -0.136831 202 52 0
0.549641 -0.280359 -0.136831 203 51 0
0.549641 -0.280359 -0.136831 205 49 0
0.549641 -0.280359 -0.136831 206 48 0
0.549641 -0.280359 -0.136831 207 47 0
0.549641 -0.280359 -0.136831 208 46 0
0.549641 -0.280359 -0.136831 210 44 0
0.549641 -0.280359 -0.136831 211 43 0
0.549641 -0.280359 -0.136831 212 42 0
0.549641 -0.280359 -0.136831 213 41 0
0.549641 -0.280359 -0.136831 215 39 0
0.549641 -0.280359 -0.136831 216 38 0
0.549641 -0.280359 -0.136831 217 37 0
0.549641 -0.280359 -0.136831 219 35 0
0.549641 -0.280359 -0.136831 220 34 0
0.549641 -0.280359 -0.136831 221 33 0
0.549641 -0.280359 -0.136831 222 32 0
0.549641 -0.280359 -0.136831 224 30 0
0.549641 -0.280359 -0.136831 225 29 0
0.549641 -0.280359 -0.136831 226 28 0
0.549641 -0.280359 -0.136831 228 26 0
0.549641 -0.280359 -0.136831 229 25 0
0.549641 -0.280359 -0.136831 230 24 0
0.549641 -0.280359 -0.136831 231 23 0
0.549641 -0.280359 -0.136831 233 21 0
0.549641 -0.280359 -0.136831 234 20 0
0.549641 -0.280359 -0.136831 235 19 0
0.549641 -0.280359 -0.136831 237 17 0
0.549641 -0.280359 -0.136831 238 16 0
0.549641 -0.280359 -0.136831 239 15 0
0.549641 -0.280359 -0.136831 240 14 0
0.549641 -0.280359 -0.136831 242 12 0
0.549641 -0.280359 -0.136831 243 11 0
0.549641 -0.280359 -0.136831 244 10 0
0.549641 -0.280359 -0.136831 246 8 0
0.549641 -0.280359 -0.136831 247 7 0
0.549641 -0.280359 -0.136831 248 6 0
0.549641 -0.280359 -0.136831 249 5 0
0.549641 -0.280359 -0.136831 251 3 0
0.549641 -0.280359 -0.136831 252 2 0
0.549641 -0.280359 -0.136831 253 1 0
0.549641 -0.280359 -0.136831 255 0 0
