ply
format ascii 1.0
comment Generated by robot_control PLYWriter
element vertex 8
property float x
property float y
property float z
property uchar red
property uchar green
property uchar blue
end_header
0.538041 0.0443291 -0.10621 0 255 0
0.537524 0.0490752 -0.106291 36 218 0
0.537184 0.0538302 -0.106361 72 182 0
0.536995 0.0585914 -0.106377 109 145 0
0.536307 0.0633158 -0.10641 145 109 0
0.535766 0.0680579 -0.106548 182 72 0
0.535061 0.0727647 -0.106917 218 36 0
0.53481 0.0774967 -0.107395 255 0 0
