ply
format ascii 1.0
comment Generated by robot_control PLYWriter
element vertex 109
property float x
property float y
property float z
property uchar red
property uchar green
property uchar blue
end_header
0.708904 -0.297638 -0.108572 0 255 0
0.712515 -0.300653 -0.109009 2 252 0
0.715992 -0.303169 -0.108975 4 250 0
0.718366 -0.308057 -0.108452 7 247 0
0.719348 -0.31313 -0.107226 9 245 0
0.718328 -0.318639 -0.105829 11 243 0
0.71562 -0.323298 -0.104499 14 240 0
0.71202 -0.327065 -0.103099 16 238 0
0.706775 -0.328908 -0.102048 18 236 0
0.701122 -0.328714 -0.101162 21 233 0
0.695971 -0.325997 -0.100826 23 231 0
0.691766 -0.321698 -0.101034 25 229 0
0.69057 -0.316241 -0.101648 28 226 0
0.692084 -0.31063 -0.102735 30 224 0
0.696917 -0.30785 -0.103872 33 221 0
0.70242 -0.30669 -0.104725 35 219 0
0.708353 -0.307125 -0.105438 37 217 0
0.713165 -0.310712 -0.10551 40 214 0
0.716927 -0.315359 -0.105147 42 212 0
0.718889 -0.320889 -0.104539 44 210 0
0.719223 -0.326794 -0.103575 47 207 0
0.716389 -0.33198 -0.102503 49 205 0
0.712444 -0.336298 -0.101398 51 203 0
0.707156 -0.338938 -0.100393 54 200 0
0.701342 -0.340177 -0.0996123 56 198 0
0.696028 -0.337722 -0.0991579 59 195 0
0.691444 -0.333865 -0.0990788 61 193 0
0.690046 -0.328394 -0.0994636 63 191 0
0.69072 -0.322563 -0.100253 66 188 0
0.695356 -0.318878 -0.101143 68 186 0
0.700818 -0.316791 -0.101948 70 184 0
0.706711 -0.317147 -0.102371 73 181 0
0.711328 -0.320865 -0.102479 75 179 0
0.715706 -0.324596 -0.102 77 177 0
0.717972 -0.330113 -0.101325 80 174 0
0.717321 -0.335559 -0.100264 82 172 0
0.715122 -0.341046 -0.0991289 85 169 0
0.712493 -0.346226 -0.0982396 87 167 0
0.707079 -0.348634 -0.0973258 89 165 0
0.701387 -0.350365 -0.0964301 92 162 0
0.696142 -0.347557 -0.096133 94 160 0
0.691723 -0.344039 -0.0962175 96 158 0
0.688984 -0.338714 -0.0968095 99 155 0
0.6901 -0.333101 -0.0979748 101 153 0
0.693713 -0.328802 -0.0990806 103 151 0
0.699035 -0.326262 -0.0999633 106 148 0
0.704934 -0.327164 -0.100303 108 146 0
0.710445 -0.329469 -0.100217 110 144 0
0.71429 -0.333843 -0.0995594 113 141 0
0.717142 -0.338908 -0.0984045 115 139 0
0.716791 -0.344832 -0.097383 118 136 0
0.71539 -0.350491 -0.0959002 120 134 0
0.712508 -0.355224 -0.0946 122 132 0
0.707551 -0.358454 -0.093539 125 129 0
0.70214 -0.360471 -0.0927203 127 127 0
0.69673 -0.358512 -0.0921928 129 125 0
0.692063 -0.354925 -0.0923415 132 122 0
0.689046 -0.349766 -0.0930413 134 120 0
0.689242 -0.344104 -0.0942706 136 118 0
0.692325 -0.33933 -0.09555 139 115 0
0.697658 -0.336976 -0.0965988 141 113 0
0.70359 -0.336861 -0.0972694 144 110 0
0.708663 -0.338927 -0.0971565 146 108 0
0.712929 -0.343081 -0.0965522 148 106 0
0.71564 -0.347998 -0.095538 151 103 0
0.71688 -0.353762 -0.0943106 153 101 0
0.716602 -0.359382 -0.0927754 155 99 0
0.713196 -0.364233 -0.0917144 158 96 0
0.708647 -0.367638 -0.0900613 160 94 0
0.703115 -0.369775 -0.0890741 162 92 0
0.697764 -0.368784 -0.088378 165 89 0
0.69265 -0.365644 -0.0882396 167 87 0
0.68906 -0.361149 -0.0888475 170 84 0
0.688561 -0.355353 -0.0899781 172 82 0
0.690728 -0.350788 -0.0913243 174 80 0
0.695539 -0.347342 -0.0922499 177 77 0
0.701326 -0.346479 -0.0930106 179 75 0
0.706912 -0.348435 -0.0932162 181 73 0
0.711824 -0.351705 -0.0928793 184 70 0
0.715236 -0.356611 -0.0921539 186 68 0
0.716736 -0.362349 -0.091327 188 66 0
0.715691 -0.368093 -0.0900745 191 63 0
0.71332 -0.373458 -0.0887418 193 61 0
0.708438 -0.376342 -0.0874857 195 59 0
0.703701 -0.379792 -0.0862593 198 56 0
0.697903 -0.380053 -0.0856659 200 54 0
0.692787 -0.376893 -0.0854252 203 51 0
0.688959 -0.372799 -0.0856395 205 49 0
0.686702 -0.367784 -0.0862998 207 47 0
0.688463 -0.362448 -0.0872181 210 44 0
0.693279 -0.35899 -0.0881766 212 42 0
0.69836 -0.356419 -0.0890016 214 40 0
0.704122 -0.356539 -0.0895583 217 37 0
0.70917 -0.359654 -0.0897572 219 35 0
0.713068 -0.363812 -0.089537 221 33 0
0.715032 -0.369445 -0.0890911 224 30 0
0.716225 -0.374755 -0.0883309 226 28 0
0.714022 -0.379983 -0.0876165 229 25 0
0.710561 -0.384727 -0.0867241 231 23 0
0.706043 -0.388601 -0.0860342 233 21 0
0.700652 -0.390337 -0.0855295 236 18 0
0.695565 -0.388657 -0.0850229 238 16 0
0.690507 -0.386335 -0.0847759 240 14 0
0.688123 -0.382115 -0.0846583 243 11 0
0.68663 -0.376656 -0.0847306 245 9 0
0.68896 -0.371955 -0.0849892 247 7 0
0.691755 -0.36895 -0.0855619 250 4 0
0.694811 -0.366735 -0.0860833 252 2 0
0.700153 -0.366273 -0.0868781 255 0 0
