ply
format ascii 1.0
comment Generated by robot_control PLYWriter
element vertex 65
property float x
property float y
property float z
property uchar red
property uchar green
property uchar blue
end_header
0.587961 -0.00459031 -0.113075 0 255 0
0.59221 -0.00750425 -0.111498 3 251 0
0.595149 -0.0112843 -0.109983 7 247 0
0.596401 -0.0166282 -0.108115 11 243 0
0.596692 -0.0218021 -0.106833 15 239 0
0.595187 -0.0273645 -0.105686 19 235 0
0.592642 -0.0323992 -0.104909 23 231 0
0.587751 -0.0357899 -0.104674 27 227 0
0.582509 -0.0382759 -0.105038 31 223 0
0.576687 -0.0375739 -0.106049 35 219 0
0.5715 -0.0348201 -0.107278 39 215 0
0.569036 -0.0300755 -0.108628 43 211 0
0.567195 -0.0252044 -0.109644 47 207 0
0.570024 -0.0199087 -0.110212 51 203 0
0.574678 -0.0167134 -0.110393 55 199 0
0.579741 -0.014574 -0.11001 59 195 0
0.585705 -0.0148238 -0.109131 63 191 0
0.591043 -0.016856 -0.107887 67 187 0
0.594374 -0.0214301 -0.106715 71 183 0
0.596459 -0.0269351 -0.105377 75 179 0
0.597523 -0.0326383 -0.104444 79 175 0
0.595493 -0.0382464 -0.103659 83 171 0
0.592037 -0.0431459 -0.103197 87 167 0
0.587806 -0.047421 -0.103013 91 163 0
0.582096 -0.0481803 -0.103229 95 159 0
0.576269 -0.0481672 -0.103771 99 155 0
0.571348 -0.0449053 -0.104666 103 151 0
0.568717 -0.039644 -0.10574 107 147 0
0.568225 -0.0338865 -0.106359 111 143 0
0.571383 -0.0291605 -0.106711 115 139 0
0.576579 -0.026112 -0.106555 119 135 0
0.582212 -0.0244487 -0.106082 123 131 0
0.588023 -0.0255982 -0.105383 127 127 0
0.592454 -0.0291129 -0.104383 131 123 0
0.595739 -0.0340682 -0.103329 135 119 0
0.598371 -0.0394189 -0.102434 139 115 0
0.596819 -0.0450217 -0.101771 143 111 0
0.594651 -0.0506114 -0.101076 147 107 0
0.590414 -0.0548854 -0.100814 151 103 0
0.586339 -0.0583832 -0.100824 155 99 0
0.580313 -0.0582728 -0.101155 159 95 0
0.574357 -0.0588884 -0.101739 163 91 0
0.570937 -0.0542254 -0.102373 167 87 0
0.567467 -0.0494597 -0.103402 171 83 0
0.569232 -0.0442482 -0.103936 175 79 0
0.572579 -0.0392684 -0.10412 179 75 0
0.577646 -0.0363116 -0.103854 183 71 0
0.583309 -0.0352217 -0.103384 187 67 0
0.588659 -0.0375707 -0.102531 191 63 0
0.593554 -0.0405542 -0.101434 195 59 0
0.596254 -0.0457202 -0.100508 199 55 0
0.597749 -0.0513251 -0.0994461 203 51 0
0.596235 -0.0562825 -0.0985057 207 47 0
0.595376 -0.0619333 -0.0979393 211 43 0
0.591041 -0.0661184 -0.0975561 215 39 0
0.586308 -0.069118 -0.0977309 219 35 0
0.5805 -0.0705828 -0.0982075 223 31 0
0.574995 -0.0687769 -0.0994086 227 27 0
0.570543 -0.0660097 -0.100742 231 23 0
0.568557 -0.061416 -0.102018 235 19 0
0.568853 -0.0569779 -0.102965 239 15 0
0.56999 -0.0515155 -0.103379 243 11 0
0.573437 -0.048631 -0.103268 247 7 0
0.577113 -0.0458909 -0.103026 251 3 0
0.582629 -0.0459657 -0.102214 255 0 0
