ply
format ascii 1.0
comment Generated by robot_control PLYWriter
element vertex 101
property float x
property float y
property float z
property uchar red
property uchar green
property uchar blue
end_header
0.50603 -0.264297 -0.11614 0 255 0
0.50954 -0.267076 -0.115088 2 252 0
0.512364 -0.269531 -0.113928 5 249 0
0.514704 -0.272901 -0.112737 7 247 0
0.514273 -0.278507 -0.111182 10 244 0
0.513356 -0.283883 -0.109989 12 242 0
0.510808 -0.288847 -0.109509 15 239 0
0.507625 -0.292242 -0.109368 17 237 0
0.502929 -0.294304 -0.109676 20 234 0
0.496933 -0.294362 -0.110237 22 232 0
0.492576 -0.291323 -0.110848 25 229 0
0.489394 -0.287017 -0.11187 28 226 0
0.489608 -0.281743 -0.11275 30 224 0
0.492493 -0.277006 -0.113338 33 221 0
0.49708 -0.273873 -0.113291 35 219 0
0.502411 -0.273111 -0.112969 38 216 0
0.507687 -0.275107 -0.112153 40 214 0
0.512582 -0.278482 -0.111296 43 211 0
0.514499 -0.283735 -0.11014 45 209 0
0.515505 -0.289273 -0.109269 48 206 0
0.514456 -0.294988 -0.10855 51 204 0
0.511105 -0.299577 -0.108291 53 201 0
0.506132 -0.302855 -0.10831 56 198 0
0.500399 -0.304319 -0.108586 58 196 0
0.494921 -0.302349 -0.109108 61 193 0
0.490341 -0.298484 -0.109692 63 191 0
0.490146 -0.29255 -0.110293 66 188 0
0.491662 -0.287765 -0.110557 68 186 0
0.495835 -0.28375 -0.110511 71 183 0
0.501597 -0.282565 -0.110226 73 181 0
0.507166 -0.284454 -0.109678 76 178 0
0.512129 -0.287744 -0.109038 79 175 0
0.514621 -0.293092 -0.108355 81 173 0
0.516214 -0.298729 -0.107712 84 170 0
0.514911 -0.304489 -0.107282 86 168 0
0.510672 -0.308746 -0.10719 89 165 0
0.506898 -0.312713 -0.107258 91 163 0
0.501108 -0.314122 -0.107475 94 160 0
0.495769 -0.311918 -0.107856 96 158 0
0.491386 -0.308672 -0.108263 99 155 0
0.490469 -0.30287 -0.108854 102 153 0
0.492331 -0.297326 -0.109078 104 150 0
0.496664 -0.293216 -0.10896 107 147 0
0.502276 -0.29195 -0.10858 109 145 0
0.507712 -0.294313 -0.108219 112 142 0
0.512246 -0.298111 -0.107513 114 140 0
0.515677 -0.302947 -0.106964 117 137 0
0.51629 -0.308754 -0.106282 119 135 0
0.514356 -0.314433 -0.10587 122 132 0
0.511498 -0.319644 -0.10566 124 130 0
0.506447 -0.322671 -0.105743 127 127 0
0.500436 -0.322801 -0.10606 130 124 0
0.495249 -0.321005 -0.106513 132 122 0
0.491837 -0.316077 -0.106973 135 119 0
0.490561 -0.310466 -0.107448 137 117 0
0.493303 -0.305303 -0.10758 140 114 0
0.498855 -0.303134 -0.107493 142 112 0
0.504811 -0.302703 -0.107193 145 109 0
0.509879 -0.305622 -0.106438 147 107 0
0.514869 -0.308755 -0.105769 150 104 0
0.516523 -0.314458 -0.105316 153 101 0
0.516576 -0.320469 -0.104958 155 99 0
0.515363 -0.326295 -0.104681 158 96 0
0.511249 -0.330514 -0.1046 160 94 0
0.505488 -0.332089 -0.104707 163 91 0
0.499482 -0.332313 -0.105034 165 89 0
0.494254 -0.329541 -0.105606 168 86 0
0.490824 -0.325113 -0.106152 170 84 0
0.491934 -0.319358 -0.106408 173 81 0
0.495351 -0.314979 -0.106397 175 79 0
0.500504 -0.312113 -0.106111 178 76 0
0.506466 -0.312721 -0.105684 181 73 0
0.512046 -0.314486 -0.105094 183 71 0
0.515251 -0.319435 -0.104492 186 68 0
0.516743 -0.325098 -0.10368 188 66 0
0.516696 -0.331096 -0.103149 191 63 0
0.515009 -0.336408 -0.102603 193 61 0
0.510741 -0.340656 -0.102546 196 58 0
0.505431 -0.342494 -0.102762 198 56 0
0.49944 -0.342596 -0.103325 201 53 0
0.49424 -0.339849 -0.103795 204 50 0
0.492403 -0.33472 -0.104438 206 48 0
0.492448 -0.328739 -0.105046 209 45 0
0.495324 -0.324229 -0.105328 211 43 0
0.500902 -0.322583 -0.105069 214 40 0
0.506268 -0.322346 -0.104554 216 38 0
0.51193 -0.32361 -0.103852 219 35 0
0.515751 -0.328085 -0.10316 221 33 0
0.517574 -0.333481 -0.102153 224 30 0
0.518473 -0.339123 -0.10124 226 28 0
0.5167 -0.34466 -0.100529 229 25 0
0.513721 -0.348779 -0.0997401 232 22 0
0.508544 -0.351447 -0.0992814 234 20 0
0.502826 -0.352508 -0.0991745 237 17 0
0.497313 -0.351541 -0.0996394 239 15 0
0.493693 -0.347357 -0.100893 242 12 0
0.492976 -0.341925 -0.102758 244 10 0
0.494028 -0.337129 -0.104408 247 7 0
0.496604 -0.333079 -0.104989 249 5 0
0.501794 -0.332277 -0.104904 252 2 0
0.504618 -0.332141 -0.104511 255 0 0
