ply
format ascii 1.0
comment Generated by robot_control PLYWriter
element vertex 200
property float x
property float y
property float z
property uchar red
property uchar green
property uchar blue
end_header
0.648497 -0.0689025 -0.117772 0 255 0
0.648497 -0.0689025 -0.117772 1 253 0
0.648497 -0.0689025 -0.117772 2 252 0
0.648497 -0.0689025 -0.117772 3 251 0
0.648497 -0.0689025 -0.117772 5 249 0
0.648497 -0.0689025 -0.117772 6 248 0
0.648497 -0.0689025 -0.117772 7 247 0
0.648497 -0.0689025 -0.117772 8 246 0
0.648497 -0.0689025 -0.117772 10 244 0
0.648497 -0.0689025 -0.117772 11 243 0
0.648497 -0.0689025 -0.117772 12 242 0
0.648497 -0.0689025 -0.117772 14 240 0
0.648497 -0.0689025 -0.117772 15 239 0
0.648497 -0.0689025 -0.117772 16 238 0
0.648497 -0.0689025 -0.117772 17 237 0
0.648497 -0.0689025 -0.117772 19 235 0
0.648497 -0.0689025 -0.117772 20 234 0
0.648497 -0.0689025 -0.117772 21 233 0
0.648497 -0.0689025 -0.117772 23 231 0
0.648497 -0.0689025 -0.117772 24 230 0
0.648497 -0.0689025 -0.117772 25 229 0
0.648497 -0.0689025 -0.117772 26 228 0
0.648497 -0.0689025 -0.117772 28 226 0
0.648497 -0.0689025 -0.117772 29 225 0
0.648497 -0.0689025 -0.117772 30 224 0
0.648497 -0.0689025 -0.117772 32 222 0
0.648497 -0.0689025 -0.117772 33 221 0
0.648497 -0.0689025 -0.117772 34 220 0
0.648497 -0.0689025 -0.117772 35 219 0
0.648497 -0.0689025 -0.117772 37 217 0
0.648497 -0.0689025 -0.117772 38 216 0
0.648497 -0.0689025 -0.117772 39 215 0
0.648497 -0.0689025 -0.117772 41 213 0
0.648497 -0.0689025 -0.117772 42 212 0
0.648497 -0.0689025 -0.117772 43 211 0
0.648497 -0.0689025 -0.117772 44 210 0
0.648497 -0.0689025 -0.117772 46 208 0
0.648497 -0.0689025 -0.117772 47 207 0
0.648497 -0.0689025 -0.117772 48 206 0
0.648497 -0.0689025 -0.117772 49 205 0
0.648497 -0.0689025 -0.117772 51 203 0
0.648497 -0.0689025 -0.117772 52 202 0
0.648497 -0.0689025 -0.117772 53 201 0
0.648497 -0.0689025 -0.117772 55 199 0
0.648497 -0.0689025 -0.117772 56 198 0
0.648497 -0.0689025 -0.117772 57 197 0
0.648497 -0.0689025 -0.117772 58 196 0
0.648497 -0.0689025 -0.117772 60 194 0
0.648497 -0.0689025 -0.117772 61 193 0
0.648497 -0.0689025 -0.117772 62 192 0
0.648497 -0.0689025 -0.117772 64 190 0
0.648497 -0.0689025 -0.117772 65 189 0
0.648497 -0.0689025 -0.117772 66 188 0
0.648497 -0.0689025 -0.117772 67 187 0
0.648497 -0.0689025 -0.117772 69 185 0
0.648497 -0.0689025 -0.117772 70 184 0
0.648497 -0.0689025 -0.117772 71 183 0
0.648497 -0.0689025 -0.117772 73 181 0
0.648497 -0.0689025 -0.117772 74 180 0
0.648497 -0.0689025 -0.117772 75 179 0
0.648497 -0.0689025 -0.117772 76 178 0
0.648497 -0.0689025 -0.117772 78 176 0
0.648497 -0.0689025 -0.117772 79 175 0
0.648497 -0.0689025 -0.117772 80 174 0
0.648497 -0.0689025 -0.117772 82 172 0
0.648497 -0.0689025 -0.117772 83 171 0
0.648497 -0.0689025 -0.117772 84 170 0
0.648497 -0.0689025 -0.117772 85 169 0
0.648497 -0.0689025 -0.117772 87 167 0
0.648497 -0.0689025 -0.117772 88 166 0
0.648497 -0.0689025 -0.117772 89 165 0
0.648497 -0.0689025 -0.117772 90 164 0
0.648497 -0.0689025 -0.117772 92 162 0
0.648497 -0.0689025 -0.117772 93 161 0
0.648497 -0.0689025 -0.117772 94 160 0
0.648497 -0.0689025 -0.117772 96 158 0
0.648497 -0.0689025 -0.117772 97 157 0
0.648497 -0.0689025 -0.117772 98 156 0
0.648497 -0.0689025 -0.117772 99 155 0
0.648497 -0.0689025 -0.117772 101 153 0
0.648497 -0.0689025 -0.117772 102 152 0
0.648497 -0.0689025 -0.117772 103 151 0
0.648497 -0.0689025 -0.117772 105 149 0
0.648497 -0.0689025 -0.117772 106 148 0
0.648497 -0.0689025 -0.117772 107 147 0
0.648497 -0.0689025 -0.117772 108 146 0
0.648497 -0.0689025 -0.117772 110 144 0
0.648497 -0.0689025 -0.117772 111 143 0
0.648497 -0.0689025 -0.117772 112 142 0
0.648497 -0.0689025 -0.117772 114 140 0
0.648497 -0.0689025 -0.117772 115 139 0
0.648497 -0.0689025 -0.117772 116 138 0
0.648497 -0.0689025 -0.117772 117 137 0
0.648497 -0.0689025 -0.117772 119 135 0
0.648497 -0.0689025 -0.117772 120 134 0
0.648497 -0.0689025 -0.117772 121 133 0
0.648497 -0.0689025 -0.117772 123 131 0
0.648497 -0.0689025 -0.117772 124 130 0
0.648497 -0.0689025 -0.117772 125 129 0
0.648497 -0.0689025 -0.117772 126 128 0
0.648497 -0.0689025 -0.117772 128 126 0
0.648497 -0.0689025 -0.117772 129 125 0
0.648497 -0.0689025 -0.117772 130 124 0
0.648497 -0.0689025 -0.117772 131 123 0
0.648497 -0.0689025 -0.117772 133 121 0
0.648497 -0.0689025 -0.117772 134 120 0
0.648497 -0.0689025 -0.117772 135 119 0
0.648497 -0.0689025 -0.117772 137 117 0
0.648497 -0.0689025 -0.117772 138 116 0
0.648497 -0.0689025 -0.117772 139 115 0
0.648497 -0.0689025 -0.117772 140 114 0
0.648497 -0.0689025 -0.117772 142 112 0
0.648497 -0.0689025 -0.117772 143 111 0
0.648497 -0.0689025 -0.117772 144 110 0
0.648497 -0.0689025 -0.117772 146 108 0
0.648497 -0.0689025 -0.117772 147 107 0
0.648497 -0.0689025 -0.117772 148 106 0
0.648497 -0.0689025 -0.117772 149 105 0
0.648497 -0.0689025 -0.117772 151 103 0
0.648497 -0.0689025 -0.117772 152 102 0
0.648497 -0.0689025 -0.117772 153 101 0
0.648497 -0.0689025 -0.117772 155 99 0
0.648497 -0.0689025 -0.117772 156 98 0
0.648497 -0.0689025 -0.117772 157 97 0
0.648497 -0.0689025 -0.117772 158 96 0
0.648497 -0.0689025 -0.117772 160 94 0
0.648497 -0.0689025 -0.117772 161 93 0
0.648497 -0.0689025 -0.117772 162 92 0
0.648497 -0.0689025 -0.117772 164 90 0
0.648497 -0.0689025 -0.117772 165 89 0
0.648497 -0.0689025 -0.117772 166 88 0
0.648497 -0.0689025 -0.117772 167 87 0
0.648497 -0.0689025 -0.117772 169 85 0
0.648497 -0.0689025 -0.117772 170 84 0
0.648497 -0.0689025 -0.117772 171 83 0
0.648497 -0.0689025 -0.117772 172 82 0
0.648497 -0.0689025 -0.117772 174 80 0
0.648497 -0.0689025 -0.117772 175 79 0
0.648497 -0.0689025 -0.117772 176 78 0
0.648497 -0.0689025 -0.117772 178 76 0
0.648497 -0.0689025 -0.117772 179 75 0
0.648497 -0.0689025 -0.117772 180 74 0
0.648497 -0.0689025 -0.117772 181 73 0
0.648497 -0.0689025 -0.117772 183 71 0
0.648497 -0.0689025 -0.117772 184 70 0
0.648497 -0.0689025 -0.117772 185 69 0
0.648497 -0.0689025 -0.117772 187 67 0
0.648497 -0.0689025 -0.117772 188 66 0
0.648497 -0.0689025 -0.117772 189 65 0
0.648497 -0.0689025 -0.117772 190 64 0
0.648497 -0.0689025 -0.117772 192 62 0
0.648497 -0.0689025 -0.117772 193 61 0
0.648497 -0.0689025 -0.117772 194 60 0
0.648497 -0.0689025 -0.117772 196 58 0
0.648497 -0.0689025 -0.117772 197 57 0
0.648497 -0.0689025 -0.117772 198 56 0
0.648497 -0.0689025 -0.117772 199 55 0
0.648497 -0.0689025 -0.117772 201 53 0
0.648497 -0.0689025 -0.117772 202 52 0
0.648497 -0.0689025 -0.117772 203 51 0
0.648497 -0.0689025 -0.117772 205 49 0
0.648497 -0.0689025 -0.117772 206 48 0
0.648497 -0.0689025 -0.117772 207 47 0
0.648497 -0.0689025 -0.117772 208 46 0
0.648497 -0.0689025 -0.117772 210 44 0
0.648497 -0.0689025 -0.117772 211 43 0
0.648497 -0.0689025 -0.117772 212 42 0
0.648497 -0.0689025 -0.117772 213 41 0
0.648497 -0.0689025 -0.117772 215 39 0
0.648497 -0.0689025 -0.117772 216 38 0
0.648497 -0.0689025 -0.117772 217 37 0
0.648497 -0.0689025 -0.117772 219 35 0
0.648497 -0.0689025 -0.117772 220 34 0
0.648497 -0.0689025 -0.117772 221 33 0
0.648497 -0.0689025 -0.117772 222 32 0
0.648497 -0.0689025 -0.117772 224 30 0
0.648497 -0.0689025 -0.117772 225 29 0
0.648497 -0.0689025 -0.117772 226 28 0
0.648497 -0.0689025 -0.117772 228 26 0
0.648497 -0.0689025 -0.117772 229 25 0
0.648497 -0.0689025 -0.117772 230 24 0
0.648497 -0.0689025 -0.117772 231 23 0
0.648497 -0.0689025 -0.117772 233 21 0
0.648497 -0.0689025 -0.117772 234 20 0
0.648497 -0.0689025 -0.117772 235 19 0
0.648497 -0.0689025 -0.117772 237 17 0
0.648497 -0.0689025 -0.117772 238 16 0
0.648497 -0.0689025 -0.117772 239 15 0
0.648497 -0.0689025 -0.117772 240 14 0
0.648497 -0.0689025 -0.117772 242 12 0
0.648497 -0.0689025 -0.117772 243 11 0
0.648497 -0.0689025 -0.117772 244 10 0
0.648497 -0.0689025 -0.117772 246 8 0
0.648497 -0.0689025 -0.117772 247 7 0
0.648497 -0.0689025 -0.117772 248 6 0
0.648497 -0.0689025 -0.117772 249 5 0
0.648497 -0.0689025 -0.117772 251 3 0
0.648497 -0.0689025 -0.117772 252 2 0
0.648497 -0.0689025 -0.117772 253 1 0
0.648497 -0.0689025 -0.117772 255 0 0
