ply
format ascii 1.0
comment Generated by robot_control PLYWriter
element vertex 72
property float x
property float y
property float z
property uchar red
property uchar green
property uchar blue
end_header
0.714695 -0.0504636 -0.107584 0 255 0
0.718115 -0.0526882 -0.108415 3 251 0
0.720221 -0.0577463 -0.109277 7 247 0
0.720202 -0.0635876 -0.109729 10 244 0
0.717026 -0.0682878 -0.10975 14 240 0
0.714706 -0.0722791 -0.109321 17 237 0
0.709729 -0.0744169 -0.108644 21 233 0
0.704288 -0.0738426 -0.107703 25 229 0
0.700437 -0.0711755 -0.106971 28 226 0
0.69874 -0.065719 -0.106408 32 222 0
0.700757 -0.0603271 -0.106416 35 219 0
0.706119 -0.0585905 -0.107006 39 215 0
0.712037 -0.0584788 -0.107681 43 211 0
0.716354 -0.0617989 -0.108806 46 208 0
0.718867 -0.0668778 -0.109758 50 204 0
0.719769 -0.0723345 -0.1104 53 201 0
0.718769 -0.0779363 -0.110695 57 197 0
0.71464 -0.0821269 -0.110515 61 193 0
0.709233 -0.0840072 -0.109823 64 190 0
0.7035 -0.083539 -0.109272 68 186 0
0.699362 -0.079425 -0.108316 71 183 0
0.698861 -0.0736659 -0.107732 75 179 0
0.701928 -0.068691 -0.107803 79 175 0
0.707589 -0.068105 -0.108519 82 172 0
0.713222 -0.0687416 -0.109444 86 168 0
0.717082 -0.073076 -0.11058 89 165 0
0.719513 -0.0784613 -0.111369 93 161 0
0.719368 -0.0839955 -0.112151 96 158 0
0.716488 -0.089148 -0.112624 100 154 0
0.713261 -0.0940668 -0.112751 104 150 0
0.707449 -0.0943479 -0.11251 107 147 0
0.701649 -0.0935715 -0.111759 111 143 0
0.69859 -0.0888826 -0.110749 114 140 0
0.6989 -0.0829871 -0.110102 118 136 0
0.703167 -0.0792139 -0.110022 122 132 0
0.708713 -0.0780069 -0.110527 125 129 0
0.713888 -0.0806851 -0.111293 129 125 0
0.717849 -0.0847068 -0.112366 132 122 0
0.7185 -0.0902401 -0.11337 136 118 0
0.718384 -0.0960913 -0.114196 140 114 0
0.7149 -0.100096 -0.114653 143 111 0
0.710473 -0.103744 -0.11477 147 107 0
0.704853 -0.10466 -0.114554 150 104 0
0.700421 -0.101847 -0.113774 154 100 0
0.698216 -0.096511 -0.113083 158 96 0
0.700632 -0.0912798 -0.112809 161 93 0
0.705192 -0.0877592 -0.112977 165 89 0
0.710679 -0.0887252 -0.113491 168 86 0
0.7162 -0.0903953 -0.114148 172 82 0
0.71805 -0.0959583 -0.11504 175 79 0
0.718377 -0.101827 -0.115847 179 75 0
0.718196 -0.107714 -0.116729 183 71 0
0.714228 -0.112034 -0.116932 186 68 0
0.708881 -0.114617 -0.116833 190 64 0
0.703062 -0.114026 -0.116249 193 61 0
0.69854 -0.110569 -0.115676 197 57 0
0.698329 -0.104722 -0.114701 201 53 0
0.70088 -0.0998193 -0.114482 204 50 0
0.706448 -0.0983579 -0.114733 208 46 0
0.712085 -0.0992996 -0.115535 211 43 0
0.715941 -0.103678 -0.116466 215 39 0
0.718257 -0.108571 -0.117924 219 35 0
0.719003 -0.114427 -0.118705 222 32 0
0.716514 -0.119318 -0.119474 226 28 0
0.711734 -0.122652 -0.119827 229 25 0
0.70671 -0.124392 -0.119602 233 21 0
0.701416 -0.123405 -0.118548 237 17 0
0.698808 -0.119591 -0.117427 240 14 0
0.697217 -0.115614 -0.116264 244 10 0
0.700344 -0.111308 -0.115577 247 7 0
0.702878 -0.108067 -0.11544 251 3 0
0.708422 -0.10809 -0.115949 255 0 0
