ply
format ascii 1.0
comment Generated by robot_control PLYWriter
element vertex 200
property float x
property float y
property float z
property uchar red
property uchar green
property uchar blue
end_header
0.692178 -0.324464 -0.0982881 0 255 0
0.692178 -0.324464 -0.0982881 1 253 0
0.692178 -0.324464 -0.0982881 2 252 0
0.692178 -0.324464 -0.0982881 3 251 0
0.692178 -0.324464 -0.0982881 5 249 0
0.692178 -0.324464 -0.0982881 6 248 0
0.692178 -0.324464 -0.0982881 7 247 0
0.692178 -0.324464 -0.0982881 8 246 0
0.692178 -0.324464 -0.0982881 10 244 0
0.692178 -0.324464 -0.0982881 11 243 0
0.692178 -0.324464 -0.0982881 12 242 0
0.692178 -0.324464 -0.0982881 14 240 0
0.692178 -0.324464 -0.0982881 15 239 0
0.692178 -0.324464 -0.0982881 16 238 0
0.692178 -0.324464 -0.0982881 17 237 0
0.692178 -0.324464 -0.0982881 19 235 0
0.692178 -0.324464 -0.0982881 20 234 0
0.692178 -0.324464 -0.0982881 21 233 0
0.692178 -0.324464 -0.0982881 23 231 0
0.692178 -0.324464 -0.0982881 24 230 0
0.692178 -0.324464 -0.0982881 25 229 0
0.692178 -0.324464 -0.0982881 26 228 0
0.692178 -0.324464 -0.0982881 28 226 0
0.692178 -0.324464 -0.0982881 29 225 0
0.692178 -0.324464 -0.0982881 30 224 0
0.692178 -0.324464 -0.0982881 32 222 0
0.692178 -0.324464 -0.0982881 33 221 0
0.692178 -0.324464 -0.0982881 34 220 0
0.692178 -0.324464 -0.0982881 35 219 0
0.692178 -0.324464 -0.0982881 37 217 0
0.692178 -0.324464 -0.0982881 38 216 0
0.692178 -0.324464 -0.0982881 39 215 0
0.692178 -0.324464 -0.0982881 41 213 0
0.692178 -0.324464 -0.0982881 42 212 0
0.692178 -0.324464 -0.0982881 43 211 0
0.692178 -0.324464 -0.0982881 44 210 0
0.692178 -0.324464 -0.0982881 46 208 0
0.692178 -0.324464 -0.0982881 47 207 0
0.692178 -0.324464 -0.0982881 48 206 0
0.692178 -0.324464 -0.0982881 49 205 0
0.692178 -0.324464 -0.0982881 51 203 0
0.692178 -0.324464 -0.0982881 52 202 0
0.692178 -0.324464 -0.0982881 53 201 0
0.692178 -0.324464 -0.0982881 55 199 0
0.692178 -0.324464 -0.0982881 56 198 0
0.692178 -0.324464 -0.0982881 57 197 0
0.692178 -0.324464 -0.0982881 58 196 0
0.692178 -0.324464 -0.0982881 60 194 0
0.692178 -0.324464 -0.0982881 61 193 0
0.692178 -0.324464 -0.0982881 62 192 0
0.692178 -0.324464 -0.0982881 64 190 0
0.692178 -0.324464 -0.0982881 65 189 0
0.692178 -0.324464 -0.0982881 66 188 0
0.692178 -0.324464 -0.0982881 67 187 0
0.692178 -0.324464 -0.0982881 69 185 0
0.692178 -0.324464 -0.0982881 70 184 0
0.692178 -0.324464 -0.0982881 71 183 0
0.692178 -0.324464 -0.0982881 73 181 0
0.692178 -0.324464 -0.0982881 74 180 0
0.692178 -0.324464 -0.0982881 75 179 0
0.692178 -0.324464 -0.0982881 76 178 0
0.692178 -0.324464 -0.0982881 78 176 0
0.692178 -0.324464 -0.0982881 79 175 0
0.692178 -0.324464 -0.0982881 80 174 0
0.692178 -0.324464 -0.0982881 82 172 0
0.692178 -0.324464 -0.0982881 83 171 0
0.692178 -0.324464 -0.0982881 84 170 0
0.692178 -0.324464 -0.0982881 85 169 0
0.692178 -0.324464 -0.0982881 87 167 0
0.692178 -0.324464 -0.0982881 88 166 0
0.692178 -0.324464 -0.0982881 89 165 0
0.692178 -0.324464 -0.0982881 90 164 0
0.692178 -0.324464 -0.0982881 92 162 0
0.692178 -0.324464 -0.0982881 93 161 0
0.692178 -0.324464 -0.0982881 94 160 0
0.692178 -0.324464 -0.0982881 96 158 0
0.692178 -0.324464 -0.0982881 97 157 0
0.692178 -0.324464 -0.0982881 98 156 0
0.692178 -0.324464 -0.0982881 99 155 0
0.692178 -0.324464 -0.0982881 101 153 0
0.692178 -0.324464 -0.0982881 102 152 0
0.692178 -0.324464 -0.0982881 103 151 0
0.692178 -0.324464 -0.0982881 105 149 0
0.692178 -0.324464 -0.0982881 106 148 0
0.692178 -0.324464 -0.0982881 107 147 0
0.692178 -0.324464 -0.0982881 108 146 0
0.692178 -0.324464 -0.0982881 110 144 0
0.692178 -0.324464 -0.0982881 111 143 0
0.692178 -0.324464 -0.0982881 112 142 0
0.692178 -0.324464 -0.0982881 114 140 0
0.692178 -0.324464 -0.0982881 115 139 0
0.692178 -0.324464 -0.0982881 116 138 0
0.692178 -0.324464 -0.0982881 117 137 0
0.692178 -0.324464 -0.0982881 119 135 0
0.692178 -0.324464 -0.0982881 120 134 0
0.692178 -0.324464 -0.0982881 121 133 0
0.692178 -0.324464 -0.0982881 123 131 0
0.692178 -0.324464 -0.0982881 124 130 0
0.692178 -0.324464 -0.0982881 125 129 0
0.692178 -0.324464 -0.0982881 126 128 0
0.692178 -0.324464 -0.0982881 128 126 0
0.692178 -0.324464 -0.0982881 129 125 0
0.692178 -0.324464 -0.0982881 130 124 0
0.692178 -0.324464 -0.0982881 131 123 0
0.692178 -0.324464 -0.0982881 133 121 0
0.692178 -0.324464 -0.0982881 134 120 0
0.692178 -0.324464 -0.0982881 135 119 0
0.692178 -0.324464 -0.0982881 137 117 0
0.692178 -0.324464 -0.0982881 138 116 0
0.692178 -0.324464 -0.0982881 139 115 0
0.692178 -0.324464 -0.0982881 140 114 0
0.692178 -0.324464 -0.0982881 142 112 0
0.692178 -0.324464 -0.0982881 143 111 0
0.692178 -0.324464 -0.0982881 144 110 0
0.692178 -0.324464 -0.0982881 146 108 0
0.692178 -0.324464 -0.0982881 147 107 0
0.692178 -0.324464 -0.0982881 148 106 0
0.692178 -0.324464 -0.0982881 149 105 0
0.692178 -0.324464 -0.0982881 151 103 0
0.692178 -0.324464 -0.0982881 152 102 0
0.692178 -0.324464 -0.0982881 153 101 0
0.692178 -0.324464 -0.0982881 155 99 0
0.692178 -0.324464 -0.0982881 156 98 0
0.692178 -0.324464 -0.0982881 157 97 0
0.692178 -0.324464 -0.0982881 158 96 0
0.692178 -0.324464 -0.0982881 160 94 0
0.692178 -0.324464 -0.0982881 161 93 0
0.692178 -0.324464 -0.0982881 162 92 0
0.692178 -0.324464 -0.0982881 164 90 0
0.692178 -0.324464 -0.0982881 165 89 0
0.692178 -0.324464 -0.0982881 166 88 0
0.692178 -0.324464 -0.0982881 167 87 0
0.692178 -0.324464 -0.0982881 169 85 0
0.692178 -0.324464 -0.0982881 170 84 0
0.692178 -0.324464 -0.0982881 171 83 0
0.692178 -0.324464 -0.0982881 172 82 0
0.692178 -0.324464 -0.0982881 174 80 0
0.692178 -0.324464 -0.0982881 175 79 0
0.692178 -0.324464 -0.0982881 176 78 0
0.692178 -0.324464 -0.0982881 178 76 0
0.692178 -0.324464 -0.0982881 179 75 0
0.692178 -0.324464 -0.0982881 180 74 0
0.692178 -0.324464 -0.0982881 181 73 0
0.692178 -0.324464 -0.0982881 183 71 0
0.692178 -0.324464 -0.0982881 184 70 0
0.692178 -0.324464 -0.0982881 185 69 0
0.692178 -0.324464 -0.0982881 187 67 0
0.692178 -0.324464 -0.0982881 188 66 0
0.692178 -0.324464 -0.0982881 189 65 0
0.692178 -0.324464 -0.0982881 190 64 0
0.692178 -0.324464 -0.0982881 192 62 0
0.692178 -0.324464 -0.0982881 193 61 0
0.692178 -0.324464 -0.0982881 194 60 0
0.692178 -0.324464 -0.0982881 196 58 0
0.692178 -0.324464 -0.0982881 197 57 0
0.692178 -0.324464 -0.0982881 198 56 0
0.692178 -0.324464 -0.0982881 199 55 0
0.692178 -0.324464 -0.0982881 201 53 0
0.692178 -0.324464 -0.0982881 202 52 0
0.692178 -0.324464 -0.0982881 203 51 0
0.692178 -0.324464 -0.0982881 205 49 0
0.692178 -0.324464 -0.0982881 206 48 0
0.692178 -0.324464 -0.0982881 207 47 0
0.692178 -0.324464 -0.0982881 208 46 0
0.692178 -0.324464 -0.0982881 210 44 0
0.692178 -0.324464 -0.0982881 211 43 0
0.692178 -0.324464 -0.0982881 212 42 0
0.692178 -0.324464 -0.0982881 213 41 0
0.692178 -0.324464 -0.0982881 215 39 0
0.692178 -0.324464 -0.0982881 216 38 0
0.692178 -0.324464 -0.0982881 217 37 0
0.692178 -0.324464 -0.0982881 219 35 0
0.692178 -0.324464 -0.0982881 220 34 0
0.692178 -0.324464 -0.0982881 221 33 0
0.692178 -0.324464 -0.0982881 222 32 0
0.692178 -0.324464 -0.0982881 224 30 0
0.692178 -0.324464 -0.0982881 225 29 0
0.692178 -0.324464 -0.0982881 226 28 0
0.692178 -0.324464 -0.0982881 228 26 0
0.692178 -0.324464 -0.0982881 229 25 0
0.692178 -0.324464 -0.0982881 230 24 0
0.692178 -0.324464 -0.0982881 231 23 0
0.692178 -0.324464 -0.0982881 233 21 0
0.692178 -0.324464 -0.0982881 234 20 0
0.692178 -0.324464 -0.0982881 235 19 0
0.692178 -0.324464 -0.0982881 237 17 0
0.692178 -0.324464 -0.0982881 238 16 0
0.692178 -0.324464 -0.0982881 239 15 0
0.692178 -0.324464 -0.0982881 240 14 0
0.692178 -0.324464 -0.0982881 242 12 0
0.692178 -0.324464 -0.0982881 243 11 0
0.692178 -0.324464 -0.0982881 244 10 0
0.692178 -0.324464 -0.0982881 246 8 0
0.692178 -0.324464 -0.0982881 247 7 0
0.692178 -0.324464 -0.0982881 248 6 0
0.692178 -0.324464 -0.0982881 249 5 0
0.692178 -0.324464 -0.0982881 251 3 0
0.692178 -0.324464 -0.0982881 252 2 0
0.692178 -0.324464 -0.0982881 253 1 0
0.692178 -0.324464 -0.0982881 255 0 0
