ply
format ascii 1.0
comment Generated by robot_control PLYWriter
element vertex 11
property float x
property float y
property float z
property uchar red
property uchar green
property uchar blue
end_header
0.676865 -0.364555 -0.0869027 0 255 0
0.676789 -0.359777 -0.0882757 25 229 0
0.676683 -0.355001 -0.0896519 51 204 0
0.676632 -0.35019 -0.0909072 76 178 0
0.676584 -0.345395 -0.0922201 102 153 0
0.676754 -0.340604 -0.09354 127 127 0
0.67674 -0.335807 -0.0948506 153 101 0
0.676782 -0.331018 -0.0961854 178 76 0
0.676812 -0.326227 -0.0975172 204 50 0
0.676946 -0.321416 -0.0987602 229 25 0
0.677231 -0.316637 -0.100103 255 0 0
