ply
format ascii 1.0
comment Generated by robot_control PLYWriter
element vertex 50
property float x
property float y
property float z
property uchar red
property uchar green
property uchar blue
end_header
0.722217 0.0996792 -0.143539 0 255 0
0.725571 0.0989 -0.144036 5 249 0
0.729767 0.0956231 -0.144019 10 244 0
0.733351 0.0917695 -0.142432 15 239 0
0.734909 0.0863394 -0.141193 20 234 0
0.735287 0.0815672 -0.138776 26 228 0
0.73328 0.0768367 -0.136177 31 223 0
0.728433 0.0759518 -0.134744 36 218 0
0.723634 0.0736789 -0.133883 41 213 0
0.718435 0.0762447 -0.133805 46 208 0
0.714224 0.0798064 -0.134526 52 202 0
0.712609 0.0854022 -0.135772 57 197 0
0.710609 0.0906442 -0.137786 62 192 0
0.712431 0.0956035 -0.13996 67 187 0
0.715982 0.0995995 -0.142553 72 182 0
0.720408 0.102986 -0.144376 78 176 0
0.725858 0.103386 -0.145827 83 171 0
0.731345 0.101468 -0.14712 88 166 0
0.737111 0.100014 -0.147503 93 161 0
0.741267 0.0958151 -0.147275 98 156 0
0.743933 0.090552 -0.146579 104 150 0
0.744443 0.0850803 -0.144621 109 145 0
0.740996 0.0807253 -0.142697 114 140 0
0.736717 0.0772168 -0.140655 119 135 0
0.731218 0.077525 -0.139479 124 130 0
0.726228 0.0804318 -0.139032 130 124 0
0.722534 0.0849928 -0.139842 135 119 0
0.720749 0.0899568 -0.14123 140 114 0
0.72118 0.0954435 -0.143463 145 109 0
0.721836 0.100711 -0.146197 150 104 0
0.726199 0.104215 -0.148258 156 98 0
0.73145 0.10543 -0.150745 161 93 0
0.737061 0.105727 -0.152619 166 88 0
0.742778 0.104914 -0.153824 171 83 0
0.747571 0.101671 -0.154596 176 78 0
0.750193 0.0965156 -0.154373 182 72 0
0.753287 0.0919339 -0.153083 187 67 0
0.752292 0.0865572 -0.150705 192 62 0
0.750429 0.0821715 -0.147751 197 57 0
0.745626 0.0802124 -0.145612 202 52 0
0.740286 0.0801219 -0.143445 208 46 0
0.735869 0.0835491 -0.142453 213 41 0
0.731756 0.0876478 -0.142996 218 36 0
0.730229 0.0923285 -0.144654 223 31 0
0.729379 0.0971573 -0.146995 228 26 0
0.730917 0.101226 -0.149688 234 20 0
0.733319 0.104919 -0.153008 239 15 0
0.73681 0.106618 -0.156617 244 10 0
0.740136 0.107872 -0.159116 249 5 0
0.74438 0.108219 -0.161704 255 0 0
