ply
format ascii 1.0
comment Generated by robot_control PLYWriter
element vertex 24
property float x
property float y
property float z
property uchar red
property uchar green
property uchar blue
end_header
0.719661 0.132369 -0.146336 0 255 0
0.722309 0.128756 -0.145139 11 243 0
0.723213 0.123832 -0.143144 22 232 0
0.719144 0.120652 -0.141531 33 221 0
0.714886 0.117532 -0.140783 44 210 0
0.708975 0.117849 -0.140601 55 199 0
0.703581 0.11983 -0.140999 66 188 0
0.699413 0.123915 -0.141867 77 177 0
0.697922 0.129446 -0.143055 88 166 0
0.698369 0.135078 -0.144767 99 155 0
0.700136 0.140321 -0.146467 110 144 0
0.705497 0.141735 -0.147322 121 133 0
0.711195 0.140998 -0.147572 133 121 0
0.714434 0.1366 -0.14706 144 110 0
0.713877 0.131141 -0.145793 155 99 0
0.709275 0.127883 -0.14454 166 88 0
0.703436 0.127661 -0.143746 177 77 0
0.697794 0.127538 -0.143723 188 66 0
0.692701 0.130439 -0.144132 199 55 0
0.69085 0.135812 -0.145069 210 44 0
0.688506 0.140661 -0.146682 221 33 0
0.689665 0.145722 -0.148935 232 22 0
0.692656 0.149662 -0.150817 243 11 0
0.696149 0.151447 -0.153049 255 0 0
