ply
format ascii 1.0
comment Generated by robot_control PLYWriter
element vertex 10
property float x
property float y
property float z
property uchar red
property uchar green
property uchar blue
end_header
0.610133 0.114234 -0.13685 0 255 0
0.61046 0.109452 -0.136248 28 226 0
0.61096 0.10465 -0.135789 56 198 0
0.611393 0.0998374 -0.135342 85 169 0
0.611809 0.0950184 -0.134955 113 141 0
0.612235 0.0901934 -0.134674 141 113 0
0.612571 0.0853593 -0.134467 170 84 0
0.612674 0.0805136 -0.134239 198 56 0
0.612677 0.0756647 -0.134051 226 28 0
0.61278 0.0708146 -0.133949 255 0 0
