ply
format ascii 1.0
comment Generated by robot_control PLYWriter
element vertex 14
property float x
property float y
property float z
property uchar red
property uchar green
property uchar blue
end_header
0.575896 -0.380001 -0.0663909 0 255 0
0.580541 -0.382536 -0.0657864 19 235 0
0.582312 -0.387968 -0.0655687 39 215 0
0.581258 -0.393345 -0.0656463 58 196 0
0.577892 -0.397993 -0.066114 78 176 0
0.57261 -0.400209 -0.0667773 98 156 0
0.5675 -0.402489 -0.0678484 117 137 0
0.562132 -0.401229 -0.0690044 137 117 0
0.558364 -0.397064 -0.0702585 156 98 0
0.556406 -0.391824 -0.0711112 176 78 0
0.558448 -0.386693 -0.0718723 196 58 0
0.562364 -0.382716 -0.0722654 215 39 0
0.567098 -0.380016 -0.0720935 235 19 0
0.571359 -0.378506 -0.0705672 255 0 0
