ply
format ascii 1.0
comment Generated by robot_control PLYWriter
element vertex 87
property float x
property float y
property float z
property uchar red
property uchar green
property uchar blue
end_header
0.629168 -0.20476 -0.135532 0 255 0
0.633248 -0.206828 -0.135108 2 252 0
0.636042 -0.210455 -0.133895 5 249 0
0.638217 -0.214907 -0.132252 8 246 0
0.637956 -0.220639 -0.130586 11 243 0
0.63742 -0.225475 -0.129415 14 240 0
0.634723 -0.230267 -0.128836 17 237 0
0.629833 -0.233128 -0.128781 20 234 0
0.624693 -0.2338 -0.128871 23 231 0
0.619559 -0.234061 -0.128923 26 228 0
0.614875 -0.230437 -0.128996 29 225 0
0.613271 -0.225017 -0.129351 32 222 0
0.613122 -0.219079 -0.130237 35 219 0
0.616471 -0.214217 -0.131144 38 216 0
0.622285 -0.213128 -0.131604 41 213 0
0.627906 -0.214404 -0.131411 44 210 0
0.633029 -0.217444 -0.130598 47 207 0
0.637012 -0.221574 -0.129356 50 204 0
0.638739 -0.226771 -0.128049 53 201 0
0.638838 -0.232635 -0.126793 56 198 0
0.635272 -0.237354 -0.125807 59 195 0
0.631513 -0.241972 -0.125144 62 192 0
0.625986 -0.243809 -0.124945 65 189 0
0.620479 -0.242674 -0.125346 68 186 0
0.615074 -0.240169 -0.12615 71 183 0
0.612396 -0.23505 -0.127417 74 180 0
0.613399 -0.229646 -0.128607 77 177 0
0.616218 -0.224406 -0.129139 80 174 0
0.621841 -0.222591 -0.129049 83 171 0
0.627512 -0.22393 -0.128258 85 169 0
0.632919 -0.226419 -0.127376 88 166 0
0.637251 -0.230219 -0.126035 91 163 0
0.638968 -0.235646 -0.124843 94 160 0
0.639039 -0.241515 -0.123541 97 157 0
0.636079 -0.246522 -0.122586 100 154 0
0.631744 -0.250596 -0.121832 103 151 0
0.626428 -0.25309 -0.121584 106 148 0
0.620768 -0.2521 -0.122003 109 145 0
0.615628 -0.249254 -0.123221 112 142 0
0.613019 -0.244485 -0.124873 115 139 0
0.613002 -0.238604 -0.126144 118 136 0
0.616818 -0.234042 -0.126417 121 133 0
0.62189 -0.232326 -0.126062 124 130 0
0.627864 -0.232185 -0.125375 127 127 0
0.632312 -0.23587 -0.124218 130 124 0
0.63623 -0.240108 -0.122881 133 121 0
0.638488 -0.245178 -0.121523 136 118 0
0.638831 -0.251015 -0.120261 139 115 0
0.636859 -0.256411 -0.118913 142 112 0
0.632541 -0.260511 -0.118187 145 109 0
0.627319 -0.262585 -0.11813 148 106 0
0.621322 -0.262815 -0.118532 151 103 0
0.616162 -0.260064 -0.119457 154 100 0
0.612884 -0.255358 -0.120934 157 97 0
0.612964 -0.249511 -0.1223 160 94 0
0.615402 -0.244376 -0.122717 163 91 0
0.621032 -0.242262 -0.122578 166 88 0
0.626836 -0.241612 -0.121892 169 85 0
0.632066 -0.243907 -0.120978 171 83 0
0.635863 -0.248434 -0.119843 174 80 0
0.63879 -0.253203 -0.118196 177 77 0
0.638647 -0.25912 -0.117121 180 74 0
0.637023 -0.264452 -0.115727 183 71 0
0.632748 -0.268654 -0.115296 186 68 0
0.627562 -0.271681 -0.115173 189 65 0
0.621612 -0.272123 -0.115522 192 62 0
0.616311 -0.270319 -0.116658 195 59 0
0.613129 -0.265503 -0.117821 198 56 0
0.612834 -0.259694 -0.118998 201 53 0
0.615453 -0.254528 -0.119515 204 50 0
0.620598 -0.251515 -0.119475 207 47 0
0.62619 -0.252005 -0.119029 210 44 0
0.63156 -0.254224 -0.118037 213 41 0
0.636227 -0.257719 -0.116668 216 38 0
0.637811 -0.26304 -0.115234 219 35 0
0.638511 -0.268857 -0.114259 222 32 0
0.636944 -0.274506 -0.113414 225 29 0
0.632791 -0.278491 -0.112698 228 26 0
0.628607 -0.280467 -0.112528 231 23 0
0.623774 -0.282772 -0.112748 234 20 0
0.618998 -0.280593 -0.113525 237 17 0
0.614247 -0.27815 -0.114453 240 14 0
0.612708 -0.272995 -0.115891 243 11 0
0.61339 -0.267546 -0.117041 246 8 0
0.616237 -0.262771 -0.117479 249 5 0
0.621185 -0.261347 -0.11726 252 2 0
0.626526 -0.26027 -0.11654 255 0 0
