ply
format ascii 1.0
comment Generated by robot_control PLYWriter
element vertex 14
property float x
property float y
property float z
property uchar red
property uchar green
property uchar blue
end_header
0.644095 -0.189825 -0.0396022 0 255 0
0.644021 -0.185152 -0.0406931 19 235 0
0.64379 -0.180501 -0.0418898 39 215 0
0.64363 -0.175751 -0.0426157 58 196 0
0.643451 -0.170969 -0.0430829 78 176 0
0.643302 -0.166169 -0.0433439 98 156 0
0.643246 -0.161363 -0.0433292 117 137 0
0.643223 -0.156567 -0.0430017 137 117 0
0.643097 -0.151796 -0.0424161 156 98 0
0.642973 -0.147045 -0.0416844 176 78 0
0.642975 -0.142299 -0.0409054 196 58 0
0.642974 -0.137591 -0.0399748 215 39 0
0.643011 -0.133013 -0.0385008 235 19 0
0.643058 -0.128334 -0.0373977 255 0 0
