ply
format ascii 1.0
comment Generated by robot_control PLYWriter
element vertex 161
property float x
property float y
property float z
property uchar red
property uchar green
property uchar blue
end_header
0.539275 -0.420838 -0.104422 0 255 0
0.542302 -0.422923 -0.1034 1 253 0
0.545491 -0.425083 -0.101957 3 251 0
0.547107 -0.429714 -0.100668 4 250 0
0.547232 -0.434987 -0.0995435 6 248 0
0.542456 -0.438238 -0.0993397 7 247 0
0.538782 -0.440628 -0.0996664 9 245 0
0.533481 -0.43927 -0.100577 11 243 0
0.529115 -0.436392 -0.101541 12 242 0
0.526039 -0.432458 -0.103146 14 240 0
0.524518 -0.427294 -0.104604 15 239 0
0.52442 -0.421478 -0.105825 17 237 0
0.526742 -0.416799 -0.10619 19 235 0
0.530577 -0.412524 -0.105991 20 234 0
0.535833 -0.410638 -0.10533 22 232 0
0.541297 -0.41108 -0.10418 23 231 0
0.54606 -0.414334 -0.103321 25 229 0
0.548648 -0.419112 -0.102558 27 227 0
0.547045 -0.42458 -0.102085 28 226 0
0.543746 -0.428414 -0.102102 30 224 0
0.538432 -0.430128 -0.102873 31 223 0
0.532691 -0.429027 -0.103684 33 221 0
0.528443 -0.425005 -0.104764 35 219 0
0.524709 -0.42047 -0.10556 36 218 0
0.524462 -0.414657 -0.105692 38 216 0
0.52643 -0.4091 -0.104875 39 215 0
0.52982 -0.404399 -0.103863 41 213 0
0.534721 -0.401319 -0.102467 43 211 0
0.540326 -0.400626 -0.100967 44 210 0
0.54488 -0.404013 -0.100249 46 208 0
0.54882 -0.407476 -0.100415 47 207 0
0.548588 -0.413321 -0.101465 49 205 0
0.54519 -0.417643 -0.103022 51 204 0
0.540591 -0.420756 -0.104368 52 202 0
0.534916 -0.419542 -0.105259 54 200 0
0.529659 -0.416697 -0.105498 55 199 0
0.526896 -0.411582 -0.105081 57 197 0
0.5266 -0.405739 -0.103931 58 196 0
0.527537 -0.400593 -0.101996 60 194 0
0.529437 -0.395293 -0.100195 62 192 0
0.534229 -0.392979 -0.0979996 63 191 0
0.538702 -0.390505 -0.0957209 65 189 0
0.544361 -0.391862 -0.0947154 66 188 0
0.548846 -0.395641 -0.0947336 68 186 0
0.55058 -0.401248 -0.0957279 70 184 0
0.548734 -0.406145 -0.0981745 71 183 0
0.544301 -0.409191 -0.100439 73 181 0
0.538814 -0.409787 -0.102139 74 180 0
0.533095 -0.408155 -0.102804 76 178 0
0.529428 -0.403756 -0.102212 78 176 0
0.526701 -0.398529 -0.10114 79 175 0
0.526597 -0.392928 -0.0995869 81 173 0
0.529026 -0.387822 -0.0977352 82 172 0
0.532402 -0.383215 -0.0959899 84 170 0
0.537529 -0.382388 -0.0940271 86 168 0
0.542869 -0.381115 -0.0919797 87 167 0
0.54785 -0.38349 -0.0912878 89 165 0
0.550949 -0.388517 -0.0916556 90 164 0
0.55089 -0.394313 -0.093023 92 162 0
0.546664 -0.398026 -0.094295 94 160 0
0.541233 -0.399781 -0.0959102 95 159 0
0.535404 -0.39966 -0.0967445 97 157 0
0.530973 -0.396004 -0.097403 98 156 0
0.528717 -0.390499 -0.0981153 100 154 0
0.528368 -0.38464 -0.0985694 102 153 0
0.52937 -0.379044 -0.0989598 103 151 0
0.533351 -0.374591 -0.0988761 105 149 0
0.53807 -0.371175 -0.0984715 106 148 0
0.543685 -0.371547 -0.0973783 108 146 0
0.548922 -0.374164 -0.0964278 109 145 0
0.551781 -0.37935 -0.0955825 111 143 0
0.551942 -0.385014 -0.0945507 113 141 0
0.547728 -0.388961 -0.0935028 114 140 0
0.54257 -0.390184 -0.0930881 116 138 0
0.53686 -0.388851 -0.0934214 117 137 0
0.531878 -0.386098 -0.0947804 119 135 0
0.529221 -0.381085 -0.0964111 121 133 0
0.52836 -0.375415 -0.0980559 122 132 0
0.530617 -0.370248 -0.0996353 124 130 0
0.53341 -0.365168 -0.101146 125 129 0
0.53828 -0.362543 -0.102332 127 127 0
0.543683 -0.361398 -0.103171 129 125 0
0.54913 -0.363841 -0.103059 130 124 0
0.551703 -0.368712 -0.101383 132 122 0
0.55158 -0.373946 -0.0994528 133 121 0
0.548241 -0.378629 -0.0982818 135 119 0
0.54279 -0.380224 -0.0978893 137 117 0
0.537328 -0.377929 -0.0978556 138 116 0
0.532516 -0.374379 -0.0981955 140 114 0
0.531199 -0.369354 -0.099026 141 113 0
0.52881 -0.364171 -0.100227 143 111 0
0.531549 -0.3591 -0.101712 145 109 0
0.535152 -0.355204 -0.103025 146 108 0
0.540072 -0.352051 -0.10415 148 106 0
0.545404 -0.352107 -0.104591 149 105 0
0.550861 -0.353614 -0.104611 151 103 0
0.55317 -0.358709 -0.104307 153 101 0
0.553231 -0.364692 -0.103976 154 100 0
0.550048 -0.369258 -0.103822 156 98 0
0.544383 -0.370425 -0.103827 157 97 0
0.538654 -0.368695 -0.103719 159 95 0
0.534126 -0.365037 -0.103495 160 94 0
0.530936 -0.360094 -0.103372 162 92 0
0.530852 -0.354112 -0.103408 164 90 0
0.532462 -0.348372 -0.103535 165 89 0
0.536933 -0.344552 -0.103766 167 87 0
0.541676 -0.34091 -0.10382 168 86 0
0.547259 -0.342077 -0.103801 170 84 0
0.552556 -0.344818 -0.103885 172 82 0
0.554848 -0.349562 -0.104084 173 81 0
0.553724 -0.355278 -0.104366 175 79 0
0.549348 -0.358688 -0.10459 176 78 0
0.543868 -0.360773 -0.104648 178 76 0
0.538682 -0.358301 -0.104454 180 74 0
0.534668 -0.353906 -0.104029 181 73 0
0.532032 -0.34862 -0.103549 183 71 0
0.53171 -0.342906 -0.103243 184 70 0
0.5345 -0.337662 -0.102791 186 68 0
0.53839 -0.33319 -0.102461 188 66 0
0.544064 -0.331992 -0.102239 189 65 0
0.549185 -0.332812 -0.102309 191 63 0
0.554417 -0.335702 -0.102578 192 62 0
0.55606 -0.341199 -0.103009 194 60 0
0.554629 -0.346485 -0.103471 196 58 0
0.550086 -0.350343 -0.103688 197 57 0
0.544118 -0.350743 -0.103652 199 55 0
0.539593 -0.347739 -0.103398 200 54 0
0.534341 -0.344901 -0.103019 202 52 0
0.533496 -0.339305 -0.102615 204 50 0
0.532794 -0.333599 -0.10213 205 49 0
0.534695 -0.328175 -0.101556 207 47 0
0.538312 -0.323461 -0.101153 208 46 0
0.543482 -0.321913 -0.100877 210 44 0
0.548525 -0.321767 -0.100885 211 43 0
0.55381 -0.323898 -0.101111 213 41 0
0.55658 -0.328888 -0.101438 215 39 0
0.556254 -0.334729 -0.102076 216 38 0
0.551734 -0.338629 -0.102381 218 36 0
0.546204 -0.340191 -0.102391 219 35 0
0.54159 -0.338514 -0.102263 221 33 0
0.536737 -0.336129 -0.101968 223 31 0
0.534452 -0.330987 -0.101534 224 30 0
0.533108 -0.32556 -0.100865 226 28 0
0.534471 -0.319879 -0.100199 227 27 0
0.536867 -0.315585 -0.0994174 229 25 0
0.54182 -0.312593 -0.0986445 231 23 0
0.547709 -0.312177 -0.0980757 232 22 0
0.552857 -0.313656 -0.0981876 234 20 0
0.556405 -0.317797 -0.0989162 235 19 0
0.558211 -0.322807 -0.099985 237 17 0
0.556267 -0.327009 -0.1009 239 15 0
0.551388 -0.329818 -0.101267 240 14 0
0.545902 -0.33099 -0.101241 242 12 0
0.540943 -0.32861 -0.101129 243 11 0
0.536651 -0.324981 -0.100886 245 9 0
0.534365 -0.319962 -0.100465 247 7 0
0.534592 -0.314465 -0.0993087 248 6 0
0.536069 -0.309754 -0.0979919 250 4 0
0.538676 -0.305975 -0.0970178 251 3 0
0.541099 -0.302682 -0.0962447 253 1 0
0.546573 -0.30272 -0.0955643 255 0 0
