ply
format ascii 1.0
comment Generated by robot_control PLYWriter
element vertex 8
property float x
property float y
property float z
property uchar red
property uchar green
property uchar blue
end_header
0.636324 -0.0592059 -0.102576 0 255 0
0.636329 -0.0538644 -0.102626 36 218 0
0.636813 -0.0485419 -0.102644 72 182 0
0.637301 -0.0432223 -0.102805 109 145 0
0.637631 -0.0378943 -0.103064 145 109 0
0.638017 -0.0325668 -0.103242 182 72 0
0.638494 -0.0272438 -0.103224 218 36 0
0.638496 -0.0219001 -0.10326 255 0 0
