ply
format ascii 1.0
comment Generated by robot_control PLYWriter
element vertex 33
property float x
property float y
property float z
property uchar red
property uchar green
property uchar blue
end_header
0.706277 0.0796682 -0.14055 0 255 0
0.710247 0.0766039 -0.139643 7 247 0
0.712558 0.0718927 -0.138488 15 239 0
0.712215 0.0660279 -0.137769 23 231 0
0.709344 0.0610533 -0.137491 31 223 0
0.706953 0.0556407 -0.137558 39 215 0
0.701225 0.0545576 -0.137916 47 207 0
0.695701 0.0527297 -0.138487 55 199 0
0.690149 0.0532396 -0.139231 63 191 0
0.684843 0.0557241 -0.140073 71 183 0
0.680804 0.0599022 -0.140894 79 175 0
0.677701 0.0648709 -0.141513 87 167 0
0.677103 0.0702102 -0.141863 95 159 0
0.679206 0.0756906 -0.142024 103 151 0
0.682777 0.0800234 -0.141887 111 143 0
0.68849 0.0814811 -0.141552 119 135 0
0.694336 0.0813714 -0.14075 127 127 0
0.698827 0.0781311 -0.140162 135 119 0
0.701187 0.0727704 -0.139615 143 111 0
0.701393 0.0672106 -0.139361 151 103 0
0.699392 0.0616412 -0.139341 159 95 0
0.695455 0.0575448 -0.139482 167 87 0
0.690835 0.0538577 -0.139804 175 79 0
0.685006 0.0537219 -0.140371 183 71 0
0.679362 0.0537181 -0.140955 191 63 0
0.674395 0.0567627 -0.141724 199 55 0
0.669459 0.059814 -0.142668 207 47 0
0.667273 0.0651464 -0.143461 215 39 0
0.666198 0.0706621 -0.144169 223 31 0
0.668378 0.0754147 -0.144533 231 23 0
0.671313 0.0797638 -0.144908 239 15 0
0.675505 0.0815849 -0.145016 247 7 0
0.678895 0.0839219 -0.144885 255 0 0
