ply
format ascii 1.0
comment Generated by robot_control PLYWriter
element vertex 10
property float x
property float y
property float z
property uchar red
property uchar green
property uchar blue
end_header
0.561512 -0.201998 -0.0436862 0 255 0
0.561233 -0.207022 -0.0435542 28 226 0
0.560433 -0.21199 -0.0434389 56 198 0
0.559937 -0.216999 -0.0433646 85 169 0
0.559511 -0.222015 -0.0433552 113 141 0
0.559051 -0.227028 -0.043339 141 113 0
0.558177 -0.231985 -0.0432653 170 84 0
0.557722 -0.236998 -0.0432153 198 56 0
0.557295 -0.242014 -0.0432768 226 28 0
0.556417 -0.246968 -0.0433065 255 0 0
