ply
format ascii 1.0
comment Generated by robot_control PLYWriter
element vertex 15
property float x
property float y
property float z
property uchar red
property uchar green
property uchar blue
end_header
0.642179 -0.0143725 -0.0367691 0 255 0
0.641658 -0.00949778 -0.0368612 18 236 0
0.641349 -0.00460308 -0.0368504 36 218 0
0.641043 0.000291646 -0.0368248 54 200 0
0.640742 0.00518703 -0.0369082 72 182 0
0.640567 0.0100845 -0.0368516 91 163 0
0.640495 0.0149539 -0.03636 109 145 0
0.640292 0.0196492 -0.0350933 127 127 0
0.640021 0.0240055 -0.0328623 145 109 0
0.63979 0.0281399 -0.0302326 163 91 0
0.639602 0.0321222 -0.027376 182 72 0
0.639282 0.0360755 -0.0244916 200 54 0
0.63889 0.0399163 -0.0214752 218 36 0
0.638488 0.0432613 -0.0179232 236 18 0
0.638198 0.0463001 -0.0140847 255 0 0
