ply
format ascii 1.0
comment Generated by robot_control PLYWriter
element vertex 59
property float x
property float y
property float z
property uchar red
property uchar green
property uchar blue
end_header
0.58129 0.0371944 -0.138013 0 255 0
0.585246 0.0345482 -0.137465 4 250 0
0.588378 0.0298956 -0.137001 8 246 0
0.590057 0.0246403 -0.136409 13 241 0
0.590049 0.0186918 -0.135789 17 237 0
0.586915 0.0138004 -0.135273 21 233 0
0.582977 0.00940806 -0.134874 26 228 0
0.577699 0.00708166 -0.134512 30 224 0
0.572585 0.00752543 -0.134426 35 219 0
0.567136 0.00868836 -0.134603 39 215 0
0.563264 0.0132278 -0.134987 43 211 0
0.562866 0.0189213 -0.135374 48 206 0
0.565934 0.0237005 -0.135785 52 202 0
0.570359 0.0277105 -0.136054 57 197 0
0.57614 0.0278715 -0.136171 61 193 0
0.581742 0.0260252 -0.136072 65 189 0
0.5861 0.0220116 -0.135713 70 184 0
0.58947 0.0171749 -0.135282 74 180 0
0.590046 0.0113307 -0.134887 79 175 0
0.589 0.00564447 -0.13451 83 171 0
0.585969 0.00049551 -0.134227 87 167 0
0.5811 -0.00240182 -0.133938 92 162 0
0.575475 -0.00420633 -0.133762 96 158 0
0.569712 -0.00308399 -0.133756 101 153 0
0.564688 -0.00014373 -0.133952 105 149 0
0.562559 0.00533125 -0.134212 109 145 0
0.564745 0.0106286 -0.134442 114 140 0
0.568688 0.0150124 -0.134546 118 136 0
0.574134 0.0173307 -0.134522 123 131 0
0.5795 0.0152974 -0.134324 127 127 0
0.584646 0.0122555 -0.134082 131 123 0
0.588211 0.00778398 -0.133837 136 118 0
0.590036 0.00211461 -0.133642 140 114 0
0.589757 -0.00381657 -0.133462 145 109 0
0.587035 -0.00890613 -0.133317 149 105 0
0.582316 -0.0125813 -0.13323 153 101 0
0.57722 -0.0156204 -0.13317 158 96 0
0.571381 -0.0154425 -0.133234 162 92 0
0.566443 -0.0122934 -0.133451 167 87 0
0.564284 -0.0071075 -0.133779 171 83 0
0.562554 -0.00160622 -0.133945 175 79 0
0.566432 0.00265059 -0.133971 180 74 0
0.571641 0.00550596 -0.133838 184 70 0
0.577532 0.00577088 -0.133529 189 65 0
0.582951 0.00389825 -0.1332 193 61 0
0.587253 0.000163955 -0.132895 197 57 0
0.589582 -0.00532403 -0.132539 202 52 0
0.590043 -0.0111873 -0.132172 206 48 0
0.588772 -0.0169542 -0.132022 211 43 0
0.585298 -0.0216627 -0.132043 215 39 0
0.580447 -0.0250877 -0.132316 219 35 0
0.574673 -0.026036 -0.132675 224 30 0
0.569101 -0.0249815 -0.133226 228 26 0
0.564915 -0.0207432 -0.133664 233 21 0
0.562557 -0.0154132 -0.13386 237 17 0
0.565058 -0.0107663 -0.133926 241 13 0
0.568389 -0.00811488 -0.133931 246 8 0
0.572122 -0.00589059 -0.133835 250 4 0
0.576678 -0.00586959 -0.133544 255 0 0
