ply
format ascii 1.0
comment Generated by robot_control PLYWriter
element vertex 12
property float x
property float y
property float z
property uchar red
property uchar green
property uchar blue
end_header
0.644855 0.0859835 -0.114876 0 255 0
0.64479 0.0813391 -0.113398 23 231 0
0.644452 0.0766229 -0.112216 46 208 0
0.644226 0.0719038 -0.111011 69 185 0
0.643933 0.0671474 -0.109977 92 162 0
0.643644 0.0623547 -0.109126 115 139 0
0.643379 0.0575273 -0.108489 139 115 0
0.642952 0.0526954 -0.107992 162 92 0
0.642498 0.0478559 -0.107604 185 69 0
0.642192 0.0430023 -0.107257 208 46 0
0.641944 0.0381443 -0.106916 231 23 0
0.641559 0.0332904 -0.106654 255 0 0
