ply
format ascii 1.0
comment Generated by robot_control PLYWriter
element vertex 29
property float x
property float y
property float z
property uchar red
property uchar green
property uchar blue
end_header
0.700427 0.0603209 -0.136618 0 255 0
0.704701 0.0581909 -0.136769 9 245 0
0.709293 0.054384 -0.136127 18 236 0
0.712281 0.0503304 -0.13485 27 227 0
0.71262 0.0451485 -0.133358 36 218 0
0.709401 0.0408197 -0.131728 45 209 0
0.703751 0.0393876 -0.130662 54 200 0
0.698356 0.0414739 -0.130608 63 191 0
0.693501 0.0448981 -0.131283 72 182 0
0.692839 0.0502526 -0.132348 81 173 0
0.693268 0.0559318 -0.134295 91 163 0
0.696136 0.060541 -0.136135 100 154 0
0.700853 0.0635453 -0.138162 109 145 0
0.706492 0.0641523 -0.139993 118 136 0
0.712197 0.0639292 -0.141029 127 127 0
0.717418 0.0610131 -0.141488 136 118 0
0.722157 0.0573132 -0.141478 145 109 0
0.723873 0.0519318 -0.140695 154 100 0
0.722547 0.0463142 -0.139129 163 91 0
0.719534 0.0428046 -0.137532 173 81 0
0.714837 0.0411068 -0.135728 182 72 0
0.709414 0.0434744 -0.134662 191 63 0
0.706169 0.0483286 -0.134581 200 54 0
0.703415 0.0534124 -0.135599 209 45 0
0.704686 0.0584044 -0.137935 218 36 0
0.707911 0.0628299 -0.140389 227 27 0
0.711068 0.0649609 -0.143841 236 18 0
0.71525 0.0668484 -0.146235 245 9 0
0.717324 0.0660153 -0.148278 255 0 0
