ply
format ascii 1.0
comment Generated by robot_control PLYWriter
element vertex 12
property float x
property float y
property float z
property uchar red
property uchar green
property uchar blue
end_header
0.585159 0.015292 -0.112468 0 255 0
0.58514 0.0198412 -0.114078 23 231 0
0.585172 0.0243335 -0.115841 46 208 0
0.585362 0.0288646 -0.117496 69 185 0
0.585552 0.0333855 -0.119178 92 162 0
0.585735 0.0379014 -0.120875 115 139 0
0.585938 0.0424156 -0.122573 139 115 0
0.586151 0.0469569 -0.124196 162 92 0
0.58637 0.0515545 -0.125647 185 69 0
0.586591 0.0561972 -0.12695 208 46 0
0.586706 0.0608451 -0.128244 231 23 0
0.586711 0.0655399 -0.12936 255 0 0
