ply
format ascii 1.0
comment Generated by robot_control PLYWriter
element vertex 13
property float x
property float y
property float z
property uchar red
property uchar green
property uchar blue
end_header
0.558682 -0.0283234 -0.0414425 0 255 0
0.558304 -0.0232126 -0.0422866 21 233 0
0.557852 -0.0180557 -0.042839 42 212 0
0.557515 -0.0128864 -0.043367 63 191 0
0.557182 -0.00770137 -0.0436984 85 169 0
0.556863 -0.00250699 -0.0437109 106 148 0
0.556565 0.00267768 -0.0433618 127 127 0
0.556282 0.00784136 -0.0427549 148 106 0
0.556014 0.0129821 -0.041972 170 84 0
0.555809 0.0181038 -0.0410549 191 63 0
0.555601 0.0232176 -0.040094 212 42 0
0.555327 0.028309 -0.0390395 233 21 0
0.554719 0.0333612 -0.0379445 255 0 0
