ply
format ascii 1.0
comment Generated by robot_control PLYWriter
element vertex 200
property float x
property float y
property float z
property uchar red
property uchar green
property uchar blue
end_header
0.49824 0.233555 -0.109811 0 255 0
0.49824 0.233555 -0.109811 1 253 0
0.49824 0.233555 -0.109811 2 252 0
0.49824 0.233555 -0.109811 3 251 0
0.49824 0.233555 -0.109811 5 249 0
0.49824 0.233555 -0.109811 6 248 0
0.49824 0.233555 -0.109811 7 247 0
0.49824 0.233555 -0.109811 8 246 0
0.49824 0.233555 -0.109811 10 244 0
0.49824 0.233555 -0.109811 11 243 0
0.49824 0.233555 -0.109811 12 242 0
0.49824 0.233555 -0.109811 14 240 0
0.49824 0.233555 -0.109811 15 239 0
0.49824 0.233555 -0.109811 16 238 0
0.49824 0.233555 -0.109811 17 237 0
0.49824 0.233555 -0.109811 19 235 0
0.49824 0.233555 -0.109811 20 234 0
0.49824 0.233555 -0.109811 21 233 0
0.49824 0.233555 -0.109811 23 231 0
0.49824 0.233555 -0.109811 24 230 0
0.49824 0.233555 -0.109811 25 229 0
0.49824 0.233555 -0.109811 26 228 0
0.49824 0.233555 -0.109811 28 226 0
0.49824 0.233555 -0.109811 29 225 0
0.49824 0.233555 -0.109811 30 224 0
0.49824 0.233555 -0.109811 32 222 0
0.49824 0.233555 -0.109811 33 221 0
0.49824 0.233555 -0.109811 34 220 0
0.49824 0.233555 -0.109811 35 219 0
0.49824 0.233555 -0.109811 37 217 0
0.49824 0.233555 -0.109811 38 216 0
0.49824 0.233555 -0.109811 39 215 0
0.49824 0.233555 -0.109811 41 213 0
0.49824 0.233555 -0.109811 42 212 0
0.49824 0.233555 -0.109811 43 211 0
0.49824 0.233555 -0.109811 44 210 0
0.49824 0.233555 -0.109811 46 208 0
0.49824 0.233555 -0.109811 47 207 0
0.49824 0.233555 -0.109811 48 206 0
0.49824 0.233555 -0.109811 49 205 0
0.49824 0.233555 -0.109811 51 203 0
0.49824 0.233555 -0.109811 52 202 0
0.49824 0.233555 -0.109811 53 201 0
0.49824 0.233555 -0.109811 55 199 0
0.49824 0.233555 -0.109811 56 198 0
0.49824 0.233555 -0.109811 57 197 0
0.49824 0.233555 -0.109811 58 196 0
0.49824 0.233555 -0.109811 60 194 0
0.49824 0.233555 -0.109811 61 193 0
0.49824 0.233555 -0.109811 62 192 0
0.49824 0.233555 -0.109811 64 190 0
0.49824 0.233555 -0.109811 65 189 0
0.49824 0.233555 -0.109811 66 188 0
0.49824 0.233555 -0.109811 67 187 0
0.49824 0.233555 -0.109811 69 185 0
0.49824 0.233555 -0.109811 70 184 0
0.49824 0.233555 -0.109811 71 183 0
0.49824 0.233555 -0.109811 73 181 0
0.49824 0.233555 -0.109811 74 180 0
0.49824 0.233555 -0.109811 75 179 0
0.49824 0.233555 -0.109811 76 178 0
0.49824 0.233555 -0.109811 78 176 0
0.49824 0.233555 -0.109811 79 175 0
0.49824 0.233555 -0.109811 80 174 0
0.49824 0.233555 -0.109811 82 172 0
0.49824 0.233555 -0.109811 83 171 0
0.49824 0.233555 -0.109811 84 170 0
0.49824 0.233555 -0.109811 85 169 0
0.49824 0.233555 -0.109811 87 167 0
0.49824 0.233555 -0.109811 88 166 0
0.49824 0.233555 -0.109811 89 165 0
0.49824 0.233555 -0.109811 90 164 0
0.49824 0.233555 -0.109811 92 162 0
0.49824 0.233555 -0.109811 93 161 0
0.49824 0.233555 -0.109811 94 160 0
0.49824 0.233555 -0.109811 96 158 0
0.49824 0.233555 -0.109811 97 157 0
0.49824 0.233555 -0.109811 98 156 0
0.49824 0.233555 -0.109811 99 155 0
0.49824 0.233555 -0.109811 101 153 0
0.49824 0.233555 -0.109811 102 152 0
0.49824 0.233555 -0.109811 103 151 0
0.49824 0.233555 -0.109811 105 149 0
0.49824 0.233555 -0.109811 106 148 0
0.49824 0.233555 -0.109811 107 147 0
0.49824 0.233555 -0.109811 108 146 0
0.49824 0.233555 -0.109811 110 144 0
0.49824 0.233555 -0.109811 111 143 0
0.49824 0.233555 -0.109811 112 142 0
0.49824 0.233555 -0.109811 114 140 0
0.49824 0.233555 -0.109811 115 139 0
0.49824 0.233555 -0.109811 116 138 0
0.49824 0.233555 -0.109811 117 137 0
0.49824 0.233555 -0.109811 119 135 0
0.49824 0.233555 -0.109811 120 134 0
0.49824 0.233555 -0.109811 121 133 0
0.49824 0.233555 -0.109811 123 131 0
0.49824 0.233555 -0.109811 124 130 0
0.49824 0.233555 -0.109811 125 129 0
0.49824 0.233555 -0.109811 126 128 0
0.49824 0.233555 -0.109811 128 126 0
0.49824 0.233555 -0.109811 129 125 0
0.49824 0.233555 -0.109811 130 124 0
0.49824 0.233555 -0.109811 131 123 0
0.49824 0.233555 -0.109811 133 121 0
0.49824 0.233555 -0.109811 134 120 0
0.49824 0.233555 -0.109811 135 119 0
0.49824 0.233555 -0.109811 137 117 0
0.49824 0.233555 -0.109811 138 116 0
0.49824 0.233555 -0.109811 139 115 0
0.49824 0.233555 -0.109811 140 114 0
0.49824 0.233555 -0.109811 142 112 0
0.49824 0.233555 -0.109811 143 111 0
0.49824 0.233555 -0.109811 144 110 0
0.49824 0.233555 -0.109811 146 108 0
0.49824 0.233555 -0.109811 147 107 0
0.49824 0.233555 -0.109811 148 106 0
0.49824 0.233555 -0.109811 149 105 0
0.49824 0.233555 -0.109811 151 103 0
0.49824 0.233555 -0.109811 152 102 0
0.49824 0.233555 -0.109811 153 101 0
0.49824 0.233555 -0.109811 155 99 0
0.49824 0.233555 -0.109811 156 98 0
0.49824 0.233555 -0.109811 157 97 0
0.49824 0.233555 -0.109811 158 96 0
0.49824 0.233555 -0.109811 160 94 0
0.49824 0.233555 -0.109811 161 93 0
0.49824 0.233555 -0.109811 162 92 0
0.49824 0.233555 -0.109811 164 90 0
0.49824 0.233555 -0.109811 165 89 0
0.49824 0.233555 -0.109811 166 88 0
0.49824 0.233555 -0.109811 167 87 0
0.49824 0.233555 -0.109811 169 85 0
0.49824 0.233555 -0.109811 170 84 0
0.49824 0.233555 -0.109811 171 83 0
0.49824 0.233555 -0.109811 172 82 0
0.49824 0.233555 -0.109811 174 80 0
0.49824 0.233555 -0.109811 175 79 0
0.49824 0.233555 -0.109811 176 78 0
0.49824 0.233555 -0.109811 178 76 0
0.49824 0.233555 -0.109811 179 75 0
0.49824 0.233555 -0.109811 180 74 0
0.49824 0.233555 -0.109811 181 73 0
0.49824 0.233555 -0.109811 183 71 0
0.49824 0.233555 -0.109811 184 70 0
0.49824 0.233555 -0.109811 185 69 0
0.49824 0.233555 -0.109811 187 67 0
0.49824 0.233555 -0.109811 188 66 0
0.49824 0.233555 -0.109811 189 65 0
0.49824 0.233555 -0.109811 190 64 0
0.49824 0.233555 -0.109811 192 62 0
0.49824 0.233555 -0.109811 193 61 0
0.49824 0.233555 -0.109811 194 60 0
0.49824 0.233555 -0.109811 196 58 0
0.49824 0.233555 -0.109811 197 57 0
0.49824 0.233555 -0.109811 198 56 0
0.49824 0.233555 -0.109811 199 55 0
0.49824 0.233555 -0.109811 201 53 0
0.49824 0.233555 -0.109811 202 52 0
0.49824 0.233555 -0.109811 203 51 0
0.49824 0.233555 -0.109811 205 49 0
0.49824 0.233555 -0.109811 206 48 0
0.49824 0.233555 -0.109811 207 47 0
0.49824 0.233555 -0.109811 208 46 0
0.49824 0.233555 -0.109811 210 44 0
0.49824 0.233555 -0.109811 211 43 0
0.49824 0.233555 -0.109811 212 42 0
0.49824 0.233555 -0.109811 213 41 0
0.49824 0.233555 -0.109811 215 39 0
0.49824 0.233555 -0.109811 216 38 0
0.49824 0.233555 -0.109811 217 37 0
0.49824 0.233555 -0.109811 219 35 0
0.49824 0.233555 -0.109811 220 34 0
0.49824 0.233555 -0.109811 221 33 0
0.49824 0.233555 -0.109811 222 32 0
0.49824 0.233555 -0.109811 224 30 0
0.49824 0.233555 -0.109811 225 29 0
0.49824 0.233555 -0.109811 226 28 0
0.49824 0.233555 -0.109811 228 26 0
0.49824 0.233555 -0.109811 229 25 0
0.49824 0.233555 -0.109811 230 24 0
0.49824 0.233555 -0.109811 231 23 0
0.49824 0.233555 -0.109811 233 21 0
0.49824 0.233555 -0.109811 234 20 0
0.49824 0.233555 -0.109811 235 19 0
0.49824 0.233555 -0.109811 237 17 0
0.49824 0.233555 -0.109811 238 16 0
0.49824 0.233555 -0.109811 239 15 0
0.49824 0.233555 -0.109811 240 14 0
0.49824 0.233555 -0.109811 242 12 0
0.49824 0.233555 -0.109811 243 11 0
0.49824 0.233555 -0.109811 244 10 0
0.49824 0.233555 -0.109811 246 8 0
0.49824 0.233555 -0.109811 247 7 0
0.49824 0.233555 -0.109811 248 6 0
0.49824 0.233555 -0.109811 249 5 0
0.49824 0.233555 -0.109811 251 3 0
0.49824 0.233555 -0.109811 252 2 0
0.49824 0.233555 -0.109811 253 1 0
0.49824 0.233555 -0.109811 255 0 0
