ply
format ascii 1.0
comment Generated by robot_control PLYWriter
element vertex 11
property float x
property float y
property float z
property uchar red
property uchar green
property uchar blue
end_header
0.582483 -0.0258988 -0.0424306 0 255 0
0.582495 -0.0306841 -0.0417326 25 229 0
0.582512 -0.0354444 -0.0408767 51 204 0
0.582795 -0.0401818 -0.03996 76 178 0
0.583177 -0.0449217 -0.0390767 102 153 0
0.583568 -0.0496737 -0.038266 127 127 0
0.583981 -0.0544448 -0.0375983 153 101 0
0.584382 -0.0592442 -0.0371712 178 76 0
0.584691 -0.0640641 -0.0369821 204 50 0
0.584688 -0.0689007 -0.0369988 229 25 0
0.584683 -0.0737368 -0.0370712 255 0 0
