ply
format ascii 1.0
comment Generated by robot_control PLYWriter
element vertex 10
property float x
property float y
property float z
property uchar red
property uchar green
property uchar blue
end_header
0.662321 0.0441302 -0.040531 0 255 0
0.661581 0.0492431 -0.0397382 28 226 0
0.661175 0.0544139 -0.0389934 56 198 0
0.660442 0.059531 -0.038131 85 169 0
0.659679 0.0646635 -0.0374276 113 141 0
0.659288 0.0698787 -0.037232 141 113 0
0.658488 0.0750312 -0.0377288 170 84 0
0.657726 0.0800922 -0.0388409 198 56 0
0.657328 0.0850814 -0.0403952 226 28 0
0.656568 0.0899306 -0.0422157 255 0 0
