ply
format ascii 1.0
comment Generated by robot_control PLYWriter
element vertex 17
property float x
property float y
property float z
property uchar red
property uchar green
property uchar blue
end_header
0.520634 -0.02413 -0.111733 0 255 0
0.520646 -0.0192838 -0.111555 15 239 0
0.520517 -0.0144391 -0.111602 31 223 0
0.520309 -0.0095949 -0.111692 47 207 0
0.520128 -0.00475019 -0.11182 63 191 0
0.519939 9.24498e-05 -0.112002 79 175 0
0.519744 0.00493091 -0.112267 95 159 0
0.519541 0.00976153 -0.112642 111 143 0
0.519323 0.0145762 -0.113173 127 127 0
0.519092 0.0193755 -0.113831 143 111 0
0.518858 0.0241704 -0.11452 159 95 0
0.518671 0.0289712 -0.115176 175 79 0
0.518613 0.0337883 -0.115734 191 63 0
0.518572 0.0386173 -0.116176 207 47 0
0.518538 0.0434547 -0.116509 223 31 0
0.518476 0.0482664 -0.117113 239 15 0
0.518448 0.0531048 -0.117383 255 0 0
