ply
format ascii 1.0
comment Generated by robot_control PLYWriter
element vertex 15
property float x
property float y
property float z
property uchar red
property uchar green
property uchar blue
end_header
0.705446 -0.367249 -0.0873725 0 255 0
0.710132 -0.369863 -0.0874008 18 236 0
0.714076 -0.374303 -0.087332 36 218 0
0.713984 -0.380244 -0.0871071 54 200 0
0.714046 -0.386302 -0.0868145 72 182 0
0.710314 -0.39096 -0.0864672 91 163 0
0.705019 -0.39383 -0.086085 109 145 0
0.699162 -0.394306 -0.0857569 127 127 0
0.693652 -0.39193 -0.0853954 145 109 0
0.689559 -0.387996 -0.0851836 163 91 0
0.686675 -0.382679 -0.0850781 182 72 0
0.687561 -0.376847 -0.0851875 200 54 0
0.690277 -0.371429 -0.0853997 218 36 0
0.695132 -0.368295 -0.0858131 236 18 0
0.700153 -0.366273 -0.0865518 255 0 0
