ply
format ascii 1.0
comment Generated by robot_control PLYWriter
element vertex 10
property float x
property float y
property float z
property uchar red
property uchar green
property uchar blue
end_header
0.608622 0.069926 -0.142621 0 255 0
0.60896 0.0649399 -0.142827 28 226 0
0.609279 0.0599375 -0.142926 56 198 0
0.609635 0.0549389 -0.14308 85 169 0
0.609991 0.0499398 -0.143214 113 141 0
0.610294 0.0449363 -0.143306 141 113 0
0.610324 0.0399235 -0.143383 170 84 0
0.610339 0.0349123 -0.143536 198 56 0
0.610386 0.0299035 -0.143751 226 28 0
0.610424 0.0248967 -0.14399 255 0 0
