ply
format ascii 1.0
comment Generated by robot_control PLYWriter
element vertex 32
property float x
property float y
property float z
property uchar red
property uchar green
property uchar blue
end_header
0.76552 0.0579121 -0.155521 0 255 0
0.768261 0.0532838 -0.153686 8 246 0
0.771873 0.049277 -0.151078 16 238 0
0.771593 0.0446234 -0.148153 24 230 0
0.770811 0.0396701 -0.14535 32 222 0
0.767567 0.0354541 -0.14259 41 213 0
0.763911 0.0315795 -0.139878 49 205 0
0.758608 0.029599 -0.137928 57 197 0
0.752812 0.0287732 -0.136429 65 189 0
0.747332 0.0312112 -0.135949 74 180 0
0.742924 0.0353046 -0.136047 82 172 0
0.73977 0.0404254 -0.136792 90 164 0
0.737159 0.0456679 -0.138203 98 156 0
0.739001 0.0508345 -0.140277 106 148 0
0.741861 0.055209 -0.142156 115 139 0
0.747312 0.0568989 -0.143282 123 131 0
0.753123 0.0552933 -0.143552 131 123 0
0.757049 0.0509906 -0.143184 139 115 0
0.759186 0.0453632 -0.14247 148 106 0
0.759487 0.0397807 -0.140904 156 98 0
0.75665 0.0349099 -0.1387 164 90 0
0.753325 0.0309723 -0.135641 172 82 0
0.748327 0.0286229 -0.133466 180 74 0
0.742551 0.0284073 -0.131689 189 65 0
0.736835 0.029216 -0.130351 197 57 0
0.73128 0.0313454 -0.12949 205 49 0
0.727675 0.0360261 -0.129161 213 41 0
0.725439 0.0416234 -0.129369 222 32 0
0.726053 0.0466709 -0.130283 230 24 0
0.727691 0.0511437 -0.132404 238 16 0
0.731558 0.0542762 -0.134599 246 8 0
0.735776 0.0552187 -0.137139 255 0 0
