ply
format ascii 1.0
comment Generated by robot_control PLYWriter
element vertex 9
property float x
property float y
property float z
property uchar red
property uchar green
property uchar blue
end_header
0.538834 -0.140922 -0.127319 0 255 0
0.539122 -0.145693 -0.126751 31 223 0
0.539498 -0.150465 -0.126178 63 191 0
0.539836 -0.155242 -0.125616 95 159 0
0.540158 -0.160025 -0.125094 127 127 0
0.540587 -0.164801 -0.124611 159 95 0
0.541112 -0.169568 -0.124132 191 63 0
0.541426 -0.174354 -0.123636 223 31 0
0.541832 -0.179141 -0.123242 255 0 0
