ply
format ascii 1.0
comment Generated by robot_control PLYWriter
element vertex 32
property float x
property float y
property float z
property uchar red
property uchar green
property uchar blue
end_header
0.705078 0.114521 -0.144832 0 255 0
0.709647 0.11147 -0.144397 8 246 0
0.713095 0.107391 -0.143478 16 238 0
0.716941 0.103524 -0.141846 24 230 0
0.717937 0.0979921 -0.140393 32 222 0
0.716027 0.0928648 -0.138448 41 213 0
0.713517 0.0879194 -0.13647 49 205 0
0.709968 0.0840919 -0.135249 57 197 0
0.704176 0.0843082 -0.134494 65 189 0
0.698667 0.0864493 -0.134511 74 180 0
0.694589 0.0902368 -0.1353 82 172 0
0.693026 0.0956873 -0.136471 90 164 0
0.694201 0.101079 -0.137869 98 156 0
0.697865 0.105402 -0.139367 106 148 0
0.702649 0.108415 -0.140234 115 139 0
0.708446 0.108524 -0.140878 123 131 0
0.714133 0.107019 -0.141184 131 123 0
0.718909 0.103751 -0.141073 139 115 0
0.722937 0.0994475 -0.140693 148 106 0
0.725745 0.094473 -0.139799 156 98 0
0.726678 0.0887598 -0.138677 164 90 0
0.724711 0.0835463 -0.137319 172 82 0
0.722285 0.0787153 -0.135684 180 74 0
0.717015 0.0769605 -0.134212 189 65 0
0.711316 0.0770367 -0.133105 197 57 0
0.706207 0.0798209 -0.1328 205 49 0
0.703729 0.0850677 -0.13329 213 41 0
0.702297 0.0899671 -0.134439 222 32 0
0.703781 0.095181 -0.136391 230 24 0
0.707568 0.0993411 -0.13778 238 16 0
0.713035 0.0995749 -0.139822 246 8 0
0.718102 0.100122 -0.141483 255 0 0
