ply
format ascii 1.0
comment Generated by robot_control PLYWriter
element vertex 38
property float x
property float y
property float z
property uchar red
property uchar green
property uchar blue
end_header
0.590493 0.0667191 -0.163761 0 255 0
0.595199 0.0633907 -0.163166 6 248 0
0.598803 0.0599257 -0.161807 13 241 0
0.597525 0.05464 -0.160449 20 234 0
0.594854 0.0497782 -0.159552 27 227 0
0.589441 0.0481189 -0.159353 34 220 0
0.58385 0.0491228 -0.159944 41 213 0
0.579442 0.0530553 -0.160944 48 206 0
0.577956 0.0582281 -0.162118 55 199 0
0.578017 0.06409 -0.163396 62 192 0
0.581744 0.0682932 -0.164315 68 186 0
0.586485 0.071926 -0.164725 75 179 0
0.592152 0.0729708 -0.164883 82 172 0
0.598117 0.0724186 -0.164608 89 165 0
0.602959 0.069299 -0.164028 96 158 0
0.60402 0.0636547 -0.163183 103 151 0
0.602396 0.0581205 -0.162307 110 144 0
0.597794 0.0545501 -0.162023 117 137 0
0.591996 0.0546642 -0.16228 124 130 0
0.586894 0.0577354 -0.163023 130 124 0
0.584933 0.0631216 -0.164106 137 117 0
0.584969 0.0689718 -0.16542 144 110 0
0.58797 0.0738265 -0.166324 151 103 0
0.59219 0.0778826 -0.16697 158 96 0
0.597677 0.0789446 -0.167252 165 89 0
0.602773 0.0793053 -0.167185 172 82 0
0.607697 0.0759505 -0.166584 179 75 0
0.611025 0.0715555 -0.165317 186 68 0
0.609976 0.0660424 -0.163962 192 62 0
0.606198 0.0615681 -0.163329 199 55 0
0.60024 0.0611779 -0.163092 206 48 0
0.595065 0.0634989 -0.16371 213 41 0
0.591774 0.0677492 -0.164968 220 34 0
0.590137 0.0726559 -0.166788 227 27 0
0.592772 0.0770755 -0.168701 234 20 0
0.594898 0.0813826 -0.171033 241 13 0
0.598948 0.0837213 -0.172441 248 6 0
0.604244 0.0852401 -0.173031 255 0 0
