ply
format ascii 1.0
comment Generated by robot_control PLYWriter
element vertex 29
property float x
property float y
property float z
property uchar red
property uchar green
property uchar blue
end_header
0.668527 0.101393 -0.159466 0 255 0
0.672522 0.0975563 -0.158262 9 245 0
0.676161 0.0940738 -0.156659 18 236 0
0.675935 0.0883694 -0.154848 27 227 0
0.672553 0.0841794 -0.153832 36 218 0
0.66764 0.0811437 -0.153599 45 209 0
0.66174 0.0815169 -0.154053 54 200 0
0.656347 0.0840516 -0.154956 63 191 0
0.65296 0.0886285 -0.156162 72 182 0
0.651519 0.0942046 -0.157849 81 173 0
0.651706 0.0996291 -0.159355 91 163 0
0.654676 0.104633 -0.160774 100 154 0
0.658822 0.10895 -0.161465 109 145 0
0.664616 0.110476 -0.161921 118 136 0
0.67062 0.110948 -0.162002 127 127 0
0.675032 0.107854 -0.161618 136 118 0
0.67925 0.104409 -0.160788 145 109 0
0.678096 0.099333 -0.159496 154 100 0
0.675509 0.0942709 -0.158555 163 91 0
0.670431 0.0922825 -0.158003 173 81 0
0.665351 0.092372 -0.158031 182 72 0
0.659629 0.0934887 -0.15862 191 63 0
0.656734 0.0980722 -0.159697 200 54 0
0.654143 0.102812 -0.161333 209 45 0
0.654384 0.108525 -0.163241 218 36 0
0.656744 0.113499 -0.165151 227 27 0
0.660043 0.117979 -0.167025 236 18 0
0.663157 0.120796 -0.168428 245 9 0
0.668895 0.12075 -0.169302 255 0 0
