ply
format ascii 1.0
comment Generated by robot_control PLYWriter
element vertex 11
property float x
property float y
property float z
property uchar red
property uchar green
property uchar blue
end_header
0.584632 0.0656284 -0.129525 0 255 0
0.584769 0.0608666 -0.12833 25 229 0
0.584889 0.0561425 -0.126989 51 204 0
0.585061 0.0514283 -0.125621 76 178 0
0.58507 0.0467494 -0.124124 102 153 0
0.585079 0.0421195 -0.122482 127 127 0
0.585101 0.0375194 -0.120758 153 101 0
0.585108 0.0329288 -0.119009 178 76 0
0.585119 0.0283296 -0.117282 204 50 0
0.585135 0.023765 -0.115468 229 25 0
0.585151 0.0191883 -0.113686 255 0 0
