ply
format ascii 1.0
comment Generated by robot_control PLYWriter
element vertex 50
property float x
property float y
property float z
property uchar red
property uchar green
property uchar blue
end_header
0.701921 0.0867919 -0.135413 0 255 0
0.706957 0.0864067 -0.133695 5 249 0
0.710901 0.0837633 -0.131823 10 244 0
0.714621 0.0793865 -0.130369 15 239 0
0.717147 0.0746824 -0.128584 20 234 0
0.717107 0.0689461 -0.127105 26 228 0
0.716313 0.0632474 -0.126383 31 223 0
0.712605 0.0586504 -0.12625 36 218 0
0.707621 0.0556573 -0.126616 41 213 0
0.701805 0.055284 -0.127304 46 208 0
0.696661 0.0575917 -0.128287 52 202 0
0.692121 0.0612048 -0.129419 57 197 0
0.689917 0.0662181 -0.130439 62 192 0
0.691966 0.071724 -0.131031 67 187 0
0.694692 0.076995 -0.131254 72 182 0
0.699801 0.0800192 -0.13106 78 176 0
0.70526 0.0816956 -0.130718 83 171 0
0.711077 0.0807878 -0.130306 88 166 0
0.716203 0.0779459 -0.129786 93 161 0
0.720181 0.0735895 -0.129186 98 156 0
0.722489 0.0682143 -0.128282 104 150 0
0.723959 0.0627015 -0.127505 109 145 0
0.72168 0.057297 -0.126842 114 140 0
0.71879 0.0527979 -0.12657 119 135 0
0.713458 0.0502111 -0.126556 124 130 0
0.707797 0.0486 -0.12671 130 124 0
0.702061 0.0499063 -0.126826 135 119 0
0.697821 0.0539486 -0.127037 140 114 0
0.696669 0.0595334 -0.127331 145 109 0
0.696932 0.0654358 -0.127797 150 104 0
0.700099 0.0703656 -0.128356 156 98 0
0.704741 0.0733679 -0.128777 161 93 0
0.71041 0.0749262 -0.129195 166 88 0
0.715862 0.0739649 -0.129541 171 83 0
0.720791 0.0707116 -0.129919 176 78 0
0.725305 0.0670019 -0.130045 182 72 0
0.72824 0.0618605 -0.12989 187 67 0
0.72815 0.0564756 -0.129424 192 62 0
0.72782 0.0507794 -0.128701 197 57 0
0.724379 0.0460287 -0.127827 202 52 0
0.719209 0.0434926 -0.12684 208 46 0
0.713998 0.0428618 -0.125891 213 41 0
0.708344 0.0433075 -0.124982 218 36 0
0.704114 0.04737 -0.124288 223 31 0
0.702659 0.0527627 -0.124604 228 26 0
0.702595 0.0583414 -0.125479 234 20 0
0.705174 0.063448 -0.126148 239 15 0
0.708615 0.0672032 -0.126478 244 10 0
0.71449 0.0674054 -0.126669 249 5 0
0.718593 0.0689337 -0.127008 255 0 0
