ply
format ascii 1.0
comment Generated by robot_control PLYWriter
element vertex 200
property float x
property float y
property float z
property uchar red
property uchar green
property uchar blue
end_header
0.660569 0.0770017 -0.155928 0 255 0
0.660569 0.0770017 -0.155928 1 253 0
0.660569 0.0770017 -0.155928 2 252 0
0.660569 0.0770017 -0.155928 3 251 0
0.660569 0.0770017 -0.155928 5 249 0
0.660569 0.0770017 -0.155928 6 248 0
0.660569 0.0770017 -0.155928 7 247 0
0.660569 0.0770017 -0.155928 8 246 0
0.660569 0.0770017 -0.155928 10 244 0
0.660569 0.0770017 -0.155928 11 243 0
0.660569 0.0770017 -0.155928 12 242 0
0.660569 0.0770017 -0.155928 14 240 0
0.660569 0.0770017 -0.155928 15 239 0
0.660569 0.0770017 -0.155928 16 238 0
0.660569 0.0770017 -0.155928 17 237 0
0.660569 0.0770017 -0.155928 19 235 0
0.660569 0.0770017 -0.155928 20 234 0
0.660569 0.0770017 -0.155928 21 233 0
0.660569 0.0770017 -0.155928 23 231 0
0.660569 0.0770017 -0.155928 24 230 0
0.660569 0.0770017 -0.155928 25 229 0
0.660569 0.0770017 -0.155928 26 228 0
0.660569 0.0770017 -0.155928 28 226 0
0.660569 0.0770017 -0.155928 29 225 0
0.660569 0.0770017 -0.155928 30 224 0
0.660569 0.0770017 -0.155928 32 222 0
0.660569 0.0770017 -0.155928 33 221 0
0.660569 0.0770017 -0.155928 34 220 0
0.660569 0.0770017 -0.155928 35 219 0
0.660569 0.0770017 -0.155928 37 217 0
0.660569 0.0770017 -0.155928 38 216 0
0.660569 0.0770017 -0.155928 39 215 0
0.660569 0.0770017 -0.155928 41 213 0
0.660569 0.0770017 -0.155928 42 212 0
0.660569 0.0770017 -0.155928 43 211 0
0.660569 0.0770017 -0.155928 44 210 0
0.660569 0.0770017 -0.155928 46 208 0
0.660569 0.0770017 -0.155928 47 207 0
0.660569 0.0770017 -0.155928 48 206 0
0.660569 0.0770017 -0.155928 49 205 0
0.660569 0.0770017 -0.155928 51 203 0
0.660569 0.0770017 -0.155928 52 202 0
0.660569 0.0770017 -0.155928 53 201 0
0.660569 0.0770017 -0.155928 55 199 0
0.660569 0.0770017 -0.155928 56 198 0
0.660569 0.0770017 -0.155928 57 197 0
0.660569 0.0770017 -0.155928 58 196 0
0.660569 0.0770017 -0.155928 60 194 0
0.660569 0.0770017 -0.155928 61 193 0
0.660569 0.0770017 -0.155928 62 192 0
0.660569 0.0770017 -0.155928 64 190 0
0.660569 0.0770017 -0.155928 65 189 0
0.660569 0.0770017 -0.155928 66 188 0
0.660569 0.0770017 -0.155928 67 187 0
0.660569 0.0770017 -0.155928 69 185 0
0.660569 0.0770017 -0.155928 70 184 0
0.660569 0.0770017 -0.155928 71 183 0
0.660569 0.0770017 -0.155928 73 181 0
0.660569 0.0770017 -0.155928 74 180 0
0.660569 0.0770017 -0.155928 75 179 0
0.660569 0.0770017 -0.155928 76 178 0
0.660569 0.0770017 -0.155928 78 176 0
0.660569 0.0770017 -0.155928 79 175 0
0.660569 0.0770017 -0.155928 80 174 0
0.660569 0.0770017 -0.155928 82 172 0
0.660569 0.0770017 -0.155928 83 171 0
0.660569 0.0770017 -0.155928 84 170 0
0.660569 0.0770017 -0.155928 85 169 0
0.660569 0.0770017 -0.155928 87 167 0
0.660569 0.0770017 -0.155928 88 166 0
0.660569 0.0770017 -0.155928 89 165 0
0.660569 0.0770017 -0.155928 90 164 0
0.660569 0.0770017 -0.155928 92 162 0
0.660569 0.0770017 -0.155928 93 161 0
0.660569 0.0770017 -0.155928 94 160 0
0.660569 0.0770017 -0.155928 96 158 0
0.660569 0.0770017 -0.155928 97 157 0
0.660569 0.0770017 -0.155928 98 156 0
0.660569 0.0770017 -0.155928 99 155 0
0.660569 0.0770017 -0.155928 101 153 0
0.660569 0.0770017 -0.155928 102 152 0
0.660569 0.0770017 -0.155928 103 151 0
0.660569 0.0770017 -0.155928 105 149 0
0.660569 0.0770017 -0.155928 106 148 0
0.660569 0.0770017 -0.155928 107 147 0
0.660569 0.0770017 -0.155928 108 146 0
0.660569 0.0770017 -0.155928 110 144 0
0.660569 0.0770017 -0.155928 111 143 0
0.660569 0.0770017 -0.155928 112 142 0
0.660569 0.0770017 -0.155928 114 140 0
0.660569 0.0770017 -0.155928 115 139 0
0.660569 0.0770017 -0.155928 116 138 0
0.660569 0.0770017 -0.155928 117 137 0
0.660569 0.0770017 -0.155928 119 135 0
0.660569 0.0770017 -0.155928 120 134 0
0.660569 0.0770017 -0.155928 121 133 0
0.660569 0.0770017 -0.155928 123 131 0
0.660569 0.0770017 -0.155928 124 130 0
0.660569 0.0770017 -0.155928 125 129 0
0.660569 0.0770017 -0.155928 126 128 0
0.660569 0.0770017 -0.155928 128 126 0
0.660569 0.0770017 -0.155928 129 125 0
0.660569 0.0770017 -0.155928 130 124 0
0.660569 0.0770017 -0.155928 131 123 0
0.660569 0.0770017 -0.155928 133 121 0
0.660569 0.0770017 -0.155928 134 120 0
0.660569 0.0770017 -0.155928 135 119 0
0.660569 0.0770017 -0.155928 137 117 0
0.660569 0.0770017 -0.155928 138 116 0
0.660569 0.0770017 -0.155928 139 115 0
0.660569 0.0770017 -0.155928 140 114 0
0.660569 0.0770017 -0.155928 142 112 0
0.660569 0.0770017 -0.155928 143 111 0
0.660569 0.0770017 -0.155928 144 110 0
0.660569 0.0770017 -0.155928 146 108 0
0.660569 0.0770017 -0.155928 147 107 0
0.660569 0.0770017 -0.155928 148 106 0
0.660569 0.0770017 -0.155928 149 105 0
0.660569 0.0770017 -0.155928 151 103 0
0.660569 0.0770017 -0.155928 152 102 0
0.660569 0.0770017 -0.155928 153 101 0
0.660569 0.0770017 -0.155928 155 99 0
0.660569 0.0770017 -0.155928 156 98 0
0.660569 0.0770017 -0.155928 157 97 0
0.660569 0.0770017 -0.155928 158 96 0
0.660569 0.0770017 -0.155928 160 94 0
0.660569 0.0770017 -0.155928 161 93 0
0.660569 0.0770017 -0.155928 162 92 0
0.660569 0.0770017 -0.155928 164 90 0
0.660569 0.0770017 -0.155928 165 89 0
0.660569 0.0770017 -0.155928 166 88 0
0.660569 0.0770017 -0.155928 167 87 0
0.660569 0.0770017 -0.155928 169 85 0
0.660569 0.0770017 -0.155928 170 84 0
0.660569 0.0770017 -0.155928 171 83 0
0.660569 0.0770017 -0.155928 172 82 0
0.660569 0.0770017 -0.155928 174 80 0
0.660569 0.0770017 -0.155928 175 79 0
0.660569 0.0770017 -0.155928 176 78 0
0.660569 0.0770017 -0.155928 178 76 0
0.660569 0.0770017 -0.155928 179 75 0
0.660569 0.0770017 -0.155928 180 74 0
0.660569 0.0770017 -0.155928 181 73 0
0.660569 0.0770017 -0.155928 183 71 0
0.660569 0.0770017 -0.155928 184 70 0
0.660569 0.0770017 -0.155928 185 69 0
0.660569 0.0770017 -0.155928 187 67 0
0.660569 0.0770017 -0.155928 188 66 0
0.660569 0.0770017 -0.155928 189 65 0
0.660569 0.0770017 -0.155928 190 64 0
0.660569 0.0770017 -0.155928 192 62 0
0.660569 0.0770017 -0.155928 193 61 0
0.660569 0.0770017 -0.155928 194 60 0
0.660569 0.0770017 -0.155928 196 58 0
0.660569 0.0770017 -0.155928 197 57 0
0.660569 0.0770017 -0.155928 198 56 0
0.660569 0.0770017 -0.155928 199 55 0
0.660569 0.0770017 -0.155928 201 53 0
0.660569 0.0770017 -0.155928 202 52 0
0.660569 0.0770017 -0.155928 203 51 0
0.660569 0.0770017 -0.155928 205 49 0
0.660569 0.0770017 -0.155928 206 48 0
0.660569 0.0770017 -0.155928 207 47 0
0.660569 0.0770017 -0.155928 208 46 0
0.660569 0.0770017 -0.155928 210 44 0
0.660569 0.0770017 -0.155928 211 43 0
0.660569 0.0770017 -0.155928 212 42 0
0.660569 0.0770017 -0.155928 213 41 0
0.660569 0.0770017 -0.155928 215 39 0
0.660569 0.0770017 -0.155928 216 38 0
0.660569 0.0770017 -0.155928 217 37 0
0.660569 0.0770017 -0.155928 219 35 0
0.660569 0.0770017 -0.155928 220 34 0
0.660569 0.0770017 -0.155928 221 33 0
0.660569 0.0770017 -0.155928 222 32 0
0.660569 0.0770017 -0.155928 224 30 0
0.660569 0.0770017 -0.155928 225 29 0
0.660569 0.0770017 -0.155928 226 28 0
0.660569 0.0770017 -0.155928 228 26 0
0.660569 0.0770017 -0.155928 229 25 0
0.660569 0.0770017 -0.155928 230 24 0
0.660569 0.0770017 -0.155928 231 23 0
0.660569 0.0770017 -0.155928 233 21 0
0.660569 0.0770017 -0.155928 234 20 0
0.660569 0.0770017 -0.155928 235 19 0
0.660569 0.0770017 -0.155928 237 17 0
0.660569 0.0770017 -0.155928 238 16 0
0.660569 0.0770017 -0.155928 239 15 0
0.660569 0.0770017 -0.155928 240 14 0
0.660569 0.0770017 -0.155928 242 12 0
0.660569 0.0770017 -0.155928 243 11 0
0.660569 0.0770017 -0.155928 244 10 0
0.660569 0.0770017 -0.155928 246 8 0
0.660569 0.0770017 -0.155928 247 7 0
0.660569 0.0770017 -0.155928 248 6 0
0.660569 0.0770017 -0.155928 249 5 0
0.660569 0.0770017 -0.155928 251 3 0
0.660569 0.0770017 -0.155928 252 2 0
0.660569 0.0770017 -0.155928 253 1 0
0.660569 0.0770017 -0.155928 255 0 0
