ply
format ascii 1.0
comment Generated by robot_control PLYWriter
element vertex 200
property float x
property float y
property float z
property uchar red
property uchar green
property uchar blue
end_header
0.748534 -0.134223 -0.119723 0 255 0
0.748534 -0.134223 -0.119723 1 253 0
0.748534 -0.134223 -0.119723 2 252 0
0.748534 -0.134223 -0.119723 3 251 0
0.748534 -0.134223 -0.119723 5 249 0
0.748534 -0.134223 -0.119723 6 248 0
0.748534 -0.134223 -0.119723 7 247 0
0.748534 -0.134223 -0.119723 8 246 0
0.748534 -0.134223 -0.119723 10 244 0
0.748534 -0.134223 -0.119723 11 243 0
0.748534 -0.134223 -0.119723 12 242 0
0.748534 -0.134223 -0.119723 14 240 0
0.748534 -0.134223 -0.119723 15 239 0
0.748534 -0.134223 -0.119723 16 238 0
0.748534 -0.134223 -0.119723 17 237 0
0.748534 -0.134223 -0.119723 19 235 0
0.748534 -0.134223 -0.119723 20 234 0
0.748534 -0.134223 -0.119723 21 233 0
0.748534 -0.134223 -0.119723 23 231 0
0.748534 -0.134223 -0.119723 24 230 0
0.748534 -0.134223 -0.119723 25 229 0
0.748534 -0.134223 -0.119723 26 228 0
0.748534 -0.134223 -0.119723 28 226 0
0.748534 -0.134223 -0.119723 29 225 0
0.748534 -0.134223 -0.119723 30 224 0
0.748534 -0.134223 -0.119723 32 222 0
0.748534 -0.134223 -0.119723 33 221 0
0.748534 -0.134223 -0.119723 34 220 0
0.748534 -0.134223 -0.119723 35 219 0
0.748534 -0.134223 -0.119723 37 217 0
0.748534 -0.134223 -0.119723 38 216 0
0.748534 -0.134223 -0.119723 39 215 0
0.748534 -0.134223 -0.119723 41 213 0
0.748534 -0.134223 -0.119723 42 212 0
0.748534 -0.134223 -0.119723 43 211 0
0.748534 -0.134223 -0.119723 44 210 0
0.748534 -0.134223 -0.119723 46 208 0
0.748534 -0.134223 -0.119723 47 207 0
0.748534 -0.134223 -0.119723 48 206 0
0.748534 -0.134223 -0.119723 49 205 0
0.748534 -0.134223 -0.119723 51 203 0
0.748534 -0.134223 -0.119723 52 202 0
0.748534 -0.134223 -0.119723 53 201 0
0.748534 -0.134223 -0.119723 55 199 0
0.748534 -0.134223 -0.119723 56 198 0
0.748534 -0.134223 -0.119723 57 197 0
0.748534 -0.134223 -0.119723 58 196 0
0.748534 -0.134223 -0.119723 60 194 0
0.748534 -0.134223 -0.119723 61 193 0
0.748534 -0.134223 -0.119723 62 192 0
0.748534 -0.134223 -0.119723 64 190 0
0.748534 -0.134223 -0.119723 65 189 0
0.748534 -0.134223 -0.119723 66 188 0
0.748534 -0.134223 -0.119723 67 187 0
0.748534 -0.134223 -0.119723 69 185 0
0.748534 -0.134223 -0.119723 70 184 0
0.748534 -0.134223 -0.119723 71 183 0
0.748534 -0.134223 -0.119723 73 181 0
0.748534 -0.134223 -0.119723 74 180 0
0.748534 -0.134223 -0.119723 75 179 0
0.748534 -0.134223 -0.119723 76 178 0
0.748534 -0.134223 -0.119723 78 176 0
0.748534 -0.134223 -0.119723 79 175 0
0.748534 -0.134223 -0.119723 80 174 0
0.748534 -0.134223 -0.119723 82 172 0
0.748534 -0.134223 -0.119723 83 171 0
0.748534 -0.134223 -0.119723 84 170 0
0.748534 -0.134223 -0.119723 85 169 0
0.748534 -0.134223 -0.119723 87 167 0
0.748534 -0.134223 -0.119723 88 166 0
0.748534 -0.134223 -0.119723 89 165 0
0.748534 -0.134223 -0.119723 90 164 0
0.748534 -0.134223 -0.119723 92 162 0
0.748534 -0.134223 -0.119723 93 161 0
0.748534 -0.134223 -0.119723 94 160 0
0.748534 -0.134223 -0.119723 96 158 0
0.748534 -0.134223 -0.119723 97 157 0
0.748534 -0.134223 -0.119723 98 156 0
0.748534 -0.134223 -0.119723 99 155 0
0.748534 -0.134223 -0.119723 101 153 0
0.748534 -0.134223 -0.119723 102 152 0
0.748534 -0.134223 -0.119723 103 151 0
0.748534 -0.134223 -0.119723 105 149 0
0.748534 -0.134223 -0.119723 106 148 0
0.748534 -0.134223 -0.119723 107 147 0
0.748534 -0.134223 -0.119723 108 146 0
0.748534 -0.134223 -0.119723 110 144 0
0.748534 -0.134223 -0.119723 111 143 0
0.748534 -0.134223 -0.119723 112 142 0
0.748534 -0.134223 -0.119723 114 140 0
0.748534 -0.134223 -0.119723 115 139 0
0.748534 -0.134223 -0.119723 116 138 0
0.748534 -0.134223 -0.119723 117 137 0
0.748534 -0.134223 -0.119723 119 135 0
0.748534 -0.134223 -0.119723 120 134 0
0.748534 -0.134223 -0.119723 121 133 0
0.748534 -0.134223 -0.119723 123 131 0
0.748534 -0.134223 -0.119723 124 130 0
0.748534 -0.134223 -0.119723 125 129 0
0.748534 -0.134223 -0.119723 126 128 0
0.748534 -0.134223 -0.119723 128 126 0
0.748534 -0.134223 -0.119723 129 125 0
0.748534 -0.134223 -0.119723 130 124 0
0.748534 -0.134223 -0.119723 131 123 0
0.748534 -0.134223 -0.119723 133 121 0
0.748534 -0.134223 -0.119723 134 120 0
0.748534 -0.134223 -0.119723 135 119 0
0.748534 -0.134223 -0.119723 137 117 0
0.748534 -0.134223 -0.119723 138 116 0
0.748534 -0.134223 -0.119723 139 115 0
0.748534 -0.134223 -0.119723 140 114 0
0.748534 -0.134223 -0.119723 142 112 0
0.748534 -0.134223 -0.119723 143 111 0
0.748534 -0.134223 -0.119723 144 110 0
0.748534 -0.134223 -0.119723 146 108 0
0.748534 -0.134223 -0.119723 147 107 0
0.748534 -0.134223 -0.119723 148 106 0
0.748534 -0.134223 -0.119723 149 105 0
0.748534 -0.134223 -0.119723 151 103 0
0.748534 -0.134223 -0.119723 152 102 0
0.748534 -0.134223 -0.119723 153 101 0
0.748534 -0.134223 -0.119723 155 99 0
0.748534 -0.134223 -0.119723 156 98 0
0.748534 -0.134223 -0.119723 157 97 0
0.748534 -0.134223 -0.119723 158 96 0
0.748534 -0.134223 -0.119723 160 94 0
0.748534 -0.134223 -0.119723 161 93 0
0.748534 -0.134223 -0.119723 162 92 0
0.748534 -0.134223 -0.119723 164 90 0
0.748534 -0.134223 -0.119723 165 89 0
0.748534 -0.134223 -0.119723 166 88 0
0.748534 -0.134223 -0.119723 167 87 0
0.748534 -0.134223 -0.119723 169 85 0
0.748534 -0.134223 -0.119723 170 84 0
0.748534 -0.134223 -0.119723 171 83 0
0.748534 -0.134223 -0.119723 172 82 0
0.748534 -0.134223 -0.119723 174 80 0
0.748534 -0.134223 -0.119723 175 79 0
0.748534 -0.134223 -0.119723 176 78 0
0.748534 -0.134223 -0.119723 178 76 0
0.748534 -0.134223 -0.119723 179 75 0
0.748534 -0.134223 -0.119723 180 74 0
0.748534 -0.134223 -0.119723 181 73 0
0.748534 -0.134223 -0.119723 183 71 0
0.748534 -0.134223 -0.119723 184 70 0
0.748534 -0.134223 -0.119723 185 69 0
0.748534 -0.134223 -0.119723 187 67 0
0.748534 -0.134223 -0.119723 188 66 0
0.748534 -0.134223 -0.119723 189 65 0
0.748534 -0.134223 -0.119723 190 64 0
0.748534 -0.134223 -0.119723 192 62 0
0.748534 -0.134223 -0.119723 193 61 0
0.748534 -0.134223 -0.119723 194 60 0
0.748534 -0.134223 -0.119723 196 58 0
0.748534 -0.134223 -0.119723 197 57 0
0.748534 -0.134223 -0.119723 198 56 0
0.748534 -0.134223 -0.119723 199 55 0
0.748534 -0.134223 -0.119723 201 53 0
0.748534 -0.134223 -0.119723 202 52 0
0.748534 -0.134223 -0.119723 203 51 0
0.748534 -0.134223 -0.119723 205 49 0
0.748534 -0.134223 -0.119723 206 48 0
0.748534 -0.134223 -0.119723 207 47 0
0.748534 -0.134223 -0.119723 208 46 0
0.748534 -0.134223 -0.119723 210 44 0
0.748534 -0.134223 -0.119723 211 43 0
0.748534 -0.134223 -0.119723 212 42 0
0.748534 -0.134223 -0.119723 213 41 0
0.748534 -0.134223 -0.119723 215 39 0
0.748534 -0.134223 -0.119723 216 38 0
0.748534 -0.134223 -0.119723 217 37 0
0.748534 -0.134223 -0.119723 219 35 0
0.748534 -0.134223 -0.119723 220 34 0
0.748534 -0.134223 -0.119723 221 33 0
0.748534 -0.134223 -0.119723 222 32 0
0.748534 -0.134223 -0.119723 224 30 0
0.748534 -0.134223 -0.119723 225 29 0
0.748534 -0.134223 -0.119723 226 28 0
0.748534 -0.134223 -0.119723 228 26 0
0.748534 -0.134223 -0.119723 229 25 0
0.748534 -0.134223 -0.119723 230 24 0
0.748534 -0.134223 -0.119723 231 23 0
0.748534 -0.134223 -0.119723 233 21 0
0.748534 -0.134223 -0.119723 234 20 0
0.748534 -0.134223 -0.119723 235 19 0
0.748534 -0.134223 -0.119723 237 17 0
0.748534 -0.134223 -0.119723 238 16 0
0.748534 -0.134223 -0.119723 239 15 0
0.748534 -0.134223 -0.119723 240 14 0
0.748534 -0.134223 -0.119723 242 12 0
0.748534 -0.134223 -0.119723 243 11 0
0.748534 -0.134223 -0.119723 244 10 0
0.748534 -0.134223 -0.119723 246 8 0
0.748534 -0.134223 -0.119723 247 7 0
0.748534 -0.134223 -0.119723 248 6 0
0.748534 -0.134223 -0.119723 249 5 0
0.748534 -0.134223 -0.119723 251 3 0
0.748534 -0.134223 -0.119723 252 2 0
0.748534 -0.134223 -0.119723 253 1 0
0.748534 -0.134223 -0.119723 255 0 0
