ply
format ascii 1.0
comment Generated by robot_control PLYWriter
element vertex 66
property float x
property float y
property float z
property uchar red
property uchar green
property uchar blue
end_header
0.566351 -0.220659 -0.0938542 0 255 0
0.569741 -0.223605 -0.0944557 3 251 0
0.572614 -0.228369 -0.0953451 7 247 0
0.573874 -0.233092 -0.0969075 11 243 0
0.572262 -0.238539 -0.0980977 15 239 0
0.568304 -0.24283 -0.0991856 19 235 0
0.564134 -0.246803 -0.100226 23 231 0
0.558209 -0.247041 -0.100723 27 227 0
0.552257 -0.246956 -0.100731 31 223 0
0.546833 -0.245091 -0.100246 35 219 0
0.543545 -0.240206 -0.0993602 39 215 0
0.540813 -0.23506 -0.0982283 43 211 0
0.538664 -0.229893 -0.0971411 47 207 0
0.54017 -0.224402 -0.0961795 51 204 0
0.543524 -0.21968 -0.0950241 54 200 0
0.548431 -0.216941 -0.09425 58 196 0
0.553473 -0.215213 -0.093941 62 192 0
0.558824 -0.217811 -0.0941551 66 188 0
0.56349 -0.221092 -0.0949726 70 184 0
0.564772 -0.226765 -0.0957973 74 180 0
0.564674 -0.232572 -0.0970242 78 176 0
0.560568 -0.236791 -0.0978009 82 172 0
0.556375 -0.240641 -0.0985134 86 168 0
0.550709 -0.242077 -0.0988994 90 164 0
0.544761 -0.242155 -0.0990424 94 160 0
0.539508 -0.240251 -0.0989201 98 156 0
0.535687 -0.235816 -0.098537 102 153 0
0.532973 -0.230606 -0.0976977 105 149 0
0.531332 -0.224922 -0.0970132 109 145 0
0.531458 -0.219236 -0.095933 113 141 0
0.534554 -0.214326 -0.0950592 117 137 0
0.539344 -0.211055 -0.0943173 121 133 0
0.54517 -0.210508 -0.0939393 125 129 0
0.550818 -0.212091 -0.0938709 129 125 0
0.555296 -0.21582 -0.0941727 133 121 0
0.55694 -0.221297 -0.0949437 137 117 0
0.556861 -0.227191 -0.0957827 141 113 0
0.553625 -0.23176 -0.0966214 145 109 0
0.548868 -0.235073 -0.0977153 149 105 0
0.543463 -0.237495 -0.0983117 153 101 0
0.537856 -0.237526 -0.0987298 156 98 0
0.53234 -0.235348 -0.0988638 160 94 0
0.527528 -0.231935 -0.0987149 164 90 0
0.523924 -0.227242 -0.0983592 168 86 0
0.522776 -0.221706 -0.0975462 172 82 0
0.52285 -0.216043 -0.0966351 176 78 0
0.526248 -0.211506 -0.0954804 180 74 0
0.529731 -0.206832 -0.0945761 184 70 0
0.535245 -0.206435 -0.0936665 188 66 0
0.541089 -0.206907 -0.0931394 192 62 0
0.545701 -0.210519 -0.0931857 196 58 0
0.547474 -0.215875 -0.0937401 200 54 0
0.54772 -0.220981 -0.0945163 204 50 0
0.546692 -0.226552 -0.0956332 207 47 0
0.54177 -0.22938 -0.096974 211 43 0
0.536626 -0.231967 -0.0980559 215 39 0
0.531024 -0.23328 -0.0991025 219 35 0
0.525559 -0.232386 -0.0997962 223 31 0
0.520233 -0.229743 -0.100109 227 27 0
0.517347 -0.22465 -0.0998097 231 23 0
0.514222 -0.21972 -0.09887 235 19 0
0.514069 -0.213993 -0.0974724 239 15 0
0.514886 -0.20868 -0.0963569 243 11 0
0.517628 -0.205371 -0.0949125 247 7 0
0.522393 -0.202947 -0.0939188 251 3 0
0.527018 -0.201459 -0.0932888 255 0 0
