ply
format ascii 1.0
comment Generated by robot_control PLYWriter
element vertex 8
property float x
property float y
property float z
property uchar red
property uchar green
property uchar blue
end_header
0.571009 -0.247082 -0.0391443 0 255 0
0.571177 -0.242484 -0.0401758 36 218 0
0.571455 -0.237833 -0.0409264 72 182 0
0.571694 -0.233159 -0.0415473 109 145 0
0.571935 -0.22846 -0.0418141 145 109 0
0.572185 -0.223767 -0.0415401 182 72 0
0.572418 -0.219119 -0.0407454 218 36 0
0.572436 -0.214546 -0.039618 255 0 0
