ply
format ascii 1.0
comment Generated by robot_control PLYWriter
element vertex 40
property float x
property float y
property float z
property uchar red
property uchar green
property uchar blue
end_header
0.646409 0.160552 -0.161322 0 255 0
0.650614 0.159008 -0.158741 6 248 0
0.653923 0.156385 -0.156391 13 241 0
0.655199 0.151779 -0.153947 19 235 0
0.653874 0.146367 -0.152838 26 228 0
0.64904 0.143042 -0.152968 32 222 0
0.64411 0.142315 -0.154446 39 215 0
0.639396 0.143448 -0.155862 45 209 0
0.636781 0.147817 -0.158283 52 202 0
0.635863 0.152679 -0.16041 58 196 0
0.637156 0.158007 -0.162074 65 189 0
0.641143 0.162284 -0.162662 71 183 0
0.645358 0.165962 -0.162798 78 176 0
0.651142 0.166266 -0.162388 85 169 0
0.656921 0.166258 -0.16114 91 163 0
0.661274 0.163115 -0.159517 98 156 0
0.662381 0.157948 -0.157391 104 150 0
0.660865 0.152757 -0.156212 111 143 0
0.656876 0.148685 -0.155808 117 137 0
0.651203 0.148497 -0.156126 124 130 0
0.646061 0.15004 -0.157409 130 124 0
0.643274 0.155014 -0.159019 137 117 0
0.643205 0.159964 -0.161044 143 111 0
0.646055 0.164923 -0.162362 150 104 0
0.649931 0.16904 -0.163468 156 98 0
0.655074 0.171923 -0.163776 163 91 0
0.660567 0.1718 -0.163445 170 84 0
0.665795 0.170256 -0.162306 176 78 0
0.670461 0.166985 -0.16092 183 71 0
0.670975 0.161762 -0.158571 189 65 0
0.668116 0.156796 -0.157235 196 58 0
0.663137 0.154498 -0.156137 202 52 0
0.657639 0.154132 -0.156359 209 45 0
0.653394 0.156565 -0.157786 215 39 0
0.651452 0.160421 -0.160092 222 32 0
0.650937 0.165547 -0.162609 228 26 0
0.652933 0.17029 -0.164698 235 19 0
0.655482 0.174114 -0.166233 241 13 0
0.660257 0.176087 -0.167075 248 6 0
0.665181 0.177968 -0.167055 255 0 0
