ply
format ascii 1.0
comment Generated by robot_control PLYWriter
element vertex 35
property float x
property float y
property float z
property uchar red
property uchar green
property uchar blue
end_header
0.654272 0.0786832 -0.0792998 0 255 0
0.659619 0.0785406 -0.0798808 7 247 0
0.664664 0.0762681 -0.08104 15 240 0
0.668267 0.0721605 -0.0832405 22 232 0
0.67125 0.0678572 -0.0859229 30 225 0
0.672012 0.0624398 -0.0881627 37 217 0
0.670915 0.0571683 -0.090624 45 210 0
0.669063 0.0519139 -0.0924488 52 202 0
0.664235 0.0490487 -0.0932902 60 195 0
0.659511 0.0466252 -0.0927937 67 187 0
0.653928 0.0480778 -0.0914566 75 179 0
0.649829 0.0512466 -0.089271 82 172 0
0.647393 0.0562907 -0.0872427 90 165 0
0.647288 0.0617298 -0.0851668 97 157 0
0.649955 0.0667727 -0.0837798 105 149 0
0.654553 0.0702586 -0.0827337 112 142 0
0.659777 0.0730385 -0.0826749 120 135 0
0.665545 0.0736596 -0.0836991 127 127 0
0.671127 0.0721687 -0.0849304 135 119 0
0.675481 0.0687553 -0.0865101 142 112 0
0.679016 0.0642624 -0.0882057 150 104 0
0.681769 0.0592801 -0.0898893 157 97 0
0.682839 0.0537979 -0.0918129 165 89 0
0.681488 0.0482785 -0.0935325 172 82 0
0.677598 0.0441632 -0.0953104 180 74 0
0.673366 0.0402522 -0.0968265 187 67 0
0.667851 0.0401169 -0.0972095 195 59 0
0.662424 0.0419903 -0.0963204 202 52 0
0.659211 0.0458276 -0.0944248 210 44 0
0.657129 0.0509458 -0.0923065 217 37 0
0.657955 0.0562844 -0.0899672 225 29 0
0.661199 0.0607021 -0.087876 232 22 0
0.664666 0.0642926 -0.0850896 240 14 0
0.669642 0.0654782 -0.0838294 247 7 0
0.675097 0.0665549 -0.0842763 255 0 0
