ply
format ascii 1.0
comment Generated by robot_control PLYWriter
element vertex 65
property float x
property float y
property float z
property uchar red
property uchar green
property uchar blue
end_header
0.740338 0.0255029 -0.112965 0 255 0
0.744961 0.0233696 -0.112574 3 251 0
0.748245 0.0187035 -0.112265 7 247 0
0.749904 0.0144345 -0.111865 11 243 0
0.748629 0.0102908 -0.111495 15 239 0
0.746997 0.00536304 -0.111145 19 235 0
0.742569 0.00136633 -0.110906 23 231 0
0.736546 0.00133738 -0.110907 27 227 0
0.730916 0.00266736 -0.111098 31 223 0
0.725933 0.00475225 -0.111457 35 219 0
0.72247 0.0095962 -0.11196 39 215 0
0.720634 0.0152751 -0.112335 43 211 0
0.720727 0.0212585 -0.112875 47 207 0
0.722252 0.0270198 -0.113189 51 203 0
0.72545 0.0317236 -0.113413 55 199 0
0.730847 0.0342343 -0.113497 59 195 0
0.736505 0.0353488 -0.113488 63 191 0
0.74237 0.0345798 -0.113326 67 187 0
0.747557 0.0316224 -0.11312 71 183 0
0.750832 0.0267727 -0.112903 75 179 0
0.750228 0.0209846 -0.112734 79 175 0
0.748541 0.0153233 -0.112605 83 171 0
0.743274 0.0124318 -0.112583 87 167 0
0.73746 0.0116579 -0.112675 91 163 0
0.731598 0.0130069 -0.112822 95 159 0
0.726706 0.0160359 -0.113182 99 155 0
0.724156 0.0214756 -0.113548 103 151 0
0.721973 0.0270754 -0.113925 107 147 0
0.721895 0.0327971 -0.114324 111 143 0
0.724715 0.0379849 -0.114521 115 139 0
0.727828 0.0431095 -0.114576 119 135 0
0.732815 0.044796 -0.114575 123 131 0
0.738123 0.0472117 -0.114529 127 127 0
0.743939 0.0464747 -0.114457 131 123 0
0.74876 0.0429865 -0.114294 135 119 0
0.750697 0.037439 -0.114002 139 115 0
0.750688 0.0314253 -0.113669 143 111 0
0.747631 0.0263471 -0.113305 147 107 0
0.743494 0.0231305 -0.11318 151 103 0
0.737482 0.0229849 -0.113316 155 99 0
0.731617 0.0233886 -0.11367 159 95 0
0.727031 0.027259 -0.114174 163 91 0
0.72361 0.0319183 -0.114619 167 87 0
0.722736 0.0377698 -0.115194 171 83 0
0.722986 0.043757 -0.115799 175 79 0
0.724708 0.0494646 -0.116312 179 75 0
0.728786 0.0538011 -0.116775 183 71 0
0.734301 0.0560203 -0.117058 187 67 0
0.740242 0.056803 -0.117079 191 63 0
0.746095 0.0559288 -0.116661 195 59 0
0.750838 0.0524153 -0.116015 199 55 0
0.752663 0.0467994 -0.115273 203 51 0
0.75262 0.0410468 -0.114699 207 47 0
0.748019 0.0372546 -0.114045 211 43 0
0.743289 0.0335799 -0.113773 215 39 0
0.737363 0.0329379 -0.113993 219 35 0
0.731917 0.0353404 -0.114344 223 31 0
0.727519 0.0387491 -0.115167 227 27 0
0.72434 0.0435357 -0.115861 231 23 0
0.723228 0.0489058 -0.116836 235 19 0
0.722725 0.0547068 -0.117998 239 15 0
0.725265 0.0592909 -0.119078 243 11 0
0.728786 0.0637406 -0.120101 247 7 0
0.733431 0.0668943 -0.120717 251 3 0
0.738931 0.0677652 -0.12118 255 0 0
