ply
format ascii 1.0
comment Generated by robot_control PLYWriter
element vertex 82
property float x
property float y
property float z
property uchar red
property uchar green
property uchar blue
end_header
0.678875 -0.076152 -0.0852566 0 255 0
0.683763 -0.0775346 -0.0853307 3 251 0
0.686845 -0.0809158 -0.0851013 6 248 0
0.69052 -0.0848637 -0.0844847 9 245 0
0.690034 -0.0906276 -0.083441 12 242 0
0.687189 -0.0956228 -0.0824505 15 239 0
0.683082 -0.0994309 -0.0814886 18 236 0
0.677504 -0.100346 -0.0807039 22 232 0
0.671988 -0.0989634 -0.0803143 25 229 0
0.666807 -0.0966662 -0.0804397 28 226 0
0.662714 -0.0923864 -0.081034 31 223 0
0.660731 -0.0870321 -0.0819899 34 220 0
0.660739 -0.0811326 -0.0829033 37 217 0
0.66223 -0.075583 -0.0841183 40 214 0
0.664803 -0.0704182 -0.0851158 44 210 0
0.670063 -0.067694 -0.0859038 47 207 0
0.674764 -0.0643069 -0.0867408 50 204 0
0.680596 -0.0647769 -0.0870073 53 201 0
0.685724 -0.0678148 -0.0867765 56 198 0
0.688743 -0.0728258 -0.0863359 59 195 0
0.690874 -0.0781208 -0.0853441 62 192 0
0.688464 -0.0835174 -0.0845784 66 188 0
0.685328 -0.0882518 -0.0837763 69 185 0
0.679707 -0.0900645 -0.0832472 72 182 0
0.673802 -0.0900086 -0.083076 75 179 0
0.668478 -0.0873491 -0.0831486 78 176 0
0.664769 -0.0828507 -0.0834777 81 173 0
0.66087 -0.0784694 -0.0838876 85 169 0
0.661176 -0.0725261 -0.0843874 88 166 0
0.660567 -0.0666065 -0.0849317 91 163 0
0.663467 -0.0614951 -0.08565 94 160 0
0.668207 -0.0579619 -0.0864373 97 157 0
0.673558 -0.0554267 -0.0870162 100 154 0
0.679296 -0.0541404 -0.0873699 103 151 0
0.684553 -0.0565039 -0.0874314 107 147 0
0.688818 -0.0606609 -0.0872577 110 144 0
0.691174 -0.0660165 -0.0869209 113 141 0
0.689333 -0.0715262 -0.0865344 116 138 0
0.685737 -0.0762381 -0.0863132 119 135 0
0.680535 -0.0789054 -0.0861513 122 132 0
0.674606 -0.079446 -0.0859194 125 129 0
0.668947 -0.0778512 -0.0856452 129 125 0
0.664868 -0.0735206 -0.0855063 132 122 0
0.662785 -0.0679955 -0.0854493 135 119 0
0.660955 -0.0625433 -0.0856238 138 116 0
0.661808 -0.0566631 -0.0858883 141 113 0
0.664044 -0.0512463 -0.086198 144 110 0
0.668361 -0.0473704 -0.0865237 147 107 0
0.673981 -0.0453556 -0.0867428 151 103 0
0.679891 -0.0449381 -0.0869278 154 100 0
0.685484 -0.0468787 -0.0871723 157 97 0
0.689862 -0.0506399 -0.0873432 160 94 0
0.690951 -0.0563151 -0.0874879 163 91 0
0.690117 -0.0621188 -0.0875856 166 88 0
0.686562 -0.0667026 -0.0875914 170 84 0
0.681068 -0.0680475 -0.0874688 173 81 0
0.6751 -0.0681907 -0.0872072 176 78 0
0.669246 -0.0673388 -0.0869509 179 75 0
0.665252 -0.0636009 -0.0866673 182 72 0
0.66257 -0.058293 -0.0863475 185 69 0
0.661199 -0.0524846 -0.0861992 188 66 0
0.661903 -0.0466745 -0.0860696 192 62 0
0.664044 -0.0411091 -0.0859925 195 59 0
0.668254 -0.0370228 -0.0859757 198 56 0
0.673361 -0.0340783 -0.0860401 201 53 0
0.679335 -0.0340846 -0.0862298 204 50 0
0.684358 -0.0367376 -0.0865808 207 47 0
0.689158 -0.0400768 -0.0869304 210 44 0
0.690978 -0.0455382 -0.0872764 214 40 0
0.690971 -0.0515088 -0.0874858 217 37 0
0.687053 -0.0555641 -0.0875256 220 34 0
0.68224 -0.0588418 -0.0874278 223 31 0
0.676272 -0.0588514 -0.0871178 226 28 0
0.670641 -0.0577815 -0.0867683 229 25 0
0.666222 -0.053835 -0.086434 232 22 0
0.663432 -0.0490857 -0.0860561 236 18 0
0.661208 -0.0436825 -0.0858327 239 15 0
0.661739 -0.037906 -0.0856717 242 12 0
0.664074 -0.0327531 -0.0856334 245 9 0
0.667172 -0.0280953 -0.0857311 248 6 0
0.670821 -0.0247421 -0.0858071 251 3 0
0.676711 -0.0247573 -0.0859207 255 0 0
