ply
format ascii 1.0
comment Generated by robot_control PLYWriter
element vertex 97
property float x
property float y
property float z
property uchar red
property uchar green
property uchar blue
end_header
0.692147 -0.00894602 -0.133681 0 255 0
0.696904 -0.011494 -0.133151 2 252 0
0.70064 -0.0155826 -0.132888 5 249 0
0.70064 -0.0214815 -0.132504 7 247 0
0.69882 -0.0267388 -0.132068 10 244 0
0.695006 -0.0308657 -0.131754 13 241 0
0.689588 -0.0330099 -0.131635 15 239 0
0.683681 -0.0325633 -0.13175 18 236 0
0.678108 -0.0303755 -0.132075 21 233 0
0.673764 -0.0265541 -0.132605 23 231 0
0.672241 -0.0211955 -0.13328 26 228 0
0.670819 -0.0156172 -0.134253 29 225 0
0.672147 -0.00997195 -0.135152 31 223 0
0.67359 -0.00428765 -0.135858 34 220 0
0.677539 -0.000572426 -0.13612 37 217 0
0.682947 0.00201181 -0.136213 39 215 0
0.6886 0.00297883 -0.136072 42 212 0
0.693887 0.000252922 -0.135635 45 209 0
0.697227 -0.00454874 -0.134801 47 207 0
0.69817 -0.0100947 -0.133814 50 204 0
0.696649 -0.0157291 -0.133272 53 201 0
0.69255 -0.0199051 -0.13304 55 199 0
0.68711 -0.0224282 -0.133075 58 196 0
0.681263 -0.0220422 -0.133587 61 193 0
0.675995 -0.0194176 -0.134368 63 191 0
0.671761 -0.015252 -0.135195 66 188 0
0.66989 -0.00978691 -0.136183 69 185 0
0.668625 -0.00395036 -0.136825 71 183 0
0.669583 0.00187093 -0.137641 74 180 0
0.67239 0.00709595 -0.138144 77 177 0
0.677141 0.0101301 -0.138455 79 175 0
0.682829 0.0120188 -0.138569 82 172 0
0.688515 0.0126147 -0.138186 85 169 0
0.69298 0.00898251 -0.137482 87 167 0
0.697245 0.00519134 -0.136518 90 164 0
0.697778 -0.000427551 -0.135771 92 162 0
0.69552 -0.0059533 -0.135201 95 159 0
0.691173 -0.00959764 -0.134944 98 156 0
0.685476 -0.0114169 -0.135338 100 154 0
0.679846 -0.0116917 -0.136031 103 151 0
0.674798 -0.00899429 -0.136757 106 148 0
0.670773 -0.00468775 -0.137913 108 146 0
0.667998 0.000545197 -0.138771 111 143 0
0.666804 0.00630446 -0.139679 114 140 0
0.668949 0.0117319 -0.140641 116 138 0
0.671925 0.0168846 -0.141202 119 135 0
0.676179 0.0211201 -0.141506 122 132 0
0.681272 0.0235232 -0.141399 124 130 0
0.687047 0.0221872 -0.140923 127 127 0
0.691986 0.0189531 -0.140288 130 124 0
0.695301 0.0140989 -0.139318 132 122 0
0.696055 0.0090678 -0.138648 135 119 0
0.693892 0.00347866 -0.138215 138 116 0
0.688831 0.000655085 -0.138255 140 114 0
0.683141 -0.00106745 -0.138746 143 111 0
0.677692 -3.73868e-05 -0.139674 146 108 0
0.672231 0.00219317 -0.140669 148 106 0
0.669001 0.00719353 -0.14153 151 103 0
0.66573 0.0121065 -0.142427 154 100 0
0.665193 0.0177822 -0.143382 156 98 0
0.667207 0.0233443 -0.144276 159 95 0
0.670412 0.0283734 -0.144965 162 92 0
0.675418 0.0312278 -0.145224 164 90 0
0.680956 0.0335287 -0.14506 167 87 0
0.686469 0.0327202 -0.144238 170 84 0
0.690617 0.0285038 -0.143201 172 82 0
0.694665 0.0241751 -0.14259 175 79 0
0.694284 0.0182188 -0.141858 177 77 0
0.69166 0.0131274 -0.141311 180 74 0
0.686147 0.0107518 -0.141279 183 71 0
0.680308 0.010258 -0.141817 185 69 0
0.674439 0.0109906 -0.14276 188 66 0
0.669085 0.0134237 -0.143788 191 63 0
0.666262 0.018494 -0.144713 193 61 0
0.663873 0.0239021 -0.145822 196 58 0
0.664674 0.0293223 -0.146854 199 55 0
0.665911 0.034802 -0.147805 201 53 0
0.670186 0.0389674 -0.148544 204 50 0
0.675124 0.0422219 -0.14889 207 47 0
0.680911 0.0430693 -0.1489 209 45 0
0.686575 0.0421276 -0.14857 212 42 0
0.691076 0.0383752 -0.148008 215 39 0
0.692302 0.0328241 -0.146661 217 37 0
0.692364 0.027583 -0.145232 220 34 0
0.688713 0.0233592 -0.143962 223 31 0
0.684372 0.0214946 -0.143415 225 29 0
0.679609 0.0192885 -0.143426 228 26 0
0.673829 0.0199204 -0.144419 231 23 0
0.669292 0.023532 -0.145714 233 21 0
0.665213 0.0276908 -0.147005 236 18 0
0.663208 0.0320889 -0.148356 239 15 0
0.662695 0.0377837 -0.149024 241 13 0
0.663464 0.0436089 -0.149363 244 10 0
0.667146 0.0481512 -0.149742 247 7 0
0.671028 0.0517704 -0.150594 249 5 0
0.674442 0.0522783 -0.151478 252 2 0
0.677649 0.0543002 -0.152848 255 0 0
