ply
format ascii 1.0
comment Generated by robot_control PLYWriter
element vertex 9
property float x
property float y
property float z
property uchar red
property uchar green
property uchar blue
end_header
0.585166 0.0134763 -0.111927 0 255 0
0.585169 0.0088081 -0.110785 31 223 0
0.58496 0.00412547 -0.109725 63 191 0
0.584689 -0.000588089 -0.108834 95 159 0
0.584397 -0.00533229 -0.108127 127 127 0
0.584052 -0.0100926 -0.107567 159 95 0
0.58367 -0.0148589 -0.107084 191 63 0
0.583418 -0.0196328 -0.10659 223 31 0
0.583309 -0.024422 -0.106199 255 0 0
