ply
format ascii 1.0
comment Generated by robot_control PLYWriter
element vertex 48
property float x
property float y
property float z
property uchar red
property uchar green
property uchar blue
end_header
0.717262 0.0317884 -0.109113 0 255 0
0.720891 0.0294513 -0.109187 5 249 0
0.722819 0.0254194 -0.109134 10 244 0
0.724802 0.0203795 -0.108761 16 238 0
0.722892 0.0151883 -0.108241 21 233 0
0.719701 0.0112258 -0.107549 27 227 0
0.715681 0.00703883 -0.106814 32 222 0
0.709708 0.0070938 -0.10602 37 217 0
0.70502 0.00965131 -0.105753 43 211 0
0.703198 0.0150004 -0.105833 48 206 0
0.705213 0.0200659 -0.106255 54 200 0
0.709839 0.0233189 -0.106952 59 195 0
0.71561 0.0229871 -0.107427 65 189 0
0.720512 0.0195391 -0.107704 70 184 0
0.722891 0.0144693 -0.107726 75 179 0
0.723245 0.00846464 -0.107541 81 173 0
0.721614 0.00274394 -0.107137 86 168 0
0.717596 -0.00157752 -0.106541 92 162 0
0.712322 -0.00388201 -0.105883 97 157 0
0.706505 -0.00289134 -0.10539 103 151 0
0.703072 0.00187574 -0.105168 108 146 0
0.703362 0.00787454 -0.105372 113 141 0
0.706712 0.0119028 -0.105749 119 135 0
0.712159 0.012961 -0.106323 124 130 0
0.717996 0.0115667 -0.106759 130 124 0
0.720774 0.00642311 -0.106992 135 119 0
0.723062 0.000867554 -0.106967 141 113 0
0.722674 -0.00500344 -0.106795 146 108 0
0.719169 -0.00983824 -0.106359 151 103 0
0.714255 -0.0131478 -0.105786 157 97 0
0.708453 -0.0139832 -0.105277 162 92 0
0.703402 -0.010735 -0.104724 168 86 0
0.700958 -0.00577258 -0.104513 173 81 0
0.703128 -0.000467064 -0.104724 179 75 0
0.708347 0.00203642 -0.105197 184 70 0
0.714289 0.00151893 -0.105906 189 65 0
0.718535 -0.00192068 -0.106479 195 59 0
0.722609 -0.00626322 -0.10682 200 54 0
0.722925 -0.012151 -0.106974 206 48 0
0.720657 -0.017558 -0.106901 211 43 0
0.71824 -0.0224228 -0.106555 217 37 0
0.713034 -0.0249425 -0.106111 222 32 0
0.707317 -0.0242145 -0.105435 227 27 0
0.703313 -0.0208851 -0.104641 233 21 0
0.701492 -0.0165295 -0.104268 238 16 0
0.70329 -0.0113075 -0.104075 244 10 0
0.70624 -0.00832899 -0.104456 249 5 0
0.711541 -0.00894429 -0.105313 255 0 0
