ply
format ascii 1.0
comment Generated by robot_control PLYWriter
element vertex 11
property float x
property float y
property float z
property uchar red
property uchar green
property uchar blue
end_header
0.502783 -0.307515 -0.108085 0 255 0
0.50337 -0.302947 -0.109978 25 229 0
0.503788 -0.298345 -0.111845 51 204 0
0.504114 -0.29368 -0.113568 76 178 0
0.504469 -0.288996 -0.115233 102 153 0
0.504846 -0.284332 -0.116949 127 127 0
0.505204 -0.279679 -0.118702 153 101 0
0.505656 -0.275037 -0.120455 178 76 0
0.506275 -0.270406 -0.122188 204 50 0
0.506834 -0.265742 -0.123855 229 25 0
0.507358 -0.26107 -0.125497 255 0 0
