ply
format ascii 1.0
comment Generated by robot_control PLYWriter
element vertex 97
property float x
property float y
property float z
property uchar red
property uchar green
property uchar blue
end_header
0.744702 0.0675058 -0.120798 0 255 0
0.749056 0.0657983 -0.120087 2 252 0
0.752244 0.0622711 -0.118989 5 249 0
0.752631 0.0572781 -0.117394 7 247 0
0.752237 0.0513726 -0.116394 10 244 0
0.749223 0.0466097 -0.115781 13 241 0
0.743894 0.044631 -0.115656 15 239 0
0.737918 0.0447962 -0.115996 18 236 0
0.73241 0.0462154 -0.116662 21 233 0
0.727906 0.050085 -0.117451 23 231 0
0.724291 0.05465 -0.118783 26 228 0
0.72226 0.0600921 -0.119795 29 225 0
0.723267 0.0657858 -0.120818 31 223 0
0.725968 0.0710844 -0.121665 34 220 0
0.730232 0.0752451 -0.122362 37 217 0
0.735269 0.0784326 -0.122662 39 215 0
0.741034 0.0797559 -0.122635 42 212 0
0.746299 0.0773705 -0.122238 45 209 0
0.750472 0.0732707 -0.12143 47 207 0
0.75262 0.0680754 -0.12053 50 204 0
0.752235 0.0624042 -0.119797 53 201 0
0.749019 0.057403 -0.11922 55 199 0
0.743627 0.0550622 -0.11909 58 196 0
0.737625 0.0550288 -0.119296 61 193 0
0.732184 0.0572224 -0.11991 63 191 0
0.727368 0.0606526 -0.120624 66 188 0
0.724455 0.0655251 -0.121569 69 185 0
0.723202 0.0712904 -0.122605 71 183 0
0.724648 0.0767242 -0.123683 74 180 0
0.725673 0.082374 -0.124464 77 177 0
0.729838 0.0866279 -0.125023 79 175 0
0.735085 0.089229 -0.125281 82 172 0
0.74105 0.0898229 -0.125221 85 169 0
0.746405 0.0876842 -0.12494 87 167 0
0.75084 0.0841443 -0.124279 90 164 0
0.752218 0.0786638 -0.123599 92 162 0
0.751712 0.0728249 -0.122769 95 159 0
0.747885 0.0682768 -0.12226 98 156 0
0.74256 0.0657373 -0.122128 100 154 0
0.736582 0.065894 -0.122383 103 151 0
0.731296 0.0683139 -0.122992 106 148 0
0.726836 0.072127 -0.123818 108 146 0
0.723636 0.0765815 -0.124745 111 143 0
0.722697 0.0824192 -0.125729 114 140 0
0.724217 0.0880834 -0.126544 116 138 0
0.726801 0.0934532 -0.127238 119 135 0
0.730942 0.0976729 -0.127844 122 132 0
0.73641 0.0996229 -0.128121 124 130 0
0.742403 0.0995017 -0.128047 127 127 0
0.747969 0.097554 -0.127559 130 124 0
0.75145 0.092826 -0.12678 132 122 0
0.752998 0.0875143 -0.126 135 119 0
0.750426 0.0825189 -0.1254 138 116 0
0.745674 0.0789646 -0.124934 140 114 0
0.7401 0.0767263 -0.124974 143 111 0
0.734713 0.0770361 -0.125278 146 108 0
0.729323 0.0795629 -0.126 148 106 0
0.724998 0.0835721 -0.126929 151 103 0
0.722254 0.0888473 -0.127785 154 100 0
0.722388 0.0947063 -0.128916 156 98 0
0.723097 0.100503 -0.129701 159 95 0
0.726875 0.105075 -0.130523 162 92 0
0.731369 0.108353 -0.13113 164 90 0
0.736849 0.110773 -0.131295 167 87 0
0.74235 0.109595 -0.131215 170 84 0
0.747379 0.107735 -0.130662 172 82 0
0.751503 0.103581 -0.129891 175 79 0
0.752679 0.0980992 -0.128947 177 77 0
0.751014 0.0925616 -0.128088 180 74 0
0.745917 0.0897539 -0.127681 183 71 0
0.741147 0.0868152 -0.127651 185 69 0
0.735198 0.087246 -0.128042 188 66 0
0.729632 0.0892104 -0.128707 191 63 0
0.725811 0.0936641 -0.129642 193 61 0
0.723163 0.0989184 -0.130744 196 58 0
0.723021 0.104731 -0.131795 199 55 0
0.723855 0.110429 -0.133144 201 53 0
0.726336 0.115789 -0.13414 204 50 0
0.730801 0.118843 -0.135006 207 47 0
0.735827 0.121701 -0.135328 209 45 0
0.741619 0.121668 -0.13515 212 42 0
0.747136 0.120008 -0.13447 215 39 0
0.750068 0.114885 -0.133459 217 37 0
0.752532 0.109704 -0.132047 220 34 0
0.750731 0.104314 -0.131062 223 31 0
0.746643 0.101391 -0.130182 225 29 0
0.742093 0.0976459 -0.129978 228 26 0
0.736184 0.0982427 -0.130359 231 23 0
0.730591 0.100281 -0.131067 233 21 0
0.726478 0.104058 -0.131975 236 18 0
0.723282 0.10865 -0.133551 239 15 0
0.722653 0.114309 -0.13505 241 13 0
0.722632 0.119444 -0.136769 244 10 0
0.724255 0.12463 -0.137891 247 7 0
0.727599 0.128382 -0.138699 249 5 0
0.732585 0.131048 -0.139048 252 2 0
0.736222 0.133213 -0.139616 255 0 0
