ply
format ascii 1.0
comment Generated by robot_control PLYWriter
element vertex 47
property float x
property float y
property float z
property uchar red
property uchar green
property uchar blue
end_header
0.674098 0.163565 -0.150693 0 255 0
0.678716 0.161647 -0.148832 5 249 0
0.680037 0.15635 -0.147094 11 243 0
0.680923 0.151293 -0.144136 16 238 0
0.680154 0.146521 -0.141184 22 232 0
0.677429 0.1415 -0.139399 27 227 0
0.672744 0.138385 -0.137339 33 221 0
0.666838 0.137815 -0.136384 38 216 0
0.66086 0.137802 -0.135952 44 210 0
0.655279 0.140018 -0.136306 49 205 0
0.65106 0.14397 -0.137137 55 199 0
0.648742 0.149322 -0.138407 60 194 0
0.648066 0.15433 -0.140385 66 188 0
0.650258 0.159126 -0.142585 72 182 0
0.654725 0.16266 -0.143512 77 177 0
0.660658 0.163169 -0.143952 83 171 0
0.666328 0.16152 -0.14371 88 166 0
0.669983 0.157046 -0.142932 94 160 0
0.672249 0.151635 -0.1417 99 155 0
0.67209 0.146049 -0.139793 105 149 0
0.669693 0.140896 -0.13786 110 144 0
0.665955 0.13688 -0.136504 116 138 0
0.660318 0.135372 -0.135446 121 133 0
0.654357 0.134866 -0.134799 127 127 0
0.64856 0.136145 -0.134588 133 121 0
0.64398 0.139963 -0.134887 138 116 0
0.639767 0.144094 -0.135641 144 110 0
0.638626 0.149679 -0.136997 149 105 0
0.640675 0.155021 -0.138458 155 99 0
0.645113 0.158788 -0.139672 160 94 0
0.650744 0.160229 -0.140261 166 88 0
0.655518 0.156868 -0.140238 171 83 0
0.660807 0.154396 -0.13941 177 77 0
0.664077 0.149497 -0.138402 182 72 0
0.664132 0.143924 -0.136572 188 66 0
0.661483 0.138784 -0.135112 194 60 0
0.657574 0.134582 -0.133408 199 55 0
0.652608 0.131818 -0.132083 205 49 0
0.646817 0.130839 -0.131135 210 44 0
0.641232 0.132662 -0.130927 216 38 0
0.635991 0.135558 -0.131297 221 33 0
0.632707 0.140097 -0.132387 227 27 0
0.630051 0.144461 -0.133934 232 22 0
0.630124 0.150119 -0.135919 238 16 0
0.632778 0.154313 -0.137594 243 11 0
0.637278 0.156142 -0.138955 249 5 0
0.642119 0.156687 -0.140035 255 0 0
