ply
format ascii 1.0
comment Generated by robot_control PLYWriter
element vertex 11
property float x
property float y
property float z
property uchar red
property uchar green
property uchar blue
end_header
0.647225 -0.4135 -0.128683 0 255 0
0.647056 -0.418392 -0.127362 25 229 0
0.646549 -0.423198 -0.125837 51 204 0
0.646163 -0.428056 -0.124435 76 178 0
0.645642 -0.432871 -0.122933 102 153 0
0.645288 -0.437657 -0.121291 127 127 0
0.644858 -0.44235 -0.119416 153 101 0
0.644373 -0.446968 -0.117374 178 76 0
0.643888 -0.451572 -0.115301 204 50 0
0.643527 -0.456229 -0.113336 229 25 0
0.642986 -0.460735 -0.111074 255 0 0
