ply
format ascii 1.0
comment Generated by robot_control PLYWriter
element vertex 130
property float x
property float y
property float z
property uchar red
property uchar green
property uchar blue
end_header
0.496449 -0.170514 -0.0897061 0 255 0
0.500588 -0.172216 -0.089767 1 253 0
0.504223 -0.175649 -0.0900592 3 251 0
0.504721 -0.181103 -0.0907345 5 249 0
0.504596 -0.186794 -0.0916787 7 247 0
0.502337 -0.191402 -0.0928126 9 245 0
0.4976 -0.192898 -0.0939177 11 243 0
0.492638 -0.19465 -0.0946547 13 241 0
0.487309 -0.192644 -0.0950641 15 239 0
0.482169 -0.190243 -0.0951329 17 237 0
0.478261 -0.186064 -0.0947352 19 235 0
0.476989 -0.180526 -0.0939996 21 233 0
0.477169 -0.17461 -0.0931037 23 231 0
0.478141 -0.169063 -0.0921406 25 229 0
0.481378 -0.164178 -0.0911122 27 227 0
0.486457 -0.161253 -0.0901005 29 225 0
0.491461 -0.158982 -0.0894268 31 223 0
0.497207 -0.160402 -0.0891201 33 221 0
0.502639 -0.162565 -0.0891091 35 219 0
0.505291 -0.167894 -0.0893205 37 217 0
0.506837 -0.173229 -0.0898004 39 215 0
0.504643 -0.178434 -0.0905144 41 213 0
0.499782 -0.18167 -0.091116 43 211 0
0.495231 -0.184643 -0.0916752 45 209 0
0.489312 -0.183875 -0.0919827 47 207 0
0.48448 -0.180512 -0.0921158 49 205 0
0.48029 -0.176223 -0.0920293 51 203 0
0.477243 -0.171182 -0.0917499 53 201 0
0.477329 -0.165271 -0.0911688 55 199 0
0.478296 -0.159414 -0.0905242 57 197 0
0.480638 -0.154003 -0.089748 59 195 0
0.485384 -0.150405 -0.0891304 61 193 0
0.490806 -0.148362 -0.0885675 63 191 0
0.496774 -0.148424 -0.0881471 65 189 0
0.501749 -0.151667 -0.0880172 67 187 0
0.505824 -0.156065 -0.0880491 69 185 0
0.506626 -0.16172 -0.088402 71 183 0
0.504834 -0.167119 -0.0888919 73 181 0
0.500355 -0.170999 -0.0895367 75 179 0
0.495223 -0.173672 -0.0899783 77 177 0
0.489528 -0.172939 -0.0902405 79 175 0
0.484385 -0.169933 -0.0903268 81 173 0
0.480259 -0.165682 -0.0902578 83 171 0
0.477987 -0.160139 -0.0900006 85 169 0
0.477554 -0.154269 -0.0896799 86 168 0
0.479259 -0.14864 -0.0891909 88 166 0
0.482142 -0.143401 -0.0887553 90 164 0
0.487125 -0.140214 -0.0882195 92 162 0
0.492564 -0.138238 -0.0877431 94 160 0
0.498297 -0.139547 -0.0874373 96 158 0
0.503108 -0.142923 -0.0872538 98 156 0
0.506814 -0.147195 -0.0872824 100 154 0
0.506745 -0.153188 -0.0874658 102 152 0
0.504446 -0.158412 -0.0878301 104 150 0
0.500442 -0.162562 -0.0882144 106 148 0
0.494466 -0.162372 -0.088617 108 146 0
0.488497 -0.162596 -0.088856 110 144 0
0.484277 -0.158368 -0.0888582 112 142 0
0.480549 -0.153691 -0.0887911 114 140 0
0.479223 -0.14791 -0.0885776 116 138 0
0.478866 -0.141928 -0.0883714 118 136 0
0.480328 -0.136612 -0.0880959 120 134 0
0.484591 -0.132408 -0.0877572 122 132 0
0.489559 -0.129276 -0.0873802 124 130 0
0.49547 -0.12887 -0.0869814 126 128 0
0.501168 -0.129469 -0.0867425 128 126 0
0.504624 -0.134364 -0.086597 130 124 0
0.50798 -0.139332 -0.0865967 132 122 0
0.506705 -0.144706 -0.0867417 134 120 0
0.503569 -0.149803 -0.0870748 136 118 0
0.498287 -0.152248 -0.0873821 138 116 0
0.492295 -0.152202 -0.0875099 140 114 0
0.486966 -0.150556 -0.087599 142 112 0
0.482538 -0.146514 -0.0876774 144 110 0
0.479196 -0.14169 -0.0876857 146 108 0
0.478639 -0.1358 -0.0875981 148 106 0
0.478846 -0.129812 -0.0874442 150 104 0
0.481999 -0.124883 -0.0872399 152 102 0
0.485487 -0.120236 -0.0869061 154 100 0
0.490845 -0.11801 -0.086653 156 98 0
0.496838 -0.118022 -0.0864345 158 96 0
0.502367 -0.12 -0.0863045 160 94 0
0.506622 -0.124164 -0.0861955 162 92 0
0.50866 -0.129776 -0.0861656 164 90 0
0.507128 -0.135132 -0.0863605 166 88 0
0.504594 -0.140535 -0.0866011 168 86 0
0.499251 -0.142891 -0.0867713 170 84 0
0.493257 -0.142963 -0.0869239 171 83 0
0.488137 -0.140311 -0.0871225 173 81 0
0.483173 -0.137126 -0.0872375 175 79 0
0.479804 -0.132201 -0.0872441 177 77 0
0.478642 -0.126439 -0.0871376 179 75 0
0.478654 -0.120448 -0.0869353 181 73 0
0.481816 -0.115401 -0.0866256 183 71 0
0.486227 -0.1115 -0.0863268 185 69 0
0.491658 -0.108993 -0.0860398 187 67 0
0.497591 -0.108691 -0.0858127 189 65 0
0.503116 -0.110217 -0.0855419 191 63 0
0.507158 -0.114622 -0.0855088 193 61 0
0.50845 -0.12019 -0.0856199 195 59 0
0.507651 -0.125456 -0.0858632 197 57 0
0.504564 -0.130454 -0.0861418 199 55 0
0.498874 -0.13201 -0.0864531 201 53 0
0.492884 -0.132022 -0.0867402 203 51 0
0.487694 -0.129758 -0.087063 205 49 0
0.482591 -0.126923 -0.0872477 207 47 0
0.480948 -0.121237 -0.0873786 209 45 0
0.478329 -0.116045 -0.087358 211 43 0
0.479962 -0.110535 -0.08714 213 41 0
0.482607 -0.105232 -0.0867916 215 39 0
0.48657 -0.100977 -0.0862053 217 37 0
0.49193 -0.098598 -0.0856955 219 35 0
0.497885 -0.0986473 -0.0850059 221 33 0
0.503555 -0.0999509 -0.0844765 223 31 0
0.506943 -0.104776 -0.0843265 225 29 0
0.508748 -0.110225 -0.0845541 227 27 0
0.508501 -0.116182 -0.0850545 229 25 0
0.504528 -0.120342 -0.0855267 231 23 0
0.499515 -0.122651 -0.0860431 233 21 0
0.493537 -0.12265 -0.0864534 235 19 0
0.488789 -0.12032 -0.0866919 237 17 0
0.484276 -0.117412 -0.0869793 239 15 0
0.481019 -0.112689 -0.08735 241 13 0
0.479914 -0.107373 -0.0876472 243 11 0
0.480992 -0.103399 -0.0877736 245 9 0
0.480991 -0.0974963 -0.0874757 247 7 0
0.483874 -0.0928585 -0.0867877 249 5 0
0.486735 -0.0900426 -0.085744 251 3 0
0.490919 -0.0885234 -0.0849491 253 1 0
0.495561 -0.0870411 -0.0840919 255 0 0
