ply
format ascii 1.0
comment Generated by robot_control PLYWriter
element vertex 28
property float x
property float y
property float z
property uchar red
property uchar green
property uchar blue
end_header
0.577004 0.178811 -0.121902 0 255 0
0.580094 0.174797 -0.120004 9 245 0
0.581688 0.169725 -0.118746 18 236 0
0.580389 0.163923 -0.118953 28 226 0
0.576846 0.159374 -0.120726 37 217 0
0.571476 0.156933 -0.122151 47 207 0
0.565964 0.155724 -0.124434 56 198 0
0.560461 0.156517 -0.126588 66 188 0
0.556331 0.16027 -0.128898 75 179 0
0.553165 0.165069 -0.130665 85 169 0
0.552562 0.170795 -0.131899 94 160 0
0.553167 0.176766 -0.132643 103 151 0
0.555888 0.182127 -0.132521 113 141 0
0.561094 0.184447 -0.131692 122 132 0
0.566486 0.184464 -0.130564 132 122 0
0.569525 0.179535 -0.129426 141 113 0
0.569281 0.173663 -0.12893 151 103 0
0.5672 0.167969 -0.129057 160 94 0
0.563635 0.163118 -0.129599 170 84 0
0.557825 0.162123 -0.13095 179 75 0
0.552236 0.161634 -0.132958 188 66 0
0.547506 0.164091 -0.135344 198 56 0
0.543814 0.168412 -0.137401 207 47 0
0.541173 0.172984 -0.139013 217 37 0
0.541348 0.178807 -0.1407 226 28 0
0.542987 0.184347 -0.141705 236 18 0
0.545389 0.188145 -0.141924 245 9 0
0.549694 0.190885 -0.141074 255 0 0
