ply
format ascii 1.0
comment Generated by robot_control PLYWriter
element vertex 11
property float x
property float y
property float z
property uchar red
property uchar green
property uchar blue
end_header
0.62459 -0.350486 -0.116264 0 255 0
0.624442 -0.355199 -0.117265 25 229 0
0.62429 -0.359926 -0.118203 51 204 0
0.624269 -0.364655 -0.119143 76 178 0
0.624462 -0.369373 -0.120116 102 153 0
0.624754 -0.374083 -0.121104 127 127 0
0.624977 -0.378801 -0.122072 153 101 0
0.625153 -0.383529 -0.123 178 76 0
0.625488 -0.388265 -0.123832 204 50 0
0.62572 -0.393053 -0.124344 229 25 0
0.625586 -0.39786 -0.124655 255 0 0
