ply
format ascii 1.0
comment Generated by robot_control PLYWriter
element vertex 28
property float x
property float y
property float z
property uchar red
property uchar green
property uchar blue
end_header
0.64668 -0.124352 -0.114909 0 255 0
0.651929 -0.125954 -0.115422 9 245 0
0.654881 -0.129988 -0.11604 18 236 0
0.656757 -0.135237 -0.116691 28 226 0
0.654955 -0.140362 -0.117407 37 217 0
0.651798 -0.145237 -0.117974 47 207 0
0.646438 -0.147002 -0.118591 56 198 0
0.641223 -0.149005 -0.119093 66 188 0
0.635867 -0.146591 -0.119333 75 179 0
0.630892 -0.144533 -0.11933 85 169 0
0.627375 -0.139636 -0.119169 94 160 0
0.627344 -0.133831 -0.118665 103 151 0
0.629291 -0.128167 -0.118177 113 141 0
0.633837 -0.1247 -0.117531 122 132 0
0.63948 -0.125605 -0.11697 132 122 0
0.643583 -0.129902 -0.116909 141 113 0
0.645188 -0.13548 -0.11724 151 103 0
0.642815 -0.140445 -0.118057 160 94 0
0.640471 -0.144879 -0.118939 170 84 0
0.635074 -0.14718 -0.120258 179 75 0
0.629535 -0.149126 -0.121227 188 66 0
0.624528 -0.146682 -0.122415 198 56 0
0.619768 -0.143122 -0.123436 207 47 0
0.616392 -0.139104 -0.12419 217 37 0
0.615479 -0.133357 -0.124197 226 28 0
0.616303 -0.12863 -0.123481 236 18 0
0.61993 -0.125984 -0.121966 245 9 0
0.624139 -0.124415 -0.119885 255 0 0
