ply
format ascii 1.0
comment Generated by robot_control PLYWriter
element vertex 162
property float x
property float y
property float z
property uchar red
property uchar green
property uchar blue
end_header
0.501141 -0.303912 -0.0836437 0 255 0
0.504376 -0.306514 -0.0822881 1 253 0
0.507147 -0.308623 -0.0808592 3 251 0
0.508603 -0.31301 -0.0796152 4 250 0
0.508404 -0.31867 -0.0791271 6 248 0
0.504773 -0.322545 -0.079518 7 247 0
0.499101 -0.322831 -0.0805347 9 245 0
0.493856 -0.322549 -0.0821612 11 243 0
0.489493 -0.319504 -0.0840561 12 242 0
0.4865 -0.315487 -0.0863057 14 240 0
0.484978 -0.310483 -0.0884699 15 239 0
0.485609 -0.305459 -0.089638 17 237 0
0.487908 -0.301064 -0.0895627 19 235 0
0.491269 -0.296421 -0.0885378 20 234 0
0.496434 -0.294688 -0.0866982 22 232 0
0.501878 -0.294759 -0.0844398 23 231 0
0.506508 -0.297381 -0.0829142 25 229 0
0.509783 -0.301685 -0.0818914 26 228 0
0.509181 -0.306937 -0.0812185 28 226 0
0.506351 -0.310935 -0.0814141 30 224 0
0.500945 -0.31256 -0.0826855 31 223 0
0.495379 -0.312701 -0.0847954 33 221 0
0.490241 -0.310543 -0.086818 34 220 0
0.486875 -0.306403 -0.0887408 36 218 0
0.486509 -0.300493 -0.0894761 38 216 0
0.485955 -0.294565 -0.0894 39 215 0
0.489756 -0.290203 -0.0884275 41 213 0
0.493587 -0.286405 -0.0868091 42 212 0
0.499038 -0.284749 -0.0850106 44 210 0
0.504127 -0.285821 -0.0834602 45 209 0
0.508801 -0.28881 -0.0828651 47 207 0
0.508741 -0.294791 -0.0827638 49 205 0
0.507215 -0.299992 -0.0834638 50 204 0
0.502578 -0.303378 -0.0848983 52 202 0
0.497056 -0.303499 -0.0865989 53 201 0
0.491642 -0.301432 -0.087959 55 199 0
0.488786 -0.296792 -0.0883939 57 197 0
0.485996 -0.292151 -0.088422 58 196 0
0.487211 -0.286328 -0.0880886 60 194 0
0.490043 -0.281135 -0.0873121 61 193 0
0.494091 -0.277273 -0.0860921 63 191 0
0.498923 -0.27444 -0.0846271 64 190 0
0.504237 -0.276003 -0.0836525 66 188 0
0.508499 -0.27924 -0.0832093 68 186 0
0.510995 -0.284467 -0.0832647 69 185 0
0.508791 -0.28954 -0.0836125 71 183 0
0.50499 -0.293639 -0.0844085 72 182 0
0.49941 -0.29407 -0.0851504 74 180 0
0.493891 -0.292358 -0.08578 76 178 0
0.489719 -0.288472 -0.0863321 77 177 0
0.487615 -0.282891 -0.0868103 79 175 0
0.487091 -0.277043 -0.0872699 80 174 0
0.488269 -0.271549 -0.087467 82 172 0
0.492652 -0.267577 -0.0873625 83 171 0
0.498407 -0.266101 -0.0868792 85 169 0
0.504252 -0.266542 -0.086334 87 167 0
0.509381 -0.269014 -0.0856652 88 166 0
0.510922 -0.274695 -0.0851653 90 164 0
0.508826 -0.279949 -0.0846965 91 163 0
0.505467 -0.284014 -0.0844088 93 161 0
0.49959 -0.284131 -0.084405 95 159 0
0.493845 -0.282578 -0.0850603 96 158 0
0.490045 -0.278632 -0.0863294 98 156 0
0.487579 -0.273505 -0.0879258 99 155 0
0.487084 -0.268154 -0.0898803 101 153 0
0.489015 -0.26279 -0.0914991 102 152 0
0.49188 -0.257834 -0.0928689 104 150 0
0.496976 -0.255645 -0.0934959 106 148 0
0.502957 -0.255713 -0.0934758 107 147 0
0.508317 -0.257923 -0.0928557 109 145 0
0.510369 -0.262774 -0.091424 110 144 0
0.510476 -0.268477 -0.0898363 112 142 0
0.506463 -0.272304 -0.0878209 114 140 0
0.501132 -0.274482 -0.0870962 115 139 0
0.495402 -0.273259 -0.087797 117 137 0
0.491213 -0.269546 -0.0897571 118 136 0
0.48859 -0.265244 -0.0921039 120 134 0
0.48683 -0.260219 -0.0946383 121 133 0
0.488449 -0.255147 -0.0968115 123 131 0
0.49113 -0.250534 -0.0994863 125 129 0
0.49502 -0.246985 -0.101418 126 128 0
0.500705 -0.246171 -0.102843 128 126 0
0.506239 -0.247037 -0.102428 129 125 0
0.510163 -0.251012 -0.100592 131 123 0
0.510772 -0.256387 -0.0980819 133 121 0
0.50876 -0.261256 -0.0957504 134 120 0
0.504295 -0.264641 -0.0944975 136 118 0
0.498407 -0.263785 -0.0945455 137 117 0
0.492903 -0.26181 -0.0955978 139 115 0
0.488994 -0.257978 -0.0971185 140 114 0
0.488718 -0.25234 -0.0990995 142 112 0
0.489177 -0.246727 -0.101119 144 110 0
0.490709 -0.241237 -0.102912 145 109 0
0.494531 -0.237568 -0.104686 147 107 0
0.499896 -0.23518 -0.105777 148 106 0
0.505547 -0.23649 -0.105974 150 104 0
0.51013 -0.240236 -0.105155 152 102 0
0.510804 -0.246 -0.103839 153 101 0
0.508912 -0.251597 -0.103371 155 99 0
0.50451 -0.254935 -0.103523 156 98 0
0.498565 -0.254557 -0.103871 158 96 0
0.49321 -0.251968 -0.104024 159 95 0
0.489737 -0.247331 -0.10408 161 93 0
0.488933 -0.241463 -0.104299 163 91 0
0.488905 -0.235476 -0.104489 164 90 0
0.49103 -0.229895 -0.104395 166 88 0
0.496124 -0.226964 -0.103913 167 87 0
0.501928 -0.226338 -0.103406 169 85 0
0.507508 -0.227926 -0.103146 171 83 0
0.511643 -0.232093 -0.103209 172 82 0
0.511888 -0.237407 -0.103822 174 80 0
0.508728 -0.24241 -0.104698 175 79 0
0.503797 -0.244533 -0.105895 177 77 0
0.498073 -0.244027 -0.106383 178 76 0
0.492669 -0.241751 -0.106232 180 74 0
0.489699 -0.2368 -0.105442 182 72 0
0.489193 -0.231081 -0.104544 183 71 0
0.48972 -0.225281 -0.103261 185 69 0
0.491519 -0.219804 -0.101726 186 68 0
0.496572 -0.216971 -0.100279 188 66 0
0.502175 -0.216056 -0.0989665 190 64 0
0.507534 -0.217874 -0.0986203 191 63 0
0.511128 -0.221843 -0.0990621 193 61 0
0.512315 -0.227588 -0.0999822 194 60 0
0.509341 -0.232018 -0.101957 196 58 0
0.504698 -0.234595 -0.103571 197 57 0
0.498748 -0.234857 -0.104097 199 55 0
0.493732 -0.232304 -0.104039 201 53 0
0.491 -0.227041 -0.103338 202 52 0
0.488456 -0.221853 -0.102365 204 50 0
0.489435 -0.216319 -0.100824 205 49 0
0.492249 -0.211155 -0.0997001 207 47 0
0.496369 -0.206964 -0.0985955 209 45 0
0.502143 -0.206569 -0.0977647 210 44 0
0.507799 -0.207585 -0.0972555 212 42 0
0.511065 -0.212079 -0.0971124 213 41 0
0.512729 -0.21741 -0.0973586 215 39 0
0.509422 -0.221817 -0.0980037 216 38 0
0.505264 -0.224205 -0.0989918 218 36 0
0.499347 -0.224347 -0.0997734 220 34 0
0.494393 -0.221246 -0.0999075 221 33 0
0.490758 -0.217132 -0.0996345 223 31 0
0.488691 -0.211921 -0.0990761 224 30 0
0.490407 -0.20661 -0.0985107 226 28 0
0.492461 -0.201523 -0.098424 228 26 0
0.496341 -0.197954 -0.098764 229 25 0
0.502126 -0.196606 -0.099206 231 23 0
0.506701 -0.198154 -0.0995917 232 22 0
0.511029 -0.200921 -0.0993211 234 20 0
0.51252 -0.206212 -0.098271 235 19 0
0.511066 -0.21124 -0.0973669 237 17 0
0.508194 -0.214373 -0.097154 239 15 0
0.50296 -0.216147 -0.0974577 240 14 0
0.497794 -0.213979 -0.0978192 242 12 0
0.49516 -0.210555 -0.0979487 243 11 0
0.49249 -0.209208 -0.0978762 245 9 0
0.4904 -0.204555 -0.0976022 247 7 0
0.48899 -0.199585 -0.0975621 248 6 0
0.490412 -0.19438 -0.0981055 250 4 0
0.493216 -0.190904 -0.099322 251 3 0
0.496348 -0.188688 -0.100273 253 1 0
0.499403 -0.186386 -0.101748 255 0 0
