ply
format ascii 1.0
comment Generated by robot_control PLYWriter
element vertex 32
property float x
property float y
property float z
property uchar red
property uchar green
property uchar blue
end_header
0.547239 0.0726224 -0.157421 0 255 0
0.552139 0.0717689 -0.154389 8 246 0
0.555579 0.0677805 -0.151655 16 238 0
0.55772 0.0633999 -0.14878 24 230 0
0.558528 0.0591329 -0.14562 32 222 0
0.557449 0.0538311 -0.143717 41 213 0
0.554574 0.0487018 -0.143016 49 205 0
0.550367 0.0445725 -0.143587 57 197 0
0.544941 0.0442168 -0.144876 65 189 0
0.540132 0.04441 -0.146863 74 180 0
0.537465 0.0494036 -0.148646 82 172 0
0.536048 0.0539734 -0.150615 90 164 0
0.538252 0.0593087 -0.151879 98 156 0
0.541598 0.0642088 -0.152251 106 148 0
0.547119 0.0659679 -0.151953 115 139 0
0.552752 0.0676409 -0.150856 123 131 0
0.558182 0.0690248 -0.149287 131 123 0
0.563315 0.0665207 -0.147542 139 115 0
0.566979 0.0628282 -0.145196 148 106 0
0.569088 0.0576347 -0.143115 156 98 0
0.570685 0.0523117 -0.140957 164 90 0
0.568668 0.0470433 -0.139383 172 82 0
0.565283 0.0426221 -0.137817 180 74 0
0.560189 0.0395686 -0.137166 189 65 0
0.554319 0.0393574 -0.137627 197 57 0
0.549621 0.0424725 -0.139378 205 49 0
0.548347 0.0473048 -0.14172 213 41 0
0.548521 0.0528527 -0.143482 222 32 0
0.551204 0.0578805 -0.145076 230 24 0
0.555401 0.0607867 -0.146374 238 16 0
0.560527 0.0625208 -0.146796 246 8 0
0.566292 0.0625146 -0.146438 255 0 0
