ply
format ascii 1.0
comment Generated by robot_control PLYWriter
element vertex 11
property float x
property float y
property float z
property uchar red
property uchar green
property uchar blue
end_header
0.580215 -0.0845163 -0.119735 0 255 0
0.579942 -0.0793712 -0.119277 25 229 0
0.579639 -0.0742155 -0.118889 51 204 0
0.579406 -0.0690563 -0.118494 76 178 0
0.579173 -0.0638928 -0.118156 102 153 0
0.578936 -0.0587263 -0.117874 127 127 0
0.578704 -0.0535553 -0.11769 153 101 0
0.578595 -0.0483789 -0.1176 178 76 0
0.578596 -0.0431993 -0.11756 204 50 0
0.578597 -0.0380203 -0.117481 229 25 0
0.5786 -0.0328435 -0.117632 255 0 0
