ply
format ascii 1.0
comment Generated by robot_control PLYWriter
element vertex 113
property float x
property float y
property float z
property uchar red
property uchar green
property uchar blue
end_header
0.642973 0.0761285 -0.12902 0 255 0
0.64823 0.0758161 -0.127794 2 252 0
0.650817 0.0716615 -0.126794 4 250 0
0.65251 0.067042 -0.125127 6 248 0
0.65304 0.0620099 -0.124051 9 245 0
0.650101 0.0575311 -0.123115 11 243 0
0.645863 0.0538294 -0.123249 13 241 0
0.640542 0.0518722 -0.123941 15 239 0
0.635076 0.052894 -0.125336 18 236 0
0.629931 0.0548955 -0.126851 20 234 0
0.628142 0.0598521 -0.128368 22 232 0
0.624956 0.0645944 -0.12967 25 229 0
0.624889 0.0703752 -0.131127 27 227 0
0.626044 0.0760772 -0.131891 29 225 0
0.629302 0.0808785 -0.132295 31 223 0
0.634563 0.0837692 -0.13217 34 220 0
0.639768 0.0865176 -0.131574 36 218 0
0.645151 0.0866166 -0.130701 38 216 0
0.649558 0.082727 -0.129591 40 214 0
0.653755 0.078856 -0.128427 43 211 0
0.654322 0.0731015 -0.127247 45 209 0
0.65181 0.0679279 -0.126466 47 207 0
0.647517 0.063714 -0.126439 50 204 0
0.641933 0.061884 -0.126888 52 202 0
0.636056 0.0620799 -0.128015 54 200 0
0.630717 0.0646823 -0.128953 56 198 0
0.627046 0.0689408 -0.130359 59 195 0
0.626542 0.0747241 -0.131526 61 193 0
0.625471 0.0802344 -0.132668 63 191 0
0.627581 0.0858243 -0.133357 66 188 0
0.630809 0.0906837 -0.133666 68 186 0
0.635835 0.0939476 -0.133621 70 184 0
0.641527 0.0956755 -0.133119 72 182 0
0.646972 0.0945199 -0.132406 75 179 0
0.651601 0.0908413 -0.131272 77 177 0
0.654583 0.0863887 -0.13033 79 175 0
0.654045 0.080529 -0.129403 81 173 0
0.650783 0.0756137 -0.12921 84 170 0
0.64642 0.0714655 -0.12942 86 168 0
0.640564 0.0709721 -0.129994 88 166 0
0.634933 0.0721879 -0.13094 91 163 0
0.630211 0.0757851 -0.131953 93 161 0
0.626879 0.0804569 -0.133099 95 159 0
0.6268 0.0863558 -0.134086 97 157 0
0.626942 0.0923199 -0.134793 100 154 0
0.629046 0.0978797 -0.135273 102 152 0
0.633297 0.102031 -0.135483 104 150 0
0.638931 0.104157 -0.135336 107 147 0
0.644727 0.105253 -0.134921 109 145 0
0.650395 0.103602 -0.134098 111 143 0
0.654019 0.099255 -0.132981 113 141 0
0.655819 0.0935479 -0.132299 116 138 0
0.654363 0.0881417 -0.131771 118 136 0
0.650801 0.0834693 -0.131706 120 134 0
0.64491 0.0823263 -0.132093 122 132 0
0.638991 0.0820485 -0.132761 125 129 0
0.63311 0.0824934 -0.133725 127 127 0
0.62958 0.087139 -0.134954 129 125 0
0.627651 0.0927306 -0.136035 132 122 0
0.626893 0.098586 -0.136848 134 120 0
0.628902 0.104016 -0.137428 136 118 0
0.631696 0.109323 -0.13784 138 116 0
0.636576 0.112613 -0.137898 141 113 0
0.64248 0.113489 -0.137583 143 111 0
0.648241 0.113216 -0.136903 145 109 0
0.653457 0.110332 -0.136039 147 107 0
0.656702 0.105827 -0.134953 150 104 0
0.655728 0.100069 -0.134253 152 102 0
0.652616 0.0949992 -0.133911 154 100 0
0.647654 0.0915859 -0.134023 157 97 0
0.6425 0.090193 -0.134571 159 95 0
0.636733 0.0913186 -0.13569 161 93 0
0.632109 0.0950472 -0.136655 163 91 0
0.629724 0.10033 -0.138097 166 88 0
0.628679 0.106038 -0.139428 168 86 0
0.628906 0.111945 -0.140565 170 84 0
0.631218 0.117384 -0.141119 173 81 0
0.636209 0.12075 -0.141318 175 79 0
0.641665 0.123274 -0.141232 177 77 0
0.647319 0.123855 -0.140512 179 75 0
0.652339 0.120658 -0.139594 182 72 0
0.657068 0.117262 -0.138194 184 70 0
0.65687 0.111367 -0.136974 186 68 0
0.654735 0.105992 -0.136039 188 66 0
0.650581 0.101664 -0.135834 191 63 0
0.644939 0.100232 -0.136282 193 61 0
0.639536 0.100992 -0.137118 195 59 0
0.634441 0.10299 -0.138649 198 56 0
0.631 0.107559 -0.140407 200 54 0
0.628924 0.112663 -0.142518 202 52 0
0.629053 0.11846 -0.144105 204 50 0
0.63045 0.12415 -0.145186 207 47 0
0.63484 0.12798 -0.146028 209 45 0
0.639511 0.131513 -0.146291 211 43 0
0.645085 0.133612 -0.145933 214 40 0
0.65053 0.132441 -0.144788 216 38 0
0.655507 0.12976 -0.14288 218 36 0
0.65694 0.124797 -0.141309 220 34 0
0.658431 0.120382 -0.139591 223 31 0
0.656778 0.115039 -0.138445 225 29 0
0.651779 0.11206 -0.137723 227 27 0
0.646495 0.109769 -0.13782 229 25 0
0.640769 0.109325 -0.13884 232 22 0
0.636014 0.112214 -0.140734 234 20 0
0.63174 0.115897 -0.142783 236 18 0
0.630508 0.120017 -0.145889 239 15 0
0.629306 0.125154 -0.148291 241 13 0
0.630721 0.129829 -0.150482 243 11 0
0.632586 0.133761 -0.152394 245 9 0
0.634755 0.13816 -0.153197 248 6 0
0.63864 0.139742 -0.153137 250 4 0
0.642948 0.141018 -0.152494 252 2 0
0.644854 0.142581 -0.152009 255 0 0
