ply
format ascii 1.0
comment Generated by robot_control PLYWriter
element vertex 11
property float x
property float y
property float z
property uchar red
property uchar green
property uchar blue
end_header
0.607232 0.0515074 -0.102662 0 255 0
0.607792 0.0465408 -0.101951 25 229 0
0.608128 0.0415503 -0.10125 51 204 0
0.608447 0.0365629 -0.100518 76 178 0
0.60877 0.0315742 -0.0997978 102 153 0
0.608925 0.0265772 -0.0991009 127 127 0
0.608896 0.0215752 -0.0984008 153 101 0
0.608865 0.0165704 -0.097722 178 76 0
0.608837 0.0115556 -0.0971223 204 50 0
0.608805 0.00653879 -0.0965392 229 25 0
0.608752 0.00152305 -0.095949 255 0 0
