ply
format ascii 1.0
comment Generated by robot_control PLYWriter
element vertex 98
property float x
property float y
property float z
property uchar red
property uchar green
property uchar blue
end_header
0.685484 -0.00984651 -0.112433 0 255 0
0.690977 -0.0115548 -0.112097 2 252 0
0.694792 -0.0148891 -0.11149 5 249 0
0.694669 -0.0206199 -0.110525 7 247 0
0.694475 -0.0249606 -0.108962 10 244 0
0.691033 -0.0294011 -0.107552 13 241 0
0.685929 -0.0317275 -0.106561 15 239 0
0.680098 -0.0322639 -0.106051 18 236 0
0.675188 -0.0297315 -0.106028 21 233 0
0.670849 -0.0268596 -0.106351 23 231 0
0.666897 -0.0225604 -0.107453 26 228 0
0.666007 -0.0170192 -0.108543 28 226 0
0.66461 -0.0117216 -0.109952 31 223 0
0.667395 -0.00672813 -0.111168 34 220 0
0.670675 -0.00296507 -0.112587 36 218 0
0.675504 0.000281212 -0.113764 39 215 0
0.680833 0.00246873 -0.114643 42 212 0
0.686665 0.00140018 -0.115045 44 210 0
0.691268 -0.0021917 -0.114738 47 207 0
0.695063 -0.00650614 -0.113891 49 205 0
0.695007 -0.0123323 -0.112666 52 202 0
0.691982 -0.0172677 -0.111412 55 199 0
0.686876 -0.0201506 -0.110521 57 197 0
0.680974 -0.0205612 -0.109897 60 194 0
0.674988 -0.0206157 -0.109842 63 191 0
0.670318 -0.0168897 -0.110247 65 189 0
0.666468 -0.0125294 -0.111129 68 186 0
0.665172 -0.00693453 -0.112165 70 184 0
0.666222 -0.00120633 -0.113487 73 181 0
0.667935 0.00430656 -0.114742 76 178 0
0.671163 0.00914232 -0.116133 78 176 0
0.676252 0.011992 -0.117379 81 173 0
0.681866 0.012166 -0.118062 84 170 0
0.687821 0.0117069 -0.118254 86 168 0
0.691754 0.00734214 -0.117839 89 165 0
0.694143 0.00209621 -0.116893 92 162 0
0.694108 -0.00358681 -0.115564 94 160 0
0.690812 -0.0083573 -0.1147 97 157 0
0.685772 -0.0112566 -0.113911 99 155 0
0.679873 -0.0108359 -0.113571 102 152 0
0.674256 -0.00999997 -0.113751 105 149 0
0.670046 -0.00575431 -0.114161 107 147 0
0.666557 -0.00128102 -0.114911 110 144 0
0.665605 0.00453081 -0.115895 113 141 0
0.665568 0.0100276 -0.117289 115 139 0
0.667538 0.0155614 -0.118489 118 136 0
0.671371 0.019179 -0.119819 120 134 0
0.676781 0.0214914 -0.120947 123 131 0
0.682372 0.0236061 -0.1214 126 128 0
0.68775 0.021381 -0.121578 128 126 0
0.692343 0.017568 -0.12107 131 123 0
0.694681 0.0122547 -0.12036 134 120 0
0.693998 0.00647744 -0.119443 136 118 0
0.690194 0.00223486 -0.11841 139 115 0
0.685093 -0.000839095 -0.117753 141 113 0
0.679271 -0.000376249 -0.117483 144 110 0
0.67373 0.00186094 -0.117527 147 107 0
0.668879 0.00533445 -0.118106 149 105 0
0.665653 0.00986929 -0.118889 152 102 0
0.665096 0.0156903 -0.119968 155 99 0
0.665196 0.0213741 -0.121756 157 97 0
0.667126 0.0269303 -0.122917 160 94 0
0.671259 0.0310617 -0.124173 162 92 0
0.676124 0.0337872 -0.125104 165 89 0
0.682084 0.0335347 -0.125589 168 86 0
0.687862 0.0321087 -0.125728 170 84 0
0.690824 0.0274525 -0.125435 173 81 0
0.694467 0.0228185 -0.124595 176 78 0
0.6935 0.0174464 -0.123591 178 76 0
0.689411 0.0134039 -0.122344 181 73 0
0.684894 0.00969439 -0.121502 184 70 0
0.679191 0.0104408 -0.121057 186 68 0
0.67374 0.0129201 -0.121171 189 65 0
0.668328 0.0154558 -0.121646 191 63 0
0.666124 0.0209295 -0.122626 194 60 0
0.66457 0.0263217 -0.124196 197 57 0
0.664133 0.0321929 -0.125304 199 55 0
0.667453 0.0368943 -0.126752 202 52 0
0.671133 0.0412936 -0.128423 205 49 0
0.676333 0.0435269 -0.129542 207 47 0
0.682272 0.0437396 -0.13019 210 44 0
0.68717 0.0416074 -0.130387 212 42 0
0.69137 0.0376577 -0.130062 215 39 0
0.692883 0.0332242 -0.128917 218 36 0
0.693912 0.0281229 -0.127598 220 34 0
0.690275 0.0238734 -0.125855 223 31 0
0.685573 0.0212638 -0.1242 226 28 0
0.680073 0.0198607 -0.123402 228 26 0
0.674558 0.0218508 -0.123208 231 23 0
0.669847 0.0247425 -0.123707 233 21 0
0.667142 0.0287494 -0.124973 236 18 0
0.664173 0.0334255 -0.12609 239 15 0
0.664306 0.0391362 -0.127769 241 13 0
0.664633 0.0447635 -0.129737 244 10 0
0.667687 0.0482468 -0.131464 247 7 0
0.670887 0.0511035 -0.133096 249 5 0
0.673081 0.0539748 -0.134035 252 2 0
0.678428 0.053559 -0.135066 255 0 0
