ply
format ascii 1.0
comment Generated by robot_control PLYWriter
element vertex 93
property float x
property float y
property float z
property uchar red
property uchar green
property uchar blue
end_header
0.696666 -0.0243016 -0.0400799 0 255 0
0.700828 -0.0261179 -0.0420844 2 252 0
0.704537 -0.0293332 -0.0441034 5 249 0
0.706246 -0.0340887 -0.0459975 8 246 0
0.70685 -0.0398772 -0.0470333 11 243 0
0.705097 -0.045246 -0.0467468 13 241 0
0.701251 -0.0490558 -0.0457898 16 238 0
0.696473 -0.0523713 -0.0446781 19 235 0
0.690701 -0.0522461 -0.0438047 22 232 0
0.684855 -0.0515345 -0.043004 24 230 0
0.680291 -0.0478375 -0.0420106 27 227 0
0.676161 -0.043815 -0.0408702 30 224 0
0.675003 -0.0380644 -0.0398073 33 221 0
0.672645 -0.0327459 -0.0389307 36 218 0
0.674368 -0.0270653 -0.0382712 38 216 0
0.677087 -0.0220633 -0.0375938 41 213 0
0.681579 -0.0182149 -0.0371342 44 210 0
0.68679 -0.0153104 -0.0372495 47 207 0
0.692405 -0.0148306 -0.0380621 49 205 0
0.697777 -0.0169117 -0.039404 52 202 0
0.70182 -0.020923 -0.0408559 55 199 0
0.70442 -0.026115 -0.0421716 58 196 0
0.704252 -0.0318238 -0.0430842 60 194 0
0.701281 -0.0369308 -0.0438095 63 191 0
0.696955 -0.0407042 -0.0440855 66 188 0
0.692127 -0.0436369 -0.0437484 69 185 0
0.686318 -0.0425547 -0.0430079 72 182 0
0.681169 -0.0411506 -0.0417083 74 180 0
0.677166 -0.0368884 -0.0404881 77 177 0
0.672988 -0.0327591 -0.0393869 80 174 0
0.670723 -0.0276812 -0.0386121 83 171 0
0.671539 -0.0219316 -0.038139 85 169 0
0.673585 -0.0163237 -0.0378713 88 166 0
0.676272 -0.0110377 -0.0375319 91 163 0
0.680303 -0.00664772 -0.0373719 94 160 0
0.686075 -0.00658026 -0.0375772 97 157 0
0.692015 -0.00646672 -0.0382035 99 155 0
0.697071 -0.00884388 -0.0393196 102 152 0
0.699389 -0.0142386 -0.040428 105 149 0
0.70162 -0.0196883 -0.0413397 108 146 0
0.701457 -0.0253377 -0.0415962 110 144 0
0.698008 -0.0300517 -0.0413074 113 141 0
0.692747 -0.0324636 -0.0405032 116 138 0
0.687362 -0.0345914 -0.0397787 119 135 0
0.681468 -0.0339145 -0.0392247 121 133 0
0.676064 -0.0316288 -0.0386531 124 130 0
0.672019 -0.027271 -0.0383958 127 127 0
0.668843 -0.0222572 -0.038481 130 124 0
0.668694 -0.0162946 -0.038876 133 121 0
0.668735 -0.0104168 -0.0394171 135 119 0
0.671774 -0.00532225 -0.0401199 138 116 0
0.674755 -0.000225901 -0.040671 141 113 0
0.679613 0.00301711 -0.0412573 144 110 0
0.685422 0.00345292 -0.041893 146 108 0
0.691072 0.00174811 -0.0424686 149 105 0
0.695524 -0.00199935 -0.0431663 152 102 0
0.698208 -0.00730222 -0.043259 155 99 0
0.698864 -0.0131084 -0.0421783 157 97 0
0.697831 -0.0185209 -0.04083 160 94 0
0.694099 -0.0228843 -0.0392571 163 91 0
0.688963 -0.0246044 -0.037881 166 88 0
0.683384 -0.0259384 -0.0365291 169 85 0
0.677701 -0.0245064 -0.0359829 171 83 0
0.672796 -0.0211716 -0.035789 174 80 0
0.668326 -0.0174789 -0.0364428 177 77 0
0.666405 -0.0119872 -0.0374981 180 74 0
0.666542 -0.00625278 -0.039143 182 72 0
0.666953 -0.000658883 -0.0410408 185 69 0
0.669667 0.00390154 -0.0432419 188 66 0
0.67266 0.00845252 -0.0456107 191 63 0
0.676957 0.0116057 -0.0480929 194 60 0
0.682467 0.0124056 -0.0502377 196 58 0
0.687887 0.0111024 -0.0513998 199 55 0
0.692817 0.00776558 -0.0513008 202 52 0
0.696292 0.00338092 -0.0492939 205 49 0
0.696123 -0.00182318 -0.0470145 207 47 0
0.69523 -0.00699367 -0.0441601 210 44 0
0.692475 -0.0109544 -0.0409541 213 41 0
0.688516 -0.0142384 -0.0379896 216 38 0
0.683527 -0.016582 -0.0360574 218 36 0
0.677802 -0.0165158 -0.0345359 221 33 0
0.672398 -0.0142208 -0.0339482 224 30 0
0.667925 -0.0102656 -0.0340352 227 27 0
0.664649 -0.00561303 -0.0350637 230 24 0
0.663819 -0.000481654 -0.0376022 232 22 0
0.663098 0.00449361 -0.0403489 235 19 0
0.663073 0.00766504 -0.0445287 238 16 0
0.66495 0.0126585 -0.0465217 241 13 0
0.667556 0.0147058 -0.0507029 243 11 0
0.670321 0.0173085 -0.0544428 246 8 0
0.674069 0.0194969 -0.0569813 249 5 0
0.676696 0.0218387 -0.0588977 252 2 0
0.67916 0.0220973 -0.0594576 255 0 0
