ply
format ascii 1.0
comment Generated by robot_control PLYWriter
element vertex 31
property float x
property float y
property float z
property uchar red
property uchar green
property uchar blue
end_header
0.596196 0.0840456 -0.138767 0 255 0
0.600592 0.0814041 -0.136688 8 246 0
0.604798 0.0781493 -0.134275 17 238 0
0.606683 0.0727031 -0.132704 25 229 0
0.60657 0.0667679 -0.131433 34 221 0
0.604926 0.061082 -0.130694 42 212 0
0.60105 0.05642 -0.130747 51 204 0
0.595323 0.0549604 -0.131639 59 195 0
0.589426 0.055758 -0.132628 68 187 0
0.585605 0.059894 -0.133933 76 178 0
0.585097 0.0657256 -0.13523 85 169 0
0.586268 0.071593 -0.135942 93 161 0
0.589615 0.0766153 -0.136031 102 153 0
0.594915 0.0794076 -0.135791 110 144 0
0.600219 0.0822175 -0.135134 119 135 0
0.606163 0.0814189 -0.134084 127 127 0
0.611664 0.0796049 -0.132899 136 118 0
0.615634 0.0754203 -0.131518 144 110 0
0.617847 0.0699844 -0.129921 153 101 0
0.617988 0.0640842 -0.128724 161 93 0
0.616199 0.0588113 -0.127745 170 84 0
0.612115 0.0543201 -0.12741 178 76 0
0.606788 0.0530275 -0.127669 187 67 0
0.60107 0.0536705 -0.128486 195 59 0
0.596747 0.057366 -0.130108 204 50 0
0.595881 0.0629615 -0.131479 212 42 0
0.596635 0.0682572 -0.132765 221 33 0
0.59882 0.0736259 -0.133836 229 25 0
0.603032 0.0778292 -0.134245 238 16 0
0.608387 0.0792097 -0.134143 246 8 0
0.613402 0.080522 -0.133436 255 0 0
