ply
format ascii 1.0
comment Generated by robot_control PLYWriter
element vertex 44
property float x
property float y
property float z
property uchar red
property uchar green
property uchar blue
end_header
0.603854 0.0997356 -0.146375 0 255 0
0.607225 0.0970854 -0.144283 5 249 0
0.612157 0.095476 -0.142569 11 243 0
0.615056 0.0915898 -0.140817 17 237 0
0.615224 0.0858892 -0.139315 23 231 0
0.613693 0.0806199 -0.138241 29 225 0
0.609621 0.0762482 -0.137611 35 219 0
0.60452 0.0731654 -0.137507 41 213 0
0.599345 0.0701592 -0.138082 47 207 0
0.59397 0.0710082 -0.139367 53 201 0
0.589286 0.0742558 -0.141224 59 195 0
0.585322 0.0781072 -0.142837 65 189 0
0.58546 0.0837952 -0.144105 71 183 0
0.588636 0.0886748 -0.144874 77 177 0
0.593158 0.0924465 -0.144806 83 171 0
0.598758 0.0930203 -0.144113 88 166 0
0.604074 0.0909005 -0.142662 94 160 0
0.607446 0.0864275 -0.140774 100 154 0
0.608484 0.0808412 -0.139238 106 148 0
0.606817 0.0752243 -0.138183 112 142 0
0.602255 0.0714147 -0.137742 118 136 0
0.598435 0.0673139 -0.137837 124 130 0
0.592542 0.0664217 -0.138453 130 124 0
0.586707 0.0666802 -0.139757 136 118 0
0.581448 0.0692032 -0.140957 142 112 0
0.578743 0.0742675 -0.14253 148 106 0
0.580106 0.0795773 -0.143606 154 100 0
0.582651 0.0843996 -0.144243 160 94 0
0.58791 0.0872779 -0.144215 166 88 0
0.593596 0.0872106 -0.143521 171 83 0
0.598175 0.0840356 -0.141861 177 77 0
0.60066 0.0795886 -0.139734 183 71 0
0.601792 0.0743673 -0.138437 189 65 0
0.599642 0.0692465 -0.13697 195 59 0
0.595295 0.0652019 -0.136494 201 53 0
0.590455 0.0616916 -0.136328 207 47 0
0.58464 0.0612451 -0.136867 213 41 0
0.578883 0.06203 -0.13824 219 35 0
0.574146 0.0649263 -0.140156 225 29 0
0.573271 0.0698706 -0.14305 231 23 0
0.573181 0.0753314 -0.145527 237 17 0
0.576269 0.0793449 -0.1473 243 11 0
0.580275 0.081569 -0.14759 249 5 0
0.585021 0.0826914 -0.146683 255 0 0
