ply
format ascii 1.0
comment Generated by robot_control PLYWriter
element vertex 11
property float x
property float y
property float z
property uchar red
property uchar green
property uchar blue
end_header
0.626478 -0.354464 -0.0187014 0 255 0
0.625911 -0.349726 -0.019533 25 229 0
0.625611 -0.34495 -0.0202822 51 204 0
0.625384 -0.340152 -0.0209214 76 178 0
0.625116 -0.335349 -0.0214901 102 153 0
0.624607 -0.330549 -0.0219204 127 127 0
0.624091 -0.325739 -0.0221818 153 101 0
0.623762 -0.320907 -0.0222405 178 76 0
0.623468 -0.316075 -0.0220746 204 50 0
0.623087 -0.311251 -0.0218416 229 25 0
0.622422 -0.30647 -0.0214441 255 0 0
