ply
format ascii 1.0
comment Generated by robot_control PLYWriter
element vertex 10
property float x
property float y
property float z
property uchar red
property uchar green
property uchar blue
end_header
0.516119 -0.347896 -0.111662 0 255 0
0.515186 -0.352829 -0.110271 28 226 0
0.514372 -0.357837 -0.109065 56 198 0
0.513088 -0.362824 -0.108254 85 169 0
0.512162 -0.367943 -0.107872 113 141 0
0.510989 -0.373024 -0.107914 141 113 0
0.510033 -0.378121 -0.108403 170 84 0
0.508627 -0.382945 -0.109786 198 56 0
0.50767 -0.387757 -0.111557 226 28 0
0.506626 -0.392396 -0.113684 255 0 0
