ply
format ascii 1.0
comment Generated by robot_control PLYWriter
element vertex 14
property float x
property float y
property float z
property uchar red
property uchar green
property uchar blue
end_header
0.689238 -0.382723 -0.0737343 0 255 0
0.693236 -0.385542 -0.0742486 19 235 0
0.696673 -0.390513 -0.0743997 39 215 0
0.695111 -0.396339 -0.0740526 58 196 0
0.692677 -0.401642 -0.0732731 78 176 0
0.687053 -0.403584 -0.0721092 98 156 0
0.681374 -0.404488 -0.0705845 117 137 0
0.675897 -0.402192 -0.069288 137 117 0
0.671711 -0.398468 -0.0679311 156 98 0
0.669022 -0.393044 -0.0671358 176 78 0
0.670885 -0.38758 -0.0666439 196 58 0
0.675102 -0.383603 -0.0668097 215 39 0
0.680014 -0.380946 -0.0676084 235 19 0
0.684861 -0.380511 -0.0695928 255 0 0
