ply
format ascii 1.0
comment Generated by robot_control PLYWriter
element vertex 73
property float x
property float y
property float z
property uchar red
property uchar green
property uchar blue
end_header
0.61896 -0.106606 -0.108932 0 255 0
0.623807 -0.10817 -0.108745 3 251 0
0.626383 -0.110675 -0.108884 7 247 0
0.626913 -0.116017 -0.109506 10 244 0
0.623302 -0.119973 -0.11047 14 240 0
0.618777 -0.122778 -0.111494 17 237 0
0.613327 -0.121043 -0.111987 21 233 0
0.608477 -0.118634 -0.112232 24 230 0
0.606241 -0.113855 -0.112037 28 226 0
0.605205 -0.108398 -0.111556 31 223 0
0.607625 -0.103361 -0.110681 35 219 0
0.609045 -0.0981225 -0.110032 38 216 0
0.614247 -0.0953211 -0.10929 42 212 0
0.619574 -0.0961347 -0.108557 46 208 0
0.62478 -0.0983336 -0.1082 49 205 0
0.626836 -0.103688 -0.10842 53 201 0
0.625025 -0.108947 -0.108918 56 198 0
0.620403 -0.110762 -0.109422 60 194 0
0.615814 -0.112736 -0.110025 63 191 0
0.610783 -0.109522 -0.110231 67 187 0
0.607663 -0.104997 -0.110203 70 184 0
0.60595 -0.099451 -0.109882 74 180 0
0.606847 -0.0936209 -0.109374 77 177 0
0.60956 -0.0886693 -0.108711 81 173 0
0.614802 -0.0865742 -0.108198 85 169 0
0.620729 -0.0865963 -0.107567 88 166 0
0.625496 -0.0893849 -0.107292 92 162 0
0.626789 -0.094827 -0.107453 95 159 0
0.624159 -0.0996774 -0.108159 99 155 0
0.618861 -0.102211 -0.108643 102 152 0
0.613738 -0.10009 -0.108829 106 148 0
0.60896 -0.0966243 -0.108728 109 145 0
0.606808 -0.0915206 -0.108361 113 141 0
0.606831 -0.0855683 -0.107888 116 138 0
0.609648 -0.080628 -0.107267 120 134 0
0.614175 -0.076812 -0.106592 123 131 0
0.619902 -0.0763011 -0.106116 127 127 0
0.625296 -0.0781357 -0.105854 131 123 0
0.628302 -0.0831521 -0.106046 134 120 0
0.626976 -0.0887104 -0.106477 138 116 0
0.622021 -0.0916446 -0.106955 141 113 0
0.616312 -0.0916364 -0.107244 145 109 0
0.610982 -0.0889926 -0.107245 148 106 0
0.608252 -0.0837393 -0.106953 152 102 0
0.607062 -0.0779962 -0.106549 155 99 0
0.608356 -0.0725936 -0.106024 159 95 0
0.612394 -0.0682406 -0.105477 162 92 0
0.617429 -0.0650855 -0.104894 166 88 0
0.621897 -0.0667906 -0.1045 170 84 0
0.62681 -0.0689819 -0.104435 173 81 0
0.628204 -0.0746832 -0.104682 177 77 0
0.62616 -0.0800737 -0.105173 180 74 0
0.621084 -0.0826206 -0.105637 184 70 0
0.615363 -0.081298 -0.105933 187 67 0
0.610746 -0.0786552 -0.106148 191 63 0
0.607793 -0.0737071 -0.106038 194 60 0
0.606682 -0.0682884 -0.105821 198 56 0
0.608304 -0.06297 -0.105437 201 53 0
0.612359 -0.0586287 -0.104844 205 49 0
0.617409 -0.0564037 -0.10439 208 46 0
0.623121 -0.0560406 -0.103846 212 42 0
0.627627 -0.0599018 -0.103581 216 38 0
0.628162 -0.0656609 -0.103647 219 35 0
0.625615 -0.0699957 -0.103955 223 31 0
0.620752 -0.0723437 -0.104349 226 28 0
0.614788 -0.072331 -0.104678 230 24 0
0.611592 -0.0691897 -0.105034 233 21 0
0.609054 -0.0642806 -0.105402 237 17 0
0.606606 -0.0597334 -0.105555 240 14 0
0.609191 -0.0549352 -0.105489 244 10 0
0.610809 -0.0505832 -0.105107 247 7 0
0.614637 -0.0475349 -0.10486 251 3 0
0.618638 -0.0459011 -0.104606 255 0 0
