ply
format ascii 1.0
comment Generated by robot_control PLYWriter
element vertex 9
property float x
property float y
property float z
property uchar red
property uchar green
property uchar blue
end_header
0.514913 -0.157212 -0.143771 0 255 0
0.513808 -0.161954 -0.143292 31 223 0
0.512503 -0.166639 -0.142743 63 191 0
0.511481 -0.171379 -0.14209 95 159 0
0.510571 -0.176123 -0.141305 127 127 0
0.509586 -0.180834 -0.140421 159 95 0
0.508482 -0.185512 -0.139495 191 63 0
0.507457 -0.190202 -0.138544 223 31 0
0.506616 -0.194915 -0.13753 255 0 0
