ply
format ascii 1.0
comment Generated by robot_control PLYWriter
element vertex 10
property float x
property float y
property float z
property uchar red
property uchar green
property uchar blue
end_header
0.599203 -0.397258 -0.111243 0 255 0
0.599643 -0.392489 -0.112976 28 226 0
0.599853 -0.387506 -0.114011 56 198 0
0.600101 -0.382483 -0.114811 85 169 0
0.600355 -0.377417 -0.115272 113 141 0
0.600552 -0.37233 -0.115354 141 113 0
0.600656 -0.367251 -0.115016 170 84 0
0.600864 -0.362206 -0.114351 198 56 0
0.601167 -0.357201 -0.113453 226 28 0
0.601487 -0.352203 -0.112522 255 0 0
