ply
format ascii 1.0
comment Generated by robot_control PLYWriter
element vertex 11
property float x
property float y
property float z
property uchar red
property uchar green
property uchar blue
end_header
0.561256 -0.418962 -0.098046 0 255 0
0.561997 -0.414174 -0.0962477 25 229 0
0.5628 -0.409427 -0.0943407 51 204 0
0.563481 -0.404695 -0.0923525 76 178 0
0.564359 -0.399897 -0.0906208 102 153 0
0.565113 -0.39492 -0.089451 127 127 0
0.566097 -0.389941 -0.0900522 153 101 0
0.566903 -0.385461 -0.0924012 178 76 0
0.567602 -0.381269 -0.0953532 204 50 0
0.568235 -0.377281 -0.0985866 229 25 0
0.568966 -0.373824 -0.102364 255 0 0
