ply
format ascii 1.0
comment Generated by robot_control PLYWriter
element vertex 90
property float x
property float y
property float z
property uchar red
property uchar green
property uchar blue
end_header
0.626172 0.058532 -0.119037 0 255 0
0.630656 0.0564145 -0.117645 2 252 0
0.633057 0.0525956 -0.116033 5 249 0
0.635102 0.0479064 -0.114741 8 246 0
0.632773 0.0434963 -0.114024 11 243 0
0.629664 0.0391267 -0.114176 14 240 0
0.624522 0.0377987 -0.115197 17 237 0
0.618935 0.0377367 -0.116495 20 234 0
0.614094 0.039911 -0.11811 22 232 0
0.610737 0.0444804 -0.119849 25 229 0
0.608924 0.0493118 -0.121264 28 226 0
0.60797 0.0550862 -0.122204 31 223 0
0.608974 0.0605198 -0.123167 34 220 0
0.612679 0.0650641 -0.123516 37 217 0
0.617179 0.0678807 -0.123468 40 214 0
0.622159 0.0701264 -0.12287 42 212 0
0.627681 0.068666 -0.122123 45 209 0
0.63171 0.0655366 -0.120699 48 206 0
0.634756 0.0609847 -0.119412 51 203 0
0.634864 0.0552458 -0.11817 54 200 0
0.631176 0.0508484 -0.117727 57 197 0
0.626298 0.0495349 -0.117927 60 194 0
0.620825 0.0481525 -0.118753 63 191 0
0.615376 0.0498268 -0.120163 65 189 0
0.611347 0.0536456 -0.121302 68 186 0
0.608643 0.0588125 -0.122582 71 183 0
0.608063 0.0644604 -0.124048 74 180 0
0.608764 0.0701476 -0.12496 77 177 0
0.612308 0.0748595 -0.125822 80 174 0
0.617258 0.0778619 -0.126099 83 171 0
0.623098 0.0788446 -0.125819 85 169 0
0.628968 0.0783484 -0.125056 88 166 0
0.633558 0.0750454 -0.124033 91 163 0
0.634249 0.0693879 -0.1229 94 160 0
0.633139 0.0636876 -0.122293 97 157 0
0.629118 0.0594063 -0.122043 100 154 0
0.623259 0.0585369 -0.122215 103 151 0
0.617366 0.0592784 -0.122816 106 148 0
0.613138 0.06303 -0.123637 108 146 0
0.610091 0.0679031 -0.12495 111 143 0
0.608196 0.0728127 -0.126197 114 140 0
0.609881 0.0781471 -0.127258 117 137 0
0.612083 0.0835083 -0.128239 120 134 0
0.61553 0.0882244 -0.128559 123 131 0
0.621132 0.0901387 -0.128654 126 128 0
0.627034 0.0900854 -0.128389 128 126 0
0.631124 0.0864795 -0.127842 131 123 0
0.634542 0.0822036 -0.127097 134 120 0
0.634046 0.0763847 -0.126245 137 117 0
0.631491 0.0710045 -0.125845 140 114 0
0.626143 0.0698438 -0.125813 143 111 0
0.620197 0.0701563 -0.12616 146 108 0
0.61467 0.0712232 -0.126873 148 106 0
0.610849 0.0755986 -0.127872 151 103 0
0.608232 0.0806464 -0.12902 154 100 0
0.608286 0.0865456 -0.129937 157 97 0
0.609609 0.0919895 -0.130791 160 94 0
0.61377 0.0961938 -0.131456 163 91 0
0.618892 0.0991083 -0.13189 166 88 0
0.624632 0.100573 -0.131891 169 85 0
0.630167 0.0988359 -0.131453 171 83 0
0.634156 0.0948552 -0.130595 174 80 0
0.634716 0.0890801 -0.129756 177 77 0
0.633015 0.0837478 -0.128957 180 74 0
0.628245 0.0813107 -0.12864 183 71 0
0.623062 0.0788775 -0.12873 186 68 0
0.617274 0.0797106 -0.129191 189 65 0
0.613762 0.0840411 -0.130029 191 63 0
0.610354 0.0886429 -0.131215 194 60 0
0.608328 0.0939481 -0.132322 197 57 0
0.610044 0.0993344 -0.13357 200 54 0
0.612049 0.104119 -0.134664 203 51 0
0.615437 0.108813 -0.135266 206 48 0
0.621213 0.110294 -0.135494 209 45 0
0.627117 0.10997 -0.135226 212 42 0
0.632232 0.108877 -0.134539 214 40 0
0.63509 0.103717 -0.133777 217 37 0
0.635759 0.0990441 -0.13252 220 34 0
0.633946 0.0940953 -0.131505 223 31 0
0.628745 0.0917895 -0.130949 226 28 0
0.623759 0.0896902 -0.130936 229 25 0
0.618268 0.091652 -0.13141 232 22 0
0.613963 0.0948841 -0.13251 234 20 0
0.610091 0.0991973 -0.133881 237 17 0
0.608812 0.10446 -0.135514 240 14 0
0.610076 0.108489 -0.137003 243 11 0
0.612038 0.113185 -0.138192 246 8 0
0.614906 0.117315 -0.139073 249 5 0
0.618557 0.119755 -0.139677 252 2 0
0.622826 0.121392 -0.139971 255 0 0
