ply
format ascii 1.0
comment Generated by robot_control PLYWriter
element vertex 30
property float x
property float y
property float z
property uchar red
property uchar green
property uchar blue
end_header
0.562485 0.103853 -0.157164 0 255 0
0.56526 0.100421 -0.155326 8 246 0
0.567783 0.0970682 -0.152997 17 237 0
0.56757 0.0919423 -0.151521 26 228 0
0.56552 0.0869409 -0.149996 35 219 0
0.561197 0.0834337 -0.149367 43 211 0
0.556321 0.0802618 -0.149319 52 202 0
0.55058 0.0797754 -0.149794 61 193 0
0.544997 0.0814281 -0.15056 70 184 0
0.540171 0.0833426 -0.151978 79 175 0
0.537078 0.0881472 -0.153255 87 167 0
0.535152 0.0932105 -0.154668 96 158 0
0.535256 0.0988037 -0.156109 105 149 0
0.539266 0.103009 -0.157143 114 140 0
0.544491 0.105623 -0.157565 123 131 0
0.550318 0.10594 -0.157169 131 123 0
0.555023 0.103265 -0.156098 140 114 0
0.556636 0.0977553 -0.155096 149 105 0
0.556774 0.0919387 -0.154044 158 96 0
0.552751 0.0879851 -0.153345 167 87 0
0.547768 0.084894 -0.152708 175 79 0
0.542333 0.0825923 -0.152629 184 70 0
0.536895 0.0836012 -0.153106 193 61 0
0.531476 0.0840134 -0.15428 202 52 0
0.527425 0.0880961 -0.155526 211 43 0
0.525033 0.0928013 -0.157548 219 35 0
0.524421 0.0982802 -0.159174 228 26 0
0.526451 0.103172 -0.160863 237 17 0
0.529958 0.106259 -0.161521 246 8 0
0.53467 0.10824 -0.161833 255 0 0
