ply
format ascii 1.0
comment Generated by robot_control PLYWriter
element vertex 65
property float x
property float y
property float z
property uchar red
property uchar green
property uchar blue
end_header
0.62436 0.0420858 -0.1048 0 255 0
0.627944 0.0397216 -0.104614 3 251 0
0.630569 0.0353262 -0.10457 7 247 0
0.633055 0.0304933 -0.104619 11 243 0
0.633043 0.0245247 -0.104653 15 239 0
0.63304 0.0185565 -0.104588 19 235 0
0.630498 0.013236 -0.104536 23 231 0
0.625308 0.0103097 -0.104467 27 227 0
0.620574 0.00745884 -0.104471 31 223 0
0.614607 0.00752045 -0.104553 35 219 0
0.609208 0.00899907 -0.104737 39 215 0
0.604739 0.01294 -0.104906 43 211 0
0.604318 0.0186969 -0.105074 47 207 0
0.605049 0.0243696 -0.105113 51 203 0
0.60888 0.0289278 -0.105084 55 199 0
0.614154 0.0313479 -0.105044 59 195 0
0.620103 0.0316856 -0.104929 63 191 0
0.625347 0.028886 -0.104684 67 187 0
0.629699 0.0251352 -0.104224 71 183 0
0.632308 0.0197975 -0.103897 75 179 0
0.632987 0.0139858 -0.103614 79 175 0
0.632907 0.00802227 -0.103392 83 171 0
0.630621 0.00266293 -0.103293 87 167 0
0.6257 -0.000708611 -0.103233 91 163 0
0.620623 -0.00328218 -0.103179 95 159 0
0.614664 -0.00304141 -0.10322 99 155 0
0.608972 -0.00139091 -0.103423 103 151 0
0.605561 0.00348901 -0.103839 107 147 0
0.6043 0.00903659 -0.104221 111 143 0
0.605158 0.0147711 -0.10457 115 139 0
0.609125 0.0189611 -0.104705 119 135 0
0.614738 0.0207758 -0.104653 123 131 0
0.620267 0.0196823 -0.104371 127 127 0
0.625746 0.0174944 -0.103977 131 123 0
0.630283 0.01363 -0.103643 135 119 0
0.632944 0.00857486 -0.103043 139 115 0
0.632838 0.00262765 -0.102564 143 111 0
0.63204 -0.0032374 -0.102239 147 107 0
0.629742 -0.00863538 -0.101933 151 103 0
0.624844 -0.0117097 -0.101763 155 99 0
0.619388 -0.01413 -0.101724 159 95 0
0.613583 -0.0141982 -0.101898 163 91 0
0.60829 -0.0115282 -0.102278 167 87 0
0.604726 -0.00692255 -0.102707 171 83 0
0.604265 -0.00112469 -0.103285 175 79 0
0.606052 0.00424002 -0.103693 179 75 0
0.610213 0.00848272 -0.103871 183 71 0
0.615613 0.00988885 -0.103694 187 67 0
0.621386 0.00949692 -0.103266 191 63 0
0.626576 0.00658915 -0.102799 195 59 0
0.630478 0.00226373 -0.102296 199 55 0
0.632814 -0.00316545 -0.101758 203 51 0
0.632743 -0.00911133 -0.101242 207 47 0
0.631691 -0.0148605 -0.100725 211 43 0
0.628203 -0.0195765 -0.100358 215 39 0
0.624238 -0.0237296 -0.100291 219 35 0
0.6187 -0.0254378 -0.100444 223 31 0
0.613218 -0.0257151 -0.100795 227 27 0
0.608439 -0.0229706 -0.101287 231 23 0
0.604709 -0.0190808 -0.101899 235 19 0
0.604193 -0.013262 -0.102372 239 15 0
0.604444 -0.00747874 -0.102889 243 11 0
0.608229 -0.00365135 -0.10308 247 7 0
0.612745 -0.000712821 -0.103051 251 3 0
0.618566 -0.000652262 -0.102803 255 0 0
