ply
format ascii 1.0
comment Generated by robot_control PLYWriter
element vertex 8
property float x
property float y
property float z
property uchar red
property uchar green
property uchar blue
end_header
0.702507 -0.0791045 -0.0827981 0 255 0
0.702594 -0.0738858 -0.0832501 36 218 0
0.70271 -0.0686792 -0.0838219 72 182 0
0.702858 -0.0634956 -0.0845649 109 145 0
0.70289 -0.0583423 -0.0854988 145 109 0
0.70326 -0.053255 -0.0866933 182 72 0
0.703647 -0.048228 -0.0881179 218 36 0
0.703989 -0.0432422 -0.0896912 255 0 0
