ply
format ascii 1.0
comment Generated by robot_control PLYWriter
element vertex 15
property float x
property float y
property float z
property uchar red
property uchar green
property uchar blue
end_header
0.664571 -0.0448758 -0.0391043 0 255 0
0.664664 -0.0496549 -0.0383904 18 236 0
0.665085 -0.0544039 -0.0376062 36 218 0
0.66529 -0.0591987 -0.0370495 54 200 0
0.665466 -0.0639489 -0.0361941 72 182 0
0.665692 -0.0686543 -0.0351172 91 163 0
0.665926 -0.0733387 -0.0339509 109 145 0
0.666163 -0.0780224 -0.032782 127 127 0
0.666381 -0.0827048 -0.0316048 145 109 0
0.66657 -0.0873786 -0.0303889 163 91 0
0.666755 -0.0920449 -0.0291432 182 72 0
0.666952 -0.0967123 -0.0279043 200 54 0
0.667148 -0.101389 -0.0267006 218 36 0
0.667342 -0.106071 -0.0255198 236 18 0
0.66752 -0.110743 -0.0242939 255 0 0
