ply
format ascii 1.0
comment Generated by robot_control PLYWriter
element vertex 10
property float x
property float y
property float z
property uchar red
property uchar green
property uchar blue
end_header
0.603941 -0.326231 -0.0835943 0 255 0
0.604127 -0.321421 -0.0855085 28 226 0
0.604319 -0.31638 -0.0866862 56 198 0
0.604475 -0.311337 -0.0878579 85 169 0
0.604548 -0.306203 -0.0885343 113 141 0
0.604657 -0.301028 -0.0886332 141 113 0
0.604684 -0.295859 -0.0882323 170 84 0
0.604696 -0.290706 -0.0876562 198 56 0
0.604687 -0.285557 -0.0870363 226 28 0
0.604696 -0.280418 -0.0863382 255 0 0
