ply
format ascii 1.0
comment Generated by robot_control PLYWriter
element vertex 30
property float x
property float y
property float z
property uchar red
property uchar green
property uchar blue
end_header
0.718895 0.133793 -0.147609 0 255 0
0.723448 0.132092 -0.146762 8 246 0
0.727075 0.127978 -0.14543 17 237 0
0.729893 0.124071 -0.143498 26 228 0
0.730721 0.118433 -0.141877 35 219 0
0.7294 0.112995 -0.140037 43 211 0
0.725002 0.109438 -0.138438 52 202 0
0.720381 0.106097 -0.137292 61 193 0
0.715607 0.108195 -0.137079 70 184 0
0.709996 0.108274 -0.137371 79 175 0
0.707737 0.113727 -0.138179 87 167 0
0.707553 0.119322 -0.139651 96 158 0
0.71052 0.123779 -0.14083 105 149 0
0.716034 0.125771 -0.141574 114 140 0
0.72196 0.126232 -0.14198 123 131 0
0.727249 0.124766 -0.142076 131 123 0
0.732068 0.121332 -0.141635 140 114 0
0.736326 0.11722 -0.140948 149 105 0
0.737944 0.111854 -0.139604 158 96 0
0.737564 0.106077 -0.138226 167 87 0
0.734365 0.102009 -0.136869 175 79 0
0.731055 0.0975714 -0.135618 184 70 0
0.725222 0.0969327 -0.134584 193 61 0
0.719668 0.0985428 -0.134122 202 52 0
0.716049 0.102724 -0.134364 211 43 0
0.715252 0.107942 -0.135628 219 35 0
0.717196 0.112404 -0.137438 228 26 0
0.720852 0.115849 -0.13891 237 17 0
0.725697 0.118301 -0.140391 246 8 0
0.730749 0.118714 -0.141727 255 0 0
