ply
format ascii 1.0
comment Generated by robot_control PLYWriter
element vertex 8
property float x
property float y
property float z
property uchar red
property uchar green
property uchar blue
end_header
0.588304 -0.240665 -0.0421256 0 255 0
0.588088 -0.236066 -0.0430937 36 218 0
0.587809 -0.231435 -0.0439477 72 182 0
0.587563 -0.226768 -0.0445636 109 145 0
0.587305 -0.22207 -0.0448597 145 109 0
0.587042 -0.217359 -0.0448902 182 72 0
0.586832 -0.212647 -0.0448171 218 36 0
0.586829 -0.20793 -0.0447662 255 0 0
