ply
format ascii 1.0
comment Generated by robot_control PLYWriter
element vertex 12
property float x
property float y
property float z
property uchar red
property uchar green
property uchar blue
end_header
0.588383 -0.0746464 -0.123506 0 255 0
0.589069 -0.0796664 -0.124262 23 231 0
0.589491 -0.0847241 -0.124955 46 208 0
0.589846 -0.0898 -0.12555 69 185 0
0.590199 -0.0948854 -0.126058 92 162 0
0.59055 -0.09998 -0.126464 115 139 0
0.590857 -0.105085 -0.126749 139 115 0
0.591142 -0.110198 -0.126854 162 92 0
0.591493 -0.115308 -0.12676 185 69 0
0.591848 -0.120413 -0.126532 208 46 0
0.592203 -0.125516 -0.126248 231 23 0
0.592886 -0.130583 -0.125968 255 0 0
