ply
format ascii 1.0
comment Generated by robot_control PLYWriter
element vertex 9
property float x
property float y
property float z
property uchar red
property uchar green
property uchar blue
end_header
0.533018 -0.241136 -0.118839 0 255 0
0.533455 -0.236322 -0.120161 31 223 0
0.534256 -0.231509 -0.121303 63 191 0
0.535037 -0.226721 -0.122569 95 159 0
0.535598 -0.221943 -0.123973 127 127 0
0.536045 -0.217165 -0.125431 159 95 0
0.536588 -0.212395 -0.126872 191 63 0
0.537312 -0.207647 -0.128305 223 31 0
0.537518 -0.202925 -0.129979 255 0 0
