ply
format ascii 1.0
comment Generated by robot_control PLYWriter
element vertex 48
property float x
property float y
property float z
property uchar red
property uchar green
property uchar blue
end_header
0.569787 0.0928582 -0.15592 0 255 0
0.574629 0.0919521 -0.152941 5 249 0
0.577402 0.0881787 -0.149981 10 244 0
0.579911 0.084042 -0.147314 16 238 0
0.580661 0.0790316 -0.145055 21 233 0
0.579441 0.0743411 -0.143588 27 227 0
0.577009 0.0699476 -0.143119 32 222 0
0.572564 0.0660574 -0.14381 37 217 0
0.567463 0.0633657 -0.14537 43 211 0
0.562654 0.0652346 -0.147672 48 206 0
0.55875 0.0682069 -0.150126 54 200 0
0.556725 0.0733332 -0.152235 59 195 0
0.557634 0.0790084 -0.153162 65 189 0
0.561207 0.0835023 -0.153422 70 184 0
0.56599 0.0870423 -0.152891 75 179 0
0.571046 0.0893171 -0.151327 81 173 0
0.576779 0.0898084 -0.149789 86 168 0
0.581824 0.0891868 -0.147646 92 162 0
0.58557 0.0850779 -0.145586 97 157 0
0.588123 0.0801473 -0.143465 103 151 0
0.588407 0.0745352 -0.141527 108 146 0
0.587863 0.0687344 -0.140465 113 141 0
0.584298 0.0645512 -0.139971 119 135 0
0.578806 0.0622811 -0.140465 124 130 0
0.573215 0.0605173 -0.141598 130 124 0
0.568416 0.0630221 -0.143835 135 119 0
0.566004 0.0682599 -0.145278 141 113 0
0.565252 0.0737713 -0.146391 146 108 0
0.568052 0.0789604 -0.146964 151 103 0
0.572068 0.0833406 -0.147018 157 97 0
0.577519 0.0854074 -0.146294 162 92 0
0.583295 0.0866763 -0.14538 168 86 0
0.588478 0.0862962 -0.143147 173 81 0
0.593309 0.0833674 -0.141207 179 75 0
0.596291 0.0789211 -0.139375 184 70 0
0.596744 0.0734798 -0.13709 189 65 0
0.596738 0.0676558 -0.135739 195 59 0
0.594699 0.0623383 -0.134671 200 54 0
0.589482 0.0594127 -0.134692 206 48 0
0.583928 0.0577185 -0.135393 211 43 0
0.578612 0.0588309 -0.137098 217 37 0
0.574969 0.0628507 -0.139025 222 32 0
0.573119 0.0677924 -0.141229 227 27 0
0.574997 0.0730458 -0.142693 233 21 0
0.578247 0.0776616 -0.143625 238 16 0
0.582364 0.0805738 -0.143685 244 10 0
0.586633 0.0832851 -0.143048 249 5 0
0.591733 0.0829785 -0.141776 255 0 0
