ply
format ascii 1.0
comment Generated by robot_control PLYWriter
element vertex 12
property float x
property float y
property float z
property uchar red
property uchar green
property uchar blue
end_header
0.682475 0.0124661 -0.111564 0 255 0
0.681996 0.0171627 -0.112881 23 231 0
0.681298 0.0217916 -0.11434 46 208 0
0.680614 0.0264267 -0.115797 69 185 0
0.679952 0.0310482 -0.117304 92 162 0
0.679471 0.0356593 -0.118909 115 139 0
0.6793 0.0402728 -0.12057 139 115 0
0.678797 0.0448689 -0.12221 162 92 0
0.67823 0.0494791 -0.123791 185 69 0
0.677829 0.0541106 -0.125357 208 46 0
0.677622 0.0587403 -0.126965 231 23 0
0.67719 0.0634082 -0.128399 255 0 0
