ply
format ascii 1.0
comment Generated by robot_control PLYWriter
element vertex 10
property float x
property float y
property float z
property uchar red
property uchar green
property uchar blue
end_header
0.675566 -0.223619 -0.0148385 0 255 0
0.675232 -0.218473 -0.0144474 28 226 0
0.674536 -0.213359 -0.0141519 56 198 0
0.673986 -0.208223 -0.0138636 85 169 0
0.673449 -0.203085 -0.0135996 113 141 0
0.672932 -0.197942 -0.0134346 141 113 0
0.672389 -0.192798 -0.013406 170 84 0
0.671702 -0.187673 -0.0134688 198 56 0
0.671173 -0.182532 -0.0135418 226 28 0
0.670382 -0.177431 -0.0138095 255 0 0
