ply
format ascii 1.0
comment Generated by robot_control PLYWriter
element vertex 49
property float x
property float y
property float z
property uchar red
property uchar green
property uchar blue
end_header
0.594201 0.0833191 -0.139742 0 255 0
0.597625 0.0819632 -0.138292 5 249 0
0.600072 0.0784049 -0.135996 10 244 0
0.602371 0.0748661 -0.134432 15 239 0
0.601318 0.0692198 -0.133377 21 233 0
0.598596 0.0640228 -0.13298 26 228 0
0.594254 0.0598906 -0.133335 31 223 0
0.588893 0.0575145 -0.134417 37 217 0
0.583172 0.0576179 -0.136174 42 212 0
0.577579 0.0581846 -0.138239 47 207 0
0.572946 0.0610837 -0.140449 53 201 0
0.570646 0.066179 -0.142279 58 196 0
0.570035 0.0718634 -0.144103 63 191 0
0.570101 0.0775204 -0.145317 69 185 0
0.574067 0.0819372 -0.145834 74 180 0
0.578835 0.0851773 -0.145453 79 175 0
0.584496 0.0869034 -0.144425 85 169 0
0.589674 0.0855305 -0.142639 90 164 0
0.593334 0.08161 -0.141014 95 159 0
0.593275 0.0757718 -0.139764 100 154 0
0.591184 0.0707496 -0.139109 106 148 0
0.587593 0.0660246 -0.139116 111 143 0
0.582689 0.0625895 -0.139737 116 138 0
0.577477 0.0601124 -0.140913 122 132 0
0.571756 0.0607507 -0.142682 127 127 0
0.566863 0.0629464 -0.144585 132 122 0
0.563484 0.0673589 -0.146839 138 116 0
0.561115 0.072374 -0.149088 143 111 0
0.560982 0.0782455 -0.150421 148 106 0
0.563737 0.0833675 -0.151527 154 100 0
0.567809 0.0877877 -0.151707 159 95 0
0.5731 0.0896417 -0.151063 164 90 0
0.57855 0.0910466 -0.149792 170 84 0
0.582588 0.0872707 -0.147526 175 79 0
0.585078 0.0824639 -0.145298 180 74 0
0.583789 0.0769458 -0.143754 185 69 0
0.582217 0.0715862 -0.142777 191 63 0
0.577979 0.067316 -0.142812 196 58 0
0.573209 0.0638118 -0.143649 201 53 0
0.567502 0.0644662 -0.145096 207 47 0
0.562038 0.0642354 -0.147388 212 42 0
0.557469 0.0671189 -0.149821 217 37 0
0.554272 0.0711358 -0.152975 223 31 0
0.552329 0.0759787 -0.155409 228 26 0
0.553422 0.0808972 -0.157935 233 21 0
0.554671 0.0864739 -0.159399 239 15 0
0.557288 0.0904936 -0.160113 244 10 0
0.562435 0.0921281 -0.160154 249 5 0
0.565966 0.0933958 -0.159388 255 0 0
