ply
format ascii 1.0
comment Generated by robot_control PLYWriter
element vertex 65
property float x
property float y
property float z
property uchar red
property uchar green
property uchar blue
end_header
0.536269 -0.126413 -0.0848666 0 255 0
0.541089 -0.128924 -0.0842359 3 251 0
0.544982 -0.132014 -0.084109 7 247 0
0.547001 -0.137406 -0.0844636 11 243 0
0.547283 -0.14288 -0.0850517 15 239 0
0.544995 -0.148197 -0.0858243 19 235 0
0.541957 -0.152274 -0.0865451 23 231 0
0.536025 -0.152248 -0.0871787 27 227 0
0.530121 -0.15192 -0.0875692 31 223 0
0.525132 -0.148918 -0.087727 35 219 0
0.522821 -0.143552 -0.0876585 39 215 0
0.522985 -0.137596 -0.087334 43 211 0
0.523179 -0.131695 -0.0868557 47 207 0
0.526472 -0.12679 -0.086151 51 203 0
0.531002 -0.123271 -0.0854149 55 199 0
0.536235 -0.12053 -0.0846195 59 195 0
0.542099 -0.12037 -0.0838291 63 191 0
0.547545 -0.122035 -0.0833903 67 187 0
0.552226 -0.12569 -0.0831421 71 183 0
0.554701 -0.131031 -0.0831977 75 179 0
0.556696 -0.136504 -0.0835057 79 175 0
0.554729 -0.141999 -0.0839705 83 171 0
0.550699 -0.146286 -0.0845187 87 167 0
0.545208 -0.148338 -0.0850541 91 163 0
0.539725 -0.146746 -0.0855538 95 159 0
0.534486 -0.144081 -0.0857877 99 155 0
0.531768 -0.138801 -0.0856226 103 151 0
0.530998 -0.132961 -0.0852646 107 147 0
0.531755 -0.127092 -0.0848649 111 143 0
0.534633 -0.122173 -0.0843824 115 139 0
0.53939 -0.118681 -0.0837498 119 135 0
0.544917 -0.116573 -0.0831207 123 131 0
0.550632 -0.114972 -0.0826205 127 127 0
0.555859 -0.11769 -0.082156 131 123 0
0.560199 -0.121746 -0.081958 135 119 0
0.563426 -0.126733 -0.0819697 139 115 0
0.56471 -0.132443 -0.0821989 143 111 0
0.56171 -0.137574 -0.0825616 147 107 0
0.558074 -0.141932 -0.0829851 151 103 0
0.552415 -0.142659 -0.0834647 155 99 0
0.546688 -0.140991 -0.083742 159 95 0
0.542333 -0.137267 -0.0838713 163 91 0
0.539168 -0.132211 -0.0838187 167 87 0
0.539048 -0.126366 -0.0835977 171 83 0
0.541341 -0.120876 -0.0833131 175 79 0
0.544528 -0.115862 -0.0829178 179 75 0
0.549622 -0.113002 -0.0825697 183 71 0
0.55487 -0.110305 -0.0821937 187 67 0
0.560597 -0.111188 -0.0818735 191 63 0
0.565691 -0.114297 -0.0817196 195 59 0
0.570915 -0.116941 -0.0816615 199 55 0
0.572892 -0.122377 -0.0816733 203 51 0
0.572957 -0.128348 -0.0817474 207 47 0
0.570192 -0.133116 -0.0818782 211 43 0
0.565969 -0.137336 -0.082031 215 39 0
0.560311 -0.138071 -0.0821932 219 35 0
0.555139 -0.135428 -0.0822782 223 31 0
0.550453 -0.132176 -0.0823328 227 27 0
0.548188 -0.1274 -0.0823138 231 23 0
0.546569 -0.121949 -0.082244 235 19 0
0.548273 -0.116537 -0.0821062 239 15 0
0.551093 -0.112038 -0.0819636 243 11 0
0.555678 -0.108761 -0.0818472 247 7 0
0.559336 -0.106444 -0.0818539 251 3 0
0.565202 -0.106456 -0.0820057 255 0 0
