ply
format ascii 1.0
comment Generated by robot_control PLYWriter
element vertex 16
property float x
property float y
property float z
property uchar red
property uchar green
property uchar blue
end_header
0.611843 0.00814159 -0.110594 0 255 0
0.610657 0.0126493 -0.112458 17 238 0
0.609334 0.0170912 -0.114393 34 221 0
0.607953 0.0215218 -0.116313 51 204 0
0.606718 0.0259859 -0.118252 68 187 0
0.605419 0.0304225 -0.120213 85 169 0
0.60404 0.0348261 -0.122195 102 153 0
0.602677 0.0392206 -0.124209 119 135 0
0.601351 0.0436112 -0.126256 136 118 0
0.600073 0.0479971 -0.128343 153 101 0
0.598785 0.0523223 -0.130548 170 84 0
0.597568 0.0566173 -0.132848 187 67 0
0.596381 0.0608761 -0.135231 204 50 0
0.595259 0.0651683 -0.137582 221 33 0
0.594029 0.0694287 -0.139936 238 16 0
0.59293 0.0736249 -0.142467 255 0 0
