ply
format ascii 1.0
comment Generated by robot_control PLYWriter
element vertex 200
property float x
property float y
property float z
property uchar red
property uchar green
property uchar blue
end_header
0.554254 -0.304479 -0.0862436 0 255 0
0.554254 -0.304479 -0.0862436 1 253 0
0.554254 -0.304479 -0.0862436 2 252 0
0.554254 -0.304479 -0.0862436 3 251 0
0.554254 -0.304479 -0.0862436 5 249 0
0.554254 -0.304479 -0.0862436 6 248 0
0.554254 -0.304479 -0.0862436 7 247 0
0.554254 -0.304479 -0.0862436 8 246 0
0.554254 -0.304479 -0.0862436 10 244 0
0.554254 -0.304479 -0.0862436 11 243 0
0.554254 -0.304479 -0.0862436 12 242 0
0.554254 -0.304479 -0.0862436 14 240 0
0.554254 -0.304479 -0.0862436 15 239 0
0.554254 -0.304479 -0.0862436 16 238 0
0.554254 -0.304479 -0.0862436 17 237 0
0.554254 -0.304479 -0.0862436 19 235 0
0.554254 -0.304479 -0.0862436 20 234 0
0.554254 -0.304479 -0.0862436 21 233 0
0.554254 -0.304479 -0.0862436 23 231 0
0.554254 -0.304479 -0.0862436 24 230 0
0.554254 -0.304479 -0.0862436 25 229 0
0.554254 -0.304479 -0.0862436 26 228 0
0.554254 -0.304479 -0.0862436 28 226 0
0.554254 -0.304479 -0.0862436 29 225 0
0.554254 -0.304479 -0.0862436 30 224 0
0.554254 -0.304479 -0.0862436 32 222 0
0.554254 -0.304479 -0.0862436 33 221 0
0.554254 -0.304479 -0.0862436 34 220 0
0.554254 -0.304479 -0.0862436 35 219 0
0.554254 -0.304479 -0.0862436 37 217 0
0.554254 -0.304479 -0.0862436 38 216 0
0.554254 -0.304479 -0.0862436 39 215 0
0.554254 -0.304479 -0.0862436 41 213 0
0.554254 -0.304479 -0.0862436 42 212 0
0.554254 -0.304479 -0.0862436 43 211 0
0.554254 -0.304479 -0.0862436 44 210 0
0.554254 -0.304479 -0.0862436 46 208 0
0.554254 -0.304479 -0.0862436 47 207 0
0.554254 -0.304479 -0.0862436 48 206 0
0.554254 -0.304479 -0.0862436 49 205 0
0.554254 -0.304479 -0.0862436 51 203 0
0.554254 -0.304479 -0.0862436 52 202 0
0.554254 -0.304479 -0.0862436 53 201 0
0.554254 -0.304479 -0.0862436 55 199 0
0.554254 -0.304479 -0.0862436 56 198 0
0.554254 -0.304479 -0.0862436 57 197 0
0.554254 -0.304479 -0.0862436 58 196 0
0.554254 -0.304479 -0.0862436 60 194 0
0.554254 -0.304479 -0.0862436 61 193 0
0.554254 -0.304479 -0.0862436 62 192 0
0.554254 -0.304479 -0.0862436 64 190 0
0.554254 -0.304479 -0.0862436 65 189 0
0.554254 -0.304479 -0.0862436 66 188 0
0.554254 -0.304479 -0.0862436 67 187 0
0.554254 -0.304479 -0.0862436 69 185 0
0.554254 -0.304479 -0.0862436 70 184 0
0.554254 -0.304479 -0.0862436 71 183 0
0.554254 -0.304479 -0.0862436 73 181 0
0.554254 -0.304479 -0.0862436 74 180 0
0.554254 -0.304479 -0.0862436 75 179 0
0.554254 -0.304479 -0.0862436 76 178 0
0.554254 -0.304479 -0.0862436 78 176 0
0.554254 -0.304479 -0.0862436 79 175 0
0.554254 -0.304479 -0.0862436 80 174 0
0.554254 -0.304479 -0.0862436 82 172 0
0.554254 -0.304479 -0.0862436 83 171 0
0.554254 -0.304479 -0.0862436 84 170 0
0.554254 -0.304479 -0.0862436 85 169 0
0.554254 -0.304479 -0.0862436 87 167 0
0.554254 -0.304479 -0.0862436 88 166 0
0.554254 -0.304479 -0.0862436 89 165 0
0.554254 -0.304479 -0.0862436 90 164 0
0.554254 -0.304479 -0.0862436 92 162 0
0.554254 -0.304479 -0.0862436 93 161 0
0.554254 -0.304479 -0.0862436 94 160 0
0.554254 -0.304479 -0.0862436 96 158 0
0.554254 -0.304479 -0.0862436 97 157 0
0.554254 -0.304479 -0.0862436 98 156 0
0.554254 -0.304479 -0.0862436 99 155 0
0.554254 -0.304479 -0.0862436 101 153 0
0.554254 -0.304479 -0.0862436 102 152 0
0.554254 -0.304479 -0.0862436 103 151 0
0.554254 -0.304479 -0.0862436 105 149 0
0.554254 -0.304479 -0.0862436 106 148 0
0.554254 -0.304479 -0.0862436 107 147 0
0.554254 -0.304479 -0.0862436 108 146 0
0.554254 -0.304479 -0.0862436 110 144 0
0.554254 -0.304479 -0.0862436 111 143 0
0.554254 -0.304479 -0.0862436 112 142 0
0.554254 -0.304479 -0.0862436 114 140 0
0.554254 -0.304479 -0.0862436 115 139 0
0.554254 -0.304479 -0.0862436 116 138 0
0.554254 -0.304479 -0.0862436 117 137 0
0.554254 -0.304479 -0.0862436 119 135 0
0.554254 -0.304479 -0.0862436 120 134 0
0.554254 -0.304479 -0.0862436 121 133 0
0.554254 -0.304479 -0.0862436 123 131 0
0.554254 -0.304479 -0.0862436 124 130 0
0.554254 -0.304479 -0.0862436 125 129 0
0.554254 -0.304479 -0.0862436 126 128 0
0.554254 -0.304479 -0.0862436 128 126 0
0.554254 -0.304479 -0.0862436 129 125 0
0.554254 -0.304479 -0.0862436 130 124 0
0.554254 -0.304479 -0.0862436 131 123 0
0.554254 -0.304479 -0.0862436 133 121 0
0.554254 -0.304479 -0.0862436 134 120 0
0.554254 -0.304479 -0.0862436 135 119 0
0.554254 -0.304479 -0.0862436 137 117 0
0.554254 -0.304479 -0.0862436 138 116 0
0.554254 -0.304479 -0.0862436 139 115 0
0.554254 -0.304479 -0.0862436 140 114 0
0.554254 -0.304479 -0.0862436 142 112 0
0.554254 -0.304479 -0.0862436 143 111 0
0.554254 -0.304479 -0.0862436 144 110 0
0.554254 -0.304479 -0.0862436 146 108 0
0.554254 -0.304479 -0.0862436 147 107 0
0.554254 -0.304479 -0.0862436 148 106 0
0.554254 -0.304479 -0.0862436 149 105 0
0.554254 -0.304479 -0.0862436 151 103 0
0.554254 -0.304479 -0.0862436 152 102 0
0.554254 -0.304479 -0.0862436 153 101 0
0.554254 -0.304479 -0.0862436 155 99 0
0.554254 -0.304479 -0.0862436 156 98 0
0.554254 -0.304479 -0.0862436 157 97 0
0.554254 -0.304479 -0.0862436 158 96 0
0.554254 -0.304479 -0.0862436 160 94 0
0.554254 -0.304479 -0.0862436 161 93 0
0.554254 -0.304479 -0.0862436 162 92 0
0.554254 -0.304479 -0.0862436 164 90 0
0.554254 -0.304479 -0.0862436 165 89 0
0.554254 -0.304479 -0.0862436 166 88 0
0.554254 -0.304479 -0.0862436 167 87 0
0.554254 -0.304479 -0.0862436 169 85 0
0.554254 -0.304479 -0.0862436 170 84 0
0.554254 -0.304479 -0.0862436 171 83 0
0.554254 -0.304479 -0.0862436 172 82 0
0.554254 -0.304479 -0.0862436 174 80 0
0.554254 -0.304479 -0.0862436 175 79 0
0.554254 -0.304479 -0.0862436 176 78 0
0.554254 -0.304479 -0.0862436 178 76 0
0.554254 -0.304479 -0.0862436 179 75 0
0.554254 -0.304479 -0.0862436 180 74 0
0.554254 -0.304479 -0.0862436 181 73 0
0.554254 -0.304479 -0.0862436 183 71 0
0.554254 -0.304479 -0.0862436 184 70 0
0.554254 -0.304479 -0.0862436 185 69 0
0.554254 -0.304479 -0.0862436 187 67 0
0.554254 -0.304479 -0.0862436 188 66 0
0.554254 -0.304479 -0.0862436 189 65 0
0.554254 -0.304479 -0.0862436 190 64 0
0.554254 -0.304479 -0.0862436 192 62 0
0.554254 -0.304479 -0.0862436 193 61 0
0.554254 -0.304479 -0.0862436 194 60 0
0.554254 -0.304479 -0.0862436 196 58 0
0.554254 -0.304479 -0.0862436 197 57 0
0.554254 -0.304479 -0.0862436 198 56 0
0.554254 -0.304479 -0.0862436 199 55 0
0.554254 -0.304479 -0.0862436 201 53 0
0.554254 -0.304479 -0.0862436 202 52 0
0.554254 -0.304479 -0.0862436 203 51 0
0.554254 -0.304479 -0.0862436 205 49 0
0.554254 -0.304479 -0.0862436 206 48 0
0.554254 -0.304479 -0.0862436 207 47 0
0.554254 -0.304479 -0.0862436 208 46 0
0.554254 -0.304479 -0.0862436 210 44 0
0.554254 -0.304479 -0.0862436 211 43 0
0.554254 -0.304479 -0.0862436 212 42 0
0.554254 -0.304479 -0.0862436 213 41 0
0.554254 -0.304479 -0.0862436 215 39 0
0.554254 -0.304479 -0.0862436 216 38 0
0.554254 -0.304479 -0.0862436 217 37 0
0.554254 -0.304479 -0.0862436 219 35 0
0.554254 -0.304479 -0.0862436 220 34 0
0.554254 -0.304479 -0.0862436 221 33 0
0.554254 -0.304479 -0.0862436 222 32 0
0.554254 -0.304479 -0.0862436 224 30 0
0.554254 -0.304479 -0.0862436 225 29 0
0.554254 -0.304479 -0.0862436 226 28 0
0.554254 -0.304479 -0.0862436 228 26 0
0.554254 -0.304479 -0.0862436 229 25 0
0.554254 -0.304479 -0.0862436 230 24 0
0.554254 -0.304479 -0.0862436 231 23 0
0.554254 -0.304479 -0.0862436 233 21 0
0.554254 -0.304479 -0.0862436 234 20 0
0.554254 -0.304479 -0.0862436 235 19 0
0.554254 -0.304479 -0.0862436 237 17 0
0.554254 -0.304479 -0.0862436 238 16 0
0.554254 -0.304479 -0.0862436 239 15 0
0.554254 -0.304479 -0.0862436 240 14 0
0.554254 -0.304479 -0.0862436 242 12 0
0.554254 -0.304479 -0.0862436 243 11 0
0.554254 -0.304479 -0.0862436 244 10 0
0.554254 -0.304479 -0.0862436 246 8 0
0.554254 -0.304479 -0.0862436 247 7 0
0.554254 -0.304479 -0.0862436 248 6 0
0.554254 -0.304479 -0.0862436 249 5 0
0.554254 -0.304479 -0.0862436 251 3 0
0.554254 -0.304479 -0.0862436 252 2 0
0.554254 -0.304479 -0.0862436 253 1 0
0.554254 -0.304479 -0.0862436 255 0 0
