ply
format ascii 1.0
comment Generated by robot_control PLYWriter
element vertex 39
property float x
property float y
property float z
property uchar red
property uchar green
property uchar blue
end_header
0.624685 0.156817 -0.15778 0 255 0
0.628616 0.154342 -0.155344 6 248 0
0.632354 0.15196 -0.152469 13 241 0
0.634387 0.147755 -0.149853 20 234 0
0.6325 0.14261 -0.147944 26 228 0
0.628279 0.138875 -0.147292 33 221 0
0.622588 0.138476 -0.148468 40 214 0
0.617357 0.139509 -0.150842 46 208 0
0.614641 0.143047 -0.153225 53 201 0
0.614122 0.148238 -0.15503 60 194 0
0.615856 0.153367 -0.157371 67 187 0
0.618175 0.15815 -0.158598 73 181 0
0.623215 0.161485 -0.158803 80 174 0
0.628898 0.163253 -0.158088 87 167 0
0.634742 0.16268 -0.156578 93 161 0
0.639 0.158725 -0.154999 100 154 0
0.641086 0.153704 -0.153037 107 147 0
0.638608 0.148321 -0.151756 114 140 0
0.633366 0.145598 -0.151677 120 134 0
0.627647 0.14571 -0.152908 127 127 0
0.622957 0.148133 -0.154694 134 120 0
0.621172 0.153514 -0.156656 140 114 0
0.621227 0.159113 -0.158737 147 107 0
0.623518 0.164286 -0.160249 154 100 0
0.628307 0.167769 -0.16102 161 93 0
0.633015 0.171401 -0.161002 167 87 0
0.638987 0.170865 -0.160129 174 80 0
0.64329 0.167349 -0.158477 181 73 0
0.646708 0.163014 -0.156199 187 67 0
0.645713 0.157581 -0.154023 194 60 0
0.641731 0.153424 -0.1532 201 53 0
0.635847 0.153036 -0.153647 208 46 0
0.630253 0.153879 -0.155665 214 40 0
0.628041 0.158438 -0.158201 221 33 0
0.626501 0.163492 -0.160689 228 26 0
0.628309 0.16856 -0.162915 234 20 0
0.631235 0.17254 -0.164849 241 13 0
0.635202 0.176554 -0.165474 248 6 0
0.640634 0.17711 -0.165158 255 0 0
