ply
format ascii 1.0
comment Generated by robot_control PLYWriter
element vertex 81
property float x
property float y
property float z
property uchar red
property uchar green
property uchar blue
end_header
0.518355 0.0252168 -0.10127 0 255 0
0.52326 0.0230199 -0.10062 3 251 0
0.526593 0.0185694 -0.100259 6 248 0
0.528207 0.0132477 -0.100023 9 245 0
0.52631 0.00863065 -0.100166 12 242 0
0.523262 0.00377703 -0.100684 15 239 0
0.518219 0.00133655 -0.101433 19 235 0
0.512401 0.00163004 -0.102692 22 232 0
0.506673 0.00263569 -0.103452 25 229 0
0.501866 0.00591131 -0.104201 28 226 0
0.4991 0.0111576 -0.104563 31 223 0
0.498572 0.0170363 -0.104761 35 219 0
0.498717 0.0229971 -0.104679 38 216 0
0.500898 0.028538 -0.104387 41 213 0
0.504205 0.0333801 -0.10381 44 210 0
0.509613 0.0354099 -0.10311 47 207 0
0.515531 0.0350326 -0.102411 51 204 0
0.521349 0.0346081 -0.101787 54 200 0
0.52576 0.0306606 -0.101333 57 197 0
0.52724 0.025052 -0.101103 60 194 0
0.526739 0.0196324 -0.101171 63 191 0
0.52364 0.0146574 -0.101515 66 188 0
0.518793 0.0116715 -0.101978 70 184 0
0.512909 0.0111052 -0.102646 73 181 0
0.507638 0.0137946 -0.103175 76 178 0
0.502952 0.0174499 -0.103728 79 175 0
0.499348 0.0221575 -0.104074 82 172 0
0.498944 0.0279192 -0.104311 86 168 0
0.499213 0.0338807 -0.104353 89 165 0
0.501999 0.0390734 -0.10418 92 162 0
0.506181 0.0432531 -0.103887 95 159 0
0.511582 0.0450339 -0.103353 98 156 0
0.517513 0.0455009 -0.102883 102 153 0
0.522259 0.0424221 -0.102349 105 149 0
0.526219 0.038466 -0.10193 108 146 0
0.527916 0.0328095 -0.101747 111 143 0
0.526291 0.0271739 -0.101781 114 140 0
0.521518 0.0237429 -0.101966 117 137 0
0.516415 0.0215727 -0.102285 121 133 0
0.510471 0.0215519 -0.102722 124 130 0
0.504819 0.023422 -0.103166 127 127 0
0.501597 0.0283706 -0.103721 130 124 0
0.499011 0.0334309 -0.104136 133 121 0
0.498842 0.0393898 -0.104455 137 117 0
0.499795 0.0452033 -0.104609 140 114 0
0.50306 0.0500218 -0.10454 143 111 0
0.507215 0.0543048 -0.10435 146 108 0
0.512604 0.0557104 -0.103983 149 105 0
0.518548 0.0555982 -0.103493 153 101 0
0.523249 0.052571 -0.103083 156 98 0
0.526403 0.0476034 -0.102624 159 95 0
0.527387 0.0419859 -0.102345 162 92 0
0.52522 0.0364417 -0.102244 165 89 0
0.520464 0.0332637 -0.102366 168 86 0
0.514948 0.031629 -0.102804 172 82 0
0.50902 0.0319967 -0.103409 175 79 0
0.504345 0.0355912 -0.103919 178 76 0
0.499845 0.0389162 -0.104496 181 73 0
0.49794 0.0445427 -0.104942 184 70 0
0.498312 0.0502366 -0.105287 188 66 0
0.500388 0.0558226 -0.105566 191 63 0
0.503456 0.0609219 -0.105586 194 60 0
0.507706 0.0650469 -0.105416 197 57 0
0.51346 0.0660272 -0.105021 200 54 0
0.519405 0.0661111 -0.104476 204 50 0
0.523631 0.0624403 -0.103837 207 47 0
0.526274 0.0571777 -0.103261 210 44 0
0.526383 0.0512279 -0.102847 213 41 0
0.524883 0.045553 -0.10273 216 38 0
0.520397 0.0429249 -0.102976 219 35 0
0.514679 0.0417246 -0.103341 223 31 0
0.508787 0.041819 -0.104187 226 28 0
0.50347 0.0443998 -0.104817 229 25 0
0.500849 0.0490785 -0.105678 232 22 0
0.498712 0.0543913 -0.106238 235 19 0
0.497335 0.0596706 -0.106741 239 15 0
0.498851 0.0651878 -0.107094 242 12 0
0.501296 0.0698171 -0.107167 245 9 0
0.505193 0.0731096 -0.107141 248 6 0
0.510081 0.0746501 -0.107115 251 3 0
0.512956 0.0774469 -0.107313 255 0 0
