ply
format ascii 1.0
comment Generated by robot_control PLYWriter
element vertex 12
property float x
property float y
property float z
property uchar red
property uchar green
property uchar blue
end_header
0.516599 -0.139489 -0.127151 0 255 0
0.516272 -0.134625 -0.127124 23 231 0
0.515826 -0.129759 -0.127032 46 208 0
0.515525 -0.124878 -0.126966 69 185 0
0.515218 -0.119998 -0.126909 92 162 0
0.514922 -0.115118 -0.126804 115 139 0
0.514603 -0.110242 -0.126637 139 115 0
0.514288 -0.105368 -0.126384 162 92 0
0.514111 -0.100494 -0.126037 185 69 0
0.51394 -0.095625 -0.125618 208 46 0
0.51379 -0.0907533 -0.125229 231 23 0
0.513589 -0.0859045 -0.124634 255 0 0
