ply
format ascii 1.0
comment Generated by robot_control PLYWriter
element vertex 10
property float x
property float y
property float z
property uchar red
property uchar green
property uchar blue
end_header
0.546534 -0.133586 -0.0401904 0 255 0
0.546549 -0.128447 -0.0397625 28 226 0
0.546681 -0.12331 -0.0393549 56 198 0
0.546792 -0.118179 -0.0388659 85 169 0
0.546829 -0.113049 -0.0383463 113 141 0
0.547036 -0.107927 -0.0378032 141 113 0
0.547307 -0.102811 -0.037218 170 84 0
0.547549 -0.0977053 -0.0365367 198 56 0
0.547839 -0.092613 -0.0357851 226 28 0
0.548077 -0.0875177 -0.0350975 255 0 0
