ply
format ascii 1.0
comment Generated by robot_control PLYWriter
element vertex 12
property float x
property float y
property float z
property uchar red
property uchar green
property uchar blue
end_header
0.534081 0.085424 -0.108689 0 255 0
0.533665 0.0902432 -0.109518 23 231 0
0.53341 0.0950781 -0.110326 46 208 0
0.533192 0.0999044 -0.111193 69 185 0
0.532921 0.104715 -0.112123 92 162 0
0.532512 0.1095 -0.113132 115 139 0
0.532308 0.114273 -0.114258 139 115 0
0.532095 0.119006 -0.115538 162 92 0
0.531853 0.123677 -0.117028 185 69 0
0.531611 0.1283 -0.118659 208 46 0
0.531259 0.132915 -0.120286 231 23 0
0.531003 0.137449 -0.122121 255 0 0
