ply
format ascii 1.0
comment Generated by robot_control PLYWriter
element vertex 10
property float x
property float y
property float z
property uchar red
property uchar green
property uchar blue
end_header
0.513033 0.112612 -0.137055 0 255 0
0.51303 0.107784 -0.136158 28 226 0
0.513342 0.102967 -0.13527 56 198 0
0.513741 0.0981319 -0.134496 85 169 0
0.514103 0.0932683 -0.133913 113 141 0
0.514441 0.0883851 -0.133499 141 113 0
0.514818 0.0834946 -0.133236 170 84 0
0.515186 0.0786011 -0.133141 198 56 0
0.51517 0.0736887 -0.133226 226 28 0
0.515157 0.0687772 -0.133351 255 0 0
