ply
format ascii 1.0
comment Generated by robot_control PLYWriter
element vertex 9
property float x
property float y
property float z
property uchar red
property uchar green
property uchar blue
end_header
0.534514 0.0821344 -0.108109 0 255 0
0.53464 0.0769686 -0.107485 31 223 0
0.535119 0.0718092 -0.106988 63 191 0
0.535602 0.0666349 -0.106675 95 159 0
0.536178 0.061466 -0.106438 127 127 0
0.536673 0.0562837 -0.106382 159 95 0
0.537499 0.0511445 -0.106334 191 63 0
0.537826 0.0459484 -0.106318 223 31 0
0.538277 0.040762 -0.106271 255 0 0
