ply
format ascii 1.0
comment Generated by robot_control PLYWriter
element vertex 17
property float x
property float y
property float z
property uchar red
property uchar green
property uchar blue
end_header
0.61725 -0.23693 -0.123256 0 255 0
0.616896 -0.232186 -0.124814 15 239 0
0.616539 -0.227426 -0.126326 31 223 0
0.61624 -0.222639 -0.127764 47 207 0
0.615956 -0.21786 -0.129229 63 191 0
0.615556 -0.213064 -0.130613 79 175 0
0.615248 -0.208239 -0.131913 95 159 0
0.615011 -0.203379 -0.133098 111 143 0
0.614682 -0.198492 -0.134137 127 127 0
0.614318 -0.193584 -0.135058 143 111 0
0.61394 -0.188662 -0.135901 159 95 0
0.613637 -0.183733 -0.136728 175 79 0
0.613424 -0.178795 -0.13753 191 63 0
0.613197 -0.173851 -0.13829 207 47 0
0.61291 -0.168902 -0.138983 223 31 0
0.612567 -0.163933 -0.139474 239 15 0
0.612245 -0.158965 -0.140003 255 0 0
