ply
format ascii 1.0
comment Generated by robot_control PLYWriter
element vertex 10
property float x
property float y
property float z
property uchar red
property uchar green
property uchar blue
end_header
0.536905 -0.197614 -0.131492 0 255 0
0.536868 -0.192874 -0.13198 28 226 0
0.536577 -0.188157 -0.132586 56 198 0
0.536428 -0.183453 -0.133329 85 169 0
0.536176 -0.178781 -0.134223 113 141 0
0.535822 -0.174156 -0.135315 141 113 0
0.535451 -0.169582 -0.136598 170 84 0
0.535112 -0.165041 -0.138003 198 56 0
0.534932 -0.160514 -0.139476 226 28 0
0.534621 -0.155969 -0.140838 255 0 0
