ply
format ascii 1.0
comment Generated by robot_control PLYWriter
element vertex 115
property float x
property float y
property float z
property uchar red
property uchar green
property uchar blue
end_header
0.567208 0.0116752 -0.105445 0 255 0
0.571608 0.0100808 -0.10548 2 252 0
0.574761 0.00621416 -0.105552 4 250 0
0.577852 0.00282135 -0.105641 6 248 0
0.578755 -0.00289888 -0.105849 8 246 0
0.577188 -0.00844156 -0.106165 11 243 0
0.575498 -0.0137255 -0.106319 13 241 0
0.570922 -0.0165419 -0.106514 15 239 0
0.565732 -0.0184179 -0.10671 17 237 0
0.559738 -0.0184231 -0.106907 20 234 0
0.554019 -0.0172546 -0.107084 22 232 0
0.54899 -0.0139998 -0.107198 24 230 0
0.546082 -0.00887313 -0.107334 26 228 0
0.54465 -0.00310985 -0.107459 29 225 0
0.542654 0.00243038 -0.10742 31 223 0
0.544188 0.00792714 -0.10729 33 221 0
0.546464 0.0134165 -0.107129 35 219 0
0.549823 0.0181079 -0.106922 38 216 0
0.555084 0.0209443 -0.106682 40 214 0
0.560963 0.0214957 -0.106368 42 212 0
0.566819 0.020677 -0.106057 44 210 0
0.571978 0.0177765 -0.105834 46 208 0
0.577151 0.014925 -0.105753 49 205 0
0.577542 0.0089863 -0.105737 51 203 0
0.578762 0.00318689 -0.105717 53 201 0
0.577172 -0.00250645 -0.105705 55 199 0
0.572584 -0.00636086 -0.105809 58 196 0
0.567476 -0.00870817 -0.106063 60 194 0
0.561516 -0.00827889 -0.106346 62 192 0
0.555594 -0.00761831 -0.106667 64 190 0
0.550236 -0.00498601 -0.106852 67 187 0
0.546558 -0.000570128 -0.10702 69 185 0
0.543448 0.00455856 -0.107016 71 183 0
0.542697 0.0103372 -0.107003 73 181 0
0.543413 0.0162833 -0.107007 76 178 0
0.545136 0.022015 -0.106999 78 176 0
0.548247 0.0271422 -0.106887 80 174 0
0.553831 0.0291855 -0.10674 82 172 0
0.559543 0.0308819 -0.106454 85 169 0
0.56551 0.0306394 -0.106184 87 167 0
0.571148 0.0290225 -0.10594 89 165 0
0.57486 0.0243169 -0.105709 91 163 0
0.578013 0.0192726 -0.105594 93 161 0
0.577685 0.0135608 -0.105601 96 158 0
0.575298 0.00809362 -0.105713 98 156 0
0.570986 0.00404332 -0.105909 100 154 0
0.565776 0.00114445 -0.106228 102 152 0
0.560055 1.5547e-05 -0.106501 105 149 0
0.554342 0.0017534 -0.106719 107 147 0
0.54932 0.00503 -0.106856 109 145 0
0.545 0.00914537 -0.106978 111 143 0
0.542866 0.0147508 -0.107001 114 140 0
0.542717 0.0206765 -0.107019 116 138 0
0.543498 0.0266174 -0.107061 118 136 0
0.546268 0.0319292 -0.107064 120 134 0
0.550028 0.0365664 -0.106951 123 131 0
0.554692 0.0402969 -0.106771 125 129 0
0.560286 0.0415256 -0.106538 127 127 0
0.566054 0.0402907 -0.106297 129 125 0
0.571547 0.0379246 -0.105991 131 123 0
0.575347 0.0334015 -0.105819 134 120 0
0.577186 0.0280036 -0.105658 136 118 0
0.577189 0.0220059 -0.105664 138 116 0
0.574213 0.0169498 -0.105808 140 114 0
0.569923 0.0127665 -0.106019 143 111 0
0.564929 0.0100775 -0.106267 145 109 0
0.559022 0.0106951 -0.106531 147 107 0
0.553307 0.0124752 -0.106776 149 105 0
0.548366 0.01556 -0.106946 152 102 0
0.544856 0.0203432 -0.107013 154 100 0
0.543406 0.0261528 -0.10708 156 98 0
0.542725 0.0321104 -0.107149 158 96 0
0.542838 0.0379868 -0.107238 161 93 0
0.546467 0.042738 -0.107222 163 91 0
0.550603 0.0470812 -0.107153 165 89 0
0.555939 0.0495053 -0.106921 167 87 0
0.561933 0.0495117 -0.106709 170 84 0
0.56776 0.0488985 -0.106426 172 82 0
0.572714 0.0455526 -0.106148 174 80 0
0.57627 0.0408975 -0.106024 176 78 0
0.577163 0.0351095 -0.105962 178 76 0
0.576284 0.0293639 -0.105977 181 73 0
0.572765 0.0246084 -0.106058 183 71 0
0.568043 0.020917 -0.106266 185 69 0
0.562409 0.0198933 -0.106501 187 67 0
0.556418 0.0198925 -0.106782 190 64 0
0.550715 0.0217217 -0.107067 192 62 0
0.546251 0.0256782 -0.107329 194 60 0
0.543324 0.0308504 -0.107538 196 58 0
0.542463 0.0367562 -0.107753 199 55 0
0.542083 0.0427262 -0.107932 201 53 0
0.543121 0.0483766 -0.10804 203 51 0
0.546291 0.0534607 -0.108053 205 49 0
0.550802 0.0573637 -0.107985 208 46 0
0.556143 0.0597135 -0.107823 210 44 0
0.562134 0.0597244 -0.107548 212 42 0
0.567922 0.0589853 -0.107263 214 40 0
0.572651 0.0553757 -0.107028 216 38 0
0.576054 0.0505863 -0.106744 219 35 0
0.577159 0.0447645 -0.106517 221 33 0
0.575748 0.0391655 -0.106201 223 31 0
0.572077 0.034538 -0.105971 225 29 0
0.568437 0.0311101 -0.105906 228 26 0
0.562935 0.0292797 -0.106049 230 24 0
0.55695 0.029388 -0.10638 232 22 0
0.551251 0.0309574 -0.106712 234 20 0
0.547025 0.0349979 -0.107229 237 17 0
0.543106 0.0393814 -0.10781 239 15 0
0.541886 0.0449381 -0.108384 241 13 0
0.541163 0.0507607 -0.108911 243 11 0
0.542551 0.0558266 -0.109068 246 8 0
0.544268 0.0609072 -0.109188 248 6 0
0.548103 0.0654382 -0.109124 250 4 0
0.553137 0.0684401 -0.108874 252 2 0
0.558726 0.0692722 -0.108562 255 0 0
