ply
format ascii 1.0
comment Generated by robot_control PLYWriter
element vertex 81
property float x
property float y
property float z
property uchar red
property uchar green
property uchar blue
end_header
0.494935 -0.244658 -0.106905 0 255 0
0.499345 -0.246197 -0.106082 3 251 0
0.502154 -0.249049 -0.104007 6 248 0
0.504762 -0.252561 -0.100716 9 245 0
0.504776 -0.257134 -0.0969661 12 242 0
0.504649 -0.261549 -0.0930325 15 239 0
0.502746 -0.265415 -0.0893693 19 235 0
0.498602 -0.26862 -0.0871712 22 232 0
0.493728 -0.271975 -0.0866743 25 229 0
0.488669 -0.270515 -0.0873651 28 226 0
0.484253 -0.268501 -0.0888305 31 223 0
0.481177 -0.265262 -0.0915555 35 219 0
0.480711 -0.260175 -0.0943441 38 216 0
0.483986 -0.255907 -0.096283 41 213 0
0.48946 -0.253749 -0.0970103 44 210 0
0.494447 -0.254072 -0.0965053 47 207 0
0.499491 -0.256518 -0.0947542 51 204 0
0.504328 -0.259579 -0.0929091 54 200 0
0.505678 -0.264574 -0.0902629 57 197 0
0.504913 -0.2696 -0.0883173 60 194 0
0.503694 -0.274989 -0.0866642 63 191 0
0.499642 -0.279265 -0.0859073 66 188 0
0.494364 -0.282184 -0.0858625 70 184 0
0.488641 -0.282396 -0.086355 73 181 0
0.483875 -0.278873 -0.0871357 76 178 0
0.482361 -0.27339 -0.0883432 79 175 0
0.484712 -0.268252 -0.0886961 82 172 0
0.487966 -0.264857 -0.0882717 86 168 0
0.493666 -0.26368 -0.0875642 89 165 0
0.499267 -0.265673 -0.0866778 92 162 0
0.50342 -0.26981 -0.0859568 95 159 0
0.50598 -0.275231 -0.0853539 98 156 0
0.506264 -0.281098 -0.0852619 102 153 0
0.503666 -0.286507 -0.0856956 105 149 0
0.498999 -0.289864 -0.0863969 108 146 0
0.493678 -0.292446 -0.0872184 111 143 0
0.488013 -0.29157 -0.0878731 114 140 0
0.483786 -0.287285 -0.0882053 117 137 0
0.482378 -0.281813 -0.0882043 121 133 0
0.486008 -0.277239 -0.0875828 124 130 0
0.491138 -0.274725 -0.0862675 127 127 0
0.496955 -0.274658 -0.0849068 130 124 0
0.501803 -0.278055 -0.0839874 133 121 0
0.506419 -0.281907 -0.0835958 137 117 0
0.506496 -0.287888 -0.0837373 140 114 0
0.50531 -0.293654 -0.0844886 143 111 0
0.502307 -0.298707 -0.0857367 146 108 0
0.497598 -0.301957 -0.0873631 149 105 0
0.492362 -0.301642 -0.0889427 153 101 0
0.486705 -0.299714 -0.0896941 156 98 0
0.484015 -0.294966 -0.0900632 159 95 0
0.485404 -0.289933 -0.0896693 162 92 0
0.488605 -0.285008 -0.0886226 165 89 0
0.494245 -0.284484 -0.0868246 168 86 0
0.499635 -0.285123 -0.0849888 172 82 0
0.503795 -0.289338 -0.0838336 175 79 0
0.506575 -0.294504 -0.0829414 178 76 0
0.50837 -0.300028 -0.0826814 181 73 0
0.505764 -0.305405 -0.0828564 184 70 0
0.501485 -0.30946 -0.0836992 188 66 0
0.496671 -0.312897 -0.0847382 191 63 0
0.491002 -0.312258 -0.086685 194 60 0
0.486317 -0.309454 -0.0884632 197 57 0
0.484457 -0.303949 -0.0898438 200 54 0
0.486578 -0.298672 -0.0900907 204 50 0
0.490687 -0.294752 -0.0888852 207 47 0
0.496322 -0.294676 -0.0869289 210 44 0
0.501776 -0.296208 -0.0849826 213 41 0
0.506012 -0.300078 -0.0832215 216 38 0
0.508193 -0.305415 -0.081723 219 35 0
0.508425 -0.311327 -0.0807313 223 31 0
0.506566 -0.316798 -0.0801765 226 28 0
0.502097 -0.320791 -0.0802523 229 25 0
0.497269 -0.322457 -0.0810877 232 22 0
0.491367 -0.322753 -0.0821904 235 19 0
0.487526 -0.319753 -0.0840814 239 15 0
0.48562 -0.315838 -0.0864048 242 12 0
0.485317 -0.311751 -0.0879297 245 9 0
0.488062 -0.307556 -0.0887211 248 6 0
0.492249 -0.304288 -0.0875604 251 3 0
0.496587 -0.304407 -0.0853683 255 0 0
