ply
format ascii 1.0
comment Generated by robot_control PLYWriter
element vertex 65
property float x
property float y
property float z
property uchar red
property uchar green
property uchar blue
end_header
0.530388 -0.188745 -0.0924881 0 255 0
0.535635 -0.190213 -0.093197 3 251 0
0.538473 -0.19359 -0.0939124 7 247 0
0.538802 -0.199436 -0.0948305 11 243 0
0.538762 -0.205375 -0.0954972 15 239 0
0.535441 -0.210059 -0.0958924 19 235 0
0.530774 -0.212823 -0.0960883 23 231 0
0.525103 -0.214332 -0.0960044 27 227 0
0.51913 -0.214234 -0.0957868 31 223 0
0.513917 -0.212058 -0.0954584 35 219 0
0.51 -0.207675 -0.0948207 39 215 0
0.505839 -0.203482 -0.0940899 43 211 0
0.504971 -0.197775 -0.0934172 47 207 0
0.50625 -0.192038 -0.0928152 51 203 0
0.508841 -0.186718 -0.0923753 55 199 0
0.51411 -0.184285 -0.09211 59 195 0
0.519478 -0.182654 -0.0921662 63 191 0
0.524586 -0.185737 -0.0925114 67 187 0
0.529046 -0.189477 -0.0931788 71 183 0
0.530204 -0.195208 -0.0937869 75 179 0
0.528929 -0.200988 -0.0942662 79 175 0
0.525775 -0.205859 -0.0948976 83 171 0
0.521069 -0.209528 -0.0952821 87 167 0
0.515637 -0.211114 -0.0954494 91 163 0
0.509974 -0.209776 -0.0953364 95 159 0
0.504555 -0.207272 -0.0950124 99 155 0
0.499647 -0.203982 -0.0945232 103 151 0
0.497002 -0.198808 -0.093931 107 147 0
0.496764 -0.192865 -0.0934539 111 143 0
0.497577 -0.187197 -0.0928242 115 139 0
0.50102 -0.182347 -0.0923274 119 135 0
0.506 -0.179488 -0.0919352 123 131 0
0.511804 -0.179505 -0.0917837 127 127 0
0.517365 -0.181695 -0.0919364 131 123 0
0.520832 -0.186197 -0.0922658 135 119 0
0.520967 -0.192087 -0.0927014 139 115 0
0.520298 -0.197918 -0.0934351 143 111 0
0.516538 -0.201938 -0.0941662 147 107 0
0.511662 -0.205257 -0.094757 151 103 0
0.50605 -0.206164 -0.0951619 155 99 0
0.500272 -0.204752 -0.095263 159 95 0
0.494786 -0.202384 -0.0950758 163 91 0
0.490404 -0.198375 -0.094738 167 87 0
0.48774 -0.193057 -0.0942128 171 83 0
0.48639 -0.187541 -0.0936742 175 79 0
0.487804 -0.181813 -0.0930468 179 75 0
0.491758 -0.177638 -0.0921344 183 71 0
0.497039 -0.174947 -0.0914503 187 67 0
0.502784 -0.174501 -0.0909044 191 63 0
0.508185 -0.176534 -0.0908939 195 59 0
0.510973 -0.181513 -0.0912296 199 55 0
0.512495 -0.186945 -0.0919741 203 51 0
0.510755 -0.192465 -0.0928274 207 47 0
0.508006 -0.196951 -0.0938435 211 43 0
0.503361 -0.200231 -0.0945941 215 39 0
0.497772 -0.201951 -0.0953493 219 35 0
0.492255 -0.201017 -0.0959752 223 31 0
0.486815 -0.198565 -0.0962114 227 27 0
0.482534 -0.194556 -0.0961411 231 23 0
0.479786 -0.189365 -0.0955205 235 19 0
0.478593 -0.183892 -0.0948354 239 15 0
0.47871 -0.178087 -0.0935226 243 11 0
0.4816 -0.173606 -0.0923887 247 7 0
0.485741 -0.170517 -0.0911879 251 3 0
0.490848 -0.170349 -0.0902203 255 0 0
