ply
format ascii 1.0
comment Generated by robot_control PLYWriter
element vertex 39
property float x
property float y
property float z
property uchar red
property uchar green
property uchar blue
end_header
0.588238 0.0750207 -0.147317 0 255 0
0.593101 0.0745298 -0.145555 6 248 0
0.595592 0.0710838 -0.142836 13 241 0
0.596779 0.0659684 -0.140504 20 234 0
0.595337 0.0606591 -0.138732 26 228 0
0.590535 0.0571448 -0.13833 33 221 0
0.584848 0.0570054 -0.139406 40 214 0
0.5799 0.0588387 -0.141184 46 208 0
0.578191 0.0632164 -0.143069 53 201 0
0.576501 0.0682621 -0.145236 60 194 0
0.579313 0.0731667 -0.146827 67 187 0
0.58333 0.0775394 -0.147649 73 181 0
0.588151 0.0812041 -0.147645 80 174 0
0.593976 0.0800076 -0.146848 87 167 0
0.59967 0.0789155 -0.145472 93 161 0
0.603234 0.0749029 -0.143972 100 154 0
0.604921 0.0697601 -0.142191 107 147 0
0.601943 0.0647666 -0.14084 114 140 0
0.596893 0.0621176 -0.140703 120 134 0
0.591153 0.0617839 -0.141794 127 127 0
0.586661 0.0648366 -0.143512 134 120 0
0.585014 0.0703131 -0.145173 140 114 0
0.584989 0.0761951 -0.146606 147 107 0
0.588246 0.0808829 -0.147886 154 100 0
0.593267 0.0838759 -0.148356 161 93 0
0.598893 0.0859308 -0.148195 167 87 0
0.604655 0.0851232 -0.146833 174 80 0
0.609342 0.08162 -0.145455 181 73 0
0.612314 0.0768751 -0.143228 187 67 0
0.610043 0.0725387 -0.141716 194 60 0
0.606651 0.0684768 -0.140823 201 53 0
0.601135 0.0675313 -0.141268 208 46 0
0.595812 0.0688891 -0.142836 214 40 0
0.593442 0.0736623 -0.145071 221 33 0
0.592469 0.0786745 -0.14785 228 26 0
0.593461 0.0836937 -0.150247 234 20 0
0.595885 0.0882045 -0.151624 241 13 0
0.600862 0.0902413 -0.151959 248 6 0
0.605426 0.0910429 -0.151003 255 0 0
