ply
format ascii 1.0
comment Generated by robot_control PLYWriter
element vertex 59
property float x
property float y
property float z
property uchar red
property uchar green
property uchar blue
end_header
0.637956 0.0539336 -0.11387 0 255 0
0.642047 0.0510632 -0.115087 4 250 0
0.644949 0.0474794 -0.116017 8 246 0
0.64593 0.0424433 -0.115896 13 241 0
0.644433 0.0371568 -0.114795 17 237 0
0.639911 0.0344292 -0.113126 21 233 0
0.63439 0.033655 -0.111516 26 228 0
0.628956 0.0346454 -0.109845 30 224 0
0.623887 0.0371034 -0.108835 35 219 0
0.620821 0.0421687 -0.108378 39 215 0
0.619468 0.0479426 -0.108493 43 211 0
0.620292 0.0536523 -0.108938 48 206 0
0.621958 0.0589733 -0.109882 52 202 0
0.626496 0.0626415 -0.111014 57 197 0
0.631589 0.0651108 -0.112535 61 193 0
0.637403 0.0651209 -0.113933 65 189 0
0.641974 0.0619235 -0.114729 70 184 0
0.645075 0.0569782 -0.114843 74 180 0
0.644905 0.0510795 -0.114324 79 175 0
0.641063 0.0466044 -0.113421 83 171 0
0.63574 0.044022 -0.112453 87 167 0
0.630231 0.0452951 -0.111238 92 162 0
0.625554 0.0477261 -0.110521 96 158 0
0.621034 0.0513574 -0.110069 101 153 0
0.618698 0.0567391 -0.110016 105 149 0
0.618779 0.0627421 -0.11039 109 145 0
0.619828 0.0683617 -0.111009 114 140 0
0.623368 0.073123 -0.111897 118 136 0
0.627612 0.0768908 -0.113058 123 131 0
0.633365 0.0771173 -0.11408 127 127 0
0.638906 0.075257 -0.115088 131 123 0
0.64321 0.0711042 -0.115597 136 118 0
0.645232 0.065784 -0.115421 140 114 0
0.643366 0.0604228 -0.11488 145 109 0
0.638741 0.0568869 -0.113832 149 105 0
0.633121 0.055043 -0.112915 153 101 0
0.627864 0.0571857 -0.112074 158 96 0
0.622827 0.0603788 -0.111255 162 92 0
0.619455 0.0649027 -0.110976 167 87 0
0.618848 0.0708356 -0.111066 171 83 0
0.61927 0.0767931 -0.11157 175 79 0
0.62169 0.0820804 -0.112513 180 74 0
0.625864 0.0861628 -0.113858 184 70 0
0.63117 0.0873139 -0.114912 189 65 0
0.636947 0.0869084 -0.116042 193 61 0
0.64184 0.0836683 -0.116851 197 57 0
0.644645 0.0784942 -0.117043 202 52 0
0.642848 0.0728855 -0.116635 206 48 0
0.63933 0.0681598 -0.115617 211 43 0
0.633765 0.0668847 -0.114274 215 39 0
0.627986 0.067812 -0.112982 219 35 0
0.623036 0.0709682 -0.111958 224 30 0
0.619177 0.0755242 -0.11156 228 26 0
0.616518 0.0806861 -0.111687 233 21 0
0.616564 0.0863234 -0.112311 237 17 0
0.619189 0.0910786 -0.113155 241 13 0
0.621726 0.0954566 -0.11412 246 8 0
0.62608 0.0980758 -0.115147 250 4 0
0.630453 0.100009 -0.116205 255 0 0
