ply
format ascii 1.0
comment Generated by robot_control PLYWriter
element vertex 32
property float x
property float y
property float z
property uchar red
property uchar green
property uchar blue
end_header
0.707001 0.0810173 -0.140905 0 255 0
0.711718 0.0777168 -0.14014 8 246 0
0.716093 0.0740022 -0.139192 16 238 0
0.717206 0.0682714 -0.137914 24 230 0
0.718512 0.0627405 -0.137013 32 222 0
0.715768 0.0573651 -0.136551 41 213 0
0.711504 0.0536293 -0.136377 49 205 0
0.705501 0.0530913 -0.136592 57 197 0
0.699969 0.0553611 -0.136977 65 189 0
0.695283 0.0591011 -0.137771 74 180 0
0.694838 0.0648495 -0.138611 82 172 0
0.694568 0.0706588 -0.139628 90 164 0
0.697377 0.0757985 -0.140442 98 156 0
0.701634 0.0800567 -0.141042 106 148 0
0.706733 0.0831851 -0.141264 115 139 0
0.712329 0.0825567 -0.141273 123 131 0
0.718198 0.0813306 -0.141107 131 123 0
0.723922 0.0795554 -0.140774 139 115 0
0.727911 0.0752811 -0.140311 148 106 0
0.72951 0.0695081 -0.139728 156 98 0
0.729006 0.0635998 -0.138573 164 90 0
0.725766 0.0591066 -0.137637 172 82 0
0.720816 0.056104 -0.136625 180 74 0
0.714807 0.0562513 -0.136145 189 65 0
0.70934 0.0585858 -0.136307 197 57 0
0.706302 0.0636325 -0.136965 205 49 0
0.704777 0.0688352 -0.137901 213 41 0
0.705538 0.0741481 -0.139283 222 32 0
0.708075 0.0789211 -0.141345 230 24 0
0.712764 0.0816963 -0.143262 238 16 0
0.717234 0.0849506 -0.144812 246 8 0
0.722397 0.0845656 -0.147011 255 0 0
