ply
format ascii 1.0
comment Generated by robot_control PLYWriter
element vertex 56
property float x
property float y
property float z
property uchar red
property uchar green
property uchar blue
end_header
0.684382 0.0199484 -0.0602607 0 255 0
0.688914 0.0168625 -0.0591481 4 250 0
0.692264 0.0131087 -0.0565431 9 245 0
0.693026 0.00814281 -0.0533401 13 241 0
0.692582 0.00349631 -0.0497189 18 236 0
0.690579 -0.000741748 -0.0463482 23 231 0
0.688186 -0.00501445 -0.0429416 27 227 0
0.683903 -0.00802868 -0.0401877 32 222 0
0.67843 -0.00810507 -0.0382043 37 217 0
0.672604 -0.00836309 -0.0368795 41 213 0
0.667057 -0.00669148 -0.0373557 46 208 0
0.662655 -0.00285595 -0.0387398 51 204 0
0.66025 0.00216483 -0.0409193 55 199 0
0.658034 0.00725019 -0.0431969 60 194 0
0.656942 0.012095 -0.0454951 64 190 0
0.659532 0.0170301 -0.0477367 69 185 0
0.662371 0.0218306 -0.0498584 74 180 0
0.666248 0.0250107 -0.05299 78 176 0
0.671054 0.027392 -0.0548877 83 171 0
0.676829 0.0270018 -0.0562822 88 166 0
0.681876 0.0241703 -0.0564796 92 162 0
0.686568 0.020692 -0.0551538 97 157 0
0.68784 0.0151546 -0.0531941 102 153 0
0.68832 0.00978699 -0.0509852 106 148 0
0.685437 0.0050844 -0.0486358 111 143 0
0.681737 0.000890381 -0.046571 115 139 0
0.676724 -0.00153873 -0.0447694 120 134 0
0.670918 -0.0023489 -0.0435802 125 129 0
0.665041 -0.00173937 -0.0429123 129 125 0
0.66002 0.00131946 -0.042764 134 120 0
0.655976 0.00568983 -0.0429066 139 115 0
0.653824 0.0111406 -0.0435105 143 111 0
0.653101 0.0169792 -0.0446837 148 106 0
0.653627 0.022636 -0.0463109 153 101 0
0.656513 0.0272079 -0.048307 157 97 0
0.660843 0.0307548 -0.050494 162 92 0
0.665547 0.0332523 -0.0529529 166 88 0
0.67129 0.0331926 -0.0544286 171 83 0
0.676981 0.0316009 -0.0550726 176 78 0
0.680039 0.0264906 -0.0545632 180 74 0
0.682595 0.0214018 -0.0536591 185 69 0
0.681151 0.0159754 -0.0523898 190 64 0
0.679488 0.0108668 -0.0503386 194 60 0
0.675552 0.00685392 -0.0483359 199 55 0
0.670855 0.00383895 -0.046208 204 50 0
0.66569 0.00373119 -0.0443049 208 46 0
0.659984 0.00427942 -0.0427558 213 41 0
0.655096 0.00755001 -0.0422657 217 37 0
0.650423 0.0109533 -0.042789 222 32 0
0.648355 0.0164448 -0.0435591 227 27 0
0.647143 0.0223195 -0.0438731 231 23 0
0.648049 0.028102 -0.0437624 236 18 0
0.650217 0.0332007 -0.0426093 241 13 0
0.654247 0.0363521 -0.040043 245 9 0
0.65795 0.0393451 -0.0378208 250 4 0
0.663252 0.0390977 -0.0380293 255 0 0
