ply
format ascii 1.0
comment Generated by robot_control PLYWriter
element vertex 200
property float x
property float y
property float z
property uchar red
property uchar green
property uchar blue
end_header
0.505139 -0.0327687 -0.12011 0 255 0
0.505139 -0.0327687 -0.12011 1 253 0
0.505139 -0.0327687 -0.12011 2 252 0
0.505139 -0.0327687 -0.12011 3 251 0
0.505139 -0.0327687 -0.12011 5 249 0
0.505139 -0.0327687 -0.12011 6 248 0
0.505139 -0.0327687 -0.12011 7 247 0
0.505139 -0.0327687 -0.12011 8 246 0
0.505139 -0.0327687 -0.12011 10 244 0
0.505139 -0.0327687 -0.12011 11 243 0
0.505139 -0.0327687 -0.12011 12 242 0
0.505139 -0.0327687 -0.12011 14 240 0
0.505139 -0.0327687 -0.12011 15 239 0
0.505139 -0.0327687 -0.12011 16 238 0
0.505139 -0.0327687 -0.12011 17 237 0
0.505139 -0.0327687 -0.12011 19 235 0
0.505139 -0.0327687 -0.12011 20 234 0
0.505139 -0.0327687 -0.12011 21 233 0
0.505139 -0.0327687 -0.12011 23 231 0
0.505139 -0.0327687 -0.12011 24 230 0
0.505139 -0.0327687 -0.12011 25 229 0
0.505139 -0.0327687 -0.12011 26 228 0
0.505139 -0.0327687 -0.12011 28 226 0
0.505139 -0.0327687 -0.12011 29 225 0
0.505139 -0.0327687 -0.12011 30 224 0
0.505139 -0.0327687 -0.12011 32 222 0
0.505139 -0.0327687 -0.12011 33 221 0
0.505139 -0.0327687 -0.12011 34 220 0
0.505139 -0.0327687 -0.12011 35 219 0
0.505139 -0.0327687 -0.12011 37 217 0
0.505139 -0.0327687 -0.12011 38 216 0
0.505139 -0.0327687 -0.12011 39 215 0
0.505139 -0.0327687 -0.12011 41 213 0
0.505139 -0.0327687 -0.12011 42 212 0
0.505139 -0.0327687 -0.12011 43 211 0
0.505139 -0.0327687 -0.12011 44 210 0
0.505139 -0.0327687 -0.12011 46 208 0
0.505139 -0.0327687 -0.12011 47 207 0
0.505139 -0.0327687 -0.12011 48 206 0
0.505139 -0.0327687 -0.12011 49 205 0
0.505139 -0.0327687 -0.12011 51 203 0
0.505139 -0.0327687 -0.12011 52 202 0
0.505139 -0.0327687 -0.12011 53 201 0
0.505139 -0.0327687 -0.12011 55 199 0
0.505139 -0.0327687 -0.12011 56 198 0
0.505139 -0.0327687 -0.12011 57 197 0
0.505139 -0.0327687 -0.12011 58 196 0
0.505139 -0.0327687 -0.12011 60 194 0
0.505139 -0.0327687 -0.12011 61 193 0
0.505139 -0.0327687 -0.12011 62 192 0
0.505139 -0.0327687 -0.12011 64 190 0
0.505139 -0.0327687 -0.12011 65 189 0
0.505139 -0.0327687 -0.12011 66 188 0
0.505139 -0.0327687 -0.12011 67 187 0
0.505139 -0.0327687 -0.12011 69 185 0
0.505139 -0.0327687 -0.12011 70 184 0
0.505139 -0.0327687 -0.12011 71 183 0
0.505139 -0.0327687 -0.12011 73 181 0
0.505139 -0.0327687 -0.12011 74 180 0
0.505139 -0.0327687 -0.12011 75 179 0
0.505139 -0.0327687 -0.12011 76 178 0
0.505139 -0.0327687 -0.12011 78 176 0
0.505139 -0.0327687 -0.12011 79 175 0
0.505139 -0.0327687 -0.12011 80 174 0
0.505139 -0.0327687 -0.12011 82 172 0
0.505139 -0.0327687 -0.12011 83 171 0
0.505139 -0.0327687 -0.12011 84 170 0
0.505139 -0.0327687 -0.12011 85 169 0
0.505139 -0.0327687 -0.12011 87 167 0
0.505139 -0.0327687 -0.12011 88 166 0
0.505139 -0.0327687 -0.12011 89 165 0
0.505139 -0.0327687 -0.12011 90 164 0
0.505139 -0.0327687 -0.12011 92 162 0
0.505139 -0.0327687 -0.12011 93 161 0
0.505139 -0.0327687 -0.12011 94 160 0
0.505139 -0.0327687 -0.12011 96 158 0
0.505139 -0.0327687 -0.12011 97 157 0
0.505139 -0.0327687 -0.12011 98 156 0
0.505139 -0.0327687 -0.12011 99 155 0
0.505139 -0.0327687 -0.12011 101 153 0
0.505139 -0.0327687 -0.12011 102 152 0
0.505139 -0.0327687 -0.12011 103 151 0
0.505139 -0.0327687 -0.12011 105 149 0
0.505139 -0.0327687 -0.12011 106 148 0
0.505139 -0.0327687 -0.12011 107 147 0
0.505139 -0.0327687 -0.12011 108 146 0
0.505139 -0.0327687 -0.12011 110 144 0
0.505139 -0.0327687 -0.12011 111 143 0
0.505139 -0.0327687 -0.12011 112 142 0
0.505139 -0.0327687 -0.12011 114 140 0
0.505139 -0.0327687 -0.12011 115 139 0
0.505139 -0.0327687 -0.12011 116 138 0
0.505139 -0.0327687 -0.12011 117 137 0
0.505139 -0.0327687 -0.12011 119 135 0
0.505139 -0.0327687 -0.12011 120 134 0
0.505139 -0.0327687 -0.12011 121 133 0
0.505139 -0.0327687 -0.12011 123 131 0
0.505139 -0.0327687 -0.12011 124 130 0
0.505139 -0.0327687 -0.12011 125 129 0
0.505139 -0.0327687 -0.12011 126 128 0
0.505139 -0.0327687 -0.12011 128 126 0
0.505139 -0.0327687 -0.12011 129 125 0
0.505139 -0.0327687 -0.12011 130 124 0
0.505139 -0.0327687 -0.12011 131 123 0
0.505139 -0.0327687 -0.12011 133 121 0
0.505139 -0.0327687 -0.12011 134 120 0
0.505139 -0.0327687 -0.12011 135 119 0
0.505139 -0.0327687 -0.12011 137 117 0
0.505139 -0.0327687 -0.12011 138 116 0
0.505139 -0.0327687 -0.12011 139 115 0
0.505139 -0.0327687 -0.12011 140 114 0
0.505139 -0.0327687 -0.12011 142 112 0
0.505139 -0.0327687 -0.12011 143 111 0
0.505139 -0.0327687 -0.12011 144 110 0
0.505139 -0.0327687 -0.12011 146 108 0
0.505139 -0.0327687 -0.12011 147 107 0
0.505139 -0.0327687 -0.12011 148 106 0
0.505139 -0.0327687 -0.12011 149 105 0
0.505139 -0.0327687 -0.12011 151 103 0
0.505139 -0.0327687 -0.12011 152 102 0
0.505139 -0.0327687 -0.12011 153 101 0
0.505139 -0.0327687 -0.12011 155 99 0
0.505139 -0.0327687 -0.12011 156 98 0
0.505139 -0.0327687 -0.12011 157 97 0
0.505139 -0.0327687 -0.12011 158 96 0
0.505139 -0.0327687 -0.12011 160 94 0
0.505139 -0.0327687 -0.12011 161 93 0
0.505139 -0.0327687 -0.12011 162 92 0
0.505139 -0.0327687 -0.12011 164 90 0
0.505139 -0.0327687 -0.12011 165 89 0
0.505139 -0.0327687 -0.12011 166 88 0
0.505139 -0.0327687 -0.12011 167 87 0
0.505139 -0.0327687 -0.12011 169 85 0
0.505139 -0.0327687 -0.12011 170 84 0
0.505139 -0.0327687 -0.12011 171 83 0
0.505139 -0.0327687 -0.12011 172 82 0
0.505139 -0.0327687 -0.12011 174 80 0
0.505139 -0.0327687 -0.12011 175 79 0
0.505139 -0.0327687 -0.12011 176 78 0
0.505139 -0.0327687 -0.12011 178 76 0
0.505139 -0.0327687 -0.12011 179 75 0
0.505139 -0.0327687 -0.12011 180 74 0
0.505139 -0.0327687 -0.12011 181 73 0
0.505139 -0.0327687 -0.12011 183 71 0
0.505139 -0.0327687 -0.12011 184 70 0
0.505139 -0.0327687 -0.12011 185 69 0
0.505139 -0.0327687 -0.12011 187 67 0
0.505139 -0.0327687 -0.12011 188 66 0
0.505139 -0.0327687 -0.12011 189 65 0
0.505139 -0.0327687 -0.12011 190 64 0
0.505139 -0.0327687 -0.12011 192 62 0
0.505139 -0.0327687 -0.12011 193 61 0
0.505139 -0.0327687 -0.12011 194 60 0
0.505139 -0.0327687 -0.12011 196 58 0
0.505139 -0.0327687 -0.12011 197 57 0
0.505139 -0.0327687 -0.12011 198 56 0
0.505139 -0.0327687 -0.12011 199 55 0
0.505139 -0.0327687 -0.12011 201 53 0
0.505139 -0.0327687 -0.12011 202 52 0
0.505139 -0.0327687 -0.12011 203 51 0
0.505139 -0.0327687 -0.12011 205 49 0
0.505139 -0.0327687 -0.12011 206 48 0
0.505139 -0.0327687 -0.12011 207 47 0
0.505139 -0.0327687 -0.12011 208 46 0
0.505139 -0.0327687 -0.12011 210 44 0
0.505139 -0.0327687 -0.12011 211 43 0
0.505139 -0.0327687 -0.12011 212 42 0
0.505139 -0.0327687 -0.12011 213 41 0
0.505139 -0.0327687 -0.12011 215 39 0
0.505139 -0.0327687 -0.12011 216 38 0
0.505139 -0.0327687 -0.12011 217 37 0
0.505139 -0.0327687 -0.12011 219 35 0
0.505139 -0.0327687 -0.12011 220 34 0
0.505139 -0.0327687 -0.12011 221 33 0
0.505139 -0.0327687 -0.12011 222 32 0
0.505139 -0.0327687 -0.12011 224 30 0
0.505139 -0.0327687 -0.12011 225 29 0
0.505139 -0.0327687 -0.12011 226 28 0
0.505139 -0.0327687 -0.12011 228 26 0
0.505139 -0.0327687 -0.12011 229 25 0
0.505139 -0.0327687 -0.12011 230 24 0
0.505139 -0.0327687 -0.12011 231 23 0
0.505139 -0.0327687 -0.12011 233 21 0
0.505139 -0.0327687 -0.12011 234 20 0
0.505139 -0.0327687 -0.12011 235 19 0
0.505139 -0.0327687 -0.12011 237 17 0
0.505139 -0.0327687 -0.12011 238 16 0
0.505139 -0.0327687 -0.12011 239 15 0
0.505139 -0.0327687 -0.12011 240 14 0
0.505139 -0.0327687 -0.12011 242 12 0
0.505139 -0.0327687 -0.12011 243 11 0
0.505139 -0.0327687 -0.12011 244 10 0
0.505139 -0.0327687 -0.12011 246 8 0
0.505139 -0.0327687 -0.12011 247 7 0
0.505139 -0.0327687 -0.12011 248 6 0
0.505139 -0.0327687 -0.12011 249 5 0
0.505139 -0.0327687 -0.12011 251 3 0
0.505139 -0.0327687 -0.12011 252 2 0
0.505139 -0.0327687 -0.12011 253 1 0
0.505139 -0.0327687 -0.12011 255 0 0
