ply
format ascii 1.0
comment Generated by robot_control PLYWriter
element vertex 11
property float x
property float y
property float z
property uchar red
property uchar green
property uchar blue
end_header
0.688813 -0.0617501 -0.104602 0 255 0
0.688627 -0.0667105 -0.104939 25 229 0
0.688523 -0.0716233 -0.105736 51 204 0
0.68846 -0.0765199 -0.106642 76 178 0
0.688412 -0.081395 -0.107659 102 153 0
0.688374 -0.0862649 -0.108702 127 127 0
0.688349 -0.0911291 -0.109772 153 101 0
0.688137 -0.0959789 -0.110883 178 76 0
0.688054 -0.100821 -0.112044 204 50 0
0.687995 -0.105649 -0.113258 229 25 0
0.687865 -0.110566 -0.114029 255 0 0
