ply
format ascii 1.0
comment Generated by robot_control PLYWriter
element vertex 91
property float x
property float y
property float z
property uchar red
property uchar green
property uchar blue
end_header
0.683083 0.0191638 -0.0601607 0 255 0
0.687885 0.0174315 -0.0596857 2 252 0
0.691869 0.0139682 -0.0581576 5 249 0
0.693307 0.00930689 -0.055153 8 246 0
0.694652 0.00519003 -0.0517304 11 243 0
0.694986 0.000504225 -0.0483985 14 240 0
0.694116 -0.00434249 -0.0450577 17 238 0
0.692299 -0.00890558 -0.0417861 19 235 0
0.688445 -0.0122065 -0.0387025 22 232 0
0.684274 -0.0147182 -0.0360581 25 229 0
0.679056 -0.0167639 -0.034536 28 226 0
0.673302 -0.0161286 -0.0339655 31 223 0
0.668378 -0.0127806 -0.0341214 34 221 0
0.664936 -0.0083991 -0.03583 36 218 0
0.664673 -0.00288995 -0.038087 39 215 0
0.665685 0.00224375 -0.0408779 42 212 0
0.66858 0.0060532 -0.0440612 45 209 0
0.672172 0.0102405 -0.0462501 48 206 0
0.677088 0.0116241 -0.0487778 51 204 0
0.682827 0.0114373 -0.0497517 53 201 0
0.688576 0.00987753 -0.0499512 56 198 0
0.692401 0.00600142 -0.0490561 59 195 0
0.695929 0.00133551 -0.0478842 62 192 0
0.697423 -0.00413908 -0.0463733 65 189 0
0.698214 -0.00956156 -0.0442647 68 187 0
0.697057 -0.0150075 -0.0426557 70 184 0
0.693277 -0.0190937 -0.0405777 73 181 0
0.689568 -0.0232223 -0.0387987 76 178 0
0.684226 -0.0247035 -0.0369362 79 175 0
0.678387 -0.0243888 -0.0358366 82 172 0
0.6728 -0.022519 -0.035382 85 169 0
0.669156 -0.0183492 -0.0357796 87 167 0
0.667231 -0.0127921 -0.0366966 90 164 0
0.668325 -0.00764952 -0.0378742 93 161 0
0.6705 -0.002312 -0.0392338 96 158 0
0.675622 0.000482208 -0.0402606 99 155 0
0.680726 0.00305982 -0.040914 102 153 0
0.686588 0.00322162 -0.0415252 104 150 0
0.691903 0.000887292 -0.04229 107 147 0
0.695806 -0.00330429 -0.0430491 110 144 0
0.698783 -0.00840058 -0.0436813 113 141 0
0.700673 -0.013667 -0.043825 116 138 0
0.699673 -0.0194947 -0.0432925 119 135 0
0.697849 -0.0251054 -0.0424153 121 133 0
0.69496 -0.0300964 -0.0413893 124 130 0
0.690174 -0.0330875 -0.0403578 127 127 0
0.684376 -0.0340441 -0.0394491 130 124 0
0.678648 -0.0329591 -0.0387343 133 121 0
0.673254 -0.0305485 -0.0380872 136 118 0
0.670302 -0.0254973 -0.0375459 138 116 0
0.669887 -0.0196194 -0.0371266 141 113 0
0.671769 -0.0139691 -0.0368035 144 110 0
0.675515 -0.00943008 -0.0366918 147 107 0
0.680538 -0.00630627 -0.0368181 150 104 0
0.686449 -0.00660643 -0.0373223 153 101 0
0.692047 -0.00746852 -0.0386717 155 99 0
0.696878 -0.0107288 -0.0398223 158 96 0
0.700632 -0.0151856 -0.0409808 161 93 0
0.702934 -0.020588 -0.0419908 164 90 0
0.703541 -0.0264316 -0.0428036 167 87 0
0.70281 -0.032239 -0.0431524 170 84 0
0.699563 -0.0370764 -0.0433598 172 82 0
0.694826 -0.0406285 -0.0434857 175 79 0
0.689588 -0.0425074 -0.0433912 178 76 0
0.683635 -0.0426431 -0.0429739 181 73 0
0.678216 -0.0406714 -0.0418879 184 70 0
0.673959 -0.0369235 -0.0404393 187 67 0
0.673094 -0.031628 -0.0391022 189 65 0
0.672905 -0.0259068 -0.0379676 192 62 0
0.675894 -0.0208359 -0.0371692 195 59 0
0.680483 -0.0171211 -0.0367602 198 56 0
0.685682 -0.0144656 -0.0370309 201 53 0
0.691304 -0.0156218 -0.0380137 204 50 0
0.696502 -0.0181822 -0.0394281 206 48 0
0.701256 -0.0212799 -0.0410048 209 45 0
0.70398 -0.0262432 -0.0422803 212 42 0
0.706306 -0.0314487 -0.0434857 215 39 0
0.706296 -0.0371367 -0.0443884 218 36 0
0.703835 -0.0425049 -0.0449313 221 33 0
0.700013 -0.0470384 -0.0451906 223 31 0
0.695329 -0.0505524 -0.0447206 226 28 0
0.689943 -0.0522121 -0.0437756 229 25 0
0.684072 -0.0516349 -0.0429436 232 22 0
0.679163 -0.0486444 -0.0422577 235 19 0
0.676113 -0.0441833 -0.0417291 238 16 0
0.675047 -0.0387049 -0.0412803 240 14 0
0.676227 -0.0344533 -0.0402279 243 11 0
0.677959 -0.0291077 -0.0392148 246 8 0
0.68279 -0.0262176 -0.0383689 249 5 0
0.687377 -0.023399 -0.0383433 252 2 0
0.692494 -0.0245091 -0.0389281 255 0 0
