ply
format ascii 1.0
comment Generated by robot_control PLYWriter
element vertex 13
property float x
property float y
property float z
property uchar red
property uchar green
property uchar blue
end_header
0.505439 -0.400535 -0.117737 0 255 0
0.505533 -0.405282 -0.119042 21 233 0
0.505311 -0.410094 -0.120126 42 212 0
0.505173 -0.41492 -0.121139 63 191 0
0.50511 -0.419819 -0.121737 85 169 0
0.505072 -0.424749 -0.12191 106 148 0
0.504998 -0.429675 -0.121602 127 127 0
0.504752 -0.434563 -0.120959 148 106 0
0.504696 -0.43936 -0.119788 170 84 0
0.504523 -0.444055 -0.118267 191 63 0
0.504293 -0.448691 -0.116582 212 42 0
0.504053 -0.453282 -0.114782 233 21 0
0.503727 -0.457742 -0.112691 255 0 0
