ply
format ascii 1.0
comment Generated by robot_control PLYWriter
element vertex 12
property float x
property float y
property float z
property uchar red
property uchar green
property uchar blue
end_header
0.557867 -0.405299 -0.117076 0 255 0
0.556996 -0.410307 -0.117671 23 231 0
0.556181 -0.415347 -0.118116 46 208 0
0.555284 -0.420382 -0.118445 69 185 0
0.554401 -0.425427 -0.118615 92 162 0
0.553566 -0.43048 -0.118491 115 139 0
0.552534 -0.435479 -0.118047 139 115 0
0.551677 -0.440445 -0.117156 162 92 0
0.550876 -0.445334 -0.115853 185 69 0
0.549943 -0.450119 -0.114278 208 46 0
0.549028 -0.454885 -0.112633 231 23 0
0.548124 -0.459527 -0.110664 255 0 0
