ply
format ascii 1.0
comment Generated by robot_control PLYWriter
element vertex 12
property float x
property float y
property float z
property uchar red
property uchar green
property uchar blue
end_header
0.593203 0.0053591 -0.110142 0 255 0
0.593216 0.00988055 -0.112228 23 231 0
0.593318 0.0144388 -0.114227 46 208 0
0.593539 0.0190046 -0.116202 69 185 0
0.593772 0.0235507 -0.11822 92 162 0
0.593991 0.0280885 -0.120259 115 139 0
0.594211 0.0326436 -0.122259 139 115 0
0.59443 0.0372147 -0.124222 162 92 0
0.594661 0.0417883 -0.126177 185 69 0
0.594886 0.0463494 -0.128163 208 46 0
0.594984 0.0509081 -0.130162 231 23 0
0.595008 0.0554851 -0.132123 255 0 0
