ply
format ascii 1.0
comment Generated by robot_control PLYWriter
element vertex 8
property float x
property float y
property float z
property uchar red
property uchar green
property uchar blue
end_header
0.51283 0.0250759 -0.139921 0 255 0
0.512819 0.0298095 -0.139859 36 218 0
0.512545 0.0345389 -0.139968 72 182 0
0.512241 0.0392648 -0.140149 109 145 0
0.511919 0.0439837 -0.140441 145 109 0
0.511577 0.0486959 -0.140815 182 72 0
0.5112 0.0534033 -0.141205 218 36 0
0.51092 0.0581169 -0.141496 255 0 0
