ply
format ascii 1.0
comment Generated by robot_control PLYWriter
element vertex 49
property float x
property float y
property float z
property uchar red
property uchar green
property uchar blue
end_header
0.511942 0.197584 -0.162179 0 255 0
0.514726 0.196598 -0.160422 5 249 0
0.51812 0.194656 -0.157966 10 244 0
0.5213 0.192471 -0.154677 15 239 0
0.523335 0.187675 -0.152089 21 233 0
0.523722 0.182397 -0.14986 26 228 0
0.522205 0.177068 -0.148542 31 223 0
0.518162 0.173051 -0.148532 37 217 0
0.51395 0.169108 -0.149484 42 212 0
0.509033 0.167625 -0.151746 47 207 0
0.504163 0.169736 -0.154353 53 201 0
0.500933 0.174013 -0.156973 58 196 0
0.500141 0.179412 -0.158989 63 191 0
0.501587 0.185042 -0.159604 69 185 0
0.505736 0.189312 -0.159208 74 180 0
0.510428 0.192447 -0.158163 79 175 0
0.51599 0.193889 -0.156615 85 169 0
0.521473 0.194369 -0.15462 90 164 0
0.525985 0.191469 -0.152544 95 159 0
0.53021 0.187927 -0.150253 100 154 0
0.532363 0.182847 -0.14808 106 148 0
0.532063 0.177397 -0.146189 111 143 0
0.52945 0.172173 -0.145233 116 138 0
0.526079 0.16727 -0.144966 122 132 0
0.520401 0.165722 -0.145862 127 127 0
0.514757 0.166117 -0.147109 132 122 0
0.510026 0.169261 -0.148763 138 116 0
0.508277 0.174426 -0.150674 143 111 0
0.509546 0.179662 -0.151686 148 106 0
0.513165 0.184381 -0.152061 154 100 0
0.517721 0.188131 -0.151681 159 95 0
0.52325 0.190029 -0.15087 164 90 0
0.528929 0.190171 -0.149542 170 84 0
0.534271 0.18879 -0.147292 175 79 0
0.539264 0.185963 -0.145672 180 74 0
0.541189 0.181142 -0.143171 185 69 0
0.54076 0.175513 -0.141286 191 63 0
0.539771 0.170049 -0.139841 196 58 0
0.536126 0.165446 -0.139098 201 53 0
0.53127 0.162071 -0.139326 207 47 0
0.525864 0.163084 -0.140112 212 42 0
0.520534 0.164388 -0.142001 217 37 0
0.518597 0.169218 -0.144027 223 31 0
0.518052 0.174219 -0.145974 228 26 0
0.519792 0.179423 -0.14742 233 21 0
0.523289 0.182322 -0.148258 239 15 0
0.526813 0.186272 -0.148514 244 10 0
0.531734 0.187412 -0.147881 249 5 0
0.536661 0.188253 -0.146821 255 0 0
