ply
format ascii 1.0
comment Generated by robot_control PLYWriter
element vertex 57
property float x
property float y
property float z
property uchar red
property uchar green
property uchar blue
end_header
0.685782 -0.00191602 -0.108364 0 255 0
0.689041 -0.00582941 -0.107171 4 250 0
0.692326 -0.00988897 -0.105705 9 245 0
0.692857 -0.0156759 -0.104413 13 241 0
0.692594 -0.0208321 -0.102804 18 236 0
0.689478 -0.0253059 -0.101124 22 232 0
0.685458 -0.0295622 -0.100143 27 227 0
0.679736 -0.0307042 -0.0994355 31 223 0
0.673851 -0.0302441 -0.0992074 36 218 0
0.668638 -0.0272358 -0.0995759 40 214 0
0.666764 -0.0223962 -0.100535 45 209 0
0.666735 -0.0168048 -0.101844 50 204 0
0.671079 -0.0128225 -0.102792 54 200 0
0.676038 -0.0106262 -0.103401 59 195 0
0.681897 -0.0113558 -0.103449 63 191 0
0.687184 -0.0141947 -0.102942 68 186 0
0.69087 -0.0188765 -0.102123 72 182 0
0.692949 -0.0243685 -0.101135 77 177 0
0.691132 -0.029692 -0.100027 81 173 0
0.689441 -0.0353777 -0.0990807 86 168 0
0.685167 -0.0394039 -0.0980995 91 163 0
0.679724 -0.0418933 -0.0973336 95 159 0
0.674068 -0.040543 -0.0969738 100 154 0
0.668937 -0.0375286 -0.0970881 104 150 0
0.666947 -0.032352 -0.0976629 109 145 0
0.66662 -0.0264035 -0.0985448 113 141 0
0.670414 -0.0219994 -0.0992882 118 136 0
0.676143 -0.0209405 -0.0998022 122 132 0
0.682024 -0.0212762 -0.0999206 127 127 0
0.686811 -0.0247105 -0.0997141 132 122 0
0.690189 -0.02967 -0.0991949 136 118 0
0.692566 -0.0350741 -0.0984184 141 113 0
0.690728 -0.0407767 -0.0977094 145 109 0
0.689216 -0.0460633 -0.0966927 150 104 0
0.684425 -0.0494668 -0.0958736 154 100 0
0.678786 -0.0515228 -0.0951905 159 95 0
0.672916 -0.0511768 -0.0946578 163 91 0
0.667644 -0.0483766 -0.0946222 168 86 0
0.664527 -0.043756 -0.094881 173 81 0
0.66492 -0.0378505 -0.095522 177 77 0
0.668765 -0.0334608 -0.0961028 182 72 0
0.673993 -0.0308582 -0.0967562 186 68 0
0.679906 -0.0317823 -0.0971322 191 63 0
0.685245 -0.0345131 -0.0973051 195 59 0
0.688563 -0.0391709 -0.097024 200 54 0
0.690817 -0.0444615 -0.0964895 204 50 0
0.690906 -0.0504487 -0.0957292 209 45 0
0.689081 -0.055637 -0.0950273 214 40 0
0.685229 -0.059906 -0.0941998 218 36 0
0.680245 -0.0622637 -0.0931389 223 31 0
0.674541 -0.0623613 -0.0921951 227 27 0
0.669291 -0.0604981 -0.0917763 232 22 0
0.66588 -0.0560752 -0.0918355 236 18 0
0.665157 -0.0505555 -0.0925804 241 13 0
0.666823 -0.0455817 -0.0936891 245 9 0
0.671007 -0.042205 -0.0948392 250 4 0
0.676326 -0.0408522 -0.0954562 255 0 0
