ply
format ascii 1.0
comment Generated by robot_control PLYWriter
element vertex 11
property float x
property float y
property float z
property uchar red
property uchar green
property uchar blue
end_header
0.700973 -0.179725 -0.123176 0 255 0
0.701384 -0.184377 -0.124121 25 229 0
0.701539 -0.189083 -0.124847 51 204 0
0.701776 -0.19379 -0.125553 76 178 0
0.702033 -0.198509 -0.126161 102 153 0
0.702244 -0.203254 -0.126494 127 127 0
0.702339 -0.208016 -0.126539 153 101 0
0.70237 -0.21278 -0.126435 178 76 0
0.702465 -0.217543 -0.126358 204 50 0
0.702524 -0.222307 -0.126446 229 25 0
0.702541 -0.22707 -0.126429 255 0 0
