ply
format ascii 1.0
comment Generated by robot_control PLYWriter
element vertex 10
property float x
property float y
property float z
property uchar red
property uchar green
property uchar blue
end_header
0.668413 -0.0783645 -0.0358169 0 255 0
0.668414 -0.0832622 -0.0357971 28 226 0
0.66877 -0.0881456 -0.0357178 56 198 0
0.669138 -0.0930291 -0.0356406 85 169 0
0.669526 -0.0979114 -0.0356421 113 141 0
0.669924 -0.102789 -0.0358121 141 113 0
0.670335 -0.107657 -0.0361518 170 84 0
0.670616 -0.11251 -0.0366928 198 56 0
0.670604 -0.11735 -0.037445 226 28 0
0.670665 -0.122148 -0.0384136 255 0 0
