ply
format ascii 1.0
comment Generated by robot_control PLYWriter
element vertex 49
property float x
property float y
property float z
property uchar red
property uchar green
property uchar blue
end_header
0.622144 0.227503 -0.153542 0 255 0
0.627181 0.224961 -0.153004 5 249 0
0.631105 0.221282 -0.151693 10 244 0
0.633262 0.216518 -0.149865 15 239 0
0.63424 0.211049 -0.148258 21 233 0
0.632392 0.206131 -0.146095 26 228 0
0.630375 0.201289 -0.144834 31 223 0
0.625939 0.198021 -0.143663 37 217 0
0.620501 0.195982 -0.143166 42 212 0
0.615227 0.198107 -0.143255 47 207 0
0.609915 0.200202 -0.143857 53 201 0
0.607364 0.205471 -0.14494 58 196 0
0.607506 0.211075 -0.146262 63 191 0
0.611062 0.215659 -0.147403 69 185 0
0.615586 0.219281 -0.148434 74 180 0
0.621358 0.220581 -0.148876 79 175 0
0.627147 0.219946 -0.1489 85 169 0
0.632795 0.218071 -0.148609 90 164 0
0.637526 0.214682 -0.148001 95 159 0
0.641065 0.21004 -0.146979 100 154 0
0.640937 0.204178 -0.146098 106 148 0
0.6404 0.198501 -0.144651 111 143 0
0.63688 0.1943 -0.143512 116 138 0
0.631767 0.19141 -0.142589 122 132 0
0.626109 0.190566 -0.141994 127 127 0
0.62068 0.192164 -0.141966 132 122 0
0.615813 0.195535 -0.142564 138 116 0
0.614345 0.200985 -0.143615 143 111 0
0.616131 0.206342 -0.144774 148 106 0
0.619689 0.211034 -0.145669 154 100 0
0.624664 0.214027 -0.146233 159 95 0
0.630163 0.213598 -0.146675 164 90 0
0.636042 0.213767 -0.146787 170 84 0
0.640777 0.210194 -0.146553 175 79 0
0.644921 0.206277 -0.145846 180 74 0
0.647724 0.201259 -0.144827 185 69 0
0.649227 0.196079 -0.143443 191 63 0
0.64714 0.190644 -0.142275 196 58 0
0.643337 0.186274 -0.140883 201 53 0
0.639136 0.182754 -0.139682 207 47 0
0.633217 0.182827 -0.138997 212 42 0
0.627545 0.184102 -0.138925 217 37 0
0.623546 0.187476 -0.139495 223 31 0
0.622818 0.192576 -0.1405 228 26 0
0.622169 0.19817 -0.141972 233 21 0
0.625074 0.202437 -0.143319 239 15 0
0.629306 0.204611 -0.145088 244 10 0
0.634274 0.20649 -0.146455 249 5 0
0.6393 0.205495 -0.147081 255 0 0
