ply
format ascii 1.0
comment Generated by robot_control PLYWriter
element vertex 10
property float x
property float y
property float z
property uchar red
property uchar green
property uchar blue
end_header
0.662393 -0.279152 -0.0832012 0 255 0
0.662411 -0.283951 -0.083185 28 226 0
0.662374 -0.288731 -0.0826701 56 198 0
0.662144 -0.293402 -0.0815873 85 169 0
0.66183 -0.297952 -0.0800872 113 141 0
0.661476 -0.302432 -0.0783801 141 113 0
0.661157 -0.306944 -0.0767657 170 84 0
0.660912 -0.311581 -0.0755697 198 56 0
0.660601 -0.316349 -0.0750407 226 28 0
0.660544 -0.321138 -0.0749997 255 0 0
