ply
format ascii 1.0
comment Generated by robot_control PLYWriter
element vertex 10
property float x
property float y
property float z
property uchar red
property uchar green
property uchar blue
end_header
0.636464 0.0432497 -0.0395523 0 255 0
0.636429 0.0483406 -0.0394583 28 226 0
0.636544 0.0534287 -0.0392218 56 198 0
0.636668 0.0584993 -0.0387432 85 169 0
0.636751 0.0635346 -0.0379713 113 141 0
0.636827 0.0685803 -0.0372677 141 113 0
0.63699 0.0736536 -0.0368329 170 84 0
0.63687 0.0787435 -0.037015 198 56 0
0.63678 0.083795 -0.0376715 226 28 0
0.636678 0.0887603 -0.0387592 255 0 0
