ply
format ascii 1.0
comment Generated by robot_control PLYWriter
element vertex 11
property float x
property float y
property float z
property uchar red
property uchar green
property uchar blue
end_header
0.595528 -0.379281 -0.0658108 0 255 0
0.596307 -0.37446 -0.0656391 25 229 0
0.597236 -0.369652 -0.0658722 51 204 0
0.598151 -0.364899 -0.0666325 76 178 0
0.599074 -0.360293 -0.068019 102 153 0
0.600028 -0.355832 -0.0698052 127 127 0
0.600778 -0.351392 -0.0717402 153 101 0
0.601446 -0.346948 -0.0737004 178 76 0
0.602136 -0.342511 -0.0756694 204 50 0
0.602787 -0.338067 -0.0776315 229 25 0
0.60336 -0.333533 -0.0794062 255 0 0
