ply
format ascii 1.0
comment Generated by robot_control PLYWriter
element vertex 29
property float x
property float y
property float z
property uchar red
property uchar green
property uchar blue
end_header
0.540171 0.107769 -0.160475 0 255 0
0.545205 0.105911 -0.158818 9 245 0
0.549157 0.102573 -0.156941 18 236 0
0.550611 0.0971778 -0.154955 27 227 0
0.550498 0.0913724 -0.153376 36 218 0
0.547256 0.0863011 -0.152549 45 209 0
0.542905 0.0823799 -0.152311 54 200 0
0.536939 0.0825803 -0.152903 63 191 0
0.532208 0.0856789 -0.154149 72 182 0
0.528663 0.0900356 -0.155518 81 173 0
0.530748 0.0952494 -0.156638 91 163 0
0.532207 0.100373 -0.1574 100 154 0
0.536885 0.104132 -0.157842 109 145 0
0.542269 0.105853 -0.157906 118 136 0
0.54834 0.105956 -0.157506 127 127 0
0.554095 0.104139 -0.156871 136 118 0
0.558366 0.100453 -0.155354 145 109 0
0.560962 0.0962175 -0.153834 154 100 0
0.561042 0.0903447 -0.152241 163 91 0
0.559517 0.0848041 -0.151039 173 81 0
0.555249 0.0808319 -0.150066 182 72 0
0.54931 0.0798672 -0.149714 191 63 0
0.543802 0.081944 -0.150338 200 54 0
0.541252 0.0863992 -0.151719 209 45 0
0.540387 0.0920714 -0.153374 218 36 0
0.543249 0.096592 -0.154958 227 27 0
0.546825 0.101016 -0.156578 236 18 0
0.551725 0.103297 -0.1578 245 9 0
0.557332 0.10391 -0.158685 255 0 0
