ply
format ascii 1.0
comment Generated by robot_control PLYWriter
element vertex 95
property float x
property float y
property float z
property uchar red
property uchar green
property uchar blue
end_header
0.593852 -0.235624 -0.106335 0 255 0
0.597849 -0.238097 -0.10626 2 252 0
0.600562 -0.242314 -0.105985 5 249 0
0.602171 -0.247678 -0.105409 8 246 0
0.602714 -0.253415 -0.104629 10 244 0
0.600821 -0.258744 -0.103936 13 241 0
0.597893 -0.263604 -0.103492 16 238 0
0.592641 -0.266298 -0.103322 18 236 0
0.587624 -0.268684 -0.103318 21 233 0
0.581885 -0.267436 -0.103455 24 230 0
0.576962 -0.264638 -0.103693 27 227 0
0.574509 -0.259667 -0.103996 29 225 0
0.572508 -0.254345 -0.1043 32 222 0
0.574801 -0.249049 -0.104722 35 219 0
0.579519 -0.245576 -0.105006 37 217 0
0.584806 -0.244456 -0.105215 40 214 0
0.590769 -0.244501 -0.105098 43 211 0
0.595684 -0.247545 -0.104774 46 208 0
0.59884 -0.252545 -0.104194 48 206 0
0.601096 -0.257944 -0.103727 51 203 0
0.601068 -0.263888 -0.103193 54 200 0
0.598417 -0.268744 -0.10264 56 198 0
0.594819 -0.273372 -0.102238 59 195 0
0.590275 -0.277154 -0.102045 62 192 0
0.584556 -0.278773 -0.102115 65 189 0
0.578956 -0.277707 -0.102359 67 187 0
0.574656 -0.273643 -0.102735 70 184 0
0.57243 -0.268233 -0.103113 73 181 0
0.572542 -0.262343 -0.103612 75 179 0
0.576417 -0.25784 -0.103916 78 176 0
0.581123 -0.25455 -0.103904 81 173 0
0.587081 -0.254695 -0.103609 84 170 0
0.59272 -0.255874 -0.103188 86 168 0
0.595892 -0.260484 -0.102705 89 165 0
0.598505 -0.265822 -0.102303 92 162 0
0.600833 -0.271114 -0.101969 94 160 0
0.598669 -0.276671 -0.101716 97 157 0
0.597187 -0.282049 -0.101356 100 154 0
0.592463 -0.285525 -0.101146 103 151 0
0.586887 -0.28764 -0.101114 105 149 0
0.581031 -0.288321 -0.101288 108 146 0
0.575888 -0.285697 -0.101818 111 143 0
0.572673 -0.280752 -0.102343 113 141 0
0.571195 -0.275259 -0.102741 116 138 0
0.573404 -0.269801 -0.102868 119 135 0
0.578235 -0.266656 -0.102734 122 132 0
0.583858 -0.264876 -0.10241 124 130 0
0.589757 -0.265289 -0.102086 127 127 0
0.594564 -0.268259 -0.101707 130 124 0
0.597859 -0.273209 -0.101261 132 122 0
0.598596 -0.278951 -0.100901 135 119 0
0.598627 -0.284911 -0.100594 138 116 0
0.596468 -0.290362 -0.100336 141 113 0
0.592388 -0.294672 -0.100188 143 111 0
0.58746 -0.297883 -0.100302 146 108 0
0.581762 -0.298574 -0.100554 149 105 0
0.5765 -0.296051 -0.100959 151 103 0
0.571907 -0.293115 -0.101299 154 100 0
0.57088 -0.287329 -0.101723 157 97 0
0.571141 -0.281454 -0.101908 160 94 0
0.575168 -0.27746 -0.101804 162 92 0
0.580163 -0.274245 -0.101524 165 89 0
0.585827 -0.274639 -0.101164 168 86 0
0.590726 -0.277769 -0.100715 170 84 0
0.595158 -0.281319 -0.100325 173 81 0
0.598637 -0.286124 -0.0999273 176 78 0
0.598573 -0.292084 -0.0996189 179 75 0
0.597922 -0.297812 -0.0994288 181 73 0
0.594533 -0.302721 -0.0993934 184 70 0
0.590013 -0.306137 -0.0995342 187 67 0
0.584563 -0.308442 -0.0998687 189 65 0
0.578615 -0.308713 -0.100255 192 62 0
0.573645 -0.305962 -0.100798 195 59 0
0.570837 -0.301597 -0.101232 198 56 0
0.568529 -0.296243 -0.101525 200 54 0
0.570856 -0.291514 -0.101703 203 51 0
0.574505 -0.287735 -0.101585 206 48 0
0.579059 -0.284537 -0.101225 208 46 0
0.584741 -0.285412 -0.100829 211 43 0
0.589741 -0.288227 -0.100258 214 40 0
0.5941 -0.290999 -0.0997806 217 37 0
0.596296 -0.296384 -0.0990504 219 35 0
0.596269 -0.302317 -0.0984167 222 32 0
0.596209 -0.308269 -0.0979858 225 29 0
0.593853 -0.313604 -0.0979031 227 27 0
0.588724 -0.316244 -0.098076 230 24 0
0.584088 -0.318665 -0.0986648 233 21 0
0.578221 -0.317993 -0.0994109 236 18 0
0.572798 -0.316914 -0.100457 238 16 0
0.568918 -0.31327 -0.101288 241 13 0
0.56889 -0.307466 -0.101676 244 10 0
0.56926 -0.302143 -0.101719 246 8 0
0.572447 -0.298652 -0.101601 249 5 0
0.577237 -0.296262 -0.101284 252 2 0
0.582745 -0.296017 -0.100671 255 0 0
