ply
format ascii 1.0
comment Generated by robot_control PLYWriter
element vertex 48
property float x
property float y
property float z
property uchar red
property uchar green
property uchar blue
end_header
0.561746 0.110059 -0.155307 0 255 0
0.566126 0.109067 -0.152127 5 249 0
0.569047 0.105805 -0.149363 10 244 0
0.570771 0.101124 -0.146592 16 238 0
0.5728 0.096666 -0.143938 21 233 0
0.570547 0.0916676 -0.142203 27 227 0
0.566748 0.0877354 -0.141388 32 222 0
0.563091 0.0845177 -0.141719 37 217 0
0.557562 0.0826971 -0.142538 43 211 0
0.55194 0.0835099 -0.144356 48 206 0
0.548307 0.0873018 -0.14682 54 200 0
0.547521 0.0927077 -0.148764 59 195 0
0.549013 0.098219 -0.150261 65 189 0
0.552274 0.102135 -0.151106 70 184 0
0.556687 0.106003 -0.151002 75 179 0
0.562414 0.10759 -0.150368 81 173 0
0.567783 0.108153 -0.149261 86 168 0
0.572975 0.105879 -0.147581 92 162 0
0.577551 0.102956 -0.145487 97 157 0
0.580787 0.098447 -0.143327 103 151 0
0.581202 0.0929185 -0.141436 108 146 0
0.579257 0.087503 -0.140226 113 141 0
0.575008 0.0834047 -0.139392 119 135 0
0.570146 0.0799417 -0.139353 124 130 0
0.564291 0.0802847 -0.140182 130 124 0
0.558937 0.0822571 -0.141887 135 119 0
0.556277 0.0870926 -0.14364 141 113 0
0.554794 0.0924878 -0.144969 146 108 0
0.557467 0.0976964 -0.146089 151 103 0
0.561603 0.101916 -0.146549 157 97 0
0.566752 0.10485 -0.146549 162 92 0
0.572647 0.105831 -0.146136 168 86 0
0.578102 0.104131 -0.144752 173 81 0
0.583085 0.101222 -0.143157 179 75 0
0.586364 0.0969668 -0.14123 184 70 0
0.588373 0.0917864 -0.139102 189 65 0
0.587279 0.0863668 -0.137218 195 59 0
0.585113 0.0809175 -0.136052 200 54 0
0.580134 0.07772 -0.135269 206 48 0
0.574535 0.075957 -0.135456 211 43 0
0.569277 0.077868 -0.136357 217 37 0
0.564647 0.0805125 -0.138039 222 32 0
0.563074 0.0855781 -0.140172 227 27 0
0.563585 0.091031 -0.142157 233 21 0
0.566196 0.0957201 -0.143878 238 16 0
0.570264 0.0996345 -0.144583 244 10 0
0.575591 0.100619 -0.144611 249 5 0
0.580778 0.102479 -0.144056 255 0 0
