ply
format ascii 1.0
comment Generated by robot_control PLYWriter
element vertex 48
property float x
property float y
property float z
property uchar red
property uchar green
property uchar blue
end_header
0.602217 0.201261 -0.158847 0 255 0
0.605905 0.198835 -0.15751 5 249 0
0.609679 0.196015 -0.155699 10 244 0
0.612425 0.191568 -0.153665 16 238 0
0.61396 0.186699 -0.151295 21 233 0
0.613739 0.18188 -0.148347 27 227 0
0.61182 0.177019 -0.14608 32 222 0
0.607867 0.172663 -0.144987 37 217 0
0.602529 0.171165 -0.144175 43 211 0
0.596595 0.171015 -0.144186 48 206 0
0.591218 0.173453 -0.14486 54 200 0
0.588399 0.177977 -0.146284 59 195 0
0.58836 0.183661 -0.148044 65 189 0
0.591431 0.188163 -0.149807 70 184 0
0.595685 0.191899 -0.150964 75 179 0
0.600514 0.195365 -0.151269 81 173 0
0.606353 0.194033 -0.15129 86 168 0
0.611706 0.191635 -0.150844 92 162 0
0.616497 0.188205 -0.15019 97 157 0
0.619741 0.18335 -0.149114 103 151 0
0.621627 0.177858 -0.147681 108 146 0
0.620638 0.172577 -0.145876 113 141 0
0.618088 0.167426 -0.144385 119 135 0
0.613587 0.163812 -0.143316 124 130 0
0.607914 0.162469 -0.142559 130 124 0
0.602231 0.164175 -0.142456 135 119 0
0.597689 0.167371 -0.143015 141 113 0
0.595294 0.172766 -0.144031 146 108 0
0.597353 0.178109 -0.145323 151 103 0
0.600643 0.182769 -0.146392 157 97 0
0.605769 0.185726 -0.147079 162 92 0
0.611398 0.185139 -0.147485 168 86 0
0.617338 0.185166 -0.147552 173 81 0
0.622003 0.181517 -0.147117 179 75 0
0.625828 0.176991 -0.146341 184 70 0
0.628781 0.171981 -0.145065 189 65 0
0.628846 0.166226 -0.143745 195 59 0
0.62747 0.160958 -0.14167 200 54 0
0.622629 0.157979 -0.140379 206 48 0
0.617435 0.156054 -0.139285 211 43 0
0.611587 0.15544 -0.138934 217 37 0
0.607352 0.159008 -0.1393 222 32 0
0.603405 0.163377 -0.140239 227 27 0
0.603609 0.168288 -0.141878 233 21 0
0.606317 0.172865 -0.143165 238 16 0
0.610855 0.175812 -0.1445 244 10 0
0.615312 0.178303 -0.145842 249 5 0
0.620583 0.178128 -0.146947 255 0 0
