ply
format ascii 1.0
comment Generated by robot_control PLYWriter
element vertex 17
property float x
property float y
property float z
property uchar red
property uchar green
property uchar blue
end_header
0.529532 0.0734283 -0.140768 0 255 0
0.527848 0.0779742 -0.141338 15 239 0
0.526214 0.0825158 -0.142072 31 223 0
0.524583 0.087066 -0.142756 47 207 0
0.522917 0.0915923 -0.143511 63 191 0
0.521431 0.0961697 -0.144323 79 175 0
0.519832 0.100703 -0.145168 95 159 0
0.518219 0.10522 -0.146073 111 143 0
0.51658 0.109712 -0.147055 127 127 0
0.514924 0.114183 -0.148103 143 111 0
0.513327 0.118665 -0.149199 159 95 0
0.511766 0.123144 -0.150353 175 79 0
0.510165 0.127584 -0.151597 191 63 0
0.508546 0.131992 -0.152932 207 47 0
0.50693 0.136387 -0.154309 223 31 0
0.505225 0.140749 -0.155684 239 15 0
0.503711 0.145118 -0.157235 255 0 0
