ply
format ascii 1.0
comment Generated by robot_control PLYWriter
element vertex 14
property float x
property float y
property float z
property uchar red
property uchar green
property uchar blue
end_header
0.665096 -0.0453292 -0.0395822 0 255 0
0.664955 -0.0404296 -0.0382517 19 235 0
0.664771 -0.0355155 -0.0369947 39 215 0
0.664524 -0.0305547 -0.0359302 58 196 0
0.664242 -0.0256096 -0.0348018 78 176 0
0.663942 -0.0206266 -0.03388 98 156 0
0.663662 -0.0155804 -0.0334624 117 137 0
0.663322 -0.0105506 -0.0338608 137 117 0
0.663002 -0.00571679 -0.0352924 156 98 0
0.662731 -0.00117641 -0.0375329 176 78 0
0.662366 0.00313975 -0.0401826 196 58 0
0.662314 0.00742704 -0.0429079 215 39 0
0.6623 0.0114735 -0.0459735 235 19 0
0.662184 0.0152189 -0.049401 255 0 0
