ply
format ascii 1.0
comment Generated by robot_control PLYWriter
element vertex 81
property float x
property float y
property float z
property uchar red
property uchar green
property uchar blue
end_header
0.600353 0.0109586 -0.143734 0 255 0
0.605281 0.0076216 -0.143554 3 251 0
0.608177 0.0035286 -0.142763 6 248 0
0.610172 -0.00117394 -0.141738 9 245 0
0.61025 -0.00697969 -0.140357 12 242 0
0.608548 -0.0124877 -0.139157 15 239 0
0.605815 -0.0168826 -0.13808 19 235 0
0.600876 -0.0200169 -0.137507 22 232 0
0.595351 -0.022128 -0.137406 25 229 0
0.589541 -0.0216596 -0.137653 28 226 0
0.584636 -0.0182737 -0.138073 31 223 0
0.580504 -0.0140954 -0.138747 35 219 0
0.580835 -0.00828534 -0.139409 38 216 0
0.582648 -0.00304442 -0.140028 41 213 0
0.586793 0.00111893 -0.140566 44 210 0
0.591693 0.00395298 -0.140797 47 207 0
0.597218 0.00235768 -0.140743 51 204 0
0.602811 0.00118215 -0.140417 54 200 0
0.605984 -0.00387279 -0.139969 57 197 0
0.609343 -0.00862673 -0.139401 60 194 0
0.610135 -0.0144479 -0.138588 63 191 0
0.608535 -0.0202371 -0.1381 66 188 0
0.605079 -0.0248715 -0.137393 70 184 0
0.601064 -0.0291305 -0.137071 73 181 0
0.596049 -0.0307082 -0.136963 76 178 0
0.590024 -0.0306758 -0.137013 79 175 0
0.584594 -0.0280766 -0.137338 82 172 0
0.580892 -0.0237537 -0.137635 86 168 0
0.580109 -0.0179683 -0.138102 89 165 0
0.582143 -0.0123723 -0.138557 92 162 0
0.586446 -0.00856021 -0.138829 95 159 0
0.592055 -0.00678079 -0.138752 98 156 0
0.598075 -0.00663198 -0.138486 102 153 0
0.603463 -0.00865556 -0.138177 105 149 0
0.606464 -0.0135138 -0.137799 108 146 0
0.609611 -0.0186032 -0.137421 111 143 0
0.609925 -0.0244496 -0.13696 114 140 0
0.608038 -0.0301617 -0.136555 117 137 0
0.605244 -0.0352638 -0.136165 121 133 0
0.600216 -0.0384466 -0.135946 124 130 0
0.594483 -0.0402925 -0.135972 127 127 0
0.58882 -0.0393569 -0.136149 130 124 0
0.583265 -0.0372813 -0.13639 133 121 0
0.580966 -0.0317254 -0.136691 137 117 0
0.580025 -0.0258505 -0.136959 140 114 0
0.58247 -0.0205094 -0.137182 143 111 0
0.586558 -0.0162568 -0.137328 146 108 0
0.592159 -0.0144575 -0.137358 149 105 0
0.59788 -0.0157821 -0.137233 153 101 0
0.603331 -0.0183443 -0.136966 156 98 0
0.607226 -0.0226291 -0.136516 159 95 0
0.61014 -0.0276196 -0.136173 162 92 0
0.610086 -0.0336416 -0.135876 165 89 0
0.608868 -0.0393037 -0.135594 168 86 0
0.605035 -0.0438677 -0.135381 172 82 0
0.600539 -0.0478677 -0.135189 175 79 0
0.594711 -0.048353 -0.135108 178 76 0
0.588683 -0.0483536 -0.135215 181 73 0
0.583234 -0.0462753 -0.13545 184 70 0
0.580036 -0.0414777 -0.135724 188 66 0
0.58 -0.0354533 -0.135962 191 63 0
0.582178 -0.0300427 -0.136164 194 60 0
0.586807 -0.0262805 -0.136338 197 57 0
0.592014 -0.0238135 -0.136383 200 54 0
0.598035 -0.023991 -0.136268 204 50 0
0.603142 -0.0270644 -0.136035 207 47 0
0.607404 -0.0313192 -0.135738 210 44 0
0.610093 -0.0365189 -0.135414 213 41 0
0.610061 -0.0425418 -0.135138 216 38 0
0.608435 -0.0482515 -0.134857 219 35 0
0.605459 -0.0534692 -0.134555 223 31 0
0.60108 -0.0574519 -0.134343 226 28 0
0.595479 -0.0584898 -0.134272 229 25 0
0.589449 -0.0584895 -0.13431 232 22 0
0.585056 -0.0552018 -0.134475 235 19 0
0.580818 -0.0513887 -0.134714 239 15 0
0.580041 -0.045792 -0.135108 242 12 0
0.582349 -0.0410021 -0.135334 245 9 0
0.585051 -0.036938 -0.135522 248 6 0
0.58909 -0.0339994 -0.135615 251 3 0
0.595051 -0.0339894 -0.13554 255 0 0
