ply
format ascii 1.0
comment Generated by robot_control PLYWriter
element vertex 66
property float x
property float y
property float z
property uchar red
property uchar green
property uchar blue
end_header
0.726473 -0.170008 -0.128529 0 255 0
0.73054 -0.172482 -0.129984 3 251 0
0.734073 -0.175906 -0.131115 7 247 0
0.734573 -0.181605 -0.132106 11 243 0
0.733594 -0.187071 -0.133083 15 239 0
0.731582 -0.192114 -0.133177 19 235 0
0.728109 -0.196246 -0.132604 23 231 0
0.723583 -0.198607 -0.131681 27 227 0
0.717966 -0.197762 -0.130526 31 223 0
0.713815 -0.193783 -0.128871 35 219 0
0.710426 -0.189211 -0.127827 39 215 0
0.712229 -0.183927 -0.1277 43 211 0
0.717109 -0.180495 -0.128259 47 207 0
0.722579 -0.179198 -0.129529 51 204 0
0.728141 -0.180921 -0.130615 54 200 0
0.731559 -0.185041 -0.131857 58 196 0
0.734735 -0.190017 -0.132802 62 192 0
0.734978 -0.195879 -0.133294 66 188 0
0.733475 -0.201645 -0.133313 70 184 0
0.729816 -0.206276 -0.133069 74 180 0
0.724315 -0.208389 -0.132353 78 176 0
0.718421 -0.208276 -0.131585 82 172 0
0.713596 -0.205683 -0.130412 86 168 0
0.712377 -0.199933 -0.129894 90 164 0
0.713885 -0.194379 -0.130033 94 160 0
0.718205 -0.190651 -0.130787 98 156 0
0.724089 -0.191028 -0.1318 102 153 0
0.729783 -0.192481 -0.132605 105 149 0
0.733172 -0.197135 -0.133219 109 145 0
0.7352 -0.20263 -0.133527 113 141 0
0.735478 -0.208616 -0.133561 117 137 0
0.732281 -0.213363 -0.133219 121 133 0
0.727655 -0.217105 -0.132624 125 129 0
0.72241 -0.219169 -0.131724 129 125 0
0.716899 -0.218109 -0.131023 133 121 0
0.71259 -0.214046 -0.130347 137 117 0
0.712573 -0.208174 -0.130382 141 113 0
0.715113 -0.203013 -0.130911 145 109 0
0.720436 -0.200998 -0.131862 149 105 0
0.726389 -0.201103 -0.13256 153 101 0
0.730675 -0.204564 -0.133195 156 98 0
0.733763 -0.209679 -0.133693 160 94 0
0.73524 -0.215138 -0.133971 164 90 0
0.734826 -0.220995 -0.133922 168 86 0
0.731208 -0.225733 -0.13332 172 82 0
0.726073 -0.228498 -0.132381 176 78 0
0.720424 -0.229271 -0.13116 180 74 0
0.714821 -0.227509 -0.130461 184 70 0
0.712698 -0.22272 -0.13004 188 66 0
0.71319 -0.217473 -0.130125 192 62 0
0.717287 -0.213259 -0.130742 196 58 0
0.722584 -0.211031 -0.131813 200 54 0
0.727701 -0.213276 -0.133036 204 50 0
0.732952 -0.215994 -0.133937 207 47 0
0.735165 -0.220955 -0.134711 211 43 0
0.73615 -0.226274 -0.135141 215 39 0
0.735704 -0.232124 -0.135297 219 35 0
0.731925 -0.236303 -0.135221 223 31 0
0.728034 -0.240619 -0.134944 227 27 0
0.722133 -0.240679 -0.134329 231 23 0
0.717205 -0.239378 -0.132972 235 19 0
0.71428 -0.235646 -0.131699 239 15 0
0.712626 -0.230636 -0.130143 243 11 0
0.715497 -0.22635 -0.129498 247 7 0
0.719182 -0.222346 -0.130116 251 3 0
0.724179 -0.222463 -0.13151 255 0 0
