ply
format ascii 1.0
comment Generated by robot_control PLYWriter
element vertex 14
property float x
property float y
property float z
property uchar red
property uchar green
property uchar blue
end_header
0.546513 -0.135586 -0.0403914 0 255 0
0.546491 -0.140393 -0.0406198 19 235 0
0.546365 -0.145144 -0.0399204 39 215 0
0.546215 -0.149916 -0.0393058 58 196 0
0.546107 -0.154693 -0.0386925 78 176 0
0.546005 -0.159467 -0.0380548 98 156 0
0.545923 -0.16424 -0.0374098 117 137 0
0.54583 -0.169019 -0.0368063 137 117 0
0.545725 -0.173807 -0.0362939 156 98 0
0.545619 -0.178606 -0.0358974 176 78 0
0.54547 -0.183415 -0.0357016 196 58 0
0.545319 -0.188228 -0.035779 215 39 0
0.545354 -0.193026 -0.0361509 235 19 0
0.54529 -0.197778 -0.0369334 255 0 0
