ply
format ascii 1.0
comment Generated by robot_control PLYWriter
element vertex 30
property float x
property float y
property float z
property uchar red
property uchar green
property uchar blue
end_header
0.700582 0.15964 -0.143411 0 255 0
0.706049 0.15909 -0.143512 8 246 0
0.710615 0.156354 -0.142716 17 237 0
0.713707 0.151875 -0.141554 26 228 0
0.71619 0.146697 -0.140191 35 219 0
0.716657 0.141301 -0.13845 43 211 0
0.71392 0.13628 -0.137061 52 202 0
0.709452 0.132635 -0.135649 61 193 0
0.703958 0.130707 -0.134968 70 184 0
0.698083 0.131524 -0.134878 79 175 0
0.693593 0.134916 -0.135222 87 167 0
0.692336 0.140584 -0.136158 96 158 0
0.692571 0.146312 -0.137304 105 149 0
0.697399 0.149387 -0.138273 114 140 0
0.702672 0.152095 -0.13892 123 131 0
0.708257 0.150143 -0.13906 131 123 0
0.713687 0.148488 -0.138865 140 114 0
0.717218 0.143747 -0.138355 149 105 0
0.720245 0.138938 -0.137513 158 96 0
0.7204 0.133101 -0.136574 167 87 0
0.718337 0.127737 -0.135284 175 79 0
0.714917 0.123231 -0.133991 184 70 0
0.709486 0.121983 -0.13282 193 61 0
0.703719 0.121149 -0.132141 202 52 0
0.698601 0.123779 -0.131999 211 43 0
0.696403 0.129301 -0.132337 219 35 0
0.696564 0.135097 -0.133653 228 26 0
0.700222 0.138719 -0.135299 237 17 0
0.70429 0.140692 -0.13678 246 8 0
0.708945 0.142409 -0.138218 255 0 0
