ply
format ascii 1.0
comment Generated by robot_control PLYWriter
element vertex 30
property float x
property float y
property float z
property uchar red
property uchar green
property uchar blue
end_header
0.604641 -0.258661 -0.0861912 0 255 0
0.608114 -0.261001 -0.0858692 8 246 0
0.612119 -0.263461 -0.0854287 17 237 0
0.614594 -0.268452 -0.0853498 26 228 0
0.614633 -0.2744 -0.0855732 35 219 0
0.611621 -0.279369 -0.0859798 43 211 0
0.607425 -0.283261 -0.0865029 52 202 0
0.60225 -0.286084 -0.0871246 61 193 0
0.596341 -0.286196 -0.087489 70 184 0
0.590975 -0.283791 -0.0878347 79 175 0
0.585895 -0.280719 -0.0880871 87 167 0
0.582865 -0.27583 -0.0881863 96 158 0
0.582879 -0.269878 -0.0881321 105 149 0
0.58521 -0.264562 -0.0879494 114 140 0
0.588994 -0.260413 -0.0875627 123 131 0
0.594647 -0.260509 -0.0871844 131 123 0
0.599452 -0.263811 -0.0870336 140 114 0
0.602266 -0.26864 -0.0870623 149 105 0
0.602296 -0.274579 -0.0873172 158 96 0
0.599912 -0.27973 -0.0876418 167 87 0
0.595729 -0.283811 -0.0881136 175 79 0
0.590225 -0.286002 -0.0885721 184 70 0
0.584384 -0.286798 -0.0889696 193 61 0
0.579445 -0.284383 -0.0894386 202 52 0
0.574728 -0.281609 -0.0896809 211 43 0
0.571197 -0.276953 -0.089747 219 35 0
0.571171 -0.271007 -0.0895276 228 26 0
0.572446 -0.266114 -0.0890993 237 17 0
0.575745 -0.26247 -0.0886106 246 8 0
0.580557 -0.260646 -0.0880857 255 0 0
