ply
format ascii 1.0
comment Generated by robot_control PLYWriter
element vertex 50
property float x
property float y
property float z
property uchar red
property uchar green
property uchar blue
end_header
0.619376 0.138557 -0.151345 0 255 0
0.623303 0.137323 -0.149304 5 249 0
0.627511 0.135338 -0.147734 10 244 0
0.630789 0.131542 -0.145871 15 239 0
0.632306 0.126353 -0.144421 20 234 0
0.631753 0.120647 -0.143332 26 228 0
0.628355 0.115946 -0.142414 31 223 0
0.62463 0.111607 -0.142095 36 218 0
0.619932 0.107996 -0.142478 41 213 0
0.61456 0.107166 -0.143454 46 208 0
0.608782 0.107533 -0.144785 52 202 0
0.603549 0.109573 -0.146464 57 197 0
0.600247 0.113691 -0.148275 62 192 0
0.599149 0.11923 -0.149772 67 187 0
0.600098 0.124835 -0.150697 72 182 0
0.603854 0.128986 -0.151234 78 176 0
0.609459 0.130938 -0.150915 83 171 0
0.615246 0.131806 -0.149889 88 166 0
0.62021 0.130026 -0.148107 93 161 0
0.624285 0.125943 -0.146656 98 156 0
0.624736 0.120429 -0.144941 104 150 0
0.624468 0.114613 -0.143725 109 145 0
0.622858 0.109123 -0.142713 114 140 0
0.618629 0.105033 -0.142029 119 135 0
0.613595 0.101981 -0.141876 124 130 0
0.607842 0.10102 -0.142285 130 124 0
0.601967 0.101411 -0.143171 135 119 0
0.596794 0.103486 -0.144716 140 114 0
0.594469 0.108697 -0.146302 145 109 0
0.592442 0.113775 -0.14784 150 104 0
0.595164 0.118432 -0.149198 156 98 0
0.598366 0.123332 -0.149873 161 93 0
0.603518 0.125645 -0.149852 166 88 0
0.609246 0.125293 -0.149054 171 83 0
0.613344 0.121297 -0.147554 176 78 0
0.616638 0.116678 -0.145741 182 72 0
0.618388 0.111693 -0.143583 187 67 0
0.61694 0.106351 -0.141721 192 62 0
0.613797 0.101975 -0.140492 197 57 0
0.610396 0.0972409 -0.139589 202 52 0
0.605071 0.0953859 -0.139081 208 46 0
0.599371 0.0943499 -0.139062 213 41 0
0.594038 0.0958194 -0.139718 218 36 0
0.589478 0.0986386 -0.141382 223 31 0
0.585978 0.102723 -0.143769 228 26 0
0.58588 0.107674 -0.146161 234 20 0
0.586723 0.11281 -0.148826 239 15 0
0.590131 0.116248 -0.150887 244 10 0
0.593476 0.118868 -0.151913 249 5 0
0.59874 0.120246 -0.152282 255 0 0
