ply
format ascii 1.0
comment Generated by robot_control PLYWriter
element vertex 32
property float x
property float y
property float z
property uchar red
property uchar green
property uchar blue
end_header
0.715851 0.0488056 -0.0942192 0 255 0
0.720951 0.0463991 -0.0941224 8 246 0
0.72393 0.0413145 -0.0940964 16 238 0
0.724892 0.0354534 -0.0938764 24 230 0
0.722676 0.0300916 -0.0935679 32 222 0
0.720632 0.0251814 -0.0929503 41 213 0
0.715388 0.0222383 -0.0924208 49 205 0
0.71009 0.0194572 -0.091988 57 197 0
0.704096 0.02051 -0.0917917 65 189 0
0.698361 0.0223848 -0.0917661 74 180 0
0.693073 0.0254025 -0.0918324 82 172 0
0.69084 0.0309666 -0.0919677 90 164 0
0.68876 0.0364651 -0.0921007 98 156 0
0.691039 0.0421015 -0.0922616 106 148 0
0.695335 0.0461363 -0.0925601 115 139 0
0.700515 0.0491194 -0.0927535 123 131 0
0.706188 0.047596 -0.0928419 131 123 0
0.710482 0.0434032 -0.0926487 139 115 0
0.712668 0.0378123 -0.0922369 148 106 0
0.712891 0.031779 -0.0917235 156 98 0
0.710843 0.0261978 -0.0910868 164 90 0
0.7074 0.0211893 -0.0907593 172 82 0
0.702616 0.017574 -0.0904715 180 74 0
0.696558 0.0180162 -0.090449 189 65 0
0.690631 0.0186802 -0.0906076 197 57 0
0.684981 0.0209356 -0.0909003 205 49 0
0.681446 0.0257324 -0.0915154 213 41 0
0.678489 0.030998 -0.0922359 222 32 0
0.678488 0.0367862 -0.0937697 230 24 0
0.681163 0.0414887 -0.094833 238 16 0
0.685048 0.045768 -0.095819 246 8 0
0.690621 0.0462533 -0.0956501 255 0 0
