ply
format ascii 1.0
comment Generated by robot_control PLYWriter
element vertex 17
property float x
property float y
property float z
property uchar red
property uchar green
property uchar blue
end_header
0.496448 -0.0241328 -0.111804 0 255 0
0.496442 -0.0192711 -0.111868 15 239 0
0.496411 -0.0144142 -0.112086 31 223 0
0.496369 -0.00956044 -0.112368 47 207 0
0.496323 -0.00470522 -0.112623 63 191 0
0.496171 0.000148956 -0.112846 79 175 0
0.495987 0.00500407 -0.113031 95 159 0
0.495799 0.00985948 -0.113204 111 143 0
0.495595 0.0147118 -0.11343 127 127 0
0.495377 0.0195594 -0.113735 143 111 0
0.495156 0.0244049 -0.114071 159 95 0
0.494943 0.0292519 -0.11439 175 79 0
0.494733 0.0341018 -0.114661 191 63 0
0.494544 0.0389563 -0.114856 207 47 0
0.494376 0.043813 -0.115004 223 31 0
0.494333 0.0486672 -0.115276 239 15 0
0.494285 0.0535169 -0.11562 255 0 0
