ply
format ascii 1.0
comment Generated by robot_control PLYWriter
element vertex 81
property float x
property float y
property float z
property uchar red
property uchar green
property uchar blue
end_header
0.53774 -0.357441 -0.104447 0 255 0
0.542092 -0.360764 -0.104287 3 251 0
0.54454 -0.364341 -0.103643 6 248 0
0.546874 -0.368176 -0.1016 9 245 0
0.545623 -0.372966 -0.0987618 12 242 0
0.545136 -0.377854 -0.0959523 15 239 0
0.543029 -0.3824 -0.0936548 19 235 0
0.537913 -0.38467 -0.0931002 22 232 0
0.532827 -0.386706 -0.0941759 25 229 0
0.527908 -0.385016 -0.0960041 28 226 0
0.523624 -0.381479 -0.0977109 31 223 0
0.522635 -0.376054 -0.0992157 35 219 0
0.524518 -0.370861 -0.0999952 38 216 0
0.529592 -0.368265 -0.100619 41 213 0
0.535106 -0.367032 -0.100241 44 210 0
0.540135 -0.369847 -0.0985974 47 207 0
0.544504 -0.373557 -0.0972162 51 204 0
0.546294 -0.37906 -0.0959637 54 200 0
0.5462 -0.384991 -0.0954641 57 197 0
0.544201 -0.389989 -0.0954327 60 194 0
0.539903 -0.394073 -0.0959327 63 191 0
0.534796 -0.396859 -0.0970497 66 188 0
0.529177 -0.395575 -0.0984668 70 184 0
0.524537 -0.392044 -0.0993659 73 181 0
0.52293 -0.386878 -0.0989981 76 178 0
0.525267 -0.382192 -0.0975579 79 175 0
0.529597 -0.378511 -0.0958677 82 172 0
0.535134 -0.378122 -0.0941718 86 168 0
0.540817 -0.379808 -0.0933542 89 165 0
0.544522 -0.38449 -0.093689 92 162 0
0.54604 -0.389893 -0.0946511 95 159 0
0.545951 -0.395779 -0.0958053 98 156 0
0.543446 -0.400805 -0.0977211 102 153 0
0.540269 -0.405419 -0.099447 105 149 0
0.535344 -0.407502 -0.101704 108 146 0
0.52961 -0.407287 -0.102994 111 143 0
0.526116 -0.403263 -0.103603 114 140 0
0.522986 -0.399201 -0.102693 117 137 0
0.524797 -0.393874 -0.100927 121 133 0
0.528019 -0.389298 -0.0987896 124 130 0
0.533807 -0.388968 -0.0976849 127 127 0
0.539705 -0.389085 -0.0968895 130 124 0
0.543186 -0.39351 -0.0969768 133 121 0
0.54617 -0.398286 -0.0975176 137 117 0
0.546836 -0.404123 -0.0985537 140 114 0
0.545268 -0.40964 -0.099855 143 111 0
0.542132 -0.414375 -0.101589 146 108 0
0.537495 -0.417501 -0.103491 149 105 0
0.532025 -0.418108 -0.105482 153 101 0
0.526695 -0.415559 -0.10617 156 98 0
0.523856 -0.411314 -0.10598 159 95 0
0.52426 -0.40617 -0.104992 162 92 0
0.527741 -0.401462 -0.103987 165 89 0
0.533122 -0.399546 -0.102903 168 86 0
0.539028 -0.400228 -0.10228 172 82 0
0.543558 -0.404081 -0.101757 175 79 0
0.54579 -0.40939 -0.101495 178 76 0
0.546898 -0.415244 -0.10162 181 73 0
0.545499 -0.420868 -0.10218 184 70 0
0.541321 -0.425102 -0.102887 188 66 0
0.536716 -0.428808 -0.103736 191 63 0
0.531148 -0.427932 -0.104509 194 60 0
0.525485 -0.426254 -0.105077 197 57 0
0.522777 -0.421246 -0.105907 200 54 0
0.523581 -0.415607 -0.106351 204 50 0
0.527951 -0.411531 -0.106303 207 47 0
0.533328 -0.410419 -0.105757 210 44 0
0.539003 -0.411628 -0.104923 213 41 0
0.543282 -0.415586 -0.103842 216 38 0
0.546766 -0.420267 -0.102845 219 35 0
0.547069 -0.426112 -0.101728 223 31 0
0.544804 -0.431032 -0.101006 226 28 0
0.542499 -0.436057 -0.100514 229 25 0
0.537412 -0.438487 -0.10026 232 22 0
0.532247 -0.439853 -0.100683 235 19 0
0.526718 -0.438403 -0.101589 239 15 0
0.52448 -0.434058 -0.10302 242 12 0
0.522868 -0.429201 -0.104421 245 9 0
0.525278 -0.424547 -0.105414 248 6 0
0.529164 -0.4215 -0.105694 251 3 0
0.534157 -0.42035 -0.10539 255 0 0
