ply
format ascii 1.0
comment Generated by robot_control PLYWriter
element vertex 200
property float x
property float y
property float z
property uchar red
property uchar green
property uchar blue
end_header
0.650747 -0.360263 -0.0917709 0 255 0
0.650747 -0.360263 -0.0917709 1 253 0
0.650747 -0.360263 -0.0917709 2 252 0
0.650747 -0.360263 -0.0917709 3 251 0
0.650747 -0.360263 -0.0917709 5 249 0
0.650747 -0.360263 -0.0917709 6 248 0
0.650747 -0.360263 -0.0917709 7 247 0
0.650747 -0.360263 -0.0917709 8 246 0
0.650747 -0.360263 -0.0917709 10 244 0
0.650747 -0.360263 -0.0917709 11 243 0
0.650747 -0.360263 -0.0917709 12 242 0
0.650747 -0.360263 -0.0917709 14 240 0
0.650747 -0.360263 -0.0917709 15 239 0
0.650747 -0.360263 -0.0917709 16 238 0
0.650747 -0.360263 -0.0917709 17 237 0
0.650747 -0.360263 -0.0917709 19 235 0
0.650747 -0.360263 -0.0917709 20 234 0
0.650747 -0.360263 -0.0917709 21 233 0
0.650747 -0.360263 -0.0917709 23 231 0
0.650747 -0.360263 -0.0917709 24 230 0
0.650747 -0.360263 -0.0917709 25 229 0
0.650747 -0.360263 -0.0917709 26 228 0
0.650747 -0.360263 -0.0917709 28 226 0
0.650747 -0.360263 -0.0917709 29 225 0
0.650747 -0.360263 -0.0917709 30 224 0
0.650747 -0.360263 -0.0917709 32 222 0
0.650747 -0.360263 -0.0917709 33 221 0
0.650747 -0.360263 -0.0917709 34 220 0
0.650747 -0.360263 -0.0917709 35 219 0
0.650747 -0.360263 -0.0917709 37 217 0
0.650747 -0.360263 -0.0917709 38 216 0
0.650747 -0.360263 -0.0917709 39 215 0
0.650747 -0.360263 -0.0917709 41 213 0
0.650747 -0.360263 -0.0917709 42 212 0
0.650747 -0.360263 -0.0917709 43 211 0
0.650747 -0.360263 -0.0917709 44 210 0
0.650747 -0.360263 -0.0917709 46 208 0
0.650747 -0.360263 -0.0917709 47 207 0
0.650747 -0.360263 -0.0917709 48 206 0
0.650747 -0.360263 -0.0917709 49 205 0
0.650747 -0.360263 -0.0917709 51 203 0
0.650747 -0.360263 -0.0917709 52 202 0
0.650747 -0.360263 -0.0917709 53 201 0
0.650747 -0.360263 -0.0917709 55 199 0
0.650747 -0.360263 -0.0917709 56 198 0
0.650747 -0.360263 -0.0917709 57 197 0
0.650747 -0.360263 -0.0917709 58 196 0
0.650747 -0.360263 -0.0917709 60 194 0
0.650747 -0.360263 -0.0917709 61 193 0
0.650747 -0.360263 -0.0917709 62 192 0
0.650747 -0.360263 -0.0917709 64 190 0
0.650747 -0.360263 -0.0917709 65 189 0
0.650747 -0.360263 -0.0917709 66 188 0
0.650747 -0.360263 -0.0917709 67 187 0
0.650747 -0.360263 -0.0917709 69 185 0
0.650747 -0.360263 -0.0917709 70 184 0
0.650747 -0.360263 -0.0917709 71 183 0
0.650747 -0.360263 -0.0917709 73 181 0
0.650747 -0.360263 -0.0917709 74 180 0
0.650747 -0.360263 -0.0917709 75 179 0
0.650747 -0.360263 -0.0917709 76 178 0
0.650747 -0.360263 -0.0917709 78 176 0
0.650747 -0.360263 -0.0917709 79 175 0
0.650747 -0.360263 -0.0917709 80 174 0
0.650747 -0.360263 -0.0917709 82 172 0
0.650747 -0.360263 -0.0917709 83 171 0
0.650747 -0.360263 -0.0917709 84 170 0
0.650747 -0.360263 -0.0917709 85 169 0
0.650747 -0.360263 -0.0917709 87 167 0
0.650747 -0.360263 -0.0917709 88 166 0
0.650747 -0.360263 -0.0917709 89 165 0
0.650747 -0.360263 -0.0917709 90 164 0
0.650747 -0.360263 -0.0917709 92 162 0
0.650747 -0.360263 -0.0917709 93 161 0
0.650747 -0.360263 -0.0917709 94 160 0
0.650747 -0.360263 -0.0917709 96 158 0
0.650747 -0.360263 -0.0917709 97 157 0
0.650747 -0.360263 -0.0917709 98 156 0
0.650747 -0.360263 -0.0917709 99 155 0
0.650747 -0.360263 -0.0917709 101 153 0
0.650747 -0.360263 -0.0917709 102 152 0
0.650747 -0.360263 -0.0917709 103 151 0
0.650747 -0.360263 -0.0917709 105 149 0
0.650747 -0.360263 -0.0917709 106 148 0
0.650747 -0.360263 -0.0917709 107 147 0
0.650747 -0.360263 -0.0917709 108 146 0
0.650747 -0.360263 -0.0917709 110 144 0
0.650747 -0.360263 -0.0917709 111 143 0
0.650747 -0.360263 -0.0917709 112 142 0
0.650747 -0.360263 -0.0917709 114 140 0
0.650747 -0.360263 -0.0917709 115 139 0
0.650747 -0.360263 -0.0917709 116 138 0
0.650747 -0.360263 -0.0917709 117 137 0
0.650747 -0.360263 -0.0917709 119 135 0
0.650747 -0.360263 -0.0917709 120 134 0
0.650747 -0.360263 -0.0917709 121 133 0
0.650747 -0.360263 -0.0917709 123 131 0
0.650747 -0.360263 -0.0917709 124 130 0
0.650747 -0.360263 -0.0917709 125 129 0
0.650747 -0.360263 -0.0917709 126 128 0
0.650747 -0.360263 -0.0917709 128 126 0
0.650747 -0.360263 -0.0917709 129 125 0
0.650747 -0.360263 -0.0917709 130 124 0
0.650747 -0.360263 -0.0917709 131 123 0
0.650747 -0.360263 -0.0917709 133 121 0
0.650747 -0.360263 -0.0917709 134 120 0
0.650747 -0.360263 -0.0917709 135 119 0
0.650747 -0.360263 -0.0917709 137 117 0
0.650747 -0.360263 -0.0917709 138 116 0
0.650747 -0.360263 -0.0917709 139 115 0
0.650747 -0.360263 -0.0917709 140 114 0
0.650747 -0.360263 -0.0917709 142 112 0
0.650747 -0.360263 -0.0917709 143 111 0
0.650747 -0.360263 -0.0917709 144 110 0
0.650747 -0.360263 -0.0917709 146 108 0
0.650747 -0.360263 -0.0917709 147 107 0
0.650747 -0.360263 -0.0917709 148 106 0
0.650747 -0.360263 -0.0917709 149 105 0
0.650747 -0.360263 -0.0917709 151 103 0
0.650747 -0.360263 -0.0917709 152 102 0
0.650747 -0.360263 -0.0917709 153 101 0
0.650747 -0.360263 -0.0917709 155 99 0
0.650747 -0.360263 -0.0917709 156 98 0
0.650747 -0.360263 -0.0917709 157 97 0
0.650747 -0.360263 -0.0917709 158 96 0
0.650747 -0.360263 -0.0917709 160 94 0
0.650747 -0.360263 -0.0917709 161 93 0
0.650747 -0.360263 -0.0917709 162 92 0
0.650747 -0.360263 -0.0917709 164 90 0
0.650747 -0.360263 -0.0917709 165 89 0
0.650747 -0.360263 -0.0917709 166 88 0
0.650747 -0.360263 -0.0917709 167 87 0
0.650747 -0.360263 -0.0917709 169 85 0
0.650747 -0.360263 -0.0917709 170 84 0
0.650747 -0.360263 -0.0917709 171 83 0
0.650747 -0.360263 -0.0917709 172 82 0
0.650747 -0.360263 -0.0917709 174 80 0
0.650747 -0.360263 -0.0917709 175 79 0
0.650747 -0.360263 -0.0917709 176 78 0
0.650747 -0.360263 -0.0917709 178 76 0
0.650747 -0.360263 -0.0917709 179 75 0
0.650747 -0.360263 -0.0917709 180 74 0
0.650747 -0.360263 -0.0917709 181 73 0
0.650747 -0.360263 -0.0917709 183 71 0
0.650747 -0.360263 -0.0917709 184 70 0
0.650747 -0.360263 -0.0917709 185 69 0
0.650747 -0.360263 -0.0917709 187 67 0
0.650747 -0.360263 -0.0917709 188 66 0
0.650747 -0.360263 -0.0917709 189 65 0
0.650747 -0.360263 -0.0917709 190 64 0
0.650747 -0.360263 -0.0917709 192 62 0
0.650747 -0.360263 -0.0917709 193 61 0
0.650747 -0.360263 -0.0917709 194 60 0
0.650747 -0.360263 -0.0917709 196 58 0
0.650747 -0.360263 -0.0917709 197 57 0
0.650747 -0.360263 -0.0917709 198 56 0
0.650747 -0.360263 -0.0917709 199 55 0
0.650747 -0.360263 -0.0917709 201 53 0
0.650747 -0.360263 -0.0917709 202 52 0
0.650747 -0.360263 -0.0917709 203 51 0
0.650747 -0.360263 -0.0917709 205 49 0
0.650747 -0.360263 -0.0917709 206 48 0
0.650747 -0.360263 -0.0917709 207 47 0
0.650747 -0.360263 -0.0917709 208 46 0
0.650747 -0.360263 -0.0917709 210 44 0
0.650747 -0.360263 -0.0917709 211 43 0
0.650747 -0.360263 -0.0917709 212 42 0
0.650747 -0.360263 -0.0917709 213 41 0
0.650747 -0.360263 -0.0917709 215 39 0
0.650747 -0.360263 -0.0917709 216 38 0
0.650747 -0.360263 -0.0917709 217 37 0
0.650747 -0.360263 -0.0917709 219 35 0
0.650747 -0.360263 -0.0917709 220 34 0
0.650747 -0.360263 -0.0917709 221 33 0
0.650747 -0.360263 -0.0917709 222 32 0
0.650747 -0.360263 -0.0917709 224 30 0
0.650747 -0.360263 -0.0917709 225 29 0
0.650747 -0.360263 -0.0917709 226 28 0
0.650747 -0.360263 -0.0917709 228 26 0
0.650747 -0.360263 -0.0917709 229 25 0
0.650747 -0.360263 -0.0917709 230 24 0
0.650747 -0.360263 -0.0917709 231 23 0
0.650747 -0.360263 -0.0917709 233 21 0
0.650747 -0.360263 -0.0917709 234 20 0
0.650747 -0.360263 -0.0917709 235 19 0
0.650747 -0.360263 -0.0917709 237 17 0
0.650747 -0.360263 -0.0917709 238 16 0
0.650747 -0.360263 -0.0917709 239 15 0
0.650747 -0.360263 -0.0917709 240 14 0
0.650747 -0.360263 -0.0917709 242 12 0
0.650747 -0.360263 -0.0917709 243 11 0
0.650747 -0.360263 -0.0917709 244 10 0
0.650747 -0.360263 -0.0917709 246 8 0
0.650747 -0.360263 -0.0917709 247 7 0
0.650747 -0.360263 -0.0917709 248 6 0
0.650747 -0.360263 -0.0917709 249 5 0
0.650747 -0.360263 -0.0917709 251 3 0
0.650747 -0.360263 -0.0917709 252 2 0
0.650747 -0.360263 -0.0917709 253 1 0
0.650747 -0.360263 -0.0917709 255 0 0
