ply
format ascii 1.0
comment Generated by robot_control PLYWriter
element vertex 11
property float x
property float y
property float z
property uchar red
property uchar green
property uchar blue
end_header
0.539445 -0.399463 -0.103876 0 255 0
0.53984 -0.394756 -0.105781 25 229 0
0.5401 -0.38995 -0.107444 51 204 0
0.540336 -0.385139 -0.109102 76 178 0
0.540377 -0.380379 -0.11091 102 153 0
0.54045 -0.375673 -0.112854 127 127 0
0.540522 -0.370982 -0.114834 153 101 0
0.540558 -0.366292 -0.116819 178 76 0
0.540645 -0.36163 -0.118869 204 50 0
0.540779 -0.356963 -0.120905 229 25 0
0.540844 -0.352225 -0.122745 255 0 0
