ply
format ascii 1.0
comment Generated by robot_control PLYWriter
element vertex 57
property float x
property float y
property float z
property uchar red
property uchar green
property uchar blue
end_header
0.731089 0.160908 -0.117806 0 255 0
0.7356 0.158717 -0.117855 4 250 0
0.738408 0.153604 -0.117639 9 245 0
0.741559 0.149122 -0.117033 13 241 0
0.74144 0.143977 -0.116295 18 236 0
0.740341 0.138292 -0.115551 22 232 0
0.738027 0.132855 -0.114681 27 227 0
0.733822 0.129145 -0.113637 31 223 0
0.728544 0.12656 -0.112868 36 218 0
0.72302 0.126208 -0.112327 40 214 0
0.71719 0.127528 -0.112068 45 209 0
0.711648 0.12969 -0.112068 50 204 0
0.707076 0.133527 -0.112256 54 200 0
0.703709 0.138271 -0.112565 59 195 0
0.703066 0.144071 -0.113202 63 191 0
0.703383 0.150031 -0.113643 68 186 0
0.706405 0.155096 -0.114291 72 182 0
0.710998 0.158683 -0.114696 77 177 0
0.71674 0.159571 -0.114993 81 173 0
0.722652 0.158635 -0.115018 86 168 0
0.727603 0.155339 -0.114855 91 163 0
0.731109 0.150656 -0.114444 95 159 0
0.73257 0.144876 -0.114028 100 154 0
0.732531 0.138938 -0.113384 104 150 0
0.730883 0.13347 -0.112856 109 145 0
0.72669 0.129234 -0.112425 113 141 0
0.72164 0.126073 -0.112025 118 136 0
0.715992 0.124269 -0.111733 122 132 0
0.710035 0.124073 -0.111588 127 127 0
0.704229 0.125524 -0.111559 132 122 0
0.698984 0.128399 -0.111663 136 118 0
0.695563 0.133234 -0.111881 141 113 0
0.693336 0.13874 -0.112262 145 109 0
0.692637 0.144619 -0.11276 150 104 0
0.695299 0.149954 -0.113242 154 100 0
0.698785 0.154759 -0.113688 159 95 0
0.703937 0.157379 -0.114015 163 91 0
0.709921 0.157346 -0.114105 168 86 0
0.715364 0.155675 -0.114007 173 81 0
0.72034 0.152364 -0.113733 177 77 0
0.722485 0.147041 -0.113312 182 72 0
0.72401 0.14128 -0.112754 186 68 0
0.722124 0.135649 -0.112155 191 63 0
0.719819 0.130272 -0.111466 195 59 0
0.715943 0.125771 -0.110838 200 54 0
0.711133 0.1227 -0.110437 204 50 0
0.705291 0.121903 -0.110181 209 45 0
0.699324 0.121464 -0.11013 214 40 0
0.693705 0.122669 -0.110212 218 36 0
0.689418 0.126752 -0.110487 223 31 0
0.685007 0.130714 -0.110982 227 27 0
0.683522 0.136209 -0.111719 232 22 0
0.682828 0.141878 -0.112605 236 18 0
0.685052 0.146711 -0.113241 241 13 0
0.688176 0.150796 -0.113848 245 9 0
0.692498 0.154583 -0.114349 250 4 0
0.698349 0.154457 -0.114552 255 0 0
