ply
format ascii 1.0
comment Generated by robot_control PLYWriter
element vertex 32
property float x
property float y
property float z
property uchar red
property uchar green
property uchar blue
end_header
0.587678 0.148872 -0.163684 0 255 0
0.59205 0.145859 -0.161424 8 246 0
0.594843 0.142488 -0.158827 16 238 0
0.597022 0.137728 -0.156436 24 230 0
0.596975 0.132261 -0.154291 32 222 0
0.59464 0.127127 -0.153141 41 213 0
0.590956 0.122507 -0.153031 49 205 0
0.585751 0.120296 -0.153836 57 197 0
0.580075 0.120408 -0.155539 65 189 0
0.575385 0.123131 -0.157369 74 180 0
0.574408 0.128643 -0.158828 82 172 0
0.575158 0.13431 -0.160025 90 164 0
0.578528 0.139043 -0.160389 98 156 0
0.583169 0.14269 -0.160054 106 148 0
0.588522 0.144857 -0.159161 115 139 0
0.594098 0.144171 -0.157785 123 131 0
0.599653 0.143308 -0.155929 131 123 0
0.603823 0.139937 -0.153709 139 115 0
0.607492 0.135905 -0.151561 148 106 0
0.60875 0.130546 -0.149493 156 98 0
0.607717 0.12509 -0.147729 164 90 0
0.605738 0.119656 -0.146513 172 82 0
0.600649 0.117394 -0.145962 180 74 0
0.595 0.115809 -0.14653 189 65 0
0.589828 0.116996 -0.148209 197 57 0
0.586576 0.120215 -0.150777 205 49 0
0.58502 0.125218 -0.152908 213 41 0
0.586597 0.130392 -0.15477 222 32 0
0.588725 0.135418 -0.15631 230 24 0
0.593985 0.137906 -0.157006 238 16 0
0.598787 0.141012 -0.15644 246 8 0
0.603891 0.13987 -0.155116 255 0 0
