ply
format ascii 1.0
comment Generated by robot_control PLYWriter
element vertex 65
property float x
property float y
property float z
property uchar red
property uchar green
property uchar blue
end_header
0.691944 -0.0505606 -0.13024 0 255 0
0.696907 -0.0530786 -0.130183 3 251 0
0.700441 -0.0573153 -0.130375 7 247 0
0.701158 -0.0629107 -0.130662 11 243 0
0.698866 -0.0677471 -0.130797 15 239 0
0.696174 -0.0728608 -0.13085 19 235 0
0.690829 -0.0745623 -0.130912 23 231 0
0.684783 -0.074589 -0.130977 27 227 0
0.679775 -0.0714165 -0.131085 31 223 0
0.674817 -0.0680175 -0.131211 35 219 0
0.672197 -0.062616 -0.131357 39 215 0
0.670692 -0.0567924 -0.131462 43 211 0
0.67307 -0.0515824 -0.131512 47 207 0
0.674698 -0.0462066 -0.13153 51 203 0
0.678593 -0.0416003 -0.131457 55 199 0
0.684122 -0.0394999 -0.131277 59 195 0
0.690164 -0.0394813 -0.131076 63 191 0
0.695776 -0.0410824 -0.130871 67 187 0
0.699473 -0.0458147 -0.130672 71 183 0
0.700982 -0.0513998 -0.130516 75 179 0
0.700439 -0.0573067 -0.130444 79 175 0
0.696574 -0.0616839 -0.130482 83 171 0
0.690891 -0.0630443 -0.130645 87 167 0
0.685169 -0.0643234 -0.130869 91 163 0
0.679572 -0.0620749 -0.131104 95 159 0
0.674862 -0.0585314 -0.131274 99 155 0
0.671863 -0.0533352 -0.131391 103 151 0
0.670595 -0.0475511 -0.131513 107 147 0
0.671785 -0.0417472 -0.13164 111 143 0
0.674102 -0.0361641 -0.131753 115 139 0
0.678815 -0.0331497 -0.13179 119 135 0
0.683946 -0.030003 -0.131742 123 131 0
0.689536 -0.0283303 -0.131566 127 127 0
0.694593 -0.0312738 -0.131305 131 123 0
0.699315 -0.0349406 -0.131089 135 119 0
0.701293 -0.0398561 -0.13093 139 115 0
0.700476 -0.0457733 -0.130914 143 111 0
0.696863 -0.0505266 -0.130936 147 107 0
0.691319 -0.0529316 -0.130995 151 103 0
0.685299 -0.0529318 -0.131132 155 99 0
0.679705 -0.0516801 -0.13131 159 95 0
0.675611 -0.0472825 -0.131547 163 91 0
0.673293 -0.0417791 -0.131817 167 87 0
0.670786 -0.0362883 -0.132078 171 83 0
0.67121 -0.0304718 -0.132305 175 79 0
0.674989 -0.0257694 -0.132436 179 75 0
0.679038 -0.0217565 -0.132549 183 71 0
0.684333 -0.0188547 -0.132565 187 67 0
0.690295 -0.0185497 -0.132449 191 63 0
0.695705 -0.0204559 -0.132346 195 59 0
0.699518 -0.0250318 -0.132185 199 55 0
0.701312 -0.0301087 -0.131926 203 51 0
0.699938 -0.0354125 -0.131665 207 47 0
0.69594 -0.0398657 -0.131471 211 43 0
0.69089 -0.0429659 -0.1314 215 39 0
0.684844 -0.0429692 -0.131493 219 35 0
0.679195 -0.0413157 -0.131663 223 31 0
0.675444 -0.0367824 -0.131929 227 27 0
0.673108 -0.0314133 -0.13229 231 23 0
0.670671 -0.0266224 -0.132662 235 19 0
0.672409 -0.0214417 -0.133036 239 15 0
0.673328 -0.0158373 -0.133401 243 11 0
0.678013 -0.0125445 -0.133817 247 7 0
0.680891 -0.00930048 -0.134114 251 3 0
0.686663 -0.00843792 -0.134168 255 0 0
