ply
format ascii 1.0
comment Generated by robot_control PLYWriter
element vertex 200
property float x
property float y
property float z
property uchar red
property uchar green
property uchar blue
end_header
0.685841 -0.318762 -0.0919572 0 255 0
0.685841 -0.318762 -0.0919572 1 253 0
0.685841 -0.318762 -0.0919572 2 252 0
0.685841 -0.318762 -0.0919572 3 251 0
0.685841 -0.318762 -0.0919572 5 249 0
0.685841 -0.318762 -0.0919572 6 248 0
0.685841 -0.318762 -0.0919572 7 247 0
0.685841 -0.318762 -0.0919572 8 246 0
0.685841 -0.318762 -0.0919572 10 244 0
0.685841 -0.318762 -0.0919572 11 243 0
0.685841 -0.318762 -0.0919572 12 242 0
0.685841 -0.318762 -0.0919572 14 240 0
0.685841 -0.318762 -0.0919572 15 239 0
0.685841 -0.318762 -0.0919572 16 238 0
0.685841 -0.318762 -0.0919572 17 237 0
0.685841 -0.318762 -0.0919572 19 235 0
0.685841 -0.318762 -0.0919572 20 234 0
0.685841 -0.318762 -0.0919572 21 233 0
0.685841 -0.318762 -0.0919572 23 231 0
0.685841 -0.318762 -0.0919572 24 230 0
0.685841 -0.318762 -0.0919572 25 229 0
0.685841 -0.318762 -0.0919572 26 228 0
0.685841 -0.318762 -0.0919572 28 226 0
0.685841 -0.318762 -0.0919572 29 225 0
0.685841 -0.318762 -0.0919572 30 224 0
0.685841 -0.318762 -0.0919572 32 222 0
0.685841 -0.318762 -0.0919572 33 221 0
0.685841 -0.318762 -0.0919572 34 220 0
0.685841 -0.318762 -0.0919572 35 219 0
0.685841 -0.318762 -0.0919572 37 217 0
0.685841 -0.318762 -0.0919572 38 216 0
0.685841 -0.318762 -0.0919572 39 215 0
0.685841 -0.318762 -0.0919572 41 213 0
0.685841 -0.318762 -0.0919572 42 212 0
0.685841 -0.318762 -0.0919572 43 211 0
0.685841 -0.318762 -0.0919572 44 210 0
0.685841 -0.318762 -0.0919572 46 208 0
0.685841 -0.318762 -0.0919572 47 207 0
0.685841 -0.318762 -0.0919572 48 206 0
0.685841 -0.318762 -0.0919572 49 205 0
0.685841 -0.318762 -0.0919572 51 203 0
0.685841 -0.318762 -0.0919572 52 202 0
0.685841 -0.318762 -0.0919572 53 201 0
0.685841 -0.318762 -0.0919572 55 199 0
0.685841 -0.318762 -0.0919572 56 198 0
0.685841 -0.318762 -0.0919572 57 197 0
0.685841 -0.318762 -0.0919572 58 196 0
0.685841 -0.318762 -0.0919572 60 194 0
0.685841 -0.318762 -0.0919572 61 193 0
0.685841 -0.318762 -0.0919572 62 192 0
0.685841 -0.318762 -0.0919572 64 190 0
0.685841 -0.318762 -0.0919572 65 189 0
0.685841 -0.318762 -0.0919572 66 188 0
0.685841 -0.318762 -0.0919572 67 187 0
0.685841 -0.318762 -0.0919572 69 185 0
0.685841 -0.318762 -0.0919572 70 184 0
0.685841 -0.318762 -0.0919572 71 183 0
0.685841 -0.318762 -0.0919572 73 181 0
0.685841 -0.318762 -0.0919572 74 180 0
0.685841 -0.318762 -0.0919572 75 179 0
0.685841 -0.318762 -0.0919572 76 178 0
0.685841 -0.318762 -0.0919572 78 176 0
0.685841 -0.318762 -0.0919572 79 175 0
0.685841 -0.318762 -0.0919572 80 174 0
0.685841 -0.318762 -0.0919572 82 172 0
0.685841 -0.318762 -0.0919572 83 171 0
0.685841 -0.318762 -0.0919572 84 170 0
0.685841 -0.318762 -0.0919572 85 169 0
0.685841 -0.318762 -0.0919572 87 167 0
0.685841 -0.318762 -0.0919572 88 166 0
0.685841 -0.318762 -0.0919572 89 165 0
0.685841 -0.318762 -0.0919572 90 164 0
0.685841 -0.318762 -0.0919572 92 162 0
0.685841 -0.318762 -0.0919572 93 161 0
0.685841 -0.318762 -0.0919572 94 160 0
0.685841 -0.318762 -0.0919572 96 158 0
0.685841 -0.318762 -0.0919572 97 157 0
0.685841 -0.318762 -0.0919572 98 156 0
0.685841 -0.318762 -0.0919572 99 155 0
0.685841 -0.318762 -0.0919572 101 153 0
0.685841 -0.318762 -0.0919572 102 152 0
0.685841 -0.318762 -0.0919572 103 151 0
0.685841 -0.318762 -0.0919572 105 149 0
0.685841 -0.318762 -0.0919572 106 148 0
0.685841 -0.318762 -0.0919572 107 147 0
0.685841 -0.318762 -0.0919572 108 146 0
0.685841 -0.318762 -0.0919572 110 144 0
0.685841 -0.318762 -0.0919572 111 143 0
0.685841 -0.318762 -0.0919572 112 142 0
0.685841 -0.318762 -0.0919572 114 140 0
0.685841 -0.318762 -0.0919572 115 139 0
0.685841 -0.318762 -0.0919572 116 138 0
0.685841 -0.318762 -0.0919572 117 137 0
0.685841 -0.318762 -0.0919572 119 135 0
0.685841 -0.318762 -0.0919572 120 134 0
0.685841 -0.318762 -0.0919572 121 133 0
0.685841 -0.318762 -0.0919572 123 131 0
0.685841 -0.318762 -0.0919572 124 130 0
0.685841 -0.318762 -0.0919572 125 129 0
0.685841 -0.318762 -0.0919572 126 128 0
0.685841 -0.318762 -0.0919572 128 126 0
0.685841 -0.318762 -0.0919572 129 125 0
0.685841 -0.318762 -0.0919572 130 124 0
0.685841 -0.318762 -0.0919572 131 123 0
0.685841 -0.318762 -0.0919572 133 121 0
0.685841 -0.318762 -0.0919572 134 120 0
0.685841 -0.318762 -0.0919572 135 119 0
0.685841 -0.318762 -0.0919572 137 117 0
0.685841 -0.318762 -0.0919572 138 116 0
0.685841 -0.318762 -0.0919572 139 115 0
0.685841 -0.318762 -0.0919572 140 114 0
0.685841 -0.318762 -0.0919572 142 112 0
0.685841 -0.318762 -0.0919572 143 111 0
0.685841 -0.318762 -0.0919572 144 110 0
0.685841 -0.318762 -0.0919572 146 108 0
0.685841 -0.318762 -0.0919572 147 107 0
0.685841 -0.318762 -0.0919572 148 106 0
0.685841 -0.318762 -0.0919572 149 105 0
0.685841 -0.318762 -0.0919572 151 103 0
0.685841 -0.318762 -0.0919572 152 102 0
0.685841 -0.318762 -0.0919572 153 101 0
0.685841 -0.318762 -0.0919572 155 99 0
0.685841 -0.318762 -0.0919572 156 98 0
0.685841 -0.318762 -0.0919572 157 97 0
0.685841 -0.318762 -0.0919572 158 96 0
0.685841 -0.318762 -0.0919572 160 94 0
0.685841 -0.318762 -0.0919572 161 93 0
0.685841 -0.318762 -0.0919572 162 92 0
0.685841 -0.318762 -0.0919572 164 90 0
0.685841 -0.318762 -0.0919572 165 89 0
0.685841 -0.318762 -0.0919572 166 88 0
0.685841 -0.318762 -0.0919572 167 87 0
0.685841 -0.318762 -0.0919572 169 85 0
0.685841 -0.318762 -0.0919572 170 84 0
0.685841 -0.318762 -0.0919572 171 83 0
0.685841 -0.318762 -0.0919572 172 82 0
0.685841 -0.318762 -0.0919572 174 80 0
0.685841 -0.318762 -0.0919572 175 79 0
0.685841 -0.318762 -0.0919572 176 78 0
0.685841 -0.318762 -0.0919572 178 76 0
0.685841 -0.318762 -0.0919572 179 75 0
0.685841 -0.318762 -0.0919572 180 74 0
0.685841 -0.318762 -0.0919572 181 73 0
0.685841 -0.318762 -0.0919572 183 71 0
0.685841 -0.318762 -0.0919572 184 70 0
0.685841 -0.318762 -0.0919572 185 69 0
0.685841 -0.318762 -0.0919572 187 67 0
0.685841 -0.318762 -0.0919572 188 66 0
0.685841 -0.318762 -0.0919572 189 65 0
0.685841 -0.318762 -0.0919572 190 64 0
0.685841 -0.318762 -0.0919572 192 62 0
0.685841 -0.318762 -0.0919572 193 61 0
0.685841 -0.318762 -0.0919572 194 60 0
0.685841 -0.318762 -0.0919572 196 58 0
0.685841 -0.318762 -0.0919572 197 57 0
0.685841 -0.318762 -0.0919572 198 56 0
0.685841 -0.318762 -0.0919572 199 55 0
0.685841 -0.318762 -0.0919572 201 53 0
0.685841 -0.318762 -0.0919572 202 52 0
0.685841 -0.318762 -0.0919572 203 51 0
0.685841 -0.318762 -0.0919572 205 49 0
0.685841 -0.318762 -0.0919572 206 48 0
0.685841 -0.318762 -0.0919572 207 47 0
0.685841 -0.318762 -0.0919572 208 46 0
0.685841 -0.318762 -0.0919572 210 44 0
0.685841 -0.318762 -0.0919572 211 43 0
0.685841 -0.318762 -0.0919572 212 42 0
0.685841 -0.318762 -0.0919572 213 41 0
0.685841 -0.318762 -0.0919572 215 39 0
0.685841 -0.318762 -0.0919572 216 38 0
0.685841 -0.318762 -0.0919572 217 37 0
0.685841 -0.318762 -0.0919572 219 35 0
0.685841 -0.318762 -0.0919572 220 34 0
0.685841 -0.318762 -0.0919572 221 33 0
0.685841 -0.318762 -0.0919572 222 32 0
0.685841 -0.318762 -0.0919572 224 30 0
0.685841 -0.318762 -0.0919572 225 29 0
0.685841 -0.318762 -0.0919572 226 28 0
0.685841 -0.318762 -0.0919572 228 26 0
0.685841 -0.318762 -0.0919572 229 25 0
0.685841 -0.318762 -0.0919572 230 24 0
0.685841 -0.318762 -0.0919572 231 23 0
0.685841 -0.318762 -0.0919572 233 21 0
0.685841 -0.318762 -0.0919572 234 20 0
0.685841 -0.318762 -0.0919572 235 19 0
0.685841 -0.318762 -0.0919572 237 17 0
0.685841 -0.318762 -0.0919572 238 16 0
0.685841 -0.318762 -0.0919572 239 15 0
0.685841 -0.318762 -0.0919572 240 14 0
0.685841 -0.318762 -0.0919572 242 12 0
0.685841 -0.318762 -0.0919572 243 11 0
0.685841 -0.318762 -0.0919572 244 10 0
0.685841 -0.318762 -0.0919572 246 8 0
0.685841 -0.318762 -0.0919572 247 7 0
0.685841 -0.318762 -0.0919572 248 6 0
0.685841 -0.318762 -0.0919572 249 5 0
0.685841 -0.318762 -0.0919572 251 3 0
0.685841 -0.318762 -0.0919572 252 2 0
0.685841 -0.318762 -0.0919572 253 1 0
0.685841 -0.318762 -0.0919572 255 0 0
