ply
format ascii 1.0
comment Generated by robot_control PLYWriter
element vertex 64
property float x
property float y
property float z
property uchar red
property uchar green
property uchar blue
end_header
0.721497 -0.00717893 -0.114197 0 255 0
0.72567 -0.0107226 -0.114439 4 250 0
0.729012 -0.0152628 -0.114353 8 246 0
0.730663 -0.0207639 -0.113652 12 242 0
0.730627 -0.0266662 -0.112418 16 238 0
0.728511 -0.0318011 -0.111283 20 234 0
0.725319 -0.0362293 -0.110237 24 230 0
0.720795 -0.0392237 -0.109028 28 226 0
0.715037 -0.0408036 -0.108494 32 222 0
0.709131 -0.0402529 -0.108441 36 218 0
0.704218 -0.0369677 -0.108951 40 214 0
0.701297 -0.0318441 -0.109636 44 210 0
0.701219 -0.0259773 -0.110669 48 206 0
0.703744 -0.0209353 -0.1117 52 202 0
0.708039 -0.0170672 -0.112414 56 198 0
0.713961 -0.0166991 -0.112773 60 194 0
0.719669 -0.0183134 -0.11264 64 190 0
0.724816 -0.0212508 -0.112061 68 186 0
0.727884 -0.0263508 -0.111295 72 182 0
0.72966 -0.0320398 -0.110511 76 178 0
0.728577 -0.037692 -0.109678 80 174 0
0.726483 -0.0432891 -0.108793 85 169 0
0.722111 -0.0471854 -0.107817 89 165 0
0.717454 -0.0504939 -0.107119 93 161 0
0.711437 -0.0505552 -0.106672 97 157 0
0.705816 -0.049234 -0.106583 101 153 0
0.701691 -0.044936 -0.107065 105 149 0
0.699497 -0.0394356 -0.107683 109 145 0
0.700817 -0.0339542 -0.108558 113 141 0
0.70443 -0.0293145 -0.109243 117 137 0
0.709589 -0.0262943 -0.109669 121 133 0
0.71542 -0.0266027 -0.109802 125 129 0
0.720908 -0.0290422 -0.109632 129 125 0
0.72544 -0.0328729 -0.109217 133 121 0
0.727068 -0.0386245 -0.108452 137 117 0
0.727481 -0.0445337 -0.107708 141 113 0
0.726042 -0.0502436 -0.106816 145 109 0
0.722997 -0.0553356 -0.105677 149 105 0
0.719282 -0.0600171 -0.104864 153 101 0
0.713671 -0.0618069 -0.104387 157 97 0
0.707992 -0.0604667 -0.104004 161 93 0
0.702825 -0.0584735 -0.104019 165 89 0
0.698448 -0.0543619 -0.104353 170 84 0
0.698491 -0.0484952 -0.104796 174 80 0
0.700115 -0.0428756 -0.105712 178 76 0
0.704205 -0.0386909 -0.106384 182 72 0
0.709695 -0.0362247 -0.106909 186 68 0
0.71514 -0.0383737 -0.107023 190 64 0
0.720599 -0.0407628 -0.106826 194 60 0
0.724274 -0.0452258 -0.106445 198 56 0
0.726761 -0.050688 -0.105835 202 52 0
0.727224 -0.056634 -0.10492 206 48 0
0.725305 -0.0620749 -0.103951 210 44 0
0.721515 -0.0666231 -0.103004 214 40 0
0.716954 -0.0702092 -0.102248 218 36 0
0.711861 -0.072627 -0.101675 222 32 0
0.706051 -0.0718053 -0.101326 226 28 0
0.700786 -0.0693068 -0.101218 230 24 0
0.696979 -0.0653469 -0.101506 234 20 0
0.6964 -0.05972 -0.102029 238 16 0
0.697884 -0.0545021 -0.103009 242 12 0
0.701116 -0.0504974 -0.104084 246 8 0
0.705685 -0.0479479 -0.105233 250 4 0
0.710636 -0.0465988 -0.105907 255 0 0
