ply
format ascii 1.0
comment Generated by robot_control PLYWriter
element vertex 49
property float x
property float y
property float z
property uchar red
property uchar green
property uchar blue
end_header
0.692673 0.111433 -0.134399 0 255 0
0.696933 0.109267 -0.134392 5 249 0
0.701902 0.107269 -0.133994 10 244 0
0.706213 0.103628 -0.13341 15 239 0
0.708353 0.098381 -0.132147 21 233 0
0.708898 0.0927365 -0.130765 26 228 0
0.708484 0.087527 -0.12933 31 223 0
0.704232 0.0835581 -0.128144 37 217 0
0.699603 0.0799598 -0.127487 42 212 0
0.693812 0.0796893 -0.127048 47 207 0
0.68855 0.0821947 -0.127103 53 201 0
0.684154 0.0860197 -0.127705 58 196 0
0.684134 0.0918997 -0.128678 63 191 0
0.684379 0.0977196 -0.129736 69 185 0
0.688793 0.101509 -0.130704 74 180 0
0.694128 0.103918 -0.13128 79 175 0
0.700045 0.10391 -0.131607 85 169 0
0.705911 0.102844 -0.131608 90 164 0
0.711185 0.100406 -0.131318 95 159 0
0.714128 0.0952622 -0.130726 100 154 0
0.716066 0.0898131 -0.129872 106 148 0
0.716484 0.0839547 -0.128889 111 143 0
0.714296 0.0786577 -0.127919 116 138 0
0.710069 0.0746395 -0.127168 122 132 0
0.704332 0.0733202 -0.126628 127 127 0
0.698544 0.0739195 -0.126374 132 122 0
0.693765 0.0773188 -0.126404 138 116 0
0.691808 0.0827028 -0.126953 143 111 0
0.690746 0.0884007 -0.128039 148 106 0
0.692912 0.0936734 -0.129071 154 100 0
0.698296 0.0960838 -0.129918 159 95 0
0.703856 0.0980419 -0.130472 164 90 0
0.709667 0.0977895 -0.130712 170 84 0
0.715357 0.0960403 -0.130637 175 79 0
0.719028 0.091637 -0.130199 180 74 0
0.722902 0.0871498 -0.129612 185 69 0
0.724499 0.0818195 -0.128517 191 63 0
0.723122 0.0763207 -0.127401 196 58 0
0.720222 0.0713181 -0.126195 201 53 0
0.715295 0.068192 -0.125043 207 47 0
0.709513 0.0679091 -0.124119 212 42 0
0.704076 0.0700813 -0.124023 217 37 0
0.699529 0.0738545 -0.124637 223 31 0
0.697422 0.0787506 -0.125832 228 26 0
0.698825 0.0838737 -0.127289 233 21 0
0.701608 0.088658 -0.12866 239 15 0
0.706319 0.0912803 -0.129862 244 10 0
0.709832 0.0921385 -0.131027 249 5 0
0.714594 0.0936492 -0.131845 255 0 0
