ply
format ascii 1.0
comment Generated by robot_control PLYWriter
element vertex 44
property float x
property float y
property float z
property uchar red
property uchar green
property uchar blue
end_header
0.641786 0.169824 -0.144906 0 255 0
0.646591 0.167008 -0.144373 5 249 0
0.649879 0.163272 -0.143492 11 243 0
0.651927 0.158056 -0.14198 17 237 0
0.650583 0.153218 -0.139872 23 231 0
0.647393 0.149405 -0.137842 29 225 0
0.641686 0.148357 -0.137076 35 219 0
0.636543 0.150602 -0.137085 41 213 0
0.632471 0.154786 -0.137974 47 207 0
0.630293 0.159864 -0.139118 53 201 0
0.630455 0.165416 -0.14134 59 195 0
0.632772 0.170423 -0.142953 65 189 0
0.636701 0.17403 -0.145234 71 183 0
0.642491 0.175128 -0.146568 77 177 0
0.647431 0.172977 -0.147419 83 171 0
0.653037 0.1714 -0.147643 88 166 0
0.657522 0.168723 -0.147157 94 160 0
0.659558 0.163168 -0.146084 100 154 0
0.658311 0.157839 -0.144693 106 148 0
0.654038 0.15383 -0.143276 112 142 0
0.648258 0.152836 -0.142005 118 136 0
0.643262 0.155328 -0.141677 124 130 0
0.639758 0.159941 -0.142607 130 124 0
0.637579 0.165244 -0.144488 136 118 0
0.638882 0.170687 -0.146184 142 112 0
0.640337 0.175391 -0.148988 148 106 0
0.644869 0.178859 -0.150834 154 100 0
0.649939 0.18031 -0.152486 160 94 0
0.655183 0.177951 -0.154228 166 88 0
0.660463 0.177242 -0.155018 171 83 0
0.664821 0.173107 -0.15484 177 77 0
0.666069 0.167756 -0.153401 183 71 0
0.667247 0.1623 -0.151403 189 65 0
0.663745 0.15838 -0.148772 195 59 0
0.659366 0.1573 -0.146206 201 53 0
0.65385 0.157588 -0.144664 207 47 0
0.649022 0.160416 -0.144486 213 41 0
0.646553 0.165807 -0.145408 219 35 0
0.646004 0.171123 -0.14798 225 29 0
0.644919 0.17493 -0.151308 231 23 0
0.648904 0.177974 -0.152802 237 17 0
0.650523 0.181291 -0.155984 243 11 0
0.654448 0.182102 -0.15987 249 5 0
0.65866 0.183124 -0.162362 255 0 0
