ply
format ascii 1.0
comment Generated by robot_control PLYWriter
element vertex 59
property float x
property float y
property float z
property uchar red
property uchar green
property uchar blue
end_header
0.626294 -0.106189 -0.126591 0 255 0
0.628872 -0.109724 -0.126679 4 250 0
0.63109 -0.114776 -0.126076 8 246 0
0.631047 -0.120699 -0.124987 13 241 0
0.629243 -0.1256 -0.123947 17 237 0
0.625947 -0.128667 -0.122973 21 233 0
0.621176 -0.130845 -0.122066 26 228 0
0.615628 -0.130122 -0.121733 30 224 0
0.611603 -0.126377 -0.12184 35 219 0
0.611613 -0.120594 -0.1226 39 215 0
0.615053 -0.115677 -0.123205 43 211 0
0.620584 -0.114555 -0.123893 48 206 0
0.6262 -0.116133 -0.124207 52 202 0
0.629927 -0.120837 -0.123899 57 197 0
0.63276 -0.126114 -0.123247 61 193 0
0.6326 -0.132062 -0.122222 65 189 0
0.629635 -0.13706 -0.121246 70 184 0
0.624747 -0.140374 -0.120377 74 180 0
0.618866 -0.140679 -0.119411 79 175 0
0.613766 -0.138146 -0.119439 83 171 0
0.611189 -0.132971 -0.120164 87 167 0
0.613683 -0.127872 -0.12104 92 162 0
0.619103 -0.125975 -0.121712 96 158 0
0.625133 -0.125953 -0.121992 101 153 0
0.629368 -0.129693 -0.121633 105 149 0
0.632142 -0.134993 -0.120861 109 145 0
0.633614 -0.140448 -0.119813 114 140 0
0.631107 -0.145768 -0.1187 118 136 0
0.628157 -0.150613 -0.117649 123 131 0
0.622398 -0.152007 -0.116916 127 127 0
0.616545 -0.151041 -0.116353 131 123 0
0.612754 -0.14696 -0.116473 136 118 0
0.613318 -0.141132 -0.117404 140 114 0
0.61713 -0.136694 -0.118324 145 109 0
0.622857 -0.135891 -0.118746 149 105 0
0.62819 -0.13813 -0.118698 153 101 0
0.632465 -0.142379 -0.118324 158 96 0
0.634621 -0.147912 -0.117698 162 92 0
0.634462 -0.15383 -0.116666 167 87 0
0.631159 -0.158732 -0.115573 171 83 0
0.626794 -0.162429 -0.114545 175 79 0
0.620819 -0.16238 -0.113737 180 74 0
0.615462 -0.159718 -0.11356 184 70 0
0.613639 -0.155181 -0.114082 189 65 0
0.615849 -0.149866 -0.114749 193 61 0
0.620418 -0.146942 -0.115498 197 57 0
0.625665 -0.148097 -0.115934 202 52 0
0.630827 -0.151218 -0.116004 206 48 0
0.634469 -0.155296 -0.115696 211 43 0
0.634514 -0.161301 -0.115052 215 39 0
0.633443 -0.166998 -0.114171 219 35 0
0.630557 -0.170484 -0.113211 224 30 0
0.626467 -0.174461 -0.112319 228 26 0
0.621018 -0.173088 -0.111498 233 21 0
0.616586 -0.171193 -0.111016 237 17 0
0.61413 -0.166533 -0.111053 241 13 0
0.616426 -0.1624 -0.111838 246 8 0
0.619193 -0.158258 -0.11318 250 4 0
0.624744 -0.158409 -0.11401 255 0 0
