ply
format ascii 1.0
comment Generated by robot_control PLYWriter
element vertex 10
property float x
property float y
property float z
property uchar red
property uchar green
property uchar blue
end_header
0.592787 -0.196145 -0.130429 0 255 0
0.592584 -0.191358 -0.13155 28 226 0
0.592261 -0.186618 -0.132836 56 198 0
0.591879 -0.181883 -0.134127 85 169 0
0.591458 -0.177128 -0.135326 113 141 0
0.591022 -0.172359 -0.136467 141 113 0
0.590631 -0.167589 -0.13762 170 84 0
0.590338 -0.162802 -0.138727 198 56 0
0.590094 -0.15798 -0.139681 226 28 0
0.590088 -0.153129 -0.140518 255 0 0
