ply
format ascii 1.0
comment Generated by robot_control PLYWriter
element vertex 32
property float x
property float y
property float z
property uchar red
property uchar green
property uchar blue
end_header
0.68639 0.0809289 -0.158506 0 255 0
0.691655 0.0786127 -0.158477 8 246 0
0.694828 0.0740897 -0.158204 16 238 0
0.696398 0.0685508 -0.157872 24 230 0
0.694309 0.0635996 -0.157535 32 222 0
0.690109 0.0596048 -0.157338 41 213 0
0.684604 0.057507 -0.157234 49 205 0
0.678623 0.0574626 -0.157186 57 197 0
0.674093 0.0602845 -0.15722 65 189 0
0.670119 0.0647259 -0.157437 74 180 0
0.666817 0.0695376 -0.157816 82 172 0
0.667479 0.0753605 -0.158245 90 164 0
0.669854 0.0808266 -0.158608 98 156 0
0.672606 0.0860134 -0.158845 106 148 0
0.677362 0.0886023 -0.158966 115 139 0
0.683127 0.0897411 -0.159058 123 131 0
0.688781 0.0894466 -0.159155 131 123 0
0.694213 0.0869816 -0.159225 139 115 0
0.697406 0.0820391 -0.159181 148 106 0
0.69827 0.0764058 -0.158977 156 98 0
0.695523 0.0711435 -0.158605 164 90 0
0.692255 0.0665317 -0.158315 172 82 0
0.686421 0.0653031 -0.158069 180 74 0
0.680584 0.0655934 -0.157821 189 65 0
0.675367 0.0685057 -0.157731 197 57 0
0.671753 0.0731408 -0.157838 205 49 0
0.669284 0.0781977 -0.158487 213 41 0
0.669277 0.0841204 -0.159069 222 32 0
0.671673 0.0892493 -0.159985 230 24 0
0.674933 0.0941046 -0.160935 238 16 0
0.680233 0.0955948 -0.162457 246 8 0
0.684718 0.0978694 -0.16338 255 0 0
