ply
format ascii 1.0
comment Generated by robot_control PLYWriter
element vertex 8
property float x
property float y
property float z
property uchar red
property uchar green
property uchar blue
end_header
0.639102 0.0844763 -0.0447417 0 255 0
0.639093 0.0797164 -0.0446486 36 218 0
0.639064 0.0749603 -0.0444214 72 182 0
0.639027 0.070218 -0.044013 109 145 0
0.638977 0.0654912 -0.0434443 145 109 0
0.638917 0.0607814 -0.0427514 182 72 0
0.63885 0.0560915 -0.0419311 218 36 0
0.638775 0.0514234 -0.0409955 255 0 0
