ply
format ascii 1.0
comment Generated by robot_control PLYWriter
element vertex 16
property float x
property float y
property float z
property uchar red
property uchar green
property uchar blue
end_header
0.603062 -0.020219 -0.119382 0 255 0
0.60306 -0.0151825 -0.119188 17 238 0
0.602775 -0.010203 -0.118516 34 221 0
0.602489 -0.00519294 -0.118035 51 204 0
0.602207 -0.000191927 -0.117463 68 187 0
0.601923 0.0048053 -0.116859 85 169 0
0.601631 0.0097992 -0.116231 102 153 0
0.601352 0.0148083 -0.115733 119 135 0
0.60116 0.019828 -0.115307 136 118 0
0.600881 0.0248474 -0.114925 153 101 0
0.600592 0.0298727 -0.114643 170 84 0
0.600584 0.0349096 -0.114432 187 67 0
0.600406 0.0399454 -0.114272 204 50 0
0.600229 0.0449814 -0.114115 221 33 0
0.600153 0.0500222 -0.114122 238 16 0
0.599846 0.0550289 -0.113664 255 0 0
