ply
format ascii 1.0
comment Generated by robot_control PLYWriter
element vertex 58
property float x
property float y
property float z
property uchar red
property uchar green
property uchar blue
end_header
0.552067 0.166648 -0.110876 0 255 0
0.556997 0.16404 -0.111273 4 250 0
0.559525 0.159207 -0.111192 8 246 0
0.562526 0.154292 -0.110594 13 241 0
0.562558 0.148351 -0.109976 17 237 0
0.559595 0.143322 -0.109152 22 232 0
0.556013 0.138717 -0.108275 26 228 0
0.552019 0.134743 -0.107459 31 223 0
0.546231 0.13409 -0.107001 35 219 0
0.540273 0.133671 -0.106893 40 214 0
0.534448 0.134608 -0.107102 44 210 0
0.528881 0.136747 -0.107364 49 205 0
0.525391 0.141054 -0.107661 53 201 0
0.522981 0.146495 -0.108136 58 196 0
0.522401 0.152368 -0.108613 62 192 0
0.522655 0.158269 -0.109148 67 187 0
0.525242 0.163553 -0.109549 71 183 0
0.530008 0.16703 -0.109958 76 178 0
0.534581 0.169884 -0.110208 80 174 0
0.540535 0.169508 -0.110281 85 169 0
0.545836 0.167536 -0.110127 89 165 0
0.549505 0.163026 -0.109831 93 161 0
0.551951 0.157593 -0.109446 98 156 0
0.552965 0.151845 -0.108868 102 152 0
0.550916 0.146291 -0.108463 107 147 0
0.546921 0.141937 -0.108167 111 143 0
0.542922 0.137501 -0.108058 116 138 0
0.537393 0.135321 -0.10809 120 134 0
0.531433 0.135278 -0.108149 125 129 0
0.52568 0.136553 -0.108253 129 125 0
0.520719 0.139629 -0.108442 134 120 0
0.516529 0.143871 -0.10876 138 116 0
0.513569 0.148886 -0.109194 143 111 0
0.512657 0.154683 -0.109669 147 107 0
0.513443 0.160556 -0.110126 152 102 0
0.516562 0.165137 -0.110514 156 98 0
0.521161 0.1689 -0.11081 161 93 0
0.526478 0.171368 -0.110913 165 89 0
0.53224 0.170184 -0.110787 170 84 0
0.537695 0.1685 -0.110349 174 80 0
0.541152 0.163712 -0.109855 178 76 0
0.54367 0.15832 -0.109363 183 71 0
0.543674 0.152949 -0.108827 187 67 0
0.541103 0.147582 -0.108359 192 62 0
0.538744 0.142111 -0.10793 196 58 0
0.533288 0.139749 -0.107809 201 53 0
0.527843 0.137602 -0.107813 205 49 0
0.521876 0.137437 -0.107966 210 44 0
0.516012 0.137801 -0.10852 214 40 0
0.511201 0.1413 -0.109057 219 35 0
0.506804 0.145195 -0.110094 223 31 0
0.504446 0.150586 -0.110807 228 26 0
0.503167 0.156274 -0.111731 232 22 0
0.504354 0.161443 -0.112632 237 17 0
0.506796 0.166731 -0.113062 241 13 0
0.509622 0.170731 -0.113217 246 8 0
0.513226 0.172339 -0.113231 250 4 0
0.518883 0.171985 -0.112893 255 0 0
