ply
format ascii 1.0
comment Generated by robot_control PLYWriter
element vertex 99
property float x
property float y
property float z
property uchar red
property uchar green
property uchar blue
end_header
0.595505 -0.00829437 -0.140239 0 255 0
0.599705 -0.00993547 -0.139742 2 252 0
0.60279 -0.0141983 -0.139157 5 249 0
0.605156 -0.0176422 -0.138662 7 247 0
0.605137 -0.0236129 -0.138212 10 244 0
0.60138 -0.0278803 -0.138098 13 241 0
0.596942 -0.0318582 -0.138384 15 239 0
0.59107 -0.0321826 -0.138949 18 236 0
0.585587 -0.0304317 -0.140016 20 234 0
0.58024 -0.028503 -0.141226 23 231 0
0.577137 -0.0235636 -0.142065 26 228 0
0.574872 -0.0181599 -0.142658 28 226 0
0.574908 -0.0121899 -0.143082 31 223 0
0.577174 -0.00679573 -0.143193 33 221 0
0.580893 -0.0025553 -0.142999 36 218 0
0.584558 0.00148265 -0.142624 39 215 0
0.590509 0.00133156 -0.141981 41 213 0
0.596406 0.00178049 -0.141328 44 210 0
0.601393 -0.00103706 -0.140693 46 208 0
0.604788 -0.00592156 -0.140269 49 205 0
0.605169 -0.0117945 -0.139958 52 202 0
0.602441 -0.016966 -0.13993 54 200 0
0.597301 -0.0199963 -0.140294 57 197 0
0.591986 -0.0225415 -0.140784 59 195 0
0.586494 -0.0210059 -0.141373 62 192 0
0.581266 -0.0182104 -0.141967 65 189 0
0.577691 -0.0135388 -0.14263 67 187 0
0.574902 -0.00828467 -0.143097 70 184 0
0.575466 -0.00242154 -0.143708 72 182 0
0.577682 0.00310497 -0.144147 75 179 0
0.580304 0.00848396 -0.14434 78 176 0
0.585332 0.0112509 -0.144289 80 174 0
0.591067 0.012812 -0.143952 83 171 0
0.596771 0.0119122 -0.143514 85 169 0
0.602202 0.00949423 -0.143007 88 166 0
0.605247 0.00472183 -0.142435 91 163 0
0.605206 -0.00124676 -0.141957 93 161 0
0.602697 -0.00651455 -0.141648 96 158 0
0.598036 -0.0102666 -0.141566 98 156 0
0.592939 -0.0116843 -0.141656 101 153 0
0.587155 -0.010538 -0.142051 104 150 0
0.581569 -0.0088696 -0.142792 106 148 0
0.578748 -0.00391677 -0.14354 109 145 0
0.575097 0.000620779 -0.144501 111 143 0
0.574877 0.00647473 -0.145214 114 140 0
0.576739 0.0119801 -0.146194 117 137 0
0.578972 0.017261 -0.14674 119 135 0
0.584273 0.0200166 -0.147138 122 132 0
0.589742 0.022156 -0.147247 124 130 0
0.595706 0.022501 -0.147019 127 127 0
0.599951 0.0189967 -0.146524 130 124 0
0.604657 0.0161146 -0.145753 132 122 0
0.605298 0.0102105 -0.145052 135 119 0
0.603367 0.00486043 -0.144233 137 117 0
0.599061 0.000787165 -0.143711 140 114 0
0.593646 -0.0013903 -0.143515 143 111 0
0.587678 -0.00121362 -0.143753 145 109 0
0.58219 0.000673983 -0.144445 148 106 0
0.578664 0.00521878 -0.145465 150 104 0
0.575535 0.0102338 -0.146423 153 101 0
0.574833 0.0159291 -0.147517 156 98 0
0.57645 0.0215299 -0.148705 158 96 0
0.578799 0.0269002 -0.149841 161 93 0
0.582999 0.0305882 -0.150687 163 91 0
0.588679 0.0323948 -0.15127 166 88 0
0.594579 0.0332266 -0.151363 169 85 0
0.59968 0.0305396 -0.150857 171 83 0
0.603473 0.0260745 -0.149739 174 80 0
0.604369 0.0203006 -0.148672 176 78 0
0.603027 0.014945 -0.147511 179 75 0
0.599313 0.0104881 -0.146854 182 72 0
0.593617 0.00891778 -0.146475 184 70 0
0.587639 0.00916792 -0.146568 187 67 0
0.582681 0.0121885 -0.147157 189 65 0
0.578347 0.0160259 -0.148133 192 62 0
0.576469 0.02064 -0.149532 195 59 0
0.574747 0.0261737 -0.150854 197 57 0
0.576392 0.0315748 -0.152411 200 54 0
0.579532 0.0358597 -0.153553 202 52 0
0.583013 0.0405424 -0.154452 205 49 0
0.588406 0.042465 -0.155239 208 46 0
0.594371 0.04263 -0.155574 210 44 0
0.599822 0.0411268 -0.155396 213 41 0
0.604416 0.0374127 -0.154516 215 39 0
0.605603 0.0317782 -0.153438 218 36 0
0.603918 0.0263524 -0.151871 221 33 0
0.600397 0.0217949 -0.150324 223 31 0
0.594665 0.020684 -0.149465 226 28 0
0.588797 0.0197511 -0.149284 228 26 0
0.583751 0.0220992 -0.149684 231 23 0
0.579275 0.0250989 -0.151133 234 20 0
0.5764 0.0296633 -0.152717 236 18 0
0.574746 0.0350452 -0.154174 239 15 0
0.57584 0.0402551 -0.155867 241 13 0
0.578084 0.0450785 -0.157168 244 10 0
0.580652 0.0491448 -0.158351 247 7 0
0.583217 0.0517485 -0.159107 249 5 0
0.5884 0.0523031 -0.159918 252 2 0
0.590131 0.0542358 -0.160318 255 0 0
