ply
format ascii 1.0
comment Generated by robot_control PLYWriter
element vertex 46
property float x
property float y
property float z
property uchar red
property uchar green
property uchar blue
end_header
0.591943 0.140426 -0.178671 0 255 0
0.597037 0.140508 -0.177206 5 249 0
0.598954 0.136634 -0.176124 11 243 0
0.602513 0.134475 -0.173455 17 238 0
0.604247 0.129848 -0.171322 22 232 0
0.60421 0.125263 -0.168746 28 226 0
0.602673 0.120337 -0.166443 34 221 0
0.599186 0.115932 -0.164601 39 215 0
0.594019 0.113936 -0.16354 45 209 0
0.588519 0.113637 -0.163333 51 204 0
0.582887 0.113929 -0.164004 56 198 0
0.578756 0.117111 -0.165541 62 192 0
0.575072 0.120421 -0.167153 68 187 0
0.574343 0.125901 -0.169107 73 181 0
0.57792 0.129653 -0.170578 79 175 0
0.582184 0.133159 -0.171307 85 169 0
0.587993 0.13323 -0.171008 90 164 0
0.593291 0.13165 -0.170039 96 158 0
0.597218 0.127571 -0.16829 102 153 0
0.59891 0.12244 -0.166244 107 147 0
0.597743 0.117011 -0.164444 113 141 0
0.595503 0.111745 -0.162879 119 135 0
0.590237 0.109485 -0.162062 124 130 0
0.585178 0.106873 -0.161641 130 124 0
0.579248 0.106838 -0.161742 136 118 0
0.573914 0.108507 -0.162467 141 113 0
0.569982 0.112808 -0.163371 147 107 0
0.569262 0.118295 -0.164941 153 101 0
0.571325 0.123467 -0.166443 158 96 0
0.576051 0.126184 -0.167241 164 90 0
0.581948 0.126159 -0.16693 170 84 0
0.587805 0.125942 -0.166073 175 79 0
0.590386 0.121149 -0.164795 181 73 0
0.592726 0.116701 -0.162773 187 67 0
0.592578 0.111125 -0.160882 192 62 0
0.589608 0.106221 -0.159431 198 56 0
0.585072 0.102864 -0.157948 204 50 0
0.579422 0.101406 -0.15722 209 45 0
0.573502 0.101325 -0.157206 215 39 0
0.568253 0.103142 -0.158178 221 33 0
0.563798 0.106039 -0.160096 226 28 0
0.562386 0.111041 -0.162409 232 22 0
0.563778 0.115057 -0.164721 238 16 0
0.566608 0.118482 -0.166817 243 11 0
0.570124 0.121483 -0.167493 249 5 0
0.574503 0.121839 -0.167195 255 0 0
