ply
format ascii 1.0
comment Generated by robot_control PLYWriter
element vertex 10
property float x
property float y
property float z
property uchar red
property uchar green
property uchar blue
end_header
0.640737 -0.0138571 -0.0366369 0 255 0
0.640716 -0.0188731 -0.0371022 28 226 0
0.640741 -0.0239038 -0.0367915 56 198 0
0.640913 -0.0289158 -0.0362964 85 169 0
0.64117 -0.033907 -0.0356377 113 141 0
0.641349 -0.0388952 -0.0349332 141 113 0
0.641544 -0.0439011 -0.0343942 170 84 0
0.641831 -0.0489263 -0.0341878 198 56 0
0.642215 -0.0539288 -0.0338315 226 28 0
0.642484 -0.0589191 -0.0342816 255 0 0
