ply
format ascii 1.0
comment Generated by robot_control PLYWriter
element vertex 13
property float x
property float y
property float z
property uchar red
property uchar green
property uchar blue
end_header
0.504257 0.0894889 -0.137478 0 255 0
0.503824 0.094393 -0.137817 21 233 0
0.503482 0.0993128 -0.137968 42 212 0
0.503007 0.104222 -0.138138 63 191 0
0.502553 0.109136 -0.138228 85 169 0
0.502132 0.114052 -0.138341 106 148 0
0.501872 0.118975 -0.138575 127 127 0
0.501559 0.123873 -0.139076 148 106 0
0.501026 0.128708 -0.139914 170 84 0
0.500432 0.133433 -0.141211 191 63 0
0.500081 0.138043 -0.14293 212 42 0
0.499691 0.142626 -0.144715 233 21 0
0.49913 0.147044 -0.146841 255 0 0
