ply
format ascii 1.0
comment Generated by robot_control PLYWriter
element vertex 10
property float x
property float y
property float z
property uchar red
property uchar green
property uchar blue
end_header
0.571705 -0.207694 -0.134535 0 255 0
0.571934 -0.211972 -0.132291 28 226 0
0.572173 -0.216354 -0.130255 56 198 0
0.572355 -0.220782 -0.128312 85 169 0
0.572446 -0.22527 -0.126502 113 141 0
0.572558 -0.229858 -0.124991 141 113 0
0.572631 -0.234602 -0.124041 170 84 0
0.5728 -0.239402 -0.123444 198 56 0
0.5728 -0.244236 -0.123202 226 28 0
0.572845 -0.249074 -0.123284 255 0 0
