ply
format ascii 1.0
comment Generated by robot_control PLYWriter
element vertex 8
property float x
property float y
property float z
property uchar red
property uchar green
property uchar blue
end_header
0.646771 -0.238887 -0.0414384 0 255 0
0.646761 -0.234133 -0.0413288 36 218 0
0.646744 -0.229383 -0.0410923 72 182 0
0.646701 -0.224639 -0.0407562 109 145 0
0.646476 -0.219908 -0.0403495 145 109 0
0.646083 -0.215185 -0.039937 182 72 0
0.645668 -0.210463 -0.0395475 218 36 0
0.645116 -0.205752 -0.0392356 255 0 0
