ply
format ascii 1.0
comment Generated by robot_control PLYWriter
element vertex 14
property float x
property float y
property float z
property uchar red
property uchar green
property uchar blue
end_header
0.510085 -0.331941 -0.102911 0 255 0
0.514361 -0.335885 -0.102054 19 235 0
0.517755 -0.340587 -0.101023 39 215 0
0.518784 -0.346305 -0.100165 58 196 0
0.515568 -0.351242 -0.0994421 78 176 0
0.511757 -0.355658 -0.0991161 98 156 0
0.505982 -0.356766 -0.0992254 117 137 0
0.500103 -0.356078 -0.0995898 137 117 0
0.495147 -0.353102 -0.100175 156 98 0
0.493254 -0.347843 -0.101175 176 78 0
0.492941 -0.341948 -0.102035 196 58 0
0.495933 -0.337362 -0.103184 215 39 0
0.499076 -0.333201 -0.104054 235 19 0
0.504618 -0.332141 -0.104627 255 0 0
