ply
format ascii 1.0
comment Generated by robot_control PLYWriter
element vertex 32
property float x
property float y
property float z
property uchar red
property uchar green
property uchar blue
end_header
0.629866 0.136441 -0.143273 0 255 0
0.635131 0.135235 -0.141659 8 246 0
0.637689 0.130824 -0.140305 16 238 0
0.638666 0.125505 -0.138817 24 230 0
0.636872 0.120347 -0.137878 32 222 0
0.63239 0.116371 -0.137807 41 213 0
0.626896 0.115391 -0.138468 49 205 0
0.621033 0.115585 -0.139704 57 197 0
0.615445 0.116833 -0.141211 65 189 0
0.611362 0.120635 -0.142792 74 180 0
0.608945 0.125768 -0.144584 82 172 0
0.608799 0.131444 -0.146339 90 164 0
0.61077 0.136954 -0.147652 98 156 0
0.613499 0.142039 -0.148556 106 148 0
0.61819 0.145715 -0.149013 115 139 0
0.623772 0.14779 -0.14899 123 131 0
0.629638 0.147829 -0.14846 131 123 0
0.63439 0.144609 -0.147489 139 115 0
0.63685 0.140533 -0.145684 148 106 0
0.637102 0.134772 -0.144342 156 98 0
0.633216 0.130728 -0.143232 164 90 0
0.628581 0.126952 -0.142958 172 82 0
0.623188 0.125245 -0.143326 180 74 0
0.617526 0.12624 -0.144539 189 65 0
0.612957 0.12951 -0.146482 197 57 0
0.609275 0.133742 -0.148585 205 49 0
0.607295 0.138206 -0.151734 213 41 0
0.607224 0.143788 -0.153814 222 32 0
0.608445 0.14877 -0.156485 230 24 0
0.611897 0.153003 -0.158656 238 16 0
0.615973 0.156507 -0.160022 246 8 0
0.621343 0.157094 -0.159868 255 0 0
