ply
format ascii 1.0
comment Generated by robot_control PLYWriter
element vertex 58
property float x
property float y
property float z
property uchar red
property uchar green
property uchar blue
end_header
0.708073 0.177348 -0.133335 0 255 0
0.712957 0.175739 -0.133048 4 250 0
0.7174 0.171872 -0.132381 8 246 0
0.718412 0.166501 -0.131434 13 241 0
0.719149 0.160964 -0.130256 17 237 0
0.718715 0.155527 -0.128927 22 232 0
0.715178 0.150914 -0.127621 26 228 0
0.710846 0.147138 -0.126204 31 223 0
0.705575 0.144826 -0.125211 35 219 0
0.699747 0.14371 -0.124647 40 214 0
0.694241 0.145276 -0.1244 44 210 0
0.688381 0.146386 -0.124489 49 205 0
0.684243 0.150584 -0.124912 53 201 0
0.681295 0.155705 -0.125656 58 196 0
0.679496 0.161294 -0.126497 62 192 0
0.680295 0.166936 -0.127399 67 187 0
0.682346 0.172449 -0.12838 71 183 0
0.686546 0.17629 -0.129484 76 178 0
0.691385 0.179278 -0.130121 80 174 0
0.697261 0.178314 -0.130422 85 169 0
0.702824 0.176499 -0.130297 89 165 0
0.706827 0.172186 -0.129854 93 161 0
0.710164 0.167301 -0.129159 98 156 0
0.71091 0.161695 -0.128268 102 152 0
0.709693 0.155991 -0.127314 107 147 0
0.706764 0.15103 -0.126272 111 143 0
0.702371 0.147169 -0.125313 116 138 0
0.697187 0.144432 -0.124527 120 134 0
0.691407 0.143982 -0.12404 125 129 0
0.685537 0.14492 -0.123804 129 125 0
0.679917 0.146704 -0.12377 134 120 0
0.675254 0.150396 -0.124059 138 116 0
0.671789 0.155043 -0.12458 143 111 0
0.670535 0.160704 -0.125316 147 107 0
0.671521 0.166483 -0.126178 152 102 0
0.674085 0.171561 -0.12703 156 98 0
0.678852 0.17493 -0.127998 161 93 0
0.684005 0.177781 -0.128907 165 89 0
0.689525 0.176243 -0.129148 170 84 0
0.695127 0.17494 -0.129078 174 80 0
0.699093 0.170596 -0.128698 178 76 0
0.70134 0.165117 -0.128028 183 71 0
0.701788 0.159541 -0.127055 187 67 0
0.700222 0.153938 -0.125983 192 62 0
0.697508 0.149399 -0.124478 196 58 0
0.693406 0.145269 -0.123209 201 53 0
0.687657 0.144107 -0.122272 205 49 0
0.682324 0.142001 -0.121593 210 44 0
0.676826 0.144027 -0.121207 214 40 0
0.671251 0.145425 -0.12114 219 35 0
0.666549 0.149029 -0.12146 223 31 0
0.663322 0.153919 -0.122416 228 26 0
0.662223 0.159605 -0.12328 232 22 0
0.6624 0.164427 -0.124767 237 17 0
0.664041 0.169597 -0.126196 241 13 0
0.666806 0.173524 -0.127909 246 8 0
0.671783 0.176045 -0.128754 250 4 0
0.676777 0.177041 -0.129645 255 0 0
