ply
format ascii 1.0
comment Generated by robot_control PLYWriter
element vertex 40
property float x
property float y
property float z
property uchar red
property uchar green
property uchar blue
end_header
0.507588 0.173029 -0.146425 0 255 0
0.512022 0.17173 -0.144979 6 248 0
0.514354 0.169058 -0.143469 13 241 0
0.516426 0.165156 -0.141796 19 235 0
0.51436 0.160164 -0.14052 26 228 0
0.509293 0.157425 -0.140248 32 222 0
0.504467 0.156947 -0.141031 39 215 0
0.500011 0.159703 -0.142875 45 209 0
0.496483 0.164126 -0.144904 52 202 0
0.496328 0.169298 -0.146543 58 196 0
0.498272 0.174823 -0.147943 65 189 0
0.50215 0.178949 -0.149055 71 183 0
0.507359 0.181926 -0.149427 78 176 0
0.512829 0.183687 -0.149176 85 169 0
0.518646 0.182751 -0.148275 91 163 0
0.521599 0.177704 -0.146933 98 156 0
0.523542 0.17275 -0.145567 104 150 0
0.520534 0.167667 -0.144542 111 143 0
0.516057 0.163778 -0.144413 117 137 0
0.510994 0.166672 -0.145232 124 130 0
0.505818 0.169166 -0.146502 130 124 0
0.504359 0.174299 -0.148387 137 117 0
0.503192 0.179639 -0.150365 143 111 0
0.506095 0.184766 -0.151582 150 104 0
0.511077 0.187749 -0.152903 156 98 0
0.516205 0.190629 -0.153646 163 91 0
0.522226 0.190721 -0.153613 170 84 0
0.527135 0.188325 -0.15252 176 78 0
0.530298 0.184118 -0.150882 183 71 0
0.53115 0.179143 -0.149199 189 65 0
0.527537 0.17475 -0.147475 196 58 0
0.52187 0.173976 -0.146567 202 52 0
0.516329 0.174888 -0.147257 209 45 0
0.512763 0.179232 -0.14893 215 39 0
0.510313 0.182447 -0.151441 222 32 0
0.511199 0.187683 -0.153974 228 26 0
0.512688 0.192294 -0.156266 235 19 0
0.51681 0.195338 -0.158416 241 13 0
0.520866 0.197566 -0.160265 248 6 0
0.524378 0.1998 -0.161084 255 0 0
