ply
format ascii 1.0
comment Generated by robot_control PLYWriter
element vertex 11
property float x
property float y
property float z
property uchar red
property uchar green
property uchar blue
end_header
0.690185 0.0499789 -0.12695 0 255 0
0.690454 0.0451645 -0.125114 25 229 0
0.690558 0.0403995 -0.123139 51 204 0
0.690665 0.0356481 -0.121131 76 178 0
0.690686 0.0309205 -0.119064 102 153 0
0.690829 0.0262014 -0.116983 127 127 0
0.691115 0.0215116 -0.11485 153 101 0
0.691341 0.0168649 -0.112618 178 76 0
0.691341 0.0122067 -0.110402 204 50 0
0.691483 0.00755152 -0.108185 229 25 0
0.691856 0.00289849 -0.105987 255 0 0
