ply
format ascii 1.0
comment Generated by robot_control PLYWriter
element vertex 10
property float x
property float y
property float z
property uchar red
property uchar green
property uchar blue
end_header
0.558725 -0.133185 -0.040603 0 255 0
0.558728 -0.127947 -0.0405481 28 226 0
0.558728 -0.122709 -0.040518 56 198 0
0.558762 -0.117472 -0.0403737 85 169 0
0.558786 -0.112238 -0.0401604 113 141 0
0.558793 -0.107001 -0.0400094 141 113 0
0.558789 -0.101763 -0.039914 170 84 0
0.558776 -0.0965256 -0.039809 198 56 0
0.558756 -0.091292 -0.0395781 226 28 0
0.558737 -0.0860572 -0.0393849 255 0 0
