ply
format ascii 1.0
comment Generated by robot_control PLYWriter
element vertex 200
property float x
property float y
property float z
property uchar red
property uchar green
property uchar blue
end_header
0.568293 -0.116082 -0.135746 0 255 0
0.568293 -0.116082 -0.135746 1 253 0
0.568293 -0.116082 -0.135746 2 252 0
0.568293 -0.116082 -0.135746 3 251 0
0.568293 -0.116082 -0.135746 5 249 0
0.568293 -0.116082 -0.135746 6 248 0
0.568293 -0.116082 -0.135746 7 247 0
0.568293 -0.116082 -0.135746 8 246 0
0.568293 -0.116082 -0.135746 10 244 0
0.568293 -0.116082 -0.135746 11 243 0
0.568293 -0.116082 -0.135746 12 242 0
0.568293 -0.116082 -0.135746 14 240 0
0.568293 -0.116082 -0.135746 15 239 0
0.568293 -0.116082 -0.135746 16 238 0
0.568293 -0.116082 -0.135746 17 237 0
0.568293 -0.116082 -0.135746 19 235 0
0.568293 -0.116082 -0.135746 20 234 0
0.568293 -0.116082 -0.135746 21 233 0
0.568293 -0.116082 -0.135746 23 231 0
0.568293 -0.116082 -0.135746 24 230 0
0.568293 -0.116082 -0.135746 25 229 0
0.568293 -0.116082 -0.135746 26 228 0
0.568293 -0.116082 -0.135746 28 226 0
0.568293 -0.116082 -0.135746 29 225 0
0.568293 -0.116082 -0.135746 30 224 0
0.568293 -0.116082 -0.135746 32 222 0
0.568293 -0.116082 -0.135746 33 221 0
0.568293 -0.116082 -0.135746 34 220 0
0.568293 -0.116082 -0.135746 35 219 0
0.568293 -0.116082 -0.135746 37 217 0
0.568293 -0.116082 -0.135746 38 216 0
0.568293 -0.116082 -0.135746 39 215 0
0.568293 -0.116082 -0.135746 41 213 0
0.568293 -0.116082 -0.135746 42 212 0
0.568293 -0.116082 -0.135746 43 211 0
0.568293 -0.116082 -0.135746 44 210 0
0.568293 -0.116082 -0.135746 46 208 0
0.568293 -0.116082 -0.135746 47 207 0
0.568293 -0.116082 -0.135746 48 206 0
0.568293 -0.116082 -0.135746 49 205 0
0.568293 -0.116082 -0.135746 51 203 0
0.568293 -0.116082 -0.135746 52 202 0
0.568293 -0.116082 -0.135746 53 201 0
0.568293 -0.116082 -0.135746 55 199 0
0.568293 -0.116082 -0.135746 56 198 0
0.568293 -0.116082 -0.135746 57 197 0
0.568293 -0.116082 -0.135746 58 196 0
0.568293 -0.116082 -0.135746 60 194 0
0.568293 -0.116082 -0.135746 61 193 0
0.568293 -0.116082 -0.135746 62 192 0
0.568293 -0.116082 -0.135746 64 190 0
0.568293 -0.116082 -0.135746 65 189 0
0.568293 -0.116082 -0.135746 66 188 0
0.568293 -0.116082 -0.135746 67 187 0
0.568293 -0.116082 -0.135746 69 185 0
0.568293 -0.116082 -0.135746 70 184 0
0.568293 -0.116082 -0.135746 71 183 0
0.568293 -0.116082 -0.135746 73 181 0
0.568293 -0.116082 -0.135746 74 180 0
0.568293 -0.116082 -0.135746 75 179 0
0.568293 -0.116082 -0.135746 76 178 0
0.568293 -0.116082 -0.135746 78 176 0
0.568293 -0.116082 -0.135746 79 175 0
0.568293 -0.116082 -0.135746 80 174 0
0.568293 -0.116082 -0.135746 82 172 0
0.568293 -0.116082 -0.135746 83 171 0
0.568293 -0.116082 -0.135746 84 170 0
0.568293 -0.116082 -0.135746 85 169 0
0.568293 -0.116082 -0.135746 87 167 0
0.568293 -0.116082 -0.135746 88 166 0
0.568293 -0.116082 -0.135746 89 165 0
0.568293 -0.116082 -0.135746 90 164 0
0.568293 -0.116082 -0.135746 92 162 0
0.568293 -0.116082 -0.135746 93 161 0
0.568293 -0.116082 -0.135746 94 160 0
0.568293 -0.116082 -0.135746 96 158 0
0.568293 -0.116082 -0.135746 97 157 0
0.568293 -0.116082 -0.135746 98 156 0
0.568293 -0.116082 -0.135746 99 155 0
0.568293 -0.116082 -0.135746 101 153 0
0.568293 -0.116082 -0.135746 102 152 0
0.568293 -0.116082 -0.135746 103 151 0
0.568293 -0.116082 -0.135746 105 149 0
0.568293 -0.116082 -0.135746 106 148 0
0.568293 -0.116082 -0.135746 107 147 0
0.568293 -0.116082 -0.135746 108 146 0
0.568293 -0.116082 -0.135746 110 144 0
0.568293 -0.116082 -0.135746 111 143 0
0.568293 -0.116082 -0.135746 112 142 0
0.568293 -0.116082 -0.135746 114 140 0
0.568293 -0.116082 -0.135746 115 139 0
0.568293 -0.116082 -0.135746 116 138 0
0.568293 -0.116082 -0.135746 117 137 0
0.568293 -0.116082 -0.135746 119 135 0
0.568293 -0.116082 -0.135746 120 134 0
0.568293 -0.116082 -0.135746 121 133 0
0.568293 -0.116082 -0.135746 123 131 0
0.568293 -0.116082 -0.135746 124 130 0
0.568293 -0.116082 -0.135746 125 129 0
0.568293 -0.116082 -0.135746 126 128 0
0.568293 -0.116082 -0.135746 128 126 0
0.568293 -0.116082 -0.135746 129 125 0
0.568293 -0.116082 -0.135746 130 124 0
0.568293 -0.116082 -0.135746 131 123 0
0.568293 -0.116082 -0.135746 133 121 0
0.568293 -0.116082 -0.135746 134 120 0
0.568293 -0.116082 -0.135746 135 119 0
0.568293 -0.116082 -0.135746 137 117 0
0.568293 -0.116082 -0.135746 138 116 0
0.568293 -0.116082 -0.135746 139 115 0
0.568293 -0.116082 -0.135746 140 114 0
0.568293 -0.116082 -0.135746 142 112 0
0.568293 -0.116082 -0.135746 143 111 0
0.568293 -0.116082 -0.135746 144 110 0
0.568293 -0.116082 -0.135746 146 108 0
0.568293 -0.116082 -0.135746 147 107 0
0.568293 -0.116082 -0.135746 148 106 0
0.568293 -0.116082 -0.135746 149 105 0
0.568293 -0.116082 -0.135746 151 103 0
0.568293 -0.116082 -0.135746 152 102 0
0.568293 -0.116082 -0.135746 153 101 0
0.568293 -0.116082 -0.135746 155 99 0
0.568293 -0.116082 -0.135746 156 98 0
0.568293 -0.116082 -0.135746 157 97 0
0.568293 -0.116082 -0.135746 158 96 0
0.568293 -0.116082 -0.135746 160 94 0
0.568293 -0.116082 -0.135746 161 93 0
0.568293 -0.116082 -0.135746 162 92 0
0.568293 -0.116082 -0.135746 164 90 0
0.568293 -0.116082 -0.135746 165 89 0
0.568293 -0.116082 -0.135746 166 88 0
0.568293 -0.116082 -0.135746 167 87 0
0.568293 -0.116082 -0.135746 169 85 0
0.568293 -0.116082 -0.135746 170 84 0
0.568293 -0.116082 -0.135746 171 83 0
0.568293 -0.116082 -0.135746 172 82 0
0.568293 -0.116082 -0.135746 174 80 0
0.568293 -0.116082 -0.135746 175 79 0
0.568293 -0.116082 -0.135746 176 78 0
0.568293 -0.116082 -0.135746 178 76 0
0.568293 -0.116082 -0.135746 179 75 0
0.568293 -0.116082 -0.135746 180 74 0
0.568293 -0.116082 -0.135746 181 73 0
0.568293 -0.116082 -0.135746 183 71 0
0.568293 -0.116082 -0.135746 184 70 0
0.568293 -0.116082 -0.135746 185 69 0
0.568293 -0.116082 -0.135746 187 67 0
0.568293 -0.116082 -0.135746 188 66 0
0.568293 -0.116082 -0.135746 189 65 0
0.568293 -0.116082 -0.135746 190 64 0
0.568293 -0.116082 -0.135746 192 62 0
0.568293 -0.116082 -0.135746 193 61 0
0.568293 -0.116082 -0.135746 194 60 0
0.568293 -0.116082 -0.135746 196 58 0
0.568293 -0.116082 -0.135746 197 57 0
0.568293 -0.116082 -0.135746 198 56 0
0.568293 -0.116082 -0.135746 199 55 0
0.568293 -0.116082 -0.135746 201 53 0
0.568293 -0.116082 -0.135746 202 52 0
0.568293 -0.116082 -0.135746 203 51 0
0.568293 -0.116082 -0.135746 205 49 0
0.568293 -0.116082 -0.135746 206 48 0
0.568293 -0.116082 -0.135746 207 47 0
0.568293 -0.116082 -0.135746 208 46 0
0.568293 -0.116082 -0.135746 210 44 0
0.568293 -0.116082 -0.135746 211 43 0
0.568293 -0.116082 -0.135746 212 42 0
0.568293 -0.116082 -0.135746 213 41 0
0.568293 -0.116082 -0.135746 215 39 0
0.568293 -0.116082 -0.135746 216 38 0
0.568293 -0.116082 -0.135746 217 37 0
0.568293 -0.116082 -0.135746 219 35 0
0.568293 -0.116082 -0.135746 220 34 0
0.568293 -0.116082 -0.135746 221 33 0
0.568293 -0.116082 -0.135746 222 32 0
0.568293 -0.116082 -0.135746 224 30 0
0.568293 -0.116082 -0.135746 225 29 0
0.568293 -0.116082 -0.135746 226 28 0
0.568293 -0.116082 -0.135746 228 26 0
0.568293 -0.116082 -0.135746 229 25 0
0.568293 -0.116082 -0.135746 230 24 0
0.568293 -0.116082 -0.135746 231 23 0
0.568293 -0.116082 -0.135746 233 21 0
0.568293 -0.116082 -0.135746 234 20 0
0.568293 -0.116082 -0.135746 235 19 0
0.568293 -0.116082 -0.135746 237 17 0
0.568293 -0.116082 -0.135746 238 16 0
0.568293 -0.116082 -0.135746 239 15 0
0.568293 -0.116082 -0.135746 240 14 0
0.568293 -0.116082 -0.135746 242 12 0
0.568293 -0.116082 -0.135746 243 11 0
0.568293 -0.116082 -0.135746 244 10 0
0.568293 -0.116082 -0.135746 246 8 0
0.568293 -0.116082 -0.135746 247 7 0
0.568293 -0.116082 -0.135746 248 6 0
0.568293 -0.116082 -0.135746 249 5 0
0.568293 -0.116082 -0.135746 251 3 0
0.568293 -0.116082 -0.135746 252 2 0
0.568293 -0.116082 -0.135746 253 1 0
0.568293 -0.116082 -0.135746 255 0 0
