ply
format ascii 1.0
comment Generated by robot_control PLYWriter
element vertex 33
property float x
property float y
property float z
property uchar red
property uchar green
property uchar blue
end_header
0.54309 0.053142 -0.0848823 0 255 0
0.547952 0.051418 -0.0831273 7 247 0
0.550816 0.0469005 -0.0822099 15 239 0
0.555014 0.0427379 -0.0821505 23 231 0
0.556739 0.0371413 -0.082478 31 223 0
0.555606 0.0314777 -0.0832135 39 215 0
0.552562 0.0263569 -0.0838495 47 207 0
0.547633 0.0233678 -0.0846035 55 199 0
0.542278 0.0213471 -0.0854755 63 191 0
0.537369 0.0246449 -0.0861435 71 183 0
0.533173 0.0289324 -0.0862989 79 175 0
0.532565 0.0347491 -0.0858904 87 167 0
0.53334 0.0405198 -0.0852915 95 159 0
0.536248 0.0456464 -0.0845945 103 151 0
0.541075 0.0490232 -0.0840455 111 143 0
0.546727 0.0509714 -0.0837797 119 135 0
0.552557 0.0503887 -0.0837064 127 127 0
0.558214 0.0483744 -0.0836951 135 119 0
0.561941 0.0439032 -0.0837895 143 111 0
0.564774 0.0386204 -0.0840666 151 103 0
0.566703 0.033144 -0.0846269 159 95 0
0.565828 0.0273517 -0.0853124 167 87 0
0.563184 0.0220243 -0.0860604 175 79 0
0.558115 0.0193217 -0.0867282 183 71 0
0.552485 0.018796 -0.0870207 191 63 0
0.547239 0.0208066 -0.0866445 199 55 0
0.543398 0.0253496 -0.0859348 207 47 0
0.54327 0.0308951 -0.0845739 215 39 0
0.543566 0.0361266 -0.0832426 223 31 0
0.546443 0.0410914 -0.0822679 231 23 0
0.551126 0.0441357 -0.0812583 239 15 0
0.556705 0.045662 -0.0801729 247 7 0
0.562246 0.0456869 -0.0790837 255 0 0
