ply
format ascii 1.0
comment Generated by robot_control PLYWriter
element vertex 26
property float x
property float y
property float z
property uchar red
property uchar green
property uchar blue
end_header
0.674437 0.185783 -0.0999051 0 255 0
0.679134 0.184314 -0.101048 10 244 0
0.682091 0.180221 -0.101717 20 234 0
0.682101 0.174309 -0.102051 30 224 0
0.678926 0.169524 -0.102289 40 214 0
0.673634 0.167714 -0.102567 51 204 0
0.66778 0.168064 -0.102667 61 193 0
0.663262 0.171401 -0.102169 71 183 0
0.658243 0.174216 -0.101064 81 173 0
0.656813 0.179291 -0.0990302 91 163 0
0.656882 0.184871 -0.0972873 102 153 0
0.660322 0.189432 -0.0961564 112 142 0
0.665552 0.191554 -0.0956455 122 132 0
0.670664 0.189826 -0.0955558 132 122 0
0.674423 0.185642 -0.0970805 142 112 0
0.67321 0.18046 -0.099088 153 101 0
0.668583 0.177521 -0.101149 163 91 0
0.663875 0.174339 -0.102549 173 81 0
0.658368 0.17524 -0.102709 183 71 0
0.653527 0.178272 -0.101335 193 61 0
0.649792 0.181682 -0.0984183 204 50 0
0.648374 0.186473 -0.0954623 214 40 0
0.649018 0.190332 -0.0910518 224 30 0
0.650246 0.193687 -0.0866969 234 20 0
0.652421 0.196 -0.0823313 244 10 0
0.655974 0.197008 -0.079596 255 0 0
