ply
format ascii 1.0
comment Generated by robot_control PLYWriter
element vertex 9
property float x
property float y
property float z
property uchar red
property uchar green
property uchar blue
end_header
0.534263 -0.0797204 -0.123213 0 255 0
0.53366 -0.0746691 -0.122604 31 223 0
0.533385 -0.0695826 -0.122013 63 191 0
0.533097 -0.0644826 -0.121562 95 159 0
0.532785 -0.0593776 -0.121191 127 127 0
0.532479 -0.0542683 -0.120878 159 95 0
0.53217 -0.0491533 -0.120687 191 63 0
0.531829 -0.0440371 -0.120618 223 31 0
0.531181 -0.0389542 -0.120497 255 0 0
