ply
format ascii 1.0
comment Generated by robot_control PLYWriter
element vertex 29
property float x
property float y
property float z
property uchar red
property uchar green
property uchar blue
end_header
0.509565 0.157335 -0.13736 0 255 0
0.51477 0.156708 -0.135448 9 245 0
0.518601 0.152468 -0.133769 18 236 0
0.520293 0.147559 -0.13146 27 227 0
0.519597 0.141972 -0.129972 36 218 0
0.518652 0.136471 -0.129328 45 209 0
0.513232 0.133858 -0.129295 54 200 0
0.50738 0.133939 -0.130004 63 191 0
0.502846 0.137402 -0.131266 72 182 0
0.500232 0.142217 -0.1329 81 173 0
0.500447 0.14808 -0.134129 91 163 0
0.502922 0.153078 -0.134834 100 154 0
0.507379 0.157094 -0.135289 109 145 0
0.51288 0.159395 -0.135229 118 136 0
0.51878 0.158667 -0.134811 127 127 0
0.524183 0.156233 -0.134047 136 118 0
0.529017 0.15352 -0.132564 145 109 0
0.532433 0.148794 -0.131173 154 100 0
0.531807 0.14319 -0.129739 163 91 0
0.529583 0.137723 -0.128619 173 81 0
0.525389 0.134011 -0.127912 182 72 0
0.519608 0.134532 -0.127943 191 63 0
0.514407 0.136678 -0.128782 200 54 0
0.510776 0.141159 -0.130462 209 45 0
0.510805 0.146635 -0.132029 218 36 0
0.513362 0.151348 -0.133812 227 27 0
0.516112 0.156148 -0.135075 236 18 0
0.520859 0.159122 -0.135708 245 9 0
0.526553 0.158607 -0.135862 255 0 0
