ply
format ascii 1.0
comment Generated by robot_control PLYWriter
element vertex 66
property float x
property float y
property float z
property uchar red
property uchar green
property uchar blue
end_header
0.565202 -0.106456 -0.0821022 0 255 0
0.570828 -0.106635 -0.0824913 3 251 0
0.574464 -0.110212 -0.0824793 7 247 0
0.579095 -0.112916 -0.0824829 11 243 0
0.580713 -0.118215 -0.0825805 15 239 0
0.582177 -0.123768 -0.0826719 19 235 0
0.580442 -0.129238 -0.082724 23 231 0
0.577457 -0.134286 -0.0826908 27 227 0
0.572762 -0.136722 -0.0825399 31 223 0
0.567193 -0.13808 -0.0822792 35 219 0
0.56172 -0.136562 -0.0819226 39 215 0
0.55783 -0.1327 -0.0816017 43 211 0
0.556795 -0.127011 -0.0814562 47 207 0
0.556785 -0.121039 -0.0815214 51 204 0
0.560521 -0.116613 -0.0816485 54 200 0
0.565419 -0.113325 -0.0818086 58 196 0
0.57055 -0.110286 -0.0820398 62 192 0
0.576282 -0.111175 -0.082442 66 188 0
0.581675 -0.113712 -0.0827859 70 184 0
0.586209 -0.117263 -0.0831944 74 180 0
0.588345 -0.122779 -0.0835746 78 176 0
0.590659 -0.128104 -0.0838219 82 172 0
0.589735 -0.133823 -0.0839139 86 168 0
0.586462 -0.138794 -0.0838932 90 164 0
0.582172 -0.142836 -0.0837324 94 160 0
0.576461 -0.144328 -0.0835099 98 156 0
0.571041 -0.141862 -0.0831332 102 153 0
0.566716 -0.138046 -0.0826784 105 149 0
0.564459 -0.132829 -0.0823664 109 145 0
0.565349 -0.127067 -0.0822003 113 141 0
0.568737 -0.122241 -0.0821528 117 137 0
0.573445 -0.118643 -0.0823267 121 133 0
0.578988 -0.116517 -0.0827133 125 129 0
0.584924 -0.11661 -0.0831881 129 125 0
0.590706 -0.118029 -0.0836386 133 121 0
0.594452 -0.122646 -0.0842142 137 117 0
0.597464 -0.127751 -0.0848298 141 113 0
0.59917 -0.133364 -0.0853151 145 109 0
0.597766 -0.138965 -0.0857457 149 105 0
0.595349 -0.144408 -0.0859106 153 101 0
0.590811 -0.147518 -0.085878 156 98 0
0.584935 -0.148479 -0.0855289 160 94 0
0.579017 -0.14833 -0.0850174 164 90 0
0.574527 -0.144407 -0.0846652 168 86 0
0.573718 -0.138676 -0.0840831 172 82 0
0.574266 -0.133118 -0.0837166 176 78 0
0.577463 -0.128096 -0.0835812 180 74 0
0.581552 -0.123876 -0.0836644 184 70 0
0.587267 -0.122661 -0.0841458 188 66 0
0.593217 -0.122659 -0.0846603 192 62 0
0.598637 -0.124735 -0.0855193 196 58 0
0.603456 -0.127992 -0.0862826 200 54 0
0.606549 -0.132926 -0.0872188 204 50 0
0.606891 -0.138806 -0.0879695 207 47 0
0.607011 -0.144749 -0.0885417 211 43 0
0.604115 -0.149599 -0.0889005 215 39 0
0.600404 -0.154064 -0.0888891 219 35 0
0.594483 -0.154711 -0.0886171 223 31 0
0.588583 -0.154635 -0.0877306 227 27 0
0.584773 -0.150347 -0.0866448 231 23 0
0.582144 -0.145508 -0.0857456 235 19 0
0.582135 -0.139622 -0.0848469 239 15 0
0.58584 -0.135181 -0.084392 243 11 0
0.589224 -0.131522 -0.0843434 247 7 0
0.593769 -0.128901 -0.0848038 251 3 0
0.599238 -0.128916 -0.0855764 255 0 0
