ply
format ascii 1.0
comment Generated by robot_control PLYWriter
element vertex 34
property float x
property float y
property float z
property uchar red
property uchar green
property uchar blue
end_header
0.729486 0.12665 -0.141303 0 255 0
0.733804 0.123317 -0.139018 7 247 0
0.73672 0.119528 -0.13587 15 239 0
0.738496 0.115275 -0.132317 23 231 0
0.739031 0.110288 -0.129198 30 224 0
0.73824 0.105142 -0.126198 38 216 0
0.736147 0.100396 -0.123174 46 208 0
0.732898 0.0964297 -0.120512 54 200 0
0.72763 0.0955179 -0.118476 61 193 0
0.721849 0.0961793 -0.118168 69 185 0
0.716318 0.097756 -0.119316 77 177 0
0.713779 0.102833 -0.121126 85 169 0
0.712168 0.107725 -0.123782 92 162 0
0.713734 0.113467 -0.12476 100 154 0
0.716472 0.116683 -0.126221 108 146 0
0.721579 0.117645 -0.128451 115 139 0
0.727406 0.118243 -0.129825 123 131 0
0.733146 0.118284 -0.130805 131 123 0
0.738154 0.115018 -0.131099 139 115 0
0.741713 0.110625 -0.130339 146 108 0
0.743788 0.105048 -0.129461 154 100 0
0.745848 0.0995688 -0.128111 162 92 0
0.74512 0.094173 -0.126172 170 84 0
0.74132 0.0899782 -0.124265 177 77 0
0.736883 0.086652 -0.122008 185 69 0
0.731513 0.0855181 -0.120174 193 61 0
0.726042 0.0870721 -0.118529 200 54 0
0.722075 0.0913227 -0.117245 208 46 0
0.720059 0.096984 -0.116756 216 38 0
0.720643 0.101807 -0.117545 224 30 0
0.722341 0.106533 -0.119933 231 23 0
0.727453 0.105401 -0.122604 239 15 0
0.730441 0.10923 -0.12491 247 7 0
0.734506 0.108968 -0.127861 255 0 0
