ply
format ascii 1.0
comment Generated by robot_control PLYWriter
element vertex 11
property float x
property float y
property float z
property uchar red
property uchar green
property uchar blue
end_header
0.586814 0.0531746 -0.0202441 0 255 0
0.586822 0.0565569 -0.0168697 25 229 0
0.586834 0.0601445 -0.0137329 51 204 0
0.586835 0.0640111 -0.0109385 76 178 0
0.58684 0.068246 -0.00872658 102 153 0
0.586854 0.0728887 -0.00768325 127 127 0
0.58686 0.0775465 -0.00835081 153 101 0
0.586859 0.0819654 -0.0100963 178 76 0
0.586852 0.0862209 -0.0122663 204 50 0
0.586837 0.0903607 -0.0146387 229 25 0
0.586837 0.0943502 -0.0172647 255 0 0
