ply
format ascii 1.0
comment Generated by robot_control PLYWriter
element vertex 114
property float x
property float y
property float z
property uchar red
property uchar green
property uchar blue
end_header
0.69455 0.0135631 -0.142763 0 255 0
0.698546 0.0123108 -0.141825 2 252 0
0.701097 0.00894195 -0.140404 4 250 0
0.704235 0.00471594 -0.138868 6 248 0
0.70266 0.000127096 -0.137785 9 245 0
0.70034 -0.0038514 -0.136754 11 243 0
0.696282 -0.0074291 -0.136287 13 241 0
0.691064 -0.00890174 -0.136159 15 239 0
0.685096 -0.00890214 -0.136467 18 236 0
0.680181 -0.00639176 -0.137165 20 234 0
0.676293 -0.00252397 -0.138506 22 232 0
0.673724 0.00260754 -0.140007 24 230 0
0.672519 0.00804773 -0.14158 27 227 0
0.674455 0.0134689 -0.142844 29 225 0
0.676834 0.0183315 -0.14434 31 223 0
0.681353 0.0221435 -0.145136 33 221 0
0.686536 0.02416 -0.145851 36 218 0
0.692094 0.0237639 -0.145802 38 216 0
0.697555 0.0221073 -0.144908 40 214 0
0.700879 0.0176035 -0.143699 42 212 0
0.702853 0.0129095 -0.142229 45 209 0
0.700973 0.00739132 -0.141238 47 207 0
0.698033 0.00299977 -0.140039 49 205 0
0.692486 0.000833213 -0.13957 51 203 0
0.686614 0.000190706 -0.139549 54 200 0
0.681182 0.00188148 -0.140395 56 198 0
0.676494 0.00531527 -0.14163 58 196 0
0.673802 0.0103994 -0.142904 60 194 0
0.67292 0.0161131 -0.144179 63 191 0
0.673176 0.0219019 -0.145609 65 189 0
0.675264 0.0272196 -0.1469 67 187 0
0.679707 0.0308606 -0.147913 69 185 0
0.68485 0.0335614 -0.14847 72 182 0
0.690181 0.035458 -0.148549 74 180 0
0.694506 0.0315916 -0.148183 76 178 0
0.699441 0.028648 -0.147125 78 176 0
0.701713 0.0234236 -0.146236 81 173 0
0.700054 0.0180586 -0.145187 83 171 0
0.696975 0.0130937 -0.14417 85 169 0
0.691653 0.0106296 -0.143711 88 166 0
0.686233 0.0086685 -0.143672 90 164 0
0.681151 0.0117689 -0.144184 92 162 0
0.67617 0.014944 -0.145094 94 160 0
0.671694 0.0187393 -0.146112 97 157 0
0.67075 0.0241362 -0.147218 99 155 0
0.671672 0.0298983 -0.148461 101 153 0
0.673449 0.0355153 -0.14944 103 151 0
0.677104 0.0400292 -0.150405 106 148 0
0.682478 0.0423996 -0.151158 108 146 0
0.688293 0.0435699 -0.151357 110 144 0
0.693952 0.0421785 -0.151124 112 142 0
0.698457 0.0383277 -0.150543 115 139 0
0.69996 0.0326725 -0.149574 117 137 0
0.699441 0.0270843 -0.14886 119 135 0
0.695271 0.0235064 -0.14816 121 133 0
0.6908 0.0195522 -0.147828 124 130 0
0.68484 0.0194768 -0.14785 126 128 0
0.679348 0.0214169 -0.14824 128 126 0
0.674404 0.0246997 -0.148872 130 124 0
0.670207 0.0288325 -0.149748 133 121 0
0.670305 0.0346716 -0.150733 135 119 0
0.67066 0.0405425 -0.15171 137 117 0
0.672665 0.0460883 -0.152661 139 115 0
0.676524 0.0499458 -0.153528 142 112 0
0.68213 0.0519612 -0.153977 144 110 0
0.687914 0.0529459 -0.15418 146 108 0
0.693564 0.0510905 -0.15383 148 106 0
0.697397 0.046938 -0.15316 151 103 0
0.698769 0.0412672 -0.152411 153 101 0
0.697874 0.0356048 -0.151553 155 99 0
0.694223 0.0309104 -0.151083 157 97 0
0.688944 0.0291056 -0.150748 160 94 0
0.682968 0.029083 -0.150811 162 92 0
0.677399 0.0310029 -0.15123 164 90 0
0.672222 0.0334698 -0.151797 166 88 0
0.669811 0.0388125 -0.152668 169 85 0
0.668974 0.0446149 -0.153504 171 83 0
0.669072 0.0504799 -0.154631 173 81 0
0.670863 0.0561246 -0.155341 176 78 0
0.675049 0.0601971 -0.15604 178 76 0
0.680577 0.0624297 -0.15646 180 74 0
0.686198 0.0623927 -0.15653 182 72 0
0.691556 0.0607295 -0.156199 185 69 0
0.695307 0.056115 -0.15562 187 67 0
0.698374 0.0511159 -0.154873 189 65 0
0.696739 0.0457164 -0.154067 191 63 0
0.692459 0.0415855 -0.15353 194 60 0
0.687466 0.0386202 -0.15322 196 58 0
0.681618 0.0386312 -0.153294 198 56 0
0.67622 0.0411625 -0.153725 200 54 0
0.670858 0.0437396 -0.154308 203 51 0
0.668049 0.0488684 -0.155114 205 49 0
0.667381 0.054186 -0.155955 207 47 0
0.667117 0.0599549 -0.156652 209 45 0
0.670076 0.0651116 -0.15724 212 42 0
0.674361 0.0688128 -0.15779 214 40 0
0.679356 0.0715748 -0.158068 216 38 0
0.684988 0.0718432 -0.158031 218 36 0
0.690628 0.0706085 -0.157858 221 33 0
0.695078 0.0666933 -0.157547 223 31 0
0.696807 0.0611727 -0.156857 225 29 0
0.694999 0.0557878 -0.156004 227 27 0
0.692522 0.0505379 -0.155391 230 24 0
0.687452 0.048284 -0.154933 232 22 0
0.681827 0.047218 -0.154787 234 20 0
0.676622 0.0493165 -0.155201 236 18 0
0.671778 0.0519551 -0.155996 239 15 0
0.667687 0.0561784 -0.156756 241 13 0
0.666806 0.0617143 -0.157331 243 11 0
0.666809 0.0676754 -0.157727 245 9 0
0.668331 0.0730037 -0.157674 248 6 0
0.671313 0.0777292 -0.157615 250 4 0
0.674876 0.0810261 -0.157735 252 2 0
0.680578 0.0809856 -0.158112 255 0 0
