ply
format ascii 1.0
comment Generated by robot_control PLYWriter
element vertex 50
property float x
property float y
property float z
property uchar red
property uchar green
property uchar blue
end_header
0.61661 0.226953 -0.153303 0 255 0
0.622144 0.227503 -0.153542 5 249 0
0.627181 0.224961 -0.153004 10 244 0
0.631105 0.221282 -0.151693 15 239 0
0.633262 0.216518 -0.149865 20 234 0
0.63424 0.211049 -0.148258 26 228 0
0.632392 0.206131 -0.146095 31 223 0
0.630375 0.201289 -0.144834 36 218 0
0.625939 0.198021 -0.143663 41 213 0
0.620501 0.195982 -0.143166 46 208 0
0.615227 0.198107 -0.143255 52 202 0
0.609915 0.200202 -0.143857 57 197 0
0.607364 0.205471 -0.14494 62 192 0
0.607506 0.211075 -0.146262 67 187 0
0.611062 0.215659 -0.147403 72 182 0
0.615586 0.219281 -0.148434 78 176 0
0.621358 0.220581 -0.148876 83 171 0
0.627147 0.219946 -0.1489 88 166 0
0.632795 0.218071 -0.148609 93 161 0
0.637526 0.214682 -0.148001 98 156 0
0.641065 0.21004 -0.146979 104 150 0
0.640937 0.204178 -0.146098 109 145 0
0.6404 0.198501 -0.144651 114 140 0
0.63688 0.1943 -0.143512 119 135 0
0.631767 0.19141 -0.142589 124 130 0
0.626109 0.190566 -0.141994 130 124 0
0.62068 0.192164 -0.141966 135 119 0
0.615813 0.195535 -0.142564 140 114 0
0.614345 0.200985 -0.143615 145 109 0
0.616131 0.206342 -0.144774 150 104 0
0.619689 0.211034 -0.145669 156 98 0
0.624664 0.214027 -0.146233 161 93 0
0.630163 0.213598 -0.146675 166 88 0
0.636042 0.213767 -0.146787 171 83 0
0.640777 0.210194 -0.146553 176 78 0
0.644921 0.206277 -0.145846 182 72 0
0.647724 0.201259 -0.144827 187 67 0
0.649227 0.196079 -0.143443 192 62 0
0.64714 0.190644 -0.142275 197 57 0
0.643337 0.186274 -0.140883 202 52 0
0.639136 0.182754 -0.139682 208 46 0
0.633217 0.182827 -0.138997 213 41 0
0.627545 0.184102 -0.138925 218 36 0
0.623546 0.187476 -0.139495 223 31 0
0.622818 0.192576 -0.1405 228 26 0
0.622169 0.19817 -0.141972 234 20 0
0.625074 0.202437 -0.143319 239 15 0
0.629306 0.204611 -0.145088 244 10 0
0.634274 0.20649 -0.146455 249 5 0
0.6393 0.205495 -0.147081 255 0 0
