ply
format ascii 1.0
comment Generated by robot_control PLYWriter
element vertex 13
property float x
property float y
property float z
property uchar red
property uchar green
property uchar blue
end_header
0.657868 -0.425664 -0.105097 0 255 0
0.662682 -0.428682 -0.104588 21 233 0
0.664321 -0.433804 -0.103814 42 212 0
0.664339 -0.43938 -0.103058 63 191 0
0.661045 -0.444044 -0.102229 85 169 0
0.656556 -0.447636 -0.101708 106 148 0
0.650801 -0.448898 -0.101563 127 127 0
0.64598 -0.44561 -0.101809 148 106 0
0.642283 -0.441051 -0.102275 170 84 0
0.640992 -0.435384 -0.102978 191 63 0
0.643089 -0.430013 -0.103903 212 42 0
0.646668 -0.425827 -0.104972 233 21 0
0.65219 -0.425119 -0.105339 255 0 0
