ply
format ascii 1.0
comment Generated by robot_control PLYWriter
element vertex 13
property float x
property float y
property float z
property uchar red
property uchar green
property uchar blue
end_header
0.674678 -0.225762 -0.0150273 0 255 0
0.675284 -0.230809 -0.0153435 21 233 0
0.675533 -0.235865 -0.0159352 42 212 0
0.675838 -0.240923 -0.0164783 63 191 0
0.676154 -0.24598 -0.017031 85 169 0
0.676632 -0.251021 -0.017601 106 148 0
0.677095 -0.256062 -0.0181925 127 127 0
0.677502 -0.261099 -0.0188488 148 106 0
0.67769 -0.266146 -0.0195345 170 84 0
0.677862 -0.271203 -0.020137 191 63 0
0.678317 -0.276254 -0.0206416 212 42 0
0.678746 -0.281305 -0.0211652 233 21 0
0.678998 -0.286375 -0.0215622 255 0 0
