ply
format ascii 1.0
comment Generated by robot_control PLYWriter
element vertex 81
property float x
property float y
property float z
property uchar red
property uchar green
property uchar blue
end_header
0.586522 -0.0224272 -0.085895 0 255 0
0.589819 -0.0257496 -0.0857316 3 251 0
0.59299 -0.0301645 -0.0852671 6 248 0
0.594501 -0.0354637 -0.0847485 9 245 0
0.594509 -0.0414136 -0.0841706 12 242 0
0.594059 -0.0471984 -0.0839089 15 239 0
0.590645 -0.0517625 -0.0837654 19 235 0
0.586293 -0.054937 -0.0838293 22 232 0
0.580689 -0.0561005 -0.0840888 25 229 0
0.574874 -0.0552914 -0.0845105 28 226 0
0.56927 -0.0539143 -0.0849605 31 223 0
0.566069 -0.0489625 -0.085449 35 219 0
0.565137 -0.0431716 -0.0857216 38 216 0
0.567651 -0.0378378 -0.0858616 41 213 0
0.571438 -0.0333952 -0.0858066 44 210 0
0.576858 -0.0309635 -0.0855185 47 207 0
0.58263 -0.0318679 -0.0851847 51 204 0
0.588151 -0.0341409 -0.0848831 54 200 0
0.591582 -0.0388916 -0.0845684 57 197 0
0.593748 -0.0444542 -0.0843597 60 194 0
0.594508 -0.0503059 -0.0841472 63 191 0
0.594315 -0.056184 -0.0840617 66 188 0
0.589869 -0.0600781 -0.0841302 70 184 0
0.58548 -0.0639504 -0.0843181 73 181 0
0.580325 -0.0668964 -0.0845278 76 178 0
0.57452 -0.0660263 -0.0847441 79 175 0
0.569324 -0.0632805 -0.0849386 82 172 0
0.565259 -0.0589411 -0.0851563 86 168 0
0.565193 -0.052963 -0.0851992 89 165 0
0.56725 -0.0476863 -0.085166 92 162 0
0.570448 -0.0426443 -0.0850306 95 159 0
0.576359 -0.0420384 -0.0848341 98 156 0
0.582334 -0.042121 -0.0846596 102 153 0
0.586923 -0.0450609 -0.0844509 105 149 0
0.591227 -0.0491705 -0.0842052 108 146 0
0.594335 -0.0540597 -0.0838059 111 143 0
0.594508 -0.0599994 -0.0835547 114 140 0
0.592522 -0.0655878 -0.0834221 117 137 0
0.589722 -0.0707676 -0.0835215 121 133 0
0.585081 -0.0745 -0.0837375 124 130 0
0.579644 -0.0763345 -0.08397 127 127 0
0.573669 -0.0762908 -0.0841659 130 124 0
0.568627 -0.0733022 -0.084255 133 121 0
0.56593 -0.0681276 -0.0843792 137 117 0
0.565006 -0.0622817 -0.0845232 140 114 0
0.566766 -0.0566678 -0.0846872 143 111 0
0.571272 -0.0529676 -0.0847359 146 108 0
0.5771 -0.0520626 -0.0845673 149 105 0
0.582729 -0.0527098 -0.084191 153 101 0
0.588349 -0.0546432 -0.0836523 156 98 0
0.591537 -0.0596687 -0.0830868 159 95 0
0.594507 -0.0648048 -0.0826913 162 92 0
0.59451 -0.0707659 -0.0822324 165 89 0
0.593166 -0.0761869 -0.081879 168 86 0
0.589438 -0.0808067 -0.0816792 172 82 0
0.584733 -0.0840237 -0.0816322 175 79 0
0.579236 -0.0863739 -0.0816844 178 76 0
0.573474 -0.085874 -0.0819936 181 73 0
0.568481 -0.0826583 -0.082635 184 70 0
0.565104 -0.0779059 -0.0832404 188 66 0
0.565066 -0.0719672 -0.0838597 191 63 0
0.567269 -0.0666001 -0.0843798 194 60 0
0.570849 -0.0621607 -0.0846661 197 57 0
0.576825 -0.0622493 -0.0845589 200 54 0
0.582701 -0.0625217 -0.0839722 204 50 0
0.587962 -0.0652753 -0.0833035 207 47 0
0.592336 -0.0691081 -0.0824791 210 44 0
0.593455 -0.0747316 -0.0816061 213 41 0
0.59447 -0.0805191 -0.0809654 216 38 0
0.592234 -0.0856723 -0.0800524 219 35 0
0.588588 -0.0901146 -0.0793096 223 31 0
0.584738 -0.0945967 -0.0787582 226 28 0
0.579242 -0.0965724 -0.078809 229 25 0
0.573667 -0.0956536 -0.0793095 232 22 0
0.568797 -0.0930939 -0.0800575 235 19 0
0.565104 -0.0885537 -0.08107 239 15 0
0.564839 -0.0832562 -0.0825679 242 12 0
0.565143 -0.0790287 -0.0833736 245 9 0
0.568536 -0.0745535 -0.0839589 248 6 0
0.573664 -0.0722913 -0.0839762 251 3 0
0.579008 -0.0714612 -0.0835232 255 0 0
