ply
format ascii 1.0
comment Generated by robot_control PLYWriter
element vertex 10
property float x
property float y
property float z
property uchar red
property uchar green
property uchar blue
end_header
0.658569 -0.373513 -0.0623777 0 255 0
0.658979 -0.369755 -0.0659825 28 226 0
0.659169 -0.365703 -0.0692763 56 198 0
0.659511 -0.361482 -0.0723535 85 169 0
0.659817 -0.35712 -0.0752238 113 141 0
0.660042 -0.352472 -0.0776084 141 113 0
0.660075 -0.347432 -0.0790177 170 84 0
0.660498 -0.342244 -0.0795793 198 56 0
0.660461 -0.337022 -0.079208 226 28 0
0.66049 -0.331812 -0.0787291 255 0 0
