ply
format ascii 1.0
comment Generated by robot_control PLYWriter
element vertex 49
property float x
property float y
property float z
property uchar red
property uchar green
property uchar blue
end_header
0.61743 0.123575 -0.126687 0 255 0
0.62277 0.122065 -0.125764 5 249 0
0.625192 0.11727 -0.124133 10 244 0
0.626593 0.112392 -0.121552 15 239 0
0.626827 0.107035 -0.118939 21 233 0
0.625687 0.101572 -0.116965 26 228 0
0.62198 0.0976548 -0.115124 31 223 0
0.617174 0.0943441 -0.113776 37 217 0
0.611382 0.0939224 -0.11319 42 212 0
0.606016 0.093379 -0.113124 47 207 0
0.600651 0.0959621 -0.113723 53 201 0
0.596145 0.0997224 -0.114468 58 196 0
0.595017 0.10514 -0.116198 63 191 0
0.596554 0.110738 -0.117512 69 185 0
0.599845 0.11521 -0.118708 74 180 0
0.604362 0.118542 -0.119407 79 175 0
0.610355 0.118489 -0.119498 85 169 0
0.615238 0.116177 -0.119091 90 164 0
0.618627 0.111314 -0.118266 95 159 0
0.621458 0.106211 -0.11705 100 154 0
0.62158 0.1006 -0.115828 106 148 0
0.618528 0.095762 -0.114709 111 143 0
0.614483 0.091439 -0.113753 116 138 0
0.610136 0.0874326 -0.11293 122 132 0
0.604364 0.0867907 -0.11254 127 127 0
0.598399 0.0869644 -0.112549 132 122 0
0.592975 0.0893962 -0.112992 138 116 0
0.590026 0.0945824 -0.113655 143 111 0
0.588462 0.100121 -0.114631 148 106 0
0.590465 0.105651 -0.115358 154 100 0
0.593116 0.110991 -0.116061 159 95 0
0.598953 0.112066 -0.116419 164 90 0
0.604953 0.112155 -0.116333 170 84 0
0.610066 0.109565 -0.115757 175 79 0
0.613462 0.105539 -0.114998 180 74 0
0.615993 0.10035 -0.114073 185 69 0
0.614134 0.0954018 -0.113153 191 63 0
0.612982 0.089846 -0.11223 196 58 0
0.609107 0.0853844 -0.111602 201 53 0
0.60424 0.0819843 -0.111046 207 47 0
0.598238 0.0819821 -0.110961 212 42 0
0.592319 0.0823183 -0.111406 217 37 0
0.587263 0.0851871 -0.112114 223 31 0
0.583113 0.089304 -0.113416 228 26 0
0.583603 0.0948188 -0.114586 233 21 0
0.584607 0.100434 -0.115699 239 15 0
0.588404 0.104286 -0.116376 244 10 0
0.591822 0.106823 -0.116302 249 5 0
0.596481 0.105361 -0.11564 255 0 0
