ply
format ascii 1.0
comment Generated by robot_control PLYWriter
element vertex 41
property float x
property float y
property float z
property uchar red
property uchar green
property uchar blue
end_header
0.613059 0.121265 -0.124868 0 255 0
0.618459 0.121509 -0.125671 6 248 0
0.623742 0.119881 -0.125147 12 242 0
0.62674 0.115939 -0.123677 19 235 0
0.629226 0.111154 -0.121876 25 229 0
0.626826 0.107005 -0.119458 31 223 0
0.623433 0.103521 -0.117537 38 216 0
0.617658 0.102919 -0.11669 44 210 0
0.612324 0.105299 -0.117071 51 204 0
0.608632 0.108825 -0.11892 57 197 0
0.608623 0.114438 -0.120962 63 191 0
0.609344 0.119921 -0.123072 70 184 0
0.612445 0.124383 -0.124551 76 178 0
0.617322 0.127495 -0.126027 82 172 0
0.622926 0.128312 -0.127252 89 165 0
0.628849 0.128101 -0.127516 95 159 0
0.633512 0.124958 -0.127119 102 153 0
0.635694 0.119493 -0.126192 108 146 0
0.634365 0.114195 -0.124976 114 140 0
0.631208 0.111442 -0.123909 121 133 0
0.625421 0.110098 -0.12348 127 127 0
0.620058 0.112098 -0.124043 133 121 0
0.616767 0.11668 -0.125112 140 114 0
0.614994 0.121944 -0.126531 146 108 0
0.617222 0.127329 -0.127864 153 101 0
0.620584 0.13176 -0.129567 159 95 0
0.625795 0.134558 -0.130425 165 89 0
0.631273 0.136206 -0.131099 172 82 0
0.636763 0.134186 -0.131168 178 76 0
0.640421 0.130329 -0.130415 184 70 0
0.642915 0.125609 -0.129214 191 63 0
0.641641 0.120258 -0.127613 197 57 0
0.637259 0.116364 -0.1267 204 50 0
0.631735 0.115974 -0.126296 210 44 0
0.626925 0.11941 -0.126765 216 38 0
0.622961 0.12345 -0.128214 223 31 0
0.62318 0.129038 -0.130301 229 25 0
0.624969 0.134047 -0.132292 235 19 0
0.627612 0.138709 -0.13387 242 12 0
0.632069 0.141241 -0.135114 248 6 0
0.636759 0.143567 -0.135677 255 0 0
