ply
format ascii 1.0
comment Generated by robot_control PLYWriter
element vertex 86
property float x
property float y
property float z
property uchar red
property uchar green
property uchar blue
end_header
0.598439 0.112143 -0.107558 0 255 0
0.603114 0.109878 -0.106919 3 252 0
0.605546 0.105582 -0.106563 6 249 0
0.606744 0.10084 -0.10634 9 246 0
0.604364 0.0957903 -0.106391 12 243 0
0.601104 0.0921958 -0.106861 15 240 0
0.595783 0.0914238 -0.10749 18 237 0
0.590016 0.0916109 -0.108138 21 234 0
0.585521 0.094827 -0.108939 24 231 0
0.58127 0.0990157 -0.109492 27 228 0
0.58032 0.104548 -0.109772 30 225 0
0.580198 0.110567 -0.109826 33 222 0
0.582669 0.115675 -0.109699 36 219 0
0.586199 0.120549 -0.109352 39 216 0
0.591606 0.122521 -0.108889 42 213 0
0.597114 0.122666 -0.108268 45 210 0
0.602772 0.121169 -0.107762 48 207 0
0.60439 0.115554 -0.107283 51 204 0
0.605574 0.110795 -0.107098 54 201 0
0.603958 0.105266 -0.107096 57 198 0
0.598902 0.102042 -0.107424 60 195 0
0.59292 0.101936 -0.107979 63 192 0
0.587562 0.104298 -0.10862 66 189 0
0.583387 0.108348 -0.109204 69 185 0
0.580263 0.113398 -0.109712 72 183 0
0.580324 0.119417 -0.110079 75 179 0
0.582133 0.124804 -0.110337 78 177 0
0.585744 0.129587 -0.11033 81 173 0
0.590787 0.132832 -0.110024 84 171 0
0.596463 0.133514 -0.109521 87 167 0
0.601676 0.130561 -0.108949 90 165 0
0.604422 0.125544 -0.108529 93 161 0
0.604357 0.11953 -0.108184 96 159 0
0.601203 0.114781 -0.108199 99 155 0
0.595968 0.111938 -0.108575 102 153 0
0.590202 0.112751 -0.109145 105 149 0
0.585095 0.115853 -0.109956 108 147 0
0.580316 0.119466 -0.110466 111 143 0
0.58019 0.125475 -0.110954 114 141 0
0.580182 0.131464 -0.11156 117 137 0
0.581674 0.137249 -0.111791 120 135 0
0.586291 0.140927 -0.111814 123 131 0
0.591379 0.14391 -0.111562 126 129 0
0.597377 0.143745 -0.111099 129 125 0
0.601775 0.140346 -0.11038 132 122 0
0.603851 0.134713 -0.109819 135 119 0
0.603941 0.128873 -0.109318 138 116 0
0.600599 0.124271 -0.109203 141 113 0
0.595396 0.121672 -0.109524 144 110 0
0.589596 0.12311 -0.11012 147 107 0
0.584691 0.126289 -0.110923 150 104 0
0.581452 0.131308 -0.111746 153 101 0
0.580186 0.136937 -0.112391 156 98 0
0.580298 0.142947 -0.112863 159 95 0
0.583727 0.147797 -0.113135 162 92 0
0.586809 0.152579 -0.113194 165 89 0
0.59264 0.153333 -0.112964 168 86 0
0.598231 0.152554 -0.112345 171 83 0
0.602358 0.14827 -0.111481 174 80 0
0.604263 0.142793 -0.110904 177 77 0
0.601226 0.137606 -0.110587 180 74 0
0.597678 0.132852 -0.110735 183 71 0
0.591957 0.131904 -0.111391 186 68 0
0.586742 0.134355 -0.112227 189 65 0
0.582365 0.1384 -0.113051 192 62 0
0.58033 0.143303 -0.113709 195 59 0
0.578601 0.148843 -0.11427 198 56 0
0.580079 0.154624 -0.11453 201 53 0
0.583023 0.159654 -0.114426 204 50 0
0.587911 0.163127 -0.113874 207 47 0
0.593354 0.165058 -0.112817 210 44 0
0.598292 0.161709 -0.111976 213 41 0
0.602335 0.158403 -0.111289 216 38 0
0.602853 0.152477 -0.111036 219 35 0
0.601682 0.147414 -0.111326 222 32 0
0.597782 0.143792 -0.111755 225 29 0
0.593463 0.141668 -0.112491 228 26 0
0.588364 0.143583 -0.113299 231 23 0
0.58368 0.146642 -0.11413 234 20 0
0.58259 0.151854 -0.115506 237 17 0
0.579836 0.156127 -0.116432 240 14 0
0.578861 0.16165 -0.117149 243 11 0
0.581008 0.167029 -0.11727 246 8 0
0.583451 0.171423 -0.116722 249 5 0
0.587432 0.173638 -0.114848 252 2 0
0.590551 0.175394 -0.113 255 0 0
