ply
format ascii 1.0
comment Generated by robot_control PLYWriter
element vertex 38
property float x
property float y
property float z
property uchar red
property uchar green
property uchar blue
end_header
0.682405 0.175986 -0.130074 0 255 0
0.687544 0.174075 -0.129822 6 248 0
0.691909 0.17153 -0.129228 13 241 0
0.694769 0.166426 -0.128239 20 234 0
0.696797 0.161224 -0.127147 27 227 0
0.69396 0.156534 -0.12581 34 220 0
0.69028 0.152172 -0.124604 41 213 0
0.685152 0.149181 -0.123914 48 206 0
0.679503 0.14871 -0.123704 55 199 0
0.673963 0.150658 -0.123815 62 192 0
0.668711 0.15348 -0.124262 68 186 0
0.665125 0.157887 -0.125012 75 179 0
0.662954 0.163364 -0.125984 82 172 0
0.662586 0.16914 -0.127213 89 165 0
0.662627 0.175023 -0.128284 96 158 0
0.665286 0.180034 -0.1293 103 151 0
0.669291 0.184354 -0.130252 110 144 0
0.674529 0.186704 -0.131017 117 137 0
0.680254 0.188348 -0.131516 124 130 0
0.68596 0.188467 -0.131856 130 124 0
0.691073 0.185563 -0.131943 137 117 0
0.695838 0.181973 -0.131632 144 110 0
0.698024 0.176576 -0.131155 151 103 0
0.698433 0.170799 -0.130294 158 96 0
0.696278 0.165389 -0.129601 165 89 0
0.691207 0.162415 -0.128798 172 82 0
0.686007 0.160159 -0.128137 179 75 0
0.680227 0.161337 -0.127953 186 68 0
0.674549 0.163207 -0.128047 192 62 0
0.670122 0.167152 -0.128481 199 55 0
0.666116 0.171428 -0.129148 206 48 0
0.664444 0.176904 -0.130079 213 41 0
0.66475 0.182723 -0.131386 220 34 0
0.666057 0.188065 -0.133343 227 27 0
0.66846 0.193368 -0.134705 234 20 0
0.672352 0.196619 -0.136542 241 13 0
0.677612 0.198465 -0.137753 248 6 0
0.682328 0.200134 -0.138836 255 0 0
