ply
format ascii 1.0
comment Generated by robot_control PLYWriter
element vertex 32
property float x
property float y
property float z
property uchar red
property uchar green
property uchar blue
end_header
0.707954 0.0832887 -0.15994 0 255 0
0.71314 0.0812172 -0.159753 8 246 0
0.718 0.0779254 -0.159338 16 238 0
0.720589 0.0729965 -0.158791 24 230 0
0.72028 0.0672777 -0.158324 32 222 0
0.719003 0.0615811 -0.15785 41 213 0
0.714353 0.0578043 -0.157406 49 205 0
0.708455 0.0574852 -0.157261 57 197 0
0.70242 0.0574878 -0.157346 65 189 0
0.698464 0.0617921 -0.157685 74 180 0
0.695783 0.0669774 -0.158064 82 172 0
0.695372 0.0729156 -0.158529 90 164 0
0.697659 0.0783744 -0.159012 98 156 0
0.702221 0.082251 -0.159389 106 148 0
0.707423 0.0852961 -0.159636 115 139 0
0.713062 0.0870698 -0.159814 123 131 0
0.718914 0.0860826 -0.159776 131 123 0
0.724134 0.0831155 -0.159622 139 115 0
0.728792 0.0793257 -0.159406 148 106 0
0.730112 0.0738396 -0.159084 156 98 0
0.730371 0.0679408 -0.158586 164 90 0
0.728739 0.0621525 -0.158082 172 82 0
0.723339 0.0600327 -0.157796 180 74 0
0.717305 0.0600065 -0.157696 189 65 0
0.712011 0.0626907 -0.157896 197 57 0
0.708827 0.0674496 -0.158306 205 49 0
0.706694 0.0727896 -0.158951 213 41 0
0.70845 0.0783303 -0.159561 222 32 0
0.709929 0.0838361 -0.160187 230 24 0
0.714543 0.0870622 -0.160758 238 16 0
0.719615 0.0891677 -0.161229 246 8 0
0.725293 0.0890869 -0.161765 255 0 0
