ply
format ascii 1.0
comment Generated by robot_control PLYWriter
element vertex 31
property float x
property float y
property float z
property uchar red
property uchar green
property uchar blue
end_header
0.605099 0.15856 -0.174641 0 255 0
0.610654 0.157735 -0.172445 8 246 0
0.612731 0.153127 -0.170082 17 238 0
0.61473 0.148348 -0.167527 25 229 0
0.616212 0.142855 -0.165841 34 221 0
0.61383 0.137642 -0.164871 42 212 0
0.609771 0.133608 -0.164451 51 204 0
0.604774 0.130741 -0.16463 59 195 0
0.599394 0.13111 -0.165454 68 187 0
0.594655 0.13375 -0.166875 76 178 0
0.594038 0.139313 -0.168554 85 169 0
0.595204 0.145164 -0.169468 93 161 0
0.598266 0.150245 -0.16983 102 153 0
0.603328 0.153359 -0.169651 110 144 0
0.608996 0.155197 -0.168949 119 135 0
0.614825 0.15454 -0.167638 127 127 0
0.620372 0.152708 -0.166207 136 118 0
0.624787 0.149229 -0.164589 144 110 0
0.626434 0.144047 -0.162721 153 101 0
0.626389 0.138261 -0.161016 161 93 0
0.624007 0.132933 -0.159621 170 84 0
0.620538 0.128173 -0.158976 178 76 0
0.615364 0.125897 -0.159068 187 67 0
0.609525 0.126286 -0.160022 195 59 0
0.605481 0.130181 -0.16157 204 50 0
0.604033 0.134979 -0.163748 212 42 0
0.604664 0.140512 -0.165558 221 33 0
0.608868 0.144585 -0.166909 229 25 0
0.613376 0.148166 -0.16734 238 16 0
0.618874 0.149876 -0.167047 246 8 0
0.623205 0.151424 -0.166361 255 0 0
