ply
format ascii 1.0
comment Generated by robot_control PLYWriter
element vertex 128
property float x
property float y
property float z
property uchar red
property uchar green
property uchar blue
end_header
0.538927 0.112169 -0.114406 0 255 0
0.543472 0.111334 -0.112946 2 252 0
0.546075 0.107343 -0.111769 4 250 0
0.548126 0.103705 -0.110533 6 248 0
0.548345 0.0977459 -0.109933 8 246 0
0.547024 0.0922418 -0.109878 10 244 0
0.543529 0.0885604 -0.110504 12 242 0
0.538246 0.0871393 -0.111703 14 240 0
0.532573 0.0876353 -0.113476 16 238 0
0.527453 0.090161 -0.114938 18 236 0
0.523987 0.0944008 -0.116441 20 234 0
0.520826 0.0988742 -0.117678 22 232 0
0.52069 0.104803 -0.1184 24 230 0
0.522106 0.110401 -0.118833 26 228 0
0.524966 0.115651 -0.11882 28 226 0
0.529352 0.119702 -0.118322 30 224 0
0.53446 0.122379 -0.117568 32 222 0
0.540325 0.121676 -0.116478 34 220 0
0.5452 0.118721 -0.1152 36 218 0
0.54867 0.11457 -0.11371 38 216 0
0.548198 0.108701 -0.112652 40 214 0
0.546436 0.103365 -0.11219 42 212 0
0.542968 0.0986289 -0.112445 44 210 0
0.537409 0.0972391 -0.113202 46 208 0
0.531751 0.098211 -0.114749 48 206 0
0.526629 0.101021 -0.116124 50 204 0
0.523395 0.105478 -0.117848 52 202 0
0.520861 0.110609 -0.119083 54 200 0
0.520979 0.116492 -0.120086 56 198 0
0.52278 0.122129 -0.120861 58 196 0
0.527033 0.126365 -0.121069 60 194 0
0.531766 0.129977 -0.120851 62 192 0
0.537444 0.131571 -0.120123 64 190 0
0.542996 0.130127 -0.118905 66 188 0
0.54629 0.125461 -0.117648 68 186 0
0.548678 0.120749 -0.116311 70 184 0
0.548084 0.115022 -0.115358 72 182 0
0.544449 0.110283 -0.11504 74 180 0
0.539428 0.107196 -0.115512 76 178 0
0.533542 0.107606 -0.116553 78 176 0
0.528476 0.110014 -0.118281 80 174 0
0.523925 0.113104 -0.120009 82 172 0
0.521289 0.118387 -0.121125 84 170 0
0.520948 0.123978 -0.122979 86 168 0
0.52163 0.129815 -0.123866 88 166 0
0.524455 0.134899 -0.124596 90 164 0
0.529083 0.138691 -0.124786 92 162 0
0.534889 0.140197 -0.12444 94 160 0
0.54058 0.140977 -0.123481 96 158 0
0.545625 0.13826 -0.12196 98 156 0
0.549123 0.133708 -0.12065 100 154 0
0.548842 0.12787 -0.119324 102 152 0
0.546721 0.122382 -0.118693 104 150 0
0.542705 0.118001 -0.118592 106 148 0
0.537352 0.115689 -0.119139 108 146 0
0.53168 0.116988 -0.120517 110 144 0
0.526263 0.119045 -0.12201 112 142 0
0.522987 0.123395 -0.123594 114 140 0
0.520684 0.128655 -0.125336 116 138 0
0.520735 0.13449 -0.126715 118 136 0
0.522357 0.140146 -0.12774 120 134 0
0.526383 0.144471 -0.128539 122 132 0
0.530978 0.148292 -0.128625 124 130 0
0.536341 0.15 -0.128016 126 128 0
0.542202 0.149199 -0.12703 128 126 0
0.547139 0.147491 -0.125791 130 124 0
0.548191 0.141829 -0.124368 132 122 0
0.549214 0.136146 -0.123056 134 120 0
0.545629 0.131559 -0.122519 136 118 0
0.540656 0.128205 -0.122688 138 116 0
0.53518 0.126077 -0.123562 140 114 0
0.529344 0.126455 -0.124757 142 112 0
0.52448 0.129541 -0.126204 144 110 0
0.522009 0.134609 -0.128102 146 108 0
0.520299 0.140017 -0.129818 148 106 0
0.521063 0.145722 -0.131274 150 104 0
0.523451 0.151086 -0.132241 152 102 0
0.527107 0.155753 -0.132843 154 100 0
0.532427 0.158231 -0.132869 156 98 0
0.538236 0.159148 -0.132132 158 96 0
0.544083 0.158704 -0.130833 160 94 0
0.546975 0.154211 -0.129554 162 92 0
0.548825 0.149147 -0.127765 164 90 0
0.547182 0.143537 -0.126853 166 88 0
0.542966 0.139361 -0.126638 168 86 0
0.537915 0.136153 -0.127057 170 84 0
0.532363 0.136425 -0.127984 172 82 0
0.527058 0.138033 -0.129731 174 80 0
0.523451 0.142204 -0.131499 176 78 0
0.521786 0.147634 -0.133416 178 76 0
0.520887 0.153081 -0.13537 180 74 0
0.522135 0.158837 -0.136528 182 72 0
0.52461 0.164108 -0.137272 184 70 0
0.52957 0.167045 -0.137602 186 68 0
0.534884 0.169776 -0.137388 188 66 0
0.540689 0.169228 -0.136047 190 64 0
0.545505 0.166149 -0.134574 192 62 0
0.548473 0.161509 -0.132559 194 60 0
0.548654 0.155631 -0.131338 196 58 0
0.546697 0.150264 -0.13051 198 56 0
0.541387 0.14747 -0.130402 200 54 0
0.536036 0.14555 -0.13103 202 52 0
0.530238 0.14621 -0.132295 204 50 0
0.525336 0.148636 -0.134329 206 48 0
0.523124 0.153143 -0.136277 208 46 0
0.521057 0.158455 -0.138032 210 44 0
0.520909 0.163286 -0.139866 212 42 0
0.522802 0.16882 -0.140985 214 40 0
0.526347 0.173524 -0.141848 216 38 0
0.531064 0.17702 -0.141799 218 36 0
0.536524 0.179355 -0.141327 220 34 0
0.541894 0.178205 -0.139939 222 32 0
0.545725 0.174919 -0.1381 224 30 0
0.54823 0.169996 -0.13637 226 28 0
0.548497 0.164277 -0.134581 228 26 0
0.545117 0.159973 -0.133353 230 24 0
0.541163 0.156292 -0.133183 232 22 0
0.535606 0.155616 -0.133839 234 20 0
0.529867 0.156445 -0.135341 236 18 0
0.525379 0.15847 -0.137767 238 16 0
0.522531 0.162211 -0.140204 240 14 0
0.520889 0.167321 -0.142273 242 12 0
0.519579 0.171247 -0.144409 244 10 0
0.521073 0.176419 -0.146049 246 8 0
0.523338 0.181231 -0.14726 248 6 0
0.527637 0.184504 -0.14798 250 4 0
0.532011 0.187076 -0.147644 252 2 0
0.536661 0.188253 -0.146598 255 0 0
