ply
format ascii 1.0
comment Generated by robot_control PLYWriter
element vertex 9
property float x
property float y
property float z
property uchar red
property uchar green
property uchar blue
end_header
0.664065 0.0428175 -0.0414665 0 255 0
0.663075 0.0480167 -0.0416928 31 223 0
0.662261 0.0532492 -0.0420533 63 191 0
0.661425 0.058484 -0.0423209 95 159 0
0.660565 0.0637182 -0.0425105 127 127 0
0.65971 0.0689513 -0.0427467 159 95 0
0.658896 0.0741866 -0.0430674 191 63 0
0.658089 0.0794208 -0.043415 223 31 0
0.657126 0.0846176 -0.0437359 255 0 0
