ply
format ascii 1.0
comment Generated by robot_control PLYWriter
element vertex 18
property float x
property float y
property float z
property uchar red
property uchar green
property uchar blue
end_header
0.617167 -0.0234463 -0.0982043 0 255 0
0.616005 -0.0186979 -0.0996018 15 240 0
0.614878 -0.0139161 -0.100924 30 225 0
0.613817 -0.00913347 -0.102293 45 210 0
0.612678 -0.00437386 -0.103683 60 195 0
0.611577 0.000404775 -0.105038 75 179 0
0.61039 0.00516481 -0.106386 90 165 0
0.609231 0.00991459 -0.107793 105 149 0
0.608203 0.0146816 -0.109242 120 135 0
0.607005 0.0193997 -0.110721 135 119 0
0.606008 0.0241516 -0.112242 150 104 0
0.604818 0.0288313 -0.113845 165 89 0
0.603737 0.0335201 -0.115497 180 74 0
0.602659 0.0381988 -0.11718 195 59 0
0.601489 0.0428496 -0.118878 210 44 0
0.600386 0.0475023 -0.120615 225 29 0
0.599323 0.052119 -0.12247 240 14 0
0.598212 0.0567413 -0.124279 255 0 0
