ply
format ascii 1.0
comment Generated by robot_control PLYWriter
element vertex 50
property float x
property float y
property float z
property uchar red
property uchar green
property uchar blue
end_header
0.611022 0.119566 -0.153504 0 255 0
0.614393 0.117583 -0.150842 5 249 0
0.617303 0.114331 -0.14778 10 244 0
0.619001 0.109375 -0.145344 15 239 0
0.620504 0.104071 -0.143857 20 234 0
0.618395 0.0988667 -0.143207 26 228 0
0.615363 0.0940612 -0.143187 31 223 0
0.611106 0.0899797 -0.143678 36 218 0
0.605908 0.087159 -0.144727 41 213 0
0.60029 0.0876246 -0.146458 46 208 0
0.594861 0.0884929 -0.148525 52 202 0
0.590966 0.0925257 -0.15058 57 197 0
0.588695 0.0975282 -0.152709 62 192 0
0.588374 0.103218 -0.154441 67 187 0
0.589601 0.108776 -0.155371 72 182 0
0.594414 0.112115 -0.155082 78 176 0
0.600075 0.113882 -0.154302 83 171 0
0.605754 0.113263 -0.152963 88 166 0
0.610378 0.110005 -0.15135 93 161 0
0.61247 0.104697 -0.149619 98 156 0
0.614571 0.0996004 -0.147987 104 150 0
0.61342 0.0940524 -0.14684 109 145 0
0.610024 0.089183 -0.146038 114 140 0
0.606269 0.0845297 -0.145835 119 135 0
0.601015 0.0818762 -0.146245 124 130 0
0.595115 0.0814055 -0.147026 130 124 0
0.589848 0.0834732 -0.148469 135 119 0
0.584753 0.0860913 -0.149791 140 114 0
0.58205 0.0911264 -0.151596 145 109 0
0.580706 0.0965615 -0.152932 150 104 0
0.582921 0.101793 -0.153849 156 98 0
0.587867 0.105095 -0.153856 161 93 0
0.593094 0.108 -0.153279 166 88 0
0.597947 0.106938 -0.152368 171 83 0
0.602789 0.104832 -0.150954 176 78 0
0.605906 0.099812 -0.149899 182 72 0
0.607117 0.0942989 -0.14857 187 67 0
0.606923 0.0883961 -0.147578 192 62 0
0.603803 0.083353 -0.146934 197 57 0
0.599797 0.0788896 -0.147029 202 52 0
0.594916 0.075707 -0.147764 208 46 0
0.589076 0.0755788 -0.149077 213 41 0
0.583388 0.0764007 -0.150419 218 36 0
0.578267 0.0792834 -0.151534 223 31 0
0.575632 0.084536 -0.152316 228 26 0
0.574895 0.0900457 -0.153204 234 20 0
0.576446 0.095631 -0.15371 239 15 0
0.580719 0.0987322 -0.15436 244 10 0
0.583319 0.101584 -0.154723 249 5 0
0.588372 0.102598 -0.154856 255 0 0
