ply
format ascii 1.0
comment Generated by robot_control PLYWriter
element vertex 11
property float x
property float y
property float z
property uchar red
property uchar green
property uchar blue
end_header
0.493052 0.0363818 -0.112867 0 255 0
0.49288 0.03123 -0.112253 25 229 0
0.492837 0.0260719 -0.11167 51 204 0
0.492801 0.02091 -0.111122 76 178 0
0.492748 0.0157402 -0.110654 102 153 0
0.492871 0.0105709 -0.110226 127 127 0
0.493091 0.00539845 -0.109851 153 101 0
0.49336 0.000223174 -0.109572 178 76 0
0.493675 -0.00495391 -0.109362 204 50 0
0.494 -0.0101295 -0.109134 229 25 0
0.494615 -0.0152805 -0.10897 255 0 0
