ply
format ascii 1.0
comment Generated by robot_control PLYWriter
element vertex 49
property float x
property float y
property float z
property uchar red
property uchar green
property uchar blue
end_header
0.597011 0.202307 -0.158877 0 255 0
0.602217 0.201261 -0.158847 5 249 0
0.605905 0.198835 -0.15751 10 244 0
0.609679 0.196015 -0.155699 15 239 0
0.612425 0.191568 -0.153665 21 233 0
0.61396 0.186699 -0.151295 26 228 0
0.613739 0.18188 -0.148347 31 223 0
0.61182 0.177019 -0.14608 37 217 0
0.607867 0.172663 -0.144987 42 212 0
0.602529 0.171165 -0.144175 47 207 0
0.596595 0.171015 -0.144186 53 201 0
0.591218 0.173453 -0.14486 58 196 0
0.588399 0.177977 -0.146284 63 191 0
0.58836 0.183661 -0.148044 69 185 0
0.591431 0.188163 -0.149807 74 180 0
0.595685 0.191899 -0.150964 79 175 0
0.600514 0.195365 -0.151269 85 169 0
0.606353 0.194033 -0.15129 90 164 0
0.611706 0.191635 -0.150844 95 159 0
0.616497 0.188205 -0.15019 100 154 0
0.619741 0.18335 -0.149114 106 148 0
0.621627 0.177858 -0.147681 111 143 0
0.620638 0.172577 -0.145876 116 138 0
0.618088 0.167426 -0.144385 122 132 0
0.613587 0.163812 -0.143316 127 127 0
0.607914 0.162469 -0.142559 132 122 0
0.602231 0.164175 -0.142456 138 116 0
0.597689 0.167371 -0.143015 143 111 0
0.595294 0.172766 -0.144031 148 106 0
0.597353 0.178109 -0.145323 154 100 0
0.600643 0.182769 -0.146392 159 95 0
0.605769 0.185726 -0.147079 164 90 0
0.611398 0.185139 -0.147485 170 84 0
0.617338 0.185166 -0.147552 175 79 0
0.622003 0.181517 -0.147117 180 74 0
0.625828 0.176991 -0.146341 185 69 0
0.628781 0.171981 -0.145065 191 63 0
0.628846 0.166226 -0.143745 196 58 0
0.62747 0.160958 -0.14167 201 53 0
0.622629 0.157979 -0.140379 207 47 0
0.617435 0.156054 -0.139285 212 42 0
0.611587 0.15544 -0.138934 217 37 0
0.607352 0.159008 -0.1393 223 31 0
0.603405 0.163377 -0.140239 228 26 0
0.603609 0.168288 -0.141878 233 21 0
0.606317 0.172865 -0.143165 239 15 0
0.610855 0.175812 -0.1445 244 10 0
0.615312 0.178303 -0.145842 249 5 0
0.620583 0.178128 -0.146947 255 0 0
