ply
format ascii 1.0
comment Generated by robot_control PLYWriter
element vertex 11
property float x
property float y
property float z
property uchar red
property uchar green
property uchar blue
end_header
0.612819 0.0389549 -0.119756 0 255 0
0.612816 0.0338399 -0.119483 25 229 0
0.612825 0.0287252 -0.119204 51 204 0
0.612824 0.0236129 -0.118885 76 178 0
0.612814 0.0185041 -0.118513 102 153 0
0.612803 0.0133959 -0.118133 127 127 0
0.612807 0.00828515 -0.117789 153 101 0
0.612802 0.00317196 -0.117484 178 76 0
0.612785 -0.00194379 -0.117225 204 50 0
0.612771 -0.00706035 -0.116983 229 25 0
0.612764 -0.0121803 -0.116835 255 0 0
