ply
format ascii 1.0
comment Generated by robot_control PLYWriter
element vertex 200
property float x
property float y
property float z
property uchar red
property uchar green
property uchar blue
end_header
0.502201 0.123581 -0.105436 0 255 0
0.502201 0.123581 -0.105436 1 253 0
0.502201 0.123581 -0.105436 2 252 0
0.502201 0.123581 -0.105436 3 251 0
0.502201 0.123581 -0.105436 5 249 0
0.502201 0.123581 -0.105436 6 248 0
0.502201 0.123581 -0.105436 7 247 0
0.502201 0.123581 -0.105436 8 246 0
0.502201 0.123581 -0.105436 10 244 0
0.502201 0.123581 -0.105436 11 243 0
0.502201 0.123581 -0.105436 12 242 0
0.502201 0.123581 -0.105436 14 240 0
0.502201 0.123581 -0.105436 15 239 0
0.502201 0.123581 -0.105436 16 238 0
0.502201 0.123581 -0.105436 17 237 0
0.502201 0.123581 -0.105436 19 235 0
0.502201 0.123581 -0.105436 20 234 0
0.502201 0.123581 -0.105436 21 233 0
0.502201 0.123581 -0.105436 23 231 0
0.502201 0.123581 -0.105436 24 230 0
0.502201 0.123581 -0.105436 25 229 0
0.502201 0.123581 -0.105436 26 228 0
0.502201 0.123581 -0.105436 28 226 0
0.502201 0.123581 -0.105436 29 225 0
0.502201 0.123581 -0.105436 30 224 0
0.502201 0.123581 -0.105436 32 222 0
0.502201 0.123581 -0.105436 33 221 0
0.502201 0.123581 -0.105436 34 220 0
0.502201 0.123581 -0.105436 35 219 0
0.502201 0.123581 -0.105436 37 217 0
0.502201 0.123581 -0.105436 38 216 0
0.502201 0.123581 -0.105436 39 215 0
0.502201 0.123581 -0.105436 41 213 0
0.502201 0.123581 -0.105436 42 212 0
0.502201 0.123581 -0.105436 43 211 0
0.502201 0.123581 -0.105436 44 210 0
0.502201 0.123581 -0.105436 46 208 0
0.502201 0.123581 -0.105436 47 207 0
0.502201 0.123581 -0.105436 48 206 0
0.502201 0.123581 -0.105436 49 205 0
0.502201 0.123581 -0.105436 51 203 0
0.502201 0.123581 -0.105436 52 202 0
0.502201 0.123581 -0.105436 53 201 0
0.502201 0.123581 -0.105436 55 199 0
0.502201 0.123581 -0.105436 56 198 0
0.502201 0.123581 -0.105436 57 197 0
0.502201 0.123581 -0.105436 58 196 0
0.502201 0.123581 -0.105436 60 194 0
0.502201 0.123581 -0.105436 61 193 0
0.502201 0.123581 -0.105436 62 192 0
0.502201 0.123581 -0.105436 64 190 0
0.502201 0.123581 -0.105436 65 189 0
0.502201 0.123581 -0.105436 66 188 0
0.502201 0.123581 -0.105436 67 187 0
0.502201 0.123581 -0.105436 69 185 0
0.502201 0.123581 -0.105436 70 184 0
0.502201 0.123581 -0.105436 71 183 0
0.502201 0.123581 -0.105436 73 181 0
0.502201 0.123581 -0.105436 74 180 0
0.502201 0.123581 -0.105436 75 179 0
0.502201 0.123581 -0.105436 76 178 0
0.502201 0.123581 -0.105436 78 176 0
0.502201 0.123581 -0.105436 79 175 0
0.502201 0.123581 -0.105436 80 174 0
0.502201 0.123581 -0.105436 82 172 0
0.502201 0.123581 -0.105436 83 171 0
0.502201 0.123581 -0.105436 84 170 0
0.502201 0.123581 -0.105436 85 169 0
0.502201 0.123581 -0.105436 87 167 0
0.502201 0.123581 -0.105436 88 166 0
0.502201 0.123581 -0.105436 89 165 0
0.502201 0.123581 -0.105436 90 164 0
0.502201 0.123581 -0.105436 92 162 0
0.502201 0.123581 -0.105436 93 161 0
0.502201 0.123581 -0.105436 94 160 0
0.502201 0.123581 -0.105436 96 158 0
0.502201 0.123581 -0.105436 97 157 0
0.502201 0.123581 -0.105436 98 156 0
0.502201 0.123581 -0.105436 99 155 0
0.502201 0.123581 -0.105436 101 153 0
0.502201 0.123581 -0.105436 102 152 0
0.502201 0.123581 -0.105436 103 151 0
0.502201 0.123581 -0.105436 105 149 0
0.502201 0.123581 -0.105436 106 148 0
0.502201 0.123581 -0.105436 107 147 0
0.502201 0.123581 -0.105436 108 146 0
0.502201 0.123581 -0.105436 110 144 0
0.502201 0.123581 -0.105436 111 143 0
0.502201 0.123581 -0.105436 112 142 0
0.502201 0.123581 -0.105436 114 140 0
0.502201 0.123581 -0.105436 115 139 0
0.502201 0.123581 -0.105436 116 138 0
0.502201 0.123581 -0.105436 117 137 0
0.502201 0.123581 -0.105436 119 135 0
0.502201 0.123581 -0.105436 120 134 0
0.502201 0.123581 -0.105436 121 133 0
0.502201 0.123581 -0.105436 123 131 0
0.502201 0.123581 -0.105436 124 130 0
0.502201 0.123581 -0.105436 125 129 0
0.502201 0.123581 -0.105436 126 128 0
0.502201 0.123581 -0.105436 128 126 0
0.502201 0.123581 -0.105436 129 125 0
0.502201 0.123581 -0.105436 130 124 0
0.502201 0.123581 -0.105436 131 123 0
0.502201 0.123581 -0.105436 133 121 0
0.502201 0.123581 -0.105436 134 120 0
0.502201 0.123581 -0.105436 135 119 0
0.502201 0.123581 -0.105436 137 117 0
0.502201 0.123581 -0.105436 138 116 0
0.502201 0.123581 -0.105436 139 115 0
0.502201 0.123581 -0.105436 140 114 0
0.502201 0.123581 -0.105436 142 112 0
0.502201 0.123581 -0.105436 143 111 0
0.502201 0.123581 -0.105436 144 110 0
0.502201 0.123581 -0.105436 146 108 0
0.502201 0.123581 -0.105436 147 107 0
0.502201 0.123581 -0.105436 148 106 0
0.502201 0.123581 -0.105436 149 105 0
0.502201 0.123581 -0.105436 151 103 0
0.502201 0.123581 -0.105436 152 102 0
0.502201 0.123581 -0.105436 153 101 0
0.502201 0.123581 -0.105436 155 99 0
0.502201 0.123581 -0.105436 156 98 0
0.502201 0.123581 -0.105436 157 97 0
0.502201 0.123581 -0.105436 158 96 0
0.502201 0.123581 -0.105436 160 94 0
0.502201 0.123581 -0.105436 161 93 0
0.502201 0.123581 -0.105436 162 92 0
0.502201 0.123581 -0.105436 164 90 0
0.502201 0.123581 -0.105436 165 89 0
0.502201 0.123581 -0.105436 166 88 0
0.502201 0.123581 -0.105436 167 87 0
0.502201 0.123581 -0.105436 169 85 0
0.502201 0.123581 -0.105436 170 84 0
0.502201 0.123581 -0.105436 171 83 0
0.502201 0.123581 -0.105436 172 82 0
0.502201 0.123581 -0.105436 174 80 0
0.502201 0.123581 -0.105436 175 79 0
0.502201 0.123581 -0.105436 176 78 0
0.502201 0.123581 -0.105436 178 76 0
0.502201 0.123581 -0.105436 179 75 0
0.502201 0.123581 -0.105436 180 74 0
0.502201 0.123581 -0.105436 181 73 0
0.502201 0.123581 -0.105436 183 71 0
0.502201 0.123581 -0.105436 184 70 0
0.502201 0.123581 -0.105436 185 69 0
0.502201 0.123581 -0.105436 187 67 0
0.502201 0.123581 -0.105436 188 66 0
0.502201 0.123581 -0.105436 189 65 0
0.502201 0.123581 -0.105436 190 64 0
0.502201 0.123581 -0.105436 192 62 0
0.502201 0.123581 -0.105436 193 61 0
0.502201 0.123581 -0.105436 194 60 0
0.502201 0.123581 -0.105436 196 58 0
0.502201 0.123581 -0.105436 197 57 0
0.502201 0.123581 -0.105436 198 56 0
0.502201 0.123581 -0.105436 199 55 0
0.502201 0.123581 -0.105436 201 53 0
0.502201 0.123581 -0.105436 202 52 0
0.502201 0.123581 -0.105436 203 51 0
0.502201 0.123581 -0.105436 205 49 0
0.502201 0.123581 -0.105436 206 48 0
0.502201 0.123581 -0.105436 207 47 0
0.502201 0.123581 -0.105436 208 46 0
0.502201 0.123581 -0.105436 210 44 0
0.502201 0.123581 -0.105436 211 43 0
0.502201 0.123581 -0.105436 212 42 0
0.502201 0.123581 -0.105436 213 41 0
0.502201 0.123581 -0.105436 215 39 0
0.502201 0.123581 -0.105436 216 38 0
0.502201 0.123581 -0.105436 217 37 0
0.502201 0.123581 -0.105436 219 35 0
0.502201 0.123581 -0.105436 220 34 0
0.502201 0.123581 -0.105436 221 33 0
0.502201 0.123581 -0.105436 222 32 0
0.502201 0.123581 -0.105436 224 30 0
0.502201 0.123581 -0.105436 225 29 0
0.502201 0.123581 -0.105436 226 28 0
0.502201 0.123581 -0.105436 228 26 0
0.502201 0.123581 -0.105436 229 25 0
0.502201 0.123581 -0.105436 230 24 0
0.502201 0.123581 -0.105436 231 23 0
0.502201 0.123581 -0.105436 233 21 0
0.502201 0.123581 -0.105436 234 20 0
0.502201 0.123581 -0.105436 235 19 0
0.502201 0.123581 -0.105436 237 17 0
0.502201 0.123581 -0.105436 238 16 0
0.502201 0.123581 -0.105436 239 15 0
0.502201 0.123581 -0.105436 240 14 0
0.502201 0.123581 -0.105436 242 12 0
0.502201 0.123581 -0.105436 243 11 0
0.502201 0.123581 -0.105436 244 10 0
0.502201 0.123581 -0.105436 246 8 0
0.502201 0.123581 -0.105436 247 7 0
0.502201 0.123581 -0.105436 248 6 0
0.502201 0.123581 -0.105436 249 5 0
0.502201 0.123581 -0.105436 251 3 0
0.502201 0.123581 -0.105436 252 2 0
0.502201 0.123581 -0.105436 253 1 0
0.502201 0.123581 -0.105436 255 0 0
