ply
format ascii 1.0
comment Generated by robot_control PLYWriter
element vertex 13
property float x
property float y
property float z
property uchar red
property uchar green
property uchar blue
end_header
0.645526 0.088436 -0.115678 0 255 0
0.645939 0.0929198 -0.1174 21 233 0
0.64612 0.0973877 -0.119212 42 212 0
0.64627 0.101879 -0.120971 63 191 0
0.646419 0.106372 -0.122723 85 169 0
0.646729 0.110857 -0.124473 106 148 0
0.646961 0.115337 -0.126249 127 127 0
0.647119 0.119814 -0.128042 148 106 0
0.64729 0.124294 -0.129824 170 84 0
0.647542 0.128789 -0.13156 191 63 0
0.647793 0.133293 -0.133272 212 42 0
0.648253 0.137774 -0.134999 233 21 0
0.648592 0.142261 -0.136726 255 0 0
