ply
format ascii 1.0
comment Generated by robot_control PLYWriter
element vertex 49
property float x
property float y
property float z
property uchar red
property uchar green
property uchar blue
end_header
0.681314 0.135489 -0.143994 0 255 0
0.686577 0.13501 -0.144886 5 249 0
0.690131 0.13136 -0.145315 10 244 0
0.69544 0.129023 -0.145225 15 239 0
0.696848 0.123555 -0.144545 21 233 0
0.697999 0.118126 -0.143222 26 228 0
0.695936 0.1131 -0.141781 31 223 0
0.692818 0.108274 -0.140399 37 217 0
0.68834 0.104664 -0.139154 42 212 0
0.683029 0.10573 -0.138436 47 207 0
0.67722 0.106854 -0.138253 53 201 0
0.672838 0.110821 -0.138655 58 196 0
0.671718 0.116414 -0.139422 63 191 0
0.672347 0.121335 -0.140653 69 185 0
0.675449 0.126026 -0.14174 74 180 0
0.680868 0.128313 -0.142743 79 175 0
0.686591 0.129722 -0.143325 85 169 0
0.691975 0.127888 -0.143543 90 164 0
0.697353 0.125409 -0.143362 95 159 0
0.700966 0.120791 -0.142856 100 154 0
0.702933 0.115218 -0.142286 106 148 0
0.702989 0.109344 -0.141284 111 143 0
0.701591 0.103708 -0.140319 116 138 0
0.697469 0.100329 -0.139131 122 132 0
0.69202 0.0982164 -0.13811 127 127 0
0.686333 0.0988536 -0.13753 132 122 0
0.680924 0.101366 -0.13753 138 116 0
0.678259 0.106461 -0.138256 143 111 0
0.678343 0.111906 -0.139325 148 106 0
0.68048 0.117344 -0.140538 154 100 0
0.684981 0.12091 -0.14177 159 95 0
0.6898 0.123572 -0.142662 164 90 0
0.695641 0.1226 -0.143204 170 84 0
0.701077 0.120292 -0.143387 175 79 0
0.705454 0.11627 -0.143148 180 74 0
0.708516 0.111305 -0.142489 185 69 0
0.710236 0.105703 -0.141366 191 63 0
0.709746 0.100343 -0.139976 196 58 0
0.707131 0.0952042 -0.138445 201 53 0
0.702989 0.0914868 -0.136514 207 47 0
0.697193 0.0909042 -0.135478 212 42 0
0.691253 0.0910919 -0.135031 217 37 0
0.68709 0.0951681 -0.135281 223 31 0
0.685202 0.100449 -0.136122 228 26 0
0.684659 0.105901 -0.137685 233 21 0
0.686917 0.110094 -0.139292 239 15 0
0.690997 0.11331 -0.140775 244 10 0
0.694864 0.115347 -0.14219 249 5 0
0.699923 0.116042 -0.143623 255 0 0
