ply
format ascii 1.0
comment Generated by robot_control PLYWriter
element vertex 13
property float x
property float y
property float z
property uchar red
property uchar green
property uchar blue
end_header
0.504296 0.095579 -0.110218 0 255 0
0.503717 0.100545 -0.111639 21 233 0
0.503428 0.105451 -0.113338 42 212 0
0.503027 0.110328 -0.115096 63 191 0
0.502491 0.115117 -0.11705 85 169 0
0.502044 0.119844 -0.119169 106 148 0
0.501746 0.124512 -0.121444 127 127 0
0.501458 0.129146 -0.123789 148 106 0
0.500954 0.133723 -0.126206 170 84 0
0.500529 0.13831 -0.128621 191 63 0
0.500038 0.142914 -0.130989 212 42 0
0.4997 0.147537 -0.133344 233 21 0
0.499244 0.152203 -0.135595 255 0 0
