ply
format ascii 1.0
comment Generated by robot_control PLYWriter
element vertex 200
property float x
property float y
property float z
property uchar red
property uchar green
property uchar blue
end_header
0.577985 0.0826705 -0.163999 0 255 0
0.577985 0.0826705 -0.163999 1 253 0
0.577985 0.0826705 -0.163999 2 252 0
0.577985 0.0826705 -0.163999 3 251 0
0.577985 0.0826705 -0.163999 5 249 0
0.577985 0.0826705 -0.163999 6 248 0
0.577985 0.0826705 -0.163999 7 247 0
0.577985 0.0826705 -0.163999 8 246 0
0.577985 0.0826705 -0.163999 10 244 0
0.577985 0.0826705 -0.163999 11 243 0
0.577985 0.0826705 -0.163999 12 242 0
0.577985 0.0826705 -0.163999 14 240 0
0.577985 0.0826705 -0.163999 15 239 0
0.577985 0.0826705 -0.163999 16 238 0
0.577985 0.0826705 -0.163999 17 237 0
0.577985 0.0826705 -0.163999 19 235 0
0.577985 0.0826705 -0.163999 20 234 0
0.577985 0.0826705 -0.163999 21 233 0
0.577985 0.0826705 -0.163999 23 231 0
0.577985 0.0826705 -0.163999 24 230 0
0.577985 0.0826705 -0.163999 25 229 0
0.577985 0.0826705 -0.163999 26 228 0
0.577985 0.0826705 -0.163999 28 226 0
0.577985 0.0826705 -0.163999 29 225 0
0.577985 0.0826705 -0.163999 30 224 0
0.577985 0.0826705 -0.163999 32 222 0
0.577985 0.0826705 -0.163999 33 221 0
0.577985 0.0826705 -0.163999 34 220 0
0.577985 0.0826705 -0.163999 35 219 0
0.577985 0.0826705 -0.163999 37 217 0
0.577985 0.0826705 -0.163999 38 216 0
0.577985 0.0826705 -0.163999 39 215 0
0.577985 0.0826705 -0.163999 41 213 0
0.577985 0.0826705 -0.163999 42 212 0
0.577985 0.0826705 -0.163999 43 211 0
0.577985 0.0826705 -0.163999 44 210 0
0.577985 0.0826705 -0.163999 46 208 0
0.577985 0.0826705 -0.163999 47 207 0
0.577985 0.0826705 -0.163999 48 206 0
0.577985 0.0826705 -0.163999 49 205 0
0.577985 0.0826705 -0.163999 51 203 0
0.577985 0.0826705 -0.163999 52 202 0
0.577985 0.0826705 -0.163999 53 201 0
0.577985 0.0826705 -0.163999 55 199 0
0.577985 0.0826705 -0.163999 56 198 0
0.577985 0.0826705 -0.163999 57 197 0
0.577985 0.0826705 -0.163999 58 196 0
0.577985 0.0826705 -0.163999 60 194 0
0.577985 0.0826705 -0.163999 61 193 0
0.577985 0.0826705 -0.163999 62 192 0
0.577985 0.0826705 -0.163999 64 190 0
0.577985 0.0826705 -0.163999 65 189 0
0.577985 0.0826705 -0.163999 66 188 0
0.577985 0.0826705 -0.163999 67 187 0
0.577985 0.0826705 -0.163999 69 185 0
0.577985 0.0826705 -0.163999 70 184 0
0.577985 0.0826705 -0.163999 71 183 0
0.577985 0.0826705 -0.163999 73 181 0
0.577985 0.0826705 -0.163999 74 180 0
0.577985 0.0826705 -0.163999 75 179 0
0.577985 0.0826705 -0.163999 76 178 0
0.577985 0.0826705 -0.163999 78 176 0
0.577985 0.0826705 -0.163999 79 175 0
0.577985 0.0826705 -0.163999 80 174 0
0.577985 0.0826705 -0.163999 82 172 0
0.577985 0.0826705 -0.163999 83 171 0
0.577985 0.0826705 -0.163999 84 170 0
0.577985 0.0826705 -0.163999 85 169 0
0.577985 0.0826705 -0.163999 87 167 0
0.577985 0.0826705 -0.163999 88 166 0
0.577985 0.0826705 -0.163999 89 165 0
0.577985 0.0826705 -0.163999 90 164 0
0.577985 0.0826705 -0.163999 92 162 0
0.577985 0.0826705 -0.163999 93 161 0
0.577985 0.0826705 -0.163999 94 160 0
0.577985 0.0826705 -0.163999 96 158 0
0.577985 0.0826705 -0.163999 97 157 0
0.577985 0.0826705 -0.163999 98 156 0
0.577985 0.0826705 -0.163999 99 155 0
0.577985 0.0826705 -0.163999 101 153 0
0.577985 0.0826705 -0.163999 102 152 0
0.577985 0.0826705 -0.163999 103 151 0
0.577985 0.0826705 -0.163999 105 149 0
0.577985 0.0826705 -0.163999 106 148 0
0.577985 0.0826705 -0.163999 107 147 0
0.577985 0.0826705 -0.163999 108 146 0
0.577985 0.0826705 -0.163999 110 144 0
0.577985 0.0826705 -0.163999 111 143 0
0.577985 0.0826705 -0.163999 112 142 0
0.577985 0.0826705 -0.163999 114 140 0
0.577985 0.0826705 -0.163999 115 139 0
0.577985 0.0826705 -0.163999 116 138 0
0.577985 0.0826705 -0.163999 117 137 0
0.577985 0.0826705 -0.163999 119 135 0
0.577985 0.0826705 -0.163999 120 134 0
0.577985 0.0826705 -0.163999 121 133 0
0.577985 0.0826705 -0.163999 123 131 0
0.577985 0.0826705 -0.163999 124 130 0
0.577985 0.0826705 -0.163999 125 129 0
0.577985 0.0826705 -0.163999 126 128 0
0.577985 0.0826705 -0.163999 128 126 0
0.577985 0.0826705 -0.163999 129 125 0
0.577985 0.0826705 -0.163999 130 124 0
0.577985 0.0826705 -0.163999 131 123 0
0.577985 0.0826705 -0.163999 133 121 0
0.577985 0.0826705 -0.163999 134 120 0
0.577985 0.0826705 -0.163999 135 119 0
0.577985 0.0826705 -0.163999 137 117 0
0.577985 0.0826705 -0.163999 138 116 0
0.577985 0.0826705 -0.163999 139 115 0
0.577985 0.0826705 -0.163999 140 114 0
0.577985 0.0826705 -0.163999 142 112 0
0.577985 0.0826705 -0.163999 143 111 0
0.577985 0.0826705 -0.163999 144 110 0
0.577985 0.0826705 -0.163999 146 108 0
0.577985 0.0826705 -0.163999 147 107 0
0.577985 0.0826705 -0.163999 148 106 0
0.577985 0.0826705 -0.163999 149 105 0
0.577985 0.0826705 -0.163999 151 103 0
0.577985 0.0826705 -0.163999 152 102 0
0.577985 0.0826705 -0.163999 153 101 0
0.577985 0.0826705 -0.163999 155 99 0
0.577985 0.0826705 -0.163999 156 98 0
0.577985 0.0826705 -0.163999 157 97 0
0.577985 0.0826705 -0.163999 158 96 0
0.577985 0.0826705 -0.163999 160 94 0
0.577985 0.0826705 -0.163999 161 93 0
0.577985 0.0826705 -0.163999 162 92 0
0.577985 0.0826705 -0.163999 164 90 0
0.577985 0.0826705 -0.163999 165 89 0
0.577985 0.0826705 -0.163999 166 88 0
0.577985 0.0826705 -0.163999 167 87 0
0.577985 0.0826705 -0.163999 169 85 0
0.577985 0.0826705 -0.163999 170 84 0
0.577985 0.0826705 -0.163999 171 83 0
0.577985 0.0826705 -0.163999 172 82 0
0.577985 0.0826705 -0.163999 174 80 0
0.577985 0.0826705 -0.163999 175 79 0
0.577985 0.0826705 -0.163999 176 78 0
0.577985 0.0826705 -0.163999 178 76 0
0.577985 0.0826705 -0.163999 179 75 0
0.577985 0.0826705 -0.163999 180 74 0
0.577985 0.0826705 -0.163999 181 73 0
0.577985 0.0826705 -0.163999 183 71 0
0.577985 0.0826705 -0.163999 184 70 0
0.577985 0.0826705 -0.163999 185 69 0
0.577985 0.0826705 -0.163999 187 67 0
0.577985 0.0826705 -0.163999 188 66 0
0.577985 0.0826705 -0.163999 189 65 0
0.577985 0.0826705 -0.163999 190 64 0
0.577985 0.0826705 -0.163999 192 62 0
0.577985 0.0826705 -0.163999 193 61 0
0.577985 0.0826705 -0.163999 194 60 0
0.577985 0.0826705 -0.163999 196 58 0
0.577985 0.0826705 -0.163999 197 57 0
0.577985 0.0826705 -0.163999 198 56 0
0.577985 0.0826705 -0.163999 199 55 0
0.577985 0.0826705 -0.163999 201 53 0
0.577985 0.0826705 -0.163999 202 52 0
0.577985 0.0826705 -0.163999 203 51 0
0.577985 0.0826705 -0.163999 205 49 0
0.577985 0.0826705 -0.163999 206 48 0
0.577985 0.0826705 -0.163999 207 47 0
0.577985 0.0826705 -0.163999 208 46 0
0.577985 0.0826705 -0.163999 210 44 0
0.577985 0.0826705 -0.163999 211 43 0
0.577985 0.0826705 -0.163999 212 42 0
0.577985 0.0826705 -0.163999 213 41 0
0.577985 0.0826705 -0.163999 215 39 0
0.577985 0.0826705 -0.163999 216 38 0
0.577985 0.0826705 -0.163999 217 37 0
0.577985 0.0826705 -0.163999 219 35 0
0.577985 0.0826705 -0.163999 220 34 0
0.577985 0.0826705 -0.163999 221 33 0
0.577985 0.0826705 -0.163999 222 32 0
0.577985 0.0826705 -0.163999 224 30 0
0.577985 0.0826705 -0.163999 225 29 0
0.577985 0.0826705 -0.163999 226 28 0
0.577985 0.0826705 -0.163999 228 26 0
0.577985 0.0826705 -0.163999 229 25 0
0.577985 0.0826705 -0.163999 230 24 0
0.577985 0.0826705 -0.163999 231 23 0
0.577985 0.0826705 -0.163999 233 21 0
0.577985 0.0826705 -0.163999 234 20 0
0.577985 0.0826705 -0.163999 235 19 0
0.577985 0.0826705 -0.163999 237 17 0
0.577985 0.0826705 -0.163999 238 16 0
0.577985 0.0826705 -0.163999 239 15 0
0.577985 0.0826705 -0.163999 240 14 0
0.577985 0.0826705 -0.163999 242 12 0
0.577985 0.0826705 -0.163999 243 11 0
0.577985 0.0826705 -0.163999 244 10 0
0.577985 0.0826705 -0.163999 246 8 0
0.577985 0.0826705 -0.163999 247 7 0
0.577985 0.0826705 -0.163999 248 6 0
0.577985 0.0826705 -0.163999 249 5 0
0.577985 0.0826705 -0.163999 251 3 0
0.577985 0.0826705 -0.163999 252 2 0
0.577985 0.0826705 -0.163999 253 1 0
0.577985 0.0826705 -0.163999 255 0 0
