ply
format ascii 1.0
comment Generated by robot_control PLYWriter
element vertex 11
property float x
property float y
property float z
property uchar red
property uchar green
property uchar blue
end_header
0.526601 -0.253314 -0.102156 0 255 0
0.526435 -0.248456 -0.103149 25 229 0
0.526368 -0.243519 -0.103876 51 204 0
0.526207 -0.238624 -0.10314 76 178 0
0.526158 -0.233849 -0.101713 102 153 0
0.526229 -0.229116 -0.100128 127 127 0
0.526341 -0.224322 -0.0987579 153 101 0
0.52641 -0.219417 -0.097952 178 76 0
0.526456 -0.214446 -0.0980245 204 50 0
0.526626 -0.209552 -0.0989909 229 25 0
0.526514 -0.204757 -0.100351 255 0 0
