ply
format ascii 1.0
comment Generated by robot_control PLYWriter
element vertex 32
property float x
property float y
property float z
property uchar red
property uchar green
property uchar blue
end_header
0.573572 0.0893646 -0.153172 0 255 0
0.578093 0.0861267 -0.152537 8 246 0
0.580725 0.0814495 -0.152524 16 238 0
0.580798 0.0758037 -0.152847 24 230 0
0.577955 0.0710613 -0.15327 32 222 0
0.574348 0.0665036 -0.153854 41 213 0
0.570074 0.0626108 -0.154681 49 205 0
0.564281 0.0612487 -0.155367 57 197 0
0.558461 0.0622146 -0.156134 65 189 0
0.553567 0.0655971 -0.156769 74 180 0
0.548929 0.0690663 -0.157446 82 172 0
0.548413 0.0749908 -0.157914 90 164 0
0.546917 0.0806661 -0.158232 98 156 0
0.548868 0.0861647 -0.158259 106 148 0
0.552868 0.090527 -0.157999 115 139 0
0.558517 0.0926647 -0.157589 123 131 0
0.564012 0.091801 -0.157137 131 123 0
0.568684 0.0887455 -0.156468 139 115 0
0.569765 0.0829341 -0.155985 148 106 0
0.569972 0.0775292 -0.155651 156 98 0
0.566753 0.0724218 -0.155495 164 90 0
0.56262 0.0680266 -0.155805 172 82 0
0.557476 0.0653085 -0.156587 180 74 0
0.551554 0.0651602 -0.157665 189 65 0
0.545902 0.0669599 -0.158685 197 57 0
0.541566 0.0708688 -0.159875 205 49 0
0.537878 0.0754931 -0.161098 213 41 0
0.536174 0.0810403 -0.162179 222 32 0
0.538 0.086625 -0.163097 230 24 0
0.540887 0.0916144 -0.163625 238 16 0
0.544855 0.0952706 -0.163354 246 8 0
0.550296 0.0960125 -0.162667 255 0 0
