ply
format ascii 1.0
comment Generated by robot_control PLYWriter
element vertex 129
property float x
property float y
property float z
property uchar red
property uchar green
property uchar blue
end_header
0.64662 0.110277 -0.111015 0 255 0
0.649682 0.107861 -0.110742 1 253 0
0.653507 0.105227 -0.109959 3 251 0
0.655185 0.100339 -0.10904 5 249 0
0.655569 0.0956591 -0.108104 7 247 0
0.653222 0.0908534 -0.107504 9 245 0
0.648791 0.0872643 -0.106814 11 243 0
0.643224 0.0855558 -0.106688 13 241 0
0.637592 0.0864965 -0.106838 15 239 0
0.632283 0.0887301 -0.107256 17 237 0
0.628562 0.0932482 -0.108004 19 235 0
0.625289 0.098195 -0.108793 21 233 0
0.62448 0.103839 -0.109741 23 231 0
0.625463 0.10949 -0.110578 25 229 0
0.629002 0.114164 -0.111419 27 227 0
0.632859 0.117331 -0.112145 29 225 0
0.638328 0.119619 -0.112455 31 223 0
0.644142 0.11934 -0.112562 33 221 0
0.648559 0.116646 -0.112189 35 219 0
0.653048 0.112836 -0.111461 37 217 0
0.654393 0.107298 -0.110536 39 215 0
0.653062 0.101712 -0.109728 41 213 0
0.648945 0.0974878 -0.109026 43 211 0
0.64353 0.0958731 -0.10864 45 209 0
0.637547 0.0958591 -0.108713 47 207 0
0.632207 0.0982082 -0.109186 49 205 0
0.627764 0.102091 -0.109745 51 203 0
0.625014 0.107315 -0.110631 53 201 0
0.624646 0.113111 -0.111677 55 199 0
0.625905 0.118473 -0.112664 57 197 0
0.628715 0.123558 -0.113608 59 195 0
0.632635 0.12781 -0.114208 61 193 0
0.638378 0.128585 -0.114566 63 191 0
0.643701 0.128317 -0.114671 65 189 0
0.648998 0.125617 -0.114473 67 187 0
0.652426 0.120845 -0.113848 69 185 0
0.652896 0.115109 -0.112842 71 183 0
0.650825 0.109771 -0.111928 73 181 0
0.645886 0.106686 -0.11143 75 179 0
0.640082 0.105664 -0.11117 77 177 0
0.634199 0.106049 -0.111337 79 175 0
0.629022 0.109002 -0.111825 81 173 0
0.625411 0.113463 -0.112684 83 171 0
0.622679 0.118694 -0.113686 85 169 0
0.622347 0.124492 -0.114615 87 167 0
0.624586 0.129705 -0.115776 89 165 0
0.629323 0.133266 -0.11649 91 163 0
0.63339 0.137483 -0.117167 93 161 0
0.63902 0.138935 -0.11759 95 159 0
0.644491 0.136842 -0.117587 97 157 0
0.649424 0.133481 -0.1172 99 155 0
0.652612 0.129401 -0.116521 101 153 0
0.653027 0.123514 -0.115618 103 151 0
0.649766 0.119041 -0.114646 105 149 0
0.644542 0.116251 -0.114092 107 147 0
0.638793 0.114919 -0.113854 109 145 0
0.632811 0.114931 -0.113977 111 143 0
0.628174 0.118655 -0.114424 113 141 0
0.62422 0.122848 -0.115544 115 139 0
0.622396 0.128373 -0.116585 117 137 0
0.622495 0.134199 -0.117929 119 135 0
0.624529 0.139413 -0.11914 121 133 0
0.627861 0.144273 -0.120141 123 131 0
0.633042 0.146663 -0.120923 125 129 0
0.638913 0.147651 -0.121301 127 127 0
0.64458 0.14702 -0.121213 129 125 0
0.648175 0.14242 -0.120749 131 123 0
0.65039 0.137715 -0.119704 133 121 0
0.650203 0.131802 -0.118801 135 119 0
0.646874 0.127258 -0.117575 137 117 0
0.64165 0.124435 -0.116915 139 115 0
0.635949 0.124078 -0.116749 141 113 0
0.630416 0.126282 -0.117216 143 111 0
0.625684 0.12932 -0.118145 145 109 0
0.622373 0.134177 -0.11925 147 107 0
0.620953 0.139601 -0.120514 149 105 0
0.621105 0.145371 -0.122091 151 103 0
0.6241 0.150085 -0.1235 153 101 0
0.628625 0.153819 -0.124641 155 99 0
0.634085 0.155976 -0.125572 157 97 0
0.639685 0.157281 -0.125909 159 95 0
0.644851 0.154718 -0.12572 161 93 0
0.649097 0.15071 -0.124836 163 91 0
0.650744 0.145294 -0.123667 165 89 0
0.648488 0.140182 -0.122069 167 87 0
0.644514 0.136393 -0.120948 169 85 0
0.639262 0.13365 -0.120249 171 83 0
0.633411 0.13377 -0.120341 173 81 0
0.628007 0.135898 -0.121036 175 79 0
0.624096 0.140277 -0.12212 177 77 0
0.620986 0.145029 -0.123807 179 75 0
0.618828 0.150473 -0.12505 181 73 0
0.620875 0.155835 -0.126587 183 71 0
0.624054 0.160543 -0.128408 185 69 0
0.627688 0.165049 -0.129803 187 67 0
0.633252 0.165778 -0.130643 189 65 0
0.639231 0.165743 -0.130798 191 63 0
0.644675 0.163655 -0.130319 193 61 0
0.64794 0.158984 -0.129071 195 59 0
0.648626 0.153359 -0.127637 197 57 0
0.646926 0.14799 -0.125934 199 55 0
0.642357 0.144491 -0.124618 201 53 0
0.636646 0.143707 -0.123991 203 51 0
0.630764 0.14295 -0.124206 205 49 0
0.625979 0.145498 -0.124869 207 47 0
0.622173 0.149876 -0.126085 209 45 0
0.620604 0.155115 -0.127672 211 43 0
0.618197 0.160179 -0.129329 213 41 0
0.620439 0.165183 -0.131211 215 39 0
0.623398 0.170009 -0.132679 217 37 0
0.627764 0.173663 -0.134034 219 35 0
0.63304 0.176065 -0.134575 221 33 0
0.638784 0.174702 -0.134556 223 31 0
0.643873 0.172004 -0.134141 225 29 0
0.647896 0.167759 -0.133054 227 27 0
0.648165 0.162285 -0.130954 229 25 0
0.644843 0.157556 -0.129555 231 23 0
0.640582 0.153833 -0.128327 233 21 0
0.63582 0.151094 -0.127668 235 19 0
0.630939 0.153972 -0.12751 237 17 0
0.625296 0.154868 -0.128193 239 15 0
0.621511 0.158454 -0.129921 241 13 0
0.61887 0.163115 -0.131291 243 11 0
0.618339 0.168526 -0.133125 245 9 0
0.618403 0.173782 -0.135223 247 7 0
0.620176 0.178747 -0.13648 249 5 0
0.623376 0.181261 -0.137463 251 3 0
0.627456 0.183344 -0.138057 253 1 0
0.632757 0.184373 -0.138414 255 0 0
