ply
format ascii 1.0
comment Generated by robot_control PLYWriter
element vertex 13
property float x
property float y
property float z
property uchar red
property uchar green
property uchar blue
end_header
0.581083 0.0390816 -0.0408401 0 255 0
0.581075 0.0340871 -0.0413203 21 233 0
0.58123 0.0290869 -0.0416751 42 212 0
0.58138 0.024082 -0.0419998 63 191 0
0.581529 0.0190811 -0.0423831 85 169 0
0.58169 0.0140786 -0.0427391 106 148 0
0.581857 0.00907087 -0.043007 127 127 0
0.582006 0.00405876 -0.043192 148 106 0
0.582154 -0.000956067 -0.0432759 170 84 0
0.582321 -0.00597093 -0.0432468 191 63 0
0.582483 -0.0109848 -0.0431364 212 42 0
0.582482 -0.0160017 -0.0430834 233 21 0
0.582487 -0.0210133 -0.042837 255 0 0
