ply
format ascii 1.0
comment Generated by robot_control PLYWriter
element vertex 200
property float x
property float y
property float z
property uchar red
property uchar green
property uchar blue
end_header
0.655685 -0.186705 -0.138586 0 255 0
0.655685 -0.186705 -0.138586 1 253 0
0.655685 -0.186705 -0.138586 2 252 0
0.655685 -0.186705 -0.138586 3 251 0
0.655685 -0.186705 -0.138586 5 249 0
0.655685 -0.186705 -0.138586 6 248 0
0.655685 -0.186705 -0.138586 7 247 0
0.655685 -0.186705 -0.138586 8 246 0
0.655685 -0.186705 -0.138586 10 244 0
0.655685 -0.186705 -0.138586 11 243 0
0.655685 -0.186705 -0.138586 12 242 0
0.655685 -0.186705 -0.138586 14 240 0
0.655685 -0.186705 -0.138586 15 239 0
0.655685 -0.186705 -0.138586 16 238 0
0.655685 -0.186705 -0.138586 17 237 0
0.655685 -0.186705 -0.138586 19 235 0
0.655685 -0.186705 -0.138586 20 234 0
0.655685 -0.186705 -0.138586 21 233 0
0.655685 -0.186705 -0.138586 23 231 0
0.655685 -0.186705 -0.138586 24 230 0
0.655685 -0.186705 -0.138586 25 229 0
0.655685 -0.186705 -0.138586 26 228 0
0.655685 -0.186705 -0.138586 28 226 0
0.655685 -0.186705 -0.138586 29 225 0
0.655685 -0.186705 -0.138586 30 224 0
0.655685 -0.186705 -0.138586 32 222 0
0.655685 -0.186705 -0.138586 33 221 0
0.655685 -0.186705 -0.138586 34 220 0
0.655685 -0.186705 -0.138586 35 219 0
0.655685 -0.186705 -0.138586 37 217 0
0.655685 -0.186705 -0.138586 38 216 0
0.655685 -0.186705 -0.138586 39 215 0
0.655685 -0.186705 -0.138586 41 213 0
0.655685 -0.186705 -0.138586 42 212 0
0.655685 -0.186705 -0.138586 43 211 0
0.655685 -0.186705 -0.138586 44 210 0
0.655685 -0.186705 -0.138586 46 208 0
0.655685 -0.186705 -0.138586 47 207 0
0.655685 -0.186705 -0.138586 48 206 0
0.655685 -0.186705 -0.138586 49 205 0
0.655685 -0.186705 -0.138586 51 203 0
0.655685 -0.186705 -0.138586 52 202 0
0.655685 -0.186705 -0.138586 53 201 0
0.655685 -0.186705 -0.138586 55 199 0
0.655685 -0.186705 -0.138586 56 198 0
0.655685 -0.186705 -0.138586 57 197 0
0.655685 -0.186705 -0.138586 58 196 0
0.655685 -0.186705 -0.138586 60 194 0
0.655685 -0.186705 -0.138586 61 193 0
0.655685 -0.186705 -0.138586 62 192 0
0.655685 -0.186705 -0.138586 64 190 0
0.655685 -0.186705 -0.138586 65 189 0
0.655685 -0.186705 -0.138586 66 188 0
0.655685 -0.186705 -0.138586 67 187 0
0.655685 -0.186705 -0.138586 69 185 0
0.655685 -0.186705 -0.138586 70 184 0
0.655685 -0.186705 -0.138586 71 183 0
0.655685 -0.186705 -0.138586 73 181 0
0.655685 -0.186705 -0.138586 74 180 0
0.655685 -0.186705 -0.138586 75 179 0
0.655685 -0.186705 -0.138586 76 178 0
0.655685 -0.186705 -0.138586 78 176 0
0.655685 -0.186705 -0.138586 79 175 0
0.655685 -0.186705 -0.138586 80 174 0
0.655685 -0.186705 -0.138586 82 172 0
0.655685 -0.186705 -0.138586 83 171 0
0.655685 -0.186705 -0.138586 84 170 0
0.655685 -0.186705 -0.138586 85 169 0
0.655685 -0.186705 -0.138586 87 167 0
0.655685 -0.186705 -0.138586 88 166 0
0.655685 -0.186705 -0.138586 89 165 0
0.655685 -0.186705 -0.138586 90 164 0
0.655685 -0.186705 -0.138586 92 162 0
0.655685 -0.186705 -0.138586 93 161 0
0.655685 -0.186705 -0.138586 94 160 0
0.655685 -0.186705 -0.138586 96 158 0
0.655685 -0.186705 -0.138586 97 157 0
0.655685 -0.186705 -0.138586 98 156 0
0.655685 -0.186705 -0.138586 99 155 0
0.655685 -0.186705 -0.138586 101 153 0
0.655685 -0.186705 -0.138586 102 152 0
0.655685 -0.186705 -0.138586 103 151 0
0.655685 -0.186705 -0.138586 105 149 0
0.655685 -0.186705 -0.138586 106 148 0
0.655685 -0.186705 -0.138586 107 147 0
0.655685 -0.186705 -0.138586 108 146 0
0.655685 -0.186705 -0.138586 110 144 0
0.655685 -0.186705 -0.138586 111 143 0
0.655685 -0.186705 -0.138586 112 142 0
0.655685 -0.186705 -0.138586 114 140 0
0.655685 -0.186705 -0.138586 115 139 0
0.655685 -0.186705 -0.138586 116 138 0
0.655685 -0.186705 -0.138586 117 137 0
0.655685 -0.186705 -0.138586 119 135 0
0.655685 -0.186705 -0.138586 120 134 0
0.655685 -0.186705 -0.138586 121 133 0
0.655685 -0.186705 -0.138586 123 131 0
0.655685 -0.186705 -0.138586 124 130 0
0.655685 -0.186705 -0.138586 125 129 0
0.655685 -0.186705 -0.138586 126 128 0
0.655685 -0.186705 -0.138586 128 126 0
0.655685 -0.186705 -0.138586 129 125 0
0.655685 -0.186705 -0.138586 130 124 0
0.655685 -0.186705 -0.138586 131 123 0
0.655685 -0.186705 -0.138586 133 121 0
0.655685 -0.186705 -0.138586 134 120 0
0.655685 -0.186705 -0.138586 135 119 0
0.655685 -0.186705 -0.138586 137 117 0
0.655685 -0.186705 -0.138586 138 116 0
0.655685 -0.186705 -0.138586 139 115 0
0.655685 -0.186705 -0.138586 140 114 0
0.655685 -0.186705 -0.138586 142 112 0
0.655685 -0.186705 -0.138586 143 111 0
0.655685 -0.186705 -0.138586 144 110 0
0.655685 -0.186705 -0.138586 146 108 0
0.655685 -0.186705 -0.138586 147 107 0
0.655685 -0.186705 -0.138586 148 106 0
0.655685 -0.186705 -0.138586 149 105 0
0.655685 -0.186705 -0.138586 151 103 0
0.655685 -0.186705 -0.138586 152 102 0
0.655685 -0.186705 -0.138586 153 101 0
0.655685 -0.186705 -0.138586 155 99 0
0.655685 -0.186705 -0.138586 156 98 0
0.655685 -0.186705 -0.138586 157 97 0
0.655685 -0.186705 -0.138586 158 96 0
0.655685 -0.186705 -0.138586 160 94 0
0.655685 -0.186705 -0.138586 161 93 0
0.655685 -0.186705 -0.138586 162 92 0
0.655685 -0.186705 -0.138586 164 90 0
0.655685 -0.186705 -0.138586 165 89 0
0.655685 -0.186705 -0.138586 166 88 0
0.655685 -0.186705 -0.138586 167 87 0
0.655685 -0.186705 -0.138586 169 85 0
0.655685 -0.186705 -0.138586 170 84 0
0.655685 -0.186705 -0.138586 171 83 0
0.655685 -0.186705 -0.138586 172 82 0
0.655685 -0.186705 -0.138586 174 80 0
0.655685 -0.186705 -0.138586 175 79 0
0.655685 -0.186705 -0.138586 176 78 0
0.655685 -0.186705 -0.138586 178 76 0
0.655685 -0.186705 -0.138586 179 75 0
0.655685 -0.186705 -0.138586 180 74 0
0.655685 -0.186705 -0.138586 181 73 0
0.655685 -0.186705 -0.138586 183 71 0
0.655685 -0.186705 -0.138586 184 70 0
0.655685 -0.186705 -0.138586 185 69 0
0.655685 -0.186705 -0.138586 187 67 0
0.655685 -0.186705 -0.138586 188 66 0
0.655685 -0.186705 -0.138586 189 65 0
0.655685 -0.186705 -0.138586 190 64 0
0.655685 -0.186705 -0.138586 192 62 0
0.655685 -0.186705 -0.138586 193 61 0
0.655685 -0.186705 -0.138586 194 60 0
0.655685 -0.186705 -0.138586 196 58 0
0.655685 -0.186705 -0.138586 197 57 0
0.655685 -0.186705 -0.138586 198 56 0
0.655685 -0.186705 -0.138586 199 55 0
0.655685 -0.186705 -0.138586 201 53 0
0.655685 -0.186705 -0.138586 202 52 0
0.655685 -0.186705 -0.138586 203 51 0
0.655685 -0.186705 -0.138586 205 49 0
0.655685 -0.186705 -0.138586 206 48 0
0.655685 -0.186705 -0.138586 207 47 0
0.655685 -0.186705 -0.138586 208 46 0
0.655685 -0.186705 -0.138586 210 44 0
0.655685 -0.186705 -0.138586 211 43 0
0.655685 -0.186705 -0.138586 212 42 0
0.655685 -0.186705 -0.138586 213 41 0
0.655685 -0.186705 -0.138586 215 39 0
0.655685 -0.186705 -0.138586 216 38 0
0.655685 -0.186705 -0.138586 217 37 0
0.655685 -0.186705 -0.138586 219 35 0
0.655685 -0.186705 -0.138586 220 34 0
0.655685 -0.186705 -0.138586 221 33 0
0.655685 -0.186705 -0.138586 222 32 0
0.655685 -0.186705 -0.138586 224 30 0
0.655685 -0.186705 -0.138586 225 29 0
0.655685 -0.186705 -0.138586 226 28 0
0.655685 -0.186705 -0.138586 228 26 0
0.655685 -0.186705 -0.138586 229 25 0
0.655685 -0.186705 -0.138586 230 24 0
0.655685 -0.186705 -0.138586 231 23 0
0.655685 -0.186705 -0.138586 233 21 0
0.655685 -0.186705 -0.138586 234 20 0
0.655685 -0.186705 -0.138586 235 19 0
0.655685 -0.186705 -0.138586 237 17 0
0.655685 -0.186705 -0.138586 238 16 0
0.655685 -0.186705 -0.138586 239 15 0
0.655685 -0.186705 -0.138586 240 14 0
0.655685 -0.186705 -0.138586 242 12 0
0.655685 -0.186705 -0.138586 243 11 0
0.655685 -0.186705 -0.138586 244 10 0
0.655685 -0.186705 -0.138586 246 8 0
0.655685 -0.186705 -0.138586 247 7 0
0.655685 -0.186705 -0.138586 248 6 0
0.655685 -0.186705 -0.138586 249 5 0
0.655685 -0.186705 -0.138586 251 3 0
0.655685 -0.186705 -0.138586 252 2 0
0.655685 -0.186705 -0.138586 253 1 0
0.655685 -0.186705 -0.138586 255 0 0
