ply
format ascii 1.0
comment Generated by robot_control PLYWriter
element vertex 10
property float x
property float y
property float z
property uchar red
property uchar green
property uchar blue
end_header
0.570941 -0.318197 -0.0990781 0 255 0
0.570628 -0.323089 -0.100512 28 226 0
0.570547 -0.328015 -0.101883 56 198 0
0.570229 -0.33297 -0.10311 85 169 0
0.569891 -0.337982 -0.104078 113 141 0
0.569543 -0.34302 -0.104893 141 113 0
0.569495 -0.348085 -0.105607 170 84 0
0.569161 -0.353157 -0.106182 198 56 0
0.569153 -0.358265 -0.106473 226 28 0
0.569142 -0.363363 -0.106897 255 0 0
