ply
format ascii 1.0
comment Generated by robot_control PLYWriter
element vertex 48
property float x
property float y
property float z
property uchar red
property uchar green
property uchar blue
end_header
0.676655 -0.232337 -0.115096 0 255 0
0.681617 -0.233877 -0.115508 5 249 0
0.686545 -0.23551 -0.115646 10 244 0
0.690816 -0.238635 -0.115314 16 238 0
0.692481 -0.244174 -0.11469 21 233 0
0.692651 -0.250066 -0.11378 27 227 0
0.691721 -0.255713 -0.112934 32 222 0
0.688176 -0.259428 -0.111915 37 217 0
0.683579 -0.26235 -0.111247 43 211 0
0.678306 -0.259737 -0.111056 48 206 0
0.672955 -0.257009 -0.111188 54 200 0
0.670447 -0.251921 -0.111636 59 195 0
0.670659 -0.245975 -0.112464 65 189 0
0.672407 -0.240622 -0.113291 70 184 0
0.675958 -0.235863 -0.114122 75 179 0
0.681313 -0.234816 -0.114835 81 173 0
0.686691 -0.232633 -0.115399 86 168 0
0.692199 -0.235018 -0.115671 92 162 0
0.697656 -0.237243 -0.115805 97 157 0
0.700707 -0.2424 -0.115622 103 151 0
0.702779 -0.247838 -0.115298 108 146 0
0.703336 -0.253793 -0.114741 113 141 0
0.699263 -0.257891 -0.113978 119 135 0
0.694624 -0.261627 -0.113349 124 130 0
0.688924 -0.262439 -0.112865 130 124 0
0.684227 -0.259008 -0.112734 135 119 0
0.680721 -0.254137 -0.112967 141 113 0
0.678752 -0.248599 -0.113454 146 108 0
0.680965 -0.243068 -0.114176 151 103 0
0.683546 -0.238102 -0.114981 157 97 0
0.688937 -0.235695 -0.116003 162 92 0
0.694731 -0.23517 -0.117107 168 86 0
0.700678 -0.234601 -0.117686 173 81 0
0.705619 -0.237959 -0.118063 179 75 0
0.71037 -0.241551 -0.118093 184 70 0
0.712496 -0.247031 -0.117844 189 65 0
0.711087 -0.252737 -0.117193 195 59 0
0.710161 -0.258497 -0.116379 200 54 0
0.705085 -0.2614 -0.115337 206 48 0
0.699388 -0.262012 -0.113998 211 43 0
0.6942 -0.25944 -0.113329 217 37 0
0.690434 -0.25526 -0.113287 222 32 0
0.688635 -0.24998 -0.113767 227 27 0
0.690121 -0.244766 -0.114712 233 21 0
0.692282 -0.239691 -0.116033 238 16 0
0.696473 -0.236823 -0.117146 244 10 0
0.700675 -0.234589 -0.118494 249 5 0
0.705817 -0.23401 -0.119714 255 0 0
