ply
format ascii 1.0
comment Generated by robot_control PLYWriter
element vertex 13
property float x
property float y
property float z
property uchar red
property uchar green
property uchar blue
end_header
0.587098 0.157264 -0.154256 0 255 0
0.588038 0.153002 -0.151974 21 233 0
0.589097 0.148538 -0.150173 42 212 0
0.590062 0.144033 -0.148428 63 191 0
0.590933 0.139367 -0.1471 85 169 0
0.591872 0.134597 -0.146278 106 148 0
0.592819 0.129786 -0.145746 127 127 0
0.593695 0.124959 -0.145233 148 106 0
0.594561 0.120145 -0.144604 170 84 0
0.595355 0.115339 -0.143834 191 63 0
0.596285 0.110601 -0.142838 212 42 0
0.597219 0.105879 -0.141776 233 21 0
0.598039 0.101275 -0.140228 255 0 0
