ply
format ascii 1.0
comment Generated by robot_control PLYWriter
element vertex 59
property float x
property float y
property float z
property uchar red
property uchar green
property uchar blue
end_header
0.6731 -0.00805445 -0.131083 0 255 0
0.67872 -0.00840975 -0.131241 4 250 0
0.68119 -0.0119002 -0.131382 8 246 0
0.68297 -0.017198 -0.131309 13 241 0
0.682824 -0.0228415 -0.131012 17 237 0
0.678963 -0.0262231 -0.130488 21 233 0
0.673599 -0.0281373 -0.130002 26 228 0
0.6677 -0.0279399 -0.129809 30 224 0
0.662703 -0.0248841 -0.1298 35 219 0
0.658656 -0.0205048 -0.130043 39 215 0
0.656288 -0.0151913 -0.130324 43 211 0
0.656343 -0.00922966 -0.130699 48 206 0
0.65858 -0.00382263 -0.131145 52 202 0
0.662299 0.000628807 -0.131483 57 197 0
0.667542 0.0034656 -0.131794 61 193 0
0.673442 0.00391135 -0.132017 65 189 0
0.678469 0.00124706 -0.132059 70 184 0
0.682215 -0.00335608 -0.131933 74 180 0
0.683061 -0.00909493 -0.131621 79 175 0
0.681218 -0.0146758 -0.131293 83 171 0
0.675998 -0.0174717 -0.131016 87 167 0
0.67013 -0.0180707 -0.130945 92 162 0
0.664681 -0.0160125 -0.131017 96 158 0
0.660189 -0.0127678 -0.131189 101 153 0
0.658373 -0.00716505 -0.131457 105 149 0
0.656841 -0.00143363 -0.131821 109 145 0
0.658265 0.00411217 -0.132269 114 140 0
0.661047 0.00937691 -0.132667 118 136 0
0.665307 0.0131528 -0.133085 123 131 0
0.671122 0.0141174 -0.133355 127 127 0
0.677031 0.0138735 -0.13346 131 123 0
0.681934 0.0105265 -0.133331 136 118 0
0.684625 0.00535622 -0.133055 140 114 0
0.68246 0.000233813 -0.132623 145 109 0
0.678946 -0.00453101 -0.132242 149 105 0
0.673398 -0.00640858 -0.132045 153 101 0
0.667424 -0.00638096 -0.132043 158 96 0
0.663056 -0.00276454 -0.132209 162 92 0
0.659403 0.00186213 -0.132627 167 87 0
0.657105 0.00733773 -0.133038 171 83 0
0.657949 0.0129804 -0.133467 175 79 0
0.660549 0.0183033 -0.134017 180 74 0
0.66442 0.0228048 -0.134546 184 70 0
0.669577 0.0257207 -0.134845 189 65 0
0.67508 0.0245109 -0.135008 193 61 0
0.680578 0.0230014 -0.134897 197 57 0
0.684484 0.0185089 -0.134623 202 52 0
0.684208 0.0129835 -0.134209 206 48 0
0.681837 0.00807381 -0.133636 211 43 0
0.677088 0.00451634 -0.133154 215 39 0
0.671349 0.00371954 -0.132973 219 35 0
0.665901 0.00588255 -0.13307 224 30 0
0.661641 0.00996571 -0.13351 228 26 0
0.658362 0.0146905 -0.133998 233 21 0
0.65844 0.0205976 -0.13484 237 17 0
0.658529 0.026518 -0.135596 241 13 0
0.661244 0.0302402 -0.136208 246 8 0
0.665604 0.0333028 -0.136723 250 4 0
0.670463 0.0352274 -0.137061 255 0 0
