ply
format ascii 1.0
comment Generated by robot_control PLYWriter
element vertex 14
property float x
property float y
property float z
property uchar red
property uchar green
property uchar blue
end_header
0.666951 -0.0265321 -0.0358002 0 255 0
0.666911 -0.0215742 -0.0355778 19 235 0
0.666919 -0.0166116 -0.0356168 39 215 0
0.666858 -0.0116497 -0.0355742 58 196 0
0.666609 -0.00669284 -0.0356325 78 176 0
0.666361 -0.00174028 -0.035838 98 156 0
0.666229 0.00320439 -0.0362531 117 137 0
0.666203 0.00813723 -0.0368069 137 117 0
0.665932 0.0130628 -0.037358 156 98 0
0.665629 0.0179843 -0.0379304 176 78 0
0.665315 0.0228972 -0.0385662 196 58 0
0.665196 0.0278078 -0.0392705 215 39 0
0.665218 0.032706 -0.0400667 235 19 0
0.664746 0.037595 -0.0407453 255 0 0
