ply
format ascii 1.0
comment Generated by robot_control PLYWriter
element vertex 47
property float x
property float y
property float z
property uchar red
property uchar green
property uchar blue
end_header
0.486093 0.155563 -0.141281 0 255 0
0.490857 0.153571 -0.139403 5 249 0
0.494698 0.150816 -0.136977 11 243 0
0.498305 0.146342 -0.135367 16 238 0
0.498261 0.140767 -0.13353 22 232 0
0.496051 0.135582 -0.132023 27 227 0
0.491846 0.131419 -0.131589 33 221 0
0.486798 0.129418 -0.131689 38 216 0
0.480945 0.12964 -0.132729 44 210 0
0.476216 0.132126 -0.134817 49 205 0
0.473135 0.13692 -0.13649 55 199 0
0.474252 0.142593 -0.137386 60 194 0
0.477299 0.147462 -0.138342 66 188 0
0.481678 0.151475 -0.138813 72 182 0
0.487061 0.153939 -0.138641 77 177 0
0.492882 0.155075 -0.138094 83 171 0
0.498507 0.153687 -0.136784 88 166 0
0.503177 0.150452 -0.135556 94 160 0
0.506228 0.14559 -0.134115 99 155 0
0.507126 0.139914 -0.132673 105 149 0
0.505852 0.134483 -0.131459 110 144 0
0.501488 0.130743 -0.130813 116 138 0
0.495896 0.128654 -0.130764 121 133 0
0.490691 0.128427 -0.131456 127 127 0
0.485602 0.131395 -0.13242 133 121 0
0.482681 0.136185 -0.133649 138 116 0
0.483096 0.141973 -0.135042 144 110 0
0.485778 0.146849 -0.136136 149 105 0
0.489609 0.151357 -0.136735 155 99 0
0.495198 0.153463 -0.136734 160 94 0
0.500638 0.154419 -0.136309 166 88 0
0.506208 0.152593 -0.135562 171 83 0
0.511649 0.151268 -0.134416 177 77 0
0.514702 0.146497 -0.132897 182 72 0
0.516972 0.141696 -0.130939 188 66 0
0.516322 0.135921 -0.129603 194 60 0
0.512995 0.13165 -0.128096 199 55 0
0.508825 0.127552 -0.127136 205 49 0
0.503128 0.126236 -0.127256 210 44 0
0.49761 0.128025 -0.128326 216 38 0
0.493904 0.131929 -0.13004 221 33 0
0.491949 0.136676 -0.132014 227 27 0
0.492174 0.14193 -0.133967 232 22 0
0.494584 0.14641 -0.135657 238 16 0
0.498387 0.150871 -0.136586 243 11 0
0.502859 0.152661 -0.137415 249 5 0
0.508509 0.153817 -0.137731 255 0 0
