ply
format ascii 1.0
comment Generated by robot_control PLYWriter
element vertex 16
property float x
property float y
property float z
property uchar red
property uchar green
property uchar blue
end_header
0.587713 -0.369747 -0.0884237 0 255 0
0.592695 -0.371927 -0.0877784 17 238 0
0.594983 -0.377237 -0.0876516 34 221 0
0.596606 -0.382703 -0.0877883 51 204 0
0.594831 -0.388067 -0.0882514 68 187 0
0.591725 -0.392712 -0.0889599 85 169 0
0.586677 -0.395545 -0.0896942 102 153 0
0.581138 -0.396714 -0.0906572 119 135 0
0.575376 -0.396166 -0.0913482 136 118 0
0.571074 -0.392633 -0.0921394 153 101 0
0.568472 -0.387678 -0.0927837 170 84 0
0.56815 -0.381865 -0.0930889 187 67 0
0.56942 -0.376242 -0.0930967 204 50 0
0.572804 -0.371777 -0.092688 221 33 0
0.577973 -0.369487 -0.0920195 238 16 0
0.582854 -0.368196 -0.0907374 255 0 0
