ply
format ascii 1.0
comment Generated by robot_control PLYWriter
element vertex 21
property float x
property float y
property float z
property uchar red
property uchar green
property uchar blue
end_header
0.475587 -0.30876 -0.112752 0 255 0
0.475896 -0.304167 -0.114353 12 242 0
0.476159 -0.299497 -0.115724 25 229 0
0.476296 -0.294864 -0.117227 38 216 0
0.476592 -0.290273 -0.11884 51 204 0
0.476902 -0.285638 -0.120317 63 191 0
0.477151 -0.280918 -0.121507 76 178 0
0.477291 -0.276122 -0.122366 89 165 0
0.477479 -0.271295 -0.123027 102 153 0
0.47766 -0.266459 -0.123615 114 140 0
0.477775 -0.261619 -0.12419 127 127 0
0.477994 -0.256779 -0.124729 140 114 0
0.478196 -0.251942 -0.125297 153 101 0
0.478396 -0.2471 -0.125831 165 89 0
0.478628 -0.24225 -0.126255 178 76 0
0.478849 -0.237389 -0.126547 191 63 0
0.479075 -0.232522 -0.126722 204 50 0
0.4793 -0.227653 -0.126799 216 38 0
0.479525 -0.222791 -0.127017 229 25 0
0.479812 -0.217953 -0.12754 242 12 0
0.480102 -0.213114 -0.128011 255 0 0
