ply
format ascii 1.0
comment Generated by robot_control PLYWriter
element vertex 174
property float x
property float y
property float z
property uchar red
property uchar green
property uchar blue
end_header
0.575022 -0.37891 -0.0666107 0 255 0
0.578669 -0.380498 -0.064611 1 253 0
0.582098 -0.384097 -0.0643847 2 252 0
0.582291 -0.389696 -0.0649574 4 250 0
0.578672 -0.393628 -0.0654306 5 249 0
0.576165 -0.39677 -0.0656569 7 247 0
0.570713 -0.398271 -0.0660718 8 246 0
0.566337 -0.396776 -0.0672507 10 244 0
0.561485 -0.394894 -0.0692442 11 243 0
0.558702 -0.391202 -0.0719571 13 241 0
0.557581 -0.38593 -0.0743652 14 240 0
0.558342 -0.380754 -0.0771645 16 238 0
0.560405 -0.375335 -0.0784642 17 237 0
0.564713 -0.371763 -0.0788184 19 235 0
0.569287 -0.36891 -0.0769048 20 234 0
0.57434 -0.368644 -0.0738979 22 232 0
0.579099 -0.370801 -0.0711414 23 231 0
0.582376 -0.373442 -0.0675428 25 229 0
0.58234 -0.378801 -0.0649995 26 228 0
0.580863 -0.38417 -0.0645374 28 226 0
0.576249 -0.386942 -0.0655037 29 225 0
0.571008 -0.388799 -0.0672837 30 224 0
0.566294 -0.386686 -0.0701555 32 222 0
0.561856 -0.384887 -0.0728161 33 221 0
0.55857 -0.380645 -0.0752888 35 219 0
0.559127 -0.375597 -0.0779213 36 218 0
0.559365 -0.370059 -0.0798539 38 216 0
0.562866 -0.365548 -0.0809185 39 215 0
0.565383 -0.361162 -0.080788 41 213 0
0.57106 -0.359928 -0.0799997 42 212 0
0.576068 -0.358289 -0.0776814 44 210 0
0.580767 -0.36102 -0.075398 45 209 0
0.583225 -0.364505 -0.072163 47 207 0
0.584135 -0.369531 -0.0701009 48 206 0
0.582037 -0.374802 -0.069009 50 204 0
0.577107 -0.377283 -0.0694708 51 203 0
0.572231 -0.378602 -0.0716407 53 201 0
0.566955 -0.37754 -0.0740822 54 200 0
0.562423 -0.374567 -0.076524 56 198 0
0.560148 -0.36946 -0.078523 57 197 0
0.558852 -0.364129 -0.0806762 58 196 0
0.560616 -0.358482 -0.0814241 60 194 0
0.564481 -0.354072 -0.0816163 61 193 0
0.568792 -0.350068 -0.0811845 63 191 0
0.574293 -0.348591 -0.0801073 64 190 0
0.580041 -0.349447 -0.0789072 66 188 0
0.584367 -0.352896 -0.0774794 67 187 0
0.585129 -0.358727 -0.0767115 69 185 0
0.583305 -0.363932 -0.076628 70 184 0
0.578792 -0.36785 -0.0770227 72 182 0
0.573232 -0.369914 -0.0778329 73 181 0
0.567716 -0.368453 -0.0787762 75 179 0
0.563456 -0.364562 -0.080353 76 178 0
0.560512 -0.359895 -0.0821397 78 176 0
0.560491 -0.354033 -0.0833652 79 175 0
0.561903 -0.348317 -0.083878 81 173 0
0.56558 -0.343862 -0.083871 82 172 0
0.569893 -0.339933 -0.0834357 84 170 0
0.575685 -0.339789 -0.0828571 85 169 0
0.581102 -0.34023 -0.0821819 86 168 0
0.584886 -0.34473 -0.0811937 88 166 0
0.586777 -0.35023 -0.0801628 89 165 0
0.583858 -0.355348 -0.0797567 91 163 0
0.579415 -0.358504 -0.0797807 92 162 0
0.573964 -0.360303 -0.0803402 94 160 0
0.568772 -0.357693 -0.0817685 95 159 0
0.563805 -0.354912 -0.0836216 97 157 0
0.562509 -0.349944 -0.0857867 98 156 0
0.560498 -0.344707 -0.0873292 100 154 0
0.561364 -0.339009 -0.0883983 101 153 0
0.564915 -0.33448 -0.0890854 103 151 0
0.569258 -0.330481 -0.0892883 104 150 0
0.574957 -0.32871 -0.0890408 106 148 0
0.580487 -0.329487 -0.0882376 107 147 0
0.585313 -0.332652 -0.0866529 109 145 0
0.586679 -0.338127 -0.0847925 110 144 0
0.586429 -0.34357 -0.0828478 112 142 0
0.582418 -0.347763 -0.0821033 113 141 0
0.577125 -0.350475 -0.0824099 114 140 0
0.571579 -0.349933 -0.0839922 116 138 0
0.566679 -0.346979 -0.0856757 117 137 0
0.56282 -0.342912 -0.0876874 119 135 0
0.562649 -0.337162 -0.0892071 120 134 0
0.563163 -0.331343 -0.0904621 122 132 0
0.564995 -0.326175 -0.0917327 123 131 0
0.568464 -0.321365 -0.0925559 125 129 0
0.573929 -0.319171 -0.0926146 126 128 0
0.579777 -0.319341 -0.0917207 128 126 0
0.584605 -0.322085 -0.0899556 129 125 0
0.587187 -0.327174 -0.0883188 131 123 0
0.588368 -0.332874 -0.0872589 132 122 0
0.584703 -0.337304 -0.0871996 134 120 0
0.579648 -0.340455 -0.0876481 135 119 0
0.573857 -0.33992 -0.0883745 137 117 0
0.568557 -0.337512 -0.0894261 138 116 0
0.565091 -0.333109 -0.0905235 140 114 0
0.563085 -0.327718 -0.0917946 141 113 0
0.563937 -0.321893 -0.0926733 142 112 0
0.565728 -0.316213 -0.0932387 144 110 0
0.570345 -0.313076 -0.0933123 145 109 0
0.57539 -0.309975 -0.0928649 147 107 0
0.580812 -0.309619 -0.0922836 148 106 0
0.5859 -0.312656 -0.0914749 150 104 0
0.588299 -0.31739 -0.0911528 151 103 0
0.587811 -0.3233 -0.091325 153 101 0
0.585276 -0.32869 -0.0918635 154 100 0
0.579771 -0.330791 -0.0922158 156 98 0
0.573807 -0.3305 -0.0925583 157 97 0
0.568346 -0.328343 -0.092857 159 95 0
0.565755 -0.322959 -0.0932433 160 94 0
0.563663 -0.31736 -0.0935524 162 92 0
0.564971 -0.311755 -0.0935109 163 91 0
0.567635 -0.306463 -0.0930617 165 89 0
0.572131 -0.302671 -0.0925324 166 88 0
0.577324 -0.300059 -0.0920664 168 86 0
0.583195 -0.300633 -0.091623 169 85 0
0.587554 -0.304449 -0.0914655 170 84 0
0.590476 -0.30952 -0.09156 172 82 0
0.58925 -0.315161 -0.0918109 173 81 0
0.585318 -0.319353 -0.0922186 175 79 0
0.579561 -0.32061 -0.0926061 176 78 0
0.57367 -0.320271 -0.0929174 178 76 0
0.569023 -0.316643 -0.0931347 179 75 0
0.565991 -0.31151 -0.0931737 181 73 0
0.564853 -0.305775 -0.0930204 182 72 0
0.565072 -0.299801 -0.0926968 184 70 0
0.568366 -0.295307 -0.0922156 185 69 0
0.573119 -0.291896 -0.0916522 187 67 0
0.57872 -0.290259 -0.0912037 188 66 0
0.584692 -0.290037 -0.0908548 190 64 0
0.588874 -0.293954 -0.0906043 191 63 0
0.590919 -0.299327 -0.0905637 193 61 0
0.590185 -0.304994 -0.0907891 194 60 0
0.587123 -0.310123 -0.0911685 196 58 0
0.581702 -0.311623 -0.0916349 197 57 0
0.576329 -0.310841 -0.0920588 198 56 0
0.571162 -0.308147 -0.0923485 200 54 0
0.567434 -0.30347 -0.0923373 201 53 0
0.564824 -0.29819 -0.0921769 203 51 0
0.565537 -0.292384 -0.0918969 204 50 0
0.568381 -0.28713 -0.0915198 206 48 0
0.57238 -0.282769 -0.0908251 207 47 0
0.577911 -0.280772 -0.0901732 209 45 0
0.583698 -0.280856 -0.0896894 210 44 0
0.589043 -0.282713 -0.0894503 212 42 0
0.590675 -0.288052 -0.0894232 213 41 0
0.591216 -0.292342 -0.0896279 215 39 0
0.590672 -0.298112 -0.0900994 216 38 0
0.585862 -0.300466 -0.0907221 218 36 0
0.580875 -0.302777 -0.0913108 219 35 0
0.575428 -0.301091 -0.0916558 221 33 0
0.571338 -0.296814 -0.0918693 222 32 0
0.567091 -0.292613 -0.0918032 224 30 0
0.56645 -0.286919 -0.0914049 225 29 0
0.566464 -0.280971 -0.0907884 226 28 0
0.570518 -0.276647 -0.0901699 228 26 0
0.574619 -0.272369 -0.0893745 229 25 0
0.580165 -0.270957 -0.0887452 231 23 0
0.585865 -0.271408 -0.0882825 232 22 0
0.590715 -0.274372 -0.0879926 234 20 0
0.59296 -0.278069 -0.0880782 235 19 0
0.592966 -0.284043 -0.0884899 237 17 0
0.590186 -0.288512 -0.0891152 238 16 0
0.585753 -0.291561 -0.0900889 240 14 0
0.580467 -0.292612 -0.0908671 241 13 0
0.574851 -0.290928 -0.0912169 243 11 0
0.571181 -0.286321 -0.0912812 244 10 0
0.568788 -0.281482 -0.0908777 246 8 0
0.567491 -0.276913 -0.0904926 247 7 0
0.567717 -0.272939 -0.0901136 249 5 0
0.56912 -0.268512 -0.0896435 250 4 0
0.57221 -0.264583 -0.0889997 252 2 0
0.575863 -0.262471 -0.0885982 253 1 0
0.580557 -0.260646 -0.0880115 255 0 0
