ply
format ascii 1.0
comment Generated by robot_control PLYWriter
element vertex 8
property float x
property float y
property float z
property uchar red
property uchar green
property uchar blue
end_header
0.546975 -0.0798726 -0.12121 0 255 0
0.547026 -0.0846237 -0.120878 36 218 0
0.547124 -0.089382 -0.120523 72 182 0
0.547253 -0.0941344 -0.120094 109 145 0
0.547412 -0.0988771 -0.119575 145 109 0
0.547656 -0.103615 -0.119056 182 72 0
0.547962 -0.108359 -0.118635 218 36 0
0.548308 -0.113111 -0.118376 255 0 0
