ply
format ascii 1.0
comment Generated by robot_control PLYWriter
element vertex 33
property float x
property float y
property float z
property uchar red
property uchar green
property uchar blue
end_header
0.73915 0.132854 -0.139269 0 255 0
0.744262 0.131108 -0.138534 7 247 0
0.748743 0.127622 -0.137598 15 239 0
0.752204 0.123975 -0.136394 23 231 0
0.752664 0.118193 -0.13513 31 223 0
0.750137 0.11315 -0.134143 39 215 0
0.745937 0.109732 -0.133827 47 207 0
0.740025 0.108849 -0.133915 55 199 0
0.734457 0.110278 -0.134538 63 191 0
0.728937 0.112321 -0.135353 71 183 0
0.726972 0.117561 -0.136443 79 175 0
0.724085 0.122492 -0.137665 87 167 0
0.72433 0.128347 -0.138901 95 159 0
0.726308 0.133498 -0.139916 103 151 0
0.730607 0.137599 -0.140622 111 143 0
0.735569 0.140807 -0.141064 119 135 0
0.741399 0.141508 -0.14121 127 127 0
0.747372 0.14147 -0.141068 135 119 0
0.752472 0.138686 -0.140632 143 111 0
0.75519 0.133406 -0.139935 151 103 0
0.754589 0.128073 -0.138877 159 95 0
0.751859 0.122829 -0.137915 167 87 0
0.747945 0.118662 -0.137183 175 79 0
0.742169 0.118168 -0.136925 183 71 0
0.736494 0.120054 -0.137164 191 63 0
0.731058 0.122433 -0.137785 199 55 0
0.728054 0.127398 -0.13899 207 47 0
0.726204 0.132814 -0.140366 215 39 0
0.727353 0.138283 -0.141822 223 31 0
0.728982 0.143498 -0.143424 231 23 0
0.732869 0.147756 -0.145028 239 15 0
0.737775 0.150032 -0.146266 247 7 0
0.742806 0.150912 -0.147278 255 0 0
