ply
format ascii 1.0
comment Generated by robot_control PLYWriter
element vertex 200
property float x
property float y
property float z
property uchar red
property uchar green
property uchar blue
end_header
0.564884 -0.183618 -0.143354 0 255 0
0.564884 -0.183618 -0.143354 1 253 0
0.564884 -0.183618 -0.143354 2 252 0
0.564884 -0.183618 -0.143354 3 251 0
0.564884 -0.183618 -0.143354 5 249 0
0.564884 -0.183618 -0.143354 6 248 0
0.564884 -0.183618 -0.143354 7 247 0
0.564884 -0.183618 -0.143354 8 246 0
0.564884 -0.183618 -0.143354 10 244 0
0.564884 -0.183618 -0.143354 11 243 0
0.564884 -0.183618 -0.143354 12 242 0
0.564884 -0.183618 -0.143354 14 240 0
0.564884 -0.183618 -0.143354 15 239 0
0.564884 -0.183618 -0.143354 16 238 0
0.564884 -0.183618 -0.143354 17 237 0
0.564884 -0.183618 -0.143354 19 235 0
0.564884 -0.183618 -0.143354 20 234 0
0.564884 -0.183618 -0.143354 21 233 0
0.564884 -0.183618 -0.143354 23 231 0
0.564884 -0.183618 -0.143354 24 230 0
0.564884 -0.183618 -0.143354 25 229 0
0.564884 -0.183618 -0.143354 26 228 0
0.564884 -0.183618 -0.143354 28 226 0
0.564884 -0.183618 -0.143354 29 225 0
0.564884 -0.183618 -0.143354 30 224 0
0.564884 -0.183618 -0.143354 32 222 0
0.564884 -0.183618 -0.143354 33 221 0
0.564884 -0.183618 -0.143354 34 220 0
0.564884 -0.183618 -0.143354 35 219 0
0.564884 -0.183618 -0.143354 37 217 0
0.564884 -0.183618 -0.143354 38 216 0
0.564884 -0.183618 -0.143354 39 215 0
0.564884 -0.183618 -0.143354 41 213 0
0.564884 -0.183618 -0.143354 42 212 0
0.564884 -0.183618 -0.143354 43 211 0
0.564884 -0.183618 -0.143354 44 210 0
0.564884 -0.183618 -0.143354 46 208 0
0.564884 -0.183618 -0.143354 47 207 0
0.564884 -0.183618 -0.143354 48 206 0
0.564884 -0.183618 -0.143354 49 205 0
0.564884 -0.183618 -0.143354 51 203 0
0.564884 -0.183618 -0.143354 52 202 0
0.564884 -0.183618 -0.143354 53 201 0
0.564884 -0.183618 -0.143354 55 199 0
0.564884 -0.183618 -0.143354 56 198 0
0.564884 -0.183618 -0.143354 57 197 0
0.564884 -0.183618 -0.143354 58 196 0
0.564884 -0.183618 -0.143354 60 194 0
0.564884 -0.183618 -0.143354 61 193 0
0.564884 -0.183618 -0.143354 62 192 0
0.564884 -0.183618 -0.143354 64 190 0
0.564884 -0.183618 -0.143354 65 189 0
0.564884 -0.183618 -0.143354 66 188 0
0.564884 -0.183618 -0.143354 67 187 0
0.564884 -0.183618 -0.143354 69 185 0
0.564884 -0.183618 -0.143354 70 184 0
0.564884 -0.183618 -0.143354 71 183 0
0.564884 -0.183618 -0.143354 73 181 0
0.564884 -0.183618 -0.143354 74 180 0
0.564884 -0.183618 -0.143354 75 179 0
0.564884 -0.183618 -0.143354 76 178 0
0.564884 -0.183618 -0.143354 78 176 0
0.564884 -0.183618 -0.143354 79 175 0
0.564884 -0.183618 -0.143354 80 174 0
0.564884 -0.183618 -0.143354 82 172 0
0.564884 -0.183618 -0.143354 83 171 0
0.564884 -0.183618 -0.143354 84 170 0
0.564884 -0.183618 -0.143354 85 169 0
0.564884 -0.183618 -0.143354 87 167 0
0.564884 -0.183618 -0.143354 88 166 0
0.564884 -0.183618 -0.143354 89 165 0
0.564884 -0.183618 -0.143354 90 164 0
0.564884 -0.183618 -0.143354 92 162 0
0.564884 -0.183618 -0.143354 93 161 0
0.564884 -0.183618 -0.143354 94 160 0
0.564884 -0.183618 -0.143354 96 158 0
0.564884 -0.183618 -0.143354 97 157 0
0.564884 -0.183618 -0.143354 98 156 0
0.564884 -0.183618 -0.143354 99 155 0
0.564884 -0.183618 -0.143354 101 153 0
0.564884 -0.183618 -0.143354 102 152 0
0.564884 -0.183618 -0.143354 103 151 0
0.564884 -0.183618 -0.143354 105 149 0
0.564884 -0.183618 -0.143354 106 148 0
0.564884 -0.183618 -0.143354 107 147 0
0.564884 -0.183618 -0.143354 108 146 0
0.564884 -0.183618 -0.143354 110 144 0
0.564884 -0.183618 -0.143354 111 143 0
0.564884 -0.183618 -0.143354 112 142 0
0.564884 -0.183618 -0.143354 114 140 0
0.564884 -0.183618 -0.143354 115 139 0
0.564884 -0.183618 -0.143354 116 138 0
0.564884 -0.183618 -0.143354 117 137 0
0.564884 -0.183618 -0.143354 119 135 0
0.564884 -0.183618 -0.143354 120 134 0
0.564884 -0.183618 -0.143354 121 133 0
0.564884 -0.183618 -0.143354 123 131 0
0.564884 -0.183618 -0.143354 124 130 0
0.564884 -0.183618 -0.143354 125 129 0
0.564884 -0.183618 -0.143354 126 128 0
0.564884 -0.183618 -0.143354 128 126 0
0.564884 -0.183618 -0.143354 129 125 0
0.564884 -0.183618 -0.143354 130 124 0
0.564884 -0.183618 -0.143354 131 123 0
0.564884 -0.183618 -0.143354 133 121 0
0.564884 -0.183618 -0.143354 134 120 0
0.564884 -0.183618 -0.143354 135 119 0
0.564884 -0.183618 -0.143354 137 117 0
0.564884 -0.183618 -0.143354 138 116 0
0.564884 -0.183618 -0.143354 139 115 0
0.564884 -0.183618 -0.143354 140 114 0
0.564884 -0.183618 -0.143354 142 112 0
0.564884 -0.183618 -0.143354 143 111 0
0.564884 -0.183618 -0.143354 144 110 0
0.564884 -0.183618 -0.143354 146 108 0
0.564884 -0.183618 -0.143354 147 107 0
0.564884 -0.183618 -0.143354 148 106 0
0.564884 -0.183618 -0.143354 149 105 0
0.564884 -0.183618 -0.143354 151 103 0
0.564884 -0.183618 -0.143354 152 102 0
0.564884 -0.183618 -0.143354 153 101 0
0.564884 -0.183618 -0.143354 155 99 0
0.564884 -0.183618 -0.143354 156 98 0
0.564884 -0.183618 -0.143354 157 97 0
0.564884 -0.183618 -0.143354 158 96 0
0.564884 -0.183618 -0.143354 160 94 0
0.564884 -0.183618 -0.143354 161 93 0
0.564884 -0.183618 -0.143354 162 92 0
0.564884 -0.183618 -0.143354 164 90 0
0.564884 -0.183618 -0.143354 165 89 0
0.564884 -0.183618 -0.143354 166 88 0
0.564884 -0.183618 -0.143354 167 87 0
0.564884 -0.183618 -0.143354 169 85 0
0.564884 -0.183618 -0.143354 170 84 0
0.564884 -0.183618 -0.143354 171 83 0
0.564884 -0.183618 -0.143354 172 82 0
0.564884 -0.183618 -0.143354 174 80 0
0.564884 -0.183618 -0.143354 175 79 0
0.564884 -0.183618 -0.143354 176 78 0
0.564884 -0.183618 -0.143354 178 76 0
0.564884 -0.183618 -0.143354 179 75 0
0.564884 -0.183618 -0.143354 180 74 0
0.564884 -0.183618 -0.143354 181 73 0
0.564884 -0.183618 -0.143354 183 71 0
0.564884 -0.183618 -0.143354 184 70 0
0.564884 -0.183618 -0.143354 185 69 0
0.564884 -0.183618 -0.143354 187 67 0
0.564884 -0.183618 -0.143354 188 66 0
0.564884 -0.183618 -0.143354 189 65 0
0.564884 -0.183618 -0.143354 190 64 0
0.564884 -0.183618 -0.143354 192 62 0
0.564884 -0.183618 -0.143354 193 61 0
0.564884 -0.183618 -0.143354 194 60 0
0.564884 -0.183618 -0.143354 196 58 0
0.564884 -0.183618 -0.143354 197 57 0
0.564884 -0.183618 -0.143354 198 56 0
0.564884 -0.183618 -0.143354 199 55 0
0.564884 -0.183618 -0.143354 201 53 0
0.564884 -0.183618 -0.143354 202 52 0
0.564884 -0.183618 -0.143354 203 51 0
0.564884 -0.183618 -0.143354 205 49 0
0.564884 -0.183618 -0.143354 206 48 0
0.564884 -0.183618 -0.143354 207 47 0
0.564884 -0.183618 -0.143354 208 46 0
0.564884 -0.183618 -0.143354 210 44 0
0.564884 -0.183618 -0.143354 211 43 0
0.564884 -0.183618 -0.143354 212 42 0
0.564884 -0.183618 -0.143354 213 41 0
0.564884 -0.183618 -0.143354 215 39 0
0.564884 -0.183618 -0.143354 216 38 0
0.564884 -0.183618 -0.143354 217 37 0
0.564884 -0.183618 -0.143354 219 35 0
0.564884 -0.183618 -0.143354 220 34 0
0.564884 -0.183618 -0.143354 221 33 0
0.564884 -0.183618 -0.143354 222 32 0
0.564884 -0.183618 -0.143354 224 30 0
0.564884 -0.183618 -0.143354 225 29 0
0.564884 -0.183618 -0.143354 226 28 0
0.564884 -0.183618 -0.143354 228 26 0
0.564884 -0.183618 -0.143354 229 25 0
0.564884 -0.183618 -0.143354 230 24 0
0.564884 -0.183618 -0.143354 231 23 0
0.564884 -0.183618 -0.143354 233 21 0
0.564884 -0.183618 -0.143354 234 20 0
0.564884 -0.183618 -0.143354 235 19 0
0.564884 -0.183618 -0.143354 237 17 0
0.564884 -0.183618 -0.143354 238 16 0
0.564884 -0.183618 -0.143354 239 15 0
0.564884 -0.183618 -0.143354 240 14 0
0.564884 -0.183618 -0.143354 242 12 0
0.564884 -0.183618 -0.143354 243 11 0
0.564884 -0.183618 -0.143354 244 10 0
0.564884 -0.183618 -0.143354 246 8 0
0.564884 -0.183618 -0.143354 247 7 0
0.564884 -0.183618 -0.143354 248 6 0
0.564884 -0.183618 -0.143354 249 5 0
0.564884 -0.183618 -0.143354 251 3 0
0.564884 -0.183618 -0.143354 252 2 0
0.564884 -0.183618 -0.143354 253 1 0
0.564884 -0.183618 -0.143354 255 0 0
