ply
format ascii 1.0
comment Generated by robot_control PLYWriter
element vertex 73
property float x
property float y
property float z
property uchar red
property uchar green
property uchar blue
end_header
0.700982 -0.205764 -0.0161998 0 255 0
0.705644 -0.206617 -0.0172953 3 251 0
0.708984 -0.210067 -0.0181155 7 247 0
0.710562 -0.215211 -0.0187907 10 244 0
0.709358 -0.220547 -0.0186629 14 240 0
0.706584 -0.223085 -0.0178943 17 237 0
0.703121 -0.226731 -0.0167558 21 233 0
0.697215 -0.226369 -0.0157479 24 230 0
0.691556 -0.225028 -0.0148123 28 226 0
0.687192 -0.221026 -0.0140958 31 223 0
0.68467 -0.215684 -0.0138078 35 219 0
0.684598 -0.209682 -0.0137084 38 216 0
0.686132 -0.204012 -0.0139111 42 212 0
0.689958 -0.199508 -0.0145768 46 208 0
0.694775 -0.196057 -0.015371 49 205 0
0.699909 -0.195807 -0.0161624 53 201 0
0.705457 -0.19701 -0.0168153 56 198 0
0.708982 -0.201761 -0.0173507 60 194 0
0.709849 -0.207549 -0.0173146 63 191 0
0.707052 -0.212459 -0.0167567 67 187 0
0.702263 -0.216006 -0.0160115 70 184 0
0.696548 -0.216554 -0.0153345 74 180 0
0.691 -0.214375 -0.014594 77 177 0
0.6871 -0.210412 -0.0140338 81 173 0
0.684786 -0.204878 -0.013736 85 169 0
0.684658 -0.198884 -0.0138266 88 166 0
0.686299 -0.193385 -0.0142765 92 162 0
0.689343 -0.188426 -0.0149343 95 159 0
0.694627 -0.185677 -0.0155933 99 155 0
0.700054 -0.184972 -0.0163753 102 152 0
0.705654 -0.187028 -0.0168912 106 148 0
0.708468 -0.191434 -0.0172865 109 145 0
0.709387 -0.197272 -0.0172671 113 141 0
0.707564 -0.202975 -0.0169514 116 138 0
0.7029 -0.205898 -0.0163494 120 134 0
0.696976 -0.206567 -0.0156082 123 131 0
0.691508 -0.205071 -0.0148808 127 127 0
0.687177 -0.200952 -0.0144673 131 123 0
0.684542 -0.195665 -0.0142431 134 120 0
0.684543 -0.189658 -0.0143775 138 116 0
0.684686 -0.183674 -0.0148266 141 113 0
0.688325 -0.179245 -0.0153778 145 109 0
0.693416 -0.17619 -0.0161108 148 106 0
0.698964 -0.174677 -0.0169213 152 102 0
0.704514 -0.176676 -0.0175179 155 99 0
0.707888 -0.181293 -0.0180256 159 95 0
0.708455 -0.187212 -0.0179007 162 92 0
0.70624 -0.192588 -0.0173044 166 88 0
0.701747 -0.195796 -0.0163069 170 84 0
0.695856 -0.196522 -0.0155368 173 81 0
0.69059 -0.194462 -0.0149525 177 77 0
0.686353 -0.190284 -0.0145007 180 74 0
0.683721 -0.184886 -0.0143751 184 70 0
0.682755 -0.179113 -0.0146637 187 67 0
0.685221 -0.173727 -0.0152344 191 63 0
0.68821 -0.168664 -0.0162143 194 60 0
0.693491 -0.16604 -0.0170612 198 56 0
0.698918 -0.164329 -0.0181461 201 53 0
0.703986 -0.16723 -0.0188004 205 49 0
0.707465 -0.172069 -0.0193311 208 46 0
0.708648 -0.176887 -0.0191601 212 42 0
0.707024 -0.181964 -0.0183703 216 38 0
0.702846 -0.186111 -0.0172688 219 35 0
0.697077 -0.186577 -0.0161936 223 31 0
0.692296 -0.184756 -0.0151104 226 28 0
0.68716 -0.182916 -0.0146361 230 24 0
0.684473 -0.178078 -0.0145088 233 21 0
0.682785 -0.172926 -0.0148979 237 17 0
0.682613 -0.167203 -0.0156096 240 14 0
0.68475 -0.161889 -0.0165525 244 10 0
0.687748 -0.158759 -0.0175322 247 7 0
0.691528 -0.156504 -0.0185356 251 3 0
0.694857 -0.154595 -0.019514 255 0 0
