ply
format ascii 1.0
comment Generated by robot_control PLYWriter
element vertex 13
property float x
property float y
property float z
property uchar red
property uchar green
property uchar blue
end_header
0.548632 0.0447152 -0.0360156 0 255 0
0.548528 0.0395267 -0.0356053 21 233 0
0.548506 0.0343455 -0.0351005 42 212 0
0.548448 0.0291527 -0.034738 63 191 0
0.54839 0.0239571 -0.0344176 85 169 0
0.548337 0.0187563 -0.0341938 106 148 0
0.548327 0.0135514 -0.034105 127 127 0
0.548326 0.00834559 -0.0341006 148 106 0
0.548327 0.00313978 -0.0341112 170 84 0
0.548327 -0.00206572 -0.0341679 191 63 0
0.548322 -0.00727083 -0.0342541 212 42 0
0.548307 -0.0124707 -0.0344998 233 21 0
0.548284 -0.0176736 -0.0346706 255 0 0
