ply
format ascii 1.0
comment Generated by robot_control PLYWriter
element vertex 78
property float x
property float y
property float z
property uchar red
property uchar green
property uchar blue
end_header
0.616257 -0.242455 -0.103724 0 255 0
0.620134 -0.246346 -0.104253 3 251 0
0.622735 -0.251214 -0.104593 6 248 0
0.622526 -0.257086 -0.104924 9 245 0
0.620579 -0.26233 -0.104752 13 241 0
0.618098 -0.266027 -0.103988 16 238 0
0.613068 -0.268002 -0.102692 19 235 0
0.607809 -0.269031 -0.100503 23 231 0
0.602774 -0.266907 -0.0989788 26 228 0
0.598647 -0.262574 -0.0987212 29 225 0
0.600631 -0.257263 -0.0992739 33 221 0
0.603012 -0.252428 -0.10051 36 218 0
0.607991 -0.250273 -0.102072 39 215 0
0.613593 -0.251251 -0.103387 43 211 0
0.618041 -0.255181 -0.104326 46 208 0
0.622679 -0.258891 -0.105081 49 205 0
0.623034 -0.264779 -0.10545 52 202 0
0.62158 -0.270578 -0.105494 56 198 0
0.619013 -0.27589 -0.105215 59 195 0
0.614011 -0.278389 -0.104266 62 192 0
0.608788 -0.280433 -0.10288 66 188 0
0.603878 -0.278229 -0.101079 69 185 0
0.600264 -0.273541 -0.0999752 72 182 0
0.600596 -0.268016 -0.0993265 76 178 0
0.603649 -0.262864 -0.0998797 79 175 0
0.608912 -0.260672 -0.100862 82 172 0
0.614119 -0.262598 -0.1025 86 168 0
0.619167 -0.265658 -0.103495 89 165 0
0.622201 -0.270763 -0.103774 92 162 0
0.622828 -0.276644 -0.103424 96 158 0
0.621546 -0.282229 -0.102668 99 155 0
0.618164 -0.287118 -0.101777 102 152 0
0.613418 -0.290188 -0.100918 105 149 0
0.607522 -0.290157 -0.0997365 109 145 0
0.602724 -0.286821 -0.0986742 112 142 0
0.599669 -0.281874 -0.0987523 115 139 0
0.601308 -0.276413 -0.100281 119 135 0
0.604288 -0.272287 -0.101679 122 132 0
0.609909 -0.271187 -0.102558 125 129 0
0.615338 -0.273685 -0.10228 129 125 0
0.620319 -0.276797 -0.10098 132 122 0
0.622849 -0.282131 -0.100001 135 119 0
0.623159 -0.287788 -0.0980029 139 115 0
0.621578 -0.293262 -0.0961582 142 112 0
0.618513 -0.297752 -0.0938284 145 109 0
0.613193 -0.299454 -0.0918095 149 105 0
0.60749 -0.299782 -0.0908074 152 102 0
0.602265 -0.297116 -0.0917496 155 99 0
0.600721 -0.29167 -0.0936389 158 96 0
0.601527 -0.286384 -0.0962337 162 92 0
0.604997 -0.282454 -0.0986206 165 89 0
0.610985 -0.282344 -0.0991365 168 86 0
0.616382 -0.284649 -0.0983732 172 82 0
0.620679 -0.288291 -0.0969021 175 79 0
0.623114 -0.293557 -0.095284 178 76 0
0.623332 -0.298839 -0.0932825 182 72 0
0.621206 -0.304009 -0.0910241 185 69 0
0.61735 -0.307723 -0.0883444 188 66 0
0.612699 -0.310973 -0.0867937 192 62 0
0.606767 -0.310357 -0.0861427 195 59 0
0.602616 -0.3061 -0.0861158 198 56 0
0.60062 -0.300855 -0.0868527 202 52 0
0.602312 -0.295746 -0.0883161 205 49 0
0.606652 -0.292727 -0.089329 208 46 0
0.612471 -0.292739 -0.089864 211 43 0
0.617668 -0.295349 -0.0902629 215 39 0
0.62141 -0.300042 -0.0900816 218 36 0
0.624156 -0.305278 -0.0894963 221 33 0
0.623435 -0.311081 -0.0889318 225 29 0
0.620978 -0.316334 -0.0882349 228 26 0
0.616027 -0.318697 -0.0874885 231 23 0
0.610545 -0.320295 -0.0864891 235 19 0
0.605615 -0.319557 -0.0847147 238 16 0
0.602131 -0.316244 -0.0838537 241 13 0
0.600615 -0.310934 -0.083457 245 9 0
0.602318 -0.305857 -0.0844237 248 6 0
0.607068 -0.304536 -0.0856564 251 3 0
0.610842 -0.302473 -0.0869659 255 0 0
