ply
format ascii 1.0
comment Generated by robot_control PLYWriter
element vertex 29
property float x
property float y
property float z
property uchar red
property uchar green
property uchar blue
end_header
0.549143 0.0783167 -0.159511 0 255 0
0.552331 0.0759092 -0.156536 9 245 0
0.556045 0.0729101 -0.15355 18 236 0
0.558522 0.0695507 -0.150139 27 227 0
0.559332 0.0653078 -0.14636 36 218 0
0.558314 0.0597789 -0.144463 45 209 0
0.554615 0.0554544 -0.143524 54 200 0
0.549747 0.0525104 -0.143897 63 191 0
0.544214 0.0531761 -0.14594 72 182 0
0.540536 0.0567422 -0.14846 81 173 0
0.539852 0.0612961 -0.150709 91 163 0
0.541753 0.0667714 -0.151957 100 154 0
0.546628 0.0697795 -0.152318 109 145 0
0.551453 0.0726976 -0.151813 118 136 0
0.557078 0.0727187 -0.150235 127 127 0
0.56266 0.0717671 -0.148354 136 118 0
0.566844 0.0687012 -0.14559 145 109 0
0.569706 0.064212 -0.142958 154 100 0
0.570735 0.059067 -0.14048 163 91 0
0.57015 0.0533989 -0.138734 173 81 0
0.565745 0.050322 -0.136948 182 72 0
0.560763 0.047741 -0.136384 191 63 0
0.554855 0.0482353 -0.137006 200 54 0
0.551615 0.0517662 -0.138811 209 45 0
0.551307 0.0568491 -0.141802 218 36 0
0.552775 0.061654 -0.144351 227 27 0
0.556391 0.065491 -0.145901 236 18 0
0.561504 0.0680141 -0.147012 245 9 0
0.566231 0.0695652 -0.146924 255 0 0
