ply
format ascii 1.0
comment Generated by robot_control PLYWriter
element vertex 129
property float x
property float y
property float z
property uchar red
property uchar green
property uchar blue
end_header
0.539364 0.186199 -0.144696 0 255 0
0.542156 0.185195 -0.14327 1 253 0
0.545709 0.183046 -0.141234 3 251 0
0.5481 0.179463 -0.139769 5 249 0
0.54816 0.174346 -0.137496 7 247 0
0.548243 0.169102 -0.135791 9 245 0
0.54621 0.164087 -0.134511 11 243 0
0.543495 0.15973 -0.133712 13 241 0
0.538349 0.157221 -0.133685 15 239 0
0.533079 0.155927 -0.134793 17 237 0
0.52744 0.156936 -0.13652 19 235 0
0.523031 0.158755 -0.138702 21 233 0
0.52123 0.162964 -0.14066 23 231 0
0.520568 0.167437 -0.142079 25 229 0
0.522912 0.172387 -0.142942 27 227 0
0.526568 0.177127 -0.142885 29 225 0
0.532031 0.177863 -0.142145 31 223 0
0.537194 0.178639 -0.140955 33 221 0
0.542023 0.17615 -0.138975 35 219 0
0.546588 0.17334 -0.136815 37 217 0
0.548277 0.167878 -0.135206 39 215 0
0.548451 0.162235 -0.133281 41 213 0
0.54799 0.156447 -0.132097 43 211 0
0.544742 0.151717 -0.131156 45 209 0
0.540206 0.147797 -0.130996 47 207 0
0.534604 0.146254 -0.13141 49 205 0
0.528909 0.145103 -0.132519 51 203 0
0.524534 0.148123 -0.134275 53 201 0
0.520785 0.152209 -0.135835 55 199 0
0.52133 0.157542 -0.137403 57 197 0
0.522879 0.163001 -0.138211 59 195 0
0.527096 0.167224 -0.13831 61 193 0
0.532133 0.168328 -0.137667 63 191 0
0.537692 0.168755 -0.136364 65 189 0
0.543134 0.167214 -0.134577 67 187 0
0.546375 0.163353 -0.132819 69 185 0
0.548574 0.158092 -0.130958 71 183 0
0.548747 0.152303 -0.129403 73 181 0
0.548341 0.146481 -0.128344 75 179 0
0.544814 0.142078 -0.127582 77 177 0
0.539685 0.138981 -0.127336 79 175 0
0.534393 0.136164 -0.127673 81 173 0
0.528639 0.136752 -0.128928 83 171 0
0.524079 0.140038 -0.130598 85 169 0
0.520115 0.143662 -0.131902 87 167 0
0.521169 0.149284 -0.133186 89 165 0
0.52352 0.154744 -0.133923 91 163 0
0.527939 0.158287 -0.133865 93 161 0
0.533591 0.159676 -0.132846 95 159 0
0.539203 0.158854 -0.131352 97 157 0
0.543996 0.155686 -0.129643 99 155 0
0.547959 0.151903 -0.127931 101 153 0
0.548876 0.146327 -0.126245 103 151 0
0.549026 0.140532 -0.124685 105 149 0
0.547152 0.134966 -0.123728 107 147 0
0.542858 0.130982 -0.123173 109 145 0
0.538471 0.126942 -0.123155 111 143 0
0.532643 0.126103 -0.123753 113 141 0
0.526899 0.127105 -0.124958 115 139 0
0.522307 0.130577 -0.126405 117 137 0
0.520525 0.135939 -0.12803 119 135 0
0.521853 0.141533 -0.129065 121 133 0
0.525442 0.146143 -0.129679 123 131 0
0.529721 0.149679 -0.12928 125 129 0
0.535612 0.149952 -0.128169 127 127 0
0.541398 0.149325 -0.126787 129 125 0
0.545031 0.145063 -0.125083 131 123 0
0.548614 0.140397 -0.12388 133 121 0
0.549218 0.134834 -0.122061 135 119 0
0.548283 0.129204 -0.120752 137 117 0
0.545044 0.124249 -0.119901 139 115 0
0.540673 0.120232 -0.119504 141 113 0
0.53537 0.117615 -0.119805 143 111 0
0.529469 0.117371 -0.120744 145 109 0
0.524282 0.118783 -0.121797 147 107 0
0.521162 0.123471 -0.12343 149 105 0
0.520935 0.12915 -0.124514 151 103 0
0.523491 0.134531 -0.125152 153 101 0
0.527218 0.139112 -0.12527 155 99 0
0.533001 0.14036 -0.124641 157 97 0
0.538734 0.139193 -0.123522 159 95 0
0.543866 0.136702 -0.121682 161 93 0
0.546649 0.131706 -0.12003 163 91 0
0.549236 0.126865 -0.118435 165 89 0
0.548665 0.121062 -0.117193 167 87 0
0.547066 0.115911 -0.116451 169 85 0
0.542931 0.111657 -0.116002 171 83 0
0.538825 0.10739 -0.115967 173 81 0
0.532997 0.106341 -0.116445 175 79 0
0.527273 0.107741 -0.117534 177 77 0
0.523253 0.111486 -0.119045 179 75 0
0.52081 0.116519 -0.120411 181 73 0
0.520928 0.122353 -0.121386 183 71 0
0.523919 0.127003 -0.121876 185 69 0
0.52854 0.130742 -0.121722 187 67 0
0.53423 0.131982 -0.121074 189 65 0
0.539472 0.129533 -0.119778 191 63 0
0.544354 0.126853 -0.117862 193 61 0
0.548628 0.123137 -0.116474 195 59 0
0.548701 0.1173 -0.115074 197 57 0
0.548423 0.111401 -0.114024 199 55 0
0.546775 0.105716 -0.113356 201 53 0
0.54349 0.100962 -0.113107 203 51 0
0.538684 0.0974169 -0.113369 205 49 0
0.53287 0.0977579 -0.114179 207 47 0
0.527026 0.0976907 -0.115239 209 45 0
0.523521 0.101991 -0.116931 211 43 0
0.520908 0.107057 -0.117938 213 41 0
0.522215 0.11279 -0.118819 215 39 0
0.525119 0.118009 -0.119051 217 37 0
0.529815 0.12142 -0.118546 219 35 0
0.53556 0.122258 -0.117468 221 33 0
0.540769 0.119915 -0.116293 223 31 0
0.545249 0.116365 -0.114607 225 29 0
0.548515 0.112322 -0.113184 227 27 0
0.548134 0.106492 -0.111878 229 25 0
0.548199 0.100581 -0.110919 231 23 0
0.546318 0.0953526 -0.110576 233 21 0
0.542875 0.0904403 -0.110789 235 19 0
0.538457 0.0872208 -0.111636 237 17 0
0.532789 0.0875968 -0.113289 239 15 0
0.527134 0.0875969 -0.115038 241 13 0
0.523344 0.0916875 -0.116699 243 11 0
0.520669 0.0959422 -0.118131 245 9 0
0.520962 0.101877 -0.118162 247 7 0
0.52359 0.105949 -0.11788 249 5 0
0.526102 0.110712 -0.117222 251 3 0
0.529693 0.111831 -0.116746 253 1 0
0.534709 0.111562 -0.115535 255 0 0
