ply
format ascii 1.0
comment Generated by robot_control PLYWriter
element vertex 32
property float x
property float y
property float z
property uchar red
property uchar green
property uchar blue
end_header
0.513739 0.153829 -0.136536 0 255 0
0.518511 0.151655 -0.135026 8 246 0
0.522242 0.148446 -0.132719 16 238 0
0.522409 0.142819 -0.131175 24 230 0
0.520936 0.137474 -0.129769 32 222 0
0.515811 0.134464 -0.129397 41 213 0
0.510305 0.132183 -0.129613 49 205 0
0.50443 0.132055 -0.13036 57 197 0
0.499577 0.135229 -0.131729 65 189 0
0.494753 0.138269 -0.133532 74 180 0
0.492165 0.143147 -0.135035 82 172 0
0.491227 0.148753 -0.136771 90 164 0
0.492444 0.15445 -0.138049 98 156 0
0.496023 0.159032 -0.13919 106 148 0
0.499932 0.163296 -0.139931 115 139 0
0.505713 0.164691 -0.140244 123 131 0
0.511621 0.163847 -0.140023 131 123 0
0.517002 0.161598 -0.139056 139 115 0
0.520133 0.15682 -0.137928 148 106 0
0.518088 0.151724 -0.13685 156 98 0
0.514396 0.147123 -0.135987 164 90 0
0.509522 0.144165 -0.135672 172 82 0
0.503549 0.144444 -0.135869 180 74 0
0.497762 0.145115 -0.136652 189 65 0
0.493359 0.148883 -0.137742 197 57 0
0.490118 0.153311 -0.139963 205 49 0
0.488888 0.158565 -0.142413 213 41 0
0.488428 0.164013 -0.144817 222 32 0
0.490573 0.168469 -0.147033 230 24 0
0.494508 0.172417 -0.148652 238 16 0
0.498451 0.175344 -0.149587 246 8 0
0.503309 0.175693 -0.149483 255 0 0
