ply
format ascii 1.0
comment Generated by robot_control PLYWriter
element vertex 74
property float x
property float y
property float z
property uchar red
property uchar green
property uchar blue
end_header
0.697956 -0.155994 -0.0199269 0 255 0
0.702314 -0.15779 -0.0204163 3 251 0
0.705497 -0.161588 -0.0206137 6 248 0
0.708166 -0.165773 -0.0205576 10 244 0
0.708789 -0.171296 -0.0201586 13 241 0
0.707654 -0.176864 -0.0191782 17 237 0
0.704012 -0.181397 -0.0179292 20 234 0
0.700252 -0.184935 -0.0165079 24 230 0
0.694713 -0.186782 -0.015536 27 227 0
0.689296 -0.185191 -0.0147503 31 223 0
0.684737 -0.182294 -0.0143144 34 220 0
0.682732 -0.177099 -0.0146081 38 216 0
0.683645 -0.171525 -0.0153548 41 213 0
0.687472 -0.167052 -0.0163222 45 209 0
0.692422 -0.164232 -0.0172011 48 206 0
0.697835 -0.16536 -0.0179198 52 202 0
0.7028 -0.168496 -0.0184688 55 199 0
0.706927 -0.172571 -0.018746 59 195 0
0.709567 -0.177912 -0.0186981 62 192 0
0.708372 -0.183574 -0.018278 66 188 0
0.707027 -0.189135 -0.0176407 69 185 0
0.702606 -0.192781 -0.0168013 73 181 0
0.698639 -0.196325 -0.0158432 76 178 0
0.692725 -0.196462 -0.0151026 80 174 0
0.687705 -0.193603 -0.0144177 83 171 0
0.684532 -0.188711 -0.0141792 87 167 0
0.683972 -0.183985 -0.0144076 90 164 0
0.685188 -0.178392 -0.0150065 94 160 0
0.690476 -0.175723 -0.0157716 97 157 0
0.696085 -0.174595 -0.0166203 101 153 0
0.701469 -0.17704 -0.0172508 104 150 0
0.706381 -0.179999 -0.0176714 108 146 0
0.708414 -0.185291 -0.0178115 111 143 0
0.708463 -0.191263 -0.0176662 115 139 0
0.707539 -0.197117 -0.0172775 118 136 0
0.704794 -0.202353 -0.0167286 122 132 0
0.700242 -0.205847 -0.0160562 125 129 0
0.694445 -0.206794 -0.0153421 129 125 0
0.689234 -0.205081 -0.0145885 132 122 0
0.685024 -0.200879 -0.0140352 136 118 0
0.684545 -0.195033 -0.0139385 139 115 0
0.686238 -0.189464 -0.0142902 143 111 0
0.690649 -0.185772 -0.015099 146 108 0
0.696324 -0.184282 -0.0158458 150 104 0
0.701465 -0.186987 -0.0165505 153 101 0
0.706412 -0.190158 -0.0169925 157 97 0
0.709238 -0.195175 -0.0173214 160 94 0
0.7109 -0.20089 -0.0173503 164 90 0
0.709638 -0.206644 -0.0171405 167 87 0
0.705978 -0.211344 -0.0167721 171 83 0
0.701308 -0.214869 -0.0159568 174 80 0
0.695658 -0.216535 -0.0153249 178 76 0
0.69023 -0.214836 -0.0143762 181 73 0
0.685348 -0.211849 -0.0138952 185 69 0
0.684728 -0.206152 -0.0136458 188 66 0
0.685099 -0.20041 -0.0139357 192 62 0
0.689647 -0.197 -0.0145835 195 59 0
0.694735 -0.194394 -0.0152782 199 55 0
0.700352 -0.195986 -0.0161142 202 52 0
0.705309 -0.199052 -0.0167902 206 48 0
0.708991 -0.203556 -0.0176968 209 45 0
0.710512 -0.209247 -0.0181679 213 41 0
0.709784 -0.215074 -0.018164 216 38 0
0.708038 -0.220611 -0.0176375 220 34 0
0.704073 -0.224661 -0.0168787 223 31 0
0.698633 -0.226486 -0.0160466 227 27 0
0.692769 -0.226234 -0.0149928 230 24 0
0.687944 -0.223834 -0.0140342 234 20 0
0.685235 -0.21907 -0.0136876 237 17 0
0.684554 -0.213322 -0.0135356 241 13 0
0.687561 -0.209406 -0.0134981 244 10 0
0.691038 -0.2068 -0.013791 248 6 0
0.694816 -0.204686 -0.0142216 251 3 0
0.699073 -0.206379 -0.0146809 255 0 0
