ply
format ascii 1.0
comment Generated by robot_control PLYWriter
element vertex 9
property float x
property float y
property float z
property uchar red
property uchar green
property uchar blue
end_header
0.560347 -0.35655 -0.126014 0 255 0
0.560424 -0.361774 -0.125641 31 223 0
0.560365 -0.36696 -0.124899 63 191 0
0.56016 -0.372088 -0.123841 95 159 0
0.559933 -0.377152 -0.122519 127 127 0
0.559614 -0.382119 -0.12088 159 95 0
0.559353 -0.387113 -0.119319 191 63 0
0.559078 -0.392188 -0.118047 223 31 0
0.559044 -0.397305 -0.11694 255 0 0
