ply
format ascii 1.0
comment Generated by robot_control PLYWriter
element vertex 13
property float x
property float y
property float z
property uchar red
property uchar green
property uchar blue
end_header
0.598894 0.0784782 -0.12859 0 255 0
0.59942 0.073736 -0.127919 21 233 0
0.599736 0.0689744 -0.12723 42 212 0
0.60012 0.0642227 -0.126523 63 191 0
0.600758 0.0594878 -0.125874 85 169 0
0.60138 0.0547432 -0.125288 106 148 0
0.601688 0.0499636 -0.124733 127 127 0
0.601969 0.0451793 -0.124204 148 106 0
0.602489 0.0404048 -0.123795 170 84 0
0.60306 0.0356262 -0.123507 191 63 0
0.603602 0.0308383 -0.123348 212 42 0
0.603936 0.0260342 -0.123175 233 21 0
0.604308 0.0212298 -0.123112 255 0 0
