ply
format ascii 1.0
comment Generated by robot_control PLYWriter
element vertex 17
property float x
property float y
property float z
property uchar red
property uchar green
property uchar blue
end_header
0.582073 -0.146043 -0.130451 0 255 0
0.582208 -0.150911 -0.131475 15 239 0
0.582275 -0.155783 -0.132491 31 223 0
0.582489 -0.16067 -0.133402 47 207 0
0.582426 -0.165561 -0.134303 63 191 0
0.582351 -0.170463 -0.13515 79 175 0
0.58235 -0.175391 -0.13584 95 159 0
0.582354 -0.180343 -0.136329 111 143 0
0.58235 -0.185312 -0.136572 127 127 0
0.582306 -0.190277 -0.136393 143 111 0
0.582265 -0.195211 -0.135766 159 95 0
0.582271 -0.200112 -0.134897 175 79 0
0.58227 -0.204998 -0.13395 191 63 0
0.582328 -0.209878 -0.13298 207 47 0
0.582476 -0.214744 -0.131957 223 31 0
0.582453 -0.219496 -0.130486 239 15 0
0.582427 -0.224186 -0.128821 255 0 0
