ply
format ascii 1.0
comment Generated by robot_control PLYWriter
element vertex 8
property float x
property float y
property float z
property uchar red
property uchar green
property uchar blue
end_header
0.596548 -0.0753411 -0.119361 0 255 0
0.597212 -0.0804192 -0.119974 36 218 0
0.597527 -0.085561 -0.120298 72 182 0
0.598333 -0.0906585 -0.120412 109 145 0
0.599105 -0.0957613 -0.120294 145 109 0
0.599661 -0.100888 -0.120052 182 72 0
0.600114 -0.106021 -0.119741 218 36 0
0.60065 -0.111118 -0.119419 255 0 0
