ply
format ascii 1.0
comment Generated by robot_control PLYWriter
element vertex 59
property float x
property float y
property float z
property uchar red
property uchar green
property uchar blue
end_header
0.620426 -0.0026031 -0.106393 0 255 0
0.625619 -0.00257354 -0.105223 4 250 0
0.629422 -0.00521235 -0.104274 8 246 0
0.632936 -0.00948127 -0.10375 13 241 0
0.632924 -0.0154389 -0.103685 17 237 0
0.630298 -0.020635 -0.104062 21 233 0
0.625965 -0.0243177 -0.104676 26 228 0
0.619999 -0.0243247 -0.105526 30 224 0
0.61447 -0.0223224 -0.106123 35 219 0
0.610483 -0.0179015 -0.106911 39 215 0
0.607614 -0.0126414 -0.107516 43 211 0
0.608271 -0.00669916 -0.107822 48 206 0
0.609209 -0.000793861 -0.107915 52 202 0
0.61316 0.00357162 -0.10772 57 197 0
0.617647 0.00705559 -0.10731 61 193 0
0.623076 0.00861747 -0.106705 65 189 0
0.628547 0.00616387 -0.106097 70 184 0
0.633019 0.00282905 -0.105276 74 180 0
0.634548 -0.00292883 -0.104809 79 175 0
0.63119 -0.00784258 -0.104749 83 171 0
0.627891 -0.0126536 -0.105084 87 167 0
0.622032 -0.0134066 -0.105701 92 162 0
0.616685 -0.0118422 -0.10643 96 158 0
0.611904 -0.00823312 -0.106989 101 153 0
0.609264 -0.00325869 -0.107582 105 149 0
0.609262 0.00275194 -0.108063 109 145 0
0.609221 0.00877833 -0.108249 114 140 0
0.61251 0.013668 -0.108296 118 136 0
0.616366 0.0181111 -0.108084 123 131 0
0.622019 0.0195197 -0.1076 127 127 0
0.627773 0.0178931 -0.107138 131 123 0
0.632251 0.0140578 -0.106366 136 118 0
0.634654 0.0088688 -0.105891 140 114 0
0.633659 0.0030728 -0.105826 145 109 0
0.629557 -0.00116852 -0.10612 149 105 0
0.623944 -0.00260133 -0.106602 153 101 0
0.618367 -0.000579433 -0.107206 158 96 0
0.613607 0.00274218 -0.107846 162 92 0
0.610302 0.00776144 -0.108314 167 87 0
0.608406 0.0133789 -0.108729 171 83 0
0.609253 0.0191264 -0.108908 175 79 0
0.613126 0.0236965 -0.108851 180 74 0
0.617219 0.0281052 -0.108597 184 70 0
0.622734 0.0299535 -0.108076 189 65 0
0.628621 0.0294865 -0.107457 193 61 0
0.633095 0.0255146 -0.106857 197 57 0
0.634715 0.019996 -0.106426 202 52 0
0.633412 0.0142165 -0.106403 206 48 0
0.629976 0.0101447 -0.10683 211 43 0
0.624086 0.0089609 -0.107339 215 39 0
0.618256 0.00942776 -0.108152 219 35 0
0.614584 0.0136177 -0.108889 224 30 0
0.610854 0.0181087 -0.109603 228 26 0
0.608532 0.0234634 -0.10999 233 21 0
0.610866 0.0287317 -0.110263 237 17 0
0.61239 0.0342623 -0.110217 241 13 0
0.614813 0.0375999 -0.109851 246 8 0
0.618182 0.0399047 -0.109451 250 4 0
0.622895 0.0411745 -0.108391 255 0 0
