ply
format ascii 1.0
comment Generated by robot_control PLYWriter
element vertex 42
property float x
property float y
property float z
property uchar red
property uchar green
property uchar blue
end_header
0.684573 0.0934753 -0.162137 0 255 0
0.686652 0.0940752 -0.162001 6 248 0
0.692114 0.0934404 -0.161361 12 242 0
0.694011 0.0894328 -0.160702 18 236 0
0.695363 0.0839481 -0.159668 24 230 0
0.692623 0.0794478 -0.158972 31 223 0
0.687419 0.0764559 -0.158553 37 217 0
0.681484 0.0758781 -0.158262 43 211 0
0.675996 0.0775547 -0.158471 49 205 0
0.672557 0.0816544 -0.159129 55 199 0
0.669112 0.0861711 -0.160721 62 192 0
0.668481 0.0920762 -0.161743 68 186 0
0.669777 0.0976146 -0.162629 74 180 0
0.673833 0.101869 -0.163435 80 174 0
0.679425 0.102673 -0.16394 87 167 0
0.685092 0.100636 -0.163864 93 161 0
0.688859 0.0965911 -0.162637 99 155 0
0.688773 0.0907282 -0.161692 105 149 0
0.685336 0.0869318 -0.160253 111 143 0
0.681226 0.0835164 -0.159875 118 136 0
0.675203 0.0835864 -0.160005 124 130 0
0.669548 0.0854953 -0.160559 130 124 0
0.665802 0.0899222 -0.16183 136 118 0
0.663266 0.0950268 -0.163774 143 111 0
0.663226 0.100564 -0.16588 149 105 0
0.666065 0.105005 -0.167752 155 99 0
0.670571 0.108747 -0.169043 161 93 0
0.675996 0.110879 -0.169415 167 87 0
0.680447 0.107348 -0.169017 174 80 0
0.683653 0.10264 -0.167173 180 74 0
0.682121 0.0975746 -0.165256 186 68 0
0.680123 0.0926952 -0.162963 192 62 0
0.674477 0.0913138 -0.161719 199 55 0
0.669047 0.0916838 -0.161638 205 49 0
0.663559 0.0932512 -0.162426 211 43 0
0.659531 0.0968894 -0.163905 217 37 0
0.657549 0.101844 -0.165969 223 31 0
0.656682 0.107212 -0.168122 230 24 0
0.658191 0.110795 -0.171643 236 18 0
0.66065 0.114417 -0.174435 242 12 0
0.664344 0.116218 -0.176885 248 6 0
0.668353 0.117492 -0.179359 255 0 0
