ply
format ascii 1.0
comment Generated by robot_control PLYWriter
element vertex 11
property float x
property float y
property float z
property uchar red
property uchar green
property uchar blue
end_header
0.604712 -0.0825386 -0.122065 0 255 0
0.604696 -0.0773474 -0.121478 25 229 0
0.604349 -0.0721614 -0.120954 51 204 0
0.604108 -0.0669672 -0.120442 76 178 0
0.603868 -0.0617675 -0.119988 102 153 0
0.603621 -0.0565641 -0.119583 127 127 0
0.603379 -0.0513547 -0.119264 153 101 0
0.603145 -0.0461398 -0.119042 178 76 0
0.603022 -0.040919 -0.118917 204 50 0
0.603001 -0.0356968 -0.118763 229 25 0
0.603009 -0.0304728 -0.118798 255 0 0
