ply
format ascii 1.0
comment Generated by robot_control PLYWriter
element vertex 81
property float x
property float y
property float z
property uchar red
property uchar green
property uchar blue
end_header
0.584724 -0.0714204 -0.0830137 0 255 0
0.588333 -0.0727226 -0.0824248 3 251 0
0.590671 -0.0763203 -0.081482 6 248 0
0.592935 -0.0809875 -0.080313 9 245 0
0.594456 -0.0862353 -0.0792084 12 242 0
0.591892 -0.0913279 -0.0785654 15 239 0
0.587451 -0.0950279 -0.078364 19 235 0
0.581909 -0.0965675 -0.0785692 22 232 0
0.576086 -0.0960427 -0.0791113 25 229 0
0.571275 -0.093268 -0.0804024 28 226 0
0.567084 -0.0890412 -0.0812328 31 223 0
0.56516 -0.0837468 -0.0823622 35 219 0
0.565123 -0.0777891 -0.0831624 38 216 0
0.56606 -0.0719753 -0.0837886 41 213 0
0.568436 -0.066563 -0.084186 44 210 0
0.57351 -0.0635563 -0.0844028 47 207 0
0.578866 -0.062245 -0.0844062 51 204 0
0.584855 -0.0622387 -0.0839013 54 200 0
0.590249 -0.0643293 -0.083241 57 197 0
0.593431 -0.0693199 -0.0825624 60 194 0
0.594428 -0.0750091 -0.0818322 63 191 0
0.591909 -0.0804345 -0.0814375 66 188 0
0.587815 -0.0846669 -0.0812595 70 184 0
0.582334 -0.0865382 -0.0814543 73 181 0
0.576338 -0.0865021 -0.0818285 76 178 0
0.571614 -0.0835359 -0.0822806 79 175 0
0.567925 -0.0788426 -0.0828716 82 172 0
0.565109 -0.0736924 -0.0833603 86 168 0
0.565006 -0.0677038 -0.0838503 89 165 0
0.565773 -0.0618452 -0.0841814 92 162 0
0.568927 -0.0569259 -0.0844317 95 159 0
0.573679 -0.053357 -0.0845982 98 156 0
0.579328 -0.0514664 -0.0845201 102 153 0
0.585157 -0.0529232 -0.0843143 105 149 0
0.59067 -0.0545108 -0.0838476 108 146 0
0.593987 -0.0591232 -0.0835518 111 143 0
0.594376 -0.0650266 -0.0833031 114 140 0
0.592362 -0.0706089 -0.0832953 117 137 0
0.587748 -0.0743248 -0.0835817 121 133 0
0.582117 -0.0763497 -0.0838395 124 130 0
0.576154 -0.0760741 -0.0840044 127 127 0
0.571025 -0.0731149 -0.0841907 130 124 0
0.56727 -0.0686065 -0.084396 133 121 0
0.5656 -0.0628587 -0.0846297 137 117 0
0.565159 -0.0569083 -0.0848153 140 114 0
0.566419 -0.0511135 -0.084985 143 111 0
0.570316 -0.0466036 -0.0850383 146 108 0
0.574315 -0.0421165 -0.0849182 149 105 0
0.580266 -0.041984 -0.0846731 153 101 0
0.586016 -0.0430343 -0.0844704 156 98 0
0.59129 -0.0459051 -0.0842894 159 95 0
0.594494 -0.0505868 -0.0840935 162 92 0
0.59451 -0.0565942 -0.0839783 165 89 0
0.592905 -0.0622722 -0.0840375 168 86 0
0.587564 -0.0650227 -0.0841865 172 82 0
0.582073 -0.0668916 -0.0843949 175 79 0
0.576572 -0.0648138 -0.0846367 178 76 0
0.571665 -0.0613683 -0.0849196 181 73 0
0.567656 -0.057269 -0.0851183 184 70 0
0.565612 -0.0516229 -0.0853401 188 66 0
0.565418 -0.045761 -0.0855417 191 63 0
0.568519 -0.0407483 -0.085632 194 60 0
0.571919 -0.0358788 -0.0856373 197 57 0
0.576599 -0.0327715 -0.085553 200 54 0
0.5822 -0.0309354 -0.0852815 204 50 0
0.587946 -0.0322942 -0.0849635 207 47 0
0.592458 -0.0361809 -0.084621 210 44 0
0.594509 -0.0416884 -0.0843539 213 41 0
0.594509 -0.0476867 -0.0839709 216 38 0
0.592457 -0.0531368 -0.0838061 219 35 0
0.587473 -0.0561493 -0.0838403 223 31 0
0.581468 -0.0561281 -0.084079 226 28 0
0.575564 -0.0555707 -0.0844684 229 25 0
0.570376 -0.0526694 -0.0849226 232 22 0
0.567917 -0.0476394 -0.0854715 235 19 0
0.566274 -0.0420554 -0.0859977 239 15 0
0.565172 -0.0364031 -0.0864558 242 12 0
0.567715 -0.0312237 -0.0865797 245 9 0
0.570318 -0.0262753 -0.0865056 248 6 0
0.575362 -0.0237814 -0.0862009 251 3 0
0.580573 -0.0224202 -0.0858699 255 0 0
