ply
format ascii 1.0
comment Generated by robot_control PLYWriter
element vertex 65
property float x
property float y
property float z
property uchar red
property uchar green
property uchar blue
end_header
0.623709 -0.00152165 -0.101981 0 255 0
0.628627 -0.00321222 -0.10127 3 251 0
0.631168 -0.00789668 -0.100719 7 247 0
0.6327 -0.0131446 -0.100157 11 243 0
0.631118 -0.0186612 -0.0999177 15 239 0
0.628117 -0.023061 -0.0999884 19 235 0
0.623256 -0.0265631 -0.100193 23 231 0
0.617856 -0.0247273 -0.100626 27 227 0
0.612079 -0.0240564 -0.101018 31 223 0
0.607905 -0.0198068 -0.10168 35 219 0
0.604151 -0.0153218 -0.102182 39 215 0
0.604187 -0.00935689 -0.102778 43 211 0
0.604244 -0.00337726 -0.103228 47 207 0
0.606745 0.00200783 -0.10358 51 203 0
0.610751 0.00640229 -0.103791 55 199 0
0.615473 0.00984495 -0.103702 59 195 0
0.621458 0.0101314 -0.103476 63 191 0
0.627006 0.00878549 -0.103081 67 187 0
0.631097 0.00455559 -0.102539 71 183 0
0.632802 -0.00102191 -0.102084 75 179 0
0.632587 -0.00695694 -0.101572 79 175 0
0.628798 -0.0111763 -0.101365 83 171 0
0.623648 -0.0142227 -0.101418 87 167 0
0.617797 -0.0142783 -0.101698 91 163 0
0.612289 -0.0119516 -0.102122 95 159 0
0.607847 -0.00837042 -0.102586 99 155 0
0.605297 -0.00297702 -0.103065 103 151 0
0.604289 0.00279319 -0.103596 107 147 0
0.604306 0.00877703 -0.103984 111 143 0
0.606433 0.014283 -0.104344 115 139 0
0.611231 0.0176895 -0.104596 119 135 0
0.61691 0.0196169 -0.104658 123 131 0
0.622397 0.02057 -0.104462 127 127 0
0.62812 0.0188054 -0.104188 131 123 0
0.632049 0.0150272 -0.103878 135 119 0
0.632956 0.00924936 -0.103446 139 115 0
0.632035 0.00341249 -0.103187 143 111 0
0.629154 -0.00179363 -0.103061 147 107 0
0.623625 -0.00314119 -0.103004 151 103 0
0.617638 -0.00324742 -0.103086 155 99 0
0.61208 -0.00151228 -0.103316 159 95 0
0.607584 0.00228052 -0.103655 163 91 0
0.604482 0.00738294 -0.104094 167 87 0
0.604311 0.0133202 -0.104393 171 83 0
0.604728 0.0192253 -0.104607 175 79 0
0.607306 0.0246313 -0.104749 179 75 0
0.611319 0.028774 -0.10485 183 71 0
0.616672 0.0314764 -0.104911 187 67 0
0.62262 0.0316857 -0.104902 191 63 0
0.627783 0.029392 -0.104757 195 59 0
0.631785 0.0249422 -0.104585 199 55 0
0.63304 0.0194671 -0.104415 203 51 0
0.632986 0.0134707 -0.104388 207 47 0
0.628453 0.00984097 -0.104384 211 43 0
0.623192 0.0074914 -0.104399 215 39 0
0.617196 0.00744506 -0.104471 219 35 0
0.611789 0.00936434 -0.104656 223 31 0
0.607615 0.0135452 -0.104962 227 27 0
0.605486 0.0187453 -0.105264 231 23 0
0.603938 0.0241063 -0.105526 235 19 0
0.604336 0.0290971 -0.105776 239 15 0
0.605942 0.0335072 -0.105933 243 11 0
0.609103 0.0374662 -0.106022 247 7 0
0.613077 0.0415072 -0.105897 251 3 0
0.618709 0.0420203 -0.105406 255 0 0
