ply
format ascii 1.0
comment Generated by robot_control PLYWriter
element vertex 10
property float x
property float y
property float z
property uchar red
property uchar green
property uchar blue
end_header
0.620665 -0.405077 -0.122752 0 255 0
0.620868 -0.400015 -0.122811 28 226 0
0.621161 -0.394957 -0.122894 56 198 0
0.621158 -0.389892 -0.123037 85 169 0
0.621163 -0.384837 -0.123389 113 141 0
0.621184 -0.379797 -0.123914 141 113 0
0.621218 -0.374767 -0.124526 170 84 0
0.621588 -0.369754 -0.125158 198 56 0
0.621933 -0.364725 -0.125677 226 28 0
0.622372 -0.3597 -0.126133 255 0 0
