ply
format ascii 1.0
comment Generated by robot_control PLYWriter
element vertex 10
property float x
property float y
property float z
property uchar red
property uchar green
property uchar blue
end_header
0.593181 0.00278958 -0.109058 0 255 0
0.59318 -0.00174981 -0.107403 28 226 0
0.59317 -0.00631913 -0.105832 56 198 0
0.59315 -0.0109173 -0.104349 85 169 0
0.593141 -0.0155449 -0.102961 113 141 0
0.593146 -0.0202038 -0.101682 141 113 0
0.593145 -0.024899 -0.100543 170 84 0
0.593123 -0.0296244 -0.0995358 198 56 0
0.593122 -0.0343712 -0.0986338 226 28 0
0.59312 -0.0391262 -0.0977792 255 0 0
