ply
format ascii 1.0
comment Generated by robot_control PLYWriter
element vertex 10
property float x
property float y
property float z
property uchar red
property uchar green
property uchar blue
end_header
0.600794 -0.223134 -0.12381 0 255 0
0.6008 -0.228304 -0.123625 28 226 0
0.600766 -0.233473 -0.123378 56 198 0
0.600745 -0.238635 -0.123023 85 169 0
0.600725 -0.243774 -0.122412 113 141 0
0.600637 -0.248866 -0.121502 141 113 0
0.600614 -0.253914 -0.120365 170 84 0
0.600592 -0.258923 -0.119065 198 56 0
0.600576 -0.263936 -0.117779 226 28 0
0.600558 -0.268929 -0.116423 255 0 0
