ply
format ascii 1.0
comment Generated by robot_control PLYWriter
element vertex 10
property float x
property float y
property float z
property uchar red
property uchar green
property uchar blue
end_header
0.59845 0.096309 -0.138015 0 255 0
0.599006 0.0917514 -0.136693 28 226 0
0.599304 0.0870496 -0.135854 56 198 0
0.599922 0.082328 -0.135702 85 169 0
0.600681 0.0776424 -0.136221 113 141 0
0.601298 0.0730491 -0.137355 141 113 0
0.601838 0.068541 -0.138865 170 84 0
0.602443 0.0640472 -0.140391 198 56 0
0.602887 0.059469 -0.141706 226 28 0
0.603062 0.054875 -0.143022 255 0 0
