ply
format ascii 1.0
comment Generated by robot_control PLYWriter
element vertex 33
property float x
property float y
property float z
property uchar red
property uchar green
property uchar blue
end_header
0.722164 0.0676024 -0.128911 0 255 0
0.726708 0.0656366 -0.130948 7 247 0
0.730141 0.0613723 -0.132743 15 239 0
0.733405 0.0565815 -0.133519 23 231 0
0.735699 0.0515189 -0.133423 31 223 0
0.734995 0.0456854 -0.132664 39 215 0
0.732948 0.0404762 -0.13092 47 207 0
0.72806 0.0375165 -0.129324 55 199 0
0.723086 0.03579 -0.126982 63 191 0
0.717528 0.0374543 -0.12591 71 183 0
0.712964 0.0410251 -0.124776 79 175 0
0.710951 0.0465126 -0.124799 87 167 0
0.71078 0.0523895 -0.125569 95 159 0
0.713491 0.0563137 -0.127098 103 151 0
0.718085 0.0593545 -0.129189 111 143 0
0.723594 0.0608934 -0.130657 119 135 0
0.729263 0.0604058 -0.132157 127 127 0
0.734842 0.0590429 -0.13328 135 119 0
0.739797 0.0558628 -0.133868 143 111 0
0.741892 0.0503248 -0.134297 151 103 0
0.744284 0.0449409 -0.134331 159 95 0
0.743844 0.039048 -0.133752 167 87 0
0.741562 0.0341116 -0.132556 175 79 0
0.736755 0.0312883 -0.130593 183 71 0
0.7317 0.0292342 -0.128608 191 63 0
0.726196 0.0306983 -0.127222 199 55 0
0.721617 0.0342758 -0.126438 207 47 0
0.719863 0.0397596 -0.12636 215 39 0
0.72058 0.0455215 -0.127531 223 31 0
0.72308 0.0503025 -0.129148 231 23 0
0.727283 0.0532067 -0.131608 239 15 0
0.731505 0.0542451 -0.134295 247 7 0
0.735776 0.0552187 -0.136928 255 0 0
