ply
format ascii 1.0
comment Generated by robot_control PLYWriter
element vertex 200
property float x
property float y
property float z
property uchar red
property uchar green
property uchar blue
end_header
0.701341 -0.256293 -0.14138 0 255 0
0.701341 -0.256293 -0.14138 1 253 0
0.701341 -0.256293 -0.14138 2 252 0
0.701341 -0.256293 -0.14138 3 251 0
0.701341 -0.256293 -0.14138 5 249 0
0.701341 -0.256293 -0.14138 6 248 0
0.701341 -0.256293 -0.14138 7 247 0
0.701341 -0.256293 -0.14138 8 246 0
0.701341 -0.256293 -0.14138 10 244 0
0.701341 -0.256293 -0.14138 11 243 0
0.701341 -0.256293 -0.14138 12 242 0
0.701341 -0.256293 -0.14138 14 240 0
0.701341 -0.256293 -0.14138 15 239 0
0.701341 -0.256293 -0.14138 16 238 0
0.701341 -0.256293 -0.14138 17 237 0
0.701341 -0.256293 -0.14138 19 235 0
0.701341 -0.256293 -0.14138 20 234 0
0.701341 -0.256293 -0.14138 21 233 0
0.701341 -0.256293 -0.14138 23 231 0
0.701341 -0.256293 -0.14138 24 230 0
0.701341 -0.256293 -0.14138 25 229 0
0.701341 -0.256293 -0.14138 26 228 0
0.701341 -0.256293 -0.14138 28 226 0
0.701341 -0.256293 -0.14138 29 225 0
0.701341 -0.256293 -0.14138 30 224 0
0.701341 -0.256293 -0.14138 32 222 0
0.701341 -0.256293 -0.14138 33 221 0
0.701341 -0.256293 -0.14138 34 220 0
0.701341 -0.256293 -0.14138 35 219 0
0.701341 -0.256293 -0.14138 37 217 0
0.701341 -0.256293 -0.14138 38 216 0
0.701341 -0.256293 -0.14138 39 215 0
0.701341 -0.256293 -0.14138 41 213 0
0.701341 -0.256293 -0.14138 42 212 0
0.701341 -0.256293 -0.14138 43 211 0
0.701341 -0.256293 -0.14138 44 210 0
0.701341 -0.256293 -0.14138 46 208 0
0.701341 -0.256293 -0.14138 47 207 0
0.701341 -0.256293 -0.14138 48 206 0
0.701341 -0.256293 -0.14138 49 205 0
0.701341 -0.256293 -0.14138 51 203 0
0.701341 -0.256293 -0.14138 52 202 0
0.701341 -0.256293 -0.14138 53 201 0
0.701341 -0.256293 -0.14138 55 199 0
0.701341 -0.256293 -0.14138 56 198 0
0.701341 -0.256293 -0.14138 57 197 0
0.701341 -0.256293 -0.14138 58 196 0
0.701341 -0.256293 -0.14138 60 194 0
0.701341 -0.256293 -0.14138 61 193 0
0.701341 -0.256293 -0.14138 62 192 0
0.701341 -0.256293 -0.14138 64 190 0
0.701341 -0.256293 -0.14138 65 189 0
0.701341 -0.256293 -0.14138 66 188 0
0.701341 -0.256293 -0.14138 67 187 0
0.701341 -0.256293 -0.14138 69 185 0
0.701341 -0.256293 -0.14138 70 184 0
0.701341 -0.256293 -0.14138 71 183 0
0.701341 -0.256293 -0.14138 73 181 0
0.701341 -0.256293 -0.14138 74 180 0
0.701341 -0.256293 -0.14138 75 179 0
0.701341 -0.256293 -0.14138 76 178 0
0.701341 -0.256293 -0.14138 78 176 0
0.701341 -0.256293 -0.14138 79 175 0
0.701341 -0.256293 -0.14138 80 174 0
0.701341 -0.256293 -0.14138 82 172 0
0.701341 -0.256293 -0.14138 83 171 0
0.701341 -0.256293 -0.14138 84 170 0
0.701341 -0.256293 -0.14138 85 169 0
0.701341 -0.256293 -0.14138 87 167 0
0.701341 -0.256293 -0.14138 88 166 0
0.701341 -0.256293 -0.14138 89 165 0
0.701341 -0.256293 -0.14138 90 164 0
0.701341 -0.256293 -0.14138 92 162 0
0.701341 -0.256293 -0.14138 93 161 0
0.701341 -0.256293 -0.14138 94 160 0
0.701341 -0.256293 -0.14138 96 158 0
0.701341 -0.256293 -0.14138 97 157 0
0.701341 -0.256293 -0.14138 98 156 0
0.701341 -0.256293 -0.14138 99 155 0
0.701341 -0.256293 -0.14138 101 153 0
0.701341 -0.256293 -0.14138 102 152 0
0.701341 -0.256293 -0.14138 103 151 0
0.701341 -0.256293 -0.14138 105 149 0
0.701341 -0.256293 -0.14138 106 148 0
0.701341 -0.256293 -0.14138 107 147 0
0.701341 -0.256293 -0.14138 108 146 0
0.701341 -0.256293 -0.14138 110 144 0
0.701341 -0.256293 -0.14138 111 143 0
0.701341 -0.256293 -0.14138 112 142 0
0.701341 -0.256293 -0.14138 114 140 0
0.701341 -0.256293 -0.14138 115 139 0
0.701341 -0.256293 -0.14138 116 138 0
0.701341 -0.256293 -0.14138 117 137 0
0.701341 -0.256293 -0.14138 119 135 0
0.701341 -0.256293 -0.14138 120 134 0
0.701341 -0.256293 -0.14138 121 133 0
0.701341 -0.256293 -0.14138 123 131 0
0.701341 -0.256293 -0.14138 124 130 0
0.701341 -0.256293 -0.14138 125 129 0
0.701341 -0.256293 -0.14138 126 128 0
0.701341 -0.256293 -0.14138 128 126 0
0.701341 -0.256293 -0.14138 129 125 0
0.701341 -0.256293 -0.14138 130 124 0
0.701341 -0.256293 -0.14138 131 123 0
0.701341 -0.256293 -0.14138 133 121 0
0.701341 -0.256293 -0.14138 134 120 0
0.701341 -0.256293 -0.14138 135 119 0
0.701341 -0.256293 -0.14138 137 117 0
0.701341 -0.256293 -0.14138 138 116 0
0.701341 -0.256293 -0.14138 139 115 0
0.701341 -0.256293 -0.14138 140 114 0
0.701341 -0.256293 -0.14138 142 112 0
0.701341 -0.256293 -0.14138 143 111 0
0.701341 -0.256293 -0.14138 144 110 0
0.701341 -0.256293 -0.14138 146 108 0
0.701341 -0.256293 -0.14138 147 107 0
0.701341 -0.256293 -0.14138 148 106 0
0.701341 -0.256293 -0.14138 149 105 0
0.701341 -0.256293 -0.14138 151 103 0
0.701341 -0.256293 -0.14138 152 102 0
0.701341 -0.256293 -0.14138 153 101 0
0.701341 -0.256293 -0.14138 155 99 0
0.701341 -0.256293 -0.14138 156 98 0
0.701341 -0.256293 -0.14138 157 97 0
0.701341 -0.256293 -0.14138 158 96 0
0.701341 -0.256293 -0.14138 160 94 0
0.701341 -0.256293 -0.14138 161 93 0
0.701341 -0.256293 -0.14138 162 92 0
0.701341 -0.256293 -0.14138 164 90 0
0.701341 -0.256293 -0.14138 165 89 0
0.701341 -0.256293 -0.14138 166 88 0
0.701341 -0.256293 -0.14138 167 87 0
0.701341 -0.256293 -0.14138 169 85 0
0.701341 -0.256293 -0.14138 170 84 0
0.701341 -0.256293 -0.14138 171 83 0
0.701341 -0.256293 -0.14138 172 82 0
0.701341 -0.256293 -0.14138 174 80 0
0.701341 -0.256293 -0.14138 175 79 0
0.701341 -0.256293 -0.14138 176 78 0
0.701341 -0.256293 -0.14138 178 76 0
0.701341 -0.256293 -0.14138 179 75 0
0.701341 -0.256293 -0.14138 180 74 0
0.701341 -0.256293 -0.14138 181 73 0
0.701341 -0.256293 -0.14138 183 71 0
0.701341 -0.256293 -0.14138 184 70 0
0.701341 -0.256293 -0.14138 185 69 0
0.701341 -0.256293 -0.14138 187 67 0
0.701341 -0.256293 -0.14138 188 66 0
0.701341 -0.256293 -0.14138 189 65 0
0.701341 -0.256293 -0.14138 190 64 0
0.701341 -0.256293 -0.14138 192 62 0
0.701341 -0.256293 -0.14138 193 61 0
0.701341 -0.256293 -0.14138 194 60 0
0.701341 -0.256293 -0.14138 196 58 0
0.701341 -0.256293 -0.14138 197 57 0
0.701341 -0.256293 -0.14138 198 56 0
0.701341 -0.256293 -0.14138 199 55 0
0.701341 -0.256293 -0.14138 201 53 0
0.701341 -0.256293 -0.14138 202 52 0
0.701341 -0.256293 -0.14138 203 51 0
0.701341 -0.256293 -0.14138 205 49 0
0.701341 -0.256293 -0.14138 206 48 0
0.701341 -0.256293 -0.14138 207 47 0
0.701341 -0.256293 -0.14138 208 46 0
0.701341 -0.256293 -0.14138 210 44 0
0.701341 -0.256293 -0.14138 211 43 0
0.701341 -0.256293 -0.14138 212 42 0
0.701341 -0.256293 -0.14138 213 41 0
0.701341 -0.256293 -0.14138 215 39 0
0.701341 -0.256293 -0.14138 216 38 0
0.701341 -0.256293 -0.14138 217 37 0
0.701341 -0.256293 -0.14138 219 35 0
0.701341 -0.256293 -0.14138 220 34 0
0.701341 -0.256293 -0.14138 221 33 0
0.701341 -0.256293 -0.14138 222 32 0
0.701341 -0.256293 -0.14138 224 30 0
0.701341 -0.256293 -0.14138 225 29 0
0.701341 -0.256293 -0.14138 226 28 0
0.701341 -0.256293 -0.14138 228 26 0
0.701341 -0.256293 -0.14138 229 25 0
0.701341 -0.256293 -0.14138 230 24 0
0.701341 -0.256293 -0.14138 231 23 0
0.701341 -0.256293 -0.14138 233 21 0
0.701341 -0.256293 -0.14138 234 20 0
0.701341 -0.256293 -0.14138 235 19 0
0.701341 -0.256293 -0.14138 237 17 0
0.701341 -0.256293 -0.14138 238 16 0
0.701341 -0.256293 -0.14138 239 15 0
0.701341 -0.256293 -0.14138 240 14 0
0.701341 -0.256293 -0.14138 242 12 0
0.701341 -0.256293 -0.14138 243 11 0
0.701341 -0.256293 -0.14138 244 10 0
0.701341 -0.256293 -0.14138 246 8 0
0.701341 -0.256293 -0.14138 247 7 0
0.701341 -0.256293 -0.14138 248 6 0
0.701341 -0.256293 -0.14138 249 5 0
0.701341 -0.256293 -0.14138 251 3 0
0.701341 -0.256293 -0.14138 252 2 0
0.701341 -0.256293 -0.14138 253 1 0
0.701341 -0.256293 -0.14138 255 0 0
