ply
format ascii 1.0
comment Generated by robot_control PLYWriter
element vertex 10
property float x
property float y
property float z
property uchar red
property uchar green
property uchar blue
end_header
0.612416 -0.17368 -0.0142302 0 255 0
0.612916 -0.178718 -0.0136197 28 226 0
0.613277 -0.183792 -0.0131905 56 198 0
0.613696 -0.18886 -0.0127477 85 169 0
0.614077 -0.193946 -0.0125136 113 141 0
0.614729 -0.199008 -0.0125666 141 113 0
0.615156 -0.20408 -0.0129552 170 84 0
0.615621 -0.209126 -0.0135721 198 56 0
0.616072 -0.214174 -0.0141849 226 28 0
0.616568 -0.219182 -0.0149631 255 0 0
