ply
format ascii 1.0
comment Generated by robot_control PLYWriter
element vertex 11
property float x
property float y
property float z
property uchar red
property uchar green
property uchar blue
end_header
0.609616 -0.363065 -0.0869879 0 255 0
0.610506 -0.358487 -0.0879894 25 229 0
0.611062 -0.35385 -0.0889836 51 204 0
0.611666 -0.349215 -0.0899544 76 178 0
0.612437 -0.344603 -0.090916 102 153 0
0.61297 -0.339943 -0.0918129 127 127 0
0.613556 -0.335279 -0.0926518 153 101 0
0.614101 -0.330622 -0.0935537 178 76 0
0.61465 -0.325966 -0.09446 204 50 0
0.615284 -0.321312 -0.0953145 229 25 0
0.615903 -0.316646 -0.0960674 255 0 0
