ply
format ascii 1.0
comment Generated by robot_control PLYWriter
element vertex 11
property float x
property float y
property float z
property uchar red
property uchar green
property uchar blue
end_header
0.53771 -0.274494 -0.109315 0 255 0
0.537632 -0.269817 -0.110192 25 229 0
0.537375 -0.265179 -0.111252 51 204 0
0.537088 -0.260541 -0.112312 76 178 0
0.536819 -0.255918 -0.113442 102 153 0
0.536706 -0.251307 -0.114642 127 127 0
0.536612 -0.246726 -0.115956 153 101 0
0.53659 -0.242146 -0.117274 178 76 0
0.536455 -0.237566 -0.118585 204 50 0
0.536378 -0.232994 -0.119928 229 25 0
0.536405 -0.22844 -0.121335 255 0 0
