ply
format ascii 1.0
comment Generated by robot_control PLYWriter
element vertex 86
property float x
property float y
property float z
property uchar red
property uchar green
property uchar blue
end_header
0.512803 -0.208574 -0.125261 0 255 0
0.516785 -0.21154 -0.125282 3 252 0
0.520349 -0.216103 -0.124916 6 249 0
0.521024 -0.221507 -0.123987 9 246 0
0.521062 -0.227433 -0.123138 12 243 0
0.518095 -0.232292 -0.122363 15 240 0
0.513863 -0.235659 -0.121745 18 237 0
0.509106 -0.238346 -0.121874 21 234 0
0.503475 -0.238454 -0.122458 24 231 0
0.498309 -0.236499 -0.123099 27 228 0
0.494932 -0.231874 -0.123933 30 225 0
0.494591 -0.22591 -0.124314 33 222 0
0.496539 -0.220556 -0.124269 36 219 0
0.501196 -0.217906 -0.124077 39 216 0
0.506915 -0.216493 -0.123911 42 213 0
0.512388 -0.218163 -0.123415 45 210 0
0.516864 -0.221834 -0.122911 48 207 0
0.51865 -0.227297 -0.122311 51 204 0
0.519338 -0.23316 -0.121779 54 201 0
0.518198 -0.238926 -0.121216 57 198 0
0.513932 -0.243105 -0.121078 60 195 0
0.509135 -0.246615 -0.121188 63 192 0
0.503335 -0.246596 -0.121791 66 189 0
0.497807 -0.24509 -0.122422 69 185 0
0.494405 -0.240233 -0.12313 72 183 0
0.493188 -0.234689 -0.123692 75 179 0
0.496081 -0.229627 -0.12381 78 177 0
0.500994 -0.226333 -0.123491 81 173 0
0.506956 -0.22625 -0.122888 84 171 0
0.511995 -0.228108 -0.122158 87 167 0
0.516079 -0.232404 -0.121341 90 165 0
0.518156 -0.237847 -0.120562 93 161 0
0.518277 -0.243804 -0.119925 96 159 0
0.516739 -0.249559 -0.119687 99 155 0
0.512156 -0.253138 -0.119647 102 153 0
0.508042 -0.256474 -0.119893 105 149 0
0.502069 -0.256656 -0.120352 108 147 0
0.496738 -0.254491 -0.120986 111 143 0
0.493552 -0.249509 -0.121756 114 141 0
0.493109 -0.243681 -0.122299 117 137 0
0.495255 -0.238741 -0.122485 120 135 0
0.50031 -0.236159 -0.122233 123 131 0
0.506202 -0.236568 -0.121595 126 129 0
0.511754 -0.237486 -0.120678 129 125 0
0.515452 -0.24197 -0.119813 132 122 0
0.517836 -0.247356 -0.118813 135 119 0
0.517189 -0.252982 -0.118181 138 116 0
0.514873 -0.258448 -0.11762 141 113 0
0.511213 -0.263045 -0.117375 144 110 0
0.505982 -0.265952 -0.117548 147 107 0
0.500268 -0.266531 -0.118063 150 104 0
0.495276 -0.263392 -0.118923 153 101 0
0.492026 -0.258449 -0.119644 156 98 0
0.490647 -0.253138 -0.120281 159 95 0
0.494414 -0.248585 -0.120555 162 92 0
0.498896 -0.244778 -0.120624 165 89 0
0.504712 -0.244633 -0.120304 168 86 0
0.509843 -0.247442 -0.119389 171 83 0
0.5142 -0.250985 -0.118327 174 80 0
0.51674 -0.256044 -0.116947 177 77 0
0.516985 -0.261973 -0.116111 180 74 0
0.515539 -0.267457 -0.115408 183 71 0
0.511316 -0.271523 -0.114886 186 68 0
0.506545 -0.27421 -0.114718 189 65 0
0.501191 -0.276337 -0.114828 192 62 0
0.496028 -0.273733 -0.115268 195 59 0
0.491822 -0.269688 -0.116543 198 56 0
0.490919 -0.264165 -0.117702 201 53 0
0.492106 -0.258465 -0.118461 204 50 0
0.496637 -0.254646 -0.118801 207 47 0
0.502393 -0.253765 -0.118552 210 44 0
0.507862 -0.256107 -0.117879 213 41 0
0.512292 -0.259814 -0.116429 216 38 0
0.514642 -0.264851 -0.115035 219 35 0
0.514792 -0.270658 -0.113607 222 32 0
0.513584 -0.276329 -0.112444 225 29 0
0.510527 -0.281282 -0.11162 228 26 0
0.505359 -0.284019 -0.11108 231 23 0
0.499371 -0.284155 -0.111122 234 20 0
0.493818 -0.283372 -0.111993 237 17 0
0.490913 -0.279145 -0.113321 240 14 0
0.488266 -0.274837 -0.114593 243 11 0
0.490574 -0.270673 -0.116034 246 8 0
0.492819 -0.266122 -0.116997 249 5 0
0.496947 -0.263869 -0.117301 252 2 0
0.502252 -0.262824 -0.117133 255 0 0
