ply
format ascii 1.0
comment Generated by robot_control PLYWriter
element vertex 200
property float x
property float y
property float z
property uchar red
property uchar green
property uchar blue
end_header
0.655882 -0.230708 -0.140728 0 255 0
0.655882 -0.230708 -0.140728 1 253 0
0.655882 -0.230708 -0.140728 2 252 0
0.655882 -0.230708 -0.140728 3 251 0
0.655882 -0.230708 -0.140728 5 249 0
0.655882 -0.230708 -0.140728 6 248 0
0.655882 -0.230708 -0.140728 7 247 0
0.655882 -0.230708 -0.140728 8 246 0
0.655882 -0.230708 -0.140728 10 244 0
0.655882 -0.230708 -0.140728 11 243 0
0.655882 -0.230708 -0.140728 12 242 0
0.655882 -0.230708 -0.140728 14 240 0
0.655882 -0.230708 -0.140728 15 239 0
0.655882 -0.230708 -0.140728 16 238 0
0.655882 -0.230708 -0.140728 17 237 0
0.655882 -0.230708 -0.140728 19 235 0
0.655882 -0.230708 -0.140728 20 234 0
0.655882 -0.230708 -0.140728 21 233 0
0.655882 -0.230708 -0.140728 23 231 0
0.655882 -0.230708 -0.140728 24 230 0
0.655882 -0.230708 -0.140728 25 229 0
0.655882 -0.230708 -0.140728 26 228 0
0.655882 -0.230708 -0.140728 28 226 0
0.655882 -0.230708 -0.140728 29 225 0
0.655882 -0.230708 -0.140728 30 224 0
0.655882 -0.230708 -0.140728 32 222 0
0.655882 -0.230708 -0.140728 33 221 0
0.655882 -0.230708 -0.140728 34 220 0
0.655882 -0.230708 -0.140728 35 219 0
0.655882 -0.230708 -0.140728 37 217 0
0.655882 -0.230708 -0.140728 38 216 0
0.655882 -0.230708 -0.140728 39 215 0
0.655882 -0.230708 -0.140728 41 213 0
0.655882 -0.230708 -0.140728 42 212 0
0.655882 -0.230708 -0.140728 43 211 0
0.655882 -0.230708 -0.140728 44 210 0
0.655882 -0.230708 -0.140728 46 208 0
0.655882 -0.230708 -0.140728 47 207 0
0.655882 -0.230708 -0.140728 48 206 0
0.655882 -0.230708 -0.140728 49 205 0
0.655882 -0.230708 -0.140728 51 203 0
0.655882 -0.230708 -0.140728 52 202 0
0.655882 -0.230708 -0.140728 53 201 0
0.655882 -0.230708 -0.140728 55 199 0
0.655882 -0.230708 -0.140728 56 198 0
0.655882 -0.230708 -0.140728 57 197 0
0.655882 -0.230708 -0.140728 58 196 0
0.655882 -0.230708 -0.140728 60 194 0
0.655882 -0.230708 -0.140728 61 193 0
0.655882 -0.230708 -0.140728 62 192 0
0.655882 -0.230708 -0.140728 64 190 0
0.655882 -0.230708 -0.140728 65 189 0
0.655882 -0.230708 -0.140728 66 188 0
0.655882 -0.230708 -0.140728 67 187 0
0.655882 -0.230708 -0.140728 69 185 0
0.655882 -0.230708 -0.140728 70 184 0
0.655882 -0.230708 -0.140728 71 183 0
0.655882 -0.230708 -0.140728 73 181 0
0.655882 -0.230708 -0.140728 74 180 0
0.655882 -0.230708 -0.140728 75 179 0
0.655882 -0.230708 -0.140728 76 178 0
0.655882 -0.230708 -0.140728 78 176 0
0.655882 -0.230708 -0.140728 79 175 0
0.655882 -0.230708 -0.140728 80 174 0
0.655882 -0.230708 -0.140728 82 172 0
0.655882 -0.230708 -0.140728 83 171 0
0.655882 -0.230708 -0.140728 84 170 0
0.655882 -0.230708 -0.140728 85 169 0
0.655882 -0.230708 -0.140728 87 167 0
0.655882 -0.230708 -0.140728 88 166 0
0.655882 -0.230708 -0.140728 89 165 0
0.655882 -0.230708 -0.140728 90 164 0
0.655882 -0.230708 -0.140728 92 162 0
0.655882 -0.230708 -0.140728 93 161 0
0.655882 -0.230708 -0.140728 94 160 0
0.655882 -0.230708 -0.140728 96 158 0
0.655882 -0.230708 -0.140728 97 157 0
0.655882 -0.230708 -0.140728 98 156 0
0.655882 -0.230708 -0.140728 99 155 0
0.655882 -0.230708 -0.140728 101 153 0
0.655882 -0.230708 -0.140728 102 152 0
0.655882 -0.230708 -0.140728 103 151 0
0.655882 -0.230708 -0.140728 105 149 0
0.655882 -0.230708 -0.140728 106 148 0
0.655882 -0.230708 -0.140728 107 147 0
0.655882 -0.230708 -0.140728 108 146 0
0.655882 -0.230708 -0.140728 110 144 0
0.655882 -0.230708 -0.140728 111 143 0
0.655882 -0.230708 -0.140728 112 142 0
0.655882 -0.230708 -0.140728 114 140 0
0.655882 -0.230708 -0.140728 115 139 0
0.655882 -0.230708 -0.140728 116 138 0
0.655882 -0.230708 -0.140728 117 137 0
0.655882 -0.230708 -0.140728 119 135 0
0.655882 -0.230708 -0.140728 120 134 0
0.655882 -0.230708 -0.140728 121 133 0
0.655882 -0.230708 -0.140728 123 131 0
0.655882 -0.230708 -0.140728 124 130 0
0.655882 -0.230708 -0.140728 125 129 0
0.655882 -0.230708 -0.140728 126 128 0
0.655882 -0.230708 -0.140728 128 126 0
0.655882 -0.230708 -0.140728 129 125 0
0.655882 -0.230708 -0.140728 130 124 0
0.655882 -0.230708 -0.140728 131 123 0
0.655882 -0.230708 -0.140728 133 121 0
0.655882 -0.230708 -0.140728 134 120 0
0.655882 -0.230708 -0.140728 135 119 0
0.655882 -0.230708 -0.140728 137 117 0
0.655882 -0.230708 -0.140728 138 116 0
0.655882 -0.230708 -0.140728 139 115 0
0.655882 -0.230708 -0.140728 140 114 0
0.655882 -0.230708 -0.140728 142 112 0
0.655882 -0.230708 -0.140728 143 111 0
0.655882 -0.230708 -0.140728 144 110 0
0.655882 -0.230708 -0.140728 146 108 0
0.655882 -0.230708 -0.140728 147 107 0
0.655882 -0.230708 -0.140728 148 106 0
0.655882 -0.230708 -0.140728 149 105 0
0.655882 -0.230708 -0.140728 151 103 0
0.655882 -0.230708 -0.140728 152 102 0
0.655882 -0.230708 -0.140728 153 101 0
0.655882 -0.230708 -0.140728 155 99 0
0.655882 -0.230708 -0.140728 156 98 0
0.655882 -0.230708 -0.140728 157 97 0
0.655882 -0.230708 -0.140728 158 96 0
0.655882 -0.230708 -0.140728 160 94 0
0.655882 -0.230708 -0.140728 161 93 0
0.655882 -0.230708 -0.140728 162 92 0
0.655882 -0.230708 -0.140728 164 90 0
0.655882 -0.230708 -0.140728 165 89 0
0.655882 -0.230708 -0.140728 166 88 0
0.655882 -0.230708 -0.140728 167 87 0
0.655882 -0.230708 -0.140728 169 85 0
0.655882 -0.230708 -0.140728 170 84 0
0.655882 -0.230708 -0.140728 171 83 0
0.655882 -0.230708 -0.140728 172 82 0
0.655882 -0.230708 -0.140728 174 80 0
0.655882 -0.230708 -0.140728 175 79 0
0.655882 -0.230708 -0.140728 176 78 0
0.655882 -0.230708 -0.140728 178 76 0
0.655882 -0.230708 -0.140728 179 75 0
0.655882 -0.230708 -0.140728 180 74 0
0.655882 -0.230708 -0.140728 181 73 0
0.655882 -0.230708 -0.140728 183 71 0
0.655882 -0.230708 -0.140728 184 70 0
0.655882 -0.230708 -0.140728 185 69 0
0.655882 -0.230708 -0.140728 187 67 0
0.655882 -0.230708 -0.140728 188 66 0
0.655882 -0.230708 -0.140728 189 65 0
0.655882 -0.230708 -0.140728 190 64 0
0.655882 -0.230708 -0.140728 192 62 0
0.655882 -0.230708 -0.140728 193 61 0
0.655882 -0.230708 -0.140728 194 60 0
0.655882 -0.230708 -0.140728 196 58 0
0.655882 -0.230708 -0.140728 197 57 0
0.655882 -0.230708 -0.140728 198 56 0
0.655882 -0.230708 -0.140728 199 55 0
0.655882 -0.230708 -0.140728 201 53 0
0.655882 -0.230708 -0.140728 202 52 0
0.655882 -0.230708 -0.140728 203 51 0
0.655882 -0.230708 -0.140728 205 49 0
0.655882 -0.230708 -0.140728 206 48 0
0.655882 -0.230708 -0.140728 207 47 0
0.655882 -0.230708 -0.140728 208 46 0
0.655882 -0.230708 -0.140728 210 44 0
0.655882 -0.230708 -0.140728 211 43 0
0.655882 -0.230708 -0.140728 212 42 0
0.655882 -0.230708 -0.140728 213 41 0
0.655882 -0.230708 -0.140728 215 39 0
0.655882 -0.230708 -0.140728 216 38 0
0.655882 -0.230708 -0.140728 217 37 0
0.655882 -0.230708 -0.140728 219 35 0
0.655882 -0.230708 -0.140728 220 34 0
0.655882 -0.230708 -0.140728 221 33 0
0.655882 -0.230708 -0.140728 222 32 0
0.655882 -0.230708 -0.140728 224 30 0
0.655882 -0.230708 -0.140728 225 29 0
0.655882 -0.230708 -0.140728 226 28 0
0.655882 -0.230708 -0.140728 228 26 0
0.655882 -0.230708 -0.140728 229 25 0
0.655882 -0.230708 -0.140728 230 24 0
0.655882 -0.230708 -0.140728 231 23 0
0.655882 -0.230708 -0.140728 233 21 0
0.655882 -0.230708 -0.140728 234 20 0
0.655882 -0.230708 -0.140728 235 19 0
0.655882 -0.230708 -0.140728 237 17 0
0.655882 -0.230708 -0.140728 238 16 0
0.655882 -0.230708 -0.140728 239 15 0
0.655882 -0.230708 -0.140728 240 14 0
0.655882 -0.230708 -0.140728 242 12 0
0.655882 -0.230708 -0.140728 243 11 0
0.655882 -0.230708 -0.140728 244 10 0
0.655882 -0.230708 -0.140728 246 8 0
0.655882 -0.230708 -0.140728 247 7 0
0.655882 -0.230708 -0.140728 248 6 0
0.655882 -0.230708 -0.140728 249 5 0
0.655882 -0.230708 -0.140728 251 3 0
0.655882 -0.230708 -0.140728 252 2 0
0.655882 -0.230708 -0.140728 253 1 0
0.655882 -0.230708 -0.140728 255 0 0
