ply
format ascii 1.0
comment Generated by robot_control PLYWriter
element vertex 32
property float x
property float y
property float z
property uchar red
property uchar green
property uchar blue
end_header
0.689682 0.0964303 -0.162371 0 255 0
0.694538 0.0934222 -0.161785 8 246 0
0.697784 0.090051 -0.160958 16 238 0
0.701289 0.0852889 -0.160214 24 230 0
0.702454 0.0794844 -0.159521 32 222 0
0.700836 0.0739165 -0.158877 41 213 0
0.697188 0.0691346 -0.158489 49 205 0
0.692192 0.0671503 -0.158262 57 197 0
0.686556 0.0653171 -0.158064 65 189 0
0.681618 0.0679789 -0.158023 74 180 0
0.677454 0.0723219 -0.158279 82 172 0
0.676288 0.0779954 -0.158715 90 164 0
0.678095 0.0836579 -0.1591 98 156 0
0.6828 0.0873902 -0.159412 106 148 0
0.688263 0.0898409 -0.159583 115 139 0
0.694199 0.0907926 -0.159695 123 131 0
0.699834 0.0893607 -0.159756 131 123 0
0.704956 0.0861581 -0.159701 139 115 0
0.709115 0.0818892 -0.159507 148 106 0
0.710921 0.0761558 -0.159191 156 98 0
0.710581 0.0702407 -0.158682 164 90 0
0.708176 0.0647326 -0.158189 172 82 0
0.704425 0.0608337 -0.157859 180 74 0
0.69919 0.0579798 -0.157579 189 65 0
0.693556 0.0584108 -0.157378 197 57 0
0.688421 0.0615955 -0.157373 205 49 0
0.685177 0.0665319 -0.157651 213 41 0
0.685013 0.0724995 -0.15808 222 32 0
0.688097 0.077458 -0.158514 230 24 0
0.692747 0.0812467 -0.158945 238 16 0
0.69706 0.0829582 -0.159342 246 8 0
0.702252 0.0845896 -0.159747 255 0 0
