ply
format ascii 1.0
comment Generated by robot_control PLYWriter
element vertex 28
property float x
property float y
property float z
property uchar red
property uchar green
property uchar blue
end_header
0.594851 0.173515 -0.111195 0 255 0
0.599021 0.171189 -0.110264 9 245 0
0.602149 0.166328 -0.11033 18 236 0
0.602259 0.160695 -0.110796 28 226 0
0.599402 0.155855 -0.11192 37 217 0
0.594956 0.152891 -0.113087 47 207 0
0.589216 0.153087 -0.114764 56 198 0
0.584138 0.155685 -0.115809 66 188 0
0.580742 0.160585 -0.116587 75 179 0
0.578271 0.166083 -0.117064 85 169 0
0.577821 0.171798 -0.116914 94 160 0
0.580007 0.177443 -0.116325 103 151 0
0.583935 0.181923 -0.115392 113 141 0
0.589574 0.183351 -0.114297 122 132 0
0.59485 0.180962 -0.112939 132 122 0
0.599871 0.177815 -0.11183 141 113 0
0.60115 0.171942 -0.111324 151 103 0
0.599192 0.166512 -0.111467 160 94 0
0.595019 0.162472 -0.112511 170 84 0
0.589459 0.161356 -0.114477 179 75 0
0.583986 0.16297 -0.116097 188 66 0
0.5798 0.166784 -0.117974 198 56 0
0.577136 0.171786 -0.120046 207 47 0
0.575538 0.177442 -0.121272 217 37 0
0.575247 0.183322 -0.122419 226 28 0
0.578399 0.188333 -0.122209 236 18 0
0.581811 0.191891 -0.119964 245 9 0
0.585384 0.192436 -0.116499 255 0 0
