ply
format ascii 1.0
comment Generated by robot_control PLYWriter
element vertex 32
property float x
property float y
property float z
property uchar red
property uchar green
property uchar blue
end_header
0.723905 0.158443 -0.150276 0 255 0
0.728498 0.156212 -0.149711 8 246 0
0.732996 0.152525 -0.148736 16 238 0
0.736156 0.147837 -0.147082 24 230 0
0.736696 0.142295 -0.145235 32 222 0
0.7369 0.136534 -0.1439 41 213 0
0.733843 0.13259 -0.142462 49 205 0
0.729387 0.128971 -0.141113 57 197 0
0.72385 0.127761 -0.140552 65 189 0
0.718138 0.129009 -0.140645 74 180 0
0.714039 0.133033 -0.141213 82 172 0
0.712956 0.138622 -0.142101 90 164 0
0.713708 0.14419 -0.143455 98 156 0
0.717371 0.148737 -0.144321 106 148 0
0.722768 0.150675 -0.145208 115 139 0
0.728614 0.150277 -0.145642 123 131 0
0.73429 0.148586 -0.145686 131 123 0
0.739857 0.146532 -0.14543 139 115 0
0.743633 0.142258 -0.144914 148 106 0
0.745656 0.136821 -0.143958 156 98 0
0.746899 0.131089 -0.14302 164 90 0
0.745021 0.125576 -0.142063 172 82 0
0.740699 0.122123 -0.140485 180 74 0
0.735641 0.119233 -0.139446 189 65 0
0.730076 0.119402 -0.138607 197 57 0
0.724581 0.12161 -0.138472 205 49 0
0.721503 0.126471 -0.138904 213 41 0
0.72103 0.132135 -0.140146 222 32 0
0.723162 0.137128 -0.141672 230 24 0
0.726933 0.141431 -0.143118 238 16 0
0.732497 0.142461 -0.144638 246 8 0
0.736701 0.142273 -0.145718 255 0 0
