ply
format ascii 1.0
comment Generated by robot_control PLYWriter
element vertex 11
property float x
property float y
property float z
property uchar red
property uchar green
property uchar blue
end_header
0.662793 -0.0129193 -0.037163 0 255 0
0.662898 -0.0177599 -0.0376475 25 229 0
0.662906 -0.0226261 -0.0376334 51 204 0
0.662848 -0.0274732 -0.0372194 76 178 0
0.663036 -0.0322886 -0.0365654 102 153 0
0.663315 -0.0370788 -0.0357507 127 127 0
0.663516 -0.0418779 -0.0349736 153 101 0
0.663587 -0.0467111 -0.0344488 178 76 0
0.663585 -0.0515549 -0.0345106 204 50 0
0.663635 -0.0563433 -0.0353673 229 25 0
0.663137 -0.0610545 -0.0364347 255 0 0
