ply
format ascii 1.0
comment Generated by robot_control PLYWriter
element vertex 9
property float x
property float y
property float z
property uchar red
property uchar green
property uchar blue
end_header
0.632692 0.0115399 -0.136593 0 255 0
0.632726 0.0162157 -0.137697 31 223 0
0.633063 0.0209029 -0.138767 63 191 0
0.633302 0.0255648 -0.139964 95 159 0
0.633524 0.0302325 -0.141143 127 127 0
0.633818 0.0349159 -0.142239 159 95 0
0.634074 0.0396054 -0.143313 191 63 0
0.63411 0.0442878 -0.144452 223 31 0
0.634098 0.0489983 -0.145454 255 0 0
