ply
format ascii 1.0
comment Generated by robot_control PLYWriter
element vertex 43
property float x
property float y
property float z
property uchar red
property uchar green
property uchar blue
end_header
0.632296 0.145087 -0.139124 0 255 0
0.637578 0.143276 -0.137698 6 248 0
0.640193 0.139806 -0.135939 12 242 0
0.642524 0.135164 -0.134161 18 236 0
0.640804 0.129633 -0.132824 24 230 0
0.638132 0.125051 -0.132021 30 224 0
0.632696 0.123328 -0.132251 36 218 0
0.626739 0.12364 -0.133156 42 212 0
0.622667 0.127301 -0.134825 48 206 0
0.619648 0.132312 -0.13623 54 200 0
0.618766 0.137652 -0.138015 60 194 0
0.62094 0.143206 -0.139008 66 188 0
0.624931 0.146934 -0.139622 72 182 0
0.629909 0.15017 -0.139838 78 176 0
0.635676 0.151213 -0.139677 85 169 0
0.641587 0.150218 -0.139062 91 163 0
0.646084 0.147474 -0.138198 97 157 0
0.648653 0.142155 -0.136941 103 151 0
0.648854 0.137072 -0.135574 109 145 0
0.646029 0.131851 -0.134789 115 139 0
0.640962 0.128774 -0.134615 121 133 0
0.634953 0.12909 -0.134966 127 127 0
0.629971 0.132268 -0.135988 133 121 0
0.626924 0.136945 -0.137161 139 115 0
0.625779 0.142445 -0.138508 145 109 0
0.628144 0.147861 -0.139777 151 103 0
0.631847 0.152488 -0.14068 157 97 0
0.637432 0.154573 -0.141147 163 91 0
0.643229 0.156072 -0.141271 170 84 0
0.649219 0.155643 -0.14081 176 78 0
0.653444 0.151697 -0.13986 182 72 0
0.657149 0.147545 -0.138553 188 66 0
0.655344 0.142292 -0.137112 194 60 0
0.652025 0.137316 -0.136272 200 54 0
0.646678 0.135894 -0.135725 206 48 0
0.640703 0.136279 -0.13611 212 42 0
0.635665 0.13932 -0.137206 218 36 0
0.633861 0.144693 -0.138921 224 30 0
0.634796 0.149928 -0.141341 230 24 0
0.63568 0.155432 -0.142955 236 18 0
0.639136 0.158665 -0.144188 242 12 0
0.643908 0.160963 -0.145251 248 6 0
0.648545 0.162517 -0.145827 255 0 0
