ply
format ascii 1.0
comment Generated by robot_control PLYWriter
element vertex 16
property float x
property float y
property float z
property uchar red
property uchar green
property uchar blue
end_header
0.578596 -0.0224393 -0.117769 0 255 0
0.57836 -0.0172947 -0.117451 17 238 0
0.578072 -0.0121698 -0.11687 34 221 0
0.577895 -0.00702487 -0.116438 51 204 0
0.577726 -0.00188052 -0.115997 68 187 0
0.577548 0.00325979 -0.115513 85 169 0
0.577375 0.00840596 -0.115094 102 153 0
0.577199 0.0135629 -0.114846 119 135 0
0.577019 0.0187247 -0.114746 136 118 0
0.577007 0.0238904 -0.11474 153 101 0
0.577007 0.029056 -0.114806 170 84 0
0.576839 0.0342183 -0.114899 187 67 0
0.576829 0.039384 -0.114897 204 50 0
0.576573 0.0445432 -0.114854 221 33 0
0.576439 0.0497 -0.115124 238 16 0
0.57622 0.0548493 -0.114857 255 0 0
