ply
format ascii 1.0
comment Generated by robot_control PLYWriter
element vertex 130
property float x
property float y
property float z
property uchar red
property uchar green
property uchar blue
end_header
0.619937 0.151945 -0.136457 0 255 0
0.623929 0.150198 -0.13551 1 253 0
0.62675 0.147101 -0.13451 3 251 0
0.629198 0.143666 -0.133121 5 249 0
0.629914 0.139289 -0.1315 7 247 0
0.630367 0.134651 -0.129073 9 245 0
0.628783 0.12958 -0.127203 11 243 0
0.624926 0.12674 -0.125261 13 241 0
0.621072 0.123471 -0.123616 15 239 0
0.61578 0.12169 -0.122603 17 237 0
0.609818 0.121298 -0.122457 19 235 0
0.604583 0.123771 -0.123372 21 233 0
0.601926 0.128609 -0.125131 23 231 0
0.600763 0.133654 -0.127399 25 229 0
0.602337 0.138696 -0.129066 27 227 0
0.60679 0.141597 -0.130881 29 225 0
0.612057 0.144092 -0.131486 31 223 0
0.618041 0.144211 -0.131636 33 221 0
0.623002 0.14194 -0.131057 35 219 0
0.627475 0.138484 -0.129581 37 217 0
0.630593 0.133871 -0.127893 39 215 0
0.631241 0.128188 -0.12616 41 213 0
0.630593 0.122641 -0.124065 43 211 0
0.627742 0.117656 -0.122298 45 209 0
0.623656 0.113789 -0.120479 47 207 0
0.618038 0.112593 -0.119161 49 205 0
0.612151 0.11171 -0.119075 51 203 0
0.606412 0.113317 -0.119605 53 201 0
0.603755 0.11835 -0.120795 55 199 0
0.603129 0.123831 -0.122271 57 197 0
0.604587 0.129273 -0.124039 59 195 0
0.60884 0.132941 -0.125504 61 193 0
0.614262 0.135471 -0.126147 63 191 0
0.619745 0.133515 -0.126089 65 189 0
0.625215 0.131141 -0.125393 67 187 0
0.628733 0.12667 -0.12415 69 185 0
0.631537 0.121651 -0.122497 71 183 0
0.632488 0.116061 -0.120785 73 181 0
0.631134 0.110424 -0.11935 75 179 0
0.627515 0.105943 -0.118136 77 177 0
0.622466 0.102997 -0.116938 79 175 0
0.617075 0.100984 -0.116166 81 173 0
0.611654 0.102884 -0.115944 83 171 0
0.606314 0.105611 -0.116288 85 169 0
0.60383 0.1109 -0.117353 86 168 0
0.60299 0.116662 -0.118551 88 166 0
0.606872 0.120939 -0.119775 90 164 0
0.612084 0.123534 -0.120439 92 162 0
0.617116 0.125828 -0.120753 94 160 0
0.62246 0.12314 -0.120623 96 158 0
0.627622 0.120508 -0.120158 98 156 0
0.631405 0.11591 -0.119363 100 154 0
0.634049 0.11063 -0.118401 102 152 0
0.63257 0.105521 -0.117119 104 150 0
0.630552 0.0999956 -0.115946 106 148 0
0.627376 0.0952522 -0.114717 108 146 0
0.622227 0.0922499 -0.114032 110 144 0
0.616609 0.0911166 -0.113674 112 142 0
0.611295 0.0936096 -0.113678 114 140 0
0.606254 0.0968757 -0.114056 116 138 0
0.604551 0.102489 -0.114776 118 136 0
0.605535 0.108235 -0.115648 120 134 0
0.608641 0.113293 -0.116449 122 132 0
0.613946 0.115953 -0.1169 124 130 0
0.619932 0.11618 -0.117067 126 128 0
0.625564 0.114546 -0.116977 128 126 0
0.629664 0.110258 -0.116651 130 124 0
0.633678 0.105815 -0.116082 132 122 0
0.634539 0.100223 -0.115192 134 120 0
0.63477 0.0945072 -0.114059 136 118 0
0.631746 0.0894174 -0.112984 138 116 0
0.627518 0.085449 -0.112215 140 114 0
0.622189 0.0827207 -0.111699 142 112 0
0.616628 0.0835597 -0.11138 144 110 0
0.610745 0.0847643 -0.111406 146 108 0
0.607559 0.0898406 -0.111789 148 106 0
0.606081 0.0954421 -0.112471 150 104 0
0.607262 0.101109 -0.113248 152 102 0
0.611575 0.10487 -0.113806 154 100 0
0.617424 0.105527 -0.114224 156 98 0
0.623124 0.106768 -0.114288 158 96 0
0.62811 0.103474 -0.11414 160 94 0
0.632007 0.0989712 -0.113735 162 92 0
0.634923 0.0937479 -0.113112 164 90 0
0.635235 0.0878686 -0.112355 166 88 0
0.634182 0.0821433 -0.111316 168 86 0
0.630707 0.0774308 -0.110546 170 84 0
0.625716 0.0742338 -0.109874 171 83 0
0.620286 0.0717761 -0.10936 173 81 0
0.614646 0.0738509 -0.109225 175 79 0
0.610119 0.0776355 -0.109373 177 77 0
0.606819 0.0824747 -0.109872 179 75 0
0.608011 0.0882394 -0.110568 181 73 0
0.609913 0.0934242 -0.111414 183 71 0
0.614917 0.0967007 -0.111942 185 69 0
0.620671 0.0978554 -0.112361 187 67 0
0.626388 0.0962514 -0.112472 189 65 0
0.63145 0.0937809 -0.112341 191 63 0
0.634731 0.0888326 -0.112011 193 61 0
0.636747 0.0832847 -0.11135 195 59 0
0.636712 0.0773304 -0.110501 197 57 0
0.63508 0.0717067 -0.109522 199 55 0
0.631903 0.0667418 -0.108624 201 53 0
0.626676 0.0640067 -0.107808 203 51 0
0.620827 0.0631196 -0.107161 205 49 0
0.614818 0.0633376 -0.106893 207 47 0
0.610898 0.0677104 -0.106988 209 45 0
0.60816 0.0730261 -0.107445 211 43 0
0.607647 0.0785109 -0.108117 213 41 0
0.610947 0.0832954 -0.109221 215 39 0
0.615956 0.0865359 -0.109988 217 37 0
0.621814 0.0870962 -0.110586 219 35 0
0.627587 0.0864336 -0.110798 221 33 0
0.632822 0.0836501 -0.110819 223 31 0
0.636684 0.0790826 -0.110529 225 29 0
0.637614 0.0732173 -0.110126 227 27 0
0.638222 0.0673538 -0.109494 229 25 0
0.636541 0.0620349 -0.108602 231 23 0
0.633128 0.0572763 -0.108076 233 21 0
0.628247 0.0545437 -0.107003 235 19 0
0.622516 0.0535244 -0.105974 237 17 0
0.617512 0.0550162 -0.10521 239 15 0
0.612369 0.0562614 -0.104842 241 13 0
0.610709 0.0613453 -0.104941 243 11 0
0.609081 0.066629 -0.105658 245 9 0
0.610757 0.0716594 -0.1068 247 7 0
0.613406 0.0749529 -0.107796 249 5 0
0.616455 0.0777045 -0.108493 251 3 0
0.622037 0.0775992 -0.109299 253 1 0
0.624508 0.0770091 -0.109558 255 0 0
