ply
format ascii 1.0
comment Generated by robot_control PLYWriter
element vertex 48
property float x
property float y
property float z
property uchar red
property uchar green
property uchar blue
end_header
0.485848 0.1556 -0.141187 0 255 0
0.490254 0.153504 -0.139513 5 249 0
0.492853 0.150046 -0.137421 10 244 0
0.493379 0.144417 -0.135669 16 238 0
0.491285 0.139399 -0.134327 21 233 0
0.487401 0.135104 -0.133867 27 227 0
0.482055 0.132527 -0.134094 32 222 0
0.476592 0.131024 -0.13508 37 217 0
0.470835 0.130792 -0.136444 43 211 0
0.465676 0.132772 -0.138225 48 206 0
0.462782 0.137364 -0.140439 54 200 0
0.459989 0.141853 -0.142809 59 195 0
0.459506 0.147074 -0.144173 65 189 0
0.462131 0.152169 -0.145341 70 184 0
0.465449 0.156973 -0.145889 75 179 0
0.470728 0.159382 -0.145777 81 173 0
0.476533 0.159442 -0.145074 86 168 0
0.480912 0.156164 -0.143527 92 162 0
0.483906 0.152099 -0.141818 97 157 0
0.484469 0.146364 -0.140443 103 151 0
0.480995 0.141818 -0.139637 108 146 0
0.476475 0.137979 -0.139679 113 141 0
0.471294 0.135261 -0.140231 119 135 0
0.465799 0.134564 -0.141164 124 130 0
0.460374 0.136035 -0.143014 130 124 0
0.455726 0.139043 -0.144917 135 119 0
0.45215 0.143275 -0.147 141 113 0
0.450576 0.148071 -0.149038 146 108 0
0.451804 0.15371 -0.15044 151 103 0
0.454704 0.158497 -0.15161 157 97 0
0.459899 0.16107 -0.152015 162 92 0
0.465486 0.162916 -0.151239 168 86 0
0.470946 0.162432 -0.149648 173 81 0
0.473905 0.157757 -0.147642 179 75 0
0.475041 0.152261 -0.145987 184 70 0
0.472188 0.147447 -0.14442 189 65 0
0.468237 0.143167 -0.143662 195 59 0
0.463262 0.140058 -0.143844 200 54 0
0.457624 0.138706 -0.144967 206 48 0
0.451981 0.138598 -0.146743 211 43 0
0.4476 0.141074 -0.149278 217 37 0
0.443654 0.14394 -0.152441 222 32 0
0.441479 0.148985 -0.154543 227 27 0
0.441775 0.153809 -0.157229 233 21 0
0.44318 0.158537 -0.159539 238 16 0
0.446248 0.162956 -0.160666 244 10 0
0.450394 0.165503 -0.16099 249 5 0
0.455293 0.166523 -0.16023 255 0 0
