ply
format ascii 1.0
comment Generated by robot_control PLYWriter
element vertex 57
property float x
property float y
property float z
property uchar red
property uchar green
property uchar blue
end_header
0.50372 0.167238 -0.135804 0 255 0
0.507149 0.165687 -0.134206 4 250 0
0.511549 0.162431 -0.132319 9 245 0
0.514544 0.15808 -0.130744 13 241 0
0.517286 0.153271 -0.129457 18 236 0
0.516797 0.147458 -0.128244 22 232 0
0.516854 0.141501 -0.127682 27 227 0
0.513483 0.136771 -0.127586 31 223 0
0.509745 0.132406 -0.127962 36 218 0
0.504565 0.130328 -0.128975 40 214 0
0.498765 0.130884 -0.130336 45 209 0
0.493807 0.133461 -0.131512 50 204 0
0.49063 0.138347 -0.132616 54 200 0
0.488129 0.143642 -0.133623 59 195 0
0.490227 0.149222 -0.134134 63 191 0
0.493277 0.154361 -0.134258 68 186 0
0.497376 0.158586 -0.133983 72 182 0
0.502136 0.162143 -0.133275 77 177 0
0.507696 0.163599 -0.132314 81 173 0
0.513494 0.163347 -0.13111 86 168 0
0.518602 0.160803 -0.129785 91 163 0
0.523036 0.157003 -0.128507 95 159 0
0.526175 0.152227 -0.127097 100 154 0
0.528079 0.14665 -0.126083 104 150 0
0.527962 0.140841 -0.12531 109 145 0
0.525518 0.135438 -0.12496 113 141 0
0.521924 0.130718 -0.124854 118 136 0
0.517244 0.12701 -0.125127 122 132 0
0.51151 0.127244 -0.12572 127 127 0
0.505743 0.128305 -0.12672 132 122 0
0.501791 0.132314 -0.12795 136 118 0
0.499888 0.13791 -0.128844 141 113 0
0.499552 0.143659 -0.129524 145 109 0
0.501766 0.149146 -0.130024 150 104 0
0.505319 0.153935 -0.130154 154 100 0
0.509784 0.157857 -0.129873 159 95 0
0.515226 0.159422 -0.129283 163 91 0
0.521145 0.159245 -0.128419 168 86 0
0.526897 0.158291 -0.127248 173 81 0
0.532114 0.155912 -0.125789 177 77 0
0.535367 0.151337 -0.124376 182 72 0
0.537578 0.145929 -0.123088 186 68 0
0.538617 0.140285 -0.121671 191 63 0
0.5387 0.134381 -0.12067 195 59 0
0.535359 0.129824 -0.119984 200 54 0
0.530365 0.126655 -0.119849 204 50 0
0.525293 0.12406 -0.120341 209 45 0
0.519642 0.123318 -0.121369 214 40 0
0.515025 0.12657 -0.122978 218 36 0
0.511167 0.13027 -0.12478 223 31 0
0.508988 0.135614 -0.126205 227 27 0
0.508987 0.141432 -0.127566 232 22 0
0.511569 0.146695 -0.128358 236 18 0
0.515106 0.151165 -0.128763 241 13 0
0.519702 0.154913 -0.128618 245 9 0
0.525206 0.155607 -0.128266 250 4 0
0.530525 0.157103 -0.127718 255 0 0
