ply
format ascii 1.0
comment Generated by robot_control PLYWriter
element vertex 37
property float x
property float y
property float z
property uchar red
property uchar green
property uchar blue
end_header
0.680747 0.0757954 -0.140204 0 255 0
0.685068 0.0742376 -0.1396 7 247 0
0.688341 0.0713999 -0.138809 14 240 0
0.688855 0.0672257 -0.136699 21 233 0
0.687903 0.0620158 -0.135139 28 226 0
0.683267 0.0590675 -0.133879 35 219 0
0.677299 0.0586153 -0.133706 42 212 0
0.671997 0.0610104 -0.134105 49 205 0
0.667641 0.0648041 -0.135155 56 198 0
0.665224 0.0699637 -0.136543 63 191 0
0.66474 0.0756225 -0.138313 70 184 0
0.668513 0.0799797 -0.139643 77 177 0
0.673707 0.081376 -0.140633 85 169 0
0.6796 0.0811263 -0.140664 92 162 0
0.683479 0.0768274 -0.139864 99 155 0
0.68232 0.0714524 -0.138726 106 148 0
0.678799 0.067419 -0.1374 113 141 0
0.673227 0.0660618 -0.136746 120 134 0
0.667605 0.067162 -0.136753 127 127 0
0.662494 0.070217 -0.137316 134 120 0
0.659501 0.0753161 -0.138399 141 113 0
0.659047 0.0808743 -0.140047 148 106 0
0.662744 0.085203 -0.14204 155 99 0
0.667173 0.0890041 -0.143191 162 92 0
0.672807 0.0885714 -0.143625 170 84 0
0.676439 0.0845598 -0.143123 177 77 0
0.677575 0.0796359 -0.142027 184 70 0
0.676145 0.0747357 -0.140356 191 63 0
0.671111 0.0719552 -0.138879 198 56 0
0.66518 0.0717728 -0.137893 205 49 0
0.659785 0.0739312 -0.13765 212 42 0
0.655322 0.0772086 -0.138402 219 35 0
0.652613 0.081733 -0.139635 226 28 0
0.653997 0.0866883 -0.14122 233 21 0
0.656092 0.0908371 -0.143136 240 14 0
0.658318 0.0947998 -0.145379 247 7 0
0.663002 0.0948439 -0.146863 255 0 0
