ply
format ascii 1.0
comment Generated by robot_control PLYWriter
element vertex 32
property float x
property float y
property float z
property uchar red
property uchar green
property uchar blue
end_header
0.704593 0.0533126 -0.157459 0 255 0
0.70958 0.0514207 -0.155884 8 246 0
0.713088 0.0471521 -0.154183 16 238 0
0.716164 0.0425882 -0.152393 24 230 0
0.716244 0.0370972 -0.150202 32 222 0
0.714772 0.0314894 -0.148776 41 213 0
0.710657 0.0282458 -0.147741 49 205 0
0.704756 0.0282597 -0.14755 57 197 0
0.699286 0.0289373 -0.148287 65 189 0
0.695631 0.0335612 -0.149437 74 180 0
0.692658 0.0384512 -0.15112 82 172 0
0.69288 0.0440089 -0.152975 90 164 0
0.695157 0.0493209 -0.154245 98 156 0
0.699833 0.052798 -0.155513 106 148 0
0.704511 0.0563249 -0.156201 115 139 0
0.710288 0.0575777 -0.156498 123 131 0
0.716016 0.0564749 -0.15645 131 123 0
0.720973 0.0532142 -0.155964 139 115 0
0.725125 0.0489797 -0.155197 148 106 0
0.727281 0.0437512 -0.153772 156 98 0
0.72768 0.0383472 -0.152222 164 90 0
0.724881 0.0332145 -0.15085 172 82 0
0.719557 0.0320931 -0.149942 180 74 0
0.71358 0.0317377 -0.149945 189 65 0
0.708613 0.0339173 -0.150492 197 57 0
0.706105 0.0389572 -0.151874 205 49 0
0.704867 0.0444073 -0.153624 213 41 0
0.704887 0.0499169 -0.15586 222 32 0
0.707847 0.053856 -0.157752 230 24 0
0.711782 0.0578093 -0.159463 238 16 0
0.716994 0.05965 -0.161109 246 8 0
0.722678 0.059444 -0.162045 255 0 0
