ply
format ascii 1.0
comment Generated by robot_control PLYWriter
element vertex 57
property float x
property float y
property float z
property uchar red
property uchar green
property uchar blue
end_header
0.704293 0.154978 -0.11469 0 255 0
0.709681 0.153368 -0.114437 4 250 0
0.71341 0.149763 -0.113825 9 245 0
0.717406 0.145315 -0.113128 13 241 0
0.719026 0.140054 -0.112517 18 236 0
0.718774 0.134111 -0.11152 22 232 0
0.717202 0.128359 -0.110837 27 227 0
0.713961 0.123594 -0.11023 31 223 0
0.708304 0.121884 -0.11004 36 218 0
0.702254 0.121904 -0.110037 40 214 0
0.696476 0.122546 -0.110293 45 209 0
0.691733 0.126125 -0.110653 50 204 0
0.68843 0.131112 -0.111198 54 200 0
0.688351 0.137069 -0.111882 59 195 0
0.688938 0.142978 -0.112529 63 191 0
0.691338 0.148491 -0.113172 68 186 0
0.694997 0.153093 -0.11366 72 182 0
0.70016 0.156178 -0.11397 77 177 0
0.705923 0.157364 -0.114161 81 173 0
0.711974 0.157335 -0.114218 86 168 0
0.717541 0.155599 -0.114157 91 163 0
0.722465 0.152142 -0.11397 95 159 0
0.725703 0.147196 -0.113562 100 154 0
0.727971 0.141605 -0.113089 104 150 0
0.727727 0.135896 -0.112602 109 145 0
0.725228 0.130457 -0.112061 113 141 0
0.720912 0.126305 -0.11167 118 136 0
0.715308 0.124139 -0.111467 122 132 0
0.709336 0.124248 -0.111417 127 127 0
0.703641 0.12603 -0.111518 132 122 0
0.70003 0.130738 -0.111847 136 118 0
0.697857 0.136368 -0.112219 141 113 0
0.696881 0.142099 -0.112635 145 109 0
0.698984 0.147732 -0.113211 150 104 0
0.702329 0.152618 -0.113864 154 100 0
0.706892 0.156555 -0.114399 159 95 0
0.711785 0.159689 -0.114823 163 91 0
0.717806 0.159402 -0.115201 168 86 0
0.723758 0.158358 -0.115412 173 81 0
0.7294 0.156333 -0.115509 177 77 0
0.73387 0.152307 -0.115394 182 72 0
0.7364 0.147035 -0.115089 186 68 0
0.737136 0.141047 -0.114669 191 63 0
0.737188 0.135136 -0.113943 195 59 0
0.733321 0.130564 -0.113327 200 54 0
0.728711 0.126685 -0.112804 204 50 0
0.723157 0.126183 -0.112276 209 45 0
0.717283 0.126538 -0.111869 214 40 0
0.71304 0.130422 -0.111771 218 36 0
0.709781 0.13551 -0.112046 223 31 0
0.706124 0.139861 -0.112596 227 27 0
0.706412 0.145865 -0.11328 232 22 0
0.708222 0.151453 -0.114168 236 18 0
0.711877 0.15614 -0.114866 241 13 0
0.716295 0.159641 -0.115725 245 9 0
0.721157 0.161435 -0.116557 250 4 0
0.726775 0.161265 -0.117084 255 0 0
