ply
format ascii 1.0
comment Generated by robot_control PLYWriter
element vertex 12
property float x
property float y
property float z
property uchar red
property uchar green
property uchar blue
end_header
0.610647 -0.0755543 -0.128283 0 255 0
0.611105 -0.0805086 -0.12897 23 231 0
0.611618 -0.0854807 -0.129598 46 208 0
0.612006 -0.0904758 -0.130142 69 185 0
0.612389 -0.095478 -0.130619 92 162 0
0.612748 -0.10049 -0.130998 115 139 0
0.613113 -0.105508 -0.131282 139 115 0
0.61341 -0.110535 -0.13144 162 92 0
0.613636 -0.11557 -0.131484 185 69 0
0.61388 -0.120603 -0.131474 208 46 0
0.614106 -0.125638 -0.131426 231 23 0
0.61459 -0.130653 -0.131472 255 0 0
