ply
format ascii 1.0
comment Generated by robot_control PLYWriter
element vertex 10
property float x
property float y
property float z
property uchar red
property uchar green
property uchar blue
end_header
0.616559 -0.226687 -0.0150932 0 255 0
0.616192 -0.221679 -0.0146638 28 226 0
0.615766 -0.216668 -0.0142006 56 198 0
0.615446 -0.211642 -0.0138068 85 169 0
0.615021 -0.206627 -0.0133797 113 141 0
0.614499 -0.201615 -0.0130091 141 113 0
0.613949 -0.196598 -0.0128294 170 84 0
0.613528 -0.191566 -0.0128911 198 56 0
0.613206 -0.186526 -0.0130287 226 28 0
0.612681 -0.181516 -0.0133884 255 0 0
