ply
format ascii 1.0
comment Generated by robot_control PLYWriter
element vertex 45
property float x
property float y
property float z
property uchar red
property uchar green
property uchar blue
end_header
0.662176 -0.261463 -0.0809427 0 255 0
0.667213 -0.26133 -0.0816827 5 249 0
0.670806 -0.263674 -0.0822563 11 243 0
0.674831 -0.266702 -0.0829189 17 237 0
0.676438 -0.272133 -0.0834775 23 231 0
0.676435 -0.278097 -0.0837141 28 226 0
0.674058 -0.283076 -0.083812 34 220 0
0.669643 -0.28686 -0.0837246 40 214 0
0.663678 -0.286902 -0.0834942 46 208 0
0.659601 -0.28311 -0.0831859 52 202 0
0.655627 -0.278926 -0.082822 57 197 0
0.65596 -0.273433 -0.0824866 63 191 0
0.657635 -0.267887 -0.082336 69 185 0
0.66191 -0.26372 -0.0824075 75 179 0
0.666984 -0.260631 -0.0825835 81 173 0
0.672649 -0.260839 -0.0828205 86 168 0
0.678093 -0.263276 -0.0829655 92 162 0
0.68258 -0.26676 -0.0831841 98 156 0
0.684791 -0.272268 -0.0833978 104 150 0
0.686539 -0.277607 -0.0837072 110 144 0
0.683741 -0.282604 -0.0838653 115 139 0
0.678871 -0.285842 -0.0837656 121 133 0
0.673047 -0.286812 -0.0835196 127 127 0
0.668189 -0.285343 -0.0832114 133 121 0
0.665563 -0.280064 -0.0830407 139 115 0
0.664726 -0.274372 -0.0829431 144 110 0
0.665679 -0.26863 -0.0830118 150 104 0
0.670023 -0.265176 -0.0831867 156 98 0
0.675202 -0.26225 -0.0834433 162 92 0
0.6804 -0.2611 -0.0837181 168 86 0
0.68613 -0.262096 -0.0839074 173 81 0
0.690066 -0.266433 -0.0839721 179 75 0
0.693832 -0.271043 -0.0840098 185 69 0
0.695123 -0.276704 -0.0840304 191 63 0
0.693685 -0.282361 -0.083931 197 57 0
0.689775 -0.286604 -0.0836678 202 52 0
0.683817 -0.286638 -0.0833081 208 46 0
0.677973 -0.286261 -0.0832492 214 40 0
0.674289 -0.281845 -0.0833844 220 34 0
0.672929 -0.276832 -0.083502 226 28 0
0.672621 -0.270942 -0.0835734 231 23 0
0.676471 -0.266585 -0.0835238 237 17 0
0.680496 -0.264675 -0.0835803 243 11 0
0.683556 -0.262143 -0.0837765 249 5 0
0.688743 -0.260529 -0.0842264 255 0 0
