ply
format ascii 1.0
comment Generated by robot_control PLYWriter
element vertex 48
property float x
property float y
property float z
property uchar red
property uchar green
property uchar blue
end_header
0.585549 0.10152 -0.142107 0 255 0
0.590084 0.0990358 -0.140519 5 249 0
0.592577 0.0951646 -0.138368 10 244 0
0.592005 0.0894869 -0.136704 16 238 0
0.591448 0.0841368 -0.135599 21 233 0
0.58703 0.0802787 -0.13479 27 227 0
0.582087 0.0770289 -0.13475 32 222 0
0.576256 0.0760249 -0.135531 37 217 0
0.570361 0.0762809 -0.136613 43 211 0
0.565375 0.0790145 -0.138396 48 206 0
0.56183 0.0832949 -0.140122 54 200 0
0.559735 0.0879793 -0.14267 59 195 0
0.559665 0.0937176 -0.144408 65 189 0
0.562471 0.0987337 -0.145334 70 184 0
0.566059 0.103123 -0.145756 75 179 0
0.571636 0.105318 -0.145486 81 173 0
0.577224 0.104674 -0.144508 86 168 0
0.58198 0.101356 -0.143086 92 162 0
0.584857 0.0965317 -0.141285 97 157 0
0.584293 0.0908899 -0.139775 103 151 0
0.581447 0.0859168 -0.138929 108 146 0
0.576681 0.0822926 -0.138715 113 141 0
0.571227 0.0801388 -0.139139 119 135 0
0.565361 0.08002 -0.140199 124 130 0
0.559869 0.0817906 -0.1418 130 124 0
0.55449 0.0836601 -0.143314 135 119 0
0.552281 0.0888037 -0.145466 141 113 0
0.550935 0.0942535 -0.147345 146 108 0
0.552243 0.0997567 -0.149013 151 103 0
0.556479 0.103831 -0.149923 157 97 0
0.561453 0.107067 -0.150147 162 92 0
0.567163 0.108167 -0.149633 168 86 0
0.571741 0.106134 -0.148228 173 81 0
0.575692 0.103059 -0.146377 179 75 0
0.576514 0.0977899 -0.143987 184 70 0
0.574373 0.0926727 -0.142451 189 65 0
0.571122 0.0877292 -0.141467 195 59 0
0.566129 0.0849532 -0.141222 200 54 0
0.560538 0.0831572 -0.141837 206 48 0
0.554877 0.083042 -0.143455 211 43 0
0.549943 0.0854897 -0.145282 217 37 0
0.545984 0.0891302 -0.147752 222 32 0
0.543823 0.0935408 -0.150387 227 27 0
0.543789 0.0983665 -0.15395 233 21 0
0.545451 0.103609 -0.155834 238 16 0
0.548735 0.107018 -0.157724 244 10 0
0.551855 0.110976 -0.158749 249 5 0
0.557315 0.110503 -0.15831 255 0 0
