ply
format ascii 1.0
comment Generated by robot_control PLYWriter
element vertex 29
property float x
property float y
property float z
property uchar red
property uchar green
property uchar blue
end_header
0.673516 0.119339 -0.167951 0 255 0
0.677527 0.116695 -0.166358 9 245 0
0.680837 0.113099 -0.16446 18 236 0
0.684382 0.10868 -0.162643 27 227 0
0.682831 0.103467 -0.160779 36 218 0
0.681623 0.0985302 -0.15919 45 209 0
0.677853 0.0941444 -0.158409 54 200 0
0.672065 0.0929192 -0.158183 63 191 0
0.666158 0.0931903 -0.158566 72 182 0
0.66226 0.0973291 -0.15975 81 173 0
0.661029 0.102555 -0.160934 91 163 0
0.663497 0.107742 -0.161856 100 154 0
0.667937 0.11066 -0.162353 109 145 0
0.673542 0.112578 -0.162454 118 136 0
0.679349 0.11312 -0.162212 127 127 0
0.684613 0.110268 -0.161743 136 118 0
0.68892 0.106336 -0.160401 145 109 0
0.691957 0.101393 -0.159163 154 100 0
0.691048 0.0960318 -0.157749 163 91 0
0.690109 0.0904121 -0.156166 173 81 0
0.686633 0.0868001 -0.155033 182 72 0
0.681933 0.0834828 -0.154473 191 63 0
0.675931 0.0834881 -0.154353 200 54 0
0.671715 0.0871556 -0.154745 209 45 0
0.669231 0.0921848 -0.156063 218 36 0
0.671149 0.097171 -0.157987 227 27 0
0.673999 0.101901 -0.159144 236 18 0
0.679298 0.103838 -0.160052 245 9 0
0.685183 0.103969 -0.160283 255 0 0
