ply
format ascii 1.0
comment Generated by robot_control PLYWriter
element vertex 13
property float x
property float y
property float z
property uchar red
property uchar green
property uchar blue
end_header
0.638934 0.0414137 -0.0387293 0 255 0
0.639386 0.0364278 -0.0379206 21 233 0
0.639534 0.0313991 -0.0372766 42 212 0
0.639722 0.0263641 -0.0366878 63 191 0
0.639935 0.021308 -0.03634 85 169 0
0.64008 0.0162374 -0.0363253 106 148 0
0.640347 0.011177 -0.0365547 127 127 0
0.640438 0.00612791 -0.0370349 148 106 0
0.640406 0.00109714 -0.0376856 170 84 0
0.640392 -0.0039185 -0.0384447 191 63 0
0.64046 -0.00892331 -0.0392691 212 42 0
0.640465 -0.0138687 -0.040397 233 21 0
0.640547 -0.0188236 -0.0414704 255 0 0
