ply
format ascii 1.0
comment Generated by robot_control PLYWriter
element vertex 14
property float x
property float y
property float z
property uchar red
property uchar green
property uchar blue
end_header
0.572387 -0.135776 -0.0419398 0 255 0
0.572393 -0.140691 -0.0422399 19 235 0
0.57238 -0.145601 -0.0426094 39 215 0
0.572374 -0.150522 -0.0427528 58 196 0
0.572391 -0.155442 -0.0426034 78 176 0
0.572413 -0.160333 -0.0420694 98 156 0
0.572434 -0.165165 -0.041145 117 137 0
0.57246 -0.169954 -0.0400015 137 117 0
0.572492 -0.174727 -0.0387946 156 98 0
0.572514 -0.179531 -0.0377284 176 78 0
0.572527 -0.184385 -0.036899 196 58 0
0.572555 -0.189195 -0.0359296 215 39 0
0.572598 -0.193784 -0.0341474 235 19 0
0.572605 -0.198524 -0.0328889 255 0 0
