ply
format ascii 1.0
comment Generated by robot_control PLYWriter
element vertex 15
property float x
property float y
property float z
property uchar red
property uchar green
property uchar blue
end_header
0.607596 0.0538759 -0.102976 0 255 0
0.606706 0.0585897 -0.10369 18 236 0
0.606088 0.0633424 -0.104432 36 218 0
0.605447 0.0680889 -0.105198 54 200 0
0.604655 0.0728098 -0.105977 72 182 0
0.604025 0.0775549 -0.106752 91 163 0
0.60346 0.0823065 -0.107547 109 145 0
0.602766 0.0870314 -0.108391 127 127 0
0.602038 0.0917428 -0.109285 145 109 0
0.601389 0.0964564 -0.110228 163 91 0
0.600755 0.101158 -0.11124 182 72 0
0.600103 0.105825 -0.112384 200 54 0
0.599441 0.110462 -0.113642 218 36 0
0.598822 0.115145 -0.114739 236 18 0
0.597942 0.119731 -0.116043 255 0 0
