ply
format ascii 1.0
comment Generated by robot_control PLYWriter
element vertex 14
property float x
property float y
property float z
property uchar red
property uchar green
property uchar blue
end_header
0.668661 -0.114426 -0.023487 0 255 0
0.668434 -0.109718 -0.0247379 19 235 0
0.668059 -0.104988 -0.0258959 39 215 0
0.667827 -0.100249 -0.0270516 58 196 0
0.667639 -0.0955195 -0.028255 78 176 0
0.667446 -0.0908044 -0.0295134 98 156 0
0.66726 -0.0860881 -0.0307686 117 137 0
0.667073 -0.0813615 -0.0319842 137 117 0
0.666873 -0.0766296 -0.033177 156 98 0
0.666669 -0.0718982 -0.0343715 176 78 0
0.666459 -0.0671594 -0.0355333 196 58 0
0.666261 -0.0624036 -0.0366223 215 39 0
0.666195 -0.0576576 -0.0377702 235 19 0
0.665961 -0.0528844 -0.0387774 255 0 0
