ply
format ascii 1.0
comment Generated by robot_control PLYWriter
element vertex 47
property float x
property float y
property float z
property uchar red
property uchar green
property uchar blue
end_header
0.552646 0.17722 -0.133241 0 255 0
0.558178 0.177367 -0.132331 5 249 0
0.562938 0.175001 -0.131078 11 243 0
0.56681 0.170832 -0.129898 16 238 0
0.568559 0.165741 -0.128289 22 232 0
0.567022 0.160252 -0.126864 27 227 0
0.564275 0.155596 -0.125844 33 221 0
0.558579 0.154364 -0.125649 38 216 0
0.552593 0.154358 -0.126246 44 210 0
0.548149 0.157524 -0.127371 49 205 0
0.544622 0.161956 -0.128831 55 199 0
0.542843 0.167498 -0.129938 60 194 0
0.544341 0.173212 -0.131091 66 188 0
0.547445 0.17816 -0.132051 72 182 0
0.551716 0.182363 -0.132631 77 177 0
0.557074 0.184885 -0.133028 83 171 0
0.563077 0.184791 -0.132888 88 166 0
0.569055 0.184547 -0.132336 94 160 0
0.57243 0.180101 -0.131673 99 155 0
0.575859 0.175697 -0.130568 105 149 0
0.576777 0.169862 -0.129761 110 144 0
0.572967 0.165532 -0.129253 116 138 0
0.56814 0.162041 -0.129149 121 133 0
0.562303 0.161959 -0.129537 127 127 0
0.556947 0.164576 -0.130293 133 121 0
0.553754 0.169346 -0.130981 138 116 0
0.55261 0.175097 -0.131765 144 110 0
0.552709 0.181063 -0.13244 149 105 0
0.555942 0.186118 -0.132993 155 99 0
0.55995 0.190347 -0.133353 160 94 0
0.565532 0.192591 -0.13351 166 88 0
0.571378 0.193825 -0.133415 171 83 0
0.576774 0.191882 -0.13298 177 77 0
0.581416 0.188137 -0.132167 182 72 0
0.585009 0.183443 -0.13131 188 66 0
0.583812 0.177815 -0.130681 194 60 0
0.580948 0.172871 -0.13027 199 55 0
0.576418 0.169026 -0.130207 205 49 0
0.570402 0.168888 -0.130516 210 44 0
0.565756 0.172577 -0.131183 216 38 0
0.561598 0.176777 -0.132104 221 33 0
0.560071 0.182217 -0.133189 227 27 0
0.560571 0.187956 -0.133977 232 22 0
0.56327 0.192988 -0.13448 238 16 0
0.56694 0.197721 -0.134383 243 11 0
0.572223 0.199478 -0.133881 249 5 0
0.576704 0.20234 -0.132898 255 0 0
