ply
format ascii 1.0
comment Generated by robot_control PLYWriter
element vertex 97
property float x
property float y
property float z
property uchar red
property uchar green
property uchar blue
end_header
0.715731 0.0519185 -0.125343 0 255 0
0.718881 0.0492076 -0.126637 2 252 0
0.723193 0.0457172 -0.127577 5 249 0
0.725032 0.0404282 -0.127388 7 247 0
0.726128 0.0350932 -0.125727 10 244 0
0.725455 0.0300877 -0.12368 13 241 0
0.722511 0.0263436 -0.121216 15 239 0
0.719728 0.0219693 -0.118842 18 236 0
0.714584 0.0195866 -0.117544 21 233 0
0.709887 0.0174741 -0.117296 23 231 0
0.704897 0.0190572 -0.117975 26 228 0
0.700144 0.0223368 -0.118979 29 225 0
0.696758 0.0267971 -0.120415 31 223 0
0.696846 0.0325153 -0.121692 34 220 0
0.69993 0.0376313 -0.122498 37 217 0
0.704499 0.0413124 -0.123322 39 215 0
0.710195 0.0429565 -0.12366 42 212 0
0.716121 0.0419244 -0.123598 45 209 0
0.72125 0.0388563 -0.123152 47 207 0
0.724809 0.0345984 -0.122415 50 204 0
0.72676 0.0290034 -0.121454 53 201 0
0.727318 0.0231493 -0.120416 55 199 0
0.725224 0.0178091 -0.118908 58 196 0
0.721784 0.0133761 -0.117415 61 193 0
0.716322 0.0110572 -0.116353 63 191 0
0.711339 0.00778615 -0.115838 66 188 0
0.706094 0.0103176 -0.115864 69 185 0
0.701256 0.0126994 -0.116343 71 183 0
0.698673 0.0180279 -0.11713 74 180 0
0.698243 0.0237009 -0.118298 77 177 0
0.701449 0.0286549 -0.11937 79 175 0
0.705333 0.032733 -0.120163 82 172 0
0.711136 0.0327584 -0.120349 85 169 0
0.717017 0.0314963 -0.120067 87 167 0
0.722257 0.028984 -0.119472 90 164 0
0.72562 0.0240677 -0.118752 92 162 0
0.727701 0.0185194 -0.118052 95 159 0
0.728174 0.0126129 -0.117175 98 156 0
0.726034 0.00712955 -0.116216 100 154 0
0.72257 0.00226231 -0.115397 103 151 0
0.717214 -0.00028852 -0.114705 106 148 0
0.711328 -0.00128786 -0.114206 108 146 0
0.705474 -0.000209142 -0.114105 111 143 0
0.700765 0.0034402 -0.114248 114 140 0
0.698445 0.00892947 -0.114607 116 138 0
0.698766 0.0149169 -0.11524 119 135 0
0.702892 0.0189358 -0.115791 122 132 0
0.707599 0.0226417 -0.116231 124 130 0
0.713198 0.0228736 -0.116502 127 127 0
0.718878 0.0208525 -0.116467 130 124 0
0.724245 0.0181309 -0.116263 132 122 0
0.727398 0.0131766 -0.116051 135 119 0
0.729443 0.00753212 -0.115715 138 116 0
0.729275 0.00152557 -0.11535 140 114 0
0.725485 -0.00313573 -0.114939 143 111 0
0.721376 -0.00730121 -0.114412 146 108 0
0.716025 -0.010015 -0.113908 148 106 0
0.710271 -0.0110058 -0.113572 151 103 0
0.704883 -0.00870976 -0.113387 154 100 0
0.70134 -0.00386066 -0.113314 156 98 0
0.69846 0.00141925 -0.113361 159 95 0
0.701263 0.00641599 -0.113508 162 92 0
0.704737 0.011028 -0.113686 164 90 0
0.710289 0.0133478 -0.113967 167 87 0
0.716172 0.0132232 -0.114262 170 84 0
0.72153 0.0105099 -0.114479 172 82 0
0.725325 0.00597365 -0.114541 175 79 0
0.729267 0.00144335 -0.114514 177 77 0
0.728507 -0.00453003 -0.114409 180 74 0
0.727946 -0.0102951 -0.114222 183 71 0
0.724854 -0.015467 -0.11401 185 69 0
0.72029 -0.0192263 -0.113773 188 66 0
0.714581 -0.0207343 -0.113476 191 63 0
0.70886 -0.0191678 -0.113169 193 61 0
0.704095 -0.0173523 -0.112925 196 58 0
0.701638 -0.0118888 -0.112758 199 55 0
0.700622 -0.00604239 -0.112667 201 53 0
0.703365 -0.000955512 -0.112689 204 50 0
0.707981 0.00291326 -0.112852 207 47 0
0.713838 0.00354462 -0.11327 209 45 0
0.719781 0.00323871 -0.113572 212 42 0
0.723994 -0.000760037 -0.11392 215 39 0
0.728521 -0.00453557 -0.114108 217 37 0
0.730527 -0.0100793 -0.114189 220 34 0
0.730958 -0.016 -0.113904 223 31 0
0.728465 -0.0214089 -0.113437 225 29 0
0.724941 -0.0262411 -0.112683 228 26 0
0.720147 -0.0291384 -0.111826 231 23 0
0.714636 -0.030941 -0.111332 233 21 0
0.709153 -0.0290163 -0.111126 236 18 0
0.70507 -0.0261424 -0.111398 239 15 0
0.701335 -0.0217883 -0.111921 241 13 0
0.700663 -0.0160265 -0.112514 244 10 0
0.702838 -0.0111893 -0.112699 247 7 0
0.706378 -0.00856392 -0.112909 249 5 0
0.710487 -0.00614675 -0.113012 252 2 0
0.716192 -0.00598759 -0.113487 255 0 0
