ply
format ascii 1.0
comment Generated by robot_control PLYWriter
element vertex 96
property float x
property float y
property float z
property uchar red
property uchar green
property uchar blue
end_header
0.587998 -0.00459913 -0.113445 0 255 0
0.593202 -0.00487261 -0.112376 2 252 0
0.595702 -0.00822852 -0.111124 5 249 0
0.596365 -0.0128999 -0.109507 8 246 0
0.598069 -0.017222 -0.108443 10 244 0
0.596344 -0.0221971 -0.107454 13 241 0
0.591652 -0.0246814 -0.107097 16 238 0
0.586389 -0.0267064 -0.107572 18 236 0
0.580476 -0.026651 -0.108519 21 233 0
0.575093 -0.0245386 -0.109854 24 230 0
0.5707 -0.0209433 -0.11167 26 228 0
0.568954 -0.015491 -0.113196 29 225 0
0.568886 -0.00976013 -0.114988 32 222 0
0.57029 -0.00419778 -0.116261 34 220 0
0.573152 0.000984302 -0.11709 37 217 0
0.5773 0.00514459 -0.117522 40 214 0
0.583232 0.00605935 -0.117424 42 212 0
0.58915 0.00603368 -0.116822 45 209 0
0.594624 0.00419352 -0.11564 48 206 0
0.597759 -0.000614365 -0.113977 51 204 0
0.598834 -0.0062902 -0.112612 53 201 0
0.596027 -0.0110718 -0.11173 56 198 0
0.591207 -0.0146322 -0.11145 59 195 0
0.585668 -0.0165573 -0.111866 61 193 0
0.57989 -0.0153844 -0.112675 64 190 0
0.574781 -0.0127342 -0.114066 67 187 0
0.571745 -0.00783813 -0.11557 69 185 0
0.569796 -0.00235352 -0.117014 72 182 0
0.569675 0.00310557 -0.118455 75 179 0
0.57195 0.00854236 -0.119511 77 177 0
0.575448 0.0132779 -0.120429 80 174 0
0.580757 0.0160471 -0.120777 83 171 0
0.586465 0.0170829 -0.120559 85 169 0
0.592435 0.0168022 -0.119966 88 166 0
0.59645 0.0127498 -0.119094 91 163 0
0.598121 0.00763038 -0.117429 93 161 0
0.598072 0.00166773 -0.116687 96 158 0
0.594579 -0.00308695 -0.116006 99 155 0
0.58919 -0.00466991 -0.116008 102 153 0
0.583408 -0.00618532 -0.116369 104 150 0
0.578071 -0.00395339 -0.117228 107 147 0
0.573707 -0.000433052 -0.118463 110 144 0
0.571227 0.00485443 -0.119851 112 142 0
0.570324 0.0104929 -0.121313 115 139 0
0.570369 0.0163542 -0.122638 118 136 0
0.573137 0.0214856 -0.123644 120 134 0
0.578298 0.0245081 -0.124229 123 131 0
0.583258 0.0277005 -0.124447 126 128 0
0.589258 0.0277093 -0.124208 128 126 0
0.594867 0.0263887 -0.123696 131 123 0
0.598384 0.0218295 -0.122566 134 120 0
0.599693 0.0165021 -0.12166 136 118 0
0.596907 0.0112626 -0.120792 139 115 0
0.592394 0.00740638 -0.120402 142 112 0
0.586853 0.00511676 -0.120552 144 110 0
0.581059 0.00529734 -0.121139 147 107 0
0.576416 0.00886597 -0.12192 150 104 0
0.571836 0.0124058 -0.123266 153 101 0
0.570315 0.0180214 -0.124656 155 99 0
0.571101 0.0236945 -0.125913 158 96 0
0.573634 0.0290208 -0.126917 161 93 0
0.576319 0.0342564 -0.1279 163 91 0
0.581215 0.037188 -0.128312 166 88 0
0.587108 0.0376556 -0.128412 169 85 0
0.592851 0.0365249 -0.127935 171 83 0
0.598031 0.0336504 -0.127089 174 80 0
0.60072 0.0288092 -0.125867 177 77 0
0.600196 0.0230625 -0.124742 179 75 0
0.596437 0.0184374 -0.124134 182 72 0
0.591133 0.0171287 -0.123937 185 69 0
0.585758 0.0155563 -0.124288 187 67 0
0.580173 0.0171989 -0.125076 190 64 0
0.575969 0.0206521 -0.126082 193 61 0
0.572036 0.0247447 -0.127683 195 59 0
0.570114 0.0301133 -0.129046 198 56 0
0.572295 0.0352468 -0.130473 201 53 0
0.573834 0.040833 -0.131565 204 50 0
0.577907 0.0450994 -0.132577 206 48 0
0.583156 0.0477533 -0.133011 209 45 0
0.588892 0.0492392 -0.132967 212 42 0
0.594638 0.0483388 -0.13231 214 40 0
0.599172 0.0447318 -0.131266 217 37 0
0.600893 0.0396766 -0.130006 220 34 0
0.59938 0.0348135 -0.128318 222 32 0
0.596722 0.0301342 -0.127324 225 29 0
0.591629 0.0274782 -0.126791 228 26 0
0.585936 0.0258016 -0.126912 230 24 0
0.580663 0.0275986 -0.127909 233 21 0
0.576012 0.030838 -0.129215 236 18 0
0.572998 0.0351424 -0.130881 238 16 0
0.571957 0.0403247 -0.133197 241 13 0
0.5718 0.0458503 -0.134618 244 10 0
0.574088 0.0504978 -0.1364 246 8 0
0.577893 0.0547407 -0.137418 249 5 0
0.58218 0.0568619 -0.138259 252 2 0
0.586632 0.0590423 -0.138516 255 0 0
