ply
format ascii 1.0
comment Generated by robot_control PLYWriter
element vertex 97
property float x
property float y
property float z
property uchar red
property uchar green
property uchar blue
end_header
0.598231 0.0277875 -0.142452 0 255 0
0.602459 0.0258241 -0.142133 2 252 0
0.605223 0.0226885 -0.141858 5 249 0
0.606911 0.0183859 -0.141717 7 247 0
0.606898 0.0123793 -0.141693 10 244 0
0.604887 0.0070532 -0.141737 13 241 0
0.599566 0.00499813 -0.141917 15 239 0
0.59401 0.00389743 -0.14229 18 236 0
0.588097 0.00423906 -0.142998 21 233 0
0.583319 0.0076245 -0.143683 23 231 0
0.579456 0.0120969 -0.144223 26 228 0
0.578273 0.0174044 -0.144762 29 225 0
0.578252 0.0233953 -0.145036 31 223 0
0.580354 0.0290194 -0.145146 34 220 0
0.584056 0.0335696 -0.145035 37 217 0
0.588996 0.0367952 -0.144572 39 215 0
0.594828 0.0381263 -0.144103 42 212 0
0.600237 0.0364245 -0.143556 45 209 0
0.604235 0.0319669 -0.143078 47 207 0
0.606917 0.0270747 -0.142564 50 204 0
0.606595 0.0211636 -0.142355 53 201 0
0.603115 0.0162715 -0.142478 55 199 0
0.597734 0.014008 -0.142852 58 196 0
0.591779 0.0135632 -0.143394 61 193 0
0.586764 0.0160347 -0.143996 63 191 0
0.581918 0.0193514 -0.14474 66 188 0
0.578593 0.0242086 -0.145516 69 185 0
0.57809 0.0300849 -0.146259 71 183 0
0.578575 0.0359673 -0.146704 74 180 0
0.582002 0.0408783 -0.147028 77 177 0
0.586474 0.0448273 -0.147065 79 175 0
0.591765 0.0475522 -0.146873 82 172 0
0.59757 0.0471127 -0.146383 85 169 0
0.602939 0.0445291 -0.145784 87 167 0
0.606778 0.0405277 -0.145134 90 164 0
0.60695 0.0346108 -0.144437 92 162 0
0.605933 0.0288627 -0.143991 95 159 0
0.601514 0.0250185 -0.143788 98 156 0
0.595832 0.0235265 -0.14393 100 154 0
0.589978 0.0243518 -0.144428 103 151 0
0.584754 0.0269887 -0.145209 106 148 0
0.580968 0.0314558 -0.146321 108 146 0
0.578376 0.0367936 -0.147219 111 143 0
0.578217 0.0426833 -0.148239 114 140 0
0.579214 0.0484257 -0.148821 116 138 0
0.58289 0.052818 -0.149192 119 135 0
0.588075 0.0558401 -0.149424 122 132 0
0.593704 0.0569029 -0.149355 124 130 0
0.599669 0.0573254 -0.148983 127 127 0
0.603961 0.0535211 -0.148383 130 124 0
0.607094 0.0491017 -0.147333 132 122 0
0.60703 0.0431581 -0.146465 135 119 0
0.605058 0.0376581 -0.145766 138 116 0
0.601359 0.0336384 -0.145615 140 114 0
0.595355 0.0335721 -0.145787 143 111 0
0.589483 0.0343595 -0.146349 146 108 0
0.583961 0.0365727 -0.147105 148 106 0
0.580906 0.0414947 -0.148038 151 103 0
0.578179 0.0467095 -0.14895 154 100 0
0.578197 0.0526417 -0.14986 156 98 0
0.579645 0.0583143 -0.150371 159 95 0
0.583231 0.0629754 -0.150713 162 92 0
0.588387 0.065873 -0.150907 164 90 0
0.594253 0.0670283 -0.150776 167 87 0
0.600033 0.0659519 -0.150363 170 84 0
0.604846 0.0626202 -0.149421 172 82 0
0.607106 0.0571835 -0.148691 175 79 0
0.607122 0.0512305 -0.147962 177 77 0
0.603849 0.046306 -0.147814 180 74 0
0.599277 0.043607 -0.148029 183 71 0
0.59343 0.0422802 -0.148348 185 69 0
0.587649 0.043107 -0.149054 188 66 0
0.58374 0.0469646 -0.149711 191 63 0
0.580507 0.0519484 -0.15047 193 61 0
0.578217 0.0572069 -0.151038 196 58 0
0.578112 0.063199 -0.151439 199 55 0
0.581205 0.0682684 -0.151308 201 53 0
0.584401 0.0733078 -0.150707 204 50 0
0.589582 0.0756148 -0.149692 207 47 0
0.595224 0.0770579 -0.148817 209 45 0
0.600086 0.0753745 -0.148008 212 42 0
0.604652 0.0732055 -0.147446 215 39 0
0.606962 0.0678595 -0.147344 217 37 0
0.607737 0.0624305 -0.14777 220 34 0
0.604335 0.05758 -0.148462 223 31 0
0.60009 0.0537801 -0.149451 225 29 0
0.594262 0.0531086 -0.150283 228 26 0
0.588384 0.0530872 -0.151151 231 23 0
0.583321 0.0553405 -0.151912 233 21 0
0.579962 0.0594979 -0.152673 236 18 0
0.578102 0.0645467 -0.153115 239 15 0
0.57806 0.0705511 -0.153119 241 13 0
0.578384 0.0763094 -0.152314 244 10 0
0.58118 0.0805002 -0.15138 247 7 0
0.584583 0.0834476 -0.150181 249 5 0
0.588407 0.0852938 -0.149097 252 2 0
0.592833 0.0874055 -0.147985 255 0 0
