ply
format ascii 1.0
comment Generated by robot_control PLYWriter
element vertex 113
property float x
property float y
property float z
property uchar red
property uchar green
property uchar blue
end_header
0.629541 0.136419 -0.143311 0 255 0
0.632993 0.133874 -0.142247 2 252 0
0.636265 0.131481 -0.140832 4 250 0
0.638737 0.127378 -0.139147 6 248 0
0.640268 0.12281 -0.137253 9 245 0
0.639475 0.11718 -0.135837 11 243 0
0.63726 0.112012 -0.134883 13 241 0
0.634257 0.107249 -0.134211 15 239 0
0.628841 0.105234 -0.134153 18 236 0
0.623416 0.10394 -0.134673 20 234 0
0.618088 0.104842 -0.135828 22 232 0
0.612932 0.10723 -0.136834 25 229 0
0.610142 0.111469 -0.138397 27 227 0
0.61092 0.117017 -0.139742 29 225 0
0.61318 0.122267 -0.140377 31 223 0
0.618254 0.125402 -0.140545 34 220 0
0.623585 0.127138 -0.140131 36 218 0
0.629098 0.126462 -0.13917 38 216 0
0.634584 0.124423 -0.138072 40 214 0
0.637909 0.119883 -0.136631 43 211 0
0.640075 0.114589 -0.135186 45 209 0
0.640463 0.108747 -0.134054 47 207 0
0.638218 0.103628 -0.133174 50 204 0
0.634975 0.0988071 -0.132599 52 202 0
0.62949 0.0967661 -0.132445 54 200 0
0.623707 0.0953757 -0.13274 56 198 0
0.61789 0.0959561 -0.133669 59 195 0
0.612941 0.0991522 -0.134765 61 193 0
0.611175 0.104693 -0.13564 63 191 0
0.61174 0.109938 -0.136289 66 188 0
0.615812 0.114228 -0.13674 68 186 0
0.621233 0.116774 -0.136701 70 184 0
0.626502 0.118519 -0.136108 72 182 0
0.632055 0.116399 -0.135312 75 179 0
0.636127 0.112866 -0.134293 77 177 0
0.639783 0.108322 -0.133351 79 175 0
0.63994 0.102943 -0.132245 81 173 0
0.640127 0.0971446 -0.131462 84 170 0
0.637044 0.0920725 -0.130862 86 168 0
0.632496 0.0883469 -0.130528 88 166 0
0.626883 0.0862599 -0.130565 91 163 0
0.620943 0.0857786 -0.131032 93 161 0
0.615493 0.0872688 -0.131623 95 159 0
0.611092 0.0911686 -0.132439 97 157 0
0.61191 0.0969118 -0.133224 100 154 0
0.613441 0.102668 -0.133916 102 152 0
0.617096 0.107278 -0.134037 104 150 0
0.622927 0.108653 -0.133766 107 147 0
0.62861 0.108735 -0.133124 109 145 0
0.634099 0.10649 -0.132241 111 143 0
0.637828 0.102044 -0.131324 113 141 0
0.64012 0.0965843 -0.130473 116 138 0
0.641107 0.0908311 -0.129506 118 136 0
0.638676 0.0853835 -0.128888 120 134 0
0.635218 0.0805126 -0.12837 122 132 0
0.630875 0.0770777 -0.128207 125 129 0
0.624991 0.0760004 -0.12843 127 127 0
0.619066 0.0757743 -0.128853 129 125 0
0.614783 0.0795677 -0.12952 132 122 0
0.611843 0.0846769 -0.130402 134 120 0
0.610827 0.090412 -0.131071 136 118 0
0.614322 0.0949395 -0.131578 138 116 0
0.619172 0.098277 -0.131569 141 113 0
0.625017 0.0986944 -0.131242 143 111 0
0.630746 0.099605 -0.130448 145 109 0
0.635601 0.0964301 -0.129443 147 107 0
0.638916 0.0915315 -0.128507 150 104 0
0.641156 0.0862058 -0.127575 152 102 0
0.641023 0.0803078 -0.126513 154 100 0
0.638479 0.0752265 -0.125912 157 97 0
0.634662 0.0706224 -0.125461 159 95 0
0.629308 0.0680886 -0.12542 161 93 0
0.62406 0.0653399 -0.125697 163 91 0
0.618631 0.067168 -0.126343 166 88 0
0.613581 0.0702864 -0.127163 168 86 0
0.610758 0.075472 -0.127875 170 84 0
0.61212 0.0810561 -0.128856 173 81 0
0.614528 0.0865196 -0.129426 175 79 0
0.619719 0.0885458 -0.129513 177 77 0
0.625338 0.0901967 -0.129033 179 75 0
0.631172 0.089527 -0.128083 182 72 0
0.636096 0.0864154 -0.127007 184 70 0
0.639928 0.081983 -0.125865 186 68 0
0.640932 0.0764404 -0.124654 188 66 0
0.640395 0.0706518 -0.123426 191 63 0
0.637778 0.0653612 -0.122651 193 61 0
0.633498 0.0612651 -0.122266 195 59 0
0.629114 0.0572169 -0.122256 198 56 0
0.623179 0.0577679 -0.122873 200 54 0
0.61745 0.0586908 -0.123792 202 52 0
0.613057 0.062306 -0.125253 204 50 0
0.61162 0.0677669 -0.12645 207 47 0
0.611719 0.0733231 -0.127342 209 45 0
0.615717 0.0774281 -0.127769 211 43 0
0.62084 0.0801792 -0.127647 214 40 0
0.626477 0.0814784 -0.126884 216 38 0
0.632255 0.0803245 -0.125911 218 36 0
0.635972 0.0760921 -0.124495 220 34 0
0.639674 0.0718303 -0.122957 223 31 0
0.640664 0.0663338 -0.121241 225 29 0
0.640535 0.0604448 -0.120129 227 27 0
0.637619 0.0555216 -0.119001 229 25 0
0.635166 0.0509033 -0.118577 232 22 0
0.629975 0.0483749 -0.118735 234 20 0
0.624845 0.0470748 -0.119708 236 18 0
0.619764 0.0489212 -0.121205 239 15 0
0.615123 0.0517855 -0.12314 241 13 0
0.612279 0.0561494 -0.124872 243 11 0
0.611588 0.061477 -0.126015 245 9 0
0.613788 0.0662884 -0.126424 248 6 0
0.616414 0.0696123 -0.126466 250 4 0
0.620927 0.0720417 -0.126259 252 2 0
0.626118 0.0721722 -0.125344 255 0 0
