ply
format ascii 1.0
comment Generated by robot_control PLYWriter
element vertex 13
property float x
property float y
property float z
property uchar red
property uchar green
property uchar blue
end_header
0.729632 -0.222775 -0.133639 0 255 0
0.734011 -0.22687 -0.13465 21 233 0
0.735969 -0.232258 -0.135237 42 212 0
0.736128 -0.238096 -0.135499 63 191 0
0.733619 -0.243277 -0.135515 85 169 0
0.728152 -0.245919 -0.135165 106 148 0
0.722252 -0.246328 -0.134456 127 127 0
0.717114 -0.243445 -0.1334 148 106 0
0.714339 -0.238178 -0.132493 170 84 0
0.712868 -0.232876 -0.131628 191 63 0
0.715309 -0.22736 -0.131094 212 42 0
0.71922 -0.223925 -0.13064 233 21 0
0.724179 -0.222463 -0.131079 255 0 0
