ply
format ascii 1.0
comment Generated by robot_control PLYWriter
element vertex 8
property float x
property float y
property float z
property uchar red
property uchar green
property uchar blue
end_header
0.63848 -0.0161011 -0.103053 0 255 0
0.638492 -0.0211377 -0.103213 36 218 0
0.638492 -0.0261777 -0.103208 72 182 0
0.638492 -0.0312177 -0.103215 109 145 0
0.638038 -0.0362355 -0.10313 145 109 0
0.637679 -0.0412559 -0.102872 182 72 0
0.637322 -0.0462789 -0.102664 218 36 0
0.636573 -0.0512564 -0.102454 255 0 0
