ply
format ascii 1.0
comment Generated by robot_control PLYWriter
element vertex 33
property float x
property float y
property float z
property uchar red
property uchar green
property uchar blue
end_header
0.588934 0.0453534 -0.0812551 0 255 0
0.59316 0.0433067 -0.0839874 7 247 0
0.596755 0.0394442 -0.0864627 15 239 0
0.596837 0.0342603 -0.0886934 23 231 0
0.595844 0.0286922 -0.0900156 31 223 0
0.593097 0.0233934 -0.0906582 39 215 0
0.587529 0.0214167 -0.0904288 47 207 0
0.58163 0.0212895 -0.0892637 55 199 0
0.576441 0.0235976 -0.0877636 63 191 0
0.571027 0.0257956 -0.0864528 71 183 0
0.567867 0.0306214 -0.0848594 79 175 0
0.566737 0.0361984 -0.08323 87 167 0
0.56778 0.041834 -0.0816799 95 159 0
0.56985 0.0473385 -0.0804438 103 151 0
0.573906 0.0511606 -0.0793804 111 143 0
0.578708 0.0547453 -0.0790534 119 135 0
0.584568 0.0555696 -0.0793667 127 127 0
0.589771 0.0528068 -0.0805555 135 119 0
0.593677 0.0490796 -0.0818014 143 111 0
0.594489 0.0433248 -0.083053 151 103 0
0.594304 0.037538 -0.0846018 159 95 0
0.591803 0.0324331 -0.0859366 167 87 0
0.586604 0.0296359 -0.0865978 175 79 0
0.580728 0.0287959 -0.0866928 183 71 0
0.575024 0.0302441 -0.085873 191 63 0
0.570312 0.0335336 -0.08431 199 55 0
0.566316 0.0378361 -0.083074 207 47 0
0.56453 0.0431537 -0.0816865 215 39 0
0.564527 0.0488816 -0.0799328 223 31 0
0.566946 0.0537661 -0.0785072 231 23 0
0.570215 0.0577055 -0.0778066 239 15 0
0.573579 0.0612496 -0.077169 247 7 0
0.579163 0.0617331 -0.0761545 255 0 0
