ply
format ascii 1.0
comment Generated by robot_control PLYWriter
element vertex 65
property float x
property float y
property float z
property uchar red
property uchar green
property uchar blue
end_header
0.685398 -0.00980466 -0.112208 0 255 0
0.688516 -0.0130409 -0.111669 3 251 0
0.69275 -0.0158871 -0.110923 7 247 0
0.694434 -0.0211686 -0.109792 11 243 0
0.695664 -0.0263935 -0.108626 15 239 0
0.694434 -0.0315738 -0.107354 19 235 0
0.692178 -0.0362574 -0.105973 23 231 0
0.687684 -0.0400081 -0.104768 27 227 0
0.682183 -0.0421866 -0.103953 31 223 0
0.676376 -0.0428453 -0.103445 35 219 0
0.671141 -0.0404929 -0.103467 39 215 0
0.666529 -0.0367392 -0.103983 43 211 0
0.664904 -0.0311639 -0.104726 47 207 0
0.66595 -0.0256191 -0.10585 51 203 0
0.670109 -0.0216691 -0.106888 55 199 0
0.675431 -0.0189594 -0.107388 59 195 0
0.681079 -0.0196951 -0.107613 63 191 0
0.68665 -0.0217031 -0.107451 67 187 0
0.690182 -0.0262176 -0.107047 71 183 0
0.693943 -0.03072 -0.106397 75 179 0
0.694696 -0.0363238 -0.105492 79 175 0
0.693315 -0.0420904 -0.104617 83 171 0
0.690952 -0.0474966 -0.103774 87 167 0
0.686861 -0.0514476 -0.103097 91 163 0
0.681233 -0.0534448 -0.102535 95 159 0
0.675671 -0.0532771 -0.101984 99 155 0
0.670185 -0.0508602 -0.101801 103 151 0
0.666018 -0.0466935 -0.101979 107 147 0
0.664668 -0.0411471 -0.102568 111 143 0
0.665845 -0.0357418 -0.10325 115 139 0
0.669773 -0.0314363 -0.103817 119 135 0
0.674823 -0.0297009 -0.104183 123 131 0
0.680816 -0.0297701 -0.104366 127 127 0
0.685634 -0.0332701 -0.104325 131 123 0
0.689813 -0.0375508 -0.104001 135 119 0
0.692017 -0.0427283 -0.103525 139 115 0
0.69228 -0.048673 -0.102911 143 111 0
0.691982 -0.0545676 -0.102233 147 107 0
0.688638 -0.0590965 -0.101643 151 103 0
0.683994 -0.0628497 -0.101061 155 99 0
0.67841 -0.0640694 -0.100397 159 95 0
0.672504 -0.0634523 -0.100069 163 91 0
0.667038 -0.0611446 -0.100018 167 87 0
0.664158 -0.0559535 -0.100215 171 83 0
0.662864 -0.0502476 -0.100651 175 79 0
0.664586 -0.0446768 -0.101188 179 75 0
0.669951 -0.0420867 -0.101669 183 71 0
0.675503 -0.0405087 -0.102086 187 67 0
0.681368 -0.04103 -0.102354 191 63 0
0.685943 -0.0447662 -0.102391 195 59 0
0.690032 -0.0491373 -0.102224 199 55 0
0.691605 -0.0548635 -0.101907 203 51 0
0.691685 -0.0608322 -0.101332 207 47 0
0.690051 -0.0664977 -0.100695 211 43 0
0.686967 -0.0713915 -0.0997536 215 39 0
0.682046 -0.0743566 -0.0990087 219 35 0
0.677119 -0.0763265 -0.0984104 223 31 0
0.671814 -0.0746852 -0.0980099 227 27 0
0.666578 -0.0720115 -0.0977767 231 23 0
0.663256 -0.0672193 -0.0979731 235 19 0
0.662687 -0.0615767 -0.0985935 239 15 0
0.664252 -0.0572 -0.0992535 243 11 0
0.668184 -0.0534519 -0.0997786 247 7 0
0.672333 -0.0513135 -0.100342 251 3 0
0.677193 -0.0503348 -0.100849 255 0 0
