ply
format ascii 1.0
comment Generated by robot_control PLYWriter
element vertex 13
property float x
property float y
property float z
property uchar red
property uchar green
property uchar blue
end_header
0.600735 -0.276731 -0.114722 0 255 0
0.60089 -0.281547 -0.113803 21 233 0
0.60098 -0.286385 -0.112998 42 212 0
0.601061 -0.291218 -0.112158 63 191 0
0.601146 -0.296049 -0.11131 85 169 0
0.601225 -0.300877 -0.110445 106 148 0
0.601206 -0.305693 -0.109512 127 127 0
0.601187 -0.310477 -0.108426 148 106 0
0.60137 -0.315231 -0.107227 170 84 0
0.601553 -0.319979 -0.106007 191 63 0
0.601733 -0.324732 -0.104806 212 42 0
0.601919 -0.329445 -0.103462 233 21 0
0.602258 -0.334136 -0.102067 255 0 0
