ply
format ascii 1.0
comment Generated by robot_control PLYWriter
element vertex 66
property float x
property float y
property float z
property uchar red
property uchar green
property uchar blue
end_header
0.618055 -0.170901 -0.129365 0 255 0
0.621864 -0.173154 -0.128584 3 251 0
0.624767 -0.177876 -0.128263 7 247 0
0.626401 -0.183279 -0.128847 11 243 0
0.625123 -0.188787 -0.129875 15 239 0
0.622388 -0.193405 -0.131564 19 235 0
0.61844 -0.1961 -0.133816 23 231 0
0.613275 -0.197971 -0.135607 27 227 0
0.607734 -0.196719 -0.136941 31 223 0
0.604986 -0.192566 -0.137668 35 219 0
0.6025 -0.187542 -0.137312 39 215 0
0.605193 -0.183031 -0.136285 43 211 0
0.60951 -0.180353 -0.134503 47 207 0
0.614896 -0.178607 -0.133097 51 204 0
0.61966 -0.181978 -0.13205 54 200 0
0.623771 -0.185963 -0.131402 58 196 0
0.626205 -0.191439 -0.131256 62 192 0
0.625621 -0.197132 -0.131764 66 188 0
0.623373 -0.202594 -0.132723 70 184 0
0.619891 -0.207057 -0.134103 74 180 0
0.614344 -0.208165 -0.135694 78 176 0
0.608736 -0.207032 -0.136959 82 172 0
0.603986 -0.203746 -0.137647 86 168 0
0.603225 -0.198225 -0.137673 90 164 0
0.605089 -0.192601 -0.137124 94 160 0
0.610628 -0.191208 -0.135954 98 156 0
0.616266 -0.190612 -0.134611 102 153 0
0.620778 -0.193994 -0.133511 105 149 0
0.624877 -0.198313 -0.132812 109 145 0
0.626442 -0.203969 -0.132417 113 141 0
0.625284 -0.209823 -0.132582 117 137 0
0.622791 -0.215207 -0.133253 121 133 0
0.618888 -0.219356 -0.134102 125 129 0
0.613238 -0.220552 -0.135248 129 125 0
0.608068 -0.21793 -0.136314 133 121 0
0.604693 -0.213196 -0.137379 137 117 0
0.603568 -0.207429 -0.137632 141 113 0
0.607574 -0.203217 -0.137041 145 109 0
0.61185 -0.200075 -0.136033 149 105 0
0.617232 -0.201996 -0.135 153 101 0
0.622138 -0.205102 -0.133835 156 98 0
0.625429 -0.210017 -0.13316 160 94 0
0.626415 -0.215786 -0.132698 164 90 0
0.624565 -0.221479 -0.132802 168 86 0
0.620949 -0.225985 -0.133465 172 82 0
0.617609 -0.230489 -0.13435 176 78 0
0.61184 -0.229938 -0.135706 180 74 0
0.606498 -0.227448 -0.1368 184 70 0
0.60353 -0.222875 -0.13763 188 66 0
0.604759 -0.217313 -0.137543 192 62 0
0.608351 -0.21267 -0.136489 196 58 0
0.61407 -0.211698 -0.135211 200 54 0
0.619296 -0.213545 -0.133901 204 50 0
0.623966 -0.216875 -0.132861 207 47 0
0.626376 -0.222323 -0.13242 211 43 0
0.626473 -0.228297 -0.132557 215 39 0
0.624133 -0.23362 -0.133266 219 35 0
0.621011 -0.238494 -0.134634 223 31 0
0.615906 -0.240133 -0.136115 227 27 0
0.610987 -0.240897 -0.137272 231 23 0
0.606052 -0.238796 -0.138478 235 19 0
0.603356 -0.23491 -0.139036 239 15 0
0.60353 -0.22894 -0.138805 243 11 0
0.606614 -0.22451 -0.137793 247 7 0
0.610586 -0.222495 -0.136002 251 3 0
0.615115 -0.222927 -0.134191 255 0 0
