ply
format ascii 1.0
comment Generated by robot_control PLYWriter
element vertex 29
property float x
property float y
property float z
property uchar red
property uchar green
property uchar blue
end_header
0.625355 0.13899 -0.146342 0 255 0
0.629015 0.136495 -0.144581 9 245 0
0.630566 0.131456 -0.142551 18 236 0
0.632093 0.126085 -0.140873 27 227 0
0.630047 0.120693 -0.139732 36 218 0
0.62596 0.11645 -0.138972 45 209 0
0.620999 0.113303 -0.138725 54 200 0
0.615274 0.111656 -0.139036 63 191 0
0.609364 0.111649 -0.13964 72 182 0
0.604123 0.113842 -0.140481 81 173 0
0.600753 0.118647 -0.141484 91 163 0
0.60016 0.124295 -0.142826 100 154 0
0.604101 0.128343 -0.143501 109 145 0
0.609174 0.131425 -0.143589 118 136 0
0.614726 0.131354 -0.142965 127 127 0
0.619577 0.128053 -0.141957 136 118 0
0.622157 0.123055 -0.14069 145 109 0
0.622755 0.117241 -0.139596 154 100 0
0.621213 0.111853 -0.138537 163 91 0
0.617394 0.107357 -0.137677 173 81 0
0.612321 0.10436 -0.137155 182 72 0
0.606741 0.102248 -0.137077 191 63 0
0.601466 0.102612 -0.137361 200 54 0
0.596425 0.104329 -0.13819 209 45 0
0.593163 0.109073 -0.13932 218 36 0
0.592582 0.114447 -0.141229 227 27 0
0.592844 0.119711 -0.142738 236 18 0
0.597572 0.122627 -0.143508 245 9 0
0.602805 0.123943 -0.143351 255 0 0
