ply
format ascii 1.0
comment Generated by robot_control PLYWriter
element vertex 40
property float x
property float y
property float z
property uchar red
property uchar green
property uchar blue
end_header
0.72422 0.15568 -0.149246 0 255 0
0.728124 0.15282 -0.148243 6 248 0
0.731042 0.14889 -0.146812 13 241 0
0.730286 0.143426 -0.144985 19 235 0
0.725951 0.140358 -0.143633 26 228 0
0.72139 0.137098 -0.14277 32 222 0
0.716148 0.13911 -0.142518 39 215 0
0.710855 0.141061 -0.142954 45 209 0
0.706308 0.143935 -0.143962 52 202 0
0.703209 0.148757 -0.145331 58 196 0
0.703724 0.15437 -0.146534 65 189 0
0.704862 0.159476 -0.148094 71 183 0
0.709755 0.162387 -0.149066 78 176 0
0.715638 0.162646 -0.149628 85 169 0
0.720919 0.160517 -0.149125 91 163 0
0.724577 0.156368 -0.148232 98 156 0
0.723201 0.150874 -0.147006 104 150 0
0.720276 0.145762 -0.145989 111 143 0
0.715013 0.14352 -0.145301 117 137 0
0.709102 0.144292 -0.145159 124 130 0
0.703564 0.146453 -0.145453 130 124 0
0.699533 0.150068 -0.146204 137 117 0
0.697662 0.155658 -0.147157 143 111 0
0.696942 0.161449 -0.148318 150 104 0
0.699618 0.165536 -0.1499 156 98 0
0.704116 0.168445 -0.151099 163 91 0
0.7092 0.168929 -0.151518 170 84 0
0.714411 0.166104 -0.151248 176 78 0
0.7177 0.161423 -0.150166 183 71 0
0.71721 0.15589 -0.148887 189 65 0
0.71302 0.152272 -0.147569 196 58 0
0.707323 0.151064 -0.146648 202 52 0
0.701626 0.150853 -0.146434 209 45 0
0.696639 0.154061 -0.14679 215 39 0
0.692279 0.157123 -0.147488 222 32 0
0.690486 0.162039 -0.149198 228 26 0
0.69077 0.167591 -0.151366 235 19 0
0.692984 0.172586 -0.152638 241 13 0
0.696689 0.174755 -0.154657 248 6 0
0.700088 0.176885 -0.155705 255 0 0
