ply
format ascii 1.0
comment Generated by robot_control PLYWriter
element vertex 200
property float x
property float y
property float z
property uchar red
property uchar green
property uchar blue
end_header
0.689965 -0.38906 -0.0990392 0 255 0
0.689965 -0.38906 -0.0990392 1 253 0
0.689965 -0.38906 -0.0990392 2 252 0
0.689965 -0.38906 -0.0990392 3 251 0
0.689965 -0.38906 -0.0990392 5 249 0
0.689965 -0.38906 -0.0990392 6 248 0
0.689965 -0.38906 -0.0990392 7 247 0
0.689965 -0.38906 -0.0990392 8 246 0
0.689965 -0.38906 -0.0990392 10 244 0
0.689965 -0.38906 -0.0990392 11 243 0
0.689965 -0.38906 -0.0990392 12 242 0
0.689965 -0.38906 -0.0990392 14 240 0
0.689965 -0.38906 -0.0990392 15 239 0
0.689965 -0.38906 -0.0990392 16 238 0
0.689965 -0.38906 -0.0990392 17 237 0
0.689965 -0.38906 -0.0990392 19 235 0
0.689965 -0.38906 -0.0990392 20 234 0
0.689965 -0.38906 -0.0990392 21 233 0
0.689965 -0.38906 -0.0990392 23 231 0
0.689965 -0.38906 -0.0990392 24 230 0
0.689965 -0.38906 -0.0990392 25 229 0
0.689965 -0.38906 -0.0990392 26 228 0
0.689965 -0.38906 -0.0990392 28 226 0
0.689965 -0.38906 -0.0990392 29 225 0
0.689965 -0.38906 -0.0990392 30 224 0
0.689965 -0.38906 -0.0990392 32 222 0
0.689965 -0.38906 -0.0990392 33 221 0
0.689965 -0.38906 -0.0990392 34 220 0
0.689965 -0.38906 -0.0990392 35 219 0
0.689965 -0.38906 -0.0990392 37 217 0
0.689965 -0.38906 -0.0990392 38 216 0
0.689965 -0.38906 -0.0990392 39 215 0
0.689965 -0.38906 -0.0990392 41 213 0
0.689965 -0.38906 -0.0990392 42 212 0
0.689965 -0.38906 -0.0990392 43 211 0
0.689965 -0.38906 -0.0990392 44 210 0
0.689965 -0.38906 -0.0990392 46 208 0
0.689965 -0.38906 -0.0990392 47 207 0
0.689965 -0.38906 -0.0990392 48 206 0
0.689965 -0.38906 -0.0990392 49 205 0
0.689965 -0.38906 -0.0990392 51 203 0
0.689965 -0.38906 -0.0990392 52 202 0
0.689965 -0.38906 -0.0990392 53 201 0
0.689965 -0.38906 -0.0990392 55 199 0
0.689965 -0.38906 -0.0990392 56 198 0
0.689965 -0.38906 -0.0990392 57 197 0
0.689965 -0.38906 -0.0990392 58 196 0
0.689965 -0.38906 -0.0990392 60 194 0
0.689965 -0.38906 -0.0990392 61 193 0
0.689965 -0.38906 -0.0990392 62 192 0
0.689965 -0.38906 -0.0990392 64 190 0
0.689965 -0.38906 -0.0990392 65 189 0
0.689965 -0.38906 -0.0990392 66 188 0
0.689965 -0.38906 -0.0990392 67 187 0
0.689965 -0.38906 -0.0990392 69 185 0
0.689965 -0.38906 -0.0990392 70 184 0
0.689965 -0.38906 -0.0990392 71 183 0
0.689965 -0.38906 -0.0990392 73 181 0
0.689965 -0.38906 -0.0990392 74 180 0
0.689965 -0.38906 -0.0990392 75 179 0
0.689965 -0.38906 -0.0990392 76 178 0
0.689965 -0.38906 -0.0990392 78 176 0
0.689965 -0.38906 -0.0990392 79 175 0
0.689965 -0.38906 -0.0990392 80 174 0
0.689965 -0.38906 -0.0990392 82 172 0
0.689965 -0.38906 -0.0990392 83 171 0
0.689965 -0.38906 -0.0990392 84 170 0
0.689965 -0.38906 -0.0990392 85 169 0
0.689965 -0.38906 -0.0990392 87 167 0
0.689965 -0.38906 -0.0990392 88 166 0
0.689965 -0.38906 -0.0990392 89 165 0
0.689965 -0.38906 -0.0990392 90 164 0
0.689965 -0.38906 -0.0990392 92 162 0
0.689965 -0.38906 -0.0990392 93 161 0
0.689965 -0.38906 -0.0990392 94 160 0
0.689965 -0.38906 -0.0990392 96 158 0
0.689965 -0.38906 -0.0990392 97 157 0
0.689965 -0.38906 -0.0990392 98 156 0
0.689965 -0.38906 -0.0990392 99 155 0
0.689965 -0.38906 -0.0990392 101 153 0
0.689965 -0.38906 -0.0990392 102 152 0
0.689965 -0.38906 -0.0990392 103 151 0
0.689965 -0.38906 -0.0990392 105 149 0
0.689965 -0.38906 -0.0990392 106 148 0
0.689965 -0.38906 -0.0990392 107 147 0
0.689965 -0.38906 -0.0990392 108 146 0
0.689965 -0.38906 -0.0990392 110 144 0
0.689965 -0.38906 -0.0990392 111 143 0
0.689965 -0.38906 -0.0990392 112 142 0
0.689965 -0.38906 -0.0990392 114 140 0
0.689965 -0.38906 -0.0990392 115 139 0
0.689965 -0.38906 -0.0990392 116 138 0
0.689965 -0.38906 -0.0990392 117 137 0
0.689965 -0.38906 -0.0990392 119 135 0
0.689965 -0.38906 -0.0990392 120 134 0
0.689965 -0.38906 -0.0990392 121 133 0
0.689965 -0.38906 -0.0990392 123 131 0
0.689965 -0.38906 -0.0990392 124 130 0
0.689965 -0.38906 -0.0990392 125 129 0
0.689965 -0.38906 -0.0990392 126 128 0
0.689965 -0.38906 -0.0990392 128 126 0
0.689965 -0.38906 -0.0990392 129 125 0
0.689965 -0.38906 -0.0990392 130 124 0
0.689965 -0.38906 -0.0990392 131 123 0
0.689965 -0.38906 -0.0990392 133 121 0
0.689965 -0.38906 -0.0990392 134 120 0
0.689965 -0.38906 -0.0990392 135 119 0
0.689965 -0.38906 -0.0990392 137 117 0
0.689965 -0.38906 -0.0990392 138 116 0
0.689965 -0.38906 -0.0990392 139 115 0
0.689965 -0.38906 -0.0990392 140 114 0
0.689965 -0.38906 -0.0990392 142 112 0
0.689965 -0.38906 -0.0990392 143 111 0
0.689965 -0.38906 -0.0990392 144 110 0
0.689965 -0.38906 -0.0990392 146 108 0
0.689965 -0.38906 -0.0990392 147 107 0
0.689965 -0.38906 -0.0990392 148 106 0
0.689965 -0.38906 -0.0990392 149 105 0
0.689965 -0.38906 -0.0990392 151 103 0
0.689965 -0.38906 -0.0990392 152 102 0
0.689965 -0.38906 -0.0990392 153 101 0
0.689965 -0.38906 -0.0990392 155 99 0
0.689965 -0.38906 -0.0990392 156 98 0
0.689965 -0.38906 -0.0990392 157 97 0
0.689965 -0.38906 -0.0990392 158 96 0
0.689965 -0.38906 -0.0990392 160 94 0
0.689965 -0.38906 -0.0990392 161 93 0
0.689965 -0.38906 -0.0990392 162 92 0
0.689965 -0.38906 -0.0990392 164 90 0
0.689965 -0.38906 -0.0990392 165 89 0
0.689965 -0.38906 -0.0990392 166 88 0
0.689965 -0.38906 -0.0990392 167 87 0
0.689965 -0.38906 -0.0990392 169 85 0
0.689965 -0.38906 -0.0990392 170 84 0
0.689965 -0.38906 -0.0990392 171 83 0
0.689965 -0.38906 -0.0990392 172 82 0
0.689965 -0.38906 -0.0990392 174 80 0
0.689965 -0.38906 -0.0990392 175 79 0
0.689965 -0.38906 -0.0990392 176 78 0
0.689965 -0.38906 -0.0990392 178 76 0
0.689965 -0.38906 -0.0990392 179 75 0
0.689965 -0.38906 -0.0990392 180 74 0
0.689965 -0.38906 -0.0990392 181 73 0
0.689965 -0.38906 -0.0990392 183 71 0
0.689965 -0.38906 -0.0990392 184 70 0
0.689965 -0.38906 -0.0990392 185 69 0
0.689965 -0.38906 -0.0990392 187 67 0
0.689965 -0.38906 -0.0990392 188 66 0
0.689965 -0.38906 -0.0990392 189 65 0
0.689965 -0.38906 -0.0990392 190 64 0
0.689965 -0.38906 -0.0990392 192 62 0
0.689965 -0.38906 -0.0990392 193 61 0
0.689965 -0.38906 -0.0990392 194 60 0
0.689965 -0.38906 -0.0990392 196 58 0
0.689965 -0.38906 -0.0990392 197 57 0
0.689965 -0.38906 -0.0990392 198 56 0
0.689965 -0.38906 -0.0990392 199 55 0
0.689965 -0.38906 -0.0990392 201 53 0
0.689965 -0.38906 -0.0990392 202 52 0
0.689965 -0.38906 -0.0990392 203 51 0
0.689965 -0.38906 -0.0990392 205 49 0
0.689965 -0.38906 -0.0990392 206 48 0
0.689965 -0.38906 -0.0990392 207 47 0
0.689965 -0.38906 -0.0990392 208 46 0
0.689965 -0.38906 -0.0990392 210 44 0
0.689965 -0.38906 -0.0990392 211 43 0
0.689965 -0.38906 -0.0990392 212 42 0
0.689965 -0.38906 -0.0990392 213 41 0
0.689965 -0.38906 -0.0990392 215 39 0
0.689965 -0.38906 -0.0990392 216 38 0
0.689965 -0.38906 -0.0990392 217 37 0
0.689965 -0.38906 -0.0990392 219 35 0
0.689965 -0.38906 -0.0990392 220 34 0
0.689965 -0.38906 -0.0990392 221 33 0
0.689965 -0.38906 -0.0990392 222 32 0
0.689965 -0.38906 -0.0990392 224 30 0
0.689965 -0.38906 -0.0990392 225 29 0
0.689965 -0.38906 -0.0990392 226 28 0
0.689965 -0.38906 -0.0990392 228 26 0
0.689965 -0.38906 -0.0990392 229 25 0
0.689965 -0.38906 -0.0990392 230 24 0
0.689965 -0.38906 -0.0990392 231 23 0
0.689965 -0.38906 -0.0990392 233 21 0
0.689965 -0.38906 -0.0990392 234 20 0
0.689965 -0.38906 -0.0990392 235 19 0
0.689965 -0.38906 -0.0990392 237 17 0
0.689965 -0.38906 -0.0990392 238 16 0
0.689965 -0.38906 -0.0990392 239 15 0
0.689965 -0.38906 -0.0990392 240 14 0
0.689965 -0.38906 -0.0990392 242 12 0
0.689965 -0.38906 -0.0990392 243 11 0
0.689965 -0.38906 -0.0990392 244 10 0
0.689965 -0.38906 -0.0990392 246 8 0
0.689965 -0.38906 -0.0990392 247 7 0
0.689965 -0.38906 -0.0990392 248 6 0
0.689965 -0.38906 -0.0990392 249 5 0
0.689965 -0.38906 -0.0990392 251 3 0
0.689965 -0.38906 -0.0990392 252 2 0
0.689965 -0.38906 -0.0990392 253 1 0
0.689965 -0.38906 -0.0990392 255 0 0
