ply
format ascii 1.0
comment Generated by robot_control PLYWriter
element vertex 41
property float x
property float y
property float z
property uchar red
property uchar green
property uchar blue
end_header
0.598617 0.117551 -0.150534 0 255 0
0.602787 0.116309 -0.148551 6 248 0
0.607716 0.114653 -0.146767 12 242 0
0.610974 0.111195 -0.144386 19 235 0
0.612591 0.106786 -0.141955 25 229 0
0.610216 0.101783 -0.14036 31 223 0
0.606399 0.0982451 -0.13971 38 216 0
0.600907 0.0973735 -0.140368 44 210 0
0.596651 0.100121 -0.141974 51 204 0
0.592665 0.103784 -0.144338 57 197 0
0.592494 0.109214 -0.146394 63 191 0
0.592465 0.11501 -0.147683 70 184 0
0.596655 0.118529 -0.148785 76 178 0
0.601598 0.121746 -0.149102 82 172 0
0.606988 0.123623 -0.148866 89 165 0
0.612776 0.122968 -0.147819 95 159 0
0.61734 0.119787 -0.146438 102 153 0
0.618836 0.114443 -0.144616 108 146 0
0.618209 0.108794 -0.143318 114 140 0
0.614134 0.104715 -0.142775 121 133 0
0.608675 0.102729 -0.143302 127 127 0
0.603343 0.104614 -0.144328 133 121 0
0.599483 0.1087 -0.145983 140 114 0
0.598612 0.114161 -0.147587 146 108 0
0.600871 0.119508 -0.148802 153 101 0
0.603303 0.124846 -0.149685 159 95 0
0.608328 0.127571 -0.14985 165 89 0
0.613942 0.129411 -0.149437 172 82 0
0.619117 0.127917 -0.148348 178 76 0
0.623631 0.12509 -0.146903 184 70 0
0.625228 0.119945 -0.14493 191 63 0
0.623915 0.114557 -0.143873 197 57 0
0.619948 0.110224 -0.143549 204 50 0
0.614394 0.110684 -0.14431 210 44 0
0.609468 0.112635 -0.145998 216 38 0
0.605984 0.116842 -0.148161 223 31 0
0.605478 0.121856 -0.150287 229 25 0
0.607173 0.127051 -0.151934 235 19 0
0.610021 0.131857 -0.15252 242 12 0
0.615018 0.134344 -0.152268 248 6 0
0.619047 0.13554 -0.150954 255 0 0
