ply
format ascii 1.0
comment Generated by robot_control PLYWriter
element vertex 9
property float x
property float y
property float z
property uchar red
property uchar green
property uchar blue
end_header
0.647144 -0.180025 -0.120269 0 255 0
0.647127 -0.17522 -0.120282 31 223 0
0.64712 -0.170417 -0.120161 63 191 0
0.647102 -0.165614 -0.12002 95 159 0
0.647082 -0.160815 -0.119788 127 127 0
0.647054 -0.156029 -0.119386 159 95 0
0.647012 -0.151261 -0.118793 191 63 0
0.64696 -0.146506 -0.118103 223 31 0
0.646892 -0.141779 -0.117246 255 0 0
