ply
format ascii 1.0
comment Generated by robot_control PLYWriter
element vertex 8
property float x
property float y
property float z
property uchar red
property uchar green
property uchar blue
end_header
0.585092 -0.0310824 -0.120312 0 255 0
0.585745 -0.0362291 -0.120435 36 218 0
0.58608 -0.0414027 -0.120729 72 182 0
0.58643 -0.0465725 -0.121068 109 145 0
0.587056 -0.0517119 -0.121468 145 109 0
0.587396 -0.0568723 -0.121934 182 72 0
0.587728 -0.0620289 -0.122448 218 36 0
0.588373 -0.0671625 -0.122863 255 0 0
