ply
format ascii 1.0
comment Generated by robot_control PLYWriter
element vertex 10
property float x
property float y
property float z
property uchar red
property uchar green
property uchar blue
end_header
0.584673 -0.0785078 -0.037437 0 255 0
0.584681 -0.0736835 -0.0372677 28 226 0
0.584355 -0.0688732 -0.037057 56 198 0
0.583974 -0.0640622 -0.0370021 85 169 0
0.583583 -0.0592572 -0.0372041 113 141 0
0.5832 -0.0544684 -0.0376601 141 113 0
0.582819 -0.0496997 -0.0383012 170 84 0
0.582525 -0.0449495 -0.0390894 198 56 0
0.582516 -0.0402131 -0.0400203 226 28 0
0.582505 -0.0355056 -0.0410894 255 0 0
