ply
format ascii 1.0
comment Generated by robot_control PLYWriter
element vertex 10
property float x
property float y
property float z
property uchar red
property uchar green
property uchar blue
end_header
0.526514 -0.204757 -0.100351 0 255 0
0.526625 -0.209494 -0.0990032 28 226 0
0.526684 -0.214358 -0.0981832 56 198 0
0.526697 -0.219271 -0.0980535 85 169 0
0.526639 -0.224132 -0.0987456 113 141 0
0.526531 -0.228885 -0.100043 141 113 0
0.526445 -0.233564 -0.101605 170 84 0
0.526431 -0.23826 -0.1031 198 56 0
0.526354 -0.243094 -0.104079 226 28 0
0.526369 -0.247932 -0.104953 255 0 0
