ply
format ascii 1.0
comment Generated by robot_control PLYWriter
element vertex 11
property float x
property float y
property float z
property uchar red
property uchar green
property uchar blue
end_header
0.572271 -0.307724 -0.107975 0 255 0
0.572241 -0.303238 -0.109834 25 229 0
0.572241 -0.298794 -0.111787 51 204 0
0.572336 -0.294283 -0.113581 76 178 0
0.572489 -0.289815 -0.115478 102 153 0
0.572564 -0.285373 -0.117438 127 127 0
0.572641 -0.280854 -0.119215 153 101 0
0.572734 -0.27623 -0.120685 178 76 0
0.572817 -0.271517 -0.121845 204 50 0
0.572972 -0.266794 -0.122957 229 25 0
0.572839 -0.262004 -0.123701 255 0 0
