ply
format ascii 1.0
comment Generated by robot_control PLYWriter
element vertex 14
property float x
property float y
property float z
property uchar red
property uchar green
property uchar blue
end_header
0.644722 -0.129103 -0.042625 0 255 0
0.644764 -0.133993 -0.043113 19 235 0
0.644799 -0.138891 -0.0435169 39 215 0
0.64482 -0.143797 -0.0437761 58 196 0
0.6448 -0.148702 -0.0436337 78 176 0
0.644738 -0.153569 -0.0429562 98 156 0
0.644749 -0.158408 -0.042096 117 137 0
0.644758 -0.163223 -0.0411096 137 117 0
0.644759 -0.168049 -0.0401775 156 98 0
0.64469 -0.172881 -0.0392802 176 78 0
0.644632 -0.177735 -0.0385124 196 58 0
0.644581 -0.182622 -0.0380096 215 39 0
0.644611 -0.187526 -0.037746 235 19 0
0.64448 -0.192422 -0.0381496 255 0 0
