ply
format ascii 1.0
comment Generated by robot_control PLYWriter
element vertex 89
property float x
property float y
property float z
property uchar red
property uchar green
property uchar blue
end_header
0.627204 0.119356 -0.138635 0 255 0
0.631227 0.117204 -0.137486 2 252 0
0.634786 0.114061 -0.136179 5 249 0
0.635084 0.10843 -0.134889 8 246 0
0.636084 0.103835 -0.133617 11 243 0
0.634894 0.0990277 -0.132459 14 240 0
0.630771 0.0949439 -0.131623 17 237 0
0.626793 0.0917792 -0.131089 20 234 0
0.621822 0.0899575 -0.13111 23 231 0
0.616474 0.0916491 -0.131673 26 228 0
0.610966 0.0934709 -0.132535 28 226 0
0.609014 0.0986222 -0.134044 31 223 0
0.609315 0.103979 -0.13498 34 220 0
0.613758 0.107885 -0.135603 37 217 0
0.619239 0.110166 -0.135752 40 214 0
0.625138 0.109928 -0.135225 43 211 0
0.630231 0.107561 -0.134187 46 208 0
0.634802 0.10401 -0.133055 49 205 0
0.635061 0.0982187 -0.132034 52 202 0
0.635376 0.0929268 -0.130824 55 199 0
0.632808 0.0876115 -0.12983 57 197 0
0.630037 0.0824829 -0.1292 60 194 0
0.624554 0.0816994 -0.128923 63 191 0
0.619631 0.0792159 -0.129039 66 188 0
0.614025 0.0810573 -0.129454 69 185 0
0.609442 0.0842975 -0.130236 72 182 0
0.608289 0.0900151 -0.131152 75 179 0
0.609979 0.0950681 -0.131919 78 176 0
0.614505 0.098966 -0.132206 81 173 0
0.619939 0.100778 -0.13213 84 170 0
0.625518 0.0988426 -0.131432 86 168 0
0.630962 0.0966347 -0.130753 89 165 0
0.633934 0.0915734 -0.129654 92 162 0
0.634633 0.0858811 -0.12841 95 159 0
0.63442 0.0799627 -0.127596 98 156 0
0.631131 0.0752194 -0.126805 101 153 0
0.626963 0.0710299 -0.126401 104 150 0
0.621592 0.0701672 -0.126254 107 147 0
0.615611 0.0699752 -0.126451 110 144 0
0.611356 0.0728694 -0.127082 113 141 0
0.608261 0.0778529 -0.127844 115 139 0
0.609995 0.0833734 -0.128716 118 136 0
0.613499 0.0882297 -0.128945 121 133 0
0.618589 0.0901427 -0.128866 124 130 0
0.624531 0.0897354 -0.128383 127 127 0
0.629178 0.0862801 -0.12734 130 124 0
0.632977 0.0817815 -0.126249 133 121 0
0.634426 0.0764917 -0.125097 136 118 0
0.634048 0.0706584 -0.123934 139 115 0
0.632045 0.0651163 -0.123292 141 113 0
0.627618 0.0611729 -0.12274 144 110 0
0.622033 0.0590868 -0.122642 147 107 0
0.616141 0.0594465 -0.122871 150 104 0
0.611532 0.0616414 -0.123611 153 101 0
0.608131 0.0660604 -0.124705 156 98 0
0.608126 0.0719861 -0.125592 159 95 0
0.611502 0.0762634 -0.126187 162 92 0
0.616974 0.0786816 -0.126133 165 89 0
0.622802 0.0788554 -0.125633 168 86 0
0.627748 0.076574 -0.124352 170 84 0
0.631803 0.0723348 -0.12318 173 81 0
0.634157 0.0670915 -0.121898 176 78 0
0.634519 0.0613749 -0.120275 179 75 0
0.632814 0.055924 -0.119433 182 72 0
0.628795 0.0516159 -0.118887 185 69 0
0.623762 0.0484978 -0.118836 188 66 0
0.61792 0.0483476 -0.11935 191 63 0
0.612508 0.0502414 -0.120107 194 60 0
0.60846 0.0542791 -0.121734 197 57 0
0.608094 0.0599262 -0.123143 199 55 0
0.610575 0.0651441 -0.123746 202 52 0
0.614637 0.0679117 -0.123761 205 49 0
0.620048 0.0701486 -0.123213 208 46 0
0.62515 0.0676944 -0.122122 211 43 0
0.630581 0.065685 -0.120745 214 40 0
0.632362 0.0604695 -0.119063 217 37 0
0.634904 0.0553706 -0.11772 220 34 0
0.634539 0.0496313 -0.11615 223 31 0
0.631552 0.0446348 -0.115331 226 28 0
0.628019 0.0398862 -0.114978 228 26 0
0.622702 0.0382448 -0.115514 231 23 0
0.617069 0.0370027 -0.116821 234 20 0
0.611831 0.0389973 -0.118363 237 17 0
0.609166 0.0432309 -0.119792 240 14 0
0.606918 0.0474662 -0.12117 243 11 0
0.608562 0.0522871 -0.122073 246 8 0
0.611931 0.0560242 -0.122105 249 5 0
0.616071 0.0579109 -0.121275 252 2 0
0.621057 0.0587715 -0.120183 255 0 0
