ply
format ascii 1.0
comment Generated by robot_control PLYWriter
element vertex 8
property float x
property float y
property float z
property uchar red
property uchar green
property uchar blue
end_header
0.638485 -0.0166318 -0.103108 0 255 0
0.638501 -0.0113445 -0.103322 36 218 0
0.638968 -0.0060756 -0.10346 72 182 0
0.639465 -0.000824397 -0.103879 109 145 0
0.639984 0.00441625 -0.104395 145 109 0
0.640504 0.00966192 -0.104857 182 72 0
0.641024 0.0149056 -0.105341 218 36 0
0.641095 0.0201645 -0.105901 255 0 0
