ply
format ascii 1.0
comment Generated by robot_control PLYWriter
element vertex 32
property float x
property float y
property float z
property uchar red
property uchar green
property uchar blue
end_header
0.683962 0.0531593 -0.13516 0 255 0
0.688706 0.0514059 -0.134591 8 246 0
0.691892 0.0467446 -0.133561 16 238 0
0.693826 0.0419188 -0.132161 24 230 0
0.692845 0.0370442 -0.130745 32 222 0
0.689458 0.0331732 -0.129604 41 213 0
0.684201 0.0309237 -0.128763 49 205 0
0.678378 0.031554 -0.128767 57 197 0
0.673274 0.0345318 -0.129117 65 189 0
0.66949 0.0388601 -0.13007 74 180 0
0.666094 0.0433859 -0.131221 82 172 0
0.666459 0.0491908 -0.132399 90 164 0
0.667599 0.0546304 -0.133831 98 156 0
0.671521 0.0587746 -0.135005 106 148 0
0.676815 0.0611496 -0.136218 115 139 0
0.682264 0.0633497 -0.136993 123 131 0
0.687793 0.0628103 -0.137297 131 123 0
0.692477 0.0592987 -0.137203 139 115 0
0.696633 0.055123 -0.136739 148 106 0
0.697066 0.0495038 -0.135806 156 98 0
0.694903 0.0441685 -0.134665 164 90 0
0.69036 0.040784 -0.133487 172 82 0
0.684635 0.0402214 -0.132694 180 74 0
0.679391 0.0421315 -0.132431 189 65 0
0.674399 0.0452067 -0.132765 197 57 0
0.670656 0.0493462 -0.133491 205 49 0
0.670253 0.0550888 -0.134671 213 41 0
0.670324 0.0606253 -0.136638 222 32 0
0.671145 0.0659492 -0.138566 230 24 0
0.675286 0.0691301 -0.140788 238 16 0
0.6788 0.0717215 -0.142683 246 8 0
0.68307 0.0721074 -0.145056 255 0 0
