ply
format ascii 1.0
comment Generated by robot_control PLYWriter
element vertex 86
property float x
property float y
property float z
property uchar red
property uchar green
property uchar blue
end_header
0.576456 -0.31906 -0.0934264 0 255 0
0.579258 -0.322237 -0.0927511 3 252 0
0.581213 -0.32606 -0.0910156 6 249 0
0.5821 -0.330669 -0.0885974 9 246 0
0.582073 -0.335606 -0.0859628 12 243 0
0.580591 -0.340882 -0.0839194 15 240 0
0.576654 -0.3445 -0.0824076 18 237 0
0.571861 -0.347584 -0.0824526 21 234 0
0.566479 -0.348374 -0.0833518 24 231 0
0.561395 -0.346823 -0.0857058 27 228 0
0.557758 -0.342971 -0.0880756 30 225 0
0.556938 -0.337961 -0.091 33 222 0
0.558919 -0.333088 -0.0931025 36 219 0
0.562858 -0.328836 -0.0940191 39 216 0
0.568754 -0.328544 -0.0932927 42 213 0
0.574271 -0.328855 -0.0910302 45 210 0
0.578627 -0.332012 -0.0883701 48 207 0
0.582008 -0.336453 -0.0864685 51 204 0
0.582311 -0.342073 -0.084383 54 201 0
0.581647 -0.347732 -0.0826993 57 198 0
0.578218 -0.352316 -0.0815041 60 195 0
0.574337 -0.356849 -0.0811787 63 192 0
0.568756 -0.358813 -0.0813959 66 189 0
0.563356 -0.356953 -0.0820728 69 185 0
0.558707 -0.354213 -0.0839532 72 183 0
0.556631 -0.348876 -0.085181 75 179 0
0.559144 -0.34364 -0.0859296 78 177 0
0.563181 -0.339462 -0.0857675 81 173 0
0.56878 -0.337917 -0.08529 84 171 0
0.574583 -0.338966 -0.084438 87 167 0
0.579113 -0.342674 -0.0833082 90 165 0
0.581712 -0.347796 -0.0820771 93 161 0
0.582084 -0.353637 -0.0808431 96 159 0
0.580935 -0.359102 -0.0801545 99 155 0
0.577241 -0.363751 -0.0799347 102 153 0
0.572436 -0.367179 -0.0801976 105 149 0
0.566484 -0.367917 -0.0806123 108 147 0
0.561062 -0.36675 -0.0812406 111 143 0
0.557425 -0.362075 -0.0820293 114 141 0
0.556684 -0.35628 -0.0823587 117 137 0
0.559809 -0.351156 -0.0821735 120 135 0
0.564978 -0.348562 -0.0816218 123 131 0
0.5708 -0.348494 -0.0802893 126 129 0
0.57623 -0.350305 -0.0787332 129 125 0
0.580782 -0.353714 -0.077129 132 122 0
0.582107 -0.359396 -0.0757859 135 119 0
0.582035 -0.365296 -0.0747201 138 116 0
0.579414 -0.370592 -0.0743459 141 113 0
0.575386 -0.37499 -0.0744805 144 110 0
0.570063 -0.377628 -0.0750286 147 107 0
0.564215 -0.378259 -0.0759083 150 104 0
0.559759 -0.375202 -0.0777189 153 101 0
0.557361 -0.369979 -0.0794355 156 98 0
0.558241 -0.364837 -0.0808369 159 95 0
0.561627 -0.360054 -0.0809337 162 92 0
0.567155 -0.35897 -0.0796754 165 89 0
0.572842 -0.358571 -0.0777908 168 86 0
0.577435 -0.361522 -0.0752787 171 83 0
0.580368 -0.365835 -0.0727105 174 80 0
0.582608 -0.370963 -0.0708618 177 77 0
0.581568 -0.376597 -0.0691617 180 74 0
0.578181 -0.381058 -0.0678513 183 71 0
0.574615 -0.385523 -0.0677921 186 68 0
0.569125 -0.387474 -0.0690199 189 65 0
0.56359 -0.387059 -0.0708672 192 62 0
0.559154 -0.384286 -0.073621 195 59 0
0.556094 -0.380475 -0.0766029 198 56 0
0.558354 -0.375306 -0.078408 201 53 0
0.562037 -0.370735 -0.0790006 204 50 0
0.567071 -0.368133 -0.0773546 207 47 0
0.572404 -0.368621 -0.0749423 210 44 0
0.577459 -0.370293 -0.0724461 213 41 0
0.580568 -0.374354 -0.0695975 216 38 0
0.582337 -0.379551 -0.0674799 219 35 0
0.58182 -0.385031 -0.065449 222 32 0
0.580576 -0.390618 -0.0648804 225 29 0
0.575928 -0.393469 -0.065214 228 26 0
0.570754 -0.396337 -0.0657448 231 23 0
0.565096 -0.396813 -0.0672184 234 20 0
0.56023 -0.395043 -0.069766 237 17 0
0.55634 -0.391759 -0.0719012 240 14 0
0.556609 -0.386977 -0.0746003 243 11 0
0.55987 -0.382294 -0.0754193 246 8 0
0.563905 -0.380482 -0.0747309 249 5 0
0.567691 -0.378466 -0.0726788 252 2 0
0.571359 -0.378506 -0.0694352 255 0 0
