ply
format ascii 1.0
comment Generated by robot_control PLYWriter
element vertex 10
property float x
property float y
property float z
property uchar red
property uchar green
property uchar blue
end_header
0.597734 -0.2068 -0.134277 0 255 0
0.597988 -0.211906 -0.135035 28 226 0
0.598404 -0.217008 -0.135766 56 198 0
0.598472 -0.222135 -0.136437 85 169 0
0.59884 -0.227258 -0.137016 113 141 0
0.5991 -0.232419 -0.13721 141 113 0
0.599463 -0.237576 -0.137121 170 84 0
0.599714 -0.242724 -0.136703 198 56 0
0.599985 -0.247845 -0.136042 226 28 0
0.60001 -0.252932 -0.135118 255 0 0
