ply
format ascii 1.0
comment Generated by robot_control PLYWriter
element vertex 54
property float x
property float y
property float z
property uchar red
property uchar green
property uchar blue
end_header
0.581024 0.0133093 -0.0538918 0 255 0
0.586031 0.0125557 -0.0521879 4 250 0
0.59051 0.00961077 -0.0508422 9 245 0
0.592845 0.00473163 -0.0496415 14 240 0
0.594259 -0.000574766 -0.0487417 19 235 0
0.593643 -0.00631501 -0.0476806 24 230 0
0.590638 -0.0114249 -0.0473912 28 226 0
0.585477 -0.0137027 -0.0475889 33 221 0
0.579994 -0.0148588 -0.0484884 38 216 0
0.574475 -0.013535 -0.0497375 43 211 0
0.570391 -0.00973233 -0.0514772 48 206 0
0.567895 -0.00445492 -0.0524779 52 202 0
0.566721 0.00128191 -0.0531753 57 197 0
0.568384 0.00682152 -0.0535345 62 192 0
0.570108 0.0124812 -0.0534262 67 187 0
0.573981 0.0167397 -0.0530765 72 182 0
0.579089 0.0196785 -0.0524407 76 178 0
0.584639 0.0214514 -0.0516572 81 173 0
0.590203 0.0195416 -0.0508026 86 168 0
0.595874 0.018684 -0.0497312 91 163 0
0.599399 0.0141037 -0.0485185 96 158 0
0.602001 0.00881935 -0.0477665 101 153 0
0.602801 0.00305191 -0.0472177 105 149 0
0.601265 -0.00266358 -0.047286 110 144 0
0.596915 -0.00605655 -0.0477681 115 139 0
0.591476 -0.00826911 -0.0487184 120 134 0
0.585836 -0.00804961 -0.0501175 125 129 0
0.581033 -0.00502043 -0.0508698 129 125 0
0.577146 -0.000546143 -0.0512485 134 120 0
0.575055 0.00449542 -0.0514142 139 115 0
0.57486 0.0104367 -0.051388 144 110 0
0.57659 0.0155766 -0.0511177 149 105 0
0.579853 0.0204292 -0.050602 153 101 0
0.583707 0.0243351 -0.0498582 158 96 0
0.589054 0.0267347 -0.0488374 163 91 0
0.594583 0.0276403 -0.0475694 168 86 0
0.600224 0.0263388 -0.0463654 173 81 0
0.605692 0.0242573 -0.0452684 178 76 0
0.608528 0.0195094 -0.0445653 182 72 0
0.610427 0.0138697 -0.0443679 187 67 0
0.610026 0.00803158 -0.0445031 192 62 0
0.608198 0.00253304 -0.0453616 197 57 0
0.60331 -0.000494503 -0.0463883 202 52 0
0.597949 -0.0022177 -0.0479455 206 48 0
0.59277 -0.00104849 -0.049534 211 43 0
0.588228 0.0016808 -0.050687 216 38 0
0.584564 0.00619544 -0.0511291 221 33 0
0.582415 0.0116264 -0.0514381 226 28 0
0.582751 0.0175274 -0.0513281 230 24 0
0.584934 0.0230054 -0.0506346 235 19 0
0.587174 0.0279333 -0.0489743 240 14 0
0.59148 0.0315298 -0.0474205 245 9 0
0.59581 0.0332049 -0.0452105 250 4 0
0.60058 0.033374 -0.0432135 255 0 0
