ply
format ascii 1.0
comment Generated by robot_control PLYWriter
element vertex 14
property float x
property float y
property float z
property uchar red
property uchar green
property uchar blue
end_header
0.582479 -0.0271733 -0.0422616 0 255 0
0.582485 -0.0223216 -0.0426426 19 235 0
0.582492 -0.017464 -0.0429486 39 215 0
0.58249 -0.0126057 -0.0432371 58 196 0
0.58245 -0.00774228 -0.0433948 78 176 0
0.582254 -0.00287908 -0.0433972 98 156 0
0.582064 0.00198356 -0.0433026 117 137 0
0.58187 0.00684538 -0.043179 137 117 0
0.581678 0.0117051 -0.0429871 156 98 0
0.581488 0.0165569 -0.0426497 176 78 0
0.581296 0.0214023 -0.0422316 196 58 0
0.581116 0.0262502 -0.0418364 215 39 0
0.581064 0.0311021 -0.0414644 235 19 0
0.581063 0.0359441 -0.0409715 255 0 0
