ply
format ascii 1.0
comment Generated by robot_control PLYWriter
element vertex 10
property float x
property float y
property float z
property uchar red
property uchar green
property uchar blue
end_header
0.531991 -0.44942 -0.106045 0 255 0
0.532989 -0.444466 -0.105716 28 226 0
0.533852 -0.439494 -0.105263 56 198 0
0.534586 -0.434494 -0.10488 85 169 0
0.535366 -0.429519 -0.104331 113 141 0
0.536326 -0.424582 -0.103702 141 113 0
0.537161 -0.419611 -0.103185 170 84 0
0.537838 -0.414598 -0.102958 198 56 0
0.538493 -0.409574 -0.102874 226 28 0
0.539416 -0.404593 -0.102943 255 0 0
