ply
format ascii 1.0
comment Generated by robot_control PLYWriter
element vertex 112
property float x
property float y
property float z
property uchar red
property uchar green
property uchar blue
end_header
0.649048 0.14215 -0.149943 0 255 0
0.652222 0.139541 -0.148172 2 252 0
0.655157 0.137016 -0.14599 4 250 0
0.656895 0.133148 -0.143761 6 248 0
0.659186 0.128342 -0.142231 9 245 0
0.658496 0.122862 -0.140167 11 243 0
0.655899 0.118065 -0.138868 13 241 0
0.652674 0.113542 -0.137969 16 238 0
0.647795 0.11015 -0.137922 18 236 0
0.642027 0.108986 -0.138545 20 234 0
0.636641 0.110555 -0.140109 22 232 0
0.632233 0.113596 -0.142331 25 229 0
0.628958 0.11809 -0.144609 27 227 0
0.629991 0.123489 -0.14669 29 225 0
0.632168 0.128862 -0.147417 32 222 0
0.637127 0.131998 -0.147277 34 220 0
0.643035 0.132269 -0.14644 36 218 0
0.648692 0.131183 -0.144825 39 215 0
0.653247 0.128218 -0.142432 41 213 0
0.656721 0.12395 -0.140549 43 211 0
0.657105 0.118206 -0.138884 45 209 0
0.656412 0.112459 -0.137522 48 206 0
0.653442 0.107367 -0.13668 50 204 0
0.649787 0.102757 -0.136211 52 202 0
0.644445 0.100046 -0.136368 55 199 0
0.638618 0.0999015 -0.136952 57 197 0
0.633055 0.101396 -0.138314 59 195 0
0.630197 0.106402 -0.139476 62 192 0
0.628861 0.111441 -0.140891 64 190 0
0.630505 0.1168 -0.141568 66 188 0
0.634595 0.12107 -0.14177 68 186 0
0.640349 0.122773 -0.141386 71 183 0
0.645646 0.122957 -0.140623 73 181 0
0.650885 0.121535 -0.139145 75 179 0
0.654736 0.11703 -0.138107 78 176 0
0.656886 0.111836 -0.136789 80 174 0
0.6567 0.105922 -0.135695 82 172 0
0.655343 0.10016 -0.134956 85 169 0
0.651451 0.0958767 -0.1345 87 167 0
0.646786 0.0920779 -0.134383 89 165 0
0.641067 0.0905095 -0.134778 91 163 0
0.635519 0.0903862 -0.135386 94 160 0
0.630269 0.0930945 -0.136398 96 158 0
0.627957 0.0985637 -0.137342 98 156 0
0.627025 0.104319 -0.138131 101 153 0
0.630817 0.108914 -0.138381 103 151 0
0.635577 0.112381 -0.138154 105 149 0
0.641448 0.113383 -0.137552 107 147 0
0.647222 0.112213 -0.136692 110 144 0
0.651929 0.108649 -0.135533 112 142 0
0.655669 0.104414 -0.134526 114 140 0
0.656498 0.0986258 -0.133448 117 137 0
0.655103 0.0928791 -0.132669 119 135 0
0.652668 0.0874409 -0.132167 121 133 0
0.648236 0.0833701 -0.132051 124 130 0
0.642517 0.0816504 -0.132286 126 128 0
0.637004 0.0807044 -0.13287 128 126 0
0.631535 0.082994 -0.133657 130 124 0
0.628092 0.0873158 -0.134627 133 121 0
0.626817 0.0931197 -0.135318 135 119 0
0.628495 0.0986899 -0.135856 137 117 0
0.63341 0.102075 -0.135816 140 114 0
0.638882 0.104516 -0.135392 142 112 0
0.64465 0.105034 -0.134536 144 110 0
0.649369 0.101531 -0.133727 147 107 0
0.653141 0.0969775 -0.132686 149 105 0
0.654698 0.0914326 -0.131408 151 103 0
0.65456 0.0854723 -0.130607 153 101 0
0.65283 0.0803073 -0.129999 156 98 0
0.649515 0.0754955 -0.1297 158 96 0
0.645294 0.0715705 -0.129745 160 94 0
0.639426 0.0713011 -0.130018 163 91 0
0.633566 0.0720889 -0.13075 165 89 0
0.628535 0.0750979 -0.131889 167 87 0
0.626774 0.0805929 -0.13292 170 84 0
0.626772 0.0865701 -0.133604 172 82 0
0.629151 0.0917158 -0.133988 174 80 0
0.634756 0.093879 -0.13388 176 78 0
0.640472 0.095356 -0.133257 179 75 0
0.646025 0.0932887 -0.132403 181 73 0
0.650695 0.0898814 -0.130812 183 71 0
0.654574 0.0855538 -0.129772 186 68 0
0.65444 0.0796368 -0.128694 188 66 0
0.653647 0.0738231 -0.12788 190 64 0
0.651445 0.068264 -0.127239 192 62 0
0.646834 0.065103 -0.126925 195 59 0
0.641223 0.0629502 -0.127121 197 57 0
0.635399 0.0619224 -0.12792 199 55 0
0.629995 0.0627272 -0.128791 202 52 0
0.626834 0.0675614 -0.129959 204 50 0
0.624922 0.0728109 -0.131282 206 48 0
0.625468 0.078632 -0.132192 209 45 0
0.628763 0.083515 -0.132626 211 43 0
0.634486 0.0853488 -0.132356 213 41 0
0.640385 0.0849753 -0.131535 215 39 0
0.646063 0.0842536 -0.130358 218 36 0
0.649525 0.0799175 -0.1288 220 34 0
0.652956 0.0753278 -0.127257 222 32 0
0.654238 0.0696661 -0.126053 225 29 0
0.652418 0.0641313 -0.124969 227 27 0
0.650198 0.0586945 -0.124184 229 25 0
0.645924 0.0549725 -0.123815 232 22 0
0.640683 0.0533622 -0.123976 234 20 0
0.635047 0.0519935 -0.124949 236 18 0
0.630955 0.0538665 -0.126447 238 16 0
0.626392 0.0566569 -0.127799 241 13 0
0.62472 0.061898 -0.129271 243 11 0
0.624873 0.0674264 -0.130759 245 9 0
0.627035 0.0725554 -0.131382 248 6 0
0.631704 0.0750154 -0.131306 250 4 0
0.635061 0.0772465 -0.130509 252 2 0
0.639661 0.0765065 -0.129729 255 0 0
