ply
format ascii 1.0
comment Generated by robot_control PLYWriter
element vertex 8
property float x
property float y
property float z
property uchar red
property uchar green
property uchar blue
end_header
0.550942 0.0921669 -0.0384366 0 255 0
0.550502 0.0868843 -0.0383658 36 218 0
0.550057 0.0815843 -0.0382554 72 182 0
0.549646 0.0762878 -0.037974 109 145 0
0.549242 0.0709916 -0.0376758 145 109 0
0.548828 0.0656948 -0.0374139 182 72 0
0.548853 0.0603824 -0.0371326 218 36 0
0.548866 0.0550683 -0.036906 255 0 0
