ply
format ascii 1.0
comment Generated by robot_control PLYWriter
element vertex 59
property float x
property float y
property float z
property uchar red
property uchar green
property uchar blue
end_header
0.68125 -0.0416109 -0.0959225 0 255 0
0.686149 -0.0424494 -0.0962472 4 250 0
0.688958 -0.0455843 -0.0962912 8 246 0
0.690929 -0.0508733 -0.0958916 13 241 0
0.690196 -0.0567515 -0.0952237 17 237 0
0.687377 -0.0612551 -0.0940285 21 233 0
0.681787 -0.0628789 -0.0931531 26 228 0
0.675928 -0.0621293 -0.0926932 30 224 0
0.671066 -0.0585288 -0.0926148 35 219 0
0.666524 -0.0546107 -0.0929633 39 215 0
0.664935 -0.0488263 -0.0935543 43 211 0
0.664594 -0.0428757 -0.0944199 48 206 0
0.667418 -0.0377087 -0.0954068 52 202 0
0.671322 -0.0332297 -0.0963624 57 197 0
0.676644 -0.0307451 -0.0970626 61 193 0
0.68267 -0.0306742 -0.0974561 65 189 0
0.687679 -0.0337175 -0.0975778 70 184 0
0.691004 -0.0387236 -0.0973258 74 180 0
0.690744 -0.0446771 -0.096461 79 175 0
0.687646 -0.0494999 -0.095712 83 171 0
0.682113 -0.0517391 -0.0952295 87 167 0
0.676166 -0.051256 -0.095092 92 162 0
0.670483 -0.0491911 -0.0952484 96 158 0
0.667024 -0.0444083 -0.0956303 101 153 0
0.664629 -0.0391103 -0.096308 105 149 0
0.665258 -0.0332374 -0.0970025 109 145 0
0.668005 -0.0279318 -0.0979508 114 140 0
0.671635 -0.0232257 -0.0987889 118 136 0
0.67706 -0.0209941 -0.099543 123 131 0
0.683058 -0.0206886 -0.100099 127 127 0
0.687851 -0.0238945 -0.100117 131 123 0
0.691678 -0.0285438 -0.0996072 136 118 0
0.691313 -0.0336078 -0.0989033 140 114 0
0.688585 -0.038432 -0.098051 145 109 0
0.683614 -0.0417802 -0.0975119 149 105 0
0.677743 -0.0418858 -0.0972213 153 101 0
0.672089 -0.0397474 -0.0973637 158 96 0
0.668879 -0.0349847 -0.0978059 162 92 0
0.66657 -0.0296055 -0.0987691 167 87 0
0.66672 -0.0236478 -0.0998126 171 83 0
0.668297 -0.0180786 -0.101041 175 79 0
0.671899 -0.0133917 -0.102231 180 74 0
0.676695 -0.0106429 -0.103061 184 70 0
0.682696 -0.0103114 -0.103668 189 65 0
0.68838 -0.0120884 -0.103849 193 61 0
0.691382 -0.0171215 -0.103273 197 57 0
0.692943 -0.0228237 -0.102229 202 52 0
0.690957 -0.0279766 -0.100895 206 48 0
0.686023 -0.0308001 -0.10019 211 43 0
0.680027 -0.0305972 -0.0995204 215 39 0
0.674396 -0.0299924 -0.099341 219 35 0
0.670249 -0.0256404 -0.0997931 224 30 0
0.666801 -0.0213852 -0.100837 228 26 0
0.666193 -0.0156548 -0.102348 233 21 0
0.667069 -0.0101513 -0.104221 237 17 0
0.670048 -0.00638957 -0.105725 241 13 0
0.672103 -0.00229658 -0.107093 246 8 0
0.677077 -0.000744424 -0.108314 250 4 0
0.680693 -0.000328325 -0.108723 255 0 0
