ply
format ascii 1.0
comment Generated by robot_control PLYWriter
element vertex 12
property float x
property float y
property float z
property uchar red
property uchar green
property uchar blue
end_header
0.528935 0.13856 -0.122865 0 255 0
0.529427 0.134116 -0.120948 23 231 0
0.529721 0.129561 -0.119271 46 208 0
0.530177 0.125013 -0.117607 69 185 0
0.530635 0.120415 -0.116083 92 162 0
0.531166 0.115777 -0.114714 115 139 0
0.531682 0.111085 -0.113534 139 115 0
0.532221 0.106363 -0.112494 162 92 0
0.532733 0.101621 -0.111535 185 69 0
0.533301 0.0968723 -0.110643 208 46 0
0.533713 0.0920994 -0.109808 231 23 0
0.534157 0.0873211 -0.109011 255 0 0
