ply
format ascii 1.0
comment Generated by robot_control PLYWriter
element vertex 53
property float x
property float y
property float z
property uchar red
property uchar green
property uchar blue
end_header
0.726157 -0.127551 -0.121579 0 255 0
0.730437 -0.130047 -0.122983 4 250 0
0.733153 -0.134319 -0.124493 9 245 0
0.734746 -0.139582 -0.125627 14 240 0
0.73328 -0.144749 -0.126482 19 235 0
0.730912 -0.150218 -0.126792 24 230 0
0.726506 -0.154105 -0.126567 29 225 0
0.720755 -0.155388 -0.126218 34 220 0
0.716388 -0.153927 -0.125453 39 215 0
0.712615 -0.150305 -0.124465 44 210 0
0.711003 -0.145283 -0.123712 49 205 0
0.713304 -0.139781 -0.123459 53 201 0
0.71842 -0.137381 -0.123669 58 196 0
0.72405 -0.135856 -0.124335 63 191 0
0.728499 -0.139438 -0.125091 68 186 0
0.732837 -0.143198 -0.125763 73 181 0
0.734633 -0.148815 -0.126522 78 176 0
0.73442 -0.15478 -0.127169 83 171 0
0.731016 -0.159461 -0.1274 88 166 0
0.727386 -0.164243 -0.127205 93 161 0
0.721905 -0.166629 -0.126901 98 156 0
0.716442 -0.164931 -0.126385 102 152 0
0.712141 -0.160824 -0.1258 107 147 0
0.710749 -0.155308 -0.125387 112 142 0
0.713226 -0.150857 -0.125454 117 137 0
0.718402 -0.14785 -0.125866 122 132 0
0.723829 -0.147215 -0.126383 127 127 0
0.728467 -0.150792 -0.126932 132 122 0
0.733219 -0.154162 -0.127576 137 117 0
0.734633 -0.15977 -0.127983 142 112 0
0.734201 -0.165752 -0.128237 147 107 0
0.731113 -0.170791 -0.128209 152 102 0
0.726707 -0.174419 -0.127848 156 98 0
0.721174 -0.176518 -0.127458 161 93 0
0.71557 -0.174949 -0.126655 166 88 0
0.711152 -0.171056 -0.126179 171 83 0
0.710864 -0.165245 -0.125898 176 78 0
0.714042 -0.160663 -0.126096 181 73 0
0.718846 -0.158673 -0.126633 186 68 0
0.724344 -0.158173 -0.12736 191 63 0
0.729263 -0.16132 -0.128198 196 58 0
0.732437 -0.16622 -0.12917 201 53 0
0.733937 -0.171811 -0.12994 205 49 0
0.73323 -0.177487 -0.130356 210 44 0
0.730284 -0.182685 -0.130366 215 39 0
0.725976 -0.186182 -0.129985 220 34 0
0.720105 -0.186471 -0.129068 225 29 0
0.714729 -0.186041 -0.127653 230 24 0
0.711775 -0.181962 -0.126288 235 19 0
0.710831 -0.176281 -0.125572 240 14 0
0.713259 -0.172414 -0.12556 245 9 0
0.716677 -0.169396 -0.126237 250 4 0
0.721806 -0.168987 -0.127497 255 0 0
