ply
format ascii 1.0
comment Generated by robot_control PLYWriter
element vertex 60
property float x
property float y
property float z
property uchar red
property uchar green
property uchar blue
end_header
0.632031 0.145056 -0.139025 0 255 0
0.635034 0.142486 -0.137579 4 250 0
0.638415 0.138553 -0.135808 8 246 0
0.640022 0.134653 -0.133869 12 242 0
0.640739 0.129154 -0.132229 17 237 0
0.637878 0.124574 -0.130802 21 233 0
0.634889 0.119501 -0.130011 25 229 0
0.630308 0.115783 -0.129747 30 224 0
0.624889 0.114513 -0.130009 34 220 0
0.61951 0.116399 -0.130751 38 216 0
0.615189 0.11832 -0.132423 43 211 0
0.612594 0.123343 -0.133936 47 207 0
0.613453 0.128687 -0.134648 51 203 0
0.617755 0.132646 -0.135067 56 198 0
0.623254 0.134938 -0.134931 60 194 0
0.629026 0.135045 -0.134273 64 190 0
0.633739 0.132688 -0.133158 69 185 0
0.637824 0.128828 -0.131753 73 181 0
0.638392 0.123329 -0.130111 77 177 0
0.638714 0.117539 -0.128829 82 172 0
0.636549 0.112222 -0.127865 86 168 0
0.632644 0.107788 -0.127248 90 164 0
0.627377 0.104999 -0.12709 95 159 0
0.622044 0.104222 -0.127377 99 155 0
0.616279 0.105506 -0.127997 103 151 0
0.613497 0.110566 -0.129202 108 146 0
0.612128 0.116021 -0.130075 112 142 0
0.614833 0.121223 -0.13078 116 138 0
0.619806 0.124493 -0.130864 121 133 0
0.625351 0.124564 -0.130461 125 129 0
0.630923 0.123241 -0.129711 129 125 0
0.634414 0.119932 -0.128549 133 121 0
0.638546 0.115927 -0.127284 138 116 0
0.63853 0.110199 -0.12581 142 112 0
0.637317 0.104674 -0.124594 146 108 0
0.63369 0.100052 -0.123678 151 103 0
0.629593 0.0957428 -0.123164 155 99 0
0.623854 0.094983 -0.123161 159 95 0
0.618222 0.0939733 -0.123759 164 90 0
0.61428 0.0981859 -0.124622 168 86 0
0.611035 0.103036 -0.125793 172 82 0
0.612433 0.108194 -0.12673 177 77 0
0.616186 0.112356 -0.127463 181 73 0
0.621655 0.113747 -0.127491 185 69 0
0.627376 0.113435 -0.126689 190 64 0
0.632719 0.111045 -0.125629 194 60 0
0.635945 0.106594 -0.124002 198 56 0
0.638353 0.10159 -0.122013 203 51 0
0.63876 0.0960996 -0.120404 207 47 0
0.635988 0.0909843 -0.119118 211 43 0
0.63201 0.086785 -0.118053 216 38 0
0.626741 0.0840806 -0.117417 220 34 0
0.620861 0.0841584 -0.11778 224 30 0
0.615462 0.0842949 -0.119188 229 25 0
0.612429 0.0891512 -0.120768 233 21 0
0.61069 0.0937299 -0.122883 237 17 0
0.612586 0.0981378 -0.124322 242 12 0
0.615109 0.101691 -0.125171 246 8 0
0.619777 0.10313 -0.12528 250 4 0
0.624557 0.103312 -0.12493 255 0 0
