ply
format ascii 1.0
comment Generated by robot_control PLYWriter
element vertex 13
property float x
property float y
property float z
property uchar red
property uchar green
property uchar blue
end_header
0.65897 -0.20564 -0.0449737 0 255 0
0.659154 -0.200481 -0.0454251 21 233 0
0.659314 -0.195295 -0.0455476 42 212 0
0.659527 -0.19012 -0.0459443 63 191 0
0.6598 -0.184936 -0.0461494 85 169 0
0.659998 -0.179747 -0.0460485 106 148 0
0.660254 -0.174569 -0.0457148 127 127 0
0.660376 -0.169394 -0.0452695 148 106 0
0.660404 -0.164216 -0.0448497 170 84 0
0.660621 -0.159036 -0.0445243 191 63 0
0.660824 -0.153854 -0.0442247 212 42 0
0.660765 -0.148676 -0.0438055 233 21 0
0.660706 -0.143496 -0.0434172 255 0 0
