ply
format ascii 1.0
comment Generated by robot_control PLYWriter
element vertex 14
property float x
property float y
property float z
property uchar red
property uchar green
property uchar blue
end_header
0.600663 0.120613 -0.116648 0 255 0
0.601243 0.115986 -0.115253 19 235 0
0.601882 0.111295 -0.114118 39 215 0
0.602298 0.106639 -0.112763 58 196 0
0.602698 0.101942 -0.111552 78 176 0
0.603262 0.0972227 -0.1105 98 156 0
0.603913 0.092497 -0.109524 117 137 0
0.604511 0.087753 -0.108605 137 117 0
0.604997 0.0829859 -0.107744 156 98 0
0.60547 0.0782089 -0.106935 176 78 0
0.606067 0.0734419 -0.106145 196 58 0
0.606551 0.0686674 -0.10532 215 39 0
0.607128 0.063896 -0.104548 235 19 0
0.607634 0.0591239 -0.103778 255 0 0
