ply
format ascii 1.0
comment Generated by robot_control PLYWriter
element vertex 12
property float x
property float y
property float z
property uchar red
property uchar green
property uchar blue
end_header
0.625208 -0.405578 -0.119712 0 255 0
0.625231 -0.409404 -0.116221 23 231 0
0.625179 -0.413849 -0.113566 46 208 0
0.62504 -0.418348 -0.110979 69 185 0
0.624921 -0.422919 -0.108521 92 162 0
0.624956 -0.427661 -0.106423 115 139 0
0.625038 -0.432657 -0.105102 139 115 0
0.625021 -0.437785 -0.10431 162 92 0
0.624858 -0.442935 -0.103691 185 69 0
0.624607 -0.448088 -0.103107 208 46 0
0.624399 -0.453248 -0.102583 231 23 0
0.624106 -0.458389 -0.101933 255 0 0
