ply
format ascii 1.0
comment Generated by robot_control PLYWriter
element vertex 11
property float x
property float y
property float z
property uchar red
property uchar green
property uchar blue
end_header
0.57644 0.0622585 -0.113912 0 255 0
0.57585 0.0673475 -0.114521 25 229 0
0.575494 0.0724372 -0.1153 51 204 0
0.575188 0.0775418 -0.116003 76 178 0
0.574928 0.0826122 -0.116943 102 153 0
0.574805 0.0876693 -0.117965 127 127 0
0.574894 0.0927379 -0.118949 153 101 0
0.57499 0.0978124 -0.119901 178 76 0
0.575091 0.102895 -0.120806 204 50 0
0.57524 0.107996 -0.121591 229 25 0
0.575242 0.113106 -0.122332 255 0 0
