ply
format ascii 1.0
comment Generated by robot_control PLYWriter
element vertex 59
property float x
property float y
property float z
property uchar red
property uchar green
property uchar blue
end_header
0.633839 0.0971611 -0.116898 0 255 0
0.638535 0.0945881 -0.117766 4 250 0
0.641517 0.0901588 -0.118243 8 246 0
0.64369 0.0848071 -0.11822 13 241 0
0.64308 0.0793651 -0.117602 17 237 0
0.640696 0.0740321 -0.116555 21 233 0
0.637324 0.0693176 -0.114998 26 228 0
0.632557 0.0668819 -0.113433 30 224 0
0.627047 0.066493 -0.112274 35 219 0
0.621551 0.068217 -0.111763 39 215 0
0.618795 0.073245 -0.111471 43 211 0
0.61717 0.0785083 -0.111757 48 206 0
0.618978 0.084033 -0.112483 52 202 0
0.623841 0.0869948 -0.113552 57 197 0
0.629339 0.0877233 -0.114672 61 193 0
0.634906 0.0856357 -0.115652 65 189 0
0.639735 0.0822326 -0.116167 70 184 0
0.643122 0.0773138 -0.116195 74 180 0
0.64451 0.0715387 -0.11583 79 175 0
0.642958 0.0657335 -0.115368 83 171 0
0.640124 0.060748 -0.114308 87 167 0
0.635507 0.0571618 -0.113188 92 162 0
0.629788 0.0556161 -0.112169 96 158 0
0.624593 0.0573432 -0.111007 101 153 0
0.619908 0.0607444 -0.110578 105 149 0
0.618788 0.066534 -0.110711 109 145 0
0.619536 0.0722484 -0.111468 114 140 0
0.624525 0.0752624 -0.11255 118 136 0
0.629897 0.0774632 -0.113539 123 131 0
0.635589 0.0762109 -0.114355 127 127 0
0.640288 0.0724973 -0.114968 131 123 0
0.642587 0.0672502 -0.11523 136 118 0
0.644776 0.061683 -0.115158 140 114 0
0.645098 0.0557141 -0.114787 145 109 0
0.641768 0.0508504 -0.113903 149 105 0
0.638198 0.0463979 -0.112906 153 101 0
0.632519 0.0451624 -0.11169 158 96 0
0.626708 0.0455131 -0.110441 162 92 0
0.621802 0.0486709 -0.109531 167 87 0
0.618774 0.0535288 -0.109342 171 83 0
0.618821 0.0595405 -0.109614 175 79 0
0.623675 0.062849 -0.110534 180 74 0
0.629031 0.0648892 -0.11205 184 70 0
0.634921 0.0653483 -0.113189 189 65 0
0.640187 0.062818 -0.114261 193 61 0
0.64267 0.0580247 -0.11503 197 57 0
0.645189 0.0526292 -0.115272 202 52 0
0.645098 0.0466131 -0.115099 206 48 0
0.644355 0.0409864 -0.114465 211 43 0
0.639673 0.0374004 -0.113269 215 39 0
0.635962 0.033873 -0.111907 219 35 0
0.63025 0.0335535 -0.11025 224 30 0
0.624656 0.0343981 -0.108765 228 26 0
0.620392 0.0381721 -0.107706 233 21 0
0.620341 0.0441618 -0.107411 237 17 0
0.621344 0.0494128 -0.108066 241 13 0
0.624368 0.0533573 -0.109197 246 8 0
0.629216 0.0540299 -0.110612 250 4 0
0.63346 0.0550994 -0.111796 255 0 0
