ply
format ascii 1.0
comment Generated by robot_control PLYWriter
element vertex 10
property float x
property float y
property float z
property uchar red
property uchar green
property uchar blue
end_header
0.634002 0.0874954 -0.115726 0 255 0
0.634404 0.0828023 -0.115448 28 226 0
0.634416 0.0780929 -0.115101 56 198 0
0.634615 0.0733833 -0.11485 85 169 0
0.634908 0.0686712 -0.114769 113 141 0
0.634901 0.0639571 -0.114724 141 113 0
0.634784 0.0592391 -0.114708 170 84 0
0.634863 0.0545176 -0.114785 198 56 0
0.634933 0.0497973 -0.114909 226 28 0
0.634759 0.0450805 -0.11502 255 0 0
