ply
format ascii 1.0
comment Generated by robot_control PLYWriter
element vertex 32
property float x
property float y
property float z
property uchar red
property uchar green
property uchar blue
end_header
0.595098 0.0523488 -0.159927 0 255 0
0.599709 0.0500834 -0.158742 8 246 0
0.603707 0.0461671 -0.157513 16 238 0
0.604361 0.0407865 -0.156145 24 230 0
0.603447 0.0354289 -0.154815 32 222 0
0.59897 0.0317979 -0.154044 41 213 0
0.593546 0.029774 -0.153672 49 205 0
0.587585 0.0297509 -0.153847 57 197 0
0.581929 0.0305636 -0.154444 65 189 0
0.577589 0.0343455 -0.155266 74 180 0
0.575224 0.0396809 -0.156495 82 172 0
0.573485 0.0452877 -0.157492 90 164 0
0.574588 0.0505325 -0.158839 98 156 0
0.576304 0.0561615 -0.159722 106 148 0
0.581545 0.0588452 -0.160452 115 139 0
0.586552 0.0615602 -0.160811 123 131 0
0.592411 0.0608894 -0.160821 131 123 0
0.597806 0.0584929 -0.160416 139 115 0
0.600772 0.0535778 -0.159575 148 106 0
0.601289 0.0481758 -0.158563 156 98 0
0.598749 0.042878 -0.157529 164 90 0
0.594322 0.0391696 -0.156901 172 82 0
0.588809 0.0370429 -0.156549 180 74 0
0.582926 0.0369633 -0.156692 189 65 0
0.577806 0.0397564 -0.157076 197 57 0
0.574169 0.0440418 -0.158032 205 49 0
0.571135 0.048609 -0.159353 213 41 0
0.571051 0.0543033 -0.160981 222 32 0
0.572033 0.0596198 -0.162378 230 24 0
0.575433 0.0642666 -0.163638 238 16 0
0.579634 0.0672748 -0.164788 246 8 0
0.584947 0.0689192 -0.165246 255 0 0
