ply
format ascii 1.0
comment Generated by robot_control PLYWriter
element vertex 200
property float x
property float y
property float z
property uchar red
property uchar green
property uchar blue
end_header
0.609684 -0.0309681 -0.121374 0 255 0
0.609684 -0.0309681 -0.121374 1 253 0
0.609684 -0.0309681 -0.121374 2 252 0
0.609684 -0.0309681 -0.121374 3 251 0
0.609684 -0.0309681 -0.121374 5 249 0
0.609684 -0.0309681 -0.121374 6 248 0
0.609684 -0.0309681 -0.121374 7 247 0
0.609684 -0.0309681 -0.121374 8 246 0
0.609684 -0.0309681 -0.121374 10 244 0
0.609684 -0.0309681 -0.121374 11 243 0
0.609684 -0.0309681 -0.121374 12 242 0
0.609684 -0.0309681 -0.121374 14 240 0
0.609684 -0.0309681 -0.121374 15 239 0
0.609684 -0.0309681 -0.121374 16 238 0
0.609684 -0.0309681 -0.121374 17 237 0
0.609684 -0.0309681 -0.121374 19 235 0
0.609684 -0.0309681 -0.121374 20 234 0
0.609684 -0.0309681 -0.121374 21 233 0
0.609684 -0.0309681 -0.121374 23 231 0
0.609684 -0.0309681 -0.121374 24 230 0
0.609684 -0.0309681 -0.121374 25 229 0
0.609684 -0.0309681 -0.121374 26 228 0
0.609684 -0.0309681 -0.121374 28 226 0
0.609684 -0.0309681 -0.121374 29 225 0
0.609684 -0.0309681 -0.121374 30 224 0
0.609684 -0.0309681 -0.121374 32 222 0
0.609684 -0.0309681 -0.121374 33 221 0
0.609684 -0.0309681 -0.121374 34 220 0
0.609684 -0.0309681 -0.121374 35 219 0
0.609684 -0.0309681 -0.121374 37 217 0
0.609684 -0.0309681 -0.121374 38 216 0
0.609684 -0.0309681 -0.121374 39 215 0
0.609684 -0.0309681 -0.121374 41 213 0
0.609684 -0.0309681 -0.121374 42 212 0
0.609684 -0.0309681 -0.121374 43 211 0
0.609684 -0.0309681 -0.121374 44 210 0
0.609684 -0.0309681 -0.121374 46 208 0
0.609684 -0.0309681 -0.121374 47 207 0
0.609684 -0.0309681 -0.121374 48 206 0
0.609684 -0.0309681 -0.121374 49 205 0
0.609684 -0.0309681 -0.121374 51 203 0
0.609684 -0.0309681 -0.121374 52 202 0
0.609684 -0.0309681 -0.121374 53 201 0
0.609684 -0.0309681 -0.121374 55 199 0
0.609684 -0.0309681 -0.121374 56 198 0
0.609684 -0.0309681 -0.121374 57 197 0
0.609684 -0.0309681 -0.121374 58 196 0
0.609684 -0.0309681 -0.121374 60 194 0
0.609684 -0.0309681 -0.121374 61 193 0
0.609684 -0.0309681 -0.121374 62 192 0
0.609684 -0.0309681 -0.121374 64 190 0
0.609684 -0.0309681 -0.121374 65 189 0
0.609684 -0.0309681 -0.121374 66 188 0
0.609684 -0.0309681 -0.121374 67 187 0
0.609684 -0.0309681 -0.121374 69 185 0
0.609684 -0.0309681 -0.121374 70 184 0
0.609684 -0.0309681 -0.121374 71 183 0
0.609684 -0.0309681 -0.121374 73 181 0
0.609684 -0.0309681 -0.121374 74 180 0
0.609684 -0.0309681 -0.121374 75 179 0
0.609684 -0.0309681 -0.121374 76 178 0
0.609684 -0.0309681 -0.121374 78 176 0
0.609684 -0.0309681 -0.121374 79 175 0
0.609684 -0.0309681 -0.121374 80 174 0
0.609684 -0.0309681 -0.121374 82 172 0
0.609684 -0.0309681 -0.121374 83 171 0
0.609684 -0.0309681 -0.121374 84 170 0
0.609684 -0.0309681 -0.121374 85 169 0
0.609684 -0.0309681 -0.121374 87 167 0
0.609684 -0.0309681 -0.121374 88 166 0
0.609684 -0.0309681 -0.121374 89 165 0
0.609684 -0.0309681 -0.121374 90 164 0
0.609684 -0.0309681 -0.121374 92 162 0
0.609684 -0.0309681 -0.121374 93 161 0
0.609684 -0.0309681 -0.121374 94 160 0
0.609684 -0.0309681 -0.121374 96 158 0
0.609684 -0.0309681 -0.121374 97 157 0
0.609684 -0.0309681 -0.121374 98 156 0
0.609684 -0.0309681 -0.121374 99 155 0
0.609684 -0.0309681 -0.121374 101 153 0
0.609684 -0.0309681 -0.121374 102 152 0
0.609684 -0.0309681 -0.121374 103 151 0
0.609684 -0.0309681 -0.121374 105 149 0
0.609684 -0.0309681 -0.121374 106 148 0
0.609684 -0.0309681 -0.121374 107 147 0
0.609684 -0.0309681 -0.121374 108 146 0
0.609684 -0.0309681 -0.121374 110 144 0
0.609684 -0.0309681 -0.121374 111 143 0
0.609684 -0.0309681 -0.121374 112 142 0
0.609684 -0.0309681 -0.121374 114 140 0
0.609684 -0.0309681 -0.121374 115 139 0
0.609684 -0.0309681 -0.121374 116 138 0
0.609684 -0.0309681 -0.121374 117 137 0
0.609684 -0.0309681 -0.121374 119 135 0
0.609684 -0.0309681 -0.121374 120 134 0
0.609684 -0.0309681 -0.121374 121 133 0
0.609684 -0.0309681 -0.121374 123 131 0
0.609684 -0.0309681 -0.121374 124 130 0
0.609684 -0.0309681 -0.121374 125 129 0
0.609684 -0.0309681 -0.121374 126 128 0
0.609684 -0.0309681 -0.121374 128 126 0
0.609684 -0.0309681 -0.121374 129 125 0
0.609684 -0.0309681 -0.121374 130 124 0
0.609684 -0.0309681 -0.121374 131 123 0
0.609684 -0.0309681 -0.121374 133 121 0
0.609684 -0.0309681 -0.121374 134 120 0
0.609684 -0.0309681 -0.121374 135 119 0
0.609684 -0.0309681 -0.121374 137 117 0
0.609684 -0.0309681 -0.121374 138 116 0
0.609684 -0.0309681 -0.121374 139 115 0
0.609684 -0.0309681 -0.121374 140 114 0
0.609684 -0.0309681 -0.121374 142 112 0
0.609684 -0.0309681 -0.121374 143 111 0
0.609684 -0.0309681 -0.121374 144 110 0
0.609684 -0.0309681 -0.121374 146 108 0
0.609684 -0.0309681 -0.121374 147 107 0
0.609684 -0.0309681 -0.121374 148 106 0
0.609684 -0.0309681 -0.121374 149 105 0
0.609684 -0.0309681 -0.121374 151 103 0
0.609684 -0.0309681 -0.121374 152 102 0
0.609684 -0.0309681 -0.121374 153 101 0
0.609684 -0.0309681 -0.121374 155 99 0
0.609684 -0.0309681 -0.121374 156 98 0
0.609684 -0.0309681 -0.121374 157 97 0
0.609684 -0.0309681 -0.121374 158 96 0
0.609684 -0.0309681 -0.121374 160 94 0
0.609684 -0.0309681 -0.121374 161 93 0
0.609684 -0.0309681 -0.121374 162 92 0
0.609684 -0.0309681 -0.121374 164 90 0
0.609684 -0.0309681 -0.121374 165 89 0
0.609684 -0.0309681 -0.121374 166 88 0
0.609684 -0.0309681 -0.121374 167 87 0
0.609684 -0.0309681 -0.121374 169 85 0
0.609684 -0.0309681 -0.121374 170 84 0
0.609684 -0.0309681 -0.121374 171 83 0
0.609684 -0.0309681 -0.121374 172 82 0
0.609684 -0.0309681 -0.121374 174 80 0
0.609684 -0.0309681 -0.121374 175 79 0
0.609684 -0.0309681 -0.121374 176 78 0
0.609684 -0.0309681 -0.121374 178 76 0
0.609684 -0.0309681 -0.121374 179 75 0
0.609684 -0.0309681 -0.121374 180 74 0
0.609684 -0.0309681 -0.121374 181 73 0
0.609684 -0.0309681 -0.121374 183 71 0
0.609684 -0.0309681 -0.121374 184 70 0
0.609684 -0.0309681 -0.121374 185 69 0
0.609684 -0.0309681 -0.121374 187 67 0
0.609684 -0.0309681 -0.121374 188 66 0
0.609684 -0.0309681 -0.121374 189 65 0
0.609684 -0.0309681 -0.121374 190 64 0
0.609684 -0.0309681 -0.121374 192 62 0
0.609684 -0.0309681 -0.121374 193 61 0
0.609684 -0.0309681 -0.121374 194 60 0
0.609684 -0.0309681 -0.121374 196 58 0
0.609684 -0.0309681 -0.121374 197 57 0
0.609684 -0.0309681 -0.121374 198 56 0
0.609684 -0.0309681 -0.121374 199 55 0
0.609684 -0.0309681 -0.121374 201 53 0
0.609684 -0.0309681 -0.121374 202 52 0
0.609684 -0.0309681 -0.121374 203 51 0
0.609684 -0.0309681 -0.121374 205 49 0
0.609684 -0.0309681 -0.121374 206 48 0
0.609684 -0.0309681 -0.121374 207 47 0
0.609684 -0.0309681 -0.121374 208 46 0
0.609684 -0.0309681 -0.121374 210 44 0
0.609684 -0.0309681 -0.121374 211 43 0
0.609684 -0.0309681 -0.121374 212 42 0
0.609684 -0.0309681 -0.121374 213 41 0
0.609684 -0.0309681 -0.121374 215 39 0
0.609684 -0.0309681 -0.121374 216 38 0
0.609684 -0.0309681 -0.121374 217 37 0
0.609684 -0.0309681 -0.121374 219 35 0
0.609684 -0.0309681 -0.121374 220 34 0
0.609684 -0.0309681 -0.121374 221 33 0
0.609684 -0.0309681 -0.121374 222 32 0
0.609684 -0.0309681 -0.121374 224 30 0
0.609684 -0.0309681 -0.121374 225 29 0
0.609684 -0.0309681 -0.121374 226 28 0
0.609684 -0.0309681 -0.121374 228 26 0
0.609684 -0.0309681 -0.121374 229 25 0
0.609684 -0.0309681 -0.121374 230 24 0
0.609684 -0.0309681 -0.121374 231 23 0
0.609684 -0.0309681 -0.121374 233 21 0
0.609684 -0.0309681 -0.121374 234 20 0
0.609684 -0.0309681 -0.121374 235 19 0
0.609684 -0.0309681 -0.121374 237 17 0
0.609684 -0.0309681 -0.121374 238 16 0
0.609684 -0.0309681 -0.121374 239 15 0
0.609684 -0.0309681 -0.121374 240 14 0
0.609684 -0.0309681 -0.121374 242 12 0
0.609684 -0.0309681 -0.121374 243 11 0
0.609684 -0.0309681 -0.121374 244 10 0
0.609684 -0.0309681 -0.121374 246 8 0
0.609684 -0.0309681 -0.121374 247 7 0
0.609684 -0.0309681 -0.121374 248 6 0
0.609684 -0.0309681 -0.121374 249 5 0
0.609684 -0.0309681 -0.121374 251 3 0
0.609684 -0.0309681 -0.121374 252 2 0
0.609684 -0.0309681 -0.121374 253 1 0
0.609684 -0.0309681 -0.121374 255 0 0
