ply
format ascii 1.0
comment Generated by robot_control PLYWriter
element vertex 10
property float x
property float y
property float z
property uchar red
property uchar green
property uchar blue
end_header
0.684124 -0.350649 -0.0197641 0 255 0
0.683743 -0.345494 -0.0198833 28 226 0
0.683336 -0.340343 -0.0199566 56 198 0
0.682784 -0.335206 -0.0201407 85 169 0
0.682244 -0.33007 -0.0204107 113 141 0
0.681784 -0.32493 -0.0207122 141 113 0
0.681435 -0.31978 -0.0210184 170 84 0
0.681092 -0.31463 -0.0213189 198 56 0
0.680599 -0.3095 -0.0217048 226 28 0
0.680527 -0.30435 -0.0221339 255 0 0
