ply
format ascii 1.0
comment Generated by robot_control PLYWriter
element vertex 14
property float x
property float y
property float z
property uchar red
property uchar green
property uchar blue
end_header
0.703685 -0.032924 -0.092814 0 255 0
0.703405 -0.0280613 -0.0938694 19 235 0
0.702845 -0.0231955 -0.0947825 39 215 0
0.702423 -0.0183278 -0.0957665 58 196 0
0.70202 -0.0134523 -0.0967216 78 176 0
0.701766 -0.00854782 -0.0975664 98 156 0
0.701424 -0.00364133 -0.0983662 117 137 0
0.701076 0.00126612 -0.099162 137 117 0
0.700745 0.00617206 -0.0999758 156 98 0
0.700323 0.0110694 -0.100802 176 78 0
0.699946 0.0159721 -0.101612 196 58 0
0.699756 0.0208834 -0.102442 215 39 0
0.699513 0.0257861 -0.103307 235 19 0
0.698979 0.0306565 -0.104212 255 0 0
