ply
format ascii 1.0
comment Generated by robot_control PLYWriter
element vertex 17
property float x
property float y
property float z
property uchar red
property uchar green
property uchar blue
end_header
0.61721 -0.310167 -0.122102 0 255 0
0.617475 -0.30602 -0.124672 15 239 0
0.617742 -0.301548 -0.126631 31 223 0
0.618126 -0.297081 -0.128587 47 207 0
0.618455 -0.292578 -0.13047 63 191 0
0.618813 -0.287954 -0.13202 79 175 0
0.61914 -0.283215 -0.133185 95 159 0
0.619353 -0.278404 -0.134053 111 143 0
0.619559 -0.273566 -0.134774 127 127 0
0.619833 -0.26872 -0.135393 143 111 0
0.620308 -0.263877 -0.135926 159 95 0
0.620758 -0.259023 -0.136362 175 79 0
0.621069 -0.254149 -0.136696 191 63 0
0.62136 -0.249275 -0.137042 207 47 0
0.621666 -0.244412 -0.137504 223 31 0
0.622102 -0.239568 -0.138053 239 15 0
0.622829 -0.234732 -0.13821 255 0 0
