ply
format ascii 1.0
comment Generated by robot_control PLYWriter
element vertex 200
property float x
property float y
property float z
property uchar red
property uchar green
property uchar blue
end_header
0.651168 -0.284908 -0.135257 0 255 0
0.651168 -0.284908 -0.135257 1 253 0
0.651168 -0.284908 -0.135257 2 252 0
0.651168 -0.284908 -0.135257 3 251 0
0.651168 -0.284908 -0.135257 5 249 0
0.651168 -0.284908 -0.135257 6 248 0
0.651168 -0.284908 -0.135257 7 247 0
0.651168 -0.284908 -0.135257 8 246 0
0.651168 -0.284908 -0.135257 10 244 0
0.651168 -0.284908 -0.135257 11 243 0
0.651168 -0.284908 -0.135257 12 242 0
0.651168 -0.284908 -0.135257 14 240 0
0.651168 -0.284908 -0.135257 15 239 0
0.651168 -0.284908 -0.135257 16 238 0
0.651168 -0.284908 -0.135257 17 237 0
0.651168 -0.284908 -0.135257 19 235 0
0.651168 -0.284908 -0.135257 20 234 0
0.651168 -0.284908 -0.135257 21 233 0
0.651168 -0.284908 -0.135257 23 231 0
0.651168 -0.284908 -0.135257 24 230 0
0.651168 -0.284908 -0.135257 25 229 0
0.651168 -0.284908 -0.135257 26 228 0
0.651168 -0.284908 -0.135257 28 226 0
0.651168 -0.284908 -0.135257 29 225 0
0.651168 -0.284908 -0.135257 30 224 0
0.651168 -0.284908 -0.135257 32 222 0
0.651168 -0.284908 -0.135257 33 221 0
0.651168 -0.284908 -0.135257 34 220 0
0.651168 -0.284908 -0.135257 35 219 0
0.651168 -0.284908 -0.135257 37 217 0
0.651168 -0.284908 -0.135257 38 216 0
0.651168 -0.284908 -0.135257 39 215 0
0.651168 -0.284908 -0.135257 41 213 0
0.651168 -0.284908 -0.135257 42 212 0
0.651168 -0.284908 -0.135257 43 211 0
0.651168 -0.284908 -0.135257 44 210 0
0.651168 -0.284908 -0.135257 46 208 0
0.651168 -0.284908 -0.135257 47 207 0
0.651168 -0.284908 -0.135257 48 206 0
0.651168 -0.284908 -0.135257 49 205 0
0.651168 -0.284908 -0.135257 51 203 0
0.651168 -0.284908 -0.135257 52 202 0
0.651168 -0.284908 -0.135257 53 201 0
0.651168 -0.284908 -0.135257 55 199 0
0.651168 -0.284908 -0.135257 56 198 0
0.651168 -0.284908 -0.135257 57 197 0
0.651168 -0.284908 -0.135257 58 196 0
0.651168 -0.284908 -0.135257 60 194 0
0.651168 -0.284908 -0.135257 61 193 0
0.651168 -0.284908 -0.135257 62 192 0
0.651168 -0.284908 -0.135257 64 190 0
0.651168 -0.284908 -0.135257 65 189 0
0.651168 -0.284908 -0.135257 66 188 0
0.651168 -0.284908 -0.135257 67 187 0
0.651168 -0.284908 -0.135257 69 185 0
0.651168 -0.284908 -0.135257 70 184 0
0.651168 -0.284908 -0.135257 71 183 0
0.651168 -0.284908 -0.135257 73 181 0
0.651168 -0.284908 -0.135257 74 180 0
0.651168 -0.284908 -0.135257 75 179 0
0.651168 -0.284908 -0.135257 76 178 0
0.651168 -0.284908 -0.135257 78 176 0
0.651168 -0.284908 -0.135257 79 175 0
0.651168 -0.284908 -0.135257 80 174 0
0.651168 -0.284908 -0.135257 82 172 0
0.651168 -0.284908 -0.135257 83 171 0
0.651168 -0.284908 -0.135257 84 170 0
0.651168 -0.284908 -0.135257 85 169 0
0.651168 -0.284908 -0.135257 87 167 0
0.651168 -0.284908 -0.135257 88 166 0
0.651168 -0.284908 -0.135257 89 165 0
0.651168 -0.284908 -0.135257 90 164 0
0.651168 -0.284908 -0.135257 92 162 0
0.651168 -0.284908 -0.135257 93 161 0
0.651168 -0.284908 -0.135257 94 160 0
0.651168 -0.284908 -0.135257 96 158 0
0.651168 -0.284908 -0.135257 97 157 0
0.651168 -0.284908 -0.135257 98 156 0
0.651168 -0.284908 -0.135257 99 155 0
0.651168 -0.284908 -0.135257 101 153 0
0.651168 -0.284908 -0.135257 102 152 0
0.651168 -0.284908 -0.135257 103 151 0
0.651168 -0.284908 -0.135257 105 149 0
0.651168 -0.284908 -0.135257 106 148 0
0.651168 -0.284908 -0.135257 107 147 0
0.651168 -0.284908 -0.135257 108 146 0
0.651168 -0.284908 -0.135257 110 144 0
0.651168 -0.284908 -0.135257 111 143 0
0.651168 -0.284908 -0.135257 112 142 0
0.651168 -0.284908 -0.135257 114 140 0
0.651168 -0.284908 -0.135257 115 139 0
0.651168 -0.284908 -0.135257 116 138 0
0.651168 -0.284908 -0.135257 117 137 0
0.651168 -0.284908 -0.135257 119 135 0
0.651168 -0.284908 -0.135257 120 134 0
0.651168 -0.284908 -0.135257 121 133 0
0.651168 -0.284908 -0.135257 123 131 0
0.651168 -0.284908 -0.135257 124 130 0
0.651168 -0.284908 -0.135257 125 129 0
0.651168 -0.284908 -0.135257 126 128 0
0.651168 -0.284908 -0.135257 128 126 0
0.651168 -0.284908 -0.135257 129 125 0
0.651168 -0.284908 -0.135257 130 124 0
0.651168 -0.284908 -0.135257 131 123 0
0.651168 -0.284908 -0.135257 133 121 0
0.651168 -0.284908 -0.135257 134 120 0
0.651168 -0.284908 -0.135257 135 119 0
0.651168 -0.284908 -0.135257 137 117 0
0.651168 -0.284908 -0.135257 138 116 0
0.651168 -0.284908 -0.135257 139 115 0
0.651168 -0.284908 -0.135257 140 114 0
0.651168 -0.284908 -0.135257 142 112 0
0.651168 -0.284908 -0.135257 143 111 0
0.651168 -0.284908 -0.135257 144 110 0
0.651168 -0.284908 -0.135257 146 108 0
0.651168 -0.284908 -0.135257 147 107 0
0.651168 -0.284908 -0.135257 148 106 0
0.651168 -0.284908 -0.135257 149 105 0
0.651168 -0.284908 -0.135257 151 103 0
0.651168 -0.284908 -0.135257 152 102 0
0.651168 -0.284908 -0.135257 153 101 0
0.651168 -0.284908 -0.135257 155 99 0
0.651168 -0.284908 -0.135257 156 98 0
0.651168 -0.284908 -0.135257 157 97 0
0.651168 -0.284908 -0.135257 158 96 0
0.651168 -0.284908 -0.135257 160 94 0
0.651168 -0.284908 -0.135257 161 93 0
0.651168 -0.284908 -0.135257 162 92 0
0.651168 -0.284908 -0.135257 164 90 0
0.651168 -0.284908 -0.135257 165 89 0
0.651168 -0.284908 -0.135257 166 88 0
0.651168 -0.284908 -0.135257 167 87 0
0.651168 -0.284908 -0.135257 169 85 0
0.651168 -0.284908 -0.135257 170 84 0
0.651168 -0.284908 -0.135257 171 83 0
0.651168 -0.284908 -0.135257 172 82 0
0.651168 -0.284908 -0.135257 174 80 0
0.651168 -0.284908 -0.135257 175 79 0
0.651168 -0.284908 -0.135257 176 78 0
0.651168 -0.284908 -0.135257 178 76 0
0.651168 -0.284908 -0.135257 179 75 0
0.651168 -0.284908 -0.135257 180 74 0
0.651168 -0.284908 -0.135257 181 73 0
0.651168 -0.284908 -0.135257 183 71 0
0.651168 -0.284908 -0.135257 184 70 0
0.651168 -0.284908 -0.135257 185 69 0
0.651168 -0.284908 -0.135257 187 67 0
0.651168 -0.284908 -0.135257 188 66 0
0.651168 -0.284908 -0.135257 189 65 0
0.651168 -0.284908 -0.135257 190 64 0
0.651168 -0.284908 -0.135257 192 62 0
0.651168 -0.284908 -0.135257 193 61 0
0.651168 -0.284908 -0.135257 194 60 0
0.651168 -0.284908 -0.135257 196 58 0
0.651168 -0.284908 -0.135257 197 57 0
0.651168 -0.284908 -0.135257 198 56 0
0.651168 -0.284908 -0.135257 199 55 0
0.651168 -0.284908 -0.135257 201 53 0
0.651168 -0.284908 -0.135257 202 52 0
0.651168 -0.284908 -0.135257 203 51 0
0.651168 -0.284908 -0.135257 205 49 0
0.651168 -0.284908 -0.135257 206 48 0
0.651168 -0.284908 -0.135257 207 47 0
0.651168 -0.284908 -0.135257 208 46 0
0.651168 -0.284908 -0.135257 210 44 0
0.651168 -0.284908 -0.135257 211 43 0
0.651168 -0.284908 -0.135257 212 42 0
0.651168 -0.284908 -0.135257 213 41 0
0.651168 -0.284908 -0.135257 215 39 0
0.651168 -0.284908 -0.135257 216 38 0
0.651168 -0.284908 -0.135257 217 37 0
0.651168 -0.284908 -0.135257 219 35 0
0.651168 -0.284908 -0.135257 220 34 0
0.651168 -0.284908 -0.135257 221 33 0
0.651168 -0.284908 -0.135257 222 32 0
0.651168 -0.284908 -0.135257 224 30 0
0.651168 -0.284908 -0.135257 225 29 0
0.651168 -0.284908 -0.135257 226 28 0
0.651168 -0.284908 -0.135257 228 26 0
0.651168 -0.284908 -0.135257 229 25 0
0.651168 -0.284908 -0.135257 230 24 0
0.651168 -0.284908 -0.135257 231 23 0
0.651168 -0.284908 -0.135257 233 21 0
0.651168 -0.284908 -0.135257 234 20 0
0.651168 -0.284908 -0.135257 235 19 0
0.651168 -0.284908 -0.135257 237 17 0
0.651168 -0.284908 -0.135257 238 16 0
0.651168 -0.284908 -0.135257 239 15 0
0.651168 -0.284908 -0.135257 240 14 0
0.651168 -0.284908 -0.135257 242 12 0
0.651168 -0.284908 -0.135257 243 11 0
0.651168 -0.284908 -0.135257 244 10 0
0.651168 -0.284908 -0.135257 246 8 0
0.651168 -0.284908 -0.135257 247 7 0
0.651168 -0.284908 -0.135257 248 6 0
0.651168 -0.284908 -0.135257 249 5 0
0.651168 -0.284908 -0.135257 251 3 0
0.651168 -0.284908 -0.135257 252 2 0
0.651168 -0.284908 -0.135257 253 1 0
0.651168 -0.284908 -0.135257 255 0 0
