ply
format ascii 1.0
comment Generated by robot_control PLYWriter
element vertex 49
property float x
property float y
property float z
property uchar red
property uchar green
property uchar blue
end_header
0.666627 0.115966 -0.149176 0 255 0
0.671898 0.1153 -0.149829 5 249 0
0.676311 0.112632 -0.149566 10 244 0
0.679409 0.107989 -0.148642 15 239 0
0.682501 0.102968 -0.147999 21 233 0
0.682545 0.0970187 -0.147198 26 228 0
0.680759 0.0917436 -0.146483 31 223 0
0.677483 0.0875558 -0.146162 37 217 0
0.672658 0.0843534 -0.146001 42 212 0
0.666707 0.0835725 -0.145918 47 207 0
0.661626 0.086625 -0.145972 53 201 0
0.656997 0.0901049 -0.146106 58 196 0
0.656165 0.0958429 -0.146408 63 191 0
0.657398 0.101368 -0.146865 69 185 0
0.660253 0.10632 -0.147291 74 180 0
0.665313 0.109033 -0.147396 79 175 0
0.671141 0.110269 -0.14741 85 169 0
0.676973 0.109918 -0.147277 90 164 0
0.681522 0.106405 -0.146975 95 159 0
0.68509 0.101575 -0.146621 100 154 0
0.688322 0.0967677 -0.146203 106 148 0
0.688239 0.0907668 -0.145794 111 143 0
0.686976 0.0850188 -0.145345 116 138 0
0.683204 0.0804274 -0.144986 122 132 0
0.678133 0.0772106 -0.14489 127 127 0
0.672214 0.0776717 -0.14493 132 122 0
0.666696 0.0800386 -0.145198 138 116 0
0.663448 0.0845741 -0.14564 143 111 0
0.661495 0.0901571 -0.146215 148 106 0
0.663376 0.0958605 -0.146598 154 100 0
0.666211 0.100745 -0.146862 159 95 0
0.671821 0.102877 -0.146939 164 90 0
0.677752 0.103698 -0.146791 170 84 0
0.683624 0.102755 -0.14627 175 79 0
0.688455 0.0995464 -0.145621 180 74 0
0.691754 0.0945816 -0.145019 185 69 0
0.694554 0.0892931 -0.144384 191 63 0
0.694483 0.0833919 -0.143662 196 58 0
0.691695 0.0785284 -0.143127 201 53 0
0.687356 0.0743709 -0.142821 207 47 0
0.68211 0.0717533 -0.142918 212 42 0
0.6767 0.0733042 -0.143502 217 37 0
0.671891 0.0767545 -0.144382 223 31 0
0.66806 0.0809385 -0.14544 228 26 0
0.668054 0.0869003 -0.146172 233 21 0
0.670685 0.0915393 -0.146542 239 15 0
0.674514 0.0949097 -0.146837 244 10 0
0.679111 0.0974865 -0.146762 249 5 0
0.684957 0.0978732 -0.146508 255 0 0
