ply
format ascii 1.0
comment Generated by robot_control PLYWriter
element vertex 57
property float x
property float y
property float z
property uchar red
property uchar green
property uchar blue
end_header
0.735798 0.188446 -0.1413 0 255 0
0.740266 0.186148 -0.141618 4 250 0
0.743766 0.182037 -0.141203 9 245 0
0.746732 0.177178 -0.140496 13 241 0
0.747877 0.17155 -0.13929 18 236 0
0.745915 0.16618 -0.137645 22 232 0
0.744646 0.160872 -0.136291 27 227 0
0.74098 0.156752 -0.134656 31 223 0
0.736043 0.153976 -0.133392 36 218 0
0.730147 0.153461 -0.132327 40 214 0
0.724225 0.153536 -0.131559 45 209 0
0.718449 0.155057 -0.13126 50 204 0
0.714504 0.159145 -0.131171 54 200 0
0.7106 0.163598 -0.131533 59 195 0
0.708954 0.169324 -0.132252 63 191 0
0.708263 0.175242 -0.133032 68 186 0
0.710482 0.180314 -0.1342 72 182 0
0.714789 0.184368 -0.135089 77 177 0
0.720353 0.186085 -0.135797 81 173 0
0.726203 0.18518 -0.136107 86 168 0
0.731218 0.1822 -0.136155 91 163 0
0.734908 0.177479 -0.135862 95 159 0
0.737283 0.172057 -0.13512 100 154 0
0.738157 0.166139 -0.13445 104 150 0
0.736962 0.160444 -0.133471 109 145 0
0.733376 0.155836 -0.132375 113 141 0
0.728544 0.152382 -0.131547 118 136 0
0.72332 0.149554 -0.130671 122 132 0
0.717457 0.149579 -0.13014 127 127 0
0.71161 0.150799 -0.129746 132 122 0
0.706603 0.153838 -0.129533 136 118 0
0.701999 0.157705 -0.129647 141 113 0
0.699927 0.163023 -0.129946 145 109 0
0.699011 0.168946 -0.130444 150 104 0
0.700721 0.174168 -0.131398 154 100 0
0.703332 0.179501 -0.132297 159 95 0
0.708631 0.181657 -0.133187 163 91 0
0.714614 0.181764 -0.133675 168 86 0
0.720226 0.180426 -0.133809 173 81 0
0.724843 0.176675 -0.133697 177 77 0
0.727891 0.171667 -0.133245 182 72 0
0.728328 0.165756 -0.132435 186 68 0
0.727874 0.159798 -0.131702 191 63 0
0.725762 0.15431 -0.130529 195 59 0
0.722139 0.150248 -0.129297 200 54 0
0.716552 0.148435 -0.128137 204 50 0
0.711183 0.145912 -0.12712 209 45 0
0.705322 0.145859 -0.126406 214 40 0
0.699652 0.14783 -0.126082 218 36 0
0.694503 0.150669 -0.126062 223 31 0
0.69245 0.155725 -0.126379 227 27 0
0.689493 0.160364 -0.127093 232 22 0
0.689259 0.166241 -0.128086 236 18 0
0.690531 0.171783 -0.129584 241 13 0
0.69371 0.175566 -0.131114 245 9 0
0.69819 0.179103 -0.13202 250 4 0
0.703381 0.179606 -0.133174 255 0 0
