ply
format ascii 1.0
comment Generated by robot_control PLYWriter
element vertex 11
property float x
property float y
property float z
property uchar red
property uchar green
property uchar blue
end_header
0.598589 -0.0338289 -0.0966095 0 255 0
0.598571 -0.0386158 -0.0956244 25 229 0
0.598556 -0.0434155 -0.0947037 51 204 0
0.598541 -0.0482104 -0.0937579 76 178 0
0.59852 -0.0530156 -0.0928655 102 153 0
0.598492 -0.0578241 -0.0919926 127 127 0
0.598282 -0.0626363 -0.0911649 153 101 0
0.598073 -0.0674602 -0.0904078 178 76 0
0.59786 -0.0722936 -0.0897157 204 50 0
0.59763 -0.0771178 -0.0889691 229 25 0
0.597276 -0.0819327 -0.0882119 255 0 0
