ply
format ascii 1.0
comment Generated by robot_control PLYWriter
element vertex 9
property float x
property float y
property float z
property uchar red
property uchar green
property uchar blue
end_header
0.510221 -0.0365193 -0.121703 0 255 0
0.509848 -0.0316676 -0.121533 31 223 0
0.509394 -0.0268194 -0.121345 63 191 0
0.50904 -0.0219647 -0.121099 95 159 0
0.508622 -0.0171152 -0.120866 127 127 0
0.508095 -0.0122731 -0.120697 159 95 0
0.507596 -0.00742738 -0.120605 191 63 0
0.507293 -0.00256308 -0.120564 223 31 0
0.506687 0.00226503 -0.120673 255 0 0
