ply
format ascii 1.0
comment Generated by robot_control PLYWriter
element vertex 90
property float x
property float y
property float z
property uchar red
property uchar green
property uchar blue
end_header
0.673831 0.169773 -0.102368 0 255 0
0.677595 0.16773 -0.101728 2 252 0
0.681392 0.165081 -0.100752 5 249 0
0.682675 0.159733 -0.0992686 8 246 0
0.684713 0.155732 -0.0974374 11 243 0
0.684274 0.149993 -0.0957439 14 240 0
0.681706 0.145238 -0.0940444 17 237 0
0.677601 0.141711 -0.0929459 20 234 0
0.673719 0.139331 -0.0924901 22 232 0
0.667734 0.139722 -0.0926649 25 229 0
0.662446 0.141603 -0.0936849 28 226 0
0.659026 0.145958 -0.0948881 31 223 0
0.659195 0.151876 -0.0958963 34 220 0
0.661223 0.156163 -0.0973737 37 217 0
0.665471 0.158857 -0.0980917 40 214 0
0.670361 0.161467 -0.0984015 42 212 0
0.676241 0.16084 -0.0978859 45 209 0
0.680183 0.156944 -0.097085 48 206 0
0.684875 0.154016 -0.0960871 51 203 0
0.686854 0.148482 -0.0949764 54 200 0
0.686969 0.142632 -0.0938217 57 197 0
0.684181 0.137534 -0.092816 60 194 0
0.681138 0.132408 -0.0923325 63 191 0
0.676277 0.129488 -0.0921194 65 189 0
0.670276 0.129594 -0.0922829 68 186 0
0.664941 0.131885 -0.0928185 71 183 0
0.660554 0.135721 -0.0935678 74 180 0
0.660529 0.141697 -0.0941779 77 177 0
0.6621 0.147388 -0.0945409 80 174 0
0.6668 0.150974 -0.0944757 83 171 0
0.672566 0.151858 -0.0940665 85 169 0
0.678247 0.149929 -0.0937848 88 166 0
0.68353 0.147167 -0.0931238 91 163 0
0.68664 0.142361 -0.0926194 94 160 0
0.68821 0.136595 -0.092192 97 157 0
0.687864 0.130657 -0.091918 100 154 0
0.685626 0.125083 -0.0918973 103 151 0
0.681084 0.121635 -0.0920238 106 148 0
0.675519 0.119549 -0.0923958 108 146 0
0.669836 0.120719 -0.0927042 111 143 0
0.664674 0.123576 -0.0930352 114 140 0
0.663155 0.129261 -0.0933074 117 137 0
0.664559 0.134201 -0.0932959 120 134 0
0.668058 0.138993 -0.0928969 123 131 0
0.673118 0.141362 -0.0922498 126 128 0
0.679076 0.141606 -0.0915288 128 126 0
0.684074 0.138394 -0.0910117 131 123 0
0.688437 0.13473 -0.0908878 134 120 0
0.690834 0.12935 -0.090938 137 117 0
0.691165 0.123372 -0.0911319 140 114 0
0.689549 0.117699 -0.0915319 143 111 0
0.685737 0.113188 -0.0920536 146 108 0
0.680528 0.11028 -0.0926754 148 106 0
0.674928 0.110412 -0.0934217 151 103 0
0.669648 0.112914 -0.0939549 154 100 0
0.666595 0.118028 -0.0940868 157 97 0
0.666005 0.122905 -0.0937852 160 94 0
0.668611 0.128066 -0.0931276 163 91 0
0.672586 0.131244 -0.0923109 166 88 0
0.678529 0.131053 -0.0915089 169 85 0
0.684356 0.130007 -0.0908795 171 83 0
0.689438 0.126921 -0.0906273 174 80 0
0.692571 0.122032 -0.0906241 177 77 0
0.692854 0.116057 -0.0908519 180 74 0
0.692297 0.110277 -0.091352 183 71 0
0.688611 0.105668 -0.0921982 186 68 0
0.684282 0.10161 -0.0930256 189 65 0
0.678792 0.0996866 -0.0941364 191 63 0
0.673634 0.102179 -0.0948993 194 60 0
0.669087 0.106057 -0.0952132 197 57 0
0.667196 0.111333 -0.0950405 200 54 0
0.668583 0.116863 -0.094248 203 51 0
0.672592 0.120829 -0.093283 206 48 0
0.678081 0.12169 -0.0921213 209 45 0
0.684023 0.121298 -0.0914146 212 42 0
0.688953 0.118304 -0.090859 214 40 0
0.693502 0.114407 -0.0908776 217 37 0
0.694612 0.108818 -0.0913062 220 34 0
0.694752 0.102903 -0.092296 223 31 0
0.692765 0.0977229 -0.0934218 226 28 0
0.689003 0.0932383 -0.0945919 229 25 0
0.683617 0.0912825 -0.0959536 232 22 0
0.67772 0.0910985 -0.0968253 234 20 0
0.672625 0.0935527 -0.0972191 237 17 0
0.670365 0.0986231 -0.0970994 240 14 0
0.670238 0.104361 -0.0962194 243 11 0
0.672437 0.108582 -0.0954504 246 8 0
0.676346 0.111746 -0.0940514 249 5 0
0.679869 0.112233 -0.092821 252 2 0
0.684501 0.113271 -0.0917062 255 0 0
