ply
format ascii 1.0
comment Generated by robot_control PLYWriter
element vertex 32
property float x
property float y
property float z
property uchar red
property uchar green
property uchar blue
end_header
0.74244 0.142428 -0.146259 0 255 0
0.74577 0.139767 -0.145615 8 246 0
0.749426 0.13547 -0.144435 16 238 0
0.750201 0.130121 -0.143007 24 230 0
0.749438 0.12473 -0.141478 32 222 0
0.746348 0.119837 -0.13976 41 213 0
0.741888 0.116056 -0.138407 49 205 0
0.736076 0.114932 -0.137516 57 197 0
0.730004 0.114867 -0.137179 65 189 0
0.724557 0.116381 -0.137164 74 180 0
0.719299 0.11919 -0.137494 82 172 0
0.717006 0.124386 -0.138049 90 164 0
0.714167 0.129378 -0.138971 98 156 0
0.716847 0.134742 -0.140035 106 148 0
0.72053 0.139334 -0.141035 115 139 0
0.726115 0.141494 -0.141499 123 131 0
0.732072 0.140397 -0.141566 131 123 0
0.736478 0.136247 -0.141238 139 115 0
0.739153 0.130886 -0.140416 148 106 0
0.739297 0.12557 -0.139471 156 98 0
0.737646 0.119884 -0.138286 164 90 0
0.733311 0.115985 -0.137356 172 82 0
0.728386 0.11254 -0.13637 180 74 0
0.722397 0.112741 -0.135657 189 65 0
0.716469 0.11404 -0.135163 197 57 0
0.711046 0.116665 -0.135153 205 49 0
0.706759 0.120959 -0.135563 213 41 0
0.704919 0.126251 -0.136667 222 32 0
0.704581 0.132153 -0.137776 230 24 0
0.706724 0.136311 -0.139215 238 16 0
0.71107 0.138901 -0.140339 246 8 0
0.716468 0.1391 -0.141506 255 0 0
