ply
format ascii 1.0
comment Generated by robot_control PLYWriter
element vertex 16
property float x
property float y
property float z
property uchar red
property uchar green
property uchar blue
end_header
0.522634 -0.233023 -0.13328 0 255 0
0.522481 -0.227957 -0.13247 17 238 0
0.522424 -0.22289 -0.131649 34 221 0
0.522397 -0.217797 -0.131009 51 204 0
0.522379 -0.212714 -0.130298 68 187 0
0.522367 -0.207636 -0.129543 85 169 0
0.522351 -0.202562 -0.128768 102 153 0
0.52233 -0.197487 -0.127997 119 135 0
0.522388 -0.19241 -0.127247 136 118 0
0.522451 -0.187331 -0.126505 153 101 0
0.522521 -0.182248 -0.125796 170 84 0
0.522593 -0.177163 -0.125095 187 67 0
0.522656 -0.172086 -0.124342 204 50 0
0.522735 -0.167016 -0.123547 221 33 0
0.522802 -0.161947 -0.122739 238 16 0
0.522881 -0.156871 -0.121984 255 0 0
