ply
format ascii 1.0
comment Generated by robot_control PLYWriter
element vertex 89
property float x
property float y
property float z
property uchar red
property uchar green
property uchar blue
end_header
0.718487 0.0375127 -0.109566 0 255 0
0.722635 0.0350103 -0.109814 2 252 0
0.725955 0.0305791 -0.109986 5 249 0
0.726856 0.0248452 -0.109772 8 246 0
0.726345 0.0190624 -0.109074 11 243 0
0.721559 0.016145 -0.108257 14 240 0
0.71612 0.0152818 -0.10728 17 237 0
0.710274 0.0153812 -0.106722 20 234 0
0.705758 0.0193432 -0.106605 23 231 0
0.702464 0.0237258 -0.106695 26 228 0
0.700426 0.0291746 -0.107011 28 226 0
0.700691 0.0350947 -0.107605 31 223 0
0.702931 0.0403634 -0.108496 34 220 0
0.707553 0.0440493 -0.109102 37 217 0
0.711962 0.0474445 -0.109724 40 214 0
0.717949 0.0475002 -0.110246 43 211 0
0.723002 0.0448542 -0.11055 46 208 0
0.726559 0.0399957 -0.110495 49 205 0
0.727286 0.0348887 -0.11009 52 202 0
0.726149 0.0293157 -0.1096 55 199 0
0.720747 0.0270374 -0.109034 57 197 0
0.715115 0.0252886 -0.108548 60 194 0
0.709973 0.0277747 -0.108292 63 191 0
0.70499 0.0311363 -0.108267 66 188 0
0.702418 0.0360804 -0.108413 69 185 0
0.700734 0.0416562 -0.108838 72 182 0
0.702728 0.0473222 -0.109295 75 179 0
0.705547 0.052316 -0.109944 78 176 0
0.710583 0.0555507 -0.110602 81 173 0
0.715527 0.0579092 -0.111116 84 170 0
0.721328 0.0569491 -0.111457 86 168 0
0.725871 0.0535849 -0.111553 89 165 0
0.728624 0.0482618 -0.111405 92 162 0
0.727687 0.0426068 -0.111018 95 159 0
0.723582 0.0382929 -0.110566 98 156 0
0.71788 0.0374998 -0.110063 101 153 0
0.711922 0.0379889 -0.109757 104 150 0
0.707245 0.0414489 -0.109746 107 147 0
0.703289 0.045411 -0.110087 110 144 0
0.702446 0.0512977 -0.110583 113 141 0
0.702655 0.0572917 -0.111121 115 139 0
0.705199 0.0622738 -0.111713 118 136 0
0.708566 0.0670469 -0.112422 121 133 0
0.714001 0.0692078 -0.112954 124 130 0
0.719799 0.0678029 -0.113387 127 127 0
0.724919 0.0649234 -0.11356 130 124 0
0.728255 0.0599336 -0.113364 133 121 0
0.728453 0.0543255 -0.112801 136 118 0
0.725028 0.0497306 -0.112112 139 115 0
0.719753 0.0472094 -0.111654 141 113 0
0.713972 0.0482973 -0.111469 144 110 0
0.708581 0.0507763 -0.111519 147 107 0
0.704514 0.0547155 -0.111803 150 104 0
0.702537 0.0603528 -0.112399 153 101 0
0.7017 0.0660864 -0.113103 156 98 0
0.703914 0.0716064 -0.113974 159 95 0
0.708139 0.0755524 -0.114957 162 92 0
0.71286 0.079159 -0.115698 165 89 0
0.718823 0.0794766 -0.116395 168 86 0
0.72362 0.0762719 -0.116592 170 84 0
0.728051 0.0725457 -0.116206 173 81 0
0.730127 0.0674269 -0.11558 176 78 0
0.727234 0.0623232 -0.114718 179 75 0
0.722718 0.0594129 -0.113874 182 72 0
0.717082 0.0577707 -0.11335 185 69 0
0.712073 0.0604132 -0.113211 188 66 0
0.706749 0.0629642 -0.11348 191 63 0
0.704246 0.0681044 -0.114215 194 60 0
0.702698 0.0736119 -0.115279 197 57 0
0.703059 0.0793627 -0.116635 199 55 0
0.705285 0.0846953 -0.118 202 52 0
0.709657 0.0877642 -0.119263 205 49 0
0.715023 0.0902118 -0.120368 208 46 0
0.720747 0.0895144 -0.121111 211 43 0
0.72573 0.0862587 -0.12109 214 40 0
0.729109 0.0828391 -0.120306 217 37 0
0.730224 0.0772603 -0.119132 220 34 0
0.726609 0.0728418 -0.117642 223 31 0
0.722382 0.0691166 -0.116167 226 28 0
0.716459 0.0689777 -0.115321 228 26 0
0.711255 0.071117 -0.115307 231 23 0
0.707267 0.0751664 -0.116001 234 20 0
0.704751 0.0804991 -0.116893 237 17 0
0.702318 0.0850104 -0.11847 240 14 0
0.704243 0.0900575 -0.120217 243 11 0
0.706289 0.0946112 -0.122063 246 8 0
0.708859 0.0978257 -0.123665 249 5 0
0.712778 0.0997658 -0.124564 252 2 0
0.716509 0.101127 -0.125644 255 0 0
