ply
format ascii 1.0
comment Generated by robot_control PLYWriter
element vertex 81
property float x
property float y
property float z
property uchar red
property uchar green
property uchar blue
end_header
0.515988 0.0747085 -0.106602 0 255 0
0.518915 0.0726858 -0.105808 3 251 0
0.523568 0.0706186 -0.104815 6 248 0
0.526157 0.0656275 -0.103938 9 245 0
0.526306 0.0596597 -0.103225 12 242 0
0.526216 0.0536587 -0.102825 15 239 0
0.523838 0.048264 -0.102835 19 235 0
0.51941 0.0441938 -0.10304 22 232 0
0.514486 0.0416054 -0.103634 25 229 0
0.508529 0.0418285 -0.104317 28 226 0
0.502883 0.043192 -0.104926 31 223 0
0.499503 0.0479361 -0.105544 35 219 0
0.497363 0.0533642 -0.105985 38 216 0
0.49983 0.0588041 -0.106065 41 213 0
0.503235 0.0637399 -0.105928 44 210 0
0.508539 0.0655926 -0.105398 47 207 0
0.514504 0.0660382 -0.104775 51 204 0
0.519865 0.0639249 -0.104158 54 200 0
0.523279 0.0591047 -0.103592 57 197 0
0.526305 0.0542915 -0.103114 60 194 0
0.527531 0.0485471 -0.102669 63 191 0
0.526303 0.0428859 -0.102418 66 188 0
0.524273 0.0374032 -0.102391 70 184 0
0.519491 0.0337743 -0.102529 73 181 0
0.514394 0.0316643 -0.102872 76 178 0
0.508443 0.0321699 -0.103399 79 175 0
0.502962 0.0346046 -0.10391 82 172 0
0.499067 0.0386748 -0.104408 86 168 0
0.497385 0.0443189 -0.104698 89 165 0
0.499725 0.0498458 -0.104811 92 162 0
0.504071 0.0530716 -0.10467 95 159 0
0.509366 0.0556752 -0.104292 98 156 0
0.515359 0.0555633 -0.103785 102 153 0
0.519805 0.0527132 -0.10326 105 149 0
0.52392 0.0484514 -0.102737 108 146 0
0.527452 0.043642 -0.10236 111 143 0
0.526521 0.0379363 -0.102104 114 140 0
0.526426 0.0319195 -0.102069 117 137 0
0.522441 0.0275324 -0.102136 121 133 0
0.518798 0.0230129 -0.102352 124 130 0
0.513122 0.0214833 -0.10265 127 127 0
0.507126 0.0212708 -0.103019 130 124 0
0.502166 0.0235899 -0.103528 133 121 0
0.498956 0.0284694 -0.103936 137 117 0
0.498993 0.0344799 -0.104194 140 114 0
0.500785 0.0399113 -0.104212 143 111 0
0.505094 0.044083 -0.103892 146 108 0
0.510702 0.0451347 -0.103341 149 105 0
0.516665 0.0455449 -0.102815 153 101 0
0.521508 0.042137 -0.102345 156 98 0
0.525114 0.0373701 -0.10203 159 95 0
0.526895 0.0316288 -0.101732 162 92 0
0.527585 0.0259033 -0.101577 165 89 0
0.525383 0.0203031 -0.101646 168 86 0
0.52176 0.0155575 -0.101883 172 82 0
0.517182 0.0117321 -0.102343 175 79 0
0.511259 0.0111621 -0.102959 178 76 0
0.505584 0.0127465 -0.10353 181 73 0
0.500178 0.0152802 -0.103977 184 70 0
0.498598 0.0207157 -0.104315 188 66 0
0.498957 0.0267193 -0.104407 191 63 0
0.50182 0.0311345 -0.1041 194 60 0
0.505454 0.0354453 -0.103543 197 57 0
0.511424 0.0352956 -0.102827 200 54 0
0.517361 0.0347571 -0.102181 204 50 0
0.521809 0.0313214 -0.101592 207 47 0
0.525299 0.0265559 -0.10102 210 44 0
0.527538 0.0209797 -0.10068 213 41 0
0.528021 0.0151069 -0.100531 216 38 0
0.525408 0.00971908 -0.100647 219 35 0
0.521925 0.00483274 -0.100984 223 31 0
0.51681 0.00274182 -0.101637 226 28 0
0.511292 0.00165386 -0.102654 229 25 0
0.505675 0.00281157 -0.103723 232 22 0
0.500546 0.00540269 -0.104708 235 19 0
0.498778 0.0108279 -0.105323 239 15 0
0.498443 0.0168213 -0.105396 242 12 0
0.500963 0.0213916 -0.104956 245 9 0
0.504499 0.0234794 -0.104322 248 6 0
0.507576 0.025642 -0.103268 251 3 0
0.512897 0.0254139 -0.102174 255 0 0
