ply
format ascii 1.0
comment Generated by robot_control PLYWriter
element vertex 47
property float x
property float y
property float z
property uchar red
property uchar green
property uchar blue
end_header
0.670484 0.179772 -0.166227 0 255 0
0.674579 0.177201 -0.164067 5 249 0
0.676781 0.172929 -0.161876 11 243 0
0.678174 0.167636 -0.159845 16 238 0
0.675869 0.163027 -0.157442 22 232 0
0.672981 0.157993 -0.155951 27 227 0
0.668382 0.154461 -0.154993 33 221 0
0.663227 0.151345 -0.154877 38 216 0
0.657691 0.149724 -0.155507 44 210 0
0.65285 0.152307 -0.156807 49 205 0
0.648113 0.154056 -0.158611 55 199 0
0.645836 0.159261 -0.160648 60 194 0
0.644033 0.164479 -0.162699 66 188 0
0.64641 0.169584 -0.163934 72 182 0
0.650914 0.173464 -0.164761 77 177 0
0.656761 0.174017 -0.16474 83 171 0
0.662616 0.174319 -0.163744 88 166 0
0.667059 0.17072 -0.162058 94 160 0
0.669936 0.165994 -0.159629 99 155 0
0.669254 0.160503 -0.157845 105 149 0
0.666946 0.155045 -0.156635 110 144 0
0.663942 0.149993 -0.155905 116 138 0
0.659056 0.146596 -0.155658 121 133 0
0.653303 0.145385 -0.155787 127 127 0
0.647434 0.146649 -0.156463 133 121 0
0.641671 0.148111 -0.157561 138 116 0
0.638637 0.152362 -0.159205 144 110 0
0.636993 0.157519 -0.161328 149 105 0
0.638614 0.163013 -0.162752 155 99 0
0.642562 0.167493 -0.163441 160 94 0
0.648454 0.168699 -0.163271 166 88 0
0.654417 0.168537 -0.162328 171 83 0
0.659272 0.165393 -0.160727 177 77 0
0.662505 0.161047 -0.158119 182 72 0
0.662062 0.155359 -0.156302 188 66 0
0.659362 0.150321 -0.154365 194 60 0
0.656538 0.145189 -0.152908 199 55 0
0.652108 0.141162 -0.152499 205 49 0
0.646505 0.139049 -0.152697 210 44 0
0.640688 0.139028 -0.153899 216 38 0
0.635304 0.141155 -0.155654 221 33 0
0.631591 0.144938 -0.158337 227 27 0
0.629979 0.149778 -0.161244 232 22 0
0.630096 0.155162 -0.163826 238 16 0
0.633714 0.159034 -0.165192 243 11 0
0.637398 0.16224 -0.165495 249 5 0
0.642221 0.163428 -0.164637 255 0 0
