ply
format ascii 1.0
comment Generated by robot_control PLYWriter
element vertex 12
property float x
property float y
property float z
property uchar red
property uchar green
property uchar blue
end_header
0.690219 -0.000402799 -0.104459 0 255 0
0.689752 0.00412096 -0.106539 23 231 0
0.689505 0.00867617 -0.108589 46 208 0
0.68926 0.0132293 -0.110643 69 185 0
0.688975 0.0177552 -0.112753 92 162 0
0.688688 0.0222779 -0.114868 115 139 0
0.688548 0.0268368 -0.116921 139 115 0
0.688312 0.0314097 -0.118932 162 92 0
0.688065 0.0359886 -0.120929 185 69 0
0.687797 0.0405844 -0.122883 208 46 0
0.687451 0.0451878 -0.124806 231 23 0
0.687151 0.0498261 -0.126649 255 0 0
