ply
format ascii 1.0
comment Generated by robot_control PLYWriter
element vertex 82
property float x
property float y
property float z
property uchar red
property uchar green
property uchar blue
end_header
0.537434 0.11201 -0.114881 0 255 0
0.540513 0.110851 -0.113363 3 251 0
0.544294 0.107637 -0.112305 6 248 0
0.547361 0.103872 -0.110734 9 245 0
0.548322 0.0982251 -0.110079 12 242 0
0.548051 0.0922485 -0.109655 15 239 0
0.546255 0.0866894 -0.109916 18 236 0
0.542697 0.0819111 -0.110611 22 232 0
0.539021 0.0791407 -0.111839 25 229 0
0.533975 0.0776097 -0.113404 28 226 0
0.528836 0.0781339 -0.115095 31 223 0
0.524293 0.0817601 -0.116422 34 220 0
0.521907 0.08695 -0.117368 37 217 0
0.521006 0.0926564 -0.117381 40 214 0
0.523889 0.0977996 -0.116637 44 210 0
0.528069 0.101676 -0.115331 47 207 0
0.533556 0.103351 -0.113859 50 204 0
0.539033 0.10171 -0.112582 53 201 0
0.544168 0.0990277 -0.111554 56 198 0
0.547532 0.0941442 -0.110794 59 195 0
0.548079 0.0883169 -0.110356 62 192 0
0.548194 0.082319 -0.110419 66 188 0
0.547055 0.0765186 -0.110952 69 185 0
0.543467 0.0719737 -0.111997 72 182 0
0.538218 0.0694327 -0.113164 75 179 0
0.532465 0.0692562 -0.114677 78 176 0
0.526708 0.0695544 -0.115944 81 173 0
0.522785 0.0740392 -0.116577 85 169 0
0.52114 0.0795079 -0.117012 88 166 0
0.520727 0.0853887 -0.116883 91 163 0
0.524582 0.0899299 -0.116203 94 160 0
0.529351 0.0930864 -0.114807 97 157 0
0.535151 0.0934037 -0.113444 100 154 0
0.540806 0.0918874 -0.112202 103 151 0
0.545362 0.0886908 -0.111274 107 147 0
0.548015 0.0834847 -0.110686 110 144 0
0.550179 0.0782196 -0.11048 113 141 0
0.549537 0.072416 -0.110645 116 138 0
0.546504 0.0674564 -0.11123 119 135 0
0.542455 0.0631242 -0.112138 122 132 0
0.537864 0.0598592 -0.113722 125 129 0
0.532234 0.0594461 -0.115036 129 125 0
0.526998 0.0621591 -0.116104 132 122 0
0.523097 0.0664495 -0.116782 135 119 0
0.521355 0.0721476 -0.116904 138 116 0
0.521922 0.07789 -0.11656 141 113 0
0.526508 0.0812247 -0.115777 144 110 0
0.531719 0.0838919 -0.114485 147 107 0
0.537165 0.0848975 -0.113329 151 103 0
0.542192 0.0821725 -0.111736 154 100 0
0.546349 0.0779719 -0.110752 157 97 0
0.548115 0.0723066 -0.110253 160 94 0
0.548194 0.0663164 -0.110274 163 91 0
0.547685 0.0604702 -0.110854 166 88 0
0.544564 0.0554721 -0.111823 170 84 0
0.540331 0.0517384 -0.113338 173 81 0
0.535025 0.0492207 -0.114562 176 78 0
0.52937 0.0501717 -0.115957 179 75 0
0.524806 0.0536705 -0.117455 182 72 0
0.521137 0.0582231 -0.118111 185 69 0
0.521022 0.0642201 -0.118185 188 66 0
0.522936 0.0697004 -0.117639 192 62 0
0.527475 0.0733521 -0.116201 195 59 0
0.532847 0.0754402 -0.114787 198 56 0
0.538234 0.0744747 -0.112429 201 53 0
0.543618 0.0732178 -0.111242 204 50 0
0.546712 0.0683791 -0.110162 207 47 0
0.548584 0.0632132 -0.109497 210 44 0
0.550149 0.0576941 -0.109412 214 40 0
0.548493 0.0519366 -0.109744 217 37 0
0.545691 0.0467273 -0.110673 220 34 0
0.541392 0.0432512 -0.111922 223 31 0
0.536598 0.0410491 -0.113729 226 28 0
0.531064 0.0416082 -0.11596 229 25 0
0.526357 0.0438996 -0.11825 232 22 0
0.521973 0.047037 -0.120183 236 18 0
0.521156 0.0526637 -0.120953 239 15 0
0.521745 0.0583843 -0.120585 242 12 0
0.524895 0.0625448 -0.119032 245 9 0
0.527065 0.0657408 -0.117215 248 6 0
0.531739 0.0655875 -0.114557 251 3 0
0.534994 0.0675136 -0.11291 255 0 0
