ply
format ascii 1.0
comment Generated by robot_control PLYWriter
element vertex 48
property float x
property float y
property float z
property uchar red
property uchar green
property uchar blue
end_header
0.766159 0.150066 -0.162576 0 255 0
0.77113 0.148488 -0.16255 5 249 0
0.77408 0.143576 -0.161491 10 244 0
0.775094 0.138114 -0.159625 16 238 0
0.774537 0.133078 -0.156672 21 233 0
0.772522 0.128827 -0.153372 27 227 0
0.768842 0.124741 -0.150995 32 222 0
0.763785 0.123708 -0.148182 37 217 0
0.758176 0.122784 -0.146256 43 211 0
0.752487 0.123583 -0.144882 48 206 0
0.748044 0.1275 -0.144696 54 200 0
0.74423 0.132097 -0.145206 59 195 0
0.742383 0.137253 -0.146487 65 189 0
0.743598 0.142432 -0.148838 70 184 0
0.746756 0.147153 -0.150697 75 179 0
0.751786 0.149115 -0.152756 81 173 0
0.757424 0.148761 -0.153525 86 168 0
0.76219 0.145304 -0.153666 92 162 0
0.765695 0.14051 -0.152965 97 157 0
0.766886 0.134986 -0.151379 103 151 0
0.766107 0.12934 -0.14949 108 146 0
0.763382 0.124282 -0.14784 113 141 0
0.758894 0.120845 -0.146039 119 135 0
0.753122 0.120092 -0.144566 124 130 0
0.747421 0.120381 -0.143127 130 124 0
0.741789 0.12228 -0.142435 135 119 0
0.737507 0.125421 -0.142341 141 113 0
0.735506 0.131053 -0.142858 146 108 0
0.733657 0.136517 -0.144079 151 103 0
0.736151 0.141669 -0.145428 157 97 0
0.740467 0.145565 -0.146804 162 92 0
0.746048 0.144681 -0.147737 168 86 0
0.751823 0.143161 -0.14808 173 81 0
0.756403 0.139699 -0.14768 179 75 0
0.758428 0.134167 -0.146984 184 70 0
0.759019 0.128531 -0.145531 189 65 0
0.757023 0.123847 -0.143693 195 59 0
0.753614 0.119376 -0.142022 200 54 0
0.748364 0.117338 -0.140582 206 48 0
0.743183 0.115463 -0.139328 211 43 0
0.737465 0.117004 -0.138646 217 37 0
0.732103 0.118976 -0.138274 222 32 0
0.729411 0.12433 -0.138702 227 27 0
0.725984 0.128675 -0.139841 233 21 0
0.726263 0.133444 -0.141078 238 16 0
0.727765 0.138731 -0.142655 244 10 0
0.73128 0.142108 -0.144489 249 5 0
0.736701 0.142273 -0.145685 255 0 0
