ply
format ascii 1.0
comment Generated by robot_control PLYWriter
element vertex 57
property float x
property float y
property float z
property uchar red
property uchar green
property uchar blue
end_header
0.572633 0.187666 -0.116271 0 255 0
0.576407 0.183071 -0.116457 4 250 0
0.580512 0.179436 -0.116765 9 245 0
0.581953 0.174406 -0.116783 13 241 0
0.582722 0.16846 -0.116599 18 236 0
0.58185 0.162844 -0.116139 22 232 0
0.578935 0.157862 -0.115384 27 227 0
0.574199 0.154646 -0.114502 31 223 0
0.569083 0.151894 -0.113447 36 218 0
0.563307 0.150702 -0.112492 40 214 0
0.557528 0.151954 -0.111683 45 209 0
0.55202 0.153821 -0.111224 50 204 0
0.5478 0.158091 -0.110993 54 200 0
0.544975 0.163282 -0.111059 59 195 0
0.543018 0.168498 -0.111306 63 191 0
0.545539 0.173938 -0.111664 68 186 0
0.549415 0.178405 -0.112168 72 182 0
0.554399 0.181516 -0.112958 77 177 0
0.560386 0.181536 -0.113452 81 173 0
0.566169 0.18002 -0.113875 86 168 0
0.570909 0.17651 -0.113987 91 163 0
0.573681 0.17118 -0.11386 95 159 0
0.576873 0.166433 -0.113462 100 154 0
0.575491 0.160596 -0.113092 104 150 0
0.574431 0.154736 -0.112574 109 145 0
0.57096 0.149848 -0.112148 113 141 0
0.56668 0.145666 -0.111678 118 136 0
0.560785 0.144664 -0.111248 122 132 0
0.554829 0.144093 -0.110716 127 127 0
0.548854 0.144014 -0.110117 132 122 0
0.543562 0.146691 -0.10976 136 118 0
0.539878 0.15132 -0.10963 141 113 0
0.537294 0.156699 -0.109721 145 109 0
0.536894 0.162631 -0.110008 150 104 0
0.539249 0.167943 -0.110524 154 100 0
0.544054 0.171478 -0.111089 159 95 0
0.549463 0.17401 -0.111703 163 91 0
0.554884 0.174533 -0.112048 168 86 0
0.560472 0.172444 -0.11221 173 81 0
0.565257 0.169171 -0.11211 177 77 0
0.568485 0.164181 -0.111843 182 72 0
0.569084 0.158276 -0.111491 186 68 0
0.569038 0.152281 -0.111087 191 63 0
0.567105 0.146698 -0.110606 195 59 0
0.564342 0.141405 -0.109951 200 54 0
0.559402 0.138135 -0.109028 204 50 0
0.554027 0.135937 -0.10832 209 45 0
0.548068 0.135663 -0.107652 214 40 0
0.542385 0.137323 -0.107379 218 36 0
0.536838 0.138968 -0.107486 223 31 0
0.532662 0.143195 -0.107752 227 27 0
0.530595 0.148702 -0.108165 232 22 0
0.530501 0.154673 -0.108829 236 18 0
0.532066 0.160256 -0.109497 241 13 0
0.535702 0.164582 -0.110061 245 9 0
0.540566 0.16737 -0.110244 250 4 0
0.546522 0.167374 -0.110359 255 0 0
