ply
format ascii 1.0
comment Generated by robot_control PLYWriter
element vertex 10
property float x
property float y
property float z
property uchar red
property uchar green
property uchar blue
end_header
0.585166 -0.203757 -0.100657 0 255 0
0.585178 -0.208351 -0.0988102 28 226 0
0.585181 -0.213112 -0.0974298 56 198 0
0.585176 -0.217962 -0.0964336 85 169 0
0.585178 -0.222893 -0.0961455 113 141 0
0.58518 -0.227814 -0.0965796 141 113 0
0.585174 -0.232652 -0.0976367 170 84 0
0.585168 -0.237418 -0.0990028 198 56 0
0.58517 -0.24221 -0.100266 226 28 0
0.585162 -0.246927 -0.101791 255 0 0
