ply
format ascii 1.0
comment Generated by robot_control PLYWriter
element vertex 11
property float x
property float y
property float z
property uchar red
property uchar green
property uchar blue
end_header
0.537006 -0.200059 -0.130868 0 255 0
0.536677 -0.204659 -0.129364 25 229 0
0.536031 -0.209285 -0.127985 51 204 0
0.535509 -0.213941 -0.126658 76 178 0
0.53517 -0.218593 -0.125256 102 153 0
0.53465 -0.223229 -0.123853 127 127 0
0.534368 -0.227883 -0.122444 153 101 0
0.533702 -0.23255 -0.121235 178 76 0
0.533258 -0.237268 -0.120118 204 50 0
0.532926 -0.241986 -0.118954 229 25 0
0.532323 -0.246686 -0.117843 255 0 0
