ply
format ascii 1.0
comment Generated by robot_control PLYWriter
element vertex 12
property float x
property float y
property float z
property uchar red
property uchar green
property uchar blue
end_header
0.603519 -0.0825647 -0.121868 0 255 0
0.603884 -0.087423 -0.122705 23 231 0
0.604107 -0.0923055 -0.123447 46 208 0
0.604327 -0.0971902 -0.124177 69 185 0
0.604563 -0.102071 -0.124929 92 162 0
0.60479 -0.106953 -0.125672 115 139 0
0.60479 -0.111857 -0.1263 139 115 0
0.604812 -0.116764 -0.126897 162 92 0
0.604839 -0.121674 -0.127482 185 69 0
0.604868 -0.126587 -0.128028 208 46 0
0.604894 -0.1315 -0.128579 231 23 0
0.604895 -0.136417 -0.129094 255 0 0
