ply
format ascii 1.0
comment Generated by robot_control PLYWriter
element vertex 17
property float x
property float y
property float z
property uchar red
property uchar green
property uchar blue
end_header
0.498938 -0.149296 -0.117435 0 255 0
0.498828 -0.154205 -0.1183 15 239 0
0.498722 -0.159121 -0.119121 31 223 0
0.498637 -0.164063 -0.119774 47 207 0
0.498554 -0.169003 -0.120447 63 191 0
0.498461 -0.173936 -0.121163 79 175 0
0.498454 -0.178865 -0.121912 95 159 0
0.498456 -0.183791 -0.122685 111 143 0
0.498494 -0.188711 -0.123488 127 127 0
0.498573 -0.193629 -0.124306 143 111 0
0.49864 -0.19854 -0.12516 159 95 0
0.498682 -0.203439 -0.126088 175 79 0
0.498716 -0.20832 -0.127105 191 63 0
0.49874 -0.213185 -0.128192 207 47 0
0.498782 -0.218042 -0.12932 223 31 0
0.49882 -0.222872 -0.130551 239 15 0
0.498768 -0.227713 -0.131741 255 0 0
