ply
format ascii 1.0
comment Generated by robot_control PLYWriter
element vertex 11
property float x
property float y
property float z
property uchar red
property uchar green
property uchar blue
end_header
0.498552 -0.0864095 -0.1109 0 255 0
0.498468 -0.0812075 -0.110524 25 229 0
0.498308 -0.0760023 -0.110261 51 204 0
0.497994 -0.0708009 -0.110025 76 178 0
0.497739 -0.0655952 -0.109823 102 153 0
0.497541 -0.0603846 -0.109691 127 127 0
0.497312 -0.055174 -0.109686 153 101 0
0.497059 -0.0499664 -0.109832 178 76 0
0.496791 -0.0447641 -0.110099 204 50 0
0.496645 -0.0395578 -0.110342 229 25 0
0.496587 -0.0343569 -0.110708 255 0 0
