ply
format ascii 1.0
comment Generated by robot_control PLYWriter
element vertex 72
property float x
property float y
property float z
property uchar red
property uchar green
property uchar blue
end_header
0.522816 -0.112883 -0.123102 0 255 0
0.526047 -0.11559 -0.122841 3 251 0
0.528506 -0.120544 -0.122875 7 247 0
0.528197 -0.126402 -0.123045 10 244 0
0.525642 -0.13144 -0.123314 14 240 0
0.520999 -0.13449 -0.123739 17 237 0
0.516395 -0.135919 -0.124342 21 233 0
0.51114 -0.134289 -0.125075 25 229 0
0.508475 -0.13097 -0.125568 28 226 0
0.508411 -0.125341 -0.125429 32 222 0
0.511729 -0.121106 -0.124868 35 219 0
0.516345 -0.118631 -0.124374 39 215 0
0.521251 -0.121223 -0.123833 43 211 0
0.526187 -0.124432 -0.123305 46 208 0
0.528722 -0.129149 -0.122825 50 204 0
0.528499 -0.135138 -0.122648 53 201 0
0.526183 -0.140307 -0.122717 57 197 0
0.522542 -0.144019 -0.123025 61 193 0
0.517042 -0.146153 -0.123448 64 190 0
0.511776 -0.144642 -0.123967 68 186 0
0.508478 -0.140305 -0.124553 71 183 0
0.508488 -0.134313 -0.124731 75 179 0
0.513285 -0.130771 -0.124512 79 175 0
0.518456 -0.1285 -0.12389 82 172 0
0.523738 -0.130972 -0.123127 86 168 0
0.528199 -0.133801 -0.122007 89 165 0
0.529552 -0.139246 -0.121087 93 161 0
0.529323 -0.144272 -0.120587 96 158 0
0.527402 -0.149782 -0.120329 100 154 0
0.522915 -0.153675 -0.120484 104 150 0
0.517271 -0.155209 -0.120807 107 147 0
0.512353 -0.152537 -0.121752 111 143 0
0.508676 -0.148482 -0.122754 114 140 0
0.510639 -0.142865 -0.123394 118 136 0
0.514581 -0.138464 -0.123194 122 132 0
0.520475 -0.138351 -0.122206 125 129 0
0.525657 -0.14043 -0.120898 129 125 0
0.529513 -0.144403 -0.119383 132 122 0
0.53065 -0.15003 -0.118109 136 118 0
0.529589 -0.155823 -0.117303 140 114 0
0.526191 -0.160578 -0.116889 143 111 0
0.521298 -0.164032 -0.117073 147 107 0
0.516015 -0.163085 -0.117837 150 104 0
0.510842 -0.160407 -0.119213 154 100 0
0.510638 -0.154765 -0.120667 158 96 0
0.513646 -0.149849 -0.12071 161 93 0
0.518453 -0.146392 -0.119891 165 89 0
0.523798 -0.148372 -0.118447 168 86 0
0.528661 -0.151273 -0.11701 172 82 0
0.531816 -0.156017 -0.115502 175 79 0
0.531976 -0.161544 -0.114363 179 75 0
0.530211 -0.166792 -0.113376 183 71 0
0.526617 -0.17117 -0.1132 186 68 0
0.521703 -0.172917 -0.113834 190 64 0
0.516044 -0.172524 -0.115279 193 61 0
0.511502 -0.169112 -0.116595 197 57 0
0.510528 -0.163538 -0.117676 201 53 0
0.514246 -0.159674 -0.117857 204 50 0
0.519098 -0.156983 -0.11712 208 46 0
0.524879 -0.156807 -0.115564 211 43 0
0.528879 -0.160717 -0.113647 215 39 0
0.53285 -0.164772 -0.112266 219 35 0
0.532652 -0.170224 -0.111163 222 32 0
0.531496 -0.17599 -0.110641 226 28 0
0.527863 -0.179966 -0.110852 229 25 0
0.522835 -0.18226 -0.111535 233 21 0
0.517105 -0.182548 -0.112953 237 17 0
0.513708 -0.179419 -0.114418 240 14 0
0.512031 -0.174598 -0.115665 244 10 0
0.513844 -0.169838 -0.116076 247 7 0
0.51793 -0.166589 -0.115752 251 3 0
0.5227 -0.166471 -0.114168 255 0 0
