ply
format ascii 1.0
comment Generated by robot_control PLYWriter
element vertex 12
property float x
property float y
property float z
property uchar red
property uchar green
property uchar blue
end_header
0.493917 0.0613083 -0.115461 0 255 0
0.493491 0.0660638 -0.115594 23 231 0
0.493227 0.070825 -0.115893 46 208 0
0.492968 0.0755833 -0.116214 69 185 0
0.492676 0.0803163 -0.116795 92 162 0
0.492387 0.0850217 -0.117566 115 139 0
0.492364 0.0897126 -0.118476 139 115 0
0.492134 0.0943799 -0.119474 162 92 0
0.491886 0.0990253 -0.120564 185 69 0
0.491691 0.103644 -0.121771 208 46 0
0.491491 0.108249 -0.123031 231 23 0
0.491263 0.112868 -0.124232 255 0 0
