ply
format ascii 1.0
comment Generated by robot_control PLYWriter
element vertex 14
property float x
property float y
property float z
property uchar red
property uchar green
property uchar blue
end_header
0.597921 0.0358883 -0.11643 0 255 0
0.598161 0.0312308 -0.114764 19 235 0
0.598285 0.02651 -0.11327 39 215 0
0.598354 0.0217843 -0.111788 58 196 0
0.598533 0.0170597 -0.110314 78 176 0
0.598656 0.0123124 -0.108909 98 156 0
0.598716 0.0075422 -0.107577 117 137 0
0.59874 0.00275541 -0.106306 137 117 0
0.598717 -0.00204202 -0.105074 156 98 0
0.598696 -0.00683637 -0.10383 176 78 0
0.598679 -0.0116269 -0.102571 196 58 0
0.598663 -0.0164194 -0.10132 215 39 0
0.598645 -0.0212093 -0.100059 235 19 0
0.598622 -0.0259795 -0.0987259 255 0 0
