ply
format ascii 1.0
comment Generated by robot_control PLYWriter
element vertex 59
property float x
property float y
property float z
property uchar red
property uchar green
property uchar blue
end_header
0.625866 0.0575068 -0.118623 0 255 0
0.629756 0.0542447 -0.117077 4 250 0
0.632131 0.0497787 -0.115421 8 246 0
0.632823 0.0441017 -0.114193 13 241 0
0.632789 0.0381612 -0.113591 17 237 0
0.630323 0.0331025 -0.113509 21 233 0
0.626252 0.028834 -0.114166 26 228 0
0.620674 0.0279728 -0.114973 30 224 0
0.614944 0.0269436 -0.116123 35 219 0
0.611358 0.0311372 -0.11743 39 215 0
0.606682 0.0338512 -0.118467 43 211 0
0.60727 0.0392644 -0.118763 48 206 0
0.609488 0.0443318 -0.11844 52 202 0
0.614612 0.0471799 -0.117706 57 197 0
0.620411 0.0481179 -0.116871 61 193 0
0.626045 0.0466426 -0.115833 65 189 0
0.630001 0.0426659 -0.114656 70 184 0
0.632788 0.0382266 -0.11387 74 180 0
0.632737 0.0322757 -0.113383 79 175 0
0.632032 0.0264968 -0.113258 83 171 0
0.628699 0.0215572 -0.113488 87 167 0
0.624572 0.0173495 -0.114012 92 162 0
0.618629 0.0174466 -0.114539 96 158 0
0.612948 0.0176904 -0.115276 101 153 0
0.608608 0.0215689 -0.116164 105 149 0
0.606417 0.0270854 -0.116706 109 145 0
0.609299 0.0321878 -0.116603 114 140 0
0.613499 0.036395 -0.116156 118 136 0
0.619084 0.0373058 -0.115382 123 131 0
0.624583 0.0367511 -0.114706 127 127 0
0.629013 0.0329599 -0.113976 131 123 0
0.6324 0.0281116 -0.113191 136 118 0
0.632708 0.0222645 -0.112576 140 114 0
0.63196 0.0164951 -0.112284 145 109 0
0.628627 0.0115551 -0.112297 149 105 0
0.62418 0.00769904 -0.112619 153 101 0
0.618778 0.00524723 -0.113115 158 96 0
0.613216 0.00672883 -0.114041 162 92 0
0.608275 0.00998094 -0.114701 167 87 0
0.606203 0.0151658 -0.115309 171 83 0
0.607483 0.0207753 -0.115476 175 79 0
0.61108 0.0255051 -0.115331 180 74 0
0.616737 0.0271771 -0.114796 184 70 0
0.622127 0.0256581 -0.114052 189 65 0
0.627626 0.0240736 -0.112844 193 61 0
0.630406 0.0191768 -0.111973 197 57 0
0.632613 0.013997 -0.111182 202 52 0
0.632572 0.0080465 -0.110672 206 48 0
0.62935 0.00329186 -0.110448 211 43 0
0.626992 -0.00218612 -0.110481 215 39 0
0.621705 -0.00410909 -0.110863 219 35 0
0.616022 -0.00470874 -0.111731 224 30 0
0.610969 -0.00291379 -0.112837 228 26 0
0.607825 0.00155894 -0.113861 233 21 0
0.606215 0.00570284 -0.114884 237 17 0
0.606404 0.0116499 -0.115364 241 13 0
0.610083 0.0139326 -0.115455 246 8 0
0.61413 0.0167417 -0.115233 250 4 0
0.619143 0.0175124 -0.114246 255 0 0
