ply
format ascii 1.0
comment Generated by robot_control PLYWriter
element vertex 9
property float x
property float y
property float z
property uchar red
property uchar green
property uchar blue
end_header
0.59332 -0.135931 -0.125527 0 255 0
0.593307 -0.141098 -0.1251 31 223 0
0.593297 -0.146271 -0.124766 63 191 0
0.593625 -0.15144 -0.124549 95 159 0
0.593943 -0.156609 -0.124303 127 127 0
0.594253 -0.161775 -0.123993 159 95 0
0.594579 -0.166932 -0.123585 191 63 0
0.594907 -0.172066 -0.122944 223 31 0
0.59488 -0.177188 -0.122145 255 0 0
