ply
format ascii 1.0
comment Generated by robot_control PLYWriter
element vertex 29
property float x
property float y
property float z
property uchar red
property uchar green
property uchar blue
end_header
0.583799 0.100721 -0.155014 0 255 0
0.588903 0.0986224 -0.154233 9 245 0
0.590172 0.0934552 -0.152701 18 236 0
0.59 0.0877394 -0.151302 27 227 0
0.58632 0.0832821 -0.150018 36 218 0
0.580889 0.0816234 -0.149519 45 209 0
0.575136 0.0820117 -0.149881 54 200 0
0.570136 0.0851082 -0.150603 63 191 0
0.566106 0.0890346 -0.152052 72 182 0
0.564006 0.0944372 -0.15334 81 173 0
0.563573 0.0996875 -0.154923 91 163 0
0.565758 0.104999 -0.156441 100 154 0
0.569314 0.109617 -0.157474 109 145 0
0.574927 0.111366 -0.158142 118 136 0
0.580843 0.111184 -0.158306 127 127 0
0.5865 0.109621 -0.15791 136 118 0
0.588372 0.104426 -0.156695 145 109 0
0.588118 0.0987481 -0.155326 154 100 0
0.585176 0.0937739 -0.154226 163 91 0
0.579922 0.0918942 -0.153827 173 81 0
0.574267 0.0928699 -0.153952 182 72 0
0.568995 0.0949948 -0.154572 191 63 0
0.564855 0.098744 -0.15632 200 54 0
0.561831 0.103251 -0.158521 209 45 0
0.56242 0.107873 -0.16078 218 36 0
0.562935 0.11337 -0.162545 227 27 0
0.565694 0.117314 -0.16474 236 18 0
0.569861 0.119893 -0.16637 245 9 0
0.574503 0.121839 -0.16685 255 0 0
