ply
format ascii 1.0
comment Generated by robot_control PLYWriter
element vertex 59
property float x
property float y
property float z
property uchar red
property uchar green
property uchar blue
end_header
0.719037 0.0537011 -0.119894 0 255 0
0.722219 0.0497599 -0.1196 4 250 0
0.725054 0.0462184 -0.11884 8 246 0
0.726578 0.0410275 -0.11792 13 241 0
0.726474 0.0351244 -0.116874 17 237 0
0.724638 0.0300084 -0.115695 21 233 0
0.721413 0.0252441 -0.11463 26 228 0
0.715886 0.0236548 -0.113914 30 224 0
0.710021 0.0231408 -0.113502 35 219 0
0.704414 0.0247334 -0.113414 39 215 0
0.700814 0.0291923 -0.113717 43 211 0
0.700509 0.0351203 -0.114549 48 206 0
0.702569 0.0398677 -0.115232 52 202 0
0.707351 0.0433784 -0.116048 57 197 0
0.712816 0.0440944 -0.116382 61 193 0
0.718322 0.041676 -0.11644 65 189 0
0.723017 0.037977 -0.116157 70 184 0
0.726125 0.0332268 -0.115684 74 180 0
0.726316 0.027321 -0.115003 79 175 0
0.725097 0.0216272 -0.113998 83 171 0
0.72188 0.0165998 -0.113323 87 167 0
0.717164 0.013356 -0.112668 92 162 0
0.711737 0.0118944 -0.112148 96 158 0
0.706351 0.0135962 -0.111893 101 153 0
0.701302 0.0159792 -0.111847 105 149 0
0.698845 0.0212422 -0.112155 109 145 0
0.700277 0.0269445 -0.112673 114 140 0
0.703814 0.0316324 -0.113305 118 136 0
0.709515 0.0328549 -0.113891 123 131 0
0.715467 0.0328803 -0.114215 127 127 0
0.720422 0.0297198 -0.11415 131 123 0
0.723912 0.0249923 -0.113787 136 118 0
0.725429 0.0192031 -0.113248 140 114 0
0.726577 0.0133818 -0.112487 145 109 0
0.722912 0.00867965 -0.111677 149 105 0
0.718802 0.00436854 -0.111001 153 101 0
0.71337 0.00259392 -0.110314 158 96 0
0.707854 0.00164684 -0.109877 162 92 0
0.703034 0.00523434 -0.109607 167 87 0
0.699017 0.00910126 -0.109794 171 83 0
0.698642 0.0150772 -0.11025 175 79 0
0.701942 0.0196859 -0.111043 180 74 0
0.706191 0.0235234 -0.111843 184 70 0
0.712175 0.0230452 -0.112273 189 65 0
0.717972 0.0217081 -0.112453 193 61 0
0.721186 0.0170267 -0.112386 197 57 0
0.724002 0.0123315 -0.112097 202 52 0
0.724577 0.0063575 -0.111656 206 48 0
0.723163 0.000842219 -0.110817 211 43 0
0.721119 -0.00419311 -0.109702 215 39 0
0.716019 -0.0071675 -0.108832 219 35 0
0.710346 -0.00877271 -0.108049 224 30 0
0.704628 -0.00814751 -0.107368 228 26 0
0.700428 -0.00525797 -0.107198 233 21 0
0.698924 0.000359474 -0.107491 237 17 0
0.698997 0.00608597 -0.108362 241 13 0
0.702017 0.0106445 -0.109213 246 8 0
0.706577 0.0121645 -0.10996 250 4 0
0.710782 0.0137411 -0.110682 255 0 0
