ply
format ascii 1.0
comment Generated by robot_control PLYWriter
element vertex 200
property float x
property float y
property float z
property uchar red
property uchar green
property uchar blue
end_header
0.638671 -0.232361 -0.119751 0 255 0
0.638671 -0.232361 -0.119751 1 253 0
0.638671 -0.232361 -0.119751 2 252 0
0.638671 -0.232361 -0.119751 3 251 0
0.638671 -0.232361 -0.119751 5 249 0
0.638671 -0.232361 -0.119751 6 248 0
0.638671 -0.232361 -0.119751 7 247 0
0.638671 -0.232361 -0.119751 8 246 0
0.638671 -0.232361 -0.119751 10 244 0
0.638671 -0.232361 -0.119751 11 243 0
0.638671 -0.232361 -0.119751 12 242 0
0.638671 -0.232361 -0.119751 14 240 0
0.638671 -0.232361 -0.119751 15 239 0
0.638671 -0.232361 -0.119751 16 238 0
0.638671 -0.232361 -0.119751 17 237 0
0.638671 -0.232361 -0.119751 19 235 0
0.638671 -0.232361 -0.119751 20 234 0
0.638671 -0.232361 -0.119751 21 233 0
0.638671 -0.232361 -0.119751 23 231 0
0.638671 -0.232361 -0.119751 24 230 0
0.638671 -0.232361 -0.119751 25 229 0
0.638671 -0.232361 -0.119751 26 228 0
0.638671 -0.232361 -0.119751 28 226 0
0.638671 -0.232361 -0.119751 29 225 0
0.638671 -0.232361 -0.119751 30 224 0
0.638671 -0.232361 -0.119751 32 222 0
0.638671 -0.232361 -0.119751 33 221 0
0.638671 -0.232361 -0.119751 34 220 0
0.638671 -0.232361 -0.119751 35 219 0
0.638671 -0.232361 -0.119751 37 217 0
0.638671 -0.232361 -0.119751 38 216 0
0.638671 -0.232361 -0.119751 39 215 0
0.638671 -0.232361 -0.119751 41 213 0
0.638671 -0.232361 -0.119751 42 212 0
0.638671 -0.232361 -0.119751 43 211 0
0.638671 -0.232361 -0.119751 44 210 0
0.638671 -0.232361 -0.119751 46 208 0
0.638671 -0.232361 -0.119751 47 207 0
0.638671 -0.232361 -0.119751 48 206 0
0.638671 -0.232361 -0.119751 49 205 0
0.638671 -0.232361 -0.119751 51 203 0
0.638671 -0.232361 -0.119751 52 202 0
0.638671 -0.232361 -0.119751 53 201 0
0.638671 -0.232361 -0.119751 55 199 0
0.638671 -0.232361 -0.119751 56 198 0
0.638671 -0.232361 -0.119751 57 197 0
0.638671 -0.232361 -0.119751 58 196 0
0.638671 -0.232361 -0.119751 60 194 0
0.638671 -0.232361 -0.119751 61 193 0
0.638671 -0.232361 -0.119751 62 192 0
0.638671 -0.232361 -0.119751 64 190 0
0.638671 -0.232361 -0.119751 65 189 0
0.638671 -0.232361 -0.119751 66 188 0
0.638671 -0.232361 -0.119751 67 187 0
0.638671 -0.232361 -0.119751 69 185 0
0.638671 -0.232361 -0.119751 70 184 0
0.638671 -0.232361 -0.119751 71 183 0
0.638671 -0.232361 -0.119751 73 181 0
0.638671 -0.232361 -0.119751 74 180 0
0.638671 -0.232361 -0.119751 75 179 0
0.638671 -0.232361 -0.119751 76 178 0
0.638671 -0.232361 -0.119751 78 176 0
0.638671 -0.232361 -0.119751 79 175 0
0.638671 -0.232361 -0.119751 80 174 0
0.638671 -0.232361 -0.119751 82 172 0
0.638671 -0.232361 -0.119751 83 171 0
0.638671 -0.232361 -0.119751 84 170 0
0.638671 -0.232361 -0.119751 85 169 0
0.638671 -0.232361 -0.119751 87 167 0
0.638671 -0.232361 -0.119751 88 166 0
0.638671 -0.232361 -0.119751 89 165 0
0.638671 -0.232361 -0.119751 90 164 0
0.638671 -0.232361 -0.119751 92 162 0
0.638671 -0.232361 -0.119751 93 161 0
0.638671 -0.232361 -0.119751 94 160 0
0.638671 -0.232361 -0.119751 96 158 0
0.638671 -0.232361 -0.119751 97 157 0
0.638671 -0.232361 -0.119751 98 156 0
0.638671 -0.232361 -0.119751 99 155 0
0.638671 -0.232361 -0.119751 101 153 0
0.638671 -0.232361 -0.119751 102 152 0
0.638671 -0.232361 -0.119751 103 151 0
0.638671 -0.232361 -0.119751 105 149 0
0.638671 -0.232361 -0.119751 106 148 0
0.638671 -0.232361 -0.119751 107 147 0
0.638671 -0.232361 -0.119751 108 146 0
0.638671 -0.232361 -0.119751 110 144 0
0.638671 -0.232361 -0.119751 111 143 0
0.638671 -0.232361 -0.119751 112 142 0
0.638671 -0.232361 -0.119751 114 140 0
0.638671 -0.232361 -0.119751 115 139 0
0.638671 -0.232361 -0.119751 116 138 0
0.638671 -0.232361 -0.119751 117 137 0
0.638671 -0.232361 -0.119751 119 135 0
0.638671 -0.232361 -0.119751 120 134 0
0.638671 -0.232361 -0.119751 121 133 0
0.638671 -0.232361 -0.119751 123 131 0
0.638671 -0.232361 -0.119751 124 130 0
0.638671 -0.232361 -0.119751 125 129 0
0.638671 -0.232361 -0.119751 126 128 0
0.638671 -0.232361 -0.119751 128 126 0
0.638671 -0.232361 -0.119751 129 125 0
0.638671 -0.232361 -0.119751 130 124 0
0.638671 -0.232361 -0.119751 131 123 0
0.638671 -0.232361 -0.119751 133 121 0
0.638671 -0.232361 -0.119751 134 120 0
0.638671 -0.232361 -0.119751 135 119 0
0.638671 -0.232361 -0.119751 137 117 0
0.638671 -0.232361 -0.119751 138 116 0
0.638671 -0.232361 -0.119751 139 115 0
0.638671 -0.232361 -0.119751 140 114 0
0.638671 -0.232361 -0.119751 142 112 0
0.638671 -0.232361 -0.119751 143 111 0
0.638671 -0.232361 -0.119751 144 110 0
0.638671 -0.232361 -0.119751 146 108 0
0.638671 -0.232361 -0.119751 147 107 0
0.638671 -0.232361 -0.119751 148 106 0
0.638671 -0.232361 -0.119751 149 105 0
0.638671 -0.232361 -0.119751 151 103 0
0.638671 -0.232361 -0.119751 152 102 0
0.638671 -0.232361 -0.119751 153 101 0
0.638671 -0.232361 -0.119751 155 99 0
0.638671 -0.232361 -0.119751 156 98 0
0.638671 -0.232361 -0.119751 157 97 0
0.638671 -0.232361 -0.119751 158 96 0
0.638671 -0.232361 -0.119751 160 94 0
0.638671 -0.232361 -0.119751 161 93 0
0.638671 -0.232361 -0.119751 162 92 0
0.638671 -0.232361 -0.119751 164 90 0
0.638671 -0.232361 -0.119751 165 89 0
0.638671 -0.232361 -0.119751 166 88 0
0.638671 -0.232361 -0.119751 167 87 0
0.638671 -0.232361 -0.119751 169 85 0
0.638671 -0.232361 -0.119751 170 84 0
0.638671 -0.232361 -0.119751 171 83 0
0.638671 -0.232361 -0.119751 172 82 0
0.638671 -0.232361 -0.119751 174 80 0
0.638671 -0.232361 -0.119751 175 79 0
0.638671 -0.232361 -0.119751 176 78 0
0.638671 -0.232361 -0.119751 178 76 0
0.638671 -0.232361 -0.119751 179 75 0
0.638671 -0.232361 -0.119751 180 74 0
0.638671 -0.232361 -0.119751 181 73 0
0.638671 -0.232361 -0.119751 183 71 0
0.638671 -0.232361 -0.119751 184 70 0
0.638671 -0.232361 -0.119751 185 69 0
0.638671 -0.232361 -0.119751 187 67 0
0.638671 -0.232361 -0.119751 188 66 0
0.638671 -0.232361 -0.119751 189 65 0
0.638671 -0.232361 -0.119751 190 64 0
0.638671 -0.232361 -0.119751 192 62 0
0.638671 -0.232361 -0.119751 193 61 0
0.638671 -0.232361 -0.119751 194 60 0
0.638671 -0.232361 -0.119751 196 58 0
0.638671 -0.232361 -0.119751 197 57 0
0.638671 -0.232361 -0.119751 198 56 0
0.638671 -0.232361 -0.119751 199 55 0
0.638671 -0.232361 -0.119751 201 53 0
0.638671 -0.232361 -0.119751 202 52 0
0.638671 -0.232361 -0.119751 203 51 0
0.638671 -0.232361 -0.119751 205 49 0
0.638671 -0.232361 -0.119751 206 48 0
0.638671 -0.232361 -0.119751 207 47 0
0.638671 -0.232361 -0.119751 208 46 0
0.638671 -0.232361 -0.119751 210 44 0
0.638671 -0.232361 -0.119751 211 43 0
0.638671 -0.232361 -0.119751 212 42 0
0.638671 -0.232361 -0.119751 213 41 0
0.638671 -0.232361 -0.119751 215 39 0
0.638671 -0.232361 -0.119751 216 38 0
0.638671 -0.232361 -0.119751 217 37 0
0.638671 -0.232361 -0.119751 219 35 0
0.638671 -0.232361 -0.119751 220 34 0
0.638671 -0.232361 -0.119751 221 33 0
0.638671 -0.232361 -0.119751 222 32 0
0.638671 -0.232361 -0.119751 224 30 0
0.638671 -0.232361 -0.119751 225 29 0
0.638671 -0.232361 -0.119751 226 28 0
0.638671 -0.232361 -0.119751 228 26 0
0.638671 -0.232361 -0.119751 229 25 0
0.638671 -0.232361 -0.119751 230 24 0
0.638671 -0.232361 -0.119751 231 23 0
0.638671 -0.232361 -0.119751 233 21 0
0.638671 -0.232361 -0.119751 234 20 0
0.638671 -0.232361 -0.119751 235 19 0
0.638671 -0.232361 -0.119751 237 17 0
0.638671 -0.232361 -0.119751 238 16 0
0.638671 -0.232361 -0.119751 239 15 0
0.638671 -0.232361 -0.119751 240 14 0
0.638671 -0.232361 -0.119751 242 12 0
0.638671 -0.232361 -0.119751 243 11 0
0.638671 -0.232361 -0.119751 244 10 0
0.638671 -0.232361 -0.119751 246 8 0
0.638671 -0.232361 -0.119751 247 7 0
0.638671 -0.232361 -0.119751 248 6 0
0.638671 -0.232361 -0.119751 249 5 0
0.638671 -0.232361 -0.119751 251 3 0
0.638671 -0.232361 -0.119751 252 2 0
0.638671 -0.232361 -0.119751 253 1 0
0.638671 -0.232361 -0.119751 255 0 0
