ply
format ascii 1.0
comment Generated by robot_control PLYWriter
element vertex 81
property float x
property float y
property float z
property uchar red
property uchar green
property uchar blue
end_header
0.724215 0.0431794 -0.114083 0 255 0
0.727831 0.0403016 -0.113786 3 251 0
0.731821 0.0360973 -0.113343 6 248 0
0.732878 0.0306684 -0.112754 9 245 0
0.734627 0.0258213 -0.111794 12 242 0
0.732658 0.021055 -0.111085 15 239 0
0.730518 0.0157486 -0.110156 19 235 0
0.726277 0.0116423 -0.109296 22 232 0
0.721153 0.00962437 -0.108677 25 229 0
0.715287 0.00909256 -0.108287 28 226 0
0.710265 0.0115184 -0.108277 31 223 0
0.706115 0.0151056 -0.108557 35 219 0
0.704615 0.0205628 -0.109173 38 216 0
0.704476 0.026525 -0.109765 41 213 0
0.708229 0.0305356 -0.110586 44 210 0
0.712874 0.0342719 -0.1112 47 207 0
0.718258 0.0344056 -0.111656 51 204 0
0.723968 0.0331222 -0.111719 54 200 0
0.72926 0.0302889 -0.111572 57 197 0
0.732249 0.0253859 -0.111097 60 194 0
0.734631 0.0201468 -0.110615 63 191 0
0.733254 0.0143728 -0.110021 66 188 0
0.731831 0.00872689 -0.109293 70 184 0
0.727326 0.00498107 -0.10868 73 181 0
0.722469 0.00160794 -0.10807 76 178 0
0.716481 0.00148297 -0.10762 79 175 0
0.710518 0.00153056 -0.107427 82 172 0
0.706454 0.00588593 -0.107508 86 168 0
0.704161 0.0113886 -0.107853 89 165 0
0.704338 0.016614 -0.108336 92 162 0
0.707077 0.021947 -0.108722 95 159 0
0.712331 0.0247157 -0.109243 98 156 0
0.718134 0.0257988 -0.109625 102 153 0
0.723881 0.0241816 -0.109694 105 149 0
0.72842 0.0204086 -0.109606 108 146 0
0.731925 0.0155473 -0.109217 111 143 0
0.73316 0.0099469 -0.108767 114 140 0
0.732859 0.00396273 -0.108353 117 137 0
0.730486 -0.00111941 -0.107884 121 133 0
0.727053 -0.0059763 -0.107353 124 130 0
0.72174 -0.00862242 -0.106998 127 127 0
0.715849 -0.00875906 -0.10661 130 124 0
0.7104 -0.00629038 -0.106438 133 121 0
0.706151 -0.00204507 -0.106544 137 117 0
0.705028 0.00349777 -0.106819 140 114 0
0.706016 0.00927029 -0.107313 143 111 0
0.709843 0.013621 -0.107782 146 108 0
0.715405 0.0158325 -0.108046 149 105 0
0.720932 0.0164257 -0.108219 153 101 0
0.726535 0.0142662 -0.108195 156 98 0
0.730418 0.0100284 -0.107997 159 95 0
0.732317 0.00435119 -0.107729 162 92 0
0.734058 -0.0012191 -0.107245 165 89 0
0.732197 -0.00691222 -0.106819 168 86 0
0.729185 -0.0119681 -0.106244 172 82 0
0.724344 -0.0153537 -0.10574 175 79 0
0.719329 -0.0185978 -0.105341 178 76 0
0.713836 -0.0164215 -0.105162 181 73 0
0.708165 -0.0150923 -0.105139 184 70 0
0.705087 -0.0104537 -0.105299 188 66 0
0.705052 -0.00445886 -0.105692 191 63 0
0.705094 0.00150344 -0.106152 194 60 0
0.709898 0.0050709 -0.106638 197 57 0
0.715428 0.00719909 -0.106984 200 54 0
0.721324 0.00629767 -0.107121 204 50 0
0.726658 0.00374249 -0.107102 207 47 0
0.730669 -0.000711535 -0.106841 210 44 0
0.733475 -0.00599934 -0.106446 213 41 0
0.734665 -0.0116331 -0.10595 216 38 0
0.732149 -0.0169652 -0.105408 219 35 0
0.728851 -0.0218574 -0.104789 223 31 0
0.724503 -0.0257142 -0.104346 226 28 0
0.718771 -0.0268211 -0.10401 229 25 0
0.712766 -0.0268089 -0.103844 232 22 0
0.708463 -0.0237438 -0.103831 235 19 0
0.705068 -0.0192422 -0.104059 239 15 0
0.703079 -0.0140668 -0.104622 242 12 0
0.705098 -0.00884389 -0.105184 245 9 0
0.708256 -0.00412722 -0.105854 248 6 0
0.713443 -0.00214238 -0.106218 251 3 0
0.718717 -0.000869925 -0.106594 255 0 0
