ply
format ascii 1.0
comment Generated by robot_control PLYWriter
element vertex 14
property float x
property float y
property float z
property uchar red
property uchar green
property uchar blue
end_header
0.702359 0.033466 -0.104435 0 255 0
0.702443 0.0285792 -0.103434 19 235 0
0.702427 0.0236637 -0.10258 39 215 0
0.702453 0.018756 -0.101691 58 196 0
0.702668 0.0138471 -0.100833 78 176 0
0.702638 0.00891712 -0.100066 98 156 0
0.702638 0.00397641 -0.0993703 117 137 0
0.702615 -0.000963763 -0.0986712 137 117 0
0.702679 -0.00589787 -0.0979334 156 98 0
0.702764 -0.0108298 -0.0971827 176 78 0
0.702853 -0.0157555 -0.096393 196 58 0
0.703054 -0.0206585 -0.0954955 215 39 0
0.703208 -0.0255593 -0.0945754 235 19 0
0.703466 -0.0304427 -0.0935907 255 0 0
