ply
format ascii 1.0
comment Generated by robot_control PLYWriter
element vertex 63
property float x
property float y
property float z
property uchar red
property uchar green
property uchar blue
end_header
0.644711 0.0759456 -0.128183 0 255 0
0.647973 0.0715093 -0.126999 4 250 0
0.650894 0.0676079 -0.125321 8 246 0
0.652372 0.0623742 -0.123649 12 242 0
0.652227 0.0564675 -0.122459 16 238 0
0.650201 0.0510962 -0.12179 20 234 0
0.646487 0.0463868 -0.121724 24 230 0
0.641679 0.0434587 -0.122255 28 226 0
0.636055 0.0416598 -0.1233 32 222 0
0.630539 0.0430899 -0.124622 37 217 0
0.626006 0.0466917 -0.126066 41 213 0
0.623123 0.051598 -0.127038 45 209 0
0.624535 0.0573384 -0.127516 49 205 0
0.627794 0.0622358 -0.127497 53 201 0
0.63316 0.0647734 -0.126798 57 197 0
0.63892 0.0657057 -0.125566 61 193 0
0.644617 0.0645814 -0.124606 65 189 0
0.648351 0.0600389 -0.123473 69 185 0
0.651613 0.0552701 -0.122597 74 180 0
0.652027 0.0493531 -0.122003 78 176 0
0.650202 0.0436158 -0.121763 82 172 0
0.64773 0.0382864 -0.121887 86 168 0
0.643314 0.0342576 -0.12237 90 164 0
0.638032 0.0321117 -0.123008 94 160 0
0.632153 0.0322215 -0.123915 98 156 0
0.626747 0.0347725 -0.124728 102 152 0
0.62317 0.0391725 -0.125671 106 148 0
0.623492 0.0450987 -0.125998 111 143 0
0.625994 0.0504571 -0.125746 115 139 0
0.631024 0.0537026 -0.125088 119 135 0
0.636468 0.0553754 -0.123987 123 131 0
0.642202 0.0542147 -0.12305 127 127 0
0.646462 0.0501888 -0.122019 131 123 0
0.650272 0.0455525 -0.121341 135 119 0
0.65021 0.0395511 -0.121015 139 115 0
0.649998 0.0335348 -0.120872 143 111 0
0.647844 0.0280618 -0.121135 148 106 0
0.643459 0.023946 -0.121686 152 102 0
0.638684 0.0204862 -0.122536 156 98 0
0.632871 0.0195943 -0.123638 160 94 0
0.6278 0.0225618 -0.124591 164 90 0
0.623805 0.0270135 -0.125392 168 86 0
0.623173 0.0328262 -0.125708 172 82 0
0.624359 0.0385053 -0.125421 176 78 0
0.628764 0.0424417 -0.124546 180 74 0
0.633581 0.0454552 -0.123624 185 69 0
0.639314 0.0453017 -0.122254 189 65 0
0.644312 0.0420149 -0.121421 193 61 0
0.647872 0.0373356 -0.120335 197 57 0
0.65008 0.0317698 -0.119604 201 53 0
0.650268 0.0257463 -0.119341 205 49 0
0.648814 0.0199595 -0.119465 209 45 0
0.645713 0.0148485 -0.120078 213 41 0
0.640817 0.0117676 -0.121002 217 37 0
0.635455 0.00953519 -0.122393 222 32 0
0.630023 0.0107977 -0.12406 226 28 0
0.625144 0.0138509 -0.125519 230 24 0
0.623021 0.018572 -0.126963 234 20 0
0.622987 0.024577 -0.127445 238 16 0
0.624703 0.0299392 -0.126789 242 12 0
0.62873 0.0329855 -0.125778 246 8 0
0.633313 0.0337058 -0.124017 250 4 0
0.636536 0.0334738 -0.122951 255 0 0
