ply
format ascii 1.0
comment Generated by robot_control PLYWriter
element vertex 8
property float x
property float y
property float z
property uchar red
property uchar green
property uchar blue
end_header
0.589985 0.113667 -0.119906 0 255 0
0.588115 0.118223 -0.121088 36 218 0
0.586313 0.12277 -0.122391 72 182 0
0.584798 0.127388 -0.123816 109 145 0
0.582533 0.131622 -0.125425 145 109 0
0.580149 0.135779 -0.127064 182 72 0
0.577844 0.140008 -0.128625 218 36 0
0.575961 0.144448 -0.130127 255 0 0
