ply
format ascii 1.0
comment Generated by robot_control PLYWriter
element vertex 64
property float x
property float y
property float z
property uchar red
property uchar green
property uchar blue
end_header
0.68048 0.17449 -0.118881 0 255 0
0.684384 0.171624 -0.118221 4 250 0
0.6873 0.168886 -0.117095 8 246 0
0.688978 0.163776 -0.116265 12 242 0
0.688812 0.157885 -0.115447 16 238 0
0.684745 0.154859 -0.115071 20 234 0
0.680857 0.151817 -0.115 24 230 0
0.675564 0.150128 -0.115204 28 226 0
0.669646 0.150286 -0.115657 32 222 0
0.664388 0.152572 -0.116416 36 218 0
0.661514 0.157684 -0.11741 40 214 0
0.658333 0.161935 -0.118659 44 210 0
0.65852 0.167765 -0.119839 48 206 0
0.658853 0.173612 -0.120439 52 202 0
0.663449 0.177075 -0.120855 56 198 0
0.66792 0.17959 -0.121026 60 194 0
0.673558 0.180997 -0.120838 64 190 0
0.678028 0.177444 -0.120153 68 186 0
0.681957 0.173168 -0.119234 72 182 0
0.683939 0.168077 -0.118145 76 178 0
0.681902 0.162523 -0.117529 80 174 0
0.67805 0.158255 -0.117161 85 169 0
0.67242 0.157045 -0.117302 89 165 0
0.666492 0.157496 -0.11765 93 161 0
0.661 0.158788 -0.118606 97 157 0
0.656292 0.162227 -0.119711 101 153 0
0.653095 0.167035 -0.120816 105 149 0
0.652225 0.172602 -0.122087 109 145 0
0.653983 0.178178 -0.123068 113 141 0
0.655383 0.183472 -0.123858 117 137 0
0.66021 0.186938 -0.124222 121 133 0
0.665675 0.188604 -0.124212 125 129 0
0.670739 0.185848 -0.123803 129 125 0
0.675404 0.182306 -0.123004 133 121 0
0.678145 0.177249 -0.121818 137 117 0
0.675906 0.171815 -0.120857 141 113 0
0.672353 0.167309 -0.120186 145 109 0
0.667134 0.164568 -0.119989 149 105 0
0.661465 0.165476 -0.120317 153 101 0
0.655766 0.165374 -0.120939 157 97 0
0.651072 0.168829 -0.121934 161 93 0
0.647492 0.173375 -0.123105 165 89 0
0.646707 0.178929 -0.12446 170 84 0
0.646931 0.184638 -0.12595 174 80 0
0.649553 0.189647 -0.127037 178 76 0
0.65361 0.19382 -0.127935 182 72 0
0.658949 0.195089 -0.128115 186 68 0
0.664383 0.194275 -0.127788 190 64 0
0.669001 0.19076 -0.126955 194 60 0
0.670758 0.185751 -0.125604 198 56 0
0.670787 0.180643 -0.12416 202 52 0
0.668449 0.17566 -0.122827 206 48 0
0.664499 0.171403 -0.12205 210 44 0
0.658885 0.170521 -0.121849 214 40 0
0.65324 0.170613 -0.122092 218 36 0
0.648557 0.173429 -0.122861 222 32 0
0.644284 0.177401 -0.123932 226 28 0
0.640998 0.181078 -0.125398 230 24 0
0.638851 0.186143 -0.12655 234 20 0
0.64121 0.190479 -0.127976 238 16 0
0.642157 0.195627 -0.129428 242 12 0
0.645584 0.198729 -0.130787 246 8 0
0.65059 0.199414 -0.132131 250 4 0
0.653246 0.202379 -0.132809 255 0 0
