ply
format ascii 1.0
comment Generated by robot_control PLYWriter
element vertex 16
property float x
property float y
property float z
property uchar red
property uchar green
property uchar blue
end_header
0.494308 0.0589784 -0.115558 0 255 0
0.494315 0.0539645 -0.11541 17 238 0
0.494361 0.0489562 -0.115118 34 221 0
0.494378 0.0439406 -0.115001 51 204 0
0.494551 0.0389286 -0.114861 68 187 0
0.494754 0.0339198 -0.114655 85 169 0
0.494967 0.0289153 -0.114371 102 153 0
0.495187 0.0239137 -0.114043 119 135 0
0.495426 0.018914 -0.113701 136 118 0
0.495655 0.0139112 -0.113398 153 101 0
0.495876 0.00890454 -0.113161 170 84 0
0.496071 0.00389453 -0.112978 187 67 0
0.496285 -0.00111411 -0.112779 204 50 0
0.496322 -0.00612518 -0.112538 221 33 0
0.49638 -0.0111338 -0.112251 238 16 0
0.496389 -0.0161476 -0.11209 255 0 0
