ply
format ascii 1.0
comment Generated by robot_control PLYWriter
element vertex 32
property float x
property float y
property float z
property uchar red
property uchar green
property uchar blue
end_header
0.722863 0.0974892 -0.142258 0 255 0
0.727651 0.0948423 -0.141372 8 246 0
0.729189 0.0900192 -0.139783 16 238 0
0.729233 0.0847252 -0.137667 24 230 0
0.727734 0.079631 -0.135494 32 222 0
0.724418 0.0750768 -0.133831 41 213 0
0.719276 0.0725125 -0.13248 49 205 0
0.713663 0.0715009 -0.131648 57 197 0
0.708006 0.0730596 -0.131332 65 189 0
0.702782 0.0757647 -0.131369 74 180 0
0.69821 0.0794123 -0.131902 82 172 0
0.695529 0.0844299 -0.132648 90 164 0
0.694956 0.0901575 -0.133696 98 156 0
0.697049 0.0954174 -0.134761 106 148 0
0.702421 0.0976649 -0.135641 115 139 0
0.707936 0.0992118 -0.136155 123 131 0
0.71325 0.0968 -0.136002 131 123 0
0.716762 0.0922912 -0.13551 139 115 0
0.718264 0.0866463 -0.134619 148 106 0
0.716867 0.0813802 -0.133472 156 98 0
0.714 0.0764067 -0.132187 164 90 0
0.709778 0.0725015 -0.131058 172 82 0
0.70447 0.0701611 -0.130053 180 74 0
0.698862 0.0704301 -0.129502 189 65 0
0.693063 0.0713155 -0.129143 197 57 0
0.688376 0.0746473 -0.129215 205 49 0
0.684844 0.0791057 -0.129762 213 41 0
0.682903 0.0844771 -0.130843 222 32 0
0.683115 0.0902352 -0.132106 230 24 0
0.686691 0.0935513 -0.133606 238 16 0
0.690072 0.0977808 -0.134843 246 8 0
0.695274 0.0982171 -0.135806 255 0 0
