ply
format ascii 1.0
comment Generated by robot_control PLYWriter
element vertex 8
property float x
property float y
property float z
property uchar red
property uchar green
property uchar blue
end_header
0.585092 -0.0310824 -0.120312 0 255 0
0.585108 -0.0258706 -0.120145 36 218 0
0.585106 -0.020658 -0.120002 72 182 0
0.585096 -0.0154457 -0.119851 109 145 0
0.585105 -0.0102317 -0.119773 145 109 0
0.585098 -0.00501729 -0.119742 182 72 0
0.585095 0.000197216 -0.119757 218 36 0
0.585114 0.00541118 -0.119814 255 0 0
