ply
format ascii 1.0
comment Generated by robot_control PLYWriter
element vertex 65
property float x
property float y
property float z
property uchar red
property uchar green
property uchar blue
end_header
0.612272 -0.0241994 -0.101145 0 255 0
0.616982 -0.0264176 -0.100324 3 251 0
0.621049 -0.0293547 -0.099075 7 247 0
0.623101 -0.0341706 -0.0983285 11 243 0
0.623055 -0.0401299 -0.0980082 15 239 0
0.620283 -0.0447147 -0.0980337 19 235 0
0.616531 -0.0482491 -0.0987035 23 231 0
0.611526 -0.0505984 -0.0995407 27 227 0
0.605936 -0.0498172 -0.100654 31 223 0
0.601283 -0.0464274 -0.101968 35 219 0
0.597668 -0.0419042 -0.103217 39 215 0
0.59487 -0.0368166 -0.104116 43 211 0
0.59487 -0.0309418 -0.104707 47 207 0
0.595881 -0.0251397 -0.104959 51 203 0
0.598906 -0.020015 -0.104891 55 199 0
0.60343 -0.0163746 -0.104537 59 195 0
0.609045 -0.0151806 -0.103717 63 191 0
0.61469 -0.0142507 -0.102638 67 187 0
0.61964 -0.0171999 -0.101514 71 183 0
0.622876 -0.0221022 -0.100674 75 179 0
0.624647 -0.0277208 -0.100236 79 175 0
0.621641 -0.0328623 -0.100052 83 171 0
0.61778 -0.0372752 -0.100535 87 167 0
0.612113 -0.038581 -0.101339 91 163 0
0.606212 -0.0384959 -0.10224 95 159 0
0.601581 -0.0355525 -0.103202 99 155 0
0.597297 -0.0314626 -0.10394 103 151 0
0.595947 -0.0259805 -0.104807 107 147 0
0.594998 -0.0201635 -0.10538 111 143 0
0.596679 -0.0144878 -0.105742 115 139 0
0.600173 -0.00965057 -0.105897 119 135 0
0.604271 -0.00545133 -0.105637 123 131 0
0.609824 -0.00401944 -0.104994 127 127 0
0.615526 -0.00521963 -0.1042 131 123 0
0.620577 -0.00809176 -0.103188 135 119 0
0.624005 -0.0128889 -0.102432 139 115 0
0.624803 -0.0186318 -0.101788 143 111 0
0.621931 -0.023679 -0.101794 147 107 0
0.617177 -0.0272649 -0.10206 151 103 0
0.611721 -0.0289106 -0.102732 155 99 0
0.605849 -0.0287144 -0.103609 159 95 0
0.601513 -0.0246701 -0.104314 163 91 0
0.597837 -0.0203594 -0.105443 167 87 0
0.59631 -0.0147611 -0.106263 171 83 0
0.596504 -0.00885281 -0.107077 175 79 0
0.598188 -0.00323314 -0.107631 179 75 0
0.601603 0.00155875 -0.107872 183 71 0
0.606789 0.00449762 -0.107647 187 67 0
0.612422 0.00583003 -0.107024 191 63 0
0.618185 0.00539232 -0.106277 195 59 0
0.622847 0.00196867 -0.105135 199 55 0
0.624993 -0.00350656 -0.104457 203 51 0
0.62431 -0.0092223 -0.103308 207 47 0
0.62174 -0.0145832 -0.102852 211 43 0
0.616527 -0.0173731 -0.10292 215 39 0
0.611224 -0.0186619 -0.10351 219 35 0
0.605883 -0.0164052 -0.104573 223 31 0
0.60101 -0.0143131 -0.105938 227 27 0
0.597648 -0.00966192 -0.107436 231 23 0
0.596353 -0.00406829 -0.108687 235 19 0
0.596444 0.00179835 -0.109663 239 15 0
0.598777 0.00684559 -0.110411 243 11 0
0.60159 0.011212 -0.111003 247 7 0
0.605651 0.014412 -0.111528 251 3 0
0.610902 0.016388 -0.111782 255 0 0
