ply
format ascii 1.0
comment Generated by robot_control PLYWriter
element vertex 10
property float x
property float y
property float z
property uchar red
property uchar green
property uchar blue
end_header
0.559101 -0.402863 -0.116966 0 255 0
0.559096 -0.397621 -0.117365 28 226 0
0.559089 -0.392396 -0.118011 56 198 0
0.559043 -0.387254 -0.119146 85 169 0
0.559014 -0.382194 -0.120601 113 141 0
0.559298 -0.377187 -0.122208 141 113 0
0.559526 -0.372096 -0.123536 170 84 0
0.559732 -0.366942 -0.124596 198 56 0
0.56011 -0.36177 -0.125511 226 28 0
0.560347 -0.35655 -0.126014 255 0 0
