ply
format ascii 1.0
comment Generated by robot_control PLYWriter
element vertex 32
property float x
property float y
property float z
property uchar red
property uchar green
property uchar blue
end_header
0.57309 0.0524688 -0.160478 0 255 0
0.578733 0.0515657 -0.159032 8 246 0
0.581649 0.047006 -0.157669 16 238 0
0.585603 0.043664 -0.156132 24 230 0
0.586668 0.0380454 -0.154659 32 222 0
0.585253 0.0323738 -0.153774 41 213 0
0.580871 0.0285141 -0.153241 49 205 0
0.575307 0.0263176 -0.153342 57 197 0
0.569293 0.0258236 -0.153869 65 189 0
0.565071 0.0295978 -0.154814 74 180 0
0.561559 0.034346 -0.155927 82 172 0
0.562564 0.0398862 -0.157062 90 164 0
0.564594 0.0455117 -0.157851 98 156 0
0.568604 0.0499774 -0.158441 106 148 0
0.573543 0.0531996 -0.158612 115 139 0
0.579463 0.0539176 -0.158523 123 131 0
0.58531 0.0528221 -0.1581 131 123 0
0.590418 0.0496603 -0.157454 139 115 0
0.594572 0.0454704 -0.156573 148 106 0
0.596994 0.0401759 -0.155227 156 98 0
0.596552 0.0342972 -0.154157 164 90 0
0.59378 0.0290242 -0.153141 172 82 0
0.589266 0.025326 -0.152304 180 74 0
0.583472 0.0240565 -0.152068 189 65 0
0.577899 0.0262469 -0.152385 197 57 0
0.574287 0.0309524 -0.153551 205 49 0
0.572997 0.0365486 -0.154897 213 41 0
0.573834 0.0420305 -0.156247 222 32 0
0.576251 0.046725 -0.157571 230 24 0
0.579715 0.0500964 -0.15873 238 16 0
0.584967 0.0522293 -0.159575 246 8 0
0.590131 0.0542358 -0.160304 255 0 0
