ply
format ascii 1.0
comment Generated by robot_control PLYWriter
element vertex 31
property float x
property float y
property float z
property uchar red
property uchar green
property uchar blue
end_header
0.585384 0.192436 -0.111695 0 255 0
0.589562 0.191641 -0.109796 8 246 0
0.593658 0.188564 -0.10864 17 238 0
0.596186 0.183865 -0.109816 25 229 0
0.596637 0.178044 -0.1105 34 221 0
0.595759 0.172376 -0.1117 42 212 0
0.593081 0.167396 -0.113339 51 204 0
0.588267 0.16452 -0.115186 59 195 0
0.583207 0.162282 -0.11712 68 187 0
0.578086 0.164147 -0.11916 76 178 0
0.573207 0.16679 -0.121143 85 169 0
0.569817 0.171353 -0.122627 93 161 0
0.569064 0.176649 -0.123258 102 153 0
0.569689 0.182256 -0.123186 110 144 0
0.574774 0.184978 -0.122404 119 135 0
0.579879 0.185506 -0.121093 127 127 0
0.584619 0.182437 -0.11933 136 118 0
0.588141 0.178219 -0.117969 144 110 0
0.590014 0.17265 -0.117051 153 101 0
0.587978 0.16741 -0.116356 161 93 0
0.586201 0.161768 -0.116469 170 84 0
0.581871 0.158244 -0.117303 178 76 0
0.576846 0.155636 -0.118998 187 67 0
0.571769 0.15673 -0.12124 195 59 0
0.566566 0.157926 -0.12326 204 50 0
0.563779 0.162468 -0.125284 212 42 0
0.561778 0.167289 -0.127512 221 33 0
0.562797 0.172938 -0.12888 229 25 0
0.564776 0.177631 -0.129116 238 16 0
0.568945 0.180135 -0.128037 246 8 0
0.573123 0.179291 -0.126402 255 0 0
