ply
format ascii 1.0
comment Generated by robot_control PLYWriter
element vertex 14
property float x
property float y
property float z
property uchar red
property uchar green
property uchar blue
end_header
0.574743 -0.0255228 -0.0334345 0 255 0
0.574752 -0.0205187 -0.033119 19 235 0
0.574753 -0.0155054 -0.0330547 39 215 0
0.574776 -0.0104914 -0.033081 58 196 0
0.574774 -0.0054781 -0.0331742 78 176 0
0.574771 -0.000464802 -0.0332653 98 156 0
0.57477 0.00454729 -0.0334074 117 137 0
0.574739 0.0095564 -0.0336288 137 117 0
0.57473 0.0145591 -0.0339675 156 98 0
0.574719 0.0195557 -0.0343864 176 78 0
0.574711 0.0245493 -0.0348397 196 58 0
0.574701 0.0295426 -0.0352957 215 39 0
0.574691 0.0345351 -0.0357608 235 19 0
0.57468 0.0395328 -0.0361655 255 0 0
