ply
format ascii 1.0
comment Generated by robot_control PLYWriter
element vertex 10
property float x
property float y
property float z
property uchar red
property uchar green
property uchar blue
end_header
0.567816 -0.193614 -0.0396475 0 255 0
0.56681 -0.198599 -0.039257 28 226 0
0.56603 -0.20364 -0.0395661 56 198 0
0.565122 -0.208685 -0.0395915 85 169 0
0.564303 -0.213715 -0.0400831 113 141 0
0.563532 -0.218704 -0.0409838 141 113 0
0.562815 -0.223699 -0.0418903 170 84 0
0.56211 -0.22873 -0.042567 198 56 0
0.561207 -0.23376 -0.0430011 226 28 0
0.560616 -0.238855 -0.0430269 255 0 0
