ply
format ascii 1.0
comment Generated by robot_control PLYWriter
element vertex 32
property float x
property float y
property float z
property uchar red
property uchar green
property uchar blue
end_header
0.712329 0.0739691 -0.12482 0 255 0
0.717545 0.0717644 -0.123955 8 246 0
0.720571 0.0671852 -0.122944 16 238 0
0.722467 0.0617175 -0.121868 24 230 0
0.720921 0.0562731 -0.120314 32 222 0
0.71654 0.0523874 -0.11943 41 213 0
0.71122 0.0499364 -0.119166 49 205 0
0.705546 0.0520115 -0.11935 57 197 0
0.700079 0.0545233 -0.119918 65 189 0
0.696755 0.0592747 -0.120771 74 180 0
0.694524 0.0646356 -0.121851 82 172 0
0.695254 0.0705239 -0.122884 90 164 0
0.697309 0.0760961 -0.124028 98 156 0
0.700701 0.0805822 -0.125209 106 148 0
0.705979 0.0834048 -0.126033 115 139 0
0.711832 0.0844382 -0.126506 123 131 0
0.717709 0.0831351 -0.126595 131 123 0
0.722681 0.0799141 -0.126293 139 115 0
0.725665 0.0748087 -0.125629 148 106 0
0.726542 0.0690102 -0.124748 156 98 0
0.723489 0.0639962 -0.123566 164 90 0
0.718966 0.0601911 -0.122851 172 82 0
0.713587 0.0596844 -0.122239 180 74 0
0.708219 0.0621026 -0.122207 189 65 0
0.703529 0.06538 -0.122521 197 57 0
0.699416 0.0696607 -0.123583 205 49 0
0.698375 0.075114 -0.124791 213 41 0
0.698779 0.0810111 -0.126026 222 32 0
0.701117 0.0862714 -0.127447 230 24 0
0.705896 0.0891896 -0.129251 238 16 0
0.709987 0.0917118 -0.130636 246 8 0
0.714594 0.0936492 -0.131743 255 0 0
