ply
format ascii 1.0
comment Generated by robot_control PLYWriter
element vertex 10
property float x
property float y
property float z
property uchar red
property uchar green
property uchar blue
end_header
0.634621 -0.0275186 -0.0340438 0 255 0
0.634663 -0.0325122 -0.0345644 28 226 0
0.634684 -0.0375259 -0.034829 56 198 0
0.634696 -0.0425426 -0.0350328 85 169 0
0.634557 -0.0475542 -0.0352538 113 141 0
0.634278 -0.0525606 -0.0355154 141 113 0
0.633993 -0.057569 -0.0357127 170 84 0
0.633691 -0.06258 -0.0357842 198 56 0
0.633325 -0.0675869 -0.0358168 226 28 0
0.632646 -0.0725519 -0.0360812 255 0 0
