ply
format ascii 1.0
comment Generated by robot_control PLYWriter
element vertex 29
property float x
property float y
property float z
property uchar red
property uchar green
property uchar blue
end_header
0.570715 0.0693363 -0.143302 0 255 0
0.575344 0.0678052 -0.14064 9 245 0
0.579034 0.0644155 -0.138399 18 236 0
0.581411 0.0601266 -0.135546 27 227 0
0.582533 0.0545521 -0.133841 36 218 0
0.579816 0.0494882 -0.132715 45 209 0
0.575806 0.04536 -0.132302 54 200 0
0.570165 0.0436344 -0.13273 63 191 0
0.565004 0.0455234 -0.134269 72 182 0
0.562248 0.0506257 -0.135605 81 173 0
0.561047 0.0560454 -0.136992 91 163 0
0.564779 0.0606971 -0.137696 100 154 0
0.569004 0.0648158 -0.137997 109 145 0
0.574347 0.0675128 -0.137994 118 136 0
0.580203 0.0666519 -0.137536 127 127 0
0.585905 0.0664611 -0.136515 136 118 0
0.590579 0.0629313 -0.135119 145 109 0
0.59251 0.0580182 -0.133491 154 100 0
0.592479 0.0522454 -0.131788 163 91 0
0.5904 0.046982 -0.130756 173 81 0
0.586717 0.0422859 -0.130255 182 72 0
0.58072 0.0425455 -0.130203 191 63 0
0.575615 0.0445293 -0.130957 200 54 0
0.572572 0.0487661 -0.132849 209 45 0
0.572631 0.0538959 -0.134604 218 36 0
0.574174 0.0595008 -0.135578 227 27 0
0.578889 0.0625682 -0.136804 236 18 0
0.584232 0.0650225 -0.137027 245 9 0
0.588394 0.0647289 -0.136489 255 0 0
