ply
format ascii 1.0
comment Generated by robot_control PLYWriter
element vertex 28
property float x
property float y
property float z
property uchar red
property uchar green
property uchar blue
end_header
0.628789 -0.300446 -0.0878955 0 255 0
0.633767 -0.301312 -0.0891212 9 245 0
0.638924 -0.303215 -0.0905035 18 236 0
0.642586 -0.307736 -0.0916513 28 226 0
0.644686 -0.312875 -0.0928271 37 217 0
0.642878 -0.317899 -0.0935805 47 207 0
0.640587 -0.322064 -0.0940623 56 198 0
0.635306 -0.324313 -0.0939372 66 188 0
0.630051 -0.322013 -0.0932867 75 179 0
0.62673 -0.317815 -0.0922948 85 169 0
0.626804 -0.311948 -0.0917409 94 160 0
0.629647 -0.30677 -0.0915285 103 151 0
0.633672 -0.30292 -0.0916472 113 141 0
0.639187 -0.30087 -0.0922322 122 132 0
0.644921 -0.301159 -0.0931085 132 122 0
0.650125 -0.303673 -0.0942379 141 113 0
0.654331 -0.307539 -0.0956175 151 103 0
0.655747 -0.313138 -0.0966256 160 94 0
0.655263 -0.318434 -0.0972923 170 84 0
0.651835 -0.323246 -0.0973269 179 75 0
0.646454 -0.324705 -0.0966876 188 66 0
0.641552 -0.322022 -0.0952431 198 56 0
0.638529 -0.317684 -0.0935204 207 47 0
0.638402 -0.311905 -0.0923338 217 37 0
0.64121 -0.306745 -0.0920951 226 28 0
0.645459 -0.303409 -0.0923098 236 18 0
0.650385 -0.30225 -0.0931835 245 9 0
0.654464 -0.300828 -0.0941145 255 0 0
