ply
format ascii 1.0
comment Generated by robot_control PLYWriter
element vertex 65
property float x
property float y
property float z
property uchar red
property uchar green
property uchar blue
end_header
0.595434 -0.00859192 -0.140152 0 255 0
0.598444 -0.0123617 -0.139668 3 251 0
0.601803 -0.0150971 -0.139066 7 247 0
0.604657 -0.0196652 -0.138532 11 243 0
0.605125 -0.0254783 -0.137751 15 239 0
0.604373 -0.0310804 -0.137231 19 235 0
0.6026 -0.0361553 -0.136928 23 231 0
0.598242 -0.0399988 -0.136792 27 227 0
0.59309 -0.0424412 -0.137008 31 223 0
0.58709 -0.0422533 -0.137515 35 219 0
0.581861 -0.0400432 -0.138537 39 215 0
0.576787 -0.0369293 -0.139478 43 211 0
0.575456 -0.0313236 -0.140291 47 207 0
0.576855 -0.0259021 -0.140738 51 203 0
0.580423 -0.0210797 -0.140891 55 199 0
0.58516 -0.0181245 -0.140654 59 195 0
0.591162 -0.0183256 -0.140149 63 191 0
0.596759 -0.0202117 -0.139397 67 187 0
0.60108 -0.0238763 -0.138568 71 183 0
0.604043 -0.0290576 -0.13787 75 179 0
0.605106 -0.03471 -0.137272 79 175 0
0.605084 -0.040712 -0.136694 83 171 0
0.602716 -0.04625 -0.136424 87 167 0
0.598295 -0.0502551 -0.136258 91 163 0
0.593045 -0.0531457 -0.136323 95 159 0
0.587219 -0.05426 -0.136571 99 155 0
0.582422 -0.0514443 -0.136982 103 151 0
0.577981 -0.047859 -0.137514 107 147 0
0.57664 -0.0420509 -0.137912 111 143 0
0.577057 -0.036218 -0.138241 115 139 0
0.581057 -0.0317178 -0.13831 119 135 0
0.586419 -0.0290734 -0.138219 123 131 0
0.592197 -0.0294351 -0.138036 127 127 0
0.597657 -0.0318055 -0.137658 131 123 0
0.601981 -0.0359459 -0.137192 135 119 0
0.605162 -0.0409981 -0.136606 139 115 0
0.606749 -0.0467862 -0.136114 143 111 0
0.60609 -0.0526876 -0.13558 147 107 0
0.603192 -0.0577981 -0.135322 151 103 0
0.598681 -0.0616659 -0.135184 155 99 0
0.593112 -0.0639765 -0.135223 159 95 0
0.587129 -0.0642253 -0.135361 163 91 0
0.581612 -0.0619532 -0.135646 167 87 0
0.578525 -0.0570497 -0.135989 171 83 0
0.576624 -0.0513856 -0.136245 175 79 0
0.578618 -0.0460359 -0.136436 179 75 0
0.583075 -0.0421342 -0.136569 183 71 0
0.588801 -0.0405873 -0.136553 187 67 0
0.594825 -0.0405292 -0.136309 191 63 0
0.599781 -0.0437828 -0.135882 195 59 0
0.604036 -0.0480345 -0.135463 199 55 0
0.606723 -0.05322 -0.134942 203 51 0
0.60671 -0.059238 -0.134581 207 47 0
0.605341 -0.0650296 -0.134191 211 43 0
0.601748 -0.0697462 -0.1339 215 39 0
0.598136 -0.0744245 -0.133751 219 35 0
0.592258 -0.0753644 -0.133841 223 31 0
0.586587 -0.0751287 -0.134094 227 27 0
0.581945 -0.071529 -0.134521 231 23 0
0.578371 -0.0677284 -0.135108 235 19 0
0.576951 -0.0622207 -0.135419 239 15 0
0.578351 -0.0568993 -0.135682 243 11 0
0.582374 -0.0527431 -0.135767 247 7 0
0.586696 -0.0508742 -0.135725 251 3 0
0.592543 -0.0507402 -0.135638 255 0 0
