ply
format ascii 1.0
comment Generated by robot_control PLYWriter
element vertex 133
property float x
property float y
property float z
property uchar red
property uchar green
property uchar blue
end_header
0.72911 -0.222732 -0.13298 0 255 0
0.732716 -0.224587 -0.134253 1 253 0
0.735432 -0.228023 -0.135444 3 251 0
0.736062 -0.232144 -0.136091 5 249 0
0.734545 -0.23658 -0.136165 7 247 0
0.73137 -0.239902 -0.135636 9 245 0
0.725829 -0.240642 -0.134678 11 243 0
0.720483 -0.240158 -0.133366 13 241 0
0.716364 -0.236049 -0.132202 15 239 0
0.714215 -0.232261 -0.130817 17 237 0
0.712099 -0.227075 -0.12971 19 235 0
0.714258 -0.222255 -0.129502 21 233 0
0.716809 -0.217444 -0.130191 23 231 0
0.720731 -0.214267 -0.131364 25 229 0
0.725879 -0.212834 -0.132517 27 227 0
0.731173 -0.214613 -0.133782 28 226 0
0.734876 -0.217761 -0.134685 30 224 0
0.736695 -0.223191 -0.134867 32 222 0
0.733628 -0.227967 -0.134455 34 220 0
0.729129 -0.230605 -0.133631 36 218 0
0.725061 -0.232188 -0.132553 38 216 0
0.719873 -0.230051 -0.131251 40 214 0
0.715848 -0.225752 -0.130478 42 212 0
0.711867 -0.221504 -0.129886 44 210 0
0.712335 -0.215533 -0.129807 46 208 0
0.715016 -0.210454 -0.130239 48 206 0
0.718331 -0.205642 -0.131045 50 204 0
0.723149 -0.202664 -0.13238 52 202 0
0.728348 -0.20457 -0.13346 54 200 0
0.734035 -0.205903 -0.134123 56 198 0
0.735489 -0.210913 -0.134349 57 197 0
0.735134 -0.216851 -0.133934 59 195 0
0.73182 -0.221344 -0.133146 61 193 0
0.726339 -0.222639 -0.132216 63 191 0
0.720669 -0.221459 -0.131303 65 189 0
0.716043 -0.217866 -0.130394 67 187 0
0.712735 -0.213156 -0.129963 69 185 0
0.71233 -0.207236 -0.129876 71 183 0
0.713782 -0.20168 -0.130218 73 181 0
0.716862 -0.1966 -0.130799 75 179 0
0.722291 -0.19432 -0.131877 77 177 0
0.727878 -0.193376 -0.132676 79 175 0
0.732833 -0.196442 -0.133575 81 173 0
0.735043 -0.201535 -0.134237 83 171 0
0.735393 -0.207502 -0.13418 85 169 0
0.731445 -0.211607 -0.133593 86 168 0
0.726017 -0.212841 -0.132654 88 166 0
0.720308 -0.211597 -0.131797 90 164 0
0.715572 -0.208376 -0.130779 92 162 0
0.713375 -0.202838 -0.130149 94 160 0
0.712443 -0.197092 -0.129649 96 158 0
0.714551 -0.191567 -0.129595 98 156 0
0.717472 -0.187106 -0.130026 100 154 0
0.7227 -0.184264 -0.130638 102 152 0
0.728614 -0.184398 -0.131595 104 150 0
0.733525 -0.187096 -0.132394 106 148 0
0.735153 -0.192709 -0.133128 108 146 0
0.734234 -0.198249 -0.133333 110 144 0
0.729547 -0.201383 -0.132912 112 142 0
0.724157 -0.202743 -0.131813 113 141 0
0.718718 -0.201041 -0.13081 115 139 0
0.714449 -0.197087 -0.129796 117 137 0
0.712187 -0.191672 -0.128995 119 135 0
0.712216 -0.185704 -0.128459 121 133 0
0.714235 -0.180267 -0.12818 123 131 0
0.718651 -0.176424 -0.128332 125 129 0
0.723892 -0.174103 -0.128984 127 127 0
0.729506 -0.175729 -0.129918 129 125 0
0.734273 -0.178181 -0.130967 131 123 0
0.734736 -0.184018 -0.131596 133 121 0
0.733437 -0.189823 -0.13181 135 119 0
0.728383 -0.192645 -0.131277 137 117 0
0.722996 -0.193551 -0.130386 139 115 0
0.717718 -0.190891 -0.129397 141 113 0
0.714439 -0.18602 -0.128551 142 112 0
0.711455 -0.18092 -0.127854 144 110 0
0.712645 -0.175554 -0.127357 146 108 0
0.715347 -0.170215 -0.12715 148 106 0
0.719046 -0.166587 -0.127389 150 104 0
0.724447 -0.164392 -0.127944 152 102 0
0.73001 -0.165855 -0.128756 154 100 0
0.734111 -0.169028 -0.12966 156 98 0
0.735072 -0.174346 -0.130051 158 96 0
0.733723 -0.179856 -0.130019 160 94 0
0.728649 -0.182579 -0.129605 162 92 0
0.723268 -0.184214 -0.128859 164 90 0
0.718256 -0.18181 -0.127988 166 88 0
0.714234 -0.177495 -0.127214 168 86 0
0.710945 -0.172532 -0.126598 170 84 0
0.711825 -0.166865 -0.126218 171 83 0
0.714431 -0.161469 -0.126151 173 81 0
0.71794 -0.156813 -0.126453 175 79 0
0.723635 -0.155746 -0.126955 177 77 0
0.729552 -0.155862 -0.127808 179 75 0
0.733159 -0.16017 -0.128386 181 73 0
0.734043 -0.165649 -0.128713 183 71 0
0.731789 -0.171022 -0.128607 185 69 0
0.726854 -0.17414 -0.128121 187 67 0
0.720907 -0.173981 -0.127427 189 65 0
0.715984 -0.171017 -0.126566 191 63 0
0.713125 -0.166059 -0.125961 193 61 0
0.710735 -0.161077 -0.125363 195 59 0
0.711558 -0.155303 -0.125098 197 57 0
0.714516 -0.150097 -0.125065 198 56 0
0.719016 -0.146525 -0.125342 200 54 0
0.724895 -0.145831 -0.126014 202 52 0
0.730603 -0.146468 -0.126621 204 50 0
0.734488 -0.150924 -0.127323 206 48 0
0.734505 -0.156861 -0.128025 208 46 0
0.732263 -0.161909 -0.128154 210 44 0
0.727326 -0.164238 -0.127692 212 42 0
0.721365 -0.164095 -0.127097 214 40 0
0.716469 -0.161817 -0.126114 216 38 0
0.713429 -0.156728 -0.125263 218 36 0
0.710792 -0.152008 -0.12451 220 34 0
0.71115 -0.146086 -0.123805 222 32 0
0.714114 -0.141318 -0.123347 224 30 0
0.718558 -0.137312 -0.123201 226 28 0
0.724198 -0.135944 -0.123611 227 27 0
0.729479 -0.136609 -0.124658 229 25 0
0.733427 -0.140749 -0.125569 231 23 0
0.735299 -0.145236 -0.126823 233 21 0
0.734307 -0.150878 -0.127369 235 19 0
0.730403 -0.154016 -0.127438 237 17 0
0.72528 -0.155648 -0.126929 239 15 0
0.720068 -0.15407 -0.126122 241 13 0
0.715341 -0.151144 -0.1252 243 11 0
0.71313 -0.1466 -0.123872 245 9 0
0.711209 -0.14167 -0.12275 247 7 0
0.711157 -0.135976 -0.121917 249 5 0
0.713603 -0.131532 -0.121132 251 3 0
0.718137 -0.128553 -0.120546 253 1 0
0.722456 -0.126116 -0.120468 255 0 0
