ply
format ascii 1.0
comment Generated by robot_control PLYWriter
element vertex 200
property float x
property float y
property float z
property uchar red
property uchar green
property uchar blue
end_header
0.685745 -0.264062 -0.0862429 0 255 0
0.685745 -0.264062 -0.0862429 1 253 0
0.685745 -0.264062 -0.0862429 2 252 0
0.685745 -0.264062 -0.0862429 3 251 0
0.685745 -0.264062 -0.0862429 5 249 0
0.685745 -0.264062 -0.0862429 6 248 0
0.685745 -0.264062 -0.0862429 7 247 0
0.685745 -0.264062 -0.0862429 8 246 0
0.685745 -0.264062 -0.0862429 10 244 0
0.685745 -0.264062 -0.0862429 11 243 0
0.685745 -0.264062 -0.0862429 12 242 0
0.685745 -0.264062 -0.0862429 14 240 0
0.685745 -0.264062 -0.0862429 15 239 0
0.685745 -0.264062 -0.0862429 16 238 0
0.685745 -0.264062 -0.0862429 17 237 0
0.685745 -0.264062 -0.0862429 19 235 0
0.685745 -0.264062 -0.0862429 20 234 0
0.685745 -0.264062 -0.0862429 21 233 0
0.685745 -0.264062 -0.0862429 23 231 0
0.685745 -0.264062 -0.0862429 24 230 0
0.685745 -0.264062 -0.0862429 25 229 0
0.685745 -0.264062 -0.0862429 26 228 0
0.685745 -0.264062 -0.0862429 28 226 0
0.685745 -0.264062 -0.0862429 29 225 0
0.685745 -0.264062 -0.0862429 30 224 0
0.685745 -0.264062 -0.0862429 32 222 0
0.685745 -0.264062 -0.0862429 33 221 0
0.685745 -0.264062 -0.0862429 34 220 0
0.685745 -0.264062 -0.0862429 35 219 0
0.685745 -0.264062 -0.0862429 37 217 0
0.685745 -0.264062 -0.0862429 38 216 0
0.685745 -0.264062 -0.0862429 39 215 0
0.685745 -0.264062 -0.0862429 41 213 0
0.685745 -0.264062 -0.0862429 42 212 0
0.685745 -0.264062 -0.0862429 43 211 0
0.685745 -0.264062 -0.0862429 44 210 0
0.685745 -0.264062 -0.0862429 46 208 0
0.685745 -0.264062 -0.0862429 47 207 0
0.685745 -0.264062 -0.0862429 48 206 0
0.685745 -0.264062 -0.0862429 49 205 0
0.685745 -0.264062 -0.0862429 51 203 0
0.685745 -0.264062 -0.0862429 52 202 0
0.685745 -0.264062 -0.0862429 53 201 0
0.685745 -0.264062 -0.0862429 55 199 0
0.685745 -0.264062 -0.0862429 56 198 0
0.685745 -0.264062 -0.0862429 57 197 0
0.685745 -0.264062 -0.0862429 58 196 0
0.685745 -0.264062 -0.0862429 60 194 0
0.685745 -0.264062 -0.0862429 61 193 0
0.685745 -0.264062 -0.0862429 62 192 0
0.685745 -0.264062 -0.0862429 64 190 0
0.685745 -0.264062 -0.0862429 65 189 0
0.685745 -0.264062 -0.0862429 66 188 0
0.685745 -0.264062 -0.0862429 67 187 0
0.685745 -0.264062 -0.0862429 69 185 0
0.685745 -0.264062 -0.0862429 70 184 0
0.685745 -0.264062 -0.0862429 71 183 0
0.685745 -0.264062 -0.0862429 73 181 0
0.685745 -0.264062 -0.0862429 74 180 0
0.685745 -0.264062 -0.0862429 75 179 0
0.685745 -0.264062 -0.0862429 76 178 0
0.685745 -0.264062 -0.0862429 78 176 0
0.685745 -0.264062 -0.0862429 79 175 0
0.685745 -0.264062 -0.0862429 80 174 0
0.685745 -0.264062 -0.0862429 82 172 0
0.685745 -0.264062 -0.0862429 83 171 0
0.685745 -0.264062 -0.0862429 84 170 0
0.685745 -0.264062 -0.0862429 85 169 0
0.685745 -0.264062 -0.0862429 87 167 0
0.685745 -0.264062 -0.0862429 88 166 0
0.685745 -0.264062 -0.0862429 89 165 0
0.685745 -0.264062 -0.0862429 90 164 0
0.685745 -0.264062 -0.0862429 92 162 0
0.685745 -0.264062 -0.0862429 93 161 0
0.685745 -0.264062 -0.0862429 94 160 0
0.685745 -0.264062 -0.0862429 96 158 0
0.685745 -0.264062 -0.0862429 97 157 0
0.685745 -0.264062 -0.0862429 98 156 0
0.685745 -0.264062 -0.0862429 99 155 0
0.685745 -0.264062 -0.0862429 101 153 0
0.685745 -0.264062 -0.0862429 102 152 0
0.685745 -0.264062 -0.0862429 103 151 0
0.685745 -0.264062 -0.0862429 105 149 0
0.685745 -0.264062 -0.0862429 106 148 0
0.685745 -0.264062 -0.0862429 107 147 0
0.685745 -0.264062 -0.0862429 108 146 0
0.685745 -0.264062 -0.0862429 110 144 0
0.685745 -0.264062 -0.0862429 111 143 0
0.685745 -0.264062 -0.0862429 112 142 0
0.685745 -0.264062 -0.0862429 114 140 0
0.685745 -0.264062 -0.0862429 115 139 0
0.685745 -0.264062 -0.0862429 116 138 0
0.685745 -0.264062 -0.0862429 117 137 0
0.685745 -0.264062 -0.0862429 119 135 0
0.685745 -0.264062 -0.0862429 120 134 0
0.685745 -0.264062 -0.0862429 121 133 0
0.685745 -0.264062 -0.0862429 123 131 0
0.685745 -0.264062 -0.0862429 124 130 0
0.685745 -0.264062 -0.0862429 125 129 0
0.685745 -0.264062 -0.0862429 126 128 0
0.685745 -0.264062 -0.0862429 128 126 0
0.685745 -0.264062 -0.0862429 129 125 0
0.685745 -0.264062 -0.0862429 130 124 0
0.685745 -0.264062 -0.0862429 131 123 0
0.685745 -0.264062 -0.0862429 133 121 0
0.685745 -0.264062 -0.0862429 134 120 0
0.685745 -0.264062 -0.0862429 135 119 0
0.685745 -0.264062 -0.0862429 137 117 0
0.685745 -0.264062 -0.0862429 138 116 0
0.685745 -0.264062 -0.0862429 139 115 0
0.685745 -0.264062 -0.0862429 140 114 0
0.685745 -0.264062 -0.0862429 142 112 0
0.685745 -0.264062 -0.0862429 143 111 0
0.685745 -0.264062 -0.0862429 144 110 0
0.685745 -0.264062 -0.0862429 146 108 0
0.685745 -0.264062 -0.0862429 147 107 0
0.685745 -0.264062 -0.0862429 148 106 0
0.685745 -0.264062 -0.0862429 149 105 0
0.685745 -0.264062 -0.0862429 151 103 0
0.685745 -0.264062 -0.0862429 152 102 0
0.685745 -0.264062 -0.0862429 153 101 0
0.685745 -0.264062 -0.0862429 155 99 0
0.685745 -0.264062 -0.0862429 156 98 0
0.685745 -0.264062 -0.0862429 157 97 0
0.685745 -0.264062 -0.0862429 158 96 0
0.685745 -0.264062 -0.0862429 160 94 0
0.685745 -0.264062 -0.0862429 161 93 0
0.685745 -0.264062 -0.0862429 162 92 0
0.685745 -0.264062 -0.0862429 164 90 0
0.685745 -0.264062 -0.0862429 165 89 0
0.685745 -0.264062 -0.0862429 166 88 0
0.685745 -0.264062 -0.0862429 167 87 0
0.685745 -0.264062 -0.0862429 169 85 0
0.685745 -0.264062 -0.0862429 170 84 0
0.685745 -0.264062 -0.0862429 171 83 0
0.685745 -0.264062 -0.0862429 172 82 0
0.685745 -0.264062 -0.0862429 174 80 0
0.685745 -0.264062 -0.0862429 175 79 0
0.685745 -0.264062 -0.0862429 176 78 0
0.685745 -0.264062 -0.0862429 178 76 0
0.685745 -0.264062 -0.0862429 179 75 0
0.685745 -0.264062 -0.0862429 180 74 0
0.685745 -0.264062 -0.0862429 181 73 0
0.685745 -0.264062 -0.0862429 183 71 0
0.685745 -0.264062 -0.0862429 184 70 0
0.685745 -0.264062 -0.0862429 185 69 0
0.685745 -0.264062 -0.0862429 187 67 0
0.685745 -0.264062 -0.0862429 188 66 0
0.685745 -0.264062 -0.0862429 189 65 0
0.685745 -0.264062 -0.0862429 190 64 0
0.685745 -0.264062 -0.0862429 192 62 0
0.685745 -0.264062 -0.0862429 193 61 0
0.685745 -0.264062 -0.0862429 194 60 0
0.685745 -0.264062 -0.0862429 196 58 0
0.685745 -0.264062 -0.0862429 197 57 0
0.685745 -0.264062 -0.0862429 198 56 0
0.685745 -0.264062 -0.0862429 199 55 0
0.685745 -0.264062 -0.0862429 201 53 0
0.685745 -0.264062 -0.0862429 202 52 0
0.685745 -0.264062 -0.0862429 203 51 0
0.685745 -0.264062 -0.0862429 205 49 0
0.685745 -0.264062 -0.0862429 206 48 0
0.685745 -0.264062 -0.0862429 207 47 0
0.685745 -0.264062 -0.0862429 208 46 0
0.685745 -0.264062 -0.0862429 210 44 0
0.685745 -0.264062 -0.0862429 211 43 0
0.685745 -0.264062 -0.0862429 212 42 0
0.685745 -0.264062 -0.0862429 213 41 0
0.685745 -0.264062 -0.0862429 215 39 0
0.685745 -0.264062 -0.0862429 216 38 0
0.685745 -0.264062 -0.0862429 217 37 0
0.685745 -0.264062 -0.0862429 219 35 0
0.685745 -0.264062 -0.0862429 220 34 0
0.685745 -0.264062 -0.0862429 221 33 0
0.685745 -0.264062 -0.0862429 222 32 0
0.685745 -0.264062 -0.0862429 224 30 0
0.685745 -0.264062 -0.0862429 225 29 0
0.685745 -0.264062 -0.0862429 226 28 0
0.685745 -0.264062 -0.0862429 228 26 0
0.685745 -0.264062 -0.0862429 229 25 0
0.685745 -0.264062 -0.0862429 230 24 0
0.685745 -0.264062 -0.0862429 231 23 0
0.685745 -0.264062 -0.0862429 233 21 0
0.685745 -0.264062 -0.0862429 234 20 0
0.685745 -0.264062 -0.0862429 235 19 0
0.685745 -0.264062 -0.0862429 237 17 0
0.685745 -0.264062 -0.0862429 238 16 0
0.685745 -0.264062 -0.0862429 239 15 0
0.685745 -0.264062 -0.0862429 240 14 0
0.685745 -0.264062 -0.0862429 242 12 0
0.685745 -0.264062 -0.0862429 243 11 0
0.685745 -0.264062 -0.0862429 244 10 0
0.685745 -0.264062 -0.0862429 246 8 0
0.685745 -0.264062 -0.0862429 247 7 0
0.685745 -0.264062 -0.0862429 248 6 0
0.685745 -0.264062 -0.0862429 249 5 0
0.685745 -0.264062 -0.0862429 251 3 0
0.685745 -0.264062 -0.0862429 252 2 0
0.685745 -0.264062 -0.0862429 253 1 0
0.685745 -0.264062 -0.0862429 255 0 0
