ply
format ascii 1.0
comment Generated by robot_control PLYWriter
element vertex 12
property float x
property float y
property float z
property uchar red
property uchar green
property uchar blue
end_header
0.606735 -0.2313 -0.136772 0 255 0
0.607323 -0.236194 -0.137969 23 231 0
0.60763 -0.241246 -0.138391 46 208 0
0.607878 -0.246307 -0.138632 69 185 0
0.608084 -0.251359 -0.138231 92 162 0
0.60826 -0.256313 -0.137126 115 139 0
0.608373 -0.261167 -0.135624 139 115 0
0.608527 -0.26595 -0.133914 162 92 0
0.608782 -0.270749 -0.13226 185 69 0
0.609003 -0.275585 -0.130716 208 46 0
0.609197 -0.280307 -0.128865 231 23 0
0.609615 -0.285159 -0.127475 255 0 0
