ply
format ascii 1.0
comment Generated by robot_control PLYWriter
element vertex 57
property float x
property float y
property float z
property uchar red
property uchar green
property uchar blue
end_header
0.708053 0.17738 -0.133434 0 255 0
0.713618 0.177292 -0.133345 4 250 0
0.717976 0.173918 -0.133077 9 245 0
0.720901 0.16882 -0.132467 13 241 0
0.724179 0.164258 -0.131712 18 236 0
0.724543 0.158423 -0.130824 22 232 0
0.722507 0.153136 -0.129601 27 227 0
0.719082 0.149584 -0.128351 31 223 0
0.714094 0.147121 -0.127268 36 218 0
0.708428 0.145656 -0.126801 40 214 0
0.703048 0.148183 -0.126827 45 209 0
0.697853 0.150947 -0.127147 50 204 0
0.695044 0.155989 -0.127831 54 200 0
0.694062 0.161828 -0.128505 59 195 0
0.694374 0.167645 -0.129545 63 191 0
0.696876 0.172936 -0.130663 68 186 0
0.700082 0.177636 -0.131694 72 182 0
0.705265 0.180356 -0.132711 77 177 0
0.710753 0.182543 -0.133478 81 173 0
0.716173 0.182472 -0.133903 86 168 0
0.721526 0.17987 -0.134132 91 163 0
0.726406 0.176663 -0.134123 95 159 0
0.730182 0.172088 -0.133812 100 154 0
0.732452 0.166733 -0.133344 104 150 0
0.733379 0.160903 -0.13269 109 145 0
0.732182 0.155353 -0.131738 113 141 0
0.727792 0.151743 -0.130954 118 136 0
0.722182 0.149903 -0.130414 122 132 0
0.716348 0.149919 -0.12993 127 127 0
0.710626 0.151581 -0.12985 132 122 0
0.707089 0.156317 -0.130001 136 118 0
0.704169 0.161493 -0.130428 141 113 0
0.70291 0.16712 -0.131244 145 109 0
0.704368 0.172853 -0.131967 150 104 0
0.707049 0.178 -0.133172 154 100 0
0.711061 0.182229 -0.13428 159 95 0
0.715991 0.185313 -0.135222 163 91 0
0.721848 0.186177 -0.135907 168 86 0
0.727511 0.184694 -0.136659 173 81 0
0.733094 0.182858 -0.137001 177 77 0
0.737307 0.178646 -0.137072 182 72 0
0.741281 0.174281 -0.136904 186 68 0
0.742231 0.168575 -0.13631 191 63 0
0.742016 0.162713 -0.13541 195 59 0
0.738639 0.158185 -0.134389 200 54 0
0.734288 0.154418 -0.133132 204 50 0
0.728651 0.153209 -0.13216 209 45 0
0.72303 0.15445 -0.131542 214 40 0
0.718497 0.158275 -0.131142 218 36 0
0.714736 0.162723 -0.131413 223 31 0
0.71273 0.168279 -0.131899 227 27 0
0.712929 0.174088 -0.133131 232 22 0
0.714719 0.179386 -0.134237 236 18 0
0.717364 0.184038 -0.135998 241 13 0
0.72168 0.187031 -0.137632 245 9 0
0.727013 0.187745 -0.138765 250 4 0
0.731124 0.188675 -0.140112 255 0 0
