ply
format ascii 1.0
comment Generated by robot_control PLYWriter
element vertex 121
property float x
property float y
property float z
property uchar red
property uchar green
property uchar blue
end_header
0.527166 -0.166393 -0.112445 0 255 0
0.531607 -0.167816 -0.110992 2 252 0
0.532341 -0.172744 -0.109825 4 250 0
0.532402 -0.176676 -0.109513 6 248 0
0.5304 -0.179708 -0.10981 8 246 0
0.526718 -0.182351 -0.110711 10 244 0
0.52151 -0.181708 -0.1121 12 242 0
0.517074 -0.17994 -0.113565 14 240 0
0.514406 -0.176166 -0.115008 17 238 0
0.511946 -0.171625 -0.116198 19 235 0
0.51281 -0.166016 -0.117447 21 233 0
0.514573 -0.160671 -0.11771 23 231 0
0.518935 -0.156929 -0.117203 25 229 0
0.524167 -0.156037 -0.116254 27 227 0
0.528602 -0.156892 -0.114661 29 225 0
0.532754 -0.159938 -0.112852 31 223 0
0.533174 -0.165397 -0.111948 34 221 0
0.529932 -0.169642 -0.11192 36 218 0
0.525498 -0.172853 -0.112926 38 216 0
0.520114 -0.171573 -0.114393 40 214 0
0.516301 -0.167476 -0.11615 42 212 0
0.512841 -0.163492 -0.11783 44 210 0
0.51323 -0.157783 -0.119345 46 208 0
0.514161 -0.15205 -0.120283 48 206 0
0.518718 -0.148632 -0.120388 51 204 0
0.523975 -0.146323 -0.119746 53 201 0
0.529433 -0.146206 -0.118242 55 199 0
0.533215 -0.149985 -0.116471 57 197 0
0.534057 -0.155162 -0.115509 59 195 0
0.530425 -0.159788 -0.11505 61 193 0
0.525428 -0.162494 -0.115877 63 191 0
0.519992 -0.161265 -0.117326 65 189 0
0.516039 -0.157338 -0.119122 68 187 0
0.513162 -0.152379 -0.120709 70 184 0
0.512983 -0.146538 -0.121922 72 182 0
0.515018 -0.141352 -0.122809 74 180 0
0.51812 -0.136363 -0.123037 76 178 0
0.523903 -0.135858 -0.122727 78 176 0
0.529439 -0.136756 -0.121727 80 174 0
0.533238 -0.141181 -0.120471 82 172 0
0.533249 -0.146062 -0.11951 85 169 0
0.529829 -0.150873 -0.119569 87 167 0
0.524184 -0.152196 -0.120166 89 165 0
0.519089 -0.149882 -0.120829 91 163 0
0.515346 -0.145326 -0.12179 93 161 0
0.512714 -0.140147 -0.122803 95 159 0
0.513583 -0.134412 -0.123432 97 157 0
0.515993 -0.128954 -0.123738 99 155 0
0.520633 -0.126033 -0.123629 102 153 0
0.526216 -0.124452 -0.12325 104 150 0
0.531475 -0.12722 -0.122782 106 148 0
0.534153 -0.132141 -0.122434 108 146 0
0.533034 -0.137688 -0.122481 110 144 0
0.528029 -0.140741 -0.122675 112 142 0
0.52205 -0.140751 -0.123069 114 140 0
0.516795 -0.139028 -0.123405 116 138 0
0.514296 -0.133654 -0.123673 119 135 0
0.512823 -0.12796 -0.12381 121 133 0
0.51469 -0.122493 -0.123811 123 131 0
0.517452 -0.117294 -0.123573 125 129 0
0.522662 -0.114582 -0.123257 127 127 0
0.528603 -0.114617 -0.122818 129 125 0
0.533513 -0.118035 -0.12261 131 123 0
0.534309 -0.12364 -0.122586 133 121 0
0.531989 -0.12884 -0.122814 136 118 0
0.527311 -0.130962 -0.12312 138 116 0
0.521349 -0.130973 -0.123713 140 114 0
0.516066 -0.128288 -0.123924 142 112 0
0.513554 -0.122849 -0.124092 144 110 0
0.512769 -0.117041 -0.124139 146 108 0
0.515369 -0.111755 -0.124032 148 106 0
0.518424 -0.106604 -0.123804 150 104 0
0.523703 -0.104662 -0.12328 153 101 0
0.529477 -0.105321 -0.122827 155 99 0
0.533582 -0.109532 -0.122512 157 97 0
0.533965 -0.115034 -0.122447 159 95 0
0.530131 -0.119569 -0.122675 161 93 0
0.524776 -0.121094 -0.123245 163 91 0
0.519341 -0.119077 -0.123718 165 89 0
0.515482 -0.114661 -0.124038 167 87 0
0.512773 -0.109444 -0.124158 170 84 0
0.5139 -0.103814 -0.124138 172 82 0
0.516085 -0.0982447 -0.124036 174 80 0
0.521247 -0.0953972 -0.123719 176 78 0
0.527103 -0.0948055 -0.123182 178 76 0
0.532131 -0.0975463 -0.122623 180 74 0
0.53435 -0.10279 -0.122436 182 72 0
0.532612 -0.108077 -0.122551 184 70 0
0.52745 -0.110641 -0.123006 187 67 0
0.521477 -0.110422 -0.1234 189 65 0
0.517012 -0.106781 -0.123718 191 63 0
0.514351 -0.101815 -0.123895 193 61 0
0.513088 -0.0960757 -0.123884 195 59 0
0.514622 -0.0904464 -0.123684 197 57 0
0.518922 -0.086492 -0.123324 199 55 0
0.524097 -0.0836926 -0.123027 201 53 0
0.529656 -0.0849701 -0.122798 204 50 0
0.534253 -0.0882762 -0.122594 206 48 0
0.534398 -0.0942637 -0.122704 208 46 0
0.530467 -0.0985533 -0.122874 210 44 0
0.525252 -0.100652 -0.12313 212 42 0
0.520598 -0.0980703 -0.123435 214 40 0
0.516199 -0.0948864 -0.123439 216 38 0
0.514462 -0.0895958 -0.123077 218 36 0
0.514577 -0.0836303 -0.122549 221 33 0
0.516584 -0.0783088 -0.12182 223 31 0
0.520979 -0.0744545 -0.121276 225 29 0
0.526966 -0.0744572 -0.121058 227 27 0
0.532184 -0.0759064 -0.121307 229 25 0
0.534355 -0.0808987 -0.122027 231 23 0
0.534072 -0.0867826 -0.122629 233 21 0
0.529471 -0.0898748 -0.122993 235 19 0
0.52353 -0.0898862 -0.123122 238 16 0
0.519366 -0.0882476 -0.123043 240 14 0
0.516019 -0.0846468 -0.122629 242 12 0
0.514232 -0.0795019 -0.121996 244 10 0
0.513473 -0.0743889 -0.121154 246 8 0
0.515193 -0.0703978 -0.120345 248 6 0
0.517782 -0.06718 -0.11962 250 4 0
0.520728 -0.0652548 -0.118967 252 2 0
0.524918 -0.0639437 -0.118335 255 0 0
