ply
format ascii 1.0
comment Generated by robot_control PLYWriter
element vertex 10
property float x
property float y
property float z
property uchar red
property uchar green
property uchar blue
end_header
0.574761 -0.0812696 -0.0325409 0 255 0
0.574752 -0.0762335 -0.0329396 28 226 0
0.57475 -0.0711835 -0.0330788 56 198 0
0.574747 -0.0661333 -0.0332122 85 169 0
0.57474 -0.0610849 -0.0334087 113 141 0
0.574734 -0.0560355 -0.033569 141 113 0
0.574732 -0.0509841 -0.0335892 170 84 0
0.574734 -0.0459326 -0.0335025 198 56 0
0.574736 -0.0408808 -0.0334471 226 28 0
0.574735 -0.035829 -0.0334035 255 0 0
