ply
format ascii 1.0
comment Generated by robot_control PLYWriter
element vertex 14
property float x
property float y
property float z
property uchar red
property uchar green
property uchar blue
end_header
0.670597 -0.130181 -0.040131 0 255 0
0.670593 -0.134995 -0.0405511 19 235 0
0.670592 -0.139803 -0.0410286 39 215 0
0.670576 -0.144612 -0.0414782 58 196 0
0.670587 -0.14944 -0.0416478 78 176 0
0.670564 -0.15427 -0.0415381 98 156 0
0.670532 -0.159097 -0.0413204 117 137 0
0.670509 -0.163927 -0.0411725 137 117 0
0.67049 -0.168758 -0.041076 156 98 0
0.670481 -0.17359 -0.041056 176 78 0
0.670515 -0.17842 -0.0411732 196 58 0
0.670593 -0.18324 -0.0414919 215 39 0
0.67068 -0.188052 -0.0419157 235 19 0
0.670822 -0.1928 -0.0427933 255 0 0
