ply
format ascii 1.0
comment Generated by robot_control PLYWriter
element vertex 9
property float x
property float y
property float z
property uchar red
property uchar green
property uchar blue
end_header
0.599106 0.0788088 -0.128683 0 255 0
0.598014 0.0835154 -0.129379 31 223 0
0.596975 0.0882411 -0.130027 63 191 0
0.595934 0.0929743 -0.130622 95 159 0
0.59469 0.0976573 -0.131205 127 127 0
0.593386 0.102322 -0.131814 159 95 0
0.592187 0.10701 -0.132469 191 63 0
0.590927 0.111674 -0.133153 223 31 0
0.589488 0.116272 -0.133916 255 0 0
