ply
format ascii 1.0
comment Generated by robot_control PLYWriter
element vertex 14
property float x
property float y
property float z
property uchar red
property uchar green
property uchar blue
end_header
0.609699 -0.119908 -0.0197223 0 255 0
0.609399 -0.115159 -0.0206141 19 235 0
0.609082 -0.11043 -0.0215908 39 215 0
0.608646 -0.105676 -0.0223981 58 196 0
0.608233 -0.100918 -0.0231961 78 176 0
0.607832 -0.0961741 -0.0240781 98 156 0
0.607558 -0.0914507 -0.0251002 117 137 0
0.607375 -0.0867424 -0.0262164 137 117 0
0.607106 -0.0820351 -0.0273131 156 98 0
0.606707 -0.0773172 -0.0283271 176 78 0
0.606296 -0.0725853 -0.029269 196 58 0
0.605941 -0.0678447 -0.0301838 215 39 0
0.605776 -0.0631258 -0.0312551 235 19 0
0.605471 -0.0584315 -0.0324008 255 0 0
