ply
format ascii 1.0
comment Generated by robot_control PLYWriter
element vertex 11
property float x
property float y
property float z
property uchar red
property uchar green
property uchar blue
end_header
0.601228 -0.402832 -0.110024 0 255 0
0.600638 -0.407642 -0.109287 25 229 0
0.600189 -0.412494 -0.10874 51 204 0
0.599898 -0.417341 -0.108044 76 178 0
0.599669 -0.422198 -0.107396 102 153 0
0.599334 -0.427049 -0.106746 127 127 0
0.599025 -0.431883 -0.105969 153 101 0
0.598878 -0.436671 -0.104919 178 76 0
0.598942 -0.4414 -0.103626 204 50 0
0.59903 -0.446127 -0.102321 229 25 0
0.598943 -0.450742 -0.100674 255 0 0
