ply
format ascii 1.0
comment Generated by robot_control PLYWriter
element vertex 116
property float x
property float y
property float z
property uchar red
property uchar green
property uchar blue
end_header
0.693444 0.0294748 -0.112059 0 255 0
0.698032 0.0280211 -0.113454 2 252 0
0.701662 0.024552 -0.11473 4 250 0
0.704964 0.0198967 -0.115568 6 248 0
0.705464 0.0142191 -0.116091 8 246 0
0.705442 0.00904252 -0.115906 11 243 0
0.702238 0.00448445 -0.115057 13 241 0
0.698003 0.00116035 -0.113768 15 239 0
0.692785 -0.00133852 -0.112547 17 237 0
0.687017 -0.00220656 -0.111714 19 235 0
0.682047 0.000541483 -0.110922 22 232 0
0.676728 0.00312528 -0.110335 24 230 0
0.673198 0.00793935 -0.10997 26 228 0
0.670495 0.013219 -0.109831 28 226 0
0.670321 0.0191862 -0.109859 31 223 0
0.671742 0.0248536 -0.109988 33 221 0
0.675203 0.0296127 -0.110286 35 219 0
0.677941 0.034813 -0.110739 37 217 0
0.682647 0.0383454 -0.11128 39 215 0
0.688291 0.0394772 -0.11215 42 212 0
0.694134 0.0388435 -0.112883 44 210 0
0.699223 0.0358073 -0.113726 46 208 0
0.703701 0.0318763 -0.1142 48 206 0
0.705947 0.0264154 -0.114465 51 204 0
0.70555 0.0206935 -0.11439 53 201 0
0.703321 0.0151829 -0.114089 55 199 0
0.698987 0.0110937 -0.113592 57 197 0
0.693766 0.00840773 -0.11297 59 195 0
0.688011 0.00782761 -0.112247 62 192 0
0.682444 0.00975942 -0.111406 64 190 0
0.677451 0.0130364 -0.110951 66 188 0
0.673145 0.0171573 -0.110538 68 186 0
0.6707 0.0225837 -0.110323 70 184 0
0.670302 0.0284764 -0.110285 73 181 0
0.670221 0.0344619 -0.110465 75 179 0
0.672666 0.0398548 -0.110842 77 177 0
0.676427 0.044488 -0.11128 79 175 0
0.68188 0.0467429 -0.11181 82 172 0
0.687102 0.0494323 -0.112542 84 170 0
0.69304 0.0489618 -0.113133 86 168 0
0.698785 0.0475621 -0.113643 88 166 0
0.702709 0.0430602 -0.113998 90 164 0
0.705142 0.0378758 -0.114108 93 161 0
0.705219 0.0318874 -0.11403 95 159 0
0.703842 0.0262034 -0.113746 97 157 0
0.699451 0.0223714 -0.113314 99 155 0
0.694058 0.0199339 -0.112706 102 153 0
0.688154 0.0193479 -0.112053 104 150 0
0.682436 0.021045 -0.111543 106 148 0
0.67713 0.0237938 -0.11114 108 146 0
0.673513 0.0285128 -0.110849 110 144 0
0.670765 0.0338125 -0.110702 113 141 0
0.670367 0.0396758 -0.110745 115 139 0
0.672014 0.0454147 -0.111002 117 137 0
0.673828 0.0511084 -0.111402 119 135 0
0.677506 0.0554677 -0.111911 121 133 0
0.68251 0.0586587 -0.112523 124 130 0
0.688139 0.0596193 -0.113243 126 128 0
0.693951 0.0583549 -0.113754 128 126 0
0.699367 0.0559897 -0.114165 130 124 0
0.70358 0.0517851 -0.114316 133 121 0
0.705065 0.0464566 -0.114321 135 119 0
0.705087 0.0404747 -0.114158 137 117 0
0.702277 0.0353055 -0.113839 139 115 0
0.698039 0.0311616 -0.113362 141 113 0
0.692388 0.0293839 -0.112752 144 110 0
0.686446 0.0290258 -0.112127 146 108 0
0.680937 0.0303624 -0.111645 148 106 0
0.67628 0.0341078 -0.111297 150 104 0
0.672309 0.0384833 -0.111058 153 101 0
0.670379 0.0440947 -0.111035 155 99 0
0.670499 0.0500815 -0.111184 157 97 0
0.670719 0.0559843 -0.111596 159 95 0
0.674185 0.0608495 -0.11204 161 93 0
0.678639 0.064779 -0.112687 164 90 0
0.68372 0.0678038 -0.113457 166 88 0
0.689414 0.0693632 -0.114091 168 86 0
0.695335 0.0687899 -0.114626 170 84 0
0.700075 0.0652144 -0.115104 172 82 0
0.703014 0.0601597 -0.115298 175 79 0
0.704807 0.0544462 -0.115213 177 77 0
0.704515 0.0487684 -0.114828 179 75 0
0.701057 0.0439082 -0.114409 181 73 0
0.69646 0.0403399 -0.113764 184 70 0
0.690711 0.0393544 -0.113123 186 68 0
0.684812 0.0395927 -0.112254 188 66 0
0.679521 0.0423438 -0.111708 190 64 0
0.674685 0.0456946 -0.111439 192 62 0
0.671686 0.0508759 -0.111386 195 59 0
0.67049 0.0565796 -0.111605 197 57 0
0.670473 0.0625602 -0.111926 199 55 0
0.671758 0.0683187 -0.11239 201 53 0
0.674899 0.0733173 -0.113035 204 50 0
0.679043 0.077603 -0.113601 206 48 0
0.684177 0.0797507 -0.114476 208 46 0
0.69009 0.0791787 -0.115249 210 44 0
0.695738 0.078149 -0.116202 212 42 0
0.700511 0.0745722 -0.116669 215 39 0
0.704531 0.070203 -0.116958 217 37 0
0.705774 0.0647597 -0.116917 219 35 0
0.705022 0.0589454 -0.116518 221 33 0
0.701569 0.0541636 -0.1159 223 31 0
0.697087 0.0508126 -0.11458 226 28 0
0.691568 0.0489888 -0.11348 228 26 0
0.685711 0.0494665 -0.112484 230 24 0
0.680414 0.0513803 -0.111862 232 22 0
0.675501 0.0546647 -0.111466 235 19 0
0.672703 0.0592822 -0.111404 237 17 0
0.670445 0.0645503 -0.111693 239 15 0
0.668992 0.0702498 -0.112029 241 13 0
0.670753 0.07555 -0.112597 243 11 0
0.672318 0.0808416 -0.113323 246 8 0
0.676471 0.0836887 -0.113842 248 6 0
0.679139 0.0864853 -0.114253 250 4 0
0.682342 0.0891216 -0.11478 252 2 0
0.68714 0.0899995 -0.115263 255 0 0
