ply
format ascii 1.0
comment Generated by robot_control PLYWriter
element vertex 140
property float x
property float y
property float z
property uchar red
property uchar green
property uchar blue
end_header
0.585109 -0.0344015 -0.0351076 0 255 0
0.588666 -0.0371184 -0.0342095 1 253 0
0.592549 -0.0407659 -0.0334708 3 251 0
0.594684 -0.0454457 -0.0327621 5 249 0
0.596804 -0.0506012 -0.0322224 7 247 0
0.595138 -0.0558644 -0.031423 9 245 0
0.593882 -0.0612596 -0.0308184 11 243 0
0.590385 -0.065693 -0.0306072 12 242 0
0.585898 -0.0679522 -0.0309062 14 240 0
0.580925 -0.0700357 -0.0317268 16 238 0
0.575292 -0.070478 -0.0330918 18 236 0
0.570353 -0.0681418 -0.0342785 20 234 0
0.566346 -0.0639723 -0.035435 22 232 0
0.56469 -0.0586912 -0.0363206 23 231 0
0.564608 -0.0526852 -0.0363951 25 229 0
0.56844 -0.0485686 -0.0359003 27 227 0
0.573365 -0.0451817 -0.0352938 29 225 0
0.578885 -0.0436025 -0.0345147 31 223 0
0.584382 -0.044002 -0.0338486 33 221 0
0.589279 -0.0473016 -0.0329665 34 220 0
0.593204 -0.0516461 -0.031789 36 218 0
0.595956 -0.0569083 -0.0309241 38 216 0
0.596812 -0.062697 -0.0302254 40 214 0
0.595643 -0.0683797 -0.0298218 42 212 0
0.592843 -0.0736897 -0.0297661 44 210 0
0.588291 -0.0774769 -0.0299842 45 209 0
0.582708 -0.0795508 -0.0305025 47 207 0
0.577195 -0.0799435 -0.0313719 49 205 0
0.571583 -0.0780465 -0.0323649 51 203 0
0.567108 -0.0747869 -0.0336239 53 201 0
0.564779 -0.069364 -0.0342875 55 199 0
0.564693 -0.0633844 -0.0346957 56 198 0
0.567551 -0.0583731 -0.0346112 58 196 0
0.572682 -0.0552897 -0.0341543 60 194 0
0.577986 -0.0525745 -0.0334725 62 192 0
0.583804 -0.0532467 -0.0324953 64 190 0
0.589356 -0.0552957 -0.0314694 66 188 0
0.593688 -0.0587526 -0.0305514 67 187 0
0.59597 -0.0642429 -0.02978 69 185 0
0.596757 -0.0700591 -0.0290165 71 183 0
0.596728 -0.0760598 -0.0287256 73 181 0
0.59377 -0.0811364 -0.0286337 75 179 0
0.589534 -0.0853801 -0.0288074 77 177 0
0.585116 -0.0886437 -0.029191 78 176 0
0.579381 -0.0898634 -0.0298229 80 174 0
0.573989 -0.0891844 -0.0306521 82 172 0
0.569288 -0.0855795 -0.0314756 84 170 0
0.566274 -0.080666 -0.0325093 86 168 0
0.565056 -0.074807 -0.0328918 88 166 0
0.566876 -0.069609 -0.0330322 89 165 0
0.570377 -0.0647352 -0.0329114 91 163 0
0.575808 -0.0625964 -0.032319 93 161 0
0.581771 -0.0628746 -0.0316433 95 159 0
0.58749 -0.0635812 -0.0308584 97 157 0
0.591788 -0.06765 -0.0298471 99 155 0
0.595596 -0.0720576 -0.0289326 100 154 0
0.597846 -0.0775603 -0.0281653 102 152 0
0.597846 -0.0832258 -0.0276887 104 150 0
0.595473 -0.0887021 -0.0274071 106 148 0
0.59154 -0.0931901 -0.0274194 108 146 0
0.587514 -0.0976364 -0.0276711 110 144 0
0.581909 -0.0985321 -0.0281917 111 143 0
0.575946 -0.0986626 -0.0289082 113 141 0
0.57054 -0.0962874 -0.0296699 115 139 0
0.567305 -0.0914407 -0.0304411 117 137 0
0.565659 -0.0856787 -0.0307811 119 135 0
0.5673 -0.0800098 -0.0308659 121 133 0
0.571869 -0.0761408 -0.0307093 122 132 0
0.577219 -0.0735907 -0.0303422 124 130 0
0.58309 -0.072878 -0.0297929 126 128 0
0.588893 -0.0740035 -0.0289908 128 126 0
0.593397 -0.0776469 -0.028157 130 124 0
0.596758 -0.0824641 -0.0270743 132 122 0
0.598626 -0.0881419 -0.0264685 133 121 0
0.598825 -0.0940994 -0.0259784 135 119 0
0.596879 -0.0997601 -0.025763 137 117 0
0.592856 -0.104123 -0.0257505 139 115 0
0.588047 -0.107714 -0.0259378 141 113 0
0.582338 -0.108463 -0.0264305 143 111 0
0.576419 -0.108151 -0.0269741 144 110 0
0.571086 -0.105471 -0.0276524 146 108 0
0.567381 -0.101294 -0.0282911 148 106 0
0.566646 -0.09537 -0.0286874 150 104 0
0.568908 -0.0898222 -0.0288591 152 102 0
0.572114 -0.0849119 -0.0288675 154 100 0
0.577331 -0.082793 -0.0287219 155 99 0
0.583269 -0.0823698 -0.0282315 157 97 0
0.588951 -0.0839218 -0.0276029 159 95 0
0.594323 -0.0864229 -0.0266969 161 93 0
0.597169 -0.0915231 -0.0256807 163 91 0
0.598821 -0.0972343 -0.0250714 165 89 0
0.598675 -0.103196 -0.0246302 166 88 0
0.596185 -0.108648 -0.0243371 168 86 0
0.593518 -0.11389 -0.0243195 170 84 0
0.588711 -0.1174 -0.0244711 172 82 0
0.582944 -0.118301 -0.0247845 174 80 0
0.576955 -0.118284 -0.0252307 176 78 0
0.571776 -0.115371 -0.0258997 177 77 0
0.568531 -0.110872 -0.0265839 179 75 0
0.567451 -0.105036 -0.0272342 181 73 0
0.569117 -0.0994643 -0.0276616 183 71 0
0.572547 -0.0945482 -0.0277807 185 69 0
0.578131 -0.092517 -0.0274823 187 67 0
0.583635 -0.0912492 -0.0270494 188 66 0
0.589007 -0.0937794 -0.0261801 190 64 0
0.59436 -0.0963469 -0.0252807 192 62 0
0.598603 -0.100522 -0.0245709 194 60 0
0.599409 -0.106283 -0.0236605 196 58 0
0.600037 -0.111838 -0.0230863 198 56 0
0.597201 -0.117099 -0.0225377 199 55 0
0.594498 -0.122455 -0.0222193 201 53 0
0.590565 -0.126901 -0.0221767 203 51 0
0.584784 -0.128155 -0.0224989 205 49 0
0.578812 -0.128105 -0.0231549 207 47 0
0.573438 -0.125775 -0.024125 209 45 0
0.569939 -0.121065 -0.0250137 210 44 0
0.568539 -0.115408 -0.0258492 212 42 0
0.568458 -0.109426 -0.0263241 214 40 0
0.572388 -0.105507 -0.0265599 216 38 0
0.577615 -0.102577 -0.026327 218 36 0
0.582984 -0.100635 -0.0257728 220 34 0
0.588662 -0.101637 -0.0247416 221 33 0
0.594066 -0.104135 -0.0239624 223 31 0
0.597633 -0.108761 -0.0230364 225 29 0
0.600649 -0.113879 -0.0221386 227 27 0
0.600788 -0.119709 -0.0209893 229 25 0
0.600115 -0.125378 -0.0202795 231 23 0
0.596679 -0.130224 -0.0198013 232 22 0
0.593112 -0.13407 -0.0196728 234 20 0
0.588394 -0.136886 -0.0198271 236 18 0
0.582736 -0.138619 -0.0202064 238 16 0
0.577302 -0.137452 -0.0211947 240 14 0
0.572906 -0.134459 -0.0223129 242 12 0
0.568985 -0.130634 -0.023577 243 11 0
0.568634 -0.124911 -0.0247389 245 9 0
0.569464 -0.119556 -0.025561 247 7 0
0.572758 -0.11619 -0.0257232 249 5 0
0.575363 -0.112678 -0.0254917 251 3 0
0.579907 -0.110408 -0.0249206 253 1 0
0.584788 -0.110646 -0.0241417 255 0 0
