ply
format ascii 1.0
comment Generated by robot_control PLYWriter
element vertex 59
property float x
property float y
property float z
property uchar red
property uchar green
property uchar blue
end_header
0.630149 0.103962 -0.123807 0 255 0
0.632903 0.101692 -0.122753 4 250 0
0.636464 0.0993276 -0.121215 8 246 0
0.636715 0.0943175 -0.119192 13 241 0
0.636485 0.0889337 -0.117537 17 237 0
0.631798 0.0854852 -0.116897 21 233 0
0.626406 0.0838986 -0.117303 26 228 0
0.620543 0.083915 -0.118344 30 224 0
0.615934 0.0870101 -0.120033 35 219 0
0.6129 0.0916552 -0.121911 39 215 0
0.611813 0.0971015 -0.123881 43 211 0
0.61205 0.102675 -0.125475 48 206 0
0.615275 0.107521 -0.126483 52 202 0
0.618312 0.112538 -0.127112 57 197 0
0.623979 0.114144 -0.127159 61 193 0
0.629881 0.113808 -0.126463 65 189 0
0.63535 0.112005 -0.12548 70 184 0
0.638591 0.107297 -0.124389 74 180 0
0.637757 0.102118 -0.123254 79 175 0
0.635791 0.0969819 -0.122706 83 171 0
0.630171 0.0953403 -0.122664 87 167 0
0.624214 0.0952064 -0.123124 92 162 0
0.618541 0.0965221 -0.124343 96 158 0
0.615094 0.10058 -0.125544 101 153 0
0.613191 0.105964 -0.12713 105 149 0
0.613235 0.111798 -0.128406 109 145 0
0.614435 0.117436 -0.129445 114 140 0
0.618388 0.121748 -0.130159 118 136 0
0.623994 0.123809 -0.130298 123 131 0
0.629366 0.125256 -0.130151 127 127 0
0.634701 0.122818 -0.129345 131 123 0
0.63875 0.118697 -0.128505 136 118 0
0.638484 0.112921 -0.127191 140 114 0
0.63511 0.108071 -0.126682 145 109 0
0.630817 0.104217 -0.12672 149 105 0
0.624967 0.103652 -0.127236 153 101 0
0.619722 0.105954 -0.128112 158 96 0
0.615579 0.110102 -0.129269 162 92 0
0.613279 0.115342 -0.130648 167 87 0
0.612936 0.121105 -0.13215 171 83 0
0.614126 0.126589 -0.133268 175 79 0
0.618442 0.13018 -0.134208 180 74 0
0.623179 0.133809 -0.134537 184 70 0
0.628419 0.135113 -0.134461 189 65 0
0.633928 0.133561 -0.133699 193 61 0
0.63824 0.130038 -0.13257 197 57 0
0.640357 0.125394 -0.131156 202 52 0
0.637958 0.120338 -0.12998 206 48 0
0.633439 0.116733 -0.129537 211 43 0
0.62767 0.115802 -0.129757 215 39 0
0.623067 0.116383 -0.130608 219 35 0
0.617794 0.118937 -0.131776 224 30 0
0.614654 0.122521 -0.133877 228 26 0
0.612398 0.127725 -0.135414 233 21 0
0.612921 0.132499 -0.137211 237 17 0
0.615184 0.13718 -0.138576 241 13 0
0.618686 0.141472 -0.139613 246 8 0
0.623089 0.14344 -0.140479 250 4 0
0.627017 0.145524 -0.140555 255 0 0
