ply
format ascii 1.0
comment Generated by robot_control PLYWriter
element vertex 30
property float x
property float y
property float z
property uchar red
property uchar green
property uchar blue
end_header
0.75697 0.122146 -0.153149 0 255 0
0.760974 0.119092 -0.152311 8 246 0
0.76344 0.11466 -0.150056 17 237 0
0.764894 0.110444 -0.147798 26 228 0
0.763111 0.106164 -0.145062 35 219 0
0.76069 0.101914 -0.143211 43 211 0
0.756218 0.0991113 -0.141289 52 202 0
0.751086 0.0976908 -0.139648 61 193 0
0.745314 0.0983989 -0.138908 70 184 0
0.739693 0.0993493 -0.138472 79 175 0
0.735217 0.103137 -0.138609 87 167 0
0.733527 0.108619 -0.13941 96 158 0
0.732777 0.114214 -0.140674 105 149 0
0.73573 0.1184 -0.142193 114 140 0
0.74133 0.119676 -0.143097 123 131 0
0.746941 0.119095 -0.14318 131 123 0
0.751061 0.115095 -0.142791 140 114 0
0.752121 0.10974 -0.141512 149 105 0
0.751167 0.104135 -0.140116 158 96 0
0.74842 0.0990926 -0.138726 167 87 0
0.744358 0.0958061 -0.13722 175 79 0
0.738961 0.0938154 -0.13593 184 70 0
0.733307 0.0944156 -0.134906 193 61 0
0.727856 0.0966281 -0.134486 202 52 0
0.723643 0.100631 -0.134558 211 43 0
0.720184 0.104828 -0.13553 219 35 0
0.720625 0.110521 -0.137042 228 26 0
0.722708 0.115467 -0.138636 237 17 0
0.726238 0.117593 -0.140465 246 8 0
0.730749 0.118714 -0.141809 255 0 0
