ply
format ascii 1.0
comment Generated by robot_control PLYWriter
element vertex 8
property float x
property float y
property float z
property uchar red
property uchar green
property uchar blue
end_header
0.5567 0.0822186 -0.0380046 0 255 0
0.5567 0.0770534 -0.0380825 36 218 0
0.556288 0.0719048 -0.0381127 72 182 0
0.555861 0.0667573 -0.0381906 109 145 0
0.555432 0.0616094 -0.0382023 145 109 0
0.555006 0.056463 -0.0380727 182 72 0
0.554568 0.0513202 -0.0378606 218 36 0
0.554563 0.0461632 -0.0375736 255 0 0
