ply
format ascii 1.0
comment Generated by robot_control PLYWriter
element vertex 11
property float x
property float y
property float z
property uchar red
property uchar green
property uchar blue
end_header
0.558681 -0.0280244 -0.0414249 0 255 0
0.558716 -0.0327884 -0.0406185 25 229 0
0.558757 -0.0375399 -0.0397421 51 204 0
0.558796 -0.0423053 -0.0389457 76 178 0
0.55873 -0.0470937 -0.0383133 102 153 0
0.558688 -0.0519028 -0.0378619 127 127 0
0.558616 -0.0567262 -0.0376338 153 101 0
0.558535 -0.0615559 -0.0376137 178 76 0
0.558534 -0.0663846 -0.0377578 204 50 0
0.558549 -0.0712059 -0.0380675 229 25 0
0.558553 -0.0760268 -0.0383558 255 0 0
