ply
format ascii 1.0
comment Generated by robot_control PLYWriter
element vertex 17
property float x
property float y
property float z
property uchar red
property uchar green
property uchar blue
end_header
0.522655 0.0986659 -0.110913 0 255 0
0.52101 0.103324 -0.112337 15 239 0
0.519536 0.107962 -0.114006 31 223 0
0.517907 0.112535 -0.115712 47 207 0
0.516286 0.117051 -0.117571 63 191 0
0.5147 0.121528 -0.119548 79 175 0
0.513092 0.125946 -0.12164 95 159 0
0.511495 0.130319 -0.12383 111 143 0
0.510001 0.134704 -0.126069 127 127 0
0.508479 0.139075 -0.128314 143 111 0
0.506892 0.143421 -0.130567 159 95 0
0.505291 0.147756 -0.132829 175 79 0
0.503643 0.152098 -0.135045 191 63 0
0.50198 0.156489 -0.137149 207 47 0
0.500358 0.160927 -0.139185 223 31 0
0.498876 0.165406 -0.141238 239 15 0
0.497245 0.169878 -0.143183 255 0 0
