ply
format ascii 1.0
comment Generated by robot_control PLYWriter
element vertex 132
property float x
property float y
property float z
property uchar red
property uchar green
property uchar blue
end_header
0.61997 -0.222683 -0.132616 0 255 0
0.623231 -0.224894 -0.131904 1 253 0
0.625605 -0.228906 -0.131764 3 251 0
0.626694 -0.234138 -0.132675 5 249 0
0.624945 -0.23803 -0.134108 7 247 0
0.620489 -0.239833 -0.13526 9 245 0
0.616143 -0.242378 -0.136562 11 243 0
0.611316 -0.239417 -0.137545 13 241 0
0.606752 -0.236706 -0.138214 15 239 0
0.604724 -0.231357 -0.138472 17 237 0
0.604063 -0.226057 -0.138202 19 235 0
0.606126 -0.220788 -0.137554 21 233 0
0.609562 -0.216633 -0.136534 23 231 0
0.613833 -0.213059 -0.134909 25 229 0
0.619604 -0.212769 -0.133326 27 227 0
0.624344 -0.215554 -0.132033 29 225 0
0.627176 -0.21937 -0.131272 31 223 0
0.626499 -0.224353 -0.131553 33 221 0
0.62428 -0.229449 -0.132553 35 219 0
0.61953 -0.231749 -0.133706 36 218 0
0.614865 -0.230571 -0.134945 38 216 0
0.609917 -0.228011 -0.136347 40 214 0
0.606348 -0.223517 -0.137307 42 212 0
0.605067 -0.217789 -0.137638 44 210 0
0.606117 -0.211957 -0.13745 46 208 0
0.609091 -0.206886 -0.136669 48 206 0
0.613424 -0.203186 -0.135714 50 204 0
0.619118 -0.203091 -0.134038 52 202 0
0.624749 -0.204336 -0.132697 54 200 0
0.627417 -0.209569 -0.131837 56 198 0
0.628128 -0.215276 -0.131463 58 196 0
0.625233 -0.220242 -0.132047 60 194 0
0.619959 -0.222151 -0.133247 62 192 0
0.614456 -0.222302 -0.134488 64 190 0
0.610242 -0.218207 -0.135744 66 188 0
0.607294 -0.213039 -0.136529 68 186 0
0.606524 -0.207173 -0.136732 70 184 0
0.607586 -0.201421 -0.136381 72 182 0
0.610537 -0.196329 -0.135572 73 181 0
0.61568 -0.193438 -0.134437 75 179 0
0.621268 -0.193224 -0.133161 77 177 0
0.626349 -0.196118 -0.131941 79 175 0
0.628555 -0.201466 -0.131264 81 173 0
0.628608 -0.206964 -0.131585 83 171 0
0.625033 -0.210917 -0.132606 85 169 0
0.619768 -0.212474 -0.133929 87 167 0
0.614274 -0.210607 -0.13486 89 165 0
0.609956 -0.20655 -0.135657 91 163 0
0.607345 -0.201154 -0.135848 93 161 0
0.606627 -0.195316 -0.135651 95 159 0
0.60861 -0.189812 -0.134999 97 157 0
0.613303 -0.186328 -0.133899 99 155 0
0.617923 -0.182854 -0.132553 101 153 0
0.623356 -0.184189 -0.131167 103 151 0
0.628656 -0.186415 -0.130297 105 149 0
0.630802 -0.191726 -0.130045 107 147 0
0.629132 -0.197119 -0.130518 109 145 0
0.625441 -0.201482 -0.131967 110 144 0
0.619856 -0.202825 -0.13311 112 142 0
0.614827 -0.200207 -0.134136 114 140 0
0.610769 -0.195969 -0.134612 116 138 0
0.6084 -0.190459 -0.134617 118 136 0
0.608391 -0.184526 -0.133964 120 134 0
0.610873 -0.179298 -0.133165 122 132 0
0.615369 -0.175796 -0.131885 124 130 0
0.620727 -0.174151 -0.130251 126 128 0
0.626196 -0.175307 -0.128934 128 126 0
0.630014 -0.179745 -0.128379 130 124 0
0.630849 -0.185409 -0.12879 132 122 0
0.627359 -0.190033 -0.129776 134 120 0
0.622222 -0.192652 -0.131087 136 118 0
0.616778 -0.190924 -0.13228 138 116 0
0.612025 -0.187351 -0.132867 140 114 0
0.609156 -0.182666 -0.132931 142 112 0
0.608787 -0.176811 -0.132385 144 110 0
0.61029 -0.171052 -0.131595 145 109 0
0.613623 -0.166721 -0.130509 147 107 0
0.618745 -0.164065 -0.129083 149 105 0
0.624602 -0.164092 -0.127746 151 103 0
0.62937 -0.167012 -0.126634 153 101 0
0.632492 -0.171949 -0.126304 155 99 0
0.631722 -0.17771 -0.126974 157 97 0
0.627456 -0.181537 -0.128153 159 95 0
0.621856 -0.182463 -0.129451 161 93 0
0.616714 -0.181079 -0.130493 163 91 0
0.612719 -0.176869 -0.13091 165 89 0
0.610804 -0.171184 -0.130805 167 87 0
0.610197 -0.165296 -0.130243 169 85 0
0.612367 -0.15984 -0.129135 171 83 0
0.616518 -0.15581 -0.127935 173 81 0
0.621899 -0.154062 -0.126456 175 79 0
0.627275 -0.154956 -0.125205 177 77 0
0.6314 -0.159259 -0.12448 179 75 0
0.632619 -0.164757 -0.124665 181 73 0
0.630546 -0.170095 -0.125764 182 72 0
0.625998 -0.172375 -0.126946 184 70 0
0.620177 -0.172208 -0.128317 186 68 0
0.615385 -0.169355 -0.129031 188 66 0
0.611514 -0.165038 -0.1293 190 64 0
0.61104 -0.159104 -0.12895 192 62 0
0.611432 -0.153385 -0.128138 194 60 0
0.61467 -0.148543 -0.126736 196 58 0
0.619357 -0.145113 -0.125329 198 56 0
0.624827 -0.144017 -0.123605 200 54 0
0.630041 -0.146089 -0.122394 202 52 0
0.633477 -0.150849 -0.122007 204 50 0
0.634051 -0.156592 -0.122719 206 48 0
0.630348 -0.161058 -0.124062 208 46 0
0.625508 -0.164038 -0.125585 210 44 0
0.620027 -0.162158 -0.126801 212 42 0
0.615417 -0.159363 -0.127833 214 40 0
0.612481 -0.154136 -0.128082 216 38 0
0.610838 -0.148396 -0.127873 218 36 0
0.613025 -0.14339 -0.126725 219 35 0
0.614955 -0.138094 -0.125237 221 33 0
0.619309 -0.135469 -0.123328 223 31 0
0.624738 -0.134091 -0.121828 225 29 0
0.629639 -0.135856 -0.119919 227 27 0
0.632819 -0.139366 -0.119403 229 25 0
0.635627 -0.14398 -0.119674 231 23 0
0.633986 -0.14908 -0.120687 233 21 0
0.630603 -0.152605 -0.122239 235 19 0
0.62537 -0.153909 -0.123946 237 17 0
0.620313 -0.152413 -0.125405 239 15 0
0.616512 -0.148702 -0.1265 241 13 0
0.614366 -0.144388 -0.126953 243 11 0
0.613072 -0.139011 -0.126738 245 9 0
0.613758 -0.133699 -0.125801 247 7 0
0.61537 -0.128958 -0.124408 249 5 0
0.617632 -0.126331 -0.123246 251 3 0
0.620437 -0.125977 -0.121684 253 1 0
0.624139 -0.124415 -0.119616 255 0 0
