ply
format ascii 1.0
comment Generated by robot_control PLYWriter
element vertex 13
property float x
property float y
property float z
property uchar red
property uchar green
property uchar blue
end_header
0.47425 -0.258989 -0.126278 0 255 0
0.474532 -0.263766 -0.125586 21 233 0
0.474499 -0.268519 -0.124706 42 212 0
0.474588 -0.273298 -0.123953 63 191 0
0.474525 -0.27804 -0.122979 85 169 0
0.474496 -0.282743 -0.121828 106 148 0
0.474507 -0.287427 -0.1206 127 127 0
0.474472 -0.292092 -0.119303 148 106 0
0.474447 -0.296709 -0.117843 170 84 0
0.474552 -0.30123 -0.116114 191 63 0
0.474606 -0.305698 -0.114249 212 42 0
0.474748 -0.310161 -0.112377 233 21 0
0.474843 -0.314457 -0.110157 255 0 0
