ply
format ascii 1.0
comment Generated by robot_control PLYWriter
element vertex 72
property float x
property float y
property float z
property uchar red
property uchar green
property uchar blue
end_header
0.71039 -0.280544 -0.0186941 0 255 0
0.713852 -0.283628 -0.0193776 3 251 0
0.716323 -0.2885 -0.0199156 7 247 0
0.7177 -0.294156 -0.0200568 10 244 0
0.718453 -0.299769 -0.0202177 14 240 0
0.716234 -0.30488 -0.0206804 17 237 0
0.711908 -0.308878 -0.0213525 21 233 0
0.706358 -0.310387 -0.0221831 25 229 0
0.700415 -0.310872 -0.0229992 28 226 0
0.695542 -0.307381 -0.0232176 32 222 0
0.692748 -0.302511 -0.022984 35 219 0
0.692466 -0.296546 -0.0222769 39 215 0
0.696741 -0.292494 -0.0214365 43 211 0
0.701644 -0.289754 -0.0207737 46 208 0
0.706974 -0.289619 -0.020339 50 204 0
0.712316 -0.292363 -0.0199984 53 201 0
0.716321 -0.29666 -0.0199062 57 197 0
0.718376 -0.302323 -0.0200849 61 193 0
0.718602 -0.308273 -0.0205589 64 190 0
0.716842 -0.314004 -0.0209605 68 186 0
0.712769 -0.318333 -0.0214269 71 183 0
0.707641 -0.320673 -0.021936 75 179 0
0.701657 -0.320547 -0.0225054 79 175 0
0.696883 -0.318479 -0.0229533 82 172 0
0.694094 -0.313136 -0.0230304 86 168 0
0.692718 -0.307486 -0.022802 89 165 0
0.696426 -0.303026 -0.0223565 93 161 0
0.701527 -0.300515 -0.0219818 96 158 0
0.707525 -0.300154 -0.0215033 100 154 0
0.713235 -0.301703 -0.0211234 104 150 0
0.717245 -0.305988 -0.020948 107 147 0
0.718703 -0.311785 -0.0210129 111 143 0
0.720138 -0.317385 -0.0211245 114 140 0
0.717487 -0.322806 -0.0213048 118 136 0
0.713895 -0.327593 -0.0214779 122 132 0
0.708775 -0.330561 -0.0217513 125 129 0
0.702754 -0.330536 -0.022186 129 125 0
0.697324 -0.328474 -0.0226536 132 122 0
0.693882 -0.323612 -0.0228586 136 118 0
0.694646 -0.318174 -0.0226519 140 114 0
0.696807 -0.313375 -0.0223213 143 111 0
0.701524 -0.309742 -0.0220971 147 107 0
0.70739 -0.309244 -0.0219898 150 104 0
0.712842 -0.311656 -0.0219809 154 100 0
0.717641 -0.315306 -0.0219555 158 96 0
0.718735 -0.32113 -0.0218709 161 93 0
0.720236 -0.326624 -0.0217897 165 89 0
0.718006 -0.332231 -0.0217678 168 86 0
0.714987 -0.337436 -0.0218126 172 82 0
0.710132 -0.340677 -0.0219022 175 79 0
0.704105 -0.340376 -0.0220017 179 75 0
0.698352 -0.339215 -0.0219542 183 71 0
0.694733 -0.334629 -0.0219093 186 68 0
0.694871 -0.328608 -0.0219167 190 64 0
0.695786 -0.323417 -0.0219412 193 61 0
0.700981 -0.320371 -0.0219598 197 57 0
0.707004 -0.320695 -0.0220328 201 53 0
0.712351 -0.322235 -0.0221902 204 50 0
0.717448 -0.325376 -0.0222408 208 46 0
0.718738 -0.330878 -0.0222059 211 43 0
0.720476 -0.336186 -0.0221368 215 39 0
0.719772 -0.341969 -0.0220471 219 35 0
0.716413 -0.346961 -0.0219138 222 32 0
0.711514 -0.350335 -0.0216322 226 28 0
0.705683 -0.350702 -0.0209767 229 25 0
0.700102 -0.349815 -0.0205258 233 21 0
0.696672 -0.346387 -0.0202859 237 17 0
0.694241 -0.341326 -0.0205747 240 14 0
0.694849 -0.335587 -0.0211525 244 10 0
0.698244 -0.332635 -0.0219012 247 7 0
0.70194 -0.330347 -0.0226521 251 3 0
0.70723 -0.328779 -0.0232635 255 0 0
