ply
format ascii 1.0
comment Generated by robot_control PLYWriter
element vertex 29
property float x
property float y
property float z
property uchar red
property uchar green
property uchar blue
end_header
0.713305 0.174659 -0.0982378 0 255 0
0.717004 0.171233 -0.0971895 9 245 0
0.719259 0.166227 -0.0964138 18 236 0
0.71853 0.160332 -0.0957736 27 227 0
0.715366 0.155292 -0.095252 36 218 0
0.710987 0.151217 -0.0951872 45 209 0
0.705174 0.150004 -0.0955235 54 200 0
0.699171 0.149941 -0.0961087 63 191 0
0.693501 0.151366 -0.0969714 72 182 0
0.690682 0.156501 -0.0976954 81 173 0
0.688359 0.161899 -0.0984786 91 163 0
0.688476 0.167834 -0.0990289 100 154 0
0.692139 0.172478 -0.0993426 109 145 0
0.697066 0.175132 -0.0991963 118 136 0
0.70273 0.173635 -0.0987421 127 127 0
0.706438 0.170088 -0.0980681 136 118 0
0.708434 0.164563 -0.0971011 145 109 0
0.708558 0.158619 -0.0962667 154 100 0
0.706051 0.153267 -0.0956258 163 91 0
0.701634 0.149319 -0.0952756 173 81 0
0.696248 0.146605 -0.0952791 182 72 0
0.691035 0.148223 -0.0956028 191 63 0
0.685198 0.148947 -0.0962671 200 54 0
0.68065 0.152383 -0.0972184 209 45 0
0.67848 0.157637 -0.0982934 218 36 0
0.677929 0.162455 -0.0997921 227 27 0
0.679754 0.167893 -0.100944 236 18 0
0.683105 0.171937 -0.101685 245 9 0
0.688343 0.173055 -0.101498 255 0 0
