ply
format ascii 1.0
comment Generated by robot_control PLYWriter
element vertex 12
property float x
property float y
property float z
property uchar red
property uchar green
property uchar blue
end_header
0.598643 0.131121 -0.151982 0 255 0
0.59978 0.126176 -0.1508 23 231 0
0.600618 0.121166 -0.149616 46 208 0
0.601509 0.116161 -0.148455 69 185 0
0.602466 0.11115 -0.147368 92 162 0
0.603433 0.106125 -0.146363 115 139 0
0.604263 0.101055 -0.145476 139 115 0
0.605088 0.0959636 -0.14471 162 92 0
0.605976 0.0908664 -0.144053 185 69 0
0.606961 0.0857701 -0.143571 208 46 0
0.607846 0.0806511 -0.143153 231 23 0
0.608642 0.0755093 -0.142837 255 0 0
