ply
format ascii 1.0
comment Generated by robot_control PLYWriter
element vertex 10
property float x
property float y
property float z
property uchar red
property uchar green
property uchar blue
end_header
0.574665 0.0449124 -0.0367052 0 255 0
0.574659 0.0497212 -0.0370954 28 226 0
0.574982 0.054515 -0.0375086 56 198 0
0.575373 0.0593108 -0.0378584 85 169 0
0.575753 0.0641156 -0.0380527 113 141 0
0.576126 0.0689239 -0.0380512 141 113 0
0.576514 0.0737282 -0.0378591 170 84 0
0.576807 0.0785284 -0.0375224 198 56 0
0.576816 0.0833335 -0.0370953 226 28 0
0.576831 0.0881149 -0.0364534 255 0 0
