ply
format ascii 1.0
comment Generated by robot_control PLYWriter
element vertex 72
property float x
property float y
property float z
property uchar red
property uchar green
property uchar blue
end_header
0.597609 -0.211362 -0.0138392 0 255 0
0.601124 -0.214411 -0.0137897 3 251 0
0.604792 -0.216757 -0.0138755 7 247 0
0.604791 -0.222715 -0.0140658 10 244 0
0.602979 -0.227958 -0.0144811 14 240 0
0.599683 -0.231371 -0.0151651 17 237 0
0.594383 -0.23208 -0.0158837 21 233 0
0.588913 -0.230867 -0.016757 25 229 0
0.58355 -0.229305 -0.0171707 28 226 0
0.580687 -0.224148 -0.0173172 32 222 0
0.578669 -0.21866 -0.0171408 35 219 0
0.579885 -0.212952 -0.0166295 39 215 0
0.581709 -0.207454 -0.0160777 43 211 0
0.586197 -0.203723 -0.0152983 46 208 0
0.591558 -0.20117 -0.0146633 50 204 0
0.597119 -0.201997 -0.0141128 53 201 0
0.60183 -0.205562 -0.0138355 57 197 0
0.604776 -0.210403 -0.0138313 61 193 0
0.602971 -0.215978 -0.0140349 64 190 0
0.598897 -0.220309 -0.0146619 68 186 0
0.593471 -0.222459 -0.0152043 71 183 0
0.587609 -0.221479 -0.0156528 75 179 0
0.582597 -0.218277 -0.015977 79 175 0
0.579035 -0.213593 -0.0163024 82 172 0
0.578502 -0.207746 -0.0163785 86 168 0
0.579203 -0.201825 -0.016222 89 165 0
0.581711 -0.196419 -0.0158612 93 161 0
0.586291 -0.19283 -0.015353 96 158 0
0.591582 -0.190661 -0.0148353 100 154 0
0.597114 -0.192667 -0.0143724 104 150 0
0.602044 -0.195754 -0.0140615 107 147 0
0.604067 -0.201128 -0.0137788 111 143 0
0.602779 -0.206512 -0.0137776 114 140 0
0.598448 -0.210643 -0.0141089 118 136 0
0.593095 -0.212475 -0.0145591 122 132 0
0.587397 -0.211551 -0.0152944 125 129 0
0.582593 -0.20802 -0.0158416 129 125 0
0.578998 -0.203347 -0.0162837 132 122 0
0.578371 -0.197422 -0.0164896 136 118 0
0.578573 -0.19142 -0.0164976 140 114 0
0.580838 -0.186318 -0.0163449 143 111 0
0.585668 -0.18291 -0.0160705 147 107 0
0.591228 -0.180744 -0.0156039 150 104 0
0.596962 -0.181774 -0.0149705 154 100 0
0.601225 -0.185713 -0.0143006 158 96 0
0.602691 -0.191369 -0.0139409 161 93 0
0.601958 -0.197069 -0.0138428 165 89 0
0.596995 -0.200331 -0.0141384 168 86 0
0.592004 -0.202757 -0.0148984 172 82 0
0.586579 -0.20122 -0.0158891 175 79 0
0.581854 -0.197683 -0.0166275 179 75 0
0.577677 -0.193437 -0.0172475 183 71 0
0.576598 -0.187836 -0.0176594 186 68 0
0.577475 -0.182242 -0.0178003 190 64 0
0.5806 -0.177114 -0.0177196 193 61 0
0.585175 -0.17344 -0.0172452 197 57 0
0.590754 -0.171902 -0.0163702 201 53 0
0.596298 -0.172289 -0.0155084 204 50 0
0.600589 -0.176336 -0.0145007 208 46 0
0.6027 -0.181433 -0.0138915 211 43 0
0.600729 -0.186616 -0.0138374 215 39 0
0.597857 -0.191353 -0.0142515 219 35 0
0.592185 -0.192407 -0.014886 222 32 0
0.586347 -0.192542 -0.0160893 226 28 0
0.581559 -0.189493 -0.0173727 229 25 0
0.578526 -0.184938 -0.018545 233 21 0
0.576427 -0.179956 -0.019519 237 17 0
0.575926 -0.174062 -0.0198918 240 14 0
0.578174 -0.168904 -0.0195883 244 10 0
0.582041 -0.16499 -0.0185895 247 7 0
0.585663 -0.162829 -0.0171839 251 3 0
0.588982 -0.160674 -0.0161907 255 0 0
