ply
format ascii 1.0
comment Generated by robot_control PLYWriter
element vertex 11
property float x
property float y
property float z
property uchar red
property uchar green
property uchar blue
end_header
0.574767 -0.0783366 -0.0325627 0 255 0
0.574759 -0.0831272 -0.0328762 25 229 0
0.574387 -0.0878921 -0.0333617 51 204 0
0.57397 -0.092579 -0.0343109 76 178 0
0.57356 -0.097191 -0.0355893 102 153 0
0.573157 -0.101778 -0.0369628 127 127 0
0.572744 -0.106376 -0.0382978 153 101 0
0.572447 -0.111012 -0.0395056 178 76 0
0.572428 -0.11571 -0.040509 204 50 0
0.572403 -0.120461 -0.0412308 229 25 0
0.572376 -0.125241 -0.0417197 255 0 0
