ply
format ascii 1.0
comment Generated by robot_control PLYWriter
element vertex 13
property float x
property float y
property float z
property uchar red
property uchar green
property uchar blue
end_header
0.660689 -0.137983 -0.0431139 0 255 0
0.660739 -0.143164 -0.0434197 21 233 0
0.660507 -0.148331 -0.0437833 42 212 0
0.660307 -0.153505 -0.0441306 63 191 0
0.660103 -0.158683 -0.0444306 85 169 0
0.659872 -0.163857 -0.0447552 106 148 0
0.65961 -0.169027 -0.0451389 127 127 0
0.659485 -0.174196 -0.0455826 148 106 0
0.659237 -0.179368 -0.0459376 170 84 0
0.659042 -0.184553 -0.046048 191 63 0
0.658806 -0.189736 -0.045953 212 42 0
0.65881 -0.194924 -0.0460973 233 21 0
0.658806 -0.200114 -0.0461008 255 0 0
