ply
format ascii 1.0
comment Generated by robot_control PLYWriter
element vertex 14
property float x
property float y
property float z
property uchar red
property uchar green
property uchar blue
end_header
0.662492 0.0442186 -0.0400884 0 255 0
0.662507 0.039338 -0.0402582 19 235 0
0.662517 0.0344561 -0.0403778 39 215 0
0.66247 0.0295735 -0.0404683 58 196 0
0.662383 0.0246971 -0.0402797 78 176 0
0.662246 0.019834 -0.0398661 98 156 0
0.662103 0.0149842 -0.0393133 117 137 0
0.661964 0.0101433 -0.0386837 137 117 0
0.661814 0.00530987 -0.0380026 156 98 0
0.661633 0.000478115 -0.0373176 176 78 0
0.661421 -0.00436005 -0.0366877 196 58 0
0.661209 -0.00918662 -0.0359903 215 39 0
0.660891 -0.0139536 -0.0349813 235 19 0
0.660863 -0.0187858 -0.0343066 255 0 0
