ply
format ascii 1.0
comment Generated by robot_control PLYWriter
element vertex 87
property float x
property float y
property float z
property uchar red
property uchar green
property uchar blue
end_header
0.692547 -0.262315 -0.0852508 0 255 0
0.695946 -0.265016 -0.0861638 2 252 0
0.699416 -0.269672 -0.0860503 5 249 0
0.700753 -0.27511 -0.0854644 8 246 0
0.701436 -0.280859 -0.0844597 11 243 0
0.699325 -0.284967 -0.0835771 14 240 0
0.695435 -0.289455 -0.0827761 17 237 0
0.690177 -0.291448 -0.0822458 20 234 0
0.684523 -0.292462 -0.0822521 23 231 0
0.678827 -0.290669 -0.0824872 26 228 0
0.676211 -0.286503 -0.082946 29 225 0
0.674893 -0.280844 -0.0835582 32 222 0
0.676432 -0.275336 -0.0841371 35 219 0
0.680999 -0.272228 -0.0845584 38 216 0
0.68626 -0.270181 -0.0846635 41 213 0
0.691041 -0.272508 -0.0846753 44 210 0
0.695759 -0.274397 -0.0846361 47 207 0
0.698514 -0.279684 -0.0844528 50 204 0
0.701138 -0.284594 -0.08416 53 201 0
0.699698 -0.290251 -0.0836506 56 198 0
0.698279 -0.295476 -0.0829817 59 195 0
0.694072 -0.299592 -0.0824217 62 192 0
0.688814 -0.302044 -0.0819757 65 189 0
0.683144 -0.300981 -0.0818582 68 186 0
0.677975 -0.298411 -0.0818429 71 183 0
0.674524 -0.293784 -0.0819936 74 180 0
0.674741 -0.287792 -0.0822459 77 177 0
0.677699 -0.282936 -0.0827712 80 174 0
0.683295 -0.280948 -0.0831858 83 171 0
0.689226 -0.280677 -0.0837963 85 169 0
0.694898 -0.282269 -0.0841363 88 166 0
0.698191 -0.287278 -0.0843819 91 163 0
0.700635 -0.292732 -0.0845399 94 160 0
0.700603 -0.298519 -0.0845086 97 157 0
0.698567 -0.30412 -0.0841818 100 154 0
0.694873 -0.308801 -0.0837243 103 151 0
0.689421 -0.311025 -0.0830931 106 148 0
0.684016 -0.310648 -0.0825753 109 145 0
0.678497 -0.308516 -0.0821446 112 142 0
0.676533 -0.303301 -0.0815551 115 139 0
0.674609 -0.298108 -0.0811629 118 136 0
0.677953 -0.293138 -0.0810346 121 133 0
0.683049 -0.290332 -0.0817187 124 130 0
0.688359 -0.288766 -0.0826959 127 127 0
0.693253 -0.291243 -0.0835697 130 124 0
0.698016 -0.294644 -0.0845477 133 121 0
0.700486 -0.299657 -0.0851915 136 118 0
0.70027 -0.305556 -0.0856381 139 115 0
0.699437 -0.311224 -0.0858876 142 112 0
0.695751 -0.315881 -0.0858166 145 109 0
0.691015 -0.319462 -0.0852017 148 106 0
0.685308 -0.320462 -0.0843082 151 103 0
0.679994 -0.318439 -0.0831606 154 100 0
0.676461 -0.313914 -0.082277 157 97 0
0.674089 -0.308524 -0.0813813 160 94 0
0.677833 -0.304123 -0.0809431 163 91 0
0.681804 -0.299851 -0.0813854 166 88 0
0.687367 -0.298462 -0.0825091 169 85 0
0.69287 -0.300407 -0.0836114 171 83 0
0.697288 -0.303954 -0.084831 174 80 0
0.699746 -0.309348 -0.0856558 177 77 0
0.700475 -0.31522 -0.086362 180 74 0
0.69955 -0.321018 -0.0868819 183 71 0
0.697091 -0.326487 -0.0869869 186 68 0
0.691623 -0.328644 -0.0865301 189 65 0
0.685845 -0.328831 -0.0851689 192 62 0
0.679993 -0.328353 -0.0839362 195 59 0
0.676434 -0.324049 -0.0832079 198 56 0
0.675679 -0.318945 -0.0823834 201 53 0
0.675762 -0.313769 -0.0820394 204 50 0
0.679993 -0.309618 -0.0824559 207 47 0
0.685292 -0.308291 -0.0834296 210 44 0
0.691021 -0.309158 -0.084871 213 41 0
0.696144 -0.312063 -0.0858605 216 38 0
0.699722 -0.316648 -0.0864798 219 35 0
0.700413 -0.32249 -0.0862583 222 32 0
0.700348 -0.328382 -0.0852473 225 29 0
0.698244 -0.333392 -0.0841296 228 26 0
0.693873 -0.337188 -0.0828964 231 23 0
0.688475 -0.338567 -0.0822793 234 20 0
0.682533 -0.338291 -0.0824194 237 17 0
0.678521 -0.334758 -0.0830878 240 14 0
0.675198 -0.330542 -0.0832847 243 11 0
0.67485 -0.324853 -0.083061 246 8 0
0.677955 -0.320349 -0.0833241 249 5 0
0.68219 -0.318235 -0.0839374 252 2 0
0.686627 -0.318319 -0.0857416 255 0 0
