ply
format ascii 1.0
comment Generated by robot_control PLYWriter
element vertex 88
property float x
property float y
property float z
property uchar red
property uchar green
property uchar blue
end_header
0.690923 -0.318806 -0.0872663 0 255 0
0.695887 -0.321372 -0.0876033 2 252 0
0.698663 -0.325805 -0.08655 5 249 0
0.70058 -0.329807 -0.0845216 8 246 0
0.70078 -0.335108 -0.0819331 11 243 0
0.698767 -0.339557 -0.0791692 14 240 0
0.696983 -0.344719 -0.0771885 17 237 0
0.691888 -0.347116 -0.0757431 20 234 0
0.686452 -0.34881 -0.0758941 23 231 0
0.680911 -0.347118 -0.0771349 26 228 0
0.676675 -0.343809 -0.0789252 29 225 0
0.674658 -0.339067 -0.081217 32 222 0
0.674682 -0.333455 -0.0832446 35 219 0
0.679334 -0.330203 -0.08435 38 216 0
0.684505 -0.328588 -0.0843218 41 213 0
0.690413 -0.328702 -0.0835294 43 211 0
0.694988 -0.332239 -0.0824407 46 208 0
0.698728 -0.336499 -0.0810772 49 205 0
0.699438 -0.34212 -0.0793215 52 202 0
0.699934 -0.347286 -0.0767949 55 199 0
0.697491 -0.352389 -0.0748564 58 196 0
0.693628 -0.355934 -0.0731655 61 193 0
0.688143 -0.358326 -0.0729132 64 190 0
0.682232 -0.358228 -0.0731563 67 187 0
0.67737 -0.35518 -0.0740324 70 184 0
0.673752 -0.350631 -0.0752126 73 181 0
0.673931 -0.345525 -0.0770319 76 178 0
0.677324 -0.341088 -0.0787393 79 175 0
0.682529 -0.338291 -0.0795538 82 172 0
0.688382 -0.339146 -0.0793551 85 169 0
0.693614 -0.341738 -0.0786885 87 167 0
0.697474 -0.346138 -0.0779589 90 164 0
0.698376 -0.351765 -0.076723 93 161 0
0.698215 -0.357469 -0.0749716 96 158 0
0.696271 -0.362756 -0.0731178 99 155 0
0.693333 -0.367408 -0.0715684 102 152 0
0.68804 -0.36898 -0.0707129 105 149 0
0.682138 -0.368191 -0.0702109 108 146 0
0.676472 -0.366412 -0.0700216 111 143 0
0.672926 -0.361681 -0.06993 114 140 0
0.672881 -0.355849 -0.0702135 117 137 0
0.676171 -0.351608 -0.0710852 120 134 0
0.680713 -0.348744 -0.0726989 123 131 0
0.686526 -0.348648 -0.0738762 126 128 0
0.692145 -0.350382 -0.0748172 128 126 0
0.695424 -0.355231 -0.0749574 131 123 0
0.698355 -0.360134 -0.0747697 134 120 0
0.698514 -0.366088 -0.07424 137 117 0
0.696838 -0.371588 -0.0732811 140 114 0
0.692965 -0.376012 -0.0722198 143 111 0
0.68755 -0.377762 -0.0705382 146 108 0
0.681791 -0.378261 -0.0691079 149 105 0
0.676186 -0.377497 -0.0675938 152 102 0
0.67242 -0.373068 -0.0661785 155 99 0
0.672652 -0.36743 -0.0655358 158 96 0
0.674543 -0.362592 -0.0660885 161 93 0
0.679613 -0.359937 -0.0677248 164 90 0
0.685155 -0.359997 -0.0693367 167 87 0
0.690902 -0.360616 -0.0708684 170 84 0
0.694282 -0.365282 -0.0724843 172 82 0
0.696887 -0.37056 -0.0734977 175 79 0
0.697071 -0.376477 -0.0741341 178 76 0
0.69555 -0.38213 -0.0741034 181 73 0
0.692391 -0.387089 -0.073386 184 70 0
0.686929 -0.388472 -0.071747 187 67 0
0.681607 -0.390151 -0.07004 190 64 0
0.676874 -0.388223 -0.0679567 193 61 0
0.672784 -0.384294 -0.0661825 196 58 0
0.670158 -0.379642 -0.0645708 199 55 0
0.671828 -0.374173 -0.0644563 202 52 0
0.676223 -0.370736 -0.0654056 205 49 0
0.681793 -0.370395 -0.0675231 208 46 0
0.686949 -0.370017 -0.0701467 211 43 0
0.691411 -0.37361 -0.0718916 213 41 0
0.695526 -0.377442 -0.0736462 216 38 0
0.696708 -0.383084 -0.0748858 219 35 0
0.69664 -0.389043 -0.07526 222 32 0
0.693333 -0.393933 -0.0748444 225 29 0
0.689219 -0.398043 -0.073876 228 26 0
0.683877 -0.398399 -0.0722827 231 23 0
0.678204 -0.399034 -0.070698 234 20 0
0.674264 -0.396328 -0.0685116 237 17 0
0.671008 -0.392904 -0.0663123 240 14 0
0.669499 -0.388442 -0.064555 243 11 0
0.672452 -0.383808 -0.0643513 246 8 0
0.676884 -0.381678 -0.0658047 249 5 0
0.680849 -0.380774 -0.0684178 252 2 0
0.684861 -0.380511 -0.07062 255 0 0
