ply
format ascii 1.0
comment Generated by robot_control PLYWriter
element vertex 115
property float x
property float y
property float z
property uchar red
property uchar green
property uchar blue
end_header
0.59611 -0.212324 -0.0139839 0 255 0
0.599975 -0.214407 -0.0138424 2 252 0
0.603025 -0.218541 -0.0139399 4 250 0
0.604792 -0.22276 -0.0140385 6 248 0
0.604795 -0.228768 -0.0142226 8 246 0
0.604473 -0.234451 -0.0147795 11 243 0
0.601244 -0.238229 -0.0155829 13 241 0
0.596527 -0.24059 -0.0170299 15 239 0
0.591508 -0.242172 -0.0180611 17 237 0
0.58598 -0.240813 -0.0190443 20 234 0
0.581837 -0.237567 -0.0194612 22 232 0
0.58012 -0.2321 -0.0189602 24 230 0
0.580664 -0.226268 -0.0180094 26 228 0
0.584357 -0.222943 -0.0168554 29 225 0
0.589691 -0.220907 -0.015931 31 223 0
0.595609 -0.220632 -0.0150911 33 221 0
0.600098 -0.22417 -0.0145726 35 219 0
0.603941 -0.22856 -0.0144953 38 216 0
0.606863 -0.233513 -0.0147265 40 214 0
0.606903 -0.239511 -0.0151262 42 212 0
0.604517 -0.244869 -0.0156632 44 210 0
0.60006 -0.248537 -0.0165627 46 208 0
0.595181 -0.251788 -0.0174389 49 205 0
0.589722 -0.252011 -0.0183663 51 203 0
0.58525 -0.248429 -0.0190211 53 201 0
0.580804 -0.244478 -0.0191461 55 199 0
0.58055 -0.238576 -0.0187799 58 196 0
0.583473 -0.233445 -0.0182746 60 194 0
0.588803 -0.230912 -0.0174616 62 192 0
0.594072 -0.230103 -0.0165266 64 190 0
0.59931 -0.232904 -0.0159039 67 187 0
0.604367 -0.236069 -0.0155602 69 185 0
0.606918 -0.241367 -0.0155772 71 183 0
0.606934 -0.247376 -0.0157477 73 181 0
0.605586 -0.253008 -0.0161518 76 178 0
0.601612 -0.257417 -0.0168256 78 176 0
0.596785 -0.260281 -0.0173911 80 174 0
0.590819 -0.26026 -0.0181241 82 172 0
0.585455 -0.259059 -0.0187111 85 169 0
0.582245 -0.254031 -0.0190087 87 167 0
0.582299 -0.249034 -0.0188997 89 165 0
0.584516 -0.243553 -0.0185493 91 163 0
0.589385 -0.240152 -0.0180571 93 161 0
0.595087 -0.238825 -0.0177041 96 158 0
0.600464 -0.24145 -0.0173173 98 156 0
0.604502 -0.245712 -0.0170067 100 154 0
0.60712 -0.251108 -0.0167933 102 152 0
0.607952 -0.256343 -0.0167939 105 149 0
0.606548 -0.262098 -0.0170044 107 147 0
0.603179 -0.26632 -0.0173945 109 145 0
0.598871 -0.270477 -0.0177811 111 143 0
0.592968 -0.270735 -0.0182951 114 140 0
0.58736 -0.269085 -0.01868 116 138 0
0.583854 -0.264313 -0.0188093 118 136 0
0.582633 -0.258615 -0.0187171 120 134 0
0.584063 -0.253298 -0.0184668 123 131 0
0.58927 -0.250386 -0.0181567 125 129 0
0.594647 -0.248986 -0.0179347 127 127 0
0.600519 -0.250193 -0.0177599 129 125 0
0.604701 -0.253947 -0.0176108 131 123 0
0.607407 -0.259307 -0.0175935 134 120 0
0.608808 -0.264973 -0.017689 136 118 0
0.60732 -0.270702 -0.0179132 138 116 0
0.60505 -0.276239 -0.0183548 140 114 0
0.599801 -0.278925 -0.0187678 143 111 0
0.593966 -0.279952 -0.0191016 145 109 0
0.588114 -0.278804 -0.0192353 147 107 0
0.584502 -0.274425 -0.0191919 149 105 0
0.582757 -0.26868 -0.0190095 152 102 0
0.585797 -0.263659 -0.0187139 154 100 0
0.590223 -0.259746 -0.0183711 156 98 0
0.596051 -0.258642 -0.0181788 158 96 0
0.60165 -0.260607 -0.0181302 161 93 0
0.606332 -0.264311 -0.0182222 163 91 0
0.60838 -0.269525 -0.018413 165 89 0
0.610034 -0.275244 -0.0186372 167 87 0
0.608411 -0.280667 -0.0189909 170 84 0
0.604921 -0.285324 -0.0194652 172 82 0
0.599742 -0.288348 -0.0198682 174 80 0
0.594326 -0.29035 -0.0202094 176 78 0
0.588851 -0.288348 -0.0202629 178 76 0
0.585526 -0.283404 -0.0200402 181 73 0
0.584141 -0.277795 -0.0197326 183 71 0
0.585838 -0.272167 -0.0193064 185 69 0
0.591146 -0.269391 -0.0189743 187 67 0
0.59692 -0.268601 -0.0187414 190 64 0
0.602485 -0.270505 -0.0187011 192 62 0
0.607073 -0.274124 -0.0187785 194 60 0
0.609885 -0.279433 -0.0189339 196 58 0
0.610539 -0.285291 -0.0191769 199 55 0
0.608668 -0.290518 -0.0195323 201 53 0
0.605145 -0.295307 -0.0198717 203 51 0
0.600157 -0.298416 -0.0201809 205 49 0
0.594574 -0.299791 -0.0204381 208 46 0
0.589414 -0.29708 -0.0206333 210 44 0
0.585116 -0.292883 -0.0207308 212 42 0
0.584731 -0.287027 -0.0205696 214 40 0
0.586859 -0.281575 -0.0202743 216 38 0
0.591305 -0.279132 -0.0198674 219 35 0
0.59718 -0.278603 -0.0195757 221 33 0
0.602795 -0.279933 -0.019444 223 31 0
0.607955 -0.28292 -0.0194449 225 29 0
0.609883 -0.287982 -0.0195377 228 26 0
0.610543 -0.293719 -0.0196938 230 24 0
0.610486 -0.299729 -0.0197881 232 22 0
0.606726 -0.304271 -0.0198866 234 20 0
0.602177 -0.307253 -0.0201497 237 17 0
0.596493 -0.308516 -0.0206288 239 15 0
0.591445 -0.30748 -0.0212733 241 13 0
0.586878 -0.304472 -0.0215832 243 11 0
0.584632 -0.299396 -0.0216607 246 8 0
0.586901 -0.29429 -0.0213729 248 6 0
0.589818 -0.290336 -0.020795 250 4 0
0.593589 -0.288264 -0.020405 252 2 0
0.598708 -0.286542 -0.0200275 255 0 0
