ply
format ascii 1.0
comment Generated by robot_control PLYWriter
element vertex 140
property float x
property float y
property float z
property uchar red
property uchar green
property uchar blue
end_header
0.58902 -0.111235 -0.0235089 0 255 0
0.592449 -0.112617 -0.0227197 1 253 0
0.597257 -0.114767 -0.0217846 3 251 0
0.600318 -0.118324 -0.0209232 5 249 0
0.6008 -0.123841 -0.020203 7 247 0
0.600791 -0.129815 -0.0194736 9 245 0
0.597641 -0.133348 -0.0191079 11 243 0
0.592873 -0.136453 -0.0191904 12 242 0
0.588 -0.138586 -0.019726 14 240 0
0.582233 -0.13815 -0.0205204 16 238 0
0.577161 -0.135881 -0.0216746 18 236 0
0.572739 -0.132257 -0.0228268 20 234 0
0.570134 -0.127191 -0.0242098 22 232 0
0.56859 -0.121635 -0.0249294 23 231 0
0.568628 -0.115672 -0.025668 25 229 0
0.570928 -0.110341 -0.0260769 27 227 0
0.575161 -0.106083 -0.0262745 29 225 0
0.579413 -0.102881 -0.0260099 31 223 0
0.584861 -0.100652 -0.0254964 33 221 0
0.590807 -0.100651 -0.0246077 34 220 0
0.595511 -0.104148 -0.0238757 36 218 0
0.599102 -0.108898 -0.0230249 38 216 0
0.600825 -0.114157 -0.022163 40 214 0
0.598667 -0.119616 -0.0217085 42 212 0
0.595953 -0.123942 -0.0215482 44 210 0
0.591019 -0.127186 -0.0218383 45 209 0
0.585204 -0.128224 -0.0225527 47 207 0
0.579382 -0.127595 -0.0233782 49 205 0
0.574109 -0.124822 -0.0241386 51 203 0
0.570526 -0.120261 -0.0252654 53 201 0
0.56802 -0.114851 -0.0260518 55 199 0
0.56705 -0.109272 -0.0266358 56 198 0
0.569414 -0.103758 -0.0270748 58 196 0
0.571751 -0.098218 -0.0272972 60 194 0
0.576208 -0.094689 -0.0273677 62 192 0
0.581743 -0.0923446 -0.0270628 64 190 0
0.587366 -0.0918511 -0.0265679 66 188 0
0.593024 -0.0938142 -0.0259564 67 187 0
0.597273 -0.0976429 -0.0250506 69 185 0
0.598762 -0.103279 -0.0243907 71 183 0
0.598445 -0.109211 -0.023996 73 181 0
0.595084 -0.114048 -0.0239243 75 179 0
0.590193 -0.117539 -0.0240723 77 177 0
0.584411 -0.118387 -0.0245294 78 176 0
0.578415 -0.118257 -0.0250657 80 174 0
0.573476 -0.115017 -0.0260729 82 172 0
0.569604 -0.110623 -0.0269139 84 170 0
0.56772 -0.105007 -0.0275624 86 168 0
0.567151 -0.0990479 -0.0279925 88 166 0
0.569127 -0.093592 -0.0282569 89 165 0
0.571772 -0.0881885 -0.0283473 91 163 0
0.576194 -0.0845749 -0.0283105 93 161 0
0.582014 -0.0831246 -0.0281446 95 159 0
0.587955 -0.0823225 -0.0277069 97 157 0
0.59311 -0.0835951 -0.0271072 99 155 0
0.596626 -0.08828 -0.0264118 100 154 0
0.598822 -0.0932498 -0.0257647 102 152 0
0.598533 -0.0991883 -0.0254096 104 150 0
0.595156 -0.104068 -0.0254709 106 148 0
0.590196 -0.107298 -0.0257868 108 146 0
0.584439 -0.108503 -0.0263796 110 144 0
0.578462 -0.108435 -0.027102 111 143 0
0.573806 -0.105246 -0.0278153 113 141 0
0.569315 -0.101312 -0.0285603 115 139 0
0.566886 -0.0959928 -0.0292206 117 137 0
0.566974 -0.0900393 -0.0296438 119 135 0
0.56844 -0.0842531 -0.0300799 121 133 0
0.57043 -0.078571 -0.0301903 122 132 0
0.574715 -0.0743759 -0.0301421 124 130 0
0.580473 -0.0727584 -0.0298802 126 128 0
0.586454 -0.0728463 -0.0293337 128 126 0
0.591763 -0.0737556 -0.0286773 130 124 0
0.595545 -0.0783531 -0.02801 132 122 0
0.598373 -0.0836133 -0.0272801 133 121 0
0.596608 -0.0889978 -0.0268714 135 119 0
0.594359 -0.0945192 -0.0268575 137 117 0
0.589117 -0.0974103 -0.0273782 139 115 0
0.583372 -0.0985131 -0.0281259 141 113 0
0.577439 -0.0986191 -0.0291286 143 111 0
0.572307 -0.0958215 -0.0300472 144 110 0
0.568766 -0.0909896 -0.0306553 146 108 0
0.565765 -0.0858059 -0.0312441 148 106 0
0.565847 -0.0798876 -0.0317766 150 104 0
0.567551 -0.074153 -0.0320608 152 102 0
0.571005 -0.069287 -0.0322757 154 100 0
0.575844 -0.065744 -0.0321941 155 99 0
0.581288 -0.0633226 -0.031638 157 97 0
0.587166 -0.0624075 -0.0308672 159 95 0
0.592592 -0.0644401 -0.0299349 161 93 0
0.596729 -0.0687593 -0.029241 163 91 0
0.596736 -0.0747182 -0.028455 165 89 0
0.596712 -0.0807312 -0.0281966 166 88 0
0.593577 -0.0854603 -0.0282498 168 86 0
0.588492 -0.0885421 -0.0286191 170 84 0
0.582838 -0.0895293 -0.0293826 172 82 0
0.577086 -0.0885187 -0.0303573 174 80 0
0.571558 -0.086805 -0.0313431 176 78 0
0.567982 -0.0821954 -0.032114 177 77 0
0.565675 -0.0767598 -0.0330292 179 75 0
0.56491 -0.0708034 -0.0334675 181 73 0
0.567155 -0.0653227 -0.0338574 183 71 0
0.56914 -0.0597645 -0.0339449 185 69 0
0.573702 -0.0559171 -0.0337502 187 67 0
0.579076 -0.0533216 -0.0333779 188 66 0
0.58493 -0.0528682 -0.0326491 190 64 0
0.590316 -0.0553767 -0.0316815 192 62 0
0.594853 -0.0589774 -0.0305167 194 60 0
0.596796 -0.0644745 -0.029762 196 58 0
0.596592 -0.0704385 -0.0293439 198 56 0
0.593313 -0.0753236 -0.0294154 199 55 0
0.588402 -0.0787728 -0.0298413 201 53 0
0.582636 -0.0802772 -0.0304732 203 51 0
0.576937 -0.0798011 -0.031228 205 49 0
0.571588 -0.077327 -0.0322828 207 47 0
0.567835 -0.0731403 -0.033575 209 45 0
0.565304 -0.0677948 -0.0345785 210 44 0
0.564734 -0.062035 -0.0353662 212 42 0
0.565911 -0.0563225 -0.0357414 214 40 0
0.568361 -0.0508323 -0.0356895 216 38 0
0.572816 -0.0471521 -0.035235 218 36 0
0.577812 -0.0440401 -0.0345822 220 34 0
0.583346 -0.043551 -0.0340676 221 33 0
0.588934 -0.0447449 -0.0334057 223 31 0
0.593162 -0.0489408 -0.0325305 225 29 0
0.596786 -0.053465 -0.031641 227 27 0
0.596172 -0.0592025 -0.0310707 229 25 0
0.593317 -0.0638537 -0.0306283 231 23 0
0.588879 -0.0678972 -0.0306099 232 22 0
0.583752 -0.0703911 -0.0311249 234 20 0
0.57788 -0.0705519 -0.0323419 236 18 0
0.573262 -0.0679481 -0.0336288 238 16 0
0.568171 -0.0660786 -0.0348392 240 14 0
0.565383 -0.0613327 -0.0359807 242 12 0
0.564653 -0.0557224 -0.0368393 243 11 0
0.563987 -0.051252 -0.037394 245 9 0
0.565273 -0.0462861 -0.0378428 247 7 0
0.567173 -0.0416663 -0.0383655 249 5 0
0.571317 -0.0382978 -0.0383982 251 3 0
0.57533 -0.0349322 -0.0378238 253 1 0
0.580328 -0.0341515 -0.0366782 255 0 0
