ply
format ascii 1.0
comment Generated by robot_control PLYWriter
element vertex 57
property float x
property float y
property float z
property uchar red
property uchar green
property uchar blue
end_header
0.682005 0.177406 -0.119482 0 255 0
0.686132 0.174627 -0.118578 4 250 0
0.690695 0.171751 -0.11744 9 245 0
0.694288 0.167082 -0.116491 13 241 0
0.695832 0.161552 -0.115646 18 236 0
0.696848 0.155879 -0.114747 22 232 0
0.695381 0.150199 -0.114061 27 227 0
0.691638 0.145545 -0.113596 31 223 0
0.686973 0.141712 -0.113381 36 218 0
0.68165 0.13913 -0.113434 40 214 0
0.675624 0.139499 -0.113684 45 209 0
0.670256 0.141817 -0.114233 50 204 0
0.666458 0.146452 -0.114999 54 200 0
0.664607 0.152133 -0.115585 59 195 0
0.66541 0.158031 -0.116222 63 191 0
0.667653 0.163584 -0.116598 68 186 0
0.672433 0.167148 -0.116781 72 182 0
0.67815 0.169042 -0.11679 77 177 0
0.684171 0.169314 -0.11665 81 173 0
0.690192 0.168835 -0.11638 86 168 0
0.695472 0.166016 -0.115986 91 163 0
0.700052 0.162187 -0.115316 95 159 0
0.702067 0.156556 -0.114764 100 154 0
0.70331 0.150693 -0.114064 104 150 0
0.703098 0.144682 -0.113568 109 145 0
0.701633 0.138854 -0.113163 113 141 0
0.697306 0.135009 -0.112878 118 136 0
0.691968 0.132182 -0.112742 122 132 0
0.686132 0.130838 -0.11274 127 127 0
0.680808 0.133211 -0.112858 132 122 0
0.67524 0.135538 -0.113109 136 118 0
0.67256 0.140686 -0.113514 141 113 0
0.67122 0.146395 -0.114036 145 109 0
0.672799 0.152219 -0.114409 150 104 0
0.675489 0.1574 -0.114801 154 100 0
0.680461 0.160782 -0.115043 159 95 0
0.686133 0.162749 -0.115149 163 91 0
0.692077 0.163131 -0.115072 168 86 0
0.697918 0.161614 -0.114855 173 81 0
0.703232 0.158977 -0.114476 177 77 0
0.707105 0.154355 -0.114025 182 72 0
0.710619 0.149534 -0.113514 186 68 0
0.711115 0.143537 -0.112915 191 63 0
0.710408 0.137633 -0.112136 195 59 0
0.708192 0.132052 -0.111547 200 54 0
0.704554 0.127436 -0.110916 204 50 0
0.699893 0.12388 -0.110559 209 45 0
0.693871 0.123483 -0.110481 214 40 0
0.688605 0.125535 -0.110609 218 36 0
0.683418 0.127749 -0.110947 223 31 0
0.679841 0.132445 -0.111589 227 27 0
0.678724 0.138227 -0.112432 232 22 0
0.680522 0.143626 -0.113145 236 18 0
0.682831 0.148916 -0.1137 241 13 0
0.687472 0.151782 -0.114091 245 9 0
0.69244 0.154551 -0.114409 250 4 0
0.698349 0.154457 -0.114552 255 0 0
