ply
format ascii 1.0
comment Generated by robot_control PLYWriter
element vertex 16
property float x
property float y
property float z
property uchar red
property uchar green
property uchar blue
end_header
0.599034 0.0596455 -0.113347 0 255 0
0.599338 0.0548138 -0.113841 17 238 0
0.599573 0.0499526 -0.113977 34 221 0
0.599749 0.0450864 -0.114067 51 204 0
0.59991 0.0402213 -0.114219 68 187 0
0.600084 0.0353571 -0.114387 85 169 0
0.600315 0.0304969 -0.114591 102 153 0
0.600476 0.0256378 -0.114864 119 135 0
0.60054 0.02078 -0.115202 136 118 0
0.600599 0.0159246 -0.115577 153 101 0
0.600691 0.0110741 -0.116001 170 84 0
0.60084 0.00623525 -0.116525 187 67 0
0.601109 0.00140802 -0.117112 204 50 0
0.60136 -0.00341718 -0.117715 221 33 0
0.601586 -0.00820978 -0.11855 238 16 0
0.601792 -0.0130258 -0.119228 255 0 0
