ply
format ascii 1.0
comment Generated by robot_control PLYWriter
element vertex 73
property float x
property float y
property float z
property uchar red
property uchar green
property uchar blue
end_header
0.584875 -0.114249 -0.0236375 0 255 0
0.589908 -0.115088 -0.0228449 3 251 0
0.593112 -0.118292 -0.0220505 7 247 0
0.596574 -0.120737 -0.021176 10 244 0
0.598036 -0.126069 -0.0202831 14 240 0
0.598685 -0.131696 -0.0193362 17 237 0
0.596401 -0.136731 -0.0188689 21 233 0
0.592147 -0.140927 -0.0188412 24 230 0
0.587674 -0.144026 -0.019246 28 226 0
0.58207 -0.144881 -0.0198739 31 223 0
0.57707 -0.142999 -0.0206283 35 219 0
0.572994 -0.138827 -0.0215226 38 216 0
0.572938 -0.132943 -0.0222973 42 212 0
0.575231 -0.127914 -0.0224952 46 208 0
0.579206 -0.123633 -0.0222387 49 205 0
0.585016 -0.122511 -0.0218027 53 201 0
0.589896 -0.125194 -0.0210066 56 198 0
0.594711 -0.128501 -0.0199981 60 194 0
0.597356 -0.133824 -0.0192883 63 191 0
0.598659 -0.139463 -0.0186438 67 187 0
0.598304 -0.145338 -0.0182071 70 184 0
0.594256 -0.149428 -0.0181111 74 180 0
0.589013 -0.152311 -0.0182462 77 177 0
0.584042 -0.154567 -0.0187507 81 173 0
0.578572 -0.152475 -0.0192297 85 169 0
0.574245 -0.148401 -0.0199445 88 166 0
0.573576 -0.142739 -0.0202595 92 162 0
0.576033 -0.137285 -0.0203566 95 159 0
0.580481 -0.133485 -0.0201011 99 155 0
0.586168 -0.132358 -0.0196553 102 152 0
0.591555 -0.134716 -0.0190015 106 148 0
0.595617 -0.138708 -0.0182118 109 145 0
0.598278 -0.144031 -0.0175653 113 141 0
0.599298 -0.149877 -0.0171836 116 138 0
0.597969 -0.155639 -0.017042 120 134 0
0.594086 -0.159793 -0.0171747 123 131 0
0.588902 -0.162767 -0.0174437 127 127 0
0.583301 -0.163642 -0.0178447 131 123 0
0.577923 -0.161088 -0.0183568 134 120 0
0.574399 -0.157079 -0.019097 138 116 0
0.574414 -0.151106 -0.0194887 141 113 0
0.576531 -0.145865 -0.0194778 145 109 0
0.581865 -0.14319 -0.0190196 148 106 0
0.587708 -0.142759 -0.0183243 152 102 0
0.592879 -0.144576 -0.0175878 155 99 0
0.596865 -0.148992 -0.0169835 159 95 0
0.600327 -0.153843 -0.0164908 162 92 0
0.600663 -0.159714 -0.0161353 166 88 0
0.599299 -0.165378 -0.0160935 170 84 0
0.595236 -0.169644 -0.0162809 173 81 0
0.590138 -0.172474 -0.0168443 177 77 0
0.584223 -0.172668 -0.0177464 180 74 0
0.578918 -0.17111 -0.0185769 184 70 0
0.575416 -0.166299 -0.0190706 187 67 0
0.574424 -0.160654 -0.0193074 191 63 0
0.577511 -0.155663 -0.0190952 194 60 0
0.582148 -0.152501 -0.0183491 198 56 0
0.588074 -0.152407 -0.0175048 201 53 0
0.593552 -0.153886 -0.0164394 205 49 0
0.597432 -0.158205 -0.0156529 208 46 0
0.600668 -0.163024 -0.0150439 212 42 0
0.60067 -0.169002 -0.0147243 216 38 0
0.599467 -0.1747 -0.0147482 219 35 0
0.595773 -0.179302 -0.0151737 223 31 0
0.591324 -0.182559 -0.01597 226 28 0
0.586043 -0.183132 -0.0170104 230 24 0
0.581104 -0.180763 -0.018277 233 21 0
0.576463 -0.178107 -0.0193018 237 17 0
0.576263 -0.172316 -0.0200818 240 14 0
0.577154 -0.166559 -0.0197802 244 10 0
0.580482 -0.163228 -0.0188628 247 7 0
0.584254 -0.161282 -0.0175855 251 3 0
0.588982 -0.160674 -0.0161907 255 0 0
