ply
format ascii 1.0
comment Generated by robot_control PLYWriter
element vertex 80
property float x
property float y
property float z
property uchar red
property uchar green
property uchar blue
end_header
0.5033 -0.188074 -0.102784 0 255 0
0.507105 -0.190192 -0.103198 3 251 0
0.510446 -0.193921 -0.102631 6 248 0
0.512651 -0.198082 -0.100956 9 245 0
0.512439 -0.203789 -0.0994125 12 242 0
0.510366 -0.208723 -0.098016 16 238 0
0.50742 -0.212791 -0.0976132 19 235 0
0.502252 -0.215018 -0.0976821 22 232 0
0.497097 -0.214796 -0.0978907 25 229 0
0.491965 -0.212543 -0.0979841 29 225 0
0.488852 -0.207564 -0.0979662 32 222 0
0.489461 -0.201736 -0.0980983 35 219 0
0.49372 -0.197572 -0.0983193 38 216 0
0.499103 -0.195725 -0.0984767 41 213 0
0.504266 -0.198844 -0.0984146 45 209 0
0.509293 -0.202121 -0.0981978 48 206 0
0.510992 -0.207853 -0.0981869 51 203 0
0.511082 -0.213877 -0.0984409 54 200 0
0.508836 -0.218932 -0.0988944 58 196 0
0.504758 -0.223211 -0.0993686 61 193 0
0.499038 -0.224394 -0.0998569 64 190 0
0.493204 -0.223584 -0.100298 67 187 0
0.48848 -0.220188 -0.100396 71 183 0
0.486952 -0.21444 -0.0999853 74 180 0
0.48963 -0.209325 -0.0991931 77 177 0
0.494384 -0.205959 -0.0982645 80 174 0
0.499962 -0.206287 -0.0977859 83 171 0
0.505232 -0.208939 -0.0978081 87 167 0
0.508455 -0.213981 -0.0985107 90 164 0
0.508809 -0.219846 -0.0995545 93 161 0
0.508961 -0.225696 -0.100863 96 158 0
0.505152 -0.23002 -0.101885 100 154 0
0.500638 -0.23381 -0.102944 103 151 0
0.494969 -0.234898 -0.103926 106 148 0
0.490171 -0.231502 -0.104295 109 145 0
0.486432 -0.227117 -0.103764 112 142 0
0.486336 -0.221321 -0.102564 116 138 0
0.489106 -0.216758 -0.101352 119 135 0
0.494715 -0.214817 -0.100469 122 132 0
0.500278 -0.215863 -0.099916 125 129 0
0.505109 -0.219094 -0.100177 129 125 0
0.507727 -0.224405 -0.100936 132 122 0
0.509091 -0.229934 -0.101926 135 119 0
0.506679 -0.235264 -0.103071 138 116 0
0.502958 -0.239642 -0.104214 142 112 0
0.497898 -0.24268 -0.105387 145 109 0
0.492113 -0.243126 -0.106607 148 106 0
0.486435 -0.241448 -0.106786 151 103 0
0.484122 -0.236205 -0.106416 154 100 0
0.48525 -0.230566 -0.105507 158 96 0
0.488403 -0.225506 -0.104724 161 93 0
0.494117 -0.224911 -0.10401 164 90 0
0.499927 -0.225096 -0.103787 167 87 0
0.504362 -0.229036 -0.103676 171 83 0
0.506789 -0.234306 -0.103615 174 80 0
0.506855 -0.240329 -0.103436 177 77 0
0.504924 -0.245959 -0.103468 180 74 0
0.501032 -0.250068 -0.103695 183 71 0
0.496232 -0.253061 -0.103996 187 67 0
0.49029 -0.252981 -0.104243 190 64 0
0.484873 -0.25038 -0.104568 193 61 0
0.48274 -0.245019 -0.105301 196 58 0
0.483731 -0.239286 -0.106203 200 54 0
0.486672 -0.234752 -0.106889 203 51 0
0.491999 -0.233694 -0.106908 206 48 0
0.497187 -0.234873 -0.106674 209 45 0
0.501936 -0.237765 -0.106106 213 41 0
0.505231 -0.242118 -0.104976 216 38 0
0.504926 -0.247455 -0.102501 219 35 0
0.504585 -0.252808 -0.099831 222 32 0
0.502245 -0.25746 -0.0971708 225 29 0
0.498207 -0.260797 -0.0944308 229 25 0
0.49302 -0.262271 -0.0922319 232 22 0
0.487625 -0.261523 -0.0928175 235 19 0
0.483115 -0.258286 -0.0951717 238 16 0
0.480894 -0.254476 -0.0987821 242 12 0
0.480735 -0.250448 -0.102239 245 9 0
0.482935 -0.247113 -0.104877 248 6 0
0.48566 -0.244603 -0.106473 251 3 0
0.490701 -0.243136 -0.107294 255 0 0
