ply
format ascii 1.0
comment Generated by robot_control PLYWriter
element vertex 12
property float x
property float y
property float z
property uchar red
property uchar green
property uchar blue
end_header
0.687458 -0.118468 -0.115437 0 255 0
0.687338 -0.123442 -0.116809 23 231 0
0.68728 -0.12845 -0.118053 46 208 0
0.687096 -0.133485 -0.119192 69 185 0
0.687008 -0.138548 -0.12022 92 162 0
0.686937 -0.143645 -0.121055 115 139 0
0.686849 -0.148776 -0.121639 139 115 0
0.686752 -0.153931 -0.121956 162 92 0
0.686639 -0.159094 -0.122019 185 69 0
0.686514 -0.164257 -0.121912 208 46 0
0.686462 -0.169419 -0.121692 231 23 0
0.686435 -0.174576 -0.121372 255 0 0
