ply
format ascii 1.0
comment Generated by robot_control PLYWriter
element vertex 8
property float x
property float y
property float z
property uchar red
property uchar green
property uchar blue
end_header
0.634181 0.054308 -0.146603 0 255 0
0.634545 0.0587831 -0.147849 36 218 0
0.634957 0.0632081 -0.149283 72 182 0
0.635345 0.0676069 -0.150805 109 145 0
0.635749 0.0719756 -0.152408 145 109 0
0.636162 0.0763012 -0.15412 182 72 0
0.636515 0.0805878 -0.155938 218 36 0
0.636641 0.0848918 -0.157749 255 0 0
