ply
format ascii 1.0
comment Generated by robot_control PLYWriter
element vertex 27
property float x
property float y
property float z
property uchar red
property uchar green
property uchar blue
end_header
0.571079 -0.30165 -0.0934686 0 255 0
0.575536 -0.30355 -0.0946254 9 245 0
0.578908 -0.30721 -0.0956911 19 235 0
0.5804 -0.312499 -0.0974722 29 225 0
0.578684 -0.318065 -0.098687 39 215 0
0.575093 -0.322855 -0.0995482 49 205 0
0.56937 -0.324593 -0.0999949 58 196 0
0.563266 -0.324652 -0.100005 68 186 0
0.55729 -0.323771 -0.0996222 78 176 0
0.552301 -0.320726 -0.0988203 88 166 0
0.550562 -0.314933 -0.0980969 98 156 0
0.550724 -0.3091 -0.0966875 107 147 0
0.553635 -0.303791 -0.0959392 117 137 0
0.558654 -0.301915 -0.0954801 127 127 0
0.563234 -0.305134 -0.0956895 137 117 0
0.567864 -0.307652 -0.0963115 147 107 0
0.567931 -0.313209 -0.0972816 156 98 0
0.565331 -0.318523 -0.098127 166 88 0
0.561566 -0.322498 -0.0988884 176 78 0
0.556187 -0.32467 -0.0998053 186 68 0
0.550092 -0.324685 -0.100117 196 58 0
0.544144 -0.323716 -0.100061 205 49 0
0.540147 -0.319563 -0.0995832 215 39 0
0.538554 -0.313839 -0.0988416 225 29 0
0.539335 -0.308043 -0.0977056 235 19 0
0.54156 -0.303918 -0.0965481 245 9 0
0.546573 -0.30272 -0.0956386 255 0 0
