ply
format ascii 1.0
comment Generated by robot_control PLYWriter
element vertex 10
property float x
property float y
property float z
property uchar red
property uchar green
property uchar blue
end_header
0.640465 -0.0264411 -0.0420809 0 255 0
0.640587 -0.0314321 -0.0412603 28 226 0
0.641071 -0.0363903 -0.0403912 56 198 0
0.641401 -0.0413583 -0.0394947 85 169 0
0.641721 -0.0463086 -0.0384947 113 141 0
0.642004 -0.0512757 -0.0375709 141 113 0
0.642245 -0.0562698 -0.0367971 170 84 0
0.642499 -0.0612905 -0.0362259 198 56 0
0.642614 -0.066316 -0.0356763 226 28 0
0.642599 -0.0713704 -0.0354958 255 0 0
