ply
format ascii 1.0
comment Generated by robot_control PLYWriter
element vertex 13
property float x
property float y
property float z
property uchar red
property uchar green
property uchar blue
end_header
0.53774 -0.275437 -0.109052 0 255 0
0.537548 -0.280531 -0.108178 21 233 0
0.536918 -0.28562 -0.107516 42 212 0
0.536404 -0.290728 -0.106878 63 191 0
0.535914 -0.29585 -0.106343 85 169 0
0.535478 -0.300989 -0.105936 106 148 0
0.535055 -0.306132 -0.10558 127 127 0
0.534507 -0.311258 -0.105169 148 106 0
0.534031 -0.316378 -0.104639 170 84 0
0.533738 -0.321502 -0.103989 191 63 0
0.533278 -0.326589 -0.10319 212 42 0
0.532819 -0.331669 -0.102332 233 21 0
0.532189 -0.33668 -0.101223 255 0 0
