ply
format ascii 1.0
comment Generated by robot_control PLYWriter
element vertex 14
property float x
property float y
property float z
property uchar red
property uchar green
property uchar blue
end_header
0.494068 0.116008 -0.111335 0 255 0
0.494525 0.111285 -0.110173 19 235 0
0.495161 0.106547 -0.109118 39 215 0
0.495631 0.101799 -0.10801 58 196 0
0.49607 0.0970254 -0.10701 78 176 0
0.496621 0.0922343 -0.106155 98 156 0
0.497065 0.0874217 -0.105361 117 137 0
0.497612 0.0826192 -0.104572 137 117 0
0.497866 0.0777897 -0.103804 156 98 0
0.498332 0.0729675 -0.103092 176 78 0
0.49893 0.0681535 -0.10242 196 58 0
0.499547 0.063339 -0.101765 215 39 0
0.499938 0.0585115 -0.101064 235 19 0
0.500554 0.0536883 -0.100485 255 0 0
