ply
format ascii 1.0
comment Generated by robot_control PLYWriter
element vertex 10
property float x
property float y
property float z
property uchar red
property uchar green
property uchar blue
end_header
0.548335 -0.0253002 -0.0346212 0 255 0
0.548327 -0.0305451 -0.0345773 28 226 0
0.548319 -0.0357882 -0.034439 56 198 0
0.548332 -0.0410289 -0.0342228 85 169 0
0.548346 -0.0462688 -0.0339877 113 141 0
0.548351 -0.0515082 -0.0337418 141 113 0
0.54837 -0.0567467 -0.0334771 170 84 0
0.548382 -0.0619875 -0.0332738 198 56 0
0.548396 -0.0672264 -0.0330426 226 28 0
0.548408 -0.0724681 -0.0328792 255 0 0
