ply
format ascii 1.0
comment Generated by robot_control PLYWriter
element vertex 59
property float x
property float y
property float z
property uchar red
property uchar green
property uchar blue
end_header
0.714278 0.140943 -0.13819 0 255 0
0.718456 0.138097 -0.137723 4 250 0
0.722085 0.133803 -0.136775 8 246 0
0.724241 0.128885 -0.135319 13 241 0
0.724083 0.123686 -0.133784 17 237 0
0.72245 0.118454 -0.13259 21 233 0
0.718402 0.114903 -0.131171 26 228 0
0.714012 0.112087 -0.129526 30 224 0
0.708176 0.111451 -0.128834 35 219 0
0.702484 0.113109 -0.128835 39 215 0
0.699072 0.117269 -0.129391 43 211 0
0.697118 0.121725 -0.130373 48 206 0
0.69968 0.12705 -0.131534 52 202 0
0.704391 0.130367 -0.13277 57 197 0
0.709807 0.132087 -0.133274 61 193 0
0.715516 0.130193 -0.133392 65 189 0
0.720778 0.127349 -0.13303 70 184 0
0.723689 0.12232 -0.132342 74 180 0
0.725666 0.116698 -0.13147 79 175 0
0.724387 0.111349 -0.130151 83 171 0
0.722434 0.106089 -0.128944 87 167 0
0.717935 0.102214 -0.127936 92 162 0
0.712338 0.101261 -0.127039 96 158 0
0.706523 0.102278 -0.126703 101 153 0
0.701886 0.106032 -0.126974 105 149 0
0.6991 0.111144 -0.127706 109 145 0
0.701135 0.116531 -0.128595 114 140 0
0.705258 0.120379 -0.129349 118 136 0
0.711048 0.121906 -0.129834 123 131 0
0.716617 0.119755 -0.12997 127 127 0
0.721674 0.117317 -0.129775 131 123 0
0.725115 0.112584 -0.129041 136 118 0
0.727006 0.107109 -0.128232 140 114 0
0.726518 0.101332 -0.126932 145 109 0
0.724129 0.0959441 -0.1257 149 105 0
0.720627 0.0916089 -0.124766 153 101 0
0.715028 0.0912023 -0.123872 158 96 0
0.709737 0.0901891 -0.123411 162 92 0
0.704824 0.0936544 -0.123396 167 87 0
0.700699 0.0978796 -0.12385 171 83 0
0.702061 0.103558 -0.124737 175 79 0
0.704478 0.107779 -0.125988 180 74 0
0.70884 0.111332 -0.126859 184 70 0
0.714726 0.110449 -0.127283 189 65 0
0.720606 0.109308 -0.127301 193 61 0
0.725123 0.105438 -0.126949 197 57 0
0.727952 0.100231 -0.12606 202 52 0
0.728057 0.0945086 -0.124924 206 48 0
0.728432 0.088726 -0.123247 211 43 0
0.724946 0.0847536 -0.121564 215 39 0
0.720278 0.0813475 -0.120173 219 35 0
0.715181 0.0790776 -0.119035 224 30 0
0.710118 0.0815107 -0.118551 228 26 0
0.704833 0.0842364 -0.118782 233 21 0
0.702924 0.089362 -0.119995 237 17 0
0.703401 0.0943954 -0.121856 241 13 0
0.706835 0.0978427 -0.123281 246 8 0
0.711193 0.100005 -0.124843 250 4 0
0.716509 0.101127 -0.12562 255 0 0
