ply
format ascii 1.0
comment Generated by robot_control PLYWriter
element vertex 12
property float x
property float y
property float z
property uchar red
property uchar green
property uchar blue
end_header
0.524729 -0.406401 -0.128397 0 255 0
0.523944 -0.411289 -0.128462 23 231 0
0.523612 -0.416208 -0.127973 46 208 0
0.523332 -0.421132 -0.127493 69 185 0
0.523043 -0.426023 -0.126751 92 162 0
0.522802 -0.430852 -0.125682 115 139 0
0.522657 -0.435574 -0.124189 139 115 0
0.522703 -0.440179 -0.12236 162 92 0
0.522707 -0.44465 -0.120219 185 69 0
0.522532 -0.449061 -0.117966 208 46 0
0.52246 -0.453468 -0.115702 231 23 0
0.522329 -0.457695 -0.113118 255 0 0
