ply
format ascii 1.0
comment Generated by robot_control PLYWriter
element vertex 27
property float x
property float y
property float z
property uchar red
property uchar green
property uchar blue
end_header
0.700636 -0.124349 -0.11818 0 255 0
0.705994 -0.125665 -0.118951 9 245 0
0.710547 -0.128155 -0.119982 19 235 0
0.713664 -0.131961 -0.121173 29 225 0
0.716005 -0.137263 -0.122192 39 215 0
0.715037 -0.14304 -0.122767 49 205 0
0.711064 -0.14663 -0.123081 58 196 0
0.706161 -0.149152 -0.122892 68 186 0
0.700982 -0.146894 -0.122171 78 176 0
0.697281 -0.142076 -0.1215 88 166 0
0.698554 -0.137012 -0.120971 98 156 0
0.699635 -0.131395 -0.120574 107 147 0
0.704399 -0.127986 -0.120434 117 137 0
0.709994 -0.125977 -0.120618 127 127 0
0.716094 -0.126043 -0.121001 137 117 0
0.721322 -0.128193 -0.121607 147 107 0
0.724731 -0.133123 -0.122418 156 98 0
0.72625 -0.138769 -0.123171 166 88 0
0.725763 -0.144436 -0.123886 176 78 0
0.721081 -0.14817 -0.124257 186 68 0
0.715458 -0.149168 -0.124181 196 58 0
0.71052 -0.146394 -0.123497 205 49 0
0.708634 -0.140918 -0.122576 215 39 0
0.709219 -0.134999 -0.121667 225 29 0
0.713051 -0.13035 -0.120868 235 19 0
0.717477 -0.127949 -0.120457 245 9 0
0.722456 -0.126116 -0.120341 255 0 0
