ply
format ascii 1.0
comment Generated by robot_control PLYWriter
element vertex 10
property float x
property float y
property float z
property uchar red
property uchar green
property uchar blue
end_header
0.616504 -0.452749 -0.10914 0 255 0
0.616548 -0.448156 -0.111216 28 226 0
0.616644 -0.443536 -0.113229 56 198 0
0.61704 -0.438948 -0.11527 85 169 0
0.617443 -0.434285 -0.117127 113 141 0
0.617765 -0.429511 -0.118707 141 113 0
0.618174 -0.424677 -0.120069 170 84 0
0.618707 -0.419789 -0.121169 198 56 0
0.619314 -0.414841 -0.121904 226 28 0
0.619798 -0.409867 -0.122522 255 0 0
