ply
format ascii 1.0
comment Generated by robot_control PLYWriter
element vertex 8
property float x
property float y
property float z
property uchar red
property uchar green
property uchar blue
end_header
0.524161 0.0733318 -0.126236 0 255 0
0.523931 0.0785615 -0.127009 36 218 0
0.523985 0.0838146 -0.127843 72 182 0
0.523577 0.0890503 -0.128696 109 145 0
0.523165 0.0943035 -0.129431 145 109 0
0.52263 0.0995506 -0.130119 182 72 0
0.522678 0.104827 -0.130773 218 36 0
0.52228 0.110084 -0.131295 255 0 0
