ply
format ascii 1.0
comment Generated by robot_control PLYWriter
element vertex 14
property float x
property float y
property float z
property uchar red
property uchar green
property uchar blue
end_header
0.566709 0.053703 -0.019017 0 255 0
0.566652 0.0488957 -0.019795 19 235 0
0.566766 0.0441288 -0.0207841 39 215 0
0.566788 0.0393664 -0.021803 58 196 0
0.566743 0.0345941 -0.0227743 78 176 0
0.566681 0.0298178 -0.0237249 98 156 0
0.566653 0.0250541 -0.0247384 117 137 0
0.566723 0.0203158 -0.0258628 137 117 0
0.566778 0.0155779 -0.02699 156 98 0
0.566755 0.0108072 -0.0279669 176 78 0
0.566725 0.00601018 -0.0288063 196 58 0
0.566762 0.00119847 -0.0295574 215 39 0
0.566905 -0.00360075 -0.0303687 235 19 0
0.566993 -0.00842792 -0.0309769 255 0 0
