ply
format ascii 1.0
comment Generated by robot_control PLYWriter
element vertex 29
property float x
property float y
property float z
property uchar red
property uchar green
property uchar blue
end_header
0.56256 0.103708 -0.157118 0 255 0
0.566242 0.101357 -0.155254 9 245 0
0.569518 0.0967579 -0.153447 18 236 0
0.573038 0.092496 -0.151027 27 227 0
0.573088 0.0867566 -0.149125 36 218 0
0.570583 0.0819851 -0.147971 45 209 0
0.566207 0.0785132 -0.147476 54 200 0
0.560447 0.0781605 -0.147876 63 191 0
0.555249 0.0811515 -0.148912 72 182 0
0.551753 0.0855168 -0.15065 81 173 0
0.550731 0.0912351 -0.152099 91 163 0
0.553533 0.0963507 -0.153297 100 154 0
0.55808 0.100178 -0.153958 109 145 0
0.563452 0.10294 -0.154462 118 136 0
0.569338 0.10287 -0.154456 127 127 0
0.575083 0.10102 -0.154073 136 118 0
0.579394 0.0969372 -0.153054 145 109 0
0.582843 0.0921009 -0.151731 154 100 0
0.58337 0.0864182 -0.150014 163 91 0
0.581271 0.0812111 -0.148774 173 81 0
0.576994 0.0776064 -0.147645 182 72 0
0.570951 0.0773289 -0.14719 191 63 0
0.565337 0.0789375 -0.147576 200 54 0
0.56293 0.0841411 -0.148626 209 45 0
0.561055 0.08943 -0.150188 218 36 0
0.563573 0.0941962 -0.152042 227 27 0
0.567714 0.0983013 -0.153647 236 18 0
0.57214 0.101279 -0.154902 245 9 0
0.578084 0.101409 -0.155352 255 0 0
