ply
format ascii 1.0
comment Generated by robot_control PLYWriter
element vertex 200
property float x
property float y
property float z
property uchar red
property uchar green
property uchar blue
end_header
0.668422 0.0336815 -0.140432 0 255 0
0.668422 0.0336815 -0.140432 1 253 0
0.668422 0.0336815 -0.140432 2 252 0
0.668422 0.0336815 -0.140432 3 251 0
0.668422 0.0336815 -0.140432 5 249 0
0.668422 0.0336815 -0.140432 6 248 0
0.668422 0.0336815 -0.140432 7 247 0
0.668422 0.0336815 -0.140432 8 246 0
0.668422 0.0336815 -0.140432 10 244 0
0.668422 0.0336815 -0.140432 11 243 0
0.668422 0.0336815 -0.140432 12 242 0
0.668422 0.0336815 -0.140432 14 240 0
0.668422 0.0336815 -0.140432 15 239 0
0.668422 0.0336815 -0.140432 16 238 0
0.668422 0.0336815 -0.140432 17 237 0
0.668422 0.0336815 -0.140432 19 235 0
0.668422 0.0336815 -0.140432 20 234 0
0.668422 0.0336815 -0.140432 21 233 0
0.668422 0.0336815 -0.140432 23 231 0
0.668422 0.0336815 -0.140432 24 230 0
0.668422 0.0336815 -0.140432 25 229 0
0.668422 0.0336815 -0.140432 26 228 0
0.668422 0.0336815 -0.140432 28 226 0
0.668422 0.0336815 -0.140432 29 225 0
0.668422 0.0336815 -0.140432 30 224 0
0.668422 0.0336815 -0.140432 32 222 0
0.668422 0.0336815 -0.140432 33 221 0
0.668422 0.0336815 -0.140432 34 220 0
0.668422 0.0336815 -0.140432 35 219 0
0.668422 0.0336815 -0.140432 37 217 0
0.668422 0.0336815 -0.140432 38 216 0
0.668422 0.0336815 -0.140432 39 215 0
0.668422 0.0336815 -0.140432 41 213 0
0.668422 0.0336815 -0.140432 42 212 0
0.668422 0.0336815 -0.140432 43 211 0
0.668422 0.0336815 -0.140432 44 210 0
0.668422 0.0336815 -0.140432 46 208 0
0.668422 0.0336815 -0.140432 47 207 0
0.668422 0.0336815 -0.140432 48 206 0
0.668422 0.0336815 -0.140432 49 205 0
0.668422 0.0336815 -0.140432 51 203 0
0.668422 0.0336815 -0.140432 52 202 0
0.668422 0.0336815 -0.140432 53 201 0
0.668422 0.0336815 -0.140432 55 199 0
0.668422 0.0336815 -0.140432 56 198 0
0.668422 0.0336815 -0.140432 57 197 0
0.668422 0.0336815 -0.140432 58 196 0
0.668422 0.0336815 -0.140432 60 194 0
0.668422 0.0336815 -0.140432 61 193 0
0.668422 0.0336815 -0.140432 62 192 0
0.668422 0.0336815 -0.140432 64 190 0
0.668422 0.0336815 -0.140432 65 189 0
0.668422 0.0336815 -0.140432 66 188 0
0.668422 0.0336815 -0.140432 67 187 0
0.668422 0.0336815 -0.140432 69 185 0
0.668422 0.0336815 -0.140432 70 184 0
0.668422 0.0336815 -0.140432 71 183 0
0.668422 0.0336815 -0.140432 73 181 0
0.668422 0.0336815 -0.140432 74 180 0
0.668422 0.0336815 -0.140432 75 179 0
0.668422 0.0336815 -0.140432 76 178 0
0.668422 0.0336815 -0.140432 78 176 0
0.668422 0.0336815 -0.140432 79 175 0
0.668422 0.0336815 -0.140432 80 174 0
0.668422 0.0336815 -0.140432 82 172 0
0.668422 0.0336815 -0.140432 83 171 0
0.668422 0.0336815 -0.140432 84 170 0
0.668422 0.0336815 -0.140432 85 169 0
0.668422 0.0336815 -0.140432 87 167 0
0.668422 0.0336815 -0.140432 88 166 0
0.668422 0.0336815 -0.140432 89 165 0
0.668422 0.0336815 -0.140432 90 164 0
0.668422 0.0336815 -0.140432 92 162 0
0.668422 0.0336815 -0.140432 93 161 0
0.668422 0.0336815 -0.140432 94 160 0
0.668422 0.0336815 -0.140432 96 158 0
0.668422 0.0336815 -0.140432 97 157 0
0.668422 0.0336815 -0.140432 98 156 0
0.668422 0.0336815 -0.140432 99 155 0
0.668422 0.0336815 -0.140432 101 153 0
0.668422 0.0336815 -0.140432 102 152 0
0.668422 0.0336815 -0.140432 103 151 0
0.668422 0.0336815 -0.140432 105 149 0
0.668422 0.0336815 -0.140432 106 148 0
0.668422 0.0336815 -0.140432 107 147 0
0.668422 0.0336815 -0.140432 108 146 0
0.668422 0.0336815 -0.140432 110 144 0
0.668422 0.0336815 -0.140432 111 143 0
0.668422 0.0336815 -0.140432 112 142 0
0.668422 0.0336815 -0.140432 114 140 0
0.668422 0.0336815 -0.140432 115 139 0
0.668422 0.0336815 -0.140432 116 138 0
0.668422 0.0336815 -0.140432 117 137 0
0.668422 0.0336815 -0.140432 119 135 0
0.668422 0.0336815 -0.140432 120 134 0
0.668422 0.0336815 -0.140432 121 133 0
0.668422 0.0336815 -0.140432 123 131 0
0.668422 0.0336815 -0.140432 124 130 0
0.668422 0.0336815 -0.140432 125 129 0
0.668422 0.0336815 -0.140432 126 128 0
0.668422 0.0336815 -0.140432 128 126 0
0.668422 0.0336815 -0.140432 129 125 0
0.668422 0.0336815 -0.140432 130 124 0
0.668422 0.0336815 -0.140432 131 123 0
0.668422 0.0336815 -0.140432 133 121 0
0.668422 0.0336815 -0.140432 134 120 0
0.668422 0.0336815 -0.140432 135 119 0
0.668422 0.0336815 -0.140432 137 117 0
0.668422 0.0336815 -0.140432 138 116 0
0.668422 0.0336815 -0.140432 139 115 0
0.668422 0.0336815 -0.140432 140 114 0
0.668422 0.0336815 -0.140432 142 112 0
0.668422 0.0336815 -0.140432 143 111 0
0.668422 0.0336815 -0.140432 144 110 0
0.668422 0.0336815 -0.140432 146 108 0
0.668422 0.0336815 -0.140432 147 107 0
0.668422 0.0336815 -0.140432 148 106 0
0.668422 0.0336815 -0.140432 149 105 0
0.668422 0.0336815 -0.140432 151 103 0
0.668422 0.0336815 -0.140432 152 102 0
0.668422 0.0336815 -0.140432 153 101 0
0.668422 0.0336815 -0.140432 155 99 0
0.668422 0.0336815 -0.140432 156 98 0
0.668422 0.0336815 -0.140432 157 97 0
0.668422 0.0336815 -0.140432 158 96 0
0.668422 0.0336815 -0.140432 160 94 0
0.668422 0.0336815 -0.140432 161 93 0
0.668422 0.0336815 -0.140432 162 92 0
0.668422 0.0336815 -0.140432 164 90 0
0.668422 0.0336815 -0.140432 165 89 0
0.668422 0.0336815 -0.140432 166 88 0
0.668422 0.0336815 -0.140432 167 87 0
0.668422 0.0336815 -0.140432 169 85 0
0.668422 0.0336815 -0.140432 170 84 0
0.668422 0.0336815 -0.140432 171 83 0
0.668422 0.0336815 -0.140432 172 82 0
0.668422 0.0336815 -0.140432 174 80 0
0.668422 0.0336815 -0.140432 175 79 0
0.668422 0.0336815 -0.140432 176 78 0
0.668422 0.0336815 -0.140432 178 76 0
0.668422 0.0336815 -0.140432 179 75 0
0.668422 0.0336815 -0.140432 180 74 0
0.668422 0.0336815 -0.140432 181 73 0
0.668422 0.0336815 -0.140432 183 71 0
0.668422 0.0336815 -0.140432 184 70 0
0.668422 0.0336815 -0.140432 185 69 0
0.668422 0.0336815 -0.140432 187 67 0
0.668422 0.0336815 -0.140432 188 66 0
0.668422 0.0336815 -0.140432 189 65 0
0.668422 0.0336815 -0.140432 190 64 0
0.668422 0.0336815 -0.140432 192 62 0
0.668422 0.0336815 -0.140432 193 61 0
0.668422 0.0336815 -0.140432 194 60 0
0.668422 0.0336815 -0.140432 196 58 0
0.668422 0.0336815 -0.140432 197 57 0
0.668422 0.0336815 -0.140432 198 56 0
0.668422 0.0336815 -0.140432 199 55 0
0.668422 0.0336815 -0.140432 201 53 0
0.668422 0.0336815 -0.140432 202 52 0
0.668422 0.0336815 -0.140432 203 51 0
0.668422 0.0336815 -0.140432 205 49 0
0.668422 0.0336815 -0.140432 206 48 0
0.668422 0.0336815 -0.140432 207 47 0
0.668422 0.0336815 -0.140432 208 46 0
0.668422 0.0336815 -0.140432 210 44 0
0.668422 0.0336815 -0.140432 211 43 0
0.668422 0.0336815 -0.140432 212 42 0
0.668422 0.0336815 -0.140432 213 41 0
0.668422 0.0336815 -0.140432 215 39 0
0.668422 0.0336815 -0.140432 216 38 0
0.668422 0.0336815 -0.140432 217 37 0
0.668422 0.0336815 -0.140432 219 35 0
0.668422 0.0336815 -0.140432 220 34 0
0.668422 0.0336815 -0.140432 221 33 0
0.668422 0.0336815 -0.140432 222 32 0
0.668422 0.0336815 -0.140432 224 30 0
0.668422 0.0336815 -0.140432 225 29 0
0.668422 0.0336815 -0.140432 226 28 0
0.668422 0.0336815 -0.140432 228 26 0
0.668422 0.0336815 -0.140432 229 25 0
0.668422 0.0336815 -0.140432 230 24 0
0.668422 0.0336815 -0.140432 231 23 0
0.668422 0.0336815 -0.140432 233 21 0
0.668422 0.0336815 -0.140432 234 20 0
0.668422 0.0336815 -0.140432 235 19 0
0.668422 0.0336815 -0.140432 237 17 0
0.668422 0.0336815 -0.140432 238 16 0
0.668422 0.0336815 -0.140432 239 15 0
0.668422 0.0336815 -0.140432 240 14 0
0.668422 0.0336815 -0.140432 242 12 0
0.668422 0.0336815 -0.140432 243 11 0
0.668422 0.0336815 -0.140432 244 10 0
0.668422 0.0336815 -0.140432 246 8 0
0.668422 0.0336815 -0.140432 247 7 0
0.668422 0.0336815 -0.140432 248 6 0
0.668422 0.0336815 -0.140432 249 5 0
0.668422 0.0336815 -0.140432 251 3 0
0.668422 0.0336815 -0.140432 252 2 0
0.668422 0.0336815 -0.140432 253 1 0
0.668422 0.0336815 -0.140432 255 0 0
