ply
format ascii 1.0
comment Generated by robot_control PLYWriter
element vertex 116
property float x
property float y
property float z
property uchar red
property uchar green
property uchar blue
end_header
0.56444 0.0691746 -0.108178 0 255 0
0.569109 0.0666333 -0.107879 2 252 0
0.572326 0.0626675 -0.107511 4 250 0
0.574717 0.0578748 -0.107198 6 248 0
0.577137 0.0530782 -0.106827 8 246 0
0.57715 0.0470982 -0.106519 11 243 0
0.574761 0.0423996 -0.106275 13 241 0
0.572514 0.0376167 -0.106049 15 239 0
0.568662 0.033091 -0.105918 17 237 0
0.563747 0.0297417 -0.106004 19 235 0
0.557878 0.0292877 -0.106346 22 232 0
0.55214 0.0302407 -0.106769 24 230 0
0.546695 0.0322469 -0.107338 26 228 0
0.542929 0.0366574 -0.107697 28 226 0
0.540948 0.0420265 -0.108102 31 223 0
0.541627 0.0475767 -0.108272 33 221 0
0.543449 0.0528677 -0.108327 35 219 0
0.547885 0.0568788 -0.108244 37 217 0
0.552947 0.0595141 -0.107977 39 215 0
0.558915 0.0597244 -0.107637 42 212 0
0.564834 0.0594512 -0.107362 44 210 0
0.569921 0.0564254 -0.107097 46 208 0
0.57342 0.0516412 -0.106816 48 206 0
0.576471 0.0465105 -0.10657 51 204 0
0.577159 0.0407386 -0.106402 53 201 0
0.576749 0.0348282 -0.106197 55 199 0
0.574593 0.0292462 -0.106133 57 197 0
0.571034 0.0245541 -0.106186 59 195 0
0.566083 0.0212215 -0.106318 62 192 0
0.560359 0.019893 -0.106628 64 190 0
0.554379 0.020056 -0.106896 66 188 0
0.548687 0.0217315 -0.107118 68 186 0
0.544499 0.025921 -0.107263 70 184 0
0.542299 0.0311731 -0.107312 73 181 0
0.542463 0.0371583 -0.107344 75 179 0
0.544307 0.0425843 -0.107334 77 177 0
0.548146 0.0471676 -0.107203 79 175 0
0.553599 0.0494949 -0.106996 82 172 0
0.559581 0.0495124 -0.10671 84 170 0
0.565437 0.0489714 -0.106414 86 168 0
0.570457 0.045834 -0.106171 88 166 0
0.574718 0.0416283 -0.106028 90 164 0
0.577164 0.0363131 -0.105867 93 161 0
0.577189 0.0303248 -0.105798 95 159 0
0.577187 0.0243361 -0.105808 97 157 0
0.574221 0.0192566 -0.105926 99 155 0
0.570258 0.0148197 -0.10609 102 153 0
0.564988 0.0119822 -0.106279 104 150 0
0.559291 0.0101958 -0.106523 106 148 0
0.553356 0.00948538 -0.106789 108 146 0
0.548188 0.0123744 -0.106974 110 144 0
0.544939 0.0174013 -0.107054 113 141 0
0.542571 0.0228762 -0.107085 115 139 0
0.54211 0.0287304 -0.107133 117 137 0
0.545004 0.033669 -0.107138 119 135 0
0.549391 0.0377436 -0.107015 121 133 0
0.554506 0.040705 -0.106797 124 130 0
0.560318 0.0415257 -0.106547 126 128 0
0.565763 0.0396509 -0.106306 128 126 0
0.570287 0.035901 -0.106061 130 124 0
0.574244 0.0315065 -0.105836 133 121 0
0.577188 0.0269786 -0.105718 135 119 0
0.577188 0.0209902 -0.105653 137 117 0
0.577115 0.0150095 -0.105658 139 115 0
0.574428 0.00967854 -0.105745 141 113 0
0.570478 0.00518077 -0.105901 144 110 0
0.566072 0.00123896 -0.106132 146 108 0
0.560363 -6.92745e-05 -0.106409 148 106 0
0.554587 0.00147521 -0.106658 150 104 0
0.549016 0.00289326 -0.106871 153 101 0
0.54463 0.00678975 -0.106947 155 99 0
0.54266 0.0123969 -0.106974 157 97 0
0.542617 0.0183791 -0.106977 159 95 0
0.544644 0.0234914 -0.106981 161 93 0
0.548999 0.0275908 -0.106916 164 90 0
0.553928 0.0307625 -0.106721 166 88 0
0.559841 0.0309289 -0.106476 168 86 0
0.565583 0.0294196 -0.106174 170 84 0
0.570342 0.0258341 -0.105929 172 82 0
0.574865 0.021913 -0.105777 175 79 0
0.577398 0.016597 -0.105682 177 77 0
0.57855 0.0108261 -0.105668 179 75 0
0.577001 0.00504361 -0.105686 181 73 0
0.574901 -0.000564919 -0.105717 184 70 0
0.570906 -0.00476986 -0.105865 186 68 0
0.565413 -0.00714454 -0.106069 188 66 0
0.559666 -0.00827798 -0.106329 190 64 0
0.553742 -0.00883042 -0.106657 192 62 0
0.548391 -0.00641374 -0.106888 195 59 0
0.544662 -0.00174018 -0.107048 197 57 0
0.542657 0.00359409 -0.107156 199 55 0
0.542691 0.00958265 -0.10718 201 53 0
0.54557 0.014405 -0.107145 204 50 0
0.549841 0.0185952 -0.106989 206 48 0
0.555103 0.0211265 -0.106748 208 46 0
0.561033 0.0214957 -0.10646 210 44 0
0.566874 0.0206587 -0.106093 212 42 0
0.572016 0.0177475 -0.105855 215 39 0
0.575271 0.0127577 -0.105751 217 37 0
0.57803 0.00751719 -0.105781 219 35 0
0.578757 0.00164897 -0.105883 221 33 0
0.578687 -0.00432654 -0.105975 223 31 0
0.575898 -0.00947836 -0.106119 226 28 0
0.572418 -0.0143006 -0.106298 228 26 0
0.567607 -0.0178382 -0.106533 230 24 0
0.561797 -0.0184234 -0.106757 232 22 0
0.555815 -0.0184125 -0.107018 235 19 0
0.550395 -0.0165486 -0.107211 237 17 0
0.546349 -0.0122996 -0.10742 239 15 0
0.543546 -0.00761522 -0.107612 241 13 0
0.54265 -0.00210017 -0.107675 243 11 0
0.545 0.00265508 -0.107572 246 8 0
0.547528 0.00661092 -0.107241 248 6 0
0.550722 0.00969235 -0.106703 250 4 0
0.555712 0.0117628 -0.106128 252 2 0
0.561237 0.0116717 -0.105454 255 0 0
