ply
format ascii 1.0
comment Generated by robot_control PLYWriter
element vertex 10
property float x
property float y
property float z
property uchar red
property uchar green
property uchar blue
end_header
0.569142 -0.36603 -0.106128 0 255 0
0.569152 -0.360915 -0.106032 28 226 0
0.569275 -0.355806 -0.105932 56 198 0
0.569399 -0.350702 -0.105771 85 169 0
0.569542 -0.345626 -0.105177 113 141 0
0.569792 -0.340582 -0.10436 141 113 0
0.570045 -0.335564 -0.103397 170 84 0
0.570302 -0.330573 -0.102299 198 56 0
0.570612 -0.325598 -0.101159 226 28 0
0.570921 -0.32067 -0.0998585 255 0 0
