ply
format ascii 1.0
comment Generated by robot_control PLYWriter
element vertex 14
property float x
property float y
property float z
property uchar red
property uchar green
property uchar blue
end_header
0.634573 -0.135787 -0.0425153 0 255 0
0.634607 -0.140792 -0.0429381 19 235 0
0.634645 -0.145788 -0.0434601 39 215 0
0.634444 -0.150781 -0.0439727 58 196 0
0.634241 -0.15578 -0.0444266 78 176 0
0.634002 -0.160779 -0.0448604 98 156 0
0.633784 -0.165782 -0.0452654 117 137 0
0.633561 -0.17079 -0.0455994 137 117 0
0.633302 -0.175803 -0.0457665 156 98 0
0.633099 -0.180818 -0.0455637 176 78 0
0.632906 -0.185805 -0.0449864 196 58 0
0.632685 -0.190749 -0.0441278 215 39 0
0.632689 -0.195715 -0.043384 235 19 0
0.632732 -0.200614 -0.0422746 255 0 0
