ply
format ascii 1.0
comment Generated by robot_control PLYWriter
element vertex 10
property float x
property float y
property float z
property uchar red
property uchar green
property uchar blue
end_header
0.642692 -0.120412 -0.0384727 0 255 0
0.642741 -0.115417 -0.0395345 28 226 0
0.64276 -0.110283 -0.0394358 56 198 0
0.642761 -0.105145 -0.0394161 85 169 0
0.64273 -0.100013 -0.03917 113 141 0
0.642733 -0.0948949 -0.0387144 141 113 0
0.642783 -0.0897848 -0.0381699 170 84 0
0.642789 -0.0846695 -0.0376776 198 56 0
0.642764 -0.0795451 -0.0372909 226 28 0
0.642801 -0.0744283 -0.0377184 255 0 0
