ply
format ascii 1.0
comment Generated by robot_control PLYWriter
element vertex 8
property float x
property float y
property float z
property uchar red
property uchar green
property uchar blue
end_header
0.691832 -0.003038 -0.103332 0 255 0
0.691431 -0.00810171 -0.10183 36 218 0
0.691216 -0.0132292 -0.100497 72 182 0
0.690433 -0.0183759 -0.0994841 109 145 0
0.689971 -0.023584 -0.0985936 145 109 0
0.689677 -0.0288237 -0.0978245 182 72 0
0.689255 -0.0340663 -0.0971464 218 36 0
0.688897 -0.0392732 -0.0963544 255 0 0
