ply
format ascii 1.0
comment Generated by robot_control PLYWriter
element vertex 12
property float x
property float y
property float z
property uchar red
property uchar green
property uchar blue
end_header
0.518515 0.0610383 -0.116713 0 255 0
0.518492 0.0659332 -0.116824 23 231 0
0.518447 0.0708091 -0.117294 46 208 0
0.518336 0.0756801 -0.117773 69 185 0
0.518045 0.080509 -0.118541 92 162 0
0.517738 0.0852907 -0.119564 115 139 0
0.517511 0.0900453 -0.120726 139 115 0
0.517292 0.0948031 -0.121876 162 92 0
0.517073 0.099567 -0.123 185 69 0
0.516851 0.104338 -0.124094 208 46 0
0.516549 0.109098 -0.125205 231 23 0
0.516716 0.113921 -0.126043 255 0 0
