ply
format ascii 1.0
comment Generated by robot_control PLYWriter
element vertex 14
property float x
property float y
property float z
property uchar red
property uchar green
property uchar blue
end_header
0.66071 -0.0236681 -0.0344182 0 255 0
0.660751 -0.0188527 -0.0346484 19 235 0
0.660974 -0.0140969 -0.0354164 39 215 0
0.661205 -0.00931927 -0.0360446 58 196 0
0.661404 -0.00453492 -0.0366487 78 176 0
0.661612 0.000246757 -0.0372706 98 156 0
0.661796 0.00502289 -0.0379391 117 137 0
0.66195 0.00979761 -0.0386267 137 117 0
0.662092 0.0145797 -0.0392632 156 98 0
0.662274 0.0193695 -0.0398208 176 78 0
0.662519 0.024169 -0.0402509 196 58 0
0.662606 0.028987 -0.0405189 215 39 0
0.662632 0.0338118 -0.0405819 235 19 0
0.662649 0.0386367 -0.0404631 255 0 0
