ply
format ascii 1.0
comment Generated by robot_control PLYWriter
element vertex 10
property float x
property float y
property float z
property uchar red
property uchar green
property uchar blue
end_header
0.660635 -0.0264595 -0.0345874 0 255 0
0.660554 -0.0316578 -0.0347766 28 226 0
0.660518 -0.0368546 -0.035009 56 198 0
0.660484 -0.0420521 -0.0352173 85 169 0
0.660483 -0.0472522 -0.0353688 113 141 0
0.660487 -0.0524504 -0.0355671 141 113 0
0.660524 -0.0576461 -0.0358271 170 84 0
0.66056 -0.0628412 -0.036099 198 56 0
0.660581 -0.0680371 -0.036355 226 28 0
0.660619 -0.0732261 -0.0367175 255 0 0
