ply
format ascii 1.0
comment Generated by robot_control PLYWriter
element vertex 9
property float x
property float y
property float z
property uchar red
property uchar green
property uchar blue
end_header
0.612659 -0.00633997 -0.116837 0 255 0
0.612746 -0.00161453 -0.117079 31 223 0
0.612768 0.00310879 -0.117376 63 191 0
0.612816 0.00782808 -0.117727 95 159 0
0.61285 0.012547 -0.118086 127 127 0
0.612843 0.0172666 -0.118436 159 95 0
0.612815 0.0219856 -0.118795 191 63 0
0.612815 0.0267044 -0.119156 223 31 0
0.612785 0.0314296 -0.119421 255 0 0
