ply
format ascii 1.0
comment Generated by robot_control PLYWriter
element vertex 29
property float x
property float y
property float z
property uchar red
property uchar green
property uchar blue
end_header
0.683766 0.0762368 -0.140937 0 255 0
0.687053 0.0743112 -0.140065 9 245 0
0.690952 0.0722451 -0.138902 18 236 0
0.694142 0.0674951 -0.137702 27 227 0
0.695207 0.0622002 -0.135886 36 218 0
0.695095 0.0566068 -0.134026 45 209 0
0.691021 0.0529194 -0.132682 54 200 0
0.685796 0.0503102 -0.131858 63 191 0
0.68 0.050466 -0.131776 72 182 0
0.675352 0.0536972 -0.132219 81 173 0
0.673142 0.0588242 -0.133332 91 163 0
0.674535 0.0644588 -0.134228 100 154 0
0.677881 0.0690269 -0.135317 109 145 0
0.683229 0.0695292 -0.136054 118 136 0
0.689053 0.0691545 -0.136335 127 127 0
0.694403 0.0671233 -0.136279 136 118 0
0.699134 0.0635913 -0.135783 145 109 0
0.702576 0.0589074 -0.13485 154 100 0
0.703469 0.0532981 -0.133707 163 91 0
0.702804 0.047534 -0.132519 173 81 0
0.698502 0.044287 -0.131013 182 72 0
0.693242 0.0422893 -0.129629 191 63 0
0.688199 0.042577 -0.129067 200 54 0
0.683287 0.0451114 -0.129145 209 45 0
0.681172 0.0504801 -0.129738 218 36 0
0.681816 0.0559139 -0.131646 227 27 0
0.685819 0.0600023 -0.133162 236 18 0
0.690665 0.0623989 -0.134429 245 9 0
0.695354 0.0615371 -0.1355 255 0 0
