ply
format ascii 1.0
comment Generated by robot_control PLYWriter
element vertex 13
property float x
property float y
property float z
property uchar red
property uchar green
property uchar blue
end_header
0.539321 -0.421404 -0.10358 0 255 0
0.544141 -0.424137 -0.102232 21 233 0
0.547105 -0.429106 -0.101314 42 212 0
0.547251 -0.435155 -0.100543 63 191 0
0.544771 -0.440134 -0.100162 85 169 0
0.539732 -0.443574 -0.100106 106 148 0
0.533975 -0.445045 -0.100493 127 127 0
0.529046 -0.441976 -0.101291 148 106 0
0.524804 -0.43806 -0.102328 170 84 0
0.522996 -0.432329 -0.103128 191 63 0
0.525144 -0.427017 -0.104039 212 42 0
0.528985 -0.422601 -0.104963 233 21 0
0.534157 -0.42035 -0.105489 255 0 0
