ply
format ascii 1.0
comment Generated by robot_control PLYWriter
element vertex 33
property float x
property float y
property float z
property uchar red
property uchar green
property uchar blue
end_header
0.567314 0.0449763 -0.0799311 0 255 0
0.571798 0.0424703 -0.0816435 7 247 0
0.57563 0.0386086 -0.0839056 15 239 0
0.578002 0.033533 -0.0856383 23 231 0
0.57836 0.028436 -0.0874955 31 223 0
0.576643 0.0230739 -0.0886026 39 215 0
0.573168 0.0191316 -0.0894109 47 207 0
0.567642 0.0170428 -0.0891761 55 199 0
0.56194 0.0176264 -0.0882884 63 191 0
0.557627 0.021148 -0.0868571 71 183 0
0.554186 0.0251103 -0.0853907 79 175 0
0.554339 0.0309132 -0.0841508 87 167 0
0.555634 0.0364824 -0.0830129 95 159 0
0.558706 0.0413721 -0.0820412 103 151 0
0.563443 0.044899 -0.0817775 111 143 0
0.569135 0.0456305 -0.0819772 119 135 0
0.574995 0.0455138 -0.0827404 127 127 0
0.580637 0.0438214 -0.0834755 135 119 0
0.585353 0.0404346 -0.0846429 143 111 0
0.588354 0.0358773 -0.0857272 151 103 0
0.588337 0.0300638 -0.0869048 159 95 0
0.588322 0.0243139 -0.088376 167 87 0
0.585153 0.0197815 -0.0895453 175 79 0
0.580206 0.0174923 -0.0900747 183 71 0
0.574353 0.0167161 -0.0896388 191 63 0
0.569748 0.0199593 -0.08847 199 55 0
0.566151 0.0243257 -0.0870024 207 47 0
0.565071 0.0298992 -0.0855655 215 39 0
0.565948 0.0353656 -0.0837124 223 31 0
0.569102 0.0399842 -0.0818987 231 23 0
0.573443 0.0435882 -0.0804421 239 15 0
0.578491 0.04578 -0.079529 247 7 0
0.584197 0.0461788 -0.0792712 255 0 0
