ply
format ascii 1.0
comment Generated by robot_control PLYWriter
element vertex 14
property float x
property float y
property float z
property uchar red
property uchar green
property uchar blue
end_header
0.658845 0.0526309 -0.0164533 0 255 0
0.659486 0.0476974 -0.0170355 19 235 0
0.659681 0.0433709 -0.0195966 39 215 0
0.659832 0.0387879 -0.0217421 58 196 0
0.660094 0.0344055 -0.0242698 78 176 0
0.660596 0.0302047 -0.0270618 98 156 0
0.661119 0.0260088 -0.0298575 117 137 0
0.661433 0.0217639 -0.0326078 137 117 0
0.661703 0.0173239 -0.0350225 156 98 0
0.662018 0.012579 -0.036681 176 78 0
0.662377 0.00759293 -0.0373979 196 58 0
0.662872 0.00255396 -0.0375616 215 39 0
0.663246 -0.0024949 -0.0375887 235 19 0
0.663405 -0.00755713 -0.0373921 255 0 0
