ply
format ascii 1.0
comment Generated by robot_control PLYWriter
element vertex 14
property float x
property float y
property float z
property uchar red
property uchar green
property uchar blue
end_header
0.664706 -0.122277 -0.0404531 0 255 0
0.664777 -0.127066 -0.0408702 19 235 0
0.664804 -0.13183 -0.0415043 39 215 0
0.664773 -0.136611 -0.0420025 58 196 0
0.66477 -0.141381 -0.0426008 78 176 0
0.664757 -0.146147 -0.0432366 98 156 0
0.664735 -0.150922 -0.0437958 117 137 0
0.664841 -0.155706 -0.0442483 137 117 0
0.66503 -0.1605 -0.0445149 156 98 0
0.665162 -0.165305 -0.0445366 176 78 0
0.665275 -0.170109 -0.0443936 196 58 0
0.665421 -0.174911 -0.0442104 215 39 0
0.665636 -0.179687 -0.0437755 235 19 0
0.666002 -0.184391 -0.0428592 255 0 0
