ply
format ascii 1.0
comment Generated by robot_control PLYWriter
element vertex 9
property float x
property float y
property float z
property uchar red
property uchar green
property uchar blue
end_header
0.506647 0.0099653 -0.121017 0 255 0
0.507314 0.00486664 -0.120668 31 223 0
0.50767 -0.00027392 -0.120499 63 191 0
0.507986 -0.00541978 -0.120464 95 159 0
0.508331 -0.0105633 -0.120536 127 127 0
0.508793 -0.0156944 -0.120734 159 95 0
0.509061 -0.020834 -0.121041 191 63 0
0.509436 -0.0259687 -0.121316 223 31 0
0.510201 -0.0310613 -0.121515 255 0 0
