ply
format ascii 1.0
comment Generated by robot_control PLYWriter
element vertex 14
property float x
property float y
property float z
property uchar red
property uchar green
property uchar blue
end_header
0.56151 -0.202458 -0.0436847 0 255 0
0.561289 -0.197539 -0.0434092 19 235 0
0.561162 -0.192634 -0.042865 39 215 0
0.560988 -0.187713 -0.0424836 58 196 0
0.560833 -0.182795 -0.0420619 78 176 0
0.560854 -0.177877 -0.0416182 98 156 0
0.560857 -0.172952 -0.0412423 117 137 0
0.560714 -0.168023 -0.0409751 137 117 0
0.560442 -0.163095 -0.0408242 156 98 0
0.560156 -0.158166 -0.0407293 176 78 0
0.559864 -0.153236 -0.0407103 196 58 0
0.559565 -0.148307 -0.0407802 215 39 0
0.559167 -0.143386 -0.0408535 235 19 0
0.558732 -0.13848 -0.0405446 255 0 0
