ply
format ascii 1.0
comment Generated by robot_control PLYWriter
element vertex 48
property float x
property float y
property float z
property uchar red
property uchar green
property uchar blue
end_header
0.748516 0.150999 -0.146406 0 255 0
0.752079 0.14741 -0.145324 5 249 0
0.756748 0.144652 -0.143744 10 244 0
0.758792 0.139204 -0.14221 16 238 0
0.758237 0.133529 -0.140488 21 233 0
0.757875 0.127993 -0.138775 27 227 0
0.754227 0.123455 -0.137719 32 222 0
0.749136 0.120545 -0.13713 37 217 0
0.743269 0.120105 -0.137087 43 211 0
0.737615 0.122007 -0.137482 48 206 0
0.732819 0.125441 -0.138699 54 200 0
0.731056 0.130909 -0.140014 59 195 0
0.732837 0.136468 -0.141129 65 189 0
0.73516 0.14174 -0.141959 70 184 0
0.740744 0.144007 -0.142422 75 179 0
0.746349 0.145547 -0.142539 81 173 0
0.751833 0.143384 -0.142309 86 168 0
0.757272 0.140824 -0.141688 92 162 0
0.76127 0.136518 -0.140539 97 157 0
0.763512 0.131058 -0.139437 103 151 0
0.763279 0.125481 -0.13811 108 146 0
0.760521 0.120226 -0.136922 113 141 0
0.756396 0.115872 -0.136181 119 135 0
0.750866 0.113927 -0.135714 124 130 0
0.744826 0.114234 -0.135712 130 124 0
0.74033 0.117776 -0.136138 135 119 0
0.737442 0.122793 -0.137129 141 113 0
0.736637 0.128598 -0.138219 146 108 0
0.739337 0.133872 -0.139109 151 103 0
0.743843 0.137356 -0.139691 157 97 0
0.749696 0.1381 -0.140034 162 92 0
0.75525 0.13854 -0.140059 168 86 0
0.760626 0.135866 -0.139709 173 81 0
0.765503 0.132417 -0.138781 179 75 0
0.7689 0.127857 -0.137746 184 70 0
0.769029 0.121968 -0.136503 189 65 0
0.768286 0.116129 -0.135057 195 59 0
0.76518 0.111191 -0.13391 200 54 0
0.760137 0.107982 -0.132945 206 48 0
0.754263 0.107462 -0.132353 211 43 0
0.748381 0.108005 -0.132453 217 37 0
0.744625 0.112453 -0.133158 222 32 0
0.742744 0.117745 -0.134863 227 27 0
0.742262 0.123531 -0.136231 233 21 0
0.744693 0.127446 -0.137434 238 16 0
0.748594 0.130664 -0.13854 244 10 0
0.754167 0.131049 -0.139366 249 5 0
0.758062 0.133144 -0.140062 255 0 0
