ply
format ascii 1.0
comment Generated by robot_control PLYWriter
element vertex 16
property float x
property float y
property float z
property uchar red
property uchar green
property uchar blue
end_header
0.574769 0.0600676 -0.114317 0 255 0
0.57506 0.0551023 -0.114896 17 238 0
0.575488 0.0501019 -0.114864 34 221 0
0.575757 0.0450879 -0.114858 51 204 0
0.576021 0.0400738 -0.114902 68 187 0
0.576282 0.0350594 -0.114919 85 169 0
0.576465 0.0300423 -0.114828 102 153 0
0.576743 0.02503 -0.114715 119 135 0
0.577007 0.0200165 -0.114647 136 118 0
0.577013 0.0149956 -0.114695 153 101 0
0.577012 0.00997926 -0.114915 170 84 0
0.577004 0.00497454 -0.115322 187 67 0
0.577004 -2.53186e-05 -0.115784 204 50 0
0.577176 -0.00502104 -0.116259 221 33 0
0.577224 -0.0100007 -0.116901 238 16 0
0.577303 -0.0149863 -0.117491 255 0 0
