ply
format ascii 1.0
comment Generated by robot_control PLYWriter
element vertex 14
property float x
property float y
property float z
property uchar red
property uchar green
property uchar blue
end_header
0.568595 -0.190993 -0.0407482 0 255 0
0.568606 -0.186324 -0.0419246 19 235 0
0.568583 -0.181515 -0.0421167 39 215 0
0.568614 -0.17672 -0.0425558 58 196 0
0.568635 -0.171921 -0.0430114 78 176 0
0.568643 -0.167105 -0.0431414 98 156 0
0.568652 -0.162286 -0.0430128 117 137 0
0.568659 -0.157475 -0.0427133 137 117 0
0.56867 -0.152675 -0.042257 156 98 0
0.568692 -0.147886 -0.0416948 176 78 0
0.568721 -0.143101 -0.0411013 196 58 0
0.568761 -0.138306 -0.040614 215 39 0
0.568821 -0.133489 -0.0404223 235 19 0
0.568825 -0.128674 -0.0401813 255 0 0
