ply
format ascii 1.0
comment Generated by robot_control PLYWriter
element vertex 10
property float x
property float y
property float z
property uchar red
property uchar green
property uchar blue
end_header
0.493243 -0.285693 -0.124365 0 255 0
0.493854 -0.280894 -0.125323 28 226 0
0.494248 -0.276082 -0.126352 56 198 0
0.494841 -0.271418 -0.12784 85 169 0
0.495432 -0.266872 -0.129671 113 141 0
0.495926 -0.262288 -0.131432 141 113 0
0.496376 -0.257584 -0.132859 170 84 0
0.496887 -0.252787 -0.133887 198 56 0
0.497479 -0.247918 -0.134447 226 28 0
0.497881 -0.243011 -0.134574 255 0 0
