ply
format ascii 1.0
comment Generated by robot_control PLYWriter
element vertex 33
property float x
property float y
property float z
property uchar red
property uchar green
property uchar blue
end_header
0.59849 0.0803987 -0.149861 0 255 0
0.602669 0.0767353 -0.149902 7 247 0
0.606196 0.0725748 -0.150098 15 239 0
0.607215 0.067068 -0.150141 23 231 0
0.605642 0.061542 -0.149995 31 223 0
0.602005 0.0568042 -0.149698 39 215 0
0.596615 0.0558755 -0.148978 47 207 0
0.591147 0.0560097 -0.148428 55 199 0
0.585578 0.0582245 -0.148196 63 191 0
0.580684 0.0615588 -0.148497 71 183 0
0.578232 0.0664642 -0.148952 79 175 0
0.576792 0.0720975 -0.149861 87 167 0
0.578213 0.0777569 -0.150523 95 159 0
0.580895 0.0830757 -0.150962 103 151 0
0.586092 0.0860595 -0.15138 111 143 0
0.591363 0.0888869 -0.151965 119 135 0
0.596861 0.0879785 -0.152345 127 127 0
0.602024 0.0849721 -0.15249 135 119 0
0.604575 0.0795565 -0.152113 143 111 0
0.606417 0.0748261 -0.151184 151 103 0
0.6036 0.0699566 -0.149647 159 95 0
0.598907 0.0663555 -0.148587 167 87 0
0.593729 0.063452 -0.148129 175 79 0
0.587985 0.064247 -0.148256 183 71 0
0.58312 0.0675948 -0.148712 191 63 0
0.579077 0.0718224 -0.149956 199 55 0
0.576704 0.077047 -0.151288 207 47 0
0.575386 0.0819609 -0.153406 215 39 0
0.576737 0.0866682 -0.156506 223 31 0
0.578025 0.090503 -0.159609 231 23 0
0.582336 0.0938471 -0.161995 239 15 0
0.586668 0.0951811 -0.165188 247 7 0
0.590138 0.0976372 -0.166649 255 0 0
