ply
format ascii 1.0
comment Generated by robot_control PLYWriter
element vertex 32
property float x
property float y
property float z
property uchar red
property uchar green
property uchar blue
end_header
0.606593 0.198669 -0.0733277 0 255 0
0.609015 0.197208 -0.0775715 8 246 0
0.610627 0.195284 -0.0827567 16 238 0
0.6131 0.193799 -0.087641 24 230 0
0.614936 0.190427 -0.0921075 32 222 0
0.614573 0.186889 -0.0968801 41 213 0
0.614626 0.182356 -0.100767 49 205 0
0.61198 0.178789 -0.104486 57 197 0
0.607765 0.175981 -0.107176 65 189 0
0.602567 0.173927 -0.109369 74 180 0
0.59719 0.175227 -0.110709 82 172 0
0.592361 0.17847 -0.111041 90 164 0
0.588036 0.181878 -0.108637 98 156 0
0.586041 0.186221 -0.105308 106 148 0
0.586288 0.191133 -0.102231 115 139 0
0.589548 0.195214 -0.09946 123 131 0
0.595101 0.196138 -0.0979646 131 123 0
0.599959 0.19314 -0.0967354 139 115 0
0.60487 0.189858 -0.096174 148 106 0
0.606607 0.184651 -0.0985106 156 98 0
0.605784 0.17966 -0.101499 164 90 0
0.604388 0.175404 -0.105293 172 82 0
0.601446 0.171526 -0.108498 180 74 0
0.596485 0.169499 -0.111141 189 65 0
0.591009 0.169551 -0.113435 197 57 0
0.58551 0.169903 -0.115538 205 49 0
0.581565 0.173547 -0.118 213 41 0
0.578139 0.177947 -0.119966 222 32 0
0.576679 0.183536 -0.121572 230 24 0
0.578314 0.189055 -0.122044 238 16 0
0.581806 0.191888 -0.119521 246 8 0
0.585384 0.192436 -0.116163 255 0 0
