ply
format ascii 1.0
comment Generated by robot_control PLYWriter
element vertex 82
property float x
property float y
property float z
property uchar red
property uchar green
property uchar blue
end_header
0.721274 -0.00232252 -0.106735 0 255 0
0.726831 -0.00277658 -0.106751 3 251 0
0.730539 -0.0058604 -0.106444 6 248 0
0.732226 -0.0112349 -0.10583 9 245 0
0.732786 -0.0171036 -0.105251 12 242 0
0.730528 -0.021831 -0.10467 15 239 0
0.727001 -0.024491 -0.104304 18 236 0
0.722018 -0.0268382 -0.104077 22 232 0
0.716051 -0.0268104 -0.103934 25 229 0
0.710728 -0.0245816 -0.104015 28 226 0
0.706985 -0.0199893 -0.104311 31 223 0
0.704665 -0.0147243 -0.104734 34 220 0
0.702872 -0.0092132 -0.105214 37 217 0
0.705168 -0.00388822 -0.105651 40 214 0
0.708095 0.0012513 -0.10637 44 210 0
0.711525 0.00595306 -0.106809 47 207 0
0.717249 0.0073332 -0.107141 50 204 0
0.723201 0.00774428 -0.107323 53 201 0
0.727904 0.00414873 -0.107261 56 198 0
0.732783 0.000818053 -0.107045 59 195 0
0.733229 -0.00454291 -0.106615 62 192 0
0.73223 -0.0103269 -0.106158 66 188 0
0.728887 -0.0150644 -0.105702 69 185 0
0.723737 -0.0180273 -0.10542 72 182 0
0.718042 -0.0181001 -0.105219 75 179 0
0.712768 -0.01534 -0.105231 78 176 0
0.708084 -0.0116595 -0.105449 81 173 0
0.705121 -0.00666015 -0.105862 85 169 0
0.705041 -0.000719178 -0.106313 88 166 0
0.705491 0.00514626 -0.106855 91 163 0
0.707934 0.0105253 -0.107347 94 160 0
0.711984 0.0145445 -0.107787 97 157 0
0.717472 0.0168362 -0.108223 100 154 0
0.72307 0.015697 -0.10844 103 151 0
0.728515 0.0133084 -0.108464 107 147 0
0.732439 0.00882981 -0.108252 110 144 0
0.734347 0.00335739 -0.107913 113 141 0
0.731734 -0.00199532 -0.107576 116 138 0
0.728559 -0.00700753 -0.107256 119 135 0
0.723414 -0.00895147 -0.106854 122 132 0
0.71745 -0.00893053 -0.10659 125 129 0
0.711864 -0.0070543 -0.106511 129 125 0
0.708245 -0.00256014 -0.106653 132 122 0
0.705032 0.00227328 -0.107043 135 119 0
0.705052 0.00822276 -0.107527 138 116 0
0.705909 0.0140428 -0.108068 141 113 0
0.708693 0.0192055 -0.108578 144 110 0
0.713139 0.0230353 -0.109063 147 107 0
0.718463 0.0256652 -0.109552 151 103 0
0.724263 0.0251614 -0.109872 154 100 0
0.729262 0.0222116 -0.109939 157 97 0
0.732618 0.0172768 -0.109775 160 94 0
0.733183 0.0115565 -0.109306 163 91 0
0.731513 0.006277 -0.108748 166 88 0
0.727298 0.00207265 -0.108321 170 84 0
0.721678 0.00160146 -0.107878 173 81 0
0.715718 0.00145129 -0.1076 176 78 0
0.71066 0.00423284 -0.107579 179 75 0
0.706313 0.00800242 -0.107821 182 72 0
0.704902 0.013774 -0.108309 185 69 0
0.704562 0.0196939 -0.108844 188 66 0
0.705002 0.0254849 -0.109575 192 62 0
0.709408 0.029442 -0.110193 195 59 0
0.713519 0.0335915 -0.111041 198 56 0
0.719286 0.0340436 -0.111587 201 53 0
0.725239 0.0342232 -0.111906 204 50 0
0.729204 0.0310119 -0.111927 207 47 0
0.733767 0.0273996 -0.111673 210 44 0
0.734855 0.021735 -0.111246 214 40 0
0.733334 0.0161727 -0.110569 217 37 0
0.728536 0.0135315 -0.109775 220 34 0
0.723991 0.00985448 -0.109062 223 31 0
0.718238 0.00905618 -0.108506 226 28 0
0.712783 0.0114308 -0.108321 229 25 0
0.708507 0.0155654 -0.108493 232 22 0
0.704585 0.0198678 -0.108958 236 18 0
0.704649 0.0257732 -0.109668 239 15 0
0.704422 0.031563 -0.110798 242 12 0
0.706651 0.0359139 -0.111676 245 9 0
0.709817 0.0399635 -0.11276 248 6 0
0.712975 0.0435064 -0.113388 251 3 0
0.718566 0.0434338 -0.114169 255 0 0
