ply
format ascii 1.0
comment Generated by robot_control PLYWriter
element vertex 8
property float x
property float y
property float z
property uchar red
property uchar green
property uchar blue
end_header
0.672334 -0.239787 -0.0436884 0 255 0
0.672279 -0.235046 -0.043542 36 218 0
0.672269 -0.230304 -0.0434901 72 182 0
0.672245 -0.225562 -0.0434056 109 145 0
0.672085 -0.220824 -0.0433405 145 109 0
0.671824 -0.216089 -0.0433828 182 72 0
0.671652 -0.211352 -0.0435469 218 36 0
0.671337 -0.206625 -0.0437559 255 0 0
