ply
format ascii 1.0
comment Generated by robot_control PLYWriter
element vertex 59
property float x
property float y
property float z
property uchar red
property uchar green
property uchar blue
end_header
0.599966 0.0697039 -0.105877 0 255 0
0.604653 0.0674286 -0.105148 4 250 0
0.606698 0.0625841 -0.104996 8 246 0
0.607368 0.0567966 -0.10542 13 241 0
0.604594 0.0521166 -0.10601 17 237 0
0.600336 0.0488026 -0.106953 21 233 0
0.594441 0.0492337 -0.107673 26 228 0
0.588709 0.0501469 -0.108356 30 224 0
0.584764 0.0543277 -0.108809 35 219 0
0.582831 0.0597874 -0.109014 39 215 0
0.5807 0.0651923 -0.109015 43 211 0
0.582892 0.0701448 -0.108775 48 206 0
0.584673 0.0749599 -0.108328 52 202 0
0.588071 0.0797709 -0.10791 57 197 0
0.593742 0.0810746 -0.107449 61 193 0
0.599587 0.0807765 -0.106609 65 189 0
0.604193 0.0775648 -0.106029 70 184 0
0.606702 0.0724299 -0.105776 74 180 0
0.606764 0.0664727 -0.105811 79 175 0
0.602632 0.0625653 -0.106151 83 171 0
0.59787 0.0593482 -0.106735 87 167 0
0.592216 0.0602367 -0.107245 92 162 0
0.587133 0.0631614 -0.107778 96 158 0
0.582924 0.0669966 -0.108278 101 153 0
0.580245 0.0722146 -0.108465 105 149 0
0.580776 0.0780577 -0.108516 109 145 0
0.583797 0.083168 -0.108395 114 140 0
0.587191 0.0880501 -0.108119 118 136 0
0.592086 0.0907527 -0.107742 123 131 0
0.597939 0.0915159 -0.107116 127 127 0
0.603483 0.0901016 -0.106594 131 123 0
0.606743 0.0852626 -0.106243 136 118 0
0.60672 0.0793052 -0.106154 140 114 0
0.604162 0.0742975 -0.106318 145 109 0
0.599723 0.0704403 -0.106779 149 105 0
0.593936 0.0701035 -0.107307 153 101 0
0.588738 0.0726889 -0.108051 158 96 0
0.584153 0.0763172 -0.10848 162 92 0
0.580801 0.0812026 -0.108742 167 87 0
0.580266 0.0870264 -0.108856 171 83 0
0.581316 0.0926964 -0.108771 175 79 0
0.584771 0.0974382 -0.108523 180 74 0
0.588905 0.101525 -0.108154 184 70 0
0.59482 0.101941 -0.107632 189 65 0
0.600526 0.101079 -0.106873 193 61 0
0.604757 0.097191 -0.106367 197 57 0
0.606723 0.0920517 -0.106152 202 52 0
0.604895 0.0865926 -0.106253 206 48 0
0.601344 0.0818679 -0.106678 211 43 0
0.595619 0.0810801 -0.10726 215 39 0
0.589746 0.0815114 -0.107995 219 35 0
0.58521 0.0848644 -0.108854 224 30 0
0.582687 0.0898352 -0.109389 228 26 0
0.580285 0.0945184 -0.109616 233 21 0
0.580299 0.100474 -0.109675 237 17 0
0.582811 0.105319 -0.109466 241 13 0
0.585032 0.108701 -0.109045 246 8 0
0.589145 0.111383 -0.10858 250 4 0
0.593184 0.113515 -0.108158 255 0 0
