ply
format ascii 1.0
comment Generated by robot_control PLYWriter
element vertex 88
property float x
property float y
property float z
property uchar red
property uchar green
property uchar blue
end_header
0.678883 0.0605306 -0.133394 0 255 0
0.683198 0.0585181 -0.132506 2 252 0
0.685365 0.0544273 -0.131613 5 249 0
0.688336 0.0505289 -0.129889 8 246 0
0.688578 0.0451806 -0.128246 11 243 0
0.687127 0.0406326 -0.126054 14 240 0
0.684832 0.0365217 -0.124373 17 237 0
0.68006 0.0331278 -0.123275 20 234 0
0.674206 0.0333007 -0.122285 23 231 0
0.668312 0.0336231 -0.12231 26 228 0
0.663422 0.0363498 -0.123351 29 225 0
0.662223 0.0414666 -0.12496 32 222 0
0.662561 0.047225 -0.126521 35 219 0
0.666159 0.0516376 -0.127938 38 216 0
0.672024 0.0516068 -0.128643 41 213 0
0.677973 0.0520257 -0.128671 43 211 0
0.683158 0.049426 -0.128079 46 208 0
0.686419 0.0445477 -0.126939 49 205 0
0.688701 0.0394055 -0.12533 52 202 0
0.688541 0.0337514 -0.123363 55 199 0
0.687003 0.0283905 -0.12184 58 196 0
0.682373 0.0249388 -0.120485 61 193 0
0.677221 0.0224053 -0.119429 64 190 0
0.67126 0.022291 -0.118995 67 187 0
0.665963 0.0250244 -0.119333 70 184 0
0.662551 0.0295627 -0.120201 73 181 0
0.663175 0.0352754 -0.121585 76 178 0
0.666852 0.0398192 -0.122764 79 175 0
0.672337 0.042034 -0.12331 82 172 0
0.677852 0.0410103 -0.12338 85 169 0
0.683287 0.0389034 -0.122975 87 167 0
0.687318 0.0350571 -0.12199 90 164 0
0.689228 0.0295091 -0.120815 93 161 0
0.690012 0.0239204 -0.119677 96 158 0
0.687673 0.0187054 -0.118403 99 155 0
0.684774 0.0136607 -0.117049 102 152 0
0.679302 0.0118662 -0.115981 105 149 0
0.673367 0.0117254 -0.115337 108 146 0
0.668054 0.0140287 -0.115479 111 143 0
0.664422 0.0186813 -0.116184 114 140 0
0.664018 0.0240418 -0.117163 117 137 0
0.666851 0.0291784 -0.118158 120 134 0
0.672107 0.0313981 -0.118737 123 131 0
0.678087 0.0312388 -0.118939 126 128 0
0.683568 0.0290846 -0.118571 128 126 0
0.687268 0.0244578 -0.117792 131 123 0
0.689997 0.0192989 -0.116718 134 120 0
0.690475 0.013561 -0.115404 137 117 0
0.688705 0.00807184 -0.114093 140 114 0
0.684615 0.0041182 -0.112713 143 111 0
0.680314 0.0012846 -0.111753 146 108 0
0.674352 0.00124827 -0.111288 149 105 0
0.669137 0.00372273 -0.111284 152 102 0
0.664674 0.00763168 -0.11196 155 99 0
0.664361 0.013517 -0.112971 158 96 0
0.667424 0.0181496 -0.11401 161 93 0
0.672634 0.0207781 -0.114891 164 90 0
0.677877 0.0208331 -0.115215 167 87 0
0.683432 0.0186232 -0.114922 170 84 0
0.688023 0.0152925 -0.114098 172 82 0
0.690493 0.0100589 -0.112801 175 79 0
0.690897 0.00421091 -0.111602 178 76 0
0.689548 -0.000995719 -0.110081 181 73 0
0.686903 -0.00616105 -0.108732 184 70 0
0.681673 -0.00854572 -0.107635 187 67 0
0.676298 -0.0105238 -0.106817 190 64 0
0.671096 -0.00779958 -0.106738 193 61 0
0.666889 -0.00400593 -0.107167 196 58 0
0.664523 0.00103224 -0.108417 199 55 0
0.667201 0.00551155 -0.109978 202 52 0
0.671339 0.00956363 -0.11091 205 49 0
0.677084 0.0103374 -0.111447 208 46 0
0.682854 0.0097849 -0.111478 211 43 0
0.687402 0.00591682 -0.111055 213 41 0
0.690263 0.00112294 -0.109817 216 38 0
0.692619 -0.00367781 -0.107931 219 35 0
0.692071 -0.00936616 -0.106422 222 32 0
0.69004 -0.0145902 -0.104703 225 29 0
0.685745 -0.0183768 -0.103561 228 26 0
0.68086 -0.0204926 -0.102335 231 23 0
0.675313 -0.0197879 -0.101726 234 20 0
0.67038 -0.017507 -0.102039 237 17 0
0.666262 -0.014665 -0.103014 240 14 0
0.666564 -0.00906801 -0.104563 243 11 0
0.668059 -0.00442799 -0.10625 246 8 0
0.672064 -0.00111464 -0.107507 249 5 0
0.676556 -7.35846e-05 -0.108628 252 2 0
0.680693 -0.000328325 -0.108894 255 0 0
