ply
format ascii 1.0
comment Generated by robot_control PLYWriter
element vertex 30
property float x
property float y
property float z
property uchar red
property uchar green
property uchar blue
end_header
0.689614 0.103051 -0.159428 0 255 0
0.694877 0.101961 -0.158664 8 246 0
0.698664 0.0979337 -0.157357 17 237 0
0.701182 0.0934968 -0.15611 26 228 0
0.70051 0.089159 -0.154726 35 219 0
0.698252 0.0856358 -0.153561 43 211 0
0.695823 0.0809688 -0.153045 52 202 0
0.690618 0.0800589 -0.152913 61 193 0
0.684798 0.0806924 -0.153298 70 184 0
0.680843 0.0850793 -0.154112 79 175 0
0.678698 0.0902414 -0.155236 87 167 0
0.67957 0.0957824 -0.156681 96 158 0
0.683244 0.100279 -0.157937 105 149 0
0.687196 0.104619 -0.158569 114 140 0
0.6931 0.104996 -0.158873 123 131 0
0.698784 0.105601 -0.158811 131 123 0
0.704374 0.103652 -0.15849 140 114 0
0.708822 0.0999227 -0.157737 149 105 0
0.710554 0.0943457 -0.156801 158 96 0
0.710305 0.0885288 -0.155504 167 87 0
0.70651 0.0846528 -0.15446 175 79 0
0.701877 0.0811203 -0.153608 184 70 0
0.696479 0.0822819 -0.153435 193 61 0
0.690883 0.083557 -0.153775 202 52 0
0.688769 0.0887065 -0.154814 211 43 0
0.688168 0.0943901 -0.1563 219 35 0
0.690073 0.099543 -0.15797 228 26 0
0.694172 0.103518 -0.159206 237 17 0
0.698856 0.106146 -0.160175 246 8 0
0.704321 0.106022 -0.161136 255 0 0
