ply
format ascii 1.0
comment Generated by robot_control PLYWriter
element vertex 11
property float x
property float y
property float z
property uchar red
property uchar green
property uchar blue
end_header
0.584535 -0.131214 -0.042931 0 255 0
0.584586 -0.126465 -0.0427157 25 229 0
0.584609 -0.121714 -0.0425575 51 204 0
0.584614 -0.116969 -0.0422701 76 178 0
0.584614 -0.112233 -0.0418635 102 153 0
0.584612 -0.107505 -0.0413776 127 127 0
0.584613 -0.102785 -0.0408112 153 101 0
0.584623 -0.0980752 -0.0401655 178 76 0
0.584633 -0.0933742 -0.0394592 204 50 0
0.584681 -0.0886772 -0.0387281 229 25 0
0.584686 -0.0839732 -0.0380421 255 0 0
