ply
format ascii 1.0
comment Generated by robot_control PLYWriter
element vertex 12
property float x
property float y
property float z
property uchar red
property uchar green
property uchar blue
end_header
0.522687 -0.08466 -0.113555 0 255 0
0.52271 -0.089583 -0.113951 23 231 0
0.522846 -0.0944978 -0.114411 46 208 0
0.522868 -0.0994121 -0.114901 69 185 0
0.522847 -0.104326 -0.115393 92 162 0
0.522906 -0.109239 -0.115894 115 139 0
0.522962 -0.114157 -0.11635 139 115 0
0.523026 -0.119071 -0.116844 162 92 0
0.523072 -0.123978 -0.117397 185 69 0
0.523041 -0.12888 -0.118 208 46 0
0.523129 -0.133781 -0.118598 231 23 0
0.523184 -0.138694 -0.119084 255 0 0
