ply
format ascii 1.0
comment Generated by robot_control PLYWriter
element vertex 31
property float x
property float y
property float z
property uchar red
property uchar green
property uchar blue
end_header
0.570522 0.0642125 -0.144306 0 255 0
0.574713 0.0612426 -0.142272 8 246 0
0.578719 0.0585338 -0.139569 17 238 0
0.580964 0.0539906 -0.136825 25 229 0
0.582599 0.0484533 -0.135263 34 221 0
0.58054 0.0430907 -0.134045 42 212 0
0.577271 0.0382404 -0.133458 51 204 0
0.571892 0.0356074 -0.133488 59 195 0
0.565864 0.0356992 -0.13428 68 187 0
0.561445 0.0392528 -0.135627 76 178 0
0.558532 0.0443659 -0.137134 85 169 0
0.559107 0.0499836 -0.138397 93 161 0
0.563003 0.0546045 -0.13902 102 153 0
0.567295 0.0589214 -0.139228 110 144 0
0.572756 0.0614317 -0.139079 119 135 0
0.578795 0.0611865 -0.138663 127 127 0
0.584826 0.0608877 -0.137849 136 118 0
0.588671 0.0563376 -0.136846 144 110 0
0.592568 0.0520306 -0.135604 153 101 0
0.592513 0.0462297 -0.13381 161 93 0
0.592497 0.040326 -0.132303 170 84 0
0.587483 0.0370465 -0.13144 178 76 0
0.583017 0.0329544 -0.131119 187 67 0
0.57712 0.0330472 -0.131388 195 59 0
0.572199 0.0360052 -0.132241 204 50 0
0.56986 0.0411655 -0.133677 212 42 0
0.569864 0.0462456 -0.135273 221 33 0
0.572566 0.0510836 -0.136654 229 25 0
0.575865 0.0552924 -0.13773 238 16 0
0.58087 0.0586748 -0.138384 246 8 0
0.586632 0.0590423 -0.138616 255 0 0
