ply
format ascii 1.0
comment Generated by robot_control PLYWriter
element vertex 32
property float x
property float y
property float z
property uchar red
property uchar green
property uchar blue
end_header
0.719547 0.139389 -0.142191 0 255 0
0.725191 0.139185 -0.141975 8 246 0
0.729266 0.1349 -0.141233 16 238 0
0.730767 0.129914 -0.139894 24 230 0
0.731472 0.124894 -0.138714 32 222 0
0.727606 0.120601 -0.137298 41 213 0
0.722934 0.117112 -0.136607 49 205 0
0.717022 0.115957 -0.136336 57 197 0
0.711772 0.118713 -0.136571 65 189 0
0.707276 0.122679 -0.137103 74 180 0
0.703648 0.127425 -0.137958 82 172 0
0.702273 0.132962 -0.139103 90 164 0
0.70436 0.138383 -0.140434 98 156 0
0.706422 0.143942 -0.141451 106 148 0
0.711434 0.147075 -0.142518 115 139 0
0.717162 0.148729 -0.143185 123 131 0
0.723172 0.148937 -0.143615 131 123 0
0.727946 0.145746 -0.14368 139 115 0
0.732703 0.142139 -0.143323 148 106 0
0.734108 0.136615 -0.142609 156 98 0
0.730796 0.13202 -0.141566 164 90 0
0.727119 0.128038 -0.140634 172 82 0
0.721542 0.126197 -0.139912 180 74 0
0.716004 0.127631 -0.13961 189 65 0
0.710989 0.130683 -0.139817 197 57 0
0.706631 0.134767 -0.140405 205 49 0
0.704481 0.139946 -0.141577 213 41 0
0.70478 0.145828 -0.142921 222 32 0
0.707066 0.150698 -0.145053 230 24 0
0.710585 0.154661 -0.146907 238 16 0
0.71375 0.158273 -0.148549 246 8 0
0.718725 0.158949 -0.150079 255 0 0
