ply
format ascii 1.0
comment Generated by robot_control PLYWriter
element vertex 10
property float x
property float y
property float z
property uchar red
property uchar green
property uchar blue
end_header
0.566691 0.0530658 -0.0192333 0 255 0
0.566752 0.0576625 -0.017855 28 226 0
0.566722 0.0620506 -0.0159065 56 198 0
0.56673 0.0663051 -0.0136841 85 169 0
0.56672 0.0706048 -0.0115503 113 141 0
0.56666 0.0750866 -0.00987491 141 113 0
0.566604 0.0797806 -0.00897465 170 84 0
0.566636 0.0844954 -0.00927292 198 56 0
0.566671 0.0889974 -0.0109408 226 28 0
0.566682 0.0931323 -0.0133408 255 0 0
