ply
format ascii 1.0
comment Generated by robot_control PLYWriter
element vertex 8
property float x
property float y
property float z
property uchar red
property uchar green
property uchar blue
end_header
0.561742 -0.233351 -0.0429082 0 255 0
0.562726 -0.22868 -0.0427989 36 218 0
0.563722 -0.224053 -0.04214 72 182 0
0.56457 -0.219454 -0.0411663 109 145 0
0.565464 -0.214899 -0.0400302 145 109 0
0.566355 -0.210341 -0.0389009 182 72 0
0.567171 -0.205786 -0.0377316 218 36 0
0.56787 -0.201259 -0.0364077 255 0 0
