ply
format ascii 1.0
comment Generated by robot_control PLYWriter
element vertex 64
property float x
property float y
property float z
property uchar red
property uchar green
property uchar blue
end_header
0.744359 0.0670459 -0.120538 0 255 0
0.747806 0.0632659 -0.119401 4 250 0
0.750843 0.0591374 -0.117969 8 246 0
0.75234 0.053606 -0.116737 12 242 0
0.752787 0.0477848 -0.115444 16 238 0
0.749957 0.0428271 -0.114516 20 234 0
0.74813 0.0374486 -0.114108 24 230 0
0.742496 0.0355407 -0.113916 28 226 0
0.737279 0.0329397 -0.113999 32 222 0
0.731469 0.0335766 -0.114391 36 218 0
0.726914 0.0374776 -0.114978 40 214 0
0.723453 0.0421812 -0.115688 44 210 0
0.723157 0.0480696 -0.116462 48 206 0
0.725744 0.053166 -0.117067 52 202 0
0.730363 0.0564667 -0.117291 56 198 0
0.736322 0.0568742 -0.117049 60 194 0
0.742122 0.0553113 -0.116563 64 190 0
0.747653 0.0530234 -0.116076 68 186 0
0.749746 0.0473998 -0.115425 72 182 0
0.751912 0.0417952 -0.114909 76 178 0
0.751871 0.0362939 -0.114417 80 174 0
0.749149 0.0309418 -0.113916 85 169 0
0.745229 0.0264205 -0.113464 89 165 0
0.740883 0.0229979 -0.113252 93 161 0
0.734845 0.0229795 -0.113332 97 157 0
0.728812 0.0229759 -0.113591 101 153 0
0.72499 0.0268421 -0.113861 105 149 0
0.722627 0.0322774 -0.114319 109 145 0
0.722762 0.0383031 -0.114651 113 141 0
0.726063 0.0430286 -0.114737 117 137 0
0.731285 0.0460096 -0.114674 121 133 0
0.736652 0.0463321 -0.114585 125 129 0
0.742267 0.0446344 -0.11442 129 125 0
0.747188 0.0419034 -0.114176 133 121 0
0.750276 0.0367865 -0.113878 137 117 0
0.750688 0.0308543 -0.113528 141 113 0
0.750176 0.0249192 -0.113151 145 109 0
0.747895 0.0193592 -0.112913 149 105 0
0.743886 0.0149205 -0.112703 153 101 0
0.738515 0.012235 -0.112661 157 97 0
0.732568 0.0116733 -0.112725 161 93 0
0.726877 0.0135607 -0.112868 165 89 0
0.723244 0.0181363 -0.113134 170 84 0
0.72083 0.0235907 -0.113361 174 80 0
0.721702 0.0294649 -0.113496 178 76 0
0.726307 0.0327892 -0.11357 182 72 0
0.731655 0.0353418 -0.113565 186 68 0
0.737693 0.035356 -0.113463 190 64 0
0.743209 0.0332077 -0.113274 194 60 0
0.746831 0.0283996 -0.112995 198 56 0
0.749128 0.0229341 -0.112538 202 52 0
0.751258 0.0173429 -0.112169 206 48 0
0.749615 0.0116629 -0.111717 210 44 0
0.746164 0.00685578 -0.111343 214 40 0
0.742497 0.00324317 -0.111093 218 36 0
0.736821 0.00156768 -0.110961 222 32 0
0.730834 0.00129865 -0.110849 226 28 0
0.725337 0.00315733 -0.111045 230 24 0
0.721355 0.00738624 -0.111572 234 20 0
0.720593 0.0131396 -0.112098 238 16 0
0.72074 0.0191452 -0.112621 242 12 0
0.72484 0.0222507 -0.113038 246 8 0
0.728834 0.0252991 -0.113314 250 4 0
0.73465 0.025532 -0.113473 255 0 0
