ply
format ascii 1.0
comment Generated by robot_control PLYWriter
element vertex 50
property float x
property float y
property float z
property uchar red
property uchar green
property uchar blue
end_header
0.524288 0.201988 -0.161849 0 255 0
0.529564 0.201901 -0.16072 5 249 0
0.533406 0.198962 -0.159162 10 244 0
0.536289 0.195145 -0.156767 15 239 0
0.538211 0.190595 -0.154274 20 234 0
0.537132 0.185676 -0.152032 26 228 0
0.534694 0.18134 -0.149833 31 223 0
0.531758 0.17684 -0.147969 36 218 0
0.527422 0.173196 -0.146695 41 213 0
0.521957 0.17084 -0.146332 46 208 0
0.516155 0.170547 -0.146758 52 202 0
0.510487 0.172074 -0.147716 57 197 0
0.50657 0.175843 -0.149501 62 192 0
0.504724 0.181148 -0.151371 67 187 0
0.505123 0.186401 -0.153414 72 182 0
0.508655 0.191064 -0.154583 78 176 0
0.513842 0.193805 -0.155067 83 171 0
0.519653 0.193028 -0.15443 88 166 0
0.524854 0.190648 -0.15301 93 161 0
0.52846 0.18608 -0.151695 98 156 0
0.530476 0.181364 -0.149393 104 150 0
0.529846 0.175795 -0.147723 109 145 0
0.527719 0.170413 -0.146311 114 140 0
0.523555 0.166967 -0.14532 119 135 0
0.518411 0.164124 -0.144749 124 130 0
0.513025 0.162257 -0.144635 130 124 0
0.50712 0.162629 -0.145191 135 119 0
0.501807 0.164985 -0.146296 140 114 0
0.497904 0.169161 -0.14751 145 109 0
0.496387 0.17469 -0.148826 150 104 0
0.497886 0.180067 -0.150235 156 98 0
0.502257 0.183789 -0.150803 161 93 0
0.507916 0.185598 -0.150884 166 88 0
0.513478 0.185147 -0.150159 171 83 0
0.518334 0.182129 -0.148627 176 78 0
0.521639 0.177614 -0.146943 182 72 0
0.522486 0.17209 -0.145094 187 67 0
0.522029 0.166593 -0.143028 192 62 0
0.51944 0.161501 -0.141496 197 57 0
0.515077 0.157666 -0.14041 202 52 0
0.509834 0.154932 -0.139784 208 46 0
0.504468 0.152717 -0.139674 213 41 0
0.499184 0.155 -0.140039 218 36 0
0.493812 0.155908 -0.141371 223 31 0
0.490644 0.160211 -0.14325 228 26 0
0.49063 0.165564 -0.145752 234 20 0
0.490749 0.170145 -0.14859 239 15 0
0.493684 0.174207 -0.15041 244 10 0
0.498614 0.176325 -0.150601 249 5 0
0.503309 0.175693 -0.149199 255 0 0
