ply
format ascii 1.0
comment Generated by robot_control PLYWriter
element vertex 13
property float x
property float y
property float z
property uchar red
property uchar green
property uchar blue
end_header
0.582565 -0.231695 -0.128899 0 255 0
0.582524 -0.236334 -0.130263 21 233 0
0.582564 -0.241039 -0.131367 42 212 0
0.58266 -0.245785 -0.132287 63 191 0
0.582715 -0.250555 -0.133061 85 169 0
0.583032 -0.255346 -0.133609 106 148 0
0.583171 -0.260175 -0.133714 127 127 0
0.583496 -0.264974 -0.133234 148 106 0
0.583877 -0.269676 -0.132167 170 84 0
0.584193 -0.274192 -0.130467 191 63 0
0.584395 -0.278556 -0.1284 212 42 0
0.584734 -0.282933 -0.126402 233 21 0
0.585013 -0.287091 -0.123973 255 0 0
