ply
format ascii 1.0
comment Generated by robot_control PLYWriter
element vertex 48
property float x
property float y
property float z
property uchar red
property uchar green
property uchar blue
end_header
0.732803 0.171056 -0.154944 0 255 0
0.736516 0.16746 -0.153638 5 249 0
0.740596 0.164632 -0.151897 10 244 0
0.742813 0.159461 -0.150558 16 238 0
0.742875 0.153967 -0.148266 21 233 0
0.74089 0.148623 -0.146991 27 227 0
0.737137 0.144961 -0.145561 32 222 0
0.732887 0.141539 -0.144811 37 217 0
0.727537 0.139871 -0.144648 43 211 0
0.722101 0.142332 -0.14532 48 206 0
0.717595 0.145935 -0.146584 54 200 0
0.714845 0.151059 -0.147886 59 195 0
0.716312 0.156694 -0.149312 65 189 0
0.720491 0.159994 -0.150503 70 184 0
0.725414 0.163332 -0.15107 75 179 0
0.731014 0.165476 -0.151135 81 173 0
0.736562 0.164096 -0.150722 86 168 0
0.742018 0.161731 -0.149865 92 162 0
0.745423 0.156959 -0.148653 97 157 0
0.748438 0.152026 -0.147202 103 151 0
0.74816 0.146628 -0.14578 108 146 0
0.745847 0.141252 -0.144552 113 141 0
0.742697 0.136356 -0.143618 119 135 0
0.737654 0.133625 -0.142978 124 130 0
0.731809 0.133639 -0.142678 130 124 0
0.726312 0.136031 -0.143016 135 119 0
0.722799 0.14047 -0.143839 141 113 0
0.720585 0.145516 -0.145026 146 108 0
0.723162 0.15083 -0.146129 151 103 0
0.72724 0.154769 -0.147093 157 97 0
0.732412 0.157779 -0.14761 162 92 0
0.738384 0.157718 -0.147736 168 86 0
0.744169 0.156487 -0.147437 173 81 0
0.749467 0.153793 -0.146581 179 75 0
0.752677 0.149097 -0.145423 184 70 0
0.754306 0.143585 -0.143901 189 65 0
0.754029 0.137791 -0.1427 195 59 0
0.751812 0.132394 -0.141363 200 54 0
0.747311 0.12896 -0.140014 206 48 0
0.741692 0.127459 -0.139278 211 43 0
0.735694 0.127411 -0.139047 217 37 0
0.730515 0.129911 -0.139558 222 32 0
0.727204 0.134488 -0.140925 227 27 0
0.726756 0.139829 -0.142661 233 21 0
0.728639 0.145054 -0.143917 238 16 0
0.732319 0.148758 -0.145712 244 10 0
0.737053 0.150912 -0.146802 249 5 0
0.742806 0.150912 -0.147279 255 0 0
