ply
format ascii 1.0
comment Generated by robot_control PLYWriter
element vertex 13
property float x
property float y
property float z
property uchar red
property uchar green
property uchar blue
end_header
0.579309 0.0761964 -0.12619 0 255 0
0.579569 0.0714179 -0.125574 21 233 0
0.579884 0.0666448 -0.124964 42 212 0
0.58043 0.0618968 -0.124297 63 191 0
0.58093 0.057151 -0.123584 85 169 0
0.581265 0.0523935 -0.122848 106 148 0
0.581587 0.0476315 -0.122136 127 127 0
0.581925 0.0428669 -0.121448 148 106 0
0.582251 0.0380879 -0.120863 170 84 0
0.582829 0.0333199 -0.120408 191 63 0
0.583235 0.0285259 -0.12006 212 42 0
0.583499 0.0237215 -0.119698 233 21 0
0.583881 0.0189158 -0.119632 255 0 0
