ply
format ascii 1.0
comment Generated by robot_control PLYWriter
element vertex 10
property float x
property float y
property float z
property uchar red
property uchar green
property uchar blue
end_header
0.586856 -0.199785 -0.0432069 0 255 0
0.586842 -0.204953 -0.0439539 28 226 0
0.586842 -0.210123 -0.0446907 56 198 0
0.587153 -0.215332 -0.0449184 85 169 0
0.587448 -0.220546 -0.0449472 113 141 0
0.587769 -0.225753 -0.0447398 141 113 0
0.588057 -0.230927 -0.0441173 170 84 0
0.588299 -0.236039 -0.0430771 198 56 0
0.588297 -0.241124 -0.041886 226 28 0
0.588284 -0.246091 -0.0402834 255 0 0
