ply
format ascii 1.0
comment Generated by robot_control PLYWriter
element vertex 17
property float x
property float y
property float z
property uchar red
property uchar green
property uchar blue
end_header
0.520633 0.0982084 -0.140282 0 255 0
0.51879 0.102725 -0.140108 15 239 0
0.517069 0.107283 -0.139807 31 223 0
0.51518 0.111784 -0.139819 47 207 0
0.513276 0.116279 -0.139922 63 191 0
0.511373 0.120769 -0.140155 79 175 0
0.509499 0.125252 -0.140619 95 159 0
0.507674 0.129714 -0.141374 111 143 0
0.505897 0.134125 -0.142462 127 127 0
0.504151 0.138448 -0.143905 143 111 0
0.502402 0.142667 -0.145632 159 95 0
0.50068 0.146749 -0.147685 175 79 0
0.499054 0.150811 -0.149854 191 63 0
0.497482 0.15485 -0.152102 207 47 0
0.495954 0.158854 -0.154441 223 31 0
0.494458 0.162733 -0.157 239 15 0
0.493061 0.166648 -0.159562 255 0 0
