ply
format ascii 1.0
comment Generated by robot_control PLYWriter
element vertex 13
property float x
property float y
property float z
property uchar red
property uchar green
property uchar blue
end_header
0.616008 -0.304258 -0.0879345 0 255 0
0.620926 -0.306679 -0.0883427 21 233 0
0.623753 -0.31191 -0.0883889 42 212 0
0.623422 -0.317631 -0.0881513 63 191 0
0.620706 -0.322819 -0.0876579 85 169 0
0.615472 -0.324963 -0.0868559 106 148 0
0.6096 -0.324844 -0.0859668 127 127 0
0.604211 -0.322881 -0.0852179 148 106 0
0.601658 -0.317655 -0.0847548 170 84 0
0.60069 -0.311987 -0.0845551 191 63 0
0.602647 -0.307007 -0.0847782 212 42 0
0.607806 -0.304583 -0.0853833 233 21 0
0.610842 -0.302473 -0.0865786 255 0 0
