ply
format ascii 1.0
comment Generated by robot_control PLYWriter
element vertex 81
property float x
property float y
property float z
property uchar red
property uchar green
property uchar blue
end_header
0.657227 -0.302596 -0.0968838 0 255 0
0.66075 -0.304941 -0.0988252 3 251 0
0.663196 -0.308389 -0.10107 6 248 0
0.664711 -0.31266 -0.102731 9 245 0
0.664976 -0.318549 -0.103472 12 242 0
0.661089 -0.323049 -0.103258 15 239 0
0.657009 -0.326853 -0.102245 19 235 0
0.652165 -0.328428 -0.100282 22 232 0
0.646795 -0.32867 -0.0983355 25 229 0
0.642626 -0.325814 -0.0965683 28 226 0
0.640971 -0.320562 -0.0951033 31 223 0
0.642982 -0.316178 -0.0946806 35 219 0
0.646841 -0.311747 -0.0955744 38 216 0
0.651588 -0.310572 -0.0970972 41 213 0
0.656769 -0.312558 -0.0991017 44 210 0
0.660571 -0.314375 -0.101236 47 207 0
0.663825 -0.319197 -0.102629 51 204 0
0.66482 -0.324696 -0.103868 54 200 0
0.66348 -0.330124 -0.104108 57 197 0
0.659984 -0.334973 -0.103855 60 194 0
0.655448 -0.338406 -0.102993 63 191 0
0.649677 -0.338729 -0.101594 66 188 0
0.644373 -0.336815 -0.100282 70 184 0
0.642083 -0.331907 -0.0987847 73 181 0
0.641883 -0.32704 -0.0984198 76 178 0
0.643651 -0.322045 -0.0987018 79 175 0
0.648945 -0.320436 -0.099421 82 172 0
0.654755 -0.320372 -0.100792 86 168 0
0.659957 -0.322219 -0.102361 89 165 0
0.662816 -0.327327 -0.103638 92 162 0
0.665036 -0.332771 -0.104614 95 159 0
0.664156 -0.338566 -0.104933 98 156 0
0.660823 -0.343484 -0.104878 102 153 0
0.655995 -0.3466 -0.104397 105 149 0
0.650417 -0.348369 -0.103606 108 146 0
0.645258 -0.345995 -0.102519 111 143 0
0.641338 -0.341928 -0.10135 114 140 0
0.641051 -0.336203 -0.100984 117 137 0
0.644816 -0.33166 -0.101417 121 133 0
0.64944 -0.328695 -0.102163 124 130 0
0.655352 -0.328563 -0.103084 127 127 0
0.660148 -0.331978 -0.103946 130 124 0
0.663847 -0.336516 -0.10466 133 121 0
0.664528 -0.342296 -0.105428 137 117 0
0.664025 -0.347796 -0.105955 140 114 0
0.660343 -0.352518 -0.106082 143 111 0
0.65604 -0.356301 -0.105716 146 108 0
0.650093 -0.356299 -0.10498 149 105 0
0.644195 -0.356251 -0.104126 153 101 0
0.641228 -0.351158 -0.103279 156 98 0
0.641898 -0.345504 -0.102878 159 95 0
0.644925 -0.340401 -0.10301 162 92 0
0.650445 -0.339319 -0.103562 165 89 0
0.656079 -0.33862 -0.104163 168 86 0
0.660439 -0.342352 -0.104611 172 82 0
0.663983 -0.346942 -0.105149 175 79 0
0.664521 -0.352727 -0.105526 178 76 0
0.66283 -0.358416 -0.105665 181 73 0
0.659704 -0.362867 -0.105436 184 70 0
0.654781 -0.366019 -0.104977 188 66 0
0.648958 -0.366015 -0.104613 191 63 0
0.643651 -0.363529 -0.104266 194 60 0
0.641023 -0.358319 -0.10398 197 57 0
0.641819 -0.352461 -0.103841 200 54 0
0.645655 -0.348419 -0.104038 204 50 0
0.651086 -0.347324 -0.104386 207 47 0
0.656059 -0.347656 -0.10463 210 44 0
0.660622 -0.350998 -0.105015 213 41 0
0.662834 -0.356497 -0.10522 216 38 0
0.665051 -0.361207 -0.10538 219 35 0
0.663189 -0.366303 -0.105216 223 31 0
0.661361 -0.371521 -0.104777 226 28 0
0.656907 -0.374699 -0.104298 229 25 0
0.65144 -0.376242 -0.103881 232 22 0
0.646459 -0.374676 -0.103463 235 19 0
0.64287 -0.372663 -0.103212 239 15 0
0.640825 -0.36888 -0.103314 242 12 0
0.641014 -0.362934 -0.103989 245 9 0
0.642746 -0.35869 -0.10451 248 6 0
0.646619 -0.356622 -0.104688 251 3 0
0.652208 -0.356293 -0.104792 255 0 0
