ply
format ascii 1.0
comment Generated by robot_control PLYWriter
element vertex 32
property float x
property float y
property float z
property uchar red
property uchar green
property uchar blue
end_header
0.609933 0.0662005 -0.152089 0 255 0
0.613659 0.063788 -0.149114 8 246 0
0.617137 0.0604853 -0.146306 16 238 0
0.616988 0.0548647 -0.144196 24 230 0
0.614974 0.0500301 -0.142267 32 222 0
0.611681 0.0450675 -0.14197 41 213 0
0.606606 0.0422827 -0.142591 49 205 0
0.601054 0.0405522 -0.143876 57 197 0
0.595348 0.0411205 -0.145664 65 189 0
0.590077 0.0431429 -0.147331 74 180 0
0.585994 0.0470255 -0.149301 82 172 0
0.583414 0.0519686 -0.151463 90 164 0
0.583229 0.0574783 -0.153796 98 156 0
0.58451 0.0629986 -0.155591 106 148 0
0.588468 0.0673272 -0.156343 115 139 0
0.592992 0.0711436 -0.156234 123 131 0
0.598879 0.0702871 -0.155385 131 123 0
0.604379 0.0684438 -0.154019 139 115 0
0.605977 0.0629678 -0.152547 148 106 0
0.605644 0.0578485 -0.151272 156 98 0
0.603003 0.0525719 -0.150368 164 90 0
0.598455 0.0487263 -0.150039 172 82 0
0.59276 0.0467977 -0.150339 180 74 0
0.586941 0.0461405 -0.151186 189 65 0
0.581233 0.0472498 -0.152654 197 57 0
0.576073 0.0493696 -0.154597 205 49 0
0.573374 0.0541288 -0.156964 213 41 0
0.572644 0.0594236 -0.159519 222 32 0
0.572762 0.0649552 -0.161815 230 24 0
0.575633 0.0695609 -0.163386 238 16 0
0.580107 0.0734312 -0.164092 246 8 0
0.584987 0.0756348 -0.164126 255 0 0
