ply
format ascii 1.0
comment Generated by robot_control PLYWriter
element vertex 32
property float x
property float y
property float z
property uchar red
property uchar green
property uchar blue
end_header
0.572854 0.0524632 -0.16043 0 255 0
0.577813 0.0503394 -0.159062 8 246 0
0.580642 0.0460298 -0.157561 16 238 0
0.580633 0.0403252 -0.155959 24 230 0
0.577549 0.0355685 -0.155104 32 222 0
0.573762 0.0311009 -0.154659 41 213 0
0.568691 0.0280823 -0.154687 49 205 0
0.562864 0.0279099 -0.155353 57 197 0
0.557101 0.0267369 -0.1562 65 189 0
0.552211 0.0297638 -0.157073 74 180 0
0.548306 0.0341346 -0.15805 82 172 0
0.545177 0.0389754 -0.158982 90 164 0
0.545093 0.0448093 -0.160062 98 156 0
0.547655 0.0496936 -0.160905 106 148 0
0.551601 0.0541102 -0.161361 115 139 0
0.557221 0.0556703 -0.161331 123 131 0
0.563049 0.0560792 -0.160875 131 123 0
0.566893 0.0520428 -0.160112 139 115 0
0.568592 0.0464569 -0.159331 148 106 0
0.568325 0.040731 -0.158371 156 98 0
0.563943 0.0367372 -0.157948 164 90 0
0.55926 0.0332266 -0.157764 172 82 0
0.55394 0.0306277 -0.158023 180 74 0
0.548412 0.0307255 -0.158563 189 65 0
0.542621 0.0309348 -0.15947 197 57 0
0.537849 0.0339851 -0.160586 205 49 0
0.535364 0.0391969 -0.161996 213 41 0
0.534181 0.0445976 -0.163979 222 32 0
0.534511 0.0503949 -0.165104 230 24 0
0.537609 0.0546658 -0.166209 238 16 0
0.541828 0.0574446 -0.166516 246 8 0
0.54652 0.0589202 -0.165967 255 0 0
