ply
format ascii 1.0
comment Generated by robot_control PLYWriter
element vertex 88
property float x
property float y
property float z
property uchar red
property uchar green
property uchar blue
end_header
0.583494 0.100404 -0.154825 0 255 0
0.586677 0.097522 -0.154159 2 252 0
0.590023 0.0938938 -0.153354 5 249 0
0.590992 0.088991 -0.152093 8 246 0
0.592335 0.0844908 -0.150842 11 243 0
0.590106 0.0799526 -0.149522 14 240 0
0.586565 0.0754552 -0.14802 17 237 0
0.582365 0.0719733 -0.146509 20 234 0
0.5775 0.0702902 -0.145356 23 231 0
0.572472 0.0720352 -0.144958 26 228 0
0.567448 0.0744162 -0.145329 29 225 0
0.564667 0.0793297 -0.146213 32 222 0
0.564687 0.0851105 -0.147635 35 219 0
0.568851 0.0891481 -0.14893 38 216 0
0.57438 0.0906512 -0.149591 41 213 0
0.580206 0.0913374 -0.150018 43 211 0
0.585209 0.088706 -0.149996 46 208 0
0.58882 0.0843271 -0.149555 49 205 0
0.590418 0.0791372 -0.148783 52 202 0
0.591848 0.074087 -0.147942 55 199 0
0.590092 0.0687236 -0.146804 58 196 0
0.586338 0.0648744 -0.145668 61 193 0
0.582423 0.0616218 -0.144724 64 190 0
0.576742 0.0600294 -0.143918 67 187 0
0.571195 0.0609222 -0.143455 70 184 0
0.566673 0.0648544 -0.143439 73 181 0
0.564764 0.0701957 -0.144024 76 178 0
0.565657 0.075899 -0.14478 79 175 0
0.569648 0.0798664 -0.145757 82 172 0
0.575453 0.0811921 -0.146307 85 169 0
0.581278 0.0800783 -0.14652 87 167 0
0.58635 0.0769668 -0.146257 90 164 0
0.589709 0.0722391 -0.145645 93 161 0
0.590052 0.0663458 -0.145021 96 158 0
0.589424 0.060568 -0.144037 99 155 0
0.586663 0.0553163 -0.143263 102 152 0
0.582507 0.0514081 -0.142526 105 149 0
0.577236 0.0489976 -0.141626 108 146 0
0.571453 0.0499145 -0.141298 111 143 0
0.566998 0.0535635 -0.141206 114 140 0
0.564815 0.0589975 -0.141641 117 137 0
0.564769 0.0649458 -0.14242 120 134 0
0.569357 0.068667 -0.143137 123 131 0
0.574838 0.0698359 -0.143487 126 128 0
0.580785 0.0704247 -0.143455 128 126 0
0.585559 0.0668156 -0.143072 131 123 0
0.588973 0.0619942 -0.142693 134 120 0
0.590078 0.0563077 -0.142183 137 117 0
0.589819 0.0504013 -0.141523 140 114 0
0.58666 0.0454568 -0.140668 143 111 0
0.582488 0.0411998 -0.140003 146 108 0
0.577195 0.0395701 -0.139322 149 105 0
0.571227 0.0399216 -0.139192 152 102 0
0.566293 0.0426283 -0.139424 155 99 0
0.563571 0.0479482 -0.13995 158 96 0
0.564633 0.053649 -0.140333 161 93 0
0.568699 0.0578862 -0.140824 164 90 0
0.574041 0.0596471 -0.141105 167 87 0
0.57961 0.0588322 -0.141066 170 84 0
0.584647 0.0556262 -0.140778 172 82 0
0.588841 0.0515039 -0.140311 175 79 0
0.59004 0.0457934 -0.139723 178 76 0
0.590078 0.0398331 -0.139048 181 73 0
0.587826 0.034495 -0.138446 184 70 0
0.583312 0.0308428 -0.137834 187 67 0
0.57836 0.0276609 -0.137472 190 64 0
0.572402 0.0281563 -0.137355 193 61 0
0.567306 0.0307998 -0.137545 196 58 0
0.563254 0.0351793 -0.137901 199 55 0
0.563227 0.0411588 -0.138372 202 52 0
0.566126 0.0459718 -0.138809 205 49 0
0.571201 0.0487851 -0.139192 208 46 0
0.577185 0.0489949 -0.139306 211 43 0
0.582806 0.047708 -0.139144 213 41 0
0.586954 0.0434307 -0.138759 216 38 0
0.590084 0.038592 -0.138221 219 35 0
0.590042 0.0326253 -0.137608 222 32 0
0.588875 0.0268776 -0.137069 225 29 0
0.585643 0.021904 -0.136483 228 26 0
0.580482 0.0195596 -0.135995 231 23 0
0.575396 0.017615 -0.135692 234 20 0
0.569906 0.0192854 -0.135691 237 17 0
0.565351 0.0225603 -0.135952 240 14 0
0.563288 0.0274957 -0.136631 243 11 0
0.564562 0.0328194 -0.137207 246 8 0
0.567662 0.0365374 -0.137727 249 5 0
0.571002 0.0396308 -0.138229 252 2 0
0.576643 0.0395663 -0.138482 255 0 0
