ply
format ascii 1.0
comment Generated by robot_control PLYWriter
element vertex 11
property float x
property float y
property float z
property uchar red
property uchar green
property uchar blue
end_header
0.644299 -0.197486 -0.0387632 0 255 0
0.64468 -0.202207 -0.0389243 25 229 0
0.645136 -0.206925 -0.0392612 51 204 0
0.645561 -0.211646 -0.0396119 76 178 0
0.646003 -0.216363 -0.0399988 102 153 0
0.646443 -0.221075 -0.0404452 127 127 0
0.646761 -0.225796 -0.0408761 153 101 0
0.646893 -0.230536 -0.0411946 178 76 0
0.646902 -0.235285 -0.0412984 204 50 0
0.646892 -0.240035 -0.0411151 229 25 0
0.646952 -0.244778 -0.0408381 255 0 0
