ply
format ascii 1.0
comment Generated by robot_control PLYWriter
element vertex 33
property float x
property float y
property float z
property uchar red
property uchar green
property uchar blue
end_header
0.695364 0.0457195 -0.0935697 0 255 0
0.698742 0.0425905 -0.0923931 7 247 0
0.701927 0.0378122 -0.0914809 15 239 0
0.70222 0.0321138 -0.0904 23 231 0
0.702226 0.0261664 -0.0898737 31 223 0
0.697959 0.0221815 -0.0896358 39 215 0
0.693581 0.0183176 -0.0896829 47 207 0
0.688389 0.0155091 -0.0900618 55 199 0
0.68246 0.015586 -0.0905854 63 191 0
0.677276 0.0183936 -0.0914327 71 183 0
0.67229 0.0213543 -0.0923449 79 175 0
0.670038 0.0264475 -0.0932869 87 167 0
0.668907 0.032259 -0.094038 95 159 0
0.669129 0.0380721 -0.094879 103 151 0
0.672008 0.0429823 -0.0952209 111 143 0
0.676904 0.0463918 -0.0952291 119 135 0
0.682113 0.0457065 -0.0948619 127 127 0
0.687326 0.0429516 -0.0940537 135 119 0
0.691569 0.03892 -0.0930879 143 111 0
0.692963 0.0335377 -0.0921863 151 103 0
0.692858 0.0276434 -0.0912467 159 95 0
0.688834 0.023313 -0.090768 167 87 0
0.684495 0.0192758 -0.0906472 175 79 0
0.678769 0.0178288 -0.0909813 183 71 0
0.672854 0.0179053 -0.091765 191 63 0
0.66697 0.0177693 -0.0927413 199 55 0
0.663451 0.0222124 -0.0937259 207 47 0
0.659427 0.0261287 -0.0950611 215 39 0
0.658611 0.03171 -0.0962971 223 31 0
0.658707 0.037507 -0.0976739 231 23 0
0.661437 0.0424728 -0.0983951 239 15 0
0.666247 0.0451913 -0.0985399 247 7 0
0.670559 0.0468753 -0.0983889 255 0 0
