ply
format ascii 1.0
comment Generated by robot_control PLYWriter
element vertex 57
property float x
property float y
property float z
property uchar red
property uchar green
property uchar blue
end_header
0.535568 0.155748 -0.126187 0 255 0
0.539993 0.153683 -0.124584 4 250 0
0.5445 0.150546 -0.122661 9 245 0
0.546711 0.146294 -0.121312 13 241 0
0.549258 0.141827 -0.119496 18 236 0
0.548558 0.136005 -0.118199 22 232 0
0.547805 0.130253 -0.117299 27 227 0
0.543475 0.126381 -0.116983 31 223 0
0.538756 0.122698 -0.117206 36 218 0
0.533175 0.121203 -0.118048 40 214 0
0.527415 0.122134 -0.119042 45 209 0
0.523074 0.125926 -0.120639 50 204 0
0.519414 0.13057 -0.121638 54 200 0
0.519371 0.136502 -0.122748 59 195 0
0.519796 0.142303 -0.123757 63 191 0
0.52254 0.147531 -0.124375 68 186 0
0.527069 0.151416 -0.124662 72 182 0
0.532506 0.15393 -0.124553 77 177 0
0.538394 0.155102 -0.124095 81 173 0
0.544355 0.15558 -0.123318 86 168 0
0.549278 0.152673 -0.122431 91 163 0
0.553868 0.148883 -0.121403 95 159 0
0.557258 0.144093 -0.120198 100 154 0
0.558679 0.138286 -0.119397 104 150 0
0.557272 0.132745 -0.118527 109 145 0
0.554981 0.127207 -0.117784 113 141 0
0.550464 0.123744 -0.117265 118 136 0
0.544907 0.121593 -0.117302 122 132 0
0.538995 0.121929 -0.11758 127 127 0
0.533482 0.124313 -0.118171 132 122 0
0.529434 0.128243 -0.119014 136 118 0
0.527189 0.13377 -0.11992 141 113 0
0.527814 0.139334 -0.120892 145 109 0
0.530217 0.144819 -0.121685 150 104 0
0.533989 0.149374 -0.122198 154 100 0
0.539033 0.152274 -0.122557 159 95 0
0.544907 0.15367 -0.122574 163 91 0
0.550864 0.154325 -0.122232 168 86 0
0.556524 0.152548 -0.121726 173 81 0
0.561253 0.149083 -0.120941 177 77 0
0.565749 0.145161 -0.120036 182 72 0
0.56717 0.139914 -0.118778 186 68 0
0.567235 0.133953 -0.117797 191 63 0
0.566349 0.128284 -0.116797 195 59 0
0.562537 0.123691 -0.115995 200 54 0
0.557195 0.121794 -0.115412 204 50 0
0.552132 0.118815 -0.115206 209 45 0
0.546571 0.120301 -0.115418 214 40 0
0.542249 0.124374 -0.116168 218 36 0
0.53785 0.128233 -0.117212 223 31 0
0.536196 0.133849 -0.118167 227 27 0
0.536653 0.139456 -0.1194 232 22 0
0.539067 0.144042 -0.120776 236 18 0
0.542876 0.148502 -0.12198 241 13 0
0.547277 0.151709 -0.122924 245 9 0
0.551251 0.154337 -0.12388 250 4 0
0.557124 0.154371 -0.124312 255 0 0
