ply
format ascii 1.0
comment Generated by robot_control PLYWriter
element vertex 9
property float x
property float y
property float z
property uchar red
property uchar green
property uchar blue
end_header
0.554579 0.0381388 -0.0373615 0 255 0
0.554565 0.0433754 -0.0376133 31 223 0
0.554517 0.0486161 -0.0377529 63 191 0
0.554555 0.0538538 -0.0379815 95 159 0
0.554548 0.0590932 -0.0381696 127 127 0
0.554548 0.0643357 -0.0382249 159 95 0
0.554548 0.0695781 -0.038166 191 63 0
0.554548 0.0748207 -0.0381132 223 31 0
0.554546 0.0800624 -0.0380091 255 0 0
