ply
format ascii 1.0
comment Generated by robot_control PLYWriter
element vertex 48
property float x
property float y
property float z
property uchar red
property uchar green
property uchar blue
end_header
0.622884 0.0379701 -0.10825 0 255 0
0.626907 0.0360886 -0.107593 5 249 0
0.630794 0.03348 -0.107153 10 244 0
0.633153 0.0284143 -0.106662 16 238 0
0.633126 0.0223648 -0.106564 21 233 0
0.630753 0.0175767 -0.106747 27 227 0
0.626467 0.0133807 -0.107182 32 222 0
0.621092 0.0116583 -0.107927 37 217 0
0.615515 0.0129368 -0.108742 43 211 0
0.612414 0.0176436 -0.10912 48 206 0
0.612398 0.0236902 -0.108958 54 200 0
0.617272 0.0269813 -0.108408 59 195 0
0.623165 0.0273149 -0.107739 65 189 0
0.627956 0.0237197 -0.107154 70 184 0
0.631993 0.0193848 -0.106594 75 179 0
0.633117 0.0136501 -0.106332 81 173 0
0.630366 0.00843488 -0.106337 86 168 0
0.627584 0.00341063 -0.106612 92 162 0
0.622561 9.75777e-05 -0.106982 97 157 0
0.617372 0.000925034 -0.107401 103 151 0
0.61224 0.00315749 -0.108067 108 146 0
0.610895 0.00884704 -0.108409 113 141 0
0.614543 0.0135697 -0.108354 119 135 0
0.619613 0.0167358 -0.107867 124 130 0
0.624843 0.0145639 -0.107105 130 124 0
0.629101 0.0106485 -0.106266 135 119 0
0.632036 0.00537761 -0.105808 141 113 0
0.631032 9.77751e-05 -0.1055 146 108 0
0.629746 -0.00554278 -0.105386 151 103 0
0.624771 -0.00856424 -0.105576 157 97 0
0.619272 -0.0106141 -0.106049 162 92 0
0.613551 -0.00960519 -0.106745 168 86 0
0.610847 -0.00444506 -0.107308 173 81 0
0.611907 0.00135199 -0.107712 179 75 0
0.616077 0.00535301 -0.107436 184 70 0
0.621975 0.00573644 -0.106699 189 65 0
0.627056 0.00275885 -0.105819 195 59 0
0.630654 -0.00161236 -0.105096 200 54 0
0.63079 -0.00763741 -0.104599 206 48 0
0.630567 -0.0136692 -0.104303 211 43 0
0.626971 -0.0183187 -0.104403 217 37 0
0.622289 -0.0219167 -0.104872 222 32 0
0.616551 -0.0220284 -0.105503 227 27 0
0.612113 -0.0185614 -0.106365 233 21 0
0.610366 -0.0139452 -0.106974 238 16 0
0.611433 -0.00988156 -0.107336 244 10 0
0.614842 -0.00686501 -0.106996 249 5 0
0.620181 -0.00627652 -0.106074 255 0 0
