ply
format ascii 1.0
comment Generated by robot_control PLYWriter
element vertex 49
property float x
property float y
property float z
property uchar red
property uchar green
property uchar blue
end_header
0.712803 -0.0487886 -0.107164 0 255 0
0.716716 -0.0488859 -0.108038 5 249 0
0.719725 -0.053348 -0.108647 10 244 0
0.720073 -0.0585268 -0.109006 15 239 0
0.717156 -0.0623442 -0.108677 21 233 0
0.712135 -0.064829 -0.107893 26 228 0
0.706662 -0.0635242 -0.107072 31 223 0
0.701642 -0.0613207 -0.106385 37 217 0
0.700406 -0.0558584 -0.105887 42 212 0
0.699902 -0.0510212 -0.105513 47 207 0
0.70071 -0.0451343 -0.105438 53 201 0
0.704471 -0.0408308 -0.105728 58 196 0
0.709732 -0.0385979 -0.106291 63 191 0
0.715659 -0.0384728 -0.106907 69 185 0
0.719215 -0.0427767 -0.10742 74 180 0
0.721173 -0.0479998 -0.107618 79 175 0
0.71762 -0.0527622 -0.10747 85 169 0
0.712569 -0.0544931 -0.107068 90 164 0
0.70715 -0.0524933 -0.106524 95 159 0
0.702224 -0.0506367 -0.106055 100 154 0
0.700695 -0.0452219 -0.105721 106 148 0
0.700872 -0.0392715 -0.10555 111 143 0
0.702406 -0.0337225 -0.105617 116 138 0
0.70616 -0.02926 -0.105967 122 132 0
0.711858 -0.0281715 -0.106328 127 127 0
0.71732 -0.0290762 -0.1068 132 122 0
0.721353 -0.0331641 -0.107141 138 116 0
0.720601 -0.0390755 -0.10723 143 111 0
0.717923 -0.0439777 -0.107011 148 106 0
0.71197 -0.0441194 -0.106638 154 100 0
0.706213 -0.0433151 -0.106112 159 95 0
0.703444 -0.0385004 -0.105731 164 90 0
0.700867 -0.0333675 -0.10532 170 84 0
0.70024 -0.0274999 -0.105159 175 79 0
0.703228 -0.0229144 -0.105232 180 74 0
0.708147 -0.0197475 -0.105578 185 69 0
0.713905 -0.0186502 -0.106109 191 63 0
0.719456 -0.0201667 -0.106593 196 58 0
0.722074 -0.0243502 -0.106975 201 53 0
0.720546 -0.0289419 -0.107074 207 47 0
0.717444 -0.0337616 -0.106841 212 42 0
0.711754 -0.0346536 -0.106119 217 37 0
0.706695 -0.0325926 -0.105565 223 31 0
0.702724 -0.0291242 -0.105047 228 26 0
0.70089 -0.0239503 -0.104569 233 21 0
0.70098 -0.0180415 -0.104321 239 15 0
0.703091 -0.0127016 -0.104186 244 10 0
0.707017 -0.0102248 -0.10458 249 5 0
0.711541 -0.00894429 -0.105313 255 0 0
