ply
format ascii 1.0
comment Generated by robot_control PLYWriter
element vertex 14
property float x
property float y
property float z
property uchar red
property uchar green
property uchar blue
end_header
0.604191 0.0200475 -0.113771 0 255 0
0.602694 0.0245218 -0.115531 19 235 0
0.60136 0.0290718 -0.117242 39 215 0
0.599985 0.0336304 -0.118899 58 196 0
0.598534 0.0381763 -0.120523 78 176 0
0.597054 0.0427308 -0.122098 98 156 0
0.595574 0.0473043 -0.123617 117 137 0
0.594109 0.0518955 -0.125095 137 117 0
0.592729 0.0565261 -0.126532 156 98 0
0.591351 0.0611854 -0.127876 176 78 0
0.589899 0.0658388 -0.129161 196 58 0
0.588436 0.0704785 -0.130483 215 39 0
0.586921 0.075133 -0.131688 235 19 0
0.58554 0.079833 -0.132875 255 0 0
