ply
format ascii 1.0
comment Generated by robot_control PLYWriter
element vertex 12
property float x
property float y
property float z
property uchar red
property uchar green
property uchar blue
end_header
0.522647 -0.236016 -0.133505 0 255 0
0.522952 -0.240789 -0.132805 23 231 0
0.523182 -0.245472 -0.131588 46 208 0
0.523394 -0.25018 -0.130455 69 185 0
0.523622 -0.254846 -0.129163 92 162 0
0.523861 -0.259483 -0.127771 115 139 0
0.524292 -0.264132 -0.126468 139 115 0
0.524709 -0.268798 -0.125223 162 92 0
0.524961 -0.273503 -0.124088 185 69 0
0.525272 -0.27822 -0.123018 208 46 0
0.525637 -0.282981 -0.122209 231 23 0
0.526191 -0.287771 -0.121724 255 0 0
