ply
format ascii 1.0
comment Generated by robot_control PLYWriter
element vertex 32
property float x
property float y
property float z
property uchar red
property uchar green
property uchar blue
end_header
0.706536 0.0832681 -0.159846 0 255 0
0.711201 0.0797304 -0.159575 8 246 0
0.713439 0.0746252 -0.159031 16 238 0
0.714277 0.0690273 -0.158342 24 230 0
0.713722 0.0632495 -0.157802 32 222 0
0.709643 0.0594274 -0.157346 41 213 0
0.705556 0.0554317 -0.157042 49 205 0
0.699766 0.0545497 -0.15686 57 197 0
0.693798 0.0547949 -0.156861 65 189 0
0.688166 0.0566623 -0.156961 74 180 0
0.683171 0.0599305 -0.157152 82 172 0
0.680015 0.0650027 -0.157379 90 164 0
0.678709 0.0703269 -0.157741 98 156 0
0.680581 0.0758671 -0.158073 106 148 0
0.683956 0.0802196 -0.158381 115 139 0
0.68914 0.0830088 -0.15856 123 131 0
0.694963 0.0821129 -0.158479 131 123 0
0.699711 0.0786577 -0.15832 139 115 0
0.703543 0.074066 -0.15814 148 106 0
0.703696 0.0683049 -0.157813 156 98 0
0.701603 0.0627068 -0.157508 164 90 0
0.697848 0.0582618 -0.157172 172 82 0
0.692728 0.0551768 -0.156976 180 74 0
0.687245 0.0529455 -0.156872 189 65 0
0.681421 0.0536645 -0.156864 197 57 0
0.676125 0.0564553 -0.156958 205 49 0
0.671028 0.0595734 -0.157096 213 41 0
0.669386 0.065057 -0.157365 222 32 0
0.669392 0.0710396 -0.157666 230 24 0
0.670724 0.076718 -0.157776 238 16 0
0.674738 0.081027 -0.157806 246 8 0
0.680578 0.0809856 -0.158047 255 0 0
