ply
format ascii 1.0
comment Generated by robot_control PLYWriter
element vertex 52
property float x
property float y
property float z
property uchar red
property uchar green
property uchar blue
end_header
0.609649 0.117593 -0.179598 0 255 0
0.611971 0.117021 -0.178289 5 250 0
0.616128 0.115178 -0.176059 10 245 0
0.620171 0.113347 -0.17316 15 240 0
0.621135 0.108665 -0.170148 20 235 0
0.621808 0.104034 -0.167649 25 230 0
0.621376 0.0997506 -0.165153 30 225 0
0.618728 0.0952683 -0.16254 35 220 0
0.614765 0.0921304 -0.160769 40 215 0
0.609561 0.0897041 -0.160027 45 210 0
0.603619 0.0893585 -0.160457 50 205 0
0.59779 0.089314 -0.161933 55 200 0
0.593173 0.0925347 -0.163548 60 195 0
0.590145 0.0962372 -0.166524 65 189 0
0.588793 0.101481 -0.168928 70 185 0
0.590987 0.10573 -0.17167 75 179 0
0.594756 0.110004 -0.173079 80 175 0
0.600366 0.111708 -0.172945 85 169 0
0.60622 0.111043 -0.171907 90 165 0
0.611002 0.108586 -0.169599 95 159 0
0.614681 0.104516 -0.167135 100 155 0
0.616029 0.0990916 -0.164887 105 149 0
0.6161 0.0938294 -0.162008 110 145 0
0.613584 0.0891821 -0.159207 115 139 0
0.610274 0.084498 -0.157459 120 135 0
0.605217 0.0817784 -0.156049 125 129 0
0.5994 0.0803867 -0.15573 130 124 0
0.59341 0.0806468 -0.15622 135 119 0
0.58842 0.0828845 -0.157206 140 114 0
0.585156 0.0873195 -0.159455 145 109 0
0.583268 0.0926451 -0.161494 150 104 0
0.584106 0.0977114 -0.164207 155 99 0
0.587568 0.101984 -0.165833 160 94 0
0.59287 0.104321 -0.166825 165 89 0
0.598809 0.103696 -0.166255 170 84 0
0.603826 0.101133 -0.16468 175 79 0
0.60694 0.0965371 -0.162451 180 74 0
0.609128 0.0921878 -0.159659 185 69 0
0.608982 0.0867152 -0.157149 190 64 0
0.607746 0.0813481 -0.154868 195 59 0
0.604554 0.0770819 -0.152367 200 54 0
0.599371 0.0745926 -0.15057 205 49 0
0.593778 0.073296 -0.149356 210 44 0
0.587798 0.0731591 -0.14949 215 39 0
0.58256 0.0753004 -0.15074 220 34 0
0.579028 0.0799782 -0.152124 225 29 0
0.577047 0.0838927 -0.154826 230 24 0
0.576318 0.0883342 -0.157928 235 19 0
0.579061 0.0922226 -0.160999 240 14 0
0.582013 0.0949009 -0.164334 245 9 0
0.584912 0.0978456 -0.166136 250 4 0
0.590138 0.0976372 -0.166965 255 0 0
