ply
format ascii 1.0
comment Generated by robot_control PLYWriter
element vertex 11
property float x
property float y
property float z
property uchar red
property uchar green
property uchar blue
end_header
0.636569 -0.11609 -0.109551 0 255 0
0.636515 -0.110927 -0.108906 25 229 0
0.636471 -0.105764 -0.108265 51 204 0
0.636417 -0.100605 -0.107586 76 178 0
0.636361 -0.095451 -0.106877 102 153 0
0.63631 -0.0903016 -0.106132 127 127 0
0.636259 -0.0851502 -0.105401 153 101 0
0.636212 -0.0799917 -0.104722 178 76 0
0.636222 -0.0748285 -0.10408 204 50 0
0.636246 -0.0696744 -0.103373 229 25 0
0.63627 -0.0645058 -0.102786 255 0 0
