ply
format ascii 1.0
comment Generated by robot_control PLYWriter
element vertex 65
property float x
property float y
property float z
property uchar red
property uchar green
property uchar blue
end_header
0.70104 -0.0123147 -0.105078 0 255 0
0.70644 -0.0130178 -0.105027 3 251 0
0.710755 -0.015835 -0.104862 7 247 0
0.712884 -0.020982 -0.104481 11 243 0
0.712626 -0.0249704 -0.103774 15 239 0
0.711064 -0.0306108 -0.103159 19 235 0
0.707663 -0.0347822 -0.102455 23 231 0
0.701743 -0.0353321 -0.101941 27 227 0
0.695796 -0.0344847 -0.101725 31 223 0
0.691068 -0.0320005 -0.101849 35 219 0
0.686998 -0.0276441 -0.102257 39 215 0
0.684492 -0.0228234 -0.102878 43 211 0
0.684614 -0.0168242 -0.103449 47 207 0
0.685147 -0.0109469 -0.104337 51 203 0
0.688891 -0.006602 -0.105131 55 199 0
0.693005 -0.00236897 -0.105749 59 195 0
0.698721 -0.000785532 -0.106242 63 191 0
0.704723 -0.000520463 -0.106511 67 187 0
0.710185 -0.00303558 -0.106435 71 183 0
0.713085 -0.00763666 -0.106176 75 179 0
0.714138 -0.0132807 -0.105678 79 175 0
0.711766 -0.0187997 -0.105153 83 171 0
0.707485 -0.0225904 -0.104509 87 167 0
0.701834 -0.0244901 -0.104244 91 163 0
0.696285 -0.0232556 -0.104179 95 159 0
0.690844 -0.0208151 -0.104409 99 155 0
0.686885 -0.0164296 -0.104896 103 151 0
0.684334 -0.0109864 -0.105376 107 147 0
0.684839 -0.00516706 -0.106136 111 143 0
0.687244 0.000324191 -0.106779 115 139 0
0.690388 0.00528674 -0.107473 119 135 0
0.69501 0.00905694 -0.108104 123 131 0
0.700782 0.00987041 -0.108502 127 127 0
0.706798 0.00979973 -0.108725 131 123 0
0.711078 0.00559172 -0.108556 135 119 0
0.71453 0.000675453 -0.108074 139 115 0
0.714831 -0.00502774 -0.107403 143 111 0
0.711731 -0.00999455 -0.106841 147 107 0
0.706586 -0.0123836 -0.10641 151 103 0
0.700839 -0.0138507 -0.106175 155 99 0
0.694983 -0.0124876 -0.106265 159 95 0
0.690503 -0.00848138 -0.106577 163 91 0
0.687795 -0.00319732 -0.107339 167 87 0
0.685262 0.00220806 -0.108109 171 83 0
0.685914 0.00780513 -0.108884 175 79 0
0.688057 0.0133567 -0.109818 179 75 0
0.691336 0.0182162 -0.110689 183 71 0
0.696773 0.0206913 -0.111513 187 67 0
0.702634 0.0212995 -0.112011 191 63 0
0.708096 0.0188331 -0.111972 195 59 0
0.712746 0.0150944 -0.111596 199 55 0
0.714004 0.00990182 -0.110668 203 51 0
0.71357 0.00441748 -0.10978 207 47 0
0.710044 0.000123102 -0.108694 211 43 0
0.704678 -0.00240523 -0.108024 215 39 0
0.698704 -0.00220397 -0.107785 219 35 0
0.693448 0.000451991 -0.108015 223 31 0
0.689601 0.004739 -0.108557 227 27 0
0.687296 0.00978904 -0.109531 231 23 0
0.68554 0.0151822 -0.110668 235 19 0
0.686684 0.0202518 -0.111859 239 15 0
0.688797 0.0253211 -0.113092 243 11 0
0.692165 0.0279699 -0.114203 247 7 0
0.695088 0.0305825 -0.115257 251 3 0
0.700284 0.0316919 -0.116181 255 0 0
