ply
format ascii 1.0
comment Generated by robot_control PLYWriter
element vertex 12
property float x
property float y
property float z
property uchar red
property uchar green
property uchar blue
end_header
0.498552 -0.0864095 -0.1109 0 255 0
0.498523 -0.0911749 -0.111123 23 231 0
0.498545 -0.0959289 -0.111547 46 208 0
0.498588 -0.100681 -0.111995 69 185 0
0.498634 -0.105429 -0.112488 92 162 0
0.498666 -0.110174 -0.11301 115 139 0
0.498699 -0.11491 -0.113601 139 115 0
0.498731 -0.119644 -0.114215 162 92 0
0.498842 -0.124375 -0.114834 185 69 0
0.498912 -0.129117 -0.115381 208 46 0
0.498991 -0.133854 -0.11596 231 23 0
0.499053 -0.138604 -0.116411 255 0 0
