ply
format ascii 1.0
comment Generated by robot_control PLYWriter
element vertex 12
property float x
property float y
property float z
property uchar red
property uchar green
property uchar blue
end_header
0.527419 -0.166852 -0.111934 0 255 0
0.531232 -0.171136 -0.110978 23 231 0
0.533782 -0.176 -0.110309 46 208 0
0.531618 -0.181376 -0.110229 69 185 0
0.527984 -0.185734 -0.110573 92 162 0
0.52264 -0.18666 -0.111459 115 139 0
0.517232 -0.185763 -0.112348 139 115 0
0.51317 -0.181922 -0.113326 162 92 0
0.512169 -0.176452 -0.114313 185 69 0
0.513714 -0.171049 -0.115002 208 46 0
0.517766 -0.167589 -0.11517 231 23 0
0.5227 -0.166471 -0.114676 255 0 0
