ply
format ascii 1.0
comment Generated by robot_control PLYWriter
element vertex 12
property float x
property float y
property float z
property uchar red
property uchar green
property uchar blue
end_header
0.628305 -0.370903 -0.102174 0 255 0
0.62844 -0.37595 -0.101882 23 231 0
0.628464 -0.381008 -0.101955 46 208 0
0.628369 -0.386056 -0.102202 69 185 0
0.628239 -0.391072 -0.102823 92 162 0
0.628123 -0.396066 -0.103627 115 139 0
0.627904 -0.401058 -0.10442 139 115 0
0.62761 -0.406062 -0.105103 162 92 0
0.62732 -0.411087 -0.105612 185 69 0
0.627065 -0.41613 -0.105793 208 46 0
0.626971 -0.421187 -0.105759 231 23 0
0.626667 -0.42621 -0.105317 255 0 0
