ply
format ascii 1.0
comment Generated by robot_control PLYWriter
element vertex 12
property float x
property float y
property float z
property uchar red
property uchar green
property uchar blue
end_header
0.615574 -0.308617 -0.0976312 0 255 0
0.615719 -0.303773 -0.0981988 23 231 0
0.615678 -0.298904 -0.0986129 46 208 0
0.615668 -0.29404 -0.0990879 69 185 0
0.615578 -0.289168 -0.0994768 92 162 0
0.615499 -0.2843 -0.0999143 115 139 0
0.615408 -0.279437 -0.100408 139 115 0
0.615328 -0.274577 -0.100921 162 92 0
0.615078 -0.269731 -0.101509 185 69 0
0.61503 -0.264898 -0.102223 208 46 0
0.614749 -0.260089 -0.102999 231 23 0
0.61484 -0.255271 -0.103815 255 0 0
