ply
format ascii 1.0
comment Generated by robot_control PLYWriter
element vertex 29
property float x
property float y
property float z
property uchar red
property uchar green
property uchar blue
end_header
0.593229 0.0664531 -0.135344 0 255 0
0.596717 0.0637348 -0.13424 9 245 0
0.600374 0.0599583 -0.132786 18 236 0
0.60079 0.0543387 -0.130899 27 227 0
0.597482 0.0495536 -0.130209 36 218 0
0.592676 0.0463082 -0.130204 45 209 0
0.586781 0.0458258 -0.130987 54 200 0
0.581765 0.0479708 -0.132284 63 191 0
0.576604 0.0506918 -0.133766 72 182 0
0.573708 0.0553462 -0.135178 81 173 0
0.573547 0.0610988 -0.136589 91 163 0
0.575429 0.0667305 -0.137543 100 154 0
0.579401 0.0708009 -0.138393 109 145 0
0.584529 0.0736823 -0.138586 118 136 0
0.590497 0.0741204 -0.138195 127 127 0
0.595643 0.0716772 -0.137164 136 118 0
0.598415 0.0672299 -0.135905 145 109 0
0.598312 0.061287 -0.134929 154 100 0
0.593805 0.0578291 -0.134253 163 91 0
0.589687 0.0537909 -0.134226 173 81 0
0.583732 0.053798 -0.134862 182 72 0
0.578402 0.0561962 -0.136097 191 63 0
0.573919 0.0594526 -0.138143 200 54 0
0.570948 0.0636547 -0.140338 209 45 0
0.570779 0.0690974 -0.14257 218 36 0
0.572522 0.073672 -0.14463 227 27 0
0.576483 0.0777824 -0.146344 236 18 0
0.579996 0.0816152 -0.147058 245 9 0
0.585021 0.0826914 -0.14663 255 0 0
