ply
format ascii 1.0
comment Generated by robot_control PLYWriter
element vertex 97
property float x
property float y
property float z
property uchar red
property uchar green
property uchar blue
end_header
0.710979 0.0734133 -0.124639 0 255 0
0.715285 0.0714061 -0.124206 2 252 0
0.719039 0.0676644 -0.122964 5 249 0
0.720898 0.0630484 -0.121766 7 247 0
0.722313 0.0579041 -0.120582 10 244 0
0.720925 0.0526272 -0.119147 13 241 0
0.718882 0.0474605 -0.117736 15 239 0
0.71453 0.0443577 -0.116318 18 236 0
0.709646 0.0412265 -0.115375 21 233 0
0.703689 0.0410393 -0.114949 23 231 0
0.698158 0.0426808 -0.115242 26 228 0
0.694376 0.046853 -0.116124 29 225 0
0.692371 0.0519219 -0.117322 31 223 0
0.692628 0.057822 -0.118362 34 220 0
0.697072 0.0611304 -0.119435 37 217 0
0.702092 0.0640353 -0.120055 39 215 0
0.708078 0.063903 -0.120352 42 212 0
0.713504 0.0620325 -0.120081 45 209 0
0.718197 0.0584106 -0.119419 47 207 0
0.721711 0.0536717 -0.118449 50 204 0
0.722764 0.0480792 -0.117301 53 201 0
0.720769 0.0427406 -0.11604 55 199 0
0.719118 0.037853 -0.114851 58 196 0
0.715254 0.0334484 -0.113955 61 193 0
0.710487 0.0306179 -0.113035 63 191 0
0.704582 0.0314097 -0.112658 66 188 0
0.698618 0.0315455 -0.112752 69 185 0
0.694627 0.0359992 -0.113127 71 183 0
0.692637 0.0413102 -0.114007 74 180 0
0.694637 0.0467689 -0.114981 77 177 0
0.697491 0.0508586 -0.116027 79 175 0
0.702775 0.0534745 -0.116681 82 172 0
0.708764 0.0535169 -0.116791 85 169 0
0.714283 0.0523377 -0.116477 87 167 0
0.718732 0.0483705 -0.115916 90 164 0
0.722764 0.0440229 -0.115093 92 162 0
0.722633 0.0383155 -0.114171 95 159 0
0.722329 0.032446 -0.113044 98 156 0
0.720021 0.0270931 -0.111951 100 154 0
0.715695 0.0232016 -0.111022 103 151 0
0.710171 0.0210465 -0.110176 106 148 0
0.704336 0.0201129 -0.109842 108 146 0
0.698872 0.0220951 -0.109852 111 143 0
0.69548 0.0269749 -0.110382 114 140 0
0.693404 0.0325288 -0.111082 116 138 0
0.695136 0.037886 -0.112008 119 135 0
0.698947 0.0418928 -0.112787 122 132 0
0.704623 0.0437733 -0.1132 124 130 0
0.710402 0.0434673 -0.113336 127 127 0
0.715547 0.0405075 -0.112995 130 124 0
0.719689 0.0362329 -0.112455 132 122 0
0.723001 0.0313121 -0.111798 135 119 0
0.723744 0.0259843 -0.11083 138 116 0
0.721345 0.0206029 -0.109798 140 114 0
0.718881 0.0152189 -0.108894 143 111 0
0.713976 0.0123999 -0.108119 146 108 0
0.708646 0.00972048 -0.10757 148 106 0
0.702949 0.0105816 -0.107279 151 103 0
0.698099 0.0139744 -0.107422 154 100 0
0.694667 0.0186837 -0.108005 156 98 0
0.694252 0.0246034 -0.108686 159 95 0
0.6976 0.0285279 -0.109372 162 92 0
0.702335 0.032011 -0.110016 164 90 0
0.707978 0.0337728 -0.110272 167 87 0
0.713401 0.0322498 -0.110326 170 84 0
0.718703 0.0294835 -0.110077 172 82 0
0.721389 0.0242585 -0.109454 175 79 0
0.723949 0.0189264 -0.108705 177 77 0
0.72354 0.0132373 -0.107858 180 74 0
0.721333 0.00774243 -0.107007 183 71 0
0.717913 0.00330597 -0.106008 185 69 0
0.712626 0.000621757 -0.1054 188 66 0
0.70708 0.000175046 -0.105008 191 63 0
0.701198 0.000962683 -0.104902 193 61 0
0.696953 0.00453586 -0.105069 196 58 0
0.694572 0.00942763 -0.105581 199 55 0
0.69491 0.0152723 -0.106293 201 53 0
0.698626 0.019886 -0.107063 204 50 0
0.70388 0.0224563 -0.10762 207 47 0
0.709719 0.0236691 -0.107914 209 45 0
0.71521 0.0216927 -0.107963 212 42 0
0.72032 0.0187741 -0.107775 215 39 0
0.723049 0.0137747 -0.107326 217 37 0
0.724374 0.00813976 -0.106569 220 34 0
0.724738 0.00225558 -0.105717 223 31 0
0.722299 -0.00267975 -0.104873 225 29 0
0.718645 -0.0064833 -0.104107 228 26 0
0.713794 -0.00973638 -0.10336 231 23 0
0.708338 -0.0110709 -0.102903 233 21 0
0.703313 -0.00913417 -0.10272 236 18 0
0.698441 -0.00652456 -0.102845 239 15 0
0.695301 -0.0018734 -0.10341 241 13 0
0.695449 0.00377708 -0.104217 244 10 0
0.698026 0.00862717 -0.10501 247 7 0
0.70097 0.0118976 -0.105668 249 5 0
0.705247 0.0134339 -0.106098 252 2 0
0.710837 0.0137345 -0.106657 255 0 0
