ply
format ascii 1.0
comment Generated by robot_control PLYWriter
element vertex 10
property float x
property float y
property float z
property uchar red
property uchar green
property uchar blue
end_header
0.504107 0.0900452 -0.137556 0 255 0
0.504386 0.085226 -0.136829 28 226 0
0.504959 0.0804314 -0.136132 56 198 0
0.505447 0.0756278 -0.135423 85 169 0
0.505816 0.070821 -0.134656 113 141 0
0.506194 0.0660216 -0.133846 141 113 0
0.506681 0.0612267 -0.133081 170 84 0
0.507292 0.056421 -0.132511 198 56 0
0.507633 0.0515635 -0.132177 226 28 0
0.50812 0.0467247 -0.131834 255 0 0
