ply
format ascii 1.0
comment Generated by robot_control PLYWriter
element vertex 155
property float x
property float y
property float z
property uchar red
property uchar green
property uchar blue
end_header
0.562079 0.153644 -0.123683 0 255 0
0.565258 0.151008 -0.122634 1 253 0
0.568731 0.148111 -0.121043 3 251 0
0.571772 0.143744 -0.119553 4 250 0
0.574321 0.139248 -0.118059 6 248 0
0.574545 0.134269 -0.116142 8 246 0
0.574595 0.128371 -0.115161 9 245 0
0.571061 0.124308 -0.114151 11 243 0
0.568799 0.119173 -0.113411 13 241 0
0.564209 0.115384 -0.113197 14 240 0
0.55838 0.11444 -0.113235 16 238 0
0.55251 0.114145 -0.11362 18 236 0
0.546884 0.115261 -0.114122 19 235 0
0.542757 0.119453 -0.115036 21 233 0
0.540193 0.124166 -0.116029 23 231 0
0.538707 0.129428 -0.116869 24 230 0
0.539922 0.134915 -0.117668 26 228 0
0.543297 0.139578 -0.118305 28 226 0
0.548835 0.141564 -0.118674 29 225 0
0.55411 0.143937 -0.118651 31 223 0
0.559655 0.142478 -0.118297 33 221 0
0.565242 0.141419 -0.117605 34 220 0
0.56941 0.137262 -0.116883 36 218 0
0.572304 0.132181 -0.115636 38 216 0
0.574621 0.126737 -0.114841 39 215 0
0.574623 0.120875 -0.113642 41 213 0
0.572984 0.115249 -0.112927 43 211 0
0.569448 0.110615 -0.112294 44 210 0
0.56523 0.106501 -0.11178 46 208 0
0.559888 0.103848 -0.11174 48 206 0
0.554012 0.103284 -0.11193 49 205 0
0.548276 0.104782 -0.112261 51 203 0
0.542958 0.106851 -0.112898 52 202 0
0.540665 0.111774 -0.11349 54 200 0
0.538524 0.117049 -0.11421 56 198 0
0.540831 0.122115 -0.114914 57 197 0
0.543481 0.127455 -0.115378 59 195 0
0.547647 0.131053 -0.11562 61 193 0
0.553388 0.132719 -0.115522 62 192 0
0.559319 0.132896 -0.115213 64 190 0
0.564952 0.130917 -0.11482 66 188 0
0.56971 0.127935 -0.11416 67 187 0
0.572577 0.122712 -0.113623 69 185 0
0.574623 0.117347 -0.112911 71 183 0
0.574656 0.111393 -0.112313 72 182 0
0.573611 0.105683 -0.111744 74 180 0
0.570659 0.100514 -0.111309 76 178 0
0.566296 0.0967218 -0.111041 77 177 0
0.561147 0.0936903 -0.110967 79 175 0
0.555661 0.0919982 -0.111038 81 173 0
0.549849 0.0930095 -0.111298 82 172 0
0.544929 0.0962349 -0.111669 84 170 0
0.54052 0.10013 -0.11229 86 168 0
0.538587 0.105654 -0.112677 87 167 0
0.540474 0.111325 -0.112971 89 165 0
0.543771 0.116269 -0.11323 91 163 0
0.54838 0.120027 -0.113321 92 162 0
0.55389 0.121727 -0.113253 94 160 0
0.559858 0.121994 -0.113004 96 158 0
0.565367 0.119981 -0.11267 97 157 0
0.569663 0.115955 -0.112266 99 155 0
0.573558 0.111434 -0.111836 101 153 0
0.574663 0.105858 -0.111444 102 152 0
0.574683 0.0998907 -0.111012 104 150 0
0.573207 0.0941859 -0.110661 105 149 0
0.570332 0.0890056 -0.110399 107 147 0
0.565819 0.0852322 -0.11027 109 145 0
0.560507 0.0825887 -0.110235 110 144 0
0.554613 0.0819906 -0.110325 112 142 0
0.548773 0.0827049 -0.110505 114 140 0
0.544109 0.0862199 -0.110815 115 139 0
0.541167 0.0913702 -0.11113 117 137 0
0.540728 0.0972364 -0.111436 119 135 0
0.540774 0.103218 -0.111584 120 134 0
0.544751 0.107542 -0.111619 122 132 0
0.549723 0.110769 -0.111554 124 130 0
0.555523 0.112102 -0.111452 125 129 0
0.561467 0.111944 -0.111282 127 127 0
0.566935 0.109709 -0.111051 129 125 0
0.570788 0.105141 -0.110783 130 124 0
0.574279 0.100288 -0.110524 132 122 0
0.574682 0.0944423 -0.110222 134 120 0
0.574702 0.088467 -0.109914 135 119 0
0.572808 0.0828781 -0.109702 137 117 0
0.570198 0.077497 -0.109621 139 115 0
0.565777 0.0741514 -0.109636 140 114 0
0.560047 0.0724357 -0.109723 142 112 0
0.55413 0.0723026 -0.10985 144 110 0
0.548215 0.0731571 -0.110006 145 109 0
0.543837 0.0767059 -0.110209 147 107 0
0.540859 0.0818265 -0.110433 149 105 0
0.540823 0.0878074 -0.11059 150 104 0
0.541574 0.0934948 -0.110708 152 102 0
0.545517 0.0979773 -0.110717 153 101 0
0.550422 0.100915 -0.110634 155 99 0
0.556331 0.10169 -0.110445 157 97 0
0.562097 0.100456 -0.110193 158 96 0
0.567088 0.0973335 -0.109924 160 94 0
0.571186 0.0930278 -0.109588 162 92 0
0.573704 0.0876809 -0.109303 163 91 0
0.574702 0.0818803 -0.109001 165 89 0
0.57417 0.0759357 -0.108768 167 87 0
0.572244 0.0703533 -0.108656 168 86 0
0.568797 0.0655961 -0.108627 170 84 0
0.563757 0.0625463 -0.108715 172 82 0
0.558164 0.0604272 -0.108871 173 81 0
0.552516 0.0609716 -0.109056 175 79 0
0.547195 0.0636281 -0.109306 177 77 0
0.54305 0.0678927 -0.109609 178 76 0
0.540846 0.0731521 -0.109949 180 74 0
0.540865 0.0791291 -0.110216 182 72 0
0.543408 0.0840604 -0.110405 183 71 0
0.5479 0.0880118 -0.11036 185 69 0
0.552962 0.0903832 -0.110197 187 67 0
0.558931 0.0901901 -0.109909 188 66 0
0.564512 0.0883538 -0.109571 190 64 0
0.569736 0.0854714 -0.109205 192 62 0
0.573803 0.0811633 -0.108908 193 61 0
0.574693 0.0755183 -0.108512 195 59 0
0.577099 0.0701002 -0.108102 197 57 0
0.574755 0.0646422 -0.107724 198 56 0
0.573727 0.0590612 -0.107424 200 54 0
0.569602 0.0547401 -0.107278 202 52 0
0.564951 0.0509944 -0.107243 203 51 0
0.559427 0.0495134 -0.107412 205 49 0
0.553451 0.0494944 -0.107699 206 48 0
0.548089 0.0518386 -0.108058 208 46 0
0.543653 0.0554508 -0.108575 210 44 0
0.542478 0.0607545 -0.109029 211 43 0
0.540338 0.0653842 -0.109568 213 41 0
0.541026 0.0712439 -0.109947 215 39 0
0.544831 0.0758589 -0.110072 216 38 0
0.549742 0.0791445 -0.110015 218 36 0
0.555621 0.0795816 -0.109771 220 34 0
0.56159 0.0796057 -0.109368 221 33 0
0.566986 0.0773462 -0.10894 223 31 0
0.571776 0.0739267 -0.108453 225 29 0
0.574738 0.0690329 -0.108017 226 28 0
0.576466 0.0634126 -0.107625 228 26 0
0.577147 0.0575923 -0.107131 230 24 0
0.575008 0.0522823 -0.106791 231 23 0
0.571681 0.0473388 -0.106482 233 21 0
0.567976 0.0427338 -0.106247 235 19 0
0.563105 0.0393241 -0.106147 236 18 0
0.557182 0.0391208 -0.106331 238 16 0
0.551601 0.0402888 -0.106801 240 14 0
0.546408 0.0425021 -0.107357 241 13 0
0.542955 0.0466075 -0.108267 243 11 0
0.541108 0.0518103 -0.108879 245 9 0
0.540069 0.0573074 -0.109445 246 8 0
0.542486 0.0620568 -0.109594 248 6 0
0.546537 0.0654583 -0.109463 250 4 0
0.550039 0.068986 -0.109166 251 3 0
0.553293 0.0702378 -0.108914 253 1 0
0.558726 0.0692722 -0.108545 255 0 0
