ply
format ascii 1.0
comment Generated by robot_control PLYWriter
element vertex 12
property float x
property float y
property float z
property uchar red
property uchar green
property uchar blue
end_header
0.660579 -0.328579 -0.0775514 0 255 0
0.660292 -0.333578 -0.0783591 23 231 0
0.659933 -0.338644 -0.0785781 46 208 0
0.659631 -0.343706 -0.0785753 69 185 0
0.65936 -0.348707 -0.0777904 92 162 0
0.659102 -0.353491 -0.0761624 115 139 0
0.658855 -0.358019 -0.0738657 139 115 0
0.658631 -0.362431 -0.071348 162 92 0
0.6586 -0.366816 -0.0687721 185 69 0
0.658586 -0.371162 -0.0661298 208 46 0
0.658584 -0.375216 -0.0630679 231 23 0
0.658633 -0.379195 -0.0599038 255 0 0
