ply
format ascii 1.0
comment Generated by robot_control PLYWriter
element vertex 113
property float x
property float y
property float z
property uchar red
property uchar green
property uchar blue
end_header
0.606228 0.0336453 -0.116679 0 255 0
0.611146 0.0318507 -0.115539 2 252 0
0.614248 0.0292173 -0.114263 4 250 0
0.616615 0.025079 -0.112648 6 248 0
0.616554 0.0192558 -0.111342 9 245 0
0.61409 0.0147369 -0.110282 11 243 0
0.610052 0.0115752 -0.109583 13 241 0
0.605008 0.0094514 -0.109302 15 239 0
0.599876 0.0104144 -0.109645 18 236 0
0.594897 0.0120937 -0.110403 20 234 0
0.590458 0.0146391 -0.111644 22 232 0
0.588209 0.0199213 -0.113179 25 229 0
0.586788 0.0249453 -0.115079 27 227 0
0.586758 0.0307424 -0.116484 29 225 0
0.588753 0.0360573 -0.117796 31 223 0
0.593508 0.039448 -0.118928 34 220 0
0.597975 0.0430731 -0.119299 36 218 0
0.603832 0.0434041 -0.119232 38 216 0
0.609372 0.0420392 -0.118343 40 214 0
0.614105 0.03886 -0.117172 43 211 0
0.616422 0.033983 -0.115976 45 209 0
0.616591 0.0282635 -0.114835 47 207 0
0.61303 0.023785 -0.113761 50 204 0
0.607991 0.0207671 -0.113261 52 202 0
0.602358 0.0195253 -0.11338 54 200 0
0.596542 0.0203995 -0.114216 56 198 0
0.591812 0.0233468 -0.115234 59 195 0
0.588263 0.0278535 -0.116695 61 193 0
0.586804 0.0335691 -0.117649 63 191 0
0.587444 0.0391603 -0.119227 66 188 0
0.589837 0.0445137 -0.120316 68 186 0
0.593053 0.049394 -0.121227 70 184 0
0.598268 0.0521893 -0.121664 72 182 0
0.603866 0.0535097 -0.121518 75 179 0
0.609171 0.0514421 -0.121073 77 177 0
0.613911 0.0480298 -0.12018 79 175 0
0.616642 0.0430217 -0.119093 81 173 0
0.616783 0.0371422 -0.118162 84 170 0
0.612435 0.0333211 -0.117367 86 168 0
0.607408 0.0303217 -0.117175 88 166 0
0.601908 0.0286084 -0.117516 91 163 0
0.596384 0.030655 -0.118184 93 161 0
0.591891 0.0342896 -0.119158 95 159 0
0.588469 0.0389865 -0.120547 97 157 0
0.586735 0.0445952 -0.121619 100 154 0
0.587092 0.050401 -0.122809 102 152 0
0.59 0.0552509 -0.123688 104 150 0
0.594514 0.0590815 -0.124186 107 147 0
0.599344 0.0619072 -0.124365 109 145 0
0.605256 0.0621865 -0.124214 111 143 0
0.610425 0.0594442 -0.123684 113 141 0
0.615025 0.0562642 -0.122887 116 138 0
0.61618 0.0505423 -0.12202 118 136 0
0.615603 0.0448225 -0.121129 120 134 0
0.611414 0.0406725 -0.120734 122 132 0
0.605886 0.0389792 -0.120733 125 129 0
0.599951 0.0393146 -0.121257 127 127 0
0.594501 0.0415335 -0.122076 129 125 0
0.590209 0.0455146 -0.123129 132 122 0
0.587631 0.0506874 -0.124275 134 120 0
0.587379 0.0563557 -0.125206 136 118 0
0.588375 0.0621069 -0.126227 138 116 0
0.591598 0.066789 -0.126903 141 113 0
0.596802 0.0694652 -0.12734 143 111 0
0.602463 0.0713781 -0.127424 145 109 0
0.608136 0.0703362 -0.12698 147 107 0
0.613513 0.067856 -0.12625 150 104 0
0.61634 0.0630954 -0.125312 152 102 0
0.616236 0.0571955 -0.124393 154 100 0
0.613776 0.052177 -0.123788 157 97 0
0.608788 0.049015 -0.123501 159 95 0
0.603114 0.0476427 -0.123725 161 93 0
0.597503 0.0493439 -0.12436 163 91 0
0.592456 0.0523116 -0.12546 166 88 0
0.588368 0.0562165 -0.126361 168 86 0
0.587979 0.0620241 -0.127451 170 84 0
0.587546 0.0675009 -0.128626 173 81 0
0.58967 0.0729864 -0.129677 175 79 0
0.594265 0.0765051 -0.130326 177 77 0
0.598413 0.0807036 -0.130684 179 75 0
0.60436 0.0801614 -0.130654 182 72 0
0.610288 0.0799324 -0.13013 184 70 0
0.614531 0.0760661 -0.129237 186 68 0
0.616387 0.0709169 -0.128093 188 66 0
0.615311 0.0652387 -0.127244 191 63 0
0.611794 0.0605365 -0.12651 193 61 0
0.606401 0.0584166 -0.126418 195 59 0
0.600675 0.0568247 -0.126614 198 56 0
0.595483 0.0591129 -0.127636 200 54 0
0.591209 0.0630428 -0.12846 202 52 0
0.588389 0.0677637 -0.129847 204 50 0
0.586892 0.0732718 -0.131223 207 47 0
0.588938 0.0785858 -0.132481 209 45 0
0.591633 0.083825 -0.133406 211 43 0
0.595649 0.0880715 -0.134146 214 40 0
0.601072 0.0900019 -0.134394 216 38 0
0.606454 0.0908195 -0.134169 218 36 0
0.611638 0.0885367 -0.133328 220 34 0
0.615796 0.0844878 -0.132113 223 31 0
0.616544 0.0790156 -0.130755 225 29 0
0.614873 0.0736655 -0.129405 227 27 0
0.610948 0.0692351 -0.128742 229 25 0
0.605462 0.0676117 -0.128514 232 22 0
0.599522 0.0676265 -0.129078 234 20 0
0.594436 0.0699569 -0.129944 236 18 0
0.590414 0.0734856 -0.131364 239 15 0
0.588398 0.0783316 -0.133188 241 13 0
0.588365 0.0840127 -0.135014 243 11 0
0.588387 0.0898516 -0.136251 245 9 0
0.591118 0.0930329 -0.137935 248 6 0
0.595015 0.0958481 -0.138783 250 4 0
0.598095 0.0991057 -0.13965 252 2 0
0.603507 0.0990986 -0.139508 255 0 0
