ply
format ascii 1.0
comment Generated by robot_control PLYWriter
element vertex 15
property float x
property float y
property float z
property uchar red
property uchar green
property uchar blue
end_header
0.598604 -0.0309478 -0.0973901 0 255 0
0.59862 -0.0261819 -0.0987168 18 236 0
0.598642 -0.0214098 -0.100021 36 218 0
0.598662 -0.0166214 -0.101264 54 200 0
0.598678 -0.0118354 -0.102516 72 182 0
0.598695 -0.00705065 -0.103773 91 163 0
0.598716 -0.00226235 -0.105017 109 145 0
0.598888 0.00252699 -0.106238 127 127 0
0.599113 0.00730805 -0.107488 145 109 0
0.599298 0.0120752 -0.108797 163 91 0
0.599479 0.0168258 -0.110165 182 72 0
0.599649 0.0215591 -0.111594 200 54 0
0.59985 0.0262846 -0.113044 218 36 0
0.600136 0.0310056 -0.114494 236 18 0
0.600633 0.0356615 -0.116087 255 0 0
