ply
format ascii 1.0
comment Generated by robot_control PLYWriter
element vertex 10
property float x
property float y
property float z
property uchar red
property uchar green
property uchar blue
end_header
0.60054 -0.271703 -0.11582 0 255 0
0.60056 -0.266706 -0.117127 28 226 0
0.600588 -0.261706 -0.118421 56 198 0
0.600609 -0.256674 -0.119579 85 169 0
0.600638 -0.251621 -0.120651 113 141 0
0.600684 -0.24655 -0.121629 141 113 0
0.600718 -0.241447 -0.122416 170 84 0
0.600747 -0.236316 -0.122997 198 56 0
0.600782 -0.231172 -0.123465 226 28 0
0.600842 -0.226015 -0.123736 255 0 0
