ply
format ascii 1.0
comment Generated by robot_control PLYWriter
element vertex 33
property float x
property float y
property float z
property uchar red
property uchar green
property uchar blue
end_header
0.629499 0.0780018 -0.152341 0 255 0
0.633812 0.0762034 -0.149471 7 247 0
0.636679 0.0731003 -0.146389 15 239 0
0.636574 0.06763 -0.144534 23 231 0
0.636982 0.0622103 -0.142501 31 223 0
0.634868 0.0568347 -0.14118 39 215 0
0.630292 0.0539008 -0.140485 47 207 0
0.625909 0.0501326 -0.140691 55 199 0
0.620163 0.0490525 -0.141747 63 191 0
0.614411 0.0491935 -0.143027 71 183 0
0.608772 0.0496436 -0.144829 79 175 0
0.605068 0.0534188 -0.146935 87 167 0
0.603174 0.0586179 -0.148876 95 159 0
0.603415 0.0637971 -0.15041 103 151 0
0.605625 0.0690325 -0.151212 111 143 0
0.610565 0.0722559 -0.151159 119 135 0
0.616215 0.0734492 -0.150536 127 127 0
0.621804 0.0723035 -0.149062 135 119 0
0.624349 0.0676001 -0.147159 143 111 0
0.627186 0.0628164 -0.145448 151 103 0
0.627072 0.0571844 -0.143572 159 95 0
0.625267 0.0521288 -0.142272 167 87 0
0.621158 0.0479866 -0.141142 175 79 0
0.616531 0.044358 -0.140673 183 71 0
0.611024 0.0423171 -0.140906 191 63 0
0.605259 0.0424195 -0.142135 199 55 0
0.599865 0.0438653 -0.143842 207 47 0
0.596232 0.0477071 -0.146282 215 39 0
0.592647 0.0516384 -0.148726 223 31 0
0.592582 0.0571241 -0.150993 231 23 0
0.595141 0.0612443 -0.153187 239 15 0
0.599461 0.0650152 -0.154327 247 7 0
0.604729 0.0660328 -0.154274 255 0 0
