ply
format ascii 1.0
comment Generated by robot_control PLYWriter
element vertex 11
property float x
property float y
property float z
property uchar red
property uchar green
property uchar blue
end_header
0.632656 -0.0829002 -0.0361731 0 255 0
0.632661 -0.0781057 -0.0361888 25 229 0
0.632987 -0.0733272 -0.036006 51 204 0
0.63337 -0.0685502 -0.0358486 76 178 0
0.633748 -0.0637711 -0.0357623 102 153 0
0.63413 -0.0589919 -0.0356919 127 127 0
0.634512 -0.0542134 -0.0355868 153 101 0
0.63473 -0.0494297 -0.0354366 178 76 0
0.634715 -0.0446383 -0.0352533 204 50 0
0.634697 -0.0398485 -0.0350333 229 25 0
0.634653 -0.0350758 -0.0345944 255 0 0
