ply
format ascii 1.0
comment Generated by robot_control PLYWriter
element vertex 12
property float x
property float y
property float z
property uchar red
property uchar green
property uchar blue
end_header
0.525545 0.0732163 -0.126158 0 255 0
0.525936 0.0681199 -0.125593 23 231 0
0.52633 0.0630264 -0.125008 46 208 0
0.526913 0.0579514 -0.124404 69 185 0
0.527369 0.0528606 -0.12385 92 162 0
0.527656 0.0477515 -0.123323 115 139 0
0.527939 0.0426421 -0.122796 139 115 0
0.528226 0.0375329 -0.12227 162 92 0
0.528636 0.0324358 -0.121721 185 69 0
0.529037 0.0273417 -0.12114 208 46 0
0.529288 0.0222373 -0.120552 231 23 0
0.529607 0.0171295 -0.120034 255 0 0
