ply
format ascii 1.0
comment Generated by robot_control PLYWriter
element vertex 81
property float x
property float y
property float z
property uchar red
property uchar green
property uchar blue
end_header
0.693639 -0.0335827 -0.132301 0 255 0
0.698809 -0.034867 -0.131998 3 251 0
0.702372 -0.0388413 -0.131412 6 248 0
0.703917 -0.0440264 -0.130699 9 245 0
0.702638 -0.0490303 -0.130024 12 242 0
0.699953 -0.0540251 -0.129496 15 239 0
0.695036 -0.0571118 -0.129103 19 235 0
0.689263 -0.0582182 -0.129151 22 232 0
0.683943 -0.0562699 -0.129395 25 229 0
0.67887 -0.0532117 -0.129867 28 226 0
0.675079 -0.0486965 -0.130535 31 223 0
0.674586 -0.0429052 -0.131099 35 219 0
0.674073 -0.0375403 -0.131775 38 216 0
0.676187 -0.0319938 -0.13227 41 213 0
0.679569 -0.0271882 -0.132838 44 210 0
0.684788 -0.0245114 -0.13314 47 207 0
0.690742 -0.0242395 -0.133215 51 204 0
0.696703 -0.0242988 -0.13306 54 200 0
0.701445 -0.0273301 -0.132757 57 197 0
0.70314 -0.0328807 -0.132126 60 194 0
0.702927 -0.0388235 -0.131614 63 191 0
0.701184 -0.0443607 -0.131046 66 188 0
0.695863 -0.0467938 -0.130754 70 184 0
0.690178 -0.0481897 -0.130702 73 181 0
0.684534 -0.0464126 -0.130837 76 178 0
0.679351 -0.0435273 -0.131274 79 175 0
0.675659 -0.0392498 -0.131737 82 172 0
0.673949 -0.0335597 -0.13231 86 168 0
0.674267 -0.0279115 -0.132927 89 165 0
0.676201 -0.0222897 -0.133457 92 162 0
0.679451 -0.0173969 -0.133917 95 159 0
0.684526 -0.0144216 -0.134244 98 156 0
0.690424 -0.0141257 -0.134405 102 153 0
0.696095 -0.0155865 -0.134361 105 149 0
0.701377 -0.0183284 -0.134161 108 146 0
0.703304 -0.0235014 -0.133694 111 143 0
0.703243 -0.0294523 -0.133276 114 140 0
0.699782 -0.033806 -0.132891 117 137 0
0.695696 -0.0379722 -0.132652 121 133 0
0.689953 -0.039148 -0.132601 124 130 0
0.684318 -0.0372044 -0.1327 127 127 0
0.679304 -0.0345396 -0.132937 130 124 0
0.675745 -0.0297645 -0.133337 133 121 0
0.67375 -0.0242448 -0.133805 137 117 0
0.674539 -0.0185269 -0.134307 140 114 0
0.676598 -0.0129589 -0.134865 143 111 0
0.680581 -0.00858035 -0.135292 146 108 0
0.685448 -0.00528405 -0.135589 149 105 0
0.691089 -0.0037563 -0.135704 153 101 0
0.69621 -0.00557858 -0.135687 156 98 0
0.700679 -0.00944665 -0.135486 159 95 0
0.702638 -0.0148179 -0.135094 162 92 0
0.702627 -0.0207591 -0.134551 165 89 0
0.699146 -0.0253651 -0.134058 168 86 0
0.693905 -0.028207 -0.133904 172 82 0
0.688032 -0.028558 -0.133897 175 79 0
0.682451 -0.0271292 -0.134121 178 76 0
0.677604 -0.0236849 -0.134483 181 73 0
0.675104 -0.0185261 -0.135086 184 70 0
0.675156 -0.0125934 -0.13574 188 66 0
0.67488 -0.00669734 -0.136452 191 63 0
0.67702 -0.00172312 -0.137195 194 60 0
0.681512 0.00211265 -0.137699 197 57 0
0.687052 0.00427161 -0.137991 200 54 0
0.692891 0.00476855 -0.138038 204 50 0
0.69814 0.00212759 -0.137733 207 47 0
0.702237 -0.00130239 -0.137168 210 44 0
0.702762 -0.00713412 -0.136393 213 41 0
0.702126 -0.0127798 -0.135678 216 38 0
0.698157 -0.0170521 -0.135134 219 35 0
0.693273 -0.0190739 -0.134934 223 31 0
0.687305 -0.0190668 -0.134931 226 28 0
0.682429 -0.0164031 -0.135158 229 25 0
0.678204 -0.0122304 -0.135722 232 22 0
0.67525 -0.0075179 -0.136855 235 19 0
0.674714 -0.0017474 -0.137938 239 15 0
0.675194 0.00348937 -0.139287 242 12 0
0.676599 0.00849213 -0.140492 245 9 0
0.679172 0.0107337 -0.141432 248 6 0
0.683477 0.0134429 -0.142138 251 3 0
0.688774 0.014211 -0.142929 255 0 0
