ply
format ascii 1.0
comment Generated by robot_control PLYWriter
element vertex 81
property float x
property float y
property float z
property uchar red
property uchar green
property uchar blue
end_header
0.539228 0.0655128 -0.111152 0 255 0
0.54327 0.0643537 -0.110343 3 251 0
0.546528 0.0609121 -0.109257 6 248 0
0.549535 0.0561276 -0.108854 9 245 0
0.548398 0.0504784 -0.108918 12 242 0
0.547025 0.045598 -0.109898 15 239 0
0.543163 0.0425806 -0.111464 19 235 0
0.537775 0.0411622 -0.113507 22 232 0
0.532193 0.0414512 -0.115646 25 229 0
0.527538 0.044321 -0.117704 28 226 0
0.523549 0.0485985 -0.118954 31 223 0
0.521154 0.0536117 -0.119606 35 219 0
0.52113 0.0596043 -0.119317 38 216 0
0.52183 0.0653961 -0.11847 41 213 0
0.524917 0.0702834 -0.117052 44 210 0
0.529081 0.0742888 -0.115812 47 207 0
0.534593 0.0753704 -0.113967 51 204 0
0.540116 0.0752003 -0.112096 54 200 0
0.544958 0.0722239 -0.110615 57 197 0
0.548912 0.0679818 -0.10997 60 194 0
0.550407 0.0621793 -0.110008 63 191 0
0.547896 0.056916 -0.110652 66 188 0
0.544213 0.0525456 -0.111842 70 184 0
0.539086 0.0497813 -0.113181 73 181 0
0.533542 0.049748 -0.114872 76 178 0
0.528313 0.0524165 -0.116107 79 175 0
0.524706 0.0568173 -0.117148 82 172 0
0.52109 0.061461 -0.117501 86 168 0
0.520953 0.0674677 -0.117476 89 165 0
0.522376 0.0731952 -0.116982 92 162 0
0.52518 0.0784597 -0.116301 95 159 0
0.52921 0.0823127 -0.115177 98 156 0
0.534427 0.0849158 -0.113805 102 153 0
0.539826 0.0839403 -0.112366 105 149 0
0.54534 0.0827479 -0.111205 108 146 0
0.547553 0.0772422 -0.110445 111 143 0
0.550484 0.0720773 -0.110379 114 140 0
0.547814 0.0667787 -0.110918 117 137 0
0.543569 0.0627538 -0.111927 121 133 0
0.538304 0.0601896 -0.113249 124 130 0
0.532809 0.0591777 -0.114906 127 127 0
0.527732 0.062104 -0.115851 130 124 0
0.524085 0.0667392 -0.116468 133 121 0
0.521974 0.0723408 -0.116798 137 117 0
0.521091 0.078183 -0.116811 140 114 0
0.522622 0.083918 -0.116507 143 111 0
0.525692 0.0890134 -0.115928 146 108 0
0.529769 0.0932449 -0.114851 149 105 0
0.535634 0.0935308 -0.113629 153 101 0
0.541217 0.0931364 -0.1122 156 98 0
0.546274 0.0901838 -0.110873 159 95 0
0.548338 0.0846161 -0.110423 162 92 0
0.548761 0.0791249 -0.110419 165 89 0
0.546587 0.0735643 -0.111021 168 86 0
0.542455 0.0696935 -0.111963 172 82 0
0.536641 0.0695782 -0.113351 175 79 0
0.530824 0.069009 -0.114558 178 76 0
0.526476 0.0725882 -0.115669 181 73 0
0.523405 0.0776287 -0.116459 184 70 0
0.520923 0.0830791 -0.116932 188 66 0
0.521906 0.0889026 -0.117062 191 63 0
0.523864 0.0945592 -0.116636 194 60 0
0.52721 0.0992817 -0.11582 197 57 0
0.531488 0.103096 -0.114559 200 54 0
0.537269 0.103843 -0.113101 204 50 0
0.542731 0.101903 -0.112147 207 47 0
0.546768 0.0977804 -0.110714 210 44 0
0.549844 0.0926729 -0.11003 213 41 0
0.548262 0.0874094 -0.109776 216 38 0
0.545788 0.0824203 -0.110279 219 35 0
0.5411 0.0788382 -0.111199 223 31 0
0.535666 0.0775356 -0.112621 226 28 0
0.530265 0.0790797 -0.113936 229 25 0
0.526093 0.0826112 -0.11611 232 22 0
0.522694 0.0870693 -0.117347 235 19 0
0.520995 0.0925816 -0.117997 239 15 0
0.520834 0.0985068 -0.118088 242 12 0
0.523529 0.103393 -0.117674 245 9 0
0.526917 0.107283 -0.117007 248 6 0
0.530489 0.110545 -0.116313 251 3 0
0.534709 0.111562 -0.115535 255 0 0
