ply
format ascii 1.0
comment Generated by robot_control PLYWriter
element vertex 97
property float x
property float y
property float z
property uchar red
property uchar green
property uchar blue
end_header
0.683873 0.0528536 -0.135014 0 255 0
0.686648 0.0490736 -0.134345 2 252 0
0.689534 0.0458722 -0.133477 5 249 0
0.693013 0.0426669 -0.132218 7 247 0
0.692852 0.036918 -0.130596 10 244 0
0.692558 0.0313519 -0.128433 13 241 0
0.68983 0.0268027 -0.12649 15 239 0
0.685823 0.0226802 -0.124804 18 236 0
0.680198 0.0218629 -0.123503 21 233 0
0.675256 0.0213396 -0.123114 23 231 0
0.670142 0.0237036 -0.123525 26 228 0
0.664871 0.026422 -0.124343 29 225 0
0.664183 0.0320534 -0.125649 31 223 0
0.664336 0.0378053 -0.127247 34 220 0
0.66876 0.0414364 -0.128722 37 217 0
0.674095 0.0435355 -0.129554 39 215 0
0.679965 0.0427707 -0.129769 42 212 0
0.685493 0.0405057 -0.129509 45 209 0
0.68968 0.0363707 -0.128664 47 207 0
0.692258 0.0311993 -0.127572 50 204 0
0.693482 0.025812 -0.125919 53 201 0
0.692643 0.0201378 -0.124293 55 199 0
0.690403 0.0148137 -0.122989 58 196 0
0.685687 0.0112585 -0.121968 61 193 0
0.680269 0.00957032 -0.121093 63 191 0
0.674457 0.0108486 -0.120762 66 188 0
0.669095 0.0133958 -0.120837 69 185 0
0.665375 0.0179193 -0.121555 71 183 0
0.664797 0.023695 -0.122891 74 180 0
0.66694 0.0289296 -0.123846 77 177 0
0.671997 0.0317357 -0.124666 79 175 0
0.677185 0.0337909 -0.125074 82 172 0
0.682919 0.0325454 -0.125126 85 169 0
0.687311 0.0284838 -0.124745 87 167 0
0.691249 0.0240549 -0.12385 90 164 0
0.693069 0.0187592 -0.122642 92 162 0
0.693207 0.0129314 -0.121263 95 159 0
0.691446 0.00738965 -0.120028 98 156 0
0.687448 0.00350661 -0.118477 100 154 0
0.682257 0.0005935 -0.117759 103 151 0
0.676796 -0.00125871 -0.117257 106 148 0
0.671411 0.000742338 -0.117071 108 146 0
0.666917 0.00469769 -0.117315 111 143 0
0.664795 0.0100498 -0.118 114 140 0
0.66529 0.0158096 -0.119315 116 138 0
0.669309 0.020053 -0.120203 119 135 0
0.674666 0.0226423 -0.120909 122 132 0
0.680106 0.0227505 -0.12118 124 130 0
0.685465 0.0201079 -0.12105 127 127 0
0.690609 0.0170871 -0.120454 130 124 0
0.693239 0.0118232 -0.119563 132 122 0
0.694405 0.00611619 -0.118349 135 119 0
0.693674 0.000374077 -0.117155 138 116 0
0.690661 -0.00463881 -0.115888 140 114 0
0.686625 -0.00873797 -0.114745 143 111 0
0.681071 -0.0105858 -0.113773 146 108 0
0.675131 -0.0108882 -0.1132 148 106 0
0.670173 -0.00755834 -0.113206 151 103 0
0.666872 -0.00374331 -0.113829 154 100 0
0.664303 0.00154674 -0.114634 156 98 0
0.66698 0.00665883 -0.115769 159 95 0
0.670645 0.0112672 -0.116889 162 92 0
0.67635 0.0129976 -0.117417 164 90 0
0.68203 0.0115808 -0.11778 167 87 0
0.687011 0.00951502 -0.117644 170 84 0
0.691076 0.0051454 -0.117076 172 82 0
0.693749 -5.60091e-07 -0.116099 175 79 0
0.694868 -0.00567171 -0.114552 177 77 0
0.693893 -0.011045 -0.113381 180 74 0
0.690469 -0.0158337 -0.11225 183 71 0
0.686612 -0.0201745 -0.110814 185 69 0
0.68086 -0.0214715 -0.110025 188 66 0
0.675089 -0.0206327 -0.109222 191 63 0
0.670054 -0.0181976 -0.109171 193 61 0
0.666864 -0.0142077 -0.109882 196 58 0
0.664664 -0.00899028 -0.11085 199 55 0
0.666388 -0.00347119 -0.111956 201 53 0
0.670756 0.00031144 -0.113164 204 50 0
0.676409 0.00140196 -0.114033 207 47 0
0.682206 0.00211002 -0.114525 209 45 0
0.687383 -0.00073565 -0.114541 212 42 0
0.69134 -0.00518406 -0.113971 215 39 0
0.69371 -0.0103952 -0.112972 217 37 0
0.694863 -0.0159199 -0.111731 220 34 0
0.69371 -0.0215307 -0.110444 223 31 0
0.691605 -0.0266627 -0.108506 225 29 0
0.686932 -0.0294118 -0.107155 228 26 0
0.682488 -0.0323825 -0.106311 231 23 0
0.676616 -0.0326849 -0.105642 233 21 0
0.671973 -0.0299322 -0.105482 236 18 0
0.667097 -0.0269487 -0.105901 239 15 0
0.665032 -0.0217346 -0.106739 241 13 0
0.666921 -0.0175637 -0.107944 244 10 0
0.668509 -0.0126098 -0.109167 247 7 0
0.672717 -0.0106475 -0.110709 249 5 0
0.675131 -0.00779961 -0.111531 252 2 0
0.68049 -0.00759912 -0.112415 255 0 0
