ply
format ascii 1.0
comment Generated by robot_control PLYWriter
element vertex 8
property float x
property float y
property float z
property uchar red
property uchar green
property uchar blue
end_header
0.622666 -0.158018 -0.136625 0 255 0
0.623094 -0.153239 -0.135227 36 218 0
0.623535 -0.148437 -0.133902 72 182 0
0.623888 -0.143612 -0.132626 109 145 0
0.624376 -0.138777 -0.131445 145 109 0
0.624996 -0.133928 -0.130383 182 72 0
0.625483 -0.129046 -0.12941 218 36 0
0.625833 -0.124138 -0.128506 255 0 0
