ply
format ascii 1.0
comment Generated by robot_control PLYWriter
element vertex 9
property float x
property float y
property float z
property uchar red
property uchar green
property uchar blue
end_header
0.503113 0.0930695 -0.109662 0 255 0
0.503866 0.088157 -0.108688 31 223 0
0.504313 0.0832088 -0.107693 63 191 0
0.504597 0.0782288 -0.106804 95 159 0
0.504867 0.0732234 -0.106065 127 127 0
0.504795 0.0681889 -0.105502 159 95 0
0.504682 0.0631399 -0.105092 191 63 0
0.504546 0.058078 -0.104912 223 31 0
0.504542 0.0530117 -0.104843 255 0 0
