ply
format ascii 1.0
comment Generated by robot_control PLYWriter
element vertex 200
property float x
property float y
property float z
property uchar red
property uchar green
property uchar blue
end_header
0.650921 0.13292 -0.144002 0 255 0
0.650921 0.13292 -0.144002 1 253 0
0.650921 0.13292 -0.144002 2 252 0
0.650921 0.13292 -0.144002 3 251 0
0.650921 0.13292 -0.144002 5 249 0
0.650921 0.13292 -0.144002 6 248 0
0.650921 0.13292 -0.144002 7 247 0
0.650921 0.13292 -0.144002 8 246 0
0.650921 0.13292 -0.144002 10 244 0
0.650921 0.13292 -0.144002 11 243 0
0.650921 0.13292 -0.144002 12 242 0
0.650921 0.13292 -0.144002 14 240 0
0.650921 0.13292 -0.144002 15 239 0
0.650921 0.13292 -0.144002 16 238 0
0.650921 0.13292 -0.144002 17 237 0
0.650921 0.13292 -0.144002 19 235 0
0.650921 0.13292 -0.144002 20 234 0
0.650921 0.13292 -0.144002 21 233 0
0.650921 0.13292 -0.144002 23 231 0
0.650921 0.13292 -0.144002 24 230 0
0.650921 0.13292 -0.144002 25 229 0
0.650921 0.13292 -0.144002 26 228 0
0.650921 0.13292 -0.144002 28 226 0
0.650921 0.13292 -0.144002 29 225 0
0.650921 0.13292 -0.144002 30 224 0
0.650921 0.13292 -0.144002 32 222 0
0.650921 0.13292 -0.144002 33 221 0
0.650921 0.13292 -0.144002 34 220 0
0.650921 0.13292 -0.144002 35 219 0
0.650921 0.13292 -0.144002 37 217 0
0.650921 0.13292 -0.144002 38 216 0
0.650921 0.13292 -0.144002 39 215 0
0.650921 0.13292 -0.144002 41 213 0
0.650921 0.13292 -0.144002 42 212 0
0.650921 0.13292 -0.144002 43 211 0
0.650921 0.13292 -0.144002 44 210 0
0.650921 0.13292 -0.144002 46 208 0
0.650921 0.13292 -0.144002 47 207 0
0.650921 0.13292 -0.144002 48 206 0
0.650921 0.13292 -0.144002 49 205 0
0.650921 0.13292 -0.144002 51 203 0
0.650921 0.13292 -0.144002 52 202 0
0.650921 0.13292 -0.144002 53 201 0
0.650921 0.13292 -0.144002 55 199 0
0.650921 0.13292 -0.144002 56 198 0
0.650921 0.13292 -0.144002 57 197 0
0.650921 0.13292 -0.144002 58 196 0
0.650921 0.13292 -0.144002 60 194 0
0.650921 0.13292 -0.144002 61 193 0
0.650921 0.13292 -0.144002 62 192 0
0.650921 0.13292 -0.144002 64 190 0
0.650921 0.13292 -0.144002 65 189 0
0.650921 0.13292 -0.144002 66 188 0
0.650921 0.13292 -0.144002 67 187 0
0.650921 0.13292 -0.144002 69 185 0
0.650921 0.13292 -0.144002 70 184 0
0.650921 0.13292 -0.144002 71 183 0
0.650921 0.13292 -0.144002 73 181 0
0.650921 0.13292 -0.144002 74 180 0
0.650921 0.13292 -0.144002 75 179 0
0.650921 0.13292 -0.144002 76 178 0
0.650921 0.13292 -0.144002 78 176 0
0.650921 0.13292 -0.144002 79 175 0
0.650921 0.13292 -0.144002 80 174 0
0.650921 0.13292 -0.144002 82 172 0
0.650921 0.13292 -0.144002 83 171 0
0.650921 0.13292 -0.144002 84 170 0
0.650921 0.13292 -0.144002 85 169 0
0.650921 0.13292 -0.144002 87 167 0
0.650921 0.13292 -0.144002 88 166 0
0.650921 0.13292 -0.144002 89 165 0
0.650921 0.13292 -0.144002 90 164 0
0.650921 0.13292 -0.144002 92 162 0
0.650921 0.13292 -0.144002 93 161 0
0.650921 0.13292 -0.144002 94 160 0
0.650921 0.13292 -0.144002 96 158 0
0.650921 0.13292 -0.144002 97 157 0
0.650921 0.13292 -0.144002 98 156 0
0.650921 0.13292 -0.144002 99 155 0
0.650921 0.13292 -0.144002 101 153 0
0.650921 0.13292 -0.144002 102 152 0
0.650921 0.13292 -0.144002 103 151 0
0.650921 0.13292 -0.144002 105 149 0
0.650921 0.13292 -0.144002 106 148 0
0.650921 0.13292 -0.144002 107 147 0
0.650921 0.13292 -0.144002 108 146 0
0.650921 0.13292 -0.144002 110 144 0
0.650921 0.13292 -0.144002 111 143 0
0.650921 0.13292 -0.144002 112 142 0
0.650921 0.13292 -0.144002 114 140 0
0.650921 0.13292 -0.144002 115 139 0
0.650921 0.13292 -0.144002 116 138 0
0.650921 0.13292 -0.144002 117 137 0
0.650921 0.13292 -0.144002 119 135 0
0.650921 0.13292 -0.144002 120 134 0
0.650921 0.13292 -0.144002 121 133 0
0.650921 0.13292 -0.144002 123 131 0
0.650921 0.13292 -0.144002 124 130 0
0.650921 0.13292 -0.144002 125 129 0
0.650921 0.13292 -0.144002 126 128 0
0.650921 0.13292 -0.144002 128 126 0
0.650921 0.13292 -0.144002 129 125 0
0.650921 0.13292 -0.144002 130 124 0
0.650921 0.13292 -0.144002 131 123 0
0.650921 0.13292 -0.144002 133 121 0
0.650921 0.13292 -0.144002 134 120 0
0.650921 0.13292 -0.144002 135 119 0
0.650921 0.13292 -0.144002 137 117 0
0.650921 0.13292 -0.144002 138 116 0
0.650921 0.13292 -0.144002 139 115 0
0.650921 0.13292 -0.144002 140 114 0
0.650921 0.13292 -0.144002 142 112 0
0.650921 0.13292 -0.144002 143 111 0
0.650921 0.13292 -0.144002 144 110 0
0.650921 0.13292 -0.144002 146 108 0
0.650921 0.13292 -0.144002 147 107 0
0.650921 0.13292 -0.144002 148 106 0
0.650921 0.13292 -0.144002 149 105 0
0.650921 0.13292 -0.144002 151 103 0
0.650921 0.13292 -0.144002 152 102 0
0.650921 0.13292 -0.144002 153 101 0
0.650921 0.13292 -0.144002 155 99 0
0.650921 0.13292 -0.144002 156 98 0
0.650921 0.13292 -0.144002 157 97 0
0.650921 0.13292 -0.144002 158 96 0
0.650921 0.13292 -0.144002 160 94 0
0.650921 0.13292 -0.144002 161 93 0
0.650921 0.13292 -0.144002 162 92 0
0.650921 0.13292 -0.144002 164 90 0
0.650921 0.13292 -0.144002 165 89 0
0.650921 0.13292 -0.144002 166 88 0
0.650921 0.13292 -0.144002 167 87 0
0.650921 0.13292 -0.144002 169 85 0
0.650921 0.13292 -0.144002 170 84 0
0.650921 0.13292 -0.144002 171 83 0
0.650921 0.13292 -0.144002 172 82 0
0.650921 0.13292 -0.144002 174 80 0
0.650921 0.13292 -0.144002 175 79 0
0.650921 0.13292 -0.144002 176 78 0
0.650921 0.13292 -0.144002 178 76 0
0.650921 0.13292 -0.144002 179 75 0
0.650921 0.13292 -0.144002 180 74 0
0.650921 0.13292 -0.144002 181 73 0
0.650921 0.13292 -0.144002 183 71 0
0.650921 0.13292 -0.144002 184 70 0
0.650921 0.13292 -0.144002 185 69 0
0.650921 0.13292 -0.144002 187 67 0
0.650921 0.13292 -0.144002 188 66 0
0.650921 0.13292 -0.144002 189 65 0
0.650921 0.13292 -0.144002 190 64 0
0.650921 0.13292 -0.144002 192 62 0
0.650921 0.13292 -0.144002 193 61 0
0.650921 0.13292 -0.144002 194 60 0
0.650921 0.13292 -0.144002 196 58 0
0.650921 0.13292 -0.144002 197 57 0
0.650921 0.13292 -0.144002 198 56 0
0.650921 0.13292 -0.144002 199 55 0
0.650921 0.13292 -0.144002 201 53 0
0.650921 0.13292 -0.144002 202 52 0
0.650921 0.13292 -0.144002 203 51 0
0.650921 0.13292 -0.144002 205 49 0
0.650921 0.13292 -0.144002 206 48 0
0.650921 0.13292 -0.144002 207 47 0
0.650921 0.13292 -0.144002 208 46 0
0.650921 0.13292 -0.144002 210 44 0
0.650921 0.13292 -0.144002 211 43 0
0.650921 0.13292 -0.144002 212 42 0
0.650921 0.13292 -0.144002 213 41 0
0.650921 0.13292 -0.144002 215 39 0
0.650921 0.13292 -0.144002 216 38 0
0.650921 0.13292 -0.144002 217 37 0
0.650921 0.13292 -0.144002 219 35 0
0.650921 0.13292 -0.144002 220 34 0
0.650921 0.13292 -0.144002 221 33 0
0.650921 0.13292 -0.144002 222 32 0
0.650921 0.13292 -0.144002 224 30 0
0.650921 0.13292 -0.144002 225 29 0
0.650921 0.13292 -0.144002 226 28 0
0.650921 0.13292 -0.144002 228 26 0
0.650921 0.13292 -0.144002 229 25 0
0.650921 0.13292 -0.144002 230 24 0
0.650921 0.13292 -0.144002 231 23 0
0.650921 0.13292 -0.144002 233 21 0
0.650921 0.13292 -0.144002 234 20 0
0.650921 0.13292 -0.144002 235 19 0
0.650921 0.13292 -0.144002 237 17 0
0.650921 0.13292 -0.144002 238 16 0
0.650921 0.13292 -0.144002 239 15 0
0.650921 0.13292 -0.144002 240 14 0
0.650921 0.13292 -0.144002 242 12 0
0.650921 0.13292 -0.144002 243 11 0
0.650921 0.13292 -0.144002 244 10 0
0.650921 0.13292 -0.144002 246 8 0
0.650921 0.13292 -0.144002 247 7 0
0.650921 0.13292 -0.144002 248 6 0
0.650921 0.13292 -0.144002 249 5 0
0.650921 0.13292 -0.144002 251 3 0
0.650921 0.13292 -0.144002 252 2 0
0.650921 0.13292 -0.144002 253 1 0
0.650921 0.13292 -0.144002 255 0 0
