ply
format ascii 1.0
comment Generated by robot_control PLYWriter
element vertex 98
property float x
property float y
property float z
property uchar red
property uchar green
property uchar blue
end_header
0.713952 0.102867 -0.114053 0 255 0
0.718419 0.0999078 -0.113881 2 252 0
0.721926 0.0959334 -0.114398 5 249 0
0.724342 0.0910314 -0.115568 7 247 0
0.725396 0.085806 -0.116827 10 244 0
0.724155 0.080244 -0.117553 13 241 0
0.720952 0.0753575 -0.117433 15 239 0
0.71707 0.0719749 -0.11641 18 236 0
0.712816 0.0691527 -0.114709 21 233 0
0.707382 0.0694366 -0.112547 23 231 0
0.702743 0.0711266 -0.10995 26 228 0
0.698006 0.074133 -0.108225 28 226 0
0.696769 0.0795396 -0.106586 31 223 0
0.696792 0.0854443 -0.105809 34 220 0
0.699173 0.0905302 -0.106105 36 218 0
0.704741 0.0919449 -0.107131 39 215 0
0.709428 0.0935418 -0.109343 42 212 0
0.715125 0.0932803 -0.11112 44 210 0
0.720126 0.0908689 -0.113174 47 207 0
0.723385 0.0863702 -0.114794 49 205 0
0.725313 0.0808106 -0.11583 52 202 0
0.72721 0.0758696 -0.116851 55 199 0
0.725727 0.0701585 -0.117331 57 197 0
0.723236 0.0653417 -0.11748 60 194 0
0.719283 0.0610466 -0.116953 63 191 0
0.713717 0.0594077 -0.11581 65 189 0
0.708006 0.0592186 -0.114055 68 186 0
0.703134 0.061778 -0.11241 70 184 0
0.700029 0.0665194 -0.110566 73 181 0
0.69748 0.0717647 -0.109571 76 178 0
0.699521 0.0773703 -0.109303 78 176 0
0.702926 0.081983 -0.109955 81 173 0
0.708518 0.0834012 -0.11114 84 170 0
0.714378 0.0833561 -0.112335 86 168 0
0.719954 0.0819861 -0.11355 89 165 0
0.724366 0.078239 -0.114646 92 162 0
0.726782 0.0729246 -0.11554 94 160 0
0.728997 0.0674583 -0.11652 97 157 0
0.728386 0.0615558 -0.117043 99 155 0
0.725699 0.0562703 -0.117195 102 152 0
0.721463 0.052366 -0.116828 105 149 0
0.715859 0.0504477 -0.116017 107 147 0
0.710149 0.0492258 -0.115083 110 144 0
0.705047 0.051358 -0.113944 113 141 0
0.70086 0.0549802 -0.11331 115 139 0
0.700075 0.0607553 -0.113163 118 136 0
0.701083 0.0664092 -0.113579 120 134 0
0.703128 0.0716325 -0.11409 123 131 0
0.708909 0.0730487 -0.114595 126 128 0
0.714812 0.0738562 -0.115123 128 126 0
0.720474 0.0725252 -0.115492 131 123 0
0.724591 0.0686164 -0.115817 134 120 0
0.728098 0.0637985 -0.116235 136 118 0
0.730139 0.058208 -0.11636 139 115 0
0.730231 0.0523323 -0.116213 141 113 0
0.72772 0.0470248 -0.115857 144 110 0
0.723501 0.0428298 -0.115329 147 107 0
0.718463 0.0398137 -0.114608 149 105 0
0.712624 0.0392198 -0.114087 152 102 0
0.707109 0.0412058 -0.113744 155 99 0
0.702477 0.0448486 -0.113641 157 97 0
0.700817 0.0503523 -0.113928 160 94 0
0.70138 0.0561183 -0.114478 162 92 0
0.705658 0.0601893 -0.115 165 89 0
0.710724 0.0633005 -0.115567 168 86 0
0.716588 0.0626535 -0.115777 170 84 0
0.722215 0.0615745 -0.115809 173 81 0
0.726416 0.0576222 -0.115744 176 78 0
0.729978 0.0528964 -0.115523 178 76 0
0.731208 0.0475178 -0.11512 181 73 0
0.730738 0.0415797 -0.114593 184 70 0
0.727782 0.0366141 -0.113782 186 68 0
0.723309 0.032722 -0.113042 189 65 0
0.718568 0.0293308 -0.112337 191 63 0
0.712602 0.0292342 -0.112077 194 60 0
0.707205 0.0311496 -0.112124 197 57 0
0.70381 0.0359955 -0.112399 199 55 0
0.703054 0.0416509 -0.11293 202 52 0
0.703962 0.0474265 -0.113567 205 49 0
0.70791 0.0515846 -0.114473 207 47 0
0.713578 0.0529661 -0.115028 210 44 0
0.719554 0.0528988 -0.115213 212 42 0
0.725045 0.0508275 -0.115113 215 39 0
0.728897 0.0462814 -0.114777 218 36 0
0.73169 0.0410473 -0.114241 220 34 0
0.732071 0.0352487 -0.113437 223 31 0
0.732091 0.0294187 -0.112339 226 28 0
0.729117 0.0243156 -0.111458 228 26 0
0.724161 0.02151 -0.11067 231 23 0
0.719645 0.0188445 -0.109971 233 21 0
0.713688 0.0189144 -0.109482 236 18 0
0.708719 0.0214094 -0.10954 239 15 0
0.704679 0.025572 -0.109888 241 13 0
0.704314 0.0314582 -0.110688 244 10 0
0.705442 0.0366128 -0.111826 247 7 0
0.708275 0.041194 -0.112708 249 5 0
0.71293 0.0435071 -0.113594 252 2 0
0.718566 0.0434338 -0.114169 255 0 0
