ply
format ascii 1.0
comment Generated by robot_control PLYWriter
element vertex 48
property float x
property float y
property float z
property uchar red
property uchar green
property uchar blue
end_header
0.664122 0.18612 -0.13983 0 255 0
0.668615 0.183597 -0.13907 5 249 0
0.672182 0.180272 -0.137837 10 244 0
0.67491 0.17586 -0.136754 16 238 0
0.675112 0.170213 -0.135076 21 233 0
0.674051 0.164711 -0.133713 27 227 0
0.669526 0.161552 -0.132688 32 222 0
0.664848 0.159215 -0.132149 37 217 0
0.658895 0.159344 -0.132275 43 211 0
0.654872 0.163592 -0.132958 48 206 0
0.650753 0.167584 -0.134122 54 200 0
0.650561 0.173401 -0.135316 59 195 0
0.65151 0.178798 -0.136528 65 189 0
0.654951 0.1835 -0.137701 70 184 0
0.659877 0.186608 -0.138564 75 179 0
0.665583 0.187709 -0.139074 81 173 0
0.671538 0.187636 -0.13914 86 168 0
0.676793 0.185093 -0.138869 92 162 0
0.681093 0.1812 -0.138291 97 157 0
0.683523 0.175892 -0.137404 103 151 0
0.68339 0.170855 -0.136554 108 146 0
0.682198 0.165298 -0.135599 113 141 0
0.677088 0.162441 -0.134967 119 135 0
0.672266 0.161399 -0.134697 124 130 0
0.666721 0.163547 -0.134728 130 124 0
0.661647 0.166526 -0.135069 135 119 0
0.659665 0.171834 -0.135842 141 113 0
0.658646 0.177519 -0.136858 146 108 0
0.661376 0.182336 -0.137945 151 103 0
0.664019 0.187504 -0.139015 157 97 0
0.669553 0.189199 -0.139909 162 92 0
0.675467 0.189246 -0.140541 168 86 0
0.681019 0.188193 -0.140794 173 81 0
0.686351 0.185581 -0.140723 179 75 0
0.69062 0.181876 -0.140283 184 70 0
0.691558 0.176229 -0.139414 189 65 0
0.692311 0.170564 -0.138419 195 59 0
0.688813 0.16636 -0.137082 200 54 0
0.684219 0.163141 -0.135884 206 48 0
0.678491 0.163537 -0.135153 211 43 0
0.673544 0.16572 -0.13514 217 37 0
0.669341 0.169758 -0.135616 222 32 0
0.666967 0.174918 -0.136571 227 27 0
0.667181 0.180653 -0.138006 233 21 0
0.67048 0.185137 -0.139471 238 16 0
0.673632 0.188617 -0.140954 244 10 0
0.678458 0.190332 -0.142107 249 5 0
0.682697 0.191464 -0.143561 255 0 0
