ply
format ascii 1.0
comment Generated by robot_control PLYWriter
element vertex 9
property float x
property float y
property float z
property uchar red
property uchar green
property uchar blue
end_header
0.598998 -0.445997 -0.102991 0 255 0
0.598899 -0.440988 -0.104352 31 223 0
0.598725 -0.435943 -0.105568 63 191 0
0.59874 -0.430842 -0.106533 95 159 0
0.598892 -0.425689 -0.107137 127 127 0
0.598931 -0.420518 -0.107595 159 95 0
0.598943 -0.415348 -0.108081 191 63 0
0.59895 -0.410183 -0.108615 223 31 0
0.598797 -0.405053 -0.109323 255 0 0
