ply
format ascii 1.0
comment Generated by robot_control PLYWriter
element vertex 65
property float x
property float y
property float z
property uchar red
property uchar green
property uchar blue
end_header
0.631149 0.0718774 -0.123756 0 255 0
0.635344 0.0698731 -0.122322 3 251 0
0.63838 0.0660883 -0.121102 7 247 0
0.640555 0.0613282 -0.119608 11 243 0
0.641466 0.0558042 -0.118293 15 239 0
0.640695 0.0503474 -0.117535 19 235 0
0.63843 0.0449805 -0.117426 23 231 0
0.634904 0.0407545 -0.117749 27 227 0
0.629355 0.0386855 -0.118603 31 223 0
0.623825 0.0374181 -0.119939 35 219 0
0.618034 0.0380355 -0.121403 39 215 0
0.614044 0.0422813 -0.122529 43 211 0
0.611123 0.0472046 -0.123228 47 207 0
0.612614 0.0528003 -0.1234 51 203 0
0.616576 0.0572343 -0.123014 55 199 0
0.621024 0.0612112 -0.122329 59 195 0
0.626788 0.0613739 -0.120903 63 191 0
0.632546 0.0603805 -0.119796 67 187 0
0.6373 0.0568487 -0.11895 71 183 0
0.639387 0.0513078 -0.11806 75 179 0
0.640281 0.0454469 -0.117559 79 175 0
0.640262 0.0394451 -0.117348 83 171 0
0.638651 0.0337368 -0.117494 87 167 0
0.634657 0.0293785 -0.117984 91 163 0
0.629362 0.0266538 -0.118653 95 159 0
0.623592 0.0256146 -0.119521 99 155 0
0.617858 0.0267374 -0.120288 103 151 0
0.614722 0.0313131 -0.12098 107 147 0
0.612944 0.0369019 -0.121452 111 143 0
0.613011 0.0429066 -0.121405 115 139 0
0.617229 0.0468839 -0.120847 119 135 0
0.622107 0.0502672 -0.120036 123 131 0
0.627412 0.0500756 -0.119156 127 127 0
0.633064 0.0483234 -0.11824 131 123 0
0.636577 0.0441108 -0.117337 135 119 0
0.64027 0.0395081 -0.116579 139 115 0
0.640182 0.0335093 -0.116311 143 111 0
0.639694 0.0275724 -0.116369 147 107 0
0.637498 0.0221652 -0.116666 151 103 0
0.633183 0.0180553 -0.117377 155 99 0
0.627671 0.0162644 -0.118174 159 95 0
0.621866 0.0158215 -0.119176 163 91 0
0.616666 0.0186215 -0.120174 167 87 0
0.61309 0.02313 -0.120964 171 83 0
0.613011 0.0290806 -0.121294 175 79 0
0.61454 0.0347493 -0.12105 179 75 0
0.619039 0.0384735 -0.120331 183 71 0
0.624761 0.03901 -0.119008 187 67 0
0.630461 0.038585 -0.11786 191 63 0
0.635638 0.03577 -0.116714 195 59 0
0.638317 0.030842 -0.11586 199 55 0
0.640946 0.0255235 -0.115052 203 51 0
0.640894 0.0195505 -0.114548 207 47 0
0.6388 0.0141481 -0.114526 211 43 0
0.636161 0.00879773 -0.114946 215 39 0
0.631212 0.00583964 -0.115675 219 35 0
0.626156 0.00378362 -0.116855 223 31 0
0.620701 0.00474225 -0.118414 227 27 0
0.615627 0.0075461 -0.119728 231 23 0
0.612892 0.0117455 -0.121329 235 19 0
0.612799 0.0168693 -0.121921 239 15 0
0.61353 0.0223748 -0.122054 243 11 0
0.617501 0.0265184 -0.121415 247 7 0
0.622187 0.027828 -0.120154 251 3 0
0.626763 0.0289463 -0.118722 255 0 0
