ply
format ascii 1.0
comment Generated by robot_control PLYWriter
element vertex 48
property float x
property float y
property float z
property uchar red
property uchar green
property uchar blue
end_header
0.716549 -0.0103812 -0.106278 0 255 0
0.719781 -0.0132189 -0.106835 5 249 0
0.721236 -0.0184516 -0.107268 10 244 0
0.721492 -0.023353 -0.107324 16 238 0
0.720504 -0.0292959 -0.107108 21 233 0
0.716405 -0.0328597 -0.106689 27 227 0
0.711087 -0.0346898 -0.105989 32 222 0
0.705054 -0.0347088 -0.105526 37 217 0
0.702388 -0.0296162 -0.105146 43 211 0
0.700662 -0.0250189 -0.10496 48 206 0
0.703618 -0.0201858 -0.105205 54 200 0
0.709319 -0.0187141 -0.105646 59 195 0
0.714814 -0.0202613 -0.106208 65 189 0
0.718793 -0.0239071 -0.106647 70 184 0
0.721204 -0.0293163 -0.10703 75 179 0
0.721118 -0.0351882 -0.107128 81 173 0
0.718201 -0.0398757 -0.106978 86 168 0
0.714266 -0.0440768 -0.106672 92 162 0
0.708227 -0.0441801 -0.106278 97 157 0
0.703027 -0.0416225 -0.10582 103 151 0
0.700879 -0.0367929 -0.105484 108 146 0
0.701797 -0.0310507 -0.105559 113 141 0
0.706715 -0.0281926 -0.106 119 135 0
0.71275 -0.0281678 -0.106472 124 130 0
0.717638 -0.0312925 -0.106928 130 124 0
0.720953 -0.0362728 -0.107274 135 119 0
0.720998 -0.0422504 -0.107408 141 113 0
0.719367 -0.0473556 -0.107389 146 108 0
0.715147 -0.0516651 -0.107075 151 103 0
0.709971 -0.0545387 -0.10672 157 97 0
0.703996 -0.05405 -0.106246 162 92 0
0.700482 -0.0499524 -0.105715 168 86 0
0.700846 -0.0439648 -0.105411 173 81 0
0.70326 -0.0402951 -0.105654 179 75 0
0.708346 -0.038603 -0.106271 184 70 0
0.71386 -0.0396638 -0.106774 189 65 0
0.718527 -0.0433159 -0.107549 195 59 0
0.720796 -0.0484875 -0.107971 200 54 0
0.720432 -0.0544922 -0.108412 206 48 0
0.718206 -0.0600149 -0.108456 211 43 0
0.712663 -0.0624033 -0.108128 217 37 0
0.708344 -0.0648928 -0.107489 222 32 0
0.703123 -0.0630119 -0.106576 227 27 0
0.700336 -0.0599537 -0.105883 233 21 0
0.698481 -0.0551202 -0.105319 238 16 0
0.700218 -0.0507032 -0.105292 244 10 0
0.704554 -0.0490135 -0.105656 249 5 0
0.710082 -0.0489161 -0.106453 255 0 0
