ply
format ascii 1.0
comment Generated by robot_control PLYWriter
element vertex 161
property float x
property float y
property float z
property uchar red
property uchar green
property uchar blue
end_header
0.657112 -0.424621 -0.10528 0 255 0
0.661402 -0.427388 -0.10555 1 253 0
0.665105 -0.431884 -0.105355 3 251 0
0.664653 -0.437082 -0.104055 4 250 0
0.66129 -0.440615 -0.102965 6 248 0
0.65658 -0.442791 -0.101966 7 247 0
0.652159 -0.442542 -0.101761 9 245 0
0.64707 -0.441623 -0.102306 11 243 0
0.643069 -0.438487 -0.103057 12 242 0
0.641026 -0.433722 -0.104135 14 240 0
0.641039 -0.427819 -0.105088 15 239 0
0.642544 -0.422478 -0.105775 17 237 0
0.6451 -0.417566 -0.106106 19 235 0
0.650166 -0.415178 -0.106288 20 234 0
0.656002 -0.414717 -0.106368 22 232 0
0.661164 -0.416844 -0.1063 23 231 0
0.664247 -0.421555 -0.106129 25 229 0
0.66446 -0.426957 -0.105726 27 227 0
0.660101 -0.430801 -0.105353 28 226 0
0.655318 -0.433031 -0.105138 30 224 0
0.64988 -0.431979 -0.105155 31 223 0
0.645157 -0.429284 -0.105407 33 221 0
0.641916 -0.424354 -0.105791 35 219 0
0.641139 -0.418546 -0.106197 36 218 0
0.641868 -0.412684 -0.106515 38 216 0
0.645071 -0.407884 -0.106775 39 215 0
0.649707 -0.404333 -0.106973 41 213 0
0.655692 -0.404334 -0.107065 43 211 0
0.660379 -0.406754 -0.106997 44 210 0
0.663967 -0.410867 -0.106715 46 208 0
0.665216 -0.416137 -0.106502 47 207 0
0.661436 -0.42053 -0.106235 49 205 0
0.656062 -0.422231 -0.106092 51 204 0
0.650216 -0.422113 -0.106093 52 202 0
0.645129 -0.419182 -0.106171 54 200 0
0.641946 -0.414182 -0.106267 55 199 0
0.641178 -0.408351 -0.10631 57 197 0
0.642291 -0.402706 -0.106426 58 196 0
0.644948 -0.397392 -0.106567 60 194 0
0.649376 -0.393525 -0.106698 62 192 0
0.654958 -0.393973 -0.106785 63 191 0
0.660411 -0.395855 -0.106893 65 189 0
0.664671 -0.399845 -0.107037 66 188 0
0.66522 -0.405594 -0.107163 68 186 0
0.661162 -0.409435 -0.10718 70 184 0
0.65613 -0.412338 -0.107029 71 183 0
0.650242 -0.412017 -0.106725 73 181 0
0.645618 -0.408393 -0.106351 74 180 0
0.642421 -0.403387 -0.1059 76 178 0
0.641118 -0.397657 -0.105593 78 176 0
0.642575 -0.391883 -0.105392 79 175 0
0.645503 -0.386926 -0.105195 81 173 0
0.650908 -0.384406 -0.105257 82 172 0
0.656181 -0.383389 -0.105459 84 170 0
0.661539 -0.385902 -0.105938 86 168 0
0.66505 -0.390448 -0.106306 87 167 0
0.663155 -0.395845 -0.106684 89 165 0
0.659877 -0.400797 -0.106837 90 164 0
0.654374 -0.401926 -0.106548 92 162 0
0.648674 -0.400855 -0.105969 94 160 0
0.644432 -0.396882 -0.10538 95 159 0
0.641879 -0.391496 -0.104885 97 157 0
0.640862 -0.385726 -0.104558 98 156 0
0.642948 -0.380279 -0.104258 100 154 0
0.646539 -0.375505 -0.104119 102 153 0
0.652152 -0.374502 -0.10419 103 151 0
0.656718 -0.373489 -0.104557 105 149 0
0.661801 -0.376625 -0.104945 106 148 0
0.665127 -0.380918 -0.105388 108 146 0
0.663966 -0.386621 -0.105567 109 145 0
0.660018 -0.390899 -0.105431 111 143 0
0.654197 -0.391903 -0.105085 113 141 0
0.648635 -0.390272 -0.104667 114 140 0
0.644433 -0.38604 -0.104329 116 138 0
0.641398 -0.381137 -0.104095 117 137 0
0.640926 -0.375272 -0.10388 119 135 0
0.643171 -0.369857 -0.103777 121 133 0
0.646887 -0.365265 -0.103752 122 132 0
0.652057 -0.36267 -0.103922 124 130 0
0.657848 -0.36378 -0.104254 125 129 0
0.662237 -0.367758 -0.104565 127 127 0
0.664974 -0.372646 -0.104632 129 125 0
0.662222 -0.377527 -0.104488 130 124 0
0.658057 -0.381695 -0.10422 132 122 0
0.652306 -0.3825 -0.104101 133 121 0
0.64752 -0.378964 -0.104084 135 119 0
0.643019 -0.375035 -0.104027 137 117 0
0.640742 -0.369666 -0.103944 138 116 0
0.641442 -0.363809 -0.103986 140 114 0
0.644283 -0.358582 -0.104313 141 113 0
0.647935 -0.354055 -0.104663 143 111 0
0.653579 -0.352863 -0.105027 145 109 0
0.65947 -0.353539 -0.105147 146 108 0
0.663156 -0.357342 -0.105091 148 106 0
0.664931 -0.362725 -0.105058 149 105 0
0.661881 -0.36768 -0.104844 151 103 0
0.656968 -0.370994 -0.104501 153 101 0
0.651512 -0.370753 -0.104289 154 100 0
0.646426 -0.367669 -0.104064 156 98 0
0.642825 -0.363004 -0.103711 157 97 0
0.641004 -0.357385 -0.103526 159 95 0
0.641722 -0.35166 -0.103553 160 94 0
0.644418 -0.34635 -0.103891 162 92 0
0.649579 -0.343752 -0.1043 164 90 0
0.655334 -0.342383 -0.104774 165 89 0
0.66114 -0.3436 -0.105107 167 87 0
0.663483 -0.348288 -0.105554 168 86 0
0.664645 -0.354039 -0.105882 170 84 0
0.660563 -0.358096 -0.105938 172 82 0
0.655926 -0.360922 -0.105441 173 81 0
0.650269 -0.360568 -0.104718 175 79 0
0.645728 -0.357057 -0.103914 176 78 0
0.642342 -0.3525 -0.103165 178 76 0
0.640794 -0.347091 -0.102573 180 74 0
0.642909 -0.341648 -0.102313 181 73 0
0.64561 -0.336308 -0.102337 183 71 0
0.650164 -0.333573 -0.102681 184 70 0
0.65577 -0.332444 -0.103633 186 68 0
0.660709 -0.334462 -0.104817 188 66 0
0.664572 -0.338653 -0.105837 189 65 0
0.665152 -0.344541 -0.106145 191 63 0
0.660565 -0.348369 -0.105799 192 62 0
0.655681 -0.350432 -0.104876 194 60 0
0.650477 -0.349793 -0.103602 196 58 0
0.645108 -0.348422 -0.102466 197 57 0
0.644011 -0.343045 -0.10137 199 55 0
0.640662 -0.338344 -0.100173 200 54 0
0.64215 -0.332638 -0.0995226 202 52 0
0.643893 -0.327331 -0.0994338 204 50 0
0.647884 -0.322955 -0.0997479 205 49 0
0.652943 -0.32092 -0.100637 207 47 0
0.657927 -0.322366 -0.101861 208 46 0
0.662496 -0.323968 -0.103984 210 44 0
0.664936 -0.328782 -0.105345 211 43 0
0.663599 -0.334039 -0.105524 213 41 0
0.661119 -0.338594 -0.104842 215 39 0
0.656051 -0.340404 -0.103635 216 38 0
0.650483 -0.339398 -0.102341 218 36 0
0.646197 -0.33622 -0.100206 219 35 0
0.642216 -0.333544 -0.0985152 221 33 0
0.640968 -0.328641 -0.0973618 223 31 0
0.642008 -0.323605 -0.0961843 224 30 0
0.644409 -0.318239 -0.0956173 226 28 0
0.647479 -0.313447 -0.0960596 227 27 0
0.652444 -0.311518 -0.0972903 229 25 0
0.657723 -0.311612 -0.099163 231 23 0
0.662566 -0.313444 -0.101678 232 22 0
0.664795 -0.317459 -0.103518 234 20 0
0.664894 -0.323106 -0.104476 235 19 0
0.661489 -0.327544 -0.104186 237 17 0
0.657017 -0.329412 -0.102891 239 15 0
0.6527 -0.330122 -0.100993 240 14 0
0.648487 -0.328927 -0.0989396 242 12 0
0.645242 -0.324978 -0.097031 243 11 0
0.642771 -0.321675 -0.0947258 245 9 0
0.640918 -0.316836 -0.0932872 247 7 0
0.640814 -0.311305 -0.0923286 248 6 0
0.643428 -0.308403 -0.0921341 250 4 0
0.646101 -0.304573 -0.0925568 251 3 0
0.650725 -0.302187 -0.093465 253 1 0
0.654464 -0.300828 -0.0944622 255 0 0
