ply
format ascii 1.0
comment Generated by robot_control PLYWriter
element vertex 49
property float x
property float y
property float z
property uchar red
property uchar green
property uchar blue
end_header
0.529564 0.201901 -0.16072 0 255 0
0.533406 0.198962 -0.159162 5 249 0
0.536289 0.195145 -0.156767 10 244 0
0.538211 0.190595 -0.154274 15 239 0
0.537132 0.185676 -0.152032 21 233 0
0.534694 0.18134 -0.149833 26 228 0
0.531758 0.17684 -0.147969 31 223 0
0.527422 0.173196 -0.146695 37 217 0
0.521957 0.17084 -0.146332 42 212 0
0.516155 0.170547 -0.146758 47 207 0
0.510487 0.172074 -0.147716 53 201 0
0.50657 0.175843 -0.149501 58 196 0
0.504724 0.181148 -0.151371 63 191 0
0.505123 0.186401 -0.153414 69 185 0
0.508655 0.191064 -0.154583 74 180 0
0.513842 0.193805 -0.155067 79 175 0
0.519653 0.193028 -0.15443 85 169 0
0.524854 0.190648 -0.15301 90 164 0
0.52846 0.18608 -0.151695 95 159 0
0.530476 0.181364 -0.149393 100 154 0
0.529846 0.175795 -0.147723 106 148 0
0.527719 0.170413 -0.146311 111 143 0
0.523555 0.166967 -0.14532 116 138 0
0.518411 0.164124 -0.144749 122 132 0
0.513025 0.162257 -0.144635 127 127 0
0.50712 0.162629 -0.145191 132 122 0
0.501807 0.164985 -0.146296 138 116 0
0.497904 0.169161 -0.14751 143 111 0
0.496387 0.17469 -0.148826 148 106 0
0.497886 0.180067 -0.150235 154 100 0
0.502257 0.183789 -0.150803 159 95 0
0.507916 0.185598 -0.150884 164 90 0
0.513478 0.185147 -0.150159 170 84 0
0.518334 0.182129 -0.148627 175 79 0
0.521639 0.177614 -0.146943 180 74 0
0.522486 0.17209 -0.145094 185 69 0
0.522029 0.166593 -0.143028 191 63 0
0.51944 0.161501 -0.141496 196 58 0
0.515077 0.157666 -0.14041 201 53 0
0.509834 0.154932 -0.139784 207 47 0
0.504468 0.152717 -0.139674 212 42 0
0.499184 0.155 -0.140039 217 37 0
0.493812 0.155908 -0.141371 223 31 0
0.490644 0.160211 -0.14325 228 26 0
0.49063 0.165564 -0.145752 233 21 0
0.490749 0.170145 -0.14859 239 15 0
0.493684 0.174207 -0.15041 244 10 0
0.498614 0.176325 -0.150601 249 5 0
0.503309 0.175693 -0.149199 255 0 0
