ply
format ascii 1.0
comment Generated by robot_control PLYWriter
element vertex 200
property float x
property float y
property float z
property uchar red
property uchar green
property uchar blue
end_header
0.603213 0.195858 -0.110277 0 255 0
0.603213 0.195858 -0.110277 1 253 0
0.603213 0.195858 -0.110277 2 252 0
0.603213 0.195858 -0.110277 3 251 0
0.603213 0.195858 -0.110277 5 249 0
0.603213 0.195858 -0.110277 6 248 0
0.603213 0.195858 -0.110277 7 247 0
0.603213 0.195858 -0.110277 8 246 0
0.603213 0.195858 -0.110277 10 244 0
0.603213 0.195858 -0.110277 11 243 0
0.603213 0.195858 -0.110277 12 242 0
0.603213 0.195858 -0.110277 14 240 0
0.603213 0.195858 -0.110277 15 239 0
0.603213 0.195858 -0.110277 16 238 0
0.603213 0.195858 -0.110277 17 237 0
0.603213 0.195858 -0.110277 19 235 0
0.603213 0.195858 -0.110277 20 234 0
0.603213 0.195858 -0.110277 21 233 0
0.603213 0.195858 -0.110277 23 231 0
0.603213 0.195858 -0.110277 24 230 0
0.603213 0.195858 -0.110277 25 229 0
0.603213 0.195858 -0.110277 26 228 0
0.603213 0.195858 -0.110277 28 226 0
0.603213 0.195858 -0.110277 29 225 0
0.603213 0.195858 -0.110277 30 224 0
0.603213 0.195858 -0.110277 32 222 0
0.603213 0.195858 -0.110277 33 221 0
0.603213 0.195858 -0.110277 34 220 0
0.603213 0.195858 -0.110277 35 219 0
0.603213 0.195858 -0.110277 37 217 0
0.603213 0.195858 -0.110277 38 216 0
0.603213 0.195858 -0.110277 39 215 0
0.603213 0.195858 -0.110277 41 213 0
0.603213 0.195858 -0.110277 42 212 0
0.603213 0.195858 -0.110277 43 211 0
0.603213 0.195858 -0.110277 44 210 0
0.603213 0.195858 -0.110277 46 208 0
0.603213 0.195858 -0.110277 47 207 0
0.603213 0.195858 -0.110277 48 206 0
0.603213 0.195858 -0.110277 49 205 0
0.603213 0.195858 -0.110277 51 203 0
0.603213 0.195858 -0.110277 52 202 0
0.603213 0.195858 -0.110277 53 201 0
0.603213 0.195858 -0.110277 55 199 0
0.603213 0.195858 -0.110277 56 198 0
0.603213 0.195858 -0.110277 57 197 0
0.603213 0.195858 -0.110277 58 196 0
0.603213 0.195858 -0.110277 60 194 0
0.603213 0.195858 -0.110277 61 193 0
0.603213 0.195858 -0.110277 62 192 0
0.603213 0.195858 -0.110277 64 190 0
0.603213 0.195858 -0.110277 65 189 0
0.603213 0.195858 -0.110277 66 188 0
0.603213 0.195858 -0.110277 67 187 0
0.603213 0.195858 -0.110277 69 185 0
0.603213 0.195858 -0.110277 70 184 0
0.603213 0.195858 -0.110277 71 183 0
0.603213 0.195858 -0.110277 73 181 0
0.603213 0.195858 -0.110277 74 180 0
0.603213 0.195858 -0.110277 75 179 0
0.603213 0.195858 -0.110277 76 178 0
0.603213 0.195858 -0.110277 78 176 0
0.603213 0.195858 -0.110277 79 175 0
0.603213 0.195858 -0.110277 80 174 0
0.603213 0.195858 -0.110277 82 172 0
0.603213 0.195858 -0.110277 83 171 0
0.603213 0.195858 -0.110277 84 170 0
0.603213 0.195858 -0.110277 85 169 0
0.603213 0.195858 -0.110277 87 167 0
0.603213 0.195858 -0.110277 88 166 0
0.603213 0.195858 -0.110277 89 165 0
0.603213 0.195858 -0.110277 90 164 0
0.603213 0.195858 -0.110277 92 162 0
0.603213 0.195858 -0.110277 93 161 0
0.603213 0.195858 -0.110277 94 160 0
0.603213 0.195858 -0.110277 96 158 0
0.603213 0.195858 -0.110277 97 157 0
0.603213 0.195858 -0.110277 98 156 0
0.603213 0.195858 -0.110277 99 155 0
0.603213 0.195858 -0.110277 101 153 0
0.603213 0.195858 -0.110277 102 152 0
0.603213 0.195858 -0.110277 103 151 0
0.603213 0.195858 -0.110277 105 149 0
0.603213 0.195858 -0.110277 106 148 0
0.603213 0.195858 -0.110277 107 147 0
0.603213 0.195858 -0.110277 108 146 0
0.603213 0.195858 -0.110277 110 144 0
0.603213 0.195858 -0.110277 111 143 0
0.603213 0.195858 -0.110277 112 142 0
0.603213 0.195858 -0.110277 114 140 0
0.603213 0.195858 -0.110277 115 139 0
0.603213 0.195858 -0.110277 116 138 0
0.603213 0.195858 -0.110277 117 137 0
0.603213 0.195858 -0.110277 119 135 0
0.603213 0.195858 -0.110277 120 134 0
0.603213 0.195858 -0.110277 121 133 0
0.603213 0.195858 -0.110277 123 131 0
0.603213 0.195858 -0.110277 124 130 0
0.603213 0.195858 -0.110277 125 129 0
0.603213 0.195858 -0.110277 126 128 0
0.603213 0.195858 -0.110277 128 126 0
0.603213 0.195858 -0.110277 129 125 0
0.603213 0.195858 -0.110277 130 124 0
0.603213 0.195858 -0.110277 131 123 0
0.603213 0.195858 -0.110277 133 121 0
0.603213 0.195858 -0.110277 134 120 0
0.603213 0.195858 -0.110277 135 119 0
0.603213 0.195858 -0.110277 137 117 0
0.603213 0.195858 -0.110277 138 116 0
0.603213 0.195858 -0.110277 139 115 0
0.603213 0.195858 -0.110277 140 114 0
0.603213 0.195858 -0.110277 142 112 0
0.603213 0.195858 -0.110277 143 111 0
0.603213 0.195858 -0.110277 144 110 0
0.603213 0.195858 -0.110277 146 108 0
0.603213 0.195858 -0.110277 147 107 0
0.603213 0.195858 -0.110277 148 106 0
0.603213 0.195858 -0.110277 149 105 0
0.603213 0.195858 -0.110277 151 103 0
0.603213 0.195858 -0.110277 152 102 0
0.603213 0.195858 -0.110277 153 101 0
0.603213 0.195858 -0.110277 155 99 0
0.603213 0.195858 -0.110277 156 98 0
0.603213 0.195858 -0.110277 157 97 0
0.603213 0.195858 -0.110277 158 96 0
0.603213 0.195858 -0.110277 160 94 0
0.603213 0.195858 -0.110277 161 93 0
0.603213 0.195858 -0.110277 162 92 0
0.603213 0.195858 -0.110277 164 90 0
0.603213 0.195858 -0.110277 165 89 0
0.603213 0.195858 -0.110277 166 88 0
0.603213 0.195858 -0.110277 167 87 0
0.603213 0.195858 -0.110277 169 85 0
0.603213 0.195858 -0.110277 170 84 0
0.603213 0.195858 -0.110277 171 83 0
0.603213 0.195858 -0.110277 172 82 0
0.603213 0.195858 -0.110277 174 80 0
0.603213 0.195858 -0.110277 175 79 0
0.603213 0.195858 -0.110277 176 78 0
0.603213 0.195858 -0.110277 178 76 0
0.603213 0.195858 -0.110277 179 75 0
0.603213 0.195858 -0.110277 180 74 0
0.603213 0.195858 -0.110277 181 73 0
0.603213 0.195858 -0.110277 183 71 0
0.603213 0.195858 -0.110277 184 70 0
0.603213 0.195858 -0.110277 185 69 0
0.603213 0.195858 -0.110277 187 67 0
0.603213 0.195858 -0.110277 188 66 0
0.603213 0.195858 -0.110277 189 65 0
0.603213 0.195858 -0.110277 190 64 0
0.603213 0.195858 -0.110277 192 62 0
0.603213 0.195858 -0.110277 193 61 0
0.603213 0.195858 -0.110277 194 60 0
0.603213 0.195858 -0.110277 196 58 0
0.603213 0.195858 -0.110277 197 57 0
0.603213 0.195858 -0.110277 198 56 0
0.603213 0.195858 -0.110277 199 55 0
0.603213 0.195858 -0.110277 201 53 0
0.603213 0.195858 -0.110277 202 52 0
0.603213 0.195858 -0.110277 203 51 0
0.603213 0.195858 -0.110277 205 49 0
0.603213 0.195858 -0.110277 206 48 0
0.603213 0.195858 -0.110277 207 47 0
0.603213 0.195858 -0.110277 208 46 0
0.603213 0.195858 -0.110277 210 44 0
0.603213 0.195858 -0.110277 211 43 0
0.603213 0.195858 -0.110277 212 42 0
0.603213 0.195858 -0.110277 213 41 0
0.603213 0.195858 -0.110277 215 39 0
0.603213 0.195858 -0.110277 216 38 0
0.603213 0.195858 -0.110277 217 37 0
0.603213 0.195858 -0.110277 219 35 0
0.603213 0.195858 -0.110277 220 34 0
0.603213 0.195858 -0.110277 221 33 0
0.603213 0.195858 -0.110277 222 32 0
0.603213 0.195858 -0.110277 224 30 0
0.603213 0.195858 -0.110277 225 29 0
0.603213 0.195858 -0.110277 226 28 0
0.603213 0.195858 -0.110277 228 26 0
0.603213 0.195858 -0.110277 229 25 0
0.603213 0.195858 -0.110277 230 24 0
0.603213 0.195858 -0.110277 231 23 0
0.603213 0.195858 -0.110277 233 21 0
0.603213 0.195858 -0.110277 234 20 0
0.603213 0.195858 -0.110277 235 19 0
0.603213 0.195858 -0.110277 237 17 0
0.603213 0.195858 -0.110277 238 16 0
0.603213 0.195858 -0.110277 239 15 0
0.603213 0.195858 -0.110277 240 14 0
0.603213 0.195858 -0.110277 242 12 0
0.603213 0.195858 -0.110277 243 11 0
0.603213 0.195858 -0.110277 244 10 0
0.603213 0.195858 -0.110277 246 8 0
0.603213 0.195858 -0.110277 247 7 0
0.603213 0.195858 -0.110277 248 6 0
0.603213 0.195858 -0.110277 249 5 0
0.603213 0.195858 -0.110277 251 3 0
0.603213 0.195858 -0.110277 252 2 0
0.603213 0.195858 -0.110277 253 1 0
0.603213 0.195858 -0.110277 255 0 0
