ply
format ascii 1.0
comment Generated by robot_control PLYWriter
element vertex 200
property float x
property float y
property float z
property uchar red
property uchar green
property uchar blue
end_header
0.659803 -0.0780654 -0.128671 0 255 0
0.659803 -0.0780654 -0.128671 1 253 0
0.659803 -0.0780654 -0.128671 2 252 0
0.659803 -0.0780654 -0.128671 3 251 0
0.659803 -0.0780654 -0.128671 5 249 0
0.659803 -0.0780654 -0.128671 6 248 0
0.659803 -0.0780654 -0.128671 7 247 0
0.659803 -0.0780654 -0.128671 8 246 0
0.659803 -0.0780654 -0.128671 10 244 0
0.659803 -0.0780654 -0.128671 11 243 0
0.659803 -0.0780654 -0.128671 12 242 0
0.659803 -0.0780654 -0.128671 14 240 0
0.659803 -0.0780654 -0.128671 15 239 0
0.659803 -0.0780654 -0.128671 16 238 0
0.659803 -0.0780654 -0.128671 17 237 0
0.659803 -0.0780654 -0.128671 19 235 0
0.659803 -0.0780654 -0.128671 20 234 0
0.659803 -0.0780654 -0.128671 21 233 0
0.659803 -0.0780654 -0.128671 23 231 0
0.659803 -0.0780654 -0.128671 24 230 0
0.659803 -0.0780654 -0.128671 25 229 0
0.659803 -0.0780654 -0.128671 26 228 0
0.659803 -0.0780654 -0.128671 28 226 0
0.659803 -0.0780654 -0.128671 29 225 0
0.659803 -0.0780654 -0.128671 30 224 0
0.659803 -0.0780654 -0.128671 32 222 0
0.659803 -0.0780654 -0.128671 33 221 0
0.659803 -0.0780654 -0.128671 34 220 0
0.659803 -0.0780654 -0.128671 35 219 0
0.659803 -0.0780654 -0.128671 37 217 0
0.659803 -0.0780654 -0.128671 38 216 0
0.659803 -0.0780654 -0.128671 39 215 0
0.659803 -0.0780654 -0.128671 41 213 0
0.659803 -0.0780654 -0.128671 42 212 0
0.659803 -0.0780654 -0.128671 43 211 0
0.659803 -0.0780654 -0.128671 44 210 0
0.659803 -0.0780654 -0.128671 46 208 0
0.659803 -0.0780654 -0.128671 47 207 0
0.659803 -0.0780654 -0.128671 48 206 0
0.659803 -0.0780654 -0.128671 49 205 0
0.659803 -0.0780654 -0.128671 51 203 0
0.659803 -0.0780654 -0.128671 52 202 0
0.659803 -0.0780654 -0.128671 53 201 0
0.659803 -0.0780654 -0.128671 55 199 0
0.659803 -0.0780654 -0.128671 56 198 0
0.659803 -0.0780654 -0.128671 57 197 0
0.659803 -0.0780654 -0.128671 58 196 0
0.659803 -0.0780654 -0.128671 60 194 0
0.659803 -0.0780654 -0.128671 61 193 0
0.659803 -0.0780654 -0.128671 62 192 0
0.659803 -0.0780654 -0.128671 64 190 0
0.659803 -0.0780654 -0.128671 65 189 0
0.659803 -0.0780654 -0.128671 66 188 0
0.659803 -0.0780654 -0.128671 67 187 0
0.659803 -0.0780654 -0.128671 69 185 0
0.659803 -0.0780654 -0.128671 70 184 0
0.659803 -0.0780654 -0.128671 71 183 0
0.659803 -0.0780654 -0.128671 73 181 0
0.659803 -0.0780654 -0.128671 74 180 0
0.659803 -0.0780654 -0.128671 75 179 0
0.659803 -0.0780654 -0.128671 76 178 0
0.659803 -0.0780654 -0.128671 78 176 0
0.659803 -0.0780654 -0.128671 79 175 0
0.659803 -0.0780654 -0.128671 80 174 0
0.659803 -0.0780654 -0.128671 82 172 0
0.659803 -0.0780654 -0.128671 83 171 0
0.659803 -0.0780654 -0.128671 84 170 0
0.659803 -0.0780654 -0.128671 85 169 0
0.659803 -0.0780654 -0.128671 87 167 0
0.659803 -0.0780654 -0.128671 88 166 0
0.659803 -0.0780654 -0.128671 89 165 0
0.659803 -0.0780654 -0.128671 90 164 0
0.659803 -0.0780654 -0.128671 92 162 0
0.659803 -0.0780654 -0.128671 93 161 0
0.659803 -0.0780654 -0.128671 94 160 0
0.659803 -0.0780654 -0.128671 96 158 0
0.659803 -0.0780654 -0.128671 97 157 0
0.659803 -0.0780654 -0.128671 98 156 0
0.659803 -0.0780654 -0.128671 99 155 0
0.659803 -0.0780654 -0.128671 101 153 0
0.659803 -0.0780654 -0.128671 102 152 0
0.659803 -0.0780654 -0.128671 103 151 0
0.659803 -0.0780654 -0.128671 105 149 0
0.659803 -0.0780654 -0.128671 106 148 0
0.659803 -0.0780654 -0.128671 107 147 0
0.659803 -0.0780654 -0.128671 108 146 0
0.659803 -0.0780654 -0.128671 110 144 0
0.659803 -0.0780654 -0.128671 111 143 0
0.659803 -0.0780654 -0.128671 112 142 0
0.659803 -0.0780654 -0.128671 114 140 0
0.659803 -0.0780654 -0.128671 115 139 0
0.659803 -0.0780654 -0.128671 116 138 0
0.659803 -0.0780654 -0.128671 117 137 0
0.659803 -0.0780654 -0.128671 119 135 0
0.659803 -0.0780654 -0.128671 120 134 0
0.659803 -0.0780654 -0.128671 121 133 0
0.659803 -0.0780654 -0.128671 123 131 0
0.659803 -0.0780654 -0.128671 124 130 0
0.659803 -0.0780654 -0.128671 125 129 0
0.659803 -0.0780654 -0.128671 126 128 0
0.659803 -0.0780654 -0.128671 128 126 0
0.659803 -0.0780654 -0.128671 129 125 0
0.659803 -0.0780654 -0.128671 130 124 0
0.659803 -0.0780654 -0.128671 131 123 0
0.659803 -0.0780654 -0.128671 133 121 0
0.659803 -0.0780654 -0.128671 134 120 0
0.659803 -0.0780654 -0.128671 135 119 0
0.659803 -0.0780654 -0.128671 137 117 0
0.659803 -0.0780654 -0.128671 138 116 0
0.659803 -0.0780654 -0.128671 139 115 0
0.659803 -0.0780654 -0.128671 140 114 0
0.659803 -0.0780654 -0.128671 142 112 0
0.659803 -0.0780654 -0.128671 143 111 0
0.659803 -0.0780654 -0.128671 144 110 0
0.659803 -0.0780654 -0.128671 146 108 0
0.659803 -0.0780654 -0.128671 147 107 0
0.659803 -0.0780654 -0.128671 148 106 0
0.659803 -0.0780654 -0.128671 149 105 0
0.659803 -0.0780654 -0.128671 151 103 0
0.659803 -0.0780654 -0.128671 152 102 0
0.659803 -0.0780654 -0.128671 153 101 0
0.659803 -0.0780654 -0.128671 155 99 0
0.659803 -0.0780654 -0.128671 156 98 0
0.659803 -0.0780654 -0.128671 157 97 0
0.659803 -0.0780654 -0.128671 158 96 0
0.659803 -0.0780654 -0.128671 160 94 0
0.659803 -0.0780654 -0.128671 161 93 0
0.659803 -0.0780654 -0.128671 162 92 0
0.659803 -0.0780654 -0.128671 164 90 0
0.659803 -0.0780654 -0.128671 165 89 0
0.659803 -0.0780654 -0.128671 166 88 0
0.659803 -0.0780654 -0.128671 167 87 0
0.659803 -0.0780654 -0.128671 169 85 0
0.659803 -0.0780654 -0.128671 170 84 0
0.659803 -0.0780654 -0.128671 171 83 0
0.659803 -0.0780654 -0.128671 172 82 0
0.659803 -0.0780654 -0.128671 174 80 0
0.659803 -0.0780654 -0.128671 175 79 0
0.659803 -0.0780654 -0.128671 176 78 0
0.659803 -0.0780654 -0.128671 178 76 0
0.659803 -0.0780654 -0.128671 179 75 0
0.659803 -0.0780654 -0.128671 180 74 0
0.659803 -0.0780654 -0.128671 181 73 0
0.659803 -0.0780654 -0.128671 183 71 0
0.659803 -0.0780654 -0.128671 184 70 0
0.659803 -0.0780654 -0.128671 185 69 0
0.659803 -0.0780654 -0.128671 187 67 0
0.659803 -0.0780654 -0.128671 188 66 0
0.659803 -0.0780654 -0.128671 189 65 0
0.659803 -0.0780654 -0.128671 190 64 0
0.659803 -0.0780654 -0.128671 192 62 0
0.659803 -0.0780654 -0.128671 193 61 0
0.659803 -0.0780654 -0.128671 194 60 0
0.659803 -0.0780654 -0.128671 196 58 0
0.659803 -0.0780654 -0.128671 197 57 0
0.659803 -0.0780654 -0.128671 198 56 0
0.659803 -0.0780654 -0.128671 199 55 0
0.659803 -0.0780654 -0.128671 201 53 0
0.659803 -0.0780654 -0.128671 202 52 0
0.659803 -0.0780654 -0.128671 203 51 0
0.659803 -0.0780654 -0.128671 205 49 0
0.659803 -0.0780654 -0.128671 206 48 0
0.659803 -0.0780654 -0.128671 207 47 0
0.659803 -0.0780654 -0.128671 208 46 0
0.659803 -0.0780654 -0.128671 210 44 0
0.659803 -0.0780654 -0.128671 211 43 0
0.659803 -0.0780654 -0.128671 212 42 0
0.659803 -0.0780654 -0.128671 213 41 0
0.659803 -0.0780654 -0.128671 215 39 0
0.659803 -0.0780654 -0.128671 216 38 0
0.659803 -0.0780654 -0.128671 217 37 0
0.659803 -0.0780654 -0.128671 219 35 0
0.659803 -0.0780654 -0.128671 220 34 0
0.659803 -0.0780654 -0.128671 221 33 0
0.659803 -0.0780654 -0.128671 222 32 0
0.659803 -0.0780654 -0.128671 224 30 0
0.659803 -0.0780654 -0.128671 225 29 0
0.659803 -0.0780654 -0.128671 226 28 0
0.659803 -0.0780654 -0.128671 228 26 0
0.659803 -0.0780654 -0.128671 229 25 0
0.659803 -0.0780654 -0.128671 230 24 0
0.659803 -0.0780654 -0.128671 231 23 0
0.659803 -0.0780654 -0.128671 233 21 0
0.659803 -0.0780654 -0.128671 234 20 0
0.659803 -0.0780654 -0.128671 235 19 0
0.659803 -0.0780654 -0.128671 237 17 0
0.659803 -0.0780654 -0.128671 238 16 0
0.659803 -0.0780654 -0.128671 239 15 0
0.659803 -0.0780654 -0.128671 240 14 0
0.659803 -0.0780654 -0.128671 242 12 0
0.659803 -0.0780654 -0.128671 243 11 0
0.659803 -0.0780654 -0.128671 244 10 0
0.659803 -0.0780654 -0.128671 246 8 0
0.659803 -0.0780654 -0.128671 247 7 0
0.659803 -0.0780654 -0.128671 248 6 0
0.659803 -0.0780654 -0.128671 249 5 0
0.659803 -0.0780654 -0.128671 251 3 0
0.659803 -0.0780654 -0.128671 252 2 0
0.659803 -0.0780654 -0.128671 253 1 0
0.659803 -0.0780654 -0.128671 255 0 0
