ply
format ascii 1.0
comment Generated by robot_control PLYWriter
element vertex 10
property float x
property float y
property float z
property uchar red
property uchar green
property uchar blue
end_header
0.668793 -0.169861 -0.0143514 0 255 0
0.669615 -0.174882 -0.0140169 28 226 0
0.670038 -0.179952 -0.0136341 56 198 0
0.670862 -0.18498 -0.0133642 85 169 0
0.671652 -0.190019 -0.013224 113 141 0
0.672374 -0.19507 -0.0131965 141 113 0
0.673175 -0.200109 -0.0132902 170 84 0
0.673911 -0.205148 -0.0135766 198 56 0
0.674244 -0.210224 -0.0139812 226 28 0
0.674628 -0.21529 -0.0143546 255 0 0
