ply
format ascii 1.0
comment Generated by robot_control PLYWriter
element vertex 35
property float x
property float y
property float z
property uchar red
property uchar green
property uchar blue
end_header
0.589355 0.0800004 -0.14237 0 255 0
0.592648 0.0775205 -0.139912 7 247 0
0.595001 0.0730759 -0.138365 15 240 0
0.594885 0.0678882 -0.136744 22 232 0
0.590574 0.0640512 -0.136501 30 225 0
0.585141 0.0630316 -0.13724 37 217 0
0.581265 0.0658702 -0.13949 45 210 0
0.578231 0.0703758 -0.141308 52 202 0
0.578163 0.0761137 -0.142704 60 195 0
0.581149 0.0808859 -0.143434 67 187 0
0.586195 0.0837939 -0.14345 75 179 0
0.591799 0.0854424 -0.143024 82 172 0
0.59754 0.0846759 -0.141714 90 165 0
0.601514 0.0809596 -0.140074 97 157 0
0.602608 0.0757709 -0.138581 105 149 0
0.59972 0.0713489 -0.138013 112 142 0
0.595003 0.068035 -0.138411 120 135 0
0.58949 0.0696609 -0.139479 127 127 0
0.585727 0.0738841 -0.141033 135 119 0
0.584918 0.0793898 -0.142383 142 112 0
0.587065 0.0846771 -0.143391 150 104 0
0.591396 0.0884399 -0.143542 157 97 0
0.59677 0.0908033 -0.143283 165 89 0
0.602529 0.0902685 -0.142145 172 82 0
0.607369 0.0870746 -0.141069 180 74 0
0.608491 0.0818604 -0.139315 187 67 0
0.606666 0.077076 -0.13807 195 59 0
0.602198 0.0734941 -0.13808 202 52 0
0.59636 0.0740171 -0.138931 210 44 0
0.592816 0.0773923 -0.140412 217 37 0
0.591749 0.0822101 -0.142293 225 29 0
0.592302 0.0863547 -0.143908 232 22 0
0.595228 0.0911336 -0.145431 240 14 0
0.59897 0.0949024 -0.146028 247 7 0
0.603652 0.0959405 -0.145205 255 0 0
