ply
format ascii 1.0
comment Generated by robot_control PLYWriter
element vertex 50
property float x
property float y
property float z
property uchar red
property uchar green
property uchar blue
end_header
0.550771 0.233595 -0.170245 0 255 0
0.553439 0.234148 -0.169122 5 249 0
0.557392 0.232629 -0.166716 10 244 0
0.5605 0.229644 -0.163829 15 239 0
0.562542 0.225309 -0.161082 20 234 0
0.562535 0.220188 -0.157947 26 228 0
0.561508 0.215265 -0.155409 31 223 0
0.558269 0.210417 -0.154249 36 218 0
0.55377 0.207562 -0.153974 41 213 0
0.548164 0.205756 -0.154511 46 208 0
0.542527 0.204615 -0.155463 52 202 0
0.536944 0.206055 -0.157279 57 197 0
0.532341 0.208541 -0.159594 62 192 0
0.530637 0.213307 -0.162456 67 187 0
0.530283 0.218486 -0.164215 72 182 0
0.533531 0.223347 -0.165391 78 176 0
0.538215 0.226967 -0.165309 83 171 0
0.544084 0.227355 -0.164569 88 166 0
0.549433 0.225952 -0.162727 93 161 0
0.553464 0.22199 -0.160619 98 156 0
0.555922 0.21693 -0.158657 104 150 0
0.555517 0.211773 -0.15616 109 145 0
0.55365 0.206238 -0.154907 114 140 0
0.549688 0.201807 -0.154046 119 135 0
0.544475 0.199124 -0.153794 124 130 0
0.538595 0.197841 -0.15412 130 124 0
0.532939 0.197299 -0.154955 135 119 0
0.527481 0.199372 -0.156495 140 114 0
0.52409 0.203534 -0.158765 145 109 0
0.523061 0.208805 -0.160409 150 104 0
0.523897 0.21411 -0.162288 156 98 0
0.528734 0.217415 -0.162842 161 93 0
0.534306 0.219131 -0.162557 166 88 0
0.540184 0.218556 -0.161273 171 83 0
0.545135 0.21651 -0.158907 176 78 0
0.54847 0.212093 -0.156705 182 72 0
0.547327 0.206728 -0.154765 187 67 0
0.546682 0.201173 -0.152553 192 62 0
0.543765 0.196392 -0.151426 197 57 0
0.539469 0.192178 -0.15085 202 52 0
0.533816 0.190206 -0.151109 208 46 0
0.528115 0.188756 -0.152239 213 41 0
0.52281 0.190386 -0.153996 218 36 0
0.51845 0.193069 -0.156517 223 31 0
0.517465 0.197626 -0.159454 228 26 0
0.515378 0.202613 -0.161719 234 20 0
0.51717 0.207032 -0.163364 239 15 0
0.521403 0.210648 -0.164242 244 10 0
0.525569 0.212267 -0.164048 249 5 0
0.528988 0.211105 -0.16289 255 0 0
