ply
format ascii 1.0
comment Generated by robot_control PLYWriter
element vertex 31
property float x
property float y
property float z
property uchar red
property uchar green
property uchar blue
end_header
0.627094 0.15004 -0.162741 0 255 0
0.631693 0.147715 -0.160083 8 246 0
0.633179 0.142587 -0.157801 17 238 0
0.632514 0.136853 -0.15642 25 229 0
0.629783 0.131521 -0.156051 34 221 0
0.624752 0.128398 -0.156445 42 212 0
0.619584 0.12596 -0.157165 51 204 0
0.613745 0.126286 -0.158328 59 195 0
0.608296 0.126698 -0.16051 68 187 0
0.603243 0.129516 -0.162313 76 178 0
0.599698 0.133457 -0.164497 85 169 0
0.599034 0.139008 -0.166542 93 161 0
0.599409 0.144814 -0.167774 102 153 0
0.602453 0.150025 -0.168384 110 144 0
0.60728 0.153493 -0.168869 119 135 0
0.612545 0.155038 -0.168735 127 127 0
0.617953 0.154083 -0.167924 136 118 0
0.6206 0.149533 -0.166438 144 110 0
0.619941 0.143679 -0.165203 153 101 0
0.617933 0.138031 -0.164342 161 93 0
0.61341 0.134138 -0.164058 170 84 0
0.607709 0.132126 -0.16434 178 76 0
0.601805 0.131031 -0.16503 187 67 0
0.596105 0.132218 -0.166468 195 59 0
0.591344 0.135204 -0.16812 204 50 0
0.588523 0.139744 -0.170625 212 42 0
0.588412 0.145429 -0.17269 221 33 0
0.589053 0.150551 -0.175556 229 25 0
0.592999 0.154779 -0.177245 238 16 0
0.596602 0.158332 -0.178287 246 8 0
0.600779 0.159478 -0.178392 255 0 0
