ply
format ascii 1.0
comment Generated by robot_control PLYWriter
element vertex 8
property float x
property float y
property float z
property uchar red
property uchar green
property uchar blue
end_header
0.701052 -0.141935 -0.121796 0 255 0
0.701017 -0.146566 -0.122279 36 218 0
0.700977 -0.151214 -0.12263 72 182 0
0.700919 -0.155868 -0.1229 109 145 0
0.700941 -0.160528 -0.123023 145 109 0
0.701007 -0.16519 -0.123028 182 72 0
0.700994 -0.169852 -0.122981 218 36 0
0.700989 -0.174511 -0.122946 255 0 0
