ply
format ascii 1.0
comment Generated by robot_control PLYWriter
element vertex 36
property float x
property float y
property float z
property uchar red
property uchar green
property uchar blue
end_header
0.67232 0.117216 -0.16781 0 255 0
0.676808 0.115436 -0.16639 7 247 0
0.677056 0.110928 -0.163993 14 240 0
0.675943 0.105471 -0.162478 21 233 0
0.670821 0.10354 -0.161742 29 225 0
0.665752 0.101372 -0.161944 36 218 0
0.660829 0.104177 -0.162548 43 211 0
0.656327 0.107323 -0.163778 51 204 0
0.653325 0.112234 -0.165376 58 196 0
0.653037 0.117727 -0.167367 65 189 0
0.656236 0.122314 -0.168938 72 182 0
0.661011 0.125643 -0.169563 80 174 0
0.666897 0.125383 -0.169642 87 167 0
0.670792 0.122252 -0.168764 94 160 0
0.672081 0.117011 -0.167644 102 153 0
0.668978 0.112057 -0.166703 109 145 0
0.663863 0.10989 -0.166287 116 138 0
0.658315 0.110188 -0.166369 123 131 0
0.65255 0.11058 -0.16688 131 123 0
0.64956 0.115653 -0.167968 138 116 0
0.646265 0.120514 -0.169105 145 109 0
0.647652 0.125898 -0.170742 153 101 0
0.651128 0.130441 -0.171973 160 94 0
0.656801 0.131633 -0.172672 167 87 0
0.662572 0.131175 -0.172553 174 80 0
0.665088 0.12648 -0.171425 182 72 0
0.664097 0.122303 -0.17033 189 65 0
0.661138 0.117856 -0.169116 196 58 0
0.655323 0.117251 -0.168716 204 50 0
0.64936 0.117171 -0.169103 211 43 0
0.644651 0.120424 -0.170259 218 36 0
0.641317 0.125163 -0.171661 225 29 0
0.641309 0.13031 -0.173816 233 21 0
0.64281 0.135149 -0.175713 240 14 0
0.646789 0.137743 -0.177237 247 7 0
0.650409 0.139901 -0.177943 255 0 0
