ply
format ascii 1.0
comment Generated by robot_control PLYWriter
element vertex 200
property float x
property float y
property float z
property uchar red
property uchar green
property uchar blue
end_header
0.746523 0.0177035 -0.11115 0 255 0
0.746523 0.0177035 -0.11115 1 253 0
0.746523 0.0177035 -0.11115 2 252 0
0.746523 0.0177035 -0.11115 3 251 0
0.746523 0.0177035 -0.11115 5 249 0
0.746523 0.0177035 -0.11115 6 248 0
0.746523 0.0177035 -0.11115 7 247 0
0.746523 0.0177035 -0.11115 8 246 0
0.746523 0.0177035 -0.11115 10 244 0
0.746523 0.0177035 -0.11115 11 243 0
0.746523 0.0177035 -0.11115 12 242 0
0.746523 0.0177035 -0.11115 14 240 0
0.746523 0.0177035 -0.11115 15 239 0
0.746523 0.0177035 -0.11115 16 238 0
0.746523 0.0177035 -0.11115 17 237 0
0.746523 0.0177035 -0.11115 19 235 0
0.746523 0.0177035 -0.11115 20 234 0
0.746523 0.0177035 -0.11115 21 233 0
0.746523 0.0177035 -0.11115 23 231 0
0.746523 0.0177035 -0.11115 24 230 0
0.746523 0.0177035 -0.11115 25 229 0
0.746523 0.0177035 -0.11115 26 228 0
0.746523 0.0177035 -0.11115 28 226 0
0.746523 0.0177035 -0.11115 29 225 0
0.746523 0.0177035 -0.11115 30 224 0
0.746523 0.0177035 -0.11115 32 222 0
0.746523 0.0177035 -0.11115 33 221 0
0.746523 0.0177035 -0.11115 34 220 0
0.746523 0.0177035 -0.11115 35 219 0
0.746523 0.0177035 -0.11115 37 217 0
0.746523 0.0177035 -0.11115 38 216 0
0.746523 0.0177035 -0.11115 39 215 0
0.746523 0.0177035 -0.11115 41 213 0
0.746523 0.0177035 -0.11115 42 212 0
0.746523 0.0177035 -0.11115 43 211 0
0.746523 0.0177035 -0.11115 44 210 0
0.746523 0.0177035 -0.11115 46 208 0
0.746523 0.0177035 -0.11115 47 207 0
0.746523 0.0177035 -0.11115 48 206 0
0.746523 0.0177035 -0.11115 49 205 0
0.746523 0.0177035 -0.11115 51 203 0
0.746523 0.0177035 -0.11115 52 202 0
0.746523 0.0177035 -0.11115 53 201 0
0.746523 0.0177035 -0.11115 55 199 0
0.746523 0.0177035 -0.11115 56 198 0
0.746523 0.0177035 -0.11115 57 197 0
0.746523 0.0177035 -0.11115 58 196 0
0.746523 0.0177035 -0.11115 60 194 0
0.746523 0.0177035 -0.11115 61 193 0
0.746523 0.0177035 -0.11115 62 192 0
0.746523 0.0177035 -0.11115 64 190 0
0.746523 0.0177035 -0.11115 65 189 0
0.746523 0.0177035 -0.11115 66 188 0
0.746523 0.0177035 -0.11115 67 187 0
0.746523 0.0177035 -0.11115 69 185 0
0.746523 0.0177035 -0.11115 70 184 0
0.746523 0.0177035 -0.11115 71 183 0
0.746523 0.0177035 -0.11115 73 181 0
0.746523 0.0177035 -0.11115 74 180 0
0.746523 0.0177035 -0.11115 75 179 0
0.746523 0.0177035 -0.11115 76 178 0
0.746523 0.0177035 -0.11115 78 176 0
0.746523 0.0177035 -0.11115 79 175 0
0.746523 0.0177035 -0.11115 80 174 0
0.746523 0.0177035 -0.11115 82 172 0
0.746523 0.0177035 -0.11115 83 171 0
0.746523 0.0177035 -0.11115 84 170 0
0.746523 0.0177035 -0.11115 85 169 0
0.746523 0.0177035 -0.11115 87 167 0
0.746523 0.0177035 -0.11115 88 166 0
0.746523 0.0177035 -0.11115 89 165 0
0.746523 0.0177035 -0.11115 90 164 0
0.746523 0.0177035 -0.11115 92 162 0
0.746523 0.0177035 -0.11115 93 161 0
0.746523 0.0177035 -0.11115 94 160 0
0.746523 0.0177035 -0.11115 96 158 0
0.746523 0.0177035 -0.11115 97 157 0
0.746523 0.0177035 -0.11115 98 156 0
0.746523 0.0177035 -0.11115 99 155 0
0.746523 0.0177035 -0.11115 101 153 0
0.746523 0.0177035 -0.11115 102 152 0
0.746523 0.0177035 -0.11115 103 151 0
0.746523 0.0177035 -0.11115 105 149 0
0.746523 0.0177035 -0.11115 106 148 0
0.746523 0.0177035 -0.11115 107 147 0
0.746523 0.0177035 -0.11115 108 146 0
0.746523 0.0177035 -0.11115 110 144 0
0.746523 0.0177035 -0.11115 111 143 0
0.746523 0.0177035 -0.11115 112 142 0
0.746523 0.0177035 -0.11115 114 140 0
0.746523 0.0177035 -0.11115 115 139 0
0.746523 0.0177035 -0.11115 116 138 0
0.746523 0.0177035 -0.11115 117 137 0
0.746523 0.0177035 -0.11115 119 135 0
0.746523 0.0177035 -0.11115 120 134 0
0.746523 0.0177035 -0.11115 121 133 0
0.746523 0.0177035 -0.11115 123 131 0
0.746523 0.0177035 -0.11115 124 130 0
0.746523 0.0177035 -0.11115 125 129 0
0.746523 0.0177035 -0.11115 126 128 0
0.746523 0.0177035 -0.11115 128 126 0
0.746523 0.0177035 -0.11115 129 125 0
0.746523 0.0177035 -0.11115 130 124 0
0.746523 0.0177035 -0.11115 131 123 0
0.746523 0.0177035 -0.11115 133 121 0
0.746523 0.0177035 -0.11115 134 120 0
0.746523 0.0177035 -0.11115 135 119 0
0.746523 0.0177035 -0.11115 137 117 0
0.746523 0.0177035 -0.11115 138 116 0
0.746523 0.0177035 -0.11115 139 115 0
0.746523 0.0177035 -0.11115 140 114 0
0.746523 0.0177035 -0.11115 142 112 0
0.746523 0.0177035 -0.11115 143 111 0
0.746523 0.0177035 -0.11115 144 110 0
0.746523 0.0177035 -0.11115 146 108 0
0.746523 0.0177035 -0.11115 147 107 0
0.746523 0.0177035 -0.11115 148 106 0
0.746523 0.0177035 -0.11115 149 105 0
0.746523 0.0177035 -0.11115 151 103 0
0.746523 0.0177035 -0.11115 152 102 0
0.746523 0.0177035 -0.11115 153 101 0
0.746523 0.0177035 -0.11115 155 99 0
0.746523 0.0177035 -0.11115 156 98 0
0.746523 0.0177035 -0.11115 157 97 0
0.746523 0.0177035 -0.11115 158 96 0
0.746523 0.0177035 -0.11115 160 94 0
0.746523 0.0177035 -0.11115 161 93 0
0.746523 0.0177035 -0.11115 162 92 0
0.746523 0.0177035 -0.11115 164 90 0
0.746523 0.0177035 -0.11115 165 89 0
0.746523 0.0177035 -0.11115 166 88 0
0.746523 0.0177035 -0.11115 167 87 0
0.746523 0.0177035 -0.11115 169 85 0
0.746523 0.0177035 -0.11115 170 84 0
0.746523 0.0177035 -0.11115 171 83 0
0.746523 0.0177035 -0.11115 172 82 0
0.746523 0.0177035 -0.11115 174 80 0
0.746523 0.0177035 -0.11115 175 79 0
0.746523 0.0177035 -0.11115 176 78 0
0.746523 0.0177035 -0.11115 178 76 0
0.746523 0.0177035 -0.11115 179 75 0
0.746523 0.0177035 -0.11115 180 74 0
0.746523 0.0177035 -0.11115 181 73 0
0.746523 0.0177035 -0.11115 183 71 0
0.746523 0.0177035 -0.11115 184 70 0
0.746523 0.0177035 -0.11115 185 69 0
0.746523 0.0177035 -0.11115 187 67 0
0.746523 0.0177035 -0.11115 188 66 0
0.746523 0.0177035 -0.11115 189 65 0
0.746523 0.0177035 -0.11115 190 64 0
0.746523 0.0177035 -0.11115 192 62 0
0.746523 0.0177035 -0.11115 193 61 0
0.746523 0.0177035 -0.11115 194 60 0
0.746523 0.0177035 -0.11115 196 58 0
0.746523 0.0177035 -0.11115 197 57 0
0.746523 0.0177035 -0.11115 198 56 0
0.746523 0.0177035 -0.11115 199 55 0
0.746523 0.0177035 -0.11115 201 53 0
0.746523 0.0177035 -0.11115 202 52 0
0.746523 0.0177035 -0.11115 203 51 0
0.746523 0.0177035 -0.11115 205 49 0
0.746523 0.0177035 -0.11115 206 48 0
0.746523 0.0177035 -0.11115 207 47 0
0.746523 0.0177035 -0.11115 208 46 0
0.746523 0.0177035 -0.11115 210 44 0
0.746523 0.0177035 -0.11115 211 43 0
0.746523 0.0177035 -0.11115 212 42 0
0.746523 0.0177035 -0.11115 213 41 0
0.746523 0.0177035 -0.11115 215 39 0
0.746523 0.0177035 -0.11115 216 38 0
0.746523 0.0177035 -0.11115 217 37 0
0.746523 0.0177035 -0.11115 219 35 0
0.746523 0.0177035 -0.11115 220 34 0
0.746523 0.0177035 -0.11115 221 33 0
0.746523 0.0177035 -0.11115 222 32 0
0.746523 0.0177035 -0.11115 224 30 0
0.746523 0.0177035 -0.11115 225 29 0
0.746523 0.0177035 -0.11115 226 28 0
0.746523 0.0177035 -0.11115 228 26 0
0.746523 0.0177035 -0.11115 229 25 0
0.746523 0.0177035 -0.11115 230 24 0
0.746523 0.0177035 -0.11115 231 23 0
0.746523 0.0177035 -0.11115 233 21 0
0.746523 0.0177035 -0.11115 234 20 0
0.746523 0.0177035 -0.11115 235 19 0
0.746523 0.0177035 -0.11115 237 17 0
0.746523 0.0177035 -0.11115 238 16 0
0.746523 0.0177035 -0.11115 239 15 0
0.746523 0.0177035 -0.11115 240 14 0
0.746523 0.0177035 -0.11115 242 12 0
0.746523 0.0177035 -0.11115 243 11 0
0.746523 0.0177035 -0.11115 244 10 0
0.746523 0.0177035 -0.11115 246 8 0
0.746523 0.0177035 -0.11115 247 7 0
0.746523 0.0177035 -0.11115 248 6 0
0.746523 0.0177035 -0.11115 249 5 0
0.746523 0.0177035 -0.11115 251 3 0
0.746523 0.0177035 -0.11115 252 2 0
0.746523 0.0177035 -0.11115 253 1 0
0.746523 0.0177035 -0.11115 255 0 0
