ply
format ascii 1.0
comment Generated by robot_control PLYWriter
element vertex 12
property float x
property float y
property float z
property uchar red
property uchar green
property uchar blue
end_header
0.502815 0.0708352 -0.125376 0 255 0
0.503417 0.0658043 -0.125079 23 231 0
0.503735 0.0607569 -0.124628 46 208 0
0.50402 0.0557087 -0.124162 69 185 0
0.504311 0.0506624 -0.123682 92 162 0
0.504619 0.0456212 -0.123159 115 139 0
0.5048 0.0405752 -0.122636 139 115 0
0.504978 0.0355235 -0.122169 162 92 0
0.505268 0.0304695 -0.121778 185 69 0
0.50555 0.02541 -0.121457 208 46 0
0.505838 0.0203491 -0.121164 231 23 0
0.506249 0.0152893 -0.12112 255 0 0
