ply
format ascii 1.0
comment Generated by robot_control PLYWriter
element vertex 48
property float x
property float y
property float z
property uchar red
property uchar green
property uchar blue
end_header
0.711975 -0.150862 -0.126703 0 255 0
0.715366 -0.152507 -0.128392 5 249 0
0.718892 -0.155694 -0.129539 10 244 0
0.718013 -0.160112 -0.129814 16 238 0
0.715211 -0.164256 -0.12921 21 233 0
0.710008 -0.166255 -0.127628 27 227 0
0.704647 -0.165571 -0.126528 32 222 0
0.700692 -0.16205 -0.125433 37 217 0
0.698306 -0.156909 -0.124515 43 211 0
0.697322 -0.151346 -0.124171 48 206 0
0.699044 -0.145963 -0.123989 54 200 0
0.702749 -0.141226 -0.124096 59 195 0
0.707683 -0.13929 -0.124539 65 189 0
0.712784 -0.140608 -0.12501 70 184 0
0.717621 -0.143439 -0.126078 75 179 0
0.718681 -0.148967 -0.126464 81 173 0
0.71534 -0.153604 -0.126629 86 168 0
0.71013 -0.156553 -0.126448 92 162 0
0.704931 -0.153976 -0.125595 97 157 0
0.700153 -0.150409 -0.124626 103 151 0
0.698275 -0.145196 -0.123618 108 146 0
0.698267 -0.139221 -0.123073 113 141 0
0.701352 -0.134128 -0.122738 119 135 0
0.70472 -0.129368 -0.122681 124 130 0
0.710416 -0.129008 -0.122889 130 124 0
0.716085 -0.130868 -0.123322 135 119 0
0.717947 -0.135752 -0.123971 141 113 0
0.716909 -0.141487 -0.124385 146 108 0
0.712127 -0.144119 -0.124327 151 103 0
0.706777 -0.145017 -0.123802 157 97 0
0.702247 -0.141309 -0.122777 162 92 0
0.699076 -0.136268 -0.121794 168 86 0
0.698749 -0.130361 -0.120805 173 81 0
0.698932 -0.124351 -0.120153 179 75 0
0.704063 -0.121305 -0.119736 184 70 0
0.709156 -0.118655 -0.119809 189 65 0
0.714564 -0.120863 -0.120602 195 59 0
0.719253 -0.124413 -0.121641 200 54 0
0.718068 -0.130188 -0.122677 206 48 0
0.714291 -0.134292 -0.123018 211 43 0
0.708509 -0.134265 -0.122382 217 37 0
0.703162 -0.132797 -0.121372 222 32 0
0.69883 -0.128768 -0.120116 227 27 0
0.69786 -0.123785 -0.11858 233 21 0
0.697857 -0.118683 -0.117252 238 16 0
0.699633 -0.113879 -0.116356 244 10 0
0.703556 -0.110694 -0.115878 249 5 0
0.708422 -0.10809 -0.115897 255 0 0
