ply
format ascii 1.0
comment Generated by robot_control PLYWriter
element vertex 73
property float x
property float y
property float z
property uchar red
property uchar green
property uchar blue
end_header
0.692801 -0.10828 -0.0275018 0 255 0
0.697247 -0.109906 -0.0278434 3 251 0
0.701245 -0.112666 -0.0276809 7 247 0
0.704152 -0.117597 -0.0269079 10 244 0
0.705004 -0.123369 -0.0258309 14 240 0
0.704182 -0.128779 -0.0242771 17 237 0
0.701855 -0.133526 -0.0230152 21 233 0
0.697176 -0.136582 -0.0220623 24 230 0
0.692108 -0.13859 -0.0211738 28 226 0
0.68684 -0.136984 -0.0207489 31 223 0
0.681656 -0.134617 -0.0208817 35 219 0
0.678851 -0.129702 -0.0215194 38 216 0
0.680497 -0.124722 -0.0223176 42 212 0
0.682284 -0.119245 -0.023221 46 208 0
0.687466 -0.11758 -0.0239288 49 205 0
0.692913 -0.116638 -0.0244259 53 201 0
0.697872 -0.119683 -0.0245177 56 198 0
0.702982 -0.12257 -0.0243945 60 194 0
0.704877 -0.128145 -0.0240115 63 191 0
0.704709 -0.134062 -0.0233237 67 187 0
0.703905 -0.139853 -0.0226151 70 184 0
0.700399 -0.144422 -0.0215721 74 180 0
0.695176 -0.147207 -0.0208696 77 177 0
0.689529 -0.147877 -0.0203881 81 173 0
0.684039 -0.145701 -0.0201648 85 169 0
0.680796 -0.14087 -0.020277 88 166 0
0.680935 -0.134975 -0.0207202 92 162 0
0.683179 -0.129591 -0.021309 95 159 0
0.688364 -0.126982 -0.0219095 99 155 0
0.694221 -0.127248 -0.0224092 102 152 0
0.699438 -0.129725 -0.0226348 106 148 0
0.704164 -0.133342 -0.0226328 109 145 0
0.706201 -0.138799 -0.022381 113 141 0
0.706515 -0.144663 -0.0219294 116 138 0
0.704131 -0.150097 -0.0213187 120 134 0
0.70059 -0.154686 -0.0205868 123 131 0
0.695532 -0.157239 -0.0200396 127 127 0
0.689641 -0.156638 -0.0195794 131 123 0
0.684617 -0.154424 -0.0191958 134 120 0
0.681728 -0.149294 -0.019136 138 116 0
0.680709 -0.14375 -0.019349 141 113 0
0.684524 -0.139685 -0.019891 145 109 0
0.689331 -0.136584 -0.0206045 148 106 0
0.695284 -0.136562 -0.0209876 152 102 0
0.700518 -0.138368 -0.0213023 155 99 0
0.704538 -0.142769 -0.0213376 159 95 0
0.707277 -0.147835 -0.0211475 162 92 0
0.70716 -0.153764 -0.0207978 166 88 0
0.705687 -0.159494 -0.0200663 170 84 0
0.702461 -0.164412 -0.0194374 173 81 0
0.697025 -0.166247 -0.0187313 177 77 0
0.691179 -0.166824 -0.0181245 180 74 0
0.68591 -0.165214 -0.0177349 184 70 0
0.682871 -0.160212 -0.0176296 187 67 0
0.682627 -0.154277 -0.0180644 191 63 0
0.684239 -0.148954 -0.0188003 194 60 0
0.689322 -0.146281 -0.0196573 198 56 0
0.695015 -0.145061 -0.020304 201 53 0
0.700028 -0.147998 -0.020749 205 49 0
0.704932 -0.15097 -0.0209098 208 46 0
0.706778 -0.156534 -0.0208139 212 42 0
0.708169 -0.162263 -0.0204887 216 38 0
0.706357 -0.16767 -0.0197877 219 35 0
0.703018 -0.172421 -0.0187891 223 31 0
0.699196 -0.174679 -0.0176783 226 28 0
0.694168 -0.176615 -0.0167163 230 24 0
0.688504 -0.176023 -0.0157214 233 21 0
0.684888 -0.172714 -0.0153742 237 17 0
0.68209 -0.167739 -0.0156543 240 14 0
0.682558 -0.161883 -0.0163919 244 10 0
0.685677 -0.157632 -0.0175009 247 7 0
0.689935 -0.155221 -0.0184608 251 3 0
0.694857 -0.154595 -0.019514 255 0 0
