ply
format ascii 1.0
comment Generated by robot_control PLYWriter
element vertex 12
property float x
property float y
property float z
property uchar red
property uchar green
property uchar blue
end_header
0.525395 -0.255611 -0.0996677 0 255 0
0.525014 -0.259585 -0.0965005 23 231 0
0.524448 -0.263896 -0.0938383 46 208 0
0.52396 -0.26825 -0.0912228 69 185 0
0.523542 -0.272589 -0.0885699 92 162 0
0.523226 -0.277115 -0.0862444 115 139 0
0.522985 -0.281801 -0.0842489 139 115 0
0.522633 -0.286584 -0.0825145 162 92 0
0.522298 -0.291434 -0.0809696 185 69 0
0.522071 -0.296333 -0.0795642 208 46 0
0.521853 -0.301212 -0.0780932 231 23 0
0.521516 -0.306097 -0.0766667 255 0 0
