ply
format ascii 1.0
comment Generated by robot_control PLYWriter
element vertex 31
property float x
property float y
property float z
property uchar red
property uchar green
property uchar blue
end_header
0.618298 0.080309 -0.13159 0 255 0
0.623101 0.0780907 -0.130042 8 246 0
0.626336 0.0743405 -0.128127 17 238 0
0.626319 0.0684247 -0.126767 25 229 0
0.624888 0.0627152 -0.126371 34 221 0
0.620451 0.0586688 -0.126585 42 212 0
0.615288 0.0571783 -0.127329 51 204 0
0.60933 0.0574979 -0.128477 59 195 0
0.603808 0.0586934 -0.129628 68 187 0
0.599522 0.0627058 -0.131141 76 178 0
0.597111 0.0678577 -0.132596 85 169 0
0.596672 0.0737092 -0.133914 93 161 0
0.598623 0.0794054 -0.134737 102 153 0
0.601371 0.0845683 -0.135206 110 144 0
0.606524 0.0877062 -0.135251 119 135 0
0.61229 0.0896005 -0.134938 127 127 0
0.618167 0.0900766 -0.134221 136 118 0
0.622294 0.0860722 -0.133097 144 110 0
0.624523 0.0805276 -0.131991 153 101 0
0.622701 0.0750766 -0.13117 161 93 0
0.619149 0.0702041 -0.130822 170 84 0
0.614009 0.0672499 -0.131004 178 76 0
0.608121 0.0671387 -0.131749 187 67 0
0.602298 0.068481 -0.132812 195 59 0
0.597761 0.071722 -0.134671 204 50 0
0.595116 0.0767043 -0.136829 212 42 0
0.595164 0.0824441 -0.138741 221 33 0
0.595498 0.0882037 -0.14032 229 25 0
0.599203 0.0926938 -0.14183 238 16 0
0.603588 0.0967164 -0.14264 246 8 0
0.608609 0.0984431 -0.142278 255 0 0
