ply
format ascii 1.0
comment Generated by robot_control PLYWriter
element vertex 9
property float x
property float y
property float z
property uchar red
property uchar green
property uchar blue
end_header
0.543527 -0.160649 -0.110918 0 255 0
0.544104 -0.156178 -0.112562 31 223 0
0.544708 -0.151657 -0.114052 63 191 0
0.545384 -0.147126 -0.115486 95 159 0
0.545951 -0.142573 -0.11688 127 127 0
0.546387 -0.137955 -0.11808 159 95 0
0.547147 -0.133276 -0.1188 191 63 0
0.547666 -0.128508 -0.118995 223 31 0
0.548157 -0.123743 -0.119104 255 0 0
