ply
format ascii 1.0
comment Generated by robot_control PLYWriter
element vertex 130
property float x
property float y
property float z
property uchar red
property uchar green
property uchar blue
end_header
0.531778 -0.20184 -0.0926091 0 255 0
0.536573 -0.204103 -0.0922197 1 253 0
0.540131 -0.20661 -0.0921459 3 251 0
0.540637 -0.212034 -0.092603 5 249 0
0.541215 -0.216253 -0.0932611 7 247 0
0.539399 -0.220532 -0.09467 9 245 0
0.535465 -0.224308 -0.0960231 11 243 0
0.530416 -0.226631 -0.0972442 13 241 0
0.524753 -0.225713 -0.0980455 15 239 0
0.519487 -0.223522 -0.0983943 17 237 0
0.516548 -0.218352 -0.0979263 19 235 0
0.512857 -0.213758 -0.0971594 21 233 0
0.512806 -0.207944 -0.0963217 23 231 0
0.513434 -0.202222 -0.0951279 25 229 0
0.516914 -0.19758 -0.0939937 27 227 0
0.520323 -0.193068 -0.0931712 29 225 0
0.526118 -0.192476 -0.0923874 31 223 0
0.532101 -0.192603 -0.0919177 33 221 0
0.537361 -0.195299 -0.0917098 35 219 0
0.541392 -0.199598 -0.0917652 37 217 0
0.542948 -0.205205 -0.0922304 39 215 0
0.541109 -0.210177 -0.0929131 41 213 0
0.536708 -0.214099 -0.0936673 43 211 0
0.531865 -0.216135 -0.0943594 45 209 0
0.525989 -0.216104 -0.094766 47 207 0
0.520422 -0.21394 -0.0950529 49 205 0
0.515725 -0.210242 -0.095069 51 203 0
0.513105 -0.204971 -0.0948083 53 201 0
0.512844 -0.199002 -0.0944415 55 199 0
0.513624 -0.193146 -0.0936436 57 197 0
0.5159 -0.187685 -0.0928026 59 195 0
0.520945 -0.184694 -0.0921685 61 193 0
0.526142 -0.182322 -0.0915919 63 191 0
0.532112 -0.182431 -0.0911532 65 189 0
0.537563 -0.184933 -0.0910041 67 187 0
0.54193 -0.188784 -0.0909873 69 185 0
0.543004 -0.194485 -0.0911938 71 183 0
0.541855 -0.200201 -0.0917229 73 181 0
0.537921 -0.204385 -0.0923714 75 179 0
0.532305 -0.206279 -0.0927972 77 177 0
0.526315 -0.206093 -0.0931167 79 175 0
0.520706 -0.204282 -0.0932661 81 173 0
0.516602 -0.199903 -0.093273 83 171 0
0.514045 -0.194535 -0.0930583 85 169 0
0.513032 -0.188703 -0.0926302 86 168 0
0.514623 -0.183006 -0.0919274 88 166 0
0.518477 -0.17853 -0.0912594 90 164 0
0.522753 -0.174356 -0.0907701 92 162 0
0.528438 -0.172583 -0.0903277 94 160 0
0.534306 -0.173434 -0.0899943 96 158 0
0.539675 -0.17594 -0.089794 98 156 0
0.543147 -0.180723 -0.0897906 100 154 0
0.543056 -0.186716 -0.090101 102 152 0
0.541119 -0.192262 -0.0905932 104 150 0
0.537308 -0.196584 -0.0912284 106 148 0
0.531532 -0.198026 -0.0916951 108 146 0
0.525784 -0.19693 -0.0920799 110 144 0
0.520635 -0.193871 -0.0921649 112 142 0
0.51673 -0.189509 -0.0921543 114 140 0
0.514875 -0.183857 -0.0919397 116 138 0
0.514588 -0.177872 -0.0915797 118 136 0
0.515817 -0.172214 -0.0910451 120 134 0
0.519118 -0.167382 -0.0905088 122 132 0
0.524637 -0.165279 -0.0898608 124 130 0
0.530069 -0.1628 -0.0894312 126 128 0
0.535309 -0.165038 -0.0890744 128 126 0
0.540189 -0.16825 -0.088869 130 124 0
0.543595 -0.173132 -0.0888638 132 122 0
0.543248 -0.178537 -0.0890985 134 120 0
0.541356 -0.184181 -0.0894699 136 118 0
0.536512 -0.187532 -0.0900754 138 116 0
0.530677 -0.188399 -0.0906023 140 114 0
0.524861 -0.187235 -0.090999 142 112 0
0.519984 -0.183819 -0.0912234 144 110 0
0.515776 -0.179766 -0.0911898 146 108 0
0.514652 -0.173963 -0.0909691 148 106 0
0.514875 -0.167971 -0.0906501 150 104 0
0.516567 -0.162444 -0.090228 152 102 0
0.519692 -0.157347 -0.0896867 154 100 0
0.525048 -0.155167 -0.0892656 156 98 0
0.530944 -0.154547 -0.0886806 158 96 0
0.53661 -0.155683 -0.0881026 160 94 0
0.541468 -0.159174 -0.0877896 162 92 0
0.543608 -0.164538 -0.087725 164 90 0
0.543891 -0.170104 -0.0879546 166 88 0
0.540802 -0.175234 -0.0883903 168 86 0
0.536264 -0.178764 -0.088961 170 84 0
0.530287 -0.178945 -0.0894959 171 83 0
0.524349 -0.17831 -0.0899207 173 81 0
0.520455 -0.173809 -0.0901528 175 79 0
0.51607 -0.169874 -0.09025 177 77 0
0.514974 -0.164033 -0.0901847 179 75 0
0.514874 -0.158035 -0.0899505 181 73 0
0.517678 -0.153106 -0.0895407 183 71 0
0.520982 -0.148195 -0.0890192 185 69 0
0.526273 -0.145493 -0.0884363 187 67 0
0.532091 -0.144467 -0.0878388 189 65 0
0.537662 -0.146507 -0.0874391 191 63 0
0.542184 -0.150422 -0.0871425 193 61 0
0.544838 -0.155646 -0.087082 195 59 0
0.544326 -0.161557 -0.0873643 197 57 0
0.541095 -0.166217 -0.0878126 199 55 0
0.535795 -0.168685 -0.0882679 201 53 0
0.53009 -0.169816 -0.088747 203 51 0
0.525018 -0.167636 -0.0891962 205 49 0
0.520186 -0.164247 -0.0896265 207 47 0
0.517267 -0.159006 -0.0898071 209 45 0
0.515347 -0.153349 -0.0897564 211 43 0
0.515431 -0.147459 -0.0894495 213 41 0
0.518359 -0.142398 -0.0886985 215 39 0
0.521774 -0.137805 -0.0881451 217 37 0
0.527356 -0.136131 -0.0872256 219 35 0
0.5329 -0.134343 -0.0866269 221 33 0
0.538185 -0.136607 -0.0860112 223 31 0
0.54235 -0.140046 -0.0857508 225 29 0
0.544948 -0.144864 -0.0858794 227 27 0
0.54494 -0.15085 -0.0863145 229 25 0
0.542609 -0.154599 -0.0867721 231 23 0
0.53836 -0.158755 -0.0873766 233 21 0
0.532918 -0.160101 -0.0880006 235 19 0
0.526943 -0.160165 -0.088545 237 17 0
0.522118 -0.156889 -0.0890396 239 15 0
0.51959 -0.153323 -0.0894143 241 13 0
0.516849 -0.148336 -0.0896395 243 11 0
0.516539 -0.142365 -0.089675 245 9 0
0.516674 -0.136539 -0.089297 247 7 0
0.519231 -0.132041 -0.0888635 249 5 0
0.522925 -0.128955 -0.0880184 251 3 0
0.526036 -0.126852 -0.0872294 253 1 0
0.530953 -0.12656 -0.0859312 255 0 0
