ply
format ascii 1.0
comment Generated by robot_control PLYWriter
element vertex 10
property float x
property float y
property float z
property uchar red
property uchar green
property uchar blue
end_header
0.64601 -0.359161 -0.127515 0 255 0
0.646174 -0.364258 -0.128597 28 226 0
0.646241 -0.369357 -0.129679 56 198 0
0.646412 -0.374464 -0.130714 85 169 0
0.646564 -0.379608 -0.131547 113 141 0
0.646948 -0.384764 -0.132203 141 113 0
0.64731 -0.389963 -0.132336 170 84 0
0.647615 -0.395158 -0.13205 198 56 0
0.647997 -0.400314 -0.131381 226 28 0
0.648309 -0.405423 -0.130477 255 0 0
