ply
format ascii 1.0
comment Generated by robot_control PLYWriter
element vertex 103
property float x
property float y
property float z
property uchar red
property uchar green
property uchar blue
end_header
0.667472 0.0998958 -0.159446 0 255 0
0.67117 0.0975758 -0.15827 2 252 0
0.674444 0.0943666 -0.156831 5 250 0
0.676193 0.0904009 -0.155042 7 247 0
0.675374 0.0856854 -0.153007 10 245 0
0.674452 0.0805323 -0.151391 12 242 0
0.671279 0.0761535 -0.15003 15 240 0
0.666644 0.0737801 -0.149335 17 237 0
0.66199 0.0714535 -0.149321 20 235 0
0.656259 0.0719262 -0.149979 22 232 0
0.651975 0.0751082 -0.151062 25 230 0
0.65021 0.0802805 -0.152379 27 227 0
0.651255 0.0854329 -0.153995 30 225 0
0.654385 0.0896253 -0.154776 32 222 0
0.659964 0.0914427 -0.155014 35 220 0
0.664565 0.0908211 -0.15466 37 217 0
0.669993 0.0897871 -0.153953 40 215 0
0.674205 0.0860956 -0.152575 42 212 0
0.67673 0.0811595 -0.150878 45 210 0
0.676904 0.0755609 -0.149201 47 207 0
0.676611 0.0697836 -0.147633 50 205 0
0.672373 0.0658829 -0.146536 52 202 0
0.668268 0.0618493 -0.1458 55 200 0
0.662281 0.0617198 -0.145856 57 197 0
0.656327 0.0621207 -0.146338 60 195 0
0.653182 0.0667527 -0.147538 62 192 0
0.65099 0.0720678 -0.148863 65 189 0
0.653282 0.0766807 -0.149986 67 187 0
0.656331 0.0807129 -0.150828 70 185 0
0.661636 0.0829728 -0.150885 72 182 0
0.667398 0.0817178 -0.150357 75 179 0
0.672762 0.0798297 -0.149167 77 177 0
0.676012 0.0750748 -0.147957 80 175 0
0.678002 0.0695936 -0.146571 82 172 0
0.678206 0.0639656 -0.145272 85 169 0
0.675603 0.0586509 -0.14435 87 167 0
0.672294 0.0540218 -0.143456 90 165 0
0.666633 0.0529787 -0.142934 92 162 0
0.660651 0.0529327 -0.143169 95 159 0
0.655269 0.0551262 -0.143782 97 157 0
0.652624 0.0599507 -0.144912 100 155 0
0.652907 0.0658259 -0.14595 102 152 0
0.655913 0.0706522 -0.146466 105 149 0
0.660969 0.0737263 -0.146688 107 147 0
0.666924 0.0737811 -0.146518 110 145 0
0.672106 0.0708359 -0.145991 112 142 0
0.677152 0.0678199 -0.145062 115 139 0
0.678691 0.0627352 -0.143975 117 137 0
0.678536 0.0568527 -0.142837 120 135 0
0.678382 0.051292 -0.141453 122 132 0
0.674722 0.0469722 -0.140732 125 129 0
0.669511 0.0440777 -0.140206 127 127 0
0.664129 0.0419216 -0.140136 130 124 0
0.658744 0.0445289 -0.140474 132 122 0
0.65483 0.0487877 -0.141084 135 119 0
0.654148 0.0546447 -0.141908 137 117 0
0.656706 0.0599033 -0.14247 140 114 0
0.661516 0.0632342 -0.142844 142 112 0
0.667299 0.0634481 -0.142765 145 109 0
0.672856 0.0612337 -0.142391 147 107 0
0.677456 0.0578751 -0.141761 150 104 0
0.680707 0.0529199 -0.140865 152 102 0
0.680601 0.0470869 -0.139847 155 99 0
0.679496 0.0413985 -0.138989 157 97 0
0.675915 0.0366634 -0.138458 160 94 0
0.670614 0.0352263 -0.138059 162 92 0
0.66535 0.0328269 -0.137914 165 89 0
0.659782 0.0346522 -0.138098 167 87 0
0.656121 0.0391522 -0.138687 170 84 0
0.654652 0.0447516 -0.139355 172 82 0
0.656864 0.0499256 -0.140126 175 79 0
0.66162 0.0535282 -0.14039 177 77 0
0.666951 0.0554172 -0.140404 180 74 0
0.672309 0.0532775 -0.140237 182 72 0
0.677418 0.0502921 -0.13985 185 69 0
0.680668 0.045385 -0.138995 187 67 0
0.682192 0.0396603 -0.138219 190 64 0
0.680766 0.0340375 -0.137227 192 62 0
0.678131 0.0286895 -0.136627 195 59 0
0.674241 0.0244742 -0.136214 197 57 0
0.668515 0.0235048 -0.136003 200 54 0
0.663132 0.0251617 -0.136029 202 52 0
0.658423 0.02765 -0.136401 205 49 0
0.656967 0.0330432 -0.137064 207 47 0
0.657145 0.0389818 -0.137826 210 44 0
0.661362 0.0428939 -0.138242 212 42 0
0.666549 0.0453447 -0.138455 215 39 0
0.672475 0.0452322 -0.13842 217 37 0
0.677288 0.0417037 -0.138077 220 34 0
0.681843 0.0381476 -0.137545 222 32 0
0.683948 0.0328951 -0.136864 225 29 0
0.682741 0.0276949 -0.136355 227 27 0
0.681383 0.0222651 -0.135559 230 24 0
0.678111 0.0173635 -0.135013 232 22 0
0.673466 0.014272 -0.13446 235 19 0
0.667544 0.0141278 -0.134362 237 17 0
0.662309 0.0162824 -0.13454 240 14 0
0.658439 0.0202174 -0.135058 242 12 0
0.656856 0.0248916 -0.135657 245 9 0
0.658543 0.0292073 -0.136172 247 7 0
0.660654 0.0331801 -0.136693 250 4 0
0.664581 0.0352138 -0.137059 252 2 0
0.670463 0.0352274 -0.137061 255 0 0
