ply
format ascii 1.0
comment Generated by robot_control PLYWriter
element vertex 9
property float x
property float y
property float z
property uchar red
property uchar green
property uchar blue
end_header
0.606678 0.0948565 -0.115108 0 255 0
0.606953 0.0896424 -0.114515 31 223 0
0.607412 0.0843866 -0.114069 63 191 0
0.607401 0.0791211 -0.11351 95 159 0
0.607878 0.0738639 -0.113086 127 127 0
0.608362 0.0685999 -0.112769 159 95 0
0.60818 0.0633308 -0.112285 191 63 0
0.608122 0.0580589 -0.111788 223 31 0
0.60818 0.0527788 -0.111452 255 0 0
