ply
format ascii 1.0
comment Generated by robot_control PLYWriter
element vertex 53
property float x
property float y
property float z
property uchar red
property uchar green
property uchar blue
end_header
0.701423 0.14712 -0.140779 0 255 0
0.706415 0.145578 -0.142647 4 250 0
0.710401 0.141889 -0.143589 9 245 0
0.714245 0.137351 -0.143194 14 240 0
0.715995 0.132259 -0.141408 19 235 0
0.715197 0.127262 -0.139104 24 230 0
0.713786 0.121968 -0.13711 29 225 0
0.709473 0.118649 -0.135009 34 220 0
0.703703 0.117785 -0.13348 39 215 0
0.697752 0.118169 -0.132857 44 210 0
0.692632 0.120938 -0.133148 49 205 0
0.690413 0.126421 -0.134023 53 201 0
0.690597 0.132141 -0.135615 58 196 0
0.694168 0.13656 -0.137666 63 191 0
0.69772 0.140936 -0.139567 68 186 0
0.703636 0.141471 -0.140603 73 181 0
0.7096 0.140607 -0.140968 78 176 0
0.715262 0.138585 -0.140827 83 171 0
0.719728 0.134746 -0.140453 88 166 0
0.723484 0.130366 -0.138752 93 161 0
0.724302 0.124583 -0.137513 98 156 0
0.724494 0.118919 -0.135466 102 152 0
0.720283 0.115689 -0.133441 107 147 0
0.716165 0.113075 -0.131827 112 142 0
0.712729 0.108123 -0.131248 117 137 0
0.709518 0.111058 -0.130568 122 132 0
0.705056 0.110924 -0.130208 127 127 0
0.701634 0.112518 -0.130299 132 122 0
0.698892 0.117676 -0.131206 137 117 0
0.69856 0.123452 -0.132516 142 112 0
0.699792 0.128282 -0.135448 147 107 0
0.703675 0.132211 -0.137491 152 102 0
0.708717 0.134723 -0.139548 156 98 0
0.714286 0.134739 -0.140501 161 93 0
0.719973 0.133151 -0.140266 166 88 0
0.724626 0.129428 -0.139318 171 83 0
0.728829 0.125561 -0.137448 176 78 0
0.73157 0.120701 -0.135342 181 73 0
0.731051 0.115487 -0.132878 186 68 0
0.73045 0.110295 -0.129947 191 63 0
0.729028 0.106022 -0.126385 196 58 0
0.723898 0.105217 -0.12333 201 53 0
0.718521 0.10433 -0.121009 205 49 0
0.713435 0.104609 -0.120674 210 44 0
0.70858 0.106929 -0.122608 215 39 0
0.708386 0.112812 -0.124025 220 34 0
0.707098 0.115745 -0.128344 225 29 0
0.706506 0.12035 -0.131957 230 24 0
0.70995 0.123331 -0.135611 235 19 0
0.71383 0.125788 -0.138913 240 14 0
0.717093 0.129006 -0.141287 245 9 0
0.722244 0.130022 -0.143091 250 4 0
0.725268 0.127961 -0.14348 255 0 0
