ply
format ascii 1.0
comment Generated by robot_control PLYWriter
element vertex 81
property float x
property float y
property float z
property uchar red
property uchar green
property uchar blue
end_header
0.630163 0.0770563 -0.109793 0 255 0
0.634329 0.0743565 -0.109812 3 251 0
0.636623 0.0702681 -0.109645 6 248 0
0.638049 0.0647021 -0.109322 9 245 0
0.638127 0.0587219 -0.108836 12 242 0
0.637746 0.0528745 -0.108213 15 239 0
0.633975 0.0483275 -0.107331 19 235 0
0.629305 0.0446904 -0.106425 22 232 0
0.623641 0.0437787 -0.105478 25 229 0
0.617983 0.0445213 -0.104716 28 226 0
0.612987 0.0469744 -0.104334 31 223 0
0.610044 0.0520956 -0.104392 35 219 0
0.609038 0.0576942 -0.104751 38 216 0
0.611922 0.0627531 -0.105457 41 213 0
0.615995 0.0669504 -0.106211 44 210 0
0.621156 0.0694741 -0.106996 47 207 0
0.626614 0.0682372 -0.10755 51 204 0
0.631992 0.0658124 -0.107984 54 200 0
0.635723 0.0612667 -0.108211 57 197 0
0.638147 0.0559833 -0.108194 60 194 0
0.638196 0.0499894 -0.107926 63 191 0
0.638703 0.0440197 -0.107615 66 188 0
0.635636 0.039138 -0.107064 70 184 0
0.630788 0.035721 -0.106418 73 181 0
0.625628 0.0335199 -0.10565 76 178 0
0.619741 0.0343077 -0.105031 79 175 0
0.614252 0.0366745 -0.104539 82 172 0
0.610854 0.0410813 -0.104286 86 168 0
0.609403 0.0465473 -0.10434 89 165 0
0.611774 0.0520456 -0.104654 92 162 0
0.61586 0.0561908 -0.10522 95 159 0
0.621421 0.0583682 -0.105723 98 156 0
0.627006 0.0585117 -0.106307 102 153 0
0.631935 0.0552065 -0.10689 105 149 0
0.635809 0.0506758 -0.107253 108 146 0
0.638178 0.0452226 -0.107433 111 143 0
0.638298 0.0393431 -0.107462 114 140 0
0.638197 0.0333586 -0.107292 117 137 0
0.634146 0.0289523 -0.106886 121 133 0
0.63009 0.0246384 -0.106468 124 130 0
0.624453 0.0230928 -0.105749 127 127 0
0.618492 0.023383 -0.105181 130 124 0
0.614724 0.0272979 -0.10462 133 121 0
0.610701 0.0317105 -0.104311 137 117 0
0.609755 0.0372488 -0.104234 140 114 0
0.612011 0.0427918 -0.104374 143 111 0
0.616929 0.0460127 -0.104853 146 108 0
0.622507 0.0481457 -0.105351 149 105 0
0.627804 0.0473719 -0.10613 153 101 0
0.632578 0.0437817 -0.106686 156 98 0
0.636835 0.0399682 -0.1073 159 95 0
0.638566 0.0342363 -0.107623 162 92 0
0.640123 0.0287339 -0.107791 165 89 0
0.637521 0.0233589 -0.107736 168 86 0
0.634448 0.0184095 -0.107494 172 82 0
0.629738 0.0147399 -0.107108 175 79 0
0.624062 0.0136414 -0.106408 178 76 0
0.618482 0.0147125 -0.105687 181 73 0
0.613186 0.0174331 -0.105096 184 70 0
0.610649 0.0224468 -0.104484 188 66 0
0.610584 0.028435 -0.104207 191 63 0
0.612909 0.0335848 -0.104307 194 60 0
0.617596 0.0370825 -0.104795 197 57 0
0.623345 0.0384159 -0.105455 200 54 0
0.628717 0.0373215 -0.106286 204 50 0
0.633827 0.0344761 -0.107053 207 47 0
0.636898 0.0294598 -0.108014 210 44 0
0.639042 0.0239182 -0.108535 213 41 0
0.639023 0.0187438 -0.108862 216 38 0
0.638022 0.0130144 -0.108889 219 35 0
0.635038 0.00781842 -0.108583 223 31 0
0.63007 0.00451107 -0.107967 226 28 0
0.624553 0.00414777 -0.107143 229 25 0
0.618692 0.00377531 -0.105931 232 22 0
0.61465 0.00664363 -0.10496 235 19 0
0.610892 0.0109213 -0.104312 239 15 0
0.610686 0.0166444 -0.103907 242 12 0
0.612273 0.0220244 -0.103975 245 9 0
0.614621 0.025747 -0.104187 248 6 0
0.619719 0.0276212 -0.104792 251 3 0
0.625142 0.0278975 -0.105704 255 0 0
