ply
format ascii 1.0
comment Generated by robot_control PLYWriter
element vertex 10
property float x
property float y
property float z
property uchar red
property uchar green
property uchar blue
end_header
0.642648 -0.0771573 -0.035883 0 255 0
0.642711 -0.0820278 -0.0368163 28 226 0
0.642818 -0.0869237 -0.0376 56 198 0
0.643137 -0.0918243 -0.0382937 85 169 0
0.643466 -0.0967292 -0.0389511 113 141 0
0.643782 -0.101651 -0.0394791 141 113 0
0.644103 -0.106582 -0.0398966 170 84 0
0.644424 -0.111517 -0.040277 198 56 0
0.644522 -0.116441 -0.0408616 226 28 0
0.644604 -0.121368 -0.0414244 255 0 0
