ply
format ascii 1.0
comment Generated by robot_control PLYWriter
element vertex 13
property float x
property float y
property float z
property uchar red
property uchar green
property uchar blue
end_header
0.679678 -0.296424 -0.0220818 0 255 0
0.67992 -0.301591 -0.0219462 21 233 0
0.680571 -0.306712 -0.0215818 42 212 0
0.681081 -0.311858 -0.0213859 63 191 0
0.68159 -0.317005 -0.0211858 85 169 0
0.681873 -0.322167 -0.020964 106 148 0
0.682272 -0.32732 -0.0206869 127 127 0
0.682706 -0.332469 -0.0203949 148 106 0
0.683193 -0.337615 -0.020132 170 84 0
0.683618 -0.342769 -0.0199312 191 63 0
0.683838 -0.347937 -0.0197799 212 42 0
0.684106 -0.353105 -0.0197113 233 21 0
0.684547 -0.358258 -0.0195377 255 0 0
