ply
format ascii 1.0
comment Generated by robot_control PLYWriter
element vertex 32
property float x
property float y
property float z
property uchar red
property uchar green
property uchar blue
end_header
0.59213 0.0590937 -0.137389 0 255 0
0.597108 0.0578466 -0.135782 8 246 0
0.60004 0.053517 -0.13403 16 238 0
0.600679 0.0477218 -0.132809 24 230 0
0.598772 0.0425253 -0.131739 32 222 0
0.59394 0.0392166 -0.131538 41 213 0
0.588619 0.0376898 -0.131798 49 205 0
0.582727 0.0372673 -0.132767 57 197 0
0.577477 0.0388099 -0.133806 65 189 0
0.573231 0.0426969 -0.135307 74 180 0
0.570299 0.0476837 -0.13678 82 172 0
0.570882 0.0533105 -0.138164 90 164 0
0.571652 0.0588376 -0.139407 98 156 0
0.575362 0.063495 -0.14011 106 148 0
0.579512 0.0674712 -0.140557 115 139 0
0.585399 0.0683449 -0.140694 123 131 0
0.591374 0.0681126 -0.140346 131 123 0
0.596772 0.0658439 -0.139555 139 115 0
0.599424 0.0607837 -0.137983 148 106 0
0.598316 0.0555505 -0.1366 156 98 0
0.595713 0.0505584 -0.135809 164 90 0
0.590573 0.0476919 -0.135299 172 82 0
0.584872 0.0461376 -0.135461 180 74 0
0.579109 0.0474901 -0.136287 189 65 0
0.573808 0.0493463 -0.13805 197 57 0
0.570633 0.0539387 -0.140017 205 49 0
0.568515 0.0589796 -0.142428 213 41 0
0.570441 0.0640588 -0.144266 222 32 0
0.57102 0.0688875 -0.14682 230 24 0
0.574343 0.0732101 -0.149063 238 16 0
0.578454 0.076044 -0.150539 246 8 0
0.583213 0.0774504 -0.150836 255 0 0
