ply
format ascii 1.0
comment Generated by robot_control PLYWriter
element vertex 112
property float x
property float y
property float z
property uchar red
property uchar green
property uchar blue
end_header
0.630324 0.0725472 -0.124349 0 255 0
0.635036 0.0709416 -0.122958 2 252 0
0.638928 0.0673229 -0.121722 4 250 0
0.640586 0.0629526 -0.119879 6 248 0
0.641228 0.0580922 -0.118721 9 245 0
0.638781 0.0530708 -0.117963 11 243 0
0.634993 0.0494825 -0.117798 13 241 0
0.629789 0.0469427 -0.118487 16 238 0
0.624059 0.0472555 -0.120165 18 236 0
0.619609 0.0508395 -0.121771 20 234 0
0.61473 0.0532773 -0.123325 22 232 0
0.612178 0.0584652 -0.124883 25 229 0
0.612338 0.0639918 -0.126291 27 227 0
0.613483 0.0697823 -0.127096 29 225 0
0.616026 0.0751241 -0.127416 32 222 0
0.620565 0.0790168 -0.127319 34 220 0
0.625819 0.0815325 -0.127011 36 218 0
0.631703 0.0812212 -0.126073 39 215 0
0.637147 0.0789231 -0.124984 41 213 0
0.640086 0.0743205 -0.123501 43 211 0
0.640726 0.0686542 -0.122431 45 209 0
0.638842 0.0633497 -0.121456 48 206 0
0.635591 0.0590186 -0.121346 50 204 0
0.630002 0.0573338 -0.121803 52 202 0
0.624087 0.0577161 -0.122829 55 199 0
0.618666 0.0598033 -0.124012 57 197 0
0.614154 0.0631377 -0.125354 59 195 0
0.611774 0.0685376 -0.12651 62 192 0
0.610639 0.0742151 -0.12758 64 190 0
0.613032 0.0794745 -0.128532 66 188 0
0.61604 0.0846278 -0.129169 68 186 0
0.620157 0.0887488 -0.129331 71 183 0
0.625859 0.0902129 -0.129087 73 181 0
0.631802 0.0896991 -0.128345 75 179 0
0.637498 0.0882328 -0.127422 78 176 0
0.640957 0.0836765 -0.126517 80 174 0
0.640959 0.0777966 -0.125496 82 172 0
0.639369 0.0721394 -0.125014 85 169 0
0.634537 0.0687934 -0.124954 87 167 0
0.628917 0.0666933 -0.125276 89 165 0
0.62329 0.0678645 -0.125975 91 163 0
0.618032 0.0706812 -0.126739 94 160 0
0.613988 0.0748431 -0.128088 96 158 0
0.611441 0.0801511 -0.129194 98 156 0
0.610786 0.0859509 -0.13011 101 153 0
0.613996 0.0907575 -0.130718 103 151 0
0.617886 0.0953279 -0.131134 105 149 0
0.622165 0.0988723 -0.131175 107 147 0
0.628098 0.0990466 -0.130925 110 144 0
0.633589 0.0981468 -0.130299 112 142 0
0.638512 0.094897 -0.129459 114 140 0
0.641226 0.0898195 -0.128739 117 137 0
0.639066 0.0845085 -0.128117 119 135 0
0.635495 0.0796953 -0.127881 121 133 0
0.63065 0.0762487 -0.128056 124 130 0
0.624857 0.0754774 -0.128503 126 128 0
0.619157 0.077028 -0.129195 128 126 0
0.615056 0.0811916 -0.130061 130 124 0
0.611559 0.0858098 -0.131107 133 121 0
0.610885 0.091721 -0.131919 135 119 0
0.611944 0.0975639 -0.132873 137 117 0
0.614366 0.102627 -0.133448 140 114 0
0.619105 0.106322 -0.133712 142 112 0
0.624345 0.108982 -0.133717 144 110 0
0.63026 0.109586 -0.133305 147 107 0
0.635698 0.107155 -0.132725 149 105 0
0.639765 0.102918 -0.13183 151 103 0
0.640442 0.0972495 -0.130908 153 101 0
0.638692 0.0917353 -0.130393 156 98 0
0.634481 0.0874521 -0.130145 158 96 0
0.629204 0.0856691 -0.130245 160 94 0
0.623446 0.0848928 -0.130869 163 91 0
0.618606 0.0879643 -0.131659 165 89 0
0.614697 0.0924516 -0.132532 167 87 0
0.61253 0.0977197 -0.133789 170 84 0
0.611815 0.103609 -0.134678 172 82 0
0.613685 0.109158 -0.135648 174 80 0
0.61766 0.113484 -0.13625 176 78 0
0.622417 0.117161 -0.136412 179 75 0
0.628007 0.118925 -0.136184 181 73 0
0.633957 0.118297 -0.135565 183 71 0
0.637649 0.114201 -0.134649 186 68 0
0.640401 0.10905 -0.133853 188 66 0
0.639591 0.103338 -0.132935 190 64 0
0.636393 0.0983201 -0.132221 192 62 0
0.631685 0.0950683 -0.132147 195 59 0
0.625715 0.0952958 -0.132598 197 57 0
0.620008 0.0959211 -0.133531 199 55 0
0.61514 0.0992126 -0.134756 202 52 0
0.611519 0.103854 -0.135833 204 50 0
0.610097 0.109444 -0.137127 206 48 0
0.612829 0.114319 -0.138387 209 45 0
0.614577 0.119983 -0.139357 211 43 0
0.618035 0.124594 -0.139956 213 41 0
0.623605 0.126825 -0.139914 215 39 0
0.629511 0.127838 -0.139593 218 36 0
0.634698 0.125982 -0.138628 220 34 0
0.638677 0.121833 -0.137499 222 32 0
0.640118 0.116613 -0.1358 225 29 0
0.638566 0.111214 -0.134582 227 27 0
0.635145 0.106374 -0.134046 229 25 0
0.630274 0.103926 -0.133981 232 22 0
0.624373 0.104154 -0.134469 234 20 0
0.619503 0.104812 -0.13541 236 18 0
0.615812 0.107999 -0.136693 238 16 0
0.612721 0.111973 -0.138529 241 13 0
0.610252 0.116676 -0.13998 243 11 0
0.61035 0.122351 -0.141852 245 9 0
0.612854 0.126895 -0.143506 248 6 0
0.615384 0.131452 -0.144522 250 4 0
0.61985 0.133991 -0.144825 252 2 0
0.62474 0.136757 -0.144839 255 0 0
