ply
format ascii 1.0
comment Generated by robot_control PLYWriter
element vertex 113
property float x
property float y
property float z
property uchar red
property uchar green
property uchar blue
end_header
0.728158 0.0735858 -0.122958 0 255 0
0.732745 0.0711989 -0.122608 2 252 0
0.736033 0.067855 -0.121912 4 250 0
0.736917 0.062619 -0.120538 6 248 0
0.736673 0.0572934 -0.118678 9 245 0
0.732769 0.0529707 -0.117749 11 243 0
0.728121 0.0497738 -0.116883 13 241 0
0.722332 0.0500841 -0.11654 15 239 0
0.716835 0.0518914 -0.116714 18 236 0
0.712692 0.05595 -0.117233 20 234 0
0.708446 0.0599746 -0.118308 22 232 0
0.707383 0.0656163 -0.119332 25 229 0
0.707919 0.070727 -0.120906 27 227 0
0.709694 0.0761875 -0.122013 29 225 0
0.712968 0.0809351 -0.123454 31 223 0
0.718223 0.0831586 -0.124221 34 220 0
0.724178 0.0832046 -0.124781 36 218 0
0.729916 0.082282 -0.12473 38 216 0
0.734447 0.0785204 -0.124058 40 214 0
0.736421 0.0730546 -0.1231 43 211 0
0.736171 0.0673707 -0.122006 45 209 0
0.732258 0.0632858 -0.120708 47 207 0
0.726941 0.060809 -0.120046 50 204 0
0.721058 0.0599101 -0.119789 52 202 0
0.715921 0.0615284 -0.119957 54 200 0
0.711476 0.0652351 -0.120527 56 198 0
0.708228 0.0700606 -0.121503 59 195 0
0.706173 0.0753462 -0.122463 61 193 0
0.706503 0.0812068 -0.123667 63 191 0
0.70913 0.0862617 -0.124587 66 188 0
0.713213 0.0903464 -0.125809 68 186 0
0.718493 0.0930965 -0.126506 70 184 0
0.724268 0.0941427 -0.126942 72 182 0
0.728925 0.0905419 -0.126875 75 179 0
0.7336 0.0870383 -0.12632 77 177 0
0.734857 0.081451 -0.125503 79 175 0
0.734411 0.07555 -0.124569 81 173 0
0.731053 0.0712691 -0.12379 84 170 0
0.725514 0.0691805 -0.123246 86 168 0
0.719541 0.0689053 -0.123052 88 166 0
0.714583 0.0712732 -0.123192 91 163 0
0.710402 0.0755315 -0.123679 93 161 0
0.706257 0.0797073 -0.124484 95 159 0
0.704959 0.0854349 -0.125407 97 157 0
0.705682 0.0912775 -0.126322 100 154 0
0.708071 0.0966101 -0.127226 102 152 0
0.712729 0.0999835 -0.128109 104 150 0
0.718065 0.102466 -0.128823 107 147 0
0.723537 0.101946 -0.129229 109 145 0
0.729067 0.0996571 -0.129196 111 143 0
0.733231 0.0958267 -0.128796 113 141 0
0.734481 0.0900303 -0.128144 116 138 0
0.733318 0.0845976 -0.127259 118 136 0
0.728698 0.0809919 -0.126673 120 134 0
0.723401 0.0782439 -0.126163 122 132 0
0.717736 0.0796906 -0.126002 125 129 0
0.712162 0.0818127 -0.126184 127 127 0
0.7076 0.0854693 -0.126551 129 125 0
0.705143 0.0908553 -0.127177 132 122 0
0.70474 0.096707 -0.128338 134 120 0
0.705572 0.102537 -0.129286 136 118 0
0.709078 0.10652 -0.130189 138 116 0
0.714297 0.109266 -0.131228 141 113 0
0.718404 0.113519 -0.131797 143 111 0
0.724246 0.112234 -0.132048 145 109 0
0.729355 0.109488 -0.131977 147 107 0
0.73271 0.104554 -0.13155 150 104 0
0.733904 0.0988946 -0.130876 152 102 0
0.73176 0.0933626 -0.1301 154 100 0
0.727626 0.0894669 -0.129179 157 97 0
0.721817 0.0884089 -0.128587 159 95 0
0.71638 0.0885962 -0.128358 161 93 0
0.710977 0.0911648 -0.128488 163 91 0
0.707425 0.0953938 -0.129013 166 88 0
0.704424 0.100537 -0.129668 168 86 0
0.704494 0.106322 -0.130807 170 84 0
0.705468 0.111967 -0.13197 173 81 0
0.709239 0.11635 -0.132965 175 79 0
0.713954 0.11986 -0.13404 177 77 0
0.719376 0.1219 -0.134554 179 75 0
0.725033 0.120408 -0.134928 182 72 0
0.729677 0.117427 -0.134864 184 70 0
0.73238 0.112484 -0.134215 186 68 0
0.732739 0.106894 -0.133095 188 66 0
0.729522 0.10194 -0.132181 191 63 0
0.725674 0.0979136 -0.131133 193 61 0
0.719716 0.097671 -0.130627 195 59 0
0.714094 0.0993228 -0.130332 198 56 0
0.708629 0.101756 -0.130606 200 54 0
0.705115 0.10602 -0.131213 202 52 0
0.702848 0.111205 -0.132424 204 50 0
0.703267 0.117044 -0.133713 207 47 0
0.70503 0.122658 -0.134753 209 45 0
0.708635 0.127157 -0.136334 211 43 0
0.713837 0.129771 -0.137509 214 40 0
0.719448 0.130908 -0.138335 216 38 0
0.725051 0.129684 -0.138581 218 36 0
0.72917 0.126403 -0.13823 220 34 0
0.731639 0.121563 -0.137493 223 31 0
0.732131 0.116494 -0.136275 225 29 0
0.729101 0.111801 -0.134924 227 27 0
0.725044 0.107617 -0.133544 229 25 0
0.719281 0.107031 -0.132696 232 22 0
0.713939 0.107476 -0.132171 234 20 0
0.709381 0.110337 -0.13229 236 18 0
0.70456 0.113589 -0.133036 239 15 0
0.703306 0.119041 -0.134124 241 13 0
0.702781 0.124783 -0.135432 243 11 0
0.702339 0.129937 -0.137306 245 9 0
0.704201 0.13315 -0.138414 248 6 0
0.706902 0.136948 -0.139659 250 4 0
0.711319 0.13913 -0.140592 252 2 0
0.716468 0.1391 -0.141572 255 0 0
