ply
format ascii 1.0
comment Generated by robot_control PLYWriter
element vertex 39
property float x
property float y
property float z
property uchar red
property uchar green
property uchar blue
end_header
0.746813 0.147577 -0.145769 0 255 0
0.750816 0.14522 -0.144461 6 248 0
0.752133 0.140436 -0.142605 13 241 0
0.75167 0.135337 -0.141047 20 234 0
0.748429 0.131091 -0.139997 26 228 0
0.742909 0.129226 -0.139719 33 221 0
0.73731 0.130224 -0.139975 40 214 0
0.73206 0.131919 -0.140879 46 208 0
0.728644 0.136774 -0.142007 53 201 0
0.726869 0.141918 -0.143833 60 194 0
0.727571 0.147675 -0.14529 67 187 0
0.730722 0.152639 -0.146444 73 181 0
0.735683 0.155774 -0.147051 80 174 0
0.741495 0.15493 -0.147144 87 167 0
0.746029 0.151193 -0.146574 93 161 0
0.746834 0.145453 -0.145182 100 154 0
0.745848 0.140038 -0.144118 107 147 0
0.740459 0.137524 -0.14363 114 140 0
0.734447 0.137348 -0.143578 120 134 0
0.728411 0.137369 -0.143965 127 127 0
0.72453 0.141808 -0.144926 134 120 0
0.721572 0.146939 -0.14612 140 114 0
0.720876 0.152602 -0.147368 147 107 0
0.723931 0.157446 -0.148804 154 100 0
0.727903 0.161593 -0.149728 161 93 0
0.733635 0.161491 -0.150303 167 87 0
0.739277 0.160839 -0.150091 174 80 0
0.74271 0.156231 -0.149052 181 73 0
0.742466 0.15053 -0.147602 187 67 0
0.739058 0.145777 -0.146288 194 60 0
0.733482 0.143634 -0.145518 201 53 0
0.727556 0.143105 -0.145361 208 46 0
0.722454 0.145517 -0.14588 214 40 0
0.718458 0.149512 -0.147188 221 33 0
0.716194 0.154508 -0.14957 228 26 0
0.716739 0.160046 -0.151777 234 20 0
0.718448 0.164459 -0.154054 241 13 0
0.722632 0.167435 -0.15557 248 6 0
0.726748 0.169946 -0.155647 255 0 0
