ply
format ascii 1.0
comment Generated by robot_control PLYWriter
element vertex 40
property float x
property float y
property float z
property uchar red
property uchar green
property uchar blue
end_header
0.718317 0.0653191 -0.126652 0 255 0
0.722238 0.0642863 -0.128452 6 248 0
0.727306 0.0630073 -0.129931 13 241 0
0.727855 0.0575631 -0.131179 19 235 0
0.727994 0.0538084 -0.130928 26 228 0
0.726684 0.0489537 -0.129339 32 222 0
0.721432 0.0465126 -0.127935 39 215 0
0.71572 0.0455767 -0.126663 45 209 0
0.710256 0.0472559 -0.125659 52 202 0
0.705533 0.0509923 -0.125297 58 196 0
0.702259 0.0557444 -0.125476 65 189 0
0.702695 0.0614511 -0.126075 71 183 0
0.704818 0.0662997 -0.126703 78 176 0
0.708794 0.0708307 -0.127259 85 169 0
0.714814 0.0710143 -0.127491 91 163 0
0.720271 0.0695378 -0.127395 98 156 0
0.722225 0.064264 -0.126955 104 150 0
0.722079 0.0582837 -0.126428 111 143 0
0.717614 0.0547105 -0.126352 117 137 0
0.712251 0.0521912 -0.12648 124 130 0
0.706379 0.0523011 -0.126849 130 124 0
0.701593 0.0554094 -0.127139 137 117 0
0.697142 0.0591652 -0.127625 143 111 0
0.696753 0.0648262 -0.128285 150 104 0
0.697462 0.0702776 -0.128945 156 98 0
0.701035 0.0751463 -0.129468 163 91 0
0.705802 0.0779113 -0.129492 170 84 0
0.711824 0.078232 -0.128878 176 78 0
0.716096 0.0743622 -0.128035 183 71 0
0.716967 0.0688143 -0.127289 189 65 0
0.714992 0.0634881 -0.126611 196 58 0
0.710637 0.0593611 -0.126449 202 52 0
0.704826 0.0584975 -0.127019 209 45 0
0.699396 0.0602274 -0.127955 215 39 0
0.694478 0.0630667 -0.129384 222 32 0
0.691378 0.068091 -0.130541 228 26 0
0.690585 0.0737857 -0.131832 235 19 0
0.692911 0.078415 -0.132864 241 13 0
0.69582 0.0828377 -0.133496 248 6 0
0.700809 0.0842498 -0.133967 255 0 0
