ply
format ascii 1.0
comment Generated by robot_control PLYWriter
element vertex 32
property float x
property float y
property float z
property uchar red
property uchar green
property uchar blue
end_header
0.681872 0.0529692 -0.154062 0 255 0
0.686567 0.0507942 -0.153688 8 246 0
0.689773 0.0464143 -0.152631 16 238 0
0.692481 0.0418868 -0.150483 24 230 0
0.691226 0.0365536 -0.14873 32 222 0
0.688249 0.0314435 -0.147776 41 213 0
0.682611 0.029972 -0.147151 49 205 0
0.676587 0.0299485 -0.146862 57 197 0
0.671029 0.0313 -0.14701 65 189 0
0.667276 0.0357074 -0.147551 74 180 0
0.664901 0.0410815 -0.148876 82 172 0
0.66359 0.0467016 -0.150198 90 164 0
0.665573 0.0521741 -0.151522 98 156 0
0.669723 0.0562796 -0.153021 106 148 0
0.674102 0.0602319 -0.154089 115 139 0
0.679664 0.0615681 -0.154838 123 131 0
0.685608 0.0607072 -0.155206 131 123 0
0.690882 0.0583581 -0.155205 139 115 0
0.693941 0.0531938 -0.154783 148 106 0
0.694663 0.0476358 -0.153923 156 98 0
0.693218 0.0422713 -0.152569 164 90 0
0.688796 0.0384895 -0.151381 172 82 0
0.683151 0.0377016 -0.149941 180 74 0
0.677306 0.0384498 -0.149392 189 65 0
0.672972 0.0422009 -0.149262 197 57 0
0.669718 0.0472634 -0.149677 205 49 0
0.666898 0.0523992 -0.150691 213 41 0
0.668289 0.057938 -0.152102 222 32 0
0.670186 0.0630543 -0.153965 230 24 0
0.674026 0.0672632 -0.15595 238 16 0
0.678398 0.069196 -0.158553 246 8 0
0.681808 0.0714189 -0.160281 255 0 0
