ply
format ascii 1.0
comment Generated by robot_control PLYWriter
element vertex 33
property float x
property float y
property float z
property uchar red
property uchar green
property uchar blue
end_header
0.762181 0.130976 -0.139476 0 255 0
0.766251 0.129403 -0.13817 7 247 0
0.76948 0.125285 -0.136775 15 239 0
0.770469 0.119822 -0.135244 23 231 0
0.769479 0.114564 -0.1339 31 223 0
0.768166 0.109214 -0.132863 39 215 0
0.763142 0.10613 -0.132245 47 207 0
0.757908 0.103367 -0.131872 55 199 0
0.752069 0.103021 -0.131929 63 191 0
0.746651 0.105099 -0.132315 71 183 0
0.741642 0.108125 -0.133019 79 175 0
0.737493 0.112238 -0.133872 87 167 0
0.735298 0.117552 -0.135106 95 159 0
0.73478 0.123393 -0.135979 103 151 0
0.73901 0.127339 -0.136677 111 143 0
0.742643 0.131115 -0.137248 119 135 0
0.748578 0.13109 -0.137313 127 127 0
0.75448 0.131015 -0.136924 135 119 0
0.757559 0.126002 -0.136132 143 111 0
0.759641 0.120596 -0.135292 151 103 0
0.758671 0.115156 -0.134429 159 95 0
0.755967 0.109936 -0.133595 167 87 0
0.751204 0.106512 -0.132841 175 79 0
0.745909 0.103994 -0.132453 183 71 0
0.740069 0.103309 -0.132467 191 63 0
0.734547 0.105275 -0.132887 199 55 0
0.729821 0.108525 -0.133642 207 47 0
0.726386 0.113089 -0.134921 215 39 0
0.7244 0.118576 -0.135782 223 31 0
0.725182 0.123445 -0.137219 231 23 0
0.727636 0.128406 -0.138153 239 15 0
0.732343 0.131046 -0.139094 247 7 0
0.736222 0.133213 -0.139509 255 0 0
