ply
format ascii 1.0
comment Generated by robot_control PLYWriter
element vertex 13
property float x
property float y
property float z
property uchar red
property uchar green
property uchar blue
end_header
0.620342 -0.224083 -0.132809 0 255 0
0.625134 -0.226716 -0.133 21 233 0
0.626575 -0.232468 -0.133444 42 212 0
0.625828 -0.238357 -0.134143 63 191 0
0.622211 -0.242851 -0.135117 85 169 0
0.617574 -0.246343 -0.136437 106 148 0
0.611851 -0.246343 -0.137351 127 127 0
0.606841 -0.242994 -0.137899 148 106 0
0.603435 -0.238365 -0.138183 170 84 0
0.603576 -0.232307 -0.138055 191 63 0
0.606506 -0.227121 -0.137491 212 42 0
0.610176 -0.222434 -0.136463 233 21 0
0.615115 -0.222927 -0.134858 255 0 0
