ply
format ascii 1.0
comment Generated by robot_control PLYWriter
element vertex 200
property float x
property float y
property float z
property uchar red
property uchar green
property uchar blue
end_header
0.504504 0.03412 -0.112104 0 255 0
0.504504 0.03412 -0.112104 1 253 0
0.504504 0.03412 -0.112104 2 252 0
0.504504 0.03412 -0.112104 3 251 0
0.504504 0.03412 -0.112104 5 249 0
0.504504 0.03412 -0.112104 6 248 0
0.504504 0.03412 -0.112104 7 247 0
0.504504 0.03412 -0.112104 8 246 0
0.504504 0.03412 -0.112104 10 244 0
0.504504 0.03412 -0.112104 11 243 0
0.504504 0.03412 -0.112104 12 242 0
0.504504 0.03412 -0.112104 14 240 0
0.504504 0.03412 -0.112104 15 239 0
0.504504 0.03412 -0.112104 16 238 0
0.504504 0.03412 -0.112104 17 237 0
0.504504 0.03412 -0.112104 19 235 0
0.504504 0.03412 -0.112104 20 234 0
0.504504 0.03412 -0.112104 21 233 0
0.504504 0.03412 -0.112104 23 231 0
0.504504 0.03412 -0.112104 24 230 0
0.504504 0.03412 -0.112104 25 229 0
0.504504 0.03412 -0.112104 26 228 0
0.504504 0.03412 -0.112104 28 226 0
0.504504 0.03412 -0.112104 29 225 0
0.504504 0.03412 -0.112104 30 224 0
0.504504 0.03412 -0.112104 32 222 0
0.504504 0.03412 -0.112104 33 221 0
0.504504 0.03412 -0.112104 34 220 0
0.504504 0.03412 -0.112104 35 219 0
0.504504 0.03412 -0.112104 37 217 0
0.504504 0.03412 -0.112104 38 216 0
0.504504 0.03412 -0.112104 39 215 0
0.504504 0.03412 -0.112104 41 213 0
0.504504 0.03412 -0.112104 42 212 0
0.504504 0.03412 -0.112104 43 211 0
0.504504 0.03412 -0.112104 44 210 0
0.504504 0.03412 -0.112104 46 208 0
0.504504 0.03412 -0.112104 47 207 0
0.504504 0.03412 -0.112104 48 206 0
0.504504 0.03412 -0.112104 49 205 0
0.504504 0.03412 -0.112104 51 203 0
0.504504 0.03412 -0.112104 52 202 0
0.504504 0.03412 -0.112104 53 201 0
0.504504 0.03412 -0.112104 55 199 0
0.504504 0.03412 -0.112104 56 198 0
0.504504 0.03412 -0.112104 57 197 0
0.504504 0.03412 -0.112104 58 196 0
0.504504 0.03412 -0.112104 60 194 0
0.504504 0.03412 -0.112104 61 193 0
0.504504 0.03412 -0.112104 62 192 0
0.504504 0.03412 -0.112104 64 190 0
0.504504 0.03412 -0.112104 65 189 0
0.504504 0.03412 -0.112104 66 188 0
0.504504 0.03412 -0.112104 67 187 0
0.504504 0.03412 -0.112104 69 185 0
0.504504 0.03412 -0.112104 70 184 0
0.504504 0.03412 -0.112104 71 183 0
0.504504 0.03412 -0.112104 73 181 0
0.504504 0.03412 -0.112104 74 180 0
0.504504 0.03412 -0.112104 75 179 0
0.504504 0.03412 -0.112104 76 178 0
0.504504 0.03412 -0.112104 78 176 0
0.504504 0.03412 -0.112104 79 175 0
0.504504 0.03412 -0.112104 80 174 0
0.504504 0.03412 -0.112104 82 172 0
0.504504 0.03412 -0.112104 83 171 0
0.504504 0.03412 -0.112104 84 170 0
0.504504 0.03412 -0.112104 85 169 0
0.504504 0.03412 -0.112104 87 167 0
0.504504 0.03412 -0.112104 88 166 0
0.504504 0.03412 -0.112104 89 165 0
0.504504 0.03412 -0.112104 90 164 0
0.504504 0.03412 -0.112104 92 162 0
0.504504 0.03412 -0.112104 93 161 0
0.504504 0.03412 -0.112104 94 160 0
0.504504 0.03412 -0.112104 96 158 0
0.504504 0.03412 -0.112104 97 157 0
0.504504 0.03412 -0.112104 98 156 0
0.504504 0.03412 -0.112104 99 155 0
0.504504 0.03412 -0.112104 101 153 0
0.504504 0.03412 -0.112104 102 152 0
0.504504 0.03412 -0.112104 103 151 0
0.504504 0.03412 -0.112104 105 149 0
0.504504 0.03412 -0.112104 106 148 0
0.504504 0.03412 -0.112104 107 147 0
0.504504 0.03412 -0.112104 108 146 0
0.504504 0.03412 -0.112104 110 144 0
0.504504 0.03412 -0.112104 111 143 0
0.504504 0.03412 -0.112104 112 142 0
0.504504 0.03412 -0.112104 114 140 0
0.504504 0.03412 -0.112104 115 139 0
0.504504 0.03412 -0.112104 116 138 0
0.504504 0.03412 -0.112104 117 137 0
0.504504 0.03412 -0.112104 119 135 0
0.504504 0.03412 -0.112104 120 134 0
0.504504 0.03412 -0.112104 121 133 0
0.504504 0.03412 -0.112104 123 131 0
0.504504 0.03412 -0.112104 124 130 0
0.504504 0.03412 -0.112104 125 129 0
0.504504 0.03412 -0.112104 126 128 0
0.504504 0.03412 -0.112104 128 126 0
0.504504 0.03412 -0.112104 129 125 0
0.504504 0.03412 -0.112104 130 124 0
0.504504 0.03412 -0.112104 131 123 0
0.504504 0.03412 -0.112104 133 121 0
0.504504 0.03412 -0.112104 134 120 0
0.504504 0.03412 -0.112104 135 119 0
0.504504 0.03412 -0.112104 137 117 0
0.504504 0.03412 -0.112104 138 116 0
0.504504 0.03412 -0.112104 139 115 0
0.504504 0.03412 -0.112104 140 114 0
0.504504 0.03412 -0.112104 142 112 0
0.504504 0.03412 -0.112104 143 111 0
0.504504 0.03412 -0.112104 144 110 0
0.504504 0.03412 -0.112104 146 108 0
0.504504 0.03412 -0.112104 147 107 0
0.504504 0.03412 -0.112104 148 106 0
0.504504 0.03412 -0.112104 149 105 0
0.504504 0.03412 -0.112104 151 103 0
0.504504 0.03412 -0.112104 152 102 0
0.504504 0.03412 -0.112104 153 101 0
0.504504 0.03412 -0.112104 155 99 0
0.504504 0.03412 -0.112104 156 98 0
0.504504 0.03412 -0.112104 157 97 0
0.504504 0.03412 -0.112104 158 96 0
0.504504 0.03412 -0.112104 160 94 0
0.504504 0.03412 -0.112104 161 93 0
0.504504 0.03412 -0.112104 162 92 0
0.504504 0.03412 -0.112104 164 90 0
0.504504 0.03412 -0.112104 165 89 0
0.504504 0.03412 -0.112104 166 88 0
0.504504 0.03412 -0.112104 167 87 0
0.504504 0.03412 -0.112104 169 85 0
0.504504 0.03412 -0.112104 170 84 0
0.504504 0.03412 -0.112104 171 83 0
0.504504 0.03412 -0.112104 172 82 0
0.504504 0.03412 -0.112104 174 80 0
0.504504 0.03412 -0.112104 175 79 0
0.504504 0.03412 -0.112104 176 78 0
0.504504 0.03412 -0.112104 178 76 0
0.504504 0.03412 -0.112104 179 75 0
0.504504 0.03412 -0.112104 180 74 0
0.504504 0.03412 -0.112104 181 73 0
0.504504 0.03412 -0.112104 183 71 0
0.504504 0.03412 -0.112104 184 70 0
0.504504 0.03412 -0.112104 185 69 0
0.504504 0.03412 -0.112104 187 67 0
0.504504 0.03412 -0.112104 188 66 0
0.504504 0.03412 -0.112104 189 65 0
0.504504 0.03412 -0.112104 190 64 0
0.504504 0.03412 -0.112104 192 62 0
0.504504 0.03412 -0.112104 193 61 0
0.504504 0.03412 -0.112104 194 60 0
0.504504 0.03412 -0.112104 196 58 0
0.504504 0.03412 -0.112104 197 57 0
0.504504 0.03412 -0.112104 198 56 0
0.504504 0.03412 -0.112104 199 55 0
0.504504 0.03412 -0.112104 201 53 0
0.504504 0.03412 -0.112104 202 52 0
0.504504 0.03412 -0.112104 203 51 0
0.504504 0.03412 -0.112104 205 49 0
0.504504 0.03412 -0.112104 206 48 0
0.504504 0.03412 -0.112104 207 47 0
0.504504 0.03412 -0.112104 208 46 0
0.504504 0.03412 -0.112104 210 44 0
0.504504 0.03412 -0.112104 211 43 0
0.504504 0.03412 -0.112104 212 42 0
0.504504 0.03412 -0.112104 213 41 0
0.504504 0.03412 -0.112104 215 39 0
0.504504 0.03412 -0.112104 216 38 0
0.504504 0.03412 -0.112104 217 37 0
0.504504 0.03412 -0.112104 219 35 0
0.504504 0.03412 -0.112104 220 34 0
0.504504 0.03412 -0.112104 221 33 0
0.504504 0.03412 -0.112104 222 32 0
0.504504 0.03412 -0.112104 224 30 0
0.504504 0.03412 -0.112104 225 29 0
0.504504 0.03412 -0.112104 226 28 0
0.504504 0.03412 -0.112104 228 26 0
0.504504 0.03412 -0.112104 229 25 0
0.504504 0.03412 -0.112104 230 24 0
0.504504 0.03412 -0.112104 231 23 0
0.504504 0.03412 -0.112104 233 21 0
0.504504 0.03412 -0.112104 234 20 0
0.504504 0.03412 -0.112104 235 19 0
0.504504 0.03412 -0.112104 237 17 0
0.504504 0.03412 -0.112104 238 16 0
0.504504 0.03412 -0.112104 239 15 0
0.504504 0.03412 -0.112104 240 14 0
0.504504 0.03412 -0.112104 242 12 0
0.504504 0.03412 -0.112104 243 11 0
0.504504 0.03412 -0.112104 244 10 0
0.504504 0.03412 -0.112104 246 8 0
0.504504 0.03412 -0.112104 247 7 0
0.504504 0.03412 -0.112104 248 6 0
0.504504 0.03412 -0.112104 249 5 0
0.504504 0.03412 -0.112104 251 3 0
0.504504 0.03412 -0.112104 252 2 0
0.504504 0.03412 -0.112104 253 1 0
0.504504 0.03412 -0.112104 255 0 0
