ply
format ascii 1.0
comment Generated by robot_control PLYWriter
element vertex 65
property float x
property float y
property float z
property uchar red
property uchar green
property uchar blue
end_header
0.50041 -0.0886641 -0.0829298 0 255 0
0.505496 -0.0906193 -0.0823415 3 251 0
0.509962 -0.0940201 -0.0822947 7 247 0
0.511145 -0.0995637 -0.0826493 11 243 0
0.51119 -0.105515 -0.083281 15 239 0
0.50875 -0.110249 -0.0840225 19 235 0
0.504957 -0.114003 -0.0846679 23 231 0
0.499209 -0.114936 -0.0852102 27 227 0
0.49429 -0.112567 -0.0855996 31 223 0
0.489535 -0.109645 -0.0857523 35 219 0
0.486621 -0.104792 -0.085594 39 215 0
0.486673 -0.0988135 -0.085223 43 211 0
0.487673 -0.0930697 -0.0847202 47 207 0
0.491067 -0.0882314 -0.0841437 51 203 0
0.496095 -0.0851887 -0.0835033 55 199 0
0.501217 -0.0824858 -0.082718 59 195 0
0.507173 -0.0825484 -0.0820708 63 191 0
0.512977 -0.0836156 -0.081595 67 187 0
0.516982 -0.0876964 -0.0813349 71 183 0
0.520575 -0.0923571 -0.0813007 75 179 0
0.520695 -0.0983341 -0.0815699 79 175 0
0.519027 -0.103972 -0.0820894 83 171 0
0.514458 -0.107678 -0.0827473 87 167 0
0.508796 -0.108719 -0.0833098 91 163 0
0.50291 -0.108472 -0.0836215 95 159 0
0.499045 -0.103942 -0.0837392 99 155 0
0.495924 -0.098844 -0.0836398 103 151 0
0.495005 -0.0931938 -0.0833243 107 147 0
0.496871 -0.0875433 -0.0828939 111 143 0
0.500183 -0.0825951 -0.0823808 115 139 0
0.504612 -0.0785971 -0.0818833 119 135 0
0.510244 -0.0766626 -0.0814098 123 131 0
0.516123 -0.0768566 -0.0807735 127 127 0
0.521827 -0.0785624 -0.0803848 131 123 0
0.526563 -0.0820307 -0.0801009 135 119 0
0.529807 -0.0870129 -0.0800685 139 115 0
0.5308 -0.0927891 -0.080257 143 111 0
0.528414 -0.0982022 -0.0805641 147 107 0
0.524273 -0.101937 -0.0809645 151 103 0
0.51853 -0.103614 -0.0812497 155 99 0
0.512869 -0.102706 -0.0815088 159 95 0
0.508192 -0.0995197 -0.0816588 163 91 0
0.505828 -0.0940157 -0.0817273 167 87 0
0.505128 -0.0881495 -0.0816814 171 83 0
0.505285 -0.0822479 -0.0815275 175 79 0
0.509034 -0.0775931 -0.0812369 179 75 0
0.512906 -0.073106 -0.0808309 183 71 0
0.518375 -0.0717287 -0.0804892 187 67 0
0.524354 -0.0717005 -0.0801197 191 63 0
0.530202 -0.0724125 -0.0798781 195 59 0
0.535157 -0.0755495 -0.0797409 199 55 0
0.538471 -0.0804774 -0.079596 203 51 0
0.53881 -0.0864409 -0.0794966 207 47 0
0.537024 -0.0916871 -0.0794643 211 43 0
0.534052 -0.0967097 -0.0796856 215 39 0
0.528315 -0.0979915 -0.0799711 219 35 0
0.522713 -0.0967527 -0.080153 223 31 0
0.517201 -0.09522 -0.0803173 227 27 0
0.514855 -0.0898086 -0.080391 231 23 0
0.513111 -0.08417 -0.0804205 235 19 0
0.514248 -0.0785333 -0.0804055 239 15 0
0.516908 -0.0738816 -0.0804997 243 11 0
0.519983 -0.0693197 -0.0807422 247 7 0
0.524718 -0.0664135 -0.0810356 251 3 0
0.530627 -0.0663908 -0.0810695 255 0 0
