ply
format ascii 1.0
comment Generated by robot_control PLYWriter
element vertex 8
property float x
property float y
property float z
property uchar red
property uchar green
property uchar blue
end_header
0.67916 -0.0272851 -0.103161 0 255 0
0.679376 -0.0225546 -0.103824 36 218 0
0.679918 -0.0178614 -0.104607 72 182 0
0.680489 -0.0131908 -0.105495 109 145 0
0.680928 -0.00853267 -0.106517 145 109 0
0.681535 -0.00388574 -0.107504 182 72 0
0.682103 0.000752495 -0.108553 218 36 0
0.683155 0.00529706 -0.109578 255 0 0
