ply
format ascii 1.0
comment Generated by robot_control PLYWriter
element vertex 29
property float x
property float y
property float z
property uchar red
property uchar green
property uchar blue
end_header
0.584432 0.13196 -0.152294 0 255 0
0.589094 0.130242 -0.149612 9 245 0
0.592708 0.126492 -0.147075 18 236 0
0.595118 0.12185 -0.144616 27 227 0
0.596845 0.116739 -0.142728 36 218 0
0.59505 0.11127 -0.141612 45 209 0
0.590371 0.10763 -0.141108 54 200 0
0.585232 0.105007 -0.141531 63 191 0
0.579738 0.105741 -0.142651 72 182 0
0.57611 0.110138 -0.14417 81 173 0
0.575755 0.115539 -0.145228 91 163 0
0.578467 0.120765 -0.146055 100 154 0
0.583022 0.124549 -0.146253 109 145 0
0.588076 0.127027 -0.146034 118 136 0
0.593997 0.127269 -0.145368 127 127 0
0.599585 0.126207 -0.144098 136 118 0
0.603892 0.122389 -0.142786 145 109 0
0.606492 0.117275 -0.141216 154 100 0
0.608393 0.111749 -0.139956 163 91 0
0.605209 0.10704 -0.138719 173 81 0
0.601988 0.102063 -0.138054 182 72 0
0.596577 0.100371 -0.137954 191 63 0
0.591834 0.10215 -0.13843 200 54 0
0.587908 0.106471 -0.139671 209 45 0
0.58664 0.111748 -0.14145 218 36 0
0.589514 0.116732 -0.142502 227 27 0
0.592355 0.121403 -0.143276 236 18 0
0.59758 0.122627 -0.143689 245 9 0
0.602805 0.123943 -0.143322 255 0 0
