ply
format ascii 1.0
comment Generated by robot_control PLYWriter
element vertex 47
property float x
property float y
property float z
property uchar red
property uchar green
property uchar blue
end_header
0.624704 -0.0081344 -0.104791 0 255 0
0.628262 -0.0111037 -0.103869 5 249 0
0.631064 -0.015762 -0.103787 11 243 0
0.630576 -0.0214696 -0.104017 16 238 0
0.628421 -0.026516 -0.104307 22 232 0
0.62422 -0.0307392 -0.104644 27 227 0
0.61892 -0.0323129 -0.105054 33 221 0
0.613485 -0.0310973 -0.105538 38 216 0
0.609394 -0.0267668 -0.105866 44 210 0
0.60973 -0.0210639 -0.105922 49 205 0
0.613138 -0.0168373 -0.105713 55 199 0
0.619042 -0.0163342 -0.105402 60 194 0
0.624989 -0.0164755 -0.104997 66 188 0
0.627994 -0.0215742 -0.104576 72 182 0
0.630591 -0.0265064 -0.10439 77 177 0
0.630554 -0.0324647 -0.104346 83 171 0
0.627008 -0.0370574 -0.104461 88 166 0
0.622228 -0.0405385 -0.104626 94 160 0
0.616894 -0.042624 -0.104853 99 155 0
0.61185 -0.0396243 -0.10502 105 149 0
0.609173 -0.0346396 -0.105239 110 144 0
0.610654 -0.0295106 -0.10527 116 138 0
0.615476 -0.0260071 -0.105133 121 133 0
0.620704 -0.0267189 -0.104874 127 127 0
0.625985 -0.0292589 -0.104597 133 121 0
0.628165 -0.0347157 -0.104357 138 116 0
0.630246 -0.0398722 -0.104157 144 110 0
0.628415 -0.0454812 -0.104061 149 105 0
0.625005 -0.0499317 -0.104115 155 99 0
0.619687 -0.0524166 -0.104311 160 94 0
0.613918 -0.0513003 -0.104533 166 88 0
0.609975 -0.0471787 -0.104773 171 83 0
0.609138 -0.0414972 -0.104987 177 77 0
0.612078 -0.0365418 -0.104994 182 72 0
0.617708 -0.035093 -0.104721 188 66 0
0.622443 -0.0377811 -0.104272 194 60 0
0.627168 -0.0412927 -0.104003 199 55 0
0.628813 -0.0466803 -0.103732 205 49 0
0.628288 -0.0520525 -0.103622 210 44 0
0.625983 -0.057342 -0.103628 216 38 0
0.621502 -0.0611434 -0.103872 221 33 0
0.615819 -0.061946 -0.104345 227 27 0
0.610621 -0.0601882 -0.104942 232 22 0
0.609191 -0.0548792 -0.105304 238 16 0
0.609192 -0.0489471 -0.105285 243 11 0
0.612965 -0.0457799 -0.105035 249 5 0
0.618638 -0.0459011 -0.104623 255 0 0
