ply
format ascii 1.0
comment Generated by robot_control PLYWriter
element vertex 97
property float x
property float y
property float z
property uchar red
property uchar green
property uchar blue
end_header
0.593692 0.0521816 -0.159617 0 255 0
0.598472 0.0500974 -0.159036 2 252 0
0.602169 0.0463358 -0.15779 5 249 0
0.604576 0.0414276 -0.156541 7 247 0
0.604687 0.0357844 -0.154693 10 244 0
0.603793 0.0302122 -0.153109 13 241 0
0.601713 0.0255675 -0.151434 15 239 0
0.597642 0.0214482 -0.149958 18 236 0
0.592043 0.0206912 -0.14938 21 233 0
0.58635 0.0195944 -0.149285 23 231 0
0.58109 0.0213461 -0.150107 26 228 0
0.576377 0.02446 -0.151443 29 225 0
0.57462 0.0299333 -0.152709 31 223 0
0.575837 0.0354941 -0.153915 34 220 0
0.579375 0.040064 -0.154882 37 217 0
0.584663 0.0424579 -0.155388 39 215 0
0.590648 0.0424602 -0.155284 42 212 0
0.59636 0.0410969 -0.154633 45 209 0
0.600493 0.0369542 -0.153805 47 207 0
0.60295 0.0316785 -0.152392 50 204 0
0.605369 0.0264397 -0.150784 53 201 0
0.603957 0.02089 -0.149456 55 199 0
0.600844 0.0160416 -0.148031 58 196 0
0.597267 0.0113824 -0.147162 61 193 0
0.591971 0.00896312 -0.146606 63 191 0
0.585999 0.00919532 -0.146505 66 188 0
0.580621 0.0115447 -0.146902 69 185 0
0.576948 0.0159127 -0.148067 71 183 0
0.574984 0.0212614 -0.149194 74 180 0
0.577497 0.0265944 -0.150251 77 177 0
0.580665 0.0315993 -0.151008 79 175 0
0.586322 0.0331595 -0.151284 82 172 0
0.592194 0.032188 -0.151088 85 169 0
0.597715 0.03006 -0.150327 87 167 0
0.601902 0.0260119 -0.149222 90 164 0
0.604346 0.0207413 -0.147984 92 162 0
0.604814 0.014904 -0.146761 95 159 0
0.603879 0.00956657 -0.145826 98 156 0
0.600324 0.0048458 -0.14502 100 154 0
0.59671 0.000173281 -0.144339 103 151 0
0.591366 -0.00142793 -0.14384 106 148 0
0.5854 -0.000997401 -0.143745 108 146 0
0.580164 0.00179462 -0.144149 111 143 0
0.575826 0.00529601 -0.144935 114 140 0
0.574871 0.0110089 -0.146019 116 138 0
0.577136 0.0164515 -0.146863 119 135 0
0.581141 0.0207692 -0.147248 122 132 0
0.586492 0.0226127 -0.147299 124 130 0
0.592457 0.0221883 -0.146975 127 127 0
0.597704 0.0197146 -0.146273 130 124 0
0.601405 0.0150892 -0.145414 132 122 0
0.604286 0.00994811 -0.144527 135 119 0
0.605243 0.00422498 -0.143774 138 116 0
0.603328 -0.00125861 -0.143113 140 114 0
0.599406 -0.00569204 -0.142611 143 111 0
0.595181 -0.00992175 -0.142235 146 108 0
0.589257 -0.0106025 -0.142086 148 106 0
0.583279 -0.0104377 -0.142341 151 103 0
0.578991 -0.00695896 -0.142872 154 100 0
0.574934 -0.00260223 -0.143479 156 98 0
0.575597 0.0032187 -0.14408 159 95 0
0.577886 0.00871165 -0.144379 162 92 0
0.582644 0.0120094 -0.144337 164 90 0
0.588443 0.0129809 -0.143993 167 87 0
0.594128 0.0112864 -0.143493 170 84 0
0.599412 0.00864229 -0.142818 172 82 0
0.603392 0.00436162 -0.142239 175 79 0
0.6052 -0.0012134 -0.141689 177 77 0
0.605167 -0.00717971 -0.141159 180 74 0
0.603247 -0.0125435 -0.140745 183 71 0
0.599414 -0.0171107 -0.140623 185 69 0
0.594524 -0.0205307 -0.14074 188 66 0
0.588899 -0.0223752 -0.141119 191 63 0
0.583396 -0.0206412 -0.141778 193 61 0
0.578726 -0.0171293 -0.142366 196 58 0
0.575009 -0.0128971 -0.142823 199 55 0
0.574894 -0.0069375 -0.143115 201 53 0
0.577657 -0.00212718 -0.14313 204 50 0
0.582667 0.000849829 -0.142822 207 47 0
0.588341 0.00137299 -0.142183 209 45 0
0.594217 0.000956406 -0.14137 212 42 0
0.599351 -0.00179462 -0.140788 215 39 0
0.602662 -0.00630615 -0.140105 217 37 0
0.604654 -0.0117395 -0.139597 220 34 0
0.605171 -0.0175587 -0.139017 223 31 0
0.602625 -0.0226529 -0.138696 225 29 0
0.599571 -0.0272949 -0.138545 228 26 0
0.594821 -0.0303511 -0.138733 231 23 0
0.589488 -0.0319931 -0.139168 233 21 0
0.583576 -0.0317728 -0.140006 236 18 0
0.579337 -0.0282877 -0.14121 239 15 0
0.576172 -0.0242643 -0.142542 241 13 0
0.574862 -0.0188819 -0.143342 244 10 0
0.576533 -0.0136898 -0.143538 247 7 0
0.580577 -0.0107394 -0.142972 249 5 0
0.584822 -0.00794405 -0.142101 252 2 0
0.590067 -0.0081021 -0.141003 255 0 0
