ply
format ascii 1.0
comment Generated by robot_control PLYWriter
element vertex 17
property float x
property float y
property float z
property uchar red
property uchar green
property uchar blue
end_header
0.498604 -0.232929 -0.13285 0 255 0
0.49878 -0.22822 -0.131726 15 239 0
0.498798 -0.223515 -0.130577 31 223 0
0.498774 -0.218798 -0.129478 47 207 0
0.498744 -0.214078 -0.128387 63 191 0
0.498711 -0.209357 -0.127304 79 175 0
0.498672 -0.204626 -0.126267 95 159 0
0.498631 -0.199875 -0.125322 111 143 0
0.498562 -0.195106 -0.124479 127 127 0
0.498469 -0.190328 -0.123688 143 111 0
0.498422 -0.185547 -0.122912 159 95 0
0.498411 -0.18076 -0.122171 175 79 0
0.498416 -0.17597 -0.121455 191 63 0
0.498511 -0.171178 -0.120749 207 47 0
0.498595 -0.166382 -0.120078 223 31 0
0.49868 -0.161583 -0.119422 239 15 0
0.498809 -0.156826 -0.118519 255 0 0
