ply
format ascii 1.0
comment Generated by robot_control PLYWriter
element vertex 8
property float x
property float y
property float z
property uchar red
property uchar green
property uchar blue
end_header
0.594877 -0.174503 -0.122693 0 255 0
0.594667 -0.169785 -0.123323 36 218 0
0.594208 -0.165062 -0.123798 72 182 0
0.593764 -0.160323 -0.124113 109 145 0
0.593311 -0.155576 -0.124251 145 109 0
0.593232 -0.150814 -0.124438 182 72 0
0.593246 -0.146051 -0.124699 218 36 0
0.59328 -0.141294 -0.125048 255 0 0
