ply
format ascii 1.0
comment Generated by robot_control PLYWriter
element vertex 114
property float x
property float y
property float z
property uchar red
property uchar green
property uchar blue
end_header
0.682243 -0.0246194 -0.0865998 0 255 0
0.686527 -0.0261821 -0.087169 2 252 0
0.688799 -0.0306724 -0.0874389 4 250 0
0.691046 -0.0344722 -0.087438 6 248 0
0.690621 -0.0403416 -0.0872602 9 245 0
0.687962 -0.0451967 -0.0870828 11 243 0
0.682989 -0.047948 -0.0868211 13 241 0
0.677014 -0.048023 -0.0864843 15 239 0
0.671037 -0.048017 -0.086171 18 236 0
0.666246 -0.0445783 -0.0859013 20 234 0
0.662995 -0.0396725 -0.0858084 22 232 0
0.661155 -0.0342281 -0.0858274 24 230 0
0.6612 -0.0282444 -0.0859695 27 227 0
0.662708 -0.0225569 -0.0862674 29 225 0
0.666192 -0.0177126 -0.0866586 31 223 0
0.671365 -0.0148731 -0.0869867 33 221 0
0.676844 -0.0125645 -0.0873159 36 218 0
0.681978 -0.0150866 -0.0875748 38 216 0
0.687087 -0.0174446 -0.0876913 40 214 0
0.690405 -0.0223436 -0.0876059 42 212 0
0.690071 -0.0278903 -0.0873289 45 209 0
0.687826 -0.0331757 -0.0868849 47 207 0
0.682885 -0.0364083 -0.0865302 49 205 0
0.677489 -0.0388571 -0.0862901 51 203 0
0.671508 -0.0388653 -0.0860946 54 200 0
0.666342 -0.0362487 -0.0861362 56 198 0
0.663223 -0.0311647 -0.086332 58 196 0
0.661203 -0.0258942 -0.0866067 60 194 0
0.66068 -0.0199417 -0.086856 63 191 0
0.661159 -0.0140505 -0.0872017 65 189 0
0.664261 -0.00903815 -0.0875534 67 187 0
0.66892 -0.00534402 -0.0879219 69 185 0
0.674574 -0.00420408 -0.0883246 72 182 0
0.680334 -0.00514232 -0.0884022 74 180 0
0.685523 -0.00810771 -0.0882543 76 178 0
0.688527 -0.013016 -0.0879542 78 176 0
0.688706 -0.0189709 -0.0876911 81 173 0
0.685549 -0.0236558 -0.0873579 83 171 0
0.681337 -0.0278978 -0.0870401 85 169 0
0.67563 -0.0286358 -0.0869612 88 166 0
0.6699 -0.0280243 -0.0870157 90 164 0
0.665471 -0.0240494 -0.0871969 92 162 0
0.661697 -0.0198163 -0.0874608 94 160 0
0.65927 -0.0143539 -0.0877311 97 157 0
0.659851 -0.00884404 -0.0879766 99 155 0
0.661322 -0.00308369 -0.0882484 101 153 0
0.664518 0.0015748 -0.0886554 103 151 0
0.668845 0.00559794 -0.0889859 106 148 0
0.674824 0.00536195 -0.0891638 108 146 0
0.680656 0.00457497 -0.0891169 110 144 0
0.685915 0.00178453 -0.0888625 112 142 0
0.687882 -0.00371235 -0.0885739 115 139 0
0.687638 -0.00961202 -0.0882197 117 137 0
0.684273 -0.0142867 -0.088033 119 135 0
0.680199 -0.0184065 -0.0880916 121 133 0
0.674217 -0.0185946 -0.0881931 124 130 0
0.668392 -0.0177653 -0.0884793 126 128 0
0.664355 -0.0136747 -0.0887584 128 126 0
0.66055 -0.00908412 -0.0889928 130 124 0
0.658537 -0.00392386 -0.0892631 133 121 0
0.658678 0.00205534 -0.0895148 135 119 0
0.660059 0.00783959 -0.0897397 137 117 0
0.664249 0.0118231 -0.0899574 139 115 0
0.668937 0.0153737 -0.0900863 142 112 0
0.674772 0.0163962 -0.0900698 144 110 0
0.680374 0.0144944 -0.089899 146 108 0
0.685124 0.0110677 -0.0893728 148 106 0
0.687465 0.00558017 -0.0889396 151 103 0
0.686782 3.10872e-05 -0.0887296 153 101 0
0.682922 -0.00444393 -0.0887564 155 99 0
0.67802 -0.00761184 -0.0890687 157 97 0
0.672278 -0.00886388 -0.0895114 160 94 0
0.666941 -0.00659389 -0.0900733 162 92 0
0.661569 -0.00401328 -0.0905403 164 90 0
0.658572 0.00114592 -0.0910262 166 88 0
0.656472 0.00668819 -0.0914937 169 85 0
0.657334 0.0124819 -0.0919594 171 83 0
0.659884 0.0178858 -0.0922525 173 81 0
0.663466 0.0225656 -0.0923162 176 78 0
0.668724 0.0251633 -0.0921162 178 76 0
0.673982 0.0269567 -0.0916582 180 74 0
0.679469 0.0246573 -0.0910147 182 72 0
0.684393 0.0213481 -0.0904848 185 69 0
0.686474 0.0160616 -0.0896026 187 67 0
0.685904 0.0102087 -0.0890954 189 65 0
0.68259 0.0053699 -0.0890756 191 63 0
0.678225 0.00147727 -0.0893854 194 60 0
0.672283 0.00148754 -0.0900964 196 58 0
0.666803 0.0034736 -0.0908409 198 56 0
0.66171 0.00641715 -0.0918435 200 54 0
0.65875 0.0112704 -0.0931381 203 51 0
0.656049 0.0164261 -0.093972 205 49 0
0.656875 0.0222422 -0.0950149 207 47 0
0.65849 0.0279066 -0.0956832 209 45 0
0.662193 0.0324064 -0.095934 212 42 0
0.667311 0.035471 -0.0956676 214 40 0
0.672846 0.0366781 -0.0950037 216 38 0
0.678233 0.0351899 -0.0938031 218 36 0
0.682589 0.0324207 -0.0923464 221 33 0
0.685125 0.0273202 -0.0910573 223 31 0
0.684928 0.0214645 -0.0899279 225 29 0
0.682573 0.016753 -0.0894257 227 27 0
0.678798 0.0131694 -0.0894948 230 24 0
0.673347 0.0115525 -0.0901422 232 22 0
0.667472 0.0118957 -0.0911663 234 20 0
0.66303 0.0152401 -0.0927903 236 18 0
0.659193 0.0186761 -0.094346 239 15 0
0.656866 0.0234172 -0.0957946 241 13 0
0.655056 0.0284372 -0.097291 243 11 0
0.656292 0.0327263 -0.0981448 245 9 0
0.657406 0.0381307 -0.098566 248 6 0
0.6607 0.0419293 -0.0986531 250 4 0
0.66528 0.0452076 -0.0986218 252 2 0
0.670559 0.0468753 -0.0983652 255 0 0
