ply
format ascii 1.0
comment Generated by robot_control PLYWriter
element vertex 12
property float x
property float y
property float z
property uchar red
property uchar green
property uchar blue
end_header
0.582566 -0.147701 -0.130805 0 255 0
0.582573 -0.142677 -0.129863 23 231 0
0.582062 -0.137659 -0.129048 46 208 0
0.581727 -0.132632 -0.128184 69 185 0
0.581386 -0.127598 -0.127364 92 162 0
0.581038 -0.122556 -0.126596 115 139 0
0.580692 -0.117516 -0.125814 139 115 0
0.580341 -0.112484 -0.124984 162 92 0
0.58016 -0.107461 -0.124069 185 69 0
0.580171 -0.102444 -0.123092 208 46 0
0.580176 -0.0974241 -0.122124 231 23 0
0.58018 -0.0924224 -0.121068 255 0 0
