ply
format ascii 1.0
comment Generated by robot_control PLYWriter
element vertex 200
property float x
property float y
property float z
property uchar red
property uchar green
property uchar blue
end_header
0.648636 -0.0245562 -0.119622 0 255 0
0.648636 -0.0245562 -0.119622 1 253 0
0.648636 -0.0245562 -0.119622 2 252 0
0.648636 -0.0245562 -0.119622 3 251 0
0.648636 -0.0245562 -0.119622 5 249 0
0.648636 -0.0245562 -0.119622 6 248 0
0.648636 -0.0245562 -0.119622 7 247 0
0.648636 -0.0245562 -0.119622 8 246 0
0.648636 -0.0245562 -0.119622 10 244 0
0.648636 -0.0245562 -0.119622 11 243 0
0.648636 -0.0245562 -0.119622 12 242 0
0.648636 -0.0245562 -0.119622 14 240 0
0.648636 -0.0245562 -0.119622 15 239 0
0.648636 -0.0245562 -0.119622 16 238 0
0.648636 -0.0245562 -0.119622 17 237 0
0.648636 -0.0245562 -0.119622 19 235 0
0.648636 -0.0245562 -0.119622 20 234 0
0.648636 -0.0245562 -0.119622 21 233 0
0.648636 -0.0245562 -0.119622 23 231 0
0.648636 -0.0245562 -0.119622 24 230 0
0.648636 -0.0245562 -0.119622 25 229 0
0.648636 -0.0245562 -0.119622 26 228 0
0.648636 -0.0245562 -0.119622 28 226 0
0.648636 -0.0245562 -0.119622 29 225 0
0.648636 -0.0245562 -0.119622 30 224 0
0.648636 -0.0245562 -0.119622 32 222 0
0.648636 -0.0245562 -0.119622 33 221 0
0.648636 -0.0245562 -0.119622 34 220 0
0.648636 -0.0245562 -0.119622 35 219 0
0.648636 -0.0245562 -0.119622 37 217 0
0.648636 -0.0245562 -0.119622 38 216 0
0.648636 -0.0245562 -0.119622 39 215 0
0.648636 -0.0245562 -0.119622 41 213 0
0.648636 -0.0245562 -0.119622 42 212 0
0.648636 -0.0245562 -0.119622 43 211 0
0.648636 -0.0245562 -0.119622 44 210 0
0.648636 -0.0245562 -0.119622 46 208 0
0.648636 -0.0245562 -0.119622 47 207 0
0.648636 -0.0245562 -0.119622 48 206 0
0.648636 -0.0245562 -0.119622 49 205 0
0.648636 -0.0245562 -0.119622 51 203 0
0.648636 -0.0245562 -0.119622 52 202 0
0.648636 -0.0245562 -0.119622 53 201 0
0.648636 -0.0245562 -0.119622 55 199 0
0.648636 -0.0245562 -0.119622 56 198 0
0.648636 -0.0245562 -0.119622 57 197 0
0.648636 -0.0245562 -0.119622 58 196 0
0.648636 -0.0245562 -0.119622 60 194 0
0.648636 -0.0245562 -0.119622 61 193 0
0.648636 -0.0245562 -0.119622 62 192 0
0.648636 -0.0245562 -0.119622 64 190 0
0.648636 -0.0245562 -0.119622 65 189 0
0.648636 -0.0245562 -0.119622 66 188 0
0.648636 -0.0245562 -0.119622 67 187 0
0.648636 -0.0245562 -0.119622 69 185 0
0.648636 -0.0245562 -0.119622 70 184 0
0.648636 -0.0245562 -0.119622 71 183 0
0.648636 -0.0245562 -0.119622 73 181 0
0.648636 -0.0245562 -0.119622 74 180 0
0.648636 -0.0245562 -0.119622 75 179 0
0.648636 -0.0245562 -0.119622 76 178 0
0.648636 -0.0245562 -0.119622 78 176 0
0.648636 -0.0245562 -0.119622 79 175 0
0.648636 -0.0245562 -0.119622 80 174 0
0.648636 -0.0245562 -0.119622 82 172 0
0.648636 -0.0245562 -0.119622 83 171 0
0.648636 -0.0245562 -0.119622 84 170 0
0.648636 -0.0245562 -0.119622 85 169 0
0.648636 -0.0245562 -0.119622 87 167 0
0.648636 -0.0245562 -0.119622 88 166 0
0.648636 -0.0245562 -0.119622 89 165 0
0.648636 -0.0245562 -0.119622 90 164 0
0.648636 -0.0245562 -0.119622 92 162 0
0.648636 -0.0245562 -0.119622 93 161 0
0.648636 -0.0245562 -0.119622 94 160 0
0.648636 -0.0245562 -0.119622 96 158 0
0.648636 -0.0245562 -0.119622 97 157 0
0.648636 -0.0245562 -0.119622 98 156 0
0.648636 -0.0245562 -0.119622 99 155 0
0.648636 -0.0245562 -0.119622 101 153 0
0.648636 -0.0245562 -0.119622 102 152 0
0.648636 -0.0245562 -0.119622 103 151 0
0.648636 -0.0245562 -0.119622 105 149 0
0.648636 -0.0245562 -0.119622 106 148 0
0.648636 -0.0245562 -0.119622 107 147 0
0.648636 -0.0245562 -0.119622 108 146 0
0.648636 -0.0245562 -0.119622 110 144 0
0.648636 -0.0245562 -0.119622 111 143 0
0.648636 -0.0245562 -0.119622 112 142 0
0.648636 -0.0245562 -0.119622 114 140 0
0.648636 -0.0245562 -0.119622 115 139 0
0.648636 -0.0245562 -0.119622 116 138 0
0.648636 -0.0245562 -0.119622 117 137 0
0.648636 -0.0245562 -0.119622 119 135 0
0.648636 -0.0245562 -0.119622 120 134 0
0.648636 -0.0245562 -0.119622 121 133 0
0.648636 -0.0245562 -0.119622 123 131 0
0.648636 -0.0245562 -0.119622 124 130 0
0.648636 -0.0245562 -0.119622 125 129 0
0.648636 -0.0245562 -0.119622 126 128 0
0.648636 -0.0245562 -0.119622 128 126 0
0.648636 -0.0245562 -0.119622 129 125 0
0.648636 -0.0245562 -0.119622 130 124 0
0.648636 -0.0245562 -0.119622 131 123 0
0.648636 -0.0245562 -0.119622 133 121 0
0.648636 -0.0245562 -0.119622 134 120 0
0.648636 -0.0245562 -0.119622 135 119 0
0.648636 -0.0245562 -0.119622 137 117 0
0.648636 -0.0245562 -0.119622 138 116 0
0.648636 -0.0245562 -0.119622 139 115 0
0.648636 -0.0245562 -0.119622 140 114 0
0.648636 -0.0245562 -0.119622 142 112 0
0.648636 -0.0245562 -0.119622 143 111 0
0.648636 -0.0245562 -0.119622 144 110 0
0.648636 -0.0245562 -0.119622 146 108 0
0.648636 -0.0245562 -0.119622 147 107 0
0.648636 -0.0245562 -0.119622 148 106 0
0.648636 -0.0245562 -0.119622 149 105 0
0.648636 -0.0245562 -0.119622 151 103 0
0.648636 -0.0245562 -0.119622 152 102 0
0.648636 -0.0245562 -0.119622 153 101 0
0.648636 -0.0245562 -0.119622 155 99 0
0.648636 -0.0245562 -0.119622 156 98 0
0.648636 -0.0245562 -0.119622 157 97 0
0.648636 -0.0245562 -0.119622 158 96 0
0.648636 -0.0245562 -0.119622 160 94 0
0.648636 -0.0245562 -0.119622 161 93 0
0.648636 -0.0245562 -0.119622 162 92 0
0.648636 -0.0245562 -0.119622 164 90 0
0.648636 -0.0245562 -0.119622 165 89 0
0.648636 -0.0245562 -0.119622 166 88 0
0.648636 -0.0245562 -0.119622 167 87 0
0.648636 -0.0245562 -0.119622 169 85 0
0.648636 -0.0245562 -0.119622 170 84 0
0.648636 -0.0245562 -0.119622 171 83 0
0.648636 -0.0245562 -0.119622 172 82 0
0.648636 -0.0245562 -0.119622 174 80 0
0.648636 -0.0245562 -0.119622 175 79 0
0.648636 -0.0245562 -0.119622 176 78 0
0.648636 -0.0245562 -0.119622 178 76 0
0.648636 -0.0245562 -0.119622 179 75 0
0.648636 -0.0245562 -0.119622 180 74 0
0.648636 -0.0245562 -0.119622 181 73 0
0.648636 -0.0245562 -0.119622 183 71 0
0.648636 -0.0245562 -0.119622 184 70 0
0.648636 -0.0245562 -0.119622 185 69 0
0.648636 -0.0245562 -0.119622 187 67 0
0.648636 -0.0245562 -0.119622 188 66 0
0.648636 -0.0245562 -0.119622 189 65 0
0.648636 -0.0245562 -0.119622 190 64 0
0.648636 -0.0245562 -0.119622 192 62 0
0.648636 -0.0245562 -0.119622 193 61 0
0.648636 -0.0245562 -0.119622 194 60 0
0.648636 -0.0245562 -0.119622 196 58 0
0.648636 -0.0245562 -0.119622 197 57 0
0.648636 -0.0245562 -0.119622 198 56 0
0.648636 -0.0245562 -0.119622 199 55 0
0.648636 -0.0245562 -0.119622 201 53 0
0.648636 -0.0245562 -0.119622 202 52 0
0.648636 -0.0245562 -0.119622 203 51 0
0.648636 -0.0245562 -0.119622 205 49 0
0.648636 -0.0245562 -0.119622 206 48 0
0.648636 -0.0245562 -0.119622 207 47 0
0.648636 -0.0245562 -0.119622 208 46 0
0.648636 -0.0245562 -0.119622 210 44 0
0.648636 -0.0245562 -0.119622 211 43 0
0.648636 -0.0245562 -0.119622 212 42 0
0.648636 -0.0245562 -0.119622 213 41 0
0.648636 -0.0245562 -0.119622 215 39 0
0.648636 -0.0245562 -0.119622 216 38 0
0.648636 -0.0245562 -0.119622 217 37 0
0.648636 -0.0245562 -0.119622 219 35 0
0.648636 -0.0245562 -0.119622 220 34 0
0.648636 -0.0245562 -0.119622 221 33 0
0.648636 -0.0245562 -0.119622 222 32 0
0.648636 -0.0245562 -0.119622 224 30 0
0.648636 -0.0245562 -0.119622 225 29 0
0.648636 -0.0245562 -0.119622 226 28 0
0.648636 -0.0245562 -0.119622 228 26 0
0.648636 -0.0245562 -0.119622 229 25 0
0.648636 -0.0245562 -0.119622 230 24 0
0.648636 -0.0245562 -0.119622 231 23 0
0.648636 -0.0245562 -0.119622 233 21 0
0.648636 -0.0245562 -0.119622 234 20 0
0.648636 -0.0245562 -0.119622 235 19 0
0.648636 -0.0245562 -0.119622 237 17 0
0.648636 -0.0245562 -0.119622 238 16 0
0.648636 -0.0245562 -0.119622 239 15 0
0.648636 -0.0245562 -0.119622 240 14 0
0.648636 -0.0245562 -0.119622 242 12 0
0.648636 -0.0245562 -0.119622 243 11 0
0.648636 -0.0245562 -0.119622 244 10 0
0.648636 -0.0245562 -0.119622 246 8 0
0.648636 -0.0245562 -0.119622 247 7 0
0.648636 -0.0245562 -0.119622 248 6 0
0.648636 -0.0245562 -0.119622 249 5 0
0.648636 -0.0245562 -0.119622 251 3 0
0.648636 -0.0245562 -0.119622 252 2 0
0.648636 -0.0245562 -0.119622 253 1 0
0.648636 -0.0245562 -0.119622 255 0 0
