ply
format ascii 1.0
comment Generated by robot_control PLYWriter
element vertex 87
property float x
property float y
property float z
property uchar red
property uchar green
property uchar blue
end_header
0.582077 0.0385979 -0.138194 0 255 0
0.586248 0.0355236 -0.137694 2 252 0
0.589562 0.0319396 -0.137268 5 249 0
0.590055 0.0262907 -0.136735 8 246 0
0.587555 0.0223418 -0.136328 11 243 0
0.584076 0.0189223 -0.135943 14 240 0
0.578428 0.017616 -0.135751 17 237 0
0.572875 0.0190292 -0.135822 20 234 0
0.568023 0.0215712 -0.136175 23 231 0
0.564673 0.0264225 -0.136709 26 228 0
0.563267 0.0321081 -0.137204 29 225 0
0.564183 0.0378734 -0.137941 32 222 0
0.567042 0.0429896 -0.13857 35 219 0
0.571068 0.0470725 -0.139029 38 216 0
0.576282 0.0489992 -0.13937 41 213 0
0.582259 0.0489792 -0.139348 44 210 0
0.587424 0.0464477 -0.139062 47 207 0
0.590067 0.041234 -0.1386 50 204 0
0.590038 0.0352732 -0.13817 53 201 0
0.586103 0.0310138 -0.137612 56 198 0
0.581082 0.0279314 -0.137432 59 195 0
0.575333 0.0288035 -0.137508 62 192 0
0.569783 0.0309696 -0.13778 65 189 0
0.566413 0.0354228 -0.13825 68 186 0
0.564468 0.041044 -0.138767 71 183 0
0.564173 0.0465504 -0.139437 74 180 0
0.56668 0.0518871 -0.140223 77 177 0
0.569679 0.0565594 -0.140732 80 174 0
0.575077 0.0590592 -0.141101 83 171 0
0.580793 0.0599013 -0.141315 85 169 0
0.586103 0.0572935 -0.141236 88 166 0
0.589877 0.0527721 -0.140933 91 163 0
0.589886 0.046925 -0.14021 94 160 0
0.586679 0.0420181 -0.139708 97 157 0
0.58143 0.0397 -0.139383 100 154 0
0.575465 0.0395689 -0.139338 103 151 0
0.569886 0.0412606 -0.139553 106 148 0
0.566913 0.0459932 -0.139906 109 145 0
0.56484 0.0515711 -0.14047 112 142 0
0.563499 0.0571373 -0.14123 115 139 0
0.565842 0.0624696 -0.141977 118 136 0
0.569916 0.0667403 -0.142899 121 133 0
0.574925 0.0698453 -0.143602 124 130 0
0.58086 0.0704695 -0.143905 127 127 0
0.585994 0.0679676 -0.14393 130 124 0
0.590126 0.0638119 -0.143668 133 121 0
0.589928 0.0578939 -0.143086 136 118 0
0.587322 0.0525849 -0.14241 139 115 0
0.582532 0.0503274 -0.141819 142 112 0
0.576923 0.0496665 -0.141543 145 109 0
0.572003 0.052882 -0.141495 148 106 0
0.566969 0.0558111 -0.141787 151 103 0
0.564837 0.0611954 -0.142283 154 100 0
0.564769 0.0670951 -0.143207 157 97 0
0.565883 0.0727956 -0.144123 160 94 0
0.569988 0.0768235 -0.144992 163 91 0
0.574873 0.0799952 -0.145994 166 88 0
0.580445 0.0804189 -0.146622 169 85 0
0.586112 0.0790123 -0.146934 171 83 0
0.589688 0.0745737 -0.146791 174 80 0
0.590092 0.068737 -0.146134 177 77 0
0.587854 0.0633713 -0.14536 180 74 0
0.58328 0.0598269 -0.144453 183 71 0
0.577427 0.0603967 -0.143955 186 68 0
0.571983 0.062833 -0.143681 189 65 0
0.567284 0.0662886 -0.143984 192 62 0
0.564852 0.0716731 -0.144662 195 59 0
0.56468 0.0775284 -0.145747 198 56 0
0.566343 0.0830281 -0.146911 201 53 0
0.569474 0.0878094 -0.14818 204 50 0
0.574634 0.0905911 -0.149142 207 47 0
0.580356 0.0913962 -0.150085 210 44 0
0.585752 0.0897592 -0.150622 213 41 0
0.590059 0.0857075 -0.150555 216 38 0
0.591854 0.0802486 -0.149985 219 35 0
0.589353 0.0761732 -0.148531 222 32 0
0.585559 0.0717571 -0.147175 225 29 0
0.580211 0.0706411 -0.145861 228 26 0
0.574472 0.071832 -0.145242 231 23 0
0.569622 0.074444 -0.145249 234 20 0
0.56659 0.0790905 -0.146063 237 17 0
0.564617 0.0840908 -0.147783 240 14 0
0.565345 0.0893691 -0.149955 243 11 0
0.566162 0.0941466 -0.152014 246 8 0
0.5696 0.0965343 -0.153809 249 5 0
0.572629 0.100974 -0.154817 252 2 0
0.578084 0.101409 -0.155333 255 0 0
