ply
format ascii 1.0
comment Generated by robot_control PLYWriter
element vertex 12
property float x
property float y
property float z
property uchar red
property uchar green
property uchar blue
end_header
0.51325 -0.0803945 -0.123815 0 255 0
0.513595 -0.0854454 -0.124543 23 231 0
0.513779 -0.0905214 -0.125146 46 208 0
0.513977 -0.0956054 -0.12567 69 185 0
0.514176 -0.100699 -0.126088 92 162 0
0.51444 -0.105797 -0.126409 115 139 0
0.514772 -0.110895 -0.126646 139 115 0
0.515109 -0.115997 -0.126809 162 92 0
0.515453 -0.121099 -0.126907 185 69 0
0.515796 -0.126202 -0.126973 208 46 0
0.51623 -0.131296 -0.127068 231 23 0
0.516654 -0.136382 -0.127137 255 0 0
