ply
format ascii 1.0
comment Generated by robot_control PLYWriter
element vertex 200
property float x
property float y
property float z
property uchar red
property uchar green
property uchar blue
end_header
0.685526 -0.386533 -0.0946194 0 255 0
0.685526 -0.386533 -0.0946194 1 253 0
0.685526 -0.386533 -0.0946194 2 252 0
0.685526 -0.386533 -0.0946194 3 251 0
0.685526 -0.386533 -0.0946194 5 249 0
0.685526 -0.386533 -0.0946194 6 248 0
0.685526 -0.386533 -0.0946194 7 247 0
0.685526 -0.386533 -0.0946194 8 246 0
0.685526 -0.386533 -0.0946194 10 244 0
0.685526 -0.386533 -0.0946194 11 243 0
0.685526 -0.386533 -0.0946194 12 242 0
0.685526 -0.386533 -0.0946194 14 240 0
0.685526 -0.386533 -0.0946194 15 239 0
0.685526 -0.386533 -0.0946194 16 238 0
0.685526 -0.386533 -0.0946194 17 237 0
0.685526 -0.386533 -0.0946194 19 235 0
0.685526 -0.386533 -0.0946194 20 234 0
0.685526 -0.386533 -0.0946194 21 233 0
0.685526 -0.386533 -0.0946194 23 231 0
0.685526 -0.386533 -0.0946194 24 230 0
0.685526 -0.386533 -0.0946194 25 229 0
0.685526 -0.386533 -0.0946194 26 228 0
0.685526 -0.386533 -0.0946194 28 226 0
0.685526 -0.386533 -0.0946194 29 225 0
0.685526 -0.386533 -0.0946194 30 224 0
0.685526 -0.386533 -0.0946194 32 222 0
0.685526 -0.386533 -0.0946194 33 221 0
0.685526 -0.386533 -0.0946194 34 220 0
0.685526 -0.386533 -0.0946194 35 219 0
0.685526 -0.386533 -0.0946194 37 217 0
0.685526 -0.386533 -0.0946194 38 216 0
0.685526 -0.386533 -0.0946194 39 215 0
0.685526 -0.386533 -0.0946194 41 213 0
0.685526 -0.386533 -0.0946194 42 212 0
0.685526 -0.386533 -0.0946194 43 211 0
0.685526 -0.386533 -0.0946194 44 210 0
0.685526 -0.386533 -0.0946194 46 208 0
0.685526 -0.386533 -0.0946194 47 207 0
0.685526 -0.386533 -0.0946194 48 206 0
0.685526 -0.386533 -0.0946194 49 205 0
0.685526 -0.386533 -0.0946194 51 203 0
0.685526 -0.386533 -0.0946194 52 202 0
0.685526 -0.386533 -0.0946194 53 201 0
0.685526 -0.386533 -0.0946194 55 199 0
0.685526 -0.386533 -0.0946194 56 198 0
0.685526 -0.386533 -0.0946194 57 197 0
0.685526 -0.386533 -0.0946194 58 196 0
0.685526 -0.386533 -0.0946194 60 194 0
0.685526 -0.386533 -0.0946194 61 193 0
0.685526 -0.386533 -0.0946194 62 192 0
0.685526 -0.386533 -0.0946194 64 190 0
0.685526 -0.386533 -0.0946194 65 189 0
0.685526 -0.386533 -0.0946194 66 188 0
0.685526 -0.386533 -0.0946194 67 187 0
0.685526 -0.386533 -0.0946194 69 185 0
0.685526 -0.386533 -0.0946194 70 184 0
0.685526 -0.386533 -0.0946194 71 183 0
0.685526 -0.386533 -0.0946194 73 181 0
0.685526 -0.386533 -0.0946194 74 180 0
0.685526 -0.386533 -0.0946194 75 179 0
0.685526 -0.386533 -0.0946194 76 178 0
0.685526 -0.386533 -0.0946194 78 176 0
0.685526 -0.386533 -0.0946194 79 175 0
0.685526 -0.386533 -0.0946194 80 174 0
0.685526 -0.386533 -0.0946194 82 172 0
0.685526 -0.386533 -0.0946194 83 171 0
0.685526 -0.386533 -0.0946194 84 170 0
0.685526 -0.386533 -0.0946194 85 169 0
0.685526 -0.386533 -0.0946194 87 167 0
0.685526 -0.386533 -0.0946194 88 166 0
0.685526 -0.386533 -0.0946194 89 165 0
0.685526 -0.386533 -0.0946194 90 164 0
0.685526 -0.386533 -0.0946194 92 162 0
0.685526 -0.386533 -0.0946194 93 161 0
0.685526 -0.386533 -0.0946194 94 160 0
0.685526 -0.386533 -0.0946194 96 158 0
0.685526 -0.386533 -0.0946194 97 157 0
0.685526 -0.386533 -0.0946194 98 156 0
0.685526 -0.386533 -0.0946194 99 155 0
0.685526 -0.386533 -0.0946194 101 153 0
0.685526 -0.386533 -0.0946194 102 152 0
0.685526 -0.386533 -0.0946194 103 151 0
0.685526 -0.386533 -0.0946194 105 149 0
0.685526 -0.386533 -0.0946194 106 148 0
0.685526 -0.386533 -0.0946194 107 147 0
0.685526 -0.386533 -0.0946194 108 146 0
0.685526 -0.386533 -0.0946194 110 144 0
0.685526 -0.386533 -0.0946194 111 143 0
0.685526 -0.386533 -0.0946194 112 142 0
0.685526 -0.386533 -0.0946194 114 140 0
0.685526 -0.386533 -0.0946194 115 139 0
0.685526 -0.386533 -0.0946194 116 138 0
0.685526 -0.386533 -0.0946194 117 137 0
0.685526 -0.386533 -0.0946194 119 135 0
0.685526 -0.386533 -0.0946194 120 134 0
0.685526 -0.386533 -0.0946194 121 133 0
0.685526 -0.386533 -0.0946194 123 131 0
0.685526 -0.386533 -0.0946194 124 130 0
0.685526 -0.386533 -0.0946194 125 129 0
0.685526 -0.386533 -0.0946194 126 128 0
0.685526 -0.386533 -0.0946194 128 126 0
0.685526 -0.386533 -0.0946194 129 125 0
0.685526 -0.386533 -0.0946194 130 124 0
0.685526 -0.386533 -0.0946194 131 123 0
0.685526 -0.386533 -0.0946194 133 121 0
0.685526 -0.386533 -0.0946194 134 120 0
0.685526 -0.386533 -0.0946194 135 119 0
0.685526 -0.386533 -0.0946194 137 117 0
0.685526 -0.386533 -0.0946194 138 116 0
0.685526 -0.386533 -0.0946194 139 115 0
0.685526 -0.386533 -0.0946194 140 114 0
0.685526 -0.386533 -0.0946194 142 112 0
0.685526 -0.386533 -0.0946194 143 111 0
0.685526 -0.386533 -0.0946194 144 110 0
0.685526 -0.386533 -0.0946194 146 108 0
0.685526 -0.386533 -0.0946194 147 107 0
0.685526 -0.386533 -0.0946194 148 106 0
0.685526 -0.386533 -0.0946194 149 105 0
0.685526 -0.386533 -0.0946194 151 103 0
0.685526 -0.386533 -0.0946194 152 102 0
0.685526 -0.386533 -0.0946194 153 101 0
0.685526 -0.386533 -0.0946194 155 99 0
0.685526 -0.386533 -0.0946194 156 98 0
0.685526 -0.386533 -0.0946194 157 97 0
0.685526 -0.386533 -0.0946194 158 96 0
0.685526 -0.386533 -0.0946194 160 94 0
0.685526 -0.386533 -0.0946194 161 93 0
0.685526 -0.386533 -0.0946194 162 92 0
0.685526 -0.386533 -0.0946194 164 90 0
0.685526 -0.386533 -0.0946194 165 89 0
0.685526 -0.386533 -0.0946194 166 88 0
0.685526 -0.386533 -0.0946194 167 87 0
0.685526 -0.386533 -0.0946194 169 85 0
0.685526 -0.386533 -0.0946194 170 84 0
0.685526 -0.386533 -0.0946194 171 83 0
0.685526 -0.386533 -0.0946194 172 82 0
0.685526 -0.386533 -0.0946194 174 80 0
0.685526 -0.386533 -0.0946194 175 79 0
0.685526 -0.386533 -0.0946194 176 78 0
0.685526 -0.386533 -0.0946194 178 76 0
0.685526 -0.386533 -0.0946194 179 75 0
0.685526 -0.386533 -0.0946194 180 74 0
0.685526 -0.386533 -0.0946194 181 73 0
0.685526 -0.386533 -0.0946194 183 71 0
0.685526 -0.386533 -0.0946194 184 70 0
0.685526 -0.386533 -0.0946194 185 69 0
0.685526 -0.386533 -0.0946194 187 67 0
0.685526 -0.386533 -0.0946194 188 66 0
0.685526 -0.386533 -0.0946194 189 65 0
0.685526 -0.386533 -0.0946194 190 64 0
0.685526 -0.386533 -0.0946194 192 62 0
0.685526 -0.386533 -0.0946194 193 61 0
0.685526 -0.386533 -0.0946194 194 60 0
0.685526 -0.386533 -0.0946194 196 58 0
0.685526 -0.386533 -0.0946194 197 57 0
0.685526 -0.386533 -0.0946194 198 56 0
0.685526 -0.386533 -0.0946194 199 55 0
0.685526 -0.386533 -0.0946194 201 53 0
0.685526 -0.386533 -0.0946194 202 52 0
0.685526 -0.386533 -0.0946194 203 51 0
0.685526 -0.386533 -0.0946194 205 49 0
0.685526 -0.386533 -0.0946194 206 48 0
0.685526 -0.386533 -0.0946194 207 47 0
0.685526 -0.386533 -0.0946194 208 46 0
0.685526 -0.386533 -0.0946194 210 44 0
0.685526 -0.386533 -0.0946194 211 43 0
0.685526 -0.386533 -0.0946194 212 42 0
0.685526 -0.386533 -0.0946194 213 41 0
0.685526 -0.386533 -0.0946194 215 39 0
0.685526 -0.386533 -0.0946194 216 38 0
0.685526 -0.386533 -0.0946194 217 37 0
0.685526 -0.386533 -0.0946194 219 35 0
0.685526 -0.386533 -0.0946194 220 34 0
0.685526 -0.386533 -0.0946194 221 33 0
0.685526 -0.386533 -0.0946194 222 32 0
0.685526 -0.386533 -0.0946194 224 30 0
0.685526 -0.386533 -0.0946194 225 29 0
0.685526 -0.386533 -0.0946194 226 28 0
0.685526 -0.386533 -0.0946194 228 26 0
0.685526 -0.386533 -0.0946194 229 25 0
0.685526 -0.386533 -0.0946194 230 24 0
0.685526 -0.386533 -0.0946194 231 23 0
0.685526 -0.386533 -0.0946194 233 21 0
0.685526 -0.386533 -0.0946194 234 20 0
0.685526 -0.386533 -0.0946194 235 19 0
0.685526 -0.386533 -0.0946194 237 17 0
0.685526 -0.386533 -0.0946194 238 16 0
0.685526 -0.386533 -0.0946194 239 15 0
0.685526 -0.386533 -0.0946194 240 14 0
0.685526 -0.386533 -0.0946194 242 12 0
0.685526 -0.386533 -0.0946194 243 11 0
0.685526 -0.386533 -0.0946194 244 10 0
0.685526 -0.386533 -0.0946194 246 8 0
0.685526 -0.386533 -0.0946194 247 7 0
0.685526 -0.386533 -0.0946194 248 6 0
0.685526 -0.386533 -0.0946194 249 5 0
0.685526 -0.386533 -0.0946194 251 3 0
0.685526 -0.386533 -0.0946194 252 2 0
0.685526 -0.386533 -0.0946194 253 1 0
0.685526 -0.386533 -0.0946194 255 0 0
