ply
format ascii 1.0
comment Generated by robot_control PLYWriter
element vertex 10
property float x
property float y
property float z
property uchar red
property uchar green
property uchar blue
end_header
0.57254 -0.206321 -0.0356787 0 255 0
0.572492 -0.21114 -0.0377332 28 226 0
0.572454 -0.216167 -0.0392294 56 198 0
0.572334 -0.221258 -0.0404329 85 169 0
0.572114 -0.226456 -0.0410532 113 141 0
0.571904 -0.231689 -0.0411633 141 113 0
0.571703 -0.236922 -0.0408865 170 84 0
0.571503 -0.242141 -0.0404129 198 56 0
0.571249 -0.247329 -0.0397075 226 28 0
0.571022 -0.2525 -0.038901 255 0 0
