ply
format ascii 1.0
comment Generated by robot_control PLYWriter
element vertex 12
property float x
property float y
property float z
property uchar red
property uchar green
property uchar blue
end_header
0.692302 0.0261822 -0.106026 0 255 0
0.692906 0.0310989 -0.106566 23 231 0
0.693266 0.0360364 -0.107141 46 208 0
0.693638 0.0409706 -0.107731 69 185 0
0.694135 0.0458895 -0.10836 92 162 0
0.694654 0.0507938 -0.109078 115 139 0
0.695227 0.0556656 -0.109959 139 115 0
0.695602 0.0605317 -0.110969 162 92 0
0.69598 0.0653773 -0.112072 185 69 0
0.696295 0.0701942 -0.11331 208 46 0
0.696736 0.0749801 -0.11462 231 23 0
0.69694 0.0797348 -0.1161 255 0 0
