ply
format ascii 1.0
comment Generated by robot_control PLYWriter
element vertex 12
property float x
property float y
property float z
property uchar red
property uchar green
property uchar blue
end_header
0.496416 -0.0237006 -0.111924 0 255 0
0.496508 -0.0286452 -0.111307 23 231 0
0.496585 -0.0336076 -0.110849 46 208 0
0.496633 -0.038577 -0.110471 69 185 0
0.49668 -0.0435502 -0.110144 92 162 0
0.496822 -0.0485238 -0.109868 115 139 0
0.49707 -0.0534979 -0.109683 139 115 0
0.497304 -0.0584759 -0.109643 162 92 0
0.497512 -0.0634549 -0.109722 185 69 0
0.497721 -0.068432 -0.109881 208 46 0
0.498006 -0.0734049 -0.110021 231 23 0
0.498259 -0.0783694 -0.110269 255 0 0
