ply
format ascii 1.0
comment Generated by robot_control PLYWriter
element vertex 65
property float x
property float y
property float z
property uchar red
property uchar green
property uchar blue
end_header
0.691712 -0.00949696 -0.133592 0 255 0
0.69573 -0.0119858 -0.133205 3 251 0
0.698819 -0.0167297 -0.132822 7 247 0
0.70064 -0.0220042 -0.132467 11 243 0
0.701311 -0.0279125 -0.132098 15 239 0
0.698822 -0.0329093 -0.13177 19 235 0
0.696504 -0.0377037 -0.131522 23 231 0
0.691522 -0.0409825 -0.13145 27 227 0
0.686122 -0.0429681 -0.131559 31 223 0
0.680286 -0.0423085 -0.13172 35 219 0
0.675303 -0.0389003 -0.131861 39 215 0
0.671136 -0.0347011 -0.132166 43 211 0
0.671994 -0.0293608 -0.132433 47 207 0
0.673733 -0.0239413 -0.132591 51 203 0
0.678249 -0.0200073 -0.13261 55 199 0
0.683892 -0.0185561 -0.132509 59 195 0
0.689746 -0.0193354 -0.132385 63 191 0
0.695148 -0.0220265 -0.132187 67 187 0
0.698979 -0.0264822 -0.131853 71 183 0
0.701313 -0.0318663 -0.131566 75 179 0
0.701259 -0.0379016 -0.131368 79 175 0
0.700263 -0.043785 -0.131235 83 171 0
0.696833 -0.0484944 -0.131164 87 167 0
0.692108 -0.0522527 -0.131138 91 163 0
0.686335 -0.052931 -0.131192 95 159 0
0.680412 -0.0524886 -0.131296 99 155 0
0.67521 -0.04945 -0.131427 103 151 0
0.671066 -0.0451443 -0.131611 107 147 0
0.671481 -0.0394583 -0.131787 111 143 0
0.67416 -0.0340458 -0.131847 115 139 0
0.678962 -0.0307304 -0.131817 119 135 0
0.684799 -0.0294637 -0.131676 123 131 0
0.690174 -0.0292217 -0.131401 127 127 0
0.694788 -0.033106 -0.131149 131 123 0
0.699138 -0.0372894 -0.13096 135 119 0
0.701129 -0.0424144 -0.130807 139 115 0
0.700981 -0.0484479 -0.130697 143 111 0
0.699522 -0.0542059 -0.130618 147 107 0
0.696638 -0.059508 -0.130612 151 103 0
0.691683 -0.0626745 -0.130634 155 99 0
0.685991 -0.0646525 -0.130711 159 95 0
0.680172 -0.0638621 -0.130911 163 91 0
0.67505 -0.060676 -0.131175 167 87 0
0.672462 -0.055351 -0.131335 171 83 0
0.671879 -0.0502404 -0.131456 175 79 0
0.673104 -0.0444899 -0.131543 179 75 0
0.677131 -0.0402014 -0.131493 183 71 0
0.683097 -0.0395025 -0.131289 187 67 0
0.689059 -0.0398828 -0.131039 191 63 0
0.69426 -0.0427084 -0.130896 195 59 0
0.698425 -0.0470782 -0.130776 199 55 0
0.700813 -0.0525264 -0.130694 203 51 0
0.701081 -0.0585349 -0.130602 207 47 0
0.699039 -0.0639766 -0.130539 211 43 0
0.696924 -0.0689415 -0.130578 215 39 0
0.691945 -0.0723443 -0.130708 219 35 0
0.686591 -0.0745828 -0.130868 223 31 0
0.680756 -0.074063 -0.130973 227 27 0
0.675693 -0.0718879 -0.131108 231 23 0
0.673023 -0.0666935 -0.13134 235 19 0
0.671029 -0.0620224 -0.131506 239 15 0
0.673067 -0.0565832 -0.131629 243 11 0
0.67633 -0.0528321 -0.131582 247 7 0
0.68059 -0.0500418 -0.131342 251 3 0
0.686206 -0.0504348 -0.130791 255 0 0
