ply
format ascii 1.0
comment Generated by robot_control PLYWriter
element vertex 9
property float x
property float y
property float z
property uchar red
property uchar green
property uchar blue
end_header
0.531184 -0.0337637 -0.120587 0 255 0
0.531205 -0.029064 -0.120464 31 223 0
0.531049 -0.024369 -0.120285 63 191 0
0.530922 -0.0196785 -0.119997 95 159 0
0.530815 -0.0149938 -0.119618 127 127 0
0.530705 -0.0103105 -0.119219 159 95 0
0.530587 -0.00562191 -0.1189 191 63 0
0.530492 -0.000926966 -0.118686 223 31 0
0.53055 0.00376901 -0.118494 255 0 0
