ply
format ascii 1.0
comment Generated by robot_control PLYWriter
element vertex 59
property float x
property float y
property float z
property uchar red
property uchar green
property uchar blue
end_header
0.714636 -0.00437736 -0.106105 0 255 0
0.718539 -0.00610815 -0.106766 4 250 0
0.722292 -0.00965279 -0.107367 8 246 0
0.724665 -0.0146633 -0.107694 13 241 0
0.724566 -0.0206593 -0.107662 17 237 0
0.721534 -0.0246142 -0.107143 21 233 0
0.715976 -0.0264567 -0.106553 26 228 0
0.710038 -0.0263332 -0.105796 30 224 0
0.704835 -0.0234965 -0.105057 35 219 0
0.70083 -0.0190221 -0.104518 39 215 0
0.699277 -0.0132216 -0.104364 43 211 0
0.698361 -0.00735661 -0.104359 48 206 0
0.701279 -0.00233337 -0.104568 52 202 0
0.705255 0.0021799 -0.104995 57 197 0
0.710387 0.00434142 -0.105702 61 193 0
0.716151 0.00543272 -0.1064 65 189 0
0.721737 0.0037613 -0.106782 70 184 0
0.72435 -0.00166967 -0.107101 74 180 0
0.725878 -0.00695072 -0.107094 79 175 0
0.722766 -0.0119326 -0.106809 83 171 0
0.718455 -0.0158085 -0.106248 87 167 0
0.712789 -0.0163058 -0.105655 92 162 0
0.707319 -0.0150348 -0.105162 96 158 0
0.703014 -0.0108102 -0.104924 101 153 0
0.700727 -0.00571416 -0.104783 105 149 0
0.698339 -0.000313793 -0.104833 109 145 0
0.700664 0.00503445 -0.105024 114 140 0
0.703509 0.0103262 -0.105414 118 136 0
0.708087 0.0140663 -0.106006 123 131 0
0.713893 0.0152443 -0.106663 127 127 0
0.719565 0.0141784 -0.107283 131 123 0
0.724331 0.0105464 -0.107577 136 118 0
0.726295 0.00504991 -0.107613 140 114 0
0.725015 -0.000815771 -0.107364 145 109 0
0.720914 -0.00489906 -0.106916 149 105 0
0.715208 -0.00637142 -0.106352 153 101 0
0.709641 -0.0047337 -0.105906 158 96 0
0.704423 -0.00225097 -0.105537 162 92 0
0.702062 0.00323323 -0.105361 167 87 0
0.700836 0.00881103 -0.105359 171 83 0
0.701513 0.0146917 -0.105686 175 79 0
0.704221 0.0200573 -0.106188 180 74 0
0.708098 0.0245942 -0.106765 184 70 0
0.713911 0.0252731 -0.107576 189 65 0
0.719914 0.0253746 -0.108096 193 61 0
0.724483 0.0217955 -0.108597 197 57 0
0.726322 0.0163023 -0.108701 202 52 0
0.725564 0.0104371 -0.10833 206 48 0
0.721643 0.00603367 -0.107633 211 43 0
0.716269 0.00393808 -0.106997 215 39 0
0.71079 0.00541923 -0.106118 219 35 0
0.705833 0.00847415 -0.105735 224 30 0
0.701643 0.0127264 -0.105572 228 26 0
0.700291 0.0182843 -0.105767 233 21 0
0.700233 0.0243003 -0.106227 237 17 0
0.702934 0.0288655 -0.106708 241 13 0
0.705172 0.032445 -0.107439 246 8 0
0.709261 0.035551 -0.108155 250 4 0
0.712796 0.0374298 -0.108927 255 0 0
