ply
format ascii 1.0
comment Generated by robot_control PLYWriter
element vertex 30
property float x
property float y
property float z
property uchar red
property uchar green
property uchar blue
end_header
0.553826 0.18982 -0.137977 0 255 0
0.557707 0.187656 -0.135033 8 246 0
0.562138 0.184823 -0.133339 17 237 0
0.563144 0.179392 -0.131831 26 228 0
0.565209 0.174613 -0.130915 35 219 0
0.562633 0.16953 -0.130671 43 211 0
0.560577 0.163963 -0.131158 52 202 0
0.55563 0.161522 -0.132096 61 193 0
0.550611 0.162068 -0.133829 70 184 0
0.546921 0.165923 -0.13488 79 175 0
0.546475 0.171871 -0.135304 87 167 0
0.547958 0.177567 -0.135145 96 158 0
0.551758 0.181991 -0.134316 105 149 0
0.55698 0.184456 -0.132817 114 140 0
0.562558 0.185618 -0.131045 123 131 0
0.567714 0.183787 -0.128918 131 123 0
0.572208 0.180349 -0.127316 140 114 0
0.574337 0.175157 -0.12533 149 105 0
0.575427 0.169541 -0.124123 158 96 0
0.575454 0.163621 -0.123221 167 87 0
0.571805 0.159045 -0.123018 175 79 0
0.567508 0.154964 -0.123859 184 70 0
0.562167 0.155438 -0.125864 193 61 0
0.55867 0.158887 -0.127654 202 52 0
0.556638 0.16403 -0.129292 211 43 0
0.557067 0.169711 -0.130541 219 35 0
0.560369 0.174271 -0.130796 228 26 0
0.564499 0.17742 -0.129962 237 17 0
0.568768 0.180109 -0.12806 246 8 0
0.573123 0.179291 -0.12652 255 0 0
