ply
format ascii 1.0
comment Generated by robot_control PLYWriter
element vertex 58
property float x
property float y
property float z
property uchar red
property uchar green
property uchar blue
end_header
0.552096 0.166635 -0.110905 0 255 0
0.557672 0.165376 -0.111612 4 250 0
0.561528 0.160824 -0.111819 8 246 0
0.565517 0.156472 -0.111458 13 241 0
0.566672 0.151217 -0.110969 17 237 0
0.566478 0.145349 -0.109992 22 232 0
0.564283 0.139997 -0.1091 26 228 0
0.560604 0.135669 -0.108119 31 223 0
0.555511 0.132793 -0.107367 35 219 0
0.549621 0.131993 -0.107084 40 214 0
0.544306 0.133973 -0.10719 44 210 0
0.539309 0.137244 -0.10743 49 205 0
0.536881 0.142567 -0.107786 53 201 0
0.534629 0.148038 -0.108183 58 196 0
0.535166 0.153872 -0.108736 62 192 0
0.53808 0.158961 -0.109429 67 187 0
0.542284 0.163152 -0.110202 71 183 0
0.547059 0.166386 -0.110898 76 178 0
0.552871 0.16755 -0.111539 80 174 0
0.558789 0.167309 -0.111854 85 169 0
0.564298 0.165311 -0.111868 89 165 0
0.56921 0.161889 -0.111712 93 161 0
0.573239 0.157703 -0.111451 98 156 0
0.574656 0.152058 -0.111071 102 152 0
0.574671 0.146084 -0.110673 107 147 0
0.572775 0.140755 -0.110244 111 143 0
0.568976 0.13616 -0.109735 116 138 0
0.564355 0.132549 -0.109094 120 134 0
0.558639 0.132206 -0.108582 125 129 0
0.552817 0.133487 -0.10824 129 125 0
0.548255 0.136984 -0.108144 134 120 0
0.545638 0.142234 -0.108334 138 116 0
0.543199 0.147658 -0.108806 143 111 0
0.544184 0.153204 -0.109401 147 107 0
0.545945 0.158874 -0.110148 152 102 0
0.549724 0.162885 -0.111181 156 98 0
0.554774 0.166018 -0.111882 161 93 0
0.560065 0.168659 -0.112569 165 89 0
0.565783 0.168739 -0.113081 170 84 0
0.571176 0.166412 -0.113299 174 80 0
0.576321 0.163401 -0.113338 178 76 0
0.580844 0.159694 -0.113256 183 71 0
0.583216 0.154434 -0.112996 187 67 0
0.583061 0.148524 -0.112588 192 62 0
0.58266 0.142613 -0.111878 196 58 0
0.580052 0.137494 -0.110862 201 53 0
0.574905 0.134697 -0.109738 205 49 0
0.569228 0.133683 -0.108692 210 44 0
0.563261 0.133991 -0.108331 214 40 0
0.559009 0.137231 -0.108306 219 35 0
0.554317 0.140325 -0.108507 223 31 0
0.553026 0.146065 -0.109002 228 26 0
0.552962 0.152012 -0.109688 232 22 0
0.553833 0.157781 -0.110479 237 17 0
0.5572 0.162487 -0.111405 241 13 0
0.561207 0.166644 -0.112455 246 8 0
0.566865 0.167766 -0.113572 250 4 0
0.572084 0.167953 -0.114973 255 0 0
