ply
format ascii 1.0
comment Generated by robot_control PLYWriter
element vertex 45
property float x
property float y
property float z
property uchar red
property uchar green
property uchar blue
end_header
0.663139 0.0969026 -0.148119 0 255 0
0.66805 0.0958226 -0.148817 5 249 0
0.672285 0.0929614 -0.148079 11 243 0
0.675093 0.0898545 -0.146306 17 237 0
0.676434 0.0844397 -0.144436 23 231 0
0.676813 0.0804697 -0.142437 28 226 0
0.675628 0.075721 -0.140194 34 220 0
0.671719 0.071616 -0.138537 40 214 0
0.667331 0.0682469 -0.137234 46 208 0
0.661749 0.0697664 -0.136868 52 202 0
0.657327 0.0718778 -0.137338 57 197 0
0.654694 0.0769614 -0.13898 63 191 0
0.652132 0.0822947 -0.140144 69 185 0
0.65635 0.0860112 -0.141511 75 179 0
0.659288 0.0904574 -0.143185 81 173 0
0.665243 0.0912675 -0.143777 86 168 0
0.671176 0.0907717 -0.143986 92 162 0
0.676754 0.0885991 -0.143584 98 156 0
0.680022 0.0836167 -0.142686 104 150 0
0.683245 0.0787781 -0.141499 110 144 0
0.682862 0.0733624 -0.139891 115 139 0
0.680194 0.0682134 -0.13823 121 133 0
0.676696 0.0634024 -0.137184 127 127 0
0.670825 0.0638038 -0.136183 133 121 0
0.664857 0.0637513 -0.135928 139 115 0
0.661019 0.0683372 -0.136622 144 110 0
0.658733 0.073646 -0.137781 150 104 0
0.66132 0.0789166 -0.139191 156 98 0
0.664719 0.0835865 -0.140487 162 92 0
0.670446 0.085117 -0.141215 168 86 0
0.676397 0.0844838 -0.141489 173 81 0
0.68161 0.0817099 -0.141171 179 75 0
0.685523 0.0772265 -0.140294 185 69 0
0.688571 0.0722772 -0.139048 191 63 0
0.688169 0.0669117 -0.13724 197 57 0
0.686661 0.0614314 -0.13566 202 52 0
0.682096 0.0581504 -0.13424 208 46 0
0.676557 0.0570135 -0.133172 214 40 0
0.670983 0.057877 -0.133136 220 34 0
0.667503 0.0627331 -0.133833 226 28 0
0.665189 0.0676313 -0.13513 231 23 0
0.66638 0.0729003 -0.137117 237 17 0
0.669889 0.0756168 -0.138904 243 11 0
0.674173 0.0780678 -0.140274 249 5 0
0.679438 0.0784666 -0.141349 255 0 0
