ply
format ascii 1.0
comment Generated by robot_control PLYWriter
element vertex 14
property float x
property float y
property float z
property uchar red
property uchar green
property uchar blue
end_header
0.636471 0.0432692 -0.0394995 0 255 0
0.636457 0.0384093 -0.0394532 19 235 0
0.636567 0.0335688 -0.0390596 39 215 0
0.636446 0.0287362 -0.0385667 58 196 0
0.636428 0.0239043 -0.0380506 78 176 0
0.636329 0.0190758 -0.0375139 98 156 0
0.636145 0.0142506 -0.0369615 117 137 0
0.635988 0.00942718 -0.0363874 137 117 0
0.635842 0.00460422 -0.0358056 156 98 0
0.63566 -0.000220021 -0.0352444 176 78 0
0.635462 -0.00504938 -0.0347376 196 58 0
0.635193 -0.0098831 -0.0343114 215 39 0
0.635007 -0.014721 -0.0339715 235 19 0
0.634746 -0.0195623 -0.0337917 255 0 0
