ply
format ascii 1.0
comment Generated by robot_control PLYWriter
element vertex 12
property float x
property float y
property float z
property uchar red
property uchar green
property uchar blue
end_header
0.585167 -0.254475 -0.0998543 0 255 0
0.585166 -0.259142 -0.0981005 23 231 0
0.58515 -0.26404 -0.0971446 46 208 0
0.585216 -0.268922 -0.0961042 69 185 0
0.585438 -0.273775 -0.094952 92 162 0
0.585648 -0.278605 -0.0937019 115 139 0
0.585859 -0.283392 -0.0922965 139 115 0
0.586076 -0.288135 -0.0907512 162 92 0
0.586282 -0.292838 -0.0890861 185 69 0
0.5865 -0.297483 -0.0872678 208 46 0
0.586775 -0.301899 -0.08498 231 23 0
0.586764 -0.306154 -0.082369 255 0 0
