ply
format ascii 1.0
comment Generated by robot_control PLYWriter
element vertex 12
property float x
property float y
property float z
property uchar red
property uchar green
property uchar blue
end_header
0.59293 -0.13345 -0.12573 0 255 0
0.592425 -0.12863 -0.126044 23 231 0
0.592034 -0.123799 -0.126324 46 208 0
0.591713 -0.118961 -0.12658 69 185 0
0.591391 -0.114118 -0.126743 92 162 0
0.5911 -0.109272 -0.126793 115 139 0
0.590988 -0.104418 -0.126698 139 115 0
0.590579 -0.0995894 -0.126397 162 92 0
0.590233 -0.0947618 -0.126008 185 69 0
0.589919 -0.0899376 -0.125552 208 46 0
0.5896 -0.0851222 -0.125017 231 23 0
0.589007 -0.0803685 -0.124236 255 0 0
