ply
format ascii 1.0
comment Generated by robot_control PLYWriter
element vertex 205
property float x
property float y
property float z
property uchar red
property uchar green
property uchar blue
end_header
0.587916 -0.368578 -0.0887106 0 255 0
0.591859 -0.370565 -0.0879327 1 253 0
0.594461 -0.37377 -0.0873745 2 252 0
0.597066 -0.377417 -0.0866484 3 251 0
0.597043 -0.383141 -0.0863705 5 250 0
0.594617 -0.386891 -0.0867427 6 248 0
0.590794 -0.390445 -0.0878892 7 247 0
0.585953 -0.391919 -0.0891166 8 246 0
0.580547 -0.392097 -0.090522 10 245 0
0.575688 -0.388924 -0.091526 11 243 0
0.571698 -0.385482 -0.0927916 12 242 0
0.569648 -0.380265 -0.0936941 13 241 0
0.567909 -0.374632 -0.0943588 15 240 0
0.56997 -0.369344 -0.0946926 16 238 0
0.571953 -0.364045 -0.0944967 17 237 0
0.576433 -0.360833 -0.0936704 18 236 0
0.581288 -0.35831 -0.0922035 20 235 0
0.586983 -0.357794 -0.0908793 21 233 0
0.592057 -0.35989 -0.0893704 22 232 0
0.596377 -0.363748 -0.0883141 23 231 0
0.597122 -0.368987 -0.0877657 25 230 0
0.59688 -0.374805 -0.0875073 26 228 0
0.592354 -0.378671 -0.0877734 27 227 0
0.586917 -0.380698 -0.0885678 28 226 0
0.581882 -0.38205 -0.089722 30 225 0
0.577305 -0.378688 -0.0913137 31 223 0
0.573226 -0.37537 -0.0926305 32 222 0
0.570225 -0.370389 -0.0939248 33 221 0
0.56854 -0.365263 -0.094907 35 220 0
0.570343 -0.359619 -0.0956181 36 218 0
0.573033 -0.354257 -0.0955834 37 217 0
0.576962 -0.349855 -0.0948399 38 216 0
0.582177 -0.347024 -0.0939008 40 215 0
0.586973 -0.348624 -0.0927692 41 213 0
0.592551 -0.349272 -0.091367 42 212 0
0.596135 -0.353568 -0.0901692 43 211 0
0.598291 -0.35873 -0.0892461 45 210 0
0.596658 -0.36439 -0.0888866 46 208 0
0.592067 -0.36818 -0.0891627 47 207 0
0.586908 -0.37078 -0.0902075 48 206 0
0.581042 -0.370628 -0.0914211 50 205 0
0.575991 -0.368189 -0.0930549 51 203 0
0.572259 -0.363995 -0.0945967 52 202 0
0.569709 -0.358709 -0.0957535 53 201 0
0.56869 -0.353091 -0.0964736 55 200 0
0.570841 -0.347754 -0.0970271 56 198 0
0.574002 -0.342666 -0.0968394 57 197 0
0.578189 -0.338436 -0.0963388 58 196 0
0.583671 -0.336422 -0.0955109 60 195 0
0.589381 -0.337801 -0.0942751 61 193 0
0.59449 -0.340695 -0.093166 62 192 0
0.597802 -0.345369 -0.0917479 63 191 0
0.598434 -0.351158 -0.0909909 65 189 0
0.595455 -0.356113 -0.0908636 66 188 0
0.590679 -0.359465 -0.0915349 67 187 0
0.584936 -0.360448 -0.0926439 68 186 0
0.579143 -0.359799 -0.093774 70 185 0
0.574703 -0.356522 -0.0950105 71 183 0
0.571584 -0.351543 -0.0962023 72 182 0
0.570941 -0.345804 -0.0971965 73 181 0
0.570963 -0.339822 -0.0978084 75 179 0
0.572803 -0.334341 -0.0980407 76 178 0
0.577223 -0.330529 -0.0977826 77 177 0
0.582258 -0.327272 -0.0973375 78 176 0
0.587895 -0.327498 -0.0962659 80 175 0
0.593358 -0.328752 -0.0949232 81 173 0
0.596864 -0.333533 -0.0939669 82 172 0
0.598502 -0.339047 -0.0931778 83 171 0
0.597938 -0.344728 -0.0929113 85 169 0
0.593644 -0.348584 -0.0933162 86 168 0
0.588421 -0.350662 -0.0940794 87 167 0
0.582525 -0.350323 -0.0949022 88 166 0
0.577559 -0.347247 -0.0961634 90 165 0
0.573163 -0.343296 -0.0972077 91 163 0
0.571201 -0.337844 -0.0979981 92 162 0
0.571099 -0.331893 -0.0986764 93 161 0
0.571236 -0.326125 -0.0989567 95 159 0
0.575702 -0.322117 -0.0988468 96 158 0
0.580698 -0.319022 -0.0983131 97 157 0
0.586196 -0.316686 -0.0976361 98 156 0
0.591965 -0.317314 -0.0966135 100 155 0
0.596399 -0.320756 -0.0956897 101 153 0
0.598477 -0.326237 -0.0948598 102 152 0
0.598989 -0.33211 -0.094561 103 151 0
0.595487 -0.336101 -0.0947767 105 149 0
0.590661 -0.339579 -0.0953384 106 148 0
0.584877 -0.340494 -0.0963283 107 147 0
0.579483 -0.338363 -0.097267 108 146 0
0.57473 -0.334767 -0.0980127 110 145 0
0.57266 -0.329243 -0.0986354 111 143 0
0.570773 -0.323678 -0.0993668 112 142 0
0.57111 -0.317746 -0.0997662 113 141 0
0.574246 -0.312803 -0.0999551 115 139 0
0.579044 -0.309271 -0.0997622 116 138 0
0.584594 -0.307054 -0.0991375 117 137 0
0.590524 -0.306613 -0.0984355 118 136 0
0.595367 -0.309484 -0.0974925 120 135 0
0.598548 -0.314524 -0.096755 121 133 0
0.598728 -0.320307 -0.0965296 122 132 0
0.596171 -0.325742 -0.0966741 123 131 0
0.591344 -0.329239 -0.0970889 125 129 0
0.585942 -0.329757 -0.0975174 126 128 0
0.580219 -0.328342 -0.0981531 127 127 0
0.575451 -0.325257 -0.0989139 128 126 0
0.572331 -0.320205 -0.099612 130 124 0
0.570971 -0.31437 -0.100097 131 123 0
0.571151 -0.308482 -0.100445 132 122 0
0.574585 -0.303562 -0.1005 133 121 0
0.579024 -0.299524 -0.100286 135 119 0
0.584359 -0.296907 -0.0999259 136 118 0
0.590292 -0.296346 -0.0995092 137 117 0
0.595565 -0.298979 -0.0988432 138 116 0
0.59862 -0.302767 -0.0982227 140 114 0
0.600675 -0.308196 -0.0978276 141 113 0
0.598101 -0.313302 -0.0977276 142 112 0
0.59438 -0.317701 -0.0979671 143 111 0
0.588855 -0.320025 -0.0983378 145 109 0
0.583101 -0.318793 -0.0987458 146 108 0
0.577709 -0.316203 -0.0992375 147 107 0
0.573502 -0.312311 -0.0997531 148 106 0
0.571502 -0.306698 -0.100301 150 104 0
0.572386 -0.30117 -0.100837 151 103 0
0.572436 -0.295203 -0.101027 152 102 0
0.576953 -0.291562 -0.101056 153 101 0
0.581598 -0.287905 -0.100819 155 99 0
0.587107 -0.285583 -0.100431 156 98 0
0.592759 -0.286152 -0.100018 157 97 0
0.597128 -0.290041 -0.0995979 158 96 0
0.600095 -0.295261 -0.0992775 160 94 0
0.600526 -0.300928 -0.0990418 161 93 0
0.597049 -0.305472 -0.0990743 162 92 0
0.59152 -0.307818 -0.0993221 163 91 0
0.585594 -0.308422 -0.099715 165 89 0
0.579998 -0.30704 -0.100211 166 88 0
0.575767 -0.302881 -0.100658 167 87 0
0.57242 -0.298054 -0.101067 168 86 0
0.57244 -0.292052 -0.10142 170 84 0
0.573657 -0.286379 -0.101618 171 83 0
0.576741 -0.281218 -0.101632 172 82 0
0.580385 -0.27645 -0.101449 173 81 0
0.586333 -0.276097 -0.101113 175 79 0
0.592112 -0.276669 -0.100719 176 78 0
0.597338 -0.279387 -0.100184 177 77 0
0.600962 -0.284135 -0.0997409 178 76 0
0.600105 -0.289878 -0.0994874 180 74 0
0.598505 -0.2954 -0.099442 181 73 0
0.593688 -0.298671 -0.0996407 182 72 0
0.587695 -0.29888 -0.100042 183 71 0
0.581885 -0.29783 -0.100504 185 69 0
0.576917 -0.294502 -0.100956 186 68 0
0.573289 -0.289878 -0.101442 187 67 0
0.572377 -0.284106 -0.102037 188 66 0
0.572803 -0.278182 -0.102423 190 64 0
0.57572 -0.272956 -0.102725 191 63 0
0.579794 -0.268559 -0.10282 192 62 0
0.584955 -0.265586 -0.102622 193 61 0
0.590826 -0.264797 -0.102317 195 59 0
0.596274 -0.267104 -0.101841 196 58 0
0.601035 -0.270634 -0.101277 197 57 0
0.600987 -0.276623 -0.100746 198 56 0
0.599917 -0.282332 -0.100343 200 54 0
0.595745 -0.286483 -0.100331 201 53 0
0.590494 -0.288314 -0.100516 202 52 0
0.584614 -0.287976 -0.10096 203 51 0
0.579462 -0.28495 -0.101569 205 49 0
0.575937 -0.280249 -0.102251 206 48 0
0.572996 -0.275047 -0.102683 207 47 0
0.573294 -0.269374 -0.103161 208 46 0
0.574791 -0.263729 -0.10354 210 44 0
0.578153 -0.259126 -0.103959 211 43 0
0.58318 -0.256756 -0.104224 212 42 0
0.588641 -0.254705 -0.104188 213 41 0
0.594355 -0.255602 -0.103864 215 39 0
0.599261 -0.259007 -0.103317 216 38 0
0.60164 -0.264039 -0.102489 217 37 0
0.601009 -0.269268 -0.101795 218 36 0
0.598774 -0.27433 -0.101404 220 34 0
0.593864 -0.277216 -0.1013 221 33 0
0.588136 -0.278613 -0.10154 222 32 0
0.583028 -0.276645 -0.102034 223 31 0
0.578351 -0.273023 -0.102568 225 29 0
0.574792 -0.268572 -0.103086 226 28 0
0.57377 -0.262819 -0.103524 227 27 0
0.574797 -0.25842 -0.103922 228 26 0
0.574809 -0.252425 -0.104368 230 24 0
0.579784 -0.249379 -0.104801 231 23 0
0.584228 -0.245727 -0.105301 232 22 0
0.589933 -0.244486 -0.105679 233 21 0
0.595592 -0.245458 -0.105696 235 19 0
0.598927 -0.248672 -0.105294 236 18 0
0.601936 -0.253473 -0.104646 237 17 0
0.602217 -0.259036 -0.103774 238 16 0
0.59868 -0.263465 -0.103078 240 14 0
0.594289 -0.266253 -0.102903 241 13 0
0.59052 -0.268644 -0.10304 242 12 0
0.584739 -0.267732 -0.103388 243 11 0
0.580002 -0.264308 -0.103672 245 9 0
0.577189 -0.260256 -0.103844 246 8 0
0.574839 -0.256635 -0.104028 247 7 0
0.574765 -0.250723 -0.10441 248 6 0
0.574783 -0.244828 -0.104845 250 4 0
0.577142 -0.241296 -0.105176 251 3 0
0.578835 -0.237932 -0.105344 252 2 0
0.582992 -0.236198 -0.105738 253 1 0
0.588339 -0.234885 -0.106142 255 0 0
