ply
format ascii 1.0
comment Generated by robot_control PLYWriter
element vertex 35
property float x
property float y
property float z
property uchar red
property uchar green
property uchar blue
end_header
0.579002 0.118081 -0.163991 0 255 0
0.583169 0.116755 -0.162791 7 247 0
0.586682 0.113564 -0.16076 15 240 0
0.586687 0.108324 -0.15866 22 232 0
0.58365 0.104711 -0.157548 30 225 0
0.57833 0.102803 -0.157486 37 217 0
0.57322 0.104341 -0.15907 45 210 0
0.569805 0.109039 -0.160834 52 202 0
0.569285 0.114522 -0.162982 60 195 0
0.570837 0.119379 -0.165194 67 187 0
0.575723 0.122876 -0.165942 75 179 0
0.580889 0.125905 -0.166209 82 172 0
0.586523 0.124613 -0.165677 90 165 0
0.590958 0.120688 -0.164543 97 157 0
0.592718 0.115704 -0.162957 105 149 0
0.589976 0.111301 -0.16185 112 142 0
0.584742 0.109555 -0.16169 120 135 0
0.579002 0.111116 -0.162477 127 127 0
0.574896 0.114957 -0.164418 135 119 0
0.57454 0.120593 -0.166294 142 112 0
0.576197 0.126132 -0.167828 150 104 0
0.581009 0.129586 -0.168842 157 97 0
0.586833 0.13083 -0.169584 165 89 0
0.592873 0.130408 -0.169499 172 82 0
0.596381 0.12666 -0.16838 180 74 0
0.598876 0.122093 -0.166382 187 67 0
0.596496 0.117414 -0.164547 195 59 0
0.591243 0.115045 -0.163807 202 52 0
0.585644 0.116719 -0.16422 210 44 0
0.582287 0.120456 -0.165868 217 37 0
0.580143 0.125057 -0.168234 225 29 0
0.58133 0.128858 -0.170837 232 22 0
0.583108 0.13359 -0.173285 240 14 0
0.586782 0.135815 -0.175312 247 7 0
0.591995 0.136585 -0.175679 255 0 0
