ply
format ascii 1.0
comment Generated by robot_control PLYWriter
element vertex 28
property float x
property float y
property float z
property uchar red
property uchar green
property uchar blue
end_header
0.682512 0.0676584 -0.160286 0 255 0
0.687141 0.067644 -0.1609 9 245 0
0.690297 0.0645498 -0.16062 18 236 0
0.692151 0.0596649 -0.159111 28 226 0
0.692167 0.0545514 -0.156786 37 217 0
0.687911 0.0508615 -0.155097 47 207 0
0.682558 0.0488522 -0.153849 56 198 0
0.676847 0.0478855 -0.152817 66 188 0
0.671782 0.0508239 -0.152178 75 179 0
0.667315 0.0546471 -0.152052 85 169 0
0.665004 0.0599549 -0.152419 94 160 0
0.663867 0.064571 -0.153394 103 151 0
0.665793 0.0698475 -0.15488 113 141 0
0.669732 0.0740878 -0.156017 122 132 0
0.67479 0.0761732 -0.157193 132 122 0
0.679834 0.0736232 -0.157824 141 113 0
0.682179 0.0682586 -0.157736 151 103 0
0.682727 0.0628969 -0.156882 160 94 0
0.679078 0.0586707 -0.155899 170 84 0
0.673617 0.0570743 -0.15471 179 75 0
0.668469 0.0564066 -0.15363 188 66 0
0.662816 0.0567725 -0.152796 198 56 0
0.659104 0.0612137 -0.152317 207 47 0
0.656113 0.0662482 -0.152357 217 37 0
0.655146 0.0717047 -0.152773 226 28 0
0.656278 0.0772403 -0.153383 236 18 0
0.659549 0.0807594 -0.15415 245 9 0
0.663745 0.0834288 -0.155309 255 0 0
