ply
format ascii 1.0
comment Generated by robot_control PLYWriter
element vertex 66
property float x
property float y
property float z
property uchar red
property uchar green
property uchar blue
end_header
0.627735 -0.125977 -0.118389 0 255 0
0.631844 -0.129112 -0.117772 3 251 0
0.634655 -0.133166 -0.11798 7 247 0
0.634807 -0.139109 -0.118608 11 243 0
0.633967 -0.14474 -0.119953 15 239 0
0.631359 -0.149053 -0.121414 19 235 0
0.62708 -0.152306 -0.123312 23 231 0
0.621364 -0.152356 -0.124961 27 227 0
0.616164 -0.150995 -0.126492 31 223 0
0.612456 -0.147172 -0.127049 35 219 0
0.610676 -0.141735 -0.126601 39 215 0
0.613941 -0.137057 -0.125411 43 211 0
0.618343 -0.134248 -0.123645 47 207 0
0.624122 -0.134124 -0.122176 51 204 0
0.628602 -0.137686 -0.121403 54 200 0
0.63218 -0.142116 -0.121157 58 196 0
0.634013 -0.147369 -0.121671 62 192 0
0.632281 -0.152871 -0.122692 66 188 0
0.629329 -0.15788 -0.123988 70 184 0
0.624425 -0.160781 -0.125265 74 180 0
0.619224 -0.161599 -0.126628 78 176 0
0.614094 -0.160174 -0.127782 82 172 0
0.610574 -0.155475 -0.128218 86 168 0
0.61058 -0.149639 -0.127755 90 164 0
0.612734 -0.145088 -0.1267 94 160 0
0.617721 -0.142552 -0.125511 98 156 0
0.623433 -0.143541 -0.124635 102 153 0
0.627759 -0.147496 -0.124025 105 149 0
0.630546 -0.152653 -0.124018 109 145 0
0.630963 -0.158526 -0.12456 113 141 0
0.629937 -0.164162 -0.125469 117 137 0
0.625904 -0.168174 -0.126639 121 133 0
0.620654 -0.170759 -0.127825 125 129 0
0.614909 -0.170965 -0.129441 129 125 0
0.610238 -0.167505 -0.130017 133 121 0
0.608354 -0.161977 -0.130197 137 117 0
0.608278 -0.156037 -0.129595 141 113 0
0.612045 -0.152348 -0.128739 145 109 0
0.617538 -0.150915 -0.12752 149 105 0
0.622971 -0.153164 -0.126605 153 101 0
0.625979 -0.157886 -0.126132 156 98 0
0.628635 -0.163103 -0.126198 160 94 0
0.628742 -0.16901 -0.126987 164 90 0
0.62714 -0.174538 -0.127915 168 86 0
0.622302 -0.177711 -0.129265 172 82 0
0.616844 -0.178434 -0.13101 176 78 0
0.611187 -0.17742 -0.132312 180 74 0
0.606914 -0.174041 -0.132925 184 70 0
0.605492 -0.168598 -0.132826 188 66 0
0.607559 -0.16357 -0.132044 192 62 0
0.612354 -0.160966 -0.13031 196 58 0
0.618037 -0.16082 -0.128529 200 54 0
0.623473 -0.163056 -0.127758 204 50 0
0.626457 -0.167949 -0.127308 207 47 0
0.627576 -0.173699 -0.12746 211 43 0
0.626221 -0.179105 -0.128429 215 39 0
0.62325 -0.183983 -0.129908 219 35 0
0.618865 -0.186814 -0.132125 223 31 0
0.61395 -0.187949 -0.133871 227 27 0
0.608672 -0.1868 -0.135512 231 23 0
0.605108 -0.182537 -0.136679 235 19 0
0.602696 -0.178447 -0.136582 239 15 0
0.60494 -0.173624 -0.135946 243 11 0
0.607438 -0.170697 -0.134063 247 7 0
0.610702 -0.168553 -0.133019 251 3 0
0.61488 -0.16844 -0.130754 255 0 0
