ply
format ascii 1.0
comment Generated by robot_control PLYWriter
element vertex 10
property float x
property float y
property float z
property uchar red
property uchar green
property uchar blue
end_header
0.662756 -0.0657133 -0.0383154 0 255 0
0.663467 -0.0708 -0.0387985 28 226 0
0.663808 -0.0759342 -0.0393211 56 198 0
0.664117 -0.0810956 -0.039289 85 169 0
0.664513 -0.0862511 -0.039171 113 141 0
0.664538 -0.0914152 -0.0394559 141 113 0
0.664645 -0.096546 -0.0400993 170 84 0
0.664755 -0.101672 -0.0407806 198 56 0
0.664806 -0.106826 -0.041205 226 28 0
0.664889 -0.111967 -0.0416703 255 0 0
