ply
format ascii 1.0
comment Generated by robot_control PLYWriter
element vertex 32
property float x
property float y
property float z
property uchar red
property uchar green
property uchar blue
end_header
0.588149 0.0768278 -0.148314 0 255 0
0.592482 0.075563 -0.145476 8 246 0
0.595225 0.0711603 -0.142973 16 238 0
0.595155 0.0658137 -0.140586 24 230 0
0.595061 0.0602102 -0.138743 32 222 0
0.592504 0.0554494 -0.137342 41 213 0
0.588268 0.0514302 -0.13672 49 205 0
0.583224 0.0484656 -0.136592 57 197 0
0.57754 0.047654 -0.137029 65 189 0
0.571832 0.0483381 -0.138247 74 180 0
0.5667 0.0506648 -0.140001 82 172 0
0.563046 0.0545771 -0.142122 90 164 0
0.56172 0.0600777 -0.143471 98 156 0
0.563881 0.0654282 -0.144693 106 148 0
0.568007 0.0692871 -0.145196 115 139 0
0.573552 0.0712165 -0.145089 123 131 0
0.579006 0.0697664 -0.144131 131 123 0
0.583501 0.0663683 -0.14249 139 115 0
0.586622 0.0619193 -0.140774 148 106 0
0.586354 0.0562466 -0.139282 156 98 0
0.584093 0.0510865 -0.137666 164 90 0
0.580452 0.0465997 -0.136551 172 82 0
0.576536 0.0422235 -0.135884 180 74 0
0.571383 0.0407789 -0.135613 189 65 0
0.565512 0.0407998 -0.136094 197 57 0
0.559932 0.0421682 -0.137114 205 49 0
0.555691 0.0457383 -0.138697 213 41 0
0.552985 0.0497498 -0.140776 222 32 0
0.553076 0.0551565 -0.14298 230 24 0
0.556854 0.0592186 -0.144883 238 16 0
0.560844 0.0625507 -0.146081 246 8 0
0.566293 0.0625144 -0.146268 255 0 0
