ply
format ascii 1.0
comment Generated by robot_control PLYWriter
element vertex 8
property float x
property float y
property float z
property uchar red
property uchar green
property uchar blue
end_header
0.690297 -0.0176453 -0.1028 0 255 0
0.689648 -0.0227674 -0.103093 36 218 0
0.689307 -0.0279252 -0.103274 72 182 0
0.688952 -0.0330805 -0.103491 109 145 0
0.688681 -0.0382432 -0.103638 145 109 0
0.688662 -0.0434145 -0.103717 182 72 0
0.688391 -0.0485778 -0.103849 218 36 0
0.688217 -0.0537442 -0.10399 255 0 0
