ply
format ascii 1.0
comment Generated by robot_control PLYWriter
element vertex 13
property float x
property float y
property float z
property uchar red
property uchar green
property uchar blue
end_header
0.608644 0.0704119 -0.142691 0 255 0
0.607797 0.0755291 -0.142882 21 233 0
0.606665 0.0805931 -0.143083 42 212 0
0.605676 0.0856803 -0.143366 63 191 0
0.604663 0.0907461 -0.143857 85 169 0
0.603591 0.095786 -0.144494 106 148 0
0.602624 0.100833 -0.145241 127 127 0
0.601664 0.105857 -0.146132 148 106 0
0.600689 0.110849 -0.147179 170 84 0
0.599815 0.115841 -0.148309 191 63 0
0.598888 0.120811 -0.149489 212 42 0
0.59802 0.125784 -0.150694 233 21 0
0.596939 0.130712 -0.151904 255 0 0
