ply
format ascii 1.0
comment Generated by robot_control PLYWriter
element vertex 48
property float x
property float y
property float z
property uchar red
property uchar green
property uchar blue
end_header
0.64504 0.205387 -0.146434 0 255 0
0.649481 0.202626 -0.145219 5 249 0
0.652633 0.198308 -0.143831 10 244 0
0.654045 0.193126 -0.142137 16 238 0
0.655684 0.188758 -0.14068 21 233 0
0.654547 0.183937 -0.139345 27 227 0
0.65076 0.17996 -0.137958 32 222 0
0.646789 0.175753 -0.137227 37 217 0
0.641149 0.174694 -0.1369 43 211 0
0.635487 0.176041 -0.137055 48 206 0
0.631727 0.180404 -0.137755 54 200 0
0.628589 0.184941 -0.139148 59 195 0
0.6298 0.190542 -0.140416 65 189 0
0.632295 0.195821 -0.141359 70 184 0
0.637167 0.199089 -0.141802 75 179 0
0.643084 0.199563 -0.142046 81 173 0
0.649038 0.199541 -0.142006 86 168 0
0.653346 0.196331 -0.141595 92 162 0
0.658046 0.192878 -0.140928 97 157 0
0.660683 0.187875 -0.139889 103 151 0
0.661893 0.182326 -0.138704 108 146 0
0.659936 0.176801 -0.137657 113 141 0
0.656819 0.172114 -0.1367 119 135 0
0.65145 0.169709 -0.136006 124 130 0
0.645539 0.16946 -0.135804 130 124 0
0.640353 0.171416 -0.13605 135 119 0
0.637116 0.176209 -0.136703 141 113 0
0.635289 0.181625 -0.137804 146 108 0
0.637046 0.18698 -0.138582 151 103 0
0.641403 0.190557 -0.139366 157 97 0
0.647091 0.192223 -0.139881 162 92 0
0.653036 0.192267 -0.14005 168 86 0
0.658845 0.191459 -0.139851 173 81 0
0.663628 0.188151 -0.13922 179 75 0
0.667091 0.183389 -0.138435 184 70 0
0.668694 0.177923 -0.137178 189 65 0
0.667237 0.172415 -0.135855 195 59 0
0.664568 0.167268 -0.134577 200 54 0
0.66023 0.163433 -0.133489 206 48 0
0.654497 0.162178 -0.133023 211 43 0
0.649125 0.164412 -0.133046 217 37 0
0.644715 0.168124 -0.133631 222 32 0
0.642541 0.172635 -0.135005 227 27 0
0.642762 0.178408 -0.136403 233 21 0
0.645468 0.182658 -0.137898 238 16 0
0.648566 0.185524 -0.139152 244 10 0
0.6534 0.187732 -0.139884 249 5 0
0.659055 0.187732 -0.140302 255 0 0
