ply
format ascii 1.0
comment Generated by robot_control PLYWriter
element vertex 12
property float x
property float y
property float z
property uchar red
property uchar green
property uchar blue
end_header
0.697978 0.0872572 -0.118748 0 255 0
0.698122 0.0919616 -0.120398 23 231 0
0.698329 0.0966847 -0.121986 46 208 0
0.698572 0.101413 -0.123554 69 185 0
0.698781 0.106147 -0.12511 92 162 0
0.698929 0.110898 -0.126621 115 139 0
0.69913 0.115657 -0.128099 139 115 0
0.69945 0.120412 -0.129569 162 92 0
0.6997 0.125151 -0.131103 185 69 0
0.700103 0.129864 -0.132683 208 46 0
0.700511 0.134579 -0.134256 231 23 0
0.701001 0.139272 -0.135871 255 0 0
