ply
format ascii 1.0
comment Generated by robot_control PLYWriter
element vertex 89
property float x
property float y
property float z
property uchar red
property uchar green
property uchar blue
end_header
0.700007 -0.152583 -0.0208371 0 255 0
0.704907 -0.154597 -0.0213858 2 252 0
0.70846 -0.157923 -0.0216724 5 249 0
0.711023 -0.162876 -0.0215106 8 246 0
0.711027 -0.1677 -0.0209572 11 243 0
0.709999 -0.173451 -0.0200067 14 240 0
0.705665 -0.176764 -0.0188901 17 237 0
0.700318 -0.178945 -0.017535 20 234 0
0.695175 -0.179722 -0.0166172 23 231 0
0.689543 -0.17808 -0.0160646 26 228 0
0.684876 -0.174379 -0.015856 28 226 0
0.681413 -0.169572 -0.0160731 31 223 0
0.678863 -0.164155 -0.0164601 34 220 0
0.678368 -0.158225 -0.0170779 37 217 0
0.680065 -0.152962 -0.0178864 40 214 0
0.683191 -0.147983 -0.0187599 43 211 0
0.687872 -0.144339 -0.0195616 46 208 0
0.693376 -0.142356 -0.0203736 49 205 0
0.699228 -0.142559 -0.0210391 52 202 0
0.704631 -0.145149 -0.0213564 55 199 0
0.708238 -0.149341 -0.0214272 57 197 0
0.710562 -0.15486 -0.0212106 60 194 0
0.710548 -0.160824 -0.0205705 63 191 0
0.707421 -0.165404 -0.0198873 66 188 0
0.702495 -0.168728 -0.0191621 69 185 0
0.696913 -0.170481 -0.0185218 72 182 0
0.691139 -0.169163 -0.0180941 75 179 0
0.685761 -0.166607 -0.017767 78 176 0
0.681037 -0.162918 -0.0176763 81 173 0
0.678818 -0.157372 -0.017832 84 170 0
0.678481 -0.151455 -0.0183493 86 168 0
0.678894 -0.145525 -0.0188821 89 165 0
0.68121 -0.14008 -0.0195655 92 162 0
0.685357 -0.135866 -0.020328 95 159 0
0.690654 -0.133299 -0.0210294 98 156 0
0.696523 -0.132377 -0.0215968 101 153 0
0.702093 -0.134039 -0.0219793 104 150 0
0.706959 -0.137478 -0.0221606 107 147 0
0.708823 -0.143056 -0.0220856 110 144 0
0.710986 -0.148601 -0.0217444 113 141 0
0.70806 -0.15381 -0.0211834 115 139 0
0.704056 -0.158074 -0.0206856 118 136 0
0.698767 -0.160187 -0.0202091 121 133 0
0.69281 -0.160597 -0.0197442 124 130 0
0.687255 -0.159093 -0.0193549 127 127 0
0.682983 -0.15494 -0.0192496 130 124 0
0.679627 -0.149975 -0.0193334 133 121 0
0.677205 -0.144536 -0.0196282 136 118 0
0.677821 -0.138863 -0.020079 139 115 0
0.678714 -0.133042 -0.0208626 141 113 0
0.682297 -0.128464 -0.0216296 144 110 0
0.687269 -0.125212 -0.0223383 147 107 0
0.692657 -0.122613 -0.0228194 150 104 0
0.6985 -0.123866 -0.0232768 153 101 0
0.704032 -0.125569 -0.0236479 156 98 0
0.707843 -0.130111 -0.0237011 159 95 0
0.708851 -0.135793 -0.0234077 162 92 0
0.708929 -0.141771 -0.0229331 165 89 0
0.706337 -0.146827 -0.0222523 168 86 0
0.700939 -0.149351 -0.021542 170 84 0
0.695223 -0.150467 -0.0209425 173 81 0
0.689239 -0.150381 -0.0205007 176 78 0
0.683548 -0.148575 -0.0203561 179 75 0
0.680966 -0.143437 -0.0203507 182 72 0
0.678301 -0.138074 -0.0205913 185 69 0
0.676212 -0.132669 -0.0210948 188 66 0
0.67694 -0.126949 -0.0216943 191 63 0
0.679921 -0.121839 -0.0226473 194 60 0
0.683151 -0.116878 -0.0235691 197 57 0
0.688361 -0.114257 -0.0243999 199 55 0
0.69425 -0.114123 -0.0253721 202 52 0
0.700228 -0.114206 -0.0258536 205 49 0
0.704706 -0.117841 -0.0259662 208 46 0
0.708453 -0.122491 -0.0257287 211 43 0
0.708692 -0.128377 -0.0251489 214 40 0
0.707163 -0.133879 -0.0243306 217 37 0
0.703558 -0.13831 -0.023032 220 34 0
0.698588 -0.140752 -0.0218814 223 31 0
0.693158 -0.141522 -0.0209905 226 28 0
0.687436 -0.140124 -0.0205295 228 26 0
0.682912 -0.136463 -0.020492 231 23 0
0.678862 -0.132683 -0.0207891 234 20 0
0.676439 -0.127457 -0.0213325 237 17 0
0.676473 -0.121558 -0.0223012 240 14 0
0.67642 -0.115646 -0.0232767 243 11 0
0.679006 -0.111273 -0.024585 246 8 0
0.682661 -0.1083 -0.0259354 249 5 0
0.686915 -0.105853 -0.0272686 252 2 0
0.690655 -0.104254 -0.0287175 255 0 0
