ply
format ascii 1.0
comment Generated by robot_control PLYWriter
element vertex 10
property float x
property float y
property float z
property uchar red
property uchar green
property uchar blue
end_header
0.533056 -0.328837 -0.102983 0 255 0
0.533515 -0.323655 -0.103783 28 226 0
0.533961 -0.318444 -0.104372 56 198 0
0.534425 -0.313234 -0.104946 85 169 0
0.535067 -0.308029 -0.105422 113 141 0
0.53561 -0.302807 -0.105814 141 113 0
0.536148 -0.297585 -0.106209 170 84 0
0.536734 -0.292377 -0.106713 198 56 0
0.53723 -0.28716 -0.107218 226 28 0
0.537854 -0.281984 -0.107872 255 0 0
