ply
format ascii 1.0
comment Generated by robot_control PLYWriter
element vertex 86
property float x
property float y
property float z
property uchar red
property uchar green
property uchar blue
end_header
0.585444 -0.262996 -0.0877962 0 255 0
0.588358 -0.266118 -0.0876574 3 252 0
0.591468 -0.269479 -0.0875749 6 249 0
0.593039 -0.274672 -0.0877129 9 246 0
0.592993 -0.280538 -0.0881955 12 243 0
0.59064 -0.285357 -0.0888212 15 240 0
0.586793 -0.288405 -0.0896863 18 237 0
0.581898 -0.291226 -0.0904996 21 234 0
0.57657 -0.291942 -0.0910852 24 231 0
0.570842 -0.290367 -0.0912797 27 228 0
0.568257 -0.285718 -0.091165 30 225 0
0.566458 -0.280436 -0.0907862 33 222 0
0.567803 -0.275149 -0.0900958 36 219 0
0.572424 -0.271395 -0.0894427 39 216 0
0.578252 -0.271039 -0.0889583 42 213 0
0.584032 -0.271511 -0.0886994 45 210 0
0.588686 -0.275261 -0.0886942 48 207 0
0.590624 -0.28073 -0.0889173 51 204 0
0.590657 -0.286745 -0.0892653 54 201 0
0.590272 -0.292704 -0.0897925 57 198 0
0.586514 -0.296764 -0.0904137 60 195 0
0.582054 -0.300493 -0.0909487 63 192 0
0.576445 -0.302192 -0.0915133 66 189 0
0.571065 -0.299909 -0.0917817 69 185 0
0.566665 -0.296765 -0.0918896 72 183 0
0.564872 -0.291325 -0.0917307 75 179 0
0.565531 -0.28549 -0.0913936 78 177 0
0.569154 -0.280894 -0.0909239 81 173 0
0.574748 -0.279536 -0.090527 84 171 0
0.579843 -0.280246 -0.0902671 87 167 0
0.584484 -0.284021 -0.0901605 90 165 0
0.587982 -0.288855 -0.0902285 93 161 0
0.589831 -0.294574 -0.0904092 96 159 0
0.588301 -0.300374 -0.0906809 99 155 0
0.585559 -0.305616 -0.0910882 102 153 0
0.580768 -0.308564 -0.0916572 105 149 0
0.575409 -0.310793 -0.0921118 108 147 0
0.569905 -0.309234 -0.0923989 111 143 0
0.564647 -0.306678 -0.0925909 114 141 0
0.562759 -0.301004 -0.0925909 117 137 0
0.564117 -0.295337 -0.092491 120 135 0
0.568085 -0.290989 -0.0920772 123 131 0
0.573481 -0.288937 -0.0917027 126 129 0
0.578863 -0.291586 -0.091418 129 125 0
0.584141 -0.294484 -0.0913122 132 122 0
0.587094 -0.299474 -0.0914096 135 119 0
0.587946 -0.305228 -0.0916154 138 116 0
0.585789 -0.310844 -0.0919589 141 113 0
0.583026 -0.316175 -0.0923071 144 110 0
0.57803 -0.319383 -0.0927804 147 107 0
0.572231 -0.320747 -0.0932 150 104 0
0.56695 -0.31914 -0.0935737 153 101 0
0.562518 -0.315134 -0.0937575 156 98 0
0.560729 -0.309662 -0.0937187 159 95 0
0.561496 -0.30379 -0.0934556 162 92 0
0.566196 -0.300122 -0.0930181 165 89 0
0.571979 -0.298681 -0.0926491 168 86 0
0.57773 -0.300086 -0.0922878 171 83 0
0.581743 -0.304347 -0.0920278 174 80 0
0.584723 -0.309562 -0.0920212 177 77 0
0.585272 -0.315457 -0.0922546 180 74 0
0.583878 -0.321114 -0.092637 183 71 0
0.579708 -0.325271 -0.0932407 186 68 0
0.575067 -0.328704 -0.0938114 189 65 0
0.569074 -0.328591 -0.0942747 192 62 0
0.563734 -0.326769 -0.0947791 195 59 0
0.559709 -0.322459 -0.0949362 198 56 0
0.558559 -0.316718 -0.0947606 201 53 0
0.561438 -0.311855 -0.094263 204 50 0
0.56623 -0.308401 -0.0936944 207 47 0
0.572199 -0.308084 -0.0931021 210 44 0
0.576903 -0.311005 -0.092473 213 41 0
0.582257 -0.313662 -0.0920046 216 38 0
0.582932 -0.31933 -0.0913793 219 35 0
0.584899 -0.324837 -0.0906741 222 32 0
0.58212 -0.329748 -0.0900155 225 29 0
0.578873 -0.334693 -0.0895259 228 26 0
0.573696 -0.33764 -0.0896263 231 23 0
0.568067 -0.338358 -0.090499 234 20 0
0.562831 -0.336617 -0.0921256 237 17 0
0.558569 -0.333914 -0.0944277 240 14 0
0.556734 -0.328603 -0.0955775 243 11 0
0.558524 -0.324107 -0.0958214 246 8 0
0.561586 -0.319886 -0.0949186 249 5 0
0.566552 -0.318394 -0.0939225 252 2 0
0.571173 -0.317447 -0.0935676 255 0 0
