ply
format ascii 1.0
comment Generated by robot_control PLYWriter
element vertex 32
property float x
property float y
property float z
property uchar red
property uchar green
property uchar blue
end_header
0.602255 0.10546 -0.114507 0 255 0
0.606339 0.102551 -0.113424 8 246 0
0.608532 0.0978298 -0.112449 16 238 0
0.60819 0.0919062 -0.111718 24 230 0
0.604618 0.0870191 -0.111292 32 222 0
0.600192 0.0829075 -0.111486 41 213 0
0.594809 0.0802485 -0.112267 49 205 0
0.589292 0.0811181 -0.113398 57 197 0
0.583615 0.0806515 -0.114941 65 189 0
0.579071 0.0845007 -0.116135 74 180 0
0.575006 0.0884484 -0.117934 82 172 0
0.572773 0.0939223 -0.119323 90 164 0
0.572952 0.0995763 -0.120317 98 156 0
0.576257 0.1045 -0.120876 106 148 0
0.579573 0.109559 -0.120982 115 139 0
0.585152 0.111198 -0.120339 123 131 0
0.590969 0.110979 -0.118964 131 123 0
0.595012 0.106929 -0.117434 139 115 0
0.596457 0.101273 -0.115973 148 106 0
0.594961 0.0956593 -0.114699 156 98 0
0.59201 0.0904585 -0.114758 164 90 0
0.587429 0.0866596 -0.115376 172 82 0
0.581691 0.0857314 -0.116865 180 74 0
0.575864 0.0857997 -0.118566 189 65 0
0.570238 0.0870677 -0.120403 197 57 0
0.566157 0.0906647 -0.122996 205 49 0
0.563127 0.0952261 -0.125575 213 41 0
0.561823 0.100443 -0.128158 222 32 0
0.562951 0.105812 -0.130497 230 24 0
0.565371 0.111157 -0.131566 238 16 0
0.569726 0.115224 -0.132149 246 8 0
0.575101 0.114964 -0.131472 255 0 0
