ply
format ascii 1.0
comment Generated by robot_control PLYWriter
element vertex 9
property float x
property float y
property float z
property uchar red
property uchar green
property uchar blue
end_header
0.614989 -0.136058 -0.13145 0 255 0
0.615314 -0.1412 -0.131201 31 223 0
0.615714 -0.146351 -0.130994 63 191 0
0.616013 -0.1515 -0.130641 95 159 0
0.616331 -0.156638 -0.130176 127 127 0
0.616932 -0.161752 -0.129722 159 95 0
0.617217 -0.166869 -0.129043 191 63 0
0.617487 -0.171953 -0.128144 223 31 0
0.618096 -0.177023 -0.127347 255 0 0
