ply
format ascii 1.0
comment Generated by robot_control PLYWriter
element vertex 72
property float x
property float y
property float z
property uchar red
property uchar green
property uchar blue
end_header
0.592445 -0.162685 -0.0151858 0 255 0
0.596173 -0.164714 -0.0145907 3 251 0
0.59981 -0.168142 -0.0142405 7 247 0
0.60139 -0.172992 -0.0139891 10 244 0
0.602713 -0.178457 -0.0138205 14 240 0
0.600702 -0.183673 -0.0139103 17 237 0
0.597123 -0.188213 -0.0142408 21 233 0
0.592621 -0.19212 -0.0148932 25 229 0
0.586834 -0.192533 -0.0159317 28 226 0
0.58146 -0.191519 -0.0173613 32 222 0
0.577526 -0.187111 -0.0183614 35 219 0
0.576346 -0.18146 -0.0187612 39 215 0
0.578147 -0.175981 -0.01858 43 211 0
0.582886 -0.172543 -0.0177233 46 208 0
0.588082 -0.171278 -0.0169703 50 204 0
0.593485 -0.172989 -0.0157931 53 201 0
0.598366 -0.17624 -0.014851 57 197 0
0.601148 -0.181531 -0.0143068 61 193 0
0.602706 -0.187163 -0.0140096 64 190 0
0.602528 -0.193138 -0.0138936 68 186 0
0.598604 -0.197407 -0.0140728 71 183 0
0.59384 -0.200909 -0.014554 75 179 0
0.588208 -0.202795 -0.0151812 79 175 0
0.582663 -0.201098 -0.01606 82 172 0
0.578786 -0.196567 -0.0166564 86 168 0
0.577459 -0.191195 -0.0168527 89 165 0
0.579985 -0.185731 -0.0167833 93 161 0
0.584226 -0.18182 -0.0164013 96 158 0
0.590052 -0.180767 -0.0158718 100 154 0
0.595362 -0.183256 -0.0151364 104 150 0
0.599631 -0.187239 -0.014536 107 147 0
0.602508 -0.192494 -0.014099 111 143 0
0.602707 -0.198468 -0.0138942 114 140 0
0.601834 -0.204283 -0.0139397 118 136 0
0.598115 -0.208863 -0.0141833 122 132 0
0.593092 -0.212096 -0.0145516 125 129 0
0.587254 -0.212072 -0.0151242 129 125 0
0.581457 -0.210561 -0.0156836 132 122 0
0.578614 -0.205677 -0.0159647 136 118 0
0.578467 -0.199678 -0.0160145 140 114 0
0.581367 -0.194852 -0.015797 143 111 0
0.585737 -0.19106 -0.015441 147 107 0
0.591519 -0.190626 -0.0149789 150 104 0
0.596838 -0.193405 -0.0145588 154 100 0
0.601463 -0.197114 -0.0142507 158 96 0
0.602758 -0.202607 -0.0139751 161 93 0
0.604254 -0.208067 -0.0139448 165 89 0
0.602713 -0.213814 -0.014106 168 86 0
0.59973 -0.21797 -0.0145084 172 82 0
0.594445 -0.220801 -0.0150462 175 79 0
0.588801 -0.222503 -0.015621 179 75 0
0.583637 -0.220208 -0.0160726 183 71 0
0.578797 -0.216698 -0.0162898 186 68 0
0.578513 -0.210804 -0.0162576 190 64 0
0.581419 -0.205665 -0.0159443 193 61 0
0.586224 -0.202215 -0.0152546 197 57 0
0.591943 -0.200738 -0.014656 201 53 0
0.597003 -0.203553 -0.01421 204 50 0
0.601404 -0.207378 -0.0139663 208 46 0
0.604761 -0.212319 -0.0138553 211 43 0
0.604792 -0.218331 -0.0139835 215 39 0
0.603941 -0.224105 -0.0143678 219 35 0
0.600198 -0.228726 -0.0149848 222 32 0
0.595418 -0.231958 -0.015759 226 28 0
0.589523 -0.232231 -0.0167378 229 25 0
0.584271 -0.230531 -0.0176445 233 21 0
0.58067 -0.226741 -0.0181133 237 17 0
0.578476 -0.221574 -0.0179475 240 14 0
0.580575 -0.217571 -0.0173158 244 10 0
0.582784 -0.213241 -0.016329 247 7 0
0.587547 -0.211826 -0.0151586 251 3 0
0.592374 -0.210338 -0.0143207 255 0 0
