ply
format ascii 1.0
comment Generated by robot_control PLYWriter
element vertex 65
property float x
property float y
property float z
property uchar red
property uchar green
property uchar blue
end_header
0.622676 -0.0425554 -0.105846 0 255 0
0.627966 -0.0437616 -0.105072 3 251 0
0.632197 -0.0470098 -0.103812 7 247 0
0.632875 -0.0525546 -0.102738 11 243 0
0.632583 -0.057192 -0.102252 15 239 0
0.63063 -0.0626987 -0.102115 19 235 0
0.625467 -0.0649393 -0.102398 23 231 0
0.620009 -0.0667326 -0.103016 27 227 0
0.614808 -0.0643144 -0.103863 31 223 0
0.609645 -0.0613799 -0.104602 35 219 0
0.606613 -0.0568387 -0.105525 39 215 0
0.6043 -0.0513904 -0.106151 43 211 0
0.604297 -0.0454149 -0.106862 47 207 0
0.606916 -0.0402795 -0.107311 51 203 0
0.610284 -0.0354938 -0.107494 55 199 0
0.61585 -0.0332382 -0.107428 59 195 0
0.621447 -0.031035 -0.107227 63 191 0
0.626692 -0.0329956 -0.106647 67 187 0
0.631919 -0.0354138 -0.10605 71 183 0
0.634662 -0.0404968 -0.105446 75 179 0
0.634548 -0.0464702 -0.104755 79 175 0
0.630763 -0.0507522 -0.104483 83 171 0
0.626832 -0.0541743 -0.104459 87 167 0
0.620819 -0.0541911 -0.104735 91 163 0
0.61483 -0.0540511 -0.105297 95 159 0
0.610278 -0.0502517 -0.106107 99 155 0
0.606717 -0.0457095 -0.107003 103 151 0
0.605746 -0.0399587 -0.108098 107 147 0
0.605649 -0.0345579 -0.108996 111 143 0
0.609126 -0.0297287 -0.10971 115 139 0
0.613159 -0.0252929 -0.110221 119 135 0
0.618351 -0.0224283 -0.1104 123 131 0
0.623952 -0.0211662 -0.11021 127 127 0
0.629693 -0.0228975 -0.109857 131 123 0
0.634114 -0.0265622 -0.10921 135 119 0
0.634787 -0.0322776 -0.108323 139 115 0
0.633979 -0.0381125 -0.107558 143 111 0
0.630553 -0.0428147 -0.106867 147 107 0
0.624681 -0.0440982 -0.106796 151 103 0
0.6187 -0.0441484 -0.107348 155 99 0
0.613468 -0.0418181 -0.10843 159 95 0
0.609046 -0.0380325 -0.109787 163 91 0
0.606871 -0.0325241 -0.110871 167 87 0
0.606078 -0.0268011 -0.11241 171 83 0
0.607373 -0.0211992 -0.11352 175 79 0
0.610949 -0.016534 -0.114421 179 75 0
0.615671 -0.0129187 -0.115189 183 71 0
0.621381 -0.0113565 -0.11561 187 67 0
0.626853 -0.0112385 -0.115409 191 63 0
0.632137 -0.0139555 -0.114563 195 59 0
0.63523 -0.0182876 -0.11306 199 55 0
0.636688 -0.0236381 -0.11118 203 51 0
0.634227 -0.0288699 -0.109836 207 47 0
0.63017 -0.0329404 -0.108988 211 43 0
0.624334 -0.0339449 -0.108718 215 39 0
0.618709 -0.0336115 -0.109215 219 35 0
0.613951 -0.0302196 -0.11053 223 31 0
0.610066 -0.0262171 -0.112566 227 27 0
0.608636 -0.0212326 -0.115022 231 23 0
0.608304 -0.0158428 -0.11724 235 19 0
0.608637 -0.0106598 -0.119457 239 15 0
0.612026 -0.00659812 -0.120977 243 11 0
0.615119 -0.00282335 -0.121937 247 7 0
0.61896 -0.000592108 -0.122251 251 3 0
0.622737 0.00061195 -0.122354 255 0 0
