ply
format ascii 1.0
comment Generated by robot_control PLYWriter
element vertex 45
property float x
property float y
property float z
property uchar red
property uchar green
property uchar blue
end_header
0.536573 -0.207032 -0.126429 0 255 0
0.540581 -0.208511 -0.125544 5 249 0
0.544646 -0.209958 -0.123931 11 243 0
0.547366 -0.21446 -0.122166 17 237 0
0.547361 -0.219941 -0.120806 23 231 0
0.546067 -0.225367 -0.120271 28 226 0
0.542205 -0.229514 -0.120206 34 220 0
0.537283 -0.232844 -0.120559 40 214 0
0.531534 -0.23416 -0.121156 46 208 0
0.526003 -0.232685 -0.12204 52 202 0
0.520951 -0.230071 -0.122837 57 197 0
0.517697 -0.225092 -0.123594 63 191 0
0.516123 -0.219656 -0.124329 69 185 0
0.517597 -0.214026 -0.125016 75 179 0
0.521737 -0.209819 -0.125464 81 173 0
0.5273 -0.207607 -0.125458 86 168 0
0.53237 -0.209453 -0.125099 92 162 0
0.537019 -0.213099 -0.12464 98 156 0
0.538084 -0.218239 -0.124128 104 150 0
0.53678 -0.223868 -0.123604 110 144 0
0.533894 -0.22849 -0.123128 115 139 0
0.528701 -0.231373 -0.122685 121 133 0
0.522896 -0.232671 -0.122537 127 127 0
0.516894 -0.23264 -0.122592 133 121 0
0.511985 -0.229975 -0.122875 139 115 0
0.507882 -0.225707 -0.123257 144 110 0
0.506411 -0.219926 -0.123657 150 104 0
0.507952 -0.214251 -0.124208 156 98 0
0.511679 -0.209796 -0.124783 162 92 0
0.516887 -0.206994 -0.125197 168 86 0
0.522376 -0.209412 -0.125273 173 81 0
0.526883 -0.21297 -0.125065 179 75 0
0.529293 -0.218387 -0.124577 185 69 0
0.526809 -0.223761 -0.12407 191 63 0
0.525041 -0.22924 -0.123434 197 57 0
0.520428 -0.232671 -0.123016 202 52 0
0.514627 -0.233507 -0.12282 208 46 0
0.509141 -0.232648 -0.122762 214 40 0
0.503681 -0.230852 -0.122873 220 34 0
0.500612 -0.226336 -0.123283 226 28 0
0.498075 -0.221765 -0.123763 231 23 0
0.49785 -0.216808 -0.124185 237 17 0
0.499747 -0.21152 -0.124521 243 11 0
0.504413 -0.208417 -0.124754 249 5 0
0.508621 -0.206802 -0.12501 255 0 0
