ply
format ascii 1.0
comment Generated by robot_control PLYWriter
element vertex 32
property float x
property float y
property float z
property uchar red
property uchar green
property uchar blue
end_header
0.649537 0.142011 -0.149814 0 255 0
0.654797 0.141565 -0.147459 8 246 0
0.656753 0.136587 -0.145669 16 238 0
0.659311 0.131892 -0.143921 24 230 0
0.656616 0.126957 -0.142896 32 222 0
0.653024 0.123167 -0.142827 41 213 0
0.647453 0.121209 -0.14353 49 205 0
0.641907 0.120326 -0.144987 57 197 0
0.6368 0.122556 -0.14682 65 189 0
0.632558 0.125695 -0.149423 74 180 0
0.630165 0.130644 -0.151267 82 172 0
0.628529 0.136111 -0.152959 90 164 0
0.630089 0.141265 -0.154485 98 156 0
0.632905 0.146433 -0.155365 106 148 0
0.636875 0.150778 -0.155983 115 139 0
0.642569 0.152475 -0.155836 123 131 0
0.648369 0.153032 -0.154856 131 123 0
0.653576 0.15083 -0.153466 139 115 0
0.656616 0.146759 -0.151336 148 106 0
0.656331 0.141003 -0.149867 156 98 0
0.653664 0.136073 -0.148985 164 90 0
0.649186 0.132301 -0.149089 172 82 0
0.64361 0.130462 -0.149903 180 74 0
0.638086 0.131547 -0.151315 189 65 0
0.633841 0.135005 -0.153402 197 57 0
0.629625 0.138495 -0.15548 205 49 0
0.628116 0.143038 -0.158106 213 41 0
0.628239 0.148264 -0.160874 222 32 0
0.629416 0.153523 -0.163026 230 24 0
0.633006 0.158011 -0.164349 238 16 0
0.637221 0.161949 -0.164896 246 8 0
0.642221 0.163428 -0.164711 255 0 0
