ply
format ascii 1.0
comment Generated by robot_control PLYWriter
element vertex 8
property float x
property float y
property float z
property uchar red
property uchar green
property uchar blue
end_header
0.603208 0.057438 -0.143189 0 255 0
0.602893 0.0621129 -0.141524 36 218 0
0.602603 0.0667419 -0.139734 72 182 0
0.60229 0.0712758 -0.137715 109 145 0
0.601606 0.0759258 -0.136093 145 109 0
0.600808 0.0807164 -0.135097 182 72 0
0.600235 0.0856216 -0.13508 218 36 0
0.60002 0.0905155 -0.13582 255 0 0
