ply
format ascii 1.0
comment Generated by robot_control PLYWriter
element vertex 200
property float x
property float y
property float z
property uchar red
property uchar green
property uchar blue
end_header
0.502692 0.185605 -0.0936029 0 255 0
0.502692 0.185605 -0.0936029 1 253 0
0.502692 0.185605 -0.0936029 2 252 0
0.502692 0.185605 -0.0936029 3 251 0
0.502692 0.185605 -0.0936029 5 249 0
0.502692 0.185605 -0.0936029 6 248 0
0.502692 0.185605 -0.0936029 7 247 0
0.502692 0.185605 -0.0936029 8 246 0
0.502692 0.185605 -0.0936029 10 244 0
0.502692 0.185605 -0.0936029 11 243 0
0.502692 0.185605 -0.0936029 12 242 0
0.502692 0.185605 -0.0936029 14 240 0
0.502692 0.185605 -0.0936029 15 239 0
0.502692 0.185605 -0.0936029 16 238 0
0.502692 0.185605 -0.0936029 17 237 0
0.502692 0.185605 -0.0936029 19 235 0
0.502692 0.185605 -0.0936029 20 234 0
0.502692 0.185605 -0.0936029 21 233 0
0.502692 0.185605 -0.0936029 23 231 0
0.502692 0.185605 -0.0936029 24 230 0
0.502692 0.185605 -0.0936029 25 229 0
0.502692 0.185605 -0.0936029 26 228 0
0.502692 0.185605 -0.0936029 28 226 0
0.502692 0.185605 -0.0936029 29 225 0
0.502692 0.185605 -0.0936029 30 224 0
0.502692 0.185605 -0.0936029 32 222 0
0.502692 0.185605 -0.0936029 33 221 0
0.502692 0.185605 -0.0936029 34 220 0
0.502692 0.185605 -0.0936029 35 219 0
0.502692 0.185605 -0.0936029 37 217 0
0.502692 0.185605 -0.0936029 38 216 0
0.502692 0.185605 -0.0936029 39 215 0
0.502692 0.185605 -0.0936029 41 213 0
0.502692 0.185605 -0.0936029 42 212 0
0.502692 0.185605 -0.0936029 43 211 0
0.502692 0.185605 -0.0936029 44 210 0
0.502692 0.185605 -0.0936029 46 208 0
0.502692 0.185605 -0.0936029 47 207 0
0.502692 0.185605 -0.0936029 48 206 0
0.502692 0.185605 -0.0936029 49 205 0
0.502692 0.185605 -0.0936029 51 203 0
0.502692 0.185605 -0.0936029 52 202 0
0.502692 0.185605 -0.0936029 53 201 0
0.502692 0.185605 -0.0936029 55 199 0
0.502692 0.185605 -0.0936029 56 198 0
0.502692 0.185605 -0.0936029 57 197 0
0.502692 0.185605 -0.0936029 58 196 0
0.502692 0.185605 -0.0936029 60 194 0
0.502692 0.185605 -0.0936029 61 193 0
0.502692 0.185605 -0.0936029 62 192 0
0.502692 0.185605 -0.0936029 64 190 0
0.502692 0.185605 -0.0936029 65 189 0
0.502692 0.185605 -0.0936029 66 188 0
0.502692 0.185605 -0.0936029 67 187 0
0.502692 0.185605 -0.0936029 69 185 0
0.502692 0.185605 -0.0936029 70 184 0
0.502692 0.185605 -0.0936029 71 183 0
0.502692 0.185605 -0.0936029 73 181 0
0.502692 0.185605 -0.0936029 74 180 0
0.502692 0.185605 -0.0936029 75 179 0
0.502692 0.185605 -0.0936029 76 178 0
0.502692 0.185605 -0.0936029 78 176 0
0.502692 0.185605 -0.0936029 79 175 0
0.502692 0.185605 -0.0936029 80 174 0
0.502692 0.185605 -0.0936029 82 172 0
0.502692 0.185605 -0.0936029 83 171 0
0.502692 0.185605 -0.0936029 84 170 0
0.502692 0.185605 -0.0936029 85 169 0
0.502692 0.185605 -0.0936029 87 167 0
0.502692 0.185605 -0.0936029 88 166 0
0.502692 0.185605 -0.0936029 89 165 0
0.502692 0.185605 -0.0936029 90 164 0
0.502692 0.185605 -0.0936029 92 162 0
0.502692 0.185605 -0.0936029 93 161 0
0.502692 0.185605 -0.0936029 94 160 0
0.502692 0.185605 -0.0936029 96 158 0
0.502692 0.185605 -0.0936029 97 157 0
0.502692 0.185605 -0.0936029 98 156 0
0.502692 0.185605 -0.0936029 99 155 0
0.502692 0.185605 -0.0936029 101 153 0
0.502692 0.185605 -0.0936029 102 152 0
0.502692 0.185605 -0.0936029 103 151 0
0.502692 0.185605 -0.0936029 105 149 0
0.502692 0.185605 -0.0936029 106 148 0
0.502692 0.185605 -0.0936029 107 147 0
0.502692 0.185605 -0.0936029 108 146 0
0.502692 0.185605 -0.0936029 110 144 0
0.502692 0.185605 -0.0936029 111 143 0
0.502692 0.185605 -0.0936029 112 142 0
0.502692 0.185605 -0.0936029 114 140 0
0.502692 0.185605 -0.0936029 115 139 0
0.502692 0.185605 -0.0936029 116 138 0
0.502692 0.185605 -0.0936029 117 137 0
0.502692 0.185605 -0.0936029 119 135 0
0.502692 0.185605 -0.0936029 120 134 0
0.502692 0.185605 -0.0936029 121 133 0
0.502692 0.185605 -0.0936029 123 131 0
0.502692 0.185605 -0.0936029 124 130 0
0.502692 0.185605 -0.0936029 125 129 0
0.502692 0.185605 -0.0936029 126 128 0
0.502692 0.185605 -0.0936029 128 126 0
0.502692 0.185605 -0.0936029 129 125 0
0.502692 0.185605 -0.0936029 130 124 0
0.502692 0.185605 -0.0936029 131 123 0
0.502692 0.185605 -0.0936029 133 121 0
0.502692 0.185605 -0.0936029 134 120 0
0.502692 0.185605 -0.0936029 135 119 0
0.502692 0.185605 -0.0936029 137 117 0
0.502692 0.185605 -0.0936029 138 116 0
0.502692 0.185605 -0.0936029 139 115 0
0.502692 0.185605 -0.0936029 140 114 0
0.502692 0.185605 -0.0936029 142 112 0
0.502692 0.185605 -0.0936029 143 111 0
0.502692 0.185605 -0.0936029 144 110 0
0.502692 0.185605 -0.0936029 146 108 0
0.502692 0.185605 -0.0936029 147 107 0
0.502692 0.185605 -0.0936029 148 106 0
0.502692 0.185605 -0.0936029 149 105 0
0.502692 0.185605 -0.0936029 151 103 0
0.502692 0.185605 -0.0936029 152 102 0
0.502692 0.185605 -0.0936029 153 101 0
0.502692 0.185605 -0.0936029 155 99 0
0.502692 0.185605 -0.0936029 156 98 0
0.502692 0.185605 -0.0936029 157 97 0
0.502692 0.185605 -0.0936029 158 96 0
0.502692 0.185605 -0.0936029 160 94 0
0.502692 0.185605 -0.0936029 161 93 0
0.502692 0.185605 -0.0936029 162 92 0
0.502692 0.185605 -0.0936029 164 90 0
0.502692 0.185605 -0.0936029 165 89 0
0.502692 0.185605 -0.0936029 166 88 0
0.502692 0.185605 -0.0936029 167 87 0
0.502692 0.185605 -0.0936029 169 85 0
0.502692 0.185605 -0.0936029 170 84 0
0.502692 0.185605 -0.0936029 171 83 0
0.502692 0.185605 -0.0936029 172 82 0
0.502692 0.185605 -0.0936029 174 80 0
0.502692 0.185605 -0.0936029 175 79 0
0.502692 0.185605 -0.0936029 176 78 0
0.502692 0.185605 -0.0936029 178 76 0
0.502692 0.185605 -0.0936029 179 75 0
0.502692 0.185605 -0.0936029 180 74 0
0.502692 0.185605 -0.0936029 181 73 0
0.502692 0.185605 -0.0936029 183 71 0
0.502692 0.185605 -0.0936029 184 70 0
0.502692 0.185605 -0.0936029 185 69 0
0.502692 0.185605 -0.0936029 187 67 0
0.502692 0.185605 -0.0936029 188 66 0
0.502692 0.185605 -0.0936029 189 65 0
0.502692 0.185605 -0.0936029 190 64 0
0.502692 0.185605 -0.0936029 192 62 0
0.502692 0.185605 -0.0936029 193 61 0
0.502692 0.185605 -0.0936029 194 60 0
0.502692 0.185605 -0.0936029 196 58 0
0.502692 0.185605 -0.0936029 197 57 0
0.502692 0.185605 -0.0936029 198 56 0
0.502692 0.185605 -0.0936029 199 55 0
0.502692 0.185605 -0.0936029 201 53 0
0.502692 0.185605 -0.0936029 202 52 0
0.502692 0.185605 -0.0936029 203 51 0
0.502692 0.185605 -0.0936029 205 49 0
0.502692 0.185605 -0.0936029 206 48 0
0.502692 0.185605 -0.0936029 207 47 0
0.502692 0.185605 -0.0936029 208 46 0
0.502692 0.185605 -0.0936029 210 44 0
0.502692 0.185605 -0.0936029 211 43 0
0.502692 0.185605 -0.0936029 212 42 0
0.502692 0.185605 -0.0936029 213 41 0
0.502692 0.185605 -0.0936029 215 39 0
0.502692 0.185605 -0.0936029 216 38 0
0.502692 0.185605 -0.0936029 217 37 0
0.502692 0.185605 -0.0936029 219 35 0
0.502692 0.185605 -0.0936029 220 34 0
0.502692 0.185605 -0.0936029 221 33 0
0.502692 0.185605 -0.0936029 222 32 0
0.502692 0.185605 -0.0936029 224 30 0
0.502692 0.185605 -0.0936029 225 29 0
0.502692 0.185605 -0.0936029 226 28 0
0.502692 0.185605 -0.0936029 228 26 0
0.502692 0.185605 -0.0936029 229 25 0
0.502692 0.185605 -0.0936029 230 24 0
0.502692 0.185605 -0.0936029 231 23 0
0.502692 0.185605 -0.0936029 233 21 0
0.502692 0.185605 -0.0936029 234 20 0
0.502692 0.185605 -0.0936029 235 19 0
0.502692 0.185605 -0.0936029 237 17 0
0.502692 0.185605 -0.0936029 238 16 0
0.502692 0.185605 -0.0936029 239 15 0
0.502692 0.185605 -0.0936029 240 14 0
0.502692 0.185605 -0.0936029 242 12 0
0.502692 0.185605 -0.0936029 243 11 0
0.502692 0.185605 -0.0936029 244 10 0
0.502692 0.185605 -0.0936029 246 8 0
0.502692 0.185605 -0.0936029 247 7 0
0.502692 0.185605 -0.0936029 248 6 0
0.502692 0.185605 -0.0936029 249 5 0
0.502692 0.185605 -0.0936029 251 3 0
0.502692 0.185605 -0.0936029 252 2 0
0.502692 0.185605 -0.0936029 253 1 0
0.502692 0.185605 -0.0936029 255 0 0
