ply
format ascii 1.0
comment Generated by robot_control PLYWriter
element vertex 14
property float x
property float y
property float z
property uchar red
property uchar green
property uchar blue
end_header
0.640462 -0.0258999 -0.0420805 0 255 0
0.640577 -0.0210337 -0.041374 19 235 0
0.640545 -0.016181 -0.0405697 39 215 0
0.640513 -0.0113144 -0.0398544 58 196 0
0.640527 -0.00648423 -0.0389168 78 176 0
0.640535 -0.00167274 -0.0378875 98 156 0
0.640567 0.00317025 -0.0370179 117 137 0
0.640516 0.00805551 -0.0364354 137 117 0
0.640476 0.0129614 -0.0360675 156 98 0
0.640404 0.0178786 -0.0359366 176 78 0
0.640181 0.0227882 -0.0360938 196 58 0
0.639932 0.0276729 -0.0366011 215 39 0
0.639733 0.0325508 -0.0372151 235 19 0
0.639372 0.0374075 -0.0379127 255 0 0
