ply
format ascii 1.0
comment Generated by robot_control PLYWriter
element vertex 8
property float x
property float y
property float z
property uchar red
property uchar green
property uchar blue
end_header
0.588365 0.117354 -0.134047 0 255 0
0.589943 0.113018 -0.13331 36 218 0
0.591364 0.108614 -0.13264 72 182 0
0.592787 0.104202 -0.13203 109 145 0
0.594225 0.0997885 -0.131466 145 109 0
0.59568 0.0953765 -0.130934 182 72 0
0.597139 0.0909613 -0.130441 218 36 0
0.598618 0.0865545 -0.129936 255 0 0
