ply
format ascii 1.0
comment Generated by robot_control PLYWriter
element vertex 48
property float x
property float y
property float z
property uchar red
property uchar green
property uchar blue
end_header
0.687276 0.189564 -0.143989 0 255 0
0.691339 0.186892 -0.143938 5 249 0
0.694617 0.182439 -0.143161 10 244 0
0.696397 0.17804 -0.141486 16 238 0
0.695928 0.172309 -0.139997 21 233 0
0.693008 0.16823 -0.138244 27 227 0
0.688684 0.165192 -0.136802 32 222 0
0.683195 0.163568 -0.135848 37 217 0
0.677417 0.16329 -0.135351 43 211 0
0.671961 0.165468 -0.135345 48 206 0
0.667471 0.169296 -0.135812 54 200 0
0.663633 0.173732 -0.136478 59 195 0
0.662146 0.179228 -0.137651 65 189 0
0.664153 0.184481 -0.138667 70 184 0
0.668333 0.188302 -0.139623 75 179 0
0.674118 0.189079 -0.14002 81 173 0
0.679894 0.187862 -0.14001 86 168 0
0.6844 0.184247 -0.13954 92 162 0
0.686635 0.179108 -0.138593 97 157 0
0.687126 0.173256 -0.137647 103 151 0
0.685709 0.168201 -0.136523 108 146 0
0.681364 0.164361 -0.135589 113 141 0
0.676541 0.161116 -0.135003 119 135 0
0.671173 0.161913 -0.134684 124 130 0
0.665401 0.163161 -0.13467 130 124 0
0.660477 0.165985 -0.134975 135 119 0
0.656448 0.170216 -0.135457 141 113 0
0.654946 0.17591 -0.136176 146 108 0
0.65461 0.181759 -0.137165 151 103 0
0.65812 0.18584 -0.138224 157 97 0
0.663657 0.187715 -0.138753 162 92 0
0.6696 0.187671 -0.139034 168 86 0
0.674682 0.184961 -0.138703 173 81 0
0.678111 0.180451 -0.137916 179 75 0
0.678631 0.174884 -0.136662 184 70 0
0.678449 0.169107 -0.135239 189 65 0
0.675451 0.164254 -0.134274 195 59 0
0.669954 0.16251 -0.133457 200 54 0
0.665908 0.159408 -0.132641 206 48 0
0.659977 0.159321 -0.132338 211 43 0
0.655483 0.162615 -0.132315 217 37 0
0.650292 0.165413 -0.132861 222 32 0
0.646535 0.169792 -0.134103 227 27 0
0.645103 0.175203 -0.13568 233 21 0
0.64702 0.180379 -0.137181 238 16 0
0.649876 0.184668 -0.138882 244 10 0
0.653785 0.187379 -0.139658 249 5 0
0.659055 0.187732 -0.140302 255 0 0
