ply
format ascii 1.0
comment Generated by robot_control PLYWriter
element vertex 32
property float x
property float y
property float z
property uchar red
property uchar green
property uchar blue
end_header
0.704466 0.0533145 -0.157045 0 255 0
0.708091 0.0504312 -0.155488 8 246 0
0.710493 0.0453254 -0.15375 16 238 0
0.710953 0.0398433 -0.151437 24 230 0
0.708874 0.0350729 -0.1493 32 222 0
0.705216 0.0307402 -0.147616 41 213 0
0.700505 0.0270382 -0.146697 49 205 0
0.694605 0.0266317 -0.146002 57 197 0
0.688555 0.0261705 -0.145784 65 189 0
0.683077 0.027913 -0.146083 74 180 0
0.678194 0.0314692 -0.146708 82 172 0
0.676593 0.0371953 -0.147742 90 164 0
0.675081 0.0427445 -0.149306 98 156 0
0.676998 0.0479264 -0.150614 106 148 0
0.680896 0.052365 -0.152007 115 139 0
0.686818 0.0531209 -0.152759 123 131 0
0.692604 0.0521045 -0.152907 131 123 0
0.696912 0.0480333 -0.152272 139 115 0
0.699653 0.0427177 -0.151246 148 106 0
0.69988 0.0374803 -0.150076 156 98 0
0.697169 0.0322401 -0.148638 164 90 0
0.692963 0.0281103 -0.147442 172 82 0
0.687245 0.0263119 -0.146558 180 74 0
0.681237 0.0259259 -0.145946 189 65 0
0.675197 0.0254608 -0.14574 197 57 0
0.67055 0.0290272 -0.14599 205 49 0
0.666627 0.0335756 -0.146809 213 41 0
0.664901 0.0392082 -0.1477 222 32 0
0.664997 0.0451516 -0.148939 230 24 0
0.668596 0.0496275 -0.150104 238 16 0
0.673011 0.052465 -0.151245 246 8 0
0.677649 0.0543002 -0.152651 255 0 0
