ply
format ascii 1.0
comment Generated by robot_control PLYWriter
element vertex 49
property float x
property float y
property float z
property uchar red
property uchar green
property uchar blue
end_header
0.604297 0.0903454 -0.177232 0 255 0
0.608183 0.088861 -0.174554 5 249 0
0.611092 0.0871374 -0.171754 10 244 0
0.614696 0.0836812 -0.169327 15 239 0
0.61634 0.0796798 -0.167024 21 233 0
0.616879 0.0750017 -0.165276 26 228 0
0.615875 0.0695436 -0.164193 31 223 0
0.612443 0.064762 -0.163184 37 217 0
0.608042 0.0607616 -0.16272 42 212 0
0.602681 0.058898 -0.162549 47 207 0
0.596941 0.0578862 -0.162864 53 201 0
0.59139 0.0589513 -0.163538 58 196 0
0.586995 0.0628821 -0.164501 63 191 0
0.584956 0.0682137 -0.165725 69 185 0
0.585264 0.0739066 -0.167267 74 180 0
0.588504 0.0783033 -0.167953 79 175 0
0.593966 0.0806942 -0.168276 85 169 0
0.599055 0.0835947 -0.1682 90 164 0
0.603817 0.0800463 -0.167749 95 159 0
0.608804 0.0769528 -0.166788 100 154 0
0.611022 0.0717233 -0.165507 106 148 0
0.610532 0.0659354 -0.164319 111 143 0
0.608448 0.0605016 -0.16319 116 138 0
0.604565 0.0561217 -0.162301 122 132 0
0.599514 0.0531193 -0.161831 127 127 0
0.593718 0.0521813 -0.161637 132 122 0
0.587744 0.0522215 -0.161788 138 116 0
0.582648 0.0546875 -0.162368 143 111 0
0.579388 0.0596287 -0.163134 148 106 0
0.578016 0.0650592 -0.164128 154 100 0
0.581092 0.0701332 -0.164738 159 95 0
0.585116 0.0744573 -0.165242 164 90 0
0.59064 0.0750965 -0.165412 170 84 0
0.596383 0.0740665 -0.165185 175 79 0
0.601392 0.0708924 -0.164515 180 74 0
0.604033 0.0660747 -0.163221 185 69 0
0.604009 0.0602212 -0.162022 191 63 0
0.602503 0.0547009 -0.160835 196 58 0
0.599735 0.0496495 -0.159889 201 53 0
0.594387 0.047146 -0.159167 207 47 0
0.588695 0.0453765 -0.158754 212 42 0
0.582817 0.0459096 -0.158758 217 37 0
0.577342 0.0472914 -0.159357 223 31 0
0.573841 0.0519518 -0.160469 228 26 0
0.571047 0.0568919 -0.161776 233 21 0
0.572763 0.0618128 -0.163529 239 15 0
0.575618 0.0665762 -0.164657 244 10 0
0.579239 0.0693493 -0.165204 249 5 0
0.584947 0.0689192 -0.165234 255 0 0
