ply
format ascii 1.0
comment Generated by robot_control PLYWriter
element vertex 14
property float x
property float y
property float z
property uchar red
property uchar green
property uchar blue
end_header
0.670854 -0.198303 -0.0434879 0 255 0
0.670727 -0.193522 -0.0425976 19 235 0
0.670656 -0.188702 -0.0419655 39 215 0
0.670605 -0.183857 -0.0415418 58 196 0
0.67052 -0.179007 -0.0411917 78 176 0
0.67048 -0.174145 -0.0410551 98 156 0
0.670488 -0.169281 -0.0410661 117 137 0
0.670507 -0.164417 -0.0411586 137 117 0
0.67053 -0.159555 -0.0413064 156 98 0
0.670561 -0.154696 -0.0415187 176 78 0
0.670586 -0.149833 -0.0416398 196 58 0
0.670578 -0.144973 -0.0414947 215 39 0
0.670556 -0.140119 -0.0411918 235 19 0
0.670512 -0.135266 -0.0408634 255 0 0
