ply
format ascii 1.0
comment Generated by robot_control PLYWriter
element vertex 13
property float x
property float y
property float z
property uchar red
property uchar green
property uchar blue
end_header
0.600748 0.155619 -0.137816 0 255 0
0.601446 0.151084 -0.135852 21 233 0
0.601886 0.146523 -0.133873 42 212 0
0.602364 0.141976 -0.13187 63 191 0
0.602975 0.137445 -0.129867 85 169 0
0.603544 0.132905 -0.127871 106 148 0
0.604036 0.128339 -0.125914 127 127 0
0.604459 0.123739 -0.124021 148 106 0
0.604845 0.119111 -0.12219 170 84 0
0.605498 0.114445 -0.120546 191 63 0
0.606138 0.109724 -0.119061 212 42 0
0.606677 0.104991 -0.117572 233 21 0
0.607152 0.100201 -0.116267 255 0 0
