ply
format ascii 1.0
comment Generated by robot_control PLYWriter
element vertex 51
property float x
property float y
property float z
property uchar red
property uchar green
property uchar blue
end_header
0.611971 0.117021 -0.178289 0 255 0
0.616128 0.115178 -0.176059 5 249 0
0.620171 0.113347 -0.17316 10 244 0
0.621135 0.108665 -0.170148 15 239 0
0.621808 0.104034 -0.167649 20 234 0
0.621376 0.0997506 -0.165153 25 229 0
0.618728 0.0952683 -0.16254 30 224 0
0.614765 0.0921304 -0.160769 35 219 0
0.609561 0.0897041 -0.160027 40 214 0
0.603619 0.0893585 -0.160457 45 209 0
0.59779 0.089314 -0.161933 51 204 0
0.593173 0.0925347 -0.163548 56 198 0
0.590145 0.0962372 -0.166524 61 193 0
0.588793 0.101481 -0.168928 66 188 0
0.590987 0.10573 -0.17167 71 183 0
0.594756 0.110004 -0.173079 76 178 0
0.600366 0.111708 -0.172945 81 173 0
0.60622 0.111043 -0.171907 86 168 0
0.611002 0.108586 -0.169599 91 163 0
0.614681 0.104516 -0.167135 96 158 0
0.616029 0.0990916 -0.164887 102 153 0
0.6161 0.0938294 -0.162008 107 147 0
0.613584 0.0891821 -0.159207 112 142 0
0.610274 0.084498 -0.157459 117 137 0
0.605217 0.0817784 -0.156049 122 132 0
0.5994 0.0803867 -0.15573 127 127 0
0.59341 0.0806468 -0.15622 132 122 0
0.58842 0.0828845 -0.157206 137 117 0
0.585156 0.0873195 -0.159455 142 112 0
0.583268 0.0926451 -0.161494 147 107 0
0.584106 0.0977114 -0.164207 153 101 0
0.587568 0.101984 -0.165833 158 96 0
0.59287 0.104321 -0.166825 163 91 0
0.598809 0.103696 -0.166255 168 86 0
0.603826 0.101133 -0.16468 173 81 0
0.60694 0.0965371 -0.162451 178 76 0
0.609128 0.0921878 -0.159659 183 71 0
0.608982 0.0867152 -0.157149 188 66 0
0.607746 0.0813481 -0.154868 193 61 0
0.604554 0.0770819 -0.152367 198 56 0
0.599371 0.0745926 -0.15057 204 50 0
0.593778 0.073296 -0.149356 209 45 0
0.587798 0.0731591 -0.14949 214 40 0
0.58256 0.0753004 -0.15074 219 35 0
0.579028 0.0799782 -0.152124 224 30 0
0.577047 0.0838927 -0.154826 229 25 0
0.576318 0.0883342 -0.157928 234 20 0
0.579061 0.0922226 -0.160999 239 15 0
0.582013 0.0949009 -0.164334 244 10 0
0.584912 0.0978456 -0.166136 249 5 0
0.590138 0.0976372 -0.166965 255 0 0
