ply
format ascii 1.0
comment Generated by robot_control PLYWriter
element vertex 8
property float x
property float y
property float z
property uchar red
property uchar green
property uchar blue
end_header
0.509903 -0.179388 -0.127473 0 255 0
0.511065 -0.174875 -0.127709 36 218 0
0.51202 -0.170311 -0.127882 72 182 0
0.513059 -0.165763 -0.127767 109 145 0
0.513514 -0.161116 -0.127713 145 109 0
0.514639 -0.156595 -0.12754 182 72 0
0.515465 -0.152009 -0.127406 218 36 0
0.516668 -0.147538 -0.127169 255 0 0
