ply
format ascii 1.0
comment Generated by robot_control PLYWriter
element vertex 48
property float x
property float y
property float z
property uchar red
property uchar green
property uchar blue
end_header
0.735301 0.0761922 -0.129318 0 255 0
0.739906 0.0738355 -0.129275 5 249 0
0.744232 0.0711624 -0.128708 10 244 0
0.747212 0.0662567 -0.127749 16 238 0
0.748253 0.0611067 -0.126386 21 233 0
0.74615 0.0561276 -0.124728 27 227 0
0.743771 0.0513745 -0.123292 32 222 0
0.738501 0.0496403 -0.122135 37 217 0
0.732696 0.0503151 -0.12171 43 211 0
0.727461 0.0528045 -0.121855 48 206 0
0.724781 0.0576809 -0.122411 54 200 0
0.722606 0.06292 -0.123505 59 195 0
0.724122 0.0684307 -0.125046 65 189 0
0.726703 0.0735725 -0.126641 70 184 0
0.730945 0.0774399 -0.127931 75 179 0
0.736728 0.0782311 -0.129078 81 173 0
0.742556 0.0774062 -0.129771 86 168 0
0.748233 0.0755921 -0.130137 92 162 0
0.753006 0.0720369 -0.130067 97 157 0
0.754781 0.0663514 -0.129533 103 151 0
0.755461 0.06056 -0.128457 108 146 0
0.752934 0.0554212 -0.127168 113 141 0
0.748115 0.0523256 -0.125823 119 135 0
0.742505 0.0530245 -0.125155 124 130 0
0.737113 0.0550436 -0.125098 130 124 0
0.733331 0.0594513 -0.125413 135 119 0
0.731211 0.0649195 -0.12651 141 113 0
0.732495 0.0706876 -0.127455 146 108 0
0.734677 0.0760667 -0.12884 151 103 0
0.7393 0.0784972 -0.130937 157 97 0
0.744798 0.0802441 -0.132256 162 92 0
0.750277 0.0799469 -0.133575 168 86 0
0.755929 0.0781939 -0.134108 173 81 0
0.760232 0.0740414 -0.134226 179 75 0
0.763436 0.0691636 -0.133869 184 70 0
0.765058 0.0635082 -0.132942 189 65 0
0.762581 0.0585263 -0.131336 195 59 0
0.758172 0.0557327 -0.129558 200 54 0
0.753055 0.0537631 -0.127898 206 48 0
0.747796 0.0552366 -0.126737 211 43 0
0.743455 0.0589619 -0.126543 217 37 0
0.741132 0.0644281 -0.127018 222 32 0
0.740424 0.0700901 -0.128279 227 27 0
0.742332 0.0747803 -0.130633 233 21 0
0.744684 0.0792394 -0.132952 238 16 0
0.748708 0.0814384 -0.135412 244 10 0
0.752551 0.0831512 -0.137536 249 5 0
0.756079 0.0822883 -0.138667 255 0 0
