ply
format ascii 1.0
comment Generated by robot_control PLYWriter
element vertex 200
property float x
property float y
property float z
property uchar red
property uchar green
property uchar blue
end_header
0.746581 -0.232529 -0.110546 0 255 0
0.746581 -0.232529 -0.110546 1 253 0
0.746581 -0.232529 -0.110546 2 252 0
0.746581 -0.232529 -0.110546 3 251 0
0.746581 -0.232529 -0.110546 5 249 0
0.746581 -0.232529 -0.110546 6 248 0
0.746581 -0.232529 -0.110546 7 247 0
0.746581 -0.232529 -0.110546 8 246 0
0.746581 -0.232529 -0.110546 10 244 0
0.746581 -0.232529 -0.110546 11 243 0
0.746581 -0.232529 -0.110546 12 242 0
0.746581 -0.232529 -0.110546 14 240 0
0.746581 -0.232529 -0.110546 15 239 0
0.746581 -0.232529 -0.110546 16 238 0
0.746581 -0.232529 -0.110546 17 237 0
0.746581 -0.232529 -0.110546 19 235 0
0.746581 -0.232529 -0.110546 20 234 0
0.746581 -0.232529 -0.110546 21 233 0
0.746581 -0.232529 -0.110546 23 231 0
0.746581 -0.232529 -0.110546 24 230 0
0.746581 -0.232529 -0.110546 25 229 0
0.746581 -0.232529 -0.110546 26 228 0
0.746581 -0.232529 -0.110546 28 226 0
0.746581 -0.232529 -0.110546 29 225 0
0.746581 -0.232529 -0.110546 30 224 0
0.746581 -0.232529 -0.110546 32 222 0
0.746581 -0.232529 -0.110546 33 221 0
0.746581 -0.232529 -0.110546 34 220 0
0.746581 -0.232529 -0.110546 35 219 0
0.746581 -0.232529 -0.110546 37 217 0
0.746581 -0.232529 -0.110546 38 216 0
0.746581 -0.232529 -0.110546 39 215 0
0.746581 -0.232529 -0.110546 41 213 0
0.746581 -0.232529 -0.110546 42 212 0
0.746581 -0.232529 -0.110546 43 211 0
0.746581 -0.232529 -0.110546 44 210 0
0.746581 -0.232529 -0.110546 46 208 0
0.746581 -0.232529 -0.110546 47 207 0
0.746581 -0.232529 -0.110546 48 206 0
0.746581 -0.232529 -0.110546 49 205 0
0.746581 -0.232529 -0.110546 51 203 0
0.746581 -0.232529 -0.110546 52 202 0
0.746581 -0.232529 -0.110546 53 201 0
0.746581 -0.232529 -0.110546 55 199 0
0.746581 -0.232529 -0.110546 56 198 0
0.746581 -0.232529 -0.110546 57 197 0
0.746581 -0.232529 -0.110546 58 196 0
0.746581 -0.232529 -0.110546 60 194 0
0.746581 -0.232529 -0.110546 61 193 0
0.746581 -0.232529 -0.110546 62 192 0
0.746581 -0.232529 -0.110546 64 190 0
0.746581 -0.232529 -0.110546 65 189 0
0.746581 -0.232529 -0.110546 66 188 0
0.746581 -0.232529 -0.110546 67 187 0
0.746581 -0.232529 -0.110546 69 185 0
0.746581 -0.232529 -0.110546 70 184 0
0.746581 -0.232529 -0.110546 71 183 0
0.746581 -0.232529 -0.110546 73 181 0
0.746581 -0.232529 -0.110546 74 180 0
0.746581 -0.232529 -0.110546 75 179 0
0.746581 -0.232529 -0.110546 76 178 0
0.746581 -0.232529 -0.110546 78 176 0
0.746581 -0.232529 -0.110546 79 175 0
0.746581 -0.232529 -0.110546 80 174 0
0.746581 -0.232529 -0.110546 82 172 0
0.746581 -0.232529 -0.110546 83 171 0
0.746581 -0.232529 -0.110546 84 170 0
0.746581 -0.232529 -0.110546 85 169 0
0.746581 -0.232529 -0.110546 87 167 0
0.746581 -0.232529 -0.110546 88 166 0
0.746581 -0.232529 -0.110546 89 165 0
0.746581 -0.232529 -0.110546 90 164 0
0.746581 -0.232529 -0.110546 92 162 0
0.746581 -0.232529 -0.110546 93 161 0
0.746581 -0.232529 -0.110546 94 160 0
0.746581 -0.232529 -0.110546 96 158 0
0.746581 -0.232529 -0.110546 97 157 0
0.746581 -0.232529 -0.110546 98 156 0
0.746581 -0.232529 -0.110546 99 155 0
0.746581 -0.232529 -0.110546 101 153 0
0.746581 -0.232529 -0.110546 102 152 0
0.746581 -0.232529 -0.110546 103 151 0
0.746581 -0.232529 -0.110546 105 149 0
0.746581 -0.232529 -0.110546 106 148 0
0.746581 -0.232529 -0.110546 107 147 0
0.746581 -0.232529 -0.110546 108 146 0
0.746581 -0.232529 -0.110546 110 144 0
0.746581 -0.232529 -0.110546 111 143 0
0.746581 -0.232529 -0.110546 112 142 0
0.746581 -0.232529 -0.110546 114 140 0
0.746581 -0.232529 -0.110546 115 139 0
0.746581 -0.232529 -0.110546 116 138 0
0.746581 -0.232529 -0.110546 117 137 0
0.746581 -0.232529 -0.110546 119 135 0
0.746581 -0.232529 -0.110546 120 134 0
0.746581 -0.232529 -0.110546 121 133 0
0.746581 -0.232529 -0.110546 123 131 0
0.746581 -0.232529 -0.110546 124 130 0
0.746581 -0.232529 -0.110546 125 129 0
0.746581 -0.232529 -0.110546 126 128 0
0.746581 -0.232529 -0.110546 128 126 0
0.746581 -0.232529 -0.110546 129 125 0
0.746581 -0.232529 -0.110546 130 124 0
0.746581 -0.232529 -0.110546 131 123 0
0.746581 -0.232529 -0.110546 133 121 0
0.746581 -0.232529 -0.110546 134 120 0
0.746581 -0.232529 -0.110546 135 119 0
0.746581 -0.232529 -0.110546 137 117 0
0.746581 -0.232529 -0.110546 138 116 0
0.746581 -0.232529 -0.110546 139 115 0
0.746581 -0.232529 -0.110546 140 114 0
0.746581 -0.232529 -0.110546 142 112 0
0.746581 -0.232529 -0.110546 143 111 0
0.746581 -0.232529 -0.110546 144 110 0
0.746581 -0.232529 -0.110546 146 108 0
0.746581 -0.232529 -0.110546 147 107 0
0.746581 -0.232529 -0.110546 148 106 0
0.746581 -0.232529 -0.110546 149 105 0
0.746581 -0.232529 -0.110546 151 103 0
0.746581 -0.232529 -0.110546 152 102 0
0.746581 -0.232529 -0.110546 153 101 0
0.746581 -0.232529 -0.110546 155 99 0
0.746581 -0.232529 -0.110546 156 98 0
0.746581 -0.232529 -0.110546 157 97 0
0.746581 -0.232529 -0.110546 158 96 0
0.746581 -0.232529 -0.110546 160 94 0
0.746581 -0.232529 -0.110546 161 93 0
0.746581 -0.232529 -0.110546 162 92 0
0.746581 -0.232529 -0.110546 164 90 0
0.746581 -0.232529 -0.110546 165 89 0
0.746581 -0.232529 -0.110546 166 88 0
0.746581 -0.232529 -0.110546 167 87 0
0.746581 -0.232529 -0.110546 169 85 0
0.746581 -0.232529 -0.110546 170 84 0
0.746581 -0.232529 -0.110546 171 83 0
0.746581 -0.232529 -0.110546 172 82 0
0.746581 -0.232529 -0.110546 174 80 0
0.746581 -0.232529 -0.110546 175 79 0
0.746581 -0.232529 -0.110546 176 78 0
0.746581 -0.232529 -0.110546 178 76 0
0.746581 -0.232529 -0.110546 179 75 0
0.746581 -0.232529 -0.110546 180 74 0
0.746581 -0.232529 -0.110546 181 73 0
0.746581 -0.232529 -0.110546 183 71 0
0.746581 -0.232529 -0.110546 184 70 0
0.746581 -0.232529 -0.110546 185 69 0
0.746581 -0.232529 -0.110546 187 67 0
0.746581 -0.232529 -0.110546 188 66 0
0.746581 -0.232529 -0.110546 189 65 0
0.746581 -0.232529 -0.110546 190 64 0
0.746581 -0.232529 -0.110546 192 62 0
0.746581 -0.232529 -0.110546 193 61 0
0.746581 -0.232529 -0.110546 194 60 0
0.746581 -0.232529 -0.110546 196 58 0
0.746581 -0.232529 -0.110546 197 57 0
0.746581 -0.232529 -0.110546 198 56 0
0.746581 -0.232529 -0.110546 199 55 0
0.746581 -0.232529 -0.110546 201 53 0
0.746581 -0.232529 -0.110546 202 52 0
0.746581 -0.232529 -0.110546 203 51 0
0.746581 -0.232529 -0.110546 205 49 0
0.746581 -0.232529 -0.110546 206 48 0
0.746581 -0.232529 -0.110546 207 47 0
0.746581 -0.232529 -0.110546 208 46 0
0.746581 -0.232529 -0.110546 210 44 0
0.746581 -0.232529 -0.110546 211 43 0
0.746581 -0.232529 -0.110546 212 42 0
0.746581 -0.232529 -0.110546 213 41 0
0.746581 -0.232529 -0.110546 215 39 0
0.746581 -0.232529 -0.110546 216 38 0
0.746581 -0.232529 -0.110546 217 37 0
0.746581 -0.232529 -0.110546 219 35 0
0.746581 -0.232529 -0.110546 220 34 0
0.746581 -0.232529 -0.110546 221 33 0
0.746581 -0.232529 -0.110546 222 32 0
0.746581 -0.232529 -0.110546 224 30 0
0.746581 -0.232529 -0.110546 225 29 0
0.746581 -0.232529 -0.110546 226 28 0
0.746581 -0.232529 -0.110546 228 26 0
0.746581 -0.232529 -0.110546 229 25 0
0.746581 -0.232529 -0.110546 230 24 0
0.746581 -0.232529 -0.110546 231 23 0
0.746581 -0.232529 -0.110546 233 21 0
0.746581 -0.232529 -0.110546 234 20 0
0.746581 -0.232529 -0.110546 235 19 0
0.746581 -0.232529 -0.110546 237 17 0
0.746581 -0.232529 -0.110546 238 16 0
0.746581 -0.232529 -0.110546 239 15 0
0.746581 -0.232529 -0.110546 240 14 0
0.746581 -0.232529 -0.110546 242 12 0
0.746581 -0.232529 -0.110546 243 11 0
0.746581 -0.232529 -0.110546 244 10 0
0.746581 -0.232529 -0.110546 246 8 0
0.746581 -0.232529 -0.110546 247 7 0
0.746581 -0.232529 -0.110546 248 6 0
0.746581 -0.232529 -0.110546 249 5 0
0.746581 -0.232529 -0.110546 251 3 0
0.746581 -0.232529 -0.110546 252 2 0
0.746581 -0.232529 -0.110546 253 1 0
0.746581 -0.232529 -0.110546 255 0 0
