ply
format ascii 1.0
comment Generated by robot_control PLYWriter
element vertex 74
property float x
property float y
property float z
property uchar red
property uchar green
property uchar blue
end_header
0.542586 0.0476963 -0.104728 0 255 0
0.545904 0.0450188 -0.104232 3 251 0
0.549073 0.0409742 -0.10393 6 248 0
0.550085 0.0353164 -0.103873 10 244 0
0.54856 0.030936 -0.104098 13 241 0
0.545597 0.0261191 -0.104529 17 237 0
0.54069 0.0238949 -0.105097 20 234 0
0.535603 0.0254996 -0.105712 24 230 0
0.530006 0.0268159 -0.106412 27 227 0
0.526732 0.031235 -0.10707 31 223 0
0.52419 0.0364944 -0.107357 34 220 0
0.522755 0.0418957 -0.107506 38 216 0
0.524229 0.0473317 -0.107401 41 213 0
0.527485 0.0521147 -0.107208 45 209 0
0.532351 0.0553979 -0.106675 48 206 0
0.538294 0.0553371 -0.106141 52 202 0
0.544079 0.0545615 -0.105429 55 199 0
0.548105 0.0506577 -0.10502 59 195 0
0.550094 0.0452645 -0.10472 62 192 0
0.548562 0.0395848 -0.104711 66 188 0
0.544135 0.0361184 -0.10502 69 185 0
0.538788 0.0337949 -0.105667 73 181 0
0.533117 0.0349488 -0.106244 76 178 0
0.527803 0.0376201 -0.106705 80 174 0
0.523878 0.0420436 -0.107267 83 171 0
0.522689 0.0475993 -0.107504 87 167 0
0.522524 0.0535671 -0.107647 90 164 0
0.525903 0.058207 -0.107635 94 160 0
0.529154 0.0626774 -0.107464 97 157 0
0.534849 0.0644371 -0.10717 101 153 0
0.540688 0.064904 -0.106611 104 150 0
0.545693 0.0621451 -0.106118 108 146 0
0.548374 0.0569316 -0.105604 111 143 0
0.548491 0.050961 -0.105503 115 139 0
0.545857 0.0457954 -0.105606 118 136 0
0.540687 0.043107 -0.105926 122 132 0
0.535279 0.0424702 -0.106259 125 129 0
0.530026 0.0452704 -0.106728 129 125 0
0.524523 0.0475228 -0.107191 132 122 0
0.522676 0.0529999 -0.107645 136 118 0
0.522526 0.0589634 -0.107936 139 115 0
0.52376 0.0647017 -0.108113 143 111 0
0.527501 0.069287 -0.108088 146 108 0
0.532489 0.0724768 -0.1078 150 104 0
0.538273 0.0733945 -0.107411 153 101 0
0.543825 0.0724259 -0.106993 157 97 0
0.546921 0.0673797 -0.106594 160 94 0
0.547836 0.0620605 -0.106285 164 90 0
0.545763 0.0564835 -0.106284 167 87 0
0.541478 0.0529347 -0.106533 171 83 0
0.535847 0.0518401 -0.10692 174 80 0
0.530307 0.0538472 -0.107376 178 76 0
0.52522 0.0559888 -0.107933 181 73 0
0.522637 0.0612974 -0.108491 185 69 0
0.520902 0.0669418 -0.108939 188 66 0
0.521773 0.0727708 -0.109187 192 62 0
0.525013 0.0776564 -0.109242 195 59 0
0.529731 0.0812086 -0.109088 199 55 0
0.535266 0.0832975 -0.108799 202 52 0
0.540953 0.0821796 -0.108333 206 48 0
0.544801 0.07778 -0.10766 209 45 0
0.548312 0.0730461 -0.107126 213 41 0
0.5465 0.0674803 -0.106824 216 38 0
0.542604 0.0630116 -0.106801 220 34 0
0.537178 0.0609115 -0.107134 223 31 0
0.532566 0.061616 -0.10752 227 27 0
0.526979 0.0626065 -0.108309 230 24 0
0.52288 0.0668592 -0.109193 234 20 0
0.520776 0.0720842 -0.10988 237 17 0
0.52068 0.0780353 -0.110314 241 13 0
0.522273 0.0824581 -0.110618 244 10 0
0.524679 0.0871698 -0.11073 248 6 0
0.527676 0.0903682 -0.11078 251 3 0
0.532647 0.0924677 -0.111123 255 0 0
