ply
format ascii 1.0
comment Generated by robot_control PLYWriter
element vertex 115
property float x
property float y
property float z
property uchar red
property uchar green
property uchar blue
end_header
0.588722 0.0453773 -0.0811681 0 255 0
0.592485 0.0436139 -0.0832891 2 252 0
0.594488 0.0404264 -0.0861053 4 250 0
0.596641 0.0362166 -0.0889281 6 248 0
0.598541 0.0313772 -0.09122 8 246 0
0.598586 0.0255914 -0.0924873 11 243 0
0.59548 0.0211304 -0.0924413 13 241 0
0.59182 0.0164762 -0.0919251 15 239 0
0.587975 0.0136197 -0.0913461 17 237 0
0.582658 0.0120425 -0.0908868 20 234 0
0.576691 0.0120386 -0.0906037 22 232 0
0.572111 0.015735 -0.0899263 24 230 0
0.568834 0.0199405 -0.0890354 26 228 0
0.568404 0.0257892 -0.0880362 29 225 0
0.569841 0.0307731 -0.0869885 31 223 0
0.574003 0.0349819 -0.0866615 33 221 0
0.579334 0.0371649 -0.087163 35 219 0
0.58515 0.0370893 -0.0880876 38 216 0
0.590157 0.0340761 -0.0891122 40 214 0
0.59429 0.0299504 -0.0901315 42 212 0
0.596153 0.0246226 -0.0907911 44 210 0
0.598454 0.0194526 -0.0912276 46 208 0
0.596214 0.0140662 -0.0912524 49 205 0
0.593643 0.00923805 -0.0910387 51 203 0
0.589728 0.00480493 -0.0906111 53 201 0
0.584557 0.00236587 -0.0902721 55 199 0
0.578614 0.0023937 -0.0899777 58 196 0
0.573011 0.00442579 -0.0897606 60 194 0
0.568496 0.00819965 -0.0895958 62 192 0
0.566456 0.0136361 -0.0896246 64 190 0
0.568279 0.0189743 -0.089821 67 187 0
0.571708 0.0238027 -0.0901456 69 185 0
0.576894 0.026615 -0.0904927 71 183 0
0.582742 0.0274257 -0.0906844 73 181 0
0.588112 0.0249469 -0.0907185 76 178 0
0.592867 0.0213318 -0.0907092 78 176 0
0.595924 0.0164103 -0.0906356 80 174 0
0.596152 0.0105018 -0.0904523 82 172 0
0.595699 0.00461403 -0.0902138 85 169 0
0.592642 -0.00037468 -0.0898654 87 167 0
0.589123 -0.00513369 -0.0894829 89 165 0
0.58399 -0.00652328 -0.0891459 91 163 0
0.57802 -0.00649615 -0.0889318 93 161 0
0.572491 -0.00514378 -0.0889377 96 158 0
0.568716 -0.000601193 -0.0891215 98 156 0
0.566727 0.00480217 -0.0893953 100 154 0
0.568463 0.0104928 -0.0898117 102 152 0
0.572231 0.0147592 -0.0902426 105 149 0
0.577416 0.0174861 -0.0905266 107 147 0
0.583315 0.0172276 -0.0906307 109 145 0
0.588588 0.014475 -0.0905185 111 143 0
0.593005 0.0107832 -0.0901935 114 140 0
0.595559 0.00550708 -0.0898034 116 138 0
0.596142 -0.000356648 -0.0893727 118 136 0
0.596208 -0.00630848 -0.0888697 120 134 0
0.593344 -0.0114379 -0.0884811 123 131 0
0.588312 -0.0144933 -0.0880917 125 129 0
0.583095 -0.0170129 -0.0877867 127 127 0
0.577123 -0.0170058 -0.0876269 129 125 0
0.571665 -0.0152553 -0.087563 131 123 0
0.568781 -0.010265 -0.0877268 134 120 0
0.566568 -0.00490353 -0.088085 136 118 0
0.567891 0.0004851 -0.0885245 138 116 0
0.572125 0.00467794 -0.0889403 140 114 0
0.577477 0.00716463 -0.0892649 143 111 0
0.58341 0.00737139 -0.0893425 145 109 0
0.588807 0.00549305 -0.0891729 147 107 0
0.592964 0.00125351 -0.0889047 149 105 0
0.595873 -0.00387276 -0.0885294 152 102 0
0.596138 -0.00977842 -0.0881544 154 100 0
0.594821 -0.015586 -0.0878515 156 98 0
0.592233 -0.0208585 -0.0874113 158 96 0
0.587909 -0.0249228 -0.087149 161 93 0
0.58221 -0.0263034 -0.0867848 163 91 0
0.576273 -0.0261427 -0.0865948 165 89 0
0.571117 -0.0232794 -0.0867165 167 87 0
0.567013 -0.0190182 -0.0869499 170 84 0
0.56659 -0.0131787 -0.0872964 172 82 0
0.568198 -0.00768217 -0.0876151 174 80 0
0.572871 -0.00416712 -0.0878731 176 78 0
0.578553 -0.00265852 -0.0879678 178 76 0
0.584527 -0.0027003 -0.0879396 181 73 0
0.589574 -0.00570536 -0.0878125 183 71 0
0.593304 -0.010165 -0.0874812 185 69 0
0.595453 -0.0156887 -0.08714 187 67 0
0.596672 -0.0212082 -0.0867256 190 64 0
0.594426 -0.0266169 -0.0863035 192 62 0
0.591813 -0.0317409 -0.0860155 194 60 0
0.586905 -0.0351419 -0.0858302 196 58 0
0.581406 -0.0367388 -0.0857426 199 55 0
0.575437 -0.0365088 -0.0857996 201 53 0
0.57047 -0.0340189 -0.0859806 203 51 0
0.567021 -0.029156 -0.0863163 205 49 0
0.566598 -0.0233173 -0.0866103 208 46 0
0.568422 -0.0178849 -0.0868219 210 44 0
0.571881 -0.0130646 -0.0868736 212 42 0
0.57747 -0.012416 -0.0868325 214 40 0
0.583358 -0.0124257 -0.0867179 216 38 0
0.58867 -0.0147515 -0.0865381 219 35 0
0.593001 -0.0186729 -0.0863209 221 33 0
0.594368 -0.0243909 -0.0859235 223 31 0
0.596857 -0.0290842 -0.0854637 225 29 0
0.595773 -0.034865 -0.0850382 228 26 0
0.592394 -0.0397681 -0.0845747 230 24 0
0.588482 -0.0442565 -0.0843128 232 22 0
0.583541 -0.0467472 -0.0843226 234 20 0
0.57759 -0.0466109 -0.0847137 237 17 0
0.572878 -0.0443342 -0.0852489 239 15 0
0.568184 -0.0419425 -0.0858094 241 13 0
0.56668 -0.0366133 -0.0863334 243 11 0
0.566251 -0.0326951 -0.0866588 246 8 0
0.568129 -0.0283806 -0.0867362 248 6 0
0.571276 -0.0246568 -0.0864892 250 4 0
0.574744 -0.0224328 -0.0860977 252 2 0
0.580573 -0.0224202 -0.0858699 255 0 0
