ply
format ascii 1.0
comment Generated by robot_control PLYWriter
element vertex 155
property float x
property float y
property float z
property uchar red
property uchar green
property uchar blue
end_header
0.564522 0.0692951 -0.108269 0 255 0
0.569113 0.0680173 -0.107992 1 253 0
0.572362 0.0647836 -0.107647 3 251 0
0.574752 0.0612178 -0.107356 4 250 0
0.577147 0.0569747 -0.107062 6 248 0
0.577118 0.0510034 -0.106709 8 246 0
0.573864 0.0466165 -0.106403 9 245 0
0.570966 0.0418253 -0.106109 11 243 0
0.565623 0.040378 -0.106028 13 241 0
0.560166 0.0391224 -0.106222 14 240 0
0.55426 0.0393562 -0.106671 16 238 0
0.549251 0.0424164 -0.107129 18 236 0
0.545259 0.0466362 -0.107854 19 235 0
0.541768 0.051155 -0.108462 21 233 0
0.54074 0.0566345 -0.10909 23 231 0
0.540405 0.0622744 -0.109518 24 230 0
0.542996 0.0676037 -0.109783 26 228 0
0.544757 0.0733171 -0.109903 28 226 0
0.549729 0.0765863 -0.109881 29 225 0
0.55486 0.0795786 -0.109707 31 223 0
0.560834 0.0796026 -0.109396 33 221 0
0.566751 0.0799937 -0.108979 34 220 0
0.571224 0.0760653 -0.108568 36 218 0
0.574896 0.0714288 -0.108221 38 216 0
0.577154 0.0660554 -0.107812 39 215 0
0.574955 0.0606031 -0.107431 41 213 0
0.572737 0.0555641 -0.107087 43 211 0
0.567663 0.0525741 -0.107022 44 210 0
0.562984 0.0495069 -0.107293 46 208 0
0.557012 0.0495091 -0.107657 48 206 0
0.551396 0.0510849 -0.108116 49 205 0
0.547136 0.0552045 -0.108473 51 203 0
0.542713 0.0592151 -0.108816 52 202 0
0.540268 0.0646266 -0.109166 54 200 0
0.540811 0.0704353 -0.109668 56 198 0
0.541212 0.0762966 -0.110006 57 197 0
0.544458 0.0812972 -0.110265 59 195 0
0.547898 0.0859941 -0.110316 61 193 0
0.552909 0.0892537 -0.110208 62 192 0
0.558455 0.0911499 -0.110032 64 190 0
0.564027 0.0901545 -0.109698 66 188 0
0.569223 0.0872079 -0.109387 67 187 0
0.573572 0.0831971 -0.109018 69 185 0
0.576138 0.0778576 -0.108745 71 183 0
0.575308 0.0725981 -0.108485 72 182 0
0.572378 0.0673885 -0.108359 74 180 0
0.568089 0.0633875 -0.108434 76 178 0
0.562474 0.0613441 -0.108624 77 177 0
0.557086 0.060668 -0.108845 79 175 0
0.551627 0.0629844 -0.109096 81 173 0
0.546558 0.0657448 -0.109383 82 172 0
0.543186 0.0706227 -0.10969 84 170 0
0.541264 0.0761749 -0.109961 86 168 0
0.540857 0.0821252 -0.110218 87 167 0
0.542165 0.0877378 -0.11045 89 165 0
0.545173 0.092907 -0.110577 91 163 0
0.548617 0.097772 -0.110606 92 162 0
0.553407 0.100896 -0.110531 94 160 0
0.559269 0.101501 -0.110367 96 158 0
0.565059 0.100343 -0.110148 97 157 0
0.570123 0.0972326 -0.109946 99 155 0
0.574627 0.0933373 -0.109659 101 153 0
0.574706 0.0873803 -0.109472 102 152 0
0.574554 0.0814405 -0.10934 104 150 0
0.571295 0.0764364 -0.109368 105 149 0
0.566768 0.0728939 -0.109465 107 147 0
0.560924 0.0720414 -0.109596 109 145 0
0.554951 0.0722538 -0.109786 110 144 0
0.549445 0.0742407 -0.109997 112 142 0
0.545169 0.0780815 -0.110225 114 140 0
0.542438 0.0833868 -0.110517 115 139 0
0.540789 0.0890323 -0.11088 117 137 0
0.540713 0.0950056 -0.111176 119 135 0
0.541546 0.100727 -0.111357 120 134 0
0.545139 0.105468 -0.111478 122 132 0
0.550154 0.108711 -0.111436 124 130 0
0.554961 0.112096 -0.11136 125 129 0
0.560937 0.112131 -0.111264 127 127 0
0.566577 0.110142 -0.111089 129 125 0
0.571522 0.106983 -0.110822 130 124 0
0.574684 0.10209 -0.110624 132 122 0
0.574682 0.0961128 -0.110371 134 120 0
0.573518 0.0903574 -0.110155 135 119 0
0.570149 0.0856851 -0.110042 137 117 0
0.565226 0.0822878 -0.110067 139 115 0
0.559447 0.0819498 -0.110205 140 114 0
0.553666 0.0833999 -0.110467 142 112 0
0.548278 0.0859558 -0.110769 144 110 0
0.544385 0.0902345 -0.111173 145 109 0
0.54156 0.0954747 -0.111667 147 107 0
0.540753 0.101239 -0.112218 149 105 0
0.540709 0.107211 -0.112568 150 104 0
0.542491 0.1128 -0.112845 152 102 0
0.546602 0.116996 -0.11301 153 101 0
0.551312 0.120679 -0.113105 155 99 0
0.556917 0.122276 -0.113059 157 97 0
0.562863 0.122258 -0.112903 158 96 0
0.568202 0.119781 -0.112633 160 94 0
0.572573 0.115825 -0.112183 162 92 0
0.574647 0.110348 -0.111782 163 91 0
0.574686 0.104377 -0.111411 165 89 0
0.572401 0.0995065 -0.111023 167 87 0
0.568263 0.095231 -0.110841 168 86 0
0.563204 0.0934883 -0.110803 170 84 0
0.557424 0.0924371 -0.110957 172 82 0
0.551702 0.0932568 -0.111328 173 81 0
0.547173 0.0969368 -0.111823 175 79 0
0.543384 0.101517 -0.112453 177 77 0
0.540257 0.106585 -0.113015 178 76 0
0.538333 0.112081 -0.113728 180 74 0
0.540106 0.117779 -0.114156 182 72 0
0.542592 0.123171 -0.114722 183 71 0
0.546312 0.127811 -0.115175 185 69 0
0.551067 0.131422 -0.115431 187 67 0
0.556842 0.13296 -0.115482 188 66 0
0.562819 0.133021 -0.115239 190 64 0
0.567806 0.13043 -0.11483 192 62 0
0.572371 0.126632 -0.11423 193 61 0
0.574626 0.121404 -0.113429 195 59 0
0.574632 0.115459 -0.112771 197 57 0
0.572315 0.110308 -0.112101 198 56 0
0.567656 0.10665 -0.111732 200 54 0
0.562298 0.103994 -0.111673 202 52 0
0.556477 0.103296 -0.111872 203 51 0
0.55124 0.106023 -0.112384 205 49 0
0.546318 0.109371 -0.112977 206 48 0
0.541693 0.113086 -0.113676 208 46 0
0.540006 0.118311 -0.114708 210 44 0
0.539073 0.123356 -0.115566 211 43 0
0.540904 0.128904 -0.116368 213 41 0
0.542576 0.134531 -0.117258 215 39 0
0.546792 0.138648 -0.117886 216 38 0
0.551952 0.141587 -0.118397 218 36 0
0.55744 0.14394 -0.118577 220 34 0
0.563121 0.142678 -0.118378 221 33 0
0.568609 0.14098 -0.117803 223 31 0
0.572583 0.136771 -0.116887 225 29 0
0.574552 0.131383 -0.115817 226 28 0
0.5746 0.125539 -0.114596 228 26 0
0.571408 0.120564 -0.113858 230 24 0
0.567362 0.116944 -0.113229 231 23 0
0.562106 0.114323 -0.113058 233 21 0
0.556288 0.113974 -0.113322 235 19 0
0.551001 0.115774 -0.113931 236 18 0
0.545688 0.118388 -0.114533 238 16 0
0.542916 0.12303 -0.115335 240 14 0
0.540513 0.126484 -0.116233 241 13 0
0.539549 0.131495 -0.117352 243 11 0
0.53871 0.13716 -0.118577 245 9 0
0.539409 0.140268 -0.119607 246 8 0
0.54209 0.143675 -0.12061 248 6 0
0.544407 0.148138 -0.121997 250 4 0
0.548995 0.15148 -0.122877 251 3 0
0.552207 0.153718 -0.123803 253 1 0
0.557124 0.154371 -0.124317 255 0 0
