ply
format ascii 1.0
comment Generated by robot_control PLYWriter
element vertex 12
property float x
property float y
property float z
property uchar red
property uchar green
property uchar blue
end_header
0.624002 0.147551 -0.130087 0 255 0
0.624728 0.142693 -0.128336 23 231 0
0.625415 0.137878 -0.126453 46 208 0
0.626222 0.133039 -0.124676 69 185 0
0.62709 0.128179 -0.122993 92 162 0
0.627952 0.123277 -0.121429 115 139 0
0.628776 0.118326 -0.120009 139 115 0
0.629613 0.113325 -0.118787 162 92 0
0.630605 0.108294 -0.117857 185 69 0
0.631662 0.103226 -0.117228 208 46 0
0.632628 0.09813 -0.11667 231 23 0
0.633595 0.0930296 -0.116244 255 0 0
