ply
format ascii 1.0
comment Generated by robot_control PLYWriter
element vertex 29
property float x
property float y
property float z
property uchar red
property uchar green
property uchar blue
end_header
0.700393 0.0603529 -0.136261 0 255 0
0.703698 0.0569965 -0.135703 9 245 0
0.70652 0.0529252 -0.134229 18 236 0
0.706485 0.0474419 -0.132359 27 227 0
0.704673 0.0422907 -0.13049 36 218 0
0.700634 0.0384479 -0.128961 45 209 0
0.695053 0.0372667 -0.128017 54 200 0
0.689223 0.0372696 -0.127659 63 191 0
0.683804 0.0393831 -0.127685 72 182 0
0.679694 0.0435784 -0.128201 81 173 0
0.676284 0.0483098 -0.129003 91 163 0
0.674549 0.053641 -0.130075 100 154 0
0.676787 0.0587485 -0.131283 109 145 0
0.68212 0.0608433 -0.132166 118 136 0
0.687989 0.0608518 -0.132433 127 127 0
0.692734 0.0582971 -0.131996 136 118 0
0.695144 0.053034 -0.131081 145 109 0
0.696106 0.0475068 -0.129845 154 100 0
0.692666 0.0430589 -0.12876 163 91 0
0.688299 0.0394407 -0.127346 173 81 0
0.683027 0.0369575 -0.126556 182 72 0
0.677582 0.0389754 -0.126199 191 63 0
0.672162 0.0412361 -0.126204 200 54 0
0.666976 0.0438861 -0.12675 209 45 0
0.66416 0.0486402 -0.127941 218 36 0
0.664631 0.0543142 -0.129427 227 27 0
0.66643 0.0586813 -0.131614 236 18 0
0.67066 0.0614158 -0.132688 245 9 0
0.674985 0.0633685 -0.133807 255 0 0
