ply
format ascii 1.0
comment Generated by robot_control PLYWriter
element vertex 97
property float x
property float y
property float z
property uchar red
property uchar green
property uchar blue
end_header
0.74095 0.131121 -0.138902 0 255 0
0.74559 0.128966 -0.138273 2 252 0
0.7487 0.125242 -0.136952 5 249 0
0.751631 0.12075 -0.13543 7 247 0
0.750838 0.115925 -0.133977 10 244 0
0.751137 0.111767 -0.132692 13 241 0
0.749237 0.106471 -0.131361 15 239 0
0.74547 0.102482 -0.130565 18 236 0
0.740954 0.0996154 -0.130226 21 233 0
0.735259 0.0980895 -0.130291 23 231 0
0.729628 0.0995036 -0.130787 26 228 0
0.724755 0.101579 -0.131773 29 225 0
0.723119 0.106281 -0.133166 31 223 0
0.722693 0.112137 -0.13414 34 220 0
0.724554 0.117468 -0.13513 37 217 0
0.729273 0.120423 -0.135496 39 215 0
0.734955 0.122124 -0.1354 42 212 0
0.74063 0.120708 -0.134826 45 209 0
0.745699 0.117662 -0.133936 47 207 0
0.74988 0.113664 -0.132775 50 204 0
0.7513 0.108363 -0.131234 53 201 0
0.752316 0.102623 -0.130032 55 199 0
0.750653 0.0969899 -0.129144 58 196 0
0.746993 0.0923899 -0.128454 61 193 0
0.742637 0.0885383 -0.12794 63 191 0
0.736871 0.0873581 -0.12789 66 188 0
0.730983 0.0878039 -0.128243 69 185 0
0.725745 0.0904165 -0.1289 71 183 0
0.722903 0.0955647 -0.129662 74 180 0
0.722711 0.101397 -0.130628 77 177 0
0.725388 0.106404 -0.131395 79 175 0
0.730012 0.109988 -0.131579 82 172 0
0.735806 0.110663 -0.131426 85 169 0
0.741333 0.10845 -0.130813 87 167 0
0.746346 0.105403 -0.129968 90 164 0
0.750564 0.101237 -0.129089 92 162 0
0.752982 0.0961473 -0.128017 95 159 0
0.751674 0.0906316 -0.127012 98 156 0
0.749831 0.0850432 -0.126128 100 154 0
0.746124 0.0807927 -0.125296 103 151 0
0.741337 0.0772485 -0.125064 106 148 0
0.735681 0.0757299 -0.125068 108 146 0
0.730099 0.0774949 -0.125378 111 143 0
0.72533 0.0810705 -0.125975 114 140 0
0.722068 0.0860296 -0.12663 116 138 0
0.723415 0.0916452 -0.127559 119 135 0
0.726284 0.0968 -0.128236 122 132 0
0.731236 0.100063 -0.128435 124 130 0
0.737196 0.0996362 -0.128244 127 127 0
0.74291 0.0985861 -0.127755 130 124 0
0.747612 0.0950083 -0.126992 132 122 0
0.750918 0.09016 -0.126002 135 119 0
0.752757 0.0845378 -0.125109 138 116 0
0.752172 0.0786745 -0.124161 140 114 0
0.750128 0.0731384 -0.123474 143 111 0
0.745234 0.0697357 -0.122805 146 108 0
0.739989 0.0668887 -0.122496 148 106 0
0.734208 0.0657338 -0.122429 151 103 0
0.728909 0.0679536 -0.122771 154 100 0
0.725126 0.0725422 -0.12352 156 98 0
0.723223 0.0781288 -0.124243 159 95 0
0.724977 0.0834257 -0.124936 162 92 0
0.729142 0.087724 -0.125293 164 90 0
0.734756 0.0887763 -0.125367 167 87 0
0.740352 0.0884716 -0.125083 170 84 0
0.745443 0.0853628 -0.124461 172 82 0
0.750233 0.0818238 -0.123717 175 79 0
0.752048 0.0764064 -0.122641 177 77 0
0.752319 0.0705072 -0.121612 180 74 0
0.751356 0.0648809 -0.120735 183 71 0
0.747502 0.0604368 -0.120015 185 69 0
0.742716 0.0569041 -0.119421 188 66 0
0.737083 0.0550288 -0.119242 191 63 0
0.731082 0.0550639 -0.119399 193 61 0
0.726132 0.0581083 -0.119944 196 58 0
0.724606 0.0637335 -0.120679 199 55 0
0.722713 0.0691587 -0.121559 201 53 0
0.725544 0.0741383 -0.122238 204 50 0
0.730489 0.077487 -0.122682 207 47 0
0.736163 0.078781 -0.122775 209 45 0
0.741159 0.0775192 -0.122396 212 42 0
0.746121 0.0743098 -0.1217 215 39 0
0.750409 0.0702019 -0.120841 217 37 0
0.752836 0.0650481 -0.119866 220 34 0
0.752806 0.0592105 -0.118553 223 31 0
0.750236 0.0539798 -0.117553 225 29 0
0.746614 0.0495794 -0.116803 228 26 0
0.743243 0.0452574 -0.11628 231 23 0
0.737337 0.0447923 -0.116037 233 21 0
0.73134 0.044803 -0.116263 236 18 0
0.727575 0.0475631 -0.116747 239 15 0
0.724518 0.0517286 -0.117598 241 13 0
0.722801 0.0567789 -0.118609 244 10 0
0.724608 0.0620067 -0.119691 247 7 0
0.727946 0.0656824 -0.120524 249 5 0
0.733065 0.0672689 -0.121068 252 2 0
0.738931 0.0677652 -0.121181 255 0 0
