ply
format ascii 1.0
comment Generated by robot_control PLYWriter
element vertex 8
property float x
property float y
property float z
property uchar red
property uchar green
property uchar blue
end_header
0.568477 0.0942476 -0.0144787 0 255 0
0.568322 0.089971 -0.011763 36 218 0
0.567852 0.0851764 -0.0101256 72 182 0
0.567443 0.0801816 -0.00944665 109 145 0
0.567172 0.0751833 -0.0100685 145 109 0
0.566942 0.070382 -0.0117132 182 72 0
0.566696 0.0658473 -0.013998 218 36 0
0.566778 0.0615678 -0.0167649 255 0 0
