ply
format ascii 1.0
comment Generated by robot_control PLYWriter
element vertex 14
property float x
property float y
property float z
property uchar red
property uchar green
property uchar blue
end_header
0.548316 -0.0235676 -0.0346176 0 255 0
0.548312 -0.0187166 -0.0345524 19 235 0
0.548318 -0.0138672 -0.0344067 39 215 0
0.548321 -0.00901733 -0.0342784 58 196 0
0.548325 -0.00416657 -0.0341883 78 176 0
0.548328 0.000684759 -0.0341379 98 156 0
0.548328 0.00553633 -0.0341169 117 137 0
0.548328 0.010388 -0.0341127 137 117 0
0.548331 0.0152394 -0.0341407 156 98 0
0.548351 0.0200893 -0.0342506 176 78 0
0.548401 0.0249352 -0.0344777 196 58 0
0.54845 0.0297779 -0.034767 215 39 0
0.548467 0.0346137 -0.035143 235 19 0
0.548515 0.0394438 -0.0355934 255 0 0
