ply
format ascii 1.0
comment Generated by robot_control PLYWriter
element vertex 29
property float x
property float y
property float z
property uchar red
property uchar green
property uchar blue
end_header
0.624019 0.183865 -0.147025 0 255 0
0.6283 0.181439 -0.146185 9 245 0
0.631626 0.176824 -0.144891 18 236 0
0.633982 0.171626 -0.14352 27 227 0
0.634613 0.166078 -0.141755 36 218 0
0.631954 0.16188 -0.139721 45 209 0
0.627323 0.158845 -0.138718 54 200 0
0.621487 0.158363 -0.138283 63 191 0
0.616499 0.16105 -0.138616 72 182 0
0.61314 0.165769 -0.139732 81 173 0
0.612854 0.171425 -0.141212 91 163 0
0.616273 0.175765 -0.142148 100 154 0
0.620897 0.179243 -0.142964 109 145 0
0.626703 0.179132 -0.143493 118 136 0
0.63217 0.177033 -0.143503 127 127 0
0.63688 0.173565 -0.14325 136 118 0
0.640481 0.169078 -0.142545 145 109 0
0.643966 0.164526 -0.141524 154 100 0
0.642426 0.159142 -0.140135 163 91 0
0.640886 0.154367 -0.138571 173 81 0
0.635915 0.151636 -0.137096 182 72 0
0.630156 0.150969 -0.136253 191 63 0
0.625211 0.153045 -0.136124 200 54 0
0.622585 0.158078 -0.136902 209 45 0
0.621728 0.162109 -0.138089 218 36 0
0.623548 0.166326 -0.139823 227 27 0
0.626672 0.169438 -0.141463 236 18 0
0.631319 0.17205 -0.142931 245 9 0
0.636544 0.172043 -0.144294 255 0 0
