ply
format ascii 1.0
comment Generated by robot_control PLYWriter
element vertex 29
property float x
property float y
property float z
property uchar red
property uchar green
property uchar blue
end_header
0.524145 0.178241 -0.142406 0 255 0
0.528172 0.174846 -0.140824 9 245 0
0.530768 0.170021 -0.139294 18 236 0
0.530872 0.164444 -0.137585 27 227 0
0.527735 0.159758 -0.136425 36 218 0
0.525362 0.154533 -0.135605 45 209 0
0.521415 0.150226 -0.135243 54 200 0
0.515573 0.149322 -0.135332 63 191 0
0.509545 0.14971 -0.135685 72 182 0
0.503899 0.151228 -0.137 81 173 0
0.501064 0.156108 -0.138145 91 163 0
0.500808 0.161267 -0.13932 100 154 0
0.50437 0.166128 -0.139669 109 145 0
0.50959 0.168977 -0.139697 118 136 0
0.51538 0.168442 -0.138974 127 127 0
0.519768 0.164859 -0.137839 136 118 0
0.523152 0.160249 -0.13619 145 109 0
0.523105 0.154377 -0.134819 154 100 0
0.521622 0.148703 -0.133741 163 91 0
0.518188 0.14386 -0.132818 173 81 0
0.513792 0.139757 -0.13224 182 72 0
0.507813 0.138951 -0.132132 191 63 0
0.501944 0.138372 -0.132636 200 54 0
0.497654 0.14251 -0.13357 209 45 0
0.493309 0.145555 -0.13516 218 36 0
0.494101 0.150678 -0.137007 227 27 0
0.496841 0.155193 -0.138319 236 18 0
0.501619 0.157925 -0.138962 245 9 0
0.506205 0.159673 -0.138788 255 0 0
