ply
format ascii 1.0
comment Generated by robot_control PLYWriter
element vertex 11
property float x
property float y
property float z
property uchar red
property uchar green
property uchar blue
end_header
0.634575 -0.135611 -0.0425692 0 255 0
0.634554 -0.130813 -0.0422229 25 229 0
0.634527 -0.126015 -0.0418697 51 204 0
0.634496 -0.121222 -0.0414692 76 178 0
0.634415 -0.116442 -0.0409436 102 153 0
0.634178 -0.111682 -0.0402937 127 127 0
0.633948 -0.106926 -0.039607 153 101 0
0.633713 -0.102171 -0.0389203 178 76 0
0.633471 -0.0974161 -0.0382324 204 50 0
0.633167 -0.0926815 -0.0374422 229 25 0
0.632688 -0.0879599 -0.03666 255 0 0
