ply
format ascii 1.0
comment Generated by robot_control PLYWriter
element vertex 71
property float x
property float y
property float z
property uchar red
property uchar green
property uchar blue
end_header
0.713504 -0.108103 -0.117083 0 255 0
0.717438 -0.111202 -0.118538 3 251 0
0.718953 -0.116218 -0.119803 7 247 0
0.717005 -0.120975 -0.120524 10 244 0
0.712205 -0.124393 -0.120282 14 240 0
0.706274 -0.124411 -0.119357 18 236 0
0.70244 -0.121239 -0.118043 21 233 0
0.69903 -0.116548 -0.116902 25 229 0
0.697258 -0.111729 -0.115766 29 225 0
0.698647 -0.106192 -0.115078 32 222 0
0.701743 -0.101895 -0.11474 36 218 0
0.706431 -0.0983569 -0.114851 40 214 0
0.712396 -0.0983547 -0.11556 43 211 0
0.717425 -0.101135 -0.116201 47 207 0
0.719696 -0.106197 -0.117027 51 204 0
0.717685 -0.111132 -0.117416 54 200 0
0.712506 -0.113185 -0.117203 58 196 0
0.706994 -0.114549 -0.116615 61 193 0
0.702371 -0.110882 -0.115715 65 189 0
0.69898 -0.106014 -0.114884 69 185 0
0.698379 -0.100258 -0.113913 72 182 0
0.700741 -0.0949828 -0.113393 76 178 0
0.704497 -0.0903428 -0.113227 80 174 0
0.7099 -0.0886556 -0.113501 83 171 0
0.715494 -0.0897169 -0.114001 87 167 0
0.719714 -0.0939276 -0.114583 91 163 0
0.718115 -0.0988122 -0.114999 94 160 0
0.714227 -0.102953 -0.115118 98 156 0
0.708752 -0.104809 -0.114752 102 153 0
0.703957 -0.101505 -0.113839 105 149 0
0.700257 -0.0970922 -0.112525 109 145 0
0.698878 -0.0914377 -0.11167 112 142 0
0.699011 -0.0855849 -0.111027 116 138 0
0.702733 -0.0812784 -0.110726 120 134 0
0.708258 -0.0789574 -0.110678 123 131 0
0.714185 -0.0783425 -0.111014 127 127 0
0.718583 -0.0820053 -0.111957 131 123 0
0.719313 -0.0877747 -0.112801 134 120 0
0.716257 -0.092682 -0.113148 138 116 0
0.710676 -0.0943465 -0.112681 142 112 0
0.705079 -0.0934803 -0.111628 145 109 0
0.701268 -0.0891381 -0.110625 149 105 0
0.699096 -0.0836061 -0.109863 153 101 0
0.698801 -0.0776742 -0.109115 156 98 0
0.701068 -0.0723137 -0.108586 160 94 0
0.705847 -0.0687706 -0.108452 163 91 0
0.711642 -0.0680574 -0.108958 167 87 0
0.716747 -0.0702921 -0.10984 171 83 0
0.719568 -0.0742991 -0.110611 174 80 0
0.718994 -0.0795703 -0.11098 178 76 0
0.7147 -0.0831008 -0.110735 182 72 0
0.70894 -0.0840658 -0.109977 185 69 0
0.703555 -0.0821095 -0.109126 189 65 0
0.699966 -0.0775133 -0.108064 193 61 0
0.698869 -0.0717475 -0.107365 196 58 0
0.699796 -0.0659495 -0.106785 200 54 0
0.70313 -0.0611434 -0.106802 204 50 0
0.708041 -0.0585569 -0.107274 207 47 0
0.714011 -0.0584362 -0.107943 211 43 0
0.718438 -0.060912 -0.108975 214 40 0
0.720131 -0.0663395 -0.109789 218 36 0
0.717885 -0.0711947 -0.109919 222 32 0
0.713404 -0.0744115 -0.109405 225 29 0
0.707483 -0.0744441 -0.108395 229 25 0
0.703013 -0.0707471 -0.10759 233 21 0
0.700367 -0.0660055 -0.106501 236 18 0
0.698558 -0.0616448 -0.105843 240 14 0
0.700519 -0.0566054 -0.105428 244 10 0
0.702413 -0.0522923 -0.105423 247 7 0
0.705065 -0.0495413 -0.10576 251 3 0
0.710082 -0.0489161 -0.106498 255 0 0
