ply
format ascii 1.0
comment Generated by robot_control PLYWriter
element vertex 48
property float x
property float y
property float z
property uchar red
property uchar green
property uchar blue
end_header
0.645618 0.155126 -0.139998 0 255 0
0.650096 0.15339 -0.139337 5 249 0
0.653996 0.149605 -0.137825 10 244 0
0.655261 0.144383 -0.135619 16 238 0
0.654746 0.139073 -0.133148 21 233 0
0.650733 0.13498 -0.131528 27 227 0
0.646109 0.131597 -0.130295 32 222 0
0.640805 0.129114 -0.129638 37 217 0
0.634916 0.130229 -0.129537 43 211 0
0.628937 0.130614 -0.129916 48 206 0
0.625964 0.135442 -0.130607 54 200 0
0.621601 0.138153 -0.131859 59 195 0
0.620156 0.143763 -0.133055 65 189 0
0.620921 0.149306 -0.134558 70 184 0
0.62489 0.153583 -0.135791 75 179 0
0.6304 0.155856 -0.136378 81 173 0
0.636335 0.155988 -0.136468 86 168 0
0.64157 0.153347 -0.136025 92 162 0
0.645238 0.148762 -0.135128 97 157 0
0.645637 0.143017 -0.133731 103 151 0
0.64528 0.137609 -0.1323 108 146 0
0.641194 0.133524 -0.131107 113 141 0
0.636177 0.130379 -0.130098 119 135 0
0.630769 0.127902 -0.129562 124 130 0
0.624848 0.128495 -0.129368 130 124 0
0.619278 0.130716 -0.129575 135 119 0
0.614575 0.134262 -0.130243 141 113 0
0.611623 0.139353 -0.131045 146 108 0
0.611172 0.144903 -0.132515 151 103 0
0.613878 0.150098 -0.133721 157 97 0
0.618353 0.153819 -0.134723 162 92 0
0.624314 0.153826 -0.135212 168 86 0
0.629998 0.15232 -0.134976 173 81 0
0.633605 0.147653 -0.13415 179 75 0
0.636807 0.143433 -0.132452 184 70 0
0.63651 0.137508 -0.131507 189 65 0
0.633382 0.132932 -0.129777 195 59 0
0.629385 0.12864 -0.128469 200 54 0
0.623932 0.126755 -0.127377 206 48 0
0.617982 0.126445 -0.126753 211 43 0
0.612438 0.128149 -0.126747 217 37 0
0.60744 0.131365 -0.127397 222 32 0
0.603583 0.135618 -0.128869 227 27 0
0.603293 0.141219 -0.130726 233 21 0
0.603362 0.146298 -0.132834 238 16 0
0.606549 0.149759 -0.134585 244 10 0
0.609867 0.153141 -0.135803 249 5 0
0.615151 0.153962 -0.136659 255 0 0
