ply
format ascii 1.0
comment Generated by robot_control PLYWriter
element vertex 10
property float x
property float y
property float z
property uchar red
property uchar green
property uchar blue
end_header
0.601826 -0.349839 -0.112232 0 255 0
0.601273 -0.354863 -0.112965 28 226 0
0.600811 -0.359873 -0.113863 56 198 0
0.600626 -0.364895 -0.114791 85 169 0
0.600469 -0.369931 -0.115641 113 141 0
0.600494 -0.375014 -0.116138 141 113 0
0.600501 -0.380119 -0.115958 170 84 0
0.600596 -0.385157 -0.115124 198 56 0
0.600318 -0.390095 -0.113837 226 28 0
0.600161 -0.394891 -0.112086 255 0 0
