ply
format ascii 1.0
comment Generated by robot_control PLYWriter
element vertex 10
property float x
property float y
property float z
property uchar red
property uchar green
property uchar blue
end_header
0.586759 -0.301034 -0.0842306 0 255 0
0.586603 -0.296894 -0.087226 28 226 0
0.58624 -0.292395 -0.0896412 56 198 0
0.585963 -0.287717 -0.0916999 85 169 0
0.585695 -0.282866 -0.0932978 113 141 0
0.585401 -0.277861 -0.0943079 141 113 0
0.585178 -0.272779 -0.0949072 170 84 0
0.585176 -0.267718 -0.0956655 198 56 0
0.585195 -0.262745 -0.0969025 226 28 0
0.585174 -0.257882 -0.0984778 255 0 0
