ply
format ascii 1.0
comment Generated by robot_control PLYWriter
element vertex 8
property float x
property float y
property float z
property uchar red
property uchar green
property uchar blue
end_header
0.66684 -0.233871 -0.0366479 0 255 0
0.666784 -0.229576 -0.0390752 36 218 0
0.666736 -0.224922 -0.0407215 72 182 0
0.666676 -0.220169 -0.042077 109 145 0
0.666611 -0.215336 -0.0430426 145 109 0
0.666549 -0.210413 -0.0433051 182 72 0
0.666506 -0.205491 -0.042864 218 36 0
0.666428 -0.200635 -0.0419411 255 0 0
