ply
format ascii 1.0
comment Generated by robot_control PLYWriter
element vertex 101
property float x
property float y
property float z
property uchar red
property uchar green
property uchar blue
end_header
0.703717 -0.207832 -0.0165915 0 255 0
0.707642 -0.211254 -0.0178698 2 252 0
0.710081 -0.215815 -0.0187646 5 249 0
0.710856 -0.221393 -0.0194646 7 247 0
0.709964 -0.226956 -0.019381 10 244 0
0.708059 -0.232267 -0.0186625 12 242 0
0.703925 -0.235345 -0.0174213 15 239 0
0.698629 -0.236252 -0.0159566 17 237 0
0.692862 -0.236459 -0.0146435 20 234 0
0.688044 -0.233383 -0.0140427 22 232 0
0.685053 -0.228553 -0.0137158 25 229 0
0.686675 -0.223303 -0.0137186 28 226 0
0.689097 -0.218325 -0.0142185 30 224 0
0.694253 -0.21647 -0.0150333 33 221 0
0.700111 -0.21676 -0.0160904 35 219 0
0.705678 -0.217983 -0.017337 38 216 0
0.70982 -0.221995 -0.0182732 40 214 0
0.711415 -0.227516 -0.0190325 43 211 0
0.712453 -0.233375 -0.0191863 45 209 0
0.710564 -0.238961 -0.0189862 48 206 0
0.707539 -0.243526 -0.0183944 51 204 0
0.702314 -0.246273 -0.0175827 53 201 0
0.697326 -0.248615 -0.0164365 56 198 0
0.692128 -0.246028 -0.0156557 58 196 0
0.687993 -0.241831 -0.0147229 61 193 0
0.68662 -0.236371 -0.0145505 63 191 0
0.68881 -0.230986 -0.014986 66 188 0
0.693589 -0.228033 -0.0156707 68 186 0
0.699031 -0.226438 -0.0165937 71 183 0
0.704894 -0.226932 -0.0174578 73 181 0
0.708801 -0.231344 -0.0182107 76 178 0
0.712229 -0.236002 -0.0188092 79 175 0
0.712474 -0.241914 -0.0190412 81 173 0
0.711982 -0.247801 -0.0190161 84 170 0
0.709652 -0.253282 -0.0187331 86 168 0
0.705482 -0.257299 -0.018165 89 165 0
0.699847 -0.258418 -0.0174288 91 163 0
0.694156 -0.257784 -0.0165978 94 160 0
0.689767 -0.253786 -0.0159905 96 158 0
0.688537 -0.248434 -0.0156613 99 155 0
0.689868 -0.242696 -0.0158729 102 153 0
0.693549 -0.238176 -0.0165189 104 150 0
0.699054 -0.236507 -0.0171966 107 147 0
0.704467 -0.238506 -0.017726 109 145 0
0.709835 -0.240911 -0.0182338 112 142 0
0.713321 -0.245714 -0.0187023 114 140 0
0.715012 -0.251264 -0.0190243 117 137 0
0.714176 -0.257039 -0.0192244 119 135 0
0.711862 -0.262544 -0.0192479 122 132 0
0.708168 -0.267136 -0.0189883 124 130 0
0.702525 -0.268607 -0.0184656 127 127 0
0.696588 -0.268621 -0.0178228 130 124 0
0.691876 -0.265428 -0.0173359 132 122 0
0.688934 -0.26033 -0.0170124 135 119 0
0.689673 -0.254614 -0.0171507 137 117 0
0.694136 -0.251069 -0.0174217 140 114 0
0.699145 -0.248536 -0.0178613 142 112 0
0.705089 -0.248514 -0.01825 145 109 0
0.710226 -0.251075 -0.0187043 147 107 0
0.713743 -0.25589 -0.0189759 150 104 0
0.715242 -0.261415 -0.0191918 153 101 0
0.715284 -0.267385 -0.0193267 155 99 0
0.71337 -0.272931 -0.0193557 158 96 0
0.709318 -0.277151 -0.0192445 160 94 0
0.70397 -0.279796 -0.0190028 163 91 0
0.698645 -0.278352 -0.0186508 165 89 0
0.693648 -0.276651 -0.0181975 168 86 0
0.690392 -0.271834 -0.0178213 170 84 0
0.690718 -0.265891 -0.0177317 173 81 0
0.693877 -0.261105 -0.0178744 175 79 0
0.698841 -0.258343 -0.0181203 178 76 0
0.704793 -0.258684 -0.018435 181 73 0
0.710399 -0.2604 -0.0187574 183 71 0
0.713916 -0.265141 -0.0189969 186 68 0
0.716032 -0.270716 -0.0193014 188 66 0
0.716171 -0.276574 -0.0196428 191 63 0
0.714709 -0.281935 -0.019933 193 61 0
0.710592 -0.286257 -0.020088 196 58 0
0.705916 -0.289904 -0.0199886 198 56 0
0.700288 -0.289806 -0.0198377 201 53 0
0.694726 -0.287992 -0.0196748 204 50 0
0.692482 -0.282619 -0.0194741 206 48 0
0.692258 -0.277145 -0.0191157 209 45 0
0.694867 -0.272308 -0.0186107 211 43 0
0.699316 -0.268619 -0.0184901 214 40 0
0.705285 -0.268595 -0.0186306 216 38 0
0.710073 -0.271778 -0.0190824 219 35 0
0.714361 -0.275809 -0.0195422 221 33 0
0.717508 -0.280864 -0.0199518 224 30 0
0.718688 -0.286508 -0.0201994 226 28 0
0.716043 -0.291469 -0.0204335 229 25 0
0.713632 -0.296512 -0.0207649 232 22 0
0.708906 -0.300115 -0.0211435 234 20 0
0.702967 -0.300395 -0.0215942 237 17 0
0.698755 -0.298955 -0.0221591 239 15 0
0.694484 -0.29613 -0.0222122 242 12 0
0.693023 -0.29097 -0.021466 244 10 0
0.69281 -0.285335 -0.0203922 247 7 0
0.696017 -0.282739 -0.0191974 249 5 0
0.699081 -0.280381 -0.0183224 252 2 0
0.70482 -0.280415 -0.0179538 255 0 0
