ply
format ascii 1.0
comment Generated by robot_control PLYWriter
element vertex 103
property float x
property float y
property float z
property uchar red
property uchar green
property uchar blue
end_header
0.635454 0.0988968 -0.11737 0 255 0
0.63915 0.0959075 -0.118019 2 252 0
0.641827 0.0930015 -0.118361 5 250 0
0.64231 0.087293 -0.118145 7 247 0
0.640629 0.0820637 -0.117245 10 245 0
0.636858 0.0787861 -0.115807 12 242 0
0.632094 0.0767015 -0.114293 15 240 0
0.626391 0.0782861 -0.11333 17 237 0
0.621085 0.080523 -0.112777 20 235 0
0.617532 0.085187 -0.11273 22 232 0
0.615609 0.0901251 -0.113041 25 230 0
0.614282 0.0953865 -0.113531 27 227 0
0.616639 0.100039 -0.114462 30 225 0
0.620121 0.104461 -0.11553 32 222 0
0.624764 0.107851 -0.116552 35 220 0
0.630505 0.108427 -0.11737 37 217 0
0.63619 0.106792 -0.118021 40 215 0
0.63986 0.102136 -0.118046 42 212 0
0.640552 0.0963446 -0.117611 45 210 0
0.638399 0.0911256 -0.116884 47 207 0
0.633811 0.0889647 -0.115858 50 205 0
0.628615 0.0874626 -0.11521 52 202 0
0.622849 0.088516 -0.114626 55 200 0
0.617901 0.091536 -0.114526 57 197 0
0.61427 0.0963258 -0.114753 60 195 0
0.612609 0.10203 -0.115357 62 192 0
0.61414 0.107714 -0.116211 65 189 0
0.615647 0.113072 -0.1172 67 187 0
0.620184 0.116855 -0.118115 70 185 0
0.625978 0.117911 -0.118962 72 182 0
0.631673 0.116916 -0.119353 75 179 0
0.636283 0.113475 -0.119361 77 177 0
0.638935 0.108111 -0.118837 80 175 0
0.637123 0.10262 -0.117996 82 172 0
0.63316 0.098867 -0.116954 85 169 0
0.627605 0.0966367 -0.11644 87 167 0
0.622052 0.097047 -0.116167 90 165 0
0.616582 0.0994989 -0.116213 92 162 0
0.613311 0.104531 -0.116655 95 159 0
0.611026 0.109762 -0.117405 97 157 0
0.61111 0.115699 -0.118389 100 155 0
0.613043 0.121174 -0.119612 102 152 0
0.616424 0.125684 -0.120717 105 149 0
0.622026 0.127253 -0.121426 107 147 0
0.628018 0.127528 -0.121928 110 145 0
0.63316 0.12464 -0.121905 112 142 0
0.636592 0.119941 -0.121436 115 139 0
0.635312 0.11429 -0.120576 117 137 0
0.632357 0.109256 -0.11937 120 135 0
0.627142 0.106912 -0.118673 122 132 0
0.621457 0.105676 -0.118269 125 129 0
0.617529 0.109355 -0.118389 127 127 0
0.612614 0.112302 -0.119018 130 124 0
0.610643 0.117896 -0.119944 132 122 0
0.608741 0.123306 -0.12113 135 119 0
0.61022 0.128754 -0.122613 137 117 0
0.612765 0.13407 -0.123801 140 114 0
0.617368 0.13729 -0.124986 142 112 0
0.623334 0.137041 -0.125726 145 109 0
0.629008 0.13525 -0.125889 147 107 0
0.633492 0.131387 -0.125232 150 104 0
0.634401 0.125866 -0.124218 152 102 0
0.63245 0.120996 -0.123049 155 99 0
0.627306 0.118033 -0.122064 157 97 0
0.62221 0.116281 -0.121305 160 94 0
0.616681 0.118513 -0.121207 162 92 0
0.611328 0.121218 -0.121668 165 89 0
0.607784 0.125897 -0.122777 167 87 0
0.606435 0.131388 -0.124161 170 84 0
0.606458 0.137262 -0.12547 172 82 0
0.608697 0.142534 -0.126957 175 79 0
0.613631 0.144978 -0.128434 177 77 0
0.618998 0.147111 -0.129486 180 74 0
0.624834 0.146234 -0.129843 182 72 0
0.629112 0.142311 -0.129437 185 69 0
0.631447 0.137049 -0.128293 187 67 0
0.630834 0.131483 -0.126728 190 64 0
0.626396 0.127673 -0.125484 192 62 0
0.620612 0.126939 -0.124763 195 59 0
0.614626 0.12656 -0.124608 197 57 0
0.610037 0.130376 -0.125003 200 54 0
0.606724 0.135185 -0.126022 202 52 0
0.604863 0.140345 -0.127757 205 49 0
0.604939 0.146143 -0.129374 207 47 0
0.607771 0.150822 -0.131253 210 44 0
0.611216 0.155369 -0.132776 212 42 0
0.616704 0.156714 -0.133898 215 39 0
0.622663 0.156904 -0.134284 217 37 0
0.626575 0.152601 -0.134022 220 34 0
0.630008 0.1483 -0.1327 222 32 0
0.628446 0.143931 -0.131139 225 29 0
0.626213 0.138834 -0.129699 227 27 0
0.621266 0.137124 -0.128168 230 24 0
0.616105 0.135535 -0.127431 232 22 0
0.610912 0.136911 -0.127514 235 19 0
0.607026 0.141406 -0.12822 237 17 0
0.603263 0.144908 -0.129667 240 14 0
0.603325 0.150114 -0.131565 242 12 0
0.602528 0.155648 -0.133526 245 9 0
0.604695 0.159855 -0.135399 247 7 0
0.607164 0.163684 -0.137101 250 4 0
0.610201 0.166087 -0.138216 252 2 0
0.615233 0.165653 -0.138831 255 0 0
