ply
format ascii 1.0
comment Generated by robot_control PLYWriter
element vertex 113
property float x
property float y
property float z
property uchar red
property uchar green
property uchar blue
end_header
0.704096 0.0317186 -0.116579 0 255 0
0.70944 0.030204 -0.11657 2 252 0
0.713213 0.0269022 -0.116045 4 250 0
0.714755 0.0219536 -0.114823 6 248 0
0.714452 0.0174343 -0.113345 9 245 0
0.712643 0.0131263 -0.111817 11 243 0
0.708099 0.00980225 -0.110821 13 241 0
0.703186 0.00749962 -0.110364 15 239 0
0.698279 0.00982859 -0.110314 18 236 0
0.693197 0.0112214 -0.110623 20 234 0
0.68891 0.0153458 -0.111332 22 232 0
0.685566 0.020046 -0.112387 25 229 0
0.685251 0.0257905 -0.113637 27 227 0
0.685741 0.0312712 -0.114935 29 225 0
0.688787 0.0362706 -0.116096 31 223 0
0.693475 0.0396583 -0.117284 34 220 0
0.698792 0.0420193 -0.118125 36 218 0
0.704589 0.0416672 -0.11848 38 216 0
0.709899 0.0396895 -0.118356 40 214 0
0.712683 0.0344462 -0.117748 43 211 0
0.715296 0.0292305 -0.116736 45 209 0
0.713125 0.0242318 -0.115475 47 207 0
0.709374 0.0200875 -0.114413 50 204 0
0.704606 0.0178057 -0.11375 52 202 0
0.698618 0.0178657 -0.113487 54 200 0
0.693066 0.0196528 -0.113605 56 198 0
0.688416 0.0233229 -0.114056 59 195 0
0.686202 0.0288166 -0.114921 61 193 0
0.684255 0.0342881 -0.116119 63 191 0
0.684256 0.0401459 -0.117246 66 188 0
0.687997 0.0446658 -0.118369 68 186 0
0.692531 0.0484036 -0.119222 70 184 0
0.697948 0.050827 -0.120035 72 182 0
0.703789 0.0508181 -0.120433 75 179 0
0.708951 0.0479589 -0.120354 77 177 0
0.712321 0.0432716 -0.119873 79 175 0
0.713315 0.0378359 -0.118994 81 173 0
0.711811 0.0322144 -0.117987 84 170 0
0.707359 0.0284709 -0.117117 86 168 0
0.702004 0.0267167 -0.116589 88 166 0
0.696114 0.0276612 -0.116495 91 163 0
0.690583 0.0299139 -0.116711 93 161 0
0.686393 0.0341187 -0.117293 95 159 0
0.683651 0.0392717 -0.11803 97 157 0
0.68285 0.0451126 -0.11881 100 154 0
0.684311 0.0505271 -0.119765 102 152 0
0.687758 0.0551569 -0.120996 104 150 0
0.692123 0.0590536 -0.121791 107 147 0
0.697723 0.0599867 -0.122504 109 145 0
0.703609 0.0595067 -0.122845 111 143 0
0.708686 0.0563882 -0.12264 113 141 0
0.712752 0.0523736 -0.12216 116 138 0
0.712318 0.0466914 -0.121325 118 136 0
0.709937 0.0412351 -0.120624 120 134 0
0.70565 0.0379544 -0.120027 122 132 0
0.700223 0.0357421 -0.119589 125 129 0
0.694371 0.0370042 -0.119479 127 127 0
0.6892 0.0398524 -0.119647 129 125 0
0.685649 0.0445102 -0.120165 132 122 0
0.683729 0.0501058 -0.120921 134 120 0
0.683247 0.0559537 -0.121869 136 118 0
0.685234 0.0613276 -0.123121 138 116 0
0.689308 0.065607 -0.124104 141 113 0
0.693619 0.0691074 -0.12479 143 111 0
0.699587 0.0692065 -0.125257 145 109 0
0.704872 0.0674158 -0.125411 147 107 0
0.709104 0.0632999 -0.12513 150 104 0
0.71075 0.0576269 -0.124361 152 102 0
0.710557 0.0520794 -0.123422 154 100 0
0.706488 0.0477767 -0.122769 157 97 0
0.70121 0.0456292 -0.122228 159 95 0
0.695302 0.0461316 -0.122061 161 93 0
0.689947 0.0487978 -0.122224 163 91 0
0.685215 0.0523585 -0.122617 166 88 0
0.682903 0.0575607 -0.123371 168 86 0
0.68274 0.0634124 -0.124538 170 84 0
0.682622 0.0691297 -0.125563 173 81 0
0.686715 0.0733454 -0.126698 175 79 0
0.691317 0.0770078 -0.12756 177 77 0
0.69705 0.078192 -0.128275 179 75 0
0.703033 0.0780046 -0.128514 182 72 0
0.706458 0.0737229 -0.128273 184 70 0
0.709923 0.0690589 -0.127452 186 68 0
0.710362 0.0632816 -0.126407 188 66 0
0.707852 0.0584861 -0.125384 191 63 0
0.702817 0.0555195 -0.124534 193 61 0
0.696885 0.0559336 -0.123995 195 59 0
0.690893 0.0560351 -0.12403 198 56 0
0.686337 0.0597198 -0.124554 200 54 0
0.68286 0.0645104 -0.125405 202 52 0
0.680638 0.0698322 -0.126413 204 50 0
0.680828 0.0755781 -0.127979 207 47 0
0.683286 0.080867 -0.129262 209 45 0
0.686809 0.0852674 -0.130797 211 43 0
0.692174 0.0874189 -0.131606 214 40 0
0.698133 0.0872485 -0.132183 216 38 0
0.703872 0.0858317 -0.132189 218 36 0
0.70801 0.0816764 -0.131653 220 34 0
0.709316 0.076109 -0.130298 223 31 0
0.709174 0.0703468 -0.12885 225 29 0
0.704863 0.0675421 -0.127477 227 27 0
0.699988 0.0649005 -0.126418 229 25 0
0.694032 0.0650584 -0.125921 232 22 0
0.689202 0.0664123 -0.126081 234 20 0
0.685316 0.0708729 -0.126717 236 18 0
0.682491 0.0741392 -0.127692 239 15 0
0.681084 0.0791935 -0.129193 241 13 0
0.680415 0.0828295 -0.130227 243 11 0
0.680556 0.0881249 -0.131629 245 9 0
0.683182 0.0914774 -0.132666 248 6 0
0.686498 0.0956619 -0.133891 250 4 0
0.690073 0.0976901 -0.13513 252 2 0
0.695274 0.0982171 -0.135918 255 0 0
