ply
format ascii 1.0
comment Generated by robot_control PLYWriter
element vertex 11
property float x
property float y
property float z
property uchar red
property uchar green
property uchar blue
end_header
0.701209 0.14195 -0.136882 0 255 0
0.701019 0.137141 -0.135171 25 229 0
0.700774 0.132319 -0.133496 51 204 0
0.7005 0.127489 -0.13184 76 178 0
0.700176 0.122627 -0.130293 102 153 0
0.699827 0.117746 -0.128813 127 127 0
0.699385 0.112881 -0.127306 153 101 0
0.698851 0.108038 -0.125756 178 76 0
0.698374 0.103197 -0.124183 204 50 0
0.697985 0.0983587 -0.122577 229 25 0
0.697604 0.0935374 -0.120919 255 0 0
