ply
format ascii 1.0
comment Generated by robot_control PLYWriter
element vertex 32
property float x
property float y
property float z
property uchar red
property uchar green
property uchar blue
end_header
0.733924 0.0760048 -0.128748 0 255 0
0.738622 0.0729646 -0.128136 8 246 0
0.742524 0.068753 -0.126748 16 238 0
0.743028 0.0628844 -0.12537 24 230 0
0.740875 0.0578728 -0.123638 32 222 0
0.738243 0.0525685 -0.122369 41 213 0
0.733449 0.0493442 -0.121156 49 205 0
0.727543 0.0484469 -0.120397 57 197 0
0.721763 0.0476599 -0.120087 65 189 0
0.716539 0.0507187 -0.120094 74 180 0
0.711738 0.0544272 -0.120424 82 172 0
0.708775 0.0595208 -0.121107 90 164 0
0.706108 0.0647693 -0.121813 98 156 0
0.707689 0.070428 -0.122869 106 148 0
0.712283 0.0741708 -0.12352 115 139 0
0.718112 0.0749462 -0.124088 123 131 0
0.723954 0.0738861 -0.12412 131 123 0
0.728207 0.0697506 -0.123719 139 115 0
0.730714 0.0646061 -0.122715 148 106 0
0.729551 0.0588565 -0.121761 156 98 0
0.726721 0.0536721 -0.120573 164 90 0
0.722533 0.0493468 -0.119755 172 82 0
0.717523 0.04681 -0.118836 180 74 0
0.711536 0.0473083 -0.1183 189 65 0
0.705488 0.0476663 -0.1181 197 57 0
0.700928 0.0513321 -0.118273 205 49 0
0.697184 0.0560773 -0.118814 213 41 0
0.694381 0.0609446 -0.119876 222 32 0
0.69477 0.0668506 -0.121221 230 24 0
0.698352 0.0711834 -0.122807 238 16 0
0.70248 0.0748941 -0.124047 246 8 0
0.706736 0.0749897 -0.124843 255 0 0
