ply
format ascii 1.0
comment Generated by robot_control PLYWriter
element vertex 12
property float x
property float y
property float z
property uchar red
property uchar green
property uchar blue
end_header
0.577381 -0.0226237 -0.117804 0 255 0
0.577759 -0.0275198 -0.117689 23 231 0
0.577985 -0.0324253 -0.117568 46 208 0
0.578201 -0.0373332 -0.11755 69 185 0
0.578418 -0.0422412 -0.117561 92 162 0
0.578604 -0.0471498 -0.117597 115 139 0
0.578601 -0.052062 -0.117667 139 115 0
0.578598 -0.0569724 -0.117819 162 92 0
0.578597 -0.0618803 -0.118038 185 69 0
0.578758 -0.0667804 -0.118337 208 46 0
0.578865 -0.0716834 -0.118619 231 23 0
0.57898 -0.0765877 -0.118881 255 0 0
