ply
format ascii 1.0
comment Generated by robot_control PLYWriter
element vertex 10
property float x
property float y
property float z
property uchar red
property uchar green
property uchar blue
end_header
0.558788 -0.081283 -0.0388678 0 255 0
0.558638 -0.076246 -0.0384859 28 226 0
0.558522 -0.0712043 -0.0380766 56 198 0
0.558543 -0.0661575 -0.0377197 85 169 0
0.558408 -0.0611023 -0.0375574 113 141 0
0.558567 -0.0560457 -0.0376069 141 113 0
0.558559 -0.0509953 -0.0379116 170 84 0
0.558689 -0.045965 -0.0384367 198 56 0
0.558651 -0.0409582 -0.0391649 226 28 0
0.558753 -0.0359788 -0.0400473 255 0 0
