ply
format ascii 1.0
comment Generated by robot_control PLYWriter
element vertex 10
property float x
property float y
property float z
property uchar red
property uchar green
property uchar blue
end_header
0.642656 -0.0790711 -0.0361392 0 255 0
0.642631 -0.0739865 -0.035803 28 226 0
0.642604 -0.0688993 -0.0355095 56 198 0
0.642614 -0.0638065 -0.0356568 85 169 0
0.642646 -0.0587341 -0.0361345 113 141 0
0.642259 -0.0537124 -0.0369058 141 113 0
0.641934 -0.0487231 -0.0378889 170 84 0
0.641582 -0.0437729 -0.0390455 198 56 0
0.641126 -0.0388212 -0.0401566 226 28 0
0.640722 -0.0338813 -0.0412627 255 0 0
