ply
format ascii 1.0
comment Generated by robot_control PLYWriter
element vertex 11
property float x
property float y
property float z
property uchar red
property uchar green
property uchar blue
end_header
0.544602 -0.205845 -0.0387825 0 255 0
0.544007 -0.210542 -0.039864 25 229 0
0.543205 -0.215255 -0.0407131 51 204 0
0.5425 -0.220012 -0.0413944 76 178 0
0.541679 -0.224776 -0.0418834 102 153 0
0.54086 -0.229555 -0.0421999 127 127 0
0.54014 -0.234359 -0.04231 153 101 0
0.53959 -0.239186 -0.0423272 178 76 0
0.538818 -0.243981 -0.0422071 204 50 0
0.538183 -0.248787 -0.0419331 229 25 0
0.53762 -0.253604 -0.0417084 255 0 0
