ply
format ascii 1.0
comment Generated by robot_control PLYWriter
element vertex 10
property float x
property float y
property float z
property uchar red
property uchar green
property uchar blue
end_header
0.508009 -0.205209 -0.123532 0 255 0
0.508128 -0.210422 -0.123698 28 226 0
0.508076 -0.215631 -0.124038 56 198 0
0.507847 -0.22081 -0.12466 85 169 0
0.507559 -0.225945 -0.125559 113 141 0
0.50728 -0.231073 -0.126501 141 113 0
0.506889 -0.236233 -0.127188 170 84 0
0.506753 -0.241444 -0.127481 198 56 0
0.506897 -0.246662 -0.127473 226 28 0
0.507116 -0.251861 -0.127102 255 0 0
