ply
format ascii 1.0
comment Generated by robot_control PLYWriter
element vertex 58
property float x
property float y
property float z
property uchar red
property uchar green
property uchar blue
end_header
0.663253 0.0390981 -0.0385042 0 255 0
0.666512 0.0387177 -0.042215 4 250 0
0.6705 0.0379921 -0.0459974 8 246 0
0.673325 0.0350091 -0.050017 13 241 0
0.676954 0.0316328 -0.0532693 17 237 0
0.679133 0.0265662 -0.0550963 22 232 0
0.67898 0.0206186 -0.0548989 26 228 0
0.678386 0.015104 -0.0526886 31 223 0
0.6765 0.0100574 -0.0502578 35 219 0
0.672824 0.0065512 -0.047211 40 214 0
0.667804 0.00419084 -0.0449524 44 210 0
0.662187 0.00420374 -0.0432481 49 205 0
0.656673 0.00603116 -0.0431162 53 201 0
0.65246 0.0102861 -0.0436366 58 196 0
0.650591 0.0153927 -0.0448003 62 192 0
0.650693 0.0211924 -0.0463771 67 187 0
0.652064 0.0264088 -0.0481959 71 183 0
0.656413 0.0299318 -0.0503339 76 178 0
0.661483 0.0321971 -0.0525001 80 174 0
0.667234 0.0329899 -0.0538833 85 169 0
0.673019 0.0319526 -0.0544741 89 165 0
0.67839 0.0293782 -0.0541429 93 161 0
0.68242 0.0250816 -0.0530565 98 156 0
0.685117 0.019822 -0.0519541 102 152 0
0.684804 0.0140746 -0.0504619 107 147 0
0.684476 0.00836173 -0.0488887 111 143 0
0.681177 0.00356959 -0.0473711 116 138 0
0.67706 -0.000313276 -0.0453984 120 134 0
0.671801 -0.00235438 -0.0435327 125 129 0
0.665916 -0.00202439 -0.0425779 129 125 0
0.660375 0.000217631 -0.0423558 134 120 0
0.656693 0.00456442 -0.0429786 138 116 0
0.654966 0.0100107 -0.0445952 143 111 0
0.656435 0.0153646 -0.0466493 147 107 0
0.658709 0.0202634 -0.0492666 152 102 0
0.662542 0.0241531 -0.0517656 156 98 0
0.667113 0.0271589 -0.0540865 161 93 0
0.672893 0.0274445 -0.0556801 165 89 0
0.678779 0.026537 -0.0565074 170 84 0
0.683484 0.0229519 -0.056015 174 80 0
0.687661 0.0189666 -0.0547692 178 76 0
0.689937 0.0137959 -0.0529806 183 71 0
0.690067 0.00824215 -0.0509145 187 67 0
0.689124 0.00271412 -0.0487497 192 62 0
0.687203 -0.00178649 -0.0457252 196 58 0
0.683569 -0.00535369 -0.04257 201 53 0
0.679793 -0.00872559 -0.0396863 205 49 0
0.674332 -0.00845259 -0.0372573 210 44 0
0.668568 -0.00827719 -0.0358198 214 40 0
0.664405 -0.00419084 -0.0366954 219 35 0
0.661345 0.000480584 -0.0387807 223 31 0
0.661749 0.00517393 -0.0417467 228 26 0
0.662465 0.0103139 -0.0446264 232 22 0
0.663591 0.0136614 -0.0483291 237 17 0
0.666736 0.0165243 -0.0519319 241 13 0
0.6705 0.019891 -0.055126 246 8 0
0.674454 0.0217251 -0.0576382 250 4 0
0.67916 0.0220973 -0.0594599 255 0 0
