ply
format ascii 1.0
comment Generated by robot_control PLYWriter
element vertex 9
property float x
property float y
property float z
property uchar red
property uchar green
property uchar blue
end_header
0.588374 -0.0750564 -0.123534 0 255 0
0.588096 -0.0702434 -0.123115 31 223 0
0.58778 -0.0654239 -0.122722 63 191 0
0.5875 -0.0606062 -0.122272 95 159 0
0.587214 -0.0557908 -0.121801 127 127 0
0.586826 -0.0509803 -0.121372 159 95 0
0.586345 -0.0461715 -0.121018 191 63 0
0.586055 -0.0413438 -0.120701 223 31 0
0.585626 -0.0365274 -0.120409 255 0 0
