ply
format ascii 1.0
comment Generated by robot_control PLYWriter
element vertex 33
property float x
property float y
property float z
property uchar red
property uchar green
property uchar blue
end_header
0.739384 0.0542022 -0.140721 0 255 0
0.744703 0.0531764 -0.141713 7 247 0
0.749261 0.0502155 -0.141541 15 239 0
0.751287 0.0445757 -0.140539 23 231 0
0.754108 0.0398206 -0.138618 31 223 0
0.753493 0.0343558 -0.136647 39 215 0
0.750306 0.0300788 -0.133837 47 207 0
0.745247 0.0286641 -0.132377 55 199 0
0.73941 0.0292768 -0.131595 63 191 0
0.734146 0.0320219 -0.13194 71 183 0
0.731634 0.0372974 -0.133063 79 175 0
0.731383 0.0429496 -0.134988 87 167 0
0.733229 0.0483656 -0.136965 95 159 0
0.735738 0.0533562 -0.139337 103 151 0
0.740609 0.0561394 -0.141463 111 143 0
0.746441 0.0571095 -0.142793 119 135 0
0.752396 0.0564547 -0.143804 127 127 0
0.757948 0.0542298 -0.144458 135 119 0
0.761775 0.0496765 -0.144486 143 111 0
0.763829 0.0439869 -0.143982 151 103 0
0.765555 0.0383108 -0.14272 159 95 0
0.763725 0.0332398 -0.140849 167 87 0
0.759137 0.0299335 -0.138773 175 79 0
0.753734 0.0295568 -0.137172 183 71 0
0.749486 0.0331227 -0.136688 191 63 0
0.745439 0.0364055 -0.137337 199 55 0
0.744002 0.0419619 -0.138953 207 47 0
0.744834 0.0472875 -0.141652 215 39 0
0.746352 0.0524862 -0.144095 223 31 0
0.74917 0.056294 -0.147302 231 23 0
0.753808 0.0584496 -0.150003 239 15 0
0.757685 0.0593173 -0.153517 247 7 0
0.762211 0.0600388 -0.15604 255 0 0
