ply
format ascii 1.0
comment Generated by robot_control PLYWriter
element vertex 11
property float x
property float y
property float z
property uchar red
property uchar green
property uchar blue
end_header
0.679393 0.0617969 -0.128004 0 255 0
0.679666 0.0571201 -0.126523 25 229 0
0.679937 0.0524795 -0.124921 51 204 0
0.680289 0.0478332 -0.123351 76 178 0
0.680709 0.0432072 -0.121738 102 153 0
0.681104 0.0385926 -0.120086 127 127 0
0.681392 0.0339671 -0.118443 153 101 0
0.681679 0.0293273 -0.11684 178 76 0
0.682071 0.0246663 -0.115325 204 50 0
0.682501 0.0200142 -0.113792 229 25 0
0.682736 0.0153203 -0.112355 255 0 0
