ply
format ascii 1.0
comment Generated by robot_control PLYWriter
element vertex 47
property float x
property float y
property float z
property uchar red
property uchar green
property uchar blue
end_header
0.760188 0.0807756 -0.139605 0 255 0
0.764205 0.0772498 -0.139122 5 249 0
0.767758 0.0727022 -0.137957 11 243 0
0.767971 0.0674274 -0.136274 16 238 0
0.767934 0.0622465 -0.134435 22 232 0
0.763982 0.0584307 -0.131926 27 227 0
0.760096 0.0549113 -0.129425 33 221 0
0.754316 0.0539712 -0.127872 38 216 0
0.748529 0.0550142 -0.126992 44 210 0
0.743117 0.0576351 -0.126551 49 205 0
0.738639 0.0613505 -0.126701 55 199 0
0.735982 0.0666636 -0.12749 60 194 0
0.736179 0.0721784 -0.128633 66 188 0
0.738464 0.0770785 -0.130439 72 182 0
0.743007 0.0806409 -0.132075 77 177 0
0.748771 0.0805454 -0.132977 83 171 0
0.753982 0.0778196 -0.133133 88 166 0
0.758347 0.0736353 -0.132779 94 160 0
0.760005 0.0681245 -0.131751 99 155 0
0.759382 0.0622559 -0.130477 105 149 0
0.75665 0.0575176 -0.12891 110 144 0
0.751902 0.0541661 -0.127374 116 138 0
0.746555 0.0516972 -0.126039 121 133 0
0.740706 0.0521571 -0.12506 127 127 0
0.735389 0.0547971 -0.124672 133 121 0
0.731065 0.0590352 -0.124577 138 116 0
0.727313 0.0637165 -0.124984 144 110 0
0.726403 0.0693703 -0.12584 149 105 0
0.729107 0.0745388 -0.127087 155 99 0
0.733831 0.0779804 -0.128464 160 94 0
0.739782 0.0783155 -0.129244 166 88 0
0.744993 0.0763798 -0.129665 171 83 0
0.749223 0.0722515 -0.1294 177 77 0
0.751397 0.066666 -0.128746 182 72 0
0.752573 0.060881 -0.127409 188 66 0
0.748921 0.0563266 -0.125867 194 60 0
0.744823 0.0521648 -0.12433 199 55 0
0.7397 0.0495178 -0.122918 205 49 0
0.733836 0.0501015 -0.121927 210 44 0
0.728014 0.0516583 -0.121309 216 38 0
0.723009 0.0547284 -0.121195 221 33 0
0.719696 0.0595687 -0.121641 227 27 0
0.718139 0.0653328 -0.122571 232 22 0
0.719127 0.0705173 -0.12431 238 16 0
0.722006 0.0735467 -0.125685 243 11 0
0.725571 0.0759345 -0.127165 249 5 0
0.730255 0.0772812 -0.12844 255 0 0
