ply
format ascii 1.0
comment Generated by robot_control PLYWriter
element vertex 14
property float x
property float y
property float z
property uchar red
property uchar green
property uchar blue
end_header
0.572569 -0.203768 -0.0345724 0 255 0
0.572578 -0.198949 -0.0342386 19 235 0
0.572562 -0.19426 -0.0355677 39 215 0
0.572548 -0.189443 -0.0362242 58 196 0
0.572531 -0.184606 -0.036887 78 176 0
0.572506 -0.179798 -0.0377354 98 156 0
0.572476 -0.175038 -0.0388143 117 137 0
0.572445 -0.170304 -0.0400112 137 117 0
0.572418 -0.165554 -0.0411449 156 98 0
0.572398 -0.160762 -0.0420643 176 78 0
0.572376 -0.155912 -0.0426005 196 58 0
0.572357 -0.151033 -0.0427739 215 39 0
0.572356 -0.146156 -0.0425645 235 19 0
0.572378 -0.14129 -0.0421579 255 0 0
