ply
format ascii 1.0
comment Generated by robot_control PLYWriter
element vertex 32
property float x
property float y
property float z
property uchar red
property uchar green
property uchar blue
end_header
0.607818 0.0995856 -0.137988 0 255 0
0.612614 0.0969525 -0.136722 8 246 0
0.616349 0.0933128 -0.13484 16 238 0
0.616675 0.087657 -0.1335 24 230 0
0.614059 0.0828694 -0.132577 32 222 0
0.609623 0.0788561 -0.132325 41 213 0
0.604153 0.0774377 -0.13275 49 205 0
0.598302 0.0777817 -0.133558 57 197 0
0.593008 0.0800431 -0.134621 65 189 0
0.588831 0.0840645 -0.136054 74 180 0
0.586912 0.0894873 -0.137497 82 172 0
0.586714 0.09516 -0.139336 90 164 0
0.588224 0.100645 -0.140616 98 156 0
0.591585 0.105205 -0.141493 106 148 0
0.596394 0.108699 -0.141914 115 139 0
0.601791 0.110092 -0.141971 123 131 0
0.607599 0.109243 -0.141513 131 123 0
0.612257 0.105611 -0.140574 139 115 0
0.61514 0.100665 -0.139352 148 106 0
0.613986 0.0951957 -0.137824 156 98 0
0.610549 0.090434 -0.136753 164 90 0
0.605351 0.0876467 -0.136276 172 82 0
0.599663 0.0859108 -0.136264 180 74 0
0.593996 0.0874374 -0.137143 189 65 0
0.58939 0.0909791 -0.138412 197 57 0
0.585724 0.0953211 -0.140166 205 49 0
0.585006 0.100593 -0.142447 213 41 0
0.58507 0.105853 -0.145168 222 32 0
0.587605 0.110854 -0.147215 230 24 0
0.58968 0.11494 -0.149611 238 16 0
0.594707 0.117233 -0.15112 246 8 0
0.59874 0.120246 -0.152271 255 0 0
