ply
format ascii 1.0
comment Generated by robot_control PLYWriter
element vertex 32
property float x
property float y
property float z
property uchar red
property uchar green
property uchar blue
end_header
0.612973 0.0977657 -0.139357 0 255 0
0.616964 0.0954005 -0.137145 8 246 0
0.620167 0.0907951 -0.135374 16 238 0
0.620127 0.0851559 -0.133708 24 230 0
0.619486 0.079657 -0.132858 32 222 0
0.616205 0.074745 -0.132315 41 213 0
0.61188 0.070654 -0.132401 49 205 0
0.60678 0.0677368 -0.132966 57 197 0
0.600925 0.0672494 -0.133847 65 189 0
0.595269 0.0681929 -0.135316 74 180 0
0.590675 0.0713568 -0.13696 82 172 0
0.588089 0.0763985 -0.138576 90 164 0
0.58739 0.0817855 -0.13959 98 156 0
0.589957 0.0871324 -0.140103 106 148 0
0.594588 0.0905128 -0.139997 115 139 0
0.600429 0.0912212 -0.13934 123 131 0
0.605565 0.089669 -0.138276 131 123 0
0.609005 0.0852999 -0.136493 139 115 0
0.610472 0.0797782 -0.135027 148 106 0
0.61019 0.0739995 -0.133982 156 98 0
0.608502 0.0683713 -0.133091 164 90 0
0.604131 0.0644103 -0.132882 172 82 0
0.599234 0.0612863 -0.13303 180 74 0
0.593451 0.0599671 -0.133498 189 65 0
0.587771 0.0591532 -0.134661 197 57 0
0.58254 0.0614217 -0.13612 205 49 0
0.580237 0.0658201 -0.138167 213 41 0
0.578116 0.0708546 -0.139809 222 32 0
0.579188 0.0761256 -0.141594 230 24 0
0.583103 0.0800695 -0.14272 238 16 0
0.586452 0.0831105 -0.142724 246 8 0
0.591733 0.0829785 -0.141776 255 0 0
