ply
format ascii 1.0
comment Generated by robot_control PLYWriter
element vertex 47
property float x
property float y
property float z
property uchar red
property uchar green
property uchar blue
end_header
0.459272 0.165635 -0.156783 0 255 0
0.464386 0.164389 -0.154107 5 249 0
0.467304 0.16124 -0.15124 11 243 0
0.468723 0.15637 -0.148725 16 238 0
0.469755 0.151327 -0.145699 22 232 0
0.467625 0.146054 -0.144243 27 227 0
0.463654 0.141915 -0.144018 33 221 0
0.458512 0.138831 -0.144778 38 216 0
0.453178 0.138362 -0.146633 44 210 0
0.448241 0.140327 -0.148927 49 205 0
0.446343 0.145397 -0.151419 55 199 0
0.445505 0.151079 -0.153204 60 194 0
0.448715 0.155869 -0.154068 66 188 0
0.453036 0.160075 -0.153967 72 182 0
0.458056 0.163145 -0.153243 77 177 0
0.463845 0.164326 -0.152087 83 171 0
0.469209 0.162814 -0.150049 88 166 0
0.473795 0.159492 -0.147905 94 160 0
0.477518 0.155422 -0.145798 99 155 0
0.478915 0.150057 -0.143605 105 149 0
0.478952 0.144231 -0.142025 110 144 0
0.475301 0.140041 -0.140791 116 138 0
0.470678 0.136605 -0.14059 121 133 0
0.465055 0.134519 -0.141197 127 127 0
0.45952 0.136178 -0.142101 133 121 0
0.45663 0.140907 -0.144097 138 116 0
0.454487 0.145855 -0.145669 144 110 0
0.457535 0.150793 -0.146583 149 105 0
0.461942 0.154923 -0.146946 155 99 0
0.46646 0.158947 -0.146746 160 94 0
0.472129 0.158453 -0.146125 166 88 0
0.47802 0.159003 -0.14503 171 83 0
0.483224 0.157155 -0.14297 177 77 0
0.48685 0.1528 -0.14097 182 72 0
0.488105 0.147292 -0.139088 188 66 0
0.487447 0.141715 -0.137137 194 60 0
0.485554 0.136129 -0.135819 199 55 0
0.480861 0.133207 -0.135028 205 49 0
0.475412 0.131315 -0.135094 210 44 0
0.469813 0.131367 -0.136015 216 38 0
0.465668 0.134422 -0.137907 221 33 0
0.464347 0.139534 -0.140077 227 27 0
0.465401 0.145176 -0.141834 232 22 0
0.468421 0.148439 -0.143299 238 16 0
0.47273 0.151748 -0.144022 243 11 0
0.477304 0.153762 -0.143872 249 5 0
0.4821 0.155404 -0.143024 255 0 0
