ply
format ascii 1.0
comment Generated by robot_control PLYWriter
element vertex 19
property float x
property float y
property float z
property uchar red
property uchar green
property uchar blue
end_header
0.643382 -0.454872 -0.113883 0 255 0
0.643595 -0.450138 -0.115739 14 240 0
0.643744 -0.445401 -0.117593 28 226 0
0.643909 -0.440618 -0.119321 42 212 0
0.6442 -0.435864 -0.121114 56 198 0
0.644471 -0.431061 -0.122774 70 184 0
0.644772 -0.426221 -0.124319 85 169 0
0.645012 -0.421323 -0.125683 99 155 0
0.645215 -0.416397 -0.126944 113 141 0
0.645474 -0.411449 -0.128108 127 127 0
0.645671 -0.40646 -0.129091 141 113 0
0.645987 -0.401447 -0.129906 155 99 0
0.646307 -0.396397 -0.130426 170 84 0
0.646612 -0.391324 -0.130683 184 70 0
0.64694 -0.386247 -0.130791 198 56 0
0.647201 -0.381166 -0.130731 212 42 0
0.647394 -0.376081 -0.130705 226 28 0
0.647632 -0.371006 -0.130459 240 14 0
0.647913 -0.365971 -0.12978 255 0 0
