ply
format ascii 1.0
comment Generated by robot_control PLYWriter
element vertex 200
property float x
property float y
property float z
property uchar red
property uchar green
property uchar blue
end_header
0.638425 -0.178955 -0.12698 0 255 0
0.638425 -0.178955 -0.12698 1 253 0
0.638425 -0.178955 -0.12698 2 252 0
0.638425 -0.178955 -0.12698 3 251 0
0.638425 -0.178955 -0.12698 5 249 0
0.638425 -0.178955 -0.12698 6 248 0
0.638425 -0.178955 -0.12698 7 247 0
0.638425 -0.178955 -0.12698 8 246 0
0.638425 -0.178955 -0.12698 10 244 0
0.638425 -0.178955 -0.12698 11 243 0
0.638425 -0.178955 -0.12698 12 242 0
0.638425 -0.178955 -0.12698 14 240 0
0.638425 -0.178955 -0.12698 15 239 0
0.638425 -0.178955 -0.12698 16 238 0
0.638425 -0.178955 -0.12698 17 237 0
0.638425 -0.178955 -0.12698 19 235 0
0.638425 -0.178955 -0.12698 20 234 0
0.638425 -0.178955 -0.12698 21 233 0
0.638425 -0.178955 -0.12698 23 231 0
0.638425 -0.178955 -0.12698 24 230 0
0.638425 -0.178955 -0.12698 25 229 0
0.638425 -0.178955 -0.12698 26 228 0
0.638425 -0.178955 -0.12698 28 226 0
0.638425 -0.178955 -0.12698 29 225 0
0.638425 -0.178955 -0.12698 30 224 0
0.638425 -0.178955 -0.12698 32 222 0
0.638425 -0.178955 -0.12698 33 221 0
0.638425 -0.178955 -0.12698 34 220 0
0.638425 -0.178955 -0.12698 35 219 0
0.638425 -0.178955 -0.12698 37 217 0
0.638425 -0.178955 -0.12698 38 216 0
0.638425 -0.178955 -0.12698 39 215 0
0.638425 -0.178955 -0.12698 41 213 0
0.638425 -0.178955 -0.12698 42 212 0
0.638425 -0.178955 -0.12698 43 211 0
0.638425 -0.178955 -0.12698 44 210 0
0.638425 -0.178955 -0.12698 46 208 0
0.638425 -0.178955 -0.12698 47 207 0
0.638425 -0.178955 -0.12698 48 206 0
0.638425 -0.178955 -0.12698 49 205 0
0.638425 -0.178955 -0.12698 51 203 0
0.638425 -0.178955 -0.12698 52 202 0
0.638425 -0.178955 -0.12698 53 201 0
0.638425 -0.178955 -0.12698 55 199 0
0.638425 -0.178955 -0.12698 56 198 0
0.638425 -0.178955 -0.12698 57 197 0
0.638425 -0.178955 -0.12698 58 196 0
0.638425 -0.178955 -0.12698 60 194 0
0.638425 -0.178955 -0.12698 61 193 0
0.638425 -0.178955 -0.12698 62 192 0
0.638425 -0.178955 -0.12698 64 190 0
0.638425 -0.178955 -0.12698 65 189 0
0.638425 -0.178955 -0.12698 66 188 0
0.638425 -0.178955 -0.12698 67 187 0
0.638425 -0.178955 -0.12698 69 185 0
0.638425 -0.178955 -0.12698 70 184 0
0.638425 -0.178955 -0.12698 71 183 0
0.638425 -0.178955 -0.12698 73 181 0
0.638425 -0.178955 -0.12698 74 180 0
0.638425 -0.178955 -0.12698 75 179 0
0.638425 -0.178955 -0.12698 76 178 0
0.638425 -0.178955 -0.12698 78 176 0
0.638425 -0.178955 -0.12698 79 175 0
0.638425 -0.178955 -0.12698 80 174 0
0.638425 -0.178955 -0.12698 82 172 0
0.638425 -0.178955 -0.12698 83 171 0
0.638425 -0.178955 -0.12698 84 170 0
0.638425 -0.178955 -0.12698 85 169 0
0.638425 -0.178955 -0.12698 87 167 0
0.638425 -0.178955 -0.12698 88 166 0
0.638425 -0.178955 -0.12698 89 165 0
0.638425 -0.178955 -0.12698 90 164 0
0.638425 -0.178955 -0.12698 92 162 0
0.638425 -0.178955 -0.12698 93 161 0
0.638425 -0.178955 -0.12698 94 160 0
0.638425 -0.178955 -0.12698 96 158 0
0.638425 -0.178955 -0.12698 97 157 0
0.638425 -0.178955 -0.12698 98 156 0
0.638425 -0.178955 -0.12698 99 155 0
0.638425 -0.178955 -0.12698 101 153 0
0.638425 -0.178955 -0.12698 102 152 0
0.638425 -0.178955 -0.12698 103 151 0
0.638425 -0.178955 -0.12698 105 149 0
0.638425 -0.178955 -0.12698 106 148 0
0.638425 -0.178955 -0.12698 107 147 0
0.638425 -0.178955 -0.12698 108 146 0
0.638425 -0.178955 -0.12698 110 144 0
0.638425 -0.178955 -0.12698 111 143 0
0.638425 -0.178955 -0.12698 112 142 0
0.638425 -0.178955 -0.12698 114 140 0
0.638425 -0.178955 -0.12698 115 139 0
0.638425 -0.178955 -0.12698 116 138 0
0.638425 -0.178955 -0.12698 117 137 0
0.638425 -0.178955 -0.12698 119 135 0
0.638425 -0.178955 -0.12698 120 134 0
0.638425 -0.178955 -0.12698 121 133 0
0.638425 -0.178955 -0.12698 123 131 0
0.638425 -0.178955 -0.12698 124 130 0
0.638425 -0.178955 -0.12698 125 129 0
0.638425 -0.178955 -0.12698 126 128 0
0.638425 -0.178955 -0.12698 128 126 0
0.638425 -0.178955 -0.12698 129 125 0
0.638425 -0.178955 -0.12698 130 124 0
0.638425 -0.178955 -0.12698 131 123 0
0.638425 -0.178955 -0.12698 133 121 0
0.638425 -0.178955 -0.12698 134 120 0
0.638425 -0.178955 -0.12698 135 119 0
0.638425 -0.178955 -0.12698 137 117 0
0.638425 -0.178955 -0.12698 138 116 0
0.638425 -0.178955 -0.12698 139 115 0
0.638425 -0.178955 -0.12698 140 114 0
0.638425 -0.178955 -0.12698 142 112 0
0.638425 -0.178955 -0.12698 143 111 0
0.638425 -0.178955 -0.12698 144 110 0
0.638425 -0.178955 -0.12698 146 108 0
0.638425 -0.178955 -0.12698 147 107 0
0.638425 -0.178955 -0.12698 148 106 0
0.638425 -0.178955 -0.12698 149 105 0
0.638425 -0.178955 -0.12698 151 103 0
0.638425 -0.178955 -0.12698 152 102 0
0.638425 -0.178955 -0.12698 153 101 0
0.638425 -0.178955 -0.12698 155 99 0
0.638425 -0.178955 -0.12698 156 98 0
0.638425 -0.178955 -0.12698 157 97 0
0.638425 -0.178955 -0.12698 158 96 0
0.638425 -0.178955 -0.12698 160 94 0
0.638425 -0.178955 -0.12698 161 93 0
0.638425 -0.178955 -0.12698 162 92 0
0.638425 -0.178955 -0.12698 164 90 0
0.638425 -0.178955 -0.12698 165 89 0
0.638425 -0.178955 -0.12698 166 88 0
0.638425 -0.178955 -0.12698 167 87 0
0.638425 -0.178955 -0.12698 169 85 0
0.638425 -0.178955 -0.12698 170 84 0
0.638425 -0.178955 -0.12698 171 83 0
0.638425 -0.178955 -0.12698 172 82 0
0.638425 -0.178955 -0.12698 174 80 0
0.638425 -0.178955 -0.12698 175 79 0
0.638425 -0.178955 -0.12698 176 78 0
0.638425 -0.178955 -0.12698 178 76 0
0.638425 -0.178955 -0.12698 179 75 0
0.638425 -0.178955 -0.12698 180 74 0
0.638425 -0.178955 -0.12698 181 73 0
0.638425 -0.178955 -0.12698 183 71 0
0.638425 -0.178955 -0.12698 184 70 0
0.638425 -0.178955 -0.12698 185 69 0
0.638425 -0.178955 -0.12698 187 67 0
0.638425 -0.178955 -0.12698 188 66 0
0.638425 -0.178955 -0.12698 189 65 0
0.638425 -0.178955 -0.12698 190 64 0
0.638425 -0.178955 -0.12698 192 62 0
0.638425 -0.178955 -0.12698 193 61 0
0.638425 -0.178955 -0.12698 194 60 0
0.638425 -0.178955 -0.12698 196 58 0
0.638425 -0.178955 -0.12698 197 57 0
0.638425 -0.178955 -0.12698 198 56 0
0.638425 -0.178955 -0.12698 199 55 0
0.638425 -0.178955 -0.12698 201 53 0
0.638425 -0.178955 -0.12698 202 52 0
0.638425 -0.178955 -0.12698 203 51 0
0.638425 -0.178955 -0.12698 205 49 0
0.638425 -0.178955 -0.12698 206 48 0
0.638425 -0.178955 -0.12698 207 47 0
0.638425 -0.178955 -0.12698 208 46 0
0.638425 -0.178955 -0.12698 210 44 0
0.638425 -0.178955 -0.12698 211 43 0
0.638425 -0.178955 -0.12698 212 42 0
0.638425 -0.178955 -0.12698 213 41 0
0.638425 -0.178955 -0.12698 215 39 0
0.638425 -0.178955 -0.12698 216 38 0
0.638425 -0.178955 -0.12698 217 37 0
0.638425 -0.178955 -0.12698 219 35 0
0.638425 -0.178955 -0.12698 220 34 0
0.638425 -0.178955 -0.12698 221 33 0
0.638425 -0.178955 -0.12698 222 32 0
0.638425 -0.178955 -0.12698 224 30 0
0.638425 -0.178955 -0.12698 225 29 0
0.638425 -0.178955 -0.12698 226 28 0
0.638425 -0.178955 -0.12698 228 26 0
0.638425 -0.178955 -0.12698 229 25 0
0.638425 -0.178955 -0.12698 230 24 0
0.638425 -0.178955 -0.12698 231 23 0
0.638425 -0.178955 -0.12698 233 21 0
0.638425 -0.178955 -0.12698 234 20 0
0.638425 -0.178955 -0.12698 235 19 0
0.638425 -0.178955 -0.12698 237 17 0
0.638425 -0.178955 -0.12698 238 16 0
0.638425 -0.178955 -0.12698 239 15 0
0.638425 -0.178955 -0.12698 240 14 0
0.638425 -0.178955 -0.12698 242 12 0
0.638425 -0.178955 -0.12698 243 11 0
0.638425 -0.178955 -0.12698 244 10 0
0.638425 -0.178955 -0.12698 246 8 0
0.638425 -0.178955 -0.12698 247 7 0
0.638425 -0.178955 -0.12698 248 6 0
0.638425 -0.178955 -0.12698 249 5 0
0.638425 -0.178955 -0.12698 251 3 0
0.638425 -0.178955 -0.12698 252 2 0
0.638425 -0.178955 -0.12698 253 1 0
0.638425 -0.178955 -0.12698 255 0 0
