ply
format ascii 1.0
comment Generated by robot_control PLYWriter
element vertex 40
property float x
property float y
property float z
property uchar red
property uchar green
property uchar blue
end_header
0.608771 0.095843 -0.140282 0 255 0
0.613417 0.0954541 -0.138441 6 248 0
0.618166 0.0936827 -0.136608 13 241 0
0.62007 0.0895743 -0.134741 19 235 0
0.621145 0.0844914 -0.133328 26 228 0
0.618289 0.0799896 -0.1326 32 222 0
0.614914 0.0770349 -0.132859 39 215 0
0.60944 0.0755697 -0.133909 45 209 0
0.604897 0.0785944 -0.135505 52 202 0
0.602593 0.0834886 -0.136817 58 196 0
0.602962 0.0891179 -0.138413 65 189 0
0.605197 0.0943071 -0.139093 71 183 0
0.608885 0.0985565 -0.139219 78 176 0
0.614464 0.100536 -0.138899 85 169 0
0.620262 0.100871 -0.138063 91 163 0
0.625452 0.0982344 -0.137145 98 156 0
0.628434 0.0939553 -0.135224 104 150 0
0.628237 0.0880898 -0.134277 111 143 0
0.624867 0.0833809 -0.133838 117 137 0
0.619779 0.0820629 -0.134182 124 130 0
0.613955 0.0828455 -0.13496 130 124 0
0.610688 0.0868224 -0.136393 137 117 0
0.609591 0.0913881 -0.137437 143 111 0
0.611176 0.0969525 -0.138513 150 104 0
0.613745 0.102291 -0.138997 156 98 0
0.618655 0.10475 -0.139121 163 91 0
0.624394 0.106204 -0.138727 170 84 0
0.630207 0.106083 -0.137691 176 78 0
0.634309 0.10201 -0.136304 183 71 0
0.63667 0.0968696 -0.135046 189 65 0
0.634944 0.0915728 -0.13391 196 58 0
0.630698 0.0876047 -0.13331 202 52 0
0.625926 0.0856957 -0.133615 209 45 0
0.620965 0.0884885 -0.134745 215 39 0
0.616855 0.0918419 -0.136591 222 32 0
0.616982 0.0975034 -0.138242 228 26 0
0.618507 0.102565 -0.139858 235 19 0
0.621183 0.107375 -0.140712 241 13 0
0.625254 0.110013 -0.141084 248 6 0
0.630322 0.111776 -0.140693 255 0 0
