ply
format ascii 1.0
comment Generated by robot_control PLYWriter
element vertex 12
property float x
property float y
property float z
property uchar red
property uchar green
property uchar blue
end_header
0.498957 -0.149387 -0.117289 0 255 0
0.499013 -0.144377 -0.116928 23 231 0
0.499008 -0.139377 -0.116452 46 208 0
0.498958 -0.134382 -0.115923 69 185 0
0.498906 -0.129387 -0.115396 92 162 0
0.498867 -0.124397 -0.114827 115 139 0
0.498834 -0.119415 -0.114188 139 115 0
0.498796 -0.114437 -0.113512 162 92 0
0.49876 -0.109454 -0.112885 185 69 0
0.498714 -0.104461 -0.11234 208 46 0
0.498696 -0.0994655 -0.111815 231 23 0
0.49869 -0.0944615 -0.111383 255 0 0
