ply
format ascii 1.0
comment Generated by robot_control PLYWriter
element vertex 87
property float x
property float y
property float z
property uchar red
property uchar green
property uchar blue
end_header
0.591801 0.00433933 -0.109155 0 255 0
0.595678 0.00247746 -0.108367 2 252 0
0.598759 -0.000735196 -0.106941 5 249 0
0.601137 -0.00481857 -0.105468 8 246 0
0.598709 -0.00937047 -0.104168 11 243 0
0.59559 -0.0132707 -0.103016 14 240 0
0.590742 -0.01595 -0.102817 17 237 0
0.584843 -0.0158275 -0.103394 20 234 0
0.579762 -0.0133564 -0.104595 23 231 0
0.576027 -0.00898549 -0.106345 26 228 0
0.574104 -0.00387774 -0.108082 29 225 0
0.574226 0.000556717 -0.109556 32 222 0
0.575575 0.00594651 -0.110983 35 219 0
0.5792 0.010564 -0.112286 38 216 0
0.584481 0.0127229 -0.112842 41 213 0
0.589056 0.0151616 -0.112812 44 210 0
0.594795 0.0142142 -0.112103 47 207 0
0.598828 0.0104716 -0.110984 50 204 0
0.60067 0.0051647 -0.109828 53 201 0
0.598768 0.00063181 -0.108473 56 198 0
0.59473 -0.0032334 -0.107683 59 195 0
0.589157 -0.00539422 -0.107645 62 192 0
0.583628 -0.00459299 -0.108485 65 189 0
0.578558 -0.00182699 -0.109772 68 186 0
0.575722 0.00318618 -0.111465 71 183 0
0.574648 0.00872226 -0.112872 74 180 0
0.57513 0.014372 -0.114551 77 177 0
0.577873 0.019569 -0.115849 80 174 0
0.582656 0.0225726 -0.116817 83 171 0
0.588353 0.0241686 -0.117005 85 169 0
0.594351 0.0239838 -0.116597 88 166 0
0.599238 0.0211817 -0.115362 91 163 0
0.600459 0.0156261 -0.114197 94 160 0
0.598919 0.0100011 -0.112864 97 157 0
0.594433 0.00613638 -0.112436 100 154 0
0.588944 0.00492128 -0.112539 103 151 0
0.583107 0.00548678 -0.113351 106 148 0
0.578458 0.00893412 -0.114475 109 145 0
0.57567 0.0139689 -0.116211 112 142 0
0.575018 0.0194353 -0.117698 115 139 0
0.575615 0.025076 -0.119469 118 136 0
0.578664 0.0301359 -0.120479 121 133 0
0.583361 0.0335192 -0.121423 124 130 0
0.588368 0.0354073 -0.121694 127 127 0
0.594367 0.0353838 -0.121414 130 124 0
0.599242 0.0323221 -0.120434 133 121 0
0.601352 0.0270499 -0.119153 136 118 0
0.59958 0.0215032 -0.118236 139 115 0
0.595975 0.0168559 -0.117512 142 112 0
0.590289 0.0150985 -0.117546 145 109 0
0.584466 0.0165034 -0.118091 148 106 0
0.579607 0.0195151 -0.119428 151 103 0
0.576264 0.0236542 -0.120916 154 100 0
0.575312 0.0292404 -0.122644 157 97 0
0.575555 0.034923 -0.124425 160 94 0
0.577684 0.0402953 -0.125395 163 91 0
0.582424 0.0438827 -0.126161 166 88 0
0.587875 0.0462346 -0.12655 169 85 0
0.593656 0.0454928 -0.126327 171 83 0
0.598061 0.0416797 -0.12537 174 80 0
0.600675 0.0369053 -0.123608 177 77 0
0.599505 0.0313187 -0.122533 180 74 0
0.595388 0.027149 -0.121779 183 71 0
0.589756 0.0261035 -0.121829 186 68 0
0.583967 0.0271718 -0.122571 189 65 0
0.578785 0.0299346 -0.123881 192 62 0
0.576037 0.0349195 -0.125571 195 59 0
0.575157 0.0402695 -0.127587 198 56 0
0.576128 0.0459014 -0.129063 201 53 0
0.579564 0.0504817 -0.130424 204 50 0
0.584751 0.0534119 -0.13114 207 47 0
0.590081 0.0555492 -0.131242 210 44 0
0.595685 0.0546275 -0.130637 213 41 0
0.600259 0.051652 -0.129371 216 38 0
0.600747 0.0460698 -0.12791 219 35 0
0.599462 0.0414595 -0.126444 222 32 0
0.59538 0.0376968 -0.125729 225 29 0
0.589511 0.0371156 -0.125711 228 26 0
0.583644 0.0376675 -0.126579 231 23 0
0.578892 0.0405604 -0.127965 234 20 0
0.575728 0.0443758 -0.130228 237 17 0
0.575086 0.049729 -0.132398 240 14 0
0.575223 0.0548207 -0.134241 243 11 0
0.578277 0.0584998 -0.135752 246 8 0
0.581259 0.0629659 -0.13652 249 5 0
0.585757 0.0648933 -0.13653 252 2 0
0.588394 0.0647289 -0.136027 255 0 0
