ply
format ascii 1.0
comment Generated by robot_control PLYWriter
element vertex 12
property float x
property float y
property float z
property uchar red
property uchar green
property uchar blue
end_header
0.602643 -0.020566 -0.11935 0 255 0
0.602758 -0.0254989 -0.119089 23 231 0
0.602859 -0.0304363 -0.118954 46 208 0
0.60301 -0.0353744 -0.118921 69 185 0
0.603009 -0.0403156 -0.118932 92 162 0
0.602998 -0.0452563 -0.118999 115 139 0
0.602998 -0.0501954 -0.119146 139 115 0
0.603006 -0.0551305 -0.119391 162 92 0
0.60302 -0.06006 -0.11973 185 69 0
0.603198 -0.0649791 -0.120152 208 46 0
0.603337 -0.0699039 -0.12052 231 23 0
0.603494 -0.0748296 -0.120872 255 0 0
