ply
format ascii 1.0
comment Generated by robot_control PLYWriter
element vertex 32
property float x
property float y
property float z
property uchar red
property uchar green
property uchar blue
end_header
0.602296 0.10546 -0.114609 0 255 0
0.607379 0.104054 -0.113925 8 246 0
0.610509 0.0994655 -0.113065 16 238 0
0.613794 0.0947228 -0.112234 24 230 0
0.614062 0.0889286 -0.111381 32 222 0
0.611629 0.0835073 -0.110975 41 213 0
0.607226 0.0797958 -0.110681 49 205 0
0.60213 0.0774603 -0.11068 57 197 0
0.596595 0.079479 -0.110882 65 189 0
0.591861 0.0830382 -0.111445 74 180 0
0.590696 0.0884227 -0.112002 82 172 0
0.590778 0.0942341 -0.112543 90 164 0
0.59397 0.0991855 -0.113154 98 156 0
0.597872 0.103437 -0.113543 106 148 0
0.603143 0.105458 -0.113809 115 139 0
0.6091 0.105392 -0.113863 123 131 0
0.614972 0.104552 -0.113691 131 123 0
0.620169 0.101741 -0.113415 139 115 0
0.62312 0.0967137 -0.112906 148 106 0
0.624686 0.0912592 -0.112375 156 98 0
0.624534 0.0853325 -0.111789 164 90 0
0.620712 0.0809295 -0.11109 172 82 0
0.615617 0.0779231 -0.110628 180 74 0
0.609981 0.0779376 -0.11035 189 65 0
0.605134 0.0812818 -0.11048 197 57 0
0.601634 0.0859779 -0.111018 205 49 0
0.601238 0.0918095 -0.111606 213 41 0
0.60349 0.0968726 -0.112405 222 32 0
0.606809 0.101578 -0.113408 230 24 0
0.611696 0.103771 -0.114576 238 16 0
0.614613 0.106476 -0.115546 246 8 0
0.619119 0.104737 -0.116446 255 0 0
