ply
format ascii 1.0
comment Generated by robot_control PLYWriter
element vertex 14
property float x
property float y
property float z
property uchar red
property uchar green
property uchar blue
end_header
0.513017 0.11528 -0.137745 0 255 0
0.512881 0.120257 -0.139006 19 235 0
0.512792 0.125177 -0.14047 39 215 0
0.512735 0.130067 -0.142039 58 196 0
0.512561 0.134908 -0.143744 78 176 0
0.51237 0.139704 -0.145571 98 156 0
0.512172 0.144455 -0.147512 117 137 0
0.511965 0.149176 -0.149525 137 117 0
0.511755 0.153871 -0.151596 156 98 0
0.511542 0.158537 -0.153732 176 78 0
0.511343 0.163177 -0.155924 196 58 0
0.511156 0.167796 -0.158162 215 39 0
0.510794 0.172394 -0.160419 235 19 0
0.510638 0.177075 -0.162527 255 0 0
