ply
format ascii 1.0
comment Generated by robot_control PLYWriter
element vertex 13
property float x
property float y
property float z
property uchar red
property uchar green
property uchar blue
end_header
0.604787 0.0164044 -0.123377 0 255 0
0.604271 0.0211651 -0.12323 21 233 0
0.604002 0.025952 -0.123311 42 212 0
0.603779 0.0307413 -0.12339 63 191 0
0.603503 0.0355236 -0.123561 85 169 0
0.602955 0.0402791 -0.123834 106 148 0
0.602565 0.0450415 -0.124239 127 127 0
0.602274 0.0497979 -0.124776 148 106 0
0.601932 0.0545499 -0.125321 170 84 0
0.601618 0.059297 -0.125923 191 63 0
0.601319 0.0640363 -0.126589 212 42 0
0.600904 0.0687617 -0.12727 233 21 0
0.600781 0.0735049 -0.127934 255 0 0
