ply
format ascii 1.0
comment Generated by robot_control PLYWriter
element vertex 12
property float x
property float y
property float z
property uchar red
property uchar green
property uchar blue
end_header
0.603352 -0.332064 -0.0805084 0 255 0
0.60243 -0.336678 -0.0787155 23 231 0
0.60168 -0.341211 -0.0766539 46 208 0
0.60106 -0.345708 -0.0744719 69 185 0
0.600368 -0.350285 -0.0724829 92 162 0
0.599529 -0.354917 -0.0706883 115 139 0
0.598792 -0.359657 -0.0691552 139 115 0
0.59815 -0.364485 -0.0678728 162 92 0
0.597417 -0.369375 -0.0669363 185 69 0
0.596598 -0.374319 -0.0664975 208 46 0
0.595741 -0.379278 -0.0663365 231 23 0
0.594882 -0.384194 -0.066936 255 0 0
