ply
format ascii 1.0
comment Generated by robot_control PLYWriter
element vertex 10
property float x
property float y
property float z
property uchar red
property uchar green
property uchar blue
end_header
0.622867 -0.229257 -0.138196 0 255 0
0.623121 -0.224375 -0.13899 28 226 0
0.623439 -0.219483 -0.139743 56 198 0
0.62377 -0.214587 -0.14047 85 169 0
0.62409 -0.20967 -0.141032 113 141 0
0.624391 -0.204731 -0.141382 141 113 0
0.624585 -0.19978 -0.141549 170 84 0
0.624588 -0.194819 -0.141549 198 56 0
0.624571 -0.18986 -0.141401 226 28 0
0.624567 -0.184902 -0.141266 255 0 0
