ply
format ascii 1.0
comment Generated by robot_control PLYWriter
element vertex 49
property float x
property float y
property float z
property uchar red
property uchar green
property uchar blue
end_header
0.679197 0.0654812 -0.0872559 0 255 0
0.682948 0.0634417 -0.0896995 5 249 0
0.686929 0.0599641 -0.0921423 10 244 0
0.690631 0.0556189 -0.093584 15 239 0
0.690774 0.0497045 -0.0942127 21 233 0
0.690471 0.04373 -0.0943584 26 228 0
0.687959 0.0384158 -0.0943018 31 223 0
0.683114 0.0349297 -0.0944214 37 217 0
0.677645 0.0328842 -0.0947178 42 212 0
0.672102 0.0343813 -0.0953861 47 207 0
0.667633 0.0382696 -0.0954754 53 201 0
0.66436 0.0432508 -0.0952389 58 196 0
0.664489 0.049163 -0.0950209 63 191 0
0.667225 0.0539814 -0.0950046 69 185 0
0.671772 0.0577319 -0.0948711 74 180 0
0.677625 0.0588946 -0.0944958 79 175 0
0.683297 0.0581092 -0.0936261 85 169 0
0.688912 0.0561498 -0.0930001 90 164 0
0.693612 0.0526952 -0.0925731 95 159 0
0.695304 0.0471868 -0.0923723 100 154 0
0.696368 0.0413134 -0.0923402 106 148 0
0.695302 0.0355604 -0.0923557 111 143 0
0.6921 0.0305448 -0.0923006 116 138 0
0.687243 0.0271306 -0.0923758 122 132 0
0.681604 0.0261281 -0.0926678 127 127 0
0.676112 0.0282316 -0.093364 132 122 0
0.671763 0.031819 -0.0942677 138 116 0
0.669587 0.0373287 -0.0948866 143 111 0
0.670216 0.042868 -0.0955804 148 106 0
0.673216 0.047921 -0.0961883 154 100 0
0.678293 0.0507589 -0.0962179 159 95 0
0.683784 0.0530686 -0.0958228 164 90 0
0.689375 0.0516591 -0.0952438 170 84 0
0.694668 0.0490842 -0.0943009 175 79 0
0.698763 0.0448504 -0.0933777 180 74 0
0.701538 0.0396745 -0.0924609 185 69 0
0.702231 0.0339291 -0.0914125 191 63 0
0.700337 0.0283339 -0.0905611 196 58 0
0.697634 0.0230434 -0.0899008 201 53 0
0.692898 0.0209721 -0.0896115 207 47 0
0.687217 0.0194138 -0.0897486 212 42 0
0.681865 0.021414 -0.0903626 217 37 0
0.676725 0.0236602 -0.0912981 223 31 0
0.674788 0.0291731 -0.0923023 228 26 0
0.674813 0.0348345 -0.0938651 233 21 0
0.677859 0.0393348 -0.0952382 239 15 0
0.680641 0.0430058 -0.0959191 244 10 0
0.685205 0.0458828 -0.096132 249 5 0
0.690621 0.0462533 -0.0955719 255 0 0
