ply
format ascii 1.0
comment Generated by robot_control PLYWriter
element vertex 32
property float x
property float y
property float z
property uchar red
property uchar green
property uchar blue
end_header
0.715676 0.0519205 -0.125928 0 255 0
0.720863 0.0493258 -0.127161 8 246 0
0.724623 0.0447457 -0.127402 16 238 0
0.727273 0.039905 -0.126619 24 230 0
0.726285 0.0343557 -0.125094 32 222 0
0.722633 0.0301616 -0.12365 41 213 0
0.717268 0.0277511 -0.122726 49 205 0
0.711397 0.0276669 -0.122049 57 197 0
0.705867 0.0300597 -0.121893 65 189 0
0.701992 0.0345262 -0.122016 74 180 0
0.699851 0.040129 -0.122443 82 172 0
0.69906 0.0459027 -0.123208 90 164 0
0.701289 0.0514204 -0.124285 98 156 0
0.704522 0.0559191 -0.125449 106 148 0
0.709692 0.0586706 -0.126914 115 139 0
0.715473 0.0593138 -0.127853 123 131 0
0.721496 0.0593131 -0.128409 131 123 0
0.726873 0.0568917 -0.128715 139 115 0
0.730057 0.0520479 -0.128691 148 106 0
0.729849 0.0460185 -0.128398 156 98 0
0.729139 0.040035 -0.127891 164 90 0
0.724342 0.0366605 -0.126855 172 82 0
0.718836 0.0351338 -0.125723 180 74 0
0.713195 0.0364385 -0.124505 189 65 0
0.707723 0.0388434 -0.123854 197 57 0
0.704393 0.0433506 -0.123536 205 49 0
0.702593 0.0490377 -0.12376 213 41 0
0.703089 0.0549847 -0.124427 222 32 0
0.705282 0.0605466 -0.125192 230 24 0
0.709574 0.0647315 -0.125988 238 16 0
0.714295 0.0674055 -0.126484 246 8 0
0.718592 0.0689337 -0.126779 255 0 0
