ply
format ascii 1.0
comment Generated by robot_control PLYWriter
element vertex 65
property float x
property float y
property float z
property uchar red
property uchar green
property uchar blue
end_header
0.61555 0.0146693 -0.110474 0 255 0
0.619751 0.0125133 -0.108789 3 251 0
0.623632 0.00872189 -0.107364 7 247 0
0.625123 0.00435157 -0.105899 11 243 0
0.625025 -0.00144964 -0.104569 15 239 0
0.62372 -0.00700595 -0.103486 19 235 0
0.620741 -0.012074 -0.10303 23 231 0
0.616451 -0.0160375 -0.103111 27 227 0
0.61126 -0.0184665 -0.103598 31 223 0
0.605678 -0.0187041 -0.104765 35 219 0
0.600948 -0.0152505 -0.105752 39 215 0
0.596963 -0.0111648 -0.106997 43 211 0
0.596438 -0.00543094 -0.107874 47 207 0
0.598542 -0.00061066 -0.10824 51 203 0
0.602067 0.00402726 -0.10804 55 199 0
0.607536 0.0060723 -0.107356 59 195 0
0.613378 0.00547043 -0.106661 63 191 0
0.618752 0.003159 -0.105654 67 187 0
0.621974 -0.00145597 -0.104717 71 183 0
0.624952 -0.00645743 -0.103718 75 179 0
0.624443 -0.0122851 -0.102951 79 175 0
0.622358 -0.0178273 -0.102544 83 171 0
0.619276 -0.0228926 -0.102414 87 167 0
0.614575 -0.0264079 -0.102716 91 163 0
0.609191 -0.028903 -0.103192 95 159 0
0.603437 -0.0281102 -0.103916 99 155 0
0.598648 -0.0247874 -0.104965 103 151 0
0.595873 -0.0195774 -0.105584 107 147 0
0.595871 -0.0139664 -0.106038 111 143 0
0.598916 -0.00889484 -0.1061 115 139 0
0.603891 -0.00567193 -0.105613 119 135 0
0.609355 -0.00402087 -0.10486 123 131 0
0.614635 -0.00584117 -0.104041 127 127 0
0.619506 -0.00905869 -0.102971 131 123 0
0.622812 -0.0138388 -0.102174 135 119 0
0.624409 -0.0195087 -0.101609 139 115 0
0.6247 -0.0253921 -0.101029 143 111 0
0.621247 -0.0301509 -0.100736 147 107 0
0.617889 -0.0349892 -0.10079 151 103 0
0.612579 -0.0375477 -0.101236 155 99 0
0.606809 -0.0385112 -0.10192 159 95 0
0.601016 -0.0381925 -0.102977 163 91 0
0.597366 -0.0336451 -0.10371 167 87 0
0.594999 -0.0282715 -0.104468 171 83 0
0.596487 -0.0226417 -0.104769 175 79 0
0.600295 -0.0180783 -0.104753 179 75 0
0.605567 -0.016109 -0.10418 183 71 0
0.611213 -0.0146875 -0.103189 187 67 0
0.616691 -0.0158975 -0.102097 191 63 0
0.61884 -0.0211722 -0.101106 195 59 0
0.622529 -0.0255337 -0.100034 199 55 0
0.623134 -0.0313075 -0.0995072 203 51 0
0.623065 -0.03724 -0.0990209 207 47 0
0.621503 -0.0426439 -0.0988387 211 43 0
0.61695 -0.0463773 -0.0988576 215 39 0
0.611746 -0.0481806 -0.0993499 219 35 0
0.60642 -0.0504502 -0.099967 223 31 0
0.601956 -0.0480644 -0.101276 227 27 0
0.598576 -0.0461632 -0.102461 231 23 0
0.594745 -0.0421106 -0.103802 235 19 0
0.594613 -0.0362722 -0.104851 239 15 0
0.596269 -0.0307424 -0.105163 243 11 0
0.600607 -0.0269785 -0.104674 247 7 0
0.60517 -0.025103 -0.103501 251 3 0
0.608989 -0.0263395 -0.102159 255 0 0
