ply
format ascii 1.0
comment Generated by robot_control PLYWriter
element vertex 59
property float x
property float y
property float z
property uchar red
property uchar green
property uchar blue
end_header
0.688391 0.0734027 -0.0990206 0 255 0
0.692834 0.0715025 -0.0989792 4 250 0
0.696692 0.0671891 -0.0990809 8 246 0
0.696696 0.061149 -0.0993528 13 241 0
0.69516 0.0558085 -0.0997332 17 237 0
0.690965 0.0516884 -0.100236 21 233 0
0.685046 0.0514059 -0.100504 26 228 0
0.679002 0.0514251 -0.100687 30 224 0
0.674093 0.0547614 -0.100789 35 219 0
0.671997 0.0601708 -0.100737 39 215 0
0.670827 0.0659675 -0.10051 43 211 0
0.671153 0.0719192 -0.100101 48 206 0
0.674432 0.0769597 -0.0995155 52 202 0
0.679093 0.0806603 -0.0990207 57 197 0
0.684667 0.0829229 -0.0986711 61 193 0
0.690538 0.0819967 -0.0983945 65 189 0
0.694851 0.0780316 -0.0982512 70 184 0
0.696633 0.072439 -0.0983492 74 180 0
0.696097 0.0665667 -0.0986691 79 175 0
0.692261 0.0620592 -0.0991258 83 171 0
0.686853 0.0602401 -0.0996537 87 167 0
0.680957 0.0613766 -0.0999039 92 162 0
0.675858 0.0639764 -0.0999634 96 158 0
0.672127 0.0685369 -0.0997939 101 153 0
0.670841 0.0744203 -0.099536 105 149 0
0.670768 0.0804431 -0.0990168 109 145 0
0.672697 0.0856343 -0.0985851 114 140 0
0.676362 0.0903544 -0.0980333 118 136 0
0.681941 0.0918737 -0.0974658 123 131 0
0.687687 0.0929065 -0.0971084 127 127 0
0.693134 0.0903362 -0.0968702 131 123 0
0.696979 0.0861378 -0.0968775 136 118 0
0.697111 0.0801109 -0.0972248 140 114 0
0.694092 0.0750165 -0.0977811 145 109 0
0.690441 0.0716126 -0.0984769 149 105 0
0.684475 0.0709825 -0.0990361 153 101 0
0.678826 0.0721431 -0.0992466 158 96 0
0.674202 0.0760346 -0.0991674 162 92 0
0.670939 0.0809294 -0.0987424 167 87 0
0.67066 0.0868883 -0.0979913 171 83 0
0.671299 0.0927071 -0.0972731 175 79 0
0.674776 0.0974249 -0.0961486 180 74 0
0.678959 0.10163 -0.0953681 184 70 0
0.68484 0.102682 -0.094571 189 65 0
0.690509 0.101821 -0.0940844 193 61 0
0.694946 0.0978805 -0.0939805 197 57 0
0.696777 0.092487 -0.0945064 202 52 0
0.695417 0.0869576 -0.095434 206 48 0
0.691944 0.0832028 -0.0965573 211 43 0
0.686503 0.0813323 -0.0975746 215 39 0
0.680526 0.0817264 -0.0981833 219 35 0
0.675274 0.0846599 -0.098325 224 30 0
0.672165 0.0893735 -0.0982085 228 26 0
0.670444 0.0947328 -0.097804 233 21 0
0.670366 0.100669 -0.0967342 237 17 0
0.672628 0.105372 -0.0956285 241 13 0
0.676237 0.109198 -0.0943907 246 8 0
0.680266 0.111391 -0.0929299 250 4 0
0.684501 0.113271 -0.0917062 255 0 0
