ply
format ascii 1.0
comment Generated by robot_control PLYWriter
element vertex 14
property float x
property float y
property float z
property uchar red
property uchar green
property uchar blue
end_header
0.644403 -0.197926 -0.0386815 0 255 0
0.644551 -0.193055 -0.0381429 19 235 0
0.644596 -0.188161 -0.0379041 39 215 0
0.644574 -0.18326 -0.037922 58 196 0
0.644624 -0.178375 -0.0382943 78 176 0
0.64468 -0.173531 -0.0390475 98 156 0
0.644755 -0.168711 -0.0399394 117 137 0
0.644754 -0.163897 -0.0408692 137 117 0
0.644746 -0.159093 -0.0418485 156 98 0
0.644735 -0.154268 -0.0427183 176 78 0
0.644788 -0.149416 -0.0434132 196 58 0
0.644818 -0.144529 -0.0437146 215 39 0
0.644818 -0.139627 -0.0437368 235 19 0
0.644784 -0.13474 -0.0433392 255 0 0
