ply
format ascii 1.0
comment Generated by robot_control PLYWriter
element vertex 14
property float x
property float y
property float z
property uchar red
property uchar green
property uchar blue
end_header
0.590442 -0.123179 -0.0375295 0 255 0
0.590448 -0.127889 -0.038788 19 235 0
0.590448 -0.132714 -0.0394701 39 215 0
0.590447 -0.137578 -0.0398266 58 196 0
0.590449 -0.142436 -0.0402655 78 176 0
0.59045 -0.147283 -0.0408088 98 156 0
0.590449 -0.152126 -0.0413812 117 137 0
0.590448 -0.15698 -0.0418502 137 117 0
0.590452 -0.161849 -0.0421197 156 98 0
0.59045 -0.166725 -0.0421944 176 78 0
0.590448 -0.171595 -0.0419994 196 58 0
0.590475 -0.176451 -0.0415833 215 39 0
0.590487 -0.181324 -0.0417471 235 19 0
0.590504 -0.186197 -0.0419386 255 0 0
