ply
format ascii 1.0
comment Generated by robot_control PLYWriter
element vertex 87
property float x
property float y
property float z
property uchar red
property uchar green
property uchar blue
end_header
0.593102 0.174754 -0.112076 0 255 0
0.595826 0.171895 -0.110805 2 252 0
0.598769 0.16918 -0.110098 5 249 0
0.602657 0.165753 -0.109985 8 246 0
0.602871 0.159787 -0.110261 11 243 0
0.602831 0.153778 -0.11079 14 240 0
0.600457 0.148622 -0.111451 17 237 0
0.596639 0.144192 -0.112065 20 234 0
0.590735 0.143894 -0.113029 23 231 0
0.584861 0.143763 -0.113936 26 228 0
0.581212 0.14774 -0.114979 29 225 0
0.57874 0.152896 -0.115641 32 222 0
0.579965 0.158566 -0.115627 35 219 0
0.583172 0.162302 -0.114928 38 216 0
0.588928 0.163694 -0.114018 41 213 0
0.594222 0.163758 -0.11311 44 210 0
0.598665 0.159921 -0.111907 47 207 0
0.601436 0.154617 -0.111361 50 204 0
0.603864 0.149121 -0.110897 53 201 0
0.602934 0.143537 -0.110671 56 198 0
0.600818 0.138527 -0.110671 59 195 0
0.596106 0.134776 -0.110925 62 192 0
0.590874 0.132048 -0.111411 65 189 0
0.585606 0.132925 -0.112183 68 186 0
0.582044 0.137752 -0.112799 71 183 0
0.578911 0.142799 -0.113529 74 180 0
0.580285 0.148024 -0.113826 77 177 0
0.583379 0.152379 -0.1138 80 174 0
0.588997 0.154474 -0.113404 83 171 0
0.594363 0.153562 -0.112792 85 169 0
0.599129 0.149937 -0.112128 88 166 0
0.602184 0.144885 -0.111105 91 163 0
0.604135 0.139232 -0.11037 94 160 0
0.604399 0.133255 -0.109862 97 157 0
0.601298 0.128129 -0.109568 100 154 0
0.59719 0.123763 -0.109584 103 151 0
0.591492 0.122092 -0.109833 106 148 0
0.585946 0.123407 -0.110536 109 145 0
0.582135 0.127952 -0.111176 112 142 0
0.578821 0.132839 -0.111774 115 139 0
0.580224 0.138494 -0.11205 118 136 0
0.58466 0.142429 -0.11206 121 133 0
0.590394 0.143878 -0.111761 124 130 0
0.596231 0.14331 -0.111121 127 127 0
0.600303 0.139302 -0.110422 130 124 0
0.603605 0.134301 -0.109824 133 121 0
0.604365 0.128569 -0.109121 136 118 0
0.604017 0.12262 -0.108763 139 115 0
0.601924 0.116969 -0.108537 142 112 0
0.597601 0.113853 -0.108573 145 109 0
0.592007 0.111815 -0.108872 148 106 0
0.586337 0.112671 -0.109319 151 103 0
0.582102 0.116828 -0.109967 154 100 0
0.580347 0.122289 -0.110437 157 97 0
0.581654 0.127904 -0.110645 160 94 0
0.58478 0.133062 -0.110518 163 91 0
0.590495 0.133968 -0.110066 166 88 0
0.595987 0.132222 -0.109554 169 85 0
0.601304 0.129658 -0.109054 171 83 0
0.603349 0.124009 -0.108482 174 80 0
0.604376 0.118188 -0.107873 177 77 0
0.604054 0.112215 -0.107572 180 74 0
0.601864 0.106608 -0.107481 183 71 0
0.596951 0.103753 -0.107616 186 68 0
0.591378 0.101681 -0.108112 189 65 0
0.585537 0.10211 -0.108696 192 62 0
0.582513 0.106285 -0.109276 195 59 0
0.580224 0.111599 -0.109607 198 56 0
0.581566 0.11723 -0.109773 201 53 0
0.584517 0.122039 -0.109575 204 50 0
0.590124 0.123515 -0.109055 207 47 0
0.596107 0.123174 -0.108518 210 44 0
0.600969 0.119748 -0.107803 213 41 0
0.603567 0.11438 -0.10732 216 38 0
0.606728 0.109456 -0.106956 219 35 0
0.605238 0.104059 -0.106807 222 32 0
0.603475 0.0986537 -0.106818 225 29 0
0.599365 0.0943479 -0.10706 228 26 0
0.59458 0.0910258 -0.107672 231 23 0
0.588914 0.0911748 -0.108461 234 20 0
0.583622 0.0931548 -0.109068 237 17 0
0.58035 0.0960765 -0.109593 240 14 0
0.580291 0.1021 -0.109895 243 11 0
0.580675 0.107749 -0.109776 246 8 0
0.58435 0.110579 -0.109436 249 5 0
0.588326 0.113117 -0.108796 252 2 0
0.593184 0.113515 -0.108128 255 0 0
