ply
format ascii 1.0
comment Generated by robot_control PLYWriter
element vertex 40
property float x
property float y
property float z
property uchar red
property uchar green
property uchar blue
end_header
0.684606 0.0684379 -0.14281 0 255 0
0.690066 0.0687609 -0.143516 6 248 0
0.693041 0.0658086 -0.142819 13 241 0
0.694386 0.0614968 -0.140911 19 235 0
0.694104 0.056014 -0.138586 26 228 0
0.690545 0.0516542 -0.136998 32 222 0
0.684799 0.0511307 -0.135948 39 215 0
0.678831 0.0513593 -0.1357 45 209 0
0.673854 0.054565 -0.136127 52 202 0
0.669976 0.0587808 -0.137281 58 196 0
0.668758 0.0643077 -0.138774 65 189 0
0.669068 0.0699848 -0.140561 71 183 0
0.672939 0.0736226 -0.142162 78 176 0
0.677853 0.0758483 -0.143205 85 169 0
0.683329 0.0735868 -0.143243 91 163 0
0.68723 0.0696455 -0.142473 98 156 0
0.689244 0.0642409 -0.141296 104 150 0
0.685512 0.0598162 -0.13986 111 143 0
0.680964 0.056599 -0.138437 117 137 0
0.675037 0.0564587 -0.137853 124 130 0
0.669557 0.0585726 -0.137889 130 124 0
0.664742 0.0619748 -0.138402 137 117 0
0.662445 0.0672385 -0.13947 143 111 0
0.662453 0.073003 -0.140963 150 104 0
0.66479 0.0776103 -0.142848 156 98 0
0.669234 0.0808594 -0.144661 163 91 0
0.675107 0.0814237 -0.145388 170 84 0
0.679909 0.0783954 -0.145251 176 78 0
0.682942 0.0737857 -0.144337 183 71 0
0.681005 0.0687941 -0.142697 189 65 0
0.677941 0.064309 -0.140581 196 58 0
0.672501 0.0636656 -0.139315 202 52 0
0.666677 0.0633053 -0.138433 209 45 0
0.660976 0.0646623 -0.138499 215 39 0
0.658083 0.0696902 -0.139015 222 32 0
0.656869 0.0753092 -0.14031 228 26 0
0.656686 0.0802752 -0.142703 235 19 0
0.658961 0.0841138 -0.144417 241 13 0
0.662154 0.0862124 -0.146697 248 6 0
0.665004 0.0887624 -0.148674 255 0 0
