ply
format ascii 1.0
comment Generated by robot_control PLYWriter
element vertex 10
property float x
property float y
property float z
property uchar red
property uchar green
property uchar blue
end_header
0.547709 -0.120621 -0.118913 0 255 0
0.547104 -0.125834 -0.118937 28 226 0
0.546466 -0.131031 -0.118527 56 198 0
0.545786 -0.136201 -0.117932 85 169 0
0.54513 -0.141313 -0.116948 113 141 0
0.544587 -0.146382 -0.115682 141 113 0
0.544065 -0.151416 -0.114279 170 84 0
0.543601 -0.15644 -0.112816 198 56 0
0.543176 -0.161413 -0.111187 226 28 0
0.542777 -0.166439 -0.109735 255 0 0
