ply
format ascii 1.0
comment Generated by robot_control PLYWriter
element vertex 89
property float x
property float y
property float z
property uchar red
property uchar green
property uchar blue
end_header
0.688109 0.111606 -0.0911556 0 255 0
0.693132 0.109341 -0.091243 2 252 0
0.695535 0.105494 -0.0917087 5 249 0
0.696331 0.100363 -0.0925646 8 246 0
0.694465 0.0955594 -0.0938201 11 243 0
0.690759 0.0918685 -0.0949446 14 240 0
0.685926 0.0902507 -0.0958792 17 237 0
0.680281 0.0914648 -0.0963506 20 234 0
0.675652 0.0942832 -0.0967428 23 231 0
0.671384 0.098321 -0.0967062 26 228 0
0.668749 0.103368 -0.0961313 28 226 0
0.668635 0.109293 -0.0953961 31 223 0
0.670485 0.114662 -0.0942898 34 220 0
0.674034 0.119288 -0.0930467 37 217 0
0.679279 0.121615 -0.0920448 40 214 0
0.685106 0.121276 -0.0910406 43 211 0
0.690711 0.119573 -0.0905709 46 208 0
0.694405 0.115025 -0.0906245 49 205 0
0.69458 0.109109 -0.0912912 52 202 0
0.691725 0.104077 -0.0921847 55 199 0
0.686477 0.101596 -0.093149 57 197 0
0.680839 0.0998351 -0.0939652 60 194 0
0.675348 0.101006 -0.0945353 63 191 0
0.670865 0.104868 -0.0948136 66 188 0
0.667844 0.109863 -0.0947898 69 185 0
0.667098 0.115722 -0.0944866 72 182 0
0.667732 0.121537 -0.0938693 75 179 0
0.670404 0.126795 -0.0931652 78 176 0
0.674444 0.131059 -0.0923701 81 173 0
0.68014 0.1318 -0.0915006 84 170 0
0.685281 0.132148 -0.0907836 86 168 0
0.689227 0.127861 -0.0903683 89 165 0
0.692261 0.122814 -0.0905111 92 162 0
0.691059 0.117251 -0.0910122 95 159 0
0.687847 0.112565 -0.0917275 98 156 0
0.682616 0.109902 -0.092391 101 153 0
0.676813 0.109854 -0.0931309 104 150 0
0.671851 0.11292 -0.093562 107 147 0
0.667371 0.116862 -0.093796 110 144 0
0.664658 0.122126 -0.0938962 113 141 0
0.664389 0.128063 -0.0938241 115 139 0
0.665996 0.133794 -0.093514 118 136 0
0.669506 0.138463 -0.0930418 121 133 0
0.674578 0.141391 -0.0923713 124 130 0
0.680492 0.141629 -0.0915809 127 127 0
0.685822 0.13947 -0.0910509 130 124 0
0.689131 0.134676 -0.0908473 133 121 0
0.69001 0.12904 -0.0908659 136 118 0
0.686921 0.124117 -0.091185 139 115 0
0.682707 0.120255 -0.0915463 141 113 0
0.67696 0.11966 -0.0919678 144 110 0
0.671559 0.122148 -0.0923805 147 107 0
0.666178 0.124682 -0.0929051 150 104 0
0.662926 0.129362 -0.0934315 153 101 0
0.662909 0.13506 -0.0940446 156 98 0
0.663481 0.140812 -0.0945271 159 95 0
0.666245 0.146082 -0.0947235 162 92 0
0.670525 0.149894 -0.0945218 165 89 0
0.676053 0.152048 -0.094126 168 86 0
0.681426 0.150536 -0.0937848 170 84 0
0.685469 0.146351 -0.093272 173 81 0
0.68688 0.140829 -0.0925905 176 78 0
0.685812 0.135068 -0.0920649 179 75 0
0.682286 0.13041 -0.0916905 182 72 0
0.676538 0.129495 -0.0916612 185 69 0
0.670768 0.130722 -0.0920048 188 66 0
0.66543 0.133288 -0.0926872 191 63 0
0.662075 0.138084 -0.0935638 194 60 0
0.66054 0.143311 -0.0947124 197 57 0
0.660683 0.149187 -0.0957689 199 55 0
0.662127 0.154772 -0.0967404 202 52 0
0.666423 0.158432 -0.0977199 205 49 0
0.671236 0.16145 -0.0984096 208 46 0
0.677191 0.16133 -0.0984891 211 43 0
0.682409 0.158514 -0.0980014 214 40 0
0.684571 0.153573 -0.0967961 217 37 0
0.684372 0.148018 -0.0948404 220 34 0
0.682 0.14341 -0.0935629 223 31 0
0.677668 0.140079 -0.0926195 226 28 0
0.672163 0.139345 -0.0924679 228 26 0
0.666347 0.140009 -0.0929198 231 23 0
0.661911 0.143542 -0.0937688 234 20 0
0.660189 0.147613 -0.0946496 237 17 0
0.657709 0.151554 -0.0960335 240 14 0
0.658538 0.156187 -0.0977374 243 11 0
0.658747 0.16138 -0.0995963 246 8 0
0.660737 0.165744 -0.10151 249 5 0
0.664974 0.169234 -0.102434 252 2 0
0.668653 0.171352 -0.102651 255 0 0
