ply
format ascii 1.0
comment Generated by robot_control PLYWriter
element vertex 200
property float x
property float y
property float z
property uchar red
property uchar green
property uchar blue
end_header
0.591406 0.239955 -0.116245 0 255 0
0.591406 0.239955 -0.116245 1 253 0
0.591406 0.239955 -0.116245 2 252 0
0.591406 0.239955 -0.116245 3 251 0
0.591406 0.239955 -0.116245 5 249 0
0.591406 0.239955 -0.116245 6 248 0
0.591406 0.239955 -0.116245 7 247 0
0.591406 0.239955 -0.116245 8 246 0
0.591406 0.239955 -0.116245 10 244 0
0.591406 0.239955 -0.116245 11 243 0
0.591406 0.239955 -0.116245 12 242 0
0.591406 0.239955 -0.116245 14 240 0
0.591406 0.239955 -0.116245 15 239 0
0.591406 0.239955 -0.116245 16 238 0
0.591406 0.239955 -0.116245 17 237 0
0.591406 0.239955 -0.116245 19 235 0
0.591406 0.239955 -0.116245 20 234 0
0.591406 0.239955 -0.116245 21 233 0
0.591406 0.239955 -0.116245 23 231 0
0.591406 0.239955 -0.116245 24 230 0
0.591406 0.239955 -0.116245 25 229 0
0.591406 0.239955 -0.116245 26 228 0
0.591406 0.239955 -0.116245 28 226 0
0.591406 0.239955 -0.116245 29 225 0
0.591406 0.239955 -0.116245 30 224 0
0.591406 0.239955 -0.116245 32 222 0
0.591406 0.239955 -0.116245 33 221 0
0.591406 0.239955 -0.116245 34 220 0
0.591406 0.239955 -0.116245 35 219 0
0.591406 0.239955 -0.116245 37 217 0
0.591406 0.239955 -0.116245 38 216 0
0.591406 0.239955 -0.116245 39 215 0
0.591406 0.239955 -0.116245 41 213 0
0.591406 0.239955 -0.116245 42 212 0
0.591406 0.239955 -0.116245 43 211 0
0.591406 0.239955 -0.116245 44 210 0
0.591406 0.239955 -0.116245 46 208 0
0.591406 0.239955 -0.116245 47 207 0
0.591406 0.239955 -0.116245 48 206 0
0.591406 0.239955 -0.116245 49 205 0
0.591406 0.239955 -0.116245 51 203 0
0.591406 0.239955 -0.116245 52 202 0
0.591406 0.239955 -0.116245 53 201 0
0.591406 0.239955 -0.116245 55 199 0
0.591406 0.239955 -0.116245 56 198 0
0.591406 0.239955 -0.116245 57 197 0
0.591406 0.239955 -0.116245 58 196 0
0.591406 0.239955 -0.116245 60 194 0
0.591406 0.239955 -0.116245 61 193 0
0.591406 0.239955 -0.116245 62 192 0
0.591406 0.239955 -0.116245 64 190 0
0.591406 0.239955 -0.116245 65 189 0
0.591406 0.239955 -0.116245 66 188 0
0.591406 0.239955 -0.116245 67 187 0
0.591406 0.239955 -0.116245 69 185 0
0.591406 0.239955 -0.116245 70 184 0
0.591406 0.239955 -0.116245 71 183 0
0.591406 0.239955 -0.116245 73 181 0
0.591406 0.239955 -0.116245 74 180 0
0.591406 0.239955 -0.116245 75 179 0
0.591406 0.239955 -0.116245 76 178 0
0.591406 0.239955 -0.116245 78 176 0
0.591406 0.239955 -0.116245 79 175 0
0.591406 0.239955 -0.116245 80 174 0
0.591406 0.239955 -0.116245 82 172 0
0.591406 0.239955 -0.116245 83 171 0
0.591406 0.239955 -0.116245 84 170 0
0.591406 0.239955 -0.116245 85 169 0
0.591406 0.239955 -0.116245 87 167 0
0.591406 0.239955 -0.116245 88 166 0
0.591406 0.239955 -0.116245 89 165 0
0.591406 0.239955 -0.116245 90 164 0
0.591406 0.239955 -0.116245 92 162 0
0.591406 0.239955 -0.116245 93 161 0
0.591406 0.239955 -0.116245 94 160 0
0.591406 0.239955 -0.116245 96 158 0
0.591406 0.239955 -0.116245 97 157 0
0.591406 0.239955 -0.116245 98 156 0
0.591406 0.239955 -0.116245 99 155 0
0.591406 0.239955 -0.116245 101 153 0
0.591406 0.239955 -0.116245 102 152 0
0.591406 0.239955 -0.116245 103 151 0
0.591406 0.239955 -0.116245 105 149 0
0.591406 0.239955 -0.116245 106 148 0
0.591406 0.239955 -0.116245 107 147 0
0.591406 0.239955 -0.116245 108 146 0
0.591406 0.239955 -0.116245 110 144 0
0.591406 0.239955 -0.116245 111 143 0
0.591406 0.239955 -0.116245 112 142 0
0.591406 0.239955 -0.116245 114 140 0
0.591406 0.239955 -0.116245 115 139 0
0.591406 0.239955 -0.116245 116 138 0
0.591406 0.239955 -0.116245 117 137 0
0.591406 0.239955 -0.116245 119 135 0
0.591406 0.239955 -0.116245 120 134 0
0.591406 0.239955 -0.116245 121 133 0
0.591406 0.239955 -0.116245 123 131 0
0.591406 0.239955 -0.116245 124 130 0
0.591406 0.239955 -0.116245 125 129 0
0.591406 0.239955 -0.116245 126 128 0
0.591406 0.239955 -0.116245 128 126 0
0.591406 0.239955 -0.116245 129 125 0
0.591406 0.239955 -0.116245 130 124 0
0.591406 0.239955 -0.116245 131 123 0
0.591406 0.239955 -0.116245 133 121 0
0.591406 0.239955 -0.116245 134 120 0
0.591406 0.239955 -0.116245 135 119 0
0.591406 0.239955 -0.116245 137 117 0
0.591406 0.239955 -0.116245 138 116 0
0.591406 0.239955 -0.116245 139 115 0
0.591406 0.239955 -0.116245 140 114 0
0.591406 0.239955 -0.116245 142 112 0
0.591406 0.239955 -0.116245 143 111 0
0.591406 0.239955 -0.116245 144 110 0
0.591406 0.239955 -0.116245 146 108 0
0.591406 0.239955 -0.116245 147 107 0
0.591406 0.239955 -0.116245 148 106 0
0.591406 0.239955 -0.116245 149 105 0
0.591406 0.239955 -0.116245 151 103 0
0.591406 0.239955 -0.116245 152 102 0
0.591406 0.239955 -0.116245 153 101 0
0.591406 0.239955 -0.116245 155 99 0
0.591406 0.239955 -0.116245 156 98 0
0.591406 0.239955 -0.116245 157 97 0
0.591406 0.239955 -0.116245 158 96 0
0.591406 0.239955 -0.116245 160 94 0
0.591406 0.239955 -0.116245 161 93 0
0.591406 0.239955 -0.116245 162 92 0
0.591406 0.239955 -0.116245 164 90 0
0.591406 0.239955 -0.116245 165 89 0
0.591406 0.239955 -0.116245 166 88 0
0.591406 0.239955 -0.116245 167 87 0
0.591406 0.239955 -0.116245 169 85 0
0.591406 0.239955 -0.116245 170 84 0
0.591406 0.239955 -0.116245 171 83 0
0.591406 0.239955 -0.116245 172 82 0
0.591406 0.239955 -0.116245 174 80 0
0.591406 0.239955 -0.116245 175 79 0
0.591406 0.239955 -0.116245 176 78 0
0.591406 0.239955 -0.116245 178 76 0
0.591406 0.239955 -0.116245 179 75 0
0.591406 0.239955 -0.116245 180 74 0
0.591406 0.239955 -0.116245 181 73 0
0.591406 0.239955 -0.116245 183 71 0
0.591406 0.239955 -0.116245 184 70 0
0.591406 0.239955 -0.116245 185 69 0
0.591406 0.239955 -0.116245 187 67 0
0.591406 0.239955 -0.116245 188 66 0
0.591406 0.239955 -0.116245 189 65 0
0.591406 0.239955 -0.116245 190 64 0
0.591406 0.239955 -0.116245 192 62 0
0.591406 0.239955 -0.116245 193 61 0
0.591406 0.239955 -0.116245 194 60 0
0.591406 0.239955 -0.116245 196 58 0
0.591406 0.239955 -0.116245 197 57 0
0.591406 0.239955 -0.116245 198 56 0
0.591406 0.239955 -0.116245 199 55 0
0.591406 0.239955 -0.116245 201 53 0
0.591406 0.239955 -0.116245 202 52 0
0.591406 0.239955 -0.116245 203 51 0
0.591406 0.239955 -0.116245 205 49 0
0.591406 0.239955 -0.116245 206 48 0
0.591406 0.239955 -0.116245 207 47 0
0.591406 0.239955 -0.116245 208 46 0
0.591406 0.239955 -0.116245 210 44 0
0.591406 0.239955 -0.116245 211 43 0
0.591406 0.239955 -0.116245 212 42 0
0.591406 0.239955 -0.116245 213 41 0
0.591406 0.239955 -0.116245 215 39 0
0.591406 0.239955 -0.116245 216 38 0
0.591406 0.239955 -0.116245 217 37 0
0.591406 0.239955 -0.116245 219 35 0
0.591406 0.239955 -0.116245 220 34 0
0.591406 0.239955 -0.116245 221 33 0
0.591406 0.239955 -0.116245 222 32 0
0.591406 0.239955 -0.116245 224 30 0
0.591406 0.239955 -0.116245 225 29 0
0.591406 0.239955 -0.116245 226 28 0
0.591406 0.239955 -0.116245 228 26 0
0.591406 0.239955 -0.116245 229 25 0
0.591406 0.239955 -0.116245 230 24 0
0.591406 0.239955 -0.116245 231 23 0
0.591406 0.239955 -0.116245 233 21 0
0.591406 0.239955 -0.116245 234 20 0
0.591406 0.239955 -0.116245 235 19 0
0.591406 0.239955 -0.116245 237 17 0
0.591406 0.239955 -0.116245 238 16 0
0.591406 0.239955 -0.116245 239 15 0
0.591406 0.239955 -0.116245 240 14 0
0.591406 0.239955 -0.116245 242 12 0
0.591406 0.239955 -0.116245 243 11 0
0.591406 0.239955 -0.116245 244 10 0
0.591406 0.239955 -0.116245 246 8 0
0.591406 0.239955 -0.116245 247 7 0
0.591406 0.239955 -0.116245 248 6 0
0.591406 0.239955 -0.116245 249 5 0
0.591406 0.239955 -0.116245 251 3 0
0.591406 0.239955 -0.116245 252 2 0
0.591406 0.239955 -0.116245 253 1 0
0.591406 0.239955 -0.116245 255 0 0
