ply
format ascii 1.0
comment Generated by robot_control PLYWriter
element vertex 80
property float x
property float y
property float z
property uchar red
property uchar green
property uchar blue
end_header
0.55052 -0.303912 -0.0951978 0 255 0
0.554508 -0.305937 -0.095621 3 251 0
0.556814 -0.309905 -0.0966749 6 248 0
0.558401 -0.315152 -0.0981691 9 245 0
0.55668 -0.319974 -0.0993752 12 242 0
0.555018 -0.325189 -0.100367 16 238 0
0.551012 -0.327987 -0.100959 19 235 0
0.546527 -0.330988 -0.101206 22 232 0
0.541347 -0.329504 -0.101171 25 229 0
0.5368 -0.327642 -0.101 29 225 0
0.534247 -0.323322 -0.100561 32 222 0
0.533062 -0.317795 -0.0999024 35 219 0
0.535897 -0.312941 -0.0990487 38 216 0
0.541229 -0.311082 -0.0985681 41 213 0
0.546977 -0.312302 -0.0986862 45 209 0
0.55234 -0.314858 -0.0990961 48 206 0
0.555101 -0.319806 -0.0997161 51 203 0
0.556303 -0.325354 -0.100437 54 200 0
0.554982 -0.331022 -0.101039 58 196 0
0.551671 -0.335246 -0.101671 61 193 0
0.547311 -0.339275 -0.102039 64 190 0
0.541707 -0.340116 -0.102144 67 187 0
0.536433 -0.337964 -0.102074 71 183 0
0.532903 -0.333262 -0.101812 74 180 0
0.531301 -0.327557 -0.101474 77 177 0
0.534238 -0.322737 -0.101032 80 174 0
0.539295 -0.319583 -0.100949 83 171 0
0.545051 -0.320822 -0.10104 87 167 0
0.549873 -0.324307 -0.101352 90 164 0
0.552784 -0.329432 -0.101689 93 161 0
0.55301 -0.335318 -0.102066 96 158 0
0.552538 -0.341248 -0.102476 100 154 0
0.549196 -0.345853 -0.102969 103 151 0
0.544333 -0.348358 -0.103276 106 148 0
0.538406 -0.348101 -0.103456 109 145 0
0.532919 -0.345738 -0.103352 112 142 0
0.530132 -0.341188 -0.10298 116 138 0
0.529174 -0.33585 -0.102689 119 135 0
0.533183 -0.331707 -0.102406 122 132 0
0.537976 -0.328599 -0.102301 125 129 0
0.543481 -0.329761 -0.102319 129 125 0
0.547848 -0.333844 -0.102439 132 122 0
0.55068 -0.339022 -0.102713 135 119 0
0.552509 -0.344523 -0.103067 138 116 0
0.550363 -0.349896 -0.103506 142 112 0
0.547502 -0.354923 -0.104017 145 109 0
0.54224 -0.357704 -0.104461 148 106 0
0.536448 -0.358479 -0.104673 151 103 0
0.531319 -0.355423 -0.10467 154 100 0
0.526911 -0.351649 -0.104471 158 96 0
0.52767 -0.346185 -0.104232 161 93 0
0.529837 -0.340992 -0.103938 164 90 0
0.534838 -0.338081 -0.103697 167 87 0
0.540462 -0.339206 -0.103525 171 83 0
0.545382 -0.342302 -0.103506 174 80 0
0.548198 -0.347517 -0.103551 177 77 0
0.549888 -0.353132 -0.103571 180 74 0
0.54841 -0.358805 -0.103574 183 71 0
0.545281 -0.363559 -0.103603 187 67 0
0.539967 -0.366285 -0.103682 190 64 0
0.534077 -0.366538 -0.103844 193 61 0
0.529446 -0.363281 -0.104035 196 58 0
0.526113 -0.358969 -0.104318 200 54 0
0.526864 -0.353061 -0.104531 203 51 0
0.529777 -0.349613 -0.104585 206 48 0
0.535249 -0.348329 -0.104451 209 45 0
0.540954 -0.34887 -0.104264 213 41 0
0.545224 -0.352911 -0.104068 216 38 0
0.546877 -0.358116 -0.103876 219 35 0
0.547342 -0.363328 -0.103152 222 32 0
0.546612 -0.368793 -0.101349 225 29 0
0.542406 -0.372724 -0.0997507 229 25 0
0.537567 -0.375744 -0.0981212 232 22 0
0.531829 -0.376548 -0.097275 235 19 0
0.527004 -0.374425 -0.0980163 238 16 0
0.524844 -0.370303 -0.100222 242 12 0
0.523194 -0.365628 -0.101642 245 9 0
0.524599 -0.36131 -0.103626 248 6 0
0.528372 -0.358612 -0.104777 251 3 0
0.532479 -0.356286 -0.104905 255 0 0
