ply
format ascii 1.0
comment Generated by robot_control PLYWriter
element vertex 33
property float x
property float y
property float z
property uchar red
property uchar green
property uchar blue
end_header
0.761135 0.132595 -0.139711 0 255 0
0.766082 0.131583 -0.139099 7 247 0
0.769847 0.128336 -0.138192 15 239 0
0.774064 0.124448 -0.136697 23 231 0
0.776704 0.11942 -0.13547 31 223 0
0.776196 0.113791 -0.134101 39 215 0
0.774247 0.108552 -0.13288 47 207 0
0.769003 0.105879 -0.13232 55 199 0
0.763228 0.105049 -0.132234 63 191 0
0.757846 0.106375 -0.132901 71 183 0
0.754761 0.111282 -0.133805 79 175 0
0.753029 0.116841 -0.134894 87 167 0
0.752941 0.122392 -0.135925 95 159 0
0.755919 0.127239 -0.136749 103 151 0
0.760474 0.130968 -0.137499 111 143 0
0.76562 0.133091 -0.138096 119 135 0
0.771544 0.133075 -0.138351 127 127 0
0.777476 0.133059 -0.138229 135 119 0
0.782311 0.129887 -0.13779 143 111 0
0.78621 0.125494 -0.137081 151 103 0
0.788931 0.120695 -0.13619 159 95 0
0.787582 0.115198 -0.135261 167 87 0
0.784999 0.110115 -0.134232 175 79 0
0.780013 0.107926 -0.133436 183 71 0
0.774378 0.106525 -0.133167 191 63 0
0.770045 0.110408 -0.13359 199 55 0
0.76613 0.114625 -0.13456 207 47 0
0.764602 0.120169 -0.135912 215 39 0
0.76539 0.125584 -0.137054 223 31 0
0.767071 0.130386 -0.138621 231 23 0
0.771936 0.133073 -0.139842 239 15 0
0.776878 0.135172 -0.14071 247 7 0
0.782674 0.135087 -0.141247 255 0 0
