ply
format ascii 1.0
comment Generated by robot_control PLYWriter
element vertex 58
property float x
property float y
property float z
property uchar red
property uchar green
property uchar blue
end_header
0.703927 0.154093 -0.114603 0 255 0
0.708643 0.151464 -0.113985 4 250 0
0.71292 0.147611 -0.11329 8 246 0
0.714202 0.141872 -0.112639 13 241 0
0.714178 0.136036 -0.111631 17 237 0
0.712368 0.130483 -0.110883 22 232 0
0.70924 0.125813 -0.110201 26 228 0
0.704149 0.122792 -0.109876 31 223 0
0.69896 0.119879 -0.109859 35 219 0
0.69301 0.119583 -0.109975 40 214 0
0.687181 0.120148 -0.110284 44 210 0
0.682208 0.123074 -0.11067 49 205 0
0.678558 0.127745 -0.111236 53 201 0
0.675272 0.132629 -0.111975 58 196 0
0.674804 0.138472 -0.112529 62 192 0
0.674542 0.144218 -0.113202 67 187 0
0.677511 0.14926 -0.113586 71 183 0
0.682184 0.15295 -0.113797 76 178 0
0.687444 0.154985 -0.1138 80 174 0
0.693134 0.153772 -0.113632 85 169 0
0.698742 0.151837 -0.113276 89 165 0
0.702519 0.147858 -0.11277 93 161 0
0.704158 0.142194 -0.112234 98 156 0
0.704484 0.136299 -0.111647 102 152 0
0.703053 0.130534 -0.111302 107 147 0
0.700285 0.125318 -0.111055 111 143 0
0.695526 0.122326 -0.110876 116 138 0
0.690007 0.12009 -0.110833 120 134 0
0.684164 0.119501 -0.110911 125 129 0
0.678353 0.120374 -0.111094 129 125 0
0.673234 0.123166 -0.111426 134 120 0
0.668821 0.127143 -0.111876 138 116 0
0.665349 0.131721 -0.112408 143 111 0
0.664372 0.137508 -0.113022 147 107 0
0.665453 0.143275 -0.113548 152 102 0
0.668276 0.148445 -0.1139 156 98 0
0.672713 0.152276 -0.114055 161 93 0
0.678362 0.153338 -0.114008 165 89 0
0.684293 0.152852 -0.113783 170 84 0
0.689671 0.150482 -0.113306 174 80 0
0.693336 0.146121 -0.112805 178 76 0
0.695224 0.140495 -0.112311 183 71 0
0.69564 0.134913 -0.111724 187 67 0
0.693756 0.129287 -0.111248 192 62 0
0.690198 0.124719 -0.110836 196 58 0
0.685314 0.121387 -0.110489 201 53 0
0.679879 0.118945 -0.110491 205 49 0
0.674307 0.1181 -0.110647 210 44 0
0.668653 0.119852 -0.110979 214 40 0
0.662895 0.12097 -0.111509 219 35 0
0.660219 0.125906 -0.112142 223 31 0
0.656905 0.130721 -0.112824 228 26 0
0.654682 0.13609 -0.113628 232 22 0
0.655653 0.141745 -0.11451 237 17 0
0.657727 0.14697 -0.115065 241 13 0
0.662561 0.149727 -0.115382 246 8 0
0.666142 0.15216 -0.115635 250 4 0
0.671076 0.153819 -0.115564 255 0 0
