ply
format ascii 1.0
comment Generated by robot_control PLYWriter
element vertex 200
property float x
property float y
property float z
property uchar red
property uchar green
property uchar blue
end_header
0.608148 0.0380124 -0.114708 0 255 0
0.608148 0.0380124 -0.114708 1 253 0
0.608148 0.0380124 -0.114708 2 252 0
0.608148 0.0380124 -0.114708 3 251 0
0.608148 0.0380124 -0.114708 5 249 0
0.608148 0.0380124 -0.114708 6 248 0
0.608148 0.0380124 -0.114708 7 247 0
0.608148 0.0380124 -0.114708 8 246 0
0.608148 0.0380124 -0.114708 10 244 0
0.608148 0.0380124 -0.114708 11 243 0
0.608148 0.0380124 -0.114708 12 242 0
0.608148 0.0380124 -0.114708 14 240 0
0.608148 0.0380124 -0.114708 15 239 0
0.608148 0.0380124 -0.114708 16 238 0
0.608148 0.0380124 -0.114708 17 237 0
0.608148 0.0380124 -0.114708 19 235 0
0.608148 0.0380124 -0.114708 20 234 0
0.608148 0.0380124 -0.114708 21 233 0
0.608148 0.0380124 -0.114708 23 231 0
0.608148 0.0380124 -0.114708 24 230 0
0.608148 0.0380124 -0.114708 25 229 0
0.608148 0.0380124 -0.114708 26 228 0
0.608148 0.0380124 -0.114708 28 226 0
0.608148 0.0380124 -0.114708 29 225 0
0.608148 0.0380124 -0.114708 30 224 0
0.608148 0.0380124 -0.114708 32 222 0
0.608148 0.0380124 -0.114708 33 221 0
0.608148 0.0380124 -0.114708 34 220 0
0.608148 0.0380124 -0.114708 35 219 0
0.608148 0.0380124 -0.114708 37 217 0
0.608148 0.0380124 -0.114708 38 216 0
0.608148 0.0380124 -0.114708 39 215 0
0.608148 0.0380124 -0.114708 41 213 0
0.608148 0.0380124 -0.114708 42 212 0
0.608148 0.0380124 -0.114708 43 211 0
0.608148 0.0380124 -0.114708 44 210 0
0.608148 0.0380124 -0.114708 46 208 0
0.608148 0.0380124 -0.114708 47 207 0
0.608148 0.0380124 -0.114708 48 206 0
0.608148 0.0380124 -0.114708 49 205 0
0.608148 0.0380124 -0.114708 51 203 0
0.608148 0.0380124 -0.114708 52 202 0
0.608148 0.0380124 -0.114708 53 201 0
0.608148 0.0380124 -0.114708 55 199 0
0.608148 0.0380124 -0.114708 56 198 0
0.608148 0.0380124 -0.114708 57 197 0
0.608148 0.0380124 -0.114708 58 196 0
0.608148 0.0380124 -0.114708 60 194 0
0.608148 0.0380124 -0.114708 61 193 0
0.608148 0.0380124 -0.114708 62 192 0
0.608148 0.0380124 -0.114708 64 190 0
0.608148 0.0380124 -0.114708 65 189 0
0.608148 0.0380124 -0.114708 66 188 0
0.608148 0.0380124 -0.114708 67 187 0
0.608148 0.0380124 -0.114708 69 185 0
0.608148 0.0380124 -0.114708 70 184 0
0.608148 0.0380124 -0.114708 71 183 0
0.608148 0.0380124 -0.114708 73 181 0
0.608148 0.0380124 -0.114708 74 180 0
0.608148 0.0380124 -0.114708 75 179 0
0.608148 0.0380124 -0.114708 76 178 0
0.608148 0.0380124 -0.114708 78 176 0
0.608148 0.0380124 -0.114708 79 175 0
0.608148 0.0380124 -0.114708 80 174 0
0.608148 0.0380124 -0.114708 82 172 0
0.608148 0.0380124 -0.114708 83 171 0
0.608148 0.0380124 -0.114708 84 170 0
0.608148 0.0380124 -0.114708 85 169 0
0.608148 0.0380124 -0.114708 87 167 0
0.608148 0.0380124 -0.114708 88 166 0
0.608148 0.0380124 -0.114708 89 165 0
0.608148 0.0380124 -0.114708 90 164 0
0.608148 0.0380124 -0.114708 92 162 0
0.608148 0.0380124 -0.114708 93 161 0
0.608148 0.0380124 -0.114708 94 160 0
0.608148 0.0380124 -0.114708 96 158 0
0.608148 0.0380124 -0.114708 97 157 0
0.608148 0.0380124 -0.114708 98 156 0
0.608148 0.0380124 -0.114708 99 155 0
0.608148 0.0380124 -0.114708 101 153 0
0.608148 0.0380124 -0.114708 102 152 0
0.608148 0.0380124 -0.114708 103 151 0
0.608148 0.0380124 -0.114708 105 149 0
0.608148 0.0380124 -0.114708 106 148 0
0.608148 0.0380124 -0.114708 107 147 0
0.608148 0.0380124 -0.114708 108 146 0
0.608148 0.0380124 -0.114708 110 144 0
0.608148 0.0380124 -0.114708 111 143 0
0.608148 0.0380124 -0.114708 112 142 0
0.608148 0.0380124 -0.114708 114 140 0
0.608148 0.0380124 -0.114708 115 139 0
0.608148 0.0380124 -0.114708 116 138 0
0.608148 0.0380124 -0.114708 117 137 0
0.608148 0.0380124 -0.114708 119 135 0
0.608148 0.0380124 -0.114708 120 134 0
0.608148 0.0380124 -0.114708 121 133 0
0.608148 0.0380124 -0.114708 123 131 0
0.608148 0.0380124 -0.114708 124 130 0
0.608148 0.0380124 -0.114708 125 129 0
0.608148 0.0380124 -0.114708 126 128 0
0.608148 0.0380124 -0.114708 128 126 0
0.608148 0.0380124 -0.114708 129 125 0
0.608148 0.0380124 -0.114708 130 124 0
0.608148 0.0380124 -0.114708 131 123 0
0.608148 0.0380124 -0.114708 133 121 0
0.608148 0.0380124 -0.114708 134 120 0
0.608148 0.0380124 -0.114708 135 119 0
0.608148 0.0380124 -0.114708 137 117 0
0.608148 0.0380124 -0.114708 138 116 0
0.608148 0.0380124 -0.114708 139 115 0
0.608148 0.0380124 -0.114708 140 114 0
0.608148 0.0380124 -0.114708 142 112 0
0.608148 0.0380124 -0.114708 143 111 0
0.608148 0.0380124 -0.114708 144 110 0
0.608148 0.0380124 -0.114708 146 108 0
0.608148 0.0380124 -0.114708 147 107 0
0.608148 0.0380124 -0.114708 148 106 0
0.608148 0.0380124 -0.114708 149 105 0
0.608148 0.0380124 -0.114708 151 103 0
0.608148 0.0380124 -0.114708 152 102 0
0.608148 0.0380124 -0.114708 153 101 0
0.608148 0.0380124 -0.114708 155 99 0
0.608148 0.0380124 -0.114708 156 98 0
0.608148 0.0380124 -0.114708 157 97 0
0.608148 0.0380124 -0.114708 158 96 0
0.608148 0.0380124 -0.114708 160 94 0
0.608148 0.0380124 -0.114708 161 93 0
0.608148 0.0380124 -0.114708 162 92 0
0.608148 0.0380124 -0.114708 164 90 0
0.608148 0.0380124 -0.114708 165 89 0
0.608148 0.0380124 -0.114708 166 88 0
0.608148 0.0380124 -0.114708 167 87 0
0.608148 0.0380124 -0.114708 169 85 0
0.608148 0.0380124 -0.114708 170 84 0
0.608148 0.0380124 -0.114708 171 83 0
0.608148 0.0380124 -0.114708 172 82 0
0.608148 0.0380124 -0.114708 174 80 0
0.608148 0.0380124 -0.114708 175 79 0
0.608148 0.0380124 -0.114708 176 78 0
0.608148 0.0380124 -0.114708 178 76 0
0.608148 0.0380124 -0.114708 179 75 0
0.608148 0.0380124 -0.114708 180 74 0
0.608148 0.0380124 -0.114708 181 73 0
0.608148 0.0380124 -0.114708 183 71 0
0.608148 0.0380124 -0.114708 184 70 0
0.608148 0.0380124 -0.114708 185 69 0
0.608148 0.0380124 -0.114708 187 67 0
0.608148 0.0380124 -0.114708 188 66 0
0.608148 0.0380124 -0.114708 189 65 0
0.608148 0.0380124 -0.114708 190 64 0
0.608148 0.0380124 -0.114708 192 62 0
0.608148 0.0380124 -0.114708 193 61 0
0.608148 0.0380124 -0.114708 194 60 0
0.608148 0.0380124 -0.114708 196 58 0
0.608148 0.0380124 -0.114708 197 57 0
0.608148 0.0380124 -0.114708 198 56 0
0.608148 0.0380124 -0.114708 199 55 0
0.608148 0.0380124 -0.114708 201 53 0
0.608148 0.0380124 -0.114708 202 52 0
0.608148 0.0380124 -0.114708 203 51 0
0.608148 0.0380124 -0.114708 205 49 0
0.608148 0.0380124 -0.114708 206 48 0
0.608148 0.0380124 -0.114708 207 47 0
0.608148 0.0380124 -0.114708 208 46 0
0.608148 0.0380124 -0.114708 210 44 0
0.608148 0.0380124 -0.114708 211 43 0
0.608148 0.0380124 -0.114708 212 42 0
0.608148 0.0380124 -0.114708 213 41 0
0.608148 0.0380124 -0.114708 215 39 0
0.608148 0.0380124 -0.114708 216 38 0
0.608148 0.0380124 -0.114708 217 37 0
0.608148 0.0380124 -0.114708 219 35 0
0.608148 0.0380124 -0.114708 220 34 0
0.608148 0.0380124 -0.114708 221 33 0
0.608148 0.0380124 -0.114708 222 32 0
0.608148 0.0380124 -0.114708 224 30 0
0.608148 0.0380124 -0.114708 225 29 0
0.608148 0.0380124 -0.114708 226 28 0
0.608148 0.0380124 -0.114708 228 26 0
0.608148 0.0380124 -0.114708 229 25 0
0.608148 0.0380124 -0.114708 230 24 0
0.608148 0.0380124 -0.114708 231 23 0
0.608148 0.0380124 -0.114708 233 21 0
0.608148 0.0380124 -0.114708 234 20 0
0.608148 0.0380124 -0.114708 235 19 0
0.608148 0.0380124 -0.114708 237 17 0
0.608148 0.0380124 -0.114708 238 16 0
0.608148 0.0380124 -0.114708 239 15 0
0.608148 0.0380124 -0.114708 240 14 0
0.608148 0.0380124 -0.114708 242 12 0
0.608148 0.0380124 -0.114708 243 11 0
0.608148 0.0380124 -0.114708 244 10 0
0.608148 0.0380124 -0.114708 246 8 0
0.608148 0.0380124 -0.114708 247 7 0
0.608148 0.0380124 -0.114708 248 6 0
0.608148 0.0380124 -0.114708 249 5 0
0.608148 0.0380124 -0.114708 251 3 0
0.608148 0.0380124 -0.114708 252 2 0
0.608148 0.0380124 -0.114708 253 1 0
0.608148 0.0380124 -0.114708 255 0 0
