ply
format ascii 1.0
comment Generated by robot_control PLYWriter
element vertex 16
property float x
property float y
property float z
property uchar red
property uchar green
property uchar blue
end_header
0.604931 -0.148487 -0.130553 0 255 0
0.604973 -0.153432 -0.13151 17 238 0
0.605317 -0.158372 -0.132422 34 221 0
0.605535 -0.16336 -0.13308 51 204 0
0.605698 -0.168362 -0.133642 68 187 0
0.605862 -0.173374 -0.134111 85 169 0
0.606024 -0.178393 -0.134483 102 153 0
0.606188 -0.18342 -0.134736 119 135 0
0.606341 -0.188452 -0.134874 136 118 0
0.60649 -0.193486 -0.134922 153 101 0
0.606647 -0.19852 -0.134946 170 84 0
0.606791 -0.203553 -0.135038 187 67 0
0.606851 -0.208586 -0.135203 204 50 0
0.606851 -0.213618 -0.135199 221 33 0
0.60688 -0.218653 -0.135127 238 16 0
0.606948 -0.223679 -0.135419 255 0 0
