ply
format ascii 1.0
comment Generated by robot_control PLYWriter
element vertex 30
property float x
property float y
property float z
property uchar red
property uchar green
property uchar blue
end_header
0.679256 0.186888 -0.0996076 0 255 0
0.683128 0.183869 -0.100642 8 246 0
0.687139 0.180253 -0.101058 17 237 0
0.688396 0.174596 -0.100987 26 228 0
0.688305 0.168661 -0.100659 35 219 0
0.687189 0.162974 -0.100143 43 211 0
0.682492 0.159905 -0.0999821 52 202 0
0.677486 0.157941 -0.100132 61 193 0
0.671921 0.158183 -0.100359 70 184 0
0.667691 0.162351 -0.100578 79 175 0
0.666302 0.167885 -0.100899 87 167 0
0.668076 0.173042 -0.101267 96 158 0
0.671437 0.177862 -0.101575 105 149 0
0.676596 0.180672 -0.101601 114 140 0
0.682272 0.18052 -0.101326 123 131 0
0.687582 0.178022 -0.10081 131 123 0
0.692934 0.175527 -0.100189 140 114 0
0.695154 0.1701 -0.0994826 149 105 0
0.696669 0.164491 -0.098848 158 96 0
0.695925 0.158679 -0.0980351 167 87 0
0.692441 0.154042 -0.0974227 175 79 0
0.687603 0.150627 -0.0970239 184 70 0
0.681954 0.149771 -0.0970977 193 61 0
0.677097 0.151911 -0.097624 202 52 0
0.673989 0.156653 -0.0984852 211 43 0
0.672596 0.161674 -0.0994776 219 35 0
0.674692 0.166073 -0.100747 228 26 0
0.677871 0.170661 -0.101615 237 17 0
0.683024 0.172555 -0.101886 246 8 0
0.688343 0.173055 -0.101498 255 0 0
