ply
format ascii 1.0
comment Generated by robot_control PLYWriter
element vertex 200
property float x
property float y
property float z
property uchar red
property uchar green
property uchar blue
end_header
0.573251 -0.0285728 -0.138635 0 255 0
0.573251 -0.0285728 -0.138635 1 253 0
0.573251 -0.0285728 -0.138635 2 252 0
0.573251 -0.0285728 -0.138635 3 251 0
0.573251 -0.0285728 -0.138635 5 249 0
0.573251 -0.0285728 -0.138635 6 248 0
0.573251 -0.0285728 -0.138635 7 247 0
0.573251 -0.0285728 -0.138635 8 246 0
0.573251 -0.0285728 -0.138635 10 244 0
0.573251 -0.0285728 -0.138635 11 243 0
0.573251 -0.0285728 -0.138635 12 242 0
0.573251 -0.0285728 -0.138635 14 240 0
0.573251 -0.0285728 -0.138635 15 239 0
0.573251 -0.0285728 -0.138635 16 238 0
0.573251 -0.0285728 -0.138635 17 237 0
0.573251 -0.0285728 -0.138635 19 235 0
0.573251 -0.0285728 -0.138635 20 234 0
0.573251 -0.0285728 -0.138635 21 233 0
0.573251 -0.0285728 -0.138635 23 231 0
0.573251 -0.0285728 -0.138635 24 230 0
0.573251 -0.0285728 -0.138635 25 229 0
0.573251 -0.0285728 -0.138635 26 228 0
0.573251 -0.0285728 -0.138635 28 226 0
0.573251 -0.0285728 -0.138635 29 225 0
0.573251 -0.0285728 -0.138635 30 224 0
0.573251 -0.0285728 -0.138635 32 222 0
0.573251 -0.0285728 -0.138635 33 221 0
0.573251 -0.0285728 -0.138635 34 220 0
0.573251 -0.0285728 -0.138635 35 219 0
0.573251 -0.0285728 -0.138635 37 217 0
0.573251 -0.0285728 -0.138635 38 216 0
0.573251 -0.0285728 -0.138635 39 215 0
0.573251 -0.0285728 -0.138635 41 213 0
0.573251 -0.0285728 -0.138635 42 212 0
0.573251 -0.0285728 -0.138635 43 211 0
0.573251 -0.0285728 -0.138635 44 210 0
0.573251 -0.0285728 -0.138635 46 208 0
0.573251 -0.0285728 -0.138635 47 207 0
0.573251 -0.0285728 -0.138635 48 206 0
0.573251 -0.0285728 -0.138635 49 205 0
0.573251 -0.0285728 -0.138635 51 203 0
0.573251 -0.0285728 -0.138635 52 202 0
0.573251 -0.0285728 -0.138635 53 201 0
0.573251 -0.0285728 -0.138635 55 199 0
0.573251 -0.0285728 -0.138635 56 198 0
0.573251 -0.0285728 -0.138635 57 197 0
0.573251 -0.0285728 -0.138635 58 196 0
0.573251 -0.0285728 -0.138635 60 194 0
0.573251 -0.0285728 -0.138635 61 193 0
0.573251 -0.0285728 -0.138635 62 192 0
0.573251 -0.0285728 -0.138635 64 190 0
0.573251 -0.0285728 -0.138635 65 189 0
0.573251 -0.0285728 -0.138635 66 188 0
0.573251 -0.0285728 -0.138635 67 187 0
0.573251 -0.0285728 -0.138635 69 185 0
0.573251 -0.0285728 -0.138635 70 184 0
0.573251 -0.0285728 -0.138635 71 183 0
0.573251 -0.0285728 -0.138635 73 181 0
0.573251 -0.0285728 -0.138635 74 180 0
0.573251 -0.0285728 -0.138635 75 179 0
0.573251 -0.0285728 -0.138635 76 178 0
0.573251 -0.0285728 -0.138635 78 176 0
0.573251 -0.0285728 -0.138635 79 175 0
0.573251 -0.0285728 -0.138635 80 174 0
0.573251 -0.0285728 -0.138635 82 172 0
0.573251 -0.0285728 -0.138635 83 171 0
0.573251 -0.0285728 -0.138635 84 170 0
0.573251 -0.0285728 -0.138635 85 169 0
0.573251 -0.0285728 -0.138635 87 167 0
0.573251 -0.0285728 -0.138635 88 166 0
0.573251 -0.0285728 -0.138635 89 165 0
0.573251 -0.0285728 -0.138635 90 164 0
0.573251 -0.0285728 -0.138635 92 162 0
0.573251 -0.0285728 -0.138635 93 161 0
0.573251 -0.0285728 -0.138635 94 160 0
0.573251 -0.0285728 -0.138635 96 158 0
0.573251 -0.0285728 -0.138635 97 157 0
0.573251 -0.0285728 -0.138635 98 156 0
0.573251 -0.0285728 -0.138635 99 155 0
0.573251 -0.0285728 -0.138635 101 153 0
0.573251 -0.0285728 -0.138635 102 152 0
0.573251 -0.0285728 -0.138635 103 151 0
0.573251 -0.0285728 -0.138635 105 149 0
0.573251 -0.0285728 -0.138635 106 148 0
0.573251 -0.0285728 -0.138635 107 147 0
0.573251 -0.0285728 -0.138635 108 146 0
0.573251 -0.0285728 -0.138635 110 144 0
0.573251 -0.0285728 -0.138635 111 143 0
0.573251 -0.0285728 -0.138635 112 142 0
0.573251 -0.0285728 -0.138635 114 140 0
0.573251 -0.0285728 -0.138635 115 139 0
0.573251 -0.0285728 -0.138635 116 138 0
0.573251 -0.0285728 -0.138635 117 137 0
0.573251 -0.0285728 -0.138635 119 135 0
0.573251 -0.0285728 -0.138635 120 134 0
0.573251 -0.0285728 -0.138635 121 133 0
0.573251 -0.0285728 -0.138635 123 131 0
0.573251 -0.0285728 -0.138635 124 130 0
0.573251 -0.0285728 -0.138635 125 129 0
0.573251 -0.0285728 -0.138635 126 128 0
0.573251 -0.0285728 -0.138635 128 126 0
0.573251 -0.0285728 -0.138635 129 125 0
0.573251 -0.0285728 -0.138635 130 124 0
0.573251 -0.0285728 -0.138635 131 123 0
0.573251 -0.0285728 -0.138635 133 121 0
0.573251 -0.0285728 -0.138635 134 120 0
0.573251 -0.0285728 -0.138635 135 119 0
0.573251 -0.0285728 -0.138635 137 117 0
0.573251 -0.0285728 -0.138635 138 116 0
0.573251 -0.0285728 -0.138635 139 115 0
0.573251 -0.0285728 -0.138635 140 114 0
0.573251 -0.0285728 -0.138635 142 112 0
0.573251 -0.0285728 -0.138635 143 111 0
0.573251 -0.0285728 -0.138635 144 110 0
0.573251 -0.0285728 -0.138635 146 108 0
0.573251 -0.0285728 -0.138635 147 107 0
0.573251 -0.0285728 -0.138635 148 106 0
0.573251 -0.0285728 -0.138635 149 105 0
0.573251 -0.0285728 -0.138635 151 103 0
0.573251 -0.0285728 -0.138635 152 102 0
0.573251 -0.0285728 -0.138635 153 101 0
0.573251 -0.0285728 -0.138635 155 99 0
0.573251 -0.0285728 -0.138635 156 98 0
0.573251 -0.0285728 -0.138635 157 97 0
0.573251 -0.0285728 -0.138635 158 96 0
0.573251 -0.0285728 -0.138635 160 94 0
0.573251 -0.0285728 -0.138635 161 93 0
0.573251 -0.0285728 -0.138635 162 92 0
0.573251 -0.0285728 -0.138635 164 90 0
0.573251 -0.0285728 -0.138635 165 89 0
0.573251 -0.0285728 -0.138635 166 88 0
0.573251 -0.0285728 -0.138635 167 87 0
0.573251 -0.0285728 -0.138635 169 85 0
0.573251 -0.0285728 -0.138635 170 84 0
0.573251 -0.0285728 -0.138635 171 83 0
0.573251 -0.0285728 -0.138635 172 82 0
0.573251 -0.0285728 -0.138635 174 80 0
0.573251 -0.0285728 -0.138635 175 79 0
0.573251 -0.0285728 -0.138635 176 78 0
0.573251 -0.0285728 -0.138635 178 76 0
0.573251 -0.0285728 -0.138635 179 75 0
0.573251 -0.0285728 -0.138635 180 74 0
0.573251 -0.0285728 -0.138635 181 73 0
0.573251 -0.0285728 -0.138635 183 71 0
0.573251 -0.0285728 -0.138635 184 70 0
0.573251 -0.0285728 -0.138635 185 69 0
0.573251 -0.0285728 -0.138635 187 67 0
0.573251 -0.0285728 -0.138635 188 66 0
0.573251 -0.0285728 -0.138635 189 65 0
0.573251 -0.0285728 -0.138635 190 64 0
0.573251 -0.0285728 -0.138635 192 62 0
0.573251 -0.0285728 -0.138635 193 61 0
0.573251 -0.0285728 -0.138635 194 60 0
0.573251 -0.0285728 -0.138635 196 58 0
0.573251 -0.0285728 -0.138635 197 57 0
0.573251 -0.0285728 -0.138635 198 56 0
0.573251 -0.0285728 -0.138635 199 55 0
0.573251 -0.0285728 -0.138635 201 53 0
0.573251 -0.0285728 -0.138635 202 52 0
0.573251 -0.0285728 -0.138635 203 51 0
0.573251 -0.0285728 -0.138635 205 49 0
0.573251 -0.0285728 -0.138635 206 48 0
0.573251 -0.0285728 -0.138635 207 47 0
0.573251 -0.0285728 -0.138635 208 46 0
0.573251 -0.0285728 -0.138635 210 44 0
0.573251 -0.0285728 -0.138635 211 43 0
0.573251 -0.0285728 -0.138635 212 42 0
0.573251 -0.0285728 -0.138635 213 41 0
0.573251 -0.0285728 -0.138635 215 39 0
0.573251 -0.0285728 -0.138635 216 38 0
0.573251 -0.0285728 -0.138635 217 37 0
0.573251 -0.0285728 -0.138635 219 35 0
0.573251 -0.0285728 -0.138635 220 34 0
0.573251 -0.0285728 -0.138635 221 33 0
0.573251 -0.0285728 -0.138635 222 32 0
0.573251 -0.0285728 -0.138635 224 30 0
0.573251 -0.0285728 -0.138635 225 29 0
0.573251 -0.0285728 -0.138635 226 28 0
0.573251 -0.0285728 -0.138635 228 26 0
0.573251 -0.0285728 -0.138635 229 25 0
0.573251 -0.0285728 -0.138635 230 24 0
0.573251 -0.0285728 -0.138635 231 23 0
0.573251 -0.0285728 -0.138635 233 21 0
0.573251 -0.0285728 -0.138635 234 20 0
0.573251 -0.0285728 -0.138635 235 19 0
0.573251 -0.0285728 -0.138635 237 17 0
0.573251 -0.0285728 -0.138635 238 16 0
0.573251 -0.0285728 -0.138635 239 15 0
0.573251 -0.0285728 -0.138635 240 14 0
0.573251 -0.0285728 -0.138635 242 12 0
0.573251 -0.0285728 -0.138635 243 11 0
0.573251 -0.0285728 -0.138635 244 10 0
0.573251 -0.0285728 -0.138635 246 8 0
0.573251 -0.0285728 -0.138635 247 7 0
0.573251 -0.0285728 -0.138635 248 6 0
0.573251 -0.0285728 -0.138635 249 5 0
0.573251 -0.0285728 -0.138635 251 3 0
0.573251 -0.0285728 -0.138635 252 2 0
0.573251 -0.0285728 -0.138635 253 1 0
0.573251 -0.0285728 -0.138635 255 0 0
