ply
format ascii 1.0
comment Generated by robot_control PLYWriter
element vertex 14
property float x
property float y
property float z
property uchar red
property uchar green
property uchar blue
end_header
0.680098 -0.294044 -0.0220186 0 255 0
0.679763 -0.28921 -0.0216537 19 235 0
0.679545 -0.284371 -0.0212587 39 215 0
0.679334 -0.279534 -0.0208371 58 196 0
0.678946 -0.27471 -0.0203945 78 176 0
0.678565 -0.269893 -0.0198848 98 156 0
0.678191 -0.265083 -0.0192935 117 137 0
0.677911 -0.260276 -0.0186485 137 117 0
0.677712 -0.255461 -0.0180164 156 98 0
0.677484 -0.250642 -0.0174293 176 78 0
0.677212 -0.245822 -0.0168757 196 58 0
0.676785 -0.24101 -0.0163472 215 39 0
0.676341 -0.23621 -0.0157387 235 19 0
0.676228 -0.231386 -0.0151736 255 0 0
