ply
format ascii 1.0
comment Generated by robot_control PLYWriter
element vertex 10
property float x
property float y
property float z
property uchar red
property uchar green
property uchar blue
end_header
0.670234 -0.171843 -0.0142105 0 255 0
0.669791 -0.166664 -0.0150172 28 226 0
0.669306 -0.161479 -0.0157766 56 198 0
0.668901 -0.156289 -0.0165346 85 169 0
0.668869 -0.151073 -0.017227 113 141 0
0.668704 -0.145847 -0.0178176 141 113 0
0.668773 -0.140628 -0.0184854 170 84 0
0.668754 -0.135426 -0.0192777 198 56 0
0.668742 -0.130239 -0.0201652 226 28 0
0.668755 -0.125109 -0.021328 255 0 0
