ply
format ascii 1.0
comment Generated by robot_control PLYWriter
element vertex 101
property float x
property float y
property float z
property uchar red
property uchar green
property uchar blue
end_header
0.710364 -0.280542 -0.0186558 0 255 0
0.71511 -0.282358 -0.0197959 2 252 0
0.718417 -0.285945 -0.0203218 5 249 0
0.717658 -0.291546 -0.0203855 7 247 0
0.715359 -0.296541 -0.0203656 10 244 0
0.712126 -0.300487 -0.0208132 12 242 0
0.70619 -0.300207 -0.0212446 15 239 0
0.70041 -0.300139 -0.0215925 17 237 0
0.696195 -0.29591 -0.0215612 20 234 0
0.693015 -0.291312 -0.0210963 22 232 0
0.692798 -0.285388 -0.0203453 25 229 0
0.692552 -0.279472 -0.0195048 28 226 0
0.694389 -0.274189 -0.0189136 30 224 0
0.699014 -0.270472 -0.0186432 33 221 0
0.704556 -0.268597 -0.0187522 35 219 0
0.710174 -0.269952 -0.019047 38 216 0
0.714611 -0.272721 -0.0194047 40 214 0
0.716197 -0.278413 -0.0196916 43 211 0
0.716304 -0.28439 -0.0199261 45 209 0
0.711823 -0.288197 -0.0198895 48 206 0
0.706812 -0.290769 -0.0197402 51 204 0
0.701356 -0.288856 -0.0195737 53 201 0
0.696444 -0.285473 -0.0192888 56 198 0
0.692777 -0.280975 -0.0189974 58 196 0
0.690453 -0.275923 -0.0186056 61 193 0
0.690354 -0.269947 -0.0183341 63 191 0
0.692742 -0.264623 -0.0182126 66 188 0
0.697279 -0.260767 -0.0182726 68 186 0
0.702777 -0.258626 -0.0185479 71 183 0
0.708745 -0.25856 -0.0187879 73 181 0
0.7137 -0.261061 -0.0190411 76 178 0
0.7162 -0.266493 -0.0192376 79 175 0
0.715222 -0.271804 -0.019379 81 173 0
0.712833 -0.276963 -0.0193586 84 170 0
0.707326 -0.279138 -0.0191022 86 168 0
0.701996 -0.279007 -0.0186753 89 165 0
0.69668 -0.276309 -0.0181803 91 163 0
0.692226 -0.272383 -0.0177532 94 160 0
0.68973 -0.266971 -0.0174458 96 158 0
0.688928 -0.261134 -0.0174322 99 155 0
0.690995 -0.255585 -0.0175934 102 153 0
0.694667 -0.250865 -0.0177762 104 150 0
0.699715 -0.2485 -0.0181262 107 147 0
0.705676 -0.248562 -0.0183862 109 145 0
0.710965 -0.251168 -0.0187118 112 142 0
0.715155 -0.255177 -0.0190279 114 140 0
0.714064 -0.260919 -0.0191651 117 137 0
0.710859 -0.265935 -0.0189734 119 135 0
0.70632 -0.268695 -0.0186001 122 132 0
0.700407 -0.268485 -0.0179501 124 130 0
0.695395 -0.265425 -0.0172684 127 127 0
0.691234 -0.261157 -0.0167557 130 124 0
0.688663 -0.256244 -0.0164059 132 122 0
0.688653 -0.250287 -0.0163522 135 119 0
0.690359 -0.244554 -0.0165021 137 117 0
0.693992 -0.239954 -0.0169307 140 114 0
0.699225 -0.237108 -0.0174347 142 112 0
0.704998 -0.236689 -0.0179398 145 109 0
0.710333 -0.239326 -0.0183831 147 107 0
0.712473 -0.244122 -0.0188578 150 104 0
0.714306 -0.249237 -0.0190118 153 101 0
0.710652 -0.253952 -0.0188451 155 99 0
0.70662 -0.25782 -0.0182177 158 96 0
0.700836 -0.258387 -0.0174901 160 94 0
0.695626 -0.255765 -0.0165095 163 91 0
0.691351 -0.25206 -0.015771 165 89 0
0.687753 -0.247313 -0.0153624 168 86 0
0.687165 -0.241686 -0.0152015 170 84 0
0.689287 -0.236097 -0.0153841 173 81 0
0.692607 -0.231244 -0.0158049 175 79 0
0.697348 -0.22774 -0.016464 178 76 0
0.703019 -0.226722 -0.017195 181 73 0
0.708215 -0.229047 -0.0181644 183 71 0
0.712451 -0.232762 -0.01897 186 68 0
0.712412 -0.238728 -0.0191743 188 66 0
0.709836 -0.244089 -0.0187198 191 63 0
0.704825 -0.247063 -0.0178879 193 61 0
0.699275 -0.248229 -0.0168346 196 58 0
0.694214 -0.245272 -0.0157908 198 56 0
0.690164 -0.241204 -0.0148831 201 53 0
0.686756 -0.236405 -0.0143011 204 50 0
0.686789 -0.23049 -0.0140096 206 48 0
0.686898 -0.224536 -0.013995 209 45 0
0.689986 -0.219501 -0.01435 211 43 0
0.694939 -0.216492 -0.0151354 214 40 0
0.700838 -0.216802 -0.0160454 216 38 0
0.70666 -0.216349 -0.0172364 219 35 0
0.709351 -0.220963 -0.018465 221 33 0
0.711259 -0.22619 -0.0193364 224 30 0
0.710016 -0.231887 -0.0189573 226 28 0
0.705834 -0.235939 -0.0180475 229 25 0
0.700243 -0.236367 -0.0165868 232 22 0
0.694522 -0.236601 -0.01508 234 20 0
0.689895 -0.233969 -0.0143495 237 17 0
0.686789 -0.229336 -0.013912 239 15 0
0.684719 -0.224462 -0.0136961 242 12 0
0.684714 -0.218479 -0.0136458 244 10 0
0.686622 -0.213664 -0.013518 247 7 0
0.689282 -0.209409 -0.0135384 249 5 0
0.69368 -0.206801 -0.0139663 252 2 0
0.699073 -0.206379 -0.0146831 255 0 0
