ply
format ascii 1.0
comment Generated by robot_control PLYWriter
element vertex 48
property float x
property float y
property float z
property uchar red
property uchar green
property uchar blue
end_header
0.662234 0.185399 -0.139789 0 255 0
0.666426 0.18395 -0.138929 5 249 0
0.669676 0.179849 -0.137577 10 244 0
0.670266 0.174273 -0.136163 16 238 0
0.670163 0.168652 -0.134402 21 233 0
0.666656 0.164185 -0.132907 27 227 0
0.662388 0.160188 -0.132135 32 222 0
0.656763 0.159353 -0.13173 37 217 0
0.650825 0.159358 -0.131771 43 211 0
0.6456 0.161595 -0.132096 48 206 0
0.640696 0.16467 -0.1331 54 200 0
0.638336 0.168927 -0.134216 59 195 0
0.636792 0.174555 -0.135176 65 189 0
0.63813 0.180024 -0.136554 70 184 0
0.641761 0.184592 -0.13724 75 179 0
0.647481 0.185546 -0.137645 81 173 0
0.65337 0.18499 -0.137572 86 168 0
0.658897 0.183075 -0.13705 92 162 0
0.661339 0.177757 -0.136064 97 157 0
0.662627 0.17227 -0.134911 103 151 0
0.660538 0.166873 -0.133826 108 146 0
0.657607 0.161871 -0.133118 113 141 0
0.652326 0.159362 -0.132571 119 135 0
0.646398 0.159347 -0.132255 124 130 0
0.640461 0.159357 -0.132311 130 124 0
0.635406 0.161695 -0.132642 135 119 0
0.631571 0.16611 -0.133285 141 113 0
0.628353 0.170996 -0.134304 146 108 0
0.629141 0.176693 -0.135431 151 103 0
0.631914 0.181773 -0.136358 157 97 0
0.637053 0.184335 -0.137011 162 92 0
0.642933 0.1849 -0.13715 168 86 0
0.648632 0.183356 -0.136876 173 81 0
0.652221 0.178829 -0.136158 179 75 0
0.654738 0.173697 -0.134916 184 70 0
0.652766 0.168555 -0.133696 189 65 0
0.649511 0.163731 -0.132586 195 59 0
0.645954 0.15919 -0.13149 200 54 0
0.640415 0.157272 -0.131028 206 48 0
0.634482 0.157334 -0.130842 211 43 0
0.629198 0.159656 -0.131061 217 37 0
0.624297 0.162961 -0.131605 222 32 0
0.620808 0.167021 -0.132991 227 27 0
0.620063 0.172621 -0.134471 233 21 0
0.620162 0.178321 -0.136054 238 16 0
0.623032 0.181453 -0.13725 244 10 0
0.626949 0.184402 -0.137995 249 5 0
0.632757 0.184373 -0.138394 255 0 0
