ply
format ascii 1.0
comment Generated by robot_control PLYWriter
element vertex 12
property float x
property float y
property float z
property uchar red
property uchar green
property uchar blue
end_header
0.630507 -0.158413 -0.114373 0 255 0
0.632966 -0.163276 -0.114048 23 231 0
0.635267 -0.168349 -0.113434 46 208 0
0.634684 -0.173997 -0.112697 69 185 0
0.630728 -0.178103 -0.112097 92 162 0
0.625025 -0.178397 -0.111365 115 139 0
0.619363 -0.177634 -0.111071 139 115 0
0.616592 -0.173387 -0.111054 162 92 0
0.614108 -0.168252 -0.1113 185 69 0
0.616492 -0.163672 -0.111914 208 46 0
0.620097 -0.159918 -0.112657 231 23 0
0.624744 -0.158409 -0.113782 255 0 0
