ply
format ascii 1.0
comment Generated by robot_control PLYWriter
element vertex 32
property float x
property float y
property float z
property uchar red
property uchar green
property uchar blue
end_header
0.719736 0.0913332 -0.131813 0 255 0
0.724671 0.0885745 -0.131015 8 246 0
0.728216 0.0839746 -0.129977 16 238 0
0.731039 0.0790984 -0.128548 24 230 0
0.731712 0.0739252 -0.127043 32 222 0
0.730311 0.068784 -0.125559 41 213 0
0.727622 0.0640688 -0.124307 49 205 0
0.722321 0.0615333 -0.123429 57 197 0
0.716711 0.0614747 -0.122933 65 189 0
0.711383 0.0635002 -0.123108 74 180 0
0.707449 0.0677899 -0.124013 82 172 0
0.706631 0.0733447 -0.124924 90 164 0
0.707388 0.078922 -0.126145 98 156 0
0.71191 0.0826691 -0.127087 106 148 0
0.717171 0.0846793 -0.127763 115 139 0
0.72309 0.0850805 -0.128165 123 131 0
0.728542 0.0830957 -0.128165 131 123 0
0.733076 0.0794474 -0.127888 139 115 0
0.736386 0.0745567 -0.127304 148 106 0
0.738851 0.0692397 -0.12637 156 98 0
0.74007 0.0638649 -0.125244 164 90 0
0.737809 0.0584912 -0.124141 172 82 0
0.733887 0.054425 -0.123001 180 74 0
0.728532 0.0540338 -0.121905 189 65 0
0.723181 0.0531475 -0.121314 197 57 0
0.718213 0.0561807 -0.121199 205 49 0
0.714464 0.0603947 -0.121614 213 41 0
0.714598 0.0661541 -0.122857 222 32 0
0.716246 0.0713814 -0.124119 230 24 0
0.720379 0.0752581 -0.1257 238 16 0
0.724831 0.0776205 -0.127192 246 8 0
0.730255 0.0772812 -0.128351 255 0 0
