ply
format ascii 1.0
comment Generated by robot_control PLYWriter
element vertex 200
property float x
property float y
property float z
property uchar red
property uchar green
property uchar blue
end_header
0.700677 -0.210074 -0.138269 0 255 0
0.700677 -0.210074 -0.138269 1 253 0
0.700677 -0.210074 -0.138269 2 252 0
0.700677 -0.210074 -0.138269 3 251 0
0.700677 -0.210074 -0.138269 5 249 0
0.700677 -0.210074 -0.138269 6 248 0
0.700677 -0.210074 -0.138269 7 247 0
0.700677 -0.210074 -0.138269 8 246 0
0.700677 -0.210074 -0.138269 10 244 0
0.700677 -0.210074 -0.138269 11 243 0
0.700677 -0.210074 -0.138269 12 242 0
0.700677 -0.210074 -0.138269 14 240 0
0.700677 -0.210074 -0.138269 15 239 0
0.700677 -0.210074 -0.138269 16 238 0
0.700677 -0.210074 -0.138269 17 237 0
0.700677 -0.210074 -0.138269 19 235 0
0.700677 -0.210074 -0.138269 20 234 0
0.700677 -0.210074 -0.138269 21 233 0
0.700677 -0.210074 -0.138269 23 231 0
0.700677 -0.210074 -0.138269 24 230 0
0.700677 -0.210074 -0.138269 25 229 0
0.700677 -0.210074 -0.138269 26 228 0
0.700677 -0.210074 -0.138269 28 226 0
0.700677 -0.210074 -0.138269 29 225 0
0.700677 -0.210074 -0.138269 30 224 0
0.700677 -0.210074 -0.138269 32 222 0
0.700677 -0.210074 -0.138269 33 221 0
0.700677 -0.210074 -0.138269 34 220 0
0.700677 -0.210074 -0.138269 35 219 0
0.700677 -0.210074 -0.138269 37 217 0
0.700677 -0.210074 -0.138269 38 216 0
0.700677 -0.210074 -0.138269 39 215 0
0.700677 -0.210074 -0.138269 41 213 0
0.700677 -0.210074 -0.138269 42 212 0
0.700677 -0.210074 -0.138269 43 211 0
0.700677 -0.210074 -0.138269 44 210 0
0.700677 -0.210074 -0.138269 46 208 0
0.700677 -0.210074 -0.138269 47 207 0
0.700677 -0.210074 -0.138269 48 206 0
0.700677 -0.210074 -0.138269 49 205 0
0.700677 -0.210074 -0.138269 51 203 0
0.700677 -0.210074 -0.138269 52 202 0
0.700677 -0.210074 -0.138269 53 201 0
0.700677 -0.210074 -0.138269 55 199 0
0.700677 -0.210074 -0.138269 56 198 0
0.700677 -0.210074 -0.138269 57 197 0
0.700677 -0.210074 -0.138269 58 196 0
0.700677 -0.210074 -0.138269 60 194 0
0.700677 -0.210074 -0.138269 61 193 0
0.700677 -0.210074 -0.138269 62 192 0
0.700677 -0.210074 -0.138269 64 190 0
0.700677 -0.210074 -0.138269 65 189 0
0.700677 -0.210074 -0.138269 66 188 0
0.700677 -0.210074 -0.138269 67 187 0
0.700677 -0.210074 -0.138269 69 185 0
0.700677 -0.210074 -0.138269 70 184 0
0.700677 -0.210074 -0.138269 71 183 0
0.700677 -0.210074 -0.138269 73 181 0
0.700677 -0.210074 -0.138269 74 180 0
0.700677 -0.210074 -0.138269 75 179 0
0.700677 -0.210074 -0.138269 76 178 0
0.700677 -0.210074 -0.138269 78 176 0
0.700677 -0.210074 -0.138269 79 175 0
0.700677 -0.210074 -0.138269 80 174 0
0.700677 -0.210074 -0.138269 82 172 0
0.700677 -0.210074 -0.138269 83 171 0
0.700677 -0.210074 -0.138269 84 170 0
0.700677 -0.210074 -0.138269 85 169 0
0.700677 -0.210074 -0.138269 87 167 0
0.700677 -0.210074 -0.138269 88 166 0
0.700677 -0.210074 -0.138269 89 165 0
0.700677 -0.210074 -0.138269 90 164 0
0.700677 -0.210074 -0.138269 92 162 0
0.700677 -0.210074 -0.138269 93 161 0
0.700677 -0.210074 -0.138269 94 160 0
0.700677 -0.210074 -0.138269 96 158 0
0.700677 -0.210074 -0.138269 97 157 0
0.700677 -0.210074 -0.138269 98 156 0
0.700677 -0.210074 -0.138269 99 155 0
0.700677 -0.210074 -0.138269 101 153 0
0.700677 -0.210074 -0.138269 102 152 0
0.700677 -0.210074 -0.138269 103 151 0
0.700677 -0.210074 -0.138269 105 149 0
0.700677 -0.210074 -0.138269 106 148 0
0.700677 -0.210074 -0.138269 107 147 0
0.700677 -0.210074 -0.138269 108 146 0
0.700677 -0.210074 -0.138269 110 144 0
0.700677 -0.210074 -0.138269 111 143 0
0.700677 -0.210074 -0.138269 112 142 0
0.700677 -0.210074 -0.138269 114 140 0
0.700677 -0.210074 -0.138269 115 139 0
0.700677 -0.210074 -0.138269 116 138 0
0.700677 -0.210074 -0.138269 117 137 0
0.700677 -0.210074 -0.138269 119 135 0
0.700677 -0.210074 -0.138269 120 134 0
0.700677 -0.210074 -0.138269 121 133 0
0.700677 -0.210074 -0.138269 123 131 0
0.700677 -0.210074 -0.138269 124 130 0
0.700677 -0.210074 -0.138269 125 129 0
0.700677 -0.210074 -0.138269 126 128 0
0.700677 -0.210074 -0.138269 128 126 0
0.700677 -0.210074 -0.138269 129 125 0
0.700677 -0.210074 -0.138269 130 124 0
0.700677 -0.210074 -0.138269 131 123 0
0.700677 -0.210074 -0.138269 133 121 0
0.700677 -0.210074 -0.138269 134 120 0
0.700677 -0.210074 -0.138269 135 119 0
0.700677 -0.210074 -0.138269 137 117 0
0.700677 -0.210074 -0.138269 138 116 0
0.700677 -0.210074 -0.138269 139 115 0
0.700677 -0.210074 -0.138269 140 114 0
0.700677 -0.210074 -0.138269 142 112 0
0.700677 -0.210074 -0.138269 143 111 0
0.700677 -0.210074 -0.138269 144 110 0
0.700677 -0.210074 -0.138269 146 108 0
0.700677 -0.210074 -0.138269 147 107 0
0.700677 -0.210074 -0.138269 148 106 0
0.700677 -0.210074 -0.138269 149 105 0
0.700677 -0.210074 -0.138269 151 103 0
0.700677 -0.210074 -0.138269 152 102 0
0.700677 -0.210074 -0.138269 153 101 0
0.700677 -0.210074 -0.138269 155 99 0
0.700677 -0.210074 -0.138269 156 98 0
0.700677 -0.210074 -0.138269 157 97 0
0.700677 -0.210074 -0.138269 158 96 0
0.700677 -0.210074 -0.138269 160 94 0
0.700677 -0.210074 -0.138269 161 93 0
0.700677 -0.210074 -0.138269 162 92 0
0.700677 -0.210074 -0.138269 164 90 0
0.700677 -0.210074 -0.138269 165 89 0
0.700677 -0.210074 -0.138269 166 88 0
0.700677 -0.210074 -0.138269 167 87 0
0.700677 -0.210074 -0.138269 169 85 0
0.700677 -0.210074 -0.138269 170 84 0
0.700677 -0.210074 -0.138269 171 83 0
0.700677 -0.210074 -0.138269 172 82 0
0.700677 -0.210074 -0.138269 174 80 0
0.700677 -0.210074 -0.138269 175 79 0
0.700677 -0.210074 -0.138269 176 78 0
0.700677 -0.210074 -0.138269 178 76 0
0.700677 -0.210074 -0.138269 179 75 0
0.700677 -0.210074 -0.138269 180 74 0
0.700677 -0.210074 -0.138269 181 73 0
0.700677 -0.210074 -0.138269 183 71 0
0.700677 -0.210074 -0.138269 184 70 0
0.700677 -0.210074 -0.138269 185 69 0
0.700677 -0.210074 -0.138269 187 67 0
0.700677 -0.210074 -0.138269 188 66 0
0.700677 -0.210074 -0.138269 189 65 0
0.700677 -0.210074 -0.138269 190 64 0
0.700677 -0.210074 -0.138269 192 62 0
0.700677 -0.210074 -0.138269 193 61 0
0.700677 -0.210074 -0.138269 194 60 0
0.700677 -0.210074 -0.138269 196 58 0
0.700677 -0.210074 -0.138269 197 57 0
0.700677 -0.210074 -0.138269 198 56 0
0.700677 -0.210074 -0.138269 199 55 0
0.700677 -0.210074 -0.138269 201 53 0
0.700677 -0.210074 -0.138269 202 52 0
0.700677 -0.210074 -0.138269 203 51 0
0.700677 -0.210074 -0.138269 205 49 0
0.700677 -0.210074 -0.138269 206 48 0
0.700677 -0.210074 -0.138269 207 47 0
0.700677 -0.210074 -0.138269 208 46 0
0.700677 -0.210074 -0.138269 210 44 0
0.700677 -0.210074 -0.138269 211 43 0
0.700677 -0.210074 -0.138269 212 42 0
0.700677 -0.210074 -0.138269 213 41 0
0.700677 -0.210074 -0.138269 215 39 0
0.700677 -0.210074 -0.138269 216 38 0
0.700677 -0.210074 -0.138269 217 37 0
0.700677 -0.210074 -0.138269 219 35 0
0.700677 -0.210074 -0.138269 220 34 0
0.700677 -0.210074 -0.138269 221 33 0
0.700677 -0.210074 -0.138269 222 32 0
0.700677 -0.210074 -0.138269 224 30 0
0.700677 -0.210074 -0.138269 225 29 0
0.700677 -0.210074 -0.138269 226 28 0
0.700677 -0.210074 -0.138269 228 26 0
0.700677 -0.210074 -0.138269 229 25 0
0.700677 -0.210074 -0.138269 230 24 0
0.700677 -0.210074 -0.138269 231 23 0
0.700677 -0.210074 -0.138269 233 21 0
0.700677 -0.210074 -0.138269 234 20 0
0.700677 -0.210074 -0.138269 235 19 0
0.700677 -0.210074 -0.138269 237 17 0
0.700677 -0.210074 -0.138269 238 16 0
0.700677 -0.210074 -0.138269 239 15 0
0.700677 -0.210074 -0.138269 240 14 0
0.700677 -0.210074 -0.138269 242 12 0
0.700677 -0.210074 -0.138269 243 11 0
0.700677 -0.210074 -0.138269 244 10 0
0.700677 -0.210074 -0.138269 246 8 0
0.700677 -0.210074 -0.138269 247 7 0
0.700677 -0.210074 -0.138269 248 6 0
0.700677 -0.210074 -0.138269 249 5 0
0.700677 -0.210074 -0.138269 251 3 0
0.700677 -0.210074 -0.138269 252 2 0
0.700677 -0.210074 -0.138269 253 1 0
0.700677 -0.210074 -0.138269 255 0 0
