ply
format ascii 1.0
comment Generated by robot_control PLYWriter
element vertex 8
property float x
property float y
property float z
property uchar red
property uchar green
property uchar blue
end_header
0.597921 -0.07713 -0.0886135 0 255 0
0.598148 -0.0719949 -0.0896 36 218 0
0.59848 -0.0668376 -0.0904285 72 182 0
0.598499 -0.0616874 -0.0913618 109 145 0
0.598513 -0.0565356 -0.0922859 145 109 0
0.598528 -0.0513702 -0.0931314 182 72 0
0.598551 -0.0462084 -0.0939981 218 36 0
0.598569 -0.0410521 -0.0948974 255 0 0
