ply
format ascii 1.0
comment Generated by robot_control PLYWriter
element vertex 57
property float x
property float y
property float z
property uchar red
property uchar green
property uchar blue
end_header
0.676656 0.153258 -0.11486 0 255 0
0.68091 0.151453 -0.114166 4 250 0
0.684873 0.14726 -0.113489 9 245 0
0.687965 0.142318 -0.11269 13 241 0
0.688348 0.136467 -0.111953 18 236 0
0.68712 0.130702 -0.111434 22 232 0
0.683728 0.125904 -0.111176 27 227 0
0.678505 0.12427 -0.111276 31 223 0
0.673632 0.121833 -0.111532 36 218 0
0.667763 0.122629 -0.111981 40 214 0
0.6625 0.125299 -0.112515 45 209 0
0.658611 0.129831 -0.113055 50 204 0
0.655695 0.134993 -0.113808 54 200 0
0.654714 0.140754 -0.114496 59 195 0
0.654825 0.146728 -0.114995 63 191 0
0.656896 0.152141 -0.115335 68 186 0
0.661134 0.156183 -0.115525 72 182 0
0.666086 0.159562 -0.115586 77 177 0
0.671485 0.161585 -0.115547 81 173 0
0.677336 0.16082 -0.115347 86 168 0
0.682778 0.158378 -0.115 91 163 0
0.68799 0.155461 -0.114501 95 159 0
0.690406 0.150217 -0.11398 100 154 0
0.690142 0.144244 -0.113557 104 150 0
0.690219 0.1385 -0.113247 109 145 0
0.686261 0.134013 -0.11307 113 141 0
0.681262 0.131146 -0.113033 118 136 0
0.675267 0.131078 -0.113146 122 132 0
0.669375 0.131534 -0.113397 127 127 0
0.663995 0.133991 -0.1138 132 122 0
0.660594 0.138832 -0.114492 136 118 0
0.658139 0.144255 -0.115179 141 113 0
0.65651 0.149785 -0.115863 145 109 0
0.657116 0.155696 -0.116332 150 104 0
0.658942 0.161309 -0.116662 154 100 0
0.662859 0.165786 -0.116879 159 95 0
0.668406 0.168049 -0.116998 163 91 0
0.674321 0.169034 -0.116993 168 86 0
0.680204 0.168633 -0.116788 173 81 0
0.685567 0.166096 -0.11646 177 77 0
0.690183 0.162309 -0.115981 182 72 0
0.692821 0.157503 -0.115321 186 68 0
0.692705 0.151562 -0.114518 191 63 0
0.692 0.145991 -0.113985 195 59 0
0.686874 0.143013 -0.113646 200 54 0
0.681824 0.139865 -0.113556 204 50 0
0.676043 0.139581 -0.113711 209 45 0
0.670438 0.140806 -0.114083 214 40 0
0.664915 0.142981 -0.114586 218 36 0
0.661128 0.147391 -0.115279 223 31 0
0.658916 0.152845 -0.116184 227 27 0
0.658252 0.158569 -0.117227 232 22 0
0.659066 0.164222 -0.118408 236 18 0
0.662601 0.168888 -0.119302 241 13 0
0.666224 0.173066 -0.120194 245 9 0
0.671044 0.176042 -0.120685 250 4 0
0.676553 0.17722 -0.120595 255 0 0
