ply
format ascii 1.0
comment Generated by robot_control PLYWriter
element vertex 9
property float x
property float y
property float z
property uchar red
property uchar green
property uchar blue
end_header
0.60816 -0.0292784 -0.125475 0 255 0
0.608114 -0.0340577 -0.125521 31 223 0
0.608532 -0.0388085 -0.125803 63 191 0
0.60896 -0.0435599 -0.126109 95 159 0
0.60937 -0.048312 -0.126427 127 127 0
0.609812 -0.0530585 -0.126782 159 95 0
0.610272 -0.0578007 -0.127171 191 63 0
0.610618 -0.0625523 -0.127526 223 31 0
0.610598 -0.0673291 -0.127709 255 0 0
