ply
format ascii 1.0
comment Generated by robot_control PLYWriter
element vertex 14
property float x
property float y
property float z
property uchar red
property uchar green
property uchar blue
end_header
0.632727 -0.205865 -0.0405877 0 255 0
0.632711 -0.201224 -0.0419933 19 235 0
0.63268 -0.196471 -0.0429675 39 215 0
0.632684 -0.191695 -0.0438323 58 196 0
0.632829 -0.186915 -0.0446486 78 176 0
0.633019 -0.182106 -0.0452618 98 156 0
0.633201 -0.17727 -0.0455891 117 137 0
0.633413 -0.172425 -0.0455902 137 117 0
0.633638 -0.167584 -0.0453441 156 98 0
0.633835 -0.162746 -0.0450035 176 78 0
0.634038 -0.157912 -0.0446289 196 58 0
0.634272 -0.153082 -0.0442189 215 39 0
0.634663 -0.148283 -0.0436226 235 19 0
0.634621 -0.143459 -0.0430952 255 0 0
