ply
format ascii 1.0
comment Generated by robot_control PLYWriter
element vertex 10
property float x
property float y
property float z
property uchar red
property uchar green
property uchar blue
end_header
0.574738 -0.0258255 -0.0334681 0 255 0
0.574732 -0.0310663 -0.0335131 28 226 0
0.574731 -0.0363074 -0.0335002 56 198 0
0.574731 -0.0415486 -0.0334756 85 169 0
0.57473 -0.0467894 -0.0335127 113 141 0
0.574728 -0.0520301 -0.0335854 141 113 0
0.574731 -0.0572705 -0.0335461 170 84 0
0.574737 -0.0625085 -0.0333705 198 56 0
0.574744 -0.0677467 -0.0332026 226 28 0
0.574752 -0.072984 -0.0330226 255 0 0
