ply
format ascii 1.0
comment Generated by robot_control PLYWriter
element vertex 21
property float x
property float y
property float z
property uchar red
property uchar green
property uchar blue
end_header
0.598676 -0.310299 -0.11258 0 255 0
0.598772 -0.305562 -0.114223 12 242 0
0.598766 -0.300909 -0.116095 25 229 0
0.598953 -0.296308 -0.118091 38 216 0
0.599105 -0.291673 -0.120012 51 204 0
0.599191 -0.287022 -0.121899 63 191 0
0.599327 -0.282356 -0.123743 76 178 0
0.599484 -0.277686 -0.125578 89 165 0
0.599529 -0.272992 -0.127354 102 153 0
0.599677 -0.268293 -0.129113 114 140 0
0.599745 -0.263564 -0.130792 127 127 0
0.599859 -0.258793 -0.132346 140 114 0
0.600028 -0.253969 -0.133718 153 101 0
0.600124 -0.24908 -0.134842 165 89 0
0.600152 -0.244135 -0.135689 178 76 0
0.60013 -0.239149 -0.13625 191 63 0
0.600109 -0.234139 -0.136528 204 50 0
0.600104 -0.229121 -0.136584 216 38 0
0.600109 -0.224105 -0.136706 229 25 0
0.6001 -0.219087 -0.136679 242 12 0
0.60011 -0.214088 -0.136236 255 0 0
