ply
format ascii 1.0
comment Generated by robot_control PLYWriter
element vertex 200
property float x
property float y
property float z
property uchar red
property uchar green
property uchar blue
end_header
0.610766 -0.0768562 -0.119815 0 255 0
0.610766 -0.0768562 -0.119815 1 253 0
0.610766 -0.0768562 -0.119815 2 252 0
0.610766 -0.0768562 -0.119815 3 251 0
0.610766 -0.0768562 -0.119815 5 249 0
0.610766 -0.0768562 -0.119815 6 248 0
0.610766 -0.0768562 -0.119815 7 247 0
0.610766 -0.0768562 -0.119815 8 246 0
0.610766 -0.0768562 -0.119815 10 244 0
0.610766 -0.0768562 -0.119815 11 243 0
0.610766 -0.0768562 -0.119815 12 242 0
0.610766 -0.0768562 -0.119815 14 240 0
0.610766 -0.0768562 -0.119815 15 239 0
0.610766 -0.0768562 -0.119815 16 238 0
0.610766 -0.0768562 -0.119815 17 237 0
0.610766 -0.0768562 -0.119815 19 235 0
0.610766 -0.0768562 -0.119815 20 234 0
0.610766 -0.0768562 -0.119815 21 233 0
0.610766 -0.0768562 -0.119815 23 231 0
0.610766 -0.0768562 -0.119815 24 230 0
0.610766 -0.0768562 -0.119815 25 229 0
0.610766 -0.0768562 -0.119815 26 228 0
0.610766 -0.0768562 -0.119815 28 226 0
0.610766 -0.0768562 -0.119815 29 225 0
0.610766 -0.0768562 -0.119815 30 224 0
0.610766 -0.0768562 -0.119815 32 222 0
0.610766 -0.0768562 -0.119815 33 221 0
0.610766 -0.0768562 -0.119815 34 220 0
0.610766 -0.0768562 -0.119815 35 219 0
0.610766 -0.0768562 -0.119815 37 217 0
0.610766 -0.0768562 -0.119815 38 216 0
0.610766 -0.0768562 -0.119815 39 215 0
0.610766 -0.0768562 -0.119815 41 213 0
0.610766 -0.0768562 -0.119815 42 212 0
0.610766 -0.0768562 -0.119815 43 211 0
0.610766 -0.0768562 -0.119815 44 210 0
0.610766 -0.0768562 -0.119815 46 208 0
0.610766 -0.0768562 -0.119815 47 207 0
0.610766 -0.0768562 -0.119815 48 206 0
0.610766 -0.0768562 -0.119815 49 205 0
0.610766 -0.0768562 -0.119815 51 203 0
0.610766 -0.0768562 -0.119815 52 202 0
0.610766 -0.0768562 -0.119815 53 201 0
0.610766 -0.0768562 -0.119815 55 199 0
0.610766 -0.0768562 -0.119815 56 198 0
0.610766 -0.0768562 -0.119815 57 197 0
0.610766 -0.0768562 -0.119815 58 196 0
0.610766 -0.0768562 -0.119815 60 194 0
0.610766 -0.0768562 -0.119815 61 193 0
0.610766 -0.0768562 -0.119815 62 192 0
0.610766 -0.0768562 -0.119815 64 190 0
0.610766 -0.0768562 -0.119815 65 189 0
0.610766 -0.0768562 -0.119815 66 188 0
0.610766 -0.0768562 -0.119815 67 187 0
0.610766 -0.0768562 -0.119815 69 185 0
0.610766 -0.0768562 -0.119815 70 184 0
0.610766 -0.0768562 -0.119815 71 183 0
0.610766 -0.0768562 -0.119815 73 181 0
0.610766 -0.0768562 -0.119815 74 180 0
0.610766 -0.0768562 -0.119815 75 179 0
0.610766 -0.0768562 -0.119815 76 178 0
0.610766 -0.0768562 -0.119815 78 176 0
0.610766 -0.0768562 -0.119815 79 175 0
0.610766 -0.0768562 -0.119815 80 174 0
0.610766 -0.0768562 -0.119815 82 172 0
0.610766 -0.0768562 -0.119815 83 171 0
0.610766 -0.0768562 -0.119815 84 170 0
0.610766 -0.0768562 -0.119815 85 169 0
0.610766 -0.0768562 -0.119815 87 167 0
0.610766 -0.0768562 -0.119815 88 166 0
0.610766 -0.0768562 -0.119815 89 165 0
0.610766 -0.0768562 -0.119815 90 164 0
0.610766 -0.0768562 -0.119815 92 162 0
0.610766 -0.0768562 -0.119815 93 161 0
0.610766 -0.0768562 -0.119815 94 160 0
0.610766 -0.0768562 -0.119815 96 158 0
0.610766 -0.0768562 -0.119815 97 157 0
0.610766 -0.0768562 -0.119815 98 156 0
0.610766 -0.0768562 -0.119815 99 155 0
0.610766 -0.0768562 -0.119815 101 153 0
0.610766 -0.0768562 -0.119815 102 152 0
0.610766 -0.0768562 -0.119815 103 151 0
0.610766 -0.0768562 -0.119815 105 149 0
0.610766 -0.0768562 -0.119815 106 148 0
0.610766 -0.0768562 -0.119815 107 147 0
0.610766 -0.0768562 -0.119815 108 146 0
0.610766 -0.0768562 -0.119815 110 144 0
0.610766 -0.0768562 -0.119815 111 143 0
0.610766 -0.0768562 -0.119815 112 142 0
0.610766 -0.0768562 -0.119815 114 140 0
0.610766 -0.0768562 -0.119815 115 139 0
0.610766 -0.0768562 -0.119815 116 138 0
0.610766 -0.0768562 -0.119815 117 137 0
0.610766 -0.0768562 -0.119815 119 135 0
0.610766 -0.0768562 -0.119815 120 134 0
0.610766 -0.0768562 -0.119815 121 133 0
0.610766 -0.0768562 -0.119815 123 131 0
0.610766 -0.0768562 -0.119815 124 130 0
0.610766 -0.0768562 -0.119815 125 129 0
0.610766 -0.0768562 -0.119815 126 128 0
0.610766 -0.0768562 -0.119815 128 126 0
0.610766 -0.0768562 -0.119815 129 125 0
0.610766 -0.0768562 -0.119815 130 124 0
0.610766 -0.0768562 -0.119815 131 123 0
0.610766 -0.0768562 -0.119815 133 121 0
0.610766 -0.0768562 -0.119815 134 120 0
0.610766 -0.0768562 -0.119815 135 119 0
0.610766 -0.0768562 -0.119815 137 117 0
0.610766 -0.0768562 -0.119815 138 116 0
0.610766 -0.0768562 -0.119815 139 115 0
0.610766 -0.0768562 -0.119815 140 114 0
0.610766 -0.0768562 -0.119815 142 112 0
0.610766 -0.0768562 -0.119815 143 111 0
0.610766 -0.0768562 -0.119815 144 110 0
0.610766 -0.0768562 -0.119815 146 108 0
0.610766 -0.0768562 -0.119815 147 107 0
0.610766 -0.0768562 -0.119815 148 106 0
0.610766 -0.0768562 -0.119815 149 105 0
0.610766 -0.0768562 -0.119815 151 103 0
0.610766 -0.0768562 -0.119815 152 102 0
0.610766 -0.0768562 -0.119815 153 101 0
0.610766 -0.0768562 -0.119815 155 99 0
0.610766 -0.0768562 -0.119815 156 98 0
0.610766 -0.0768562 -0.119815 157 97 0
0.610766 -0.0768562 -0.119815 158 96 0
0.610766 -0.0768562 -0.119815 160 94 0
0.610766 -0.0768562 -0.119815 161 93 0
0.610766 -0.0768562 -0.119815 162 92 0
0.610766 -0.0768562 -0.119815 164 90 0
0.610766 -0.0768562 -0.119815 165 89 0
0.610766 -0.0768562 -0.119815 166 88 0
0.610766 -0.0768562 -0.119815 167 87 0
0.610766 -0.0768562 -0.119815 169 85 0
0.610766 -0.0768562 -0.119815 170 84 0
0.610766 -0.0768562 -0.119815 171 83 0
0.610766 -0.0768562 -0.119815 172 82 0
0.610766 -0.0768562 -0.119815 174 80 0
0.610766 -0.0768562 -0.119815 175 79 0
0.610766 -0.0768562 -0.119815 176 78 0
0.610766 -0.0768562 -0.119815 178 76 0
0.610766 -0.0768562 -0.119815 179 75 0
0.610766 -0.0768562 -0.119815 180 74 0
0.610766 -0.0768562 -0.119815 181 73 0
0.610766 -0.0768562 -0.119815 183 71 0
0.610766 -0.0768562 -0.119815 184 70 0
0.610766 -0.0768562 -0.119815 185 69 0
0.610766 -0.0768562 -0.119815 187 67 0
0.610766 -0.0768562 -0.119815 188 66 0
0.610766 -0.0768562 -0.119815 189 65 0
0.610766 -0.0768562 -0.119815 190 64 0
0.610766 -0.0768562 -0.119815 192 62 0
0.610766 -0.0768562 -0.119815 193 61 0
0.610766 -0.0768562 -0.119815 194 60 0
0.610766 -0.0768562 -0.119815 196 58 0
0.610766 -0.0768562 -0.119815 197 57 0
0.610766 -0.0768562 -0.119815 198 56 0
0.610766 -0.0768562 -0.119815 199 55 0
0.610766 -0.0768562 -0.119815 201 53 0
0.610766 -0.0768562 -0.119815 202 52 0
0.610766 -0.0768562 -0.119815 203 51 0
0.610766 -0.0768562 -0.119815 205 49 0
0.610766 -0.0768562 -0.119815 206 48 0
0.610766 -0.0768562 -0.119815 207 47 0
0.610766 -0.0768562 -0.119815 208 46 0
0.610766 -0.0768562 -0.119815 210 44 0
0.610766 -0.0768562 -0.119815 211 43 0
0.610766 -0.0768562 -0.119815 212 42 0
0.610766 -0.0768562 -0.119815 213 41 0
0.610766 -0.0768562 -0.119815 215 39 0
0.610766 -0.0768562 -0.119815 216 38 0
0.610766 -0.0768562 -0.119815 217 37 0
0.610766 -0.0768562 -0.119815 219 35 0
0.610766 -0.0768562 -0.119815 220 34 0
0.610766 -0.0768562 -0.119815 221 33 0
0.610766 -0.0768562 -0.119815 222 32 0
0.610766 -0.0768562 -0.119815 224 30 0
0.610766 -0.0768562 -0.119815 225 29 0
0.610766 -0.0768562 -0.119815 226 28 0
0.610766 -0.0768562 -0.119815 228 26 0
0.610766 -0.0768562 -0.119815 229 25 0
0.610766 -0.0768562 -0.119815 230 24 0
0.610766 -0.0768562 -0.119815 231 23 0
0.610766 -0.0768562 -0.119815 233 21 0
0.610766 -0.0768562 -0.119815 234 20 0
0.610766 -0.0768562 -0.119815 235 19 0
0.610766 -0.0768562 -0.119815 237 17 0
0.610766 -0.0768562 -0.119815 238 16 0
0.610766 -0.0768562 -0.119815 239 15 0
0.610766 -0.0768562 -0.119815 240 14 0
0.610766 -0.0768562 -0.119815 242 12 0
0.610766 -0.0768562 -0.119815 243 11 0
0.610766 -0.0768562 -0.119815 244 10 0
0.610766 -0.0768562 -0.119815 246 8 0
0.610766 -0.0768562 -0.119815 247 7 0
0.610766 -0.0768562 -0.119815 248 6 0
0.610766 -0.0768562 -0.119815 249 5 0
0.610766 -0.0768562 -0.119815 251 3 0
0.610766 -0.0768562 -0.119815 252 2 0
0.610766 -0.0768562 -0.119815 253 1 0
0.610766 -0.0768562 -0.119815 255 0 0
