ply
format ascii 1.0
comment Generated by robot_control PLYWriter
element vertex 47
property float x
property float y
property float z
property uchar red
property uchar green
property uchar blue
end_header
0.625201 0.176176 -0.147029 0 255 0
0.630161 0.173816 -0.146287 5 249 0
0.63445 0.170541 -0.14489 11 243 0
0.636927 0.165519 -0.142976 16 238 0
0.637206 0.159923 -0.141084 22 232 0
0.635796 0.154841 -0.138842 27 227 0
0.631928 0.150501 -0.137497 33 221 0
0.626894 0.148029 -0.136645 38 216 0
0.620933 0.148093 -0.136442 44 210 0
0.615889 0.150765 -0.13695 49 205 0
0.611784 0.154702 -0.138148 55 199 0
0.610369 0.15996 -0.139643 60 194 0
0.613498 0.164936 -0.140715 66 188 0
0.617621 0.168966 -0.141732 72 182 0
0.623314 0.170287 -0.142407 77 177 0
0.629177 0.17002 -0.142413 83 171 0
0.634642 0.167719 -0.141997 88 166 0
0.639357 0.164174 -0.141259 94 160 0
0.643104 0.159668 -0.140264 99 155 0
0.643626 0.154114 -0.138843 105 149 0
0.642724 0.14833 -0.13766 110 144 0
0.64052 0.144002 -0.136343 116 138 0
0.635268 0.141367 -0.135543 121 133 0
0.629736 0.139533 -0.134973 127 127 0
0.624465 0.142212 -0.135056 133 121 0
0.620884 0.146928 -0.135814 138 116 0
0.618448 0.1522 -0.136901 144 110 0
0.619401 0.157823 -0.138255 149 105 0
0.623143 0.16224 -0.139265 155 99 0
0.628526 0.163517 -0.140023 160 94 0
0.634385 0.164615 -0.140319 166 88 0
0.640016 0.162792 -0.140262 171 83 0
0.645064 0.160073 -0.139796 177 77 0
0.648554 0.155292 -0.138995 182 72 0
0.651546 0.15031 -0.137746 188 66 0
0.651745 0.144688 -0.136112 194 60 0
0.649307 0.139856 -0.134329 199 55 0
0.645364 0.135932 -0.132601 205 49 0
0.640361 0.133016 -0.131521 210 44 0
0.634565 0.133907 -0.131236 216 38 0
0.629446 0.136359 -0.131564 221 33 0
0.626604 0.141285 -0.13261 227 27 0
0.626768 0.146955 -0.134481 232 22 0
0.62849 0.150954 -0.136179 238 16 0
0.632413 0.154227 -0.137633 243 11 0
0.63698 0.156269 -0.138915 249 5 0
0.642119 0.156687 -0.140035 255 0 0
