ply
format ascii 1.0
comment Generated by robot_control PLYWriter
element vertex 29
property float x
property float y
property float z
property uchar red
property uchar green
property uchar blue
end_header
0.640297 0.170945 -0.144422 0 255 0
0.644097 0.166745 -0.143544 9 245 0
0.646669 0.162231 -0.141829 18 236 0
0.647138 0.157072 -0.139611 27 227 0
0.645241 0.151858 -0.137783 36 218 0
0.641678 0.147951 -0.136085 45 209 0
0.636304 0.146162 -0.134984 54 200 0
0.630383 0.14592 -0.134352 63 191 0
0.62459 0.147198 -0.134342 72 182 0
0.619462 0.150158 -0.134766 81 173 0
0.616285 0.154841 -0.135721 91 163 0
0.615155 0.160583 -0.136602 100 154 0
0.617243 0.16573 -0.13785 109 145 0
0.622588 0.168281 -0.138539 118 136 0
0.627263 0.167157 -0.138818 127 127 0
0.632727 0.164755 -0.138358 136 118 0
0.635096 0.160184 -0.137558 145 109 0
0.636536 0.154765 -0.136325 154 100 0
0.633829 0.149629 -0.134953 163 91 0
0.630069 0.14536 -0.133309 173 81 0
0.624768 0.142978 -0.132282 182 72 0
0.618832 0.142875 -0.131726 191 63 0
0.613113 0.144577 -0.131614 200 54 0
0.608414 0.147972 -0.132053 209 45 0
0.605016 0.152077 -0.132963 218 36 0
0.605039 0.157742 -0.134752 227 27 0
0.606578 0.163167 -0.136242 236 18 0
0.610044 0.166248 -0.137817 245 9 0
0.615233 0.165653 -0.138801 255 0 0
