ply
format ascii 1.0
comment Generated by robot_control PLYWriter
element vertex 72
property float x
property float y
property float z
property uchar red
property uchar green
property uchar blue
end_header
0.711748 -0.330176 -0.0230505 0 255 0
0.715582 -0.332298 -0.0227809 3 251 0
0.719791 -0.335794 -0.0226831 7 247 0
0.720521 -0.341653 -0.0226495 10 244 0
0.718186 -0.346699 -0.0223957 14 240 0
0.714662 -0.350257 -0.0218981 17 237 0
0.709296 -0.350624 -0.0214824 21 233 0
0.703613 -0.350487 -0.0209866 25 229 0
0.698837 -0.346927 -0.0208169 28 226 0
0.696047 -0.341833 -0.0208574 32 222 0
0.694816 -0.336025 -0.0212182 35 219 0
0.694911 -0.330053 -0.0215906 39 215 0
0.697897 -0.325126 -0.0217591 43 211 0
0.702303 -0.321101 -0.0218132 46 208 0
0.707851 -0.320249 -0.021857 50 204 0
0.713152 -0.319754 -0.0219429 53 201 0
0.717666 -0.323563 -0.0220509 57 197 0
0.719349 -0.329014 -0.0220654 61 193 0
0.719183 -0.333963 -0.0220557 64 190 0
0.715549 -0.338712 -0.0221327 68 186 0
0.710454 -0.340699 -0.0221901 71 183 0
0.704471 -0.340386 -0.0222261 75 179 0
0.699518 -0.337564 -0.0223548 79 175 0
0.695939 -0.332797 -0.022417 82 172 0
0.694276 -0.327117 -0.0223831 86 168 0
0.694404 -0.321134 -0.0222732 89 165 0
0.697118 -0.315884 -0.0220805 93 161 0
0.701523 -0.311844 -0.0218609 96 158 0
0.706672 -0.30905 -0.0217317 100 154 0
0.712528 -0.310153 -0.0216591 104 150 0
0.717397 -0.312828 -0.0216004 107 147 0
0.719246 -0.318157 -0.0215502 111 143 0
0.719198 -0.32351 -0.0215492 114 140 0
0.715458 -0.3281 -0.0216568 118 136 0
0.710212 -0.33043 -0.021958 122 132 0
0.704284 -0.330351 -0.0223982 125 129 0
0.698951 -0.327656 -0.0228078 129 125 0
0.695389 -0.323293 -0.0229856 132 122 0
0.693169 -0.317728 -0.0229374 136 118 0
0.692863 -0.3119 -0.0226317 140 114 0
0.695093 -0.306382 -0.0223309 143 111 0
0.699302 -0.302134 -0.0219678 147 107 0
0.704616 -0.300264 -0.0216487 150 104 0
0.710586 -0.300287 -0.0212438 154 100 0
0.716026 -0.302395 -0.0208548 158 96 0
0.719222 -0.307379 -0.0207017 161 93 0
0.719263 -0.312965 -0.0208051 165 89 0
0.71569 -0.317686 -0.0212173 168 86 0
0.710503 -0.320513 -0.0217873 172 82 0
0.704557 -0.320494 -0.0224044 175 79 0
0.69901 -0.318497 -0.022799 179 75 0
0.696218 -0.313199 -0.022924 183 71 0
0.693357 -0.307942 -0.022801 186 68 0
0.692875 -0.302152 -0.0223929 190 64 0
0.695546 -0.29681 -0.0219069 193 61 0
0.69922 -0.292278 -0.0213248 197 57 0
0.704195 -0.289091 -0.0208112 201 53 0
0.709715 -0.288953 -0.0203023 204 50 0
0.71451 -0.292381 -0.0198925 208 46 0
0.718076 -0.297005 -0.0198279 211 43 0
0.718466 -0.302939 -0.020177 215 39 0
0.715377 -0.307782 -0.0208556 219 35 0
0.710615 -0.310116 -0.0215585 222 32 0
0.704703 -0.310521 -0.0223238 226 28 0
0.699991 -0.308157 -0.0229606 229 25 0
0.695416 -0.305166 -0.0231454 233 21 0
0.693748 -0.299811 -0.0229133 237 17 0
0.693079 -0.294503 -0.0221491 240 14 0
0.692935 -0.28861 -0.0210728 244 10 0
0.695905 -0.285253 -0.0197823 247 7 0
0.699707 -0.281471 -0.0185756 251 3 0
0.70482 -0.280415 -0.0179539 255 0 0
