ply
format ascii 1.0
comment Generated by robot_control PLYWriter
element vertex 44
property float x
property float y
property float z
property uchar red
property uchar green
property uchar blue
end_header
0.596877 0.202459 -0.152488 0 255 0
0.602208 0.20328 -0.152761 5 249 0
0.605683 0.198865 -0.15169 11 243 0
0.609515 0.197214 -0.150234 17 237 0
0.611177 0.191889 -0.148407 23 231 0
0.612124 0.186545 -0.146343 29 225 0
0.610401 0.181274 -0.144439 35 219 0
0.606858 0.1777 -0.143064 41 213 0
0.601623 0.175721 -0.142259 47 207 0
0.595974 0.177443 -0.142238 53 201 0
0.591515 0.180894 -0.143064 59 195 0
0.588369 0.185624 -0.144281 65 189 0
0.589748 0.191024 -0.145682 71 183 0
0.59305 0.1957 -0.146839 77 177 0
0.598887 0.196523 -0.147746 83 171 0
0.604831 0.197206 -0.148114 88 166 0
0.61025 0.194806 -0.147895 94 160 0
0.615482 0.192271 -0.147278 100 154 0
0.618517 0.187419 -0.146468 106 148 0
0.618857 0.181582 -0.14514 112 142 0
0.617801 0.175824 -0.143968 118 136 0
0.61358 0.172573 -0.142872 124 130 0
0.60842 0.170256 -0.141907 130 124 0
0.602698 0.171926 -0.141634 136 118 0
0.597876 0.174956 -0.142016 142 112 0
0.596846 0.180715 -0.142836 148 106 0
0.598013 0.186277 -0.144301 154 100 0
0.602643 0.189547 -0.145251 160 94 0
0.607333 0.191715 -0.146038 166 88 0
0.61319 0.190739 -0.146385 171 83 0
0.618736 0.188741 -0.146351 177 77 0
0.622852 0.184462 -0.145889 183 71 0
0.625809 0.179288 -0.145056 189 65 0
0.626513 0.174079 -0.143668 195 59 0
0.624221 0.169097 -0.141995 201 53 0
0.619437 0.165863 -0.140763 207 47 0
0.61358 0.165912 -0.139767 213 41 0
0.608018 0.166449 -0.139624 219 35 0
0.605242 0.171532 -0.140345 225 29 0
0.602658 0.176082 -0.141378 231 23 0
0.605257 0.179868 -0.142788 237 17 0
0.60861 0.184087 -0.144392 243 11 0
0.61373 0.185422 -0.145639 249 5 0
0.618955 0.185105 -0.146405 255 0 0
