ply
format ascii 1.0
comment Generated by robot_control PLYWriter
element vertex 57
property float x
property float y
property float z
property uchar red
property uchar green
property uchar blue
end_header
0.562575 0.153785 -0.123552 0 255 0
0.567435 0.152061 -0.122674 4 250 0
0.570616 0.147843 -0.12091 9 245 0
0.574488 0.14342 -0.119533 13 241 0
0.573763 0.137735 -0.117929 18 236 0
0.572322 0.13277 -0.116688 22 232 0
0.568038 0.12856 -0.116106 27 227 0
0.563303 0.125059 -0.115726 31 223 0
0.557361 0.124118 -0.115854 36 218 0
0.551637 0.125375 -0.11634 40 214 0
0.546139 0.127731 -0.117195 45 209 0
0.541594 0.131356 -0.118535 50 204 0
0.538727 0.136277 -0.119746 54 200 0
0.538547 0.14211 -0.121305 59 195 0
0.538888 0.148043 -0.122343 63 191 0
0.540118 0.15384 -0.123367 68 186 0
0.543528 0.158597 -0.124268 72 182 0
0.548847 0.160972 -0.12486 77 177 0
0.554617 0.16274 -0.125143 81 173 0
0.55999 0.161615 -0.125066 86 168 0
0.565832 0.160245 -0.124587 91 163 0
0.570611 0.157074 -0.123594 95 159 0
0.572774 0.151557 -0.122673 100 154 0
0.57192 0.145792 -0.121532 104 150 0
0.569345 0.140438 -0.120681 109 145 0
0.565193 0.136259 -0.11997 113 141 0
0.559749 0.133806 -0.119622 118 136 0
0.553822 0.132955 -0.119684 122 132 0
0.54811 0.134321 -0.120162 127 127 0
0.543207 0.137679 -0.121005 132 122 0
0.539398 0.142109 -0.122216 136 118 0
0.53751 0.147675 -0.123289 141 113 0
0.536534 0.153445 -0.12456 145 109 0
0.537902 0.15907 -0.125929 150 104 0
0.540738 0.164236 -0.126937 154 100 0
0.544918 0.1684 -0.12787 159 95 0
0.550239 0.171093 -0.128511 163 91 0
0.556081 0.171659 -0.128704 168 86 0
0.561722 0.169796 -0.128431 173 81 0
0.567028 0.167085 -0.127573 177 77 0
0.570256 0.162275 -0.126463 182 72 0
0.570271 0.156427 -0.12495 186 68 0
0.569117 0.150704 -0.123659 191 63 0
0.566881 0.145336 -0.122458 195 59 0
0.561282 0.143313 -0.121665 200 54 0
0.555699 0.141838 -0.121261 204 50 0
0.549657 0.141826 -0.121356 209 45 0
0.54427 0.14442 -0.121877 214 40 0
0.539543 0.147502 -0.123525 218 36 0
0.536539 0.152407 -0.124979 223 31 0
0.535364 0.157933 -0.12678 227 27 0
0.534896 0.163451 -0.128805 232 22 0
0.535708 0.168932 -0.130848 236 18 0
0.538173 0.174271 -0.132236 241 13 0
0.542474 0.177466 -0.13377 245 9 0
0.547456 0.17964 -0.134399 250 4 0
0.552629 0.180935 -0.134651 255 0 0
