ply
format ascii 1.0
comment Generated by robot_control PLYWriter
element vertex 11
property float x
property float y
property float z
property uchar red
property uchar green
property uchar blue
end_header
0.585166 -0.25254 -0.100743 0 255 0
0.585171 -0.247571 -0.100427 25 229 0
0.58517 -0.242583 -0.100102 51 204 0
0.585168 -0.237704 -0.0990748 76 178 0
0.585174 -0.232895 -0.0977086 102 153 0
0.58518 -0.228022 -0.0966178 127 127 0
0.585178 -0.223062 -0.0961475 153 101 0
0.585176 -0.218087 -0.0964129 178 76 0
0.585181 -0.213193 -0.097407 204 50 0
0.585178 -0.208391 -0.098797 229 25 0
0.585166 -0.203757 -0.100657 255 0 0
