ply
format ascii 1.0
comment Generated by robot_control PLYWriter
element vertex 11
property float x
property float y
property float z
property uchar red
property uchar green
property uchar blue
end_header
0.61466 -0.197391 -0.135185 0 255 0
0.614767 -0.201997 -0.13391 25 229 0
0.61514 -0.206601 -0.132684 51 204 0
0.615504 -0.211212 -0.131477 76 178 0
0.61569 -0.215794 -0.130125 102 153 0
0.615911 -0.220352 -0.128698 127 127 0
0.616025 -0.224871 -0.127141 153 101 0
0.616166 -0.229378 -0.12555 178 76 0
0.61657 -0.233912 -0.124093 204 50 0
0.616743 -0.238416 -0.122512 229 25 0
0.616815 -0.242881 -0.120807 255 0 0
