ply
format ascii 1.0
comment Generated by robot_control PLYWriter
element vertex 33
property float x
property float y
property float z
property uchar red
property uchar green
property uchar blue
end_header
0.726456 0.0834163 -0.146689 0 255 0
0.73084 0.0808718 -0.144927 7 247 0
0.734709 0.0769756 -0.14298 15 239 0
0.735033 0.0714436 -0.141114 23 231 0
0.734191 0.0658468 -0.139413 31 223 0
0.730488 0.0615268 -0.138213 39 215 0
0.727036 0.0570618 -0.137229 47 207 0
0.721551 0.0559555 -0.136636 55 199 0
0.715639 0.0561382 -0.136443 63 191 0
0.70978 0.0563457 -0.136549 71 183 0
0.704934 0.0597069 -0.137022 79 175 0
0.701111 0.0640607 -0.137818 87 167 0
0.699483 0.0696528 -0.138534 95 159 0
0.699135 0.0754462 -0.13953 103 151 0
0.703111 0.0797241 -0.140388 111 143 0
0.707984 0.0828672 -0.140904 119 135 0
0.713073 0.0818521 -0.140962 127 127 0
0.718819 0.080905 -0.14061 135 119 0
0.722795 0.0770747 -0.140024 143 111 0
0.723854 0.071277 -0.13943 151 103 0
0.722639 0.0658398 -0.138716 159 95 0
0.72048 0.0603596 -0.138131 167 87 0
0.716626 0.0560249 -0.137508 175 79 0
0.711377 0.0535157 -0.137124 183 71 0
0.705475 0.0531491 -0.137051 191 63 0
0.699833 0.0544469 -0.137355 199 55 0
0.69461 0.0571649 -0.138007 207 47 0
0.690788 0.0614601 -0.138841 215 39 0
0.689233 0.0668537 -0.139728 223 31 0
0.68858 0.0726798 -0.140327 231 23 0
0.690772 0.0776254 -0.140806 239 15 0
0.695473 0.0806761 -0.141021 247 7 0
0.701103 0.081263 -0.140975 255 0 0
