ply
format ascii 1.0
comment Generated by robot_control PLYWriter
element vertex 60
property float x
property float y
property float z
property uchar red
property uchar green
property uchar blue
end_header
0.589418 0.00350499 -0.109242 0 255 0
0.59297 0.00244542 -0.108384 4 250 0
0.596798 -0.000721338 -0.106674 8 246 0
0.598733 -0.0054909 -0.105095 12 242 0
0.600571 -0.0106465 -0.103889 17 237 0
0.598675 -0.0147437 -0.102155 21 233 0
0.596582 -0.0185377 -0.101109 25 229 0
0.593567 -0.0234387 -0.100396 30 224 0
0.588645 -0.0259536 -0.100179 34 220 0
0.582731 -0.0262685 -0.100716 38 216 0
0.577716 -0.0247816 -0.101536 43 211 0
0.573695 -0.0206943 -0.102719 47 207 0
0.573173 -0.0156112 -0.103862 51 203 0
0.574788 -0.0104352 -0.104597 56 198 0
0.579613 -0.00696913 -0.104892 60 194 0
0.585325 -0.00572945 -0.104704 64 190 0
0.590153 -0.00790212 -0.103909 69 185 0
0.595382 -0.00931076 -0.102844 73 181 0
0.598682 -0.013808 -0.101774 77 177 0
0.59865 -0.0196302 -0.100546 82 172 0
0.598595 -0.0255173 -0.0996154 86 168 0
0.595694 -0.0306394 -0.0989837 90 164 0
0.591942 -0.0350851 -0.0986507 95 159 0
0.586455 -0.0365716 -0.098612 99 155 0
0.580516 -0.0366243 -0.0988433 103 151 0
0.575719 -0.0334547 -0.0994891 108 146 0
0.572366 -0.0291176 -0.100505 112 142 0
0.574183 -0.0235979 -0.101154 116 138 0
0.577519 -0.0187194 -0.101471 121 133 0
0.58276 -0.0163515 -0.101214 125 129 0
0.588605 -0.0161329 -0.100397 129 125 0
0.593724 -0.0190425 -0.099569 133 121 0
0.597423 -0.0234358 -0.098544 138 116 0
0.598598 -0.0290617 -0.0977133 142 112 0
0.598561 -0.0349706 -0.0969333 146 108 0
0.59643 -0.0404267 -0.096423 151 103 0
0.593031 -0.045133 -0.0961302 155 99 0
0.587567 -0.0468817 -0.0962244 159 95 0
0.58202 -0.0481999 -0.0967524 164 90 0
0.57659 -0.0460548 -0.0973921 168 86 0
0.573204 -0.0412583 -0.0981973 172 82 0
0.572369 -0.0355944 -0.09903 177 77 0
0.575066 -0.0304705 -0.0993322 181 73 0
0.579818 -0.0269125 -0.0990648 185 69 0
0.585534 -0.0262028 -0.0984635 190 64 0
0.591098 -0.0280102 -0.0975044 194 60 0
0.594914 -0.031804 -0.096421 198 56 0
0.597953 -0.0367644 -0.0952874 203 51 0
0.59858 -0.0424765 -0.0945002 207 47 0
0.597194 -0.0478264 -0.0937103 211 43 0
0.594191 -0.0528701 -0.0932781 216 38 0
0.5901 -0.0570601 -0.0933891 220 34 0
0.584391 -0.0582651 -0.0940814 224 30 0
0.578591 -0.0578614 -0.0950168 229 25 0
0.574117 -0.0543632 -0.0962431 233 21 0
0.572624 -0.0495053 -0.0979133 237 17 0
0.573352 -0.043835 -0.0985256 242 12 0
0.575999 -0.0395507 -0.0984642 246 8 0
0.580364 -0.0370148 -0.0978723 250 4 0
0.585211 -0.0366344 -0.096559 255 0 0
