ply
format ascii 1.0
comment Generated by robot_control PLYWriter
element vertex 130
property float x
property float y
property float z
property uchar red
property uchar green
property uchar blue
end_header
0.572159 -0.0901241 -0.0839813 0 255 0
0.575213 -0.092384 -0.0853369 1 253 0
0.578455 -0.0946704 -0.0866204 3 251 0
0.580508 -0.0984207 -0.0879069 5 249 0
0.582524 -0.103409 -0.0889346 7 247 0
0.582606 -0.109121 -0.0893925 9 245 0
0.580519 -0.114598 -0.0894049 11 243 0
0.578046 -0.119619 -0.0889341 13 241 0
0.57313 -0.122329 -0.088392 15 239 0
0.567813 -0.124232 -0.0874611 17 237 0
0.56207 -0.123794 -0.0862936 19 235 0
0.557025 -0.120634 -0.085612 21 233 0
0.554288 -0.116243 -0.084557 23 231 0
0.552838 -0.110723 -0.0838971 25 229 0
0.554405 -0.105369 -0.0837221 27 227 0
0.558324 -0.101436 -0.0839916 29 225 0
0.563796 -0.0991305 -0.084628 31 223 0
0.569201 -0.0996135 -0.0857074 33 221 0
0.574483 -0.101041 -0.0867797 35 219 0
0.578278 -0.105547 -0.0878064 37 217 0
0.580999 -0.110688 -0.0886098 39 215 0
0.582502 -0.115721 -0.0890485 41 213 0
0.581634 -0.121615 -0.0892538 43 211 0
0.579762 -0.12729 -0.0891564 45 209 0
0.575511 -0.131242 -0.0888751 47 207 0
0.570542 -0.134356 -0.0882966 49 205 0
0.564702 -0.135114 -0.0874385 51 203 0
0.559036 -0.133542 -0.0867746 53 201 0
0.554732 -0.129588 -0.0861081 55 199 0
0.552725 -0.124238 -0.085567 57 197 0
0.552776 -0.118246 -0.0854004 59 195 0
0.555883 -0.113248 -0.0856074 61 193 0
0.560952 -0.110269 -0.0860618 63 191 0
0.566901 -0.110258 -0.0867889 65 189 0
0.572848 -0.110239 -0.0875291 67 187 0
0.576614 -0.114869 -0.0880425 69 185 0
0.580121 -0.119684 -0.0886313 71 183 0
0.582579 -0.125066 -0.0890148 73 181 0
0.581151 -0.130611 -0.089195 75 179 0
0.579147 -0.136252 -0.0892304 77 177 0
0.575078 -0.140573 -0.0890728 79 175 0
0.570305 -0.143953 -0.0886566 81 173 0
0.564438 -0.144514 -0.0881803 83 171 0
0.558763 -0.142966 -0.087627 85 169 0
0.554491 -0.139678 -0.0870539 86 168 0
0.552652 -0.134018 -0.086682 88 166 0
0.553574 -0.128212 -0.0866551 90 164 0
0.556453 -0.122971 -0.0868838 92 162 0
0.561627 -0.12036 -0.0872114 94 160 0
0.567607 -0.120369 -0.0876365 96 158 0
0.57317 -0.122094 -0.0881373 98 156 0
0.577911 -0.125691 -0.0885739 100 154 0
0.5802 -0.131011 -0.0889635 102 152 0
0.580485 -0.136956 -0.089327 104 150 0
0.580188 -0.142874 -0.0895315 106 148 0
0.577902 -0.148389 -0.0895655 108 146 0
0.573745 -0.152378 -0.089462 110 144 0
0.568184 -0.154383 -0.0892359 112 142 0
0.562267 -0.154547 -0.0888352 114 140 0
0.556851 -0.152022 -0.0884497 116 138 0
0.553193 -0.147517 -0.0879919 118 136 0
0.552552 -0.141703 -0.0877939 120 134 0
0.554407 -0.136458 -0.0878313 122 132 0
0.559107 -0.13281 -0.0880048 124 130 0
0.56466 -0.130644 -0.0882666 126 128 0
0.57055 -0.130957 -0.0886713 128 126 0
0.575461 -0.133771 -0.0890611 130 124 0
0.578793 -0.138738 -0.0894684 132 122 0
0.580599 -0.144161 -0.0898995 134 120 0
0.580487 -0.150146 -0.0902167 136 118 0
0.579037 -0.155941 -0.0903375 138 116 0
0.574637 -0.159906 -0.0903374 140 114 0
0.569752 -0.163348 -0.0902097 142 112 0
0.56418 -0.16501 -0.0900098 144 110 0
0.558645 -0.163652 -0.0897142 146 108 0
0.554364 -0.159522 -0.0891507 148 106 0
0.551648 -0.154291 -0.0887494 150 104 0
0.552434 -0.148666 -0.0884983 152 102 0
0.555977 -0.144087 -0.0885515 154 100 0
0.5616 -0.142028 -0.0887951 156 98 0
0.567315 -0.140898 -0.0892918 158 96 0
0.572878 -0.143081 -0.0896706 160 94 0
0.577422 -0.146927 -0.0903128 162 92 0
0.580024 -0.152075 -0.091003 164 90 0
0.580601 -0.157969 -0.0915458 166 88 0
0.579047 -0.163709 -0.0918895 168 86 0
0.576189 -0.168947 -0.0920247 170 84 0
0.57212 -0.173255 -0.0919365 171 83 0
0.566548 -0.175438 -0.0916538 173 81 0
0.561011 -0.174656 -0.0912707 175 79 0
0.555699 -0.171955 -0.0906643 177 77 0
0.551628 -0.168107 -0.0900504 179 75 0
0.550946 -0.162278 -0.0893671 181 73 0
0.552761 -0.15678 -0.088945 183 71 0
0.556973 -0.152515 -0.0890073 185 69 0
0.562708 -0.151459 -0.0895405 187 67 0
0.56826 -0.152095 -0.090195 189 65 0
0.573659 -0.154535 -0.0910374 191 63 0
0.57783 -0.158487 -0.091967 193 61 0
0.580314 -0.16385 -0.0928993 195 59 0
0.579876 -0.16965 -0.0938448 197 57 0
0.578996 -0.175481 -0.0945213 199 55 0
0.57516 -0.179646 -0.0948154 201 53 0
0.570708 -0.183435 -0.0948264 203 51 0
0.56537 -0.186128 -0.0944504 205 49 0
0.559658 -0.18559 -0.0936632 207 47 0
0.554702 -0.182458 -0.0924902 209 45 0
0.550862 -0.178215 -0.0912374 211 43 0
0.550928 -0.172273 -0.0904421 213 41 0
0.553411 -0.167048 -0.0898036 215 39 0
0.558032 -0.163482 -0.0896937 217 37 0
0.563277 -0.162089 -0.0903878 219 35 0
0.568953 -0.162001 -0.0914867 221 33 0
0.573983 -0.164827 -0.09269 223 31 0
0.577792 -0.169198 -0.0939273 225 29 0
0.579665 -0.17428 -0.0953878 227 27 0
0.580065 -0.179995 -0.0964299 229 25 0
0.578987 -0.185728 -0.097071 231 23 0
0.575798 -0.190235 -0.0973326 233 21 0
0.571422 -0.193817 -0.0971357 235 19 0
0.565963 -0.19481 -0.0965421 237 17 0
0.560812 -0.196862 -0.0959687 239 15 0
0.556161 -0.19511 -0.0952616 241 13 0
0.552851 -0.192044 -0.0944976 243 11 0
0.550725 -0.187293 -0.0933698 245 9 0
0.550809 -0.181447 -0.0920568 247 7 0
0.55245 -0.177463 -0.0909991 249 5 0
0.555251 -0.174227 -0.0904895 251 3 0
0.559768 -0.17258 -0.0906452 253 1 0
0.5649 -0.172927 -0.0917463 255 0 0
