ply
format ascii 1.0
comment Generated by robot_control PLYWriter
element vertex 42
property float x
property float y
property float z
property uchar red
property uchar green
property uchar blue
end_header
0.588344 0.0985679 -0.152624 0 255 0
0.593305 0.0981333 -0.151064 6 248 0
0.597947 0.0962956 -0.149112 12 242 0
0.600128 0.0918845 -0.147206 18 236 0
0.600446 0.0876589 -0.146448 24 230 0
0.60028 0.0817149 -0.146675 31 223 0
0.595072 0.0795331 -0.147517 37 217 0
0.589696 0.0779395 -0.148727 43 211 0
0.58462 0.0803621 -0.150155 49 205 0
0.581255 0.0851718 -0.15122 55 199 0
0.581286 0.0907378 -0.15216 62 192 0
0.582464 0.0961106 -0.152725 68 186 0
0.585813 0.100941 -0.152937 74 180 0
0.591131 0.103513 -0.152534 80 174 0
0.596843 0.103718 -0.151398 87 167 0
0.602673 0.103543 -0.150245 93 161 0
0.606185 0.0993725 -0.148768 99 155 0
0.607114 0.0937876 -0.147569 105 149 0
0.605801 0.0880902 -0.146663 111 143 0
0.601146 0.0849152 -0.146584 118 136 0
0.595968 0.085082 -0.147287 124 130 0
0.591213 0.0862854 -0.148844 130 124 0
0.588103 0.0910528 -0.150466 136 118 0
0.588145 0.0959612 -0.152119 143 111 0
0.588968 0.10155 -0.1534 149 105 0
0.592556 0.106288 -0.153855 155 99 0
0.596852 0.110422 -0.153596 161 93 0
0.60255 0.111079 -0.152542 167 87 0
0.607575 0.109448 -0.151466 174 80 0
0.612131 0.106331 -0.149507 180 74 0
0.614622 0.101547 -0.147499 186 68 0
0.613473 0.0963298 -0.145912 192 62 0
0.609197 0.0923681 -0.144845 199 55 0
0.60381 0.0908919 -0.145719 205 49 0
0.598327 0.0920356 -0.147694 211 43 0
0.595223 0.0962758 -0.150287 217 37 0
0.592705 0.10044 -0.152897 223 31 0
0.593931 0.105265 -0.155546 230 24 0
0.596223 0.109957 -0.157256 236 18 0
0.599445 0.114055 -0.158476 242 12 0
0.60412 0.11589 -0.15813 248 6 0
0.607159 0.117067 -0.156874 255 0 0
