ply
format ascii 1.0
comment Generated by robot_control PLYWriter
element vertex 11
property float x
property float y
property float z
property uchar red
property uchar green
property uchar blue
end_header
0.602145 -0.328576 -0.103293 0 255 0
0.601779 -0.32382 -0.104909 25 229 0
0.601533 -0.318994 -0.106337 51 204 0
0.60127 -0.314158 -0.107724 76 178 0
0.601194 -0.309273 -0.108937 102 153 0
0.601214 -0.304337 -0.109943 127 127 0
0.601232 -0.29937 -0.110781 153 101 0
0.601199 -0.29439 -0.111541 178 76 0
0.601067 -0.289419 -0.112346 204 50 0
0.600952 -0.28446 -0.113225 229 25 0
0.600776 -0.279512 -0.114151 255 0 0
