ply
format ascii 1.0
comment Generated by robot_control PLYWriter
element vertex 32
property float x
property float y
property float z
property uchar red
property uchar green
property uchar blue
end_header
0.573682 0.089248 -0.153102 0 255 0
0.578933 0.0872661 -0.152026 8 246 0
0.582402 0.082945 -0.151668 16 238 0
0.585726 0.0780155 -0.151711 24 230 0
0.585919 0.0722466 -0.152007 32 222 0
0.584976 0.0663652 -0.152451 41 213 0
0.581423 0.0617539 -0.153208 49 205 0
0.576317 0.0589458 -0.153769 57 197 0
0.570544 0.060385 -0.154302 65 189 0
0.565593 0.0637073 -0.15452 74 180 0
0.562987 0.0691443 -0.154407 82 172 0
0.56241 0.0751429 -0.154143 90 164 0
0.56513 0.0803373 -0.153507 98 156 0
0.569937 0.0839245 -0.152773 106 148 0
0.575303 0.0866051 -0.15192 115 139 0
0.581042 0.0877292 -0.151184 123 131 0
0.587061 0.087279 -0.150648 131 123 0
0.592078 0.0847368 -0.150209 139 115 0
0.596152 0.0802599 -0.149874 148 106 0
0.598383 0.0747002 -0.149757 156 98 0
0.59818 0.0687062 -0.149883 164 90 0
0.595919 0.0631316 -0.150321 172 82 0
0.591011 0.0600218 -0.150986 180 74 0
0.585254 0.0588567 -0.152038 189 65 0
0.579507 0.0597995 -0.152904 197 57 0
0.576016 0.0645737 -0.153101 205 49 0
0.574711 0.0703915 -0.152972 213 41 0
0.576335 0.0760861 -0.152587 222 32 0
0.579618 0.0805798 -0.151723 230 24 0
0.582583 0.0839635 -0.150619 238 16 0
0.588261 0.0852884 -0.149559 246 8 0
0.592833 0.0874055 -0.148229 255 0 0
