ply
format ascii 1.0
comment Generated by robot_control PLYWriter
element vertex 29
property float x
property float y
property float z
property uchar red
property uchar green
property uchar blue
end_header
0.570299 0.0698636 -0.144012 0 255 0
0.573606 0.0675545 -0.140975 9 245 0
0.576752 0.0639819 -0.138649 18 236 0
0.57668 0.0583473 -0.136727 27 227 0
0.572969 0.0539818 -0.1356 36 218 0
0.568598 0.0499783 -0.135493 45 209 0
0.563455 0.047184 -0.13644 54 200 0
0.557716 0.048017 -0.137779 63 191 0
0.552355 0.0490732 -0.140067 72 182 0
0.548262 0.0523057 -0.142534 81 173 0
0.546012 0.0573046 -0.144823 91 163 0
0.545647 0.0624565 -0.147563 100 154 0
0.547349 0.0675851 -0.149468 109 145 0
0.551453 0.0717377 -0.150489 118 136 0
0.556946 0.0727417 -0.150391 127 127 0
0.562432 0.0719499 -0.148664 136 118 0
0.564521 0.0674675 -0.146144 145 109 0
0.564758 0.061739 -0.144522 154 100 0
0.560363 0.0583733 -0.143562 163 91 0
0.555912 0.0547087 -0.143372 173 81 0
0.550345 0.0527043 -0.144006 182 72 0
0.544814 0.0532194 -0.145944 191 63 0
0.539546 0.0541886 -0.148567 200 54 0
0.536359 0.058182 -0.151436 209 45 0
0.535224 0.0627111 -0.1547 218 36 0
0.534918 0.0673718 -0.158389 227 27 0
0.536651 0.0717835 -0.160901 236 18 0
0.540193 0.0758535 -0.162041 245 9 0
0.54502 0.0770109 -0.162129 255 0 0
