ply
format ascii 1.0
comment Generated by robot_control PLYWriter
element vertex 9
property float x
property float y
property float z
property uchar red
property uchar green
property uchar blue
end_header
0.609822 -0.279935 -0.127942 0 255 0
0.609311 -0.275415 -0.129948 31 223 0
0.60891 -0.270861 -0.131909 63 191 0
0.608573 -0.266326 -0.133924 95 159 0
0.608429 -0.261815 -0.136012 127 127 0
0.608431 -0.257233 -0.137914 159 95 0
0.608168 -0.252417 -0.139098 191 63 0
0.607851 -0.247473 -0.139562 223 31 0
0.607395 -0.242542 -0.139617 255 0 0
