ply
format ascii 1.0
comment Generated by robot_control PLYWriter
element vertex 14
property float x
property float y
property float z
property uchar red
property uchar green
property uchar blue
end_header
0.58486 -0.130573 -0.0428581 0 255 0
0.584789 -0.13555 -0.0428601 19 235 0
0.584777 -0.140527 -0.0429561 39 215 0
0.584872 -0.145501 -0.0429011 58 196 0
0.585138 -0.15046 -0.0425953 78 176 0
0.585336 -0.155391 -0.0419567 98 156 0
0.585631 -0.160278 -0.0410535 117 137 0
0.58593 -0.165141 -0.0400303 137 117 0
0.58623 -0.170029 -0.0391349 156 98 0
0.586505 -0.174973 -0.038641 176 78 0
0.58679 -0.17994 -0.0385251 196 58 0
0.586854 -0.184906 -0.038794 215 39 0
0.586855 -0.18986 -0.0390876 235 19 0
0.586842 -0.194557 -0.0406992 255 0 0
