ply
format ascii 1.0
comment Generated by robot_control PLYWriter
element vertex 45
property float x
property float y
property float z
property uchar red
property uchar green
property uchar blue
end_header
0.638257 0.156779 -0.156281 0 255 0
0.643328 0.155757 -0.154949 5 249 0
0.646584 0.153531 -0.152531 11 243 0
0.648984 0.150079 -0.150397 17 237 0
0.65127 0.145349 -0.14822 23 231 0
0.649769 0.140842 -0.145848 28 226 0
0.647563 0.135683 -0.144299 34 220 0
0.643283 0.131918 -0.143424 40 214 0
0.637273 0.131322 -0.143154 46 208 0
0.632087 0.129742 -0.143643 52 202 0
0.626476 0.131319 -0.145051 57 197 0
0.622435 0.135189 -0.14693 63 191 0
0.620726 0.140267 -0.148865 69 185 0
0.621562 0.145809 -0.150593 75 179 0
0.625693 0.15017 -0.151286 81 173 0
0.631198 0.151247 -0.15115 86 168 0
0.636074 0.150153 -0.150226 92 162 0
0.641185 0.147084 -0.149116 98 156 0
0.643599 0.141957 -0.147119 104 150 0
0.644072 0.136318 -0.145213 110 144 0
0.64192 0.130821 -0.143872 115 139 0
0.637889 0.126583 -0.14295 121 133 0
0.632457 0.12527 -0.142595 127 127 0
0.626918 0.123098 -0.142858 133 121 0
0.621551 0.12583 -0.143544 139 115 0
0.617063 0.129566 -0.144794 144 110 0
0.614672 0.134626 -0.14659 150 104 0
0.615722 0.140289 -0.148185 156 98 0
0.620736 0.143635 -0.148665 162 92 0
0.626167 0.145869 -0.148559 168 86 0
0.631965 0.144275 -0.147955 173 81 0
0.635908 0.140797 -0.146682 179 75 0
0.638418 0.135798 -0.144588 185 69 0
0.637238 0.130631 -0.142736 191 63 0
0.636963 0.124711 -0.14174 197 57 0
0.631957 0.121669 -0.140596 202 52 0
0.626462 0.119181 -0.140033 208 46 0
0.620902 0.117129 -0.140082 214 40 0
0.615769 0.119667 -0.140741 220 34 0
0.611745 0.122671 -0.142046 226 28 0
0.60863 0.127248 -0.143711 231 23 0
0.60933 0.132679 -0.14588 237 17 0
0.612176 0.136492 -0.147627 243 11 0
0.615469 0.139699 -0.148717 249 5 0
0.620701 0.13995 -0.148897 255 0 0
