ply
format ascii 1.0
comment Generated by robot_control PLYWriter
element vertex 10
property float x
property float y
property float z
property uchar red
property uchar green
property uchar blue
end_header
0.590423 -0.0666389 -0.0338011 0 255 0
0.590419 -0.0718166 -0.0340377 28 226 0
0.590421 -0.0769717 -0.0345759 56 198 0
0.590419 -0.0821458 -0.0348815 85 169 0
0.590419 -0.0872935 -0.0354856 113 141 0
0.590428 -0.0924082 -0.0363253 141 113 0
0.590429 -0.0975311 -0.037114 170 84 0
0.590433 -0.102691 -0.0376053 198 56 0
0.590435 -0.107874 -0.0376432 226 28 0
0.590433 -0.11304 -0.037336 255 0 0
