ply
format ascii 1.0
comment Generated by robot_control PLYWriter
element vertex 10
property float x
property float y
property float z
property uchar red
property uchar green
property uchar blue
end_header
0.632829 -0.208593 -0.0394531 0 255 0
0.632845 -0.213711 -0.0394197 28 226 0
0.632887 -0.218832 -0.0396269 56 198 0
0.632905 -0.223963 -0.0397405 85 169 0
0.632934 -0.229084 -0.0401234 113 141 0
0.632977 -0.234202 -0.0405543 141 113 0
0.633017 -0.239327 -0.0408886 170 84 0
0.633038 -0.244459 -0.0410533 198 56 0
0.633039 -0.249595 -0.0410418 226 28 0
0.633017 -0.254712 -0.0406117 255 0 0
