ply
format ascii 1.0
comment Generated by robot_control PLYWriter
element vertex 12
property float x
property float y
property float z
property uchar red
property uchar green
property uchar blue
end_header
0.61461 -0.133562 -0.131413 0 255 0
0.614204 -0.128727 -0.131395 23 231 0
0.613934 -0.123883 -0.131424 46 208 0
0.613629 -0.119043 -0.131435 69 185 0
0.613192 -0.114213 -0.131367 92 162 0
0.612974 -0.109367 -0.131304 115 139 0
0.612634 -0.104531 -0.131103 139 115 0
0.612283 -0.0997016 -0.130806 162 92 0
0.61194 -0.0948774 -0.130423 185 69 0
0.611611 -0.0900574 -0.12998 208 46 0
0.611194 -0.0852559 -0.129454 231 23 0
0.610665 -0.0804997 -0.128774 255 0 0
