ply
format ascii 1.0
comment Generated by robot_control PLYWriter
element vertex 200
property float x
property float y
property float z
property uchar red
property uchar green
property uchar blue
end_header
0.648579 -0.424717 -0.0833176 0 255 0
0.648579 -0.424717 -0.0833176 1 253 0
0.648579 -0.424717 -0.0833176 2 252 0
0.648579 -0.424717 -0.0833176 3 251 0
0.648579 -0.424717 -0.0833176 5 249 0
0.648579 -0.424717 -0.0833176 6 248 0
0.648579 -0.424717 -0.0833176 7 247 0
0.648579 -0.424717 -0.0833176 8 246 0
0.648579 -0.424717 -0.0833176 10 244 0
0.648579 -0.424717 -0.0833176 11 243 0
0.648579 -0.424717 -0.0833176 12 242 0
0.648579 -0.424717 -0.0833176 14 240 0
0.648579 -0.424717 -0.0833176 15 239 0
0.648579 -0.424717 -0.0833176 16 238 0
0.648579 -0.424717 -0.0833176 17 237 0
0.648579 -0.424717 -0.0833176 19 235 0
0.648579 -0.424717 -0.0833176 20 234 0
0.648579 -0.424717 -0.0833176 21 233 0
0.648579 -0.424717 -0.0833176 23 231 0
0.648579 -0.424717 -0.0833176 24 230 0
0.648579 -0.424717 -0.0833176 25 229 0
0.648579 -0.424717 -0.0833176 26 228 0
0.648579 -0.424717 -0.0833176 28 226 0
0.648579 -0.424717 -0.0833176 29 225 0
0.648579 -0.424717 -0.0833176 30 224 0
0.648579 -0.424717 -0.0833176 32 222 0
0.648579 -0.424717 -0.0833176 33 221 0
0.648579 -0.424717 -0.0833176 34 220 0
0.648579 -0.424717 -0.0833176 35 219 0
0.648579 -0.424717 -0.0833176 37 217 0
0.648579 -0.424717 -0.0833176 38 216 0
0.648579 -0.424717 -0.0833176 39 215 0
0.648579 -0.424717 -0.0833176 41 213 0
0.648579 -0.424717 -0.0833176 42 212 0
0.648579 -0.424717 -0.0833176 43 211 0
0.648579 -0.424717 -0.0833176 44 210 0
0.648579 -0.424717 -0.0833176 46 208 0
0.648579 -0.424717 -0.0833176 47 207 0
0.648579 -0.424717 -0.0833176 48 206 0
0.648579 -0.424717 -0.0833176 49 205 0
0.648579 -0.424717 -0.0833176 51 203 0
0.648579 -0.424717 -0.0833176 52 202 0
0.648579 -0.424717 -0.0833176 53 201 0
0.648579 -0.424717 -0.0833176 55 199 0
0.648579 -0.424717 -0.0833176 56 198 0
0.648579 -0.424717 -0.0833176 57 197 0
0.648579 -0.424717 -0.0833176 58 196 0
0.648579 -0.424717 -0.0833176 60 194 0
0.648579 -0.424717 -0.0833176 61 193 0
0.648579 -0.424717 -0.0833176 62 192 0
0.648579 -0.424717 -0.0833176 64 190 0
0.648579 -0.424717 -0.0833176 65 189 0
0.648579 -0.424717 -0.0833176 66 188 0
0.648579 -0.424717 -0.0833176 67 187 0
0.648579 -0.424717 -0.0833176 69 185 0
0.648579 -0.424717 -0.0833176 70 184 0
0.648579 -0.424717 -0.0833176 71 183 0
0.648579 -0.424717 -0.0833176 73 181 0
0.648579 -0.424717 -0.0833176 74 180 0
0.648579 -0.424717 -0.0833176 75 179 0
0.648579 -0.424717 -0.0833176 76 178 0
0.648579 -0.424717 -0.0833176 78 176 0
0.648579 -0.424717 -0.0833176 79 175 0
0.648579 -0.424717 -0.0833176 80 174 0
0.648579 -0.424717 -0.0833176 82 172 0
0.648579 -0.424717 -0.0833176 83 171 0
0.648579 -0.424717 -0.0833176 84 170 0
0.648579 -0.424717 -0.0833176 85 169 0
0.648579 -0.424717 -0.0833176 87 167 0
0.648579 -0.424717 -0.0833176 88 166 0
0.648579 -0.424717 -0.0833176 89 165 0
0.648579 -0.424717 -0.0833176 90 164 0
0.648579 -0.424717 -0.0833176 92 162 0
0.648579 -0.424717 -0.0833176 93 161 0
0.648579 -0.424717 -0.0833176 94 160 0
0.648579 -0.424717 -0.0833176 96 158 0
0.648579 -0.424717 -0.0833176 97 157 0
0.648579 -0.424717 -0.0833176 98 156 0
0.648579 -0.424717 -0.0833176 99 155 0
0.648579 -0.424717 -0.0833176 101 153 0
0.648579 -0.424717 -0.0833176 102 152 0
0.648579 -0.424717 -0.0833176 103 151 0
0.648579 -0.424717 -0.0833176 105 149 0
0.648579 -0.424717 -0.0833176 106 148 0
0.648579 -0.424717 -0.0833176 107 147 0
0.648579 -0.424717 -0.0833176 108 146 0
0.648579 -0.424717 -0.0833176 110 144 0
0.648579 -0.424717 -0.0833176 111 143 0
0.648579 -0.424717 -0.0833176 112 142 0
0.648579 -0.424717 -0.0833176 114 140 0
0.648579 -0.424717 -0.0833176 115 139 0
0.648579 -0.424717 -0.0833176 116 138 0
0.648579 -0.424717 -0.0833176 117 137 0
0.648579 -0.424717 -0.0833176 119 135 0
0.648579 -0.424717 -0.0833176 120 134 0
0.648579 -0.424717 -0.0833176 121 133 0
0.648579 -0.424717 -0.0833176 123 131 0
0.648579 -0.424717 -0.0833176 124 130 0
0.648579 -0.424717 -0.0833176 125 129 0
0.648579 -0.424717 -0.0833176 126 128 0
0.648579 -0.424717 -0.0833176 128 126 0
0.648579 -0.424717 -0.0833176 129 125 0
0.648579 -0.424717 -0.0833176 130 124 0
0.648579 -0.424717 -0.0833176 131 123 0
0.648579 -0.424717 -0.0833176 133 121 0
0.648579 -0.424717 -0.0833176 134 120 0
0.648579 -0.424717 -0.0833176 135 119 0
0.648579 -0.424717 -0.0833176 137 117 0
0.648579 -0.424717 -0.0833176 138 116 0
0.648579 -0.424717 -0.0833176 139 115 0
0.648579 -0.424717 -0.0833176 140 114 0
0.648579 -0.424717 -0.0833176 142 112 0
0.648579 -0.424717 -0.0833176 143 111 0
0.648579 -0.424717 -0.0833176 144 110 0
0.648579 -0.424717 -0.0833176 146 108 0
0.648579 -0.424717 -0.0833176 147 107 0
0.648579 -0.424717 -0.0833176 148 106 0
0.648579 -0.424717 -0.0833176 149 105 0
0.648579 -0.424717 -0.0833176 151 103 0
0.648579 -0.424717 -0.0833176 152 102 0
0.648579 -0.424717 -0.0833176 153 101 0
0.648579 -0.424717 -0.0833176 155 99 0
0.648579 -0.424717 -0.0833176 156 98 0
0.648579 -0.424717 -0.0833176 157 97 0
0.648579 -0.424717 -0.0833176 158 96 0
0.648579 -0.424717 -0.0833176 160 94 0
0.648579 -0.424717 -0.0833176 161 93 0
0.648579 -0.424717 -0.0833176 162 92 0
0.648579 -0.424717 -0.0833176 164 90 0
0.648579 -0.424717 -0.0833176 165 89 0
0.648579 -0.424717 -0.0833176 166 88 0
0.648579 -0.424717 -0.0833176 167 87 0
0.648579 -0.424717 -0.0833176 169 85 0
0.648579 -0.424717 -0.0833176 170 84 0
0.648579 -0.424717 -0.0833176 171 83 0
0.648579 -0.424717 -0.0833176 172 82 0
0.648579 -0.424717 -0.0833176 174 80 0
0.648579 -0.424717 -0.0833176 175 79 0
0.648579 -0.424717 -0.0833176 176 78 0
0.648579 -0.424717 -0.0833176 178 76 0
0.648579 -0.424717 -0.0833176 179 75 0
0.648579 -0.424717 -0.0833176 180 74 0
0.648579 -0.424717 -0.0833176 181 73 0
0.648579 -0.424717 -0.0833176 183 71 0
0.648579 -0.424717 -0.0833176 184 70 0
0.648579 -0.424717 -0.0833176 185 69 0
0.648579 -0.424717 -0.0833176 187 67 0
0.648579 -0.424717 -0.0833176 188 66 0
0.648579 -0.424717 -0.0833176 189 65 0
0.648579 -0.424717 -0.0833176 190 64 0
0.648579 -0.424717 -0.0833176 192 62 0
0.648579 -0.424717 -0.0833176 193 61 0
0.648579 -0.424717 -0.0833176 194 60 0
0.648579 -0.424717 -0.0833176 196 58 0
0.648579 -0.424717 -0.0833176 197 57 0
0.648579 -0.424717 -0.0833176 198 56 0
0.648579 -0.424717 -0.0833176 199 55 0
0.648579 -0.424717 -0.0833176 201 53 0
0.648579 -0.424717 -0.0833176 202 52 0
0.648579 -0.424717 -0.0833176 203 51 0
0.648579 -0.424717 -0.0833176 205 49 0
0.648579 -0.424717 -0.0833176 206 48 0
0.648579 -0.424717 -0.0833176 207 47 0
0.648579 -0.424717 -0.0833176 208 46 0
0.648579 -0.424717 -0.0833176 210 44 0
0.648579 -0.424717 -0.0833176 211 43 0
0.648579 -0.424717 -0.0833176 212 42 0
0.648579 -0.424717 -0.0833176 213 41 0
0.648579 -0.424717 -0.0833176 215 39 0
0.648579 -0.424717 -0.0833176 216 38 0
0.648579 -0.424717 -0.0833176 217 37 0
0.648579 -0.424717 -0.0833176 219 35 0
0.648579 -0.424717 -0.0833176 220 34 0
0.648579 -0.424717 -0.0833176 221 33 0
0.648579 -0.424717 -0.0833176 222 32 0
0.648579 -0.424717 -0.0833176 224 30 0
0.648579 -0.424717 -0.0833176 225 29 0
0.648579 -0.424717 -0.0833176 226 28 0
0.648579 -0.424717 -0.0833176 228 26 0
0.648579 -0.424717 -0.0833176 229 25 0
0.648579 -0.424717 -0.0833176 230 24 0
0.648579 -0.424717 -0.0833176 231 23 0
0.648579 -0.424717 -0.0833176 233 21 0
0.648579 -0.424717 -0.0833176 234 20 0
0.648579 -0.424717 -0.0833176 235 19 0
0.648579 -0.424717 -0.0833176 237 17 0
0.648579 -0.424717 -0.0833176 238 16 0
0.648579 -0.424717 -0.0833176 239 15 0
0.648579 -0.424717 -0.0833176 240 14 0
0.648579 -0.424717 -0.0833176 242 12 0
0.648579 -0.424717 -0.0833176 243 11 0
0.648579 -0.424717 -0.0833176 244 10 0
0.648579 -0.424717 -0.0833176 246 8 0
0.648579 -0.424717 -0.0833176 247 7 0
0.648579 -0.424717 -0.0833176 248 6 0
0.648579 -0.424717 -0.0833176 249 5 0
0.648579 -0.424717 -0.0833176 251 3 0
0.648579 -0.424717 -0.0833176 252 2 0
0.648579 -0.424717 -0.0833176 253 1 0
0.648579 -0.424717 -0.0833176 255 0 0
