ply
format ascii 1.0
comment Generated by robot_control PLYWriter
element vertex 14
property float x
property float y
property float z
property uchar red
property uchar green
property uchar blue
end_header
0.568848 -0.123472 -0.0393347 0 255 0
0.568833 -0.128272 -0.0399461 19 235 0
0.568827 -0.133111 -0.0401676 39 215 0
0.568887 -0.137939 -0.0405431 58 196 0
0.568894 -0.142756 -0.0410474 78 176 0
0.568866 -0.147564 -0.0416383 98 156 0
0.568836 -0.152374 -0.0422102 117 137 0
0.568819 -0.157194 -0.0426851 137 117 0
0.568811 -0.162026 -0.0430067 156 98 0
0.568804 -0.166867 -0.043154 176 78 0
0.568795 -0.171706 -0.0430645 196 58 0
0.568792 -0.176533 -0.0427951 215 39 0
0.568675 -0.181363 -0.0431198 235 19 0
0.568669 -0.186186 -0.0428296 255 0 0
