ply
format ascii 1.0
comment Generated by robot_control PLYWriter
element vertex 68
property float x
property float y
property float z
property uchar red
property uchar green
property uchar blue
end_header
0.614166 -0.189135 -0.109188 0 255 0
0.617513 -0.192236 -0.109142 3 251 0
0.620406 -0.196834 -0.109201 7 247 0
0.620523 -0.2025 -0.108696 11 243 0
0.619299 -0.208126 -0.107858 15 239 0
0.616006 -0.211817 -0.105851 19 235 0
0.612244 -0.21468 -0.103442 22 232 0
0.607035 -0.216434 -0.101883 26 228 0
0.601895 -0.214656 -0.100607 30 224 0
0.598567 -0.210786 -0.100873 34 220 0
0.596342 -0.2059 -0.101889 38 216 0
0.598717 -0.200969 -0.103345 41 213 0
0.603099 -0.198051 -0.104632 45 209 0
0.608256 -0.197211 -0.106106 49 205 0
0.613405 -0.199344 -0.107115 53 201 0
0.618251 -0.202744 -0.107238 57 197 0
0.620641 -0.207904 -0.106829 60 194 0
0.620332 -0.213798 -0.106109 64 190 0
0.619796 -0.219635 -0.105176 68 186 0
0.616163 -0.223787 -0.103848 72 182 0
0.611234 -0.226171 -0.101956 76 178 0
0.60556 -0.226984 -0.100613 79 175 0
0.600777 -0.224569 -0.0996911 83 171 0
0.598616 -0.219485 -0.0996441 87 167 0
0.598679 -0.21357 -0.100275 91 163 0
0.602441 -0.209491 -0.101496 95 159 0
0.607537 -0.207775 -0.103102 98 156 0
0.613141 -0.20887 -0.104057 102 152 0
0.617041 -0.21253 -0.104697 106 148 0
0.620788 -0.217021 -0.104924 110 144 0
0.621173 -0.222659 -0.104908 114 140 0
0.620334 -0.228414 -0.104526 117 137 0
0.617564 -0.23352 -0.103766 121 133 0
0.612867 -0.237032 -0.102788 125 129 0
0.607834 -0.236816 -0.101494 129 125 0
0.602501 -0.23504 -0.100403 133 121 0
0.599037 -0.230502 -0.0997381 137 117 0
0.598583 -0.224605 -0.0997112 140 114 0
0.602799 -0.220413 -0.100112 144 110 0
0.608181 -0.218495 -0.100903 148 106 0
0.613651 -0.219954 -0.101703 152 102 0
0.618034 -0.223858 -0.102539 156 98 0
0.621697 -0.22851 -0.103208 159 95 0
0.622803 -0.234121 -0.103683 163 91 0
0.619939 -0.239235 -0.103853 167 87 0
0.617843 -0.244811 -0.103791 171 83 0
0.613237 -0.246529 -0.103533 175 79 0
0.608063 -0.248777 -0.102997 178 76 0
0.602591 -0.247005 -0.102362 182 72 0
0.599081 -0.242454 -0.101605 186 68 0
0.598728 -0.236772 -0.101157 190 64 0
0.602131 -0.231906 -0.101134 194 60 0
0.606712 -0.228809 -0.101298 197 57 0
0.612544 -0.228854 -0.101758 201 53 0
0.616942 -0.232771 -0.102546 205 49 0
0.619921 -0.237716 -0.103326 209 45 0
0.622642 -0.242665 -0.103695 213 41 0
0.621655 -0.248291 -0.103507 216 38 0
0.62019 -0.253779 -0.103061 220 34 0
0.615647 -0.256214 -0.102094 224 30 0
0.610928 -0.258526 -0.101115 228 26 0
0.605143 -0.258992 -0.100393 232 22 0
0.601031 -0.256019 -0.100568 235 19 0
0.598706 -0.251052 -0.101236 239 15 0
0.599446 -0.246139 -0.102442 243 11 0
0.602594 -0.242088 -0.102689 247 7 0
0.606579 -0.240625 -0.102688 251 3 0
0.612183 -0.240723 -0.103151 255 0 0
