ply
format ascii 1.0
comment Generated by robot_control PLYWriter
element vertex 8
property float x
property float y
property float z
property uchar red
property uchar green
property uchar blue
end_header
0.538405 -0.248608 -0.0417485 0 255 0
0.539253 -0.243601 -0.0421006 36 218 0
0.539913 -0.238554 -0.0423676 72 182 0
0.540857 -0.233549 -0.0425625 109 145 0
0.541611 -0.228508 -0.0425742 145 109 0
0.54213 -0.223446 -0.0422853 182 72 0
0.542962 -0.218479 -0.0415085 218 36 0
0.543493 -0.2135 -0.0405703 255 0 0
