ply
format ascii 1.0
comment Generated by robot_control PLYWriter
element vertex 50
property float x
property float y
property float z
property uchar red
property uchar green
property uchar blue
end_header
0.622957 0.157823 -0.159345 0 255 0
0.625853 0.157708 -0.157918 5 249 0
0.629182 0.154726 -0.155289 10 244 0
0.63169 0.15145 -0.152108 15 239 0
0.634378 0.147602 -0.149176 20 234 0
0.6337 0.142099 -0.147148 26 228 0
0.631525 0.137099 -0.14525 31 223 0
0.627823 0.132462 -0.144487 36 218 0
0.622805 0.129604 -0.14444 41 213 0
0.617216 0.127609 -0.145317 46 208 0
0.611421 0.128427 -0.146589 52 202 0
0.60622 0.130137 -0.148731 57 197 0
0.603424 0.134323 -0.151419 62 192 0
0.602201 0.139624 -0.153782 67 187 0
0.602546 0.145345 -0.155375 72 182 0
0.605667 0.15022 -0.156169 78 176 0
0.61114 0.152552 -0.155885 83 171 0
0.61677 0.15331 -0.154948 88 166 0
0.621898 0.150781 -0.153357 93 161 0
0.625923 0.147381 -0.151544 98 156 0
0.627257 0.141886 -0.149709 104 150 0
0.626644 0.136748 -0.147223 109 145 0
0.62397 0.131503 -0.146025 114 140 0
0.620164 0.126976 -0.145243 119 135 0
0.615281 0.123508 -0.145278 124 130 0
0.609767 0.12192 -0.145994 130 124 0
0.603907 0.12267 -0.147084 135 119 0
0.599792 0.126334 -0.148913 140 114 0
0.596223 0.130525 -0.150856 145 109 0
0.596598 0.13582 -0.15264 150 104 0
0.598857 0.141214 -0.154036 156 98 0
0.602111 0.145853 -0.154387 161 93 0
0.60779 0.146465 -0.153879 166 88 0
0.613621 0.146876 -0.152716 171 83 0
0.618054 0.143882 -0.15089 176 78 0
0.620872 0.138977 -0.148955 182 72 0
0.621914 0.134184 -0.146316 187 67 0
0.620433 0.128494 -0.145068 192 62 0
0.61779 0.123404 -0.143377 197 57 0
0.613376 0.120359 -0.142617 202 52 0
0.608346 0.117602 -0.142877 208 46 0
0.602955 0.115624 -0.14392 213 41 0
0.597803 0.117762 -0.145404 218 36 0
0.592758 0.119434 -0.147896 223 31 0
0.590392 0.123783 -0.150503 228 26 0
0.590142 0.128971 -0.153012 234 20 0
0.590394 0.134309 -0.155358 239 15 0
0.594721 0.137762 -0.156499 244 10 0
0.598997 0.140965 -0.156241 249 5 0
0.603891 0.13987 -0.154788 255 0 0
