ply
format ascii 1.0
comment Generated by robot_control PLYWriter
element vertex 33
property float x
property float y
property float z
property uchar red
property uchar green
property uchar blue
end_header
0.632325 0.060876 -0.141293 0 255 0
0.636993 0.0591789 -0.139884 7 247 0
0.640376 0.0558883 -0.138142 15 239 0
0.64019 0.0500964 -0.137041 23 231 0
0.639129 0.0445511 -0.13621 31 223 0
0.635132 0.0405066 -0.135971 39 215 0
0.629434 0.0394872 -0.13648 47 207 0
0.623679 0.0393548 -0.137809 55 199 0
0.618809 0.0409752 -0.139236 63 191 0
0.615214 0.0454077 -0.140768 71 183 0
0.611576 0.0497964 -0.142332 79 175 0
0.611729 0.0549381 -0.143738 87 167 0
0.612279 0.0606958 -0.144835 95 159 0
0.615928 0.0651317 -0.145595 103 151 0
0.619579 0.069526 -0.146067 111 143 0
0.625437 0.0696551 -0.145991 119 135 0
0.631092 0.0703395 -0.145306 127 127 0
0.63651 0.0683659 -0.144061 135 119 0
0.63945 0.0638822 -0.142197 143 111 0
0.640421 0.0583328 -0.140665 151 103 0
0.638201 0.0531327 -0.139491 159 95 0
0.63377 0.0493867 -0.139134 167 87 0
0.628185 0.0476876 -0.139401 175 79 0
0.622557 0.0472112 -0.140736 183 71 0
0.617393 0.0495062 -0.142379 191 63 0
0.613013 0.0528935 -0.144416 199 55 0
0.6105 0.0576266 -0.146612 207 47 0
0.610568 0.0630155 -0.149001 215 39 0
0.610659 0.0681273 -0.151816 223 31 0
0.613543 0.0728665 -0.153815 231 23 0
0.616793 0.0769623 -0.155331 239 15 0
0.621251 0.0791648 -0.155813 247 7 0
0.626161 0.0801436 -0.15547 255 0 0
