ply
format ascii 1.0
comment Generated by robot_control PLYWriter
element vertex 115
property float x
property float y
property float z
property uchar red
property uchar green
property uchar blue
end_header
0.692439 0.0894857 -0.116149 0 255 0
0.696181 0.0863653 -0.116793 2 252 0
0.700387 0.0824431 -0.117503 4 250 0
0.703672 0.0779723 -0.118014 6 248 0
0.704245 0.0723187 -0.117986 8 246 0
0.705945 0.0669512 -0.117647 11 243 0
0.703099 0.0618065 -0.116853 13 241 0
0.700954 0.0563717 -0.115634 15 239 0
0.696366 0.0528629 -0.114474 17 237 0
0.692066 0.0490956 -0.113384 20 234 0
0.686111 0.0494624 -0.112589 22 232 0
0.680163 0.0498115 -0.11182 24 230 0
0.675188 0.0527905 -0.111437 26 228 0
0.672184 0.057906 -0.11145 29 225 0
0.67047 0.0632331 -0.11179 31 223 0
0.670607 0.0692315 -0.112301 33 221 0
0.673275 0.0741499 -0.113054 35 219 0
0.677799 0.077551 -0.113736 38 216 0
0.683511 0.0791163 -0.114417 40 214 0
0.689393 0.0793686 -0.115152 42 212 0
0.69493 0.0774088 -0.115799 44 210 0
0.699845 0.0739759 -0.116195 46 208 0
0.702245 0.0685535 -0.116317 49 205 0
0.704252 0.0628847 -0.116116 51 203 0
0.705408 0.0571446 -0.115779 53 201 0
0.704036 0.0515303 -0.115303 55 199 0
0.701048 0.0463688 -0.114613 58 196 0
0.696705 0.042604 -0.113963 60 194 0
0.691608 0.0394781 -0.113241 62 192 0
0.685831 0.0395038 -0.112406 64 190 0
0.679886 0.039726 -0.111857 67 187 0
0.674959 0.043132 -0.111341 69 185 0
0.671469 0.0478288 -0.111227 71 183 0
0.670494 0.0536448 -0.111422 73 181 0
0.670486 0.0596633 -0.111704 76 178 0
0.673845 0.0644982 -0.112336 78 176 0
0.678484 0.068256 -0.112875 80 174 0
0.683927 0.0700041 -0.11354 82 172 0
0.689865 0.0693285 -0.114192 85 169 0
0.695083 0.0670269 -0.114664 87 167 0
0.699764 0.0632444 -0.114927 89 165 0
0.703057 0.0585133 -0.115006 91 163 0
0.704612 0.0526982 -0.114871 93 161 0
0.705156 0.0467592 -0.114639 96 158 0
0.703962 0.0409901 -0.114308 98 156 0
0.700624 0.0360835 -0.113845 100 154 0
0.696311 0.0319202 -0.113294 102 152 0
0.69125 0.029286 -0.11265 105 149 0
0.685272 0.0290272 -0.111993 107 147 0
0.679639 0.0305607 -0.111466 109 145 0
0.674551 0.0337152 -0.11104 111 143 0
0.67114 0.0384694 -0.110807 114 140 0
0.670359 0.0443253 -0.110847 116 138 0
0.671727 0.0501682 -0.111128 118 136 0
0.674409 0.0554837 -0.111661 120 134 0
0.679464 0.0585715 -0.112356 123 131 0
0.6853 0.0599164 -0.1129 125 129 0
0.691138 0.0588808 -0.113504 127 127 0
0.696497 0.0561479 -0.113852 129 125 0
0.700981 0.0521829 -0.11414 131 123 0
0.704698 0.0474425 -0.114237 134 120 0
0.705055 0.0414825 -0.114226 136 118 0
0.70518 0.0354602 -0.114113 138 116 0
0.703637 0.0297713 -0.113827 140 114 0
0.699885 0.0251111 -0.113469 143 111 0
0.695446 0.0211284 -0.112967 145 109 0
0.689922 0.0194724 -0.112267 147 107 0
0.683939 0.0193342 -0.1116 149 105 0
0.678242 0.0209967 -0.111086 152 102 0
0.673576 0.0246358 -0.110655 154 100 0
0.670318 0.02963 -0.110384 156 98 0
0.670233 0.0356529 -0.11041 158 96 0
0.671488 0.0412101 -0.110711 161 93 0
0.6758 0.0453879 -0.11112 163 91 0
0.680825 0.048566 -0.111854 165 89 0
0.686604 0.0494553 -0.112528 167 87 0
0.69245 0.0482939 -0.113055 170 84 0
0.697892 0.0458976 -0.113576 172 82 0
0.702192 0.0418521 -0.114015 174 80 0
0.704735 0.0364948 -0.114309 176 78 0
0.70523 0.0305416 -0.114409 178 76 0
0.70483 0.0245351 -0.114317 181 73 0
0.703922 0.0185875 -0.114063 183 71 0
0.699933 0.0145767 -0.11369 185 69 0
0.695589 0.0105004 -0.113074 187 67 0
0.68975 0.00976007 -0.112408 190 64 0
0.684114 0.00833735 -0.111733 192 62 0
0.67844 0.0102485 -0.111058 194 60 0
0.674027 0.0136988 -0.110518 196 58 0
0.670527 0.0185531 -0.110131 199 55 0
0.67023 0.0244573 -0.110013 201 53 0
0.671007 0.0301995 -0.110113 203 51 0
0.674857 0.0348013 -0.11048 205 49 0
0.680272 0.0371922 -0.110917 208 46 0
0.685279 0.0395061 -0.111662 210 44 0
0.691264 0.0393264 -0.112316 212 42 0
0.696035 0.0364576 -0.113125 214 40 0
0.700327 0.0323423 -0.113927 216 38 0
0.703941 0.0275951 -0.11461 219 35 0
0.705228 0.02192 -0.115006 221 33 0
0.706513 0.0163205 -0.115076 223 31 0
0.704221 0.0107545 -0.114912 225 29 0
0.70094 0.00587264 -0.114367 228 26 0
0.696629 0.002075 -0.113626 230 24 0
0.691303 -0.000467384 -0.112503 232 22 0
0.685768 -0.00245171 -0.111543 234 20 0
0.680368 -0.000210989 -0.110795 237 17 0
0.675577 0.00263605 -0.110077 239 15 0
0.672794 0.00750974 -0.109777 241 13 0
0.670389 0.0127351 -0.109665 243 11 0
0.671445 0.0182073 -0.109652 246 8 0
0.674169 0.0229121 -0.109771 248 6 0
0.67774 0.0265277 -0.109998 250 4 0
0.682632 0.0290297 -0.110298 252 2 0
0.6882 0.0290237 -0.110931 255 0 0
