ply
format ascii 1.0
comment Generated by robot_control PLYWriter
element vertex 14
property float x
property float y
property float z
property uchar red
property uchar green
property uchar blue
end_header
0.574671 0.044556 -0.0366035 0 255 0
0.57468 0.0397415 -0.0362108 19 235 0
0.574689 0.0349298 -0.0357856 39 215 0
0.574697 0.0301187 -0.0353527 58 196 0
0.574707 0.025308 -0.0349161 78 176 0
0.574714 0.0204976 -0.0344762 98 156 0
0.574723 0.0156842 -0.0340714 117 137 0
0.574731 0.0108653 -0.0337401 137 117 0
0.574735 0.00604076 -0.0335066 156 98 0
0.574737 0.00121273 -0.0333537 176 78 0
0.57474 -0.00361634 -0.0332361 196 58 0
0.574743 -0.00844535 -0.0331165 215 39 0
0.574745 -0.0132749 -0.0330315 235 19 0
0.574745 -0.0181019 -0.0331659 255 0 0
