ply
format ascii 1.0
comment Generated by robot_control PLYWriter
element vertex 51
property float x
property float y
property float z
property uchar red
property uchar green
property uchar blue
end_header
0.640623 0.181623 -0.166195 0 255 0
0.644076 0.179456 -0.164231 5 249 0
0.649137 0.178062 -0.162742 10 244 0
0.650694 0.174007 -0.160002 15 239 0
0.652167 0.169047 -0.157454 20 234 0
0.651849 0.163776 -0.154603 25 229 0
0.649969 0.1586 -0.152563 30 224 0
0.646524 0.153768 -0.151643 35 219 0
0.641284 0.150909 -0.151645 40 214 0
0.635976 0.148238 -0.152316 45 209 0
0.63025 0.149156 -0.153746 51 204 0
0.625474 0.152028 -0.155694 56 198 0
0.622042 0.156021 -0.158424 61 193 0
0.62132 0.161542 -0.160171 66 188 0
0.621937 0.1666 -0.161966 71 183 0
0.625844 0.171113 -0.162532 76 178 0
0.631316 0.172132 -0.16229 81 173 0
0.637082 0.173199 -0.161186 86 168 0
0.641911 0.170954 -0.159094 91 163 0
0.645558 0.166621 -0.15719 96 158 0
0.646595 0.161282 -0.154874 102 153 0
0.645441 0.155699 -0.153136 107 147 0
0.642905 0.150422 -0.152004 112 142 0
0.638881 0.146342 -0.151137 117 137 0
0.6337 0.143325 -0.150975 122 132 0
0.628368 0.140601 -0.151402 127 127 0
0.622598 0.140947 -0.152375 132 122 0
0.618801 0.1453 -0.153921 137 117 0
0.615533 0.149888 -0.155915 142 112 0
0.614387 0.155319 -0.157655 147 107 0
0.616681 0.160509 -0.159338 153 101 0
0.620754 0.164616 -0.1598 158 96 0
0.626261 0.165907 -0.159339 163 91 0
0.632017 0.164792 -0.158217 168 86 0
0.636489 0.161259 -0.156332 173 81 0
0.640223 0.157212 -0.153974 178 76 0
0.640972 0.151895 -0.151687 183 71 0
0.638168 0.14712 -0.14945 188 66 0
0.635374 0.142146 -0.147896 193 61 0
0.631703 0.137667 -0.146704 198 56 0
0.626227 0.135225 -0.146606 204 50 0
0.620378 0.134989 -0.147447 209 45 0
0.614712 0.135968 -0.149116 214 40 0
0.610213 0.139097 -0.151233 219 35 0
0.608767 0.143824 -0.154184 224 30 0
0.607959 0.147876 -0.157264 229 25 0
0.609335 0.153157 -0.159395 234 20 0
0.612825 0.156755 -0.160969 239 15 0
0.616 0.1592 -0.161365 244 10 0
0.620005 0.158287 -0.161179 249 5 0
0.621343 0.157095 -0.160832 255 0 0
