ply
format ascii 1.0
comment Generated by robot_control PLYWriter
element vertex 101
property float x
property float y
property float z
property uchar red
property uchar green
property uchar blue
end_header
0.629965 -0.262462 -0.115177 0 255 0
0.633803 -0.26466 -0.114265 2 252 0
0.6369 -0.267561 -0.113887 5 249 0
0.63841 -0.272938 -0.113351 7 247 0
0.638434 -0.278877 -0.112695 10 244 0
0.63699 -0.283932 -0.112001 12 242 0
0.633402 -0.288227 -0.11118 15 239 0
0.628843 -0.291688 -0.110699 17 237 0
0.623137 -0.291489 -0.110779 20 234 0
0.617618 -0.289708 -0.111388 22 232 0
0.614477 -0.286103 -0.112444 25 229 0
0.612719 -0.280906 -0.113452 28 226 0
0.614291 -0.275742 -0.114284 30 224 0
0.617762 -0.27161 -0.114573 33 221 0
0.623439 -0.270464 -0.11444 35 219 0
0.628982 -0.271581 -0.113944 38 216 0
0.633737 -0.27409 -0.11332 40 214 0
0.637121 -0.278883 -0.112663 43 211 0
0.639167 -0.284477 -0.11215 45 209 0
0.638558 -0.290135 -0.111629 48 206 0
0.635995 -0.295494 -0.111117 51 204 0
0.631518 -0.299205 -0.110686 53 201 0
0.626522 -0.302074 -0.110461 56 198 0
0.621014 -0.299991 -0.110416 58 196 0
0.615961 -0.297634 -0.110643 61 193 0
0.614111 -0.2922 -0.111122 63 191 0
0.613679 -0.286892 -0.111547 66 188 0
0.617373 -0.282232 -0.111803 68 186 0
0.622706 -0.280526 -0.112007 71 183 0
0.628682 -0.280375 -0.112164 73 181 0
0.633761 -0.282985 -0.112111 76 178 0
0.637082 -0.287907 -0.111787 79 175 0
0.639609 -0.293292 -0.11123 81 173 0
0.638453 -0.298805 -0.110711 84 170 0
0.637844 -0.304576 -0.110347 86 168 0
0.633056 -0.308119 -0.10998 89 165 0
0.627602 -0.310457 -0.10979 91 163 0
0.621833 -0.310143 -0.109563 94 160 0
0.617421 -0.306333 -0.109449 96 158 0
0.614361 -0.301802 -0.109565 99 155 0
0.614623 -0.295981 -0.109879 102 153 0
0.617955 -0.291228 -0.110304 104 150 0
0.623329 -0.288935 -0.110723 107 147 0
0.629085 -0.289897 -0.110949 109 145 0
0.633773 -0.293553 -0.110947 112 142 0
0.638342 -0.297001 -0.110703 114 140 0
0.638607 -0.302852 -0.110339 117 137 0
0.640224 -0.308182 -0.10996 119 135 0
0.637605 -0.313532 -0.109525 122 132 0
0.633795 -0.318088 -0.1091 124 130 0
0.628326 -0.320107 -0.108701 127 127 0
0.622509 -0.319099 -0.108368 130 124 0
0.617064 -0.316709 -0.108171 132 122 0
0.61481 -0.311522 -0.108196 135 119 0
0.615113 -0.305605 -0.108519 137 117 0
0.618231 -0.300669 -0.10912 140 114 0
0.623805 -0.299424 -0.109838 142 112 0
0.629326 -0.29957 -0.110196 145 109 0
0.634614 -0.302359 -0.110215 147 107 0
0.63837 -0.306958 -0.110027 150 104 0
0.640805 -0.312138 -0.109563 153 101 0
0.63963 -0.317836 -0.109076 155 99 0
0.636988 -0.323144 -0.108405 158 96 0
0.633067 -0.327397 -0.107496 160 94 0
0.627794 -0.330128 -0.106806 163 91 0
0.622371 -0.328838 -0.106241 165 89 0
0.617594 -0.326724 -0.106001 168 86 0
0.614793 -0.321441 -0.106001 170 84 0
0.614793 -0.315515 -0.106479 173 81 0
0.618893 -0.311477 -0.107299 175 79 0
0.623644 -0.308364 -0.108293 178 76 0
0.629013 -0.310079 -0.108881 181 73 0
0.634385 -0.312618 -0.1091 183 71 0
0.638672 -0.316703 -0.109081 186 68 0
0.640566 -0.322148 -0.108858 188 66 0
0.639638 -0.327866 -0.108265 191 63 0
0.637106 -0.333208 -0.107527 193 61 0
0.633331 -0.337412 -0.106234 196 58 0
0.628096 -0.339669 -0.105293 198 56 0
0.622375 -0.338753 -0.104464 201 53 0
0.617963 -0.335683 -0.103715 204 50 0
0.614582 -0.331107 -0.103767 206 48 0
0.614648 -0.325158 -0.104345 209 45 0
0.617542 -0.320805 -0.105286 211 43 0
0.622539 -0.318415 -0.106304 214 40 0
0.628387 -0.318605 -0.107433 216 38 0
0.633776 -0.320571 -0.108092 219 35 0
0.637194 -0.324885 -0.108446 221 33 0
0.640548 -0.329667 -0.108522 224 30 0
0.640621 -0.335617 -0.1081 226 28 0
0.638851 -0.340919 -0.10722 229 25 0
0.635651 -0.345385 -0.10583 232 22 0
0.631048 -0.348506 -0.104165 234 20 0
0.625332 -0.348801 -0.102792 237 17 0
0.620494 -0.347214 -0.101678 239 15 0
0.616645 -0.344286 -0.101228 242 12 0
0.614466 -0.339199 -0.101457 244 10 0
0.615354 -0.333851 -0.102316 247 7 0
0.618812 -0.329909 -0.103413 249 5 0
0.623298 -0.328199 -0.104687 252 2 0
0.628035 -0.326827 -0.105667 255 0 0
