ply
format ascii 1.0
comment Generated by robot_control PLYWriter
element vertex 200
property float x
property float y
property float z
property uchar red
property uchar green
property uchar blue
end_header
0.551953 -0.228087 -0.146278 0 255 0
0.551953 -0.228087 -0.146278 1 253 0
0.551953 -0.228087 -0.146278 2 252 0
0.551953 -0.228087 -0.146278 3 251 0
0.551953 -0.228087 -0.146278 5 249 0
0.551953 -0.228087 -0.146278 6 248 0
0.551953 -0.228087 -0.146278 7 247 0
0.551953 -0.228087 -0.146278 8 246 0
0.551953 -0.228087 -0.146278 10 244 0
0.551953 -0.228087 -0.146278 11 243 0
0.551953 -0.228087 -0.146278 12 242 0
0.551953 -0.228087 -0.146278 14 240 0
0.551953 -0.228087 -0.146278 15 239 0
0.551953 -0.228087 -0.146278 16 238 0
0.551953 -0.228087 -0.146278 17 237 0
0.551953 -0.228087 -0.146278 19 235 0
0.551953 -0.228087 -0.146278 20 234 0
0.551953 -0.228087 -0.146278 21 233 0
0.551953 -0.228087 -0.146278 23 231 0
0.551953 -0.228087 -0.146278 24 230 0
0.551953 -0.228087 -0.146278 25 229 0
0.551953 -0.228087 -0.146278 26 228 0
0.551953 -0.228087 -0.146278 28 226 0
0.551953 -0.228087 -0.146278 29 225 0
0.551953 -0.228087 -0.146278 30 224 0
0.551953 -0.228087 -0.146278 32 222 0
0.551953 -0.228087 -0.146278 33 221 0
0.551953 -0.228087 -0.146278 34 220 0
0.551953 -0.228087 -0.146278 35 219 0
0.551953 -0.228087 -0.146278 37 217 0
0.551953 -0.228087 -0.146278 38 216 0
0.551953 -0.228087 -0.146278 39 215 0
0.551953 -0.228087 -0.146278 41 213 0
0.551953 -0.228087 -0.146278 42 212 0
0.551953 -0.228087 -0.146278 43 211 0
0.551953 -0.228087 -0.146278 44 210 0
0.551953 -0.228087 -0.146278 46 208 0
0.551953 -0.228087 -0.146278 47 207 0
0.551953 -0.228087 -0.146278 48 206 0
0.551953 -0.228087 -0.146278 49 205 0
0.551953 -0.228087 -0.146278 51 203 0
0.551953 -0.228087 -0.146278 52 202 0
0.551953 -0.228087 -0.146278 53 201 0
0.551953 -0.228087 -0.146278 55 199 0
0.551953 -0.228087 -0.146278 56 198 0
0.551953 -0.228087 -0.146278 57 197 0
0.551953 -0.228087 -0.146278 58 196 0
0.551953 -0.228087 -0.146278 60 194 0
0.551953 -0.228087 -0.146278 61 193 0
0.551953 -0.228087 -0.146278 62 192 0
0.551953 -0.228087 -0.146278 64 190 0
0.551953 -0.228087 -0.146278 65 189 0
0.551953 -0.228087 -0.146278 66 188 0
0.551953 -0.228087 -0.146278 67 187 0
0.551953 -0.228087 -0.146278 69 185 0
0.551953 -0.228087 -0.146278 70 184 0
0.551953 -0.228087 -0.146278 71 183 0
0.551953 -0.228087 -0.146278 73 181 0
0.551953 -0.228087 -0.146278 74 180 0
0.551953 -0.228087 -0.146278 75 179 0
0.551953 -0.228087 -0.146278 76 178 0
0.551953 -0.228087 -0.146278 78 176 0
0.551953 -0.228087 -0.146278 79 175 0
0.551953 -0.228087 -0.146278 80 174 0
0.551953 -0.228087 -0.146278 82 172 0
0.551953 -0.228087 -0.146278 83 171 0
0.551953 -0.228087 -0.146278 84 170 0
0.551953 -0.228087 -0.146278 85 169 0
0.551953 -0.228087 -0.146278 87 167 0
0.551953 -0.228087 -0.146278 88 166 0
0.551953 -0.228087 -0.146278 89 165 0
0.551953 -0.228087 -0.146278 90 164 0
0.551953 -0.228087 -0.146278 92 162 0
0.551953 -0.228087 -0.146278 93 161 0
0.551953 -0.228087 -0.146278 94 160 0
0.551953 -0.228087 -0.146278 96 158 0
0.551953 -0.228087 -0.146278 97 157 0
0.551953 -0.228087 -0.146278 98 156 0
0.551953 -0.228087 -0.146278 99 155 0
0.551953 -0.228087 -0.146278 101 153 0
0.551953 -0.228087 -0.146278 102 152 0
0.551953 -0.228087 -0.146278 103 151 0
0.551953 -0.228087 -0.146278 105 149 0
0.551953 -0.228087 -0.146278 106 148 0
0.551953 -0.228087 -0.146278 107 147 0
0.551953 -0.228087 -0.146278 108 146 0
0.551953 -0.228087 -0.146278 110 144 0
0.551953 -0.228087 -0.146278 111 143 0
0.551953 -0.228087 -0.146278 112 142 0
0.551953 -0.228087 -0.146278 114 140 0
0.551953 -0.228087 -0.146278 115 139 0
0.551953 -0.228087 -0.146278 116 138 0
0.551953 -0.228087 -0.146278 117 137 0
0.551953 -0.228087 -0.146278 119 135 0
0.551953 -0.228087 -0.146278 120 134 0
0.551953 -0.228087 -0.146278 121 133 0
0.551953 -0.228087 -0.146278 123 131 0
0.551953 -0.228087 -0.146278 124 130 0
0.551953 -0.228087 -0.146278 125 129 0
0.551953 -0.228087 -0.146278 126 128 0
0.551953 -0.228087 -0.146278 128 126 0
0.551953 -0.228087 -0.146278 129 125 0
0.551953 -0.228087 -0.146278 130 124 0
0.551953 -0.228087 -0.146278 131 123 0
0.551953 -0.228087 -0.146278 133 121 0
0.551953 -0.228087 -0.146278 134 120 0
0.551953 -0.228087 -0.146278 135 119 0
0.551953 -0.228087 -0.146278 137 117 0
0.551953 -0.228087 -0.146278 138 116 0
0.551953 -0.228087 -0.146278 139 115 0
0.551953 -0.228087 -0.146278 140 114 0
0.551953 -0.228087 -0.146278 142 112 0
0.551953 -0.228087 -0.146278 143 111 0
0.551953 -0.228087 -0.146278 144 110 0
0.551953 -0.228087 -0.146278 146 108 0
0.551953 -0.228087 -0.146278 147 107 0
0.551953 -0.228087 -0.146278 148 106 0
0.551953 -0.228087 -0.146278 149 105 0
0.551953 -0.228087 -0.146278 151 103 0
0.551953 -0.228087 -0.146278 152 102 0
0.551953 -0.228087 -0.146278 153 101 0
0.551953 -0.228087 -0.146278 155 99 0
0.551953 -0.228087 -0.146278 156 98 0
0.551953 -0.228087 -0.146278 157 97 0
0.551953 -0.228087 -0.146278 158 96 0
0.551953 -0.228087 -0.146278 160 94 0
0.551953 -0.228087 -0.146278 161 93 0
0.551953 -0.228087 -0.146278 162 92 0
0.551953 -0.228087 -0.146278 164 90 0
0.551953 -0.228087 -0.146278 165 89 0
0.551953 -0.228087 -0.146278 166 88 0
0.551953 -0.228087 -0.146278 167 87 0
0.551953 -0.228087 -0.146278 169 85 0
0.551953 -0.228087 -0.146278 170 84 0
0.551953 -0.228087 -0.146278 171 83 0
0.551953 -0.228087 -0.146278 172 82 0
0.551953 -0.228087 -0.146278 174 80 0
0.551953 -0.228087 -0.146278 175 79 0
0.551953 -0.228087 -0.146278 176 78 0
0.551953 -0.228087 -0.146278 178 76 0
0.551953 -0.228087 -0.146278 179 75 0
0.551953 -0.228087 -0.146278 180 74 0
0.551953 -0.228087 -0.146278 181 73 0
0.551953 -0.228087 -0.146278 183 71 0
0.551953 -0.228087 -0.146278 184 70 0
0.551953 -0.228087 -0.146278 185 69 0
0.551953 -0.228087 -0.146278 187 67 0
0.551953 -0.228087 -0.146278 188 66 0
0.551953 -0.228087 -0.146278 189 65 0
0.551953 -0.228087 -0.146278 190 64 0
0.551953 -0.228087 -0.146278 192 62 0
0.551953 -0.228087 -0.146278 193 61 0
0.551953 -0.228087 -0.146278 194 60 0
0.551953 -0.228087 -0.146278 196 58 0
0.551953 -0.228087 -0.146278 197 57 0
0.551953 -0.228087 -0.146278 198 56 0
0.551953 -0.228087 -0.146278 199 55 0
0.551953 -0.228087 -0.146278 201 53 0
0.551953 -0.228087 -0.146278 202 52 0
0.551953 -0.228087 -0.146278 203 51 0
0.551953 -0.228087 -0.146278 205 49 0
0.551953 -0.228087 -0.146278 206 48 0
0.551953 -0.228087 -0.146278 207 47 0
0.551953 -0.228087 -0.146278 208 46 0
0.551953 -0.228087 -0.146278 210 44 0
0.551953 -0.228087 -0.146278 211 43 0
0.551953 -0.228087 -0.146278 212 42 0
0.551953 -0.228087 -0.146278 213 41 0
0.551953 -0.228087 -0.146278 215 39 0
0.551953 -0.228087 -0.146278 216 38 0
0.551953 -0.228087 -0.146278 217 37 0
0.551953 -0.228087 -0.146278 219 35 0
0.551953 -0.228087 -0.146278 220 34 0
0.551953 -0.228087 -0.146278 221 33 0
0.551953 -0.228087 -0.146278 222 32 0
0.551953 -0.228087 -0.146278 224 30 0
0.551953 -0.228087 -0.146278 225 29 0
0.551953 -0.228087 -0.146278 226 28 0
0.551953 -0.228087 -0.146278 228 26 0
0.551953 -0.228087 -0.146278 229 25 0
0.551953 -0.228087 -0.146278 230 24 0
0.551953 -0.228087 -0.146278 231 23 0
0.551953 -0.228087 -0.146278 233 21 0
0.551953 -0.228087 -0.146278 234 20 0
0.551953 -0.228087 -0.146278 235 19 0
0.551953 -0.228087 -0.146278 237 17 0
0.551953 -0.228087 -0.146278 238 16 0
0.551953 -0.228087 -0.146278 239 15 0
0.551953 -0.228087 -0.146278 240 14 0
0.551953 -0.228087 -0.146278 242 12 0
0.551953 -0.228087 -0.146278 243 11 0
0.551953 -0.228087 -0.146278 244 10 0
0.551953 -0.228087 -0.146278 246 8 0
0.551953 -0.228087 -0.146278 247 7 0
0.551953 -0.228087 -0.146278 248 6 0
0.551953 -0.228087 -0.146278 249 5 0
0.551953 -0.228087 -0.146278 251 3 0
0.551953 -0.228087 -0.146278 252 2 0
0.551953 -0.228087 -0.146278 253 1 0
0.551953 -0.228087 -0.146278 255 0 0
