ply
format ascii 1.0
comment Generated by robot_control PLYWriter
element vertex 14
property float x
property float y
property float z
property uchar red
property uchar green
property uchar blue
end_header
0.622392 -0.29892 -0.0206891 0 255 0
0.622711 -0.303799 -0.0212142 19 235 0
0.62316 -0.308687 -0.0216062 39 215 0
0.623459 -0.313592 -0.0219469 58 196 0
0.623765 -0.3185 -0.0222088 78 176 0
0.624047 -0.323417 -0.0222546 98 156 0
0.624318 -0.328333 -0.0220873 117 137 0
0.624758 -0.333226 -0.0217277 137 117 0
0.625014 -0.338114 -0.0211792 156 98 0
0.625242 -0.342996 -0.0205622 176 78 0
0.625478 -0.347865 -0.0198547 196 58 0
0.62577 -0.352734 -0.0191695 215 39 0
0.626163 -0.357588 -0.0184342 235 19 0
0.626593 -0.36245 -0.0177902 255 0 0
