ply
format ascii 1.0
comment Generated by robot_control PLYWriter
element vertex 29
property float x
property float y
property float z
property uchar red
property uchar green
property uchar blue
end_header
0.589495 0.0819609 -0.142942 0 255 0
0.592282 0.0783917 -0.140559 9 245 0
0.594964 0.0741758 -0.138345 18 236 0
0.593995 0.0686481 -0.137026 27 227 0
0.592493 0.0631809 -0.135909 36 218 0
0.588744 0.0593452 -0.135543 45 209 0
0.583425 0.0565244 -0.135793 54 200 0
0.577692 0.054954 -0.136518 63 191 0
0.572368 0.0565585 -0.138197 72 182 0
0.567095 0.0586188 -0.14007 81 173 0
0.564658 0.0633639 -0.141986 91 163 0
0.564535 0.0692813 -0.14318 100 154 0
0.568923 0.0731023 -0.14374 109 145 0
0.573765 0.0763604 -0.143514 118 136 0
0.579658 0.0754958 -0.142607 127 127 0
0.584622 0.0728403 -0.140833 136 118 0
0.585767 0.0675277 -0.138689 145 109 0
0.585873 0.0620236 -0.13709 154 100 0
0.583157 0.056881 -0.135667 163 91 0
0.580051 0.05182 -0.134679 173 81 0
0.574507 0.0494895 -0.134345 182 72 0
0.568772 0.0476264 -0.134628 191 63 0
0.563285 0.0493286 -0.135651 200 54 0
0.55847 0.0514463 -0.137298 209 45 0
0.554973 0.055486 -0.140086 218 36 0
0.556372 0.0606877 -0.142283 227 27 0
0.557378 0.0658653 -0.144758 236 18 0
0.561431 0.0680262 -0.146961 245 9 0
0.566231 0.0695652 -0.147086 255 0 0
