ply
format ascii 1.0
comment Generated by robot_control PLYWriter
element vertex 14
property float x
property float y
property float z
property uchar red
property uchar green
property uchar blue
end_header
0.6643 -0.0125917 -0.0374161 0 255 0
0.66384 -0.00749611 -0.0376159 19 235 0
0.663595 -0.00238127 -0.0376218 39 215 0
0.663323 0.00273231 -0.0375684 58 196 0
0.662989 0.00783795 -0.0373863 78 176 0
0.66264 0.012868 -0.0366004 98 156 0
0.662328 0.0176322 -0.0348405 117 137 0
0.662057 0.0220928 -0.0323559 137 117 0
0.661793 0.0263862 -0.0295767 156 98 0
0.661492 0.0306571 -0.0267675 176 78 0
0.660984 0.0349013 -0.0239466 196 58 0
0.660499 0.0393432 -0.0214452 215 39 0
0.660038 0.0432296 -0.0181754 235 19 0
0.659782 0.0475168 -0.0155346 255 0 0
