ply
format ascii 1.0
comment Generated by robot_control PLYWriter
element vertex 58
property float x
property float y
property float z
property uchar red
property uchar green
property uchar blue
end_header
0.523895 0.173187 -0.112338 0 255 0
0.529029 0.171225 -0.111452 4 250 0
0.53305 0.167325 -0.110821 8 246 0
0.536548 0.163723 -0.110033 13 241 0
0.538503 0.15823 -0.109429 17 237 0
0.539869 0.152826 -0.108697 22 232 0
0.538644 0.147282 -0.108027 26 228 0
0.535895 0.142036 -0.107661 31 223 0
0.531466 0.138099 -0.107549 35 219 0
0.52565 0.137595 -0.107672 40 214 0
0.519695 0.137325 -0.108087 44 210 0
0.514329 0.139532 -0.108621 49 205 0
0.510321 0.143916 -0.10929 53 201 0
0.508502 0.149246 -0.110004 58 196 0
0.508496 0.155191 -0.110603 62 192 0
0.511201 0.160457 -0.111015 67 187 0
0.513417 0.165878 -0.1112 71 183 0
0.517844 0.169682 -0.111256 76 178 0
0.523765 0.170327 -0.111215 80 174 0
0.529538 0.171303 -0.111062 85 169 0
0.535225 0.169474 -0.110796 89 165 0
0.540606 0.166961 -0.110338 93 161 0
0.545105 0.163086 -0.109847 98 156 0
0.54805 0.157911 -0.109302 102 152 0
0.548182 0.151979 -0.108788 107 147 0
0.548223 0.146021 -0.108287 111 143 0
0.545666 0.140679 -0.107958 116 138 0
0.541016 0.137161 -0.107742 120 134 0
0.535326 0.135408 -0.107704 125 129 0
0.529451 0.135774 -0.107728 129 125 0
0.523888 0.137928 -0.107828 134 120 0
0.52008 0.142151 -0.108126 138 116 0
0.517958 0.147727 -0.108453 143 111 0
0.517908 0.153178 -0.108902 147 107 0
0.520192 0.158629 -0.109375 152 102 0
0.523176 0.163654 -0.10976 156 98 0
0.528069 0.166606 -0.110126 161 93 0
0.533752 0.168435 -0.110407 165 89 0
0.53955 0.169502 -0.110528 170 84 0
0.545061 0.16813 -0.110486 174 80 0
0.550011 0.164823 -0.110311 178 76 0
0.554204 0.160956 -0.110031 183 71 0
0.557106 0.155742 -0.10968 187 67 0
0.55858 0.150174 -0.109194 192 62 0
0.556687 0.144728 -0.108666 196 58 0
0.554591 0.139182 -0.108172 201 53 0
0.550059 0.135377 -0.107725 205 49 0
0.544353 0.13383 -0.107163 210 44 0
0.538427 0.133836 -0.106803 214 40 0
0.53331 0.136716 -0.106848 219 35 0
0.528653 0.140435 -0.107189 223 31 0
0.525886 0.145385 -0.107732 228 26 0
0.527089 0.151163 -0.108384 232 22 0
0.528166 0.156785 -0.109089 237 17 0
0.532204 0.161114 -0.109786 241 13 0
0.536446 0.165319 -0.11005 246 8 0
0.540582 0.16737 -0.110259 250 4 0
0.546522 0.167374 -0.110356 255 0 0
