ply
format ascii 1.0
comment Generated by robot_control PLYWriter
element vertex 43
property float x
property float y
property float z
property uchar red
property uchar green
property uchar blue
end_header
0.590153 0.0948222 -0.163709 0 255 0
0.595041 0.0940362 -0.161887 6 248 0
0.598674 0.0920506 -0.158798 12 242 0
0.60175 0.0893644 -0.155772 18 236 0
0.604658 0.0849 -0.153466 24 230 0
0.602003 0.0813131 -0.151521 30 224 0
0.599471 0.0769348 -0.149771 36 218 0
0.594083 0.0751487 -0.150064 42 212 0
0.589269 0.0778804 -0.151646 48 206 0
0.584948 0.0807874 -0.154281 54 200 0
0.583254 0.085566 -0.157025 60 194 0
0.583259 0.0908628 -0.159803 66 188 0
0.585819 0.0955874 -0.16219 72 182 0
0.589699 0.0990439 -0.163856 78 176 0
0.59512 0.100909 -0.164898 85 169 0
0.600629 0.101232 -0.16443 91 163 0
0.605236 0.0977346 -0.162896 97 157 0
0.609312 0.094128 -0.160446 103 151 0
0.610046 0.0889482 -0.158493 109 145 0
0.606617 0.0848411 -0.156386 115 139 0
0.601349 0.08256 -0.15619 121 133 0
0.596805 0.0848943 -0.156834 127 127 0
0.591495 0.0857063 -0.15882 133 121 0
0.589036 0.0904816 -0.161003 139 115 0
0.588682 0.0953137 -0.164109 145 109 0
0.590751 0.100407 -0.166557 151 103 0
0.594023 0.104865 -0.168603 157 97 0
0.5989 0.107353 -0.170298 163 91 0
0.604423 0.109168 -0.170484 170 84 0
0.610387 0.108534 -0.170057 176 78 0
0.613322 0.10392 -0.16862 182 72 0
0.61624 0.0997152 -0.165753 188 66 0
0.61396 0.0952538 -0.162953 194 60 0
0.610357 0.0920079 -0.161413 200 54 0
0.605044 0.089533 -0.161317 206 48 0
0.600433 0.092109 -0.162387 212 42 0
0.597285 0.0965914 -0.164637 218 36 0
0.595374 0.0995211 -0.168144 224 30 0
0.595454 0.104078 -0.171615 230 24 0
0.596836 0.109106 -0.174267 236 18 0
0.599771 0.1117 -0.177306 242 12 0
0.603686 0.114715 -0.178882 248 6 0
0.608855 0.115098 -0.178757 255 0 0
