ply
format ascii 1.0
comment Generated by robot_control PLYWriter
element vertex 89
property float x
property float y
property float z
property uchar red
property uchar green
property uchar blue
end_header
0.712104 0.115956 -0.138399 0 255 0
0.716731 0.113694 -0.137379 2 252 0
0.720333 0.10967 -0.136183 5 249 0
0.722326 0.105568 -0.134807 8 246 0
0.7206 0.100502 -0.133422 11 243 0
0.72099 0.0948578 -0.131653 14 240 0
0.718446 0.0907811 -0.130493 17 237 0
0.713566 0.0873862 -0.129799 20 234 0
0.708144 0.086123 -0.129388 23 231 0
0.702676 0.087532 -0.129355 26 228 0
0.697876 0.0905173 -0.130011 28 226 0
0.69608 0.0959202 -0.13083 31 223 0
0.696299 0.101398 -0.132038 34 220 0
0.700501 0.10446 -0.132955 37 217 0
0.706064 0.106351 -0.133392 40 214 0
0.711984 0.10586 -0.133406 43 211 0
0.716756 0.103317 -0.132869 46 208 0
0.720743 0.0989021 -0.132207 49 205 0
0.722824 0.093644 -0.131049 52 202 0
0.722413 0.0878685 -0.129702 55 199 0
0.719544 0.0826862 -0.128675 57 197 0
0.716971 0.0773459 -0.127845 60 194 0
0.711103 0.076451 -0.127453 63 191 0
0.70601 0.0764325 -0.127206 66 188 0
0.700223 0.0771032 -0.127288 69 185 0
0.697831 0.0825179 -0.127784 72 182 0
0.696686 0.08829 -0.128708 75 179 0
0.699609 0.0932872 -0.129396 78 176 0
0.704789 0.0960945 -0.129932 81 173 0
0.710628 0.0960367 -0.129987 84 170 0
0.716353 0.0942265 -0.129735 86 168 0
0.720435 0.090272 -0.129125 89 165 0
0.72294 0.0848777 -0.128243 92 162 0
0.7237 0.0794869 -0.127327 95 159 0
0.722637 0.0737288 -0.126431 98 156 0
0.719201 0.069357 -0.125684 101 153 0
0.714582 0.0656288 -0.125036 104 150 0
0.708712 0.0666935 -0.124659 107 147 0
0.702806 0.0665113 -0.124737 110 144 0
0.698389 0.0703083 -0.125068 113 141 0
0.697421 0.0760572 -0.12582 115 139 0
0.699 0.0815563 -0.126481 118 136 0
0.703195 0.0856025 -0.127059 121 133 0
0.709058 0.0861175 -0.127311 124 130 0
0.714891 0.0851169 -0.127084 127 127 0
0.719123 0.0811267 -0.126615 130 124 0
0.72214 0.0760097 -0.125863 133 121 0
0.725006 0.0710867 -0.124707 136 118 0
0.723813 0.0653806 -0.12369 139 115 0
0.720569 0.0605112 -0.122782 141 113 0
0.717323 0.0555954 -0.121896 144 110 0
0.711648 0.0542699 -0.121497 147 107 0
0.706024 0.0563793 -0.121354 150 104 0
0.70075 0.0591427 -0.121654 153 101 0
0.698775 0.0645077 -0.122305 156 98 0
0.698867 0.0701569 -0.123153 159 95 0
0.703663 0.0736917 -0.123833 162 92 0
0.709241 0.0748367 -0.124271 165 89 0
0.715258 0.074759 -0.124259 168 86 0
0.719995 0.0715276 -0.123859 170 84 0
0.72366 0.067022 -0.123139 173 81 0
0.725755 0.0614591 -0.122282 176 78 0
0.725 0.0561398 -0.121245 179 75 0
0.721996 0.0510224 -0.120271 182 72 0
0.718839 0.0463075 -0.119331 185 69 0
0.713471 0.0437673 -0.118482 188 66 0
0.707616 0.0442827 -0.118112 191 63 0
0.702338 0.0471338 -0.118166 194 60 0
0.699299 0.0515906 -0.118717 197 57 0
0.699343 0.0572795 -0.119845 199 55 0
0.702443 0.0615226 -0.120763 202 52 0
0.707487 0.063919 -0.121395 205 49 0
0.713018 0.0655954 -0.121744 208 46 0
0.71789 0.0633802 -0.121784 211 43 0
0.722291 0.0594258 -0.121411 214 40 0
0.725535 0.054483 -0.120589 217 37 0
0.72708 0.0490397 -0.119581 220 34 0
0.725762 0.0433756 -0.118604 223 31 0
0.723067 0.0390246 -0.117319 226 28 0
0.718757 0.0356175 -0.116264 228 26 0
0.713526 0.0329228 -0.115519 231 23 0
0.708374 0.0348766 -0.115054 234 20 0
0.703363 0.037046 -0.115026 237 17 0
0.700335 0.0415641 -0.115771 240 14 0
0.700474 0.04746 -0.116738 243 11 0
0.702651 0.0517334 -0.117998 246 8 0
0.707112 0.0536422 -0.119177 249 5 0
0.710706 0.0541319 -0.119594 252 2 0
0.714831 0.0555226 -0.120084 255 0 0
