ply
format ascii 1.0
comment Generated by robot_control PLYWriter
element vertex 10
property float x
property float y
property float z
property uchar red
property uchar green
property uchar blue
end_header
0.66694 -0.0260652 -0.0357018 0 255 0
0.666905 -0.0312356 -0.0364249 28 226 0
0.667253 -0.0364125 -0.03701 56 198 0
0.667607 -0.041609 -0.0373929 85 169 0
0.66791 -0.0468216 -0.0375063 113 141 0
0.668155 -0.0520352 -0.0373193 141 113 0
0.66852 -0.0572326 -0.0369653 170 84 0
0.668464 -0.0624426 -0.0366058 198 56 0
0.668414 -0.0676528 -0.0362477 226 28 0
0.668391 -0.0728699 -0.0360276 255 0 0
