ply
format ascii 1.0
comment Generated by robot_control PLYWriter
element vertex 73
property float x
property float y
property float z
property uchar red
property uchar green
property uchar blue
end_header
0.596661 -0.338401 -0.0214263 0 255 0
0.600824 -0.340095 -0.0209913 3 251 0
0.604068 -0.343902 -0.0204298 7 247 0
0.604989 -0.349386 -0.0200176 10 244 0
0.603371 -0.3548 -0.0200415 14 240 0
0.598808 -0.358537 -0.0202438 17 237 0
0.592953 -0.358547 -0.0205197 21 233 0
0.587519 -0.3564 -0.0210096 24 230 0
0.582659 -0.353718 -0.0216221 28 226 0
0.580604 -0.348395 -0.0221295 31 223 0
0.580304 -0.342446 -0.0223949 35 219 0
0.580591 -0.336496 -0.0226006 38 216 0
0.584157 -0.332453 -0.0227559 42 212 0
0.588746 -0.328644 -0.0227007 46 208 0
0.594036 -0.326334 -0.0223609 49 205 0
0.599635 -0.327831 -0.0219366 53 201 0
0.604091 -0.331687 -0.021469 56 198 0
0.606409 -0.337034 -0.0212662 60 194 0
0.606098 -0.342849 -0.0212408 63 191 0
0.601744 -0.346682 -0.0213137 67 187 0
0.596711 -0.348364 -0.0215683 70 184 0
0.590958 -0.347282 -0.0220278 74 180 0
0.586034 -0.344214 -0.022427 77 177 0
0.581697 -0.340716 -0.0225781 81 173 0
0.580594 -0.334998 -0.0225978 85 169 0
0.580588 -0.329033 -0.0225373 88 166 0
0.58343 -0.32393 -0.0224234 92 162 0
0.587969 -0.320096 -0.0223333 95 159 0
0.593256 -0.317366 -0.0221391 99 155 0
0.598614 -0.318242 -0.0218279 102 152 0
0.603917 -0.319605 -0.0215342 106 148 0
0.607977 -0.323876 -0.0213508 109 145 0
0.608025 -0.329424 -0.0213984 113 141 0
0.605093 -0.334595 -0.0216782 116 138 0
0.600711 -0.338582 -0.0219451 120 134 0
0.594757 -0.338422 -0.0221717 123 131 0
0.589246 -0.336481 -0.0222825 127 127 0
0.585265 -0.332068 -0.0223234 131 123 0
0.582653 -0.327151 -0.0222852 134 120 0
0.5827 -0.321189 -0.0221582 138 116 0
0.584461 -0.315541 -0.0220168 141 113 0
0.586997 -0.310185 -0.0218142 145 109 0
0.592658 -0.308327 -0.0215356 148 106 0
0.598432 -0.30697 -0.0212953 152 102 0
0.603683 -0.308891 -0.0210577 155 99 0
0.607791 -0.31318 -0.0210066 159 95 0
0.608493 -0.318908 -0.02107 162 92 0
0.606865 -0.323961 -0.0213388 166 88 0
0.602417 -0.327639 -0.0217007 170 84 0
0.596643 -0.328431 -0.0219399 173 81 0
0.590942 -0.327497 -0.0221324 177 77 0
0.587117 -0.323138 -0.0222061 180 74 0
0.584509 -0.317893 -0.0220921 184 70 0
0.584761 -0.311955 -0.021855 187 67 0
0.584869 -0.306044 -0.0215602 191 63 0
0.588512 -0.30157 -0.0212263 194 60 0
0.593771 -0.298786 -0.0208575 198 56 0
0.598762 -0.296317 -0.020439 201 53 0
0.604072 -0.298476 -0.0201178 205 49 0
0.608536 -0.302408 -0.0200202 208 46 0
0.610549 -0.307615 -0.0201517 212 42 0
0.610019 -0.31335 -0.0203861 216 38 0
0.605693 -0.317364 -0.0206783 219 35 0
0.600201 -0.318298 -0.0209075 223 31 0
0.594298 -0.318118 -0.0212686 226 28 0
0.589279 -0.314909 -0.0215555 230 24 0
0.586901 -0.309987 -0.021802 233 21 0
0.584556 -0.304878 -0.0218643 237 17 0
0.585879 -0.299534 -0.021665 240 14 0
0.587318 -0.29451 -0.0212377 244 10 0
0.590954 -0.291476 -0.0207807 247 7 0
0.59364 -0.288264 -0.0204345 251 3 0
0.598708 -0.286542 -0.0200539 255 0 0
