ply
format ascii 1.0
comment Generated by robot_control PLYWriter
element vertex 11
property float x
property float y
property float z
property uchar red
property uchar green
property uchar blue
end_header
0.64266 -0.0644673 -0.0361817 0 255 0
0.642704 -0.0692598 -0.0367232 25 229 0
0.642746 -0.0740813 -0.0371654 51 204 0
0.642762 -0.0789175 -0.0372897 76 178 0
0.642751 -0.0837604 -0.0371787 102 153 0
0.642772 -0.0885923 -0.0373557 127 127 0
0.642791 -0.0933788 -0.0380441 153 101 0
0.642761 -0.0981127 -0.0390726 178 76 0
0.64275 -0.102867 -0.039968 204 50 0
0.642783 -0.107681 -0.0404741 229 25 0
0.642661 -0.112463 -0.041056 255 0 0
