ply
format ascii 1.0
comment Generated by robot_control PLYWriter
element vertex 29
property float x
property float y
property float z
property uchar red
property uchar green
property uchar blue
end_header
0.628442 0.120986 -0.138806 0 255 0
0.632245 0.118987 -0.137637 9 245 0
0.635193 0.114769 -0.136387 18 236 0
0.635095 0.108827 -0.135214 27 227 0
0.632148 0.103709 -0.134622 36 218 0
0.62741 0.101179 -0.134529 45 209 0
0.621447 0.100918 -0.134954 54 200 0
0.61585 0.102919 -0.135792 63 191 0
0.610989 0.106142 -0.137103 72 182 0
0.608508 0.111417 -0.138407 81 173 0
0.609134 0.117261 -0.139598 91 163 0
0.611024 0.122956 -0.140401 100 154 0
0.6141 0.127644 -0.141083 109 145 0
0.619849 0.129509 -0.141309 118 136 0
0.62575 0.130644 -0.141182 127 127 0
0.630857 0.128193 -0.140754 136 118 0
0.634337 0.123569 -0.139667 145 109 0
0.635259 0.117732 -0.13875 154 100 0
0.631471 0.113506 -0.137923 163 91 0
0.626618 0.110416 -0.13771 173 81 0
0.620712 0.110164 -0.137883 182 72 0
0.615325 0.111506 -0.138711 191 63 0
0.610128 0.114474 -0.139519 200 54 0
0.608574 0.119909 -0.141297 209 45 0
0.606972 0.125364 -0.143074 218 36 0
0.608727 0.130749 -0.144804 227 27 0
0.611593 0.135511 -0.146662 236 18 0
0.61591 0.138836 -0.148092 245 9 0
0.620701 0.13995 -0.148938 255 0 0
