ply
format ascii 1.0
comment Generated by robot_control PLYWriter
element vertex 10
property float x
property float y
property float z
property uchar red
property uchar green
property uchar blue
end_header
0.612394 -0.176189 -0.0140019 0 255 0
0.612412 -0.170994 -0.0142178 28 226 0
0.612418 -0.165807 -0.0145733 56 198 0
0.612416 -0.16062 -0.014909 85 169 0
0.612007 -0.155454 -0.0153384 113 141 0
0.61161 -0.150298 -0.0158732 141 113 0
0.611225 -0.145156 -0.0165442 170 84 0
0.610848 -0.140022 -0.0172694 198 56 0
0.610465 -0.134889 -0.0180053 226 28 0
0.610495 -0.129747 -0.0187721 255 0 0
