ply
format ascii 1.0
comment Generated by robot_control PLYWriter
element vertex 9
property float x
property float y
property float z
property uchar red
property uchar green
property uchar blue
end_header
0.595404 -0.239928 -0.118089 0 255 0
0.595228 -0.235022 -0.119202 31 223 0
0.594974 -0.230143 -0.120418 63 191 0
0.594908 -0.225295 -0.121767 95 159 0
0.594767 -0.220453 -0.123132 127 127 0
0.594501 -0.215617 -0.124504 159 95 0
0.594186 -0.210802 -0.125939 191 63 0
0.593742 -0.20602 -0.127451 223 31 0
0.593056 -0.201225 -0.128802 255 0 0
