ply
format ascii 1.0
comment Generated by robot_control PLYWriter
element vertex 29
property float x
property float y
property float z
property uchar red
property uchar green
property uchar blue
end_header
0.688997 0.101936 -0.159328 0 255 0
0.693104 0.0995866 -0.157507 9 245 0
0.695064 0.0949656 -0.156032 18 236 0
0.694763 0.0891536 -0.154479 27 227 0
0.692794 0.083788 -0.153212 36 218 0
0.687947 0.0806958 -0.152495 45 209 0
0.682536 0.0789277 -0.152158 54 200 0
0.676626 0.0785917 -0.152255 63 191 0
0.670974 0.0796902 -0.152835 72 182 0
0.666485 0.0835325 -0.153743 81 173 0
0.663904 0.0887655 -0.154824 91 163 0
0.662393 0.0939914 -0.156443 100 154 0
0.665174 0.0990736 -0.157287 109 145 0
0.670483 0.101436 -0.157863 118 136 0
0.676178 0.101437 -0.157767 127 127 0
0.681376 0.098444 -0.15722 136 118 0
0.683466 0.093728 -0.155992 145 109 0
0.68324 0.0884377 -0.154701 154 100 0
0.680008 0.083529 -0.153576 163 91 0
0.675384 0.0798387 -0.15286 173 81 0
0.669887 0.0774422 -0.152375 182 72 0
0.664047 0.0777331 -0.152159 191 63 0
0.658211 0.0791225 -0.152531 200 54 0
0.654751 0.0832642 -0.15346 209 45 0
0.652486 0.0877786 -0.15517 218 36 0
0.652112 0.0935052 -0.156815 227 27 0
0.654024 0.0986412 -0.158451 236 18 0
0.65707 0.101339 -0.159519 245 9 0
0.662712 0.101358 -0.160235 255 0 0
