ply
format ascii 1.0
comment Generated by robot_control PLYWriter
element vertex 48
property float x
property float y
property float z
property uchar red
property uchar green
property uchar blue
end_header
0.728639 0.0594794 -0.155163 0 255 0
0.7326 0.0568625 -0.15467 5 249 0
0.73598 0.053042 -0.153456 10 244 0
0.7377 0.0479868 -0.151256 16 238 0
0.738059 0.043215 -0.147893 21 233 0
0.735744 0.038635 -0.145136 27 227 0
0.732567 0.034757 -0.142813 32 222 0
0.727681 0.0329958 -0.140268 37 217 0
0.72275 0.0330074 -0.138459 43 211 0
0.717182 0.0339869 -0.137401 48 206 0
0.71189 0.0367023 -0.137157 54 200 0
0.70817 0.0411735 -0.137703 59 195 0
0.705085 0.045959 -0.138894 65 189 0
0.704399 0.0515883 -0.140683 70 184 0
0.707308 0.0558516 -0.142882 75 179 0
0.711856 0.0587582 -0.144879 81 173 0
0.717373 0.0580675 -0.145863 86 168 0
0.722956 0.0560687 -0.146076 92 162 0
0.726294 0.0521271 -0.145443 97 157 0
0.72878 0.0469848 -0.144155 103 151 0
0.728513 0.041274 -0.142499 108 146 0
0.726701 0.0360874 -0.140912 113 141 0
0.722852 0.0321662 -0.138676 119 135 0
0.717547 0.0309982 -0.13685 124 130 0
0.711752 0.0304129 -0.135564 130 124 0
0.706196 0.0322881 -0.134825 135 119 0
0.701197 0.0355336 -0.134664 141 113 0
0.697603 0.0400272 -0.135138 146 108 0
0.696675 0.0457899 -0.136076 151 103 0
0.697444 0.0514825 -0.13761 157 97 0
0.701301 0.0550363 -0.139687 162 92 0
0.706898 0.0557104 -0.140896 168 86 0
0.71254 0.0562837 -0.141319 173 81 0
0.716963 0.052359 -0.141224 179 75 0
0.719728 0.0472111 -0.140594 184 70 0
0.721228 0.0416563 -0.13928 189 65 0
0.719609 0.036307 -0.137566 195 59 0
0.716044 0.0323567 -0.135173 200 54 0
0.711103 0.0295101 -0.133423 206 48 0
0.705674 0.0281869 -0.131722 211 43 0
0.700253 0.0295158 -0.130866 217 37 0
0.694752 0.0317102 -0.130548 222 32 0
0.690344 0.03565 -0.130965 227 27 0
0.687941 0.0408204 -0.131769 233 21 0
0.688233 0.0464844 -0.133488 238 16 0
0.69028 0.0513802 -0.135302 244 10 0
0.69397 0.0536425 -0.1377 249 5 0
0.699074 0.0537389 -0.138884 255 0 0
