ply
format ascii 1.0
comment Generated by robot_control PLYWriter
element vertex 117
property float x
property float y
property float z
property uchar red
property uchar green
property uchar blue
end_header
0.580114 0.0834421 -0.106722 0 255 0
0.583393 0.0807319 -0.10729 2 252 0
0.587627 0.0773689 -0.107875 4 250 0
0.590805 0.0735983 -0.108284 6 248 0
0.59146 0.0680438 -0.108687 8 246 0
0.593172 0.0629484 -0.109009 10 244 0
0.591988 0.0573069 -0.109222 13 241 0
0.589703 0.052246 -0.109328 15 239 0
0.585359 0.048185 -0.109259 17 237 0
0.580826 0.044361 -0.109029 19 235 0
0.57522 0.0430581 -0.108675 21 233 0
0.569336 0.0435975 -0.107984 24 230 0
0.563811 0.0452054 -0.107303 26 228 0
0.560009 0.0495574 -0.106623 28 226 0
0.5564 0.0539346 -0.106096 30 224 0
0.556415 0.0599039 -0.105799 32 222 0
0.558526 0.0653644 -0.105706 35 219 0
0.562083 0.0698951 -0.105805 37 217 0
0.566449 0.0734022 -0.106065 39 215 0
0.572338 0.0730372 -0.106518 41 213 0
0.57828 0.073064 -0.107159 43 211 0
0.583165 0.069811 -0.107716 46 208 0
0.587838 0.0661203 -0.108219 48 206 0
0.591808 0.0618921 -0.108618 50 204 0
0.593164 0.0562345 -0.108899 52 202 0
0.593179 0.0502616 -0.109117 54 200 0
0.591607 0.0447212 -0.109312 57 197 0
0.587386 0.0405968 -0.1094 59 195 0
0.583528 0.0360548 -0.109347 61 193 0
0.578297 0.033603 -0.10911 63 191 0
0.572329 0.0335726 -0.108787 65 189 0
0.566459 0.0340547 -0.108238 68 186 0
0.561321 0.0365398 -0.107886 70 184 0
0.55858 0.0415252 -0.107503 72 182 0
0.557003 0.0472036 -0.107184 74 180 0
0.556395 0.0530529 -0.106962 76 178 0
0.559474 0.0580195 -0.106902 79 175 0
0.564325 0.0615106 -0.106967 81 173 0
0.570015 0.0632133 -0.10719 83 171 0
0.575976 0.0634356 -0.107532 85 169 0
0.581683 0.0622044 -0.107945 87 167 0
0.586294 0.0588645 -0.108253 90 164 0
0.589351 0.0537414 -0.108619 92 162 0
0.591886 0.0483699 -0.109006 94 160 0
0.592451 0.0427498 -0.109315 96 158 0
0.590523 0.0371008 -0.109577 98 156 0
0.588117 0.0316396 -0.109771 101 153 0
0.584685 0.0268752 -0.109797 103 151 0
0.579009 0.0250236 -0.109648 105 149 0
0.573381 0.0232724 -0.109406 107 147 0
0.567768 0.0243191 -0.109086 109 145 0
0.56296 0.0278288 -0.108799 112 142 0
0.558177 0.0311346 -0.108583 114 140 0
0.556264 0.0366411 -0.108412 116 138 0
0.55701 0.0424434 -0.108286 118 136 0
0.559923 0.0476581 -0.10817 120 134 0
0.564074 0.0518166 -0.108152 123 131 0
0.569386 0.0539168 -0.10821 125 129 0
0.575359 0.0540769 -0.108335 127 127 0
0.580872 0.0521752 -0.108534 129 125 0
0.585925 0.0490199 -0.10882 131 123 0
0.589565 0.0445838 -0.109224 134 120 0
0.591786 0.0390577 -0.109687 136 118 0
0.593174 0.0333432 -0.110134 138 116 0
0.592325 0.0275569 -0.110562 140 114 0
0.589184 0.0226576 -0.110869 142 112 0
0.584565 0.0188692 -0.11104 145 109 0
0.579796 0.0152999 -0.111046 147 107 0
0.574234 0.0133319 -0.110942 149 105 0
0.568491 0.0149796 -0.110796 151 103 0
0.563132 0.0173554 -0.110605 153 101 0
0.559153 0.0217918 -0.110381 156 98 0
0.556219 0.0267475 -0.110163 158 96 0
0.557434 0.0324453 -0.109796 160 94 0
0.560134 0.0377684 -0.109481 162 92 0
0.563541 0.0426356 -0.109201 164 90 0
0.569056 0.0436447 -0.108943 167 87 0
0.574841 0.0451457 -0.108932 169 85 0
0.580389 0.0430174 -0.109084 171 83 0
0.585355 0.0397665 -0.109403 173 81 0
0.588564 0.034751 -0.109809 175 79 0
0.590864 0.029258 -0.110317 178 76 0
0.593096 0.0238069 -0.110848 180 74 0
0.590451 0.0184839 -0.111432 182 72 0
0.588283 0.0129314 -0.111856 184 70 0
0.584611 0.00844576 -0.11235 186 68 0
0.579704 0.00505807 -0.112613 189 65 0
0.574031 0.00382977 -0.112935 191 63 0
0.568225 0.00478999 -0.113038 193 61 0
0.56267 0.00697895 -0.112832 195 59 0
0.559233 0.0118183 -0.112503 197 57 0
0.556512 0.0169103 -0.111893 200 54 0
0.556128 0.0228136 -0.111214 202 52 0
0.558465 0.028246 -0.110722 204 50 0
0.563093 0.0318946 -0.110212 206 48 0
0.568389 0.034562 -0.109697 208 46 0
0.574217 0.0351886 -0.109478 211 43 0
0.579841 0.0342687 -0.10952 213 41 0
0.584595 0.0306884 -0.109789 215 39 0
0.588579 0.0264902 -0.110314 217 37 0
0.591083 0.0210841 -0.110724 219 35 0
0.593187 0.0157341 -0.111316 222 32 0
0.593172 0.00980523 -0.112034 224 30 0
0.590337 0.00458721 -0.112623 226 28 0
0.587129 -0.000372358 -0.113404 228 26 0
0.582025 -0.00302048 -0.114063 230 24 0
0.576445 -0.00416182 -0.114756 233 21 0
0.570486 -0.00406659 -0.115194 235 19 0
0.564971 -0.00253683 -0.11534 237 17 0
0.560166 8.85457e-05 -0.115053 239 15 0
0.557293 0.00524699 -0.11456 241 13 0
0.556883 0.0111078 -0.113787 244 10 0
0.557842 0.016712 -0.112646 246 8 0
0.560925 0.0207903 -0.111575 248 6 0
0.565256 0.02332 -0.110732 250 4 0
0.56896 0.0255959 -0.110345 252 2 0
0.574683 0.025574 -0.109945 255 0 0
