ply
format ascii 1.0
comment Generated by robot_control PLYWriter
element vertex 200
property float x
property float y
property float z
property uchar red
property uchar green
property uchar blue
end_header
0.652674 -0.306346 -0.0870258 0 255 0
0.652674 -0.306346 -0.0870258 1 253 0
0.652674 -0.306346 -0.0870258 2 252 0
0.652674 -0.306346 -0.0870258 3 251 0
0.652674 -0.306346 -0.0870258 5 249 0
0.652674 -0.306346 -0.0870258 6 248 0
0.652674 -0.306346 -0.0870258 7 247 0
0.652674 -0.306346 -0.0870258 8 246 0
0.652674 -0.306346 -0.0870258 10 244 0
0.652674 -0.306346 -0.0870258 11 243 0
0.652674 -0.306346 -0.0870258 12 242 0
0.652674 -0.306346 -0.0870258 14 240 0
0.652674 -0.306346 -0.0870258 15 239 0
0.652674 -0.306346 -0.0870258 16 238 0
0.652674 -0.306346 -0.0870258 17 237 0
0.652674 -0.306346 -0.0870258 19 235 0
0.652674 -0.306346 -0.0870258 20 234 0
0.652674 -0.306346 -0.0870258 21 233 0
0.652674 -0.306346 -0.0870258 23 231 0
0.652674 -0.306346 -0.0870258 24 230 0
0.652674 -0.306346 -0.0870258 25 229 0
0.652674 -0.306346 -0.0870258 26 228 0
0.652674 -0.306346 -0.0870258 28 226 0
0.652674 -0.306346 -0.0870258 29 225 0
0.652674 -0.306346 -0.0870258 30 224 0
0.652674 -0.306346 -0.0870258 32 222 0
0.652674 -0.306346 -0.0870258 33 221 0
0.652674 -0.306346 -0.0870258 34 220 0
0.652674 -0.306346 -0.0870258 35 219 0
0.652674 -0.306346 -0.0870258 37 217 0
0.652674 -0.306346 -0.0870258 38 216 0
0.652674 -0.306346 -0.0870258 39 215 0
0.652674 -0.306346 -0.0870258 41 213 0
0.652674 -0.306346 -0.0870258 42 212 0
0.652674 -0.306346 -0.0870258 43 211 0
0.652674 -0.306346 -0.0870258 44 210 0
0.652674 -0.306346 -0.0870258 46 208 0
0.652674 -0.306346 -0.0870258 47 207 0
0.652674 -0.306346 -0.0870258 48 206 0
0.652674 -0.306346 -0.0870258 49 205 0
0.652674 -0.306346 -0.0870258 51 203 0
0.652674 -0.306346 -0.0870258 52 202 0
0.652674 -0.306346 -0.0870258 53 201 0
0.652674 -0.306346 -0.0870258 55 199 0
0.652674 -0.306346 -0.0870258 56 198 0
0.652674 -0.306346 -0.0870258 57 197 0
0.652674 -0.306346 -0.0870258 58 196 0
0.652674 -0.306346 -0.0870258 60 194 0
0.652674 -0.306346 -0.0870258 61 193 0
0.652674 -0.306346 -0.0870258 62 192 0
0.652674 -0.306346 -0.0870258 64 190 0
0.652674 -0.306346 -0.0870258 65 189 0
0.652674 -0.306346 -0.0870258 66 188 0
0.652674 -0.306346 -0.0870258 67 187 0
0.652674 -0.306346 -0.0870258 69 185 0
0.652674 -0.306346 -0.0870258 70 184 0
0.652674 -0.306346 -0.0870258 71 183 0
0.652674 -0.306346 -0.0870258 73 181 0
0.652674 -0.306346 -0.0870258 74 180 0
0.652674 -0.306346 -0.0870258 75 179 0
0.652674 -0.306346 -0.0870258 76 178 0
0.652674 -0.306346 -0.0870258 78 176 0
0.652674 -0.306346 -0.0870258 79 175 0
0.652674 -0.306346 -0.0870258 80 174 0
0.652674 -0.306346 -0.0870258 82 172 0
0.652674 -0.306346 -0.0870258 83 171 0
0.652674 -0.306346 -0.0870258 84 170 0
0.652674 -0.306346 -0.0870258 85 169 0
0.652674 -0.306346 -0.0870258 87 167 0
0.652674 -0.306346 -0.0870258 88 166 0
0.652674 -0.306346 -0.0870258 89 165 0
0.652674 -0.306346 -0.0870258 90 164 0
0.652674 -0.306346 -0.0870258 92 162 0
0.652674 -0.306346 -0.0870258 93 161 0
0.652674 -0.306346 -0.0870258 94 160 0
0.652674 -0.306346 -0.0870258 96 158 0
0.652674 -0.306346 -0.0870258 97 157 0
0.652674 -0.306346 -0.0870258 98 156 0
0.652674 -0.306346 -0.0870258 99 155 0
0.652674 -0.306346 -0.0870258 101 153 0
0.652674 -0.306346 -0.0870258 102 152 0
0.652674 -0.306346 -0.0870258 103 151 0
0.652674 -0.306346 -0.0870258 105 149 0
0.652674 -0.306346 -0.0870258 106 148 0
0.652674 -0.306346 -0.0870258 107 147 0
0.652674 -0.306346 -0.0870258 108 146 0
0.652674 -0.306346 -0.0870258 110 144 0
0.652674 -0.306346 -0.0870258 111 143 0
0.652674 -0.306346 -0.0870258 112 142 0
0.652674 -0.306346 -0.0870258 114 140 0
0.652674 -0.306346 -0.0870258 115 139 0
0.652674 -0.306346 -0.0870258 116 138 0
0.652674 -0.306346 -0.0870258 117 137 0
0.652674 -0.306346 -0.0870258 119 135 0
0.652674 -0.306346 -0.0870258 120 134 0
0.652674 -0.306346 -0.0870258 121 133 0
0.652674 -0.306346 -0.0870258 123 131 0
0.652674 -0.306346 -0.0870258 124 130 0
0.652674 -0.306346 -0.0870258 125 129 0
0.652674 -0.306346 -0.0870258 126 128 0
0.652674 -0.306346 -0.0870258 128 126 0
0.652674 -0.306346 -0.0870258 129 125 0
0.652674 -0.306346 -0.0870258 130 124 0
0.652674 -0.306346 -0.0870258 131 123 0
0.652674 -0.306346 -0.0870258 133 121 0
0.652674 -0.306346 -0.0870258 134 120 0
0.652674 -0.306346 -0.0870258 135 119 0
0.652674 -0.306346 -0.0870258 137 117 0
0.652674 -0.306346 -0.0870258 138 116 0
0.652674 -0.306346 -0.0870258 139 115 0
0.652674 -0.306346 -0.0870258 140 114 0
0.652674 -0.306346 -0.0870258 142 112 0
0.652674 -0.306346 -0.0870258 143 111 0
0.652674 -0.306346 -0.0870258 144 110 0
0.652674 -0.306346 -0.0870258 146 108 0
0.652674 -0.306346 -0.0870258 147 107 0
0.652674 -0.306346 -0.0870258 148 106 0
0.652674 -0.306346 -0.0870258 149 105 0
0.652674 -0.306346 -0.0870258 151 103 0
0.652674 -0.306346 -0.0870258 152 102 0
0.652674 -0.306346 -0.0870258 153 101 0
0.652674 -0.306346 -0.0870258 155 99 0
0.652674 -0.306346 -0.0870258 156 98 0
0.652674 -0.306346 -0.0870258 157 97 0
0.652674 -0.306346 -0.0870258 158 96 0
0.652674 -0.306346 -0.0870258 160 94 0
0.652674 -0.306346 -0.0870258 161 93 0
0.652674 -0.306346 -0.0870258 162 92 0
0.652674 -0.306346 -0.0870258 164 90 0
0.652674 -0.306346 -0.0870258 165 89 0
0.652674 -0.306346 -0.0870258 166 88 0
0.652674 -0.306346 -0.0870258 167 87 0
0.652674 -0.306346 -0.0870258 169 85 0
0.652674 -0.306346 -0.0870258 170 84 0
0.652674 -0.306346 -0.0870258 171 83 0
0.652674 -0.306346 -0.0870258 172 82 0
0.652674 -0.306346 -0.0870258 174 80 0
0.652674 -0.306346 -0.0870258 175 79 0
0.652674 -0.306346 -0.0870258 176 78 0
0.652674 -0.306346 -0.0870258 178 76 0
0.652674 -0.306346 -0.0870258 179 75 0
0.652674 -0.306346 -0.0870258 180 74 0
0.652674 -0.306346 -0.0870258 181 73 0
0.652674 -0.306346 -0.0870258 183 71 0
0.652674 -0.306346 -0.0870258 184 70 0
0.652674 -0.306346 -0.0870258 185 69 0
0.652674 -0.306346 -0.0870258 187 67 0
0.652674 -0.306346 -0.0870258 188 66 0
0.652674 -0.306346 -0.0870258 189 65 0
0.652674 -0.306346 -0.0870258 190 64 0
0.652674 -0.306346 -0.0870258 192 62 0
0.652674 -0.306346 -0.0870258 193 61 0
0.652674 -0.306346 -0.0870258 194 60 0
0.652674 -0.306346 -0.0870258 196 58 0
0.652674 -0.306346 -0.0870258 197 57 0
0.652674 -0.306346 -0.0870258 198 56 0
0.652674 -0.306346 -0.0870258 199 55 0
0.652674 -0.306346 -0.0870258 201 53 0
0.652674 -0.306346 -0.0870258 202 52 0
0.652674 -0.306346 -0.0870258 203 51 0
0.652674 -0.306346 -0.0870258 205 49 0
0.652674 -0.306346 -0.0870258 206 48 0
0.652674 -0.306346 -0.0870258 207 47 0
0.652674 -0.306346 -0.0870258 208 46 0
0.652674 -0.306346 -0.0870258 210 44 0
0.652674 -0.306346 -0.0870258 211 43 0
0.652674 -0.306346 -0.0870258 212 42 0
0.652674 -0.306346 -0.0870258 213 41 0
0.652674 -0.306346 -0.0870258 215 39 0
0.652674 -0.306346 -0.0870258 216 38 0
0.652674 -0.306346 -0.0870258 217 37 0
0.652674 -0.306346 -0.0870258 219 35 0
0.652674 -0.306346 -0.0870258 220 34 0
0.652674 -0.306346 -0.0870258 221 33 0
0.652674 -0.306346 -0.0870258 222 32 0
0.652674 -0.306346 -0.0870258 224 30 0
0.652674 -0.306346 -0.0870258 225 29 0
0.652674 -0.306346 -0.0870258 226 28 0
0.652674 -0.306346 -0.0870258 228 26 0
0.652674 -0.306346 -0.0870258 229 25 0
0.652674 -0.306346 -0.0870258 230 24 0
0.652674 -0.306346 -0.0870258 231 23 0
0.652674 -0.306346 -0.0870258 233 21 0
0.652674 -0.306346 -0.0870258 234 20 0
0.652674 -0.306346 -0.0870258 235 19 0
0.652674 -0.306346 -0.0870258 237 17 0
0.652674 -0.306346 -0.0870258 238 16 0
0.652674 -0.306346 -0.0870258 239 15 0
0.652674 -0.306346 -0.0870258 240 14 0
0.652674 -0.306346 -0.0870258 242 12 0
0.652674 -0.306346 -0.0870258 243 11 0
0.652674 -0.306346 -0.0870258 244 10 0
0.652674 -0.306346 -0.0870258 246 8 0
0.652674 -0.306346 -0.0870258 247 7 0
0.652674 -0.306346 -0.0870258 248 6 0
0.652674 -0.306346 -0.0870258 249 5 0
0.652674 -0.306346 -0.0870258 251 3 0
0.652674 -0.306346 -0.0870258 252 2 0
0.652674 -0.306346 -0.0870258 253 1 0
0.652674 -0.306346 -0.0870258 255 0 0
