ply
format ascii 1.0
comment Generated by robot_control PLYWriter
element vertex 14
property float x
property float y
property float z
property uchar red
property uchar green
property uchar blue
end_header
0.676813 -0.309331 -0.102247 0 255 0
0.676778 -0.314108 -0.100742 19 235 0
0.676683 -0.318938 -0.0994224 39 215 0
0.676626 -0.323783 -0.0981559 58 196 0
0.676575 -0.328612 -0.096831 78 176 0
0.676594 -0.333435 -0.0954809 98 156 0
0.676527 -0.338262 -0.0941484 117 137 0
0.676576 -0.3431 -0.0928534 137 117 0
0.676611 -0.347931 -0.0915322 156 98 0
0.676664 -0.352773 -0.0902548 176 78 0
0.676704 -0.357623 -0.0890054 196 58 0
0.67674 -0.362506 -0.0878968 215 39 0
0.676755 -0.367379 -0.0867438 235 19 0
0.67671 -0.372287 -0.0857554 255 0 0
