ply
format ascii 1.0
comment Generated by robot_control PLYWriter
element vertex 10
property float x
property float y
property float z
property uchar red
property uchar green
property uchar blue
end_header
0.510325 0.065519 -0.141419 0 255 0
0.510606 0.0604639 -0.141362 28 226 0
0.510929 0.0554109 -0.141302 56 198 0
0.510959 0.0503549 -0.141026 85 169 0
0.511084 0.0453147 -0.140559 113 141 0
0.511455 0.0402784 -0.140184 141 113 0
0.511809 0.0352316 -0.139964 170 84 0
0.512158 0.0301802 -0.139882 198 56 0
0.512513 0.0251288 -0.139927 226 28 0
0.51281 0.0200978 -0.140282 255 0 0
