ply
format ascii 1.0
comment Generated by robot_control PLYWriter
element vertex 10
property float x
property float y
property float z
property uchar red
property uchar green
property uchar blue
end_header
0.604617 -0.27784 -0.0860244 0 255 0
0.60469 -0.282994 -0.0866863 28 226 0
0.6047 -0.288155 -0.0872971 56 198 0
0.604723 -0.293303 -0.0880098 85 169 0
0.604746 -0.298461 -0.0886461 113 141 0
0.604856 -0.30364 -0.0890479 141 113 0
0.604794 -0.308829 -0.0890202 170 84 0
0.604642 -0.313954 -0.0881983 198 56 0
0.604602 -0.318954 -0.0867793 226 28 0
0.604256 -0.32382 -0.0850304 255 0 0
