ply
format ascii 1.0
comment Generated by robot_control PLYWriter
element vertex 81
property float x
property float y
property float z
property uchar red
property uchar green
property uchar blue
end_header
0.646663 0.0632275 -0.104254 0 255 0
0.650646 0.0603626 -0.104588 3 251 0
0.654287 0.0559514 -0.104864 6 248 0
0.654565 0.0501312 -0.104908 9 245 0
0.65365 0.0445822 -0.104623 12 242 0
0.650767 0.0398289 -0.104115 15 239 0
0.645377 0.0382626 -0.103788 19 235 0
0.639985 0.0372968 -0.103394 22 232 0
0.635033 0.0399919 -0.103134 25 229 0
0.630598 0.0430828 -0.103009 28 226 0
0.626763 0.047637 -0.103083 31 223 0
0.626538 0.0535507 -0.103233 35 219 0
0.625902 0.0588935 -0.103505 38 216 0
0.628634 0.0641517 -0.103781 41 213 0
0.632318 0.0687469 -0.104073 44 210 0
0.637305 0.0716998 -0.10436 47 207 0
0.643283 0.0717044 -0.104604 51 204 0
0.649212 0.0715318 -0.104787 54 200 0
0.653453 0.0674182 -0.104828 57 197 0
0.654581 0.0617527 -0.104731 60 194 0
0.654555 0.0557769 -0.104453 63 191 0
0.651099 0.051116 -0.10421 66 188 0
0.645654 0.0486564 -0.103986 70 184 0
0.639814 0.0479612 -0.103811 73 181 0
0.634494 0.0495628 -0.103767 76 178 0
0.630267 0.0537978 -0.103789 79 175 0
0.626801 0.0585791 -0.103911 82 172 0
0.62522 0.0642017 -0.104139 86 168 0
0.626864 0.0699492 -0.10437 89 165 0
0.629415 0.0752097 -0.104691 92 162 0
0.633758 0.0793124 -0.104975 95 159 0
0.638839 0.0818202 -0.105204 98 156 0
0.644813 0.0819826 -0.105359 102 153 0
0.650071 0.0796093 -0.105398 105 149 0
0.653471 0.0748236 -0.105275 108 146 0
0.654605 0.0693547 -0.105062 111 143 0
0.654384 0.063444 -0.104786 114 140 0
0.650167 0.0592084 -0.104523 117 137 0
0.644655 0.057901 -0.104432 121 133 0
0.638674 0.0578322 -0.104389 124 130 0
0.632864 0.0591584 -0.10451 127 127 0
0.629767 0.0642233 -0.104754 130 124 0
0.626255 0.0688368 -0.104999 133 121 0
0.62532 0.0746223 -0.10524 137 117 0
0.627369 0.0802048 -0.105623 140 114 0
0.629448 0.0857387 -0.105963 143 111 0
0.633842 0.0894315 -0.1063 146 108 0
0.639491 0.0911911 -0.106553 149 105 0
0.645337 0.0910057 -0.106678 153 101 0
0.650692 0.0883404 -0.106579 156 98 0
0.654501 0.0839982 -0.106274 159 95 0
0.654736 0.0781101 -0.10592 162 92 0
0.653552 0.0727083 -0.105603 165 89 0
0.648782 0.0691113 -0.105285 168 86 0
0.643388 0.06737 -0.105125 172 82 0
0.637405 0.0673609 -0.105144 175 79 0
0.632297 0.070058 -0.105371 178 76 0
0.628138 0.0743238 -0.105617 181 73 0
0.625822 0.079816 -0.106134 184 70 0
0.626219 0.0854941 -0.106568 188 66 0
0.627019 0.0913025 -0.107111 191 63 0
0.630885 0.0958516 -0.10748 194 60 0
0.635335 0.099752 -0.107907 197 57 0
0.64072 0.101076 -0.108176 200 54 0
0.646703 0.101059 -0.108215 204 50 0
0.650771 0.0975766 -0.108087 207 47 0
0.655454 0.0940951 -0.107749 210 44 0
0.656528 0.0884103 -0.107274 213 41 0
0.654375 0.0831763 -0.106661 216 38 0
0.650373 0.0788636 -0.106114 219 35 0
0.645209 0.07607 -0.105806 223 31 0
0.63954 0.0768941 -0.105623 226 28 0
0.634032 0.0786391 -0.105787 229 25 0
0.629826 0.0824418 -0.106419 232 22 0
0.626786 0.0874528 -0.10692 235 19 0
0.625226 0.0926984 -0.107792 239 15 0
0.626866 0.0981552 -0.10843 242 12 0
0.628496 0.103359 -0.109332 245 9 0
0.632532 0.1064 -0.109897 248 6 0
0.635072 0.109761 -0.11051 251 3 0
0.640793 0.110311 -0.110982 255 0 0
