ply
format ascii 1.0
comment Generated by robot_control PLYWriter
element vertex 55
property float x
property float y
property float z
property uchar red
property uchar green
property uchar blue
end_header
0.60058 0.033374 -0.0426596 0 255 0
0.605635 0.0335899 -0.0415042 4 250 0
0.609003 0.0300224 -0.0409362 9 245 0
0.612841 0.0255366 -0.0407546 14 240 0
0.614794 0.02048 -0.041161 18 236 0
0.614185 0.0148005 -0.042136 23 231 0
0.613301 0.0090749 -0.0431022 28 226 0
0.610026 0.00439888 -0.0444457 33 221 0
0.605602 0.000637308 -0.0456166 37 217 0
0.600359 -0.000964428 -0.0473576 42 212 0
0.595068 -0.00255458 -0.0490241 47 207 0
0.589502 -0.00125323 -0.0504313 51 203 0
0.584094 0.00104347 -0.0513323 56 198 0
0.580891 0.00597886 -0.0516615 61 193 0
0.578609 0.0114638 -0.0517252 66 188 0
0.578568 0.0171818 -0.0514306 70 184 0
0.581323 0.0223304 -0.0507047 75 179 0
0.585812 0.0260147 -0.0497416 80 174 0
0.591349 0.0275491 -0.0482549 85 169 0
0.596804 0.0261205 -0.0471887 89 165 0
0.601985 0.023481 -0.0463866 94 160 0
0.605288 0.0185971 -0.0458576 99 155 0
0.607088 0.0130273 -0.0455597 103 151 0
0.605721 0.00725253 -0.0454832 108 146 0
0.603871 0.00162488 -0.0457455 113 141 0
0.601795 -0.00359294 -0.0462568 118 136 0
0.596828 -0.00676273 -0.0470338 122 132 0
0.591415 -0.00851452 -0.0484632 127 127 0
0.585628 -0.00835628 -0.04983 132 122 0
0.580093 -0.00746493 -0.050997 136 118 0
0.5758 -0.00344182 -0.051847 141 113 0
0.572016 0.00107814 -0.0524847 146 108 0
0.570489 0.00657315 -0.0529209 151 103 0
0.57207 0.0122084 -0.0530588 155 99 0
0.574861 0.0174485 -0.0529407 160 94 0
0.580161 0.0200671 -0.0525604 165 89 0
0.585684 0.0209525 -0.0519887 170 84 0
0.591058 0.0186098 -0.0509942 174 80 0
0.595739 0.0153696 -0.0495665 179 75 0
0.59718 0.00969512 -0.0485164 184 70 0
0.598364 0.00393733 -0.0477398 188 66 0
0.597216 -0.00169353 -0.0473101 193 61 0
0.594026 -0.00668961 -0.0471945 198 56 0
0.590571 -0.0115229 -0.0473898 203 51 0
0.585978 -0.0149429 -0.0476776 207 47 0
0.580039 -0.0148605 -0.0479953 212 42 0
0.57423 -0.0142949 -0.0488841 217 37 0
0.569218 -0.011436 -0.0502218 221 33 0
0.564492 -0.00867295 -0.0519578 226 28 0
0.5626 -0.00332415 -0.0536563 231 23 0
0.56275 0.00211913 -0.0557468 236 18 0
0.56464 0.00732122 -0.0570321 240 14 0
0.567791 0.0105216 -0.0579855 245 9 0
0.571259 0.0135943 -0.0579933 250 4 0
0.576183 0.0139359 -0.0565143 255 0 0
