ply
format ascii 1.0
comment Generated by robot_control PLYWriter
element vertex 65
property float x
property float y
property float z
property uchar red
property uchar green
property uchar blue
end_header
0.600858 -0.205537 -0.0946566 0 255 0
0.604806 -0.20854 -0.0955811 3 251 0
0.607982 -0.211855 -0.0964 7 247 0
0.608719 -0.217354 -0.0974351 11 243 0
0.608779 -0.223222 -0.0984694 15 239 0
0.605561 -0.227952 -0.0989024 19 235 0
0.602286 -0.232743 -0.0989834 23 231 0
0.596588 -0.234346 -0.098693 27 227 0
0.59091 -0.236087 -0.0980512 31 223 0
0.585539 -0.235388 -0.0973101 35 219 0
0.581007 -0.232354 -0.0962488 39 215 0
0.576994 -0.22905 -0.0953284 43 211 0
0.57538 -0.223778 -0.09426 47 207 0
0.574321 -0.218361 -0.0935052 51 203 0
0.577615 -0.213417 -0.0931938 55 199 0
0.582319 -0.209931 -0.0932069 59 195 0
0.588128 -0.20891 -0.0936124 63 191 0
0.593652 -0.211109 -0.0942074 67 187 0
0.597711 -0.215052 -0.0951831 71 183 0
0.600906 -0.219776 -0.0961859 75 179 0
0.600091 -0.225544 -0.0968424 79 175 0
0.597623 -0.230981 -0.0972819 83 171 0
0.594502 -0.235942 -0.0976254 87 167 0
0.58914 -0.238225 -0.0977722 91 163 0
0.583393 -0.239906 -0.097655 95 159 0
0.577678 -0.238685 -0.0973687 99 155 0
0.572261 -0.236238 -0.0967593 103 151 0
0.567917 -0.232552 -0.0958434 107 147 0
0.566337 -0.227089 -0.0951185 111 143 0
0.566354 -0.221141 -0.0944203 115 139 0
0.569613 -0.216412 -0.0939487 119 135 0
0.574687 -0.213241 -0.0937315 123 131 0
0.580366 -0.212096 -0.0937923 127 127 0
0.585516 -0.215003 -0.0942119 131 123 0
0.589109 -0.219752 -0.094836 135 119 0
0.590691 -0.225182 -0.0956376 139 115 0
0.589998 -0.231058 -0.096449 143 111 0
0.588469 -0.236793 -0.0972278 147 107 0
0.583754 -0.240336 -0.0978673 151 103 0
0.578513 -0.243137 -0.0981427 155 99 0
0.572532 -0.243004 -0.0982048 159 95 0
0.566567 -0.242616 -0.0980129 163 91 0
0.561845 -0.239728 -0.0975504 167 87 0
0.558287 -0.23499 -0.0968591 171 83 0
0.556859 -0.229246 -0.0961604 175 79 0
0.55812 -0.223559 -0.0952613 179 75 0
0.561234 -0.218602 -0.0945005 183 71 0
0.566842 -0.216967 -0.0940123 187 67 0
0.572817 -0.217059 -0.0939447 191 63 0
0.578112 -0.219703 -0.0943593 195 59 0
0.58053 -0.224978 -0.0950167 199 55 0
0.582825 -0.23019 -0.0959063 203 51 0
0.582393 -0.235874 -0.0971479 207 47 0
0.578667 -0.240467 -0.0980569 211 43 0
0.574921 -0.245005 -0.0990875 215 39 0
0.569607 -0.247532 -0.0998193 219 35 0
0.563954 -0.248131 -0.10025 223 31 0
0.558124 -0.24704 -0.100359 227 27 0
0.55406 -0.243447 -0.100087 231 23 0
0.54972 -0.239422 -0.0993261 235 19 0
0.548862 -0.233957 -0.0977715 239 15 0
0.548974 -0.228224 -0.0960881 243 11 0
0.552245 -0.224573 -0.0947862 247 7 0
0.555604 -0.221585 -0.0940314 251 3 0
0.56086 -0.220299 -0.0936591 255 0 0
