ply
format ascii 1.0
comment Generated by robot_control PLYWriter
element vertex 29
property float x
property float y
property float z
property uchar red
property uchar green
property uchar blue
end_header
0.577036 0.179113 -0.121729 0 255 0
0.581262 0.176384 -0.119534 9 245 0
0.583715 0.171763 -0.11745 18 236 0
0.58682 0.166966 -0.116322 27 227 0
0.586553 0.161056 -0.115983 36 218 0
0.583604 0.156105 -0.116195 45 209 0
0.580076 0.152093 -0.117305 54 200 0
0.574659 0.151063 -0.118838 63 191 0
0.570149 0.154043 -0.120599 72 182 0
0.567745 0.159333 -0.121365 81 173 0
0.5669 0.165222 -0.12164 91 163 0
0.568986 0.170706 -0.121212 100 154 0
0.573162 0.174501 -0.120473 109 145 0
0.578375 0.177104 -0.119225 118 136 0
0.584197 0.176778 -0.117968 127 127 0
0.589065 0.17438 -0.116559 136 118 0
0.592944 0.170578 -0.115159 145 109 0
0.596009 0.166032 -0.114205 154 100 0
0.596392 0.160174 -0.113562 163 91 0
0.594139 0.154718 -0.113384 173 81 0
0.590826 0.149764 -0.11387 182 72 0
0.585541 0.149879 -0.114975 191 63 0
0.580957 0.152092 -0.116041 200 54 0
0.577182 0.156312 -0.116912 209 45 0
0.577139 0.162235 -0.117588 218 36 0
0.578267 0.167755 -0.117666 227 27 0
0.582214 0.172188 -0.116942 236 18 0
0.587194 0.173634 -0.115372 245 9 0
0.590551 0.175394 -0.113425 255 0 0
