ply
format ascii 1.0
comment Generated by robot_control PLYWriter
element vertex 59
property float x
property float y
property float z
property uchar red
property uchar green
property uchar blue
end_header
0.580063 -0.00594968 -0.132966 0 255 0
0.585087 -0.00681882 -0.132325 4 250 0
0.588401 -0.0104662 -0.131827 8 246 0
0.590018 -0.014812 -0.131417 13 241 0
0.589729 -0.0205195 -0.131343 17 237 0
0.58557 -0.0242108 -0.131639 21 233 0
0.580497 -0.0262274 -0.132119 26 228 0
0.574635 -0.0257544 -0.132717 30 224 0
0.569374 -0.0229777 -0.133117 35 219 0
0.565287 -0.0188 -0.133565 39 215 0
0.562558 -0.0135536 -0.133771 43 211 0
0.562558 -0.00755073 -0.133918 48 206 0
0.565163 -0.00241428 -0.133978 52 202 0
0.568915 0.00226737 -0.133963 57 197 0
0.574028 0.00528263 -0.133839 61 193 0
0.579917 0.00577499 -0.133581 65 189 0
0.585351 0.00392381 -0.133247 70 184 0
0.589462 -0.00026544 -0.132982 74 180 0
0.590036 -0.00611434 -0.132808 79 175 0
0.58819 -0.0116719 -0.132768 83 171 0
0.583373 -0.0150448 -0.132804 87 167 0
0.577519 -0.0159244 -0.132912 92 162 0
0.57199 -0.0138029 -0.133153 96 158 0
0.567291 -0.0100771 -0.133451 101 153 0
0.563797 -0.00545504 -0.133787 105 149 0
0.562556 0.000285585 -0.134115 109 145 0
0.564395 0.00590821 -0.134343 114 140 0
0.567003 0.0112638 -0.134525 118 136 0
0.57203 0.0145038 -0.1346 123 131 0
0.577423 0.0171453 -0.13461 127 127 0
0.582943 0.0157173 -0.134493 131 123 0
0.587623 0.0121468 -0.134311 136 118 0
0.590042 0.00674157 -0.134125 140 114 0
0.58906 0.000882462 -0.133943 145 109 0
0.584977 -0.00271615 -0.133762 149 105 0
0.579179 -0.00417557 -0.133679 153 101 0
0.573424 -0.00289944 -0.133674 158 96 0
0.568077 -0.000400253 -0.133876 162 92 0
0.565749 0.00504918 -0.134317 167 87 0
0.563291 0.0104652 -0.134699 171 83 0
0.562853 0.0161603 -0.135144 175 79 0
0.566491 0.020906 -0.135505 180 74 0
0.570516 0.0253481 -0.135849 184 70 0
0.57569 0.0280785 -0.13609 189 65 0
0.581617 0.0280729 -0.136235 193 61 0
0.58677 0.0255641 -0.136197 197 57 0
0.590046 0.0206689 -0.135822 202 52 0
0.590046 0.0146759 -0.135447 206 48 0
0.587195 0.00963194 -0.135007 211 43 0
0.58214 0.00742596 -0.134593 215 39 0
0.576143 0.00760145 -0.134473 219 35 0
0.570596 0.00895212 -0.134563 224 30 0
0.56674 0.0134806 -0.134901 228 26 0
0.564487 0.0188189 -0.135422 233 21 0
0.563321 0.0245142 -0.13612 237 17 0
0.564936 0.0297978 -0.1367 241 13 0
0.568004 0.0344783 -0.137373 246 8 0
0.572319 0.0372108 -0.137956 250 4 0
0.576643 0.0395663 -0.138478 255 0 0
