ply
format ascii 1.0
comment Generated by robot_control PLYWriter
element vertex 11
property float x
property float y
property float z
property uchar red
property uchar green
property uchar blue
end_header
0.660551 -0.0784364 -0.0371158 0 255 0
0.660659 -0.0833454 -0.0375827 25 229 0
0.660742 -0.088261 -0.03798 51 204 0
0.660715 -0.0931712 -0.0384415 76 178 0
0.660696 -0.0980752 -0.0389676 102 153 0
0.660662 -0.102978 -0.0395062 127 127 0
0.660598 -0.10788 -0.0400502 153 101 0
0.660527 -0.112776 -0.0406362 178 76 0
0.660476 -0.117666 -0.0412832 204 50 0
0.660537 -0.122553 -0.0419418 229 25 0
0.660624 -0.127445 -0.0425712 255 0 0
