ply
format ascii 1.0
comment Generated by robot_control PLYWriter
element vertex 8
property float x
property float y
property float z
property uchar red
property uchar green
property uchar blue
end_header
0.510221 -0.0365193 -0.121703 0 255 0
0.510388 -0.0417736 -0.121848 36 218 0
0.51058 -0.0470273 -0.121979 72 182 0
0.511142 -0.0522553 -0.122079 109 145 0
0.511602 -0.0574928 -0.122207 145 109 0
0.512063 -0.06273 -0.12234 182 72 0
0.512555 -0.0679602 -0.122571 218 36 0
0.51294 -0.0731769 -0.1228 255 0 0
