ply
format ascii 1.0
comment Generated by robot_control PLYWriter
element vertex 39
property float x
property float y
property float z
property uchar red
property uchar green
property uchar blue
end_header
0.574917 0.168419 -0.116435 0 255 0
0.578786 0.167616 -0.11704 6 248 0
0.583523 0.165412 -0.117181 13 241 0
0.587017 0.160562 -0.116637 20 234 0
0.588361 0.155071 -0.115388 26 228 0
0.588396 0.149226 -0.113991 33 221 0
0.586441 0.143772 -0.112875 40 214 0
0.581178 0.141085 -0.111809 46 208 0
0.575796 0.138575 -0.110909 53 201 0
0.569964 0.137624 -0.110329 60 194 0
0.565059 0.140706 -0.109961 67 187 0
0.560066 0.144044 -0.109863 73 181 0
0.555272 0.147662 -0.110001 80 174 0
0.553418 0.153208 -0.110262 87 167 0
0.552916 0.159144 -0.110692 93 161 0
0.552937 0.165118 -0.111353 100 154 0
0.555425 0.170386 -0.112159 107 147 0
0.559769 0.174332 -0.113068 114 140 0
0.565026 0.177041 -0.113961 120 134 0
0.570612 0.179126 -0.114679 127 127 0
0.576178 0.177997 -0.115305 134 120 0
0.581272 0.17485 -0.115643 140 114 0
0.585077 0.170369 -0.115847 147 107 0
0.586832 0.164667 -0.115806 154 100 0
0.586475 0.158736 -0.115621 161 93 0
0.582115 0.154684 -0.115249 167 87 0
0.577909 0.150864 -0.114642 174 80 0
0.572208 0.14952 -0.113724 181 73 0
0.566272 0.149705 -0.112856 187 67 0
0.560826 0.151734 -0.112002 194 60 0
0.555964 0.155215 -0.111589 201 53 0
0.552464 0.160092 -0.11139 208 46 0
0.550515 0.165573 -0.111509 214 40 0
0.549617 0.171467 -0.112009 221 33 0
0.550131 0.176822 -0.1126 228 26 0
0.553087 0.181875 -0.113472 234 20 0
0.556816 0.186412 -0.114529 241 13 0
0.561961 0.187964 -0.11577 248 6 0
0.567241 0.188448 -0.116706 255 0 0
