ply
format ascii 1.0
comment Generated by robot_control PLYWriter
element vertex 11
property float x
property float y
property float z
property uchar red
property uchar green
property uchar blue
end_header
0.636453 -0.0591537 -0.102593 0 255 0
0.636346 -0.0643524 -0.102895 25 229 0
0.636293 -0.0695287 -0.103482 51 204 0
0.636223 -0.0747053 -0.104065 76 178 0
0.636211 -0.0798753 -0.104708 102 153 0
0.636258 -0.0850407 -0.105386 127 127 0
0.636309 -0.090199 -0.106117 153 101 0
0.63636 -0.0953551 -0.106863 178 76 0
0.636416 -0.100516 -0.107574 204 50 0
0.636467 -0.105686 -0.10822 229 25 0
0.636515 -0.110863 -0.1088 255 0 0
