ply
format ascii 1.0
comment Generated by robot_control PLYWriter
element vertex 66
property float x
property float y
property float z
property uchar red
property uchar green
property uchar blue
end_header
0.625856 0.000316315 -0.121144 0 255 0
0.629138 -0.00226482 -0.11978 3 251 0
0.633245 -0.00586012 -0.117996 7 247 0
0.635499 -0.0100199 -0.115889 11 243 0
0.636911 -0.0151592 -0.113967 15 239 0
0.636777 -0.0208425 -0.112168 19 235 0
0.634088 -0.02562 -0.110596 23 231 0
0.630735 -0.0303988 -0.10951 27 227 0
0.625865 -0.0333561 -0.108726 31 223 0
0.620133 -0.0343253 -0.108818 35 219 0
0.614707 -0.0328642 -0.110093 39 215 0
0.609729 -0.029979 -0.111605 43 211 0
0.606245 -0.0255671 -0.113207 47 207 0
0.607434 -0.0202376 -0.114633 51 204 0
0.610196 -0.0152351 -0.115988 54 200 0
0.614179 -0.0126962 -0.116463 58 196 0
0.619266 -0.00997861 -0.116215 62 192 0
0.624894 -0.0112617 -0.1152 66 188 0
0.630138 -0.0137878 -0.113899 70 184 0
0.632685 -0.0189438 -0.112671 74 180 0
0.635503 -0.0238831 -0.111144 78 176 0
0.635946 -0.0294891 -0.109912 82 172 0
0.634037 -0.0350277 -0.108795 86 168 0
0.630611 -0.0394373 -0.107931 90 164 0
0.626032 -0.0431694 -0.107319 94 160 0
0.620449 -0.044134 -0.107044 98 156 0
0.614514 -0.0440977 -0.107371 102 153 0
0.609507 -0.0412216 -0.108413 105 149 0
0.606306 -0.036269 -0.10918 109 145 0
0.606611 -0.0305773 -0.110117 113 141 0
0.608559 -0.025809 -0.11058 117 137 0
0.613621 -0.0227204 -0.110794 121 133 0
0.619086 -0.0203543 -0.110703 125 129 0
0.624557 -0.0222018 -0.110083 129 125 0
0.629429 -0.0255798 -0.10945 133 121 0
0.633623 -0.029589 -0.108556 137 117 0
0.634733 -0.0351 -0.107425 141 113 0
0.634649 -0.0410035 -0.106583 145 109 0
0.632686 -0.0463838 -0.105605 149 105 0
0.628531 -0.0506447 -0.105205 153 101 0
0.62401 -0.0541592 -0.104912 156 98 0
0.6182 -0.0550059 -0.104968 160 94 0
0.612842 -0.0552733 -0.105208 164 90 0
0.608085 -0.0517242 -0.105653 168 86 0
0.605632 -0.0466965 -0.10648 172 82 0
0.605973 -0.0416372 -0.107016 176 78 0
0.607762 -0.0360636 -0.10741 180 74 0
0.612872 -0.0330167 -0.107503 184 70 0
0.618468 -0.0309842 -0.107339 188 66 0
0.62377 -0.033397 -0.106847 192 62 0
0.629332 -0.035416 -0.106097 196 58 0
0.632777 -0.0398543 -0.105383 200 54 0
0.633613 -0.0455482 -0.104512 204 50 0
0.633387 -0.0510943 -0.103847 207 47 0
0.632513 -0.056772 -0.103259 211 43 0
0.627812 -0.0602776 -0.102866 215 39 0
0.623959 -0.0643961 -0.102769 219 35 0
0.618419 -0.0657006 -0.103052 223 31 0
0.613397 -0.0656259 -0.103809 227 27 0
0.60847 -0.0634429 -0.104533 231 23 0
0.604686 -0.0589575 -0.105433 235 19 0
0.604272 -0.0532501 -0.106273 239 15 0
0.606721 -0.0486073 -0.106541 243 11 0
0.609499 -0.0440077 -0.106452 247 7 0
0.614967 -0.0426404 -0.106212 251 3 0
0.618722 -0.0426011 -0.106025 255 0 0
