ply
format ascii 1.0
comment Generated by robot_control PLYWriter
element vertex 33
property float x
property float y
property float z
property uchar red
property uchar green
property uchar blue
end_header
0.638422 0.184864 -0.138157 0 255 0
0.643088 0.18253 -0.137479 7 247 0
0.646135 0.178186 -0.136331 15 239 0
0.648427 0.173182 -0.134791 23 231 0
0.647021 0.1678 -0.133781 31 223 0
0.642088 0.164741 -0.133167 39 215 0
0.637016 0.161749 -0.133071 47 207 0
0.631804 0.163622 -0.133399 55 199 0
0.626682 0.165373 -0.133985 63 191 0
0.623147 0.170044 -0.134781 71 183 0
0.620077 0.174939 -0.135893 79 175 0
0.620207 0.180748 -0.137064 87 167 0
0.62082 0.186446 -0.138084 95 159 0
0.624066 0.190893 -0.13893 103 151 0
0.629457 0.192898 -0.139595 111 143 0
0.634182 0.195532 -0.140074 119 135 0
0.6401 0.195287 -0.14018 127 127 0
0.645494 0.193326 -0.139964 135 119 0
0.650139 0.189708 -0.139508 143 111 0
0.650488 0.184054 -0.138774 151 103 0
0.650235 0.178194 -0.137919 159 95 0
0.646329 0.174534 -0.137062 167 87 0
0.640657 0.17318 -0.136617 175 79 0
0.634749 0.173295 -0.13645 183 71 0
0.629215 0.175293 -0.136712 191 63 0
0.625794 0.179706 -0.137425 199 55 0
0.622724 0.184564 -0.138431 207 47 0
0.622804 0.190325 -0.139802 215 39 0
0.624486 0.195748 -0.141073 223 31 0
0.627171 0.200164 -0.142828 231 23 0
0.631076 0.203377 -0.14452 239 15 0
0.634447 0.206531 -0.146049 247 7 0
0.6393 0.205495 -0.14698 255 0 0
