ply
format ascii 1.0
comment Generated by robot_control PLYWriter
element vertex 11
property float x
property float y
property float z
property uchar red
property uchar green
property uchar blue
end_header
0.500884 0.0455095 -0.099346 0 255 0
0.501373 0.0407864 -0.0983645 25 229 0
0.50166 0.036022 -0.0975133 51 204 0
0.501858 0.0312405 -0.0967303 76 178 0
0.502074 0.0264579 -0.0959596 102 153 0
0.502354 0.0216677 -0.0952589 127 127 0
0.502624 0.0168611 -0.0946774 153 101 0
0.502888 0.0120465 -0.0941635 178 76 0
0.503153 0.00722586 -0.09371 204 50 0
0.50337 0.00239871 -0.0933051 229 25 0
0.503659 -0.00242967 -0.0929626 255 0 0
