ply
format ascii 1.0
comment Generated by robot_control PLYWriter
element vertex 49
property float x
property float y
property float z
property uchar red
property uchar green
property uchar blue
end_header
0.700301 0.179147 -0.15656 0 255 0
0.704718 0.177446 -0.156556 5 249 0
0.710223 0.175869 -0.155977 10 244 0
0.714296 0.172203 -0.154727 15 239 0
0.71658 0.16712 -0.152971 21 233 0
0.717897 0.161685 -0.150982 26 228 0
0.71599 0.156857 -0.148693 31 223 0
0.713488 0.151799 -0.147286 37 217 0
0.708874 0.148465 -0.145953 42 212 0
0.702891 0.14809 -0.145404 47 207 0
0.696971 0.148196 -0.145654 53 201 0
0.693827 0.152929 -0.146704 58 196 0
0.690245 0.157633 -0.147891 63 191 0
0.691422 0.163114 -0.149363 69 185 0
0.694544 0.167924 -0.150943 74 180 0
0.699858 0.170672 -0.151739 79 175 0
0.704984 0.172353 -0.152153 85 169 0
0.710684 0.171065 -0.152176 90 164 0
0.716453 0.169922 -0.151642 95 159 0
0.720123 0.165323 -0.150814 100 154 0
0.722924 0.160028 -0.14994 106 148 0
0.724582 0.154606 -0.148398 111 143 0
0.722849 0.149067 -0.147216 116 138 0
0.718849 0.144792 -0.146052 122 132 0
0.713824 0.141664 -0.144808 127 127 0
0.707895 0.141599 -0.144417 132 122 0
0.702748 0.143752 -0.14462 138 116 0
0.698524 0.147976 -0.145451 143 111 0
0.696802 0.153456 -0.146624 148 106 0
0.698435 0.158922 -0.147657 154 100 0
0.702081 0.163572 -0.148875 159 95 0
0.707203 0.16627 -0.149757 164 90 0
0.712926 0.164968 -0.150306 170 84 0
0.718877 0.165139 -0.150462 175 79 0
0.723836 0.161753 -0.150028 180 74 0
0.727769 0.157311 -0.149113 185 69 0
0.730995 0.152329 -0.147921 191 63 0
0.730439 0.146685 -0.146468 196 58 0
0.727791 0.141438 -0.145017 201 53 0
0.724295 0.136945 -0.143303 207 47 0
0.718881 0.134813 -0.141922 212 42 0
0.713015 0.135528 -0.141352 217 37 0
0.707395 0.137567 -0.141558 223 31 0
0.704642 0.142633 -0.142306 228 26 0
0.703258 0.147941 -0.144076 233 21 0
0.705766 0.152741 -0.145993 239 15 0
0.708358 0.157149 -0.147504 244 10 0
0.713296 0.159145 -0.148944 249 5 0
0.718725 0.158949 -0.150079 255 0 0
