ply
format ascii 1.0
comment Generated by robot_control PLYWriter
element vertex 8
property float x
property float y
property float z
property uchar red
property uchar green
property uchar blue
end_header
0.60874 0.00696262 -0.0963115 0 255 0
0.608813 0.012205 -0.0970624 36 218 0
0.608856 0.0174522 -0.0977818 72 182 0
0.608891 0.0226898 -0.0985677 109 145 0
0.608922 0.0279331 -0.0993152 145 109 0
0.608932 0.0331832 -0.100015 182 72 0
0.608951 0.038425 -0.100773 218 36 0
0.608997 0.0436745 -0.101474 255 0 0
