ply
format ascii 1.0
comment Generated by robot_control PLYWriter
element vertex 114
property float x
property float y
property float z
property uchar red
property uchar green
property uchar blue
end_header
0.586493 -0.0224271 -0.0859328 0 255 0
0.591298 -0.0251953 -0.0858924 2 252 0
0.594539 -0.0295407 -0.0854127 4 250 0
0.595852 -0.0347488 -0.0846965 6 248 0
0.594509 -0.0402925 -0.084225 9 245 0
0.590495 -0.044564 -0.0839963 11 243 0
0.585424 -0.0467433 -0.0841107 13 241 0
0.579484 -0.04665 -0.0846678 15 239 0
0.574492 -0.0442606 -0.0851501 18 236 0
0.569468 -0.0416044 -0.0856853 20 234 0
0.568063 -0.0362094 -0.0860981 22 232 0
0.566577 -0.0307045 -0.0864469 24 230 0
0.566598 -0.0247307 -0.0866199 27 227 0
0.569177 -0.0196412 -0.0867808 29 225 0
0.572749 -0.0148789 -0.0868464 31 223 0
0.578003 -0.012418 -0.0868868 33 221 0
0.58397 -0.0121585 -0.0868435 36 218 0
0.588735 -0.0144834 -0.0867444 38 216 0
0.593622 -0.016192 -0.0865768 40 214 0
0.595418 -0.021779 -0.0861826 42 212 0
0.595468 -0.0270746 -0.0859181 45 209 0
0.59378 -0.0326212 -0.0856139 47 207 0
0.589406 -0.0362057 -0.0855142 49 205 0
0.583551 -0.0367318 -0.0855331 51 203 0
0.577579 -0.0366009 -0.0856609 54 200 0
0.572529 -0.0336851 -0.0858986 56 198 0
0.569362 -0.0286562 -0.086267 58 196 0
0.566725 -0.0233136 -0.0867263 60 194 0
0.566605 -0.0173804 -0.0871174 63 191 0
0.567082 -0.0115436 -0.0874203 65 189 0
0.571205 -0.00743882 -0.0877646 67 187 0
0.57572 -0.00358491 -0.0879864 69 185 0
0.58131 -0.00267303 -0.0881376 72 182 0
0.587231 -0.00318736 -0.0881294 74 180 0
0.592396 -0.0057174 -0.087955 76 178 0
0.596152 -0.0103385 -0.0877354 78 176 0
0.596904 -0.0162468 -0.0874368 81 173 0
0.594943 -0.0216847 -0.0871794 83 171 0
0.590107 -0.0249786 -0.0869072 85 169 0
0.584387 -0.0263018 -0.0867129 88 166 0
0.578412 -0.0263113 -0.08669 90 164 0
0.572794 -0.0246685 -0.086826 92 162 0
0.569965 -0.0194323 -0.0871246 94 160 0
0.567889 -0.0138381 -0.0874478 97 157 0
0.566564 -0.00813683 -0.0878947 99 155 0
0.567758 -0.00251539 -0.088323 101 153 0
0.571407 0.00218656 -0.0887304 103 151 0
0.575895 0.00605733 -0.0890658 106 148 0
0.581497 0.00747666 -0.0893346 108 146 0
0.587389 0.00685864 -0.0894722 110 144 0
0.592379 0.00379267 -0.0892874 112 142 0
0.595629 -0.00107408 -0.088996 115 139 0
0.596219 -0.00694043 -0.0885934 117 137 0
0.59455 -0.0123754 -0.0881722 119 135 0
0.590062 -0.0160942 -0.0879324 121 133 0
0.584327 -0.0170159 -0.087749 124 130 0
0.578421 -0.0167025 -0.0877191 126 128 0
0.573515 -0.013514 -0.0878309 128 126 0
0.570129 -0.00860533 -0.0880913 130 124 0
0.567518 -0.00326023 -0.0884894 133 121 0
0.566479 0.00249602 -0.0889583 135 119 0
0.567909 0.00820043 -0.0895284 137 117 0
0.571823 0.0126447 -0.0899533 139 115 0
0.577044 0.0153049 -0.0904437 142 112 0
0.582634 0.0174064 -0.0906573 144 110 0
0.588381 0.0166406 -0.0907682 146 108 0
0.593075 0.0130549 -0.0906501 148 106 0
0.596066 0.00808314 -0.0903028 151 103 0
0.596159 0.00211805 -0.0899747 153 101 0
0.593954 -0.00299733 -0.0895999 155 99 0
0.589464 -0.0064663 -0.0892584 157 97 0
0.58349 -0.00652193 -0.0891045 160 94 0
0.577514 -0.00649254 -0.0890532 162 92 0
0.573016 -0.00289018 -0.0890524 164 90 0
0.568884 0.00142732 -0.0890906 166 88 0
0.566475 0.00675478 -0.0892404 169 85 0
0.56725 0.0125802 -0.0894546 171 83 0
0.569782 0.0179233 -0.0897633 173 81 0
0.57355 0.0225339 -0.0902664 176 78 0
0.57857 0.0255976 -0.0906903 178 76 0
0.584163 0.0274751 -0.0910092 180 74 0
0.589699 0.0258804 -0.0911489 182 72 0
0.594676 0.0227476 -0.0911892 185 69 0
0.59622 0.017101 -0.0911818 187 67 0
0.596143 0.0111277 -0.0910593 189 65 0
0.593555 0.00614367 -0.0907774 191 63 0
0.588479 0.00315821 -0.090374 194 60 0
0.582652 0.00233733 -0.0901105 196 58 0
0.57706 0.00442232 -0.0898561 198 56 0
0.571843 0.0071516 -0.0895155 200 54 0
0.568792 0.0121814 -0.0891721 203 51 0
0.567429 0.0178096 -0.0887335 205 49 0
0.568547 0.0229507 -0.0883516 207 47 0
0.570254 0.028516 -0.0879841 209 45 0
0.574036 0.0331228 -0.0877618 212 42 0
0.579176 0.0360154 -0.087781 214 40 0
0.584837 0.0372399 -0.0882787 216 38 0
0.590319 0.0351604 -0.0891699 218 36 0
0.595106 0.0320571 -0.0904345 221 33 0
0.597558 0.0271388 -0.0915611 223 31 0
0.597481 0.021747 -0.0921332 225 29 0
0.595522 0.0163949 -0.0921673 227 27 0
0.590688 0.0136909 -0.0916115 230 24 0
0.585071 0.0120417 -0.0911162 232 22 0
0.57921 0.0125657 -0.0906871 234 20 0
0.574274 0.0155056 -0.0903119 236 18 0
0.571157 0.0194086 -0.0895287 239 15 0
0.568822 0.0239583 -0.0881937 241 13 0
0.568205 0.0294528 -0.0862043 243 11 0
0.568192 0.0349125 -0.0838722 245 9 0
0.570801 0.0396215 -0.0820209 248 6 0
0.574285 0.0433548 -0.0801624 250 4 0
0.578531 0.0457816 -0.0793942 252 2 0
0.584197 0.0461788 -0.079357 255 0 0
