ply
format ascii 1.0
comment Generated by robot_control PLYWriter
element vertex 113
property float x
property float y
property float z
property uchar red
property uchar green
property uchar blue
end_header
0.700266 0.0964152 -0.13577 0 255 0
0.70305 0.0927822 -0.135369 2 252 0
0.706778 0.0902939 -0.134595 4 250 0
0.708231 0.0851929 -0.133457 6 248 0
0.708965 0.0810044 -0.132176 9 245 0
0.709359 0.075943 -0.130258 11 243 0
0.70724 0.0710719 -0.128622 13 241 0
0.703696 0.067473 -0.127287 15 239 0
0.69897 0.0649311 -0.12629 18 236 0
0.693034 0.06508 -0.125704 20 234 0
0.687107 0.0646436 -0.125855 22 232 0
0.684165 0.0693158 -0.126688 25 229 0
0.68085 0.0740309 -0.127786 27 227 0
0.681051 0.0797701 -0.129384 29 225 0
0.683983 0.0844368 -0.130722 31 223 0
0.688761 0.0872494 -0.131544 34 220 0
0.694186 0.0884173 -0.131908 36 218 0
0.699856 0.0871095 -0.131799 38 216 0
0.704064 0.083011 -0.131359 40 214 0
0.70812 0.0790072 -0.130564 43 211 0
0.710001 0.0735784 -0.129169 45 209 0
0.710555 0.0678767 -0.127742 47 207 0
0.708031 0.0626622 -0.126406 50 204 0
0.704074 0.0586985 -0.125222 52 202 0
0.699339 0.055861 -0.124258 54 200 0
0.693385 0.0560051 -0.123791 56 198 0
0.68749 0.0563975 -0.123861 59 195 0
0.683231 0.0602181 -0.124434 61 193 0
0.680326 0.0652468 -0.125278 63 191 0
0.68188 0.0707269 -0.126353 66 188 0
0.684435 0.0759812 -0.127298 68 186 0
0.689456 0.0790435 -0.128082 70 184 0
0.695107 0.0786795 -0.128375 72 182 0
0.701007 0.0780638 -0.128363 75 179 0
0.705353 0.0741012 -0.127849 77 177 0
0.708979 0.0694054 -0.127179 79 175 0
0.711551 0.0642197 -0.126259 81 173 0
0.710872 0.0586308 -0.125078 84 170 0
0.708836 0.0530927 -0.124142 86 168 0
0.70481 0.049019 -0.122934 88 166 0
0.699576 0.0462452 -0.122184 91 163 0
0.693753 0.0458406 -0.121815 93 161 0
0.688148 0.047754 -0.121738 95 159 0
0.683749 0.0514157 -0.122132 97 157 0
0.68182 0.0570176 -0.12269 100 154 0
0.683573 0.0624591 -0.123568 102 152 0
0.687818 0.0664765 -0.12435 104 150 0
0.693026 0.0691197 -0.12494 107 147 0
0.698903 0.0684694 -0.125127 109 145 0
0.704223 0.0659141 -0.124895 111 143 0
0.708681 0.061974 -0.124441 113 141 0
0.71092 0.0568172 -0.123566 116 138 0
0.713032 0.0513965 -0.122678 118 136 0
0.710982 0.0458609 -0.121754 120 134 0
0.708608 0.0406438 -0.12089 122 132 0
0.703111 0.038485 -0.120058 125 129 0
0.697519 0.0369813 -0.119455 127 127 0
0.691557 0.0369447 -0.119155 129 125 0
0.686939 0.0404601 -0.119161 132 122 0
0.683588 0.0453087 -0.119688 134 120 0
0.683197 0.0510587 -0.120507 136 118 0
0.6855 0.0563342 -0.121254 138 116 0
0.690859 0.0588527 -0.122014 141 113 0
0.69654 0.0600156 -0.122419 143 111 0
0.702509 0.0598138 -0.122504 145 109 0
0.707232 0.0564524 -0.122161 147 107 0
0.710886 0.051745 -0.121733 150 104 0
0.712838 0.0464313 -0.120734 152 102 0
0.712406 0.0405405 -0.119834 154 100 0
0.710986 0.0349711 -0.118722 157 97 0
0.707516 0.0302264 -0.117783 159 95 0
0.70275 0.0268139 -0.116944 161 93 0
0.697096 0.0260894 -0.116339 163 91 0
0.691641 0.0285055 -0.116144 166 88 0
0.687492 0.0324475 -0.116349 168 86 0
0.684139 0.0366562 -0.117063 170 84 0
0.684312 0.0425527 -0.117986 173 81 0
0.687025 0.047474 -0.118987 175 79 0
0.69235 0.0500653 -0.119645 177 77 0
0.698151 0.05118 -0.120142 179 75 0
0.7037 0.0491958 -0.120217 182 72 0
0.708507 0.0457719 -0.119859 184 70 0
0.711779 0.0410197 -0.119239 186 68 0
0.714493 0.0358358 -0.118197 188 66 0
0.713561 0.0301187 -0.117033 191 63 0
0.711703 0.0247967 -0.115874 193 61 0
0.707453 0.0207417 -0.114953 195 59 0
0.702419 0.0178295 -0.114022 198 56 0
0.696479 0.017889 -0.113394 200 54 0
0.691372 0.0203884 -0.113213 202 52 0
0.686691 0.0236748 -0.113732 204 50 0
0.684932 0.029295 -0.11454 207 47 0
0.685659 0.0349209 -0.115703 209 45 0
0.689631 0.0390788 -0.116782 211 43 0
0.694625 0.0418128 -0.11769 214 40 0
0.700561 0.0415582 -0.118091 216 38 0
0.704841 0.038992 -0.118262 218 36 0
0.70985 0.0372172 -0.11798 220 34 0
0.713076 0.0323055 -0.116966 223 31 0
0.71512 0.0268525 -0.11596 225 29 0
0.714642 0.0210302 -0.114727 227 27 0
0.712769 0.0158219 -0.113207 229 25 0
0.709338 0.0114783 -0.111576 232 22 0
0.703929 0.00985325 -0.110703 234 20 0
0.69906 0.00751893 -0.110151 236 18 0
0.693482 0.00918164 -0.110083 239 15 0
0.688665 0.0118381 -0.1104 241 13 0
0.686571 0.016928 -0.111309 243 11 0
0.685236 0.0223579 -0.11229 245 9 0
0.687411 0.0261346 -0.113521 248 6 0
0.690884 0.0299682 -0.114692 250 4 0
0.694715 0.0318538 -0.11561 252 2 0
0.700284 0.0316919 -0.116207 255 0 0
