ply
format ascii 1.0
comment Generated by robot_control PLYWriter
element vertex 200
property float x
property float y
property float z
property uchar red
property uchar green
property uchar blue
end_header
0.648688 -0.134212 -0.119748 0 255 0
0.648688 -0.134212 -0.119748 1 253 0
0.648688 -0.134212 -0.119748 2 252 0
0.648688 -0.134212 -0.119748 3 251 0
0.648688 -0.134212 -0.119748 5 249 0
0.648688 -0.134212 -0.119748 6 248 0
0.648688 -0.134212 -0.119748 7 247 0
0.648688 -0.134212 -0.119748 8 246 0
0.648688 -0.134212 -0.119748 10 244 0
0.648688 -0.134212 -0.119748 11 243 0
0.648688 -0.134212 -0.119748 12 242 0
0.648688 -0.134212 -0.119748 14 240 0
0.648688 -0.134212 -0.119748 15 239 0
0.648688 -0.134212 -0.119748 16 238 0
0.648688 -0.134212 -0.119748 17 237 0
0.648688 -0.134212 -0.119748 19 235 0
0.648688 -0.134212 -0.119748 20 234 0
0.648688 -0.134212 -0.119748 21 233 0
0.648688 -0.134212 -0.119748 23 231 0
0.648688 -0.134212 -0.119748 24 230 0
0.648688 -0.134212 -0.119748 25 229 0
0.648688 -0.134212 -0.119748 26 228 0
0.648688 -0.134212 -0.119748 28 226 0
0.648688 -0.134212 -0.119748 29 225 0
0.648688 -0.134212 -0.119748 30 224 0
0.648688 -0.134212 -0.119748 32 222 0
0.648688 -0.134212 -0.119748 33 221 0
0.648688 -0.134212 -0.119748 34 220 0
0.648688 -0.134212 -0.119748 35 219 0
0.648688 -0.134212 -0.119748 37 217 0
0.648688 -0.134212 -0.119748 38 216 0
0.648688 -0.134212 -0.119748 39 215 0
0.648688 -0.134212 -0.119748 41 213 0
0.648688 -0.134212 -0.119748 42 212 0
0.648688 -0.134212 -0.119748 43 211 0
0.648688 -0.134212 -0.119748 44 210 0
0.648688 -0.134212 -0.119748 46 208 0
0.648688 -0.134212 -0.119748 47 207 0
0.648688 -0.134212 -0.119748 48 206 0
0.648688 -0.134212 -0.119748 49 205 0
0.648688 -0.134212 -0.119748 51 203 0
0.648688 -0.134212 -0.119748 52 202 0
0.648688 -0.134212 -0.119748 53 201 0
0.648688 -0.134212 -0.119748 55 199 0
0.648688 -0.134212 -0.119748 56 198 0
0.648688 -0.134212 -0.119748 57 197 0
0.648688 -0.134212 -0.119748 58 196 0
0.648688 -0.134212 -0.119748 60 194 0
0.648688 -0.134212 -0.119748 61 193 0
0.648688 -0.134212 -0.119748 62 192 0
0.648688 -0.134212 -0.119748 64 190 0
0.648688 -0.134212 -0.119748 65 189 0
0.648688 -0.134212 -0.119748 66 188 0
0.648688 -0.134212 -0.119748 67 187 0
0.648688 -0.134212 -0.119748 69 185 0
0.648688 -0.134212 -0.119748 70 184 0
0.648688 -0.134212 -0.119748 71 183 0
0.648688 -0.134212 -0.119748 73 181 0
0.648688 -0.134212 -0.119748 74 180 0
0.648688 -0.134212 -0.119748 75 179 0
0.648688 -0.134212 -0.119748 76 178 0
0.648688 -0.134212 -0.119748 78 176 0
0.648688 -0.134212 -0.119748 79 175 0
0.648688 -0.134212 -0.119748 80 174 0
0.648688 -0.134212 -0.119748 82 172 0
0.648688 -0.134212 -0.119748 83 171 0
0.648688 -0.134212 -0.119748 84 170 0
0.648688 -0.134212 -0.119748 85 169 0
0.648688 -0.134212 -0.119748 87 167 0
0.648688 -0.134212 -0.119748 88 166 0
0.648688 -0.134212 -0.119748 89 165 0
0.648688 -0.134212 -0.119748 90 164 0
0.648688 -0.134212 -0.119748 92 162 0
0.648688 -0.134212 -0.119748 93 161 0
0.648688 -0.134212 -0.119748 94 160 0
0.648688 -0.134212 -0.119748 96 158 0
0.648688 -0.134212 -0.119748 97 157 0
0.648688 -0.134212 -0.119748 98 156 0
0.648688 -0.134212 -0.119748 99 155 0
0.648688 -0.134212 -0.119748 101 153 0
0.648688 -0.134212 -0.119748 102 152 0
0.648688 -0.134212 -0.119748 103 151 0
0.648688 -0.134212 -0.119748 105 149 0
0.648688 -0.134212 -0.119748 106 148 0
0.648688 -0.134212 -0.119748 107 147 0
0.648688 -0.134212 -0.119748 108 146 0
0.648688 -0.134212 -0.119748 110 144 0
0.648688 -0.134212 -0.119748 111 143 0
0.648688 -0.134212 -0.119748 112 142 0
0.648688 -0.134212 -0.119748 114 140 0
0.648688 -0.134212 -0.119748 115 139 0
0.648688 -0.134212 -0.119748 116 138 0
0.648688 -0.134212 -0.119748 117 137 0
0.648688 -0.134212 -0.119748 119 135 0
0.648688 -0.134212 -0.119748 120 134 0
0.648688 -0.134212 -0.119748 121 133 0
0.648688 -0.134212 -0.119748 123 131 0
0.648688 -0.134212 -0.119748 124 130 0
0.648688 -0.134212 -0.119748 125 129 0
0.648688 -0.134212 -0.119748 126 128 0
0.648688 -0.134212 -0.119748 128 126 0
0.648688 -0.134212 -0.119748 129 125 0
0.648688 -0.134212 -0.119748 130 124 0
0.648688 -0.134212 -0.119748 131 123 0
0.648688 -0.134212 -0.119748 133 121 0
0.648688 -0.134212 -0.119748 134 120 0
0.648688 -0.134212 -0.119748 135 119 0
0.648688 -0.134212 -0.119748 137 117 0
0.648688 -0.134212 -0.119748 138 116 0
0.648688 -0.134212 -0.119748 139 115 0
0.648688 -0.134212 -0.119748 140 114 0
0.648688 -0.134212 -0.119748 142 112 0
0.648688 -0.134212 -0.119748 143 111 0
0.648688 -0.134212 -0.119748 144 110 0
0.648688 -0.134212 -0.119748 146 108 0
0.648688 -0.134212 -0.119748 147 107 0
0.648688 -0.134212 -0.119748 148 106 0
0.648688 -0.134212 -0.119748 149 105 0
0.648688 -0.134212 -0.119748 151 103 0
0.648688 -0.134212 -0.119748 152 102 0
0.648688 -0.134212 -0.119748 153 101 0
0.648688 -0.134212 -0.119748 155 99 0
0.648688 -0.134212 -0.119748 156 98 0
0.648688 -0.134212 -0.119748 157 97 0
0.648688 -0.134212 -0.119748 158 96 0
0.648688 -0.134212 -0.119748 160 94 0
0.648688 -0.134212 -0.119748 161 93 0
0.648688 -0.134212 -0.119748 162 92 0
0.648688 -0.134212 -0.119748 164 90 0
0.648688 -0.134212 -0.119748 165 89 0
0.648688 -0.134212 -0.119748 166 88 0
0.648688 -0.134212 -0.119748 167 87 0
0.648688 -0.134212 -0.119748 169 85 0
0.648688 -0.134212 -0.119748 170 84 0
0.648688 -0.134212 -0.119748 171 83 0
0.648688 -0.134212 -0.119748 172 82 0
0.648688 -0.134212 -0.119748 174 80 0
0.648688 -0.134212 -0.119748 175 79 0
0.648688 -0.134212 -0.119748 176 78 0
0.648688 -0.134212 -0.119748 178 76 0
0.648688 -0.134212 -0.119748 179 75 0
0.648688 -0.134212 -0.119748 180 74 0
0.648688 -0.134212 -0.119748 181 73 0
0.648688 -0.134212 -0.119748 183 71 0
0.648688 -0.134212 -0.119748 184 70 0
0.648688 -0.134212 -0.119748 185 69 0
0.648688 -0.134212 -0.119748 187 67 0
0.648688 -0.134212 -0.119748 188 66 0
0.648688 -0.134212 -0.119748 189 65 0
0.648688 -0.134212 -0.119748 190 64 0
0.648688 -0.134212 -0.119748 192 62 0
0.648688 -0.134212 -0.119748 193 61 0
0.648688 -0.134212 -0.119748 194 60 0
0.648688 -0.134212 -0.119748 196 58 0
0.648688 -0.134212 -0.119748 197 57 0
0.648688 -0.134212 -0.119748 198 56 0
0.648688 -0.134212 -0.119748 199 55 0
0.648688 -0.134212 -0.119748 201 53 0
0.648688 -0.134212 -0.119748 202 52 0
0.648688 -0.134212 -0.119748 203 51 0
0.648688 -0.134212 -0.119748 205 49 0
0.648688 -0.134212 -0.119748 206 48 0
0.648688 -0.134212 -0.119748 207 47 0
0.648688 -0.134212 -0.119748 208 46 0
0.648688 -0.134212 -0.119748 210 44 0
0.648688 -0.134212 -0.119748 211 43 0
0.648688 -0.134212 -0.119748 212 42 0
0.648688 -0.134212 -0.119748 213 41 0
0.648688 -0.134212 -0.119748 215 39 0
0.648688 -0.134212 -0.119748 216 38 0
0.648688 -0.134212 -0.119748 217 37 0
0.648688 -0.134212 -0.119748 219 35 0
0.648688 -0.134212 -0.119748 220 34 0
0.648688 -0.134212 -0.119748 221 33 0
0.648688 -0.134212 -0.119748 222 32 0
0.648688 -0.134212 -0.119748 224 30 0
0.648688 -0.134212 -0.119748 225 29 0
0.648688 -0.134212 -0.119748 226 28 0
0.648688 -0.134212 -0.119748 228 26 0
0.648688 -0.134212 -0.119748 229 25 0
0.648688 -0.134212 -0.119748 230 24 0
0.648688 -0.134212 -0.119748 231 23 0
0.648688 -0.134212 -0.119748 233 21 0
0.648688 -0.134212 -0.119748 234 20 0
0.648688 -0.134212 -0.119748 235 19 0
0.648688 -0.134212 -0.119748 237 17 0
0.648688 -0.134212 -0.119748 238 16 0
0.648688 -0.134212 -0.119748 239 15 0
0.648688 -0.134212 -0.119748 240 14 0
0.648688 -0.134212 -0.119748 242 12 0
0.648688 -0.134212 -0.119748 243 11 0
0.648688 -0.134212 -0.119748 244 10 0
0.648688 -0.134212 -0.119748 246 8 0
0.648688 -0.134212 -0.119748 247 7 0
0.648688 -0.134212 -0.119748 248 6 0
0.648688 -0.134212 -0.119748 249 5 0
0.648688 -0.134212 -0.119748 251 3 0
0.648688 -0.134212 -0.119748 252 2 0
0.648688 -0.134212 -0.119748 253 1 0
0.648688 -0.134212 -0.119748 255 0 0
