ply
format ascii 1.0
comment Generated by robot_control PLYWriter
element vertex 59
property float x
property float y
property float z
property uchar red
property uchar green
property uchar blue
end_header
0.719883 0.0996038 -0.125995 0 255 0
0.723884 0.0991219 -0.125917 4 250 0
0.728204 0.0959089 -0.125126 8 246 0
0.730459 0.0913809 -0.124043 13 241 0
0.729171 0.0864512 -0.122428 17 237 0
0.726012 0.0827759 -0.120601 21 233 0
0.721109 0.0801306 -0.119592 26 228 0
0.715725 0.080628 -0.119225 30 224 0
0.710004 0.0816132 -0.119349 35 219 0
0.705926 0.0859992 -0.120041 39 215 0
0.70325 0.091187 -0.121394 43 211 0
0.701819 0.096471 -0.122894 48 206 0
0.70336 0.102017 -0.124361 52 202 0
0.705778 0.107254 -0.125617 57 197 0
0.710836 0.110258 -0.126741 61 193 0
0.716388 0.110482 -0.127406 65 189 0
0.722188 0.109914 -0.127648 70 184 0
0.725879 0.105389 -0.127144 74 180 0
0.72831 0.100301 -0.126397 79 175 0
0.725737 0.0953036 -0.125314 83 171 0
0.722245 0.0907791 -0.124372 87 167 0
0.716291 0.0909254 -0.123898 92 162 0
0.710353 0.0919948 -0.123788 96 158 0
0.705294 0.0948835 -0.124193 101 153 0
0.702019 0.0998371 -0.124926 105 149 0
0.700507 0.10551 -0.125903 109 145 0
0.700459 0.1114 -0.127182 114 140 0
0.704105 0.115959 -0.128257 118 136 0
0.708213 0.119824 -0.129377 123 131 0
0.713784 0.121809 -0.130198 127 127 0
0.719544 0.121308 -0.130497 131 123 0
0.723607 0.117082 -0.130344 136 118 0
0.726072 0.111623 -0.129742 140 114 0
0.725614 0.105969 -0.128842 145 109 0
0.721729 0.101582 -0.127915 149 105 0
0.715761 0.101152 -0.127316 153 101 0
0.709739 0.101334 -0.126982 158 96 0
0.705368 0.104952 -0.127083 162 92 0
0.701049 0.109048 -0.127726 167 87 0
0.698943 0.114256 -0.128634 171 83 0
0.699096 0.120196 -0.129703 175 79 0
0.701628 0.125437 -0.130987 180 74 0
0.705561 0.129826 -0.132222 184 70 0
0.710917 0.131059 -0.133397 189 65 0
0.71686 0.131141 -0.134054 193 61 0
0.721833 0.127829 -0.13402 197 57 0
0.725217 0.123248 -0.133462 202 52 0
0.723687 0.117808 -0.132253 206 48 0
0.719707 0.113505 -0.130801 211 43 0
0.714169 0.112153 -0.129793 215 39 0
0.708347 0.111443 -0.129152 219 35 0
0.703698 0.114921 -0.129142 224 30 0
0.699823 0.119441 -0.129669 228 26 0
0.697203 0.124355 -0.130582 233 21 0
0.696428 0.129607 -0.132004 237 17 0
0.698329 0.134365 -0.133779 241 13 0
0.7009 0.137941 -0.135108 246 8 0
0.704626 0.140789 -0.136526 250 4 0
0.708945 0.142409 -0.138291 255 0 0
