ply
format ascii 1.0
comment Generated by robot_control PLYWriter
element vertex 10
property float x
property float y
property float z
property uchar red
property uchar green
property uchar blue
end_header
0.658849 -0.208153 -0.0445704 0 255 0
0.658871 -0.213141 -0.0432705 28 226 0
0.65891 -0.218229 -0.0424217 56 198 0
0.658943 -0.223337 -0.0417171 85 169 0
0.658974 -0.228475 -0.0412779 113 141 0
0.658996 -0.233628 -0.0411055 141 113 0
0.658988 -0.238785 -0.0411645 170 84 0
0.658972 -0.243936 -0.0414141 198 56 0
0.658955 -0.249081 -0.0417816 226 28 0
0.658917 -0.254237 -0.0419197 255 0 0
