ply
format ascii 1.0
comment Generated by robot_control PLYWriter
element vertex 14
property float x
property float y
property float z
property uchar red
property uchar green
property uchar blue
end_header
0.586816 -0.200099 -0.0428739 0 255 0
0.586843 -0.195546 -0.0408439 19 235 0
0.586855 -0.190733 -0.0395868 39 215 0
0.586816 -0.185802 -0.0388582 58 196 0
0.586532 -0.180834 -0.0385142 78 176 0
0.586244 -0.175855 -0.0385577 98 156 0
0.58597 -0.170896 -0.0390186 117 137 0
0.585762 -0.166002 -0.0399438 137 117 0
0.585478 -0.161128 -0.0409643 156 98 0
0.585182 -0.156235 -0.0418869 176 78 0
0.584885 -0.151304 -0.0425633 196 58 0
0.584776 -0.146334 -0.0429018 215 39 0
0.584797 -0.141349 -0.0430216 235 19 0
0.584646 -0.13637 -0.042822 255 0 0
