ply
format ascii 1.0
comment Generated by robot_control PLYWriter
element vertex 32
property float x
property float y
property float z
property uchar red
property uchar green
property uchar blue
end_header
0.589711 0.0674496 -0.164173 0 255 0
0.593501 0.0647617 -0.16308 8 246 0
0.597072 0.0605935 -0.161627 16 238 0
0.597052 0.0547884 -0.160171 24 230 0
0.596553 0.0491341 -0.1586 32 222 0
0.593656 0.0439668 -0.157769 41 213 0
0.589288 0.0400296 -0.157265 49 205 0
0.583502 0.0393619 -0.15703 57 197 0
0.578178 0.0366908 -0.157049 65 189 0
0.572986 0.0393249 -0.157523 74 180 0
0.567744 0.0418092 -0.158213 82 172 0
0.56436 0.0464236 -0.159184 90 164 0
0.564175 0.052272 -0.160363 98 156 0
0.566349 0.0575198 -0.161077 106 148 0
0.571486 0.0604477 -0.161452 115 139 0
0.577135 0.0615251 -0.161254 123 131 0
0.582903 0.0600313 -0.160677 131 123 0
0.586766 0.0556048 -0.159808 139 115 0
0.589209 0.0502902 -0.158504 148 106 0
0.589089 0.0447279 -0.157461 156 98 0
0.587361 0.0390511 -0.156614 164 90 0
0.584188 0.0342043 -0.155841 172 82 0
0.578868 0.0317853 -0.155299 180 74 0
0.573111 0.0303019 -0.155063 189 65 0
0.567129 0.0302229 -0.155204 197 57 0
0.561562 0.0319475 -0.155796 205 49 0
0.557569 0.0361483 -0.156966 213 41 0
0.554681 0.0410459 -0.158126 222 32 0
0.557266 0.0455219 -0.15926 230 24 0
0.558989 0.0506086 -0.160546 238 16 0
0.564335 0.0524409 -0.161209 246 8 0
0.569321 0.0544481 -0.161677 255 0 0
