ply
format ascii 1.0
comment Generated by robot_control PLYWriter
element vertex 12
property float x
property float y
property float z
property uchar red
property uchar green
property uchar blue
end_header
0.606582 -0.146415 -0.130334 0 255 0
0.606011 -0.141367 -0.129771 23 231 0
0.605716 -0.136295 -0.12919 46 208 0
0.605463 -0.131222 -0.128602 69 185 0
0.605217 -0.126146 -0.128036 92 162 0
0.604973 -0.121074 -0.127439 115 139 0
0.604834 -0.116001 -0.126818 139 115 0
0.604814 -0.110926 -0.126191 162 92 0
0.604801 -0.105857 -0.125525 185 69 0
0.604781 -0.100795 -0.124802 208 46 0
0.604765 -0.0957333 -0.124078 231 23 0
0.604741 -0.0906732 -0.123342 255 0 0
