ply
format ascii 1.0
comment Generated by robot_control PLYWriter
element vertex 21
property float x
property float y
property float z
property uchar red
property uchar green
property uchar blue
end_header
0.62401 -0.452517 -0.102747 0 255 0
0.624262 -0.447574 -0.103171 12 242 0
0.624423 -0.442639 -0.103698 25 229 0
0.624628 -0.437835 -0.104903 38 216 0
0.624871 -0.433159 -0.106552 51 204 0
0.62513 -0.42855 -0.108386 63 191 0
0.625386 -0.42395 -0.110238 76 178 0
0.625475 -0.419323 -0.112043 89 165 0
0.625578 -0.414688 -0.113825 102 153 0
0.625677 -0.410006 -0.115481 114 140 0
0.625778 -0.405298 -0.11706 127 127 0
0.625887 -0.400562 -0.118552 140 114 0
0.625994 -0.395797 -0.11995 153 101 0
0.626138 -0.391012 -0.121275 165 89 0
0.626338 -0.386187 -0.122432 178 76 0
0.626512 -0.381268 -0.122938 191 63 0
0.626648 -0.376321 -0.122671 204 50 0
0.626756 -0.371404 -0.121994 216 38 0
0.62688 -0.366493 -0.121261 229 25 0
0.627043 -0.361581 -0.120542 242 12 0
0.627292 -0.356665 -0.11988 255 0 0
