ply
format ascii 1.0
comment Generated by robot_control PLYWriter
element vertex 32
property float x
property float y
property float z
property uchar red
property uchar green
property uchar blue
end_header
0.683714 0.082929 -0.143129 0 255 0
0.688425 0.0800517 -0.141974 8 246 0
0.692652 0.0769879 -0.140789 16 238 0
0.694056 0.0712086 -0.140327 24 230 0
0.694708 0.065338 -0.140204 32 222 0
0.690638 0.0610835 -0.14043 41 213 0
0.686038 0.0577734 -0.140789 49 205 0
0.680072 0.057943 -0.141581 57 197 0
0.674523 0.0598339 -0.1424 65 189 0
0.669807 0.0632325 -0.143376 74 180 0
0.667232 0.068593 -0.143977 82 172 0
0.666215 0.0744338 -0.144465 90 164 0
0.667732 0.0802235 -0.144743 98 156 0
0.671282 0.0850259 -0.14484 106 148 0
0.676041 0.088637 -0.144642 115 139 0
0.681834 0.090215 -0.144201 123 131 0
0.687341 0.0892927 -0.143606 131 123 0
0.693008 0.0873959 -0.142942 139 115 0
0.696315 0.0825263 -0.142303 148 106 0
0.697122 0.0765668 -0.141749 156 98 0
0.69498 0.0716866 -0.141406 164 90 0
0.691731 0.0668756 -0.141318 172 82 0
0.685917 0.0659774 -0.141577 180 74 0
0.680107 0.066057 -0.142254 189 65 0
0.674793 0.0687829 -0.143005 197 57 0
0.67155 0.0731422 -0.143944 205 49 0
0.668583 0.078223 -0.144814 213 41 0
0.668313 0.0840646 -0.145672 222 32 0
0.67068 0.0894417 -0.1462 230 24 0
0.675055 0.0933491 -0.146606 238 16 0
0.679069 0.097486 -0.146728 246 8 0
0.684957 0.0978732 -0.146521 255 0 0
