ply
format ascii 1.0
comment Generated by robot_control PLYWriter
element vertex 200
property float x
property float y
property float z
property uchar red
property uchar green
property uchar blue
end_header
0.592873 -0.392252 -0.0783294 0 255 0
0.592873 -0.392252 -0.0783294 1 253 0
0.592873 -0.392252 -0.0783294 2 252 0
0.592873 -0.392252 -0.0783294 3 251 0
0.592873 -0.392252 -0.0783294 5 249 0
0.592873 -0.392252 -0.0783294 6 248 0
0.592873 -0.392252 -0.0783294 7 247 0
0.592873 -0.392252 -0.0783294 8 246 0
0.592873 -0.392252 -0.0783294 10 244 0
0.592873 -0.392252 -0.0783294 11 243 0
0.592873 -0.392252 -0.0783294 12 242 0
0.592873 -0.392252 -0.0783294 14 240 0
0.592873 -0.392252 -0.0783294 15 239 0
0.592873 -0.392252 -0.0783294 16 238 0
0.592873 -0.392252 -0.0783294 17 237 0
0.592873 -0.392252 -0.0783294 19 235 0
0.592873 -0.392252 -0.0783294 20 234 0
0.592873 -0.392252 -0.0783294 21 233 0
0.592873 -0.392252 -0.0783294 23 231 0
0.592873 -0.392252 -0.0783294 24 230 0
0.592873 -0.392252 -0.0783294 25 229 0
0.592873 -0.392252 -0.0783294 26 228 0
0.592873 -0.392252 -0.0783294 28 226 0
0.592873 -0.392252 -0.0783294 29 225 0
0.592873 -0.392252 -0.0783294 30 224 0
0.592873 -0.392252 -0.0783294 32 222 0
0.592873 -0.392252 -0.0783294 33 221 0
0.592873 -0.392252 -0.0783294 34 220 0
0.592873 -0.392252 -0.0783294 35 219 0
0.592873 -0.392252 -0.0783294 37 217 0
0.592873 -0.392252 -0.0783294 38 216 0
0.592873 -0.392252 -0.0783294 39 215 0
0.592873 -0.392252 -0.0783294 41 213 0
0.592873 -0.392252 -0.0783294 42 212 0
0.592873 -0.392252 -0.0783294 43 211 0
0.592873 -0.392252 -0.0783294 44 210 0
0.592873 -0.392252 -0.0783294 46 208 0
0.592873 -0.392252 -0.0783294 47 207 0
0.592873 -0.392252 -0.0783294 48 206 0
0.592873 -0.392252 -0.0783294 49 205 0
0.592873 -0.392252 -0.0783294 51 203 0
0.592873 -0.392252 -0.0783294 52 202 0
0.592873 -0.392252 -0.0783294 53 201 0
0.592873 -0.392252 -0.0783294 55 199 0
0.592873 -0.392252 -0.0783294 56 198 0
0.592873 -0.392252 -0.0783294 57 197 0
0.592873 -0.392252 -0.0783294 58 196 0
0.592873 -0.392252 -0.0783294 60 194 0
0.592873 -0.392252 -0.0783294 61 193 0
0.592873 -0.392252 -0.0783294 62 192 0
0.592873 -0.392252 -0.0783294 64 190 0
0.592873 -0.392252 -0.0783294 65 189 0
0.592873 -0.392252 -0.0783294 66 188 0
0.592873 -0.392252 -0.0783294 67 187 0
0.592873 -0.392252 -0.0783294 69 185 0
0.592873 -0.392252 -0.0783294 70 184 0
0.592873 -0.392252 -0.0783294 71 183 0
0.592873 -0.392252 -0.0783294 73 181 0
0.592873 -0.392252 -0.0783294 74 180 0
0.592873 -0.392252 -0.0783294 75 179 0
0.592873 -0.392252 -0.0783294 76 178 0
0.592873 -0.392252 -0.0783294 78 176 0
0.592873 -0.392252 -0.0783294 79 175 0
0.592873 -0.392252 -0.0783294 80 174 0
0.592873 -0.392252 -0.0783294 82 172 0
0.592873 -0.392252 -0.0783294 83 171 0
0.592873 -0.392252 -0.0783294 84 170 0
0.592873 -0.392252 -0.0783294 85 169 0
0.592873 -0.392252 -0.0783294 87 167 0
0.592873 -0.392252 -0.0783294 88 166 0
0.592873 -0.392252 -0.0783294 89 165 0
0.592873 -0.392252 -0.0783294 90 164 0
0.592873 -0.392252 -0.0783294 92 162 0
0.592873 -0.392252 -0.0783294 93 161 0
0.592873 -0.392252 -0.0783294 94 160 0
0.592873 -0.392252 -0.0783294 96 158 0
0.592873 -0.392252 -0.0783294 97 157 0
0.592873 -0.392252 -0.0783294 98 156 0
0.592873 -0.392252 -0.0783294 99 155 0
0.592873 -0.392252 -0.0783294 101 153 0
0.592873 -0.392252 -0.0783294 102 152 0
0.592873 -0.392252 -0.0783294 103 151 0
0.592873 -0.392252 -0.0783294 105 149 0
0.592873 -0.392252 -0.0783294 106 148 0
0.592873 -0.392252 -0.0783294 107 147 0
0.592873 -0.392252 -0.0783294 108 146 0
0.592873 -0.392252 -0.0783294 110 144 0
0.592873 -0.392252 -0.0783294 111 143 0
0.592873 -0.392252 -0.0783294 112 142 0
0.592873 -0.392252 -0.0783294 114 140 0
0.592873 -0.392252 -0.0783294 115 139 0
0.592873 -0.392252 -0.0783294 116 138 0
0.592873 -0.392252 -0.0783294 117 137 0
0.592873 -0.392252 -0.0783294 119 135 0
0.592873 -0.392252 -0.0783294 120 134 0
0.592873 -0.392252 -0.0783294 121 133 0
0.592873 -0.392252 -0.0783294 123 131 0
0.592873 -0.392252 -0.0783294 124 130 0
0.592873 -0.392252 -0.0783294 125 129 0
0.592873 -0.392252 -0.0783294 126 128 0
0.592873 -0.392252 -0.0783294 128 126 0
0.592873 -0.392252 -0.0783294 129 125 0
0.592873 -0.392252 -0.0783294 130 124 0
0.592873 -0.392252 -0.0783294 131 123 0
0.592873 -0.392252 -0.0783294 133 121 0
0.592873 -0.392252 -0.0783294 134 120 0
0.592873 -0.392252 -0.0783294 135 119 0
0.592873 -0.392252 -0.0783294 137 117 0
0.592873 -0.392252 -0.0783294 138 116 0
0.592873 -0.392252 -0.0783294 139 115 0
0.592873 -0.392252 -0.0783294 140 114 0
0.592873 -0.392252 -0.0783294 142 112 0
0.592873 -0.392252 -0.0783294 143 111 0
0.592873 -0.392252 -0.0783294 144 110 0
0.592873 -0.392252 -0.0783294 146 108 0
0.592873 -0.392252 -0.0783294 147 107 0
0.592873 -0.392252 -0.0783294 148 106 0
0.592873 -0.392252 -0.0783294 149 105 0
0.592873 -0.392252 -0.0783294 151 103 0
0.592873 -0.392252 -0.0783294 152 102 0
0.592873 -0.392252 -0.0783294 153 101 0
0.592873 -0.392252 -0.0783294 155 99 0
0.592873 -0.392252 -0.0783294 156 98 0
0.592873 -0.392252 -0.0783294 157 97 0
0.592873 -0.392252 -0.0783294 158 96 0
0.592873 -0.392252 -0.0783294 160 94 0
0.592873 -0.392252 -0.0783294 161 93 0
0.592873 -0.392252 -0.0783294 162 92 0
0.592873 -0.392252 -0.0783294 164 90 0
0.592873 -0.392252 -0.0783294 165 89 0
0.592873 -0.392252 -0.0783294 166 88 0
0.592873 -0.392252 -0.0783294 167 87 0
0.592873 -0.392252 -0.0783294 169 85 0
0.592873 -0.392252 -0.0783294 170 84 0
0.592873 -0.392252 -0.0783294 171 83 0
0.592873 -0.392252 -0.0783294 172 82 0
0.592873 -0.392252 -0.0783294 174 80 0
0.592873 -0.392252 -0.0783294 175 79 0
0.592873 -0.392252 -0.0783294 176 78 0
0.592873 -0.392252 -0.0783294 178 76 0
0.592873 -0.392252 -0.0783294 179 75 0
0.592873 -0.392252 -0.0783294 180 74 0
0.592873 -0.392252 -0.0783294 181 73 0
0.592873 -0.392252 -0.0783294 183 71 0
0.592873 -0.392252 -0.0783294 184 70 0
0.592873 -0.392252 -0.0783294 185 69 0
0.592873 -0.392252 -0.0783294 187 67 0
0.592873 -0.392252 -0.0783294 188 66 0
0.592873 -0.392252 -0.0783294 189 65 0
0.592873 -0.392252 -0.0783294 190 64 0
0.592873 -0.392252 -0.0783294 192 62 0
0.592873 -0.392252 -0.0783294 193 61 0
0.592873 -0.392252 -0.0783294 194 60 0
0.592873 -0.392252 -0.0783294 196 58 0
0.592873 -0.392252 -0.0783294 197 57 0
0.592873 -0.392252 -0.0783294 198 56 0
0.592873 -0.392252 -0.0783294 199 55 0
0.592873 -0.392252 -0.0783294 201 53 0
0.592873 -0.392252 -0.0783294 202 52 0
0.592873 -0.392252 -0.0783294 203 51 0
0.592873 -0.392252 -0.0783294 205 49 0
0.592873 -0.392252 -0.0783294 206 48 0
0.592873 -0.392252 -0.0783294 207 47 0
0.592873 -0.392252 -0.0783294 208 46 0
0.592873 -0.392252 -0.0783294 210 44 0
0.592873 -0.392252 -0.0783294 211 43 0
0.592873 -0.392252 -0.0783294 212 42 0
0.592873 -0.392252 -0.0783294 213 41 0
0.592873 -0.392252 -0.0783294 215 39 0
0.592873 -0.392252 -0.0783294 216 38 0
0.592873 -0.392252 -0.0783294 217 37 0
0.592873 -0.392252 -0.0783294 219 35 0
0.592873 -0.392252 -0.0783294 220 34 0
0.592873 -0.392252 -0.0783294 221 33 0
0.592873 -0.392252 -0.0783294 222 32 0
0.592873 -0.392252 -0.0783294 224 30 0
0.592873 -0.392252 -0.0783294 225 29 0
0.592873 -0.392252 -0.0783294 226 28 0
0.592873 -0.392252 -0.0783294 228 26 0
0.592873 -0.392252 -0.0783294 229 25 0
0.592873 -0.392252 -0.0783294 230 24 0
0.592873 -0.392252 -0.0783294 231 23 0
0.592873 -0.392252 -0.0783294 233 21 0
0.592873 -0.392252 -0.0783294 234 20 0
0.592873 -0.392252 -0.0783294 235 19 0
0.592873 -0.392252 -0.0783294 237 17 0
0.592873 -0.392252 -0.0783294 238 16 0
0.592873 -0.392252 -0.0783294 239 15 0
0.592873 -0.392252 -0.0783294 240 14 0
0.592873 -0.392252 -0.0783294 242 12 0
0.592873 -0.392252 -0.0783294 243 11 0
0.592873 -0.392252 -0.0783294 244 10 0
0.592873 -0.392252 -0.0783294 246 8 0
0.592873 -0.392252 -0.0783294 247 7 0
0.592873 -0.392252 -0.0783294 248 6 0
0.592873 -0.392252 -0.0783294 249 5 0
0.592873 -0.392252 -0.0783294 251 3 0
0.592873 -0.392252 -0.0783294 252 2 0
0.592873 -0.392252 -0.0783294 253 1 0
0.592873 -0.392252 -0.0783294 255 0 0
