ply
format ascii 1.0
comment Generated by robot_control PLYWriter
element vertex 200
property float x
property float y
property float z
property uchar red
property uchar green
property uchar blue
end_header
0.502838 0.0791839 -0.106031 0 255 0
0.502838 0.0791839 -0.106031 1 253 0
0.502838 0.0791839 -0.106031 2 252 0
0.502838 0.0791839 -0.106031 3 251 0
0.502838 0.0791839 -0.106031 5 249 0
0.502838 0.0791839 -0.106031 6 248 0
0.502838 0.0791839 -0.106031 7 247 0
0.502838 0.0791839 -0.106031 8 246 0
0.502838 0.0791839 -0.106031 10 244 0
0.502838 0.0791839 -0.106031 11 243 0
0.502838 0.0791839 -0.106031 12 242 0
0.502838 0.0791839 -0.106031 14 240 0
0.502838 0.0791839 -0.106031 15 239 0
0.502838 0.0791839 -0.106031 16 238 0
0.502838 0.0791839 -0.106031 17 237 0
0.502838 0.0791839 -0.106031 19 235 0
0.502838 0.0791839 -0.106031 20 234 0
0.502838 0.0791839 -0.106031 21 233 0
0.502838 0.0791839 -0.106031 23 231 0
0.502838 0.0791839 -0.106031 24 230 0
0.502838 0.0791839 -0.106031 25 229 0
0.502838 0.0791839 -0.106031 26 228 0
0.502838 0.0791839 -0.106031 28 226 0
0.502838 0.0791839 -0.106031 29 225 0
0.502838 0.0791839 -0.106031 30 224 0
0.502838 0.0791839 -0.106031 32 222 0
0.502838 0.0791839 -0.106031 33 221 0
0.502838 0.0791839 -0.106031 34 220 0
0.502838 0.0791839 -0.106031 35 219 0
0.502838 0.0791839 -0.106031 37 217 0
0.502838 0.0791839 -0.106031 38 216 0
0.502838 0.0791839 -0.106031 39 215 0
0.502838 0.0791839 -0.106031 41 213 0
0.502838 0.0791839 -0.106031 42 212 0
0.502838 0.0791839 -0.106031 43 211 0
0.502838 0.0791839 -0.106031 44 210 0
0.502838 0.0791839 -0.106031 46 208 0
0.502838 0.0791839 -0.106031 47 207 0
0.502838 0.0791839 -0.106031 48 206 0
0.502838 0.0791839 -0.106031 49 205 0
0.502838 0.0791839 -0.106031 51 203 0
0.502838 0.0791839 -0.106031 52 202 0
0.502838 0.0791839 -0.106031 53 201 0
0.502838 0.0791839 -0.106031 55 199 0
0.502838 0.0791839 -0.106031 56 198 0
0.502838 0.0791839 -0.106031 57 197 0
0.502838 0.0791839 -0.106031 58 196 0
0.502838 0.0791839 -0.106031 60 194 0
0.502838 0.0791839 -0.106031 61 193 0
0.502838 0.0791839 -0.106031 62 192 0
0.502838 0.0791839 -0.106031 64 190 0
0.502838 0.0791839 -0.106031 65 189 0
0.502838 0.0791839 -0.106031 66 188 0
0.502838 0.0791839 -0.106031 67 187 0
0.502838 0.0791839 -0.106031 69 185 0
0.502838 0.0791839 -0.106031 70 184 0
0.502838 0.0791839 -0.106031 71 183 0
0.502838 0.0791839 -0.106031 73 181 0
0.502838 0.0791839 -0.106031 74 180 0
0.502838 0.0791839 -0.106031 75 179 0
0.502838 0.0791839 -0.106031 76 178 0
0.502838 0.0791839 -0.106031 78 176 0
0.502838 0.0791839 -0.106031 79 175 0
0.502838 0.0791839 -0.106031 80 174 0
0.502838 0.0791839 -0.106031 82 172 0
0.502838 0.0791839 -0.106031 83 171 0
0.502838 0.0791839 -0.106031 84 170 0
0.502838 0.0791839 -0.106031 85 169 0
0.502838 0.0791839 -0.106031 87 167 0
0.502838 0.0791839 -0.106031 88 166 0
0.502838 0.0791839 -0.106031 89 165 0
0.502838 0.0791839 -0.106031 90 164 0
0.502838 0.0791839 -0.106031 92 162 0
0.502838 0.0791839 -0.106031 93 161 0
0.502838 0.0791839 -0.106031 94 160 0
0.502838 0.0791839 -0.106031 96 158 0
0.502838 0.0791839 -0.106031 97 157 0
0.502838 0.0791839 -0.106031 98 156 0
0.502838 0.0791839 -0.106031 99 155 0
0.502838 0.0791839 -0.106031 101 153 0
0.502838 0.0791839 -0.106031 102 152 0
0.502838 0.0791839 -0.106031 103 151 0
0.502838 0.0791839 -0.106031 105 149 0
0.502838 0.0791839 -0.106031 106 148 0
0.502838 0.0791839 -0.106031 107 147 0
0.502838 0.0791839 -0.106031 108 146 0
0.502838 0.0791839 -0.106031 110 144 0
0.502838 0.0791839 -0.106031 111 143 0
0.502838 0.0791839 -0.106031 112 142 0
0.502838 0.0791839 -0.106031 114 140 0
0.502838 0.0791839 -0.106031 115 139 0
0.502838 0.0791839 -0.106031 116 138 0
0.502838 0.0791839 -0.106031 117 137 0
0.502838 0.0791839 -0.106031 119 135 0
0.502838 0.0791839 -0.106031 120 134 0
0.502838 0.0791839 -0.106031 121 133 0
0.502838 0.0791839 -0.106031 123 131 0
0.502838 0.0791839 -0.106031 124 130 0
0.502838 0.0791839 -0.106031 125 129 0
0.502838 0.0791839 -0.106031 126 128 0
0.502838 0.0791839 -0.106031 128 126 0
0.502838 0.0791839 -0.106031 129 125 0
0.502838 0.0791839 -0.106031 130 124 0
0.502838 0.0791839 -0.106031 131 123 0
0.502838 0.0791839 -0.106031 133 121 0
0.502838 0.0791839 -0.106031 134 120 0
0.502838 0.0791839 -0.106031 135 119 0
0.502838 0.0791839 -0.106031 137 117 0
0.502838 0.0791839 -0.106031 138 116 0
0.502838 0.0791839 -0.106031 139 115 0
0.502838 0.0791839 -0.106031 140 114 0
0.502838 0.0791839 -0.106031 142 112 0
0.502838 0.0791839 -0.106031 143 111 0
0.502838 0.0791839 -0.106031 144 110 0
0.502838 0.0791839 -0.106031 146 108 0
0.502838 0.0791839 -0.106031 147 107 0
0.502838 0.0791839 -0.106031 148 106 0
0.502838 0.0791839 -0.106031 149 105 0
0.502838 0.0791839 -0.106031 151 103 0
0.502838 0.0791839 -0.106031 152 102 0
0.502838 0.0791839 -0.106031 153 101 0
0.502838 0.0791839 -0.106031 155 99 0
0.502838 0.0791839 -0.106031 156 98 0
0.502838 0.0791839 -0.106031 157 97 0
0.502838 0.0791839 -0.106031 158 96 0
0.502838 0.0791839 -0.106031 160 94 0
0.502838 0.0791839 -0.106031 161 93 0
0.502838 0.0791839 -0.106031 162 92 0
0.502838 0.0791839 -0.106031 164 90 0
0.502838 0.0791839 -0.106031 165 89 0
0.502838 0.0791839 -0.106031 166 88 0
0.502838 0.0791839 -0.106031 167 87 0
0.502838 0.0791839 -0.106031 169 85 0
0.502838 0.0791839 -0.106031 170 84 0
0.502838 0.0791839 -0.106031 171 83 0
0.502838 0.0791839 -0.106031 172 82 0
0.502838 0.0791839 -0.106031 174 80 0
0.502838 0.0791839 -0.106031 175 79 0
0.502838 0.0791839 -0.106031 176 78 0
0.502838 0.0791839 -0.106031 178 76 0
0.502838 0.0791839 -0.106031 179 75 0
0.502838 0.0791839 -0.106031 180 74 0
0.502838 0.0791839 -0.106031 181 73 0
0.502838 0.0791839 -0.106031 183 71 0
0.502838 0.0791839 -0.106031 184 70 0
0.502838 0.0791839 -0.106031 185 69 0
0.502838 0.0791839 -0.106031 187 67 0
0.502838 0.0791839 -0.106031 188 66 0
0.502838 0.0791839 -0.106031 189 65 0
0.502838 0.0791839 -0.106031 190 64 0
0.502838 0.0791839 -0.106031 192 62 0
0.502838 0.0791839 -0.106031 193 61 0
0.502838 0.0791839 -0.106031 194 60 0
0.502838 0.0791839 -0.106031 196 58 0
0.502838 0.0791839 -0.106031 197 57 0
0.502838 0.0791839 -0.106031 198 56 0
0.502838 0.0791839 -0.106031 199 55 0
0.502838 0.0791839 -0.106031 201 53 0
0.502838 0.0791839 -0.106031 202 52 0
0.502838 0.0791839 -0.106031 203 51 0
0.502838 0.0791839 -0.106031 205 49 0
0.502838 0.0791839 -0.106031 206 48 0
0.502838 0.0791839 -0.106031 207 47 0
0.502838 0.0791839 -0.106031 208 46 0
0.502838 0.0791839 -0.106031 210 44 0
0.502838 0.0791839 -0.106031 211 43 0
0.502838 0.0791839 -0.106031 212 42 0
0.502838 0.0791839 -0.106031 213 41 0
0.502838 0.0791839 -0.106031 215 39 0
0.502838 0.0791839 -0.106031 216 38 0
0.502838 0.0791839 -0.106031 217 37 0
0.502838 0.0791839 -0.106031 219 35 0
0.502838 0.0791839 -0.106031 220 34 0
0.502838 0.0791839 -0.106031 221 33 0
0.502838 0.0791839 -0.106031 222 32 0
0.502838 0.0791839 -0.106031 224 30 0
0.502838 0.0791839 -0.106031 225 29 0
0.502838 0.0791839 -0.106031 226 28 0
0.502838 0.0791839 -0.106031 228 26 0
0.502838 0.0791839 -0.106031 229 25 0
0.502838 0.0791839 -0.106031 230 24 0
0.502838 0.0791839 -0.106031 231 23 0
0.502838 0.0791839 -0.106031 233 21 0
0.502838 0.0791839 -0.106031 234 20 0
0.502838 0.0791839 -0.106031 235 19 0
0.502838 0.0791839 -0.106031 237 17 0
0.502838 0.0791839 -0.106031 238 16 0
0.502838 0.0791839 -0.106031 239 15 0
0.502838 0.0791839 -0.106031 240 14 0
0.502838 0.0791839 -0.106031 242 12 0
0.502838 0.0791839 -0.106031 243 11 0
0.502838 0.0791839 -0.106031 244 10 0
0.502838 0.0791839 -0.106031 246 8 0
0.502838 0.0791839 -0.106031 247 7 0
0.502838 0.0791839 -0.106031 248 6 0
0.502838 0.0791839 -0.106031 249 5 0
0.502838 0.0791839 -0.106031 251 3 0
0.502838 0.0791839 -0.106031 252 2 0
0.502838 0.0791839 -0.106031 253 1 0
0.502838 0.0791839 -0.106031 255 0 0
