ply
format ascii 1.0
comment Generated by robot_control PLYWriter
element vertex 18
property float x
property float y
property float z
property uchar red
property uchar green
property uchar blue
end_header
0.530455 0.122785 -0.13947 0 255 0
0.528987 0.127263 -0.140703 15 240 0
0.527619 0.131665 -0.142293 30 225 0
0.526157 0.135996 -0.14399 45 210 0
0.52476 0.140396 -0.145566 60 195 0
0.523433 0.144771 -0.147266 75 179 0
0.522085 0.149097 -0.149071 90 165 0
0.520747 0.153406 -0.150925 105 149 0
0.519312 0.157666 -0.152816 120 135 0
0.51785 0.161896 -0.154755 135 119 0
0.516471 0.166122 -0.156761 150 104 0
0.515132 0.170335 -0.15882 165 89 0
0.513695 0.17452 -0.160871 180 74 0
0.512333 0.178751 -0.162881 195 59 0
0.510973 0.18299 -0.164874 210 44 0
0.509637 0.187226 -0.166887 225 29 0
0.508067 0.191403 -0.168855 240 14 0
0.506633 0.195619 -0.170844 255 0 0
