ply
format ascii 1.0
comment Generated by robot_control PLYWriter
element vertex 8
property float x
property float y
property float z
property uchar red
property uchar green
property uchar blue
end_header
0.659052 -0.248536 -0.0416546 0 255 0
0.659028 -0.243853 -0.0414529 36 218 0
0.658998 -0.239169 -0.0412298 72 182 0
0.658979 -0.234481 -0.0410764 109 145 0
0.658975 -0.229792 -0.0409828 145 109 0
0.658949 -0.225109 -0.0411069 182 72 0
0.658885 -0.220436 -0.0414992 218 36 0
0.658923 -0.21579 -0.0421088 255 0 0
