ply
format ascii 1.0
comment Generated by robot_control PLYWriter
element vertex 9
property float x
property float y
property float z
property uchar red
property uchar green
property uchar blue
end_header
0.584292 0.0141335 -0.119806 0 255 0
0.584607 0.00913254 -0.119794 31 223 0
0.585063 0.00414226 -0.119784 63 191 0
0.585123 -0.000866434 -0.119752 95 159 0
0.585124 -0.00587784 -0.119751 127 127 0
0.58513 -0.0108891 -0.11978 159 95 0
0.585121 -0.0158998 -0.119864 191 63 0
0.585104 -0.0209091 -0.120011 223 31 0
0.585094 -0.025918 -0.120169 255 0 0
