ply
format ascii 1.0
comment Generated by robot_control PLYWriter
element vertex 41
property float x
property float y
property float z
property uchar red
property uchar green
property uchar blue
end_header
0.727884 0.123333 -0.140495 0 255 0
0.730875 0.121741 -0.138261 6 248 0
0.732622 0.117766 -0.135122 12 242 0
0.73299 0.114236 -0.131152 19 235 0
0.730621 0.110061 -0.12785 25 229 0
0.728514 0.105743 -0.1248 31 223 0
0.722985 0.106024 -0.123121 38 216 0
0.717284 0.105649 -0.123214 44 210 0
0.711996 0.10704 -0.124726 51 204 0
0.708891 0.112077 -0.126007 57 197 0
0.706642 0.116785 -0.128961 63 191 0
0.70496 0.121497 -0.132338 70 184 0
0.705658 0.126193 -0.135425 76 178 0
0.709327 0.129803 -0.138491 82 172 0
0.714552 0.132312 -0.140167 89 165 0
0.720264 0.13078 -0.140124 95 159 0
0.723199 0.12637 -0.139302 102 153 0
0.72431 0.121322 -0.13662 108 146 0
0.722869 0.11595 -0.135046 114 140 0
0.717365 0.115731 -0.132868 121 133 0
0.711649 0.113788 -0.132388 127 127 0
0.706268 0.114476 -0.131886 133 121 0
0.701111 0.117595 -0.132217 140 114 0
0.6977 0.122361 -0.133089 146 108 0
0.696995 0.128099 -0.134463 153 101 0
0.699185 0.13276 -0.137043 159 95 0
0.702009 0.137456 -0.139482 165 89 0
0.707579 0.139127 -0.140707 172 82 0
0.712727 0.13676 -0.141174 178 76 0
0.716712 0.132431 -0.140888 184 70 0
0.716138 0.126697 -0.139442 191 63 0
0.713597 0.122017 -0.137447 197 57 0
0.707817 0.121196 -0.135921 204 50 0
0.703394 0.118885 -0.134898 210 44 0
0.697906 0.12084 -0.13428 216 38 0
0.693664 0.124153 -0.134142 223 31 0
0.690804 0.129454 -0.134503 229 25 0
0.690073 0.135292 -0.135391 235 19 0
0.691151 0.140901 -0.135813 242 12 0
0.695442 0.143837 -0.136912 248 6 0
0.699117 0.145442 -0.138114 255 0 0
