ply
format ascii 1.0
comment Generated by robot_control PLYWriter
element vertex 29
property float x
property float y
property float z
property uchar red
property uchar green
property uchar blue
end_header
0.736275 0.116971 -0.141865 0 255 0
0.741395 0.114322 -0.141235 9 245 0
0.745269 0.110036 -0.14009 18 236 0
0.746124 0.104245 -0.139 27 227 0
0.747241 0.0986247 -0.137269 36 218 0
0.742628 0.0953684 -0.1358 45 209 0
0.737138 0.0941598 -0.13534 54 200 0
0.731649 0.0965703 -0.135584 63 191 0
0.727143 0.100162 -0.136277 72 182 0
0.725739 0.105779 -0.137401 81 173 0
0.726704 0.111405 -0.139202 91 163 0
0.729633 0.115892 -0.140803 100 154 0
0.734672 0.118819 -0.142227 109 145 0
0.739568 0.121972 -0.14337 118 136 0
0.745348 0.120441 -0.144083 127 127 0
0.751006 0.118468 -0.14434 136 118 0
0.755463 0.114566 -0.144092 145 109 0
0.757059 0.109025 -0.143362 154 100 0
0.758686 0.103726 -0.142286 163 91 0
0.755917 0.098767 -0.140998 173 81 0
0.750554 0.096913 -0.139245 182 72 0
0.745174 0.099534 -0.138579 191 63 0
0.740271 0.10296 -0.138725 200 54 0
0.738156 0.108168 -0.140046 209 45 0
0.738412 0.113631 -0.141726 218 36 0
0.740951 0.118193 -0.144186 227 27 0
0.744685 0.121392 -0.146685 236 18 0
0.748677 0.123188 -0.149529 245 9 0
0.752735 0.124284 -0.152429 255 0 0
