ply
format ascii 1.0
comment Generated by robot_control PLYWriter
element vertex 8
property float x
property float y
property float z
property uchar red
property uchar green
property uchar blue
end_header
0.576806 0.0913115 -0.0363286 0 255 0
0.576806 0.0861358 -0.0369151 36 218 0
0.576377 0.0809602 -0.0373278 72 182 0
0.575941 0.075788 -0.0377744 109 145 0
0.575515 0.070602 -0.0380306 145 109 0
0.575076 0.0654115 -0.0381082 182 72 0
0.574641 0.0602247 -0.0378865 218 36 0
0.574649 0.0550249 -0.0375668 255 0 0
