ply
format ascii 1.0
comment Generated by robot_control PLYWriter
element vertex 33
property float x
property float y
property float z
property uchar red
property uchar green
property uchar blue
end_header
0.578184 0.0776973 -0.148208 0 255 0
0.581974 0.0737011 -0.147436 7 247 0
0.584904 0.0690171 -0.146952 15 239 0
0.584877 0.063113 -0.146409 23 231 0
0.583263 0.0574879 -0.145881 31 223 0
0.57928 0.0542784 -0.145212 39 215 0
0.574085 0.0514994 -0.144404 47 207 0
0.568807 0.049496 -0.143869 55 199 0
0.562951 0.0505339 -0.143682 63 191 0
0.557515 0.0528159 -0.143679 71 183 0
0.55341 0.0570442 -0.143957 79 175 0
0.550603 0.062229 -0.144691 87 167 0
0.549075 0.0676669 -0.145348 95 159 0
0.551857 0.0728514 -0.146204 103 151 0
0.555381 0.077477 -0.146849 111 143 0
0.560329 0.0807314 -0.147267 119 135 0
0.566025 0.0803226 -0.147546 127 127 0
0.571044 0.0772701 -0.147205 135 119 0
0.574291 0.0723205 -0.146705 143 111 0
0.574707 0.0666029 -0.145765 151 103 0
0.571866 0.0616201 -0.144231 159 95 0
0.568053 0.05717 -0.143258 167 87 0
0.563603 0.053256 -0.142837 175 79 0
0.55784 0.0534722 -0.1433 183 71 0
0.552004 0.0540341 -0.144334 191 63 0
0.546512 0.0551222 -0.145564 199 55 0
0.543051 0.0594709 -0.147016 207 47 0
0.54008 0.0641559 -0.149089 215 39 0
0.539016 0.069053 -0.151344 223 31 0
0.540258 0.0743776 -0.15336 231 23 0
0.543466 0.0783628 -0.154886 239 15 0
0.547905 0.0816657 -0.154972 247 7 0
0.552424 0.0832761 -0.154303 255 0 0
