ply
format ascii 1.0
comment Generated by robot_control PLYWriter
element vertex 59
property float x
property float y
property float z
property uchar red
property uchar green
property uchar blue
end_header
0.624458 0.0173549 -0.112836 0 255 0
0.628627 0.0149458 -0.111542 4 250 0
0.630211 0.0112824 -0.110547 8 246 0
0.632566 0.00646823 -0.109848 13 241 0
0.630279 0.00133271 -0.109515 17 237 0
0.626238 -0.00309999 -0.10994 21 233 0
0.621032 -0.00481332 -0.111016 26 228 0
0.615416 -0.0037908 -0.112146 30 224 0
0.610672 -0.000233255 -0.113124 35 219 0
0.608187 0.00440122 -0.11431 39 215 0
0.60634 0.00977671 -0.114928 43 211 0
0.606183 0.0157738 -0.115308 48 206 0
0.609974 0.0204399 -0.115232 52 202 0
0.614009 0.0249047 -0.114959 57 197 0
0.619197 0.0276448 -0.114326 61 193 0
0.625093 0.027676 -0.113558 65 189 0
0.629793 0.0243516 -0.112707 70 184 0
0.632682 0.0191285 -0.112122 74 180 0
0.632337 0.013187 -0.111808 79 175 0
0.62872 0.00872811 -0.112054 83 171 0
0.623915 0.00526001 -0.11265 87 167 0
0.618066 0.00558248 -0.113385 92 162 0
0.612747 0.00816504 -0.114163 96 158 0
0.609205 0.0128323 -0.114998 101 153 0
0.606225 0.0179174 -0.115677 105 149 0
0.606216 0.0239361 -0.115956 109 145 0
0.609562 0.028906 -0.116045 114 140 0
0.612982 0.0338531 -0.115902 118 136 0
0.617857 0.037025 -0.115434 123 131 0
0.623726 0.0378949 -0.114823 127 127 0
0.629232 0.036079 -0.114086 131 123 0
0.632649 0.0312769 -0.113453 136 118 0
0.632715 0.0252916 -0.113003 140 114 0
0.630025 0.0203196 -0.113077 145 109 0
0.625442 0.017463 -0.113658 149 105 0
0.619519 0.01733 -0.114545 153 101 0
0.614173 0.0185572 -0.115556 158 96 0
0.61019 0.0229107 -0.116368 162 92 0
0.608068 0.0283974 -0.117199 167 87 0
0.606369 0.0339865 -0.117615 171 83 0
0.608041 0.0396331 -0.117726 175 79 0
0.612385 0.0435685 -0.117608 180 74 0
0.617076 0.0472439 -0.117165 184 70 0
0.622868 0.0480916 -0.116479 189 65 0
0.628569 0.0469657 -0.11542 193 61 0
0.632812 0.0431064 -0.114336 197 57 0
0.632784 0.0371387 -0.113528 202 52 0
0.632707 0.0311286 -0.113387 206 48 0
0.627613 0.0280644 -0.113773 211 43 0
0.621747 0.0279565 -0.114823 215 39 0
0.616297 0.0291283 -0.115878 219 35 0
0.611198 0.0313664 -0.117439 224 30 0
0.608808 0.0360164 -0.118889 228 26 0
0.606319 0.0412036 -0.119916 233 21 0
0.608777 0.0462296 -0.120746 237 17 0
0.610086 0.0519589 -0.121336 241 13 0
0.613029 0.0561196 -0.121263 246 8 0
0.61689 0.0577138 -0.120929 250 4 0
0.621057 0.0587715 -0.120183 255 0 0
