ply
format ascii 1.0
comment Generated by robot_control PLYWriter
element vertex 174
property float x
property float y
property float z
property uchar red
property uchar green
property uchar blue
end_header
0.692283 0.0894976 -0.116187 0 255 0
0.697242 0.0881419 -0.11674 1 253 0
0.700235 0.084272 -0.117592 2 252 0
0.703775 0.0803527 -0.11805 4 250 0
0.703789 0.0744984 -0.118108 5 249 0
0.703886 0.0685557 -0.117328 7 247 0
0.700835 0.0640974 -0.116093 8 246 0
0.696562 0.0612998 -0.115071 10 244 0
0.693124 0.0591094 -0.113953 11 243 0
0.687224 0.0594586 -0.112964 13 241 0
0.681275 0.0599798 -0.112471 14 240 0
0.676423 0.0631483 -0.112195 16 238 0
0.672235 0.0671161 -0.112204 17 237 0
0.670626 0.0727347 -0.11241 19 235 0
0.669143 0.07838 -0.11276 20 234 0
0.669161 0.0843635 -0.113226 22 232 0
0.671035 0.0899927 -0.113613 23 231 0
0.674804 0.0943353 -0.114044 25 229 0
0.679483 0.0978439 -0.1146 26 228 0
0.684938 0.0997647 -0.115296 28 226 0
0.690895 0.100082 -0.11591 29 225 0
0.696249 0.0977291 -0.116389 30 224 0
0.699736 0.0931385 -0.116932 32 222 0
0.703008 0.0881983 -0.117121 33 221 0
0.703894 0.0825628 -0.116983 35 219 0
0.701889 0.0769883 -0.116567 36 218 0
0.698493 0.0724278 -0.116055 38 216 0
0.694217 0.0689761 -0.115348 39 215 0
0.688269 0.0695275 -0.114766 41 213 0
0.6823 0.0698489 -0.114206 42 212 0
0.676894 0.0719341 -0.113659 44 210 0
0.672924 0.0763893 -0.113404 45 209 0
0.6697 0.0811401 -0.113364 47 207 0
0.667254 0.0866072 -0.113511 48 206 0
0.668517 0.0920988 -0.113749 50 204 0
0.669337 0.097909 -0.114145 51 203 0
0.672282 0.103132 -0.114445 53 201 0
0.677188 0.106465 -0.114905 54 200 0
0.682597 0.10896 -0.115495 56 198 0
0.688341 0.109801 -0.116028 57 197 0
0.693784 0.107417 -0.116392 58 196 0
0.698247 0.103515 -0.116782 60 194 0
0.701717 0.0988824 -0.116868 61 193 0
0.702315 0.0930077 -0.11677 63 191 0
0.700582 0.0874117 -0.116486 64 190 0
0.696922 0.0828894 -0.11606 66 188 0
0.691681 0.0800294 -0.115617 67 187 0
0.685828 0.0795988 -0.115155 69 185 0
0.679845 0.0799092 -0.11477 70 184 0
0.67413 0.0816126 -0.114438 72 182 0
0.670529 0.0863355 -0.114266 73 181 0
0.668674 0.0920439 -0.114278 75 179 0
0.666677 0.0976909 -0.114383 76 178 0
0.666639 0.103691 -0.11459 78 176 0
0.668531 0.10937 -0.114871 79 175 0
0.672962 0.113365 -0.115252 81 173 0
0.676799 0.117952 -0.11565 82 172 0
0.682671 0.118565 -0.116169 84 170 0
0.688285 0.119247 -0.116523 85 169 0
0.693621 0.116567 -0.116788 86 168 0
0.698465 0.113025 -0.116925 88 166 0
0.700651 0.108079 -0.11689 89 165 0
0.7005 0.102081 -0.116744 91 163 0
0.699136 0.0963179 -0.116463 92 162 0
0.695256 0.0918305 -0.116091 94 160 0
0.689875 0.0892633 -0.11565 95 159 0
0.684204 0.0878072 -0.115296 97 157 0
0.678679 0.0901254 -0.115026 98 156 0
0.673153 0.0921535 -0.114844 100 154 0
0.668879 0.0963073 -0.11478 101 153 0
0.666533 0.101833 -0.114837 103 151 0
0.664424 0.107452 -0.114982 104 150 0
0.666036 0.113212 -0.115226 106 148 0
0.668321 0.118753 -0.115522 107 147 0
0.672678 0.122798 -0.115908 109 145 0
0.675931 0.127825 -0.116322 110 144 0
0.681779 0.128047 -0.116714 112 142 0
0.687766 0.127748 -0.117028 113 141 0
0.69328 0.125636 -0.117233 114 140 0
0.697611 0.121557 -0.117281 116 138 0
0.700605 0.116454 -0.11715 117 137 0
0.700322 0.110515 -0.116865 119 135 0
0.697495 0.105315 -0.116491 120 134 0
0.69333 0.101185 -0.116178 122 132 0
0.68771 0.0991138 -0.115815 123 131 0
0.681879 0.0979586 -0.115532 125 129 0
0.676406 0.0994839 -0.115312 126 128 0
0.671819 0.103315 -0.115208 128 126 0
0.668046 0.107922 -0.115231 129 125 0
0.665439 0.113293 -0.115435 131 123 0
0.664495 0.119135 -0.115784 132 122 0
0.665243 0.125042 -0.11614 134 120 0
0.667507 0.130266 -0.116515 135 119 0
0.672262 0.133894 -0.116966 137 117 0
0.676858 0.137682 -0.117371 138 116 0
0.682366 0.138939 -0.117734 140 114 0
0.687854 0.136581 -0.117981 141 113 0
0.693374 0.134541 -0.118118 142 112 0
0.697253 0.129997 -0.1181 144 110 0
0.699045 0.124572 -0.117915 145 109 0
0.69796 0.11873 -0.117567 147 107 0
0.69493 0.113645 -0.117129 148 106 0
0.690406 0.109733 -0.116728 150 104 0
0.685066 0.107488 -0.116331 151 103 0
0.679077 0.107841 -0.116096 153 101 0
0.673509 0.109987 -0.115924 154 100 0
0.668633 0.113489 -0.115948 156 98 0
0.666211 0.118962 -0.11615 157 97 0
0.663255 0.124173 -0.11651 159 95 0
0.663007 0.130106 -0.116976 160 94 0
0.664897 0.1357 -0.117659 162 92 0
0.667781 0.140933 -0.118243 163 91 0
0.671118 0.145793 -0.11896 165 89 0
0.676793 0.147677 -0.119442 166 88 0
0.682771 0.148095 -0.119803 168 86 0
0.688464 0.146361 -0.120092 169 85 0
0.693977 0.144481 -0.120191 170 84 0
0.697173 0.139477 -0.120046 172 82 0
0.698711 0.133753 -0.119673 173 81 0
0.697175 0.128125 -0.119093 175 79 0
0.693901 0.123152 -0.118471 176 78 0
0.689374 0.119433 -0.117761 178 76 0
0.683737 0.117586 -0.117269 179 75 0
0.677871 0.118676 -0.116817 181 73 0
0.67224 0.120653 -0.116707 182 72 0
0.667768 0.124576 -0.116935 184 70 0
0.664123 0.129291 -0.117365 185 69 0
0.662972 0.13491 -0.118082 187 67 0
0.663075 0.140852 -0.118929 188 66 0
0.662513 0.146764 -0.119803 190 64 0
0.666454 0.151215 -0.120576 191 63 0
0.670791 0.155225 -0.121494 193 61 0
0.676322 0.157188 -0.122404 194 60 0
0.682269 0.157353 -0.12304 196 58 0
0.68802 0.155945 -0.123318 197 57 0
0.692706 0.152253 -0.123156 198 56 0
0.695959 0.147265 -0.122477 200 54 0
0.696428 0.141582 -0.121549 201 53 0
0.695303 0.135852 -0.120493 203 51 0
0.691243 0.1319 -0.119428 204 50 0
0.686952 0.127788 -0.118693 206 48 0
0.681098 0.12805 -0.117817 207 47 0
0.675107 0.128095 -0.117438 209 45 0
0.669804 0.130727 -0.117542 210 44 0
0.665382 0.134598 -0.118068 212 42 0
0.663356 0.140164 -0.118789 213 41 0
0.659965 0.144907 -0.11972 215 39 0
0.660992 0.150612 -0.120878 216 38 0
0.662388 0.15593 -0.122234 218 36 0
0.66458 0.161107 -0.123568 219 35 0
0.669608 0.163943 -0.12485 221 33 0
0.674444 0.167073 -0.126411 222 32 0
0.680413 0.166868 -0.12702 224 30 0
0.68622 0.165612 -0.127275 225 29 0
0.690354 0.163041 -0.126989 226 28 0
0.694266 0.159278 -0.126326 228 26 0
0.695495 0.153579 -0.125121 229 25 0
0.695106 0.148752 -0.123565 231 23 0
0.693325 0.143444 -0.121995 232 22 0
0.689125 0.139603 -0.120671 234 20 0
0.684566 0.137087 -0.119332 235 19 0
0.678792 0.137339 -0.118527 237 17 0
0.672928 0.138324 -0.118262 238 16 0
0.667945 0.141662 -0.118425 240 14 0
0.663705 0.145283 -0.119185 241 13 0
0.661421 0.148912 -0.120091 243 11 0
0.660338 0.153603 -0.121277 244 10 0
0.658876 0.158503 -0.122971 246 8 0
0.660716 0.163638 -0.124561 247 7 0
0.662881 0.16819 -0.126239 249 5 0
0.666838 0.171987 -0.127331 250 4 0
0.6695 0.174993 -0.12829 252 2 0
0.67311 0.176711 -0.12906 253 1 0
0.676777 0.177041 -0.129709 255 0 0
