ply
format ascii 1.0
comment Generated by robot_control PLYWriter
element vertex 43
property float x
property float y
property float z
property uchar red
property uchar green
property uchar blue
end_header
0.510249 0.157206 -0.137484 0 255 0
0.513634 0.155032 -0.135404 6 248 0
0.516727 0.151011 -0.133553 12 242 0
0.515408 0.14565 -0.131894 18 236 0
0.513475 0.140423 -0.130979 24 230 0
0.508273 0.137395 -0.130756 30 224 0
0.503406 0.134176 -0.131266 36 218 0
0.497491 0.134836 -0.132407 42 212 0
0.492374 0.137468 -0.133835 48 206 0
0.488555 0.140919 -0.135371 54 200 0
0.486397 0.145871 -0.137373 60 194 0
0.485752 0.151757 -0.1386 66 188 0
0.489244 0.156256 -0.13937 72 182 0
0.493557 0.160385 -0.139528 78 176 0
0.499291 0.161199 -0.138934 85 169 0
0.503927 0.158251 -0.138131 91 163 0
0.507358 0.153658 -0.136658 97 157 0
0.508057 0.147899 -0.135541 103 151 0
0.505097 0.14305 -0.134982 109 145 0
0.500092 0.139655 -0.134953 115 139 0
0.494853 0.136943 -0.135481 121 133 0
0.488922 0.137862 -0.136345 127 127 0
0.483314 0.139439 -0.137507 133 121 0
0.479698 0.143842 -0.138904 139 115 0
0.478856 0.149462 -0.140602 145 109 0
0.479564 0.155049 -0.142126 151 103 0
0.483016 0.159958 -0.142816 157 97 0
0.487882 0.163477 -0.142725 163 91 0
0.493731 0.163161 -0.14183 170 84 0
0.49705 0.159805 -0.140205 176 78 0
0.498724 0.15427 -0.13879 182 72 0
0.498087 0.148377 -0.137675 188 66 0
0.49505 0.143238 -0.136821 194 60 0
0.49003 0.14017 -0.136855 200 54 0
0.484289 0.138501 -0.137557 206 48 0
0.478881 0.140398 -0.138889 212 42 0
0.473918 0.142878 -0.140994 218 36 0
0.470218 0.146837 -0.143236 224 30 0
0.470099 0.151816 -0.145625 230 24 0
0.470457 0.156432 -0.147722 236 18 0
0.473015 0.161212 -0.149031 242 12 0
0.47767 0.163688 -0.149566 248 6 0
0.481103 0.165567 -0.148908 255 0 0
