ply
format ascii 1.0
comment Generated by robot_control PLYWriter
element vertex 200
property float x
property float y
property float z
property uchar red
property uchar green
property uchar blue
end_header
0.576702 -0.262363 -0.0847577 0 255 0
0.576702 -0.262363 -0.0847577 1 253 0
0.576702 -0.262363 -0.0847577 2 252 0
0.576702 -0.262363 -0.0847577 3 251 0
0.576702 -0.262363 -0.0847577 5 249 0
0.576702 -0.262363 -0.0847577 6 248 0
0.576702 -0.262363 -0.0847577 7 247 0
0.576702 -0.262363 -0.0847577 8 246 0
0.576702 -0.262363 -0.0847577 10 244 0
0.576702 -0.262363 -0.0847577 11 243 0
0.576702 -0.262363 -0.0847577 12 242 0
0.576702 -0.262363 -0.0847577 14 240 0
0.576702 -0.262363 -0.0847577 15 239 0
0.576702 -0.262363 -0.0847577 16 238 0
0.576702 -0.262363 -0.0847577 17 237 0
0.576702 -0.262363 -0.0847577 19 235 0
0.576702 -0.262363 -0.0847577 20 234 0
0.576702 -0.262363 -0.0847577 21 233 0
0.576702 -0.262363 -0.0847577 23 231 0
0.576702 -0.262363 -0.0847577 24 230 0
0.576702 -0.262363 -0.0847577 25 229 0
0.576702 -0.262363 -0.0847577 26 228 0
0.576702 -0.262363 -0.0847577 28 226 0
0.576702 -0.262363 -0.0847577 29 225 0
0.576702 -0.262363 -0.0847577 30 224 0
0.576702 -0.262363 -0.0847577 32 222 0
0.576702 -0.262363 -0.0847577 33 221 0
0.576702 -0.262363 -0.0847577 34 220 0
0.576702 -0.262363 -0.0847577 35 219 0
0.576702 -0.262363 -0.0847577 37 217 0
0.576702 -0.262363 -0.0847577 38 216 0
0.576702 -0.262363 -0.0847577 39 215 0
0.576702 -0.262363 -0.0847577 41 213 0
0.576702 -0.262363 -0.0847577 42 212 0
0.576702 -0.262363 -0.0847577 43 211 0
0.576702 -0.262363 -0.0847577 44 210 0
0.576702 -0.262363 -0.0847577 46 208 0
0.576702 -0.262363 -0.0847577 47 207 0
0.576702 -0.262363 -0.0847577 48 206 0
0.576702 -0.262363 -0.0847577 49 205 0
0.576702 -0.262363 -0.0847577 51 203 0
0.576702 -0.262363 -0.0847577 52 202 0
0.576702 -0.262363 -0.0847577 53 201 0
0.576702 -0.262363 -0.0847577 55 199 0
0.576702 -0.262363 -0.0847577 56 198 0
0.576702 -0.262363 -0.0847577 57 197 0
0.576702 -0.262363 -0.0847577 58 196 0
0.576702 -0.262363 -0.0847577 60 194 0
0.576702 -0.262363 -0.0847577 61 193 0
0.576702 -0.262363 -0.0847577 62 192 0
0.576702 -0.262363 -0.0847577 64 190 0
0.576702 -0.262363 -0.0847577 65 189 0
0.576702 -0.262363 -0.0847577 66 188 0
0.576702 -0.262363 -0.0847577 67 187 0
0.576702 -0.262363 -0.0847577 69 185 0
0.576702 -0.262363 -0.0847577 70 184 0
0.576702 -0.262363 -0.0847577 71 183 0
0.576702 -0.262363 -0.0847577 73 181 0
0.576702 -0.262363 -0.0847577 74 180 0
0.576702 -0.262363 -0.0847577 75 179 0
0.576702 -0.262363 -0.0847577 76 178 0
0.576702 -0.262363 -0.0847577 78 176 0
0.576702 -0.262363 -0.0847577 79 175 0
0.576702 -0.262363 -0.0847577 80 174 0
0.576702 -0.262363 -0.0847577 82 172 0
0.576702 -0.262363 -0.0847577 83 171 0
0.576702 -0.262363 -0.0847577 84 170 0
0.576702 -0.262363 -0.0847577 85 169 0
0.576702 -0.262363 -0.0847577 87 167 0
0.576702 -0.262363 -0.0847577 88 166 0
0.576702 -0.262363 -0.0847577 89 165 0
0.576702 -0.262363 -0.0847577 90 164 0
0.576702 -0.262363 -0.0847577 92 162 0
0.576702 -0.262363 -0.0847577 93 161 0
0.576702 -0.262363 -0.0847577 94 160 0
0.576702 -0.262363 -0.0847577 96 158 0
0.576702 -0.262363 -0.0847577 97 157 0
0.576702 -0.262363 -0.0847577 98 156 0
0.576702 -0.262363 -0.0847577 99 155 0
0.576702 -0.262363 -0.0847577 101 153 0
0.576702 -0.262363 -0.0847577 102 152 0
0.576702 -0.262363 -0.0847577 103 151 0
0.576702 -0.262363 -0.0847577 105 149 0
0.576702 -0.262363 -0.0847577 106 148 0
0.576702 -0.262363 -0.0847577 107 147 0
0.576702 -0.262363 -0.0847577 108 146 0
0.576702 -0.262363 -0.0847577 110 144 0
0.576702 -0.262363 -0.0847577 111 143 0
0.576702 -0.262363 -0.0847577 112 142 0
0.576702 -0.262363 -0.0847577 114 140 0
0.576702 -0.262363 -0.0847577 115 139 0
0.576702 -0.262363 -0.0847577 116 138 0
0.576702 -0.262363 -0.0847577 117 137 0
0.576702 -0.262363 -0.0847577 119 135 0
0.576702 -0.262363 -0.0847577 120 134 0
0.576702 -0.262363 -0.0847577 121 133 0
0.576702 -0.262363 -0.0847577 123 131 0
0.576702 -0.262363 -0.0847577 124 130 0
0.576702 -0.262363 -0.0847577 125 129 0
0.576702 -0.262363 -0.0847577 126 128 0
0.576702 -0.262363 -0.0847577 128 126 0
0.576702 -0.262363 -0.0847577 129 125 0
0.576702 -0.262363 -0.0847577 130 124 0
0.576702 -0.262363 -0.0847577 131 123 0
0.576702 -0.262363 -0.0847577 133 121 0
0.576702 -0.262363 -0.0847577 134 120 0
0.576702 -0.262363 -0.0847577 135 119 0
0.576702 -0.262363 -0.0847577 137 117 0
0.576702 -0.262363 -0.0847577 138 116 0
0.576702 -0.262363 -0.0847577 139 115 0
0.576702 -0.262363 -0.0847577 140 114 0
0.576702 -0.262363 -0.0847577 142 112 0
0.576702 -0.262363 -0.0847577 143 111 0
0.576702 -0.262363 -0.0847577 144 110 0
0.576702 -0.262363 -0.0847577 146 108 0
0.576702 -0.262363 -0.0847577 147 107 0
0.576702 -0.262363 -0.0847577 148 106 0
0.576702 -0.262363 -0.0847577 149 105 0
0.576702 -0.262363 -0.0847577 151 103 0
0.576702 -0.262363 -0.0847577 152 102 0
0.576702 -0.262363 -0.0847577 153 101 0
0.576702 -0.262363 -0.0847577 155 99 0
0.576702 -0.262363 -0.0847577 156 98 0
0.576702 -0.262363 -0.0847577 157 97 0
0.576702 -0.262363 -0.0847577 158 96 0
0.576702 -0.262363 -0.0847577 160 94 0
0.576702 -0.262363 -0.0847577 161 93 0
0.576702 -0.262363 -0.0847577 162 92 0
0.576702 -0.262363 -0.0847577 164 90 0
0.576702 -0.262363 -0.0847577 165 89 0
0.576702 -0.262363 -0.0847577 166 88 0
0.576702 -0.262363 -0.0847577 167 87 0
0.576702 -0.262363 -0.0847577 169 85 0
0.576702 -0.262363 -0.0847577 170 84 0
0.576702 -0.262363 -0.0847577 171 83 0
0.576702 -0.262363 -0.0847577 172 82 0
0.576702 -0.262363 -0.0847577 174 80 0
0.576702 -0.262363 -0.0847577 175 79 0
0.576702 -0.262363 -0.0847577 176 78 0
0.576702 -0.262363 -0.0847577 178 76 0
0.576702 -0.262363 -0.0847577 179 75 0
0.576702 -0.262363 -0.0847577 180 74 0
0.576702 -0.262363 -0.0847577 181 73 0
0.576702 -0.262363 -0.0847577 183 71 0
0.576702 -0.262363 -0.0847577 184 70 0
0.576702 -0.262363 -0.0847577 185 69 0
0.576702 -0.262363 -0.0847577 187 67 0
0.576702 -0.262363 -0.0847577 188 66 0
0.576702 -0.262363 -0.0847577 189 65 0
0.576702 -0.262363 -0.0847577 190 64 0
0.576702 -0.262363 -0.0847577 192 62 0
0.576702 -0.262363 -0.0847577 193 61 0
0.576702 -0.262363 -0.0847577 194 60 0
0.576702 -0.262363 -0.0847577 196 58 0
0.576702 -0.262363 -0.0847577 197 57 0
0.576702 -0.262363 -0.0847577 198 56 0
0.576702 -0.262363 -0.0847577 199 55 0
0.576702 -0.262363 -0.0847577 201 53 0
0.576702 -0.262363 -0.0847577 202 52 0
0.576702 -0.262363 -0.0847577 203 51 0
0.576702 -0.262363 -0.0847577 205 49 0
0.576702 -0.262363 -0.0847577 206 48 0
0.576702 -0.262363 -0.0847577 207 47 0
0.576702 -0.262363 -0.0847577 208 46 0
0.576702 -0.262363 -0.0847577 210 44 0
0.576702 -0.262363 -0.0847577 211 43 0
0.576702 -0.262363 -0.0847577 212 42 0
0.576702 -0.262363 -0.0847577 213 41 0
0.576702 -0.262363 -0.0847577 215 39 0
0.576702 -0.262363 -0.0847577 216 38 0
0.576702 -0.262363 -0.0847577 217 37 0
0.576702 -0.262363 -0.0847577 219 35 0
0.576702 -0.262363 -0.0847577 220 34 0
0.576702 -0.262363 -0.0847577 221 33 0
0.576702 -0.262363 -0.0847577 222 32 0
0.576702 -0.262363 -0.0847577 224 30 0
0.576702 -0.262363 -0.0847577 225 29 0
0.576702 -0.262363 -0.0847577 226 28 0
0.576702 -0.262363 -0.0847577 228 26 0
0.576702 -0.262363 -0.0847577 229 25 0
0.576702 -0.262363 -0.0847577 230 24 0
0.576702 -0.262363 -0.0847577 231 23 0
0.576702 -0.262363 -0.0847577 233 21 0
0.576702 -0.262363 -0.0847577 234 20 0
0.576702 -0.262363 -0.0847577 235 19 0
0.576702 -0.262363 -0.0847577 237 17 0
0.576702 -0.262363 -0.0847577 238 16 0
0.576702 -0.262363 -0.0847577 239 15 0
0.576702 -0.262363 -0.0847577 240 14 0
0.576702 -0.262363 -0.0847577 242 12 0
0.576702 -0.262363 -0.0847577 243 11 0
0.576702 -0.262363 -0.0847577 244 10 0
0.576702 -0.262363 -0.0847577 246 8 0
0.576702 -0.262363 -0.0847577 247 7 0
0.576702 -0.262363 -0.0847577 248 6 0
0.576702 -0.262363 -0.0847577 249 5 0
0.576702 -0.262363 -0.0847577 251 3 0
0.576702 -0.262363 -0.0847577 252 2 0
0.576702 -0.262363 -0.0847577 253 1 0
0.576702 -0.262363 -0.0847577 255 0 0
