ply
format ascii 1.0
comment Generated by robot_control PLYWriter
element vertex 45
property float x
property float y
property float z
property uchar red
property uchar green
property uchar blue
end_header
0.600719 -0.205023 -0.123832 0 255 0
0.604621 -0.206769 -0.125892 5 249 0
0.608573 -0.208724 -0.127734 11 243 0
0.613198 -0.211382 -0.128711 17 237 0
0.614766 -0.216539 -0.129197 23 231 0
0.614989 -0.222474 -0.128917 28 226 0
0.612232 -0.227232 -0.127597 34 220 0
0.608699 -0.230115 -0.12607 40 214 0
0.603536 -0.232141 -0.12495 46 208 0
0.598475 -0.230346 -0.1236 52 202 0
0.595692 -0.22533 -0.122982 57 197 0
0.593225 -0.220102 -0.122809 63 191 0
0.594112 -0.214418 -0.123296 69 185 0
0.597548 -0.209785 -0.124627 75 179 0
0.60201 -0.206155 -0.125766 81 173 0
0.607561 -0.20534 -0.12732 86 168 0
0.613252 -0.206601 -0.12849 92 162 0
0.618423 -0.209343 -0.129596 98 156 0
0.622505 -0.213434 -0.130302 104 150 0
0.623277 -0.219132 -0.130584 110 144 0
0.621948 -0.224699 -0.130327 115 139 0
0.618073 -0.229046 -0.129422 121 133 0
0.612547 -0.230322 -0.128186 127 127 0
0.607323 -0.228046 -0.127155 133 121 0
0.603537 -0.22389 -0.1266 139 115 0
0.600994 -0.218508 -0.126714 144 110 0
0.603744 -0.213454 -0.127379 150 104 0
0.606681 -0.208502 -0.128273 156 98 0
0.611737 -0.206047 -0.129572 162 92 0
0.61734 -0.204362 -0.130387 168 86 0
0.623008 -0.205614 -0.131355 173 81 0
0.628383 -0.208049 -0.132071 179 75 0
0.630202 -0.213697 -0.132503 185 69 0
0.633223 -0.218539 -0.132593 191 63 0
0.63069 -0.223762 -0.132145 197 57 0
0.627827 -0.227695 -0.131204 202 52 0
0.622311 -0.229113 -0.130182 208 46 0
0.616407 -0.228933 -0.129482 214 40 0
0.61255 -0.225123 -0.128947 220 34 0
0.61052 -0.21975 -0.128848 226 28 0
0.610718 -0.214015 -0.129362 231 23 0
0.613259 -0.209046 -0.130256 237 17 0
0.61598 -0.205981 -0.131638 243 11 0
0.620515 -0.204516 -0.133488 249 5 0
0.625035 -0.203032 -0.13486 255 0 0
