ply
format ascii 1.0
comment Generated by robot_control PLYWriter
element vertex 103
property float x
property float y
property float z
property uchar red
property uchar green
property uchar blue
end_header
0.676359 0.0351826 -0.137214 0 255 0
0.681256 0.0328379 -0.136925 2 252 0
0.683001 0.0277125 -0.136254 5 250 0
0.684968 0.0233391 -0.135505 7 247 0
0.682624 0.0183364 -0.135008 10 245 0
0.678118 0.015684 -0.134585 12 242 0
0.672799 0.0141126 -0.134393 15 240 0
0.667018 0.0149267 -0.134518 17 237 0
0.6626 0.0173367 -0.134912 20 235 0
0.659053 0.0220331 -0.135483 22 232 0
0.656865 0.027317 -0.136291 25 230 0
0.656976 0.0332819 -0.136996 27 227 0
0.659497 0.0383602 -0.13765 30 225 0
0.663406 0.0426886 -0.138159 32 222 0
0.668748 0.0453111 -0.138375 35 220 0
0.674744 0.0454263 -0.138379 37 217 0
0.679278 0.0415438 -0.138004 40 215 0
0.682202 0.0373755 -0.137396 42 212 0
0.681953 0.0315202 -0.13671 45 210 0
0.678715 0.026534 -0.136251 47 207 0
0.673428 0.0239935 -0.136017 50 205 0
0.667553 0.0235002 -0.136116 52 202 0
0.662395 0.025787 -0.136463 55 200 0
0.658305 0.0301064 -0.136965 57 197 0
0.655569 0.0353802 -0.137751 60 195 0
0.655205 0.0408837 -0.138769 62 192 0
0.657686 0.046321 -0.139386 65 189 0
0.660795 0.0513804 -0.140129 67 187 0
0.666233 0.0539117 -0.140393 70 185 0
0.671921 0.0553906 -0.140419 72 182 0
0.677262 0.0528945 -0.140195 75 179 0
0.680842 0.0482098 -0.139512 77 177 0
0.682219 0.0426229 -0.138765 80 175 0
0.678965 0.0377773 -0.13826 82 172 0
0.674666 0.033856 -0.137933 85 169 0
0.668908 0.0328421 -0.137899 87 167 0
0.663563 0.035206 -0.138254 90 165 0
0.658734 0.0374484 -0.138856 92 162 0
0.65543 0.0424041 -0.139606 95 159 0
0.654654 0.0480954 -0.140633 97 157 0
0.654818 0.0537329 -0.141396 100 155 0
0.658365 0.058485 -0.142096 102 152 0
0.662146 0.0630954 -0.142519 105 149 0
0.667838 0.0639194 -0.142722 107 147 0
0.673552 0.0628111 -0.142602 110 145 0
0.678707 0.059828 -0.142061 112 142 0
0.681002 0.0544515 -0.141362 115 139 0
0.679122 0.0489138 -0.140578 117 137 0
0.675383 0.0446695 -0.140119 120 135 0
0.669882 0.0422622 -0.14002 122 132 0
0.664482 0.0438122 -0.140336 125 129 0
0.659361 0.0465796 -0.141075 127 127 0
0.655546 0.0511062 -0.142081 130 124 0
0.652504 0.0559989 -0.143537 132 122 0
0.652678 0.0619372 -0.144439 135 119 0
0.655608 0.0670297 -0.145463 137 117 0
0.659766 0.0711746 -0.146175 140 114 0
0.665118 0.0738452 -0.146497 142 112 0
0.670962 0.0728861 -0.146387 145 109 0
0.676128 0.0698798 -0.145792 147 107 0
0.67874 0.0649366 -0.144798 150 104 0
0.678557 0.0589993 -0.143903 152 102 0
0.674683 0.0550196 -0.14307 155 99 0
0.669443 0.0530244 -0.142813 157 97 0
0.663449 0.0529443 -0.143159 160 94 0
0.658089 0.0547889 -0.144124 162 92 0
0.654635 0.0594349 -0.14517 165 89 0
0.652426 0.06485 -0.146508 167 87 0
0.652436 0.0701345 -0.147933 170 84 0
0.654471 0.0756926 -0.148905 172 82 0
0.658105 0.080006 -0.150051 175 79 0
0.663698 0.082101 -0.150505 177 77 0
0.669344 0.0828793 -0.150413 180 74 0
0.674293 0.0796664 -0.149709 182 72 0
0.677677 0.0751981 -0.148418 185 69 0
0.676739 0.0698556 -0.14733 187 67 0
0.674161 0.065033 -0.146016 190 64 0
0.669485 0.0618778 -0.145696 192 62 0
0.663627 0.062257 -0.146007 195 59 0
0.65809 0.0636784 -0.146752 197 57 0
0.654693 0.0672794 -0.147747 200 54 0
0.651092 0.0714716 -0.149138 202 52 0
0.650736 0.0772262 -0.150728 205 49 0
0.651946 0.0826977 -0.152516 207 47 0
0.654284 0.0873954 -0.153908 210 44 0
0.659005 0.0907893 -0.154708 212 42 0
0.664085 0.0928446 -0.15506 215 39 0
0.669679 0.0908419 -0.154849 217 37 0
0.673799 0.0871471 -0.153781 220 34 0
0.677052 0.0840774 -0.152471 222 32 0
0.675401 0.0790751 -0.150984 225 29 0
0.672666 0.0746777 -0.149716 227 27 0
0.668598 0.0717414 -0.149086 230 24 0
0.662783 0.0712955 -0.149206 232 22 0
0.657476 0.0727467 -0.14987 235 19 0
0.653341 0.0761054 -0.151044 237 17 0
0.650425 0.0803624 -0.152579 240 14 0
0.648402 0.0852767 -0.154332 242 12 0
0.650245 0.0893975 -0.156002 245 9 0
0.650915 0.0947385 -0.157604 247 7 0
0.653979 0.0974635 -0.15894 250 4 0
0.657686 0.0998412 -0.159706 252 2 0
0.662712 0.101358 -0.160234 255 0 0
