ply
format ascii 1.0
comment Generated by robot_control PLYWriter
element vertex 13
property float x
property float y
property float z
property uchar red
property uchar green
property uchar blue
end_header
0.633126 0.0873142 -0.115505 0 255 0
0.632334 0.0923254 -0.115861 21 233 0
0.631603 0.0973327 -0.1164 42 212 0
0.630841 0.102333 -0.116953 63 191 0
0.629955 0.1073 -0.117615 85 169 0
0.62921 0.112259 -0.118478 106 148 0
0.628232 0.117128 -0.119588 127 127 0
0.627461 0.121964 -0.120975 148 106 0
0.62647 0.126738 -0.122429 170 84 0
0.625344 0.131451 -0.123985 191 63 0
0.624251 0.136138 -0.125639 212 42 0
0.623279 0.140797 -0.127434 233 21 0
0.622281 0.145469 -0.12918 255 0 0
