ply
format ascii 1.0
comment Generated by robot_control PLYWriter
element vertex 200
property float x
property float y
property float z
property uchar red
property uchar green
property uchar blue
end_header
0.496861 -0.0802619 -0.118883 0 255 0
0.496861 -0.0802619 -0.118883 1 253 0
0.496861 -0.0802619 -0.118883 2 252 0
0.496861 -0.0802619 -0.118883 3 251 0
0.496861 -0.0802619 -0.118883 5 249 0
0.496861 -0.0802619 -0.118883 6 248 0
0.496861 -0.0802619 -0.118883 7 247 0
0.496861 -0.0802619 -0.118883 8 246 0
0.496861 -0.0802619 -0.118883 10 244 0
0.496861 -0.0802619 -0.118883 11 243 0
0.496861 -0.0802619 -0.118883 12 242 0
0.496861 -0.0802619 -0.118883 14 240 0
0.496861 -0.0802619 -0.118883 15 239 0
0.496861 -0.0802619 -0.118883 16 238 0
0.496861 -0.0802619 -0.118883 17 237 0
0.496861 -0.0802619 -0.118883 19 235 0
0.496861 -0.0802619 -0.118883 20 234 0
0.496861 -0.0802619 -0.118883 21 233 0
0.496861 -0.0802619 -0.118883 23 231 0
0.496861 -0.0802619 -0.118883 24 230 0
0.496861 -0.0802619 -0.118883 25 229 0
0.496861 -0.0802619 -0.118883 26 228 0
0.496861 -0.0802619 -0.118883 28 226 0
0.496861 -0.0802619 -0.118883 29 225 0
0.496861 -0.0802619 -0.118883 30 224 0
0.496861 -0.0802619 -0.118883 32 222 0
0.496861 -0.0802619 -0.118883 33 221 0
0.496861 -0.0802619 -0.118883 34 220 0
0.496861 -0.0802619 -0.118883 35 219 0
0.496861 -0.0802619 -0.118883 37 217 0
0.496861 -0.0802619 -0.118883 38 216 0
0.496861 -0.0802619 -0.118883 39 215 0
0.496861 -0.0802619 -0.118883 41 213 0
0.496861 -0.0802619 -0.118883 42 212 0
0.496861 -0.0802619 -0.118883 43 211 0
0.496861 -0.0802619 -0.118883 44 210 0
0.496861 -0.0802619 -0.118883 46 208 0
0.496861 -0.0802619 -0.118883 47 207 0
0.496861 -0.0802619 -0.118883 48 206 0
0.496861 -0.0802619 -0.118883 49 205 0
0.496861 -0.0802619 -0.118883 51 203 0
0.496861 -0.0802619 -0.118883 52 202 0
0.496861 -0.0802619 -0.118883 53 201 0
0.496861 -0.0802619 -0.118883 55 199 0
0.496861 -0.0802619 -0.118883 56 198 0
0.496861 -0.0802619 -0.118883 57 197 0
0.496861 -0.0802619 -0.118883 58 196 0
0.496861 -0.0802619 -0.118883 60 194 0
0.496861 -0.0802619 -0.118883 61 193 0
0.496861 -0.0802619 -0.118883 62 192 0
0.496861 -0.0802619 -0.118883 64 190 0
0.496861 -0.0802619 -0.118883 65 189 0
0.496861 -0.0802619 -0.118883 66 188 0
0.496861 -0.0802619 -0.118883 67 187 0
0.496861 -0.0802619 -0.118883 69 185 0
0.496861 -0.0802619 -0.118883 70 184 0
0.496861 -0.0802619 -0.118883 71 183 0
0.496861 -0.0802619 -0.118883 73 181 0
0.496861 -0.0802619 -0.118883 74 180 0
0.496861 -0.0802619 -0.118883 75 179 0
0.496861 -0.0802619 -0.118883 76 178 0
0.496861 -0.0802619 -0.118883 78 176 0
0.496861 -0.0802619 -0.118883 79 175 0
0.496861 -0.0802619 -0.118883 80 174 0
0.496861 -0.0802619 -0.118883 82 172 0
0.496861 -0.0802619 -0.118883 83 171 0
0.496861 -0.0802619 -0.118883 84 170 0
0.496861 -0.0802619 -0.118883 85 169 0
0.496861 -0.0802619 -0.118883 87 167 0
0.496861 -0.0802619 -0.118883 88 166 0
0.496861 -0.0802619 -0.118883 89 165 0
0.496861 -0.0802619 -0.118883 90 164 0
0.496861 -0.0802619 -0.118883 92 162 0
0.496861 -0.0802619 -0.118883 93 161 0
0.496861 -0.0802619 -0.118883 94 160 0
0.496861 -0.0802619 -0.118883 96 158 0
0.496861 -0.0802619 -0.118883 97 157 0
0.496861 -0.0802619 -0.118883 98 156 0
0.496861 -0.0802619 -0.118883 99 155 0
0.496861 -0.0802619 -0.118883 101 153 0
0.496861 -0.0802619 -0.118883 102 152 0
0.496861 -0.0802619 -0.118883 103 151 0
0.496861 -0.0802619 -0.118883 105 149 0
0.496861 -0.0802619 -0.118883 106 148 0
0.496861 -0.0802619 -0.118883 107 147 0
0.496861 -0.0802619 -0.118883 108 146 0
0.496861 -0.0802619 -0.118883 110 144 0
0.496861 -0.0802619 -0.118883 111 143 0
0.496861 -0.0802619 -0.118883 112 142 0
0.496861 -0.0802619 -0.118883 114 140 0
0.496861 -0.0802619 -0.118883 115 139 0
0.496861 -0.0802619 -0.118883 116 138 0
0.496861 -0.0802619 -0.118883 117 137 0
0.496861 -0.0802619 -0.118883 119 135 0
0.496861 -0.0802619 -0.118883 120 134 0
0.496861 -0.0802619 -0.118883 121 133 0
0.496861 -0.0802619 -0.118883 123 131 0
0.496861 -0.0802619 -0.118883 124 130 0
0.496861 -0.0802619 -0.118883 125 129 0
0.496861 -0.0802619 -0.118883 126 128 0
0.496861 -0.0802619 -0.118883 128 126 0
0.496861 -0.0802619 -0.118883 129 125 0
0.496861 -0.0802619 -0.118883 130 124 0
0.496861 -0.0802619 -0.118883 131 123 0
0.496861 -0.0802619 -0.118883 133 121 0
0.496861 -0.0802619 -0.118883 134 120 0
0.496861 -0.0802619 -0.118883 135 119 0
0.496861 -0.0802619 -0.118883 137 117 0
0.496861 -0.0802619 -0.118883 138 116 0
0.496861 -0.0802619 -0.118883 139 115 0
0.496861 -0.0802619 -0.118883 140 114 0
0.496861 -0.0802619 -0.118883 142 112 0
0.496861 -0.0802619 -0.118883 143 111 0
0.496861 -0.0802619 -0.118883 144 110 0
0.496861 -0.0802619 -0.118883 146 108 0
0.496861 -0.0802619 -0.118883 147 107 0
0.496861 -0.0802619 -0.118883 148 106 0
0.496861 -0.0802619 -0.118883 149 105 0
0.496861 -0.0802619 -0.118883 151 103 0
0.496861 -0.0802619 -0.118883 152 102 0
0.496861 -0.0802619 -0.118883 153 101 0
0.496861 -0.0802619 -0.118883 155 99 0
0.496861 -0.0802619 -0.118883 156 98 0
0.496861 -0.0802619 -0.118883 157 97 0
0.496861 -0.0802619 -0.118883 158 96 0
0.496861 -0.0802619 -0.118883 160 94 0
0.496861 -0.0802619 -0.118883 161 93 0
0.496861 -0.0802619 -0.118883 162 92 0
0.496861 -0.0802619 -0.118883 164 90 0
0.496861 -0.0802619 -0.118883 165 89 0
0.496861 -0.0802619 -0.118883 166 88 0
0.496861 -0.0802619 -0.118883 167 87 0
0.496861 -0.0802619 -0.118883 169 85 0
0.496861 -0.0802619 -0.118883 170 84 0
0.496861 -0.0802619 -0.118883 171 83 0
0.496861 -0.0802619 -0.118883 172 82 0
0.496861 -0.0802619 -0.118883 174 80 0
0.496861 -0.0802619 -0.118883 175 79 0
0.496861 -0.0802619 -0.118883 176 78 0
0.496861 -0.0802619 -0.118883 178 76 0
0.496861 -0.0802619 -0.118883 179 75 0
0.496861 -0.0802619 -0.118883 180 74 0
0.496861 -0.0802619 -0.118883 181 73 0
0.496861 -0.0802619 -0.118883 183 71 0
0.496861 -0.0802619 -0.118883 184 70 0
0.496861 -0.0802619 -0.118883 185 69 0
0.496861 -0.0802619 -0.118883 187 67 0
0.496861 -0.0802619 -0.118883 188 66 0
0.496861 -0.0802619 -0.118883 189 65 0
0.496861 -0.0802619 -0.118883 190 64 0
0.496861 -0.0802619 -0.118883 192 62 0
0.496861 -0.0802619 -0.118883 193 61 0
0.496861 -0.0802619 -0.118883 194 60 0
0.496861 -0.0802619 -0.118883 196 58 0
0.496861 -0.0802619 -0.118883 197 57 0
0.496861 -0.0802619 -0.118883 198 56 0
0.496861 -0.0802619 -0.118883 199 55 0
0.496861 -0.0802619 -0.118883 201 53 0
0.496861 -0.0802619 -0.118883 202 52 0
0.496861 -0.0802619 -0.118883 203 51 0
0.496861 -0.0802619 -0.118883 205 49 0
0.496861 -0.0802619 -0.118883 206 48 0
0.496861 -0.0802619 -0.118883 207 47 0
0.496861 -0.0802619 -0.118883 208 46 0
0.496861 -0.0802619 -0.118883 210 44 0
0.496861 -0.0802619 -0.118883 211 43 0
0.496861 -0.0802619 -0.118883 212 42 0
0.496861 -0.0802619 -0.118883 213 41 0
0.496861 -0.0802619 -0.118883 215 39 0
0.496861 -0.0802619 -0.118883 216 38 0
0.496861 -0.0802619 -0.118883 217 37 0
0.496861 -0.0802619 -0.118883 219 35 0
0.496861 -0.0802619 -0.118883 220 34 0
0.496861 -0.0802619 -0.118883 221 33 0
0.496861 -0.0802619 -0.118883 222 32 0
0.496861 -0.0802619 -0.118883 224 30 0
0.496861 -0.0802619 -0.118883 225 29 0
0.496861 -0.0802619 -0.118883 226 28 0
0.496861 -0.0802619 -0.118883 228 26 0
0.496861 -0.0802619 -0.118883 229 25 0
0.496861 -0.0802619 -0.118883 230 24 0
0.496861 -0.0802619 -0.118883 231 23 0
0.496861 -0.0802619 -0.118883 233 21 0
0.496861 -0.0802619 -0.118883 234 20 0
0.496861 -0.0802619 -0.118883 235 19 0
0.496861 -0.0802619 -0.118883 237 17 0
0.496861 -0.0802619 -0.118883 238 16 0
0.496861 -0.0802619 -0.118883 239 15 0
0.496861 -0.0802619 -0.118883 240 14 0
0.496861 -0.0802619 -0.118883 242 12 0
0.496861 -0.0802619 -0.118883 243 11 0
0.496861 -0.0802619 -0.118883 244 10 0
0.496861 -0.0802619 -0.118883 246 8 0
0.496861 -0.0802619 -0.118883 247 7 0
0.496861 -0.0802619 -0.118883 248 6 0
0.496861 -0.0802619 -0.118883 249 5 0
0.496861 -0.0802619 -0.118883 251 3 0
0.496861 -0.0802619 -0.118883 252 2 0
0.496861 -0.0802619 -0.118883 253 1 0
0.496861 -0.0802619 -0.118883 255 0 0
