ply
format ascii 1.0
comment Generated by robot_control PLYWriter
element vertex 9
property float x
property float y
property float z
property uchar red
property uchar green
property uchar blue
end_header
0.525558 -0.282331 -0.122737 0 255 0
0.525127 -0.277251 -0.123091 31 223 0
0.524724 -0.272234 -0.123986 63 191 0
0.524411 -0.267266 -0.125142 95 159 0
0.524135 -0.262377 -0.126604 127 127 0
0.523839 -0.257562 -0.128296 159 95 0
0.523522 -0.252772 -0.130055 191 63 0
0.523226 -0.247961 -0.131761 223 31 0
0.522667 -0.243149 -0.133364 255 0 0
