ply
format ascii 1.0
comment Generated by robot_control PLYWriter
element vertex 11
property float x
property float y
property float z
property uchar red
property uchar green
property uchar blue
end_header
0.548313 -0.0825555 -0.0342015 0 255 0
0.548356 -0.0777182 -0.0336166 25 229 0
0.548397 -0.0728637 -0.033178 51 204 0
0.548408 -0.0679962 -0.0329703 76 178 0
0.548399 -0.063125 -0.0330455 102 153 0
0.548389 -0.0582598 -0.033337 127 127 0
0.54837 -0.053399 -0.0337019 153 101 0
0.548347 -0.0485352 -0.0340203 178 76 0
0.548346 -0.0436659 -0.0342408 204 50 0
0.548354 -0.0387933 -0.0343769 229 25 0
0.548343 -0.0339195 -0.0344134 255 0 0
