ply
format ascii 1.0
comment Generated by robot_control PLYWriter
element vertex 65
property float x
property float y
property float z
property uchar red
property uchar green
property uchar blue
end_header
0.631671 0.0293972 -0.11676 0 255 0
0.634947 0.0272803 -0.11558 3 251 0
0.638381 0.0233873 -0.114475 7 247 0
0.640961 0.0197581 -0.113563 11 243 0
0.640797 0.0138084 -0.113393 15 239 0
0.638812 0.00839507 -0.113925 19 235 0
0.633839 0.00621435 -0.114895 23 231 0
0.628927 0.00367651 -0.116147 27 227 0
0.623327 0.00412649 -0.117761 31 223 0
0.618567 0.00736003 -0.119244 35 219 0
0.6146 0.0116178 -0.120466 39 215 0
0.613035 0.0168843 -0.121186 43 211 0
0.612902 0.0228322 -0.121372 47 207 0
0.613599 0.0286031 -0.121167 51 203 0
0.616407 0.0337973 -0.12051 55 199 0
0.620333 0.0380129 -0.119854 59 195 0
0.626107 0.0390987 -0.118995 63 191 0
0.631887 0.039764 -0.117785 67 187 0
0.637112 0.0373371 -0.116828 71 183 0
0.639885 0.032187 -0.11584 75 179 0
0.640445 0.0263176 -0.115739 79 175 0
0.63929 0.0209626 -0.116179 83 171 0
0.634843 0.0171097 -0.116862 87 167 0
0.629198 0.0158422 -0.117835 91 163 0
0.623358 0.0157278 -0.118884 95 159 0
0.618413 0.0179062 -0.119694 99 155 0
0.61498 0.0225519 -0.120562 103 151 0
0.612964 0.0280964 -0.121086 107 147 0
0.612877 0.0340507 -0.121222 111 143 0
0.61331 0.0399214 -0.121138 115 139 0
0.6163 0.0450308 -0.120827 119 135 0
0.621433 0.0478523 -0.120079 123 131 0
0.627179 0.0490906 -0.119267 127 127 0
0.63298 0.0500736 -0.118361 131 123 0
0.637652 0.0471091 -0.117359 135 119 0
0.640258 0.0419567 -0.116857 139 115 0
0.640184 0.036006 -0.116744 143 111 0
0.637724 0.0307081 -0.117173 147 107 0
0.633515 0.027313 -0.117814 151 103 0
0.627832 0.0260915 -0.118802 155 99 0
0.622544 0.027798 -0.11984 159 95 0
0.617514 0.030717 -0.120859 163 91 0
0.614091 0.0352797 -0.121563 167 87 0
0.61237 0.0409462 -0.122148 171 83 0
0.612565 0.0464134 -0.12258 175 79 0
0.614079 0.0521475 -0.122667 179 75 0
0.618184 0.0558647 -0.122438 183 71 0
0.622506 0.0597715 -0.121916 187 67 0
0.628106 0.0614292 -0.121016 191 63 0
0.633705 0.0601626 -0.11982 195 59 0
0.638516 0.0575348 -0.118745 199 55 0
0.640386 0.052073 -0.117914 203 51 0
0.640286 0.0461396 -0.117402 207 47 0
0.637588 0.0418046 -0.11734 211 43 0
0.632946 0.0381683 -0.117913 215 39 0
0.627351 0.0372003 -0.118897 219 35 0
0.622379 0.0392369 -0.120226 223 31 0
0.617043 0.0409884 -0.121631 227 27 0
0.613754 0.0454891 -0.123052 231 23 0
0.612369 0.0509161 -0.124279 235 19 0
0.611416 0.0564956 -0.125093 239 15 0
0.613061 0.0620885 -0.125493 243 11 0
0.616506 0.0664983 -0.125625 247 7 0
0.621043 0.070192 -0.125531 251 3 0
0.626118 0.0721722 -0.125344 255 0 0
