ply
format ascii 1.0
comment Generated by robot_control PLYWriter
element vertex 130
property float x
property float y
property float z
property uchar red
property uchar green
property uchar blue
end_header
0.60449 -0.128906 -0.0867852 0 255 0
0.608415 -0.131914 -0.0881071 1 253 0
0.611806 -0.136036 -0.089306 3 251 0
0.612913 -0.14102 -0.0907027 5 249 0
0.614906 -0.146101 -0.0915118 7 247 0
0.612559 -0.151211 -0.0918108 9 245 0
0.610217 -0.1559 -0.0917387 11 243 0
0.606712 -0.16034 -0.0914108 13 241 0
0.601751 -0.162624 -0.090892 15 239 0
0.595873 -0.163221 -0.0901999 17 237 0
0.591332 -0.160272 -0.0893077 19 235 0
0.586278 -0.158095 -0.0882916 21 233 0
0.585199 -0.152627 -0.0872918 23 231 0
0.584553 -0.146759 -0.0865245 25 229 0
0.587445 -0.141732 -0.0861955 27 227 0
0.592109 -0.138948 -0.0863604 29 225 0
0.597692 -0.13823 -0.0870139 31 223 0
0.603159 -0.139122 -0.0882314 33 221 0
0.608322 -0.140598 -0.0893476 35 219 0
0.610961 -0.145748 -0.0902685 37 217 0
0.612547 -0.151151 -0.09126 39 215 0
0.612645 -0.15711 -0.0917163 41 213 0
0.611829 -0.163004 -0.0920558 43 211 0
0.608001 -0.167497 -0.0920538 45 209 0
0.602795 -0.170289 -0.0918663 47 207 0
0.597497 -0.172781 -0.0914557 49 205 0
0.59198 -0.171241 -0.0908451 51 203 0
0.587568 -0.168567 -0.0899862 53 201 0
0.585428 -0.163014 -0.0894341 55 199 0
0.584107 -0.15848 -0.08895 57 197 0
0.586965 -0.15326 -0.0887475 59 195 0
0.59124 -0.149411 -0.0888133 61 193 0
0.596403 -0.146425 -0.0891435 63 191 0
0.601918 -0.147922 -0.0897985 65 189 0
0.606883 -0.150647 -0.090687 67 187 0
0.610759 -0.155074 -0.0914352 69 185 0
0.612709 -0.160597 -0.091958 71 183 0
0.613182 -0.166539 -0.0923808 73 181 0
0.611153 -0.171851 -0.0926333 75 179 0
0.60869 -0.177278 -0.0927304 77 177 0
0.604123 -0.180963 -0.092642 79 175 0
0.598321 -0.182358 -0.0924438 81 173 0
0.592524 -0.181481 -0.0919216 83 171 0
0.587336 -0.178612 -0.0913757 85 169 0
0.584649 -0.173424 -0.0908221 86 168 0
0.583366 -0.168007 -0.090463 88 166 0
0.585239 -0.162356 -0.0903925 90 164 0
0.59012 -0.158913 -0.0906057 92 162 0
0.595518 -0.156967 -0.0909056 94 160 0
0.601443 -0.156394 -0.0913317 96 158 0
0.606205 -0.159544 -0.0916952 98 156 0
0.610069 -0.164056 -0.0921445 100 154 0
0.612302 -0.169557 -0.0926549 102 152 0
0.613227 -0.175204 -0.0929907 104 150 0
0.611494 -0.180806 -0.0932077 106 148 0
0.608188 -0.185779 -0.0932975 108 146 0
0.603595 -0.189455 -0.0932335 110 144 0
0.597842 -0.190156 -0.0929807 112 142 0
0.591932 -0.189761 -0.0926185 114 140 0
0.586398 -0.187597 -0.0921234 116 138 0
0.583134 -0.182858 -0.091742 118 136 0
0.583407 -0.177057 -0.0915033 120 134 0
0.585963 -0.171675 -0.0914847 122 132 0
0.589985 -0.167287 -0.0917056 124 130 0
0.595666 -0.166552 -0.0919932 126 128 0
0.601569 -0.166836 -0.0923312 128 126 0
0.606349 -0.170111 -0.0926847 130 124 0
0.610273 -0.174599 -0.0930373 132 122 0
0.612395 -0.179901 -0.093361 134 120 0
0.612063 -0.185744 -0.0936254 136 118 0
0.610506 -0.191514 -0.0937596 138 116 0
0.607221 -0.196417 -0.0937809 140 114 0
0.601713 -0.198646 -0.0936286 142 112 0
0.595923 -0.200048 -0.0933546 144 110 0
0.59033 -0.199033 -0.0930169 146 108 0
0.585099 -0.196237 -0.092577 148 106 0
0.582858 -0.190891 -0.0922151 150 104 0
0.582859 -0.184918 -0.0919769 152 102 0
0.585971 -0.181059 -0.0919478 154 100 0
0.59109 -0.178008 -0.0921937 156 98 0
0.596475 -0.175906 -0.0925692 158 96 0
0.601822 -0.178032 -0.0929761 160 94 0
0.607081 -0.180847 -0.0933356 162 92 0
0.610774 -0.185354 -0.0937483 164 90 0
0.612163 -0.191151 -0.0941005 166 88 0
0.611794 -0.196879 -0.0943178 168 86 0
0.60955 -0.202419 -0.0944043 170 84 0
0.605313 -0.205993 -0.0942708 171 83 0
0.600534 -0.209495 -0.0939762 173 81 0
0.594859 -0.210229 -0.0936592 175 79 0
0.58925 -0.208781 -0.0932324 177 77 0
0.585538 -0.20476 -0.0928293 179 75 0
0.582865 -0.200147 -0.0923691 181 73 0
0.583154 -0.194244 -0.0921383 183 71 0
0.586183 -0.189156 -0.0922181 185 69 0
0.590448 -0.184982 -0.0925403 187 67 0
0.59631 -0.184758 -0.0928897 189 65 0
0.601988 -0.186535 -0.0933754 191 63 0
0.606613 -0.189608 -0.0939409 193 61 0
0.60989 -0.194585 -0.0943939 195 59 0
0.611415 -0.20014 -0.094989 197 57 0
0.61111 -0.2052 -0.0953594 199 55 0
0.608864 -0.210705 -0.0955471 201 53 0
0.605506 -0.215498 -0.095489 203 51 0
0.60068 -0.218942 -0.0951947 205 49 0
0.594733 -0.21895 -0.0946529 207 47 0
0.58879 -0.218661 -0.0940872 209 45 0
0.584336 -0.215209 -0.0933834 211 43 0
0.582858 -0.210207 -0.092821 213 41 0
0.582877 -0.204255 -0.0923898 215 39 0
0.585882 -0.199474 -0.092325 217 37 0
0.590017 -0.195255 -0.0925912 219 35 0
0.595822 -0.19495 -0.0932492 221 33 0
0.601506 -0.196162 -0.0939399 223 31 0
0.606206 -0.199682 -0.0948251 225 29 0
0.608922 -0.20483 -0.0956056 227 27 0
0.610885 -0.210017 -0.0965688 229 25 0
0.610918 -0.215408 -0.0971078 231 23 0
0.608819 -0.220781 -0.097678 233 21 0
0.604939 -0.225309 -0.0978186 235 19 0
0.59947 -0.22721 -0.0975825 237 17 0
0.594416 -0.228559 -0.0970174 239 15 0
0.588533 -0.228435 -0.0959972 241 13 0
0.585112 -0.224979 -0.0948204 243 11 0
0.582861 -0.220361 -0.0937163 245 9 0
0.582276 -0.216273 -0.093058 247 7 0
0.582852 -0.210727 -0.0923086 249 5 0
0.586814 -0.206593 -0.0923331 251 3 0
0.590893 -0.20439 -0.0929134 253 1 0
0.596199 -0.204516 -0.0938427 255 0 0
