ply
format ascii 1.0
comment Generated by robot_control PLYWriter
element vertex 88
property float x
property float y
property float z
property uchar red
property uchar green
property uchar blue
end_header
0.628349 0.0412277 -0.107639 0 255 0
0.632236 0.0383814 -0.107243 2 252 0
0.634771 0.0335789 -0.106858 5 249 0
0.636347 0.0292164 -0.106556 8 246 0
0.633771 0.0240498 -0.10656 11 243 0
0.629209 0.0206086 -0.107015 14 240 0
0.62344 0.0196825 -0.107565 17 237 0
0.618008 0.0204648 -0.108613 20 234 0
0.613769 0.0245707 -0.109429 23 231 0
0.610881 0.0294929 -0.110093 26 228 0
0.609735 0.0349686 -0.110606 29 225 0
0.610892 0.0407248 -0.110704 32 222 0
0.613343 0.0460658 -0.110573 35 219 0
0.617046 0.0505309 -0.11023 38 216 0
0.622903 0.051305 -0.10977 41 213 0
0.628814 0.0511385 -0.10897 43 211 0
0.633859 0.0484339 -0.108175 46 208 0
0.635433 0.0430833 -0.107719 49 205 0
0.63614 0.03739 -0.107567 52 202 0
0.632575 0.0327756 -0.107786 55 199 0
0.626952 0.0308792 -0.108185 58 196 0
0.621409 0.0306141 -0.109049 61 193 0
0.615947 0.0329167 -0.109757 64 190 0
0.612426 0.0372003 -0.110501 67 187 0
0.610917 0.0428679 -0.110988 70 184 0
0.610986 0.0488275 -0.111339 73 181 0
0.612796 0.0544423 -0.111372 76 178 0
0.61701 0.058657 -0.111189 79 175 0
0.621797 0.0613311 -0.110769 82 172 0
0.627262 0.0632623 -0.110295 85 169 0
0.632443 0.0603887 -0.109589 87 167 0
0.636198 0.0562539 -0.108965 90 164 0
0.636453 0.0503575 -0.108518 93 161 0
0.634884 0.0446457 -0.108546 96 158 0
0.629387 0.0427775 -0.108974 99 155 0
0.623893 0.0411855 -0.10967 102 152 0
0.61819 0.0419976 -0.110543 105 149 0
0.613829 0.0458957 -0.111212 108 146 0
0.611165 0.0511463 -0.112152 111 143 0
0.611218 0.0570022 -0.112701 114 140 0
0.611791 0.0627897 -0.113028 117 137 0
0.61498 0.0677186 -0.113109 120 134 0
0.619806 0.0711951 -0.112827 123 131 0
0.625273 0.0729908 -0.11225 126 128 0
0.630793 0.0709303 -0.111621 128 126 0
0.635167 0.0670755 -0.110549 131 123 0
0.63652 0.0614184 -0.110002 134 120 0
0.63478 0.0558775 -0.109824 137 117 0
0.630173 0.0521736 -0.110279 140 114 0
0.624538 0.051265 -0.111007 143 111 0
0.618956 0.0532418 -0.111759 146 108 0
0.614401 0.0568578 -0.112893 149 105 0
0.611115 0.0616575 -0.114027 152 102 0
0.611186 0.0675918 -0.114696 155 99 0
0.611706 0.0733425 -0.115397 158 96 0
0.615304 0.0779444 -0.115615 161 93 0
0.620315 0.0810998 -0.115462 164 90 0
0.625386 0.083846 -0.114914 167 87 0
0.630945 0.0826964 -0.114173 170 84 0
0.63541 0.0790627 -0.113026 172 82 0
0.636689 0.0733943 -0.112074 175 79 0
0.635336 0.0679159 -0.111329 178 76 0
0.6315 0.0634247 -0.111413 181 73 0
0.626344 0.0624778 -0.111927 184 70 0
0.620594 0.0628598 -0.112868 187 67 0
0.615659 0.06504 -0.114047 190 64 0
0.612464 0.0697625 -0.115664 193 61 0
0.611076 0.0753209 -0.11686 196 58 0
0.611044 0.0811766 -0.118027 199 55 0
0.613472 0.0864494 -0.119023 202 52 0
0.617832 0.0902031 -0.119551 205 49 0
0.622214 0.0932789 -0.119492 208 46 0
0.627624 0.0939463 -0.118892 211 43 0
0.632949 0.0924058 -0.117876 213 41 0
0.637082 0.0887828 -0.116588 216 38 0
0.636925 0.0829944 -0.115243 219 35 0
0.635016 0.0779091 -0.113625 222 32 0
0.630432 0.0744229 -0.113327 225 29 0
0.625115 0.0731379 -0.11379 228 26 0
0.61944 0.0737251 -0.115316 231 23 0
0.614853 0.0770665 -0.11677 234 20 0
0.612402 0.0819037 -0.118654 237 17 0
0.611214 0.0870194 -0.120767 240 14 0
0.610902 0.092698 -0.122361 243 11 0
0.613647 0.0967862 -0.123746 246 8 0
0.616324 0.100086 -0.124348 249 5 0
0.619764 0.103 -0.12483 252 2 0
0.624557 0.103312 -0.124807 255 0 0
