ply
format ascii 1.0
comment Generated by robot_control PLYWriter
element vertex 9
property float x
property float y
property float z
property uchar red
property uchar green
property uchar blue
end_header
0.494972 -0.00984732 -0.109035 0 255 0
0.495012 -0.0049897 -0.109314 31 223 0
0.494634 -0.000147704 -0.109533 63 191 0
0.494258 0.00469497 -0.109812 95 159 0
0.493843 0.00952967 -0.110165 127 127 0
0.493435 0.0143627 -0.110549 159 95 0
0.493099 0.0192014 -0.110936 191 63 0
0.492829 0.0240397 -0.111346 223 31 0
0.492963 0.0288813 -0.111807 255 0 0
