ply
format ascii 1.0
comment Generated by robot_control PLYWriter
element vertex 32
property float x
property float y
property float z
property uchar red
property uchar green
property uchar blue
end_header
0.624261 0.106749 -0.117083 0 255 0
0.628486 0.103476 -0.116433 8 246 0
0.632117 0.100126 -0.11489 16 238 0
0.632997 0.0944024 -0.113501 24 230 0
0.632172 0.0887268 -0.112273 32 222 0
0.627732 0.0848294 -0.111206 41 213 0
0.622073 0.0826084 -0.110801 49 205 0
0.616129 0.082131 -0.110817 57 197 0
0.61057 0.084536 -0.1114 65 189 0
0.60588 0.0882906 -0.112107 74 180 0
0.603069 0.0934166 -0.113161 82 172 0
0.602893 0.0993262 -0.114495 90 164 0
0.602935 0.105319 -0.1156 98 156 0
0.60664 0.109929 -0.116911 106 148 0
0.611154 0.113714 -0.118281 115 139 0
0.616824 0.115334 -0.118903 123 131 0
0.622581 0.113941 -0.119149 131 123 0
0.627899 0.111007 -0.118775 139 115 0
0.630808 0.106103 -0.117902 148 106 0
0.629928 0.100252 -0.116774 156 98 0
0.627429 0.0949034 -0.115267 164 90 0
0.622503 0.0916565 -0.114271 172 82 0
0.616556 0.0915524 -0.113233 180 74 0
0.610511 0.0921129 -0.113006 189 65 0
0.606009 0.0956042 -0.113357 197 57 0
0.601881 0.0999759 -0.114252 205 49 0
0.600503 0.105279 -0.115552 213 41 0
0.600556 0.111053 -0.117464 222 32 0
0.602264 0.115638 -0.119751 230 24 0
0.604776 0.120331 -0.121934 238 16 0
0.60842 0.123404 -0.124092 246 8 0
0.612989 0.124451 -0.12619 255 0 0
