ply
format ascii 1.0
comment Generated by robot_control PLYWriter
element vertex 48
property float x
property float y
property float z
property uchar red
property uchar green
property uchar blue
end_header
0.647655 0.156741 -0.14034 0 255 0
0.652183 0.153471 -0.139922 5 249 0
0.656487 0.150102 -0.138555 10 244 0
0.658713 0.145834 -0.136546 16 238 0
0.660333 0.140447 -0.134872 21 233 0
0.658226 0.136296 -0.132947 27 227 0
0.654164 0.132633 -0.131696 32 222 0
0.648865 0.131116 -0.131064 37 217 0
0.643448 0.132706 -0.131229 43 211 0
0.638861 0.135398 -0.132221 48 206 0
0.63487 0.139546 -0.133457 54 200 0
0.635095 0.145255 -0.135233 59 195 0
0.635199 0.15097 -0.137002 65 189 0
0.638753 0.155502 -0.138289 70 184 0
0.643971 0.157987 -0.139573 75 179 0
0.649321 0.159986 -0.140208 81 173 0
0.654958 0.158821 -0.140495 86 168 0
0.66019 0.155923 -0.140296 92 162 0
0.665798 0.153946 -0.139715 97 157 0
0.667421 0.148249 -0.138943 103 151 0
0.668685 0.142933 -0.137429 108 146 0
0.666761 0.137718 -0.136049 113 141 0
0.661467 0.135469 -0.135082 119 135 0
0.655515 0.135319 -0.134643 124 130 0
0.649631 0.136312 -0.134777 130 124 0
0.646007 0.140769 -0.135844 135 119 0
0.643869 0.146205 -0.13714 141 113 0
0.642773 0.151667 -0.138912 146 108 0
0.645319 0.156727 -0.14053 151 103 0
0.649619 0.160511 -0.142116 157 97 0
0.655068 0.162627 -0.143251 162 92 0
0.660983 0.162651 -0.144019 168 86 0
0.666647 0.161314 -0.144306 173 81 0
0.671933 0.158542 -0.144204 179 75 0
0.675982 0.154358 -0.143578 184 70 0
0.6778 0.148894 -0.142314 189 65 0
0.677482 0.143434 -0.140046 195 59 0
0.673651 0.139337 -0.138058 200 54 0
0.668233 0.13796 -0.136832 206 48 0
0.662534 0.138136 -0.136046 211 43 0
0.657086 0.140563 -0.13612 217 37 0
0.653909 0.145361 -0.137141 222 32 0
0.652102 0.15064 -0.138844 227 27 0
0.652613 0.155784 -0.141682 233 21 0
0.655941 0.160292 -0.143713 238 16 0
0.65876 0.16282 -0.146882 244 10 0
0.663552 0.16437 -0.149164 249 5 0
0.668577 0.164496 -0.150871 255 0 0
