ply
format ascii 1.0
comment Generated by robot_control PLYWriter
element vertex 28
property float x
property float y
property float z
property uchar red
property uchar green
property uchar blue
end_header
0.607838 0.122799 -0.14171 0 255 0
0.612452 0.11999 -0.140187 9 245 0
0.616479 0.116027 -0.13848 18 236 0
0.618465 0.110674 -0.13709 28 226 0
0.617214 0.105163 -0.135871 37 217 0
0.613973 0.100264 -0.135357 47 207 0
0.608679 0.0976525 -0.135464 56 198 0
0.602674 0.0979238 -0.136081 66 188 0
0.598971 0.102358 -0.137073 75 179 0
0.596797 0.107856 -0.138131 85 169 0
0.597769 0.113619 -0.13903 94 160 0
0.602256 0.117303 -0.139596 103 151 0
0.60675 0.121065 -0.139741 113 141 0
0.612607 0.121983 -0.139527 122 132 0
0.618613 0.121438 -0.139013 132 122 0
0.623545 0.11855 -0.137962 141 113 0
0.627256 0.11399 -0.137147 151 103 0
0.628429 0.108201 -0.136135 160 94 0
0.626419 0.102789 -0.134944 170 84 0
0.623087 0.0983317 -0.134293 179 75 0
0.617208 0.0973646 -0.133992 188 66 0
0.611372 0.097612 -0.134417 198 56 0
0.607889 0.102405 -0.13548 207 47 0
0.606834 0.108034 -0.136816 217 37 0
0.609239 0.11269 -0.138053 226 28 0
0.612107 0.117531 -0.139119 236 18 0
0.617479 0.119723 -0.13974 245 9 0
0.622826 0.121392 -0.140063 255 0 0
