ply
format ascii 1.0
comment Generated by robot_control PLYWriter
element vertex 13
property float x
property float y
property float z
property uchar red
property uchar green
property uchar blue
end_header
0.510517 0.0653859 -0.141411 0 255 0
0.510079 0.0705059 -0.141504 21 233 0
0.509808 0.0756308 -0.141805 42 212 0
0.509529 0.0807518 -0.142158 63 191 0
0.509224 0.0858587 -0.142655 85 169 0
0.508901 0.0909444 -0.143329 106 148 0
0.508571 0.0960078 -0.144152 127 127 0
0.508234 0.101057 -0.145059 148 106 0
0.507888 0.106096 -0.146016 170 84 0
0.507524 0.111114 -0.147069 191 63 0
0.507153 0.116107 -0.148237 212 42 0
0.506672 0.121087 -0.149413 233 21 0
0.506537 0.126078 -0.150637 255 0 0
