ply
format ascii 1.0
comment Generated by robot_control PLYWriter
element vertex 13
property float x
property float y
property float z
property uchar red
property uchar green
property uchar blue
end_header
0.572837 -0.256465 -0.123737 0 255 0
0.572702 -0.261554 -0.123369 21 233 0
0.572667 -0.266602 -0.122587 42 212 0
0.572571 -0.271629 -0.121699 63 191 0
0.572482 -0.276579 -0.120444 85 169 0
0.572395 -0.281442 -0.118886 106 148 0
0.572316 -0.286197 -0.117017 127 127 0
0.572258 -0.290892 -0.115001 148 106 0
0.572307 -0.295636 -0.113105 170 84 0
0.572263 -0.300411 -0.111286 191 63 0
0.572278 -0.305243 -0.109628 212 42 0
0.572332 -0.310063 -0.107936 233 21 0
0.572374 -0.314986 -0.106586 255 0 0
