ply
format ascii 1.0
comment Generated by robot_control PLYWriter
element vertex 12
property float x
property float y
property float z
property uchar red
property uchar green
property uchar blue
end_header
0.498091 -0.235574 -0.133513 0 255 0
0.497593 -0.240691 -0.134091 23 231 0
0.496924 -0.245824 -0.134089 46 208 0
0.496259 -0.25094 -0.133752 69 185 0
0.495581 -0.256008 -0.132968 92 162 0
0.495026 -0.260993 -0.131715 115 139 0
0.494536 -0.265916 -0.130193 139 115 0
0.494034 -0.270844 -0.128692 162 92 0
0.493616 -0.275826 -0.12736 185 69 0
0.493228 -0.280875 -0.126296 208 46 0
0.492885 -0.285932 -0.125256 231 23 0
0.492582 -0.291062 -0.124858 255 0 0
