ply
format ascii 1.0
comment Generated by robot_control PLYWriter
element vertex 175
property float x
property float y
property float z
property uchar red
property uchar green
property uchar blue
end_header
0.688943 -0.380469 -0.0738347 0 255 0
0.692168 -0.382596 -0.0748246 1 253 0
0.695255 -0.385264 -0.0754129 2 252 0
0.696701 -0.389595 -0.0757959 4 250 0
0.695224 -0.394075 -0.075541 5 249 0
0.692717 -0.396977 -0.0748777 7 247 0
0.688635 -0.398872 -0.0737531 8 246 0
0.683819 -0.400564 -0.0721501 10 244 0
0.678914 -0.399108 -0.070524 11 243 0
0.6751 -0.396547 -0.0683752 13 241 0
0.672192 -0.392384 -0.0661937 14 240 0
0.669372 -0.387652 -0.0643143 16 238 0
0.670466 -0.382209 -0.0632088 17 237 0
0.673005 -0.376825 -0.0633827 19 235 0
0.676303 -0.373075 -0.065052 20 234 0
0.681017 -0.370749 -0.0672379 21 233 0
0.686236 -0.369812 -0.0697108 23 231 0
0.690516 -0.372425 -0.0723802 24 230 0
0.695178 -0.375087 -0.0740013 26 228 0
0.696771 -0.380116 -0.0752602 27 227 0
0.694426 -0.385175 -0.0750198 29 225 0
0.69122 -0.38952 -0.0736416 30 224 0
0.685675 -0.390508 -0.0719193 32 222 0
0.680655 -0.389424 -0.0691825 33 221 0
0.675656 -0.386662 -0.0673531 35 219 0
0.672331 -0.382544 -0.065458 36 218 0
0.670221 -0.377442 -0.0640958 38 216 0
0.671037 -0.371645 -0.0636292 39 215 0
0.673007 -0.366163 -0.0642333 41 213 0
0.677841 -0.363378 -0.0658022 42 212 0
0.682352 -0.36087 -0.0678026 43 211 0
0.687871 -0.360324 -0.0698883 45 209 0
0.692501 -0.36269 -0.071841 46 208 0
0.695931 -0.367363 -0.0733407 48 206 0
0.696731 -0.372761 -0.0743651 49 205 0
0.694008 -0.3779 -0.0735229 51 203 0
0.688667 -0.379483 -0.0717278 52 202 0
0.683301 -0.380663 -0.0694738 54 200 0
0.678536 -0.378845 -0.0681205 55 199 0
0.673896 -0.375298 -0.0675012 57 197 0
0.67111 -0.370062 -0.067323 58 196 0
0.670739 -0.36416 -0.0673676 60 194 0
0.672258 -0.358843 -0.0680548 61 193 0
0.675537 -0.354198 -0.069401 63 191 0
0.680749 -0.351639 -0.070911 64 190 0
0.686365 -0.350701 -0.0723344 65 189 0
0.691793 -0.35163 -0.0733962 67 187 0
0.695458 -0.356173 -0.073824 68 186 0
0.697928 -0.361273 -0.0734549 70 184 0
0.695063 -0.36625 -0.0723097 71 183 0
0.690579 -0.36994 -0.070948 73 181 0
0.684956 -0.370453 -0.0704939 74 180 0
0.679383 -0.369052 -0.0707237 76 178 0
0.674419 -0.365844 -0.0712711 77 177 0
0.671751 -0.360522 -0.0720017 79 175 0
0.670492 -0.354968 -0.0730165 80 174 0
0.672177 -0.349447 -0.0744831 82 172 0
0.675537 -0.34501 -0.0762495 83 171 0
0.680647 -0.342178 -0.0776001 85 169 0
0.686193 -0.340099 -0.07828 86 168 0
0.691935 -0.34133 -0.0780238 87 167 0
0.696071 -0.345232 -0.0771359 89 165 0
0.698406 -0.350139 -0.0754259 90 164 0
0.696844 -0.355606 -0.0736671 92 162 0
0.692442 -0.359291 -0.0725622 93 161 0
0.687162 -0.361704 -0.0728244 95 159 0
0.681363 -0.360353 -0.073424 96 158 0
0.676766 -0.357034 -0.0743213 98 156 0
0.67276 -0.352719 -0.0754264 99 155 0
0.672732 -0.347135 -0.076853 101 153 0
0.673004 -0.341426 -0.0786788 102 152 0
0.674808 -0.336371 -0.08063 104 150 0
0.679033 -0.332558 -0.0823432 105 149 0
0.684714 -0.330713 -0.0825175 106 148 0
0.690505 -0.331567 -0.0820995 108 146 0
0.695212 -0.334909 -0.0807507 109 145 0
0.698002 -0.339851 -0.0790295 111 143 0
0.696647 -0.345172 -0.0774897 112 142 0
0.693124 -0.349924 -0.0766146 114 140 0
0.687509 -0.351065 -0.0765862 115 139 0
0.681881 -0.350775 -0.0770025 117 137 0
0.676875 -0.347678 -0.0777624 118 136 0
0.674415 -0.342265 -0.0785519 120 134 0
0.673174 -0.336678 -0.0801212 121 133 0
0.67322 -0.330985 -0.0820171 123 131 0
0.676473 -0.326504 -0.0836773 124 130 0
0.680038 -0.322086 -0.0846834 126 128 0
0.685712 -0.320225 -0.0849296 127 127 0
0.691387 -0.321765 -0.084709 128 126 0
0.695924 -0.325509 -0.0841486 130 124 0
0.698268 -0.33083 -0.0835561 131 123 0
0.697453 -0.336563 -0.0830646 133 121 0
0.692741 -0.339545 -0.0825223 134 120 0
0.687064 -0.341178 -0.0818838 136 118 0
0.681194 -0.340395 -0.0813433 137 117 0
0.676026 -0.337747 -0.0812309 139 115 0
0.673912 -0.332144 -0.081467 140 114 0
0.673111 -0.326267 -0.0819114 142 112 0
0.674275 -0.320452 -0.0825037 143 111 0
0.677441 -0.315451 -0.0832473 145 109 0
0.681413 -0.311561 -0.0838281 146 108 0
0.687176 -0.31028 -0.0845665 148 106 0
0.692764 -0.311481 -0.0850503 149 105 0
0.696801 -0.315791 -0.0856134 150 104 0
0.698966 -0.321203 -0.086078 152 102 0
0.697064 -0.32657 -0.0863674 153 101 0
0.693684 -0.330694 -0.0860131 155 99 0
0.687925 -0.331704 -0.0851186 156 98 0
0.682475 -0.330503 -0.083843 158 96 0
0.677589 -0.327239 -0.0826425 159 95 0
0.674748 -0.32218 -0.0818944 161 93 0
0.672986 -0.316468 -0.081422 162 92 0
0.673249 -0.310652 -0.0810301 164 90 0
0.676678 -0.305947 -0.0809624 165 89 0
0.68135 -0.302243 -0.0813881 167 87 0
0.686576 -0.299998 -0.0822968 168 86 0
0.692007 -0.30187 -0.0835076 170 84 0
0.697109 -0.304714 -0.0846921 171 83 0
0.698736 -0.310005 -0.0858242 172 82 0
0.69814 -0.315616 -0.0865201 174 80 0
0.69489 -0.320624 -0.0864724 175 79 0
0.689505 -0.32258 -0.0854076 177 77 0
0.683799 -0.322741 -0.0841406 178 76 0
0.679102 -0.319212 -0.0830844 180 74 0
0.676089 -0.314402 -0.0821526 181 73 0
0.673992 -0.308964 -0.081289 183 71 0
0.674173 -0.302997 -0.0807324 184 70 0
0.676185 -0.297516 -0.0804458 186 68 0
0.680634 -0.29361 -0.0807006 187 67 0
0.685768 -0.291013 -0.0817146 189 65 0
0.691687 -0.291033 -0.0826971 190 64 0
0.696709 -0.293536 -0.08363 191 63 0
0.700425 -0.297955 -0.0844148 193 61 0
0.699344 -0.303488 -0.0848163 194 60 0
0.696909 -0.308833 -0.0849192 196 58 0
0.692073 -0.31224 -0.0842559 197 57 0
0.686219 -0.312407 -0.0831305 199 55 0
0.680952 -0.309863 -0.0823937 200 54 0
0.676418 -0.306177 -0.0818126 202 52 0
0.674078 -0.30088 -0.0815156 203 51 0
0.674465 -0.294893 -0.0814099 205 49 0
0.675559 -0.289197 -0.0817371 206 48 0
0.679397 -0.284716 -0.0824419 208 46 0
0.684644 -0.281903 -0.0831377 209 45 0
0.690273 -0.28067 -0.083447 211 43 0
0.695497 -0.283139 -0.0835543 212 42 0
0.699116 -0.287889 -0.083659 213 41 0
0.699285 -0.29358 -0.0834147 215 39 0
0.697523 -0.298876 -0.0830078 216 38 0
0.692791 -0.300772 -0.0824397 218 36 0
0.687022 -0.302031 -0.0817972 219 35 0
0.681636 -0.300514 -0.0814997 221 33 0
0.677258 -0.29718 -0.0815648 222 32 0
0.674627 -0.292162 -0.0819086 224 30 0
0.674785 -0.286205 -0.0826168 225 29 0
0.675134 -0.280343 -0.0834931 227 27 0
0.679025 -0.27588 -0.0841948 228 26 0
0.683656 -0.272152 -0.0848048 230 24 0
0.689081 -0.270304 -0.0851254 231 23 0
0.694448 -0.272101 -0.0851933 233 21 0
0.698216 -0.275782 -0.0850101 234 20 0
0.700878 -0.280507 -0.084452 235 19 0
0.699686 -0.285758 -0.0836361 237 17 0
0.69761 -0.290518 -0.0829265 238 16 0
0.692565 -0.292575 -0.082279 240 14 0
0.686573 -0.292534 -0.0819749 241 13 0
0.682058 -0.291013 -0.0821824 243 11 0
0.678773 -0.288149 -0.0827708 244 10 0
0.676202 -0.283543 -0.0833296 246 8 0
0.67488 -0.27821 -0.083772 247 7 0
0.674907 -0.272254 -0.0838246 249 5 0
0.677027 -0.26834 -0.0837721 250 4 0
0.679938 -0.264871 -0.0837644 252 2 0
0.683559 -0.262143 -0.083854 253 1 0
0.688743 -0.260529 -0.0842573 255 0 0
