ply
format ascii 1.0
comment Generated by robot_control PLYWriter
element vertex 59
property float x
property float y
property float z
property uchar red
property uchar green
property uchar blue
end_header
0.714877 0.0113713 -0.111202 0 255 0
0.719066 0.0115216 -0.111542 4 250 0
0.72337 0.00745118 -0.111645 8 246 0
0.724953 0.00208562 -0.111273 13 241 0
0.724214 -0.0034702 -0.110448 17 237 0
0.719966 -0.00697532 -0.109277 21 233 0
0.714598 -0.00861662 -0.108491 26 228 0
0.708905 -0.00798462 -0.107917 30 224 0
0.704296 -0.00485161 -0.107915 35 219 0
0.700331 -0.000572436 -0.108299 39 215 0
0.699052 0.00519299 -0.108841 43 211 0
0.69852 0.011091 -0.109624 48 206 0
0.701293 0.0163549 -0.11028 52 202 0
0.705464 0.0205453 -0.111286 57 197 0
0.710305 0.0231492 -0.112122 61 193 0
0.716291 0.0229374 -0.112599 65 189 0
0.721764 0.0205748 -0.112626 70 184 0
0.723834 0.0152045 -0.112374 74 180 0
0.725754 0.0106142 -0.111861 79 175 0
0.722164 0.00584252 -0.111184 83 171 0
0.717967 0.00182305 -0.110544 87 167 0
0.712342 0.00258609 -0.110245 92 162 0
0.706724 0.00450599 -0.110125 96 158 0
0.702161 0.00832414 -0.110325 101 153 0
0.698807 0.0132523 -0.110762 105 149 0
0.698835 0.0191761 -0.111287 109 145 0
0.701605 0.0243793 -0.112098 114 140 0
0.704519 0.0294557 -0.112941 118 136 0
0.709503 0.0324858 -0.113744 123 131 0
0.715407 0.0332132 -0.114298 127 127 0
0.721219 0.0323985 -0.114482 131 123 0
0.724395 0.0279019 -0.114355 136 118 0
0.72608 0.0222026 -0.113871 140 114 0
0.723699 0.0170997 -0.1132 145 109 0
0.719141 0.013233 -0.112694 149 105 0
0.713839 0.0114311 -0.11235 153 101 0
0.708664 0.0139861 -0.112199 158 96 0
0.703689 0.0168087 -0.112281 162 92 0
0.701622 0.0224337 -0.112676 167 87 0
0.700821 0.0283302 -0.113302 171 83 0
0.701233 0.0342093 -0.114106 175 79 0
0.704085 0.0391632 -0.114997 180 74 0
0.708402 0.0432394 -0.11582 184 70 0
0.714258 0.0436375 -0.116539 189 65 0
0.720237 0.0435768 -0.116875 193 61 0
0.725169 0.0402212 -0.11685 197 57 0
0.726487 0.0344573 -0.11644 202 52 0
0.725357 0.0287196 -0.115644 206 48 0
0.721474 0.0248465 -0.114711 211 43 0
0.716157 0.0230761 -0.114032 215 39 0
0.710645 0.024518 -0.113612 219 35 0
0.705587 0.0267845 -0.113611 224 30 0
0.701445 0.0309332 -0.114017 228 26 0
0.700482 0.0365244 -0.114648 233 21 0
0.700324 0.042336 -0.115945 237 17 0
0.702503 0.0472925 -0.117089 241 13 0
0.704891 0.051683 -0.118242 246 8 0
0.709743 0.0537914 -0.119106 250 4 0
0.714831 0.0555226 -0.119839 255 0 0
