ply
format ascii 1.0
comment Generated by robot_control PLYWriter
element vertex 13
property float x
property float y
property float z
property uchar red
property uchar green
property uchar blue
end_header
0.584498 0.0132477 -0.119786 0 255 0
0.583911 0.018076 -0.119633 21 233 0
0.583571 0.0229294 -0.119769 42 212 0
0.583248 0.0277809 -0.119998 63 191 0
0.58285 0.0326184 -0.120343 85 169 0
0.582258 0.0374278 -0.120798 106 148 0
0.58193 0.042249 -0.121385 127 127 0
0.581604 0.0470617 -0.122041 148 106 0
0.581279 0.0518661 -0.122754 170 84 0
0.580789 0.0566538 -0.123481 191 63 0
0.58025 0.0614383 -0.124199 212 42 0
0.579593 0.0662094 -0.124886 233 21 0
0.579318 0.071039 -0.125428 255 0 0
