ply
format ascii 1.0
comment Generated by robot_control PLYWriter
element vertex 48
property float x
property float y
property float z
property uchar red
property uchar green
property uchar blue
end_header
0.73997 0.108849 -0.128217 0 255 0
0.744787 0.106023 -0.128116 5 249 0
0.749587 0.103011 -0.127882 10 244 0
0.752351 0.098228 -0.127721 16 238 0
0.752914 0.093032 -0.12753 21 233 0
0.751071 0.0880033 -0.127093 27 227 0
0.746786 0.0841479 -0.125975 32 222 0
0.741454 0.0824112 -0.124471 37 217 0
0.73643 0.0841149 -0.122931 43 211 0
0.731319 0.0870686 -0.12233 48 206 0
0.728265 0.0919826 -0.122538 54 200 0
0.727924 0.0978829 -0.123118 59 195 0
0.729127 0.10354 -0.123859 65 189 0
0.733087 0.107789 -0.124955 70 184 0
0.737863 0.11105 -0.126264 75 179 0
0.743299 0.111299 -0.127763 81 173 0
0.749061 0.11161 -0.129089 86 168 0
0.754349 0.109325 -0.129969 92 162 0
0.757706 0.104434 -0.13026 97 157 0
0.760534 0.0992898 -0.130081 103 151 0
0.760641 0.0935718 -0.129651 108 146 0
0.757818 0.0885239 -0.128738 113 141 0
0.752784 0.0858473 -0.127474 119 135 0
0.746972 0.0862593 -0.126603 124 130 0
0.741976 0.0889372 -0.126329 130 124 0
0.737767 0.0931178 -0.126526 135 119 0
0.735693 0.09864 -0.126877 141 113 0
0.736982 0.104273 -0.127767 146 108 0
0.740326 0.109019 -0.128775 151 103 0
0.744784 0.112504 -0.130241 157 97 0
0.750329 0.113468 -0.131892 162 92 0
0.756049 0.114114 -0.133358 168 86 0
0.761067 0.111298 -0.134452 173 81 0
0.765872 0.10785 -0.134969 179 75 0
0.768933 0.103212 -0.134908 184 70 0
0.770261 0.0977484 -0.134515 189 65 0
0.768474 0.092411 -0.13363 195 59 0
0.76453 0.0894155 -0.131865 200 54 0
0.759221 0.0878182 -0.130157 206 48 0
0.753861 0.0886264 -0.128528 211 43 0
0.749113 0.0914434 -0.127656 217 37 0
0.746408 0.096462 -0.127419 222 32 0
0.745149 0.102223 -0.127709 227 27 0
0.746828 0.107346 -0.129104 233 21 0
0.749097 0.111525 -0.130775 238 16 0
0.752425 0.115031 -0.1331 244 10 0
0.756723 0.117257 -0.135437 249 5 0
0.761145 0.11767 -0.137678 255 0 0
