ply
format ascii 1.0
comment Generated by robot_control PLYWriter
element vertex 48
property float x
property float y
property float z
property uchar red
property uchar green
property uchar blue
end_header
0.614721 -0.232458 -0.105729 0 255 0
0.618724 -0.23445 -0.105858 5 249 0
0.622713 -0.236466 -0.106005 10 244 0
0.626701 -0.240625 -0.105815 16 238 0
0.628235 -0.246018 -0.105423 21 233 0
0.626431 -0.251438 -0.104734 27 227 0
0.623156 -0.256362 -0.104164 32 222 0
0.618809 -0.26035 -0.103662 37 217 0
0.613531 -0.262923 -0.103578 43 211 0
0.607909 -0.261329 -0.103707 48 206 0
0.602235 -0.260264 -0.103994 54 200 0
0.597847 -0.256126 -0.104329 59 195 0
0.59485 -0.251051 -0.10484 65 189 0
0.594756 -0.24505 -0.105329 70 184 0
0.595983 -0.239212 -0.105698 75 179 0
0.600583 -0.235759 -0.10591 81 173 0
0.60592 -0.232969 -0.105927 86 168 0
0.611134 -0.235009 -0.105702 92 162 0
0.615828 -0.238251 -0.10528 97 157 0
0.61841 -0.243673 -0.104796 103 151 0
0.618409 -0.249594 -0.104396 108 146 0
0.616529 -0.255297 -0.104234 113 141 0
0.612317 -0.259234 -0.104147 119 135 0
0.606788 -0.261659 -0.104099 124 130 0
0.601038 -0.263003 -0.104078 130 124 0
0.595732 -0.260862 -0.104098 135 119 0
0.590921 -0.257212 -0.104278 141 113 0
0.58647 -0.253572 -0.104654 146 108 0
0.585184 -0.2477 -0.105023 151 103 0
0.586198 -0.241875 -0.105503 157 97 0
0.588561 -0.236407 -0.105747 162 92 0
0.594362 -0.234906 -0.105829 168 86 0
0.600404 -0.234898 -0.105814 173 81 0
0.605776 -0.237433 -0.105503 179 75 0
0.60895 -0.242423 -0.105166 184 70 0
0.609103 -0.248412 -0.104764 189 65 0
0.607831 -0.254231 -0.104485 195 59 0
0.603856 -0.258639 -0.104292 200 54 0
0.598553 -0.261193 -0.104116 206 48 0
0.592944 -0.263137 -0.10394 211 43 0
0.58748 -0.260656 -0.103962 217 37 0
0.582048 -0.259197 -0.104174 222 32 0
0.5786 -0.254245 -0.104449 227 27 0
0.577174 -0.248636 -0.104701 233 21 0
0.577237 -0.242622 -0.105018 238 16 0
0.579648 -0.237934 -0.105376 244 10 0
0.582735 -0.235006 -0.105702 249 5 0
0.588339 -0.234885 -0.1061 255 0 0
