ply
format ascii 1.0
comment Generated by robot_control PLYWriter
element vertex 47
property float x
property float y
property float z
property uchar red
property uchar green
property uchar blue
end_header
0.508 0.174998 -0.146792 0 255 0
0.511982 0.171775 -0.14477 5 249 0
0.514309 0.168768 -0.143129 11 243 0
0.516057 0.163785 -0.141129 16 238 0
0.514627 0.158344 -0.139555 22 232 0
0.511579 0.153775 -0.138014 27 227 0
0.507038 0.150106 -0.137191 33 221 0
0.502814 0.145924 -0.137186 38 216 0
0.496941 0.146389 -0.137754 44 210 0
0.491089 0.147064 -0.13883 49 205 0
0.486033 0.150039 -0.139979 55 199 0
0.482635 0.15451 -0.142008 60 194 0
0.482609 0.15998 -0.143854 66 188 0
0.484879 0.165335 -0.145058 72 182 0
0.490446 0.167592 -0.145201 77 177 0
0.495996 0.169835 -0.144763 83 171 0
0.501129 0.167694 -0.143668 88 166 0
0.505538 0.165211 -0.142223 94 160 0
0.507407 0.159753 -0.140573 99 155 0
0.508471 0.154045 -0.139001 105 149 0
0.506386 0.148576 -0.137819 110 144 0
0.501785 0.1448 -0.137028 116 138 0
0.497387 0.140805 -0.136658 121 133 0
0.491824 0.139011 -0.136799 127 127 0
0.485878 0.139672 -0.137361 133 121 0
0.480536 0.141966 -0.13824 138 116 0
0.476723 0.146149 -0.139823 144 110 0
0.476327 0.151682 -0.141076 149 105 0
0.478593 0.157124 -0.142162 155 99 0
0.483347 0.160734 -0.142545 160 94 0
0.488948 0.161681 -0.142202 166 88 0
0.494815 0.161067 -0.141005 171 83 0
0.499454 0.158064 -0.139471 177 77 0
0.501246 0.152462 -0.13826 182 72 0
0.500412 0.146788 -0.13645 188 66 0
0.498469 0.141324 -0.135068 194 60 0
0.493958 0.137511 -0.134177 199 55 0
0.489333 0.133901 -0.133758 205 49 0
0.483707 0.132026 -0.133945 210 44 0
0.477828 0.132977 -0.134632 216 38 0
0.47255 0.134715 -0.13616 221 33 0
0.46972 0.139083 -0.138258 227 27 0
0.468884 0.144328 -0.140812 232 22 0
0.47123 0.149337 -0.142541 238 16 0
0.474096 0.152477 -0.143689 243 11 0
0.477126 0.155282 -0.143905 249 5 0
0.4821 0.155404 -0.143024 255 0 0
