ply
format ascii 1.0
comment Generated by robot_control PLYWriter
element vertex 14
property float x
property float y
property float z
property uchar red
property uchar green
property uchar blue
end_header
0.606493 0.110148 -0.126616 0 255 0
0.606896 0.105326 -0.125853 19 235 0
0.607283 0.100498 -0.125113 39 215 0
0.607684 0.0956695 -0.124385 58 196 0
0.608139 0.0908465 -0.123652 78 176 0
0.608622 0.0860196 -0.122964 98 156 0
0.609117 0.0811806 -0.122381 117 137 0
0.609523 0.0763255 -0.121871 137 117 0
0.609911 0.0714647 -0.121403 156 98 0
0.610411 0.0666075 -0.121001 176 78 0
0.610891 0.0617424 -0.120676 196 58 0
0.611345 0.0568728 -0.120387 215 39 0
0.611943 0.0520215 -0.120095 235 19 0
0.612222 0.047131 -0.119997 255 0 0
