ply
format ascii 1.0
comment Generated by robot_control PLYWriter
element vertex 97
property float x
property float y
property float z
property uchar red
property uchar green
property uchar blue
end_header
0.681823 0.0516381 -0.153627 0 255 0
0.686267 0.0486017 -0.153089 2 252 0
0.68915 0.0450689 -0.152049 5 249 0
0.691485 0.0403424 -0.150382 7 247 0
0.692162 0.0351922 -0.147822 10 244 0
0.691161 0.0301548 -0.145786 13 241 0
0.688424 0.0254307 -0.144604 15 239 0
0.684982 0.0224475 -0.143695 18 236 0
0.679746 0.0199436 -0.143651 21 233 0
0.67395 0.0195125 -0.144442 23 231 0
0.668516 0.0212948 -0.145691 26 228 0
0.664575 0.0256437 -0.146889 29 225 0
0.663186 0.0310734 -0.147603 31 223 0
0.665071 0.0363909 -0.148336 34 220 0
0.66822 0.0414602 -0.14877 37 217 0
0.67394 0.0432688 -0.148744 39 215 0
0.679875 0.0432206 -0.14833 42 212 0
0.685144 0.0408204 -0.14739 45 209 0
0.689521 0.0367693 -0.146604 47 207 0
0.692466 0.0319561 -0.145295 50 204 0
0.693129 0.0260772 -0.144246 53 201 0
0.692691 0.0201933 -0.143071 55 199 0
0.689643 0.0154603 -0.142098 58 196 0
0.685482 0.0113417 -0.141653 61 193 0
0.679973 0.00899488 -0.141826 63 191 0
0.6742 0.00952804 -0.142441 66 188 0
0.669371 0.0125759 -0.143313 69 185 0
0.66459 0.0158406 -0.14414 71 183 0
0.664656 0.0218101 -0.144901 74 180 0
0.667453 0.0267448 -0.14539 77 177 0
0.670541 0.0316881 -0.145562 79 175 0
0.676148 0.0335565 -0.145167 82 172 0
0.681786 0.0320383 -0.144249 85 169 0
0.687385 0.0301129 -0.143194 87 167 0
0.691119 0.0257313 -0.142059 90 164 0
0.694426 0.0209048 -0.141257 92 162 0
0.694421 0.0149785 -0.140298 95 159 0
0.694325 0.00905682 -0.139578 98 156 0
0.691767 0.0040882 -0.13897 100 154 0
0.686699 0.00087857 -0.138683 103 151 0
0.681173 -0.00139595 -0.138758 106 148 0
0.67535 -0.00103804 -0.13945 108 146 0
0.670403 0.00202729 -0.140244 111 143 0
0.66687 0.00679978 -0.141073 114 140 0
0.666793 0.0124773 -0.141693 116 138 0
0.669257 0.0178854 -0.142121 119 135 0
0.673676 0.0209267 -0.142185 122 132 0
0.679051 0.0233335 -0.141816 124 130 0
0.684758 0.0215854 -0.141199 127 127 0
0.689943 0.0200934 -0.140122 130 124 0
0.693258 0.0152409 -0.139144 132 122 0
0.695732 0.00988146 -0.138032 135 119 0
0.696926 0.00428814 -0.137087 138 116 0
0.695972 -0.00153222 -0.136327 140 114 0
0.692594 -0.00625382 -0.135672 143 111 0
0.687892 -0.0099651 -0.135224 146 108 0
0.682576 -0.012269 -0.135266 148 106 0
0.676785 -0.010848 -0.13575 151 103 0
0.671637 -0.00912532 -0.136434 154 100 0
0.668575 -0.0040606 -0.137496 156 98 0
0.667775 0.00160509 -0.138175 159 95 0
0.6701 0.00711054 -0.13867 162 92 0
0.673851 0.0117751 -0.13893 164 90 0
0.679632 0.0121302 -0.138884 167 87 0
0.685636 0.0119334 -0.138524 170 84 0
0.690644 0.00978289 -0.137813 172 82 0
0.694254 0.00504911 -0.136935 175 79 0
0.698461 0.000942245 -0.135821 177 77 0
0.69836 -0.00499181 -0.134887 180 74 0
0.697523 -0.0108654 -0.134153 183 71 0
0.695037 -0.0162052 -0.133653 185 69 0
0.691029 -0.0206667 -0.133268 188 66 0
0.685366 -0.0225163 -0.133149 191 63 0
0.679458 -0.0221942 -0.133227 193 61 0
0.674938 -0.018682 -0.133696 196 58 0
0.670825 -0.014932 -0.134473 199 55 0
0.670115 -0.00907592 -0.135425 201 53 0
0.672303 -0.0037986 -0.136089 204 50 0
0.676356 0.000627179 -0.136345 207 47 0
0.681821 0.00171966 -0.136348 209 45 0
0.687816 0.00137727 -0.136083 212 42 0
0.693267 -0.000884454 -0.135583 215 39 0
0.696541 -0.00565713 -0.134727 217 37 0
0.699498 -0.0108196 -0.133852 220 34 0
0.70064 -0.0164713 -0.133086 223 31 0
0.698631 -0.0219004 -0.132505 225 29 0
0.695536 -0.0269987 -0.132108 228 26 0
0.690865 -0.0306948 -0.131799 231 23 0
0.685391 -0.0330083 -0.131705 233 21 0
0.679525 -0.0325825 -0.13178 236 18 0
0.675469 -0.0289584 -0.132146 239 15 0
0.672549 -0.0241409 -0.132677 241 13 0
0.670783 -0.0192341 -0.133303 244 10 0
0.673305 -0.015685 -0.133704 247 7 0
0.675601 -0.010964 -0.134065 249 5 0
0.680886 -0.00930203 -0.134299 252 2 0
0.686663 -0.00843792 -0.134168 255 0 0
