ply
format ascii 1.0
comment Generated by robot_control PLYWriter
element vertex 87
property float x
property float y
property float z
property uchar red
property uchar green
property uchar blue
end_header
0.58545 -0.034431 -0.0353375 0 255 0
0.590088 -0.0364793 -0.0342966 2 252 0
0.593593 -0.0404345 -0.0334873 5 249 0
0.594686 -0.04586 -0.0326492 8 246 0
0.594676 -0.0518431 -0.0320012 11 243 0
0.59081 -0.0560191 -0.0318329 14 240 0
0.585975 -0.0590288 -0.0322369 17 237 0
0.580428 -0.06066 -0.0328919 20 234 0
0.574568 -0.060325 -0.0340909 23 231 0
0.569435 -0.0574573 -0.0352902 26 228 0
0.566933 -0.0524502 -0.0366577 29 225 0
0.564223 -0.0472864 -0.0381169 32 222 0
0.562544 -0.0418327 -0.039397 35 219 0
0.565033 -0.0364037 -0.039971 38 216 0
0.568055 -0.031297 -0.0404645 41 213 0
0.57156 -0.0265107 -0.0403978 44 210 0
0.577057 -0.0246068 -0.0399242 47 207 0
0.58303 -0.024595 -0.0392213 50 204 0
0.588594 -0.025175 -0.0381385 53 201 0
0.591712 -0.0300937 -0.0368153 56 198 0
0.59458 -0.0351706 -0.0355212 59 195 0
0.593452 -0.0407846 -0.034538 62 192 0
0.590499 -0.0460055 -0.0341604 65 189 0
0.585478 -0.0492385 -0.0345084 68 186 0
0.579838 -0.0504573 -0.0353547 71 183 0
0.573919 -0.0503384 -0.0364343 74 180 0
0.568371 -0.048727 -0.0378832 77 177 0
0.564377 -0.0445017 -0.0393456 80 174 0
0.562409 -0.0389683 -0.0406644 83 171 0
0.562236 -0.0331703 -0.0421971 85 169 0
0.563101 -0.0273682 -0.0432854 88 166 0
0.565833 -0.0221022 -0.0440216 91 163 0
0.570009 -0.0178938 -0.0443294 94 160 0
0.575405 -0.0153694 -0.0441496 97 157 0
0.581301 -0.0145881 -0.0435361 100 154 0
0.586921 -0.0158211 -0.0424916 103 151 0
0.591661 -0.0192712 -0.0412303 106 148 0
0.594524 -0.0242741 -0.03992 109 145 0
0.594173 -0.0299617 -0.0385392 112 142 0
0.591493 -0.0352578 -0.0376711 115 139 0
0.587071 -0.0391842 -0.0374144 118 136 0
0.581537 -0.0409065 -0.0377345 121 133 0
0.575693 -0.0419786 -0.0386332 124 130 0
0.570476 -0.0400468 -0.0402539 127 127 0
0.566293 -0.0359968 -0.0416603 130 124 0
0.563351 -0.0309044 -0.0429423 133 121 0
0.562199 -0.0253548 -0.044739 136 118 0
0.562821 -0.0195146 -0.0459519 139 115 0
0.565389 -0.0142229 -0.047035 142 112 0
0.569504 -0.00990124 -0.0477911 145 109 0
0.573998 -0.00607464 -0.0480946 148 106 0
0.579744 -0.00445252 -0.0478499 151 103 0
0.585199 -0.00607962 -0.0467899 154 100 0
0.589746 -0.00973152 -0.0454144 157 97 0
0.592631 -0.0142595 -0.0435702 160 94 0
0.592602 -0.0201388 -0.0422852 163 91 0
0.590601 -0.0254334 -0.0412923 166 88 0
0.587205 -0.0303797 -0.0408596 169 85 0
0.581601 -0.0321271 -0.0410521 171 83 0
0.575656 -0.0326855 -0.041632 174 80 0
0.570127 -0.0311943 -0.0428841 177 77 0
0.565829 -0.0273881 -0.0444741 180 74 0
0.563081 -0.0223606 -0.0461926 183 71 0
0.562628 -0.016739 -0.0481288 186 68 0
0.562842 -0.0110028 -0.0498862 189 65 0
0.564305 -0.00547575 -0.0510958 192 62 0
0.568287 -0.00107722 -0.0520717 195 59 0
0.572937 0.00269992 -0.0523619 198 56 0
0.578374 0.00422982 -0.0520761 201 53 0
0.584243 0.0031353 -0.0513664 204 50 0
0.589289 0.000436919 -0.0501235 207 47 0
0.592712 -0.00419326 -0.0484123 210 44 0
0.592655 -0.00988368 -0.0464534 213 41 0
0.590079 -0.0150433 -0.0451863 216 38 0
0.587474 -0.019951 -0.0444736 219 35 0
0.582056 -0.0220572 -0.0443998 222 32 0
0.576132 -0.0222025 -0.0452581 225 29 0
0.570453 -0.0213997 -0.0467617 228 26 0
0.565866 -0.0179707 -0.0482808 231 23 0
0.562686 -0.0135627 -0.0501704 234 20 0
0.560731 -0.0084154 -0.0523534 237 17 0
0.560453 -0.00294695 -0.0544772 240 14 0
0.562531 0.00206649 -0.0559965 243 11 0
0.564631 0.00709997 -0.0574804 246 8 0
0.567892 0.00990563 -0.0581906 249 5 0
0.572529 0.0120403 -0.0578239 252 2 0
0.576183 0.0139359 -0.0563935 255 0 0
