ply
format ascii 1.0
comment Generated by robot_control PLYWriter
element vertex 13
property float x
property float y
property float z
property uchar red
property uchar green
property uchar blue
end_header
0.567811 -0.37094 -0.103929 0 255 0
0.567432 -0.374352 -0.100562 21 233 0
0.566879 -0.378188 -0.097729 42 212 0
0.566251 -0.382471 -0.0956357 63 191 0
0.56549 -0.386855 -0.0938106 85 169 0
0.564691 -0.391376 -0.0924102 106 148 0
0.563948 -0.396053 -0.0917263 127 127 0
0.563244 -0.400788 -0.0919913 148 106 0
0.562501 -0.405407 -0.0931206 170 84 0
0.561869 -0.410008 -0.0943812 191 63 0
0.56107 -0.414586 -0.0956323 212 42 0
0.560322 -0.419047 -0.0972548 233 21 0
0.559867 -0.423697 -0.0983336 255 0 0
