ply
format ascii 1.0
comment Generated by robot_control PLYWriter
element vertex 58
property float x
property float y
property float z
property uchar red
property uchar green
property uchar blue
end_header
0.557559 0.180061 -0.13331 0 255 0
0.561234 0.17716 -0.131942 4 250 0
0.565131 0.173819 -0.130449 8 246 0
0.566916 0.168328 -0.129139 13 241 0
0.568553 0.163064 -0.12715 17 237 0
0.566876 0.157748 -0.125224 22 232 0
0.563766 0.152775 -0.123924 26 228 0
0.56048 0.148081 -0.122594 31 223 0
0.555626 0.144566 -0.122042 35 219 0
0.550625 0.141829 -0.121875 40 214 0
0.544794 0.142856 -0.122094 44 210 0
0.53898 0.143555 -0.122873 49 205 0
0.533769 0.146105 -0.124005 53 201 0
0.530125 0.15064 -0.125328 58 196 0
0.529035 0.156254 -0.126815 62 192 0
0.52882 0.162154 -0.12802 67 187 0
0.531693 0.167 -0.129118 71 183 0
0.536378 0.170583 -0.129751 76 178 0
0.542024 0.172644 -0.129788 80 174 0
0.5474 0.17285 -0.129298 85 169 0
0.552595 0.169929 -0.128431 89 165 0
0.556869 0.166015 -0.127334 93 161 0
0.559706 0.160938 -0.125927 98 156 0
0.560446 0.155177 -0.124725 102 152 0
0.559948 0.149306 -0.123696 107 147 0
0.557464 0.144259 -0.122684 111 143 0
0.552912 0.140437 -0.12191 116 138 0
0.548332 0.136671 -0.121544 120 134 0
0.542916 0.134241 -0.121495 125 129 0
0.536948 0.133414 -0.121613 129 125 0
0.53148 0.135646 -0.12212 134 120 0
0.526122 0.138221 -0.122965 138 116 0
0.522754 0.143134 -0.123878 143 111 0
0.52069 0.148648 -0.125016 147 107 0
0.521083 0.15449 -0.1262 152 102 0
0.524603 0.158925 -0.127094 156 98 0
0.529514 0.162386 -0.127413 161 93 0
0.534844 0.16407 -0.127313 165 89 0
0.540814 0.163963 -0.126672 170 84 0
0.546235 0.161836 -0.125752 174 80 0
0.550239 0.157575 -0.124618 178 76 0
0.552167 0.152022 -0.123464 183 71 0
0.552392 0.14627 -0.121805 187 67 0
0.551927 0.140483 -0.120631 192 62 0
0.548617 0.135656 -0.119675 196 58 0
0.544452 0.131341 -0.119113 201 53 0
0.539411 0.128191 -0.118947 205 49 0
0.533785 0.126068 -0.119212 210 44 0
0.527903 0.126795 -0.11994 214 40 0
0.522089 0.127567 -0.121302 219 35 0
0.518349 0.131608 -0.122615 223 31 0
0.514314 0.135501 -0.124724 228 26 0
0.51426 0.141353 -0.126062 232 22 0
0.514374 0.147057 -0.127646 237 17 0
0.517175 0.151904 -0.128104 241 13 0
0.52138 0.154637 -0.128273 246 8 0
0.524819 0.157162 -0.12816 250 4 0
0.530525 0.157103 -0.127718 255 0 0
