ply
format ascii 1.0
comment Generated by robot_control PLYWriter
element vertex 13
property float x
property float y
property float z
property uchar red
property uchar green
property uchar blue
end_header
0.50109 -0.305836 -0.0826792 0 255 0
0.506225 -0.307826 -0.0814334 21 233 0
0.508551 -0.312998 -0.0805051 42 212 0
0.508516 -0.319031 -0.0799851 63 191 0
0.506406 -0.324374 -0.0799788 85 169 0
0.501099 -0.327257 -0.0803816 106 148 0
0.495793 -0.327942 -0.0812453 127 127 0
0.490299 -0.325898 -0.0825181 148 106 0
0.486578 -0.321375 -0.0839643 170 84 0
0.485691 -0.315571 -0.0851037 191 63 0
0.487224 -0.310076 -0.0860387 212 42 0
0.491753 -0.30646 -0.0867016 233 21 0
0.496587 -0.304407 -0.0859968 255 0 0
