ply
format ascii 1.0
comment Generated by robot_control PLYWriter
element vertex 44
property float x
property float y
property float z
property uchar red
property uchar green
property uchar blue
end_header
0.643328 0.155757 -0.154949 0 255 0
0.646584 0.153531 -0.152531 5 249 0
0.648984 0.150079 -0.150397 11 243 0
0.65127 0.145349 -0.14822 17 237 0
0.649769 0.140842 -0.145848 23 231 0
0.647563 0.135683 -0.144299 29 225 0
0.643283 0.131918 -0.143424 35 219 0
0.637273 0.131322 -0.143154 41 213 0
0.632087 0.129742 -0.143643 47 207 0
0.626476 0.131319 -0.145051 53 201 0
0.622435 0.135189 -0.14693 59 195 0
0.620726 0.140267 -0.148865 65 189 0
0.621562 0.145809 -0.150593 71 183 0
0.625693 0.15017 -0.151286 77 177 0
0.631198 0.151247 -0.15115 83 171 0
0.636074 0.150153 -0.150226 88 166 0
0.641185 0.147084 -0.149116 94 160 0
0.643599 0.141957 -0.147119 100 154 0
0.644072 0.136318 -0.145213 106 148 0
0.64192 0.130821 -0.143872 112 142 0
0.637889 0.126583 -0.14295 118 136 0
0.632457 0.12527 -0.142595 124 130 0
0.626918 0.123098 -0.142858 130 124 0
0.621551 0.12583 -0.143544 136 118 0
0.617063 0.129566 -0.144794 142 112 0
0.614672 0.134626 -0.14659 148 106 0
0.615722 0.140289 -0.148185 154 100 0
0.620736 0.143635 -0.148665 160 94 0
0.626167 0.145869 -0.148559 166 88 0
0.631965 0.144275 -0.147955 171 83 0
0.635908 0.140797 -0.146682 177 77 0
0.638418 0.135798 -0.144588 183 71 0
0.637238 0.130631 -0.142736 189 65 0
0.636963 0.124711 -0.14174 195 59 0
0.631957 0.121669 -0.140596 201 53 0
0.626462 0.119181 -0.140033 207 47 0
0.620902 0.117129 -0.140082 213 41 0
0.615769 0.119667 -0.140741 219 35 0
0.611745 0.122671 -0.142046 225 29 0
0.60863 0.127248 -0.143711 231 23 0
0.60933 0.132679 -0.14588 237 17 0
0.612176 0.136492 -0.147627 243 11 0
0.615469 0.139699 -0.148717 249 5 0
0.620701 0.13995 -0.148897 255 0 0
