ply
format ascii 1.0
comment Generated by robot_control PLYWriter
element vertex 14
property float x
property float y
property float z
property uchar red
property uchar green
property uchar blue
end_header
0.58828 -0.0136284 -0.0327346 0 255 0
0.588284 -0.00881163 -0.032271 19 235 0
0.588276 -0.00400176 -0.0317419 39 215 0
0.588205 0.000814738 -0.0312883 58 196 0
0.588017 0.00563391 -0.0308935 78 176 0
0.587829 0.0104573 -0.0305519 98 156 0
0.587641 0.0152761 -0.0301511 117 137 0
0.587454 0.0200858 -0.0296524 137 117 0
0.587245 0.0248859 -0.0290756 156 98 0
0.587064 0.0296714 -0.0283803 176 78 0
0.586883 0.0343954 -0.0273542 196 58 0
0.586839 0.0390463 -0.0260287 215 39 0
0.586833 0.0436803 -0.0246359 235 19 0
0.586821 0.0482206 -0.0229655 255 0 0
