ply
format ascii 1.0
comment Generated by robot_control PLYWriter
element vertex 110
property float x
property float y
property float z
property uchar red
property uchar green
property uchar blue
end_header
0.588013 -0.29655 -0.0995926 0 255 0
0.590728 -0.299754 -0.0990488 2 252 0
0.594076 -0.302437 -0.0985806 4 250 0
0.596236 -0.307005 -0.0979682 7 247 0
0.596235 -0.312875 -0.0967721 9 245 0
0.595883 -0.318737 -0.0963521 11 243 0
0.592915 -0.323637 -0.0961472 14 240 0
0.588424 -0.326325 -0.0965536 16 238 0
0.58395 -0.328653 -0.0978783 18 236 0
0.578149 -0.328449 -0.0991454 21 233 0
0.57282 -0.326972 -0.100195 23 231 0
0.568655 -0.32276 -0.101038 25 229 0
0.568488 -0.316863 -0.10148 28 226 0
0.570545 -0.311236 -0.101297 30 224 0
0.574505 -0.306839 -0.100782 32 222 0
0.580337 -0.306332 -0.0999243 35 219 0
0.586202 -0.306792 -0.0988187 37 217 0
0.591461 -0.309112 -0.0979079 39 215 0
0.59445 -0.314154 -0.0969209 42 212 0
0.596218 -0.319702 -0.0960754 44 210 0
0.596101 -0.325659 -0.0954196 46 208 0
0.594258 -0.331345 -0.0953102 49 205 0
0.59106 -0.336269 -0.0956682 51 203 0
0.585773 -0.338931 -0.0963935 53 201 0
0.580181 -0.340298 -0.0973248 56 198 0
0.574509 -0.338777 -0.0981904 58 196 0
0.569947 -0.335219 -0.0993868 60 194 0
0.568156 -0.329996 -0.100123 63 191 0
0.568475 -0.324025 -0.100395 65 189 0
0.571878 -0.319667 -0.0999944 67 187 0
0.576949 -0.316666 -0.099138 70 184 0
0.582774 -0.316153 -0.0981875 72 182 0
0.588197 -0.317628 -0.097213 74 180 0
0.592407 -0.321701 -0.0959867 77 177 0
0.595602 -0.326666 -0.0950946 79 175 0
0.596256 -0.33248 -0.0943618 81 173 0
0.595489 -0.338347 -0.0940327 84 170 0
0.592229 -0.343184 -0.0941851 86 168 0
0.588681 -0.347942 -0.0946628 88 166 0
0.583393 -0.3504 -0.0952921 91 163 0
0.577565 -0.350033 -0.0962425 93 161 0
0.572352 -0.347529 -0.0971522 95 159 0
0.568708 -0.342929 -0.0981774 98 156 0
0.568526 -0.337026 -0.0988917 100 154 0
0.570446 -0.33164 -0.0990451 102 152 0
0.575188 -0.328103 -0.0985815 105 149 0
0.580261 -0.326596 -0.097654 107 147 0
0.585807 -0.328352 -0.0965826 109 145 0
0.591007 -0.330986 -0.0952558 112 142 0
0.594927 -0.335257 -0.09414 114 140 0
0.596146 -0.340936 -0.0931565 116 138 0
0.595443 -0.34681 -0.0925912 119 135 0
0.59359 -0.352502 -0.0924371 121 133 0
0.589485 -0.356537 -0.0926504 123 131 0
0.585096 -0.360451 -0.0931965 126 128 0
0.579159 -0.360444 -0.094014 128 126 0
0.573741 -0.359147 -0.0950242 131 123 0
0.569291 -0.355247 -0.095936 133 121 0
0.568713 -0.349602 -0.096713 135 119 0
0.569998 -0.344018 -0.0970344 138 116 0
0.573458 -0.339141 -0.0968146 140 114 0
0.579069 -0.33784 -0.0961671 142 112 0
0.584469 -0.33714 -0.0951191 145 109 0
0.589427 -0.340264 -0.0938534 147 107 0
0.593926 -0.344015 -0.0926596 149 105 0
0.596138 -0.349384 -0.0915838 152 102 0
0.596089 -0.355311 -0.0907684 154 100 0
0.594774 -0.360976 -0.090465 156 98 0
0.591505 -0.365919 -0.0905855 159 95 0
0.586875 -0.369687 -0.09102 161 93 0
0.58137 -0.370654 -0.0917293 163 91 0
0.575724 -0.369848 -0.0928622 166 88 0
0.571065 -0.366359 -0.0942892 168 86 0
0.568619 -0.361185 -0.0951463 170 84 0
0.568606 -0.35521 -0.0955686 173 81 0
0.571665 -0.350271 -0.0954164 175 79 0
0.577252 -0.348549 -0.094719 177 77 0
0.583113 -0.348273 -0.0935726 180 74 0
0.588727 -0.34958 -0.0922918 182 72 0
0.592685 -0.353635 -0.0909883 184 70 0
0.596097 -0.35845 -0.0899591 187 67 0
0.596601 -0.364237 -0.0890702 189 65 0
0.595076 -0.370013 -0.0886439 191 63 0
0.592408 -0.375313 -0.0886186 194 60 0
0.588518 -0.379632 -0.0890299 196 58 0
0.583291 -0.382443 -0.0898289 198 56 0
0.577604 -0.381374 -0.0908844 201 53 0
0.5728 -0.378478 -0.092191 203 51 0
0.568982 -0.374334 -0.0933358 205 49 0
0.568801 -0.368557 -0.0943377 208 46 0
0.57071 -0.363009 -0.0945337 210 44 0
0.574467 -0.358714 -0.0938323 212 42 0
0.580308 -0.358326 -0.092636 215 39 0
0.586073 -0.358752 -0.0911297 217 37 0
0.591421 -0.36095 -0.0899211 219 35 0
0.594263 -0.365963 -0.0886582 222 32 0
0.596711 -0.371288 -0.0877504 224 30 0
0.596842 -0.377196 -0.0873725 226 28 0
0.594563 -0.382321 -0.0874708 229 25 0
0.5907 -0.386833 -0.0881019 231 23 0
0.586499 -0.390773 -0.0889193 233 21 0
0.581453 -0.392119 -0.0901368 236 18 0
0.576261 -0.390995 -0.0916612 238 16 0
0.572409 -0.388069 -0.0925528 240 14 0
0.568382 -0.384363 -0.0935241 243 11 0
0.568445 -0.378566 -0.0940062 245 9 0
0.569816 -0.374205 -0.0939434 247 7 0
0.573662 -0.370093 -0.0932255 250 4 0
0.578387 -0.368635 -0.0918895 252 2 0
0.582854 -0.368196 -0.0900256 255 0 0
