ply
format ascii 1.0
comment Generated by robot_control PLYWriter
element vertex 97
property float x
property float y
property float z
property uchar red
property uchar green
property uchar blue
end_header
0.596736 0.0864463 -0.14626 0 255 0
0.599785 0.0839776 -0.14534 2 252 0
0.602799 0.0803373 -0.144546 5 249 0
0.605394 0.0759913 -0.144795 7 247 0
0.606887 0.0708359 -0.146099 10 244 0
0.606978 0.0649548 -0.147274 13 241 0
0.604607 0.0605554 -0.148449 15 239 0
0.601102 0.0560881 -0.149334 18 236 0
0.596103 0.0535877 -0.150091 21 233 0
0.590262 0.0530095 -0.150864 23 231 0
0.584572 0.0538335 -0.151691 26 228 0
0.580089 0.0577148 -0.152366 29 225 0
0.578133 0.0626653 -0.152716 31 223 0
0.578091 0.0686528 -0.152428 34 220 0
0.580892 0.0734179 -0.151604 37 217 0
0.586426 0.075514 -0.150619 39 215 0
0.591503 0.0767777 -0.149686 42 212 0
0.597154 0.0755411 -0.148904 45 209 0
0.602023 0.0729849 -0.148403 47 207 0
0.605282 0.0679819 -0.147984 50 204 0
0.607011 0.062468 -0.147676 53 201 0
0.607102 0.0564697 -0.147523 55 199 0
0.604483 0.0512209 -0.147572 58 196 0
0.600614 0.0467694 -0.147856 61 193 0
0.595331 0.0439933 -0.148381 63 191 0
0.589632 0.0422172 -0.148791 66 188 0
0.584195 0.043819 -0.149465 69 185 0
0.580464 0.0483907 -0.150146 71 183 0
0.578164 0.0536508 -0.150774 74 180 0
0.57849 0.0595476 -0.151308 77 177 0
0.581715 0.0645123 -0.151511 79 175 0
0.58706 0.0669509 -0.151471 82 172 0
0.592979 0.0671667 -0.151006 85 169 0
0.598567 0.0656926 -0.150358 87 167 0
0.603012 0.0618522 -0.149474 90 164 0
0.606245 0.0569346 -0.148355 92 162 0
0.607122 0.0512573 -0.147318 95 159 0
0.606937 0.0453176 -0.146587 98 156 0
0.604906 0.0397843 -0.146172 100 154 0
0.600019 0.036308 -0.145982 103 151 0
0.595021 0.0335666 -0.145933 106 148 0
0.589042 0.0331726 -0.146145 108 146 0
0.583554 0.0347647 -0.14668 111 143 0
0.580093 0.0395084 -0.147502 114 140 0
0.578199 0.044378 -0.148506 116 138 0
0.578398 0.0502541 -0.149323 119 135 0
0.582321 0.0545883 -0.149711 122 132 0
0.587674 0.0570647 -0.149785 124 130 0
0.593655 0.0569056 -0.149372 127 127 0
0.599321 0.0552397 -0.148687 130 124 0
0.604014 0.0516781 -0.147842 132 122 0
0.607024 0.0467929 -0.146784 135 119 0
0.607014 0.0408454 -0.145984 138 116 0
0.606496 0.03496 -0.145234 140 114 0
0.604251 0.0295042 -0.1447 143 111 0
0.599834 0.0255758 -0.144392 146 108 0
0.594453 0.0235171 -0.144272 148 106 0
0.588504 0.0228978 -0.144502 151 103 0
0.583231 0.025657 -0.144992 154 100 0
0.579148 0.0294999 -0.145864 156 98 0
0.57821 0.0352882 -0.146735 159 95 0
0.578589 0.0411636 -0.147166 162 92 0
0.582902 0.0450499 -0.147365 164 90 0
0.588286 0.0476907 -0.147179 167 87 0
0.594136 0.0472752 -0.146683 170 84 0
0.599715 0.0451287 -0.14618 172 82 0
0.60422 0.0417754 -0.145389 175 79 0
0.606945 0.036516 -0.144499 177 77 0
0.606938 0.0305471 -0.143898 180 74 0
0.606437 0.0246624 -0.143351 183 71 0
0.603827 0.0192888 -0.143044 185 69 0
0.599178 0.0159726 -0.142968 188 66 0
0.593618 0.0137189 -0.143123 191 63 0
0.587728 0.0134412 -0.143675 193 61 0
0.583173 0.0162109 -0.144285 196 58 0
0.579027 0.0204146 -0.144805 199 55 0
0.578193 0.0261313 -0.145146 201 53 0
0.580065 0.0312169 -0.145251 204 50 0
0.584167 0.0355831 -0.145114 207 47 0
0.589717 0.0369861 -0.144612 209 45 0
0.595429 0.036915 -0.144084 212 42 0
0.600942 0.0356391 -0.143455 215 39 0
0.604932 0.0311895 -0.142908 217 37 0
0.60691 0.0257255 -0.142434 220 34 0
0.606897 0.0197323 -0.142141 223 31 0
0.605295 0.0141601 -0.141821 225 29 0
0.603524 0.00864647 -0.141835 228 26 0
0.598954 0.00498881 -0.141993 231 23 0
0.593213 0.00388172 -0.142323 233 21 0
0.587264 0.004102 -0.142826 236 18 0
0.582212 0.00669051 -0.143595 239 15 0
0.578221 0.0105414 -0.144204 241 13 0
0.578252 0.0163554 -0.144939 244 10 0
0.579976 0.0217473 -0.145063 247 7 0
0.583003 0.0256194 -0.144799 249 5 0
0.587254 0.027946 -0.144041 252 2 0
0.592618 0.0277261 -0.143055 255 0 0
