ply
format ascii 1.0
comment Generated by robot_control PLYWriter
element vertex 59
property float x
property float y
property float z
property uchar red
property uchar green
property uchar blue
end_header
0.590462 -0.0365816 -0.0955008 0 255 0
0.594468 -0.0383443 -0.0946028 4 250 0
0.596417 -0.0426071 -0.0937594 8 246 0
0.598521 -0.0472207 -0.0929539 13 241 0
0.596258 -0.0521197 -0.0925523 17 237 0
0.593781 -0.056797 -0.0927364 21 233 0
0.588317 -0.0584246 -0.0932509 26 228 0
0.58251 -0.0579502 -0.0943556 30 224 0
0.578209 -0.054171 -0.0959562 35 219 0
0.573894 -0.0502938 -0.0971494 39 215 0
0.572512 -0.0446225 -0.0979504 43 211 0
0.572289 -0.0386823 -0.0985864 48 206 0
0.575257 -0.0336868 -0.0989359 52 202 0
0.579825 -0.0298268 -0.0989303 57 197 0
0.58499 -0.0269048 -0.0983909 61 193 0
0.590488 -0.0272906 -0.0975705 65 189 0
0.595421 -0.0298217 -0.096693 70 184 0
0.598578 -0.0347838 -0.0959338 74 180 0
0.598529 -0.040735 -0.0953474 79 175 0
0.594757 -0.0452072 -0.0953738 83 171 0
0.589147 -0.0468255 -0.0957455 87 167 0
0.583245 -0.0470245 -0.0966299 92 162 0
0.578049 -0.0449651 -0.0975395 96 158 0
0.574305 -0.0404248 -0.0984681 101 153 0
0.572323 -0.0350275 -0.0994511 105 149 0
0.573084 -0.0293858 -0.100143 109 145 0
0.576255 -0.0244502 -0.100827 114 140 0
0.579828 -0.019787 -0.101177 118 136 0
0.584739 -0.0163966 -0.101131 123 131 0
0.590603 -0.0159635 -0.100582 127 127 0
0.595763 -0.0181176 -0.0999072 131 123 0
0.598623 -0.0228751 -0.0990695 136 118 0
0.598594 -0.0288146 -0.0983552 140 114 0
0.595309 -0.03362 -0.097922 145 109 0
0.590083 -0.036405 -0.0979947 149 105 0
0.584149 -0.0366309 -0.0985671 153 101 0
0.579001 -0.0340088 -0.0993799 158 96 0
0.574587 -0.0301136 -0.100342 162 92 0
0.57245 -0.024928 -0.101503 167 87 0
0.572374 -0.0190915 -0.102802 171 83 0
0.575028 -0.0138616 -0.103662 175 79 0
0.57971 -0.010202 -0.104221 180 74 0
0.584386 -0.00660156 -0.104484 184 70 0
0.58997 -0.00562795 -0.10432 189 65 0
0.595227 -0.00745658 -0.10388 193 61 0
0.598693 -0.0119824 -0.102938 197 57 0
0.598659 -0.0177947 -0.101564 202 52 0
0.596638 -0.0226948 -0.10044 206 48 0
0.591376 -0.0254714 -0.100048 211 43 0
0.585523 -0.0260549 -0.100248 215 39 0
0.580514 -0.0242023 -0.101098 219 35 0
0.576907 -0.0205784 -0.102559 224 30 0
0.574276 -0.0159379 -0.104025 228 26 0
0.572371 -0.0108456 -0.105334 233 21 0
0.574751 -0.00639539 -0.106818 237 17 0
0.576573 -0.00226646 -0.108017 241 13 0
0.580205 0.00116424 -0.108918 246 8 0
0.584029 0.00293581 -0.109598 250 4 0
0.586715 0.0056522 -0.110167 255 0 0
