ply
format ascii 1.0
comment Generated by robot_control PLYWriter
element vertex 13
property float x
property float y
property float z
property uchar red
property uchar green
property uchar blue
end_header
0.604666 -0.0504454 -0.0333671 0 255 0
0.604636 -0.0452434 -0.0335426 21 233 0
0.604199 -0.04011 -0.0342823 42 212 0
0.603911 -0.0350083 -0.0352785 63 191 0
0.603642 -0.029974 -0.036577 85 169 0
0.603386 -0.0250212 -0.0381598 106 148 0
0.603144 -0.0201383 -0.0399529 127 127 0
0.60279 -0.0152997 -0.041843 148 106 0
0.602431 -0.0104081 -0.0435806 170 84 0
0.602169 -0.0053751 -0.0448563 191 63 0
0.601896 -0.000234559 -0.0456126 212 42 0
0.601583 0.00493039 -0.0461949 233 21 0
0.60091 0.0100807 -0.0460074 255 0 0
