ply
format ascii 1.0
comment Generated by robot_control PLYWriter
element vertex 32
property float x
property float y
property float z
property uchar red
property uchar green
property uchar blue
end_header
0.555291 0.0956582 -0.160069 0 255 0
0.558581 0.0921953 -0.158529 8 246 0
0.562852 0.0887502 -0.157238 16 238 0
0.564636 0.0832565 -0.156404 24 230 0
0.565203 0.0777847 -0.155981 32 222 0
0.563494 0.0724263 -0.155875 41 213 0
0.559127 0.0683959 -0.156362 49 205 0
0.554188 0.0650616 -0.15681 57 197 0
0.548913 0.0668707 -0.157973 65 189 0
0.543929 0.0700549 -0.158726 74 180 0
0.542261 0.0753792 -0.15926 82 172 0
0.541606 0.0807896 -0.159449 90 164 0
0.544951 0.0857355 -0.159321 98 156 0
0.548802 0.0901442 -0.158953 106 148 0
0.554047 0.0922699 -0.158389 115 139 0
0.559877 0.0929155 -0.157718 123 131 0
0.565031 0.0915452 -0.15695 131 123 0
0.570309 0.0888866 -0.156264 139 115 0
0.573855 0.0842944 -0.15572 148 106 0
0.574744 0.0785734 -0.155142 156 98 0
0.574512 0.0726545 -0.154675 164 90 0
0.571978 0.0672505 -0.154438 172 82 0
0.568212 0.0628018 -0.15474 180 74 0
0.562754 0.0620504 -0.155323 189 65 0
0.557018 0.0629083 -0.15592 197 57 0
0.5532 0.0670622 -0.156426 205 49 0
0.551814 0.0726373 -0.156914 213 41 0
0.551953 0.0778418 -0.157227 222 32 0
0.553995 0.0832339 -0.157383 230 24 0
0.559054 0.0857661 -0.157142 238 16 0
0.563446 0.089197 -0.15642 246 8 0
0.568662 0.0896201 -0.155187 255 0 0
