ply
format ascii 1.0
comment Generated by robot_control PLYWriter
element vertex 13
property float x
property float y
property float z
property uchar red
property uchar green
property uchar blue
end_header
0.621971 -0.296448 -0.0205095 0 255 0
0.621667 -0.291289 -0.0199853 21 233 0
0.621403 -0.286149 -0.0192837 42 212 0
0.62098 -0.281012 -0.0186318 63 191 0
0.620567 -0.275875 -0.0179773 85 169 0
0.620147 -0.270737 -0.0173377 106 148 0
0.619719 -0.265595 -0.0167359 127 127 0
0.619533 -0.260433 -0.0161803 148 106 0
0.619048 -0.255283 -0.0157 170 84 0
0.618565 -0.250123 -0.0153473 191 63 0
0.6181 -0.244954 -0.0151233 212 42 0
0.61773 -0.23978 -0.0148834 233 21 0
0.617374 -0.234598 -0.0149502 255 0 0
