ply
format ascii 1.0
comment Generated by robot_control PLYWriter
element vertex 8
property float x
property float y
property float z
property uchar red
property uchar green
property uchar blue
end_header
0.592599 -0.235129 -0.0412802 0 255 0
0.592596 -0.230426 -0.0401 36 218 0
0.592582 -0.225835 -0.0385015 72 182 0
0.592362 -0.221329 -0.0367104 109 145 0
0.591986 -0.216848 -0.0348668 145 109 0
0.591614 -0.21225 -0.033449 182 72 0
0.591262 -0.207424 -0.0330664 218 36 0
0.590495 -0.202727 -0.0328272 255 0 0
