ply
format ascii 1.0
comment Generated by robot_control PLYWriter
element vertex 11
property float x
property float y
property float z
property uchar red
property uchar green
property uchar blue
end_header
0.568287 -0.0698154 -0.0354016 0 255 0
0.56832 -0.0651296 -0.0341595 25 229 0
0.568101 -0.0603997 -0.0331234 51 204 0
0.567891 -0.0556555 -0.0321445 76 178 0
0.567678 -0.0508836 -0.031319 102 153 0
0.567444 -0.0460718 -0.0308326 127 127 0
0.567193 -0.0412352 -0.030778 153 101 0
0.566994 -0.0363993 -0.0310428 178 76 0
0.566978 -0.0315645 -0.0314083 204 50 0
0.566967 -0.0267264 -0.0317247 229 25 0
0.566953 -0.0218908 -0.0320476 255 0 0
