ply
format ascii 1.0
comment Generated by robot_control PLYWriter
element vertex 27
property float x
property float y
property float z
property uchar red
property uchar green
property uchar blue
end_header
0.585195 -0.186838 -0.106338 0 255 0
0.59074 -0.18733 -0.106473 9 245 0
0.594959 -0.190317 -0.106063 19 235 0
0.598641 -0.194181 -0.104931 29 225 0
0.5987 -0.200105 -0.103738 39 215 0
0.598825 -0.20588 -0.101922 49 205 0
0.594179 -0.208908 -0.100579 58 196 0
0.588498 -0.210472 -0.100402 68 186 0
0.584609 -0.206223 -0.101177 78 176 0
0.582786 -0.200925 -0.102239 88 166 0
0.582738 -0.194945 -0.103417 98 156 0
0.585674 -0.190655 -0.104697 107 147 0
0.591179 -0.188285 -0.105749 117 137 0
0.596975 -0.186935 -0.106416 127 127 0
0.60289 -0.188044 -0.106656 137 117 0
0.607857 -0.191333 -0.106436 147 107 0
0.611335 -0.196275 -0.105958 156 98 0
0.611079 -0.201981 -0.105188 166 88 0
0.609917 -0.207634 -0.104066 176 78 0
0.605016 -0.210274 -0.103037 186 68 0
0.599263 -0.208949 -0.102504 196 58 0
0.595126 -0.204719 -0.102726 205 49 0
0.593028 -0.199594 -0.103811 215 39 0
0.595124 -0.194241 -0.105306 225 29 0
0.598631 -0.189477 -0.106712 235 19 0
0.603556 -0.187023 -0.108037 245 9 0
0.609206 -0.187114 -0.108967 255 0 0
