ply
format ascii 1.0
comment Generated by robot_control PLYWriter
element vertex 14
property float x
property float y
property float z
property uchar red
property uchar green
property uchar blue
end_header
0.590443 -0.192576 -0.0389131 0 255 0
0.590445 -0.187696 -0.0398401 19 235 0
0.590473 -0.182722 -0.0400785 39 215 0
0.590478 -0.177831 -0.0409564 58 196 0
0.590479 -0.172917 -0.0417566 78 176 0
0.590481 -0.167957 -0.0421549 98 156 0
0.590481 -0.162979 -0.0421725 117 137 0
0.590477 -0.158004 -0.0419269 137 117 0
0.590475 -0.153044 -0.0414832 156 98 0
0.590477 -0.148097 -0.0408995 176 78 0
0.59047 -0.143147 -0.0403346 196 58 0
0.590448 -0.138187 -0.0398936 215 39 0
0.590453 -0.133224 -0.039504 235 19 0
0.590445 -0.12836 -0.0384548 255 0 0
