ply
format ascii 1.0
comment Generated by robot_control PLYWriter
element vertex 11
property float x
property float y
property float z
property uchar red
property uchar green
property uchar blue
end_header
0.646334 -0.180065 -0.12054 0 255 0
0.64565 -0.184764 -0.121437 25 229 0
0.644837 -0.189427 -0.122414 51 204 0
0.644044 -0.194095 -0.123384 76 178 0
0.643363 -0.198802 -0.124233 102 153 0
0.642686 -0.203537 -0.124917 127 127 0
0.641942 -0.208287 -0.125391 153 101 0
0.641128 -0.213043 -0.125667 178 76 0
0.640259 -0.217793 -0.125855 204 50 0
0.63939 -0.222542 -0.126066 229 25 0
0.638415 -0.227269 -0.126179 255 0 0
