ply
format ascii 1.0
comment Generated by robot_control PLYWriter
element vertex 112
property float x
property float y
property float z
property uchar red
property uchar green
property uchar blue
end_header
0.608522 0.0987584 -0.137736 0 255 0
0.612611 0.0964955 -0.136427 2 252 0
0.615051 0.0927038 -0.134547 4 250 0
0.616675 0.0879108 -0.13275 6 248 0
0.616587 0.0820732 -0.1315 9 245 0
0.615266 0.0768147 -0.130116 11 243 0
0.612324 0.0722986 -0.12914 13 241 0
0.607413 0.0691629 -0.128742 16 238 0
0.602041 0.0675294 -0.128906 18 236 0
0.596114 0.0679017 -0.129506 20 234 0
0.591084 0.0705181 -0.130531 22 232 0
0.588327 0.0752955 -0.132081 25 229 0
0.588371 0.081071 -0.133553 27 227 0
0.590588 0.0862481 -0.134531 29 225 0
0.595294 0.0879536 -0.134833 32 222 0
0.600356 0.0899138 -0.134536 34 220 0
0.60625 0.0896266 -0.133693 36 218 0
0.611373 0.0868801 -0.132575 39 215 0
0.61464 0.08237 -0.131349 41 213 0
0.616533 0.076931 -0.130045 43 211 0
0.616297 0.0712064 -0.128446 45 209 0
0.613975 0.0657714 -0.127511 48 206 0
0.6097 0.0620752 -0.12686 50 204 0
0.605466 0.0579509 -0.126698 52 202 0
0.599745 0.0571162 -0.126845 55 199 0
0.594387 0.0594381 -0.127436 57 197 0
0.589366 0.0624425 -0.128347 59 195 0
0.587663 0.0677193 -0.12958 62 192 0
0.588121 0.0731852 -0.130437 64 190 0
0.591342 0.0776744 -0.13094 66 188 0
0.596862 0.0797182 -0.131074 68 186 0
0.602238 0.0822614 -0.130792 71 183 0
0.607372 0.0794668 -0.130125 73 181 0
0.612095 0.0761022 -0.129034 75 179 0
0.616058 0.0717956 -0.127782 78 176 0
0.616348 0.0660275 -0.126773 80 174 0
0.615871 0.0602875 -0.125497 82 172 0
0.612578 0.0554775 -0.124658 85 169 0
0.608456 0.0511666 -0.12419 87 167 0
0.603719 0.0477043 -0.123971 89 165 0
0.597842 0.0479655 -0.124217 91 163 0
0.592437 0.0503671 -0.124812 94 160 0
0.588743 0.054896 -0.125679 96 158 0
0.587032 0.0602794 -0.126593 98 156 0
0.589321 0.0657488 -0.127378 101 153 0
0.593547 0.0693939 -0.127797 103 151 0
0.59908 0.0715297 -0.127742 105 149 0
0.605008 0.0713867 -0.127142 107 147 0
0.609694 0.0681577 -0.126234 110 144 0
0.614152 0.0642964 -0.125229 112 142 0
0.616279 0.0589976 -0.123998 114 140 0
0.616181 0.0531006 -0.122983 117 137 0
0.615171 0.0475045 -0.122156 119 135 0
0.611369 0.0429663 -0.121464 121 133 0
0.606505 0.0396714 -0.12106 124 130 0
0.600674 0.0392578 -0.121088 126 128 0
0.594726 0.0392862 -0.121508 128 126 0
0.589889 0.0424468 -0.122309 130 124 0
0.587365 0.0477315 -0.123169 133 121 0
0.586692 0.0535725 -0.123971 135 119 0
0.589924 0.0580089 -0.124593 137 117 0
0.595268 0.0605474 -0.124801 140 114 0
0.600929 0.0615823 -0.124556 142 112 0
0.606767 0.0604097 -0.12397 144 110 0
0.611847 0.0578805 -0.122931 147 107 0
0.615285 0.0531898 -0.121786 149 105 0
0.616108 0.0475209 -0.120523 151 103 0
0.616398 0.0416415 -0.119458 153 101 0
0.613879 0.0366834 -0.118521 156 98 0
0.609592 0.0326044 -0.117767 158 96 0
0.604405 0.0297154 -0.117343 160 94 0
0.598772 0.0288595 -0.117423 163 91 0
0.59293 0.0295729 -0.11791 165 89 0
0.588802 0.033262 -0.118595 167 87 0
0.586724 0.038656 -0.119682 170 84 0
0.588177 0.044213 -0.12085 172 82 0
0.591502 0.0491319 -0.121547 174 80 0
0.595933 0.0528023 -0.121827 176 78 0
0.601701 0.0534918 -0.121643 179 75 0
0.607058 0.0511581 -0.12099 181 73 0
0.61181 0.0480357 -0.120133 183 71 0
0.615344 0.0435233 -0.118892 186 68 0
0.616792 0.0383191 -0.117704 188 66 0
0.616192 0.0327182 -0.116142 190 64 0
0.613401 0.0276179 -0.114978 192 62 0
0.609519 0.0236244 -0.114135 195 59 0
0.604519 0.0205416 -0.113611 197 57 0
0.598721 0.0198635 -0.113674 199 55 0
0.592908 0.0202338 -0.114081 202 52 0
0.588803 0.0243938 -0.115175 204 50 0
0.586753 0.0297954 -0.116212 206 48 0
0.587404 0.0353847 -0.11791 209 45 0
0.591227 0.0394832 -0.119 211 43 0
0.596234 0.0426212 -0.119491 213 41 0
0.602086 0.0436721 -0.119295 215 39 0
0.607468 0.0415839 -0.118391 218 36 0
0.612017 0.0378232 -0.117409 220 34 0
0.615311 0.0331975 -0.115822 222 32 0
0.616663 0.027741 -0.114102 225 29 0
0.616173 0.022111 -0.112528 227 27 0
0.613018 0.0171663 -0.111381 229 25 0
0.609256 0.0135404 -0.110018 232 22 0
0.604549 0.0115586 -0.109491 234 20 0
0.599528 0.00892238 -0.109473 236 18 0
0.594467 0.0111957 -0.109979 238 16 0
0.589824 0.0143466 -0.110817 241 13 0
0.586699 0.018252 -0.112474 243 11 0
0.586752 0.0234775 -0.114138 245 9 0
0.588381 0.028292 -0.115434 248 6 0
0.590656 0.0321913 -0.116599 250 4 0
0.594857 0.0339033 -0.117356 252 2 0
0.600566 0.0335097 -0.117244 255 0 0
