ply
format ascii 1.0
comment Generated by robot_control PLYWriter
element vertex 20
property float x
property float y
property float z
property uchar red
property uchar green
property uchar blue
end_header
0.523263 -0.45121 -0.116883 0 255 0
0.523698 -0.446672 -0.118889 13 241 0
0.524337 -0.442025 -0.120572 26 228 0
0.524808 -0.437255 -0.121933 40 214 0
0.525211 -0.432519 -0.123433 53 201 0
0.525776 -0.427708 -0.124612 67 187 0
0.526362 -0.422829 -0.12546 80 174 0
0.526925 -0.417898 -0.125931 93 161 0
0.527341 -0.412932 -0.126091 107 147 0
0.527909 -0.407982 -0.125942 120 134 0
0.528502 -0.403046 -0.125558 134 120 0
0.528922 -0.398106 -0.125036 147 107 0
0.529424 -0.393206 -0.124272 161 93 0
0.529937 -0.388322 -0.123413 174 80 0
0.530447 -0.383448 -0.122491 187 67 0
0.531075 -0.378596 -0.121534 201 53 0
0.531637 -0.37372 -0.120666 214 40 0
0.532111 -0.368837 -0.119776 228 26 0
0.532755 -0.364007 -0.118732 241 13 0
0.53331 -0.35912 -0.11792 255 0 0
