ply
format ascii 1.0
comment Generated by robot_control PLYWriter
element vertex 48
property float x
property float y
property float z
property uchar red
property uchar green
property uchar blue
end_header
0.624225 -0.0458713 -0.103978 0 255 0
0.628158 -0.0495072 -0.103329 5 249 0
0.630375 -0.0541158 -0.10321 10 244 0
0.628145 -0.0578725 -0.10331 16 238 0
0.624978 -0.0615189 -0.103697 21 233 0
0.619499 -0.0619993 -0.104201 27 227 0
0.614133 -0.0599924 -0.10458 32 222 0
0.610253 -0.0555801 -0.104915 37 217 0
0.60919 -0.0499005 -0.105105 43 211 0
0.609136 -0.0439109 -0.105137 48 206 0
0.612916 -0.0397009 -0.105035 54 200 0
0.617616 -0.0360628 -0.104757 59 195 0
0.62286 -0.0364711 -0.104376 65 189 0
0.628347 -0.0382747 -0.104034 70 184 0
0.630412 -0.0437818 -0.103868 75 179 0
0.628341 -0.0491394 -0.103872 81 173 0
0.623192 -0.0521577 -0.104056 86 168 0
0.617424 -0.0519022 -0.10429 92 162 0
0.612571 -0.0485954 -0.104592 97 157 0
0.609537 -0.0434675 -0.104933 103 151 0
0.609163 -0.0375521 -0.105125 108 146 0
0.610297 -0.0320142 -0.105211 113 141 0
0.614895 -0.0282126 -0.10517 119 135 0
0.619747 -0.0247013 -0.104939 124 130 0
0.625055 -0.0267155 -0.104793 130 124 0
0.629244 -0.0309985 -0.104564 135 119 0
0.630543 -0.0364481 -0.104482 141 113 0
0.626368 -0.0405832 -0.10448 146 108 0
0.620927 -0.0426992 -0.104635 151 103 0
0.615744 -0.0403124 -0.105011 157 97 0
0.611214 -0.0368177 -0.105306 162 92 0
0.609167 -0.0313814 -0.105535 168 86 0
0.609204 -0.025387 -0.105583 173 81 0
0.611823 -0.0200672 -0.105469 179 75 0
0.616288 -0.0167227 -0.10525 184 70 0
0.622249 -0.016311 -0.105026 189 65 0
0.62789 -0.0174597 -0.104597 195 59 0
0.630585 -0.0224204 -0.104351 200 54 0
0.629182 -0.0276639 -0.104357 206 48 0
0.626265 -0.0323059 -0.104623 211 43 0
0.62041 -0.0323118 -0.104979 217 37 0
0.615212 -0.0304357 -0.105384 222 32 0
0.611851 -0.0261033 -0.105945 227 27 0
0.609718 -0.0208905 -0.106442 233 21 0
0.610175 -0.0153614 -0.106921 238 16 0
0.612418 -0.0102748 -0.107094 244 10 0
0.614718 -0.00689335 -0.106849 249 5 0
0.620181 -0.00627652 -0.106074 255 0 0
