ply
format ascii 1.0
comment Generated by robot_control PLYWriter
element vertex 32
property float x
property float y
property float z
property uchar red
property uchar green
property uchar blue
end_header
0.646644 0.164406 -0.162255 0 255 0
0.649358 0.160958 -0.159739 8 246 0
0.65302 0.157867 -0.157216 16 238 0
0.654686 0.153065 -0.155119 24 230 0
0.652454 0.148042 -0.153214 32 222 0
0.650075 0.142577 -0.152286 41 213 0
0.64601 0.13812 -0.152335 49 205 0
0.640768 0.135181 -0.1532 57 197 0
0.635257 0.133677 -0.154293 65 189 0
0.629563 0.133138 -0.156135 74 180 0
0.624596 0.136254 -0.157657 82 172 0
0.620624 0.140226 -0.159809 90 164 0
0.620454 0.145494 -0.16188 98 156 0
0.621659 0.151044 -0.16295 106 148 0
0.625877 0.155385 -0.1631 115 139 0
0.631379 0.15644 -0.162079 123 131 0
0.636684 0.156354 -0.160685 131 123 0
0.641164 0.152793 -0.158698 139 115 0
0.642553 0.147406 -0.15679 148 106 0
0.64266 0.141668 -0.155368 156 98 0
0.639676 0.136568 -0.154237 164 90 0
0.635995 0.131771 -0.153762 172 82 0
0.631429 0.127773 -0.153951 180 74 0
0.62558 0.127513 -0.154637 189 65 0
0.619989 0.126871 -0.156187 197 57 0
0.614422 0.12813 -0.158207 205 49 0
0.611972 0.132938 -0.160627 213 41 0
0.609305 0.137513 -0.163224 222 32 0
0.609551 0.14316 -0.165286 230 24 0
0.61376 0.146982 -0.166688 238 16 0
0.618136 0.149871 -0.166964 246 8 0
0.623205 0.151424 -0.166048 255 0 0
