ply
format ascii 1.0
comment Generated by robot_control PLYWriter
element vertex 200
property float x
property float y
property float z
property uchar red
property uchar green
property uchar blue
end_header
0.57376 -0.386766 -0.0995113 0 255 0
0.57376 -0.386766 -0.0995113 1 253 0
0.57376 -0.386766 -0.0995113 2 252 0
0.57376 -0.386766 -0.0995113 3 251 0
0.57376 -0.386766 -0.0995113 5 249 0
0.57376 -0.386766 -0.0995113 6 248 0
0.57376 -0.386766 -0.0995113 7 247 0
0.57376 -0.386766 -0.0995113 8 246 0
0.57376 -0.386766 -0.0995113 10 244 0
0.57376 -0.386766 -0.0995113 11 243 0
0.57376 -0.386766 -0.0995113 12 242 0
0.57376 -0.386766 -0.0995113 14 240 0
0.57376 -0.386766 -0.0995113 15 239 0
0.57376 -0.386766 -0.0995113 16 238 0
0.57376 -0.386766 -0.0995113 17 237 0
0.57376 -0.386766 -0.0995113 19 235 0
0.57376 -0.386766 -0.0995113 20 234 0
0.57376 -0.386766 -0.0995113 21 233 0
0.57376 -0.386766 -0.0995113 23 231 0
0.57376 -0.386766 -0.0995113 24 230 0
0.57376 -0.386766 -0.0995113 25 229 0
0.57376 -0.386766 -0.0995113 26 228 0
0.57376 -0.386766 -0.0995113 28 226 0
0.57376 -0.386766 -0.0995113 29 225 0
0.57376 -0.386766 -0.0995113 30 224 0
0.57376 -0.386766 -0.0995113 32 222 0
0.57376 -0.386766 -0.0995113 33 221 0
0.57376 -0.386766 -0.0995113 34 220 0
0.57376 -0.386766 -0.0995113 35 219 0
0.57376 -0.386766 -0.0995113 37 217 0
0.57376 -0.386766 -0.0995113 38 216 0
0.57376 -0.386766 -0.0995113 39 215 0
0.57376 -0.386766 -0.0995113 41 213 0
0.57376 -0.386766 -0.0995113 42 212 0
0.57376 -0.386766 -0.0995113 43 211 0
0.57376 -0.386766 -0.0995113 44 210 0
0.57376 -0.386766 -0.0995113 46 208 0
0.57376 -0.386766 -0.0995113 47 207 0
0.57376 -0.386766 -0.0995113 48 206 0
0.57376 -0.386766 -0.0995113 49 205 0
0.57376 -0.386766 -0.0995113 51 203 0
0.57376 -0.386766 -0.0995113 52 202 0
0.57376 -0.386766 -0.0995113 53 201 0
0.57376 -0.386766 -0.0995113 55 199 0
0.57376 -0.386766 -0.0995113 56 198 0
0.57376 -0.386766 -0.0995113 57 197 0
0.57376 -0.386766 -0.0995113 58 196 0
0.57376 -0.386766 -0.0995113 60 194 0
0.57376 -0.386766 -0.0995113 61 193 0
0.57376 -0.386766 -0.0995113 62 192 0
0.57376 -0.386766 -0.0995113 64 190 0
0.57376 -0.386766 -0.0995113 65 189 0
0.57376 -0.386766 -0.0995113 66 188 0
0.57376 -0.386766 -0.0995113 67 187 0
0.57376 -0.386766 -0.0995113 69 185 0
0.57376 -0.386766 -0.0995113 70 184 0
0.57376 -0.386766 -0.0995113 71 183 0
0.57376 -0.386766 -0.0995113 73 181 0
0.57376 -0.386766 -0.0995113 74 180 0
0.57376 -0.386766 -0.0995113 75 179 0
0.57376 -0.386766 -0.0995113 76 178 0
0.57376 -0.386766 -0.0995113 78 176 0
0.57376 -0.386766 -0.0995113 79 175 0
0.57376 -0.386766 -0.0995113 80 174 0
0.57376 -0.386766 -0.0995113 82 172 0
0.57376 -0.386766 -0.0995113 83 171 0
0.57376 -0.386766 -0.0995113 84 170 0
0.57376 -0.386766 -0.0995113 85 169 0
0.57376 -0.386766 -0.0995113 87 167 0
0.57376 -0.386766 -0.0995113 88 166 0
0.57376 -0.386766 -0.0995113 89 165 0
0.57376 -0.386766 -0.0995113 90 164 0
0.57376 -0.386766 -0.0995113 92 162 0
0.57376 -0.386766 -0.0995113 93 161 0
0.57376 -0.386766 -0.0995113 94 160 0
0.57376 -0.386766 -0.0995113 96 158 0
0.57376 -0.386766 -0.0995113 97 157 0
0.57376 -0.386766 -0.0995113 98 156 0
0.57376 -0.386766 -0.0995113 99 155 0
0.57376 -0.386766 -0.0995113 101 153 0
0.57376 -0.386766 -0.0995113 102 152 0
0.57376 -0.386766 -0.0995113 103 151 0
0.57376 -0.386766 -0.0995113 105 149 0
0.57376 -0.386766 -0.0995113 106 148 0
0.57376 -0.386766 -0.0995113 107 147 0
0.57376 -0.386766 -0.0995113 108 146 0
0.57376 -0.386766 -0.0995113 110 144 0
0.57376 -0.386766 -0.0995113 111 143 0
0.57376 -0.386766 -0.0995113 112 142 0
0.57376 -0.386766 -0.0995113 114 140 0
0.57376 -0.386766 -0.0995113 115 139 0
0.57376 -0.386766 -0.0995113 116 138 0
0.57376 -0.386766 -0.0995113 117 137 0
0.57376 -0.386766 -0.0995113 119 135 0
0.57376 -0.386766 -0.0995113 120 134 0
0.57376 -0.386766 -0.0995113 121 133 0
0.57376 -0.386766 -0.0995113 123 131 0
0.57376 -0.386766 -0.0995113 124 130 0
0.57376 -0.386766 -0.0995113 125 129 0
0.57376 -0.386766 -0.0995113 126 128 0
0.57376 -0.386766 -0.0995113 128 126 0
0.57376 -0.386766 -0.0995113 129 125 0
0.57376 -0.386766 -0.0995113 130 124 0
0.57376 -0.386766 -0.0995113 131 123 0
0.57376 -0.386766 -0.0995113 133 121 0
0.57376 -0.386766 -0.0995113 134 120 0
0.57376 -0.386766 -0.0995113 135 119 0
0.57376 -0.386766 -0.0995113 137 117 0
0.57376 -0.386766 -0.0995113 138 116 0
0.57376 -0.386766 -0.0995113 139 115 0
0.57376 -0.386766 -0.0995113 140 114 0
0.57376 -0.386766 -0.0995113 142 112 0
0.57376 -0.386766 -0.0995113 143 111 0
0.57376 -0.386766 -0.0995113 144 110 0
0.57376 -0.386766 -0.0995113 146 108 0
0.57376 -0.386766 -0.0995113 147 107 0
0.57376 -0.386766 -0.0995113 148 106 0
0.57376 -0.386766 -0.0995113 149 105 0
0.57376 -0.386766 -0.0995113 151 103 0
0.57376 -0.386766 -0.0995113 152 102 0
0.57376 -0.386766 -0.0995113 153 101 0
0.57376 -0.386766 -0.0995113 155 99 0
0.57376 -0.386766 -0.0995113 156 98 0
0.57376 -0.386766 -0.0995113 157 97 0
0.57376 -0.386766 -0.0995113 158 96 0
0.57376 -0.386766 -0.0995113 160 94 0
0.57376 -0.386766 -0.0995113 161 93 0
0.57376 -0.386766 -0.0995113 162 92 0
0.57376 -0.386766 -0.0995113 164 90 0
0.57376 -0.386766 -0.0995113 165 89 0
0.57376 -0.386766 -0.0995113 166 88 0
0.57376 -0.386766 -0.0995113 167 87 0
0.57376 -0.386766 -0.0995113 169 85 0
0.57376 -0.386766 -0.0995113 170 84 0
0.57376 -0.386766 -0.0995113 171 83 0
0.57376 -0.386766 -0.0995113 172 82 0
0.57376 -0.386766 -0.0995113 174 80 0
0.57376 -0.386766 -0.0995113 175 79 0
0.57376 -0.386766 -0.0995113 176 78 0
0.57376 -0.386766 -0.0995113 178 76 0
0.57376 -0.386766 -0.0995113 179 75 0
0.57376 -0.386766 -0.0995113 180 74 0
0.57376 -0.386766 -0.0995113 181 73 0
0.57376 -0.386766 -0.0995113 183 71 0
0.57376 -0.386766 -0.0995113 184 70 0
0.57376 -0.386766 -0.0995113 185 69 0
0.57376 -0.386766 -0.0995113 187 67 0
0.57376 -0.386766 -0.0995113 188 66 0
0.57376 -0.386766 -0.0995113 189 65 0
0.57376 -0.386766 -0.0995113 190 64 0
0.57376 -0.386766 -0.0995113 192 62 0
0.57376 -0.386766 -0.0995113 193 61 0
0.57376 -0.386766 -0.0995113 194 60 0
0.57376 -0.386766 -0.0995113 196 58 0
0.57376 -0.386766 -0.0995113 197 57 0
0.57376 -0.386766 -0.0995113 198 56 0
0.57376 -0.386766 -0.0995113 199 55 0
0.57376 -0.386766 -0.0995113 201 53 0
0.57376 -0.386766 -0.0995113 202 52 0
0.57376 -0.386766 -0.0995113 203 51 0
0.57376 -0.386766 -0.0995113 205 49 0
0.57376 -0.386766 -0.0995113 206 48 0
0.57376 -0.386766 -0.0995113 207 47 0
0.57376 -0.386766 -0.0995113 208 46 0
0.57376 -0.386766 -0.0995113 210 44 0
0.57376 -0.386766 -0.0995113 211 43 0
0.57376 -0.386766 -0.0995113 212 42 0
0.57376 -0.386766 -0.0995113 213 41 0
0.57376 -0.386766 -0.0995113 215 39 0
0.57376 -0.386766 -0.0995113 216 38 0
0.57376 -0.386766 -0.0995113 217 37 0
0.57376 -0.386766 -0.0995113 219 35 0
0.57376 -0.386766 -0.0995113 220 34 0
0.57376 -0.386766 -0.0995113 221 33 0
0.57376 -0.386766 -0.0995113 222 32 0
0.57376 -0.386766 -0.0995113 224 30 0
0.57376 -0.386766 -0.0995113 225 29 0
0.57376 -0.386766 -0.0995113 226 28 0
0.57376 -0.386766 -0.0995113 228 26 0
0.57376 -0.386766 -0.0995113 229 25 0
0.57376 -0.386766 -0.0995113 230 24 0
0.57376 -0.386766 -0.0995113 231 23 0
0.57376 -0.386766 -0.0995113 233 21 0
0.57376 -0.386766 -0.0995113 234 20 0
0.57376 -0.386766 -0.0995113 235 19 0
0.57376 -0.386766 -0.0995113 237 17 0
0.57376 -0.386766 -0.0995113 238 16 0
0.57376 -0.386766 -0.0995113 239 15 0
0.57376 -0.386766 -0.0995113 240 14 0
0.57376 -0.386766 -0.0995113 242 12 0
0.57376 -0.386766 -0.0995113 243 11 0
0.57376 -0.386766 -0.0995113 244 10 0
0.57376 -0.386766 -0.0995113 246 8 0
0.57376 -0.386766 -0.0995113 247 7 0
0.57376 -0.386766 -0.0995113 248 6 0
0.57376 -0.386766 -0.0995113 249 5 0
0.57376 -0.386766 -0.0995113 251 3 0
0.57376 -0.386766 -0.0995113 252 2 0
0.57376 -0.386766 -0.0995113 253 1 0
0.57376 -0.386766 -0.0995113 255 0 0
