ply
format ascii 1.0
comment Generated by robot_control PLYWriter
element vertex 62
property float x
property float y
property float z
property uchar red
property uchar green
property uchar blue
end_header
0.619661 -0.058449 -0.12576 0 255 0
0.623048 -0.0605713 -0.126823 4 250 0
0.626231 -0.0638203 -0.127349 8 246 0
0.628665 -0.0682934 -0.127361 12 242 0
0.628876 -0.0741637 -0.126937 16 238 0
0.626189 -0.0776583 -0.126326 20 234 0
0.623065 -0.0821254 -0.125088 25 229 0
0.618311 -0.084887 -0.124032 29 225 0
0.613293 -0.0831934 -0.122855 33 221 0
0.608699 -0.0800932 -0.121983 37 217 0
0.606423 -0.0749295 -0.121567 41 213 0
0.608793 -0.0705925 -0.121904 45 209 0
0.613251 -0.0669596 -0.122858 50 204 0
0.619089 -0.0671628 -0.123952 54 200 0
0.623752 -0.0706616 -0.125121 58 196 0
0.626675 -0.0750859 -0.125908 62 192 0
0.628868 -0.0803873 -0.126278 66 188 0
0.627791 -0.0860802 -0.126174 71 183 0
0.623733 -0.0904741 -0.125707 75 179 0
0.618855 -0.0930705 -0.125072 79 175 0
0.612976 -0.0930955 -0.123887 83 171 0
0.608843 -0.0888145 -0.123204 87 167 0
0.608169 -0.0833169 -0.122923 91 163 0
0.610789 -0.0785305 -0.123206 96 158 0
0.61617 -0.0767217 -0.123937 100 154 0
0.622151 -0.0766139 -0.124707 104 150 0
0.62538 -0.0810823 -0.125425 108 146 0
0.628905 -0.0850774 -0.126036 112 142 0
0.628646 -0.0910791 -0.1264 117 137 0
0.627364 -0.0966569 -0.126311 121 133 0
0.623563 -0.101255 -0.125874 125 129 0
0.618145 -0.103021 -0.12511 129 125 0
0.61262 -0.101541 -0.124444 133 121 0
0.609614 -0.0966282 -0.123804 137 117 0
0.608761 -0.0911973 -0.123679 142 112 0
0.612634 -0.0867782 -0.124098 146 108 0
0.618156 -0.0848899 -0.124972 150 104 0
0.623753 -0.0869059 -0.125678 154 100 0
0.628612 -0.090243 -0.126337 158 96 0
0.629605 -0.0960533 -0.126553 163 91 0
0.6293 -0.101579 -0.126577 167 87 0
0.627789 -0.106899 -0.126179 171 83 0
0.623282 -0.110818 -0.125509 175 79 0
0.617571 -0.110393 -0.12463 179 75 0
0.612256 -0.109061 -0.12372 183 71 0
0.609474 -0.104143 -0.12333 188 66 0
0.610159 -0.0986566 -0.123565 192 62 0
0.614579 -0.0947618 -0.1245 196 58 0
0.620452 -0.0947046 -0.125821 200 54 0
0.626081 -0.0962546 -0.126512 204 50 0
0.628907 -0.101183 -0.126932 209 45 0
0.631247 -0.106522 -0.126885 213 41 0
0.631067 -0.112495 -0.126403 217 37 0
0.627594 -0.117166 -0.125284 221 33 0
0.622723 -0.119942 -0.124265 225 29 0
0.617483 -0.12111 -0.123173 229 25 0
0.612897 -0.118435 -0.122546 234 20 0
0.609273 -0.113731 -0.122288 238 16 0
0.61142 -0.109864 -0.1225 242 12 0
0.613157 -0.105068 -0.123506 246 8 0
0.617916 -0.103483 -0.124601 250 4 0
0.621357 -0.104572 -0.125662 255 0 0
