ply
format ascii 1.0
comment Generated by robot_control PLYWriter
element vertex 81
property float x
property float y
property float z
property uchar red
property uchar green
property uchar blue
end_header
0.601005 -0.03399 -0.135442 0 255 0
0.605228 -0.0358222 -0.135285 3 251 0
0.608393 -0.0405744 -0.135129 6 248 0
0.610062 -0.0458902 -0.134875 9 245 0
0.608393 -0.0512855 -0.134548 12 242 0
0.605079 -0.055958 -0.134314 15 239 0
0.60011 -0.058489 -0.134232 19 235 0
0.594097 -0.0584887 -0.13427 22 232 0
0.588955 -0.0568627 -0.134434 25 229 0
0.584318 -0.0533268 -0.134718 28 226 0
0.581374 -0.0481548 -0.135179 31 223 0
0.580027 -0.0423693 -0.13551 35 219 0
0.580085 -0.0363759 -0.135831 38 216 0
0.582742 -0.0311018 -0.136021 41 213 0
0.587263 -0.0271611 -0.136156 44 210 0
0.592681 -0.0249792 -0.136264 47 207 0
0.598403 -0.0240162 -0.136219 51 204 0
0.603565 -0.0270939 -0.136038 54 200 0
0.608371 -0.030622 -0.135733 57 197 0
0.610073 -0.0362094 -0.135464 60 194 0
0.608572 -0.0419783 -0.135284 63 191 0
0.605255 -0.0467339 -0.13514 66 188 0
0.59969 -0.0483536 -0.135102 70 184 0
0.593679 -0.0483528 -0.135252 73 181 0
0.588148 -0.0469315 -0.135569 76 178 0
0.583423 -0.0432294 -0.135905 79 175 0
0.580652 -0.0380259 -0.136162 82 172 0
0.580005 -0.032149 -0.1365 86 168 0
0.580385 -0.0262398 -0.136808 89 165 0
0.583534 -0.0212259 -0.137052 92 162 0
0.588421 -0.0177771 -0.137244 95 159 0
0.593792 -0.0150759 -0.137311 98 156 0
0.599653 -0.0144331 -0.137238 102 153 0
0.605107 -0.0168527 -0.137013 105 149 0
0.608834 -0.0215394 -0.136675 108 146 0
0.61011 -0.0271837 -0.13633 111 143 0
0.608284 -0.0327718 -0.13601 114 140 0
0.60578 -0.0378928 -0.135856 117 137 0
0.600196 -0.0401209 -0.135886 121 133 0
0.594482 -0.0397293 -0.136085 124 130 0
0.588835 -0.0377037 -0.136367 127 127 0
0.58385 -0.0343734 -0.136647 130 124 0
0.581274 -0.0290703 -0.137112 133 121 0
0.580011 -0.0232407 -0.137482 137 117 0
0.580879 -0.0176091 -0.13792 140 114 0
0.584131 -0.0127534 -0.138402 143 111 0
0.587699 -0.0083333 -0.138715 146 108 0
0.593241 -0.0067858 -0.138832 149 105 0
0.599246 -0.00656872 -0.138727 153 101 0
0.604722 -0.00876699 -0.138358 156 98 0
0.608916 -0.0127911 -0.138013 159 95 0
0.610041 -0.0184175 -0.137658 162 92 0
0.607771 -0.0238933 -0.137225 165 89 0
0.604001 -0.0281457 -0.136965 168 86 0
0.598851 -0.0308259 -0.136852 172 82 0
0.592843 -0.0306778 -0.136973 175 79 0
0.588087 -0.0281418 -0.137221 178 76 0
0.583278 -0.024854 -0.137597 181 73 0
0.579999 -0.0200494 -0.13808 184 70 0
0.580786 -0.014121 -0.138636 188 66 0
0.580831 -0.00815914 -0.139407 191 63 0
0.583068 -0.00281246 -0.140097 194 60 0
0.587826 0.000734226 -0.140677 197 57 0
0.593278 0.00320486 -0.140969 200 54 0
0.599053 0.00384571 -0.14113 204 50 0
0.604307 0.00139439 -0.141041 207 47 0
0.608428 -0.00254395 -0.140746 210 44 0
0.610095 -0.00808866 -0.139913 213 41 0
0.608985 -0.013652 -0.138966 216 38 0
0.605558 -0.0184905 -0.138012 219 35 0
0.600714 -0.0219403 -0.137448 223 31 0
0.594836 -0.0221319 -0.13737 226 28 0
0.589536 -0.0199889 -0.137627 229 25 0
0.585072 -0.0160903 -0.138155 232 22 0
0.581356 -0.0116809 -0.138693 235 19 0
0.580828 -0.00581757 -0.139566 239 15 0
0.580818 0.000153555 -0.140262 242 12 0
0.583326 0.0047667 -0.140985 245 9 0
0.5861 0.00893153 -0.141812 248 6 0
0.590099 0.0108687 -0.142546 251 3 0
0.595099 0.0124692 -0.143251 255 0 0
