ply
format ascii 1.0
comment Generated by robot_control PLYWriter
element vertex 30
property float x
property float y
property float z
property uchar red
property uchar green
property uchar blue
end_header
0.696504 0.154123 -0.154934 0 255 0
0.701176 0.152288 -0.154514 8 246 0
0.705745 0.149582 -0.153339 17 237 0
0.709759 0.14702 -0.151701 26 228 0
0.711727 0.141754 -0.150042 35 219 0
0.712438 0.136619 -0.147667 43 211 0
0.711703 0.131285 -0.145497 52 202 0
0.708134 0.126927 -0.144216 61 193 0
0.702796 0.124504 -0.143073 70 184 0
0.697194 0.12488 -0.142952 79 175 0
0.692247 0.128152 -0.143504 87 167 0
0.69115 0.133473 -0.144673 96 158 0
0.692356 0.13875 -0.146094 105 149 0
0.696863 0.142258 -0.147466 114 140 0
0.702037 0.145226 -0.148102 123 131 0
0.707836 0.144726 -0.148263 131 123 0
0.713154 0.141978 -0.147993 140 114 0
0.717235 0.137627 -0.147168 149 105 0
0.719926 0.132558 -0.146088 158 96 0
0.722071 0.12712 -0.144757 167 87 0
0.71996 0.122367 -0.143095 175 79 0
0.717351 0.117773 -0.141575 184 70 0
0.711984 0.11558 -0.14024 193 61 0
0.706199 0.116121 -0.139668 202 52 0
0.701609 0.119791 -0.139754 211 43 0
0.698742 0.124901 -0.140963 219 35 0
0.700641 0.129836 -0.142891 228 26 0
0.704139 0.1333 -0.14454 237 17 0
0.709055 0.135286 -0.146075 246 8 0
0.714155 0.136164 -0.147558 255 0 0
