ply
format ascii 1.0
comment Generated by robot_control PLYWriter
element vertex 21
property float x
property float y
property float z
property uchar red
property uchar green
property uchar blue
end_header
0.504639 -0.452333 -0.11493 0 255 0
0.505146 -0.447627 -0.116402 12 242 0
0.50568 -0.442792 -0.11734 25 229 0
0.50616 -0.437892 -0.117916 38 216 0
0.506625 -0.432998 -0.118545 51 204 0
0.507071 -0.428072 -0.11879 63 191 0
0.507641 -0.423156 -0.118518 76 178 0
0.508204 -0.418266 -0.117934 89 165 0
0.508739 -0.413422 -0.117019 102 153 0
0.509124 -0.40859 -0.115973 114 140 0
0.50954 -0.4038 -0.11476 127 127 0
0.510038 -0.399018 -0.113548 140 114 0
0.510485 -0.394223 -0.112365 153 101 0
0.510897 -0.389411 -0.111243 165 89 0
0.511293 -0.38458 -0.110198 178 76 0
0.511771 -0.379711 -0.109399 191 63 0
0.512231 -0.374798 -0.108951 204 50 0
0.512634 -0.36986 -0.1089 216 38 0
0.512979 -0.364916 -0.108844 229 25 0
0.51342 -0.359985 -0.109065 242 12 0
0.513788 -0.355079 -0.109664 255 0 0
