ply
format ascii 1.0
comment Generated by robot_control PLYWriter
element vertex 10
property float x
property float y
property float z
property uchar red
property uchar green
property uchar blue
end_header
0.516679 0.116845 -0.126527 0 255 0
0.517056 0.111779 -0.125728 28 226 0
0.517408 0.106753 -0.124671 56 198 0
0.517642 0.101735 -0.123544 85 169 0
0.517876 0.096728 -0.122362 113 141 0
0.518113 0.0917291 -0.12115 141 113 0
0.518351 0.0867328 -0.119926 170 84 0
0.518471 0.0817169 -0.118776 198 56 0
0.518419 0.0767067 -0.117594 226 28 0
0.518514 0.0716628 -0.116571 255 0 0
