ply
format ascii 1.0
comment Generated by robot_control PLYWriter
element vertex 12
property float x
property float y
property float z
property uchar red
property uchar green
property uchar blue
end_header
0.522988 -0.14894 -0.120769 0 255 0
0.523078 -0.143844 -0.119948 23 231 0
0.523143 -0.13872 -0.119323 46 208 0
0.523156 -0.133601 -0.118644 69 185 0
0.523103 -0.128483 -0.117967 92 162 0
0.523042 -0.123359 -0.117338 115 139 0
0.522977 -0.118226 -0.116775 139 115 0
0.52291 -0.113089 -0.116264 162 92 0
0.522847 -0.107951 -0.11576 185 69 0
0.522782 -0.102815 -0.115233 208 46 0
0.522773 -0.0976774 -0.11472 231 23 0
0.522822 -0.0925278 -0.114351 255 0 0
