ply
format ascii 1.0
comment Generated by robot_control PLYWriter
element vertex 115
property float x
property float y
property float z
property uchar red
property uchar green
property uchar blue
end_header
0.602884 -0.28836 -0.0199997 0 255 0
0.607917 -0.290199 -0.0198834 2 252 0
0.610545 -0.295003 -0.0196567 4 250 0
0.611058 -0.299883 -0.0196462 6 248 0
0.608514 -0.304646 -0.0197972 8 246 0
0.605121 -0.308025 -0.0200885 11 243 0
0.599211 -0.308438 -0.0205191 13 241 0
0.593615 -0.307571 -0.020936 15 239 0
0.588996 -0.30473 -0.0212427 17 237 0
0.586733 -0.299655 -0.0213641 20 234 0
0.584778 -0.294086 -0.0212229 22 232 0
0.585001 -0.288212 -0.0207953 24 230 0
0.588289 -0.283274 -0.0203042 26 228 0
0.592962 -0.279621 -0.0198268 29 225 0
0.598656 -0.278608 -0.0195225 31 223 0
0.60454 -0.279266 -0.0193621 33 221 0
0.60966 -0.282078 -0.0193905 35 219 0
0.61054 -0.287759 -0.019502 38 216 0
0.609761 -0.29335 -0.0196566 40 214 0
0.605512 -0.297536 -0.0199131 42 212 0
0.599751 -0.298415 -0.0201349 44 210 0
0.593831 -0.298033 -0.0203486 46 208 0
0.589012 -0.294583 -0.0204748 49 205 0
0.585422 -0.289825 -0.0203354 51 203 0
0.584677 -0.284025 -0.0200877 53 201 0
0.584631 -0.278149 -0.0197454 55 199 0
0.587953 -0.273331 -0.0194367 58 196 0
0.592715 -0.269735 -0.0190027 60 194 0
0.598384 -0.268604 -0.0186987 62 192 0
0.603939 -0.269706 -0.018576 64 190 0
0.608678 -0.273252 -0.0187015 67 187 0
0.610503 -0.278781 -0.0190399 69 185 0
0.609123 -0.284018 -0.0194187 71 183 0
0.605126 -0.288454 -0.0197388 73 181 0
0.599563 -0.289634 -0.0200685 76 178 0
0.594324 -0.288167 -0.0201901 78 176 0
0.588984 -0.285477 -0.0201041 80 174 0
0.584764 -0.281625 -0.0199139 82 172 0
0.582676 -0.276091 -0.0196114 85 169 0
0.584092 -0.270257 -0.0193255 87 167 0
0.585939 -0.264573 -0.0188965 89 165 0
0.590168 -0.260729 -0.0185096 91 163 0
0.595678 -0.258608 -0.0181363 93 161 0
0.601615 -0.259262 -0.0179366 96 158 0
0.606556 -0.262374 -0.0178794 98 156 0
0.608375 -0.267712 -0.0179996 100 154 0
0.607914 -0.273599 -0.0182455 102 152 0
0.604783 -0.278654 -0.0186854 105 149 0
0.598992 -0.279971 -0.0189962 107 147 0
0.593098 -0.279074 -0.0192121 109 145 0
0.587832 -0.276351 -0.0192995 111 143 0
0.583846 -0.27197 -0.0192748 114 140 0
0.582658 -0.266153 -0.0190754 116 138 0
0.582638 -0.260149 -0.0187857 118 136 0
0.585722 -0.255377 -0.0185068 120 134 0
0.589136 -0.250518 -0.0181429 123 131 0
0.595022 -0.249739 -0.0177679 125 129 0
0.60063 -0.24961 -0.0175269 127 127 0
0.605215 -0.253375 -0.0172701 129 125 0
0.608676 -0.258264 -0.0171777 131 123 0
0.608378 -0.263922 -0.0172493 134 120 0
0.604007 -0.267898 -0.0175661 136 118 0
0.598692 -0.270668 -0.0179709 138 116 0
0.592964 -0.269728 -0.0184061 140 114 0
0.587595 -0.267083 -0.0187644 143 111 0
0.584568 -0.262095 -0.0189158 145 109 0
0.582633 -0.256589 -0.0188633 147 107 0
0.582684 -0.250585 -0.0186026 149 105 0
0.584936 -0.245044 -0.0183245 152 102 0
0.589995 -0.241895 -0.0178833 154 100 0
0.595522 -0.239594 -0.0173908 156 98 0
0.601243 -0.240622 -0.0169279 158 96 0
0.606265 -0.24377 -0.0164897 161 93 0
0.606942 -0.249469 -0.0162877 163 91 0
0.606379 -0.255341 -0.016506 165 89 0
0.602419 -0.259315 -0.0169368 167 87 0
0.596585 -0.260273 -0.0175683 170 84 0
0.590614 -0.260248 -0.0182556 172 82 0
0.586671 -0.2566 -0.0187754 174 80 0
0.582029 -0.253144 -0.0189039 176 78 0
0.580733 -0.247431 -0.0188383 178 76 0
0.582185 -0.24169 -0.0185939 181 73 0
0.584752 -0.236385 -0.0180924 183 71 0
0.58899 -0.232215 -0.0173058 185 69 0
0.594601 -0.230552 -0.0164681 187 67 0
0.60056 -0.230257 -0.0157439 190 64 0
0.60479 -0.234393 -0.0151712 192 62 0
0.606906 -0.239899 -0.0151781 194 60 0
0.605793 -0.24543 -0.0156587 196 58 0
0.601809 -0.249649 -0.0165678 199 55 0
0.596516 -0.252371 -0.0173373 201 53 0
0.590839 -0.251634 -0.018125 203 51 0
0.586064 -0.248087 -0.0188507 205 49 0
0.582248 -0.243647 -0.0191452 208 46 0
0.58002 -0.238143 -0.0190303 210 44 0
0.580082 -0.232208 -0.0185961 212 42 0
0.582735 -0.226892 -0.0178484 214 40 0
0.586727 -0.22259 -0.0166175 216 38 0
0.592246 -0.220783 -0.0155641 219 35 0
0.598195 -0.220599 -0.0147884 221 33 0
0.602538 -0.224558 -0.0142894 223 31 0
0.605627 -0.229043 -0.0142356 225 29 0
0.605321 -0.233899 -0.0145801 228 26 0
0.60276 -0.238865 -0.0152246 230 24 0
0.598608 -0.241755 -0.0164657 232 22 0
0.592946 -0.24223 -0.0177235 234 20 0
0.588922 -0.240437 -0.0185948 237 17 0
0.583855 -0.237551 -0.0191622 239 15 0
0.580005 -0.233105 -0.0191602 241 13 0
0.579898 -0.227619 -0.0187569 243 11 0
0.580714 -0.22331 -0.0181579 246 8 0
0.581438 -0.218408 -0.0171386 248 6 0
0.58479 -0.214724 -0.0161534 250 4 0
0.588936 -0.212487 -0.0149562 252 2 0
0.592374 -0.210338 -0.0142937 255 0 0
