ply
format ascii 1.0
comment Generated by robot_control PLYWriter
element vertex 11
property float x
property float y
property float z
property uchar red
property uchar green
property uchar blue
end_header
0.643269 -0.192513 -0.0391654 0 255 0
0.643632 -0.197291 -0.0394987 25 229 0
0.643871 -0.202085 -0.0395561 51 204 0
0.644083 -0.206881 -0.0393945 76 178 0
0.644338 -0.211673 -0.0391763 102 153 0
0.644589 -0.216465 -0.0389578 127 127 0
0.644866 -0.221259 -0.0388243 153 101 0
0.645154 -0.226051 -0.0389549 178 76 0
0.645406 -0.230831 -0.0393498 204 50 0
0.645671 -0.235616 -0.0394316 229 25 0
0.646098 -0.240332 -0.0401632 255 0 0
