ply
format ascii 1.0
comment Generated by robot_control PLYWriter
element vertex 11
property float x
property float y
property float z
property uchar red
property uchar green
property uchar blue
end_header
0.566982 -0.0139255 -0.031325 0 255 0
0.566968 -0.0187941 -0.0316446 25 229 0
0.566967 -0.0236756 -0.0316688 51 204 0
0.566972 -0.0285538 -0.0315068 76 178 0
0.56716 -0.0334213 -0.0312111 102 153 0
0.567424 -0.0382859 -0.0308999 127 127 0
0.567696 -0.0431545 -0.0306955 153 101 0
0.56796 -0.0480164 -0.0308576 178 76 0
0.568191 -0.0528448 -0.0315209 204 50 0
0.568369 -0.0576316 -0.032458 229 25 0
0.568311 -0.0623383 -0.0337391 255 0 0
