ply
format ascii 1.0
comment Generated by robot_control PLYWriter
element vertex 72
property float x
property float y
property float z
property uchar red
property uchar green
property uchar blue
end_header
0.622611 -0.047548 -0.104053 0 255 0
0.626583 -0.049988 -0.103492 3 251 0
0.628137 -0.0552397 -0.103253 7 247 0
0.628147 -0.0612229 -0.103387 10 244 0
0.626692 -0.0666377 -0.103763 14 240 0
0.62307 -0.0699805 -0.104145 17 237 0
0.618081 -0.0723359 -0.104543 21 233 0
0.612314 -0.0720954 -0.105026 25 229 0
0.609227 -0.0691269 -0.105352 28 226 0
0.606581 -0.0644609 -0.105444 32 222 0
0.609218 -0.0596966 -0.105233 35 219 0
0.612864 -0.0563317 -0.104716 39 215 0
0.618815 -0.0563283 -0.104275 43 211 0
0.623567 -0.0585326 -0.103938 46 208 0
0.627 -0.0633223 -0.103947 50 204 0
0.628166 -0.069107 -0.104252 53 201 0
0.626697 -0.0746255 -0.1047 57 197 0
0.623157 -0.0791895 -0.105233 61 193 0
0.618034 -0.0822144 -0.105792 64 190 0
0.61237 -0.0816909 -0.10616 68 186 0
0.608192 -0.0776695 -0.106181 71 183 0
0.606742 -0.0722804 -0.105856 75 179 0
0.609822 -0.0676544 -0.105435 79 175 0
0.615382 -0.0667586 -0.10498 82 172 0
0.621169 -0.0674114 -0.104761 86 168 0
0.626542 -0.0699848 -0.104886 89 165 0
0.628214 -0.0756661 -0.105154 93 161 0
0.628285 -0.0816322 -0.105627 96 158 0
0.626142 -0.0869591 -0.106162 100 154 0
0.621103 -0.0901163 -0.106811 104 150 0
0.615686 -0.0921831 -0.107487 107 147 0
0.610216 -0.0900766 -0.107655 111 143 0
0.606781 -0.0852277 -0.107446 114 140 0
0.60767 -0.0800429 -0.10697 118 136 0
0.612291 -0.0762814 -0.106622 122 132 0
0.618267 -0.0762904 -0.10631 125 129 0
0.623427 -0.0788996 -0.106223 129 125 0
0.626579 -0.0839686 -0.106375 132 122 0
0.628097 -0.0895784 -0.106756 136 118 0
0.625457 -0.0949023 -0.10747 140 114 0
0.621678 -0.0993788 -0.108239 143 111 0
0.616776 -0.102591 -0.108883 147 107 0
0.611555 -0.101197 -0.109207 150 104 0
0.607214 -0.0972272 -0.109219 154 100 0
0.606842 -0.0913632 -0.108903 158 96 0
0.610238 -0.0869137 -0.10842 161 93 0
0.615373 -0.0865943 -0.107957 165 89 0
0.621053 -0.0873399 -0.107522 168 86 0
0.624928 -0.0918815 -0.107461 172 82 0
0.626805 -0.09728 -0.107812 175 79 0
0.626834 -0.10325 -0.108241 179 75 0
0.623695 -0.108163 -0.109028 183 71 0
0.618856 -0.111624 -0.109618 186 68 0
0.613497 -0.112619 -0.110259 190 64 0
0.60834 -0.110342 -0.110769 193 61 0
0.605983 -0.105361 -0.110807 197 57 0
0.605947 -0.0994074 -0.110383 201 53 0
0.610604 -0.0969603 -0.109738 204 50 0
0.615602 -0.094607 -0.109031 208 46 0
0.620732 -0.0971927 -0.108545 211 43 0
0.624335 -0.101717 -0.108437 215 39 0
0.626851 -0.107087 -0.108733 219 35 0
0.626888 -0.113047 -0.109247 222 32 0
0.623546 -0.117311 -0.110084 226 28 0
0.61949 -0.121054 -0.110983 229 25 0
0.613839 -0.122105 -0.111954 233 21 0
0.608861 -0.121095 -0.112621 237 17 0
0.606146 -0.117605 -0.112811 240 14 0
0.604465 -0.112298 -0.112453 244 10 0
0.60642 -0.108185 -0.111473 247 7 0
0.610554 -0.106551 -0.110679 251 3 0
0.614941 -0.104947 -0.109508 255 0 0
