ply
format ascii 1.0
comment Generated by robot_control PLYWriter
element vertex 173
property float x
property float y
property float z
property uchar red
property uchar green
property uchar blue
end_header
0.510112 -0.331941 -0.103664 0 255 0
0.515115 -0.332773 -0.102775 1 253 0
0.517224 -0.336506 -0.101782 2 252 0
0.518521 -0.341777 -0.100858 4 250 0
0.517212 -0.346648 -0.0996771 5 249 0
0.514781 -0.350289 -0.0991999 7 247 0
0.510165 -0.352486 -0.0988508 8 246 0
0.504388 -0.352366 -0.0991759 10 244 0
0.499493 -0.350347 -0.100051 11 243 0
0.496173 -0.346322 -0.10145 13 241 0
0.492945 -0.341695 -0.102972 14 240 0
0.492342 -0.335867 -0.104274 16 238 0
0.494224 -0.330325 -0.104965 17 237 0
0.496258 -0.32518 -0.105315 19 235 0
0.501311 -0.322376 -0.105122 20 234 0
0.507013 -0.321085 -0.104727 22 232 0
0.512571 -0.322512 -0.10394 23 231 0
0.517486 -0.325887 -0.103245 25 229 0
0.518461 -0.331369 -0.10249 26 228 0
0.517532 -0.337002 -0.102145 28 226 0
0.512914 -0.340766 -0.102176 29 225 0
0.5074 -0.342459 -0.1026 31 223 0
0.501951 -0.340977 -0.103444 32 222 0
0.497149 -0.337686 -0.104102 34 220 0
0.493988 -0.332918 -0.10484 35 219 0
0.492454 -0.327423 -0.10562 37 217 0
0.492816 -0.321576 -0.106241 38 216 0
0.495931 -0.316432 -0.106398 40 214 0
0.500756 -0.314112 -0.106329 41 213 0
0.505441 -0.31057 -0.105991 42 212 0
0.511331 -0.311229 -0.105608 44 210 0
0.516221 -0.314382 -0.104832 45 209 0
0.518214 -0.319873 -0.10425 47 207 0
0.518432 -0.325858 -0.103844 48 206 0
0.514337 -0.329697 -0.103876 50 204 0
0.5089 -0.331965 -0.104164 51 203 0
0.503337 -0.33019 -0.104803 53 201 0
0.497784 -0.327992 -0.105515 54 200 0
0.494136 -0.323386 -0.106159 56 198 0
0.492315 -0.317893 -0.10672 57 197 0
0.494491 -0.312376 -0.107145 59 195 0
0.495987 -0.306947 -0.107442 60 194 0
0.500247 -0.302703 -0.107516 62 192 0
0.505661 -0.300247 -0.107288 63 191 0
0.511172 -0.301047 -0.106868 65 189 0
0.516038 -0.303992 -0.10631 66 188 0
0.519356 -0.30897 -0.105702 68 186 0
0.518498 -0.314076 -0.105332 69 185 0
0.514749 -0.318731 -0.105133 71 183 0
0.509652 -0.321007 -0.105417 72 182 0
0.503675 -0.321073 -0.105933 74 180 0
0.498575 -0.318001 -0.106557 75 179 0
0.495063 -0.313284 -0.107147 77 177 0
0.492285 -0.308059 -0.107799 78 176 0
0.493414 -0.302341 -0.108261 80 174 0
0.496401 -0.297292 -0.108702 81 173 0
0.500147 -0.292631 -0.108802 83 171 0
0.505365 -0.290295 -0.10864 84 170 0
0.51134 -0.290159 -0.108231 85 169 0
0.516061 -0.293787 -0.107785 87 167 0
0.51869 -0.298615 -0.107283 88 166 0
0.518394 -0.304572 -0.106869 90 164 0
0.514956 -0.309238 -0.106811 91 163 0
0.50917 -0.310359 -0.106981 93 161 0
0.503357 -0.309864 -0.107508 94 160 0
0.498209 -0.306856 -0.108086 96 158 0
0.494942 -0.302018 -0.108912 97 157 0
0.492607 -0.296712 -0.109464 99 155 0
0.493467 -0.290983 -0.109888 100 154 0
0.496905 -0.286058 -0.110195 102 152 0
0.500497 -0.281239 -0.110293 103 151 0
0.506128 -0.279449 -0.110138 105 149 0
0.511948 -0.280499 -0.109775 106 148 0
0.51721 -0.28326 -0.109272 108 146 0
0.520402 -0.288053 -0.108865 109 145 0
0.518505 -0.293165 -0.108454 111 143 0
0.515409 -0.29793 -0.108285 112 142 0
0.510279 -0.300938 -0.108433 114 140 0
0.504445 -0.300275 -0.108952 115 139 0
0.499358 -0.297227 -0.109678 117 137 0
0.495591 -0.292654 -0.110419 118 136 0
0.494186 -0.287035 -0.111499 120 134 0
0.493992 -0.281372 -0.112155 121 133 0
0.495894 -0.275696 -0.11268 123 131 0
0.500435 -0.272316 -0.113035 124 130 0
0.505941 -0.269915 -0.112985 126 128 0
0.511544 -0.26997 -0.112675 127 127 0
0.517055 -0.272341 -0.112233 128 126 0
0.520237 -0.277286 -0.111368 130 124 0
0.518459 -0.282571 -0.11075 131 123 0
0.516105 -0.287572 -0.110301 133 121 0
0.510718 -0.290126 -0.110224 134 120 0
0.504855 -0.289684 -0.110687 136 118 0
0.499453 -0.28718 -0.11154 137 117 0
0.496304 -0.282479 -0.112611 139 115 0
0.494702 -0.276795 -0.113685 140 114 0
0.494178 -0.270878 -0.114542 142 112 0
0.495961 -0.265466 -0.11517 143 111 0
0.500446 -0.261559 -0.115603 145 109 0
0.505837 -0.258985 -0.115808 146 108 0
0.511354 -0.259395 -0.115615 148 106 0
0.516593 -0.262294 -0.115051 149 105 0
0.520285 -0.266853 -0.113862 151 103 0
0.519902 -0.272676 -0.113115 152 102 0
0.516983 -0.277903 -0.11266 154 100 0
0.511479 -0.279275 -0.112737 155 99 0
0.506085 -0.279959 -0.113186 157 97 0
0.500685 -0.277564 -0.114091 158 96 0
0.496197 -0.273673 -0.114873 160 94 0
0.494181 -0.26835 -0.116009 161 93 0
0.494538 -0.262426 -0.116906 163 91 0
0.496798 -0.257022 -0.117751 164 90 0
0.500519 -0.252398 -0.118407 166 88 0
0.50517 -0.248659 -0.118549 167 87 0
0.511006 -0.249085 -0.118268 169 85 0
0.516174 -0.252085 -0.117602 170 84 0
0.520021 -0.256088 -0.116822 171 83 0
0.519926 -0.261942 -0.116026 173 81 0
0.517069 -0.267152 -0.115668 174 80 0
0.511431 -0.269236 -0.115691 176 78 0
0.505854 -0.269328 -0.116199 177 77 0
0.500968 -0.267149 -0.117275 179 75 0
0.497245 -0.262662 -0.11853 180 74 0
0.494523 -0.257533 -0.119242 182 72 0
0.495087 -0.251598 -0.120043 183 71 0
0.496705 -0.245866 -0.120575 185 69 0
0.501112 -0.241884 -0.120898 186 68 0
0.506462 -0.239141 -0.12092 188 66 0
0.512423 -0.238943 -0.120361 189 65 0
0.517584 -0.241512 -0.119352 191 63 0
0.52074 -0.24656 -0.118784 192 62 0
0.520652 -0.252426 -0.118075 194 60 0
0.51715 -0.257191 -0.117858 195 59 0
0.511915 -0.258812 -0.118063 197 57 0
0.50659 -0.260151 -0.118827 198 56 0
0.501284 -0.25758 -0.119646 200 54 0
0.496596 -0.254147 -0.120802 201 53 0
0.494924 -0.248507 -0.121678 203 51 0
0.494453 -0.242579 -0.122561 204 50 0
0.495707 -0.237077 -0.123097 206 48 0
0.498399 -0.231916 -0.123403 207 47 0
0.503468 -0.228683 -0.123307 209 45 0
0.509245 -0.227849 -0.122867 210 44 0
0.514833 -0.229677 -0.122241 212 42 0
0.518702 -0.234069 -0.121136 213 41 0
0.520546 -0.239458 -0.120492 214 40 0
0.518269 -0.244499 -0.119836 216 38 0
0.514155 -0.248478 -0.119737 217 37 0
0.508167 -0.248564 -0.120226 219 35 0
0.502341 -0.248532 -0.121149 220 34 0
0.498459 -0.244106 -0.122253 222 32 0
0.496317 -0.238578 -0.12311 223 31 0
0.495005 -0.233253 -0.123852 225 29 0
0.496237 -0.227616 -0.124132 226 28 0
0.498679 -0.2225 -0.124086 228 26 0
0.503545 -0.219886 -0.123917 229 25 0
0.50863 -0.218122 -0.123826 231 23 0
0.514574 -0.218332 -0.123803 232 22 0
0.518586 -0.221471 -0.123707 234 20 0
0.521061 -0.226161 -0.123351 235 19 0
0.520263 -0.231554 -0.122288 237 17 0
0.517751 -0.236634 -0.121435 238 16 0
0.513015 -0.238939 -0.120942 240 14 0
0.50715 -0.239037 -0.121448 241 13 0
0.502355 -0.237613 -0.122319 243 11 0
0.498065 -0.234264 -0.12334 244 10 0
0.496261 -0.229193 -0.12421 246 8 0
0.494577 -0.223947 -0.124454 247 7 0
0.495133 -0.218205 -0.124455 249 5 0
0.49769 -0.214992 -0.12448 250 4 0
0.500503 -0.210771 -0.12459 252 2 0
0.504518 -0.208417 -0.124718 253 1 0
0.508621 -0.206802 -0.12507 255 0 0
