ply
format ascii 1.0
comment Generated by robot_control PLYWriter
element vertex 30
property float x
property float y
property float z
property uchar red
property uchar green
property uchar blue
end_header
0.709588 0.105322 -0.160593 0 255 0
0.712975 0.10133 -0.15932 8 246 0
0.714836 0.0964676 -0.157887 17 237 0
0.715999 0.0916534 -0.156108 26 228 0
0.712705 0.0869955 -0.154752 35 219 0
0.708255 0.083462 -0.153912 43 211 0
0.703006 0.0807728 -0.15361 52 202 0
0.697425 0.0817396 -0.153686 61 193 0
0.691994 0.0835058 -0.154008 70 184 0
0.687077 0.0857377 -0.154659 79 175 0
0.684811 0.0910061 -0.155482 87 167 0
0.683122 0.0962939 -0.156949 96 158 0
0.686122 0.101093 -0.157774 105 149 0
0.690191 0.104664 -0.158499 114 140 0
0.695884 0.105961 -0.1586 123 131 0
0.701076 0.104078 -0.158175 131 123 0
0.703348 0.0987268 -0.157386 140 114 0
0.704582 0.0933461 -0.156195 149 105 0
0.704554 0.087796 -0.154978 158 96 0
0.700763 0.0840458 -0.154012 167 87 0
0.696993 0.0802036 -0.153307 175 79 0
0.691747 0.0804785 -0.15299 184 70 0
0.685862 0.0806977 -0.152898 193 61 0
0.680681 0.0823659 -0.1532 202 52 0
0.67719 0.0869753 -0.154048 211 43 0
0.674219 0.0909687 -0.155541 219 35 0
0.673987 0.0959487 -0.156851 228 26 0
0.676416 0.10022 -0.158603 237 17 0
0.680007 0.103396 -0.159778 246 8 0
0.685183 0.103969 -0.160283 255 0 0
