ply
format ascii 1.0
comment Generated by robot_control PLYWriter
element vertex 64
property float x
property float y
property float z
property uchar red
property uchar green
property uchar blue
end_header
0.716323 0.0120739 -0.106753 0 255 0
0.721088 0.00895742 -0.106352 4 250 0
0.723804 0.00429461 -0.105651 8 246 0
0.724757 -0.00139809 -0.104747 12 242 0
0.724607 -0.00730601 -0.10369 16 238 0
0.724034 -0.0129999 -0.1028 20 234 0
0.720219 -0.01758 -0.102007 24 230 0
0.715206 -0.0206032 -0.101317 28 226 0
0.709264 -0.0211242 -0.100881 32 222 0
0.703241 -0.0210635 -0.100884 36 218 0
0.698322 -0.0178657 -0.101141 40 214 0
0.696391 -0.0128562 -0.101676 44 210 0
0.695989 -0.00760553 -0.102346 48 206 0
0.698737 -0.00230453 -0.102997 52 202 0
0.702969 0.00181272 -0.103565 56 198 0
0.708967 0.00183653 -0.10374 60 194 0
0.714707 0.000658442 -0.103701 64 190 0
0.719497 -0.00291363 -0.103441 68 186 0
0.723041 -0.00772884 -0.103004 72 182 0
0.724794 -0.0133318 -0.102473 76 178 0
0.724788 -0.0193088 -0.101788 80 174 0
0.722613 -0.0246774 -0.100915 85 169 0
0.718346 -0.0289067 -0.100459 89 165 0
0.712923 -0.0313908 -0.0998887 93 161 0
0.707036 -0.032362 -0.099651 97 157 0
0.701222 -0.0311204 -0.0996258 101 153 0
0.698341 -0.0260999 -0.0998321 105 149 0
0.696623 -0.0204944 -0.100206 109 145 0
0.696315 -0.0145591 -0.10078 113 141 0
0.700855 -0.0106785 -0.10137 117 137 0
0.706005 -0.00861403 -0.101682 121 133 0
0.71195 -0.00935914 -0.101924 125 129 0
0.717742 -0.0109315 -0.101951 129 125 0
0.722571 -0.0145246 -0.101797 133 121 0
0.724693 -0.0201005 -0.101423 137 117 0
0.724734 -0.0260939 -0.100808 141 113 0
0.724156 -0.031963 -0.100159 145 109 0
0.721714 -0.0373989 -0.0992915 149 105 0
0.717308 -0.0412299 -0.0986517 153 101 0
0.711918 -0.0438538 -0.0982529 157 97 0
0.706556 -0.0423383 -0.0979244 161 93 0
0.701004 -0.040012 -0.0977259 165 89 0
0.69702 -0.0360591 -0.097798 170 84 0
0.696569 -0.030066 -0.0980679 174 80 0
0.69879 -0.0247933 -0.0987146 178 76 0
0.702305 -0.0201748 -0.0993816 182 72 0
0.707894 -0.0187923 -0.1 186 68 0
0.713903 -0.0185853 -0.100337 190 64 0
0.718505 -0.0222216 -0.10056 194 60 0
0.722187 -0.0268122 -0.100608 198 56 0
0.724843 -0.0322154 -0.100451 202 52 0
0.725814 -0.0378264 -0.100094 206 48 0
0.724491 -0.0434704 -0.0994712 210 44 0
0.721349 -0.0481956 -0.0987633 214 40 0
0.717042 -0.0523017 -0.0978236 218 36 0
0.711807 -0.0549027 -0.0969798 222 32 0
0.705942 -0.0547077 -0.0960323 226 28 0
0.700728 -0.0524348 -0.0953158 230 24 0
0.696828 -0.0480472 -0.0950794 234 20 0
0.695235 -0.0425185 -0.0955001 238 16 0
0.697048 -0.0372623 -0.0963228 242 12 0
0.700199 -0.0326806 -0.0972383 246 8 0
0.705379 -0.0306107 -0.0979625 250 4 0
0.710127 -0.0291682 -0.0989382 255 0 0
