ply
format ascii 1.0
comment Generated by robot_control PLYWriter
element vertex 9
property float x
property float y
property float z
property uchar red
property uchar green
property uchar blue
end_header
0.637015 0.0952404 -0.0233704 0 255 0
0.636952 0.0905447 -0.0245472 31 223 0
0.636872 0.0857436 -0.025332 63 191 0
0.636801 0.0809315 -0.0248392 95 159 0
0.636788 0.0763135 -0.0233668 127 127 0
0.636985 0.0719183 -0.0213104 159 95 0
0.637134 0.067647 -0.0189908 191 63 0
0.637204 0.0634487 -0.0165351 223 31 0
0.637401 0.0593312 -0.0139499 255 0 0
