ply
format ascii 1.0
comment Generated by robot_control PLYWriter
element vertex 10
property float x
property float y
property float z
property uchar red
property uchar green
property uchar blue
end_header
0.642722 -0.0671129 -0.0368946 0 255 0
0.642586 -0.0623038 -0.035316 28 226 0
0.642516 -0.0572875 -0.0346072 56 198 0
0.642483 -0.0522338 -0.0342154 85 169 0
0.642481 -0.0471674 -0.03421 113 141 0
0.642524 -0.0421133 -0.0345951 141 113 0
0.6425 -0.0370892 -0.0352686 170 84 0
0.642454 -0.0320753 -0.0360192 198 56 0
0.642517 -0.027104 -0.0369738 226 28 0
0.642453 -0.0220836 -0.037565 255 0 0
