ply
format ascii 1.0
comment Generated by robot_control PLYWriter
element vertex 93
property float x
property float y
property float z
property uchar red
property uchar green
property uchar blue
end_header
0.709289 -0.236218 -0.121085 0 255 0
0.712974 -0.238561 -0.121408 2 252 0
0.716165 -0.242647 -0.121363 5 249 0
0.719016 -0.24683 -0.120855 8 246 0
0.719221 -0.252701 -0.119654 11 243 0
0.71725 -0.257845 -0.118288 13 241 0
0.715112 -0.262792 -0.11676 16 238 0
0.710568 -0.266423 -0.115385 19 235 0
0.705666 -0.268517 -0.114113 22 232 0
0.699923 -0.267641 -0.113073 24 230 0
0.695497 -0.263732 -0.112622 27 227 0
0.691588 -0.259926 -0.112808 30 224 0
0.690252 -0.254245 -0.113619 33 221 0
0.692735 -0.249174 -0.11461 36 218 0
0.697052 -0.245577 -0.11579 38 216 0
0.702796 -0.244931 -0.11693 41 213 0
0.708728 -0.245257 -0.117796 44 210 0
0.713799 -0.248302 -0.118017 47 207 0
0.717243 -0.25315 -0.117834 49 205 0
0.718739 -0.258933 -0.117386 52 202 0
0.718448 -0.264884 -0.116621 55 199 0
0.716372 -0.270351 -0.1156 58 196 0
0.713309 -0.275255 -0.114443 60 194 0
0.708275 -0.278103 -0.113142 63 191 0
0.702313 -0.278135 -0.112443 66 188 0
0.697032 -0.276789 -0.111993 69 185 0
0.692819 -0.272498 -0.111818 72 182 0
0.691519 -0.267225 -0.112088 74 180 0
0.691604 -0.261451 -0.112652 77 177 0
0.695779 -0.25751 -0.113549 80 174 0
0.700705 -0.25414 -0.114221 83 171 0
0.706492 -0.25517 -0.114823 85 169 0
0.712047 -0.257432 -0.115122 88 166 0
0.714917 -0.262079 -0.115178 91 163 0
0.718218 -0.267006 -0.114983 94 160 0
0.718402 -0.272987 -0.114375 97 157 0
0.717909 -0.278782 -0.113787 99 155 0
0.714557 -0.283447 -0.112946 102 152 0
0.709434 -0.286434 -0.111937 105 149 0
0.703915 -0.288666 -0.111264 108 146 0
0.698152 -0.287427 -0.110663 110 144 0
0.693227 -0.284046 -0.110446 113 141 0
0.69133 -0.278472 -0.110565 116 138 0
0.691993 -0.27264 -0.110976 119 135 0
0.695419 -0.267943 -0.111855 121 133 0
0.700908 -0.265597 -0.112614 124 130 0
0.706307 -0.266108 -0.113186 127 127 0
0.711396 -0.269309 -0.113361 130 124 0
0.716476 -0.272435 -0.113314 133 121 0
0.718697 -0.277916 -0.112942 135 119 0
0.718891 -0.283878 -0.11221 138 116 0
0.717572 -0.2895 -0.111429 141 113 0
0.714639 -0.294652 -0.110468 144 110 0
0.70991 -0.298149 -0.109696 146 108 0
0.703949 -0.298434 -0.108971 149 105 0
0.698232 -0.297148 -0.108356 152 102 0
0.69396 -0.293042 -0.10817 155 99 0
0.691335 -0.287689 -0.108468 157 97 0
0.691264 -0.281809 -0.10913 160 94 0
0.694941 -0.27724 -0.110123 163 91 0
0.700453 -0.276154 -0.110903 166 88 0
0.70644 -0.276465 -0.111433 169 85 0
0.711715 -0.278741 -0.111772 171 83 0
0.715374 -0.283213 -0.111733 174 80 0
0.718762 -0.288104 -0.111384 177 77 0
0.718906 -0.293891 -0.110561 180 74 0
0.717897 -0.299711 -0.109673 182 72 0
0.714426 -0.304041 -0.108574 185 69 0
0.709422 -0.307164 -0.107418 188 66 0
0.703792 -0.308262 -0.106361 191 63 0
0.697862 -0.30781 -0.105756 194 60 0
0.69339 -0.304058 -0.105522 196 58 0
0.691227 -0.298595 -0.105956 199 55 0
0.69117 -0.292942 -0.106861 202 52 0
0.694978 -0.288754 -0.107794 205 49 0
0.699935 -0.286105 -0.108859 207 47 0
0.70585 -0.286489 -0.10982 210 44 0
0.710678 -0.288879 -0.110398 213 41 0
0.715516 -0.292068 -0.110482 216 38 0
0.718723 -0.297144 -0.11016 218 36 0
0.718757 -0.303045 -0.109058 221 33 0
0.718435 -0.308956 -0.108043 224 30 0
0.715494 -0.313581 -0.106504 227 27 0
0.710799 -0.316614 -0.105031 230 24 0
0.705541 -0.318839 -0.103566 232 22 0
0.699649 -0.31855 -0.102429 235 19 0
0.694808 -0.315521 -0.102283 238 16 0
0.691711 -0.310763 -0.102955 241 13 0
0.690339 -0.305312 -0.103805 243 11 0
0.69215 -0.300558 -0.104727 246 8 0
0.695967 -0.298831 -0.105668 249 5 0
0.699433 -0.295948 -0.10647 252 2 0
0.704648 -0.296216 -0.107676 255 0 0
