ply
format ascii 1.0
comment Generated by robot_control PLYWriter
element vertex 48
property float x
property float y
property float z
property uchar red
property uchar green
property uchar blue
end_header
0.533237 0.212243 -0.160287 0 255 0
0.537719 0.209844 -0.15814 5 249 0
0.540391 0.206804 -0.154881 10 244 0
0.540522 0.201514 -0.152084 16 238 0
0.53972 0.195996 -0.150213 21 233 0
0.537114 0.19074 -0.149129 27 227 0
0.533083 0.186518 -0.149235 32 222 0
0.527743 0.184138 -0.150435 37 217 0
0.522053 0.183112 -0.151891 43 211 0
0.51703 0.184013 -0.154847 48 206 0
0.512317 0.186509 -0.157278 54 200 0
0.509174 0.19109 -0.159539 59 195 0
0.508346 0.196607 -0.161218 65 189 0
0.510774 0.201991 -0.162175 70 184 0
0.515422 0.205274 -0.162152 75 179 0
0.520373 0.207884 -0.160884 81 173 0
0.525851 0.20687 -0.158721 86 168 0
0.530232 0.203371 -0.156647 92 162 0
0.533669 0.199167 -0.154482 97 157 0
0.533438 0.193973 -0.15307 103 151 0
0.532205 0.188414 -0.151998 108 146 0
0.528651 0.184016 -0.151662 113 141 0
0.524487 0.179711 -0.152004 119 135 0
0.51877 0.178545 -0.152905 124 130 0
0.513018 0.178301 -0.154373 130 124 0
0.507865 0.180572 -0.156439 135 119 0
0.50382 0.184103 -0.158676 141 113 0
0.501862 0.189235 -0.1607 146 108 0
0.503808 0.194727 -0.162047 151 103 0
0.507377 0.198908 -0.16256 157 97 0
0.512564 0.201788 -0.161861 162 92 0
0.51792 0.201955 -0.160186 168 86 0
0.523092 0.200266 -0.157915 173 81 0
0.525714 0.195498 -0.155569 179 75 0
0.526881 0.190005 -0.153743 184 70 0
0.525723 0.184759 -0.15189 189 65 0
0.522144 0.17998 -0.151445 195 59 0
0.518096 0.175563 -0.151513 200 54 0
0.512683 0.173617 -0.152497 206 48 0
0.507032 0.173047 -0.154193 211 43 0
0.501906 0.17273 -0.156468 217 37 0
0.498237 0.175552 -0.159818 222 32 0
0.495009 0.179753 -0.162578 227 27 0
0.494852 0.185105 -0.16467 233 21 0
0.496362 0.190204 -0.165783 238 16 0
0.500006 0.193402 -0.166385 244 10 0
0.503876 0.196246 -0.166173 249 5 0
0.508273 0.196426 -0.16489 255 0 0
