ply
format ascii 1.0
comment Generated by robot_control PLYWriter
element vertex 32
property float x
property float y
property float z
property uchar red
property uchar green
property uchar blue
end_header
0.609484 0.0663019 -0.151515 0 255 0
0.61379 0.0636084 -0.148791 8 246 0
0.617129 0.0611599 -0.145981 16 238 0
0.621647 0.0585056 -0.143488 24 230 0
0.622861 0.0531465 -0.141135 32 222 0
0.623002 0.0473441 -0.139487 41 213 0
0.619186 0.0429943 -0.138377 49 205 0
0.614712 0.0392027 -0.138362 57 197 0
0.608929 0.0376747 -0.139209 65 189 0
0.603811 0.0383017 -0.140951 74 180 0
0.60019 0.0427196 -0.142963 82 172 0
0.598652 0.0482433 -0.144678 90 164 0
0.599663 0.0540855 -0.145615 98 156 0
0.603206 0.0586629 -0.14609 106 148 0
0.608412 0.0617544 -0.146136 115 139 0
0.614203 0.0635216 -0.145683 123 131 0
0.619953 0.0640074 -0.144745 131 123 0
0.625158 0.0611094 -0.143532 139 115 0
0.629945 0.0578693 -0.141953 148 106 0
0.632486 0.0529137 -0.139999 156 98 0
0.632658 0.0471126 -0.138275 164 90 0
0.631422 0.0416398 -0.136629 172 82 0
0.627476 0.03712 -0.136037 180 74 0
0.621699 0.0362452 -0.13612 189 65 0
0.615695 0.0363928 -0.136946 197 57 0
0.610895 0.0395585 -0.13864 205 49 0
0.608573 0.0447341 -0.140235 213 41 0
0.610234 0.0500012 -0.141975 222 32 0
0.611783 0.0554458 -0.143362 230 24 0
0.616817 0.0585002 -0.144269 238 16 0
0.621818 0.061022 -0.144297 246 8 0
0.627158 0.0616197 -0.143163 255 0 0
