ply
format ascii 1.0
comment Generated by robot_control PLYWriter
element vertex 14
property float x
property float y
property float z
property uchar red
property uchar green
property uchar blue
end_header
0.543705 -0.20296 -0.0387816 0 255 0
0.543859 -0.198249 -0.037841 19 235 0
0.54418 -0.193522 -0.0370283 39 215 0
0.544362 -0.188753 -0.0364507 58 196 0
0.544392 -0.183956 -0.0361968 78 176 0
0.544487 -0.179153 -0.0362527 98 156 0
0.544714 -0.174361 -0.0365479 117 137 0
0.545013 -0.16958 -0.0369568 137 117 0
0.545273 -0.164802 -0.0374217 156 98 0
0.54549 -0.160028 -0.0379445 176 78 0
0.545708 -0.155259 -0.0385135 196 58 0
0.545808 -0.150511 -0.0392348 215 39 0
0.546029 -0.145844 -0.0403586 235 19 0
0.546468 -0.141091 -0.0408294 255 0 0
