ply
format ascii 1.0
comment Generated by robot_control PLYWriter
element vertex 9
property float x
property float y
property float z
property uchar red
property uchar green
property uchar blue
end_header
0.609084 -0.152543 -0.140384 0 255 0
0.609775 -0.157149 -0.139645 31 223 0
0.610488 -0.161779 -0.139014 63 191 0
0.611336 -0.166403 -0.138525 95 159 0
0.612041 -0.171059 -0.138135 127 127 0
0.612639 -0.175738 -0.137797 159 95 0
0.613219 -0.180419 -0.137458 191 63 0
0.613704 -0.185106 -0.137067 223 31 0
0.61401 -0.189801 -0.136622 255 0 0
