ply
format ascii 1.0
comment Generated by robot_control PLYWriter
element vertex 15
property float x
property float y
property float z
property uchar red
property uchar green
property uchar blue
end_header
0.492968 0.0390395 -0.113472 0 255 0
0.492836 0.0440775 -0.114472 18 236 0
0.492365 0.0491333 -0.115253 36 218 0
0.49206 0.0541922 -0.116103 54 200 0
0.491743 0.0592399 -0.117012 72 182 0
0.49142 0.0642824 -0.117948 91 163 0
0.491129 0.0693315 -0.118859 109 145 0
0.490912 0.0743873 -0.119752 127 127 0
0.490665 0.0794308 -0.120705 145 109 0
0.490279 0.0844578 -0.121698 163 91 0
0.490055 0.0894876 -0.122726 182 72 0
0.489892 0.0944949 -0.123869 200 54 0
0.489732 0.0994979 -0.125032 218 36 0
0.48958 0.104509 -0.126161 236 18 0
0.489245 0.109497 -0.127339 255 0 0
