ply
format ascii 1.0
comment Generated by robot_control PLYWriter
element vertex 129
property float x
property float y
property float z
property uchar red
property uchar green
property uchar blue
end_header
0.512954 0.153701 -0.136625 0 255 0
0.516368 0.151846 -0.135428 1 253 0
0.51935 0.148643 -0.133923 3 251 0
0.521811 0.145112 -0.132173 5 249 0
0.524284 0.141635 -0.129783 7 247 0
0.524553 0.13616 -0.127644 9 245 0
0.522523 0.132474 -0.124984 11 243 0
0.520262 0.127316 -0.123456 13 241 0
0.515881 0.123644 -0.122485 15 239 0
0.510679 0.121232 -0.122422 17 237 0
0.50483 0.122085 -0.123234 19 235 0
0.499443 0.123268 -0.125355 21 233 0
0.496011 0.126772 -0.127439 23 231 0
0.494741 0.131773 -0.129378 25 229 0
0.495804 0.137292 -0.13095 27 227 0
0.499466 0.141461 -0.131931 29 225 0
0.504993 0.143633 -0.131823 31 223 0
0.510651 0.144015 -0.131065 33 221 0
0.515976 0.141738 -0.129742 35 219 0
0.519992 0.138078 -0.12749 37 217 0
0.523019 0.133436 -0.125202 39 215 0
0.524493 0.128119 -0.123067 41 213 0
0.522999 0.122589 -0.121482 43 211 0
0.520361 0.11784 -0.119815 45 209 0
0.516716 0.113518 -0.118832 47 207 0
0.511002 0.1119 -0.118549 49 205 0
0.505075 0.112252 -0.119076 51 203 0
0.499837 0.113281 -0.120389 53 201 0
0.495979 0.117379 -0.122349 55 199 0
0.494678 0.122775 -0.124004 57 197 0
0.495737 0.128225 -0.125587 59 195 0
0.500415 0.131826 -0.126236 61 193 0
0.505779 0.133983 -0.126158 63 191 0
0.511756 0.134052 -0.125524 65 189 0
0.517202 0.1326 -0.123949 67 187 0
0.521331 0.128588 -0.122424 69 185 0
0.524263 0.123666 -0.120751 71 183 0
0.524941 0.118123 -0.11874 73 181 0
0.524622 0.112349 -0.117509 75 179 0
0.521163 0.107761 -0.116273 77 177 0
0.516159 0.104559 -0.115451 79 175 0
0.511295 0.101064 -0.115165 81 173 0
0.505455 0.101267 -0.115566 83 171 0
0.500415 0.103641 -0.116499 85 169 0
0.496325 0.107585 -0.117972 87 167 0
0.495162 0.113285 -0.119058 89 165 0
0.496954 0.118602 -0.120088 91 163 0
0.501448 0.122573 -0.120443 93 161 0
0.506926 0.125042 -0.120323 95 159 0
0.512515 0.12436 -0.119914 97 157 0
0.517638 0.121448 -0.119025 99 155 0
0.521833 0.117458 -0.117571 101 153 0
0.525093 0.112637 -0.116463 103 151 0
0.524959 0.106867 -0.114882 105 149 0
0.523144 0.101349 -0.113695 107 147 0
0.519901 0.0963658 -0.112907 109 145 0
0.515428 0.0924409 -0.112491 111 143 0
0.509688 0.0915755 -0.112418 113 141 0
0.503828 0.0924352 -0.112792 115 139 0
0.498951 0.0957886 -0.113705 117 137 0
0.496725 0.101127 -0.114716 119 135 0
0.496787 0.107079 -0.115489 121 133 0
0.500285 0.111209 -0.115947 123 131 0
0.504564 0.114762 -0.116018 125 129 0
0.510541 0.114209 -0.115719 127 127 0
0.516463 0.113359 -0.115141 129 125 0
0.521377 0.110414 -0.114398 131 123 0
0.524101 0.105317 -0.113492 133 121 0
0.524633 0.0995049 -0.112262 135 119 0
0.524084 0.0937068 -0.111223 137 117 0
0.521655 0.0882619 -0.110586 139 115 0
0.517866 0.0840133 -0.110089 141 113 0
0.51223 0.0819377 -0.109939 143 111 0
0.506362 0.0817526 -0.110135 145 109 0
0.500668 0.0836427 -0.11052 147 107 0
0.49693 0.0880383 -0.111464 149 105 0
0.497754 0.0938301 -0.112072 151 103 0
0.498899 0.0996946 -0.112731 153 101 0
0.503219 0.10285 -0.112959 155 99 0
0.508638 0.10544 -0.112875 157 97 0
0.514482 0.105206 -0.112377 159 95 0
0.519003 0.101824 -0.111772 161 93 0
0.523266 0.097797 -0.111004 163 91 0
0.526038 0.0928329 -0.110206 165 89 0
0.526344 0.0870639 -0.109151 167 87 0
0.524001 0.0815731 -0.108457 169 85 0
0.520997 0.0766924 -0.107951 171 83 0
0.515971 0.073404 -0.107737 173 81 0
0.510464 0.0711123 -0.107849 175 79 0
0.504578 0.071484 -0.108104 177 77 0
0.499457 0.0745816 -0.108601 179 75 0
0.496707 0.0796655 -0.10929 181 73 0
0.497227 0.0854519 -0.109954 183 71 0
0.500839 0.0901275 -0.110546 185 69 0
0.50436 0.0947052 -0.110631 187 67 0
0.510167 0.0956543 -0.110394 189 65 0
0.516001 0.0949632 -0.10979 191 63 0
0.521234 0.0921709 -0.10914 193 61 0
0.524462 0.0873509 -0.108214 195 59 0
0.526954 0.0820888 -0.107502 197 57 0
0.526374 0.0761696 -0.10677 199 55 0
0.524995 0.0703512 -0.106181 201 53 0
0.520888 0.0664083 -0.105817 203 51 0
0.516416 0.0624219 -0.105652 205 49 0
0.510793 0.0612442 -0.105783 207 47 0
0.504978 0.0623474 -0.106295 209 45 0
0.500005 0.0654762 -0.107087 211 43 0
0.496925 0.0703483 -0.107938 213 41 0
0.49721 0.0762669 -0.108553 215 39 0
0.500018 0.081391 -0.108837 217 37 0
0.505262 0.0842265 -0.10895 219 35 0
0.511111 0.0849206 -0.108637 221 33 0
0.51679 0.0842757 -0.107938 223 31 0
0.521544 0.0808015 -0.107014 225 29 0
0.524726 0.0758572 -0.106003 227 27 0
0.526571 0.0704573 -0.105092 229 25 0
0.526516 0.065003 -0.104466 231 23 0
0.525015 0.0595036 -0.103927 233 21 0
0.520597 0.0554899 -0.103782 235 19 0
0.515608 0.0530189 -0.104035 237 17 0
0.510115 0.0513761 -0.104565 239 15 0
0.504656 0.0532151 -0.105385 241 13 0
0.499926 0.0557323 -0.106267 243 11 0
0.497828 0.0607756 -0.106992 245 9 0
0.497239 0.0665742 -0.107424 247 7 0
0.500005 0.0698674 -0.107527 249 5 0
0.503569 0.0729846 -0.107546 251 3 0
0.508372 0.0746886 -0.107485 253 1 0
0.512956 0.0774469 -0.107513 255 0 0
