ply
format ascii 1.0
comment Generated by robot_control PLYWriter
element vertex 9
property float x
property float y
property float z
property uchar red
property uchar green
property uchar blue
end_header
0.502773 0.00296167 -0.09347 0 255 0
0.502726 0.00774025 -0.0937801 31 223 0
0.502705 0.012515 -0.0941484 63 191 0
0.502665 0.0172852 -0.0945687 95 159 0
0.502431 0.0220334 -0.0951223 127 127 0
0.502079 0.0267544 -0.0958377 159 95 0
0.501752 0.0314578 -0.0966761 191 63 0
0.501456 0.0361535 -0.0975649 223 31 0
0.500861 0.0407946 -0.0985761 255 0 0
