ply
format ascii 1.0
comment Generated by robot_control PLYWriter
element vertex 39
property float x
property float y
property float z
property uchar red
property uchar green
property uchar blue
end_header
0.644752 0.202784 -0.145547 0 255 0
0.648354 0.199535 -0.144249 6 248 0
0.649127 0.194694 -0.142715 13 241 0
0.647525 0.189744 -0.141207 20 234 0
0.642344 0.187185 -0.140204 26 228 0
0.63744 0.18474 -0.139629 33 221 0
0.632495 0.186947 -0.139683 40 214 0
0.62723 0.1888 -0.140226 46 208 0
0.622749 0.192511 -0.141192 53 201 0
0.622084 0.198208 -0.142802 60 194 0
0.622207 0.204101 -0.143996 67 187 0
0.62544 0.208124 -0.145311 73 181 0
0.630318 0.211087 -0.145948 80 174 0
0.636271 0.210643 -0.146324 87 167 0
0.641065 0.207401 -0.145823 93 161 0
0.640933 0.201579 -0.144617 100 154 0
0.639679 0.1963 -0.143739 107 147 0
0.634609 0.193302 -0.142807 114 140 0
0.62881 0.192084 -0.142396 120 134 0
0.623174 0.193474 -0.142399 127 127 0
0.618368 0.196715 -0.142929 134 120 0
0.615889 0.202076 -0.143836 140 114 0
0.614603 0.207544 -0.14516 147 107 0
0.615824 0.212924 -0.146574 154 100 0
0.62021 0.216864 -0.147684 161 93 0
0.625696 0.219091 -0.148406 167 87 0
0.630995 0.216905 -0.148559 174 80 0
0.634405 0.212511 -0.147811 181 73 0
0.634075 0.206603 -0.146771 187 67 0
0.630092 0.20245 -0.145295 194 60 0
0.624938 0.20024 -0.144379 201 53 0
0.618945 0.2003 -0.143958 208 46 0
0.613481 0.202508 -0.144059 214 40 0
0.609058 0.205832 -0.145001 221 33 0
0.607672 0.211152 -0.146076 228 26 0
0.607083 0.21664 -0.147722 234 20 0
0.608836 0.22071 -0.149354 241 13 0
0.612297 0.223633 -0.151035 248 6 0
0.616574 0.224786 -0.15217 255 0 0
