ply
format ascii 1.0
comment Generated by robot_control PLYWriter
element vertex 45
property float x
property float y
property float z
property uchar red
property uchar green
property uchar blue
end_header
0.650493 0.141996 -0.179006 0 255 0
0.655685 0.140838 -0.178195 5 249 0
0.659044 0.137109 -0.176717 11 243 0
0.662528 0.134084 -0.174849 17 237 0
0.664049 0.129119 -0.172725 23 231 0
0.664415 0.123746 -0.170407 28 226 0
0.662375 0.118538 -0.169354 34 220 0
0.657806 0.115158 -0.168318 40 214 0
0.65188 0.115095 -0.168072 46 208 0
0.645995 0.114953 -0.168704 52 202 0
0.642507 0.119495 -0.170192 57 197 0
0.641103 0.124966 -0.17161 63 191 0
0.64347 0.130231 -0.172664 69 185 0
0.64824 0.133388 -0.173569 75 179 0
0.653528 0.135681 -0.17368 81 173 0
0.659126 0.134546 -0.173313 86 168 0
0.66443 0.132023 -0.172569 92 162 0
0.669372 0.129102 -0.171344 98 156 0
0.670856 0.123468 -0.170224 104 150 0
0.670523 0.117823 -0.168517 110 144 0
0.668406 0.112835 -0.167062 115 139 0
0.664359 0.108593 -0.166315 121 133 0
0.658917 0.10719 -0.165869 127 127 0
0.653206 0.108665 -0.165885 133 121 0
0.648203 0.111729 -0.166605 139 115 0
0.646109 0.116835 -0.167658 144 110 0
0.649457 0.121494 -0.168839 150 104 0
0.653509 0.125667 -0.169943 156 98 0
0.658857 0.127517 -0.170215 162 92 0
0.664765 0.127115 -0.170058 168 86 0
0.670458 0.125824 -0.169438 173 81 0
0.674919 0.122386 -0.168277 179 75 0
0.676918 0.117002 -0.167003 185 69 0
0.677089 0.111487 -0.164988 191 63 0
0.675728 0.105993 -0.163579 197 57 0
0.671836 0.101849 -0.162361 202 52 0
0.666152 0.101365 -0.161217 208 46 0
0.66022 0.101357 -0.161141 214 40 0
0.656751 0.103647 -0.162033 220 34 0
0.654314 0.106825 -0.16325 226 28 0
0.652823 0.11216 -0.164579 231 23 0
0.655303 0.115832 -0.16647 237 17 0
0.658393 0.11936 -0.167926 243 11 0
0.663213 0.120796 -0.168827 249 5 0
0.668895 0.12075 -0.169302 255 0 0
