ply
format ascii 1.0
comment Generated by robot_control PLYWriter
element vertex 200
property float x
property float y
property float z
property uchar red
property uchar green
property uchar blue
end_header
0.702735 -0.280045 -0.0938778 0 255 0
0.702735 -0.280045 -0.0938778 1 253 0
0.702735 -0.280045 -0.0938778 2 252 0
0.702735 -0.280045 -0.0938778 3 251 0
0.702735 -0.280045 -0.0938778 5 249 0
0.702735 -0.280045 -0.0938778 6 248 0
0.702735 -0.280045 -0.0938778 7 247 0
0.702735 -0.280045 -0.0938778 8 246 0
0.702735 -0.280045 -0.0938778 10 244 0
0.702735 -0.280045 -0.0938778 11 243 0
0.702735 -0.280045 -0.0938778 12 242 0
0.702735 -0.280045 -0.0938778 14 240 0
0.702735 -0.280045 -0.0938778 15 239 0
0.702735 -0.280045 -0.0938778 16 238 0
0.702735 -0.280045 -0.0938778 17 237 0
0.702735 -0.280045 -0.0938778 19 235 0
0.702735 -0.280045 -0.0938778 20 234 0
0.702735 -0.280045 -0.0938778 21 233 0
0.702735 -0.280045 -0.0938778 23 231 0
0.702735 -0.280045 -0.0938778 24 230 0
0.702735 -0.280045 -0.0938778 25 229 0
0.702735 -0.280045 -0.0938778 26 228 0
0.702735 -0.280045 -0.0938778 28 226 0
0.702735 -0.280045 -0.0938778 29 225 0
0.702735 -0.280045 -0.0938778 30 224 0
0.702735 -0.280045 -0.0938778 32 222 0
0.702735 -0.280045 -0.0938778 33 221 0
0.702735 -0.280045 -0.0938778 34 220 0
0.702735 -0.280045 -0.0938778 35 219 0
0.702735 -0.280045 -0.0938778 37 217 0
0.702735 -0.280045 -0.0938778 38 216 0
0.702735 -0.280045 -0.0938778 39 215 0
0.702735 -0.280045 -0.0938778 41 213 0
0.702735 -0.280045 -0.0938778 42 212 0
0.702735 -0.280045 -0.0938778 43 211 0
0.702735 -0.280045 -0.0938778 44 210 0
0.702735 -0.280045 -0.0938778 46 208 0
0.702735 -0.280045 -0.0938778 47 207 0
0.702735 -0.280045 -0.0938778 48 206 0
0.702735 -0.280045 -0.0938778 49 205 0
0.702735 -0.280045 -0.0938778 51 203 0
0.702735 -0.280045 -0.0938778 52 202 0
0.702735 -0.280045 -0.0938778 53 201 0
0.702735 -0.280045 -0.0938778 55 199 0
0.702735 -0.280045 -0.0938778 56 198 0
0.702735 -0.280045 -0.0938778 57 197 0
0.702735 -0.280045 -0.0938778 58 196 0
0.702735 -0.280045 -0.0938778 60 194 0
0.702735 -0.280045 -0.0938778 61 193 0
0.702735 -0.280045 -0.0938778 62 192 0
0.702735 -0.280045 -0.0938778 64 190 0
0.702735 -0.280045 -0.0938778 65 189 0
0.702735 -0.280045 -0.0938778 66 188 0
0.702735 -0.280045 -0.0938778 67 187 0
0.702735 -0.280045 -0.0938778 69 185 0
0.702735 -0.280045 -0.0938778 70 184 0
0.702735 -0.280045 -0.0938778 71 183 0
0.702735 -0.280045 -0.0938778 73 181 0
0.702735 -0.280045 -0.0938778 74 180 0
0.702735 -0.280045 -0.0938778 75 179 0
0.702735 -0.280045 -0.0938778 76 178 0
0.702735 -0.280045 -0.0938778 78 176 0
0.702735 -0.280045 -0.0938778 79 175 0
0.702735 -0.280045 -0.0938778 80 174 0
0.702735 -0.280045 -0.0938778 82 172 0
0.702735 -0.280045 -0.0938778 83 171 0
0.702735 -0.280045 -0.0938778 84 170 0
0.702735 -0.280045 -0.0938778 85 169 0
0.702735 -0.280045 -0.0938778 87 167 0
0.702735 -0.280045 -0.0938778 88 166 0
0.702735 -0.280045 -0.0938778 89 165 0
0.702735 -0.280045 -0.0938778 90 164 0
0.702735 -0.280045 -0.0938778 92 162 0
0.702735 -0.280045 -0.0938778 93 161 0
0.702735 -0.280045 -0.0938778 94 160 0
0.702735 -0.280045 -0.0938778 96 158 0
0.702735 -0.280045 -0.0938778 97 157 0
0.702735 -0.280045 -0.0938778 98 156 0
0.702735 -0.280045 -0.0938778 99 155 0
0.702735 -0.280045 -0.0938778 101 153 0
0.702735 -0.280045 -0.0938778 102 152 0
0.702735 -0.280045 -0.0938778 103 151 0
0.702735 -0.280045 -0.0938778 105 149 0
0.702735 -0.280045 -0.0938778 106 148 0
0.702735 -0.280045 -0.0938778 107 147 0
0.702735 -0.280045 -0.0938778 108 146 0
0.702735 -0.280045 -0.0938778 110 144 0
0.702735 -0.280045 -0.0938778 111 143 0
0.702735 -0.280045 -0.0938778 112 142 0
0.702735 -0.280045 -0.0938778 114 140 0
0.702735 -0.280045 -0.0938778 115 139 0
0.702735 -0.280045 -0.0938778 116 138 0
0.702735 -0.280045 -0.0938778 117 137 0
0.702735 -0.280045 -0.0938778 119 135 0
0.702735 -0.280045 -0.0938778 120 134 0
0.702735 -0.280045 -0.0938778 121 133 0
0.702735 -0.280045 -0.0938778 123 131 0
0.702735 -0.280045 -0.0938778 124 130 0
0.702735 -0.280045 -0.0938778 125 129 0
0.702735 -0.280045 -0.0938778 126 128 0
0.702735 -0.280045 -0.0938778 128 126 0
0.702735 -0.280045 -0.0938778 129 125 0
0.702735 -0.280045 -0.0938778 130 124 0
0.702735 -0.280045 -0.0938778 131 123 0
0.702735 -0.280045 -0.0938778 133 121 0
0.702735 -0.280045 -0.0938778 134 120 0
0.702735 -0.280045 -0.0938778 135 119 0
0.702735 -0.280045 -0.0938778 137 117 0
0.702735 -0.280045 -0.0938778 138 116 0
0.702735 -0.280045 -0.0938778 139 115 0
0.702735 -0.280045 -0.0938778 140 114 0
0.702735 -0.280045 -0.0938778 142 112 0
0.702735 -0.280045 -0.0938778 143 111 0
0.702735 -0.280045 -0.0938778 144 110 0
0.702735 -0.280045 -0.0938778 146 108 0
0.702735 -0.280045 -0.0938778 147 107 0
0.702735 -0.280045 -0.0938778 148 106 0
0.702735 -0.280045 -0.0938778 149 105 0
0.702735 -0.280045 -0.0938778 151 103 0
0.702735 -0.280045 -0.0938778 152 102 0
0.702735 -0.280045 -0.0938778 153 101 0
0.702735 -0.280045 -0.0938778 155 99 0
0.702735 -0.280045 -0.0938778 156 98 0
0.702735 -0.280045 -0.0938778 157 97 0
0.702735 -0.280045 -0.0938778 158 96 0
0.702735 -0.280045 -0.0938778 160 94 0
0.702735 -0.280045 -0.0938778 161 93 0
0.702735 -0.280045 -0.0938778 162 92 0
0.702735 -0.280045 -0.0938778 164 90 0
0.702735 -0.280045 -0.0938778 165 89 0
0.702735 -0.280045 -0.0938778 166 88 0
0.702735 -0.280045 -0.0938778 167 87 0
0.702735 -0.280045 -0.0938778 169 85 0
0.702735 -0.280045 -0.0938778 170 84 0
0.702735 -0.280045 -0.0938778 171 83 0
0.702735 -0.280045 -0.0938778 172 82 0
0.702735 -0.280045 -0.0938778 174 80 0
0.702735 -0.280045 -0.0938778 175 79 0
0.702735 -0.280045 -0.0938778 176 78 0
0.702735 -0.280045 -0.0938778 178 76 0
0.702735 -0.280045 -0.0938778 179 75 0
0.702735 -0.280045 -0.0938778 180 74 0
0.702735 -0.280045 -0.0938778 181 73 0
0.702735 -0.280045 -0.0938778 183 71 0
0.702735 -0.280045 -0.0938778 184 70 0
0.702735 -0.280045 -0.0938778 185 69 0
0.702735 -0.280045 -0.0938778 187 67 0
0.702735 -0.280045 -0.0938778 188 66 0
0.702735 -0.280045 -0.0938778 189 65 0
0.702735 -0.280045 -0.0938778 190 64 0
0.702735 -0.280045 -0.0938778 192 62 0
0.702735 -0.280045 -0.0938778 193 61 0
0.702735 -0.280045 -0.0938778 194 60 0
0.702735 -0.280045 -0.0938778 196 58 0
0.702735 -0.280045 -0.0938778 197 57 0
0.702735 -0.280045 -0.0938778 198 56 0
0.702735 -0.280045 -0.0938778 199 55 0
0.702735 -0.280045 -0.0938778 201 53 0
0.702735 -0.280045 -0.0938778 202 52 0
0.702735 -0.280045 -0.0938778 203 51 0
0.702735 -0.280045 -0.0938778 205 49 0
0.702735 -0.280045 -0.0938778 206 48 0
0.702735 -0.280045 -0.0938778 207 47 0
0.702735 -0.280045 -0.0938778 208 46 0
0.702735 -0.280045 -0.0938778 210 44 0
0.702735 -0.280045 -0.0938778 211 43 0
0.702735 -0.280045 -0.0938778 212 42 0
0.702735 -0.280045 -0.0938778 213 41 0
0.702735 -0.280045 -0.0938778 215 39 0
0.702735 -0.280045 -0.0938778 216 38 0
0.702735 -0.280045 -0.0938778 217 37 0
0.702735 -0.280045 -0.0938778 219 35 0
0.702735 -0.280045 -0.0938778 220 34 0
0.702735 -0.280045 -0.0938778 221 33 0
0.702735 -0.280045 -0.0938778 222 32 0
0.702735 -0.280045 -0.0938778 224 30 0
0.702735 -0.280045 -0.0938778 225 29 0
0.702735 -0.280045 -0.0938778 226 28 0
0.702735 -0.280045 -0.0938778 228 26 0
0.702735 -0.280045 -0.0938778 229 25 0
0.702735 -0.280045 -0.0938778 230 24 0
0.702735 -0.280045 -0.0938778 231 23 0
0.702735 -0.280045 -0.0938778 233 21 0
0.702735 -0.280045 -0.0938778 234 20 0
0.702735 -0.280045 -0.0938778 235 19 0
0.702735 -0.280045 -0.0938778 237 17 0
0.702735 -0.280045 -0.0938778 238 16 0
0.702735 -0.280045 -0.0938778 239 15 0
0.702735 -0.280045 -0.0938778 240 14 0
0.702735 -0.280045 -0.0938778 242 12 0
0.702735 -0.280045 -0.0938778 243 11 0
0.702735 -0.280045 -0.0938778 244 10 0
0.702735 -0.280045 -0.0938778 246 8 0
0.702735 -0.280045 -0.0938778 247 7 0
0.702735 -0.280045 -0.0938778 248 6 0
0.702735 -0.280045 -0.0938778 249 5 0
0.702735 -0.280045 -0.0938778 251 3 0
0.702735 -0.280045 -0.0938778 252 2 0
0.702735 -0.280045 -0.0938778 253 1 0
0.702735 -0.280045 -0.0938778 255 0 0
