ply
format ascii 1.0
comment Generated by robot_control PLYWriter
element vertex 9
property float x
property float y
property float z
property uchar red
property uchar green
property uchar blue
end_header
0.502834 0.0701675 -0.125176 0 255 0
0.502179 0.0749167 -0.125762 31 223 0
0.501803 0.0797016 -0.126321 63 191 0
0.501437 0.0844702 -0.127007 95 159 0
0.500921 0.0892166 -0.12774 127 127 0
0.500369 0.0939627 -0.128448 159 95 0
0.499993 0.0987275 -0.129157 191 63 0
0.499566 0.103475 -0.129948 223 31 0
0.498857 0.108199 -0.130657 255 0 0
