ply
format ascii 1.0
comment Generated by robot_control PLYWriter
element vertex 14
property float x
property float y
property float z
property uchar red
property uchar green
property uchar blue
end_header
0.664803 0.0429606 -0.041289 0 255 0
0.664731 0.0380448 -0.0406573 19 235 0
0.664875 0.0331387 -0.0399838 39 215 0
0.664886 0.0282287 -0.0393065 58 196 0
0.664919 0.023324 -0.0385915 78 176 0
0.664962 0.0184144 -0.0379225 98 156 0
0.665266 0.0135004 -0.037349 117 137 0
0.665543 0.0085821 -0.0367988 137 117 0
0.665854 0.00366391 -0.0362666 156 98 0
0.666009 -0.00127148 -0.0358405 176 78 0
0.666244 -0.00621594 -0.0356109 196 58 0
0.666495 -0.0111652 -0.0355371 215 39 0
0.666884 -0.0161019 -0.0354226 235 19 0
0.666887 -0.0210557 -0.035309 255 0 0
