ply
format ascii 1.0
comment Generated by robot_control PLYWriter
element vertex 14
property float x
property float y
property float z
property uchar red
property uchar green
property uchar blue
end_header
0.637705 0.0513727 -0.012391 0 255 0
0.637922 0.0475155 -0.0156198 19 235 0
0.638011 0.0439749 -0.0192248 39 215 0
0.638426 0.0398644 -0.02211 58 196 0
0.638871 0.0357378 -0.0249928 78 176 0
0.639208 0.0316368 -0.0279267 98 156 0
0.639392 0.0274639 -0.0307742 117 137 0
0.639631 0.0232031 -0.0334844 137 117 0
0.639886 0.0185961 -0.0355242 156 98 0
0.640164 0.0136835 -0.0365436 176 78 0
0.640464 0.00865432 -0.0368477 196 58 0
0.640752 0.00360774 -0.0368444 215 39 0
0.640921 -0.00144323 -0.036759 235 19 0
0.641078 -0.0064932 -0.0365914 255 0 0
