ply
format ascii 1.0
comment Generated by robot_control PLYWriter
element vertex 14
property float x
property float y
property float z
property uchar red
property uchar green
property uchar blue
end_header
0.558727 -0.133063 -0.0405307 0 255 0
0.558834 -0.13798 -0.0407372 19 235 0
0.559243 -0.142884 -0.0408432 39 215 0
0.559534 -0.1478 -0.0407907 58 196 0
0.559833 -0.152715 -0.0407114 78 176 0
0.560126 -0.157631 -0.0407201 98 156 0
0.560408 -0.162546 -0.0408102 117 137 0
0.560713 -0.16746 -0.0409414 137 117 0
0.56108 -0.172367 -0.0411414 156 98 0
0.561077 -0.177278 -0.0415163 176 78 0
0.561312 -0.182178 -0.0419435 196 58 0
0.561505 -0.187081 -0.0423641 215 39 0
0.56171 -0.191961 -0.0429749 235 19 0
0.562051 -0.196827 -0.0436522 255 0 0
