ply
format ascii 1.0
comment Generated by robot_control PLYWriter
element vertex 11
property float x
property float y
property float z
property uchar red
property uchar green
property uchar blue
end_header
0.62907 -0.317259 -0.09259 0 255 0
0.628919 -0.321603 -0.094548 25 229 0
0.628876 -0.326024 -0.09633 51 204 0
0.628846 -0.330493 -0.09799 76 178 0
0.628798 -0.335021 -0.0994745 102 153 0
0.628722 -0.339616 -0.100737 127 127 0
0.628634 -0.344266 -0.101783 153 101 0
0.628556 -0.34895 -0.102665 178 76 0
0.628452 -0.353677 -0.103258 204 50 0
0.62831 -0.358437 -0.10347 229 25 0
0.628224 -0.363192 -0.103739 255 0 0
