ply
format ascii 1.0
comment Generated by robot_control PLYWriter
element vertex 206
property float x
property float y
property float z
property uchar red
property uchar green
property uchar blue
end_header
0.704348 -0.366316 -0.087491 0 255 0
0.709245 -0.368106 -0.0879667 1 253 0
0.712755 -0.371898 -0.0880655 2 252 0
0.714329 -0.376099 -0.0879116 3 251 0
0.714505 -0.379939 -0.0876216 4 250 0
0.712572 -0.384802 -0.0869792 6 248 0
0.709002 -0.388045 -0.0863138 7 247 0
0.703876 -0.389821 -0.0856206 8 246 0
0.69824 -0.390179 -0.0851672 9 245 0
0.694534 -0.387627 -0.0848762 11 243 0
0.690502 -0.384879 -0.0847007 12 242 0
0.687843 -0.379795 -0.0847819 13 241 0
0.686634 -0.374359 -0.0851199 14 240 0
0.68693 -0.368554 -0.0859689 16 238 0
0.689627 -0.363852 -0.0870262 17 237 0
0.693427 -0.35938 -0.0882306 18 236 0
0.698139 -0.356409 -0.0893419 19 235 0
0.704007 -0.355984 -0.0902518 21 233 0
0.709344 -0.357938 -0.0906091 22 232 0
0.713883 -0.361362 -0.0903006 23 231 0
0.715274 -0.366803 -0.0896002 24 230 0
0.714948 -0.372123 -0.0884374 26 228 0
0.710983 -0.376428 -0.0871647 27 227 0
0.705937 -0.378717 -0.0861602 28 226 0
0.70105 -0.380321 -0.085593 29 225 0
0.695909 -0.377357 -0.0853917 31 223 0
0.691362 -0.373603 -0.0857067 32 222 0
0.688617 -0.368408 -0.0864072 33 221 0
0.686305 -0.363338 -0.0875281 34 220 0
0.68851 -0.35872 -0.0889529 36 218 0
0.689968 -0.353587 -0.090306 37 217 0
0.693837 -0.349453 -0.0920121 38 216 0
0.698358 -0.346348 -0.0933222 39 215 0
0.704204 -0.34619 -0.0942248 41 213 0
0.709767 -0.347432 -0.0944559 42 212 0
0.713813 -0.351794 -0.0940376 43 211 0
0.715534 -0.357182 -0.092649 44 210 0
0.715093 -0.362957 -0.0911163 46 208 0
0.711836 -0.367567 -0.0897303 47 207 0
0.706566 -0.369239 -0.0883325 48 206 0
0.701312 -0.369333 -0.0878542 49 205 0
0.695897 -0.367465 -0.0879341 51 204 0
0.691548 -0.363492 -0.0885982 52 202 0
0.688692 -0.358378 -0.0898045 53 201 0
0.688236 -0.352657 -0.0914368 54 200 0
0.688478 -0.346948 -0.0932363 55 199 0
0.690988 -0.341751 -0.0946395 57 197 0
0.695254 -0.337897 -0.0962711 58 196 0
0.700506 -0.336744 -0.0975951 59 195 0
0.706445 -0.336984 -0.0982907 60 194 0
0.711968 -0.338857 -0.0982464 62 192 0
0.715756 -0.343411 -0.0974434 63 191 0
0.715907 -0.348825 -0.0961452 64 190 0
0.714291 -0.354179 -0.0945997 65 189 0
0.710764 -0.358221 -0.0934258 67 187 0
0.704985 -0.358818 -0.092457 68 186 0
0.699021 -0.358515 -0.0920252 69 185 0
0.693803 -0.355672 -0.0922947 70 184 0
0.689878 -0.351279 -0.0929282 72 182 0
0.687789 -0.345844 -0.0940844 73 181 0
0.68911 -0.34038 -0.0955441 74 180 0
0.689576 -0.334576 -0.0968233 75 179 0
0.692972 -0.329983 -0.0985053 77 177 0
0.69772 -0.326693 -0.0997082 78 176 0
0.703435 -0.325172 -0.100468 79 175 0
0.708937 -0.327037 -0.100915 80 174 0
0.713444 -0.330936 -0.100778 82 172 0
0.717023 -0.33545 -0.100058 83 171 0
0.715857 -0.341055 -0.0990978 84 170 0
0.712909 -0.346162 -0.0980844 85 169 0
0.708157 -0.34903 -0.0972819 87 167 0
0.702297 -0.348527 -0.0968501 88 166 0
0.696641 -0.346887 -0.0965849 89 165 0
0.692093 -0.343169 -0.0966951 90 164 0
0.689876 -0.337683 -0.0972307 92 162 0
0.688279 -0.331954 -0.0979482 93 161 0
0.689993 -0.326777 -0.0988904 94 160 0
0.69321 -0.321937 -0.100223 95 159 0
0.696547 -0.317702 -0.101258 97 157 0
0.702359 -0.316644 -0.102016 98 156 0
0.708295 -0.316043 -0.102556 99 155 0
0.713292 -0.319094 -0.102706 100 154 0
0.715919 -0.324442 -0.102524 102 153 0
0.716633 -0.329847 -0.102017 103 151 0
0.713241 -0.334748 -0.101479 104 150 0
0.708742 -0.338361 -0.100848 105 149 0
0.703133 -0.339133 -0.100217 106 148 0
0.697547 -0.336999 -0.0998819 108 146 0
0.693419 -0.332845 -0.0998926 109 145 0
0.690428 -0.32769 -0.100273 110 144 0
0.688204 -0.322191 -0.100831 111 143 0
0.689082 -0.316562 -0.101758 113 141 0
0.692898 -0.312114 -0.10258 114 140 0
0.697201 -0.308049 -0.103394 115 139 0
0.702331 -0.305448 -0.104123 116 138 0
0.708239 -0.304771 -0.104715 118 136 0
0.711942 -0.30923 -0.10504 119 135 0
0.715861 -0.313161 -0.105006 120 134 0
0.716469 -0.319049 -0.104659 121 133 0
0.715335 -0.32438 -0.103849 123 131 0
0.710962 -0.328387 -0.103083 124 130 0
0.705013 -0.328232 -0.10254 125 129 0
0.699272 -0.327742 -0.102279 126 128 0
0.694401 -0.324377 -0.102246 128 126 0
0.691116 -0.319441 -0.10245 129 125 0
0.688587 -0.314036 -0.102947 130 124 0
0.688724 -0.308136 -0.103657 131 123 0
0.690504 -0.302478 -0.104396 133 121 0
0.694873 -0.298491 -0.1053 134 120 0
0.699949 -0.295501 -0.106286 135 119 0
0.705696 -0.294778 -0.107113 136 118 0
0.7114 -0.296396 -0.107453 138 116 0
0.715151 -0.300868 -0.107418 139 115 0
0.717052 -0.306331 -0.107017 140 114 0
0.716313 -0.312213 -0.106242 141 113 0
0.712697 -0.316834 -0.105349 143 111 0
0.707392 -0.318771 -0.104715 144 110 0
0.701437 -0.318612 -0.1042 145 109 0
0.695878 -0.316534 -0.103944 146 108 0
0.692107 -0.311937 -0.104064 148 106 0
0.689417 -0.30663 -0.104521 149 105 0
0.688852 -0.30081 -0.105269 150 104 0
0.69027 -0.295152 -0.106225 151 103 0
0.69426 -0.290935 -0.107243 153 101 0
0.697816 -0.28675 -0.108351 154 100 0
0.703552 -0.285676 -0.109087 155 99 0
0.708903 -0.285249 -0.109695 156 98 0
0.713818 -0.288473 -0.109971 157 97 0
0.717068 -0.293284 -0.10979 159 95 0
0.717324 -0.29923 -0.109154 160 94 0
0.715133 -0.304612 -0.108362 161 93 0
0.709988 -0.307493 -0.107373 162 92 0
0.704342 -0.308281 -0.106606 164 90 0
0.69891 -0.306585 -0.106241 165 89 0
0.693833 -0.303479 -0.106222 166 88 0
0.690984 -0.298589 -0.106477 167 87 0
0.689144 -0.292923 -0.107085 169 85 0
0.689834 -0.287108 -0.108002 170 84 0
0.692776 -0.282182 -0.109058 171 83 0
0.696934 -0.277986 -0.109989 172 82 0
0.701846 -0.275038 -0.110915 174 80 0
0.707634 -0.27533 -0.11177 175 79 0
0.71314 -0.277614 -0.112163 176 78 0
0.71626 -0.28242 -0.112187 177 77 0
0.717404 -0.287062 -0.111584 179 75 0
0.716694 -0.292672 -0.11077 180 74 0
0.712792 -0.297087 -0.109787 181 73 0
0.707396 -0.297897 -0.10911 182 72 0
0.70166 -0.297671 -0.108563 184 70 0
0.696375 -0.294913 -0.108302 185 69 0
0.692443 -0.290702 -0.108289 186 68 0
0.691027 -0.284994 -0.108702 187 67 0
0.691335 -0.279099 -0.109659 189 65 0
0.691687 -0.273295 -0.110649 190 64 0
0.695311 -0.268944 -0.111762 191 63 0
0.699869 -0.265154 -0.112532 192 62 0
0.705506 -0.263889 -0.113274 194 60 0
0.711076 -0.265498 -0.113901 195 59 0
0.715069 -0.26971 -0.114217 196 58 0
0.71798 -0.274916 -0.114045 197 57 0
0.717559 -0.280419 -0.113474 199 55 0
0.714789 -0.285118 -0.112486 200 54 0
0.709742 -0.287891 -0.111453 201 53 0
0.703919 -0.288668 -0.110827 202 52 0
0.698781 -0.285933 -0.110435 204 50 0
0.693683 -0.28283 -0.110282 205 49 0
0.691501 -0.277498 -0.110373 206 48 0
0.691019 -0.271573 -0.110933 207 47 0
0.691956 -0.265768 -0.111705 208 46 0
0.694732 -0.26066 -0.112791 210 44 0
0.698429 -0.256856 -0.113943 211 43 0
0.703469 -0.254275 -0.114996 212 42 0
0.709391 -0.254616 -0.115831 213 41 0
0.714539 -0.257353 -0.116356 215 39 0
0.717745 -0.26236 -0.116457 216 38 0
0.718175 -0.268052 -0.11594 217 37 0
0.716737 -0.273537 -0.114893 218 36 0
0.712324 -0.277389 -0.113791 220 34 0
0.706811 -0.278037 -0.112741 221 33 0
0.701039 -0.2771 -0.112003 222 32 0
0.695913 -0.274111 -0.111663 223 31 0
0.692596 -0.269214 -0.111628 225 29 0
0.690077 -0.263816 -0.111883 226 28 0
0.69075 -0.258125 -0.112557 227 27 0
0.69251 -0.252897 -0.113723 228 26 0
0.696416 -0.249017 -0.115082 230 24 0
0.700458 -0.244892 -0.116573 231 23 0
0.706169 -0.244454 -0.117793 232 22 0
0.711345 -0.245329 -0.118947 233 21 0
0.715575 -0.248571 -0.119504 235 19 0
0.717742 -0.253688 -0.119314 236 18 0
0.718766 -0.258827 -0.118249 237 17 0
0.716803 -0.264168 -0.117024 238 16 0
0.712685 -0.266785 -0.115244 240 14 0
0.707497 -0.268616 -0.114241 241 13 0
0.702348 -0.266883 -0.11322 242 12 0
0.697625 -0.264578 -0.112688 243 11 0
0.694047 -0.26155 -0.112501 245 9 0
0.692221 -0.257003 -0.112671 246 8 0
0.691456 -0.253553 -0.112973 247 7 0
0.69042 -0.248475 -0.113902 248 6 0
0.692163 -0.243576 -0.115186 250 4 0
0.694838 -0.239955 -0.116298 251 3 0
0.697471 -0.237332 -0.11743 252 2 0
0.700814 -0.234595 -0.118782 253 1 0
0.705818 -0.23401 -0.119881 255 0 0
