ply
format ascii 1.0
comment Generated by robot_control PLYWriter
element vertex 26
property float x
property float y
property float z
property uchar red
property uchar green
property uchar blue
end_header
0.546048 -0.0640624 -0.117758 0 255 0
0.550923 -0.0648042 -0.118381 10 244 0
0.554137 -0.0675127 -0.119255 20 234 0
0.554631 -0.0733406 -0.119988 30 224 0
0.552528 -0.0782954 -0.120702 40 214 0
0.549213 -0.0825566 -0.121368 51 204 0
0.544646 -0.0850097 -0.121624 61 193 0
0.538714 -0.0849898 -0.121619 71 183 0
0.533064 -0.0835205 -0.121329 81 173 0
0.530006 -0.0786041 -0.120849 91 163 0
0.528731 -0.0731366 -0.120163 102 153 0
0.528212 -0.0672844 -0.119591 112 142 0
0.532125 -0.0640132 -0.119229 122 132 0
0.538056 -0.0640461 -0.119188 132 122 0
0.542885 -0.0667346 -0.119536 142 112 0
0.544262 -0.0723824 -0.120071 153 101 0
0.542165 -0.0776554 -0.120841 163 91 0
0.539077 -0.0826177 -0.121571 173 81 0
0.533693 -0.0849656 -0.121884 183 71 0
0.527815 -0.0846949 -0.121987 193 61 0
0.5224 -0.0823002 -0.121824 204 50 0
0.518226 -0.0784854 -0.121292 214 40 0
0.516417 -0.0729792 -0.120765 224 30 0
0.517698 -0.0676279 -0.119756 234 20 0
0.520729 -0.0653196 -0.119094 244 10 0
0.524918 -0.0639437 -0.118383 255 0 0
