ply
format ascii 1.0
comment Generated by robot_control PLYWriter
element vertex 50
property float x
property float y
property float z
property uchar red
property uchar green
property uchar blue
end_header
0.668539 0.11987 -0.182056 0 255 0
0.674076 0.118927 -0.181664 5 249 0
0.677662 0.116289 -0.178483 10 244 0
0.681179 0.113482 -0.175142 15 239 0
0.683291 0.10854 -0.17286 20 234 0
0.684357 0.10394 -0.169396 26 228 0
0.683708 0.0993675 -0.165587 31 223 0
0.682009 0.0942852 -0.163045 36 218 0
0.677903 0.0906904 -0.16147 41 213 0
0.673052 0.0886882 -0.160578 46 208 0
0.667018 0.0888628 -0.160578 52 202 0
0.661449 0.0907032 -0.161672 57 197 0
0.657348 0.0947223 -0.16324 62 192 0
0.656166 0.0999132 -0.165775 67 187 0
0.657659 0.105356 -0.167636 72 182 0
0.661084 0.109606 -0.169701 78 176 0
0.666522 0.112032 -0.170394 83 171 0
0.672461 0.112823 -0.170514 88 166 0
0.678173 0.111048 -0.170154 93 161 0
0.683687 0.109085 -0.16913 98 156 0
0.686832 0.104099 -0.167792 104 150 0
0.68914 0.0989394 -0.166153 109 145 0
0.688894 0.093282 -0.164072 114 140 0
0.687453 0.0879082 -0.162042 119 135 0
0.683487 0.0838016 -0.160293 124 130 0
0.678168 0.0810841 -0.159505 130 124 0
0.672158 0.0812574 -0.159439 135 119 0
0.667068 0.0836936 -0.160102 140 114 0
0.663055 0.088098 -0.161119 145 109 0
0.662778 0.0938026 -0.162667 150 104 0
0.664545 0.0993851 -0.163663 156 98 0
0.669015 0.103261 -0.164342 161 93 0
0.67415 0.105951 -0.164809 166 88 0
0.680059 0.105332 -0.165017 171 83 0
0.685489 0.102696 -0.164812 176 78 0
0.689985 0.098771 -0.164247 182 72 0
0.693646 0.0940497 -0.163403 187 67 0
0.694447 0.0885028 -0.161547 192 62 0
0.695207 0.082608 -0.160473 197 57 0
0.69252 0.077655 -0.159567 202 52 0
0.687633 0.0741825 -0.158832 208 46 0
0.681993 0.0722816 -0.15827 213 41 0
0.676594 0.0739108 -0.158013 218 36 0
0.671561 0.0771347 -0.157961 223 31 0
0.669226 0.0820236 -0.158499 228 26 0
0.668929 0.0879679 -0.159511 234 20 0
0.671238 0.0927272 -0.160742 239 15 0
0.675135 0.0958047 -0.162121 244 10 0
0.679711 0.0972038 -0.162971 249 5 0
0.684718 0.0978694 -0.163382 255 0 0
