ply
format ascii 1.0
comment Generated by robot_control PLYWriter
element vertex 11
property float x
property float y
property float z
property uchar red
property uchar green
property uchar blue
end_header
0.535813 -0.352224 -0.116792 0 255 0
0.534496 -0.356958 -0.117583 25 229 0
0.533391 -0.36176 -0.118281 51 204 0
0.532189 -0.366496 -0.119231 76 178 0
0.530957 -0.371163 -0.120448 102 153 0
0.529864 -0.375847 -0.121728 127 127 0
0.528879 -0.380557 -0.123007 153 101 0
0.527846 -0.385245 -0.124326 178 76 0
0.526665 -0.389893 -0.125661 204 50 0
0.525427 -0.394556 -0.126884 229 25 0
0.524193 -0.399233 -0.128034 255 0 0
