ply
format ascii 1.0
comment Generated by robot_control PLYWriter
element vertex 9
property float x
property float y
property float z
property uchar red
property uchar green
property uchar blue
end_header
0.602825 -0.00341926 -0.0465649 0 255 0
0.60281 -0.00837663 -0.0448282 31 223 0
0.603215 -0.0132811 -0.0429793 63 191 0
0.603558 -0.0180429 -0.0407774 95 159 0
0.603927 -0.0227851 -0.0385382 127 127 0
0.60427 -0.0276586 -0.0365975 159 95 0
0.604676 -0.032665 -0.0350513 191 63 0
0.604687 -0.0378397 -0.0341449 223 31 0
0.60467 -0.04307 -0.033679 255 0 0
