ply
format ascii 1.0
comment Generated by robot_control PLYWriter
element vertex 10
property float x
property float y
property float z
property uchar red
property uchar green
property uchar blue
end_header
0.660695 -0.135662 -0.0431371 0 255 0
0.660624 -0.130447 -0.0426015 28 226 0
0.660572 -0.125231 -0.042087 56 198 0
0.660551 -0.120017 -0.0415527 85 169 0
0.660558 -0.114813 -0.0409219 113 141 0
0.660634 -0.10961 -0.0402904 141 113 0
0.660722 -0.104402 -0.039703 170 84 0
0.660756 -0.0991914 -0.0391252 198 56 0
0.660828 -0.0939838 -0.0385308 226 28 0
0.660944 -0.0887656 -0.0380528 255 0 0
