ply
format ascii 1.0
comment Generated by robot_control PLYWriter
element vertex 10
property float x
property float y
property float z
property uchar red
property uchar green
property uchar blue
end_header
0.665796 -0.119687 -0.040673 0 255 0
0.66549 -0.114615 -0.0410734 28 226 0
0.665203 -0.10953 -0.0407841 56 198 0
0.664863 -0.104442 -0.0405877 85 169 0
0.664674 -0.0993518 -0.0403361 113 141 0
0.664637 -0.0942568 -0.0400568 141 113 0
0.66444 -0.0891681 -0.039772 170 84 0
0.664155 -0.0840839 -0.0394477 198 56 0
0.663934 -0.0789927 -0.0392162 226 28 0
0.663702 -0.0739044 -0.0394956 255 0 0
