ply
format ascii 1.0
comment Generated by robot_control PLYWriter
element vertex 15
property float x
property float y
property float z
property uchar red
property uchar green
property uchar blue
end_header
0.508506 0.179948 -0.164117 0 255 0
0.508705 0.175497 -0.162185 18 236 0
0.508911 0.171093 -0.16015 36 218 0
0.509125 0.166707 -0.158076 54 200 0
0.509347 0.162344 -0.155956 72 182 0
0.509577 0.158003 -0.153792 91 163 0
0.509812 0.15366 -0.151632 109 145 0
0.510044 0.149293 -0.149521 127 127 0
0.510333 0.144886 -0.147505 145 109 0
0.510745 0.140438 -0.145601 163 91 0
0.511142 0.135941 -0.143813 182 72 0
0.511535 0.131374 -0.142209 200 54 0
0.511915 0.126753 -0.140769 218 36 0
0.51234 0.122104 -0.139433 236 18 0
0.512969 0.117444 -0.138225 255 0 0
