ply
format ascii 1.0
comment Generated by robot_control PLYWriter
element vertex 44
property float x
property float y
property float z
property uchar red
property uchar green
property uchar blue
end_header
0.648545 0.162517 -0.145928 0 255 0
0.652832 0.16063 -0.144778 5 249 0
0.656551 0.158626 -0.142999 11 243 0
0.659092 0.15482 -0.141253 17 237 0
0.660528 0.149694 -0.139364 23 231 0
0.658708 0.144702 -0.137514 29 225 0
0.656477 0.139635 -0.136366 35 219 0
0.651703 0.13632 -0.135847 41 213 0
0.646054 0.134898 -0.135763 47 207 0
0.640553 0.136237 -0.136117 53 201 0
0.635011 0.1374 -0.136967 59 195 0
0.632032 0.141517 -0.138446 65 189 0
0.630402 0.146506 -0.139799 71 183 0
0.631792 0.151998 -0.141054 77 177 0
0.63654 0.15531 -0.141457 83 171 0
0.642123 0.156192 -0.14129 88 166 0
0.647597 0.154426 -0.140279 94 160 0
0.651887 0.150512 -0.139224 100 154 0
0.652241 0.144871 -0.137812 106 148 0
0.651105 0.139602 -0.136514 112 142 0
0.648326 0.134436 -0.135507 118 136 0
0.643456 0.131061 -0.135054 124 130 0
0.638379 0.128847 -0.135061 130 124 0
0.632444 0.129292 -0.135362 136 118 0
0.627627 0.132007 -0.136018 142 112 0
0.624352 0.136816 -0.137215 148 106 0
0.623421 0.14213 -0.138361 154 100 0
0.62578 0.147374 -0.139476 160 94 0
0.630518 0.150709 -0.13985 166 88 0
0.636375 0.151037 -0.13956 171 83 0
0.640919 0.147852 -0.138474 177 77 0
0.644498 0.143292 -0.13713 183 71 0
0.645091 0.13773 -0.135743 189 65 0
0.643464 0.132547 -0.134098 195 59 0
0.639831 0.127948 -0.133165 201 53 0
0.634812 0.124875 -0.132643 207 47 0
0.629176 0.123387 -0.132722 213 41 0
0.623285 0.123531 -0.133231 219 35 0
0.618874 0.126496 -0.13434 225 29 0
0.616226 0.13074 -0.136302 231 23 0
0.615176 0.136025 -0.138167 237 17 0
0.61777 0.140663 -0.139534 243 11 0
0.621972 0.143805 -0.140588 249 5 0
0.627017 0.145524 -0.140631 255 0 0
