ply
format ascii 1.0
comment Generated by robot_control PLYWriter
element vertex 13
property float x
property float y
property float z
property uchar red
property uchar green
property uchar blue
end_header
0.642676 -0.122845 -0.0380326 0 255 0
0.642742 -0.12802 -0.0383697 21 233 0
0.642734 -0.133063 -0.0396057 42 212 0
0.642784 -0.138223 -0.0401898 63 191 0
0.64279 -0.143354 -0.0410018 85 169 0
0.642784 -0.148478 -0.0418541 106 148 0
0.642778 -0.15362 -0.0425923 127 127 0
0.642829 -0.158786 -0.0431446 148 106 0
0.642841 -0.163977 -0.0433229 170 84 0
0.642832 -0.16917 -0.0432013 191 63 0
0.642871 -0.174346 -0.0427626 212 42 0
0.642867 -0.179441 -0.0417755 233 21 0
0.642887 -0.184401 -0.040231 255 0 0
