ply
format ascii 1.0
comment Generated by robot_control PLYWriter
element vertex 200
property float x
property float y
property float z
property uchar red
property uchar green
property uchar blue
end_header
0.664349 -0.0327306 -0.132901 0 255 0
0.664349 -0.0327306 -0.132901 1 253 0
0.664349 -0.0327306 -0.132901 2 252 0
0.664349 -0.0327306 -0.132901 3 251 0
0.664349 -0.0327306 -0.132901 5 249 0
0.664349 -0.0327306 -0.132901 6 248 0
0.664349 -0.0327306 -0.132901 7 247 0
0.664349 -0.0327306 -0.132901 8 246 0
0.664349 -0.0327306 -0.132901 10 244 0
0.664349 -0.0327306 -0.132901 11 243 0
0.664349 -0.0327306 -0.132901 12 242 0
0.664349 -0.0327306 -0.132901 14 240 0
0.664349 -0.0327306 -0.132901 15 239 0
0.664349 -0.0327306 -0.132901 16 238 0
0.664349 -0.0327306 -0.132901 17 237 0
0.664349 -0.0327306 -0.132901 19 235 0
0.664349 -0.0327306 -0.132901 20 234 0
0.664349 -0.0327306 -0.132901 21 233 0
0.664349 -0.0327306 -0.132901 23 231 0
0.664349 -0.0327306 -0.132901 24 230 0
0.664349 -0.0327306 -0.132901 25 229 0
0.664349 -0.0327306 -0.132901 26 228 0
0.664349 -0.0327306 -0.132901 28 226 0
0.664349 -0.0327306 -0.132901 29 225 0
0.664349 -0.0327306 -0.132901 30 224 0
0.664349 -0.0327306 -0.132901 32 222 0
0.664349 -0.0327306 -0.132901 33 221 0
0.664349 -0.0327306 -0.132901 34 220 0
0.664349 -0.0327306 -0.132901 35 219 0
0.664349 -0.0327306 -0.132901 37 217 0
0.664349 -0.0327306 -0.132901 38 216 0
0.664349 -0.0327306 -0.132901 39 215 0
0.664349 -0.0327306 -0.132901 41 213 0
0.664349 -0.0327306 -0.132901 42 212 0
0.664349 -0.0327306 -0.132901 43 211 0
0.664349 -0.0327306 -0.132901 44 210 0
0.664349 -0.0327306 -0.132901 46 208 0
0.664349 -0.0327306 -0.132901 47 207 0
0.664349 -0.0327306 -0.132901 48 206 0
0.664349 -0.0327306 -0.132901 49 205 0
0.664349 -0.0327306 -0.132901 51 203 0
0.664349 -0.0327306 -0.132901 52 202 0
0.664349 -0.0327306 -0.132901 53 201 0
0.664349 -0.0327306 -0.132901 55 199 0
0.664349 -0.0327306 -0.132901 56 198 0
0.664349 -0.0327306 -0.132901 57 197 0
0.664349 -0.0327306 -0.132901 58 196 0
0.664349 -0.0327306 -0.132901 60 194 0
0.664349 -0.0327306 -0.132901 61 193 0
0.664349 -0.0327306 -0.132901 62 192 0
0.664349 -0.0327306 -0.132901 64 190 0
0.664349 -0.0327306 -0.132901 65 189 0
0.664349 -0.0327306 -0.132901 66 188 0
0.664349 -0.0327306 -0.132901 67 187 0
0.664349 -0.0327306 -0.132901 69 185 0
0.664349 -0.0327306 -0.132901 70 184 0
0.664349 -0.0327306 -0.132901 71 183 0
0.664349 -0.0327306 -0.132901 73 181 0
0.664349 -0.0327306 -0.132901 74 180 0
0.664349 -0.0327306 -0.132901 75 179 0
0.664349 -0.0327306 -0.132901 76 178 0
0.664349 -0.0327306 -0.132901 78 176 0
0.664349 -0.0327306 -0.132901 79 175 0
0.664349 -0.0327306 -0.132901 80 174 0
0.664349 -0.0327306 -0.132901 82 172 0
0.664349 -0.0327306 -0.132901 83 171 0
0.664349 -0.0327306 -0.132901 84 170 0
0.664349 -0.0327306 -0.132901 85 169 0
0.664349 -0.0327306 -0.132901 87 167 0
0.664349 -0.0327306 -0.132901 88 166 0
0.664349 -0.0327306 -0.132901 89 165 0
0.664349 -0.0327306 -0.132901 90 164 0
0.664349 -0.0327306 -0.132901 92 162 0
0.664349 -0.0327306 -0.132901 93 161 0
0.664349 -0.0327306 -0.132901 94 160 0
0.664349 -0.0327306 -0.132901 96 158 0
0.664349 -0.0327306 -0.132901 97 157 0
0.664349 -0.0327306 -0.132901 98 156 0
0.664349 -0.0327306 -0.132901 99 155 0
0.664349 -0.0327306 -0.132901 101 153 0
0.664349 -0.0327306 -0.132901 102 152 0
0.664349 -0.0327306 -0.132901 103 151 0
0.664349 -0.0327306 -0.132901 105 149 0
0.664349 -0.0327306 -0.132901 106 148 0
0.664349 -0.0327306 -0.132901 107 147 0
0.664349 -0.0327306 -0.132901 108 146 0
0.664349 -0.0327306 -0.132901 110 144 0
0.664349 -0.0327306 -0.132901 111 143 0
0.664349 -0.0327306 -0.132901 112 142 0
0.664349 -0.0327306 -0.132901 114 140 0
0.664349 -0.0327306 -0.132901 115 139 0
0.664349 -0.0327306 -0.132901 116 138 0
0.664349 -0.0327306 -0.132901 117 137 0
0.664349 -0.0327306 -0.132901 119 135 0
0.664349 -0.0327306 -0.132901 120 134 0
0.664349 -0.0327306 -0.132901 121 133 0
0.664349 -0.0327306 -0.132901 123 131 0
0.664349 -0.0327306 -0.132901 124 130 0
0.664349 -0.0327306 -0.132901 125 129 0
0.664349 -0.0327306 -0.132901 126 128 0
0.664349 -0.0327306 -0.132901 128 126 0
0.664349 -0.0327306 -0.132901 129 125 0
0.664349 -0.0327306 -0.132901 130 124 0
0.664349 -0.0327306 -0.132901 131 123 0
0.664349 -0.0327306 -0.132901 133 121 0
0.664349 -0.0327306 -0.132901 134 120 0
0.664349 -0.0327306 -0.132901 135 119 0
0.664349 -0.0327306 -0.132901 137 117 0
0.664349 -0.0327306 -0.132901 138 116 0
0.664349 -0.0327306 -0.132901 139 115 0
0.664349 -0.0327306 -0.132901 140 114 0
0.664349 -0.0327306 -0.132901 142 112 0
0.664349 -0.0327306 -0.132901 143 111 0
0.664349 -0.0327306 -0.132901 144 110 0
0.664349 -0.0327306 -0.132901 146 108 0
0.664349 -0.0327306 -0.132901 147 107 0
0.664349 -0.0327306 -0.132901 148 106 0
0.664349 -0.0327306 -0.132901 149 105 0
0.664349 -0.0327306 -0.132901 151 103 0
0.664349 -0.0327306 -0.132901 152 102 0
0.664349 -0.0327306 -0.132901 153 101 0
0.664349 -0.0327306 -0.132901 155 99 0
0.664349 -0.0327306 -0.132901 156 98 0
0.664349 -0.0327306 -0.132901 157 97 0
0.664349 -0.0327306 -0.132901 158 96 0
0.664349 -0.0327306 -0.132901 160 94 0
0.664349 -0.0327306 -0.132901 161 93 0
0.664349 -0.0327306 -0.132901 162 92 0
0.664349 -0.0327306 -0.132901 164 90 0
0.664349 -0.0327306 -0.132901 165 89 0
0.664349 -0.0327306 -0.132901 166 88 0
0.664349 -0.0327306 -0.132901 167 87 0
0.664349 -0.0327306 -0.132901 169 85 0
0.664349 -0.0327306 -0.132901 170 84 0
0.664349 -0.0327306 -0.132901 171 83 0
0.664349 -0.0327306 -0.132901 172 82 0
0.664349 -0.0327306 -0.132901 174 80 0
0.664349 -0.0327306 -0.132901 175 79 0
0.664349 -0.0327306 -0.132901 176 78 0
0.664349 -0.0327306 -0.132901 178 76 0
0.664349 -0.0327306 -0.132901 179 75 0
0.664349 -0.0327306 -0.132901 180 74 0
0.664349 -0.0327306 -0.132901 181 73 0
0.664349 -0.0327306 -0.132901 183 71 0
0.664349 -0.0327306 -0.132901 184 70 0
0.664349 -0.0327306 -0.132901 185 69 0
0.664349 -0.0327306 -0.132901 187 67 0
0.664349 -0.0327306 -0.132901 188 66 0
0.664349 -0.0327306 -0.132901 189 65 0
0.664349 -0.0327306 -0.132901 190 64 0
0.664349 -0.0327306 -0.132901 192 62 0
0.664349 -0.0327306 -0.132901 193 61 0
0.664349 -0.0327306 -0.132901 194 60 0
0.664349 -0.0327306 -0.132901 196 58 0
0.664349 -0.0327306 -0.132901 197 57 0
0.664349 -0.0327306 -0.132901 198 56 0
0.664349 -0.0327306 -0.132901 199 55 0
0.664349 -0.0327306 -0.132901 201 53 0
0.664349 -0.0327306 -0.132901 202 52 0
0.664349 -0.0327306 -0.132901 203 51 0
0.664349 -0.0327306 -0.132901 205 49 0
0.664349 -0.0327306 -0.132901 206 48 0
0.664349 -0.0327306 -0.132901 207 47 0
0.664349 -0.0327306 -0.132901 208 46 0
0.664349 -0.0327306 -0.132901 210 44 0
0.664349 -0.0327306 -0.132901 211 43 0
0.664349 -0.0327306 -0.132901 212 42 0
0.664349 -0.0327306 -0.132901 213 41 0
0.664349 -0.0327306 -0.132901 215 39 0
0.664349 -0.0327306 -0.132901 216 38 0
0.664349 -0.0327306 -0.132901 217 37 0
0.664349 -0.0327306 -0.132901 219 35 0
0.664349 -0.0327306 -0.132901 220 34 0
0.664349 -0.0327306 -0.132901 221 33 0
0.664349 -0.0327306 -0.132901 222 32 0
0.664349 -0.0327306 -0.132901 224 30 0
0.664349 -0.0327306 -0.132901 225 29 0
0.664349 -0.0327306 -0.132901 226 28 0
0.664349 -0.0327306 -0.132901 228 26 0
0.664349 -0.0327306 -0.132901 229 25 0
0.664349 -0.0327306 -0.132901 230 24 0
0.664349 -0.0327306 -0.132901 231 23 0
0.664349 -0.0327306 -0.132901 233 21 0
0.664349 -0.0327306 -0.132901 234 20 0
0.664349 -0.0327306 -0.132901 235 19 0
0.664349 -0.0327306 -0.132901 237 17 0
0.664349 -0.0327306 -0.132901 238 16 0
0.664349 -0.0327306 -0.132901 239 15 0
0.664349 -0.0327306 -0.132901 240 14 0
0.664349 -0.0327306 -0.132901 242 12 0
0.664349 -0.0327306 -0.132901 243 11 0
0.664349 -0.0327306 -0.132901 244 10 0
0.664349 -0.0327306 -0.132901 246 8 0
0.664349 -0.0327306 -0.132901 247 7 0
0.664349 -0.0327306 -0.132901 248 6 0
0.664349 -0.0327306 -0.132901 249 5 0
0.664349 -0.0327306 -0.132901 251 3 0
0.664349 -0.0327306 -0.132901 252 2 0
0.664349 -0.0327306 -0.132901 253 1 0
0.664349 -0.0327306 -0.132901 255 0 0
