ply
format ascii 1.0
comment Generated by robot_control PLYWriter
element vertex 11
property float x
property float y
property float z
property uchar red
property uchar green
property uchar blue
end_header
0.548438 -0.0778373 -0.0332621 0 255 0
0.548143 -0.0825192 -0.0341981 25 229 0
0.54781 -0.087235 -0.0349547 51 204 0
0.547515 -0.0919498 -0.0357364 76 178 0
0.547224 -0.096669 -0.0364922 102 153 0
0.546936 -0.101402 -0.0371511 127 127 0
0.546742 -0.106154 -0.0377008 153 101 0
0.546694 -0.110915 -0.0382048 178 76 0
0.546647 -0.115676 -0.038712 204 50 0
0.546595 -0.120444 -0.0391546 229 25 0
0.546576 -0.125221 -0.0394734 255 0 0
