ply
format ascii 1.0
comment Generated by robot_control PLYWriter
element vertex 10
property float x
property float y
property float z
property uchar red
property uchar green
property uchar blue
end_header
0.67696 -0.254732 -0.111222 0 255 0
0.677129 -0.259948 -0.110459 28 226 0
0.676965 -0.265143 -0.109547 56 198 0
0.677043 -0.270347 -0.108702 85 169 0
0.677281 -0.275557 -0.107896 113 141 0
0.677392 -0.280765 -0.107059 141 113 0
0.677386 -0.285976 -0.106226 170 84 0
0.67728 -0.291187 -0.105406 198 56 0
0.677335 -0.296401 -0.104626 226 28 0
0.677205 -0.3016 -0.103861 255 0 0
