ply
format ascii 1.0
comment Generated by robot_control PLYWriter
element vertex 9
property float x
property float y
property float z
property uchar red
property uchar green
property uchar blue
end_header
0.604784 0.0161974 -0.123385 0 255 0
0.605117 0.0111993 -0.123668 31 223 0
0.60542 0.00618676 -0.123941 63 191 0
0.605748 0.00117482 -0.1242 95 159 0
0.606094 -0.00383628 -0.124452 127 127 0
0.606729 -0.0088161 -0.124751 159 95 0
0.607042 -0.0138325 -0.124919 191 63 0
0.607446 -0.0188418 -0.125114 223 31 0
0.608082 -0.0238217 -0.12536 255 0 0
