ply
format ascii 1.0
comment Generated by robot_control PLYWriter
element vertex 81
property float x
property float y
property float z
property uchar red
property uchar green
property uchar blue
end_header
0.694393 0.0136283 -0.142375 0 255 0
0.698813 0.0111262 -0.140991 3 251 0
0.700998 0.00769532 -0.139767 6 248 0
0.702809 0.00270147 -0.138321 9 245 0
0.704641 -0.00208555 -0.137391 12 242 0
0.702746 -0.00740216 -0.136328 15 239 0
0.700533 -0.0121842 -0.13549 19 235 0
0.695949 -0.0159848 -0.13508 22 232 0
0.691188 -0.0190748 -0.134912 25 229 0
0.685203 -0.0190596 -0.134969 28 226 0
0.679693 -0.0173202 -0.135229 31 223 0
0.675836 -0.0129218 -0.135859 35 219 0
0.673808 -0.0079929 -0.136674 38 216 0
0.675262 -0.00335812 -0.1374 41 213 0
0.678706 0.00143774 -0.137917 44 210 0
0.683589 0.0046943 -0.138215 47 207 0
0.689281 0.00490951 -0.138149 51 204 0
0.69472 0.00327781 -0.137804 54 200 0
0.69983 0.000254059 -0.137312 57 197 0
0.702241 -0.00487406 -0.136593 60 194 0
0.702643 -0.0108054 -0.135937 63 191 0
0.702637 -0.0167506 -0.135237 66 188 0
0.700982 -0.0222968 -0.134555 70 184 0
0.69641 -0.0260835 -0.134121 73 181 0
0.691287 -0.0285838 -0.133898 76 178 0
0.685301 -0.0285397 -0.133903 79 175 0
0.68003 -0.0258372 -0.134042 82 172 0
0.675748 -0.0223943 -0.134372 86 168 0
0.672945 -0.0171487 -0.134835 89 165 0
0.675306 -0.0119927 -0.135213 92 162 0
0.678936 -0.00745227 -0.135572 95 159 0
0.683946 -0.00418463 -0.135748 98 156 0
0.689637 -0.00436905 -0.135747 102 153 0
0.694816 -0.00730755 -0.135552 105 149 0
0.700017 -0.0101025 -0.135269 108 146 0
0.702638 -0.0148913 -0.134771 111 143 0
0.703102 -0.0208242 -0.134194 114 140 0
0.70331 -0.0267756 -0.133659 117 137 0
0.701019 -0.032094 -0.133187 121 133 0
0.696553 -0.0360151 -0.132883 124 130 0
0.690831 -0.0376827 -0.132694 127 127 0
0.685195 -0.03906 -0.132603 130 124 0
0.679834 -0.0368842 -0.132648 133 121 0
0.676006 -0.0322961 -0.132882 137 117 0
0.67358 -0.0273319 -0.133328 140 114 0
0.67545 -0.0216708 -0.133685 143 111 0
0.679212 -0.0172513 -0.134126 146 108 0
0.683966 -0.0141251 -0.134361 149 105 0
0.689952 -0.0141267 -0.13435 153 101 0
0.695674 -0.0154083 -0.134156 156 98 0
0.699527 -0.0193379 -0.133847 159 95 0
0.702269 -0.024567 -0.133339 162 92 0
0.703167 -0.0301645 -0.132683 165 89 0
0.702967 -0.0361162 -0.132071 168 86 0
0.700791 -0.0415964 -0.131565 172 82 0
0.696 -0.0451155 -0.131172 175 79 0
0.690545 -0.0475552 -0.130849 178 76 0
0.684706 -0.0482285 -0.130742 181 73 0
0.679323 -0.0457473 -0.130865 184 70 0
0.675049 -0.0421874 -0.131215 188 66 0
0.673472 -0.0367182 -0.131754 191 63 0
0.674861 -0.0310237 -0.132488 194 60 0
0.67822 -0.0260826 -0.132825 197 57 0
0.683721 -0.0244882 -0.133128 200 54 0
0.689697 -0.0242333 -0.133143 204 50 0
0.695435 -0.0253025 -0.132962 207 47 0
0.699725 -0.0293544 -0.132637 210 44 0
0.702011 -0.0347681 -0.132063 213 41 0
0.702949 -0.0404247 -0.131347 216 38 0
0.70262 -0.0463457 -0.130529 219 35 0
0.700154 -0.0517199 -0.129906 223 31 0
0.695519 -0.0552604 -0.129359 226 28 0
0.69048 -0.0582156 -0.129096 229 25 0
0.684499 -0.0580966 -0.129143 232 22 0
0.679176 -0.0560738 -0.129466 235 19 0
0.675383 -0.0517534 -0.130015 239 15 0
0.673251 -0.0465783 -0.130654 242 12 0
0.674637 -0.0414567 -0.131331 245 9 0
0.677491 -0.0367601 -0.131805 248 6 0
0.682287 -0.0333937 -0.132063 251 3 0
0.688022 -0.0329122 -0.132221 255 0 0
