ply
format ascii 1.0
comment Generated by robot_control PLYWriter
element vertex 96
property float x
property float y
property float z
property uchar red
property uchar green
property uchar blue
end_header
0.591625 0.0589842 -0.137267 0 255 0
0.595405 0.0563529 -0.136046 2 252 0
0.59847 0.0533189 -0.13415 5 249 0
0.600214 0.0484923 -0.132387 8 246 0
0.60081 0.0428106 -0.130978 10 244 0
0.599258 0.0376077 -0.129072 13 241 0
0.597479 0.0323207 -0.127913 16 238 0
0.592642 0.0295411 -0.127132 18 236 0
0.587494 0.0265518 -0.126881 21 233 0
0.581868 0.0261259 -0.127387 24 230 0
0.576549 0.0279043 -0.128648 26 228 0
0.572644 0.0319626 -0.130163 29 225 0
0.572546 0.0377149 -0.13165 32 222 0
0.572634 0.0434941 -0.132737 34 220 0
0.577131 0.0463935 -0.133356 37 217 0
0.582513 0.0489252 -0.133251 40 214 0
0.588217 0.0483044 -0.132578 42 212 0
0.593718 0.0461972 -0.131667 45 209 0
0.597315 0.0420118 -0.13019 48 206 0
0.60033 0.0370626 -0.128728 51 204 0
0.600726 0.0314518 -0.12704 53 201 0
0.59883 0.0260988 -0.125848 56 198 0
0.594758 0.0218524 -0.124914 59 195 0
0.59048 0.0180731 -0.124397 61 193 0
0.58494 0.0157837 -0.124347 64 190 0
0.579221 0.0153242 -0.124776 67 187 0
0.573976 0.0180628 -0.125546 69 185 0
0.570301 0.0226093 -0.126563 72 182 0
0.57173 0.0280488 -0.127718 75 179 0
0.573189 0.0335183 -0.128573 77 177 0
0.577957 0.0367952 -0.128803 80 174 0
0.583911 0.0374295 -0.128568 83 171 0
0.589865 0.0377346 -0.127947 85 169 0
0.595098 0.035261 -0.126978 88 166 0
0.597124 0.0297926 -0.125582 91 163 0
0.599499 0.0244794 -0.124145 93 161 0
0.599103 0.0192727 -0.122943 96 158 0
0.596948 0.0138017 -0.121901 99 155 0
0.593323 0.00922323 -0.12107 102 153 0
0.588568 0.00572316 -0.120729 104 150 0
0.582825 0.00494852 -0.12081 107 147 0
0.577125 0.0066892 -0.121238 110 144 0
0.572678 0.0103788 -0.122151 112 142 0
0.570375 0.0155081 -0.123328 115 139 0
0.570225 0.0213629 -0.1243 118 136 0
0.575282 0.0245598 -0.124716 120 134 0
0.580142 0.0275727 -0.124751 123 131 0
0.586116 0.0274899 -0.124295 126 128 0
0.591833 0.0260899 -0.123532 128 126 0
0.59629 0.0224457 -0.122316 131 123 0
0.598162 0.0170147 -0.12084 134 120 0
0.598126 0.0112099 -0.119339 136 118 0
0.597168 0.00556658 -0.118066 139 115 0
0.594047 0.000544985 -0.117168 142 112 0
0.589774 -0.0035687 -0.116675 144 110 0
0.584534 -0.00623355 -0.116514 147 107 0
0.57856 -0.00605379 -0.116745 150 104 0
0.573455 -0.00307075 -0.117541 153 101 0
0.570324 0.00175326 -0.118777 155 99 0
0.569038 0.00738376 -0.119746 158 96 0
0.571825 0.012494 -0.12077 161 93 0
0.576965 0.0152871 -0.121148 163 91 0
0.582363 0.0171374 -0.120886 166 88 0
0.588259 0.0170587 -0.119932 169 85 0
0.592842 0.0133219 -0.119011 171 83 0
0.596678 0.00895501 -0.117652 174 80 0
0.598098 0.00351224 -0.115911 177 77 0
0.598559 -0.00229918 -0.114585 179 75 0
0.596835 -0.00757883 -0.113343 182 72 0
0.592351 -0.0113824 -0.11246 185 69 0
0.587881 -0.0153417 -0.112167 187 67 0
0.58223 -0.0163435 -0.112184 190 64 0
0.576359 -0.0159633 -0.112834 193 61 0
0.571591 -0.0129578 -0.113753 195 59 0
0.568929 -0.0080709 -0.115436 198 56 0
0.568812 -0.0022464 -0.116865 201 53 0
0.571517 0.00298297 -0.117707 204 50 0
0.576511 0.00507812 -0.118018 206 48 0
0.581344 0.00816523 -0.117804 209 45 0
0.586753 0.00602033 -0.117109 212 42 0
0.591964 0.00336241 -0.11587 214 40 0
0.59515 -0.00122205 -0.114137 217 37 0
0.598492 -0.0058354 -0.112271 220 34 0
0.59826 -0.0112936 -0.11083 222 32 0
0.596397 -0.0162673 -0.10941 225 29 0
0.593393 -0.0212314 -0.108492 228 26 0
0.589346 -0.0254195 -0.107873 230 24 0
0.583703 -0.0264779 -0.107953 233 21 0
0.577828 -0.0264045 -0.108797 236 18 0
0.572659 -0.0246978 -0.109927 238 16 0
0.569018 -0.0203825 -0.11147 241 13 0
0.568942 -0.0151109 -0.113238 244 10 0
0.569641 -0.00991668 -0.114556 246 8 0
0.573547 -0.00655335 -0.115309 249 5 0
0.577308 -0.00396415 -0.115267 252 2 0
0.582692 -0.00427464 -0.114459 255 0 0
