ply
format ascii 1.0
comment Generated by robot_control PLYWriter
element vertex 11
property float x
property float y
property float z
property uchar red
property uchar green
property uchar blue
end_header
0.660579 -0.0839155 -0.0375586 0 255 0
0.660586 -0.0789721 -0.0372147 25 229 0
0.660548 -0.0740352 -0.0367879 51 204 0
0.660541 -0.0690934 -0.0364219 76 178 0
0.660532 -0.0641466 -0.0361291 102 153 0
0.660496 -0.0591987 -0.0358585 127 127 0
0.660457 -0.0542499 -0.0356051 153 101 0
0.660436 -0.0492983 -0.0354121 178 76 0
0.660437 -0.0443448 -0.0352785 204 50 0
0.660483 -0.0393912 -0.0351551 229 25 0
0.660503 -0.0344385 -0.0349942 255 0 0
