ply
format ascii 1.0
comment Generated by robot_control PLYWriter
element vertex 10
property float x
property float y
property float z
property uchar red
property uchar green
property uchar blue
end_header
0.522083 -0.300635 -0.0776983 0 255 0
0.522201 -0.295762 -0.0794578 28 226 0
0.522801 -0.290879 -0.0810843 56 198 0
0.523232 -0.286012 -0.0828121 85 169 0
0.523616 -0.281144 -0.0845478 113 141 0
0.524002 -0.276287 -0.0863166 141 113 0
0.524584 -0.271608 -0.088436 170 84 0
0.525107 -0.267204 -0.0910848 198 56 0
0.525344 -0.26296 -0.0940478 226 28 0
0.52576 -0.258898 -0.0972175 255 0 0
