ply
format ascii 1.0
comment Generated by robot_control PLYWriter
element vertex 47
property float x
property float y
property float z
property uchar red
property uchar green
property uchar blue
end_header
0.619813 -0.107551 -0.109125 0 255 0
0.622799 -0.111332 -0.109276 5 249 0
0.624511 -0.116453 -0.110016 11 243 0
0.624598 -0.12236 -0.111101 16 238 0
0.622266 -0.127505 -0.112156 22 232 0
0.617969 -0.130872 -0.113354 27 227 0
0.612588 -0.132474 -0.114456 33 221 0
0.607106 -0.130852 -0.114865 38 216 0
0.603699 -0.126536 -0.114637 44 210 0
0.603158 -0.120861 -0.113883 49 205 0
0.606588 -0.116251 -0.11301 55 199 0
0.612552 -0.116328 -0.112272 60 194 0
0.618043 -0.118073 -0.112124 66 188 0
0.620879 -0.12321 -0.112387 72 182 0
0.622242 -0.128889 -0.113002 77 177 0
0.621439 -0.134684 -0.113871 83 171 0
0.617285 -0.138567 -0.114689 88 166 0
0.612239 -0.14164 -0.115751 94 160 0
0.6064 -0.14227 -0.116373 99 155 0
0.601346 -0.139331 -0.116728 105 149 0
0.599746 -0.133911 -0.116478 110 144 0
0.600807 -0.128157 -0.115994 116 138 0
0.606216 -0.125948 -0.115599 121 133 0
0.61196 -0.126748 -0.115082 127 127 0
0.616494 -0.130672 -0.114834 133 121 0
0.619086 -0.135868 -0.114906 138 116 0
0.61915 -0.141866 -0.115309 144 110 0
0.616592 -0.147227 -0.115798 149 105 0
0.612061 -0.151058 -0.116602 155 99 0
0.60653 -0.152035 -0.117464 160 94 0
0.600556 -0.152082 -0.118006 166 88 0
0.596983 -0.14725 -0.118267 171 83 0
0.596997 -0.141517 -0.118183 177 77 0
0.600504 -0.136839 -0.117806 182 72 0
0.606441 -0.13656 -0.11703 188 66 0
0.611301 -0.139229 -0.116516 194 60 0
0.615374 -0.143626 -0.116152 199 55 0
0.616746 -0.149257 -0.116154 205 49 0
0.614462 -0.154324 -0.116433 210 44 0
0.611427 -0.159475 -0.116912 216 38 0
0.606741 -0.162171 -0.117582 221 33 0
0.600997 -0.16202 -0.118319 227 27 0
0.596016 -0.159927 -0.1194 232 22 0
0.593339 -0.154993 -0.119866 238 16 0
0.594887 -0.149709 -0.119863 243 11 0
0.598175 -0.146419 -0.118914 249 5 0
0.603154 -0.145502 -0.117726 255 0 0
