ply
format ascii 1.0
comment Generated by robot_control PLYWriter
element vertex 87
property float x
property float y
property float z
property uchar red
property uchar green
property uchar blue
end_header
0.686386 -0.000555984 -0.108698 0 255 0
0.69058 -0.0042502 -0.107971 2 252 0
0.692431 -0.00809985 -0.106647 5 249 0
0.691959 -0.0134134 -0.104744 8 246 0
0.689396 -0.0182406 -0.103328 11 243 0
0.68435 -0.0207274 -0.102394 14 240 0
0.67847 -0.019936 -0.102133 17 237 0
0.673097 -0.0180012 -0.102561 20 234 0
0.668552 -0.0142935 -0.103729 23 231 0
0.666561 -0.00911644 -0.105155 26 228 0
0.665156 -0.00372257 -0.106752 29 225 0
0.667369 0.00145628 -0.108358 32 222 0
0.670794 0.00600616 -0.110183 35 219 0
0.67487 0.0101651 -0.111291 38 216 0
0.68084 0.0104054 -0.111712 41 213 0
0.686393 0.00923215 -0.111634 44 210 0
0.690714 0.00515458 -0.111028 47 207 0
0.692828 -0.000163681 -0.109554 50 204 0
0.689786 -0.00506486 -0.108292 53 201 0
0.685815 -0.00926833 -0.107253 56 198 0
0.680264 -0.0104537 -0.106738 59 195 0
0.674609 -0.00874402 -0.10688 62 192 0
0.669984 -0.00557788 -0.107772 65 189 0
0.665997 -0.00123676 -0.108743 68 186 0
0.664681 0.00414691 -0.110133 71 183 0
0.664196 0.00994517 -0.11153 74 180 0
0.666907 0.0151447 -0.112661 77 177 0
0.671753 0.0180962 -0.114008 80 174 0
0.676823 0.0202774 -0.114886 83 171 0
0.682687 0.0199292 -0.11537 85 169 0
0.688202 0.0176238 -0.115074 88 166 0
0.690522 0.0125474 -0.11425 91 163 0
0.689611 0.00686237 -0.112982 94 160 0
0.686631 0.00176767 -0.111989 97 157 0
0.680866 0.0010727 -0.111565 100 154 0
0.674994 0.00204758 -0.111545 103 151 0
0.669727 0.00471408 -0.111942 106 148 0
0.66642 0.00947479 -0.113042 109 145 0
0.664336 0.014816 -0.114067 112 142 0
0.664558 0.0206311 -0.115494 115 139 0
0.6677 0.0252596 -0.116847 118 136 0
0.671646 0.0295136 -0.118037 121 133 0
0.677117 0.0312736 -0.118881 124 130 0
0.682847 0.0296705 -0.119162 127 127 0
0.687544 0.0262759 -0.118859 130 124 0
0.69084 0.0213084 -0.118186 133 121 0
0.688972 0.0162332 -0.116963 136 118 0
0.6849 0.0122479 -0.116284 139 115 0
0.678964 0.011882 -0.115848 142 112 0
0.672982 0.0116928 -0.115888 145 109 0
0.668741 0.015578 -0.116378 148 106 0
0.665122 0.0202385 -0.117265 151 103 0
0.663149 0.0255757 -0.118455 154 100 0
0.662759 0.0313369 -0.120047 157 97 0
0.66613 0.0360423 -0.121475 160 94 0
0.669714 0.0406327 -0.12243 163 91 0
0.67527 0.0422488 -0.123361 166 88 0
0.681194 0.0420194 -0.123839 169 85 0
0.685934 0.038808 -0.123623 171 83 0
0.68865 0.0335475 -0.122896 174 80 0
0.688511 0.0288181 -0.121634 177 77 0
0.685381 0.0240278 -0.120332 180 74 0
0.67978 0.0224802 -0.119466 183 71 0
0.673803 0.0223479 -0.119276 186 68 0
0.668934 0.0253638 -0.119756 189 65 0
0.664765 0.0293509 -0.120914 192 62 0
0.66261 0.0347617 -0.122188 195 59 0
0.662196 0.0405017 -0.123789 198 56 0
0.665005 0.0452513 -0.125654 201 53 0
0.669018 0.0493993 -0.127204 204 50 0
0.673931 0.051558 -0.128464 207 47 0
0.67989 0.0519848 -0.128876 210 44 0
0.685046 0.0496205 -0.128688 213 41 0
0.687864 0.044574 -0.127559 216 38 0
0.688802 0.0393263 -0.125919 219 35 0
0.685042 0.0351346 -0.124167 222 32 0
0.680149 0.0332945 -0.122832 225 29 0
0.675643 0.0326215 -0.122354 228 26 0
0.670347 0.0346975 -0.122613 231 23 0
0.667042 0.0372884 -0.123364 234 20 0
0.662854 0.0412583 -0.124477 237 17 0
0.661835 0.0463499 -0.126321 240 14 0
0.661153 0.0513948 -0.128461 243 11 0
0.663666 0.0558433 -0.130236 246 8 0
0.66748 0.0586577 -0.13206 249 5 0
0.670509 0.0614181 -0.132897 252 2 0
0.674985 0.0633685 -0.133965 255 0 0
