ply
format ascii 1.0
comment Generated by robot_control PLYWriter
element vertex 88
property float x
property float y
property float z
property uchar red
property uchar green
property uchar blue
end_header
0.719227 0.0538827 -0.120234 0 255 0
0.722196 0.0515994 -0.120128 2 252 0
0.725949 0.0490403 -0.119663 5 249 0
0.726898 0.0442144 -0.118841 8 246 0
0.725482 0.0391496 -0.117468 11 243 0
0.722128 0.0351795 -0.116428 14 240 0
0.716653 0.0331683 -0.115683 17 237 0
0.711482 0.0344405 -0.115352 20 234 0
0.706217 0.0356201 -0.115488 23 231 0
0.7026 0.0402622 -0.116054 26 228 0
0.700114 0.045307 -0.117178 29 225 0
0.699676 0.0507189 -0.118109 32 222 0
0.701214 0.0561156 -0.119373 35 219 0
0.704181 0.0611851 -0.120521 38 216 0
0.708465 0.0637232 -0.121533 41 213 0
0.713995 0.0656048 -0.121976 43 211 0
0.719718 0.0644021 -0.122039 46 208 0
0.724407 0.0607207 -0.121633 49 205 0
0.727015 0.0555703 -0.121027 52 202 0
0.724762 0.0506887 -0.12019 55 199 0
0.721037 0.0467853 -0.119172 58 196 0
0.715776 0.0439485 -0.118712 61 193 0
0.710165 0.0456632 -0.118671 64 190 0
0.705219 0.0489 -0.119014 67 187 0
0.700428 0.0522783 -0.119638 70 184 0
0.698776 0.057925 -0.120646 73 181 0
0.698821 0.0638226 -0.121615 76 178 0
0.701544 0.069 -0.122684 79 175 0
0.705411 0.0735087 -0.123492 82 172 0
0.710817 0.0748183 -0.12411 85 169 0
0.716781 0.0743802 -0.124282 87 167 0
0.722309 0.0723046 -0.124049 90 164 0
0.72511 0.0670782 -0.1235 93 161 0
0.724564 0.06165 -0.122644 96 158 0
0.720587 0.0572853 -0.121813 99 155 0
0.715605 0.0542407 -0.121437 102 152 0
0.70977 0.0545492 -0.121458 105 149 0
0.704764 0.0577899 -0.121886 108 146 0
0.700854 0.0621466 -0.122747 111 143 0
0.698323 0.0675553 -0.123406 114 140 0
0.69847 0.0734055 -0.124578 117 137 0
0.699594 0.0791542 -0.125498 120 134 0
0.703533 0.0832678 -0.126336 123 131 0
0.708831 0.0859942 -0.127025 126 128 0
0.714639 0.0852139 -0.127324 128 126 0
0.71974 0.082138 -0.127158 131 123 0
0.723993 0.0780695 -0.126489 134 120 0
0.725071 0.0727519 -0.125862 137 117 0
0.721409 0.0682428 -0.125157 140 114 0
0.716691 0.0654048 -0.124837 143 111 0
0.710829 0.0666236 -0.124697 146 108 0
0.705006 0.0674877 -0.124998 149 105 0
0.701149 0.0717865 -0.125498 152 102 0
0.697485 0.0764656 -0.126234 155 99 0
0.697098 0.082222 -0.127197 158 96 0
0.697887 0.0877254 -0.128144 161 93 0
0.701838 0.0921521 -0.129034 164 90 0
0.706847 0.0952806 -0.129719 167 87 0
0.712649 0.0965644 -0.130053 170 84 0
0.718363 0.0949956 -0.130013 172 82 0
0.721883 0.0902102 -0.129576 175 79 0
0.722415 0.0844956 -0.128761 178 76 0
0.720323 0.0791455 -0.127948 181 73 0
0.715758 0.0753388 -0.127421 184 70 0
0.710039 0.0752396 -0.127238 187 67 0
0.705093 0.0785679 -0.127389 190 64 0
0.700021 0.0817068 -0.127833 193 61 0
0.696937 0.0864309 -0.128725 196 58 0
0.696645 0.092252 -0.129977 199 55 0
0.698332 0.0971384 -0.131182 202 52 0
0.699765 0.102389 -0.132074 205 49 0
0.704558 0.105803 -0.132887 208 46 0
0.710195 0.106122 -0.13345 211 43 0
0.716151 0.105553 -0.133609 213 41 0
0.72077 0.102618 -0.133277 216 38 0
0.722007 0.0970179 -0.132243 219 35 0
0.721318 0.09198 -0.131031 222 32 0
0.71683 0.0881763 -0.130132 225 29 0
0.711374 0.0860929 -0.129519 228 26 0
0.705727 0.087697 -0.129395 231 23 0
0.70056 0.0902621 -0.129787 234 20 0
0.69624 0.094183 -0.130579 237 17 0
0.694681 0.0995637 -0.131535 240 14 0
0.694888 0.104822 -0.133347 243 11 0
0.696795 0.10997 -0.134691 246 8 0
0.699801 0.11328 -0.136056 249 5 0
0.70355 0.115314 -0.137075 252 2 0
0.707296 0.117252 -0.13818 255 0 0
