ply
format ascii 1.0
comment Generated by robot_control PLYWriter
element vertex 11
property float x
property float y
property float z
property uchar red
property uchar green
property uchar blue
end_header
0.626709 -0.420988 -0.10601 0 255 0
0.626724 -0.416213 -0.106159 25 229 0
0.626722 -0.411436 -0.106014 51 204 0
0.626911 -0.406685 -0.105576 76 178 0
0.627256 -0.401979 -0.104828 102 153 0
0.627607 -0.397309 -0.103881 127 127 0
0.627893 -0.392645 -0.102877 153 101 0
0.628177 -0.387955 -0.102021 178 76 0
0.628475 -0.383219 -0.101517 204 50 0
0.628464 -0.378441 -0.101416 229 25 0
0.628317 -0.373667 -0.101515 255 0 0
