ply
format ascii 1.0
comment Generated by robot_control PLYWriter
element vertex 10
property float x
property float y
property float z
property uchar red
property uchar green
property uchar blue
end_header
0.585049 -0.281883 -0.127863 0 255 0
0.584706 -0.277424 -0.1298 28 226 0
0.584344 -0.272876 -0.131567 56 198 0
0.583983 -0.268203 -0.132956 85 169 0
0.583514 -0.263416 -0.133827 113 141 0
0.583023 -0.258562 -0.134144 141 113 0
0.582709 -0.253687 -0.133939 170 84 0
0.582664 -0.248837 -0.133291 198 56 0
0.582487 -0.244071 -0.132173 226 28 0
0.582559 -0.239359 -0.130847 255 0 0
