ply
format ascii 1.0
comment Generated by robot_control PLYWriter
element vertex 12
property float x
property float y
property float z
property uchar red
property uchar green
property uchar blue
end_header
0.534249 -0.0793969 -0.123183 0 255 0
0.534876 -0.0844593 -0.123793 23 231 0
0.535181 -0.0895442 -0.124507 46 208 0
0.535591 -0.0946268 -0.12519 69 185 0
0.536024 -0.0997129 -0.125832 92 162 0
0.536461 -0.104808 -0.126396 115 139 0
0.536731 -0.109919 -0.126891 139 115 0
0.53698 -0.115037 -0.127298 162 92 0
0.537431 -0.120155 -0.127552 185 69 0
0.537775 -0.125286 -0.127635 208 46 0
0.538006 -0.130425 -0.127667 231 23 0
0.538397 -0.135554 -0.127646 255 0 0
