ply
format ascii 1.0
comment Generated by robot_control PLYWriter
element vertex 14
property float x
property float y
property float z
property uchar red
property uchar green
property uchar blue
end_header
0.605494 -0.0529236 -0.0331806 0 255 0
0.605796 -0.0576989 -0.0322842 19 235 0
0.606116 -0.0624319 -0.0312028 39 215 0
0.606554 -0.0672044 -0.0303493 58 196 0
0.606962 -0.0719759 -0.0294698 78 176 0
0.607375 -0.0767348 -0.0285267 98 156 0
0.607651 -0.0814821 -0.0274884 117 137 0
0.607829 -0.0862182 -0.0263725 137 117 0
0.608098 -0.0909467 -0.0252486 156 98 0
0.608502 -0.0956845 -0.0242033 176 78 0
0.608899 -0.100451 -0.0232929 196 58 0
0.609267 -0.105234 -0.0224687 215 39 0
0.609431 -0.110005 -0.0215096 235 19 0
0.609725 -0.114744 -0.0204334 255 0 0
