ply
format ascii 1.0
comment Generated by robot_control PLYWriter
element vertex 200
property float x
property float y
property float z
property uchar red
property uchar green
property uchar blue
end_header
0.748728 0.0853575 -0.120855 0 255 0
0.748728 0.0853575 -0.120855 1 253 0
0.748728 0.0853575 -0.120855 2 252 0
0.748728 0.0853575 -0.120855 3 251 0
0.748728 0.0853575 -0.120855 5 249 0
0.748728 0.0853575 -0.120855 6 248 0
0.748728 0.0853575 -0.120855 7 247 0
0.748728 0.0853575 -0.120855 8 246 0
0.748728 0.0853575 -0.120855 10 244 0
0.748728 0.0853575 -0.120855 11 243 0
0.748728 0.0853575 -0.120855 12 242 0
0.748728 0.0853575 -0.120855 14 240 0
0.748728 0.0853575 -0.120855 15 239 0
0.748728 0.0853575 -0.120855 16 238 0
0.748728 0.0853575 -0.120855 17 237 0
0.748728 0.0853575 -0.120855 19 235 0
0.748728 0.0853575 -0.120855 20 234 0
0.748728 0.0853575 -0.120855 21 233 0
0.748728 0.0853575 -0.120855 23 231 0
0.748728 0.0853575 -0.120855 24 230 0
0.748728 0.0853575 -0.120855 25 229 0
0.748728 0.0853575 -0.120855 26 228 0
0.748728 0.0853575 -0.120855 28 226 0
0.748728 0.0853575 -0.120855 29 225 0
0.748728 0.0853575 -0.120855 30 224 0
0.748728 0.0853575 -0.120855 32 222 0
0.748728 0.0853575 -0.120855 33 221 0
0.748728 0.0853575 -0.120855 34 220 0
0.748728 0.0853575 -0.120855 35 219 0
0.748728 0.0853575 -0.120855 37 217 0
0.748728 0.0853575 -0.120855 38 216 0
0.748728 0.0853575 -0.120855 39 215 0
0.748728 0.0853575 -0.120855 41 213 0
0.748728 0.0853575 -0.120855 42 212 0
0.748728 0.0853575 -0.120855 43 211 0
0.748728 0.0853575 -0.120855 44 210 0
0.748728 0.0853575 -0.120855 46 208 0
0.748728 0.0853575 -0.120855 47 207 0
0.748728 0.0853575 -0.120855 48 206 0
0.748728 0.0853575 -0.120855 49 205 0
0.748728 0.0853575 -0.120855 51 203 0
0.748728 0.0853575 -0.120855 52 202 0
0.748728 0.0853575 -0.120855 53 201 0
0.748728 0.0853575 -0.120855 55 199 0
0.748728 0.0853575 -0.120855 56 198 0
0.748728 0.0853575 -0.120855 57 197 0
0.748728 0.0853575 -0.120855 58 196 0
0.748728 0.0853575 -0.120855 60 194 0
0.748728 0.0853575 -0.120855 61 193 0
0.748728 0.0853575 -0.120855 62 192 0
0.748728 0.0853575 -0.120855 64 190 0
0.748728 0.0853575 -0.120855 65 189 0
0.748728 0.0853575 -0.120855 66 188 0
0.748728 0.0853575 -0.120855 67 187 0
0.748728 0.0853575 -0.120855 69 185 0
0.748728 0.0853575 -0.120855 70 184 0
0.748728 0.0853575 -0.120855 71 183 0
0.748728 0.0853575 -0.120855 73 181 0
0.748728 0.0853575 -0.120855 74 180 0
0.748728 0.0853575 -0.120855 75 179 0
0.748728 0.0853575 -0.120855 76 178 0
0.748728 0.0853575 -0.120855 78 176 0
0.748728 0.0853575 -0.120855 79 175 0
0.748728 0.0853575 -0.120855 80 174 0
0.748728 0.0853575 -0.120855 82 172 0
0.748728 0.0853575 -0.120855 83 171 0
0.748728 0.0853575 -0.120855 84 170 0
0.748728 0.0853575 -0.120855 85 169 0
0.748728 0.0853575 -0.120855 87 167 0
0.748728 0.0853575 -0.120855 88 166 0
0.748728 0.0853575 -0.120855 89 165 0
0.748728 0.0853575 -0.120855 90 164 0
0.748728 0.0853575 -0.120855 92 162 0
0.748728 0.0853575 -0.120855 93 161 0
0.748728 0.0853575 -0.120855 94 160 0
0.748728 0.0853575 -0.120855 96 158 0
0.748728 0.0853575 -0.120855 97 157 0
0.748728 0.0853575 -0.120855 98 156 0
0.748728 0.0853575 -0.120855 99 155 0
0.748728 0.0853575 -0.120855 101 153 0
0.748728 0.0853575 -0.120855 102 152 0
0.748728 0.0853575 -0.120855 103 151 0
0.748728 0.0853575 -0.120855 105 149 0
0.748728 0.0853575 -0.120855 106 148 0
0.748728 0.0853575 -0.120855 107 147 0
0.748728 0.0853575 -0.120855 108 146 0
0.748728 0.0853575 -0.120855 110 144 0
0.748728 0.0853575 -0.120855 111 143 0
0.748728 0.0853575 -0.120855 112 142 0
0.748728 0.0853575 -0.120855 114 140 0
0.748728 0.0853575 -0.120855 115 139 0
0.748728 0.0853575 -0.120855 116 138 0
0.748728 0.0853575 -0.120855 117 137 0
0.748728 0.0853575 -0.120855 119 135 0
0.748728 0.0853575 -0.120855 120 134 0
0.748728 0.0853575 -0.120855 121 133 0
0.748728 0.0853575 -0.120855 123 131 0
0.748728 0.0853575 -0.120855 124 130 0
0.748728 0.0853575 -0.120855 125 129 0
0.748728 0.0853575 -0.120855 126 128 0
0.748728 0.0853575 -0.120855 128 126 0
0.748728 0.0853575 -0.120855 129 125 0
0.748728 0.0853575 -0.120855 130 124 0
0.748728 0.0853575 -0.120855 131 123 0
0.748728 0.0853575 -0.120855 133 121 0
0.748728 0.0853575 -0.120855 134 120 0
0.748728 0.0853575 -0.120855 135 119 0
0.748728 0.0853575 -0.120855 137 117 0
0.748728 0.0853575 -0.120855 138 116 0
0.748728 0.0853575 -0.120855 139 115 0
0.748728 0.0853575 -0.120855 140 114 0
0.748728 0.0853575 -0.120855 142 112 0
0.748728 0.0853575 -0.120855 143 111 0
0.748728 0.0853575 -0.120855 144 110 0
0.748728 0.0853575 -0.120855 146 108 0
0.748728 0.0853575 -0.120855 147 107 0
0.748728 0.0853575 -0.120855 148 106 0
0.748728 0.0853575 -0.120855 149 105 0
0.748728 0.0853575 -0.120855 151 103 0
0.748728 0.0853575 -0.120855 152 102 0
0.748728 0.0853575 -0.120855 153 101 0
0.748728 0.0853575 -0.120855 155 99 0
0.748728 0.0853575 -0.120855 156 98 0
0.748728 0.0853575 -0.120855 157 97 0
0.748728 0.0853575 -0.120855 158 96 0
0.748728 0.0853575 -0.120855 160 94 0
0.748728 0.0853575 -0.120855 161 93 0
0.748728 0.0853575 -0.120855 162 92 0
0.748728 0.0853575 -0.120855 164 90 0
0.748728 0.0853575 -0.120855 165 89 0
0.748728 0.0853575 -0.120855 166 88 0
0.748728 0.0853575 -0.120855 167 87 0
0.748728 0.0853575 -0.120855 169 85 0
0.748728 0.0853575 -0.120855 170 84 0
0.748728 0.0853575 -0.120855 171 83 0
0.748728 0.0853575 -0.120855 172 82 0
0.748728 0.0853575 -0.120855 174 80 0
0.748728 0.0853575 -0.120855 175 79 0
0.748728 0.0853575 -0.120855 176 78 0
0.748728 0.0853575 -0.120855 178 76 0
0.748728 0.0853575 -0.120855 179 75 0
0.748728 0.0853575 -0.120855 180 74 0
0.748728 0.0853575 -0.120855 181 73 0
0.748728 0.0853575 -0.120855 183 71 0
0.748728 0.0853575 -0.120855 184 70 0
0.748728 0.0853575 -0.120855 185 69 0
0.748728 0.0853575 -0.120855 187 67 0
0.748728 0.0853575 -0.120855 188 66 0
0.748728 0.0853575 -0.120855 189 65 0
0.748728 0.0853575 -0.120855 190 64 0
0.748728 0.0853575 -0.120855 192 62 0
0.748728 0.0853575 -0.120855 193 61 0
0.748728 0.0853575 -0.120855 194 60 0
0.748728 0.0853575 -0.120855 196 58 0
0.748728 0.0853575 -0.120855 197 57 0
0.748728 0.0853575 -0.120855 198 56 0
0.748728 0.0853575 -0.120855 199 55 0
0.748728 0.0853575 -0.120855 201 53 0
0.748728 0.0853575 -0.120855 202 52 0
0.748728 0.0853575 -0.120855 203 51 0
0.748728 0.0853575 -0.120855 205 49 0
0.748728 0.0853575 -0.120855 206 48 0
0.748728 0.0853575 -0.120855 207 47 0
0.748728 0.0853575 -0.120855 208 46 0
0.748728 0.0853575 -0.120855 210 44 0
0.748728 0.0853575 -0.120855 211 43 0
0.748728 0.0853575 -0.120855 212 42 0
0.748728 0.0853575 -0.120855 213 41 0
0.748728 0.0853575 -0.120855 215 39 0
0.748728 0.0853575 -0.120855 216 38 0
0.748728 0.0853575 -0.120855 217 37 0
0.748728 0.0853575 -0.120855 219 35 0
0.748728 0.0853575 -0.120855 220 34 0
0.748728 0.0853575 -0.120855 221 33 0
0.748728 0.0853575 -0.120855 222 32 0
0.748728 0.0853575 -0.120855 224 30 0
0.748728 0.0853575 -0.120855 225 29 0
0.748728 0.0853575 -0.120855 226 28 0
0.748728 0.0853575 -0.120855 228 26 0
0.748728 0.0853575 -0.120855 229 25 0
0.748728 0.0853575 -0.120855 230 24 0
0.748728 0.0853575 -0.120855 231 23 0
0.748728 0.0853575 -0.120855 233 21 0
0.748728 0.0853575 -0.120855 234 20 0
0.748728 0.0853575 -0.120855 235 19 0
0.748728 0.0853575 -0.120855 237 17 0
0.748728 0.0853575 -0.120855 238 16 0
0.748728 0.0853575 -0.120855 239 15 0
0.748728 0.0853575 -0.120855 240 14 0
0.748728 0.0853575 -0.120855 242 12 0
0.748728 0.0853575 -0.120855 243 11 0
0.748728 0.0853575 -0.120855 244 10 0
0.748728 0.0853575 -0.120855 246 8 0
0.748728 0.0853575 -0.120855 247 7 0
0.748728 0.0853575 -0.120855 248 6 0
0.748728 0.0853575 -0.120855 249 5 0
0.748728 0.0853575 -0.120855 251 3 0
0.748728 0.0853575 -0.120855 252 2 0
0.748728 0.0853575 -0.120855 253 1 0
0.748728 0.0853575 -0.120855 255 0 0
