ply
format ascii 1.0
comment Generated by robot_control PLYWriter
element vertex 45
property float x
property float y
property float z
property uchar red
property uchar green
property uchar blue
end_header
0.537091 0.200618 -0.150387 0 255 0
0.54193 0.199787 -0.148677 5 249 0
0.544587 0.196184 -0.146982 11 243 0
0.548903 0.193227 -0.145194 17 237 0
0.548632 0.187452 -0.143829 23 231 0
0.547623 0.182221 -0.142334 28 226 0
0.544521 0.177323 -0.141655 34 220 0
0.539827 0.17365 -0.141278 40 214 0
0.534274 0.172264 -0.141367 46 208 0
0.528405 0.172607 -0.141893 52 202 0
0.523461 0.17568 -0.143022 57 197 0
0.51925 0.179428 -0.144772 63 191 0
0.518785 0.185264 -0.145644 69 185 0
0.521499 0.190245 -0.146644 75 179 0
0.526739 0.192354 -0.146958 81 173 0
0.532535 0.193479 -0.146698 86 168 0
0.537871 0.191021 -0.14567 92 162 0
0.540868 0.186213 -0.144532 98 156 0
0.542961 0.18103 -0.143059 104 150 0
0.541898 0.175325 -0.141976 110 144 0
0.53867 0.17047 -0.141136 115 139 0
0.533458 0.167798 -0.140545 121 133 0
0.527876 0.165805 -0.14047 127 127 0
0.523228 0.164962 -0.14071 133 121 0
0.518098 0.167275 -0.141262 139 115 0
0.514343 0.17088 -0.142204 144 110 0
0.512413 0.176364 -0.143242 150 104 0
0.514842 0.180798 -0.144389 156 98 0
0.518105 0.185561 -0.144848 162 92 0
0.523855 0.186747 -0.14485 168 86 0
0.529696 0.186415 -0.144334 173 81 0
0.534159 0.182737 -0.143148 179 75 0
0.536271 0.17721 -0.142244 185 69 0
0.536322 0.171469 -0.140623 191 63 0
0.534777 0.165983 -0.139245 197 57 0
0.53031 0.162485 -0.138166 202 52 0
0.525488 0.159087 -0.137714 208 46 0
0.520132 0.157804 -0.137737 214 40 0
0.515095 0.159151 -0.13815 220 34 0
0.509821 0.161208 -0.139253 226 28 0
0.506968 0.165791 -0.140649 231 23 0
0.507305 0.171092 -0.142561 237 17 0
0.509965 0.175291 -0.143717 243 11 0
0.51356 0.178764 -0.144134 249 5 0
0.519108 0.179536 -0.143961 255 0 0
