ply
format ascii 1.0
comment Generated by robot_control PLYWriter
element vertex 54
property float x
property float y
property float z
property uchar red
property uchar green
property uchar blue
end_header
0.715501 0.103196 -0.114908 0 255 0
0.719652 0.101474 -0.11494 4 250 0
0.723191 0.0977543 -0.115298 9 245 0
0.725756 0.0930856 -0.115621 14 240 0
0.725033 0.0872115 -0.115481 19 235 0
0.723022 0.0818297 -0.114734 24 230 0
0.718037 0.0794702 -0.112816 28 226 0
0.712973 0.0777081 -0.11113 33 221 0
0.707871 0.0804723 -0.110082 38 216 0
0.70291 0.0836091 -0.109645 43 211 0
0.700586 0.0885499 -0.109933 48 206 0
0.698694 0.0940323 -0.111015 52 202 0
0.699018 0.0996046 -0.112933 57 197 0
0.701212 0.103937 -0.115088 62 192 0
0.705159 0.10769 -0.11729 67 187 0
0.709091 0.112052 -0.118222 72 182 0
0.71334 0.113447 -0.119808 76 178 0
0.719267 0.113726 -0.120204 81 173 0
0.722774 0.111666 -0.120605 86 168 0
0.723146 0.10638 -0.120958 91 163 0
0.728211 0.104134 -0.120829 96 158 0
0.729844 0.0988187 -0.119571 101 153 0
0.729046 0.093511 -0.117074 105 149 0
0.72632 0.0889402 -0.114821 110 144 0
0.720804 0.0874391 -0.113588 115 139 0
0.714897 0.0871591 -0.113302 120 134 0
0.710372 0.0901339 -0.113843 125 129 0
0.705714 0.0936605 -0.114859 129 125 0
0.703969 0.0989943 -0.116434 134 120 0
0.7027 0.104464 -0.118389 139 115 0
0.702861 0.109618 -0.121048 144 110 0
0.707653 0.112469 -0.123112 149 105 0
0.709999 0.11655 -0.126181 153 101 0
0.714635 0.119535 -0.128222 158 96 0
0.720133 0.120959 -0.129737 163 91 0
0.725557 0.119 -0.130333 168 86 0
0.72967 0.114868 -0.129897 173 81 0
0.734115 0.111245 -0.128606 178 76 0
0.734429 0.106085 -0.125864 182 72 0
0.733944 0.100971 -0.123171 187 67 0
0.730249 0.0977299 -0.120258 192 62 0
0.726079 0.0955137 -0.117366 197 57 0
0.720663 0.0944749 -0.115704 202 52 0
0.715787 0.0978229 -0.115332 206 48 0
0.710668 0.100113 -0.116519 211 43 0
0.709884 0.105369 -0.118549 216 38 0
0.707191 0.10783 -0.122231 221 33 0
0.708274 0.113144 -0.124493 226 28 0
0.708125 0.117209 -0.128377 230 24 0
0.710283 0.121633 -0.131697 235 19 0
0.712198 0.123893 -0.13616 240 14 0
0.716274 0.126884 -0.139154 245 9 0
0.720602 0.127057 -0.141843 250 4 0
0.725268 0.127961 -0.14309 255 0 0
