ply
format ascii 1.0
comment Generated by robot_control PLYWriter
element vertex 8
property float x
property float y
property float z
property uchar red
property uchar green
property uchar blue
end_header
0.581084 0.0414509 -0.040527 0 255 0
0.581081 0.0467127 -0.0405375 36 218 0
0.581077 0.0519737 -0.0404345 72 182 0
0.581091 0.057234 -0.0403091 109 145 0
0.581083 0.0624837 -0.0399508 145 109 0
0.581086 0.0677163 -0.0393971 182 72 0
0.580948 0.0729309 -0.0387057 218 36 0
0.580862 0.0781321 -0.0379178 255 0 0
