ply
format ascii 1.0
comment Generated by robot_control PLYWriter
element vertex 29
property float x
property float y
property float z
property uchar red
property uchar green
property uchar blue
end_header
0.714581 0.141322 -0.138417 0 255 0
0.719171 0.139606 -0.137878 9 245 0
0.722308 0.134964 -0.136881 18 236 0
0.721901 0.129137 -0.135574 27 227 0
0.718611 0.124685 -0.133891 36 218 0
0.713525 0.121666 -0.133078 45 209 0
0.707877 0.120874 -0.132719 54 200 0
0.702539 0.123407 -0.132821 63 191 0
0.697832 0.126553 -0.133268 72 182 0
0.694782 0.131591 -0.134205 81 173 0
0.692943 0.137219 -0.135058 91 163 0
0.694799 0.142529 -0.136278 100 154 0
0.698379 0.147129 -0.137644 109 145 0
0.703433 0.150055 -0.138538 118 136 0
0.708705 0.152353 -0.139153 127 127 0
0.713581 0.149545 -0.139238 136 118 0
0.716491 0.144403 -0.138728 145 109 0
0.718609 0.139979 -0.138038 154 100 0
0.715421 0.135124 -0.136872 163 91 0
0.711439 0.131156 -0.135754 173 81 0
0.705528 0.130572 -0.135065 182 72 0
0.699682 0.131575 -0.134778 191 63 0
0.69455 0.134438 -0.135122 200 54 0
0.691338 0.139347 -0.13581 209 45 0
0.688773 0.144457 -0.136863 218 36 0
0.689402 0.150072 -0.138501 227 27 0
0.692527 0.154865 -0.139997 236 18 0
0.696326 0.157731 -0.141604 245 9 0
0.700582 0.15964 -0.142914 255 0 0
