ply
format ascii 1.0
comment Generated by robot_control PLYWriter
element vertex 48
property float x
property float y
property float z
property uchar red
property uchar green
property uchar blue
end_header
0.620783 0.153323 -0.136501 0 255 0
0.625601 0.1518 -0.135783 5 249 0
0.628445 0.147071 -0.134523 10 244 0
0.630329 0.142959 -0.132869 16 238 0
0.629465 0.138743 -0.131231 21 233 0
0.626953 0.134247 -0.129655 27 227 0
0.622399 0.130629 -0.128715 32 222 0
0.616411 0.130187 -0.128568 37 217 0
0.610668 0.131733 -0.128983 43 211 0
0.605765 0.134904 -0.130124 48 206 0
0.603209 0.139876 -0.131496 54 200 0
0.602543 0.145653 -0.132987 59 195 0
0.602578 0.151375 -0.134866 65 189 0
0.605703 0.156209 -0.136295 70 184 0
0.609999 0.159657 -0.137265 75 179 0
0.615473 0.161398 -0.137873 81 173 0
0.621209 0.162299 -0.137946 86 168 0
0.626275 0.159318 -0.137635 92 162 0
0.630228 0.155118 -0.137066 97 157 0
0.631868 0.149702 -0.135952 103 151 0
0.630511 0.144525 -0.135027 108 146 0
0.626287 0.14131 -0.133804 113 141 0
0.621217 0.138471 -0.133455 119 135 0
0.615408 0.139732 -0.133536 124 130 0
0.609884 0.141979 -0.134068 130 124 0
0.6058 0.146044 -0.135055 135 119 0
0.603552 0.151533 -0.136065 141 113 0
0.602614 0.157174 -0.137544 146 108 0
0.605488 0.162203 -0.138955 151 103 0
0.609459 0.166426 -0.140093 157 97 0
0.614953 0.168668 -0.141033 162 92 0
0.620698 0.17005 -0.14144 168 86 0
0.626478 0.16875 -0.141413 173 81 0
0.630935 0.164888 -0.140921 179 75 0
0.633893 0.159729 -0.13998 184 70 0
0.633812 0.154197 -0.138585 189 65 0
0.630191 0.150103 -0.137291 195 59 0
0.625319 0.146776 -0.136189 200 54 0
0.619445 0.14696 -0.135884 206 48 0
0.613692 0.148248 -0.136089 211 43 0
0.609731 0.152208 -0.136701 217 37 0
0.606262 0.156801 -0.138108 222 32 0
0.605191 0.162382 -0.139672 227 27 0
0.606163 0.167869 -0.141535 233 21 0
0.608187 0.173072 -0.143083 238 16 0
0.612723 0.17599 -0.14463 244 10 0
0.615516 0.178224 -0.145646 249 5 0
0.620583 0.178128 -0.146947 255 0 0
