ply
format ascii 1.0
comment Generated by robot_control PLYWriter
element vertex 10
property float x
property float y
property float z
property uchar red
property uchar green
property uchar blue
end_header
0.615456 -0.25529 -0.103866 0 255 0
0.615944 -0.260331 -0.103095 28 226 0
0.616167 -0.265383 -0.102268 56 198 0
0.616414 -0.270448 -0.101538 85 169 0
0.616726 -0.275527 -0.100947 113 141 0
0.616887 -0.280619 -0.100426 141 113 0
0.616863 -0.285716 -0.0999075 170 84 0
0.616846 -0.290818 -0.0994342 198 56 0
0.616835 -0.295929 -0.09907 226 28 0
0.616818 -0.301041 -0.098744 255 0 0
