ply
format ascii 1.0
comment Generated by robot_control PLYWriter
element vertex 20
property float x
property float y
property float z
property uchar red
property uchar green
property uchar blue
end_header
0.516104 0.0474106 -0.116343 0 255 0
0.514413 0.0519874 -0.11686 13 241 0
0.512799 0.0565747 -0.117504 26 228 0
0.511149 0.0611309 -0.118271 40 214 0
0.509484 0.0656831 -0.119028 53 201 0
0.507918 0.0702681 -0.119803 67 187 0
0.506323 0.0748411 -0.120587 80 174 0
0.504664 0.0793928 -0.121365 93 161 0
0.503032 0.0839527 -0.122149 107 147 0
0.501318 0.088477 -0.122966 120 134 0
0.499655 0.0930032 -0.123872 134 120 0
0.498002 0.0975093 -0.12489 147 107 0
0.496304 0.101987 -0.125957 161 93 0
0.494713 0.106494 -0.12707 174 80 0
0.493104 0.110977 -0.128246 187 67 0
0.491591 0.115471 -0.129504 201 53 0
0.489964 0.119908 -0.130821 214 40 0
0.488259 0.124341 -0.132047 228 26 0
0.486689 0.12879 -0.133395 241 13 0
0.485195 0.1332 -0.13494 255 0 0
