ply
format ascii 1.0
comment Generated by robot_control PLYWriter
element vertex 16
property float x
property float y
property float z
property uchar red
property uchar green
property uchar blue
end_header
0.554592 0.0900025 -0.109674 0 255 0
0.55271 0.0945959 -0.110392 17 238 0
0.551032 0.0992314 -0.111318 34 221 0
0.549336 0.103881 -0.112153 51 204 0
0.5475 0.108458 -0.113078 68 187 0
0.545741 0.113043 -0.114115 85 169 0
0.54396 0.117585 -0.115292 102 153 0
0.542207 0.122095 -0.116623 119 135 0
0.540482 0.126568 -0.118106 136 118 0
0.538824 0.131024 -0.119711 153 101 0
0.537094 0.135423 -0.121397 170 84 0
0.535346 0.139784 -0.123159 187 67 0
0.533625 0.144133 -0.124978 204 50 0
0.531917 0.148469 -0.126833 221 33 0
0.530267 0.152775 -0.128809 238 16 0
0.528648 0.15706 -0.130862 255 0 0
