ply
format ascii 1.0
comment Generated by robot_control PLYWriter
element vertex 14
property float x
property float y
property float z
property uchar red
property uchar green
property uchar blue
end_header
0.610269 0.114438 -0.136879 0 255 0
0.609702 0.119478 -0.137588 19 235 0
0.608995 0.124471 -0.138479 39 215 0
0.608285 0.129454 -0.139418 58 196 0
0.607623 0.134416 -0.140496 78 176 0
0.607013 0.13934 -0.141762 98 156 0
0.606477 0.144209 -0.143252 117 137 0
0.605832 0.149 -0.144941 137 117 0
0.604993 0.15373 -0.146716 156 98 0
0.604366 0.158435 -0.14864 176 78 0
0.60353 0.163099 -0.150582 196 58 0
0.602879 0.167761 -0.152595 215 39 0
0.602149 0.172389 -0.154661 235 19 0
0.601288 0.177044 -0.156615 255 0 0
