ply
format ascii 1.0
comment Generated by robot_control PLYWriter
element vertex 200
property float x
property float y
property float z
property uchar red
property uchar green
property uchar blue
end_header
0.54225 -0.360277 -0.0938014 0 255 0
0.54225 -0.360277 -0.0938014 1 253 0
0.54225 -0.360277 -0.0938014 2 252 0
0.54225 -0.360277 -0.0938014 3 251 0
0.54225 -0.360277 -0.0938014 5 249 0
0.54225 -0.360277 -0.0938014 6 248 0
0.54225 -0.360277 -0.0938014 7 247 0
0.54225 -0.360277 -0.0938014 8 246 0
0.54225 -0.360277 -0.0938014 10 244 0
0.54225 -0.360277 -0.0938014 11 243 0
0.54225 -0.360277 -0.0938014 12 242 0
0.54225 -0.360277 -0.0938014 14 240 0
0.54225 -0.360277 -0.0938014 15 239 0
0.54225 -0.360277 -0.0938014 16 238 0
0.54225 -0.360277 -0.0938014 17 237 0
0.54225 -0.360277 -0.0938014 19 235 0
0.54225 -0.360277 -0.0938014 20 234 0
0.54225 -0.360277 -0.0938014 21 233 0
0.54225 -0.360277 -0.0938014 23 231 0
0.54225 -0.360277 -0.0938014 24 230 0
0.54225 -0.360277 -0.0938014 25 229 0
0.54225 -0.360277 -0.0938014 26 228 0
0.54225 -0.360277 -0.0938014 28 226 0
0.54225 -0.360277 -0.0938014 29 225 0
0.54225 -0.360277 -0.0938014 30 224 0
0.54225 -0.360277 -0.0938014 32 222 0
0.54225 -0.360277 -0.0938014 33 221 0
0.54225 -0.360277 -0.0938014 34 220 0
0.54225 -0.360277 -0.0938014 35 219 0
0.54225 -0.360277 -0.0938014 37 217 0
0.54225 -0.360277 -0.0938014 38 216 0
0.54225 -0.360277 -0.0938014 39 215 0
0.54225 -0.360277 -0.0938014 41 213 0
0.54225 -0.360277 -0.0938014 42 212 0
0.54225 -0.360277 -0.0938014 43 211 0
0.54225 -0.360277 -0.0938014 44 210 0
0.54225 -0.360277 -0.0938014 46 208 0
0.54225 -0.360277 -0.0938014 47 207 0
0.54225 -0.360277 -0.0938014 48 206 0
0.54225 -0.360277 -0.0938014 49 205 0
0.54225 -0.360277 -0.0938014 51 203 0
0.54225 -0.360277 -0.0938014 52 202 0
0.54225 -0.360277 -0.0938014 53 201 0
0.54225 -0.360277 -0.0938014 55 199 0
0.54225 -0.360277 -0.0938014 56 198 0
0.54225 -0.360277 -0.0938014 57 197 0
0.54225 -0.360277 -0.0938014 58 196 0
0.54225 -0.360277 -0.0938014 60 194 0
0.54225 -0.360277 -0.0938014 61 193 0
0.54225 -0.360277 -0.0938014 62 192 0
0.54225 -0.360277 -0.0938014 64 190 0
0.54225 -0.360277 -0.0938014 65 189 0
0.54225 -0.360277 -0.0938014 66 188 0
0.54225 -0.360277 -0.0938014 67 187 0
0.54225 -0.360277 -0.0938014 69 185 0
0.54225 -0.360277 -0.0938014 70 184 0
0.54225 -0.360277 -0.0938014 71 183 0
0.54225 -0.360277 -0.0938014 73 181 0
0.54225 -0.360277 -0.0938014 74 180 0
0.54225 -0.360277 -0.0938014 75 179 0
0.54225 -0.360277 -0.0938014 76 178 0
0.54225 -0.360277 -0.0938014 78 176 0
0.54225 -0.360277 -0.0938014 79 175 0
0.54225 -0.360277 -0.0938014 80 174 0
0.54225 -0.360277 -0.0938014 82 172 0
0.54225 -0.360277 -0.0938014 83 171 0
0.54225 -0.360277 -0.0938014 84 170 0
0.54225 -0.360277 -0.0938014 85 169 0
0.54225 -0.360277 -0.0938014 87 167 0
0.54225 -0.360277 -0.0938014 88 166 0
0.54225 -0.360277 -0.0938014 89 165 0
0.54225 -0.360277 -0.0938014 90 164 0
0.54225 -0.360277 -0.0938014 92 162 0
0.54225 -0.360277 -0.0938014 93 161 0
0.54225 -0.360277 -0.0938014 94 160 0
0.54225 -0.360277 -0.0938014 96 158 0
0.54225 -0.360277 -0.0938014 97 157 0
0.54225 -0.360277 -0.0938014 98 156 0
0.54225 -0.360277 -0.0938014 99 155 0
0.54225 -0.360277 -0.0938014 101 153 0
0.54225 -0.360277 -0.0938014 102 152 0
0.54225 -0.360277 -0.0938014 103 151 0
0.54225 -0.360277 -0.0938014 105 149 0
0.54225 -0.360277 -0.0938014 106 148 0
0.54225 -0.360277 -0.0938014 107 147 0
0.54225 -0.360277 -0.0938014 108 146 0
0.54225 -0.360277 -0.0938014 110 144 0
0.54225 -0.360277 -0.0938014 111 143 0
0.54225 -0.360277 -0.0938014 112 142 0
0.54225 -0.360277 -0.0938014 114 140 0
0.54225 -0.360277 -0.0938014 115 139 0
0.54225 -0.360277 -0.0938014 116 138 0
0.54225 -0.360277 -0.0938014 117 137 0
0.54225 -0.360277 -0.0938014 119 135 0
0.54225 -0.360277 -0.0938014 120 134 0
0.54225 -0.360277 -0.0938014 121 133 0
0.54225 -0.360277 -0.0938014 123 131 0
0.54225 -0.360277 -0.0938014 124 130 0
0.54225 -0.360277 -0.0938014 125 129 0
0.54225 -0.360277 -0.0938014 126 128 0
0.54225 -0.360277 -0.0938014 128 126 0
0.54225 -0.360277 -0.0938014 129 125 0
0.54225 -0.360277 -0.0938014 130 124 0
0.54225 -0.360277 -0.0938014 131 123 0
0.54225 -0.360277 -0.0938014 133 121 0
0.54225 -0.360277 -0.0938014 134 120 0
0.54225 -0.360277 -0.0938014 135 119 0
0.54225 -0.360277 -0.0938014 137 117 0
0.54225 -0.360277 -0.0938014 138 116 0
0.54225 -0.360277 -0.0938014 139 115 0
0.54225 -0.360277 -0.0938014 140 114 0
0.54225 -0.360277 -0.0938014 142 112 0
0.54225 -0.360277 -0.0938014 143 111 0
0.54225 -0.360277 -0.0938014 144 110 0
0.54225 -0.360277 -0.0938014 146 108 0
0.54225 -0.360277 -0.0938014 147 107 0
0.54225 -0.360277 -0.0938014 148 106 0
0.54225 -0.360277 -0.0938014 149 105 0
0.54225 -0.360277 -0.0938014 151 103 0
0.54225 -0.360277 -0.0938014 152 102 0
0.54225 -0.360277 -0.0938014 153 101 0
0.54225 -0.360277 -0.0938014 155 99 0
0.54225 -0.360277 -0.0938014 156 98 0
0.54225 -0.360277 -0.0938014 157 97 0
0.54225 -0.360277 -0.0938014 158 96 0
0.54225 -0.360277 -0.0938014 160 94 0
0.54225 -0.360277 -0.0938014 161 93 0
0.54225 -0.360277 -0.0938014 162 92 0
0.54225 -0.360277 -0.0938014 164 90 0
0.54225 -0.360277 -0.0938014 165 89 0
0.54225 -0.360277 -0.0938014 166 88 0
0.54225 -0.360277 -0.0938014 167 87 0
0.54225 -0.360277 -0.0938014 169 85 0
0.54225 -0.360277 -0.0938014 170 84 0
0.54225 -0.360277 -0.0938014 171 83 0
0.54225 -0.360277 -0.0938014 172 82 0
0.54225 -0.360277 -0.0938014 174 80 0
0.54225 -0.360277 -0.0938014 175 79 0
0.54225 -0.360277 -0.0938014 176 78 0
0.54225 -0.360277 -0.0938014 178 76 0
0.54225 -0.360277 -0.0938014 179 75 0
0.54225 -0.360277 -0.0938014 180 74 0
0.54225 -0.360277 -0.0938014 181 73 0
0.54225 -0.360277 -0.0938014 183 71 0
0.54225 -0.360277 -0.0938014 184 70 0
0.54225 -0.360277 -0.0938014 185 69 0
0.54225 -0.360277 -0.0938014 187 67 0
0.54225 -0.360277 -0.0938014 188 66 0
0.54225 -0.360277 -0.0938014 189 65 0
0.54225 -0.360277 -0.0938014 190 64 0
0.54225 -0.360277 -0.0938014 192 62 0
0.54225 -0.360277 -0.0938014 193 61 0
0.54225 -0.360277 -0.0938014 194 60 0
0.54225 -0.360277 -0.0938014 196 58 0
0.54225 -0.360277 -0.0938014 197 57 0
0.54225 -0.360277 -0.0938014 198 56 0
0.54225 -0.360277 -0.0938014 199 55 0
0.54225 -0.360277 -0.0938014 201 53 0
0.54225 -0.360277 -0.0938014 202 52 0
0.54225 -0.360277 -0.0938014 203 51 0
0.54225 -0.360277 -0.0938014 205 49 0
0.54225 -0.360277 -0.0938014 206 48 0
0.54225 -0.360277 -0.0938014 207 47 0
0.54225 -0.360277 -0.0938014 208 46 0
0.54225 -0.360277 -0.0938014 210 44 0
0.54225 -0.360277 -0.0938014 211 43 0
0.54225 -0.360277 -0.0938014 212 42 0
0.54225 -0.360277 -0.0938014 213 41 0
0.54225 -0.360277 -0.0938014 215 39 0
0.54225 -0.360277 -0.0938014 216 38 0
0.54225 -0.360277 -0.0938014 217 37 0
0.54225 -0.360277 -0.0938014 219 35 0
0.54225 -0.360277 -0.0938014 220 34 0
0.54225 -0.360277 -0.0938014 221 33 0
0.54225 -0.360277 -0.0938014 222 32 0
0.54225 -0.360277 -0.0938014 224 30 0
0.54225 -0.360277 -0.0938014 225 29 0
0.54225 -0.360277 -0.0938014 226 28 0
0.54225 -0.360277 -0.0938014 228 26 0
0.54225 -0.360277 -0.0938014 229 25 0
0.54225 -0.360277 -0.0938014 230 24 0
0.54225 -0.360277 -0.0938014 231 23 0
0.54225 -0.360277 -0.0938014 233 21 0
0.54225 -0.360277 -0.0938014 234 20 0
0.54225 -0.360277 -0.0938014 235 19 0
0.54225 -0.360277 -0.0938014 237 17 0
0.54225 -0.360277 -0.0938014 238 16 0
0.54225 -0.360277 -0.0938014 239 15 0
0.54225 -0.360277 -0.0938014 240 14 0
0.54225 -0.360277 -0.0938014 242 12 0
0.54225 -0.360277 -0.0938014 243 11 0
0.54225 -0.360277 -0.0938014 244 10 0
0.54225 -0.360277 -0.0938014 246 8 0
0.54225 -0.360277 -0.0938014 247 7 0
0.54225 -0.360277 -0.0938014 248 6 0
0.54225 -0.360277 -0.0938014 249 5 0
0.54225 -0.360277 -0.0938014 251 3 0
0.54225 -0.360277 -0.0938014 252 2 0
0.54225 -0.360277 -0.0938014 253 1 0
0.54225 -0.360277 -0.0938014 255 0 0
