ply
format ascii 1.0
comment Generated by robot_control PLYWriter
element vertex 47
property float x
property float y
property float z
property uchar red
property uchar green
property uchar blue
end_header
0.704126 0.0525833 -0.140068 0 255 0
0.708933 0.0508665 -0.140012 5 249 0
0.713062 0.0469607 -0.139281 11 243 0
0.716399 0.0422627 -0.137727 16 238 0
0.715774 0.0371011 -0.135911 22 232 0
0.715158 0.0314669 -0.133992 27 227 0
0.710795 0.0284151 -0.132218 33 221 0
0.704824 0.0280079 -0.131372 38 216 0
0.699566 0.0305962 -0.131172 44 210 0
0.694617 0.033823 -0.131655 49 205 0
0.692043 0.0391394 -0.132906 55 199 0
0.693141 0.0443186 -0.134769 60 194 0
0.694075 0.0498806 -0.136756 66 188 0
0.698132 0.0533361 -0.138491 72 182 0
0.703289 0.0558349 -0.140149 77 177 0
0.709256 0.0554957 -0.14106 83 171 0
0.714907 0.0537542 -0.14157 88 166 0
0.719988 0.0504932 -0.14156 94 160 0
0.723805 0.0461366 -0.140894 99 155 0
0.724478 0.040199 -0.140037 105 149 0
0.723022 0.0346606 -0.13845 110 144 0
0.719024 0.0310356 -0.136611 116 138 0
0.71313 0.030555 -0.135436 121 133 0
0.70737 0.0318063 -0.135059 127 127 0
0.704289 0.0366699 -0.13546 133 121 0
0.701292 0.0417381 -0.136603 138 116 0
0.701765 0.047085 -0.13858 144 110 0
0.702802 0.0526214 -0.140711 149 105 0
0.707174 0.0562171 -0.142838 155 99 0
0.711917 0.0591954 -0.144579 160 94 0
0.717599 0.0589967 -0.146117 166 88 0
0.723017 0.0565712 -0.14714 171 83 0
0.728308 0.0536926 -0.14756 177 77 0
0.732002 0.049011 -0.147193 182 72 0
0.733902 0.043419 -0.145926 188 66 0
0.733388 0.0378494 -0.144183 194 60 0
0.729675 0.0341018 -0.141514 199 55 0
0.724216 0.0335005 -0.139323 205 49 0
0.718825 0.0341565 -0.137769 210 44 0
0.714167 0.037878 -0.137539 216 38 0
0.710371 0.0420894 -0.138171 221 33 0
0.70897 0.0470862 -0.139792 227 27 0
0.710376 0.0525257 -0.141731 232 22 0
0.712975 0.0558178 -0.145231 238 16 0
0.715957 0.059243 -0.148309 243 11 0
0.719816 0.0619919 -0.150964 249 5 0
0.723882 0.0611255 -0.153688 255 0 0
