ply
format ascii 1.0
comment Generated by robot_control PLYWriter
element vertex 96
property float x
property float y
property float z
property uchar red
property uchar green
property uchar blue
end_header
0.617979 0.0801411 -0.131776 0 255 0
0.621362 0.0770814 -0.130047 2 252 0
0.624756 0.0736392 -0.128087 5 249 0
0.627566 0.0691472 -0.126458 8 246 0
0.626906 0.0645122 -0.124935 10 244 0
0.626111 0.0607466 -0.123839 13 241 0
0.62521 0.0550407 -0.122909 16 238 0
0.62116 0.0512444 -0.12254 18 236 0
0.616492 0.047534 -0.122733 21 233 0
0.611153 0.0467679 -0.123437 24 230 0
0.606183 0.0470486 -0.124753 26 228 0
0.602065 0.049825 -0.126333 29 225 0
0.598291 0.0537078 -0.127811 32 222 0
0.598295 0.0595202 -0.129303 34 220 0
0.601403 0.0644389 -0.129992 37 217 0
0.606252 0.0675379 -0.129742 40 214 0
0.611711 0.0695386 -0.128932 42 212 0
0.61742 0.0686437 -0.127441 45 209 0
0.622387 0.0658256 -0.125761 48 206 0
0.626148 0.0614299 -0.124321 51 204 0
0.626317 0.0556941 -0.122673 53 201 0
0.625996 0.0498361 -0.121579 56 198 0
0.623695 0.0444007 -0.120704 59 195 0
0.619952 0.0399663 -0.12037 61 193 0
0.614597 0.0373646 -0.120462 64 190 0
0.609075 0.0359597 -0.121134 67 187 0
0.603576 0.0378521 -0.122173 69 185 0
0.599453 0.0417971 -0.123658 72 182 0
0.598253 0.0473166 -0.1248 75 179 0
0.599942 0.0527056 -0.125529 77 177 0
0.603468 0.0575336 -0.125647 80 174 0
0.609125 0.0592964 -0.125259 83 171 0
0.614679 0.0580065 -0.124288 85 169 0
0.620165 0.0567133 -0.122934 88 166 0
0.6245 0.0532785 -0.121385 91 163 0
0.626062 0.0477137 -0.119836 93 161 0
0.626539 0.0418691 -0.118619 96 158 0
0.625901 0.0360539 -0.11766 99 155 0
0.622621 0.0312674 -0.116887 102 153 0
0.618265 0.027155 -0.116561 104 150 0
0.612944 0.024975 -0.116628 107 147 0
0.607041 0.0252787 -0.117158 110 144 0
0.6019 0.0279411 -0.118442 112 142 0
0.598389 0.0325442 -0.119631 115 139 0
0.598212 0.0383373 -0.120722 118 136 0
0.599764 0.0438272 -0.121219 120 134 0
0.604825 0.0466454 -0.121226 123 131 0
0.610659 0.0479994 -0.120853 126 128 0
0.616356 0.0469571 -0.119724 128 126 0
0.621005 0.0434919 -0.118481 131 123 0
0.624991 0.0391805 -0.117248 134 120 0
0.627041 0.0339484 -0.115838 136 118 0
0.625794 0.0282909 -0.114658 139 115 0
0.623267 0.0229978 -0.113505 142 112 0
0.619499 0.0184182 -0.112945 144 110 0
0.614469 0.0152374 -0.112874 147 107 0
0.608826 0.014174 -0.113159 150 104 0
0.602974 0.0150799 -0.114016 153 101 0
0.599392 0.0195714 -0.115285 155 99 0
0.59684 0.0248952 -0.116354 158 96 0
0.599018 0.0300456 -0.117291 161 93 0
0.602732 0.0346408 -0.117586 163 91 0
0.60786 0.0376004 -0.117501 166 88 0
0.613644 0.0372804 -0.116768 169 85 0
0.618878 0.0345517 -0.115699 171 83 0
0.62336 0.0308011 -0.114556 174 80 0
0.62481 0.0256507 -0.112899 177 77 0
0.62679 0.0202791 -0.111689 179 75 0
0.624392 0.0149857 -0.110488 182 72 0
0.622218 0.00977767 -0.109569 185 69 0
0.617582 0.00619617 -0.109101 187 67 0
0.612067 0.00395227 -0.109105 190 64 0
0.606169 0.00365683 -0.109717 193 61 0
0.601329 0.00614281 -0.110504 195 59 0
0.598225 0.0106555 -0.111887 198 56 0
0.596926 0.0161022 -0.112983 201 53 0
0.59879 0.0214591 -0.11406 204 50 0
0.603517 0.0248702 -0.114356 206 48 0
0.609263 0.0264981 -0.114193 209 45 0
0.615029 0.0255426 -0.113271 212 42 0
0.62001 0.0237975 -0.112134 214 40 0
0.622839 0.0188328 -0.110577 217 37 0
0.624529 0.0139063 -0.108891 220 34 0
0.625178 0.00810397 -0.107692 222 32 0
0.623107 0.0028881 -0.106769 225 29 0
0.620985 -0.00225971 -0.105824 228 26 0
0.615814 -0.00505399 -0.105429 230 24 0
0.611107 -0.00781586 -0.105676 233 21 0
0.60592 -0.00644345 -0.106225 236 18 0
0.600906 -0.00453928 -0.107614 238 16 0
0.597323 -0.00091988 -0.108948 241 13 0
0.596517 0.00445016 -0.110167 244 10 0
0.598032 0.00816345 -0.111071 246 8 0
0.601219 0.0124601 -0.111592 249 5 0
0.605425 0.0147489 -0.111923 252 2 0
0.610902 0.016388 -0.111752 255 0 0
