ply
format ascii 1.0
comment Generated by robot_control PLYWriter
element vertex 96
property float x
property float y
property float z
property uchar red
property uchar green
property uchar blue
end_header
0.616303 0.0160998 -0.110887 0 255 0
0.620587 0.0143089 -0.109481 2 252 0
0.624076 0.0120612 -0.108253 5 249 0
0.625144 0.00672871 -0.106672 8 246 0
0.625066 0.000884493 -0.105365 10 244 0
0.622651 -0.00256981 -0.104737 13 241 0
0.61816 -0.00599635 -0.104676 16 238 0
0.612869 -0.00811624 -0.105285 18 236 0
0.607565 -0.00648403 -0.106222 21 233 0
0.602948 -0.00418999 -0.107758 24 230 0
0.598792 -0.000165725 -0.108845 26 228 0
0.596736 0.00503846 -0.11044 29 225 0
0.596339 0.010768 -0.111975 32 222 0
0.599193 0.0157115 -0.113009 34 220 0
0.601741 0.0208878 -0.113646 37 217 0
0.606088 0.0248724 -0.113892 40 214 0
0.611566 0.0268545 -0.113579 42 212 0
0.616805 0.0267298 -0.11297 45 209 0
0.621935 0.0237645 -0.112083 48 206 0
0.624641 0.0191134 -0.110455 51 204 0
0.625812 0.0142423 -0.109501 53 201 0
0.623666 0.00889419 -0.108754 56 198 0
0.619168 0.00506704 -0.108596 59 195 0
0.613441 0.00405238 -0.109108 61 193 0
0.607598 0.00484243 -0.109823 64 190 0
0.602254 0.00723799 -0.110986 67 187 0
0.59914 0.0118572 -0.112681 69 185 0
0.596445 0.0167175 -0.114093 72 182 0
0.597472 0.022359 -0.115462 75 179 0
0.599988 0.0277151 -0.116372 77 177 0
0.602706 0.0330261 -0.116974 80 174 0
0.607275 0.0366397 -0.117236 83 171 0
0.613152 0.0375243 -0.116953 85 169 0
0.619091 0.0370584 -0.116334 88 166 0
0.622701 0.033215 -0.115273 91 163 0
0.625366 0.0283462 -0.113873 93 161 0
0.625249 0.0224823 -0.112826 96 158 0
0.62253 0.0175128 -0.112368 99 155 0
0.617519 0.0143111 -0.11247 102 153 0
0.611674 0.0137358 -0.113031 104 150 0
0.605926 0.0148856 -0.114081 107 147 0
0.60204 0.0190782 -0.115572 110 144 0
0.599463 0.024331 -0.116874 112 142 0
0.598092 0.0299267 -0.118055 115 139 0
0.598213 0.0358095 -0.11919 118 136 0
0.600363 0.0411566 -0.120175 120 134 0
0.604745 0.0451768 -0.120674 123 131 0
0.610145 0.0477848 -0.1207 126 128 0
0.616063 0.0477297 -0.120251 128 126 0
0.621569 0.0460105 -0.119275 131 123 0
0.624563 0.0412098 -0.118005 134 120 0
0.625822 0.0359231 -0.116854 136 118 0
0.623891 0.0304932 -0.116211 139 115 0
0.619186 0.0268591 -0.116216 142 112 0
0.613549 0.0250766 -0.116687 144 110 0
0.607949 0.0260658 -0.117533 147 107 0
0.602958 0.0290668 -0.118861 150 104 0
0.599813 0.0339029 -0.120494 153 101 0
0.598223 0.0392307 -0.12197 155 99 0
0.598252 0.0451158 -0.123115 158 96 0
0.60067 0.0501543 -0.124137 161 93 0
0.604074 0.0550687 -0.124579 163 91 0
0.609242 0.0576938 -0.124694 166 88 0
0.61495 0.0591319 -0.12433 169 85 0
0.620261 0.0577009 -0.123515 171 83 0
0.624908 0.0552442 -0.122242 174 80 0
0.627146 0.0498013 -0.121152 177 77 0
0.626639 0.0440609 -0.120208 179 75 0
0.622018 0.0404242 -0.119791 182 72 0
0.617491 0.0364974 -0.119854 185 69 0
0.611814 0.0358117 -0.120593 187 67 0
0.606285 0.0373361 -0.12179 190 64 0
0.602944 0.0417211 -0.123386 193 61 0
0.599515 0.0461616 -0.125023 195 59 0
0.598306 0.0517576 -0.126396 198 56 0
0.599365 0.0572869 -0.127804 201 53 0
0.602415 0.0624033 -0.128478 204 50 0
0.606115 0.0670962 -0.128809 206 48 0
0.611712 0.0687332 -0.128601 209 45 0
0.617545 0.0689387 -0.127852 212 42 0
0.622989 0.0673382 -0.126568 214 40 0
0.626214 0.0626969 -0.124825 217 37 0
0.628321 0.0576645 -0.123408 220 34 0
0.624384 0.0535557 -0.122522 222 32 0
0.621042 0.0492432 -0.122263 225 29 0
0.615687 0.0470273 -0.122634 228 26 0
0.610312 0.0479578 -0.123483 230 24 0
0.605343 0.0488234 -0.125521 233 21 0
0.601826 0.053117 -0.127142 236 18 0
0.599261 0.0573702 -0.12891 238 16 0
0.598357 0.0625116 -0.131064 241 13 0
0.598835 0.0681741 -0.132523 244 10 0
0.602216 0.0726937 -0.133281 246 8 0
0.605804 0.0766713 -0.133738 249 5 0
0.609977 0.0793229 -0.133745 252 2 0
0.613402 0.080522 -0.133263 255 0 0
