ply
format ascii 1.0
comment Generated by robot_control PLYWriter
element vertex 31
property float x
property float y
property float z
property uchar red
property uchar green
property uchar blue
end_header
0.68731 0.0706662 -0.145606 0 255 0
0.692413 0.0689227 -0.14493 8 246 0
0.696407 0.0651335 -0.14351 17 238 0
0.699988 0.0608799 -0.141359 25 229 0
0.701102 0.055417 -0.139569 34 221 0
0.700566 0.0497364 -0.137615 42 212 0
0.698464 0.0444929 -0.135696 51 204 0
0.693463 0.0415885 -0.134236 59 195 0
0.687885 0.0403614 -0.133283 68 187 0
0.682417 0.0428887 -0.133249 76 178 0
0.677688 0.0463165 -0.133912 85 169 0
0.675658 0.0518683 -0.135068 93 161 0
0.676655 0.0574136 -0.136262 102 153 0
0.681441 0.0606321 -0.137579 110 144 0
0.686879 0.0629758 -0.138575 119 135 0
0.692474 0.0634255 -0.13906 127 127 0
0.697497 0.0603446 -0.139128 136 118 0
0.702874 0.0577786 -0.138774 144 110 0
0.706226 0.0527912 -0.138181 153 101 0
0.708972 0.0476887 -0.137201 161 93 0
0.708068 0.0419175 -0.135999 170 84 0
0.705386 0.0367506 -0.134398 178 76 0
0.700834 0.033313 -0.13291 187 67 0
0.695281 0.0317659 -0.131574 195 59 0
0.689901 0.0342188 -0.130944 204 50 0
0.685583 0.0382983 -0.131148 212 42 0
0.683018 0.0432478 -0.132174 221 33 0
0.684896 0.0483461 -0.133725 229 25 0
0.688918 0.0517564 -0.135599 238 16 0
0.693978 0.0536436 -0.137305 246 8 0
0.699074 0.0537389 -0.138801 255 0 0
