ply
format ascii 1.0
comment Generated by robot_control PLYWriter
element vertex 31
property float x
property float y
property float z
property uchar red
property uchar green
property uchar blue
end_header
0.585799 0.101535 -0.141951 0 255 0
0.590375 0.0995293 -0.140015 8 246 0
0.594975 0.095938 -0.138373 17 238 0
0.596748 0.0907812 -0.136699 25 229 0
0.597549 0.0856816 -0.13522 34 221 0
0.596243 0.080058 -0.134006 42 212 0
0.591626 0.0763164 -0.133471 51 204 0
0.586479 0.0740159 -0.133595 59 195 0
0.580468 0.0741024 -0.134264 68 187 0
0.575975 0.0775254 -0.135347 76 178 0
0.573541 0.0829533 -0.136516 85 169 0
0.573547 0.0888417 -0.137534 93 161 0
0.576628 0.0936748 -0.138334 102 153 0
0.581717 0.0969357 -0.13878 110 144 0
0.587048 0.0997654 -0.138838 119 135 0
0.592969 0.100067 -0.138573 127 127 0
0.598983 0.0996239 -0.13798 136 118 0
0.604517 0.0974653 -0.137112 144 110 0
0.607027 0.092275 -0.135915 153 101 0
0.608334 0.0865038 -0.134806 161 93 0
0.60706 0.0808158 -0.13351 170 84 0
0.603481 0.076141 -0.132495 178 76 0
0.598422 0.0735484 -0.132076 187 67 0
0.592377 0.0735062 -0.132308 195 59 0
0.587905 0.0767035 -0.133194 204 50 0
0.585057 0.0816156 -0.134557 212 42 0
0.585172 0.0874461 -0.136037 221 33 0
0.588458 0.0923177 -0.137475 229 25 0
0.592945 0.0960779 -0.138602 238 16 0
0.597741 0.099095 -0.139431 246 8 0
0.603506 0.0990989 -0.139702 255 0 0
