ply
format ascii 1.0
comment Generated by robot_control PLYWriter
element vertex 116
property float x
property float y
property float z
property uchar red
property uchar green
property uchar blue
end_header
0.685893 0.0160041 -0.11054 0 255 0
0.689413 0.013737 -0.111338 2 252 0
0.693132 0.0111398 -0.112909 4 250 0
0.696582 0.00708076 -0.114407 6 248 0
0.698746 0.00228533 -0.115744 8 246 0
0.699133 -0.00331008 -0.116526 11 243 0
0.697467 -0.00857358 -0.116498 13 241 0
0.69249 -0.0118843 -0.115863 15 239 0
0.688306 -0.0141758 -0.114462 17 237 0
0.683081 -0.01657 -0.113355 19 235 0
0.677395 -0.0154632 -0.11199 22 232 0
0.672331 -0.0126155 -0.110625 24 230 0
0.667967 -0.00875569 -0.109528 26 228 0
0.66464 -0.00413804 -0.108742 28 226 0
0.663657 0.00170388 -0.108269 31 223 0
0.662886 0.00752738 -0.107901 33 221 0
0.66543 0.0129733 -0.107822 35 219 0
0.66886 0.0178911 -0.107927 37 217 0
0.673056 0.0221105 -0.10834 39 215 0
0.678577 0.0243842 -0.109096 42 212 0
0.684285 0.0242555 -0.109842 44 210 0
0.689884 0.0232263 -0.11097 46 208 0
0.694492 0.019463 -0.111744 48 206 0
0.697844 0.0146311 -0.112482 51 204 0
0.698539 0.00875951 -0.113032 53 201 0
0.696614 0.00331782 -0.113123 55 199 0
0.693013 -0.00150028 -0.112945 57 197 0
0.688058 -0.00463702 -0.112337 59 195 0
0.682372 -0.00629806 -0.111612 62 192 0
0.676471 -0.00598131 -0.11082 64 190 0
0.671424 -0.00339373 -0.109902 66 188 0
0.667231 0.000841282 -0.109161 68 186 0
0.663704 0.00559486 -0.108566 70 184 0
0.662777 0.0113586 -0.108137 73 181 0
0.662795 0.017372 -0.107888 75 179 0
0.664276 0.0230445 -0.107795 77 177 0
0.66797 0.0277092 -0.107859 79 175 0
0.672556 0.0315551 -0.108078 82 172 0
0.678059 0.0331886 -0.108564 84 170 0
0.684033 0.0333657 -0.109268 86 168 0
0.689873 0.0321377 -0.109853 88 166 0
0.694782 0.0290994 -0.110493 90 164 0
0.6966 0.0233811 -0.110851 93 161 0
0.69832 0.0177345 -0.111 95 159 0
0.697306 0.0120705 -0.110987 97 157 0
0.693226 0.00770786 -0.110849 99 155 0
0.68836 0.00421881 -0.110598 102 153 0
0.682595 0.00339014 -0.110175 104 150 0
0.676603 0.00356879 -0.109645 106 148 0
0.671154 0.00575679 -0.109121 108 146 0
0.666468 0.0093502 -0.108544 110 144 0
0.663707 0.014495 -0.107999 113 141 0
0.662757 0.020376 -0.107651 115 139 0
0.662699 0.0263898 -0.107419 117 137 0
0.663567 0.0320939 -0.107312 119 135 0
0.667557 0.0365629 -0.107344 121 133 0
0.670745 0.0416592 -0.107475 124 130 0
0.676502 0.0433663 -0.107773 126 128 0
0.682486 0.0428439 -0.108157 128 126 0
0.688279 0.0413138 -0.108642 130 124 0
0.693504 0.0387801 -0.109166 133 121 0
0.696706 0.0337413 -0.109503 135 119 0
0.69842 0.0280389 -0.10974 137 117 0
0.697167 0.0225057 -0.109835 139 115 0
0.693073 0.0181513 -0.10977 141 113 0
0.688186 0.014654 -0.109572 144 110 0
0.682694 0.0122916 -0.109335 146 108 0
0.677164 0.0131114 -0.109007 148 106 0
0.671922 0.0160172 -0.108553 150 104 0
0.667277 0.0197746 -0.108105 153 101 0
0.66399 0.0246375 -0.107707 155 99 0
0.662718 0.0303723 -0.107316 157 97 0
0.662814 0.0363823 -0.107038 159 95 0
0.664163 0.0420883 -0.106922 161 93 0
0.668046 0.0465501 -0.106936 164 90 0
0.672812 0.0501859 -0.107056 166 88 0
0.678256 0.0526876 -0.10728 168 86 0
0.683825 0.0526499 -0.107549 170 84 0
0.689258 0.0500914 -0.107927 172 82 0
0.694031 0.0465278 -0.108382 175 79 0
0.69684 0.0412492 -0.108714 177 77 0
0.698018 0.0358395 -0.108913 179 75 0
0.695523 0.0303732 -0.108987 181 73 0
0.692017 0.0260063 -0.108907 184 70 0
0.687333 0.0222599 -0.108775 186 68 0
0.6816 0.0218857 -0.108577 188 66 0
0.675701 0.0223546 -0.108199 190 64 0
0.670383 0.0251559 -0.107892 192 62 0
0.666125 0.0290063 -0.107456 195 59 0
0.663979 0.0346193 -0.107123 197 57 0
0.662714 0.0404207 -0.106829 199 55 0
0.662672 0.0464351 -0.106622 201 53 0
0.665331 0.0517383 -0.106505 204 50 0
0.668268 0.0568583 -0.106462 206 48 0
0.672952 0.0605631 -0.106513 208 46 0
0.678702 0.0615579 -0.106708 210 44 0
0.684717 0.0615663 -0.106914 212 42 0
0.690273 0.0596943 -0.107186 215 39 0
0.695025 0.0561362 -0.1075 217 37 0
0.696558 0.0506436 -0.107854 219 35 0
0.696624 0.0446589 -0.108329 221 33 0
0.694003 0.0393338 -0.108572 223 31 0
0.691305 0.0339875 -0.108631 226 28 0
0.686152 0.0317982 -0.108466 228 26 0
0.680141 0.0317249 -0.108199 230 24 0
0.674186 0.0318136 -0.107725 232 22 0
0.669077 0.0346567 -0.107308 235 19 0
0.665291 0.0392782 -0.106875 237 17 0
0.662673 0.044087 -0.106635 239 15 0
0.660393 0.0490285 -0.106519 241 13 0
0.66039 0.0550475 -0.106492 243 11 0
0.662772 0.0597829 -0.106546 246 8 0
0.665079 0.0645184 -0.106568 248 6 0
0.669082 0.0681422 -0.106559 250 4 0
0.674363 0.0698573 -0.106639 252 2 0
0.678734 0.0713054 -0.10663 255 0 0
