ply
format ascii 1.0
comment Generated by robot_control PLYWriter
element vertex 200
property float x
property float y
property float z
property uchar red
property uchar green
property uchar blue
end_header
0.659052 -0.120968 -0.130372 0 255 0
0.659052 -0.120968 -0.130372 1 253 0
0.659052 -0.120968 -0.130372 2 252 0
0.659052 -0.120968 -0.130372 3 251 0
0.659052 -0.120968 -0.130372 5 249 0
0.659052 -0.120968 -0.130372 6 248 0
0.659052 -0.120968 -0.130372 7 247 0
0.659052 -0.120968 -0.130372 8 246 0
0.659052 -0.120968 -0.130372 10 244 0
0.659052 -0.120968 -0.130372 11 243 0
0.659052 -0.120968 -0.130372 12 242 0
0.659052 -0.120968 -0.130372 14 240 0
0.659052 -0.120968 -0.130372 15 239 0
0.659052 -0.120968 -0.130372 16 238 0
0.659052 -0.120968 -0.130372 17 237 0
0.659052 -0.120968 -0.130372 19 235 0
0.659052 -0.120968 -0.130372 20 234 0
0.659052 -0.120968 -0.130372 21 233 0
0.659052 -0.120968 -0.130372 23 231 0
0.659052 -0.120968 -0.130372 24 230 0
0.659052 -0.120968 -0.130372 25 229 0
0.659052 -0.120968 -0.130372 26 228 0
0.659052 -0.120968 -0.130372 28 226 0
0.659052 -0.120968 -0.130372 29 225 0
0.659052 -0.120968 -0.130372 30 224 0
0.659052 -0.120968 -0.130372 32 222 0
0.659052 -0.120968 -0.130372 33 221 0
0.659052 -0.120968 -0.130372 34 220 0
0.659052 -0.120968 -0.130372 35 219 0
0.659052 -0.120968 -0.130372 37 217 0
0.659052 -0.120968 -0.130372 38 216 0
0.659052 -0.120968 -0.130372 39 215 0
0.659052 -0.120968 -0.130372 41 213 0
0.659052 -0.120968 -0.130372 42 212 0
0.659052 -0.120968 -0.130372 43 211 0
0.659052 -0.120968 -0.130372 44 210 0
0.659052 -0.120968 -0.130372 46 208 0
0.659052 -0.120968 -0.130372 47 207 0
0.659052 -0.120968 -0.130372 48 206 0
0.659052 -0.120968 -0.130372 49 205 0
0.659052 -0.120968 -0.130372 51 203 0
0.659052 -0.120968 -0.130372 52 202 0
0.659052 -0.120968 -0.130372 53 201 0
0.659052 -0.120968 -0.130372 55 199 0
0.659052 -0.120968 -0.130372 56 198 0
0.659052 -0.120968 -0.130372 57 197 0
0.659052 -0.120968 -0.130372 58 196 0
0.659052 -0.120968 -0.130372 60 194 0
0.659052 -0.120968 -0.130372 61 193 0
0.659052 -0.120968 -0.130372 62 192 0
0.659052 -0.120968 -0.130372 64 190 0
0.659052 -0.120968 -0.130372 65 189 0
0.659052 -0.120968 -0.130372 66 188 0
0.659052 -0.120968 -0.130372 67 187 0
0.659052 -0.120968 -0.130372 69 185 0
0.659052 -0.120968 -0.130372 70 184 0
0.659052 -0.120968 -0.130372 71 183 0
0.659052 -0.120968 -0.130372 73 181 0
0.659052 -0.120968 -0.130372 74 180 0
0.659052 -0.120968 -0.130372 75 179 0
0.659052 -0.120968 -0.130372 76 178 0
0.659052 -0.120968 -0.130372 78 176 0
0.659052 -0.120968 -0.130372 79 175 0
0.659052 -0.120968 -0.130372 80 174 0
0.659052 -0.120968 -0.130372 82 172 0
0.659052 -0.120968 -0.130372 83 171 0
0.659052 -0.120968 -0.130372 84 170 0
0.659052 -0.120968 -0.130372 85 169 0
0.659052 -0.120968 -0.130372 87 167 0
0.659052 -0.120968 -0.130372 88 166 0
0.659052 -0.120968 -0.130372 89 165 0
0.659052 -0.120968 -0.130372 90 164 0
0.659052 -0.120968 -0.130372 92 162 0
0.659052 -0.120968 -0.130372 93 161 0
0.659052 -0.120968 -0.130372 94 160 0
0.659052 -0.120968 -0.130372 96 158 0
0.659052 -0.120968 -0.130372 97 157 0
0.659052 -0.120968 -0.130372 98 156 0
0.659052 -0.120968 -0.130372 99 155 0
0.659052 -0.120968 -0.130372 101 153 0
0.659052 -0.120968 -0.130372 102 152 0
0.659052 -0.120968 -0.130372 103 151 0
0.659052 -0.120968 -0.130372 105 149 0
0.659052 -0.120968 -0.130372 106 148 0
0.659052 -0.120968 -0.130372 107 147 0
0.659052 -0.120968 -0.130372 108 146 0
0.659052 -0.120968 -0.130372 110 144 0
0.659052 -0.120968 -0.130372 111 143 0
0.659052 -0.120968 -0.130372 112 142 0
0.659052 -0.120968 -0.130372 114 140 0
0.659052 -0.120968 -0.130372 115 139 0
0.659052 -0.120968 -0.130372 116 138 0
0.659052 -0.120968 -0.130372 117 137 0
0.659052 -0.120968 -0.130372 119 135 0
0.659052 -0.120968 -0.130372 120 134 0
0.659052 -0.120968 -0.130372 121 133 0
0.659052 -0.120968 -0.130372 123 131 0
0.659052 -0.120968 -0.130372 124 130 0
0.659052 -0.120968 -0.130372 125 129 0
0.659052 -0.120968 -0.130372 126 128 0
0.659052 -0.120968 -0.130372 128 126 0
0.659052 -0.120968 -0.130372 129 125 0
0.659052 -0.120968 -0.130372 130 124 0
0.659052 -0.120968 -0.130372 131 123 0
0.659052 -0.120968 -0.130372 133 121 0
0.659052 -0.120968 -0.130372 134 120 0
0.659052 -0.120968 -0.130372 135 119 0
0.659052 -0.120968 -0.130372 137 117 0
0.659052 -0.120968 -0.130372 138 116 0
0.659052 -0.120968 -0.130372 139 115 0
0.659052 -0.120968 -0.130372 140 114 0
0.659052 -0.120968 -0.130372 142 112 0
0.659052 -0.120968 -0.130372 143 111 0
0.659052 -0.120968 -0.130372 144 110 0
0.659052 -0.120968 -0.130372 146 108 0
0.659052 -0.120968 -0.130372 147 107 0
0.659052 -0.120968 -0.130372 148 106 0
0.659052 -0.120968 -0.130372 149 105 0
0.659052 -0.120968 -0.130372 151 103 0
0.659052 -0.120968 -0.130372 152 102 0
0.659052 -0.120968 -0.130372 153 101 0
0.659052 -0.120968 -0.130372 155 99 0
0.659052 -0.120968 -0.130372 156 98 0
0.659052 -0.120968 -0.130372 157 97 0
0.659052 -0.120968 -0.130372 158 96 0
0.659052 -0.120968 -0.130372 160 94 0
0.659052 -0.120968 -0.130372 161 93 0
0.659052 -0.120968 -0.130372 162 92 0
0.659052 -0.120968 -0.130372 164 90 0
0.659052 -0.120968 -0.130372 165 89 0
0.659052 -0.120968 -0.130372 166 88 0
0.659052 -0.120968 -0.130372 167 87 0
0.659052 -0.120968 -0.130372 169 85 0
0.659052 -0.120968 -0.130372 170 84 0
0.659052 -0.120968 -0.130372 171 83 0
0.659052 -0.120968 -0.130372 172 82 0
0.659052 -0.120968 -0.130372 174 80 0
0.659052 -0.120968 -0.130372 175 79 0
0.659052 -0.120968 -0.130372 176 78 0
0.659052 -0.120968 -0.130372 178 76 0
0.659052 -0.120968 -0.130372 179 75 0
0.659052 -0.120968 -0.130372 180 74 0
0.659052 -0.120968 -0.130372 181 73 0
0.659052 -0.120968 -0.130372 183 71 0
0.659052 -0.120968 -0.130372 184 70 0
0.659052 -0.120968 -0.130372 185 69 0
0.659052 -0.120968 -0.130372 187 67 0
0.659052 -0.120968 -0.130372 188 66 0
0.659052 -0.120968 -0.130372 189 65 0
0.659052 -0.120968 -0.130372 190 64 0
0.659052 -0.120968 -0.130372 192 62 0
0.659052 -0.120968 -0.130372 193 61 0
0.659052 -0.120968 -0.130372 194 60 0
0.659052 -0.120968 -0.130372 196 58 0
0.659052 -0.120968 -0.130372 197 57 0
0.659052 -0.120968 -0.130372 198 56 0
0.659052 -0.120968 -0.130372 199 55 0
0.659052 -0.120968 -0.130372 201 53 0
0.659052 -0.120968 -0.130372 202 52 0
0.659052 -0.120968 -0.130372 203 51 0
0.659052 -0.120968 -0.130372 205 49 0
0.659052 -0.120968 -0.130372 206 48 0
0.659052 -0.120968 -0.130372 207 47 0
0.659052 -0.120968 -0.130372 208 46 0
0.659052 -0.120968 -0.130372 210 44 0
0.659052 -0.120968 -0.130372 211 43 0
0.659052 -0.120968 -0.130372 212 42 0
0.659052 -0.120968 -0.130372 213 41 0
0.659052 -0.120968 -0.130372 215 39 0
0.659052 -0.120968 -0.130372 216 38 0
0.659052 -0.120968 -0.130372 217 37 0
0.659052 -0.120968 -0.130372 219 35 0
0.659052 -0.120968 -0.130372 220 34 0
0.659052 -0.120968 -0.130372 221 33 0
0.659052 -0.120968 -0.130372 222 32 0
0.659052 -0.120968 -0.130372 224 30 0
0.659052 -0.120968 -0.130372 225 29 0
0.659052 -0.120968 -0.130372 226 28 0
0.659052 -0.120968 -0.130372 228 26 0
0.659052 -0.120968 -0.130372 229 25 0
0.659052 -0.120968 -0.130372 230 24 0
0.659052 -0.120968 -0.130372 231 23 0
0.659052 -0.120968 -0.130372 233 21 0
0.659052 -0.120968 -0.130372 234 20 0
0.659052 -0.120968 -0.130372 235 19 0
0.659052 -0.120968 -0.130372 237 17 0
0.659052 -0.120968 -0.130372 238 16 0
0.659052 -0.120968 -0.130372 239 15 0
0.659052 -0.120968 -0.130372 240 14 0
0.659052 -0.120968 -0.130372 242 12 0
0.659052 -0.120968 -0.130372 243 11 0
0.659052 -0.120968 -0.130372 244 10 0
0.659052 -0.120968 -0.130372 246 8 0
0.659052 -0.120968 -0.130372 247 7 0
0.659052 -0.120968 -0.130372 248 6 0
0.659052 -0.120968 -0.130372 249 5 0
0.659052 -0.120968 -0.130372 251 3 0
0.659052 -0.120968 -0.130372 252 2 0
0.659052 -0.120968 -0.130372 253 1 0
0.659052 -0.120968 -0.130372 255 0 0
