ply
format ascii 1.0
comment Generated by robot_control PLYWriter
element vertex 8
property float x
property float y
property float z
property uchar red
property uchar green
property uchar blue
end_header
0.608052 -0.0287645 -0.125447 0 255 0
0.60773 -0.0234683 -0.125271 36 218 0
0.607456 -0.0181612 -0.125114 72 182 0
0.607057 -0.0128636 -0.124911 109 145 0
0.606742 -0.00755976 -0.124722 145 109 0
0.606122 -0.00228905 -0.124415 182 72 0
0.605732 0.00300567 -0.124138 218 36 0
0.605277 0.0082915 -0.123797 255 0 0
