ply
format ascii 1.0
comment Generated by robot_control PLYWriter
element vertex 66
property float x
property float y
property float z
property uchar red
property uchar green
property uchar blue
end_header
0.692072 -0.0205133 -0.13047 0 255 0
0.696698 -0.0230145 -0.130576 3 251 0
0.699649 -0.0267658 -0.130627 7 247 0
0.701161 -0.0320236 -0.130576 11 243 0
0.699754 -0.0372643 -0.13048 15 239 0
0.696536 -0.0408699 -0.130434 19 235 0
0.691588 -0.0441784 -0.130431 23 231 0
0.68582 -0.0447037 -0.130396 27 227 0
0.680505 -0.0423748 -0.130329 31 223 0
0.675812 -0.0387298 -0.130341 35 219 0
0.672519 -0.0339228 -0.130406 39 215 0
0.671176 -0.0281907 -0.130476 43 211 0
0.671493 -0.0222489 -0.130493 47 207 0
0.673994 -0.0169337 -0.130454 51 204 0
0.677705 -0.0122833 -0.130417 54 200 0
0.682719 -0.0105397 -0.130465 58 196 0
0.688263 -0.00830275 -0.130547 62 192 0
0.693867 -0.00988399 -0.130618 66 188 0
0.698292 -0.0125236 -0.130592 70 184 0
0.701052 -0.0178406 -0.130494 74 180 0
0.701001 -0.0238055 -0.130367 78 176 0
0.698171 -0.0287111 -0.130283 82 172 0
0.692978 -0.0316621 -0.130247 86 168 0
0.687472 -0.0331171 -0.130261 90 164 0
0.681479 -0.0331153 -0.130322 94 160 0
0.677133 -0.0291399 -0.130403 98 156 0
0.673839 -0.0241861 -0.130591 102 153 0
0.671266 -0.0190075 -0.13074 105 149 0
0.671717 -0.0130697 -0.130852 109 145 0
0.673398 -0.0073373 -0.130939 113 141 0
0.676618 -0.00231312 -0.131032 117 137 0
0.681437 0.000873261 -0.131092 121 133 0
0.687194 0.00197265 -0.131112 125 129 0
0.693158 0.00178521 -0.131074 129 125 0
0.698661 -0.000575584 -0.130997 133 121 0
0.701107 -0.00587918 -0.130814 137 117 0
0.700986 -0.0118639 -0.130549 141 113 0
0.698904 -0.0174451 -0.130438 145 109 0
0.694535 -0.0213462 -0.130417 149 105 0
0.688933 -0.0229918 -0.130523 153 101 0
0.683497 -0.0211619 -0.130791 156 98 0
0.678415 -0.0180109 -0.131097 160 94 0
0.67426 -0.0138231 -0.131367 164 90 0
0.672061 -0.00825655 -0.131669 168 86 0
0.67112 -0.00260795 -0.132004 172 82 0
0.672918 0.00309524 -0.132313 176 78 0
0.676044 0.0081749 -0.132468 180 74 0
0.680921 0.0115289 -0.132529 184 70 0
0.686274 0.0138794 -0.132446 188 66 0
0.692075 0.0126817 -0.132213 192 62 0
0.696959 0.00947261 -0.131866 196 58 0
0.701064 0.00530012 -0.131402 200 54 0
0.701141 -0.000632856 -0.130988 204 50 0
0.698388 -0.00521945 -0.130697 207 47 0
0.694673 -0.00967643 -0.130616 211 43 0
0.689613 -0.0116984 -0.130733 215 39 0
0.684526 -0.0105363 -0.130946 219 35 0
0.679169 -0.00831113 -0.13141 223 31 0
0.674595 -0.00459103 -0.132037 227 27 0
0.673183 0.00109855 -0.132569 231 23 0
0.670748 0.00605163 -0.133135 235 19 0
0.672807 0.0111702 -0.133743 239 15 0
0.675083 0.0162749 -0.134203 243 11 0
0.678442 0.0198945 -0.134637 247 7 0
0.682615 0.0217495 -0.134861 251 3 0
0.686792 0.0235287 -0.134965 255 0 0
