ply
format ascii 1.0
comment Generated by robot_control PLYWriter
element vertex 200
property float x
property float y
property float z
property uchar red
property uchar green
property uchar blue
end_header
0.60475 0.127616 -0.106963 0 255 0
0.60475 0.127616 -0.106963 1 253 0
0.60475 0.127616 -0.106963 2 252 0
0.60475 0.127616 -0.106963 3 251 0
0.60475 0.127616 -0.106963 5 249 0
0.60475 0.127616 -0.106963 6 248 0
0.60475 0.127616 -0.106963 7 247 0
0.60475 0.127616 -0.106963 8 246 0
0.60475 0.127616 -0.106963 10 244 0
0.60475 0.127616 -0.106963 11 243 0
0.60475 0.127616 -0.106963 12 242 0
0.60475 0.127616 -0.106963 14 240 0
0.60475 0.127616 -0.106963 15 239 0
0.60475 0.127616 -0.106963 16 238 0
0.60475 0.127616 -0.106963 17 237 0
0.60475 0.127616 -0.106963 19 235 0
0.60475 0.127616 -0.106963 20 234 0
0.60475 0.127616 -0.106963 21 233 0
0.60475 0.127616 -0.106963 23 231 0
0.60475 0.127616 -0.106963 24 230 0
0.60475 0.127616 -0.106963 25 229 0
0.60475 0.127616 -0.106963 26 228 0
0.60475 0.127616 -0.106963 28 226 0
0.60475 0.127616 -0.106963 29 225 0
0.60475 0.127616 -0.106963 30 224 0
0.60475 0.127616 -0.106963 32 222 0
0.60475 0.127616 -0.106963 33 221 0
0.60475 0.127616 -0.106963 34 220 0
0.60475 0.127616 -0.106963 35 219 0
0.60475 0.127616 -0.106963 37 217 0
0.60475 0.127616 -0.106963 38 216 0
0.60475 0.127616 -0.106963 39 215 0
0.60475 0.127616 -0.106963 41 213 0
0.60475 0.127616 -0.106963 42 212 0
0.60475 0.127616 -0.106963 43 211 0
0.60475 0.127616 -0.106963 44 210 0
0.60475 0.127616 -0.106963 46 208 0
0.60475 0.127616 -0.106963 47 207 0
0.60475 0.127616 -0.106963 48 206 0
0.60475 0.127616 -0.106963 49 205 0
0.60475 0.127616 -0.106963 51 203 0
0.60475 0.127616 -0.106963 52 202 0
0.60475 0.127616 -0.106963 53 201 0
0.60475 0.127616 -0.106963 55 199 0
0.60475 0.127616 -0.106963 56 198 0
0.60475 0.127616 -0.106963 57 197 0
0.60475 0.127616 -0.106963 58 196 0
0.60475 0.127616 -0.106963 60 194 0
0.60475 0.127616 -0.106963 61 193 0
0.60475 0.127616 -0.106963 62 192 0
0.60475 0.127616 -0.106963 64 190 0
0.60475 0.127616 -0.106963 65 189 0
0.60475 0.127616 -0.106963 66 188 0
0.60475 0.127616 -0.106963 67 187 0
0.60475 0.127616 -0.106963 69 185 0
0.60475 0.127616 -0.106963 70 184 0
0.60475 0.127616 -0.106963 71 183 0
0.60475 0.127616 -0.106963 73 181 0
0.60475 0.127616 -0.106963 74 180 0
0.60475 0.127616 -0.106963 75 179 0
0.60475 0.127616 -0.106963 76 178 0
0.60475 0.127616 -0.106963 78 176 0
0.60475 0.127616 -0.106963 79 175 0
0.60475 0.127616 -0.106963 80 174 0
0.60475 0.127616 -0.106963 82 172 0
0.60475 0.127616 -0.106963 83 171 0
0.60475 0.127616 -0.106963 84 170 0
0.60475 0.127616 -0.106963 85 169 0
0.60475 0.127616 -0.106963 87 167 0
0.60475 0.127616 -0.106963 88 166 0
0.60475 0.127616 -0.106963 89 165 0
0.60475 0.127616 -0.106963 90 164 0
0.60475 0.127616 -0.106963 92 162 0
0.60475 0.127616 -0.106963 93 161 0
0.60475 0.127616 -0.106963 94 160 0
0.60475 0.127616 -0.106963 96 158 0
0.60475 0.127616 -0.106963 97 157 0
0.60475 0.127616 -0.106963 98 156 0
0.60475 0.127616 -0.106963 99 155 0
0.60475 0.127616 -0.106963 101 153 0
0.60475 0.127616 -0.106963 102 152 0
0.60475 0.127616 -0.106963 103 151 0
0.60475 0.127616 -0.106963 105 149 0
0.60475 0.127616 -0.106963 106 148 0
0.60475 0.127616 -0.106963 107 147 0
0.60475 0.127616 -0.106963 108 146 0
0.60475 0.127616 -0.106963 110 144 0
0.60475 0.127616 -0.106963 111 143 0
0.60475 0.127616 -0.106963 112 142 0
0.60475 0.127616 -0.106963 114 140 0
0.60475 0.127616 -0.106963 115 139 0
0.60475 0.127616 -0.106963 116 138 0
0.60475 0.127616 -0.106963 117 137 0
0.60475 0.127616 -0.106963 119 135 0
0.60475 0.127616 -0.106963 120 134 0
0.60475 0.127616 -0.106963 121 133 0
0.60475 0.127616 -0.106963 123 131 0
0.60475 0.127616 -0.106963 124 130 0
0.60475 0.127616 -0.106963 125 129 0
0.60475 0.127616 -0.106963 126 128 0
0.60475 0.127616 -0.106963 128 126 0
0.60475 0.127616 -0.106963 129 125 0
0.60475 0.127616 -0.106963 130 124 0
0.60475 0.127616 -0.106963 131 123 0
0.60475 0.127616 -0.106963 133 121 0
0.60475 0.127616 -0.106963 134 120 0
0.60475 0.127616 -0.106963 135 119 0
0.60475 0.127616 -0.106963 137 117 0
0.60475 0.127616 -0.106963 138 116 0
0.60475 0.127616 -0.106963 139 115 0
0.60475 0.127616 -0.106963 140 114 0
0.60475 0.127616 -0.106963 142 112 0
0.60475 0.127616 -0.106963 143 111 0
0.60475 0.127616 -0.106963 144 110 0
0.60475 0.127616 -0.106963 146 108 0
0.60475 0.127616 -0.106963 147 107 0
0.60475 0.127616 -0.106963 148 106 0
0.60475 0.127616 -0.106963 149 105 0
0.60475 0.127616 -0.106963 151 103 0
0.60475 0.127616 -0.106963 152 102 0
0.60475 0.127616 -0.106963 153 101 0
0.60475 0.127616 -0.106963 155 99 0
0.60475 0.127616 -0.106963 156 98 0
0.60475 0.127616 -0.106963 157 97 0
0.60475 0.127616 -0.106963 158 96 0
0.60475 0.127616 -0.106963 160 94 0
0.60475 0.127616 -0.106963 161 93 0
0.60475 0.127616 -0.106963 162 92 0
0.60475 0.127616 -0.106963 164 90 0
0.60475 0.127616 -0.106963 165 89 0
0.60475 0.127616 -0.106963 166 88 0
0.60475 0.127616 -0.106963 167 87 0
0.60475 0.127616 -0.106963 169 85 0
0.60475 0.127616 -0.106963 170 84 0
0.60475 0.127616 -0.106963 171 83 0
0.60475 0.127616 -0.106963 172 82 0
0.60475 0.127616 -0.106963 174 80 0
0.60475 0.127616 -0.106963 175 79 0
0.60475 0.127616 -0.106963 176 78 0
0.60475 0.127616 -0.106963 178 76 0
0.60475 0.127616 -0.106963 179 75 0
0.60475 0.127616 -0.106963 180 74 0
0.60475 0.127616 -0.106963 181 73 0
0.60475 0.127616 -0.106963 183 71 0
0.60475 0.127616 -0.106963 184 70 0
0.60475 0.127616 -0.106963 185 69 0
0.60475 0.127616 -0.106963 187 67 0
0.60475 0.127616 -0.106963 188 66 0
0.60475 0.127616 -0.106963 189 65 0
0.60475 0.127616 -0.106963 190 64 0
0.60475 0.127616 -0.106963 192 62 0
0.60475 0.127616 -0.106963 193 61 0
0.60475 0.127616 -0.106963 194 60 0
0.60475 0.127616 -0.106963 196 58 0
0.60475 0.127616 -0.106963 197 57 0
0.60475 0.127616 -0.106963 198 56 0
0.60475 0.127616 -0.106963 199 55 0
0.60475 0.127616 -0.106963 201 53 0
0.60475 0.127616 -0.106963 202 52 0
0.60475 0.127616 -0.106963 203 51 0
0.60475 0.127616 -0.106963 205 49 0
0.60475 0.127616 -0.106963 206 48 0
0.60475 0.127616 -0.106963 207 47 0
0.60475 0.127616 -0.106963 208 46 0
0.60475 0.127616 -0.106963 210 44 0
0.60475 0.127616 -0.106963 211 43 0
0.60475 0.127616 -0.106963 212 42 0
0.60475 0.127616 -0.106963 213 41 0
0.60475 0.127616 -0.106963 215 39 0
0.60475 0.127616 -0.106963 216 38 0
0.60475 0.127616 -0.106963 217 37 0
0.60475 0.127616 -0.106963 219 35 0
0.60475 0.127616 -0.106963 220 34 0
0.60475 0.127616 -0.106963 221 33 0
0.60475 0.127616 -0.106963 222 32 0
0.60475 0.127616 -0.106963 224 30 0
0.60475 0.127616 -0.106963 225 29 0
0.60475 0.127616 -0.106963 226 28 0
0.60475 0.127616 -0.106963 228 26 0
0.60475 0.127616 -0.106963 229 25 0
0.60475 0.127616 -0.106963 230 24 0
0.60475 0.127616 -0.106963 231 23 0
0.60475 0.127616 -0.106963 233 21 0
0.60475 0.127616 -0.106963 234 20 0
0.60475 0.127616 -0.106963 235 19 0
0.60475 0.127616 -0.106963 237 17 0
0.60475 0.127616 -0.106963 238 16 0
0.60475 0.127616 -0.106963 239 15 0
0.60475 0.127616 -0.106963 240 14 0
0.60475 0.127616 -0.106963 242 12 0
0.60475 0.127616 -0.106963 243 11 0
0.60475 0.127616 -0.106963 244 10 0
0.60475 0.127616 -0.106963 246 8 0
0.60475 0.127616 -0.106963 247 7 0
0.60475 0.127616 -0.106963 248 6 0
0.60475 0.127616 -0.106963 249 5 0
0.60475 0.127616 -0.106963 251 3 0
0.60475 0.127616 -0.106963 252 2 0
0.60475 0.127616 -0.106963 253 1 0
0.60475 0.127616 -0.106963 255 0 0
