ply
format ascii 1.0
comment Generated by robot_control PLYWriter
element vertex 32
property float x
property float y
property float z
property uchar red
property uchar green
property uchar blue
end_header
0.579345 0.114097 -0.127171 0 255 0
0.583885 0.112679 -0.123423 8 246 0
0.58724 0.108878 -0.120384 16 238 0
0.5908 0.104784 -0.117769 24 230 0
0.59079 0.0991821 -0.115449 32 222 0
0.589036 0.0936856 -0.114647 41 213 0
0.586233 0.0883733 -0.114978 49 205 0
0.581408 0.085707 -0.116267 57 197 0
0.575697 0.0857324 -0.118331 65 189 0
0.570266 0.0871288 -0.120555 74 180 0
0.567952 0.0925492 -0.122086 82 172 0
0.566803 0.0983198 -0.123391 90 164 0
0.570106 0.10316 -0.123779 98 156 0
0.573999 0.107713 -0.123404 106 148 0
0.579277 0.110511 -0.122708 115 139 0
0.585171 0.1112 -0.121339 123 131 0
0.590981 0.111272 -0.119618 131 123 0
0.595597 0.108252 -0.118132 139 115 0
0.599435 0.103872 -0.116452 148 106 0
0.602139 0.0987803 -0.114736 156 98 0
0.602861 0.0930225 -0.113254 164 90 0
0.601349 0.0872234 -0.1123 172 82 0
0.596719 0.0835121 -0.111586 180 74 0
0.591193 0.0815782 -0.111627 189 65 0
0.585208 0.0814441 -0.11267 197 57 0
0.580664 0.0852481 -0.114037 205 49 0
0.57861 0.0904393 -0.115422 213 41 0
0.579422 0.0963016 -0.116399 222 32 0
0.582526 0.101405 -0.117208 230 24 0
0.587399 0.104847 -0.117292 238 16 0
0.591752 0.106806 -0.116586 246 8 0
0.596481 0.105361 -0.115678 255 0 0
