ply
format ascii 1.0
comment Generated by robot_control PLYWriter
element vertex 200
property float x
property float y
property float z
property uchar red
property uchar green
property uchar blue
end_header
0.540714 -0.422748 -0.0839299 0 255 0
0.540714 -0.422748 -0.0839299 1 253 0
0.540714 -0.422748 -0.0839299 2 252 0
0.540714 -0.422748 -0.0839299 3 251 0
0.540714 -0.422748 -0.0839299 5 249 0
0.540714 -0.422748 -0.0839299 6 248 0
0.540714 -0.422748 -0.0839299 7 247 0
0.540714 -0.422748 -0.0839299 8 246 0
0.540714 -0.422748 -0.0839299 10 244 0
0.540714 -0.422748 -0.0839299 11 243 0
0.540714 -0.422748 -0.0839299 12 242 0
0.540714 -0.422748 -0.0839299 14 240 0
0.540714 -0.422748 -0.0839299 15 239 0
0.540714 -0.422748 -0.0839299 16 238 0
0.540714 -0.422748 -0.0839299 17 237 0
0.540714 -0.422748 -0.0839299 19 235 0
0.540714 -0.422748 -0.0839299 20 234 0
0.540714 -0.422748 -0.0839299 21 233 0
0.540714 -0.422748 -0.0839299 23 231 0
0.540714 -0.422748 -0.0839299 24 230 0
0.540714 -0.422748 -0.0839299 25 229 0
0.540714 -0.422748 -0.0839299 26 228 0
0.540714 -0.422748 -0.0839299 28 226 0
0.540714 -0.422748 -0.0839299 29 225 0
0.540714 -0.422748 -0.0839299 30 224 0
0.540714 -0.422748 -0.0839299 32 222 0
0.540714 -0.422748 -0.0839299 33 221 0
0.540714 -0.422748 -0.0839299 34 220 0
0.540714 -0.422748 -0.0839299 35 219 0
0.540714 -0.422748 -0.0839299 37 217 0
0.540714 -0.422748 -0.0839299 38 216 0
0.540714 -0.422748 -0.0839299 39 215 0
0.540714 -0.422748 -0.0839299 41 213 0
0.540714 -0.422748 -0.0839299 42 212 0
0.540714 -0.422748 -0.0839299 43 211 0
0.540714 -0.422748 -0.0839299 44 210 0
0.540714 -0.422748 -0.0839299 46 208 0
0.540714 -0.422748 -0.0839299 47 207 0
0.540714 -0.422748 -0.0839299 48 206 0
0.540714 -0.422748 -0.0839299 49 205 0
0.540714 -0.422748 -0.0839299 51 203 0
0.540714 -0.422748 -0.0839299 52 202 0
0.540714 -0.422748 -0.0839299 53 201 0
0.540714 -0.422748 -0.0839299 55 199 0
0.540714 -0.422748 -0.0839299 56 198 0
0.540714 -0.422748 -0.0839299 57 197 0
0.540714 -0.422748 -0.0839299 58 196 0
0.540714 -0.422748 -0.0839299 60 194 0
0.540714 -0.422748 -0.0839299 61 193 0
0.540714 -0.422748 -0.0839299 62 192 0
0.540714 -0.422748 -0.0839299 64 190 0
0.540714 -0.422748 -0.0839299 65 189 0
0.540714 -0.422748 -0.0839299 66 188 0
0.540714 -0.422748 -0.0839299 67 187 0
0.540714 -0.422748 -0.0839299 69 185 0
0.540714 -0.422748 -0.0839299 70 184 0
0.540714 -0.422748 -0.0839299 71 183 0
0.540714 -0.422748 -0.0839299 73 181 0
0.540714 -0.422748 -0.0839299 74 180 0
0.540714 -0.422748 -0.0839299 75 179 0
0.540714 -0.422748 -0.0839299 76 178 0
0.540714 -0.422748 -0.0839299 78 176 0
0.540714 -0.422748 -0.0839299 79 175 0
0.540714 -0.422748 -0.0839299 80 174 0
0.540714 -0.422748 -0.0839299 82 172 0
0.540714 -0.422748 -0.0839299 83 171 0
0.540714 -0.422748 -0.0839299 84 170 0
0.540714 -0.422748 -0.0839299 85 169 0
0.540714 -0.422748 -0.0839299 87 167 0
0.540714 -0.422748 -0.0839299 88 166 0
0.540714 -0.422748 -0.0839299 89 165 0
0.540714 -0.422748 -0.0839299 90 164 0
0.540714 -0.422748 -0.0839299 92 162 0
0.540714 -0.422748 -0.0839299 93 161 0
0.540714 -0.422748 -0.0839299 94 160 0
0.540714 -0.422748 -0.0839299 96 158 0
0.540714 -0.422748 -0.0839299 97 157 0
0.540714 -0.422748 -0.0839299 98 156 0
0.540714 -0.422748 -0.0839299 99 155 0
0.540714 -0.422748 -0.0839299 101 153 0
0.540714 -0.422748 -0.0839299 102 152 0
0.540714 -0.422748 -0.0839299 103 151 0
0.540714 -0.422748 -0.0839299 105 149 0
0.540714 -0.422748 -0.0839299 106 148 0
0.540714 -0.422748 -0.0839299 107 147 0
0.540714 -0.422748 -0.0839299 108 146 0
0.540714 -0.422748 -0.0839299 110 144 0
0.540714 -0.422748 -0.0839299 111 143 0
0.540714 -0.422748 -0.0839299 112 142 0
0.540714 -0.422748 -0.0839299 114 140 0
0.540714 -0.422748 -0.0839299 115 139 0
0.540714 -0.422748 -0.0839299 116 138 0
0.540714 -0.422748 -0.0839299 117 137 0
0.540714 -0.422748 -0.0839299 119 135 0
0.540714 -0.422748 -0.0839299 120 134 0
0.540714 -0.422748 -0.0839299 121 133 0
0.540714 -0.422748 -0.0839299 123 131 0
0.540714 -0.422748 -0.0839299 124 130 0
0.540714 -0.422748 -0.0839299 125 129 0
0.540714 -0.422748 -0.0839299 126 128 0
0.540714 -0.422748 -0.0839299 128 126 0
0.540714 -0.422748 -0.0839299 129 125 0
0.540714 -0.422748 -0.0839299 130 124 0
0.540714 -0.422748 -0.0839299 131 123 0
0.540714 -0.422748 -0.0839299 133 121 0
0.540714 -0.422748 -0.0839299 134 120 0
0.540714 -0.422748 -0.0839299 135 119 0
0.540714 -0.422748 -0.0839299 137 117 0
0.540714 -0.422748 -0.0839299 138 116 0
0.540714 -0.422748 -0.0839299 139 115 0
0.540714 -0.422748 -0.0839299 140 114 0
0.540714 -0.422748 -0.0839299 142 112 0
0.540714 -0.422748 -0.0839299 143 111 0
0.540714 -0.422748 -0.0839299 144 110 0
0.540714 -0.422748 -0.0839299 146 108 0
0.540714 -0.422748 -0.0839299 147 107 0
0.540714 -0.422748 -0.0839299 148 106 0
0.540714 -0.422748 -0.0839299 149 105 0
0.540714 -0.422748 -0.0839299 151 103 0
0.540714 -0.422748 -0.0839299 152 102 0
0.540714 -0.422748 -0.0839299 153 101 0
0.540714 -0.422748 -0.0839299 155 99 0
0.540714 -0.422748 -0.0839299 156 98 0
0.540714 -0.422748 -0.0839299 157 97 0
0.540714 -0.422748 -0.0839299 158 96 0
0.540714 -0.422748 -0.0839299 160 94 0
0.540714 -0.422748 -0.0839299 161 93 0
0.540714 -0.422748 -0.0839299 162 92 0
0.540714 -0.422748 -0.0839299 164 90 0
0.540714 -0.422748 -0.0839299 165 89 0
0.540714 -0.422748 -0.0839299 166 88 0
0.540714 -0.422748 -0.0839299 167 87 0
0.540714 -0.422748 -0.0839299 169 85 0
0.540714 -0.422748 -0.0839299 170 84 0
0.540714 -0.422748 -0.0839299 171 83 0
0.540714 -0.422748 -0.0839299 172 82 0
0.540714 -0.422748 -0.0839299 174 80 0
0.540714 -0.422748 -0.0839299 175 79 0
0.540714 -0.422748 -0.0839299 176 78 0
0.540714 -0.422748 -0.0839299 178 76 0
0.540714 -0.422748 -0.0839299 179 75 0
0.540714 -0.422748 -0.0839299 180 74 0
0.540714 -0.422748 -0.0839299 181 73 0
0.540714 -0.422748 -0.0839299 183 71 0
0.540714 -0.422748 -0.0839299 184 70 0
0.540714 -0.422748 -0.0839299 185 69 0
0.540714 -0.422748 -0.0839299 187 67 0
0.540714 -0.422748 -0.0839299 188 66 0
0.540714 -0.422748 -0.0839299 189 65 0
0.540714 -0.422748 -0.0839299 190 64 0
0.540714 -0.422748 -0.0839299 192 62 0
0.540714 -0.422748 -0.0839299 193 61 0
0.540714 -0.422748 -0.0839299 194 60 0
0.540714 -0.422748 -0.0839299 196 58 0
0.540714 -0.422748 -0.0839299 197 57 0
0.540714 -0.422748 -0.0839299 198 56 0
0.540714 -0.422748 -0.0839299 199 55 0
0.540714 -0.422748 -0.0839299 201 53 0
0.540714 -0.422748 -0.0839299 202 52 0
0.540714 -0.422748 -0.0839299 203 51 0
0.540714 -0.422748 -0.0839299 205 49 0
0.540714 -0.422748 -0.0839299 206 48 0
0.540714 -0.422748 -0.0839299 207 47 0
0.540714 -0.422748 -0.0839299 208 46 0
0.540714 -0.422748 -0.0839299 210 44 0
0.540714 -0.422748 -0.0839299 211 43 0
0.540714 -0.422748 -0.0839299 212 42 0
0.540714 -0.422748 -0.0839299 213 41 0
0.540714 -0.422748 -0.0839299 215 39 0
0.540714 -0.422748 -0.0839299 216 38 0
0.540714 -0.422748 -0.0839299 217 37 0
0.540714 -0.422748 -0.0839299 219 35 0
0.540714 -0.422748 -0.0839299 220 34 0
0.540714 -0.422748 -0.0839299 221 33 0
0.540714 -0.422748 -0.0839299 222 32 0
0.540714 -0.422748 -0.0839299 224 30 0
0.540714 -0.422748 -0.0839299 225 29 0
0.540714 -0.422748 -0.0839299 226 28 0
0.540714 -0.422748 -0.0839299 228 26 0
0.540714 -0.422748 -0.0839299 229 25 0
0.540714 -0.422748 -0.0839299 230 24 0
0.540714 -0.422748 -0.0839299 231 23 0
0.540714 -0.422748 -0.0839299 233 21 0
0.540714 -0.422748 -0.0839299 234 20 0
0.540714 -0.422748 -0.0839299 235 19 0
0.540714 -0.422748 -0.0839299 237 17 0
0.540714 -0.422748 -0.0839299 238 16 0
0.540714 -0.422748 -0.0839299 239 15 0
0.540714 -0.422748 -0.0839299 240 14 0
0.540714 -0.422748 -0.0839299 242 12 0
0.540714 -0.422748 -0.0839299 243 11 0
0.540714 -0.422748 -0.0839299 244 10 0
0.540714 -0.422748 -0.0839299 246 8 0
0.540714 -0.422748 -0.0839299 247 7 0
0.540714 -0.422748 -0.0839299 248 6 0
0.540714 -0.422748 -0.0839299 249 5 0
0.540714 -0.422748 -0.0839299 251 3 0
0.540714 -0.422748 -0.0839299 252 2 0
0.540714 -0.422748 -0.0839299 253 1 0
0.540714 -0.422748 -0.0839299 255 0 0
