ply
format ascii 1.0
comment Generated by robot_control PLYWriter
element vertex 174
property float x
property float y
property float z
property uchar red
property uchar green
property uchar blue
end_header
0.632607 -0.328251 -0.106865 0 255 0
0.636395 -0.330047 -0.108109 1 253 0
0.639183 -0.333456 -0.108756 2 252 0
0.640601 -0.338358 -0.108518 4 250 0
0.639204 -0.342402 -0.107611 5 249 0
0.636769 -0.346538 -0.105983 7 247 0
0.632066 -0.347997 -0.104241 8 246 0
0.626579 -0.348866 -0.102798 10 244 0
0.621666 -0.346412 -0.102079 11 243 0
0.618484 -0.34232 -0.101758 13 241 0
0.614543 -0.338266 -0.102037 14 240 0
0.614583 -0.332321 -0.102811 16 238 0
0.615926 -0.326931 -0.103939 17 237 0
0.618355 -0.321774 -0.105142 19 235 0
0.622957 -0.318422 -0.106393 20 234 0
0.62818 -0.316743 -0.107601 22 232 0
0.633069 -0.318832 -0.10828 23 231 0
0.638235 -0.32098 -0.109153 25 229 0
0.640399 -0.326452 -0.109205 26 228 0
0.64066 -0.332319 -0.108364 28 226 0
0.63649 -0.336408 -0.107291 29 225 0
0.6317 -0.338879 -0.106075 30 224 0
0.626 -0.338096 -0.104817 32 222 0
0.620393 -0.336433 -0.104319 33 221 0
0.617712 -0.331195 -0.104312 35 219 0
0.614635 -0.326723 -0.104743 36 218 0
0.614676 -0.320766 -0.105435 38 216 0
0.616917 -0.315623 -0.106352 39 215 0
0.620273 -0.310866 -0.107513 41 213 0
0.625172 -0.308368 -0.108456 42 212 0
0.630367 -0.306478 -0.109132 44 210 0
0.635225 -0.308394 -0.109616 45 209 0
0.6383 -0.313361 -0.109725 47 207 0
0.640339 -0.318722 -0.109426 48 206 0
0.638108 -0.323469 -0.108614 50 204 0
0.633812 -0.327373 -0.107664 51 203 0
0.628286 -0.329137 -0.107061 53 201 0
0.623156 -0.326586 -0.106708 54 200 0
0.618397 -0.323391 -0.106717 56 198 0
0.615766 -0.318089 -0.106987 57 197 0
0.614801 -0.312457 -0.107477 58 196 0
0.614974 -0.306515 -0.108203 60 194 0
0.618404 -0.302588 -0.108931 61 193 0
0.621611 -0.297969 -0.109626 63 191 0
0.627359 -0.296796 -0.110185 64 190 0
0.633208 -0.297351 -0.110635 66 188 0
0.638325 -0.300468 -0.110792 67 187 0
0.639597 -0.305817 -0.110583 69 185 0
0.639953 -0.310961 -0.110135 70 184 0
0.636717 -0.315839 -0.109677 72 182 0
0.630972 -0.316798 -0.109299 73 181 0
0.62499 -0.316855 -0.109041 75 179 0
0.619548 -0.314542 -0.10892 76 178 0
0.615801 -0.309926 -0.108953 78 176 0
0.614776 -0.304135 -0.109192 79 175 0
0.61409 -0.298214 -0.109659 81 173 0
0.616252 -0.29274 -0.110108 82 172 0
0.620733 -0.288851 -0.11055 84 170 0
0.626088 -0.286551 -0.111007 85 169 0
0.632082 -0.286559 -0.111285 86 168 0
0.636795 -0.289994 -0.111236 88 166 0
0.640191 -0.294639 -0.110973 89 165 0
0.639506 -0.300186 -0.110692 91 163 0
0.636088 -0.305018 -0.110462 92 162 0
0.630808 -0.307638 -0.110321 94 160 0
0.625625 -0.306218 -0.110167 95 159 0
0.620374 -0.303363 -0.110227 97 157 0
0.616667 -0.29878 -0.110569 98 156 0
0.614119 -0.293517 -0.111032 100 154 0
0.614157 -0.287531 -0.111465 101 153 0
0.615779 -0.282019 -0.111949 103 151 0
0.620442 -0.278461 -0.112326 104 150 0
0.62607 -0.276617 -0.112606 106 148 0
0.632068 -0.2765 -0.112771 107 147 0
0.637154 -0.278975 -0.112618 109 145 0
0.639213 -0.284594 -0.112183 110 144 0
0.639645 -0.290305 -0.111644 112 142 0
0.635447 -0.294377 -0.111364 113 141 0
0.629983 -0.29681 -0.111312 114 140 0
0.623987 -0.296799 -0.111578 116 138 0
0.619782 -0.293404 -0.11191 117 137 0
0.616304 -0.288546 -0.112399 119 135 0
0.614204 -0.283081 -0.112883 120 134 0
0.614261 -0.277102 -0.113393 122 132 0
0.616312 -0.271617 -0.113773 123 131 0
0.620656 -0.267807 -0.114186 125 129 0
0.62632 -0.265847 -0.114419 126 128 0
0.631684 -0.266356 -0.11441 128 126 0
0.636347 -0.269963 -0.113856 129 125 0
0.640126 -0.274488 -0.113041 131 123 0
0.639517 -0.280347 -0.112653 132 122 0
0.635527 -0.284019 -0.112571 134 120 0
0.630102 -0.286541 -0.112755 135 119 0
0.624387 -0.285314 -0.113166 137 117 0
0.618974 -0.282834 -0.113779 138 116 0
0.616034 -0.277675 -0.114549 140 114 0
0.613275 -0.272526 -0.11548 141 113 0
0.614111 -0.266908 -0.116203 142 112 0
0.616559 -0.261448 -0.116629 144 110 0
0.62103 -0.257734 -0.116955 145 109 0
0.626356 -0.255052 -0.116885 147 107 0
0.63215 -0.25624 -0.116634 148 106 0
0.636877 -0.259793 -0.115958 150 104 0
0.639926 -0.264472 -0.115193 151 103 0
0.638618 -0.270073 -0.114367 153 101 0
0.635135 -0.274926 -0.114277 154 100 0
0.629404 -0.276261 -0.114641 156 98 0
0.623655 -0.27609 -0.115426 157 97 0
0.61884 -0.272697 -0.116307 159 95 0
0.615355 -0.26801 -0.11725 160 94 0
0.61294 -0.26267 -0.118515 162 92 0
0.61297 -0.25681 -0.119528 163 91 0
0.616446 -0.25207 -0.12037 165 89 0
0.620803 -0.24796 -0.120732 166 88 0
0.625368 -0.24437 -0.12069 168 86 0
0.631007 -0.245545 -0.120237 169 85 0
0.636115 -0.247921 -0.119207 170 84 0
0.638303 -0.253385 -0.118123 172 82 0
0.638734 -0.25909 -0.116781 173 81 0
0.634727 -0.262272 -0.116426 175 79 0
0.629935 -0.264741 -0.116703 176 78 0
0.624381 -0.266235 -0.11742 178 76 0
0.619424 -0.263067 -0.11838 179 75 0
0.61515 -0.259131 -0.119813 181 73 0
0.612919 -0.253914 -0.12144 182 72 0
0.613008 -0.248247 -0.123366 184 70 0
0.61428 -0.242596 -0.124667 185 69 0
0.618256 -0.238323 -0.125469 187 67 0
0.623664 -0.235808 -0.125678 188 66 0
0.629481 -0.234508 -0.125244 190 64 0
0.634657 -0.236696 -0.1241 191 63 0
0.63831 -0.241156 -0.122654 193 61 0
0.638912 -0.246663 -0.120912 194 60 0
0.635919 -0.251273 -0.119733 196 58 0
0.631263 -0.254731 -0.119711 197 57 0
0.625297 -0.255059 -0.120292 198 56 0
0.619888 -0.253451 -0.121475 200 54 0
0.616418 -0.248789 -0.122801 201 53 0
0.613489 -0.24396 -0.12481 203 51 0
0.613008 -0.23827 -0.126296 204 50 0
0.614297 -0.232886 -0.127903 206 48 0
0.617585 -0.228286 -0.129074 207 47 0
0.623057 -0.225944 -0.129627 209 45 0
0.628672 -0.224274 -0.129364 210 44 0
0.633784 -0.226354 -0.128567 212 42 0
0.637319 -0.230779 -0.126929 213 41 0
0.638383 -0.235753 -0.124896 215 39 0
0.637539 -0.241027 -0.123499 216 38 0
0.632581 -0.244161 -0.12323 218 36 0
0.626886 -0.245688 -0.123565 219 35 0
0.621854 -0.243347 -0.124483 221 33 0
0.616787 -0.240388 -0.125685 222 32 0
0.613643 -0.235583 -0.126898 224 30 0
0.613127 -0.229885 -0.128379 225 29 0
0.613249 -0.223995 -0.129473 226 28 0
0.616355 -0.219088 -0.130683 228 26 0
0.62055 -0.216032 -0.13166 229 25 0
0.626025 -0.214541 -0.13254 231 23 0
0.631641 -0.215117 -0.13228 232 22 0
0.636201 -0.217987 -0.131117 234 20 0
0.638925 -0.223023 -0.129605 235 19 0
0.638537 -0.22827 -0.127761 237 17 0
0.635703 -0.2329 -0.127481 238 16 0
0.630697 -0.234433 -0.127875 240 14 0
0.625556 -0.234622 -0.12874 241 13 0
0.620747 -0.23244 -0.129239 243 11 0
0.61637 -0.229423 -0.129271 244 10 0
0.613973 -0.225058 -0.129122 246 8 0
0.61313 -0.219291 -0.129166 247 7 0
0.613269 -0.213602 -0.12995 249 5 0
0.615185 -0.209017 -0.131288 250 4 0
0.618724 -0.206177 -0.1326 252 2 0
0.621798 -0.204583 -0.133864 253 1 0
0.625035 -0.203032 -0.135097 255 0 0
