ply
format ascii 1.0
comment Generated by robot_control PLYWriter
element vertex 65
property float x
property float y
property float z
property uchar red
property uchar green
property uchar blue
end_header
0.705703 0.0307876 -0.116181 0 255 0
0.709844 0.0274026 -0.115567 3 251 0
0.713086 0.023357 -0.114499 7 247 0
0.714461 0.0178995 -0.113222 11 243 0
0.714285 0.0121722 -0.11153 15 239 0
0.71399 0.00654818 -0.110181 19 235 0
0.71027 0.00254146 -0.109132 23 231 0
0.705193 -0.000267972 -0.108172 27 227 0
0.700051 -0.00233343 -0.107705 31 223 0
0.694341 -0.000747736 -0.107729 35 219 0
0.68883 0.00114104 -0.108206 39 215 0
0.686131 0.00590795 -0.108903 43 211 0
0.685607 0.0113773 -0.109905 47 207 0
0.688447 0.0165524 -0.110857 51 203 0
0.692075 0.0210823 -0.111618 55 199 0
0.697958 0.021354 -0.11183 59 195 0
0.703839 0.0204147 -0.111692 63 191 0
0.709381 0.0182013 -0.111281 67 187 0
0.712539 0.0131436 -0.110739 71 183 0
0.714547 0.00753091 -0.110027 75 179 0
0.715137 0.00163562 -0.109115 79 175 0
0.713529 -0.00365714 -0.108034 83 171 0
0.709333 -0.00786734 -0.107202 87 167 0
0.705114 -0.0120906 -0.106521 91 163 0
0.699543 -0.0135645 -0.106104 95 159 0
0.693757 -0.0120185 -0.10603 99 155 0
0.688419 -0.00931507 -0.106228 103 151 0
0.684675 -0.00471651 -0.106598 107 147 0
0.68511 0.000978659 -0.107276 111 143 0
0.687866 0.00626868 -0.107829 115 139 0
0.692719 0.00941285 -0.108276 119 135 0
0.698678 0.00987519 -0.108578 123 131 0
0.704429 0.00854177 -0.108517 127 127 0
0.709381 0.00534037 -0.108232 131 123 0
0.71223 0.000170051 -0.107753 135 119 0
0.714892 -0.00500845 -0.107059 139 115 0
0.713135 -0.0107176 -0.106412 143 111 0
0.711214 -0.0163724 -0.105768 147 107 0
0.707635 -0.0209101 -0.104988 151 103 0
0.702274 -0.0234977 -0.104334 155 99 0
0.696529 -0.0245563 -0.103972 159 95 0
0.691016 -0.02258 -0.103861 163 91 0
0.686229 -0.0192428 -0.104065 167 87 0
0.684581 -0.0137038 -0.104431 171 83 0
0.684731 -0.00788913 -0.10493 175 79 0
0.688161 -0.00320275 -0.105461 179 75 0
0.693477 -0.000743947 -0.106017 183 71 0
0.699475 -0.00061851 -0.106246 187 67 0
0.70493 -0.00223766 -0.106286 191 63 0
0.708858 -0.00675737 -0.106058 195 59 0
0.711946 -0.0117143 -0.105626 199 55 0
0.713958 -0.0173563 -0.10516 203 51 0
0.712842 -0.0228675 -0.104388 207 47 0
0.711785 -0.0286246 -0.103656 211 43 0
0.707347 -0.0322642 -0.102752 215 39 0
0.701932 -0.0347948 -0.102185 219 35 0
0.696135 -0.0346664 -0.10167 223 31 0
0.690287 -0.0343826 -0.101433 227 27 0
0.686256 -0.0306691 -0.101416 231 23 0
0.684642 -0.0252594 -0.101946 235 19 0
0.684654 -0.0193123 -0.102607 239 15 0
0.686983 -0.0157438 -0.103259 243 11 0
0.690551 -0.0125309 -0.104085 247 7 0
0.694824 -0.0117354 -0.104599 251 3 0
0.698265 -0.0126135 -0.104848 255 0 0
