ply
format ascii 1.0
comment Generated by robot_control PLYWriter
element vertex 29
property float x
property float y
property float z
property uchar red
property uchar green
property uchar blue
end_header
0.69352 0.171535 -0.100444 0 255 0
0.696784 0.167932 -0.0991525 9 245 0
0.698933 0.163125 -0.097727 18 236 0
0.700217 0.157328 -0.0967546 27 227 0
0.697178 0.152264 -0.0957334 36 218 0
0.693571 0.147676 -0.0952266 45 209 0
0.687985 0.146344 -0.095049 54 200 0
0.681918 0.146435 -0.0953112 63 191 0
0.676027 0.147285 -0.0960737 72 182 0
0.672563 0.151869 -0.0969998 81 173 0
0.668807 0.156216 -0.0979919 91 163 0
0.669174 0.162194 -0.0991053 100 154 0
0.671181 0.167782 -0.0999982 109 145 0
0.676009 0.17141 -0.100631 118 136 0
0.681768 0.17118 -0.100607 127 127 0
0.687041 0.168196 -0.100036 136 118 0
0.689705 0.163152 -0.0990793 145 109 0
0.691003 0.157419 -0.0977672 154 100 0
0.6891 0.151851 -0.096574 163 91 0
0.684122 0.148403 -0.0959039 173 81 0
0.679266 0.144844 -0.0951817 182 72 0
0.673514 0.143634 -0.0949576 191 63 0
0.667948 0.145928 -0.0950722 200 54 0
0.662921 0.149212 -0.0956192 209 45 0
0.660845 0.154357 -0.0970745 218 36 0
0.658673 0.159269 -0.0986085 227 27 0
0.660035 0.164765 -0.100201 236 18 0
0.663975 0.168527 -0.101777 245 9 0
0.668653 0.171352 -0.10264 255 0 0
