ply
format ascii 1.0
comment Generated by robot_control PLYWriter
element vertex 93
property float x
property float y
property float z
property uchar red
property uchar green
property uchar blue
end_header
0.657055 -0.3573 -0.105185 0 255 0
0.66067 -0.36088 -0.105068 2 252 0
0.663193 -0.365854 -0.104856 5 249 0
0.664999 -0.370238 -0.104798 8 246 0
0.663426 -0.374689 -0.104813 11 243 0
0.661595 -0.379315 -0.104847 13 241 0
0.656976 -0.382463 -0.104735 16 238 0
0.653011 -0.384625 -0.104408 19 235 0
0.647076 -0.384679 -0.103784 22 232 0
0.642776 -0.380962 -0.103325 24 230 0
0.640718 -0.375966 -0.10301 27 227 0
0.642401 -0.370554 -0.103152 30 224 0
0.64707 -0.366872 -0.10343 33 221 0
0.652923 -0.366332 -0.104003 36 218 0
0.65797 -0.368014 -0.104547 38 216 0
0.662602 -0.371193 -0.104882 41 213 0
0.664307 -0.376438 -0.10525 44 210 0
0.665102 -0.382143 -0.10556 47 207 0
0.663067 -0.387479 -0.10584 49 205 0
0.659194 -0.392009 -0.105925 52 202 0
0.653688 -0.393991 -0.105701 55 199 0
0.648168 -0.394334 -0.105225 58 196 0
0.643187 -0.391956 -0.104638 60 194 0
0.640802 -0.38687 -0.104217 63 191 0
0.641522 -0.381105 -0.10389 66 188 0
0.644819 -0.37632 -0.103883 69 185 0
0.650744 -0.376929 -0.104231 72 182 0
0.656679 -0.377107 -0.104767 74 180 0
0.661225 -0.380468 -0.105394 77 177 0
0.663031 -0.385875 -0.106017 80 174 0
0.664598 -0.391129 -0.106337 83 171 0
0.66278 -0.396793 -0.106671 85 169 0
0.65931 -0.401633 -0.106867 88 166 0
0.654652 -0.404334 -0.106874 91 163 0
0.648699 -0.404333 -0.106508 94 160 0
0.643325 -0.402275 -0.105962 97 157 0
0.641066 -0.396993 -0.105576 99 155 0
0.640918 -0.391036 -0.105256 102 152 0
0.645186 -0.387056 -0.105185 105 149 0
0.650926 -0.386217 -0.105415 108 146 0
0.656862 -0.386247 -0.105674 110 144 0
0.66104 -0.390275 -0.106021 113 141 0
0.664103 -0.395362 -0.106336 116 138 0
0.664551 -0.401199 -0.106525 119 135 0
0.662729 -0.406802 -0.106743 121 133 0
0.658754 -0.411175 -0.106957 124 130 0
0.654151 -0.414717 -0.10695 127 127 0
0.648184 -0.414732 -0.106752 130 124 0
0.64286 -0.412401 -0.106584 133 121 0
0.64118 -0.406786 -0.10649 135 119 0
0.641634 -0.400901 -0.106548 138 116 0
0.645144 -0.39642 -0.106682 141 113 0
0.650771 -0.395726 -0.106748 144 110 0
0.656611 -0.39603 -0.106757 146 108 0
0.660953 -0.399938 -0.106701 149 105 0
0.664243 -0.404885 -0.10664 152 102 0
0.665317 -0.41045 -0.106561 155 99 0
0.662539 -0.415703 -0.106454 157 97 0
0.659886 -0.4209 -0.106312 160 94 0
0.65459 -0.422724 -0.106193 163 91 0
0.648791 -0.423894 -0.106105 166 88 0
0.643585 -0.42162 -0.10614 169 85 0
0.641178 -0.416278 -0.106316 171 83 0
0.641179 -0.410316 -0.106593 174 80 0
0.645871 -0.407105 -0.10682 177 77 0
0.650771 -0.404333 -0.106912 180 74 0
0.656276 -0.406289 -0.106878 182 72 0
0.660681 -0.41025 -0.10669 185 69 0
0.663114 -0.415255 -0.106412 188 66 0
0.665023 -0.420691 -0.10609 191 63 0
0.662855 -0.426055 -0.105786 194 60 0
0.658817 -0.430331 -0.105415 196 58 0
0.653823 -0.433519 -0.105232 199 55 0
0.648487 -0.433024 -0.105126 202 52 0
0.643785 -0.430089 -0.105266 205 49 0
0.641098 -0.424987 -0.10564 207 47 0
0.642059 -0.419321 -0.105986 210 44 0
0.646245 -0.415975 -0.106194 213 41 0
0.65192 -0.414722 -0.106265 216 38 0
0.65737 -0.416428 -0.106242 218 36 0
0.661733 -0.420485 -0.106069 221 33 0
0.665051 -0.424957 -0.105522 224 30 0
0.665053 -0.430879 -0.104868 227 27 0
0.663017 -0.436273 -0.104199 230 24 0
0.660237 -0.440742 -0.103132 232 22 0
0.655503 -0.442766 -0.102056 235 19 0
0.650063 -0.444422 -0.101626 238 16 0
0.645091 -0.442712 -0.101823 241 13 0
0.642425 -0.438445 -0.1028 243 11 0
0.641025 -0.433413 -0.104133 246 8 0
0.642571 -0.42842 -0.105112 249 5 0
0.647188 -0.425156 -0.105464 252 2 0
0.65219 -0.425119 -0.105277 255 0 0
