ply
format ascii 1.0
comment Generated by robot_control PLYWriter
element vertex 11
property float x
property float y
property float z
property uchar red
property uchar green
property uchar blue
end_header
0.522687 -0.08466 -0.113555 0 255 0
0.522539 -0.0796565 -0.11299 25 229 0
0.522462 -0.0746375 -0.112559 51 204 0
0.522278 -0.0696231 -0.112123 76 178 0
0.521969 -0.0646103 -0.111726 102 153 0
0.521704 -0.0595875 -0.111453 127 127 0
0.521484 -0.0545562 -0.11133 153 101 0
0.521252 -0.0495236 -0.111318 178 76 0
0.521017 -0.0444912 -0.111356 204 50 0
0.52067 -0.0394669 -0.111376 229 25 0
0.520644 -0.0344359 -0.111631 255 0 0
