ply
format ascii 1.0
comment Generated by robot_control PLYWriter
element vertex 200
property float x
property float y
property float z
property uchar red
property uchar green
property uchar blue
end_header
0.573645 -0.322641 -0.101682 0 255 0
0.573645 -0.322641 -0.101682 1 253 0
0.573645 -0.322641 -0.101682 2 252 0
0.573645 -0.322641 -0.101682 3 251 0
0.573645 -0.322641 -0.101682 5 249 0
0.573645 -0.322641 -0.101682 6 248 0
0.573645 -0.322641 -0.101682 7 247 0
0.573645 -0.322641 -0.101682 8 246 0
0.573645 -0.322641 -0.101682 10 244 0
0.573645 -0.322641 -0.101682 11 243 0
0.573645 -0.322641 -0.101682 12 242 0
0.573645 -0.322641 -0.101682 14 240 0
0.573645 -0.322641 -0.101682 15 239 0
0.573645 -0.322641 -0.101682 16 238 0
0.573645 -0.322641 -0.101682 17 237 0
0.573645 -0.322641 -0.101682 19 235 0
0.573645 -0.322641 -0.101682 20 234 0
0.573645 -0.322641 -0.101682 21 233 0
0.573645 -0.322641 -0.101682 23 231 0
0.573645 -0.322641 -0.101682 24 230 0
0.573645 -0.322641 -0.101682 25 229 0
0.573645 -0.322641 -0.101682 26 228 0
0.573645 -0.322641 -0.101682 28 226 0
0.573645 -0.322641 -0.101682 29 225 0
0.573645 -0.322641 -0.101682 30 224 0
0.573645 -0.322641 -0.101682 32 222 0
0.573645 -0.322641 -0.101682 33 221 0
0.573645 -0.322641 -0.101682 34 220 0
0.573645 -0.322641 -0.101682 35 219 0
0.573645 -0.322641 -0.101682 37 217 0
0.573645 -0.322641 -0.101682 38 216 0
0.573645 -0.322641 -0.101682 39 215 0
0.573645 -0.322641 -0.101682 41 213 0
0.573645 -0.322641 -0.101682 42 212 0
0.573645 -0.322641 -0.101682 43 211 0
0.573645 -0.322641 -0.101682 44 210 0
0.573645 -0.322641 -0.101682 46 208 0
0.573645 -0.322641 -0.101682 47 207 0
0.573645 -0.322641 -0.101682 48 206 0
0.573645 -0.322641 -0.101682 49 205 0
0.573645 -0.322641 -0.101682 51 203 0
0.573645 -0.322641 -0.101682 52 202 0
0.573645 -0.322641 -0.101682 53 201 0
0.573645 -0.322641 -0.101682 55 199 0
0.573645 -0.322641 -0.101682 56 198 0
0.573645 -0.322641 -0.101682 57 197 0
0.573645 -0.322641 -0.101682 58 196 0
0.573645 -0.322641 -0.101682 60 194 0
0.573645 -0.322641 -0.101682 61 193 0
0.573645 -0.322641 -0.101682 62 192 0
0.573645 -0.322641 -0.101682 64 190 0
0.573645 -0.322641 -0.101682 65 189 0
0.573645 -0.322641 -0.101682 66 188 0
0.573645 -0.322641 -0.101682 67 187 0
0.573645 -0.322641 -0.101682 69 185 0
0.573645 -0.322641 -0.101682 70 184 0
0.573645 -0.322641 -0.101682 71 183 0
0.573645 -0.322641 -0.101682 73 181 0
0.573645 -0.322641 -0.101682 74 180 0
0.573645 -0.322641 -0.101682 75 179 0
0.573645 -0.322641 -0.101682 76 178 0
0.573645 -0.322641 -0.101682 78 176 0
0.573645 -0.322641 -0.101682 79 175 0
0.573645 -0.322641 -0.101682 80 174 0
0.573645 -0.322641 -0.101682 82 172 0
0.573645 -0.322641 -0.101682 83 171 0
0.573645 -0.322641 -0.101682 84 170 0
0.573645 -0.322641 -0.101682 85 169 0
0.573645 -0.322641 -0.101682 87 167 0
0.573645 -0.322641 -0.101682 88 166 0
0.573645 -0.322641 -0.101682 89 165 0
0.573645 -0.322641 -0.101682 90 164 0
0.573645 -0.322641 -0.101682 92 162 0
0.573645 -0.322641 -0.101682 93 161 0
0.573645 -0.322641 -0.101682 94 160 0
0.573645 -0.322641 -0.101682 96 158 0
0.573645 -0.322641 -0.101682 97 157 0
0.573645 -0.322641 -0.101682 98 156 0
0.573645 -0.322641 -0.101682 99 155 0
0.573645 -0.322641 -0.101682 101 153 0
0.573645 -0.322641 -0.101682 102 152 0
0.573645 -0.322641 -0.101682 103 151 0
0.573645 -0.322641 -0.101682 105 149 0
0.573645 -0.322641 -0.101682 106 148 0
0.573645 -0.322641 -0.101682 107 147 0
0.573645 -0.322641 -0.101682 108 146 0
0.573645 -0.322641 -0.101682 110 144 0
0.573645 -0.322641 -0.101682 111 143 0
0.573645 -0.322641 -0.101682 112 142 0
0.573645 -0.322641 -0.101682 114 140 0
0.573645 -0.322641 -0.101682 115 139 0
0.573645 -0.322641 -0.101682 116 138 0
0.573645 -0.322641 -0.101682 117 137 0
0.573645 -0.322641 -0.101682 119 135 0
0.573645 -0.322641 -0.101682 120 134 0
0.573645 -0.322641 -0.101682 121 133 0
0.573645 -0.322641 -0.101682 123 131 0
0.573645 -0.322641 -0.101682 124 130 0
0.573645 -0.322641 -0.101682 125 129 0
0.573645 -0.322641 -0.101682 126 128 0
0.573645 -0.322641 -0.101682 128 126 0
0.573645 -0.322641 -0.101682 129 125 0
0.573645 -0.322641 -0.101682 130 124 0
0.573645 -0.322641 -0.101682 131 123 0
0.573645 -0.322641 -0.101682 133 121 0
0.573645 -0.322641 -0.101682 134 120 0
0.573645 -0.322641 -0.101682 135 119 0
0.573645 -0.322641 -0.101682 137 117 0
0.573645 -0.322641 -0.101682 138 116 0
0.573645 -0.322641 -0.101682 139 115 0
0.573645 -0.322641 -0.101682 140 114 0
0.573645 -0.322641 -0.101682 142 112 0
0.573645 -0.322641 -0.101682 143 111 0
0.573645 -0.322641 -0.101682 144 110 0
0.573645 -0.322641 -0.101682 146 108 0
0.573645 -0.322641 -0.101682 147 107 0
0.573645 -0.322641 -0.101682 148 106 0
0.573645 -0.322641 -0.101682 149 105 0
0.573645 -0.322641 -0.101682 151 103 0
0.573645 -0.322641 -0.101682 152 102 0
0.573645 -0.322641 -0.101682 153 101 0
0.573645 -0.322641 -0.101682 155 99 0
0.573645 -0.322641 -0.101682 156 98 0
0.573645 -0.322641 -0.101682 157 97 0
0.573645 -0.322641 -0.101682 158 96 0
0.573645 -0.322641 -0.101682 160 94 0
0.573645 -0.322641 -0.101682 161 93 0
0.573645 -0.322641 -0.101682 162 92 0
0.573645 -0.322641 -0.101682 164 90 0
0.573645 -0.322641 -0.101682 165 89 0
0.573645 -0.322641 -0.101682 166 88 0
0.573645 -0.322641 -0.101682 167 87 0
0.573645 -0.322641 -0.101682 169 85 0
0.573645 -0.322641 -0.101682 170 84 0
0.573645 -0.322641 -0.101682 171 83 0
0.573645 -0.322641 -0.101682 172 82 0
0.573645 -0.322641 -0.101682 174 80 0
0.573645 -0.322641 -0.101682 175 79 0
0.573645 -0.322641 -0.101682 176 78 0
0.573645 -0.322641 -0.101682 178 76 0
0.573645 -0.322641 -0.101682 179 75 0
0.573645 -0.322641 -0.101682 180 74 0
0.573645 -0.322641 -0.101682 181 73 0
0.573645 -0.322641 -0.101682 183 71 0
0.573645 -0.322641 -0.101682 184 70 0
0.573645 -0.322641 -0.101682 185 69 0
0.573645 -0.322641 -0.101682 187 67 0
0.573645 -0.322641 -0.101682 188 66 0
0.573645 -0.322641 -0.101682 189 65 0
0.573645 -0.322641 -0.101682 190 64 0
0.573645 -0.322641 -0.101682 192 62 0
0.573645 -0.322641 -0.101682 193 61 0
0.573645 -0.322641 -0.101682 194 60 0
0.573645 -0.322641 -0.101682 196 58 0
0.573645 -0.322641 -0.101682 197 57 0
0.573645 -0.322641 -0.101682 198 56 0
0.573645 -0.322641 -0.101682 199 55 0
0.573645 -0.322641 -0.101682 201 53 0
0.573645 -0.322641 -0.101682 202 52 0
0.573645 -0.322641 -0.101682 203 51 0
0.573645 -0.322641 -0.101682 205 49 0
0.573645 -0.322641 -0.101682 206 48 0
0.573645 -0.322641 -0.101682 207 47 0
0.573645 -0.322641 -0.101682 208 46 0
0.573645 -0.322641 -0.101682 210 44 0
0.573645 -0.322641 -0.101682 211 43 0
0.573645 -0.322641 -0.101682 212 42 0
0.573645 -0.322641 -0.101682 213 41 0
0.573645 -0.322641 -0.101682 215 39 0
0.573645 -0.322641 -0.101682 216 38 0
0.573645 -0.322641 -0.101682 217 37 0
0.573645 -0.322641 -0.101682 219 35 0
0.573645 -0.322641 -0.101682 220 34 0
0.573645 -0.322641 -0.101682 221 33 0
0.573645 -0.322641 -0.101682 222 32 0
0.573645 -0.322641 -0.101682 224 30 0
0.573645 -0.322641 -0.101682 225 29 0
0.573645 -0.322641 -0.101682 226 28 0
0.573645 -0.322641 -0.101682 228 26 0
0.573645 -0.322641 -0.101682 229 25 0
0.573645 -0.322641 -0.101682 230 24 0
0.573645 -0.322641 -0.101682 231 23 0
0.573645 -0.322641 -0.101682 233 21 0
0.573645 -0.322641 -0.101682 234 20 0
0.573645 -0.322641 -0.101682 235 19 0
0.573645 -0.322641 -0.101682 237 17 0
0.573645 -0.322641 -0.101682 238 16 0
0.573645 -0.322641 -0.101682 239 15 0
0.573645 -0.322641 -0.101682 240 14 0
0.573645 -0.322641 -0.101682 242 12 0
0.573645 -0.322641 -0.101682 243 11 0
0.573645 -0.322641 -0.101682 244 10 0
0.573645 -0.322641 -0.101682 246 8 0
0.573645 -0.322641 -0.101682 247 7 0
0.573645 -0.322641 -0.101682 248 6 0
0.573645 -0.322641 -0.101682 249 5 0
0.573645 -0.322641 -0.101682 251 3 0
0.573645 -0.322641 -0.101682 252 2 0
0.573645 -0.322641 -0.101682 253 1 0
0.573645 -0.322641 -0.101682 255 0 0
