ply
format ascii 1.0
comment Generated by robot_control PLYWriter
element vertex 50
property float x
property float y
property float z
property uchar red
property uchar green
property uchar blue
end_header
0.636836 0.145108 -0.135923 0 255 0
0.641709 0.143855 -0.134794 5 249 0
0.644985 0.141036 -0.133806 10 244 0
0.648252 0.137542 -0.132365 15 239 0
0.649791 0.132533 -0.131105 20 234 0
0.648243 0.12794 -0.129888 26 228 0
0.647644 0.122626 -0.128243 31 223 0
0.643699 0.118209 -0.127254 36 218 0
0.639651 0.114805 -0.126004 41 213 0
0.633757 0.114846 -0.125494 46 208 0
0.627816 0.11416 -0.125404 52 202 0
0.622879 0.115813 -0.12601 57 197 0
0.618635 0.119748 -0.127157 62 192 0
0.616453 0.125097 -0.128293 67 187 0
0.616549 0.130977 -0.129659 72 182 0
0.619681 0.135799 -0.131143 78 176 0
0.625304 0.137575 -0.131742 83 171 0
0.63133 0.137658 -0.131689 88 166 0
0.636766 0.135499 -0.130866 93 161 0
0.640814 0.131157 -0.129811 98 156 0
0.642968 0.126011 -0.128189 104 150 0
0.642229 0.12025 -0.126748 109 145 0
0.640242 0.114781 -0.125178 114 140 0
0.636518 0.110505 -0.123751 119 135 0
0.631407 0.107532 -0.122727 124 130 0
0.625641 0.106778 -0.121924 130 124 0
0.619719 0.107826 -0.121571 135 119 0
0.614272 0.110372 -0.121901 140 114 0
0.610494 0.114941 -0.122762 145 109 0
0.608283 0.120294 -0.124251 150 104 0
0.611228 0.124859 -0.125905 156 98 0
0.614263 0.12983 -0.126883 161 93 0
0.619633 0.131392 -0.127994 166 88 0
0.625518 0.13158 -0.12825 171 83 0
0.629632 0.12743 -0.12779 176 78 0
0.633926 0.123529 -0.126637 182 72 0
0.634471 0.11804 -0.124961 187 67 0
0.633541 0.112625 -0.122706 192 62 0
0.631379 0.107411 -0.120724 197 57 0
0.626956 0.103872 -0.118957 202 52 0
0.622098 0.100875 -0.117156 208 46 0
0.616611 0.0995061 -0.115644 213 41 0
0.610861 0.0999504 -0.115141 218 36 0
0.605862 0.103174 -0.115337 223 31 0
0.602215 0.106885 -0.11662 228 26 0
0.600563 0.112264 -0.118151 234 20 0
0.601815 0.117244 -0.120498 239 15 0
0.605084 0.12111 -0.122829 244 10 0
0.608076 0.123423 -0.124951 249 5 0
0.612989 0.124451 -0.126368 255 0 0
