ply
format ascii 1.0
comment Generated by robot_control PLYWriter
element vertex 8
property float x
property float y
property float z
property uchar red
property uchar green
property uchar blue
end_header
0.646892 -0.141779 -0.117246 0 255 0
0.646958 -0.146415 -0.118079 36 218 0
0.64701 -0.151075 -0.118763 72 182 0
0.647052 -0.155747 -0.119359 109 145 0
0.647082 -0.160436 -0.119788 145 109 0
0.647102 -0.165139 -0.120033 182 72 0
0.647118 -0.169849 -0.120134 218 36 0
0.647113 -0.174558 -0.120075 255 0 0
