ply
format ascii 1.0
comment Generated by robot_control PLYWriter
element vertex 9
property float x
property float y
property float z
property uchar red
property uchar green
property uchar blue
end_header
0.639441 -0.221985 -0.125733 0 255 0
0.640336 -0.217309 -0.125817 31 223 0
0.641204 -0.212628 -0.125651 63 191 0
0.641999 -0.207939 -0.125368 95 159 0
0.642727 -0.203258 -0.124881 127 127 0
0.643581 -0.198636 -0.12414 159 95 0
0.644532 -0.194061 -0.12322 191 63 0
0.645353 -0.189475 -0.122232 223 31 0
0.646424 -0.184981 -0.121072 255 0 0
