ply
format ascii 1.0
comment Generated by robot_control PLYWriter
element vertex 18
property float x
property float y
property float z
property uchar red
property uchar green
property uchar blue
end_header
0.520696 0.0577642 -0.101757 0 255 0
0.519061 0.0624751 -0.10244 15 240 0
0.517387 0.0671749 -0.103095 30 225 0
0.515755 0.0718866 -0.103784 45 210 0
0.51411 0.0766008 -0.104431 60 195 0
0.512464 0.0813139 -0.105079 75 179 0
0.510853 0.0860304 -0.105788 90 165 0
0.509141 0.0906978 -0.106582 105 149 0
0.50745 0.0953544 -0.107477 120 135 0
0.505709 0.0999844 -0.108415 135 119 0
0.50412 0.104646 -0.109458 150 104 0
0.502585 0.109291 -0.110651 165 89 0
0.50094 0.113845 -0.112028 180 74 0
0.499443 0.118396 -0.113576 195 59 0
0.497838 0.122878 -0.115213 210 44 0
0.496237 0.127403 -0.116723 225 29 0
0.494691 0.131872 -0.118443 240 14 0
0.493208 0.136254 -0.120428 255 0 0
