ply
format ascii 1.0
comment Generated by robot_control PLYWriter
element vertex 32
property float x
property float y
property float z
property uchar red
property uchar green
property uchar blue
end_header
0.597011 0.0863967 -0.145986 0 255 0
0.602378 0.0841604 -0.145018 8 246 0
0.60574 0.0796919 -0.14515 16 238 0
0.607123 0.0740711 -0.145989 24 230 0
0.605121 0.0686022 -0.147199 32 222 0
0.602417 0.0637417 -0.14858 41 213 0
0.597078 0.0618014 -0.150111 49 205 0
0.591099 0.0621331 -0.151135 57 197 0
0.585079 0.0616061 -0.151725 65 189 0
0.581265 0.0662582 -0.152051 74 180 0
0.577586 0.0709688 -0.15222 82 172 0
0.576308 0.0768301 -0.152213 90 164 0
0.577671 0.0826212 -0.151899 98 156 0
0.579969 0.0881666 -0.151102 106 148 0
0.584477 0.0919834 -0.15009 115 139 0
0.590113 0.093923 -0.149018 123 131 0
0.595989 0.0936177 -0.148064 131 123 0
0.601613 0.0913865 -0.147636 139 115 0
0.603765 0.0858708 -0.147478 148 106 0
0.605253 0.0802759 -0.147582 156 98 0
0.60323 0.0746542 -0.147827 164 90 0
0.598416 0.0715099 -0.148327 172 82 0
0.592794 0.0695701 -0.149384 180 74 0
0.586907 0.0690798 -0.150605 189 65 0
0.581167 0.0709 -0.151417 197 57 0
0.577299 0.0753054 -0.15245 205 49 0
0.574691 0.0806022 -0.152968 213 41 0
0.574678 0.0866776 -0.153241 222 32 0
0.575844 0.0925467 -0.153477 230 24 0
0.578505 0.0972412 -0.153908 238 16 0
0.583453 0.100477 -0.154416 246 8 0
0.588372 0.102598 -0.154907 255 0 0
