ply
format ascii 1.0
comment Generated by robot_control PLYWriter
element vertex 155
property float x
property float y
property float z
property uchar red
property uchar green
property uchar blue
end_header
0.675108 0.151715 -0.114944 0 255 0
0.680214 0.150183 -0.114178 1 253 0
0.683041 0.145819 -0.113419 3 251 0
0.686257 0.142504 -0.112807 4 250 0
0.688353 0.137412 -0.111848 6 248 0
0.688217 0.131492 -0.110931 8 246 0
0.688848 0.12558 -0.110356 9 245 0
0.685736 0.120962 -0.109767 11 243 0
0.682024 0.116361 -0.109352 13 241 0
0.67678 0.113859 -0.109254 14 240 0
0.671316 0.112538 -0.109425 16 238 0
0.666507 0.113852 -0.109742 18 236 0
0.660899 0.115725 -0.110256 19 235 0
0.656897 0.11928 -0.111054 21 233 0
0.654221 0.12381 -0.112015 23 231 0
0.652973 0.12956 -0.112681 24 230 0
0.655854 0.134668 -0.113262 26 228 0
0.660101 0.138891 -0.113589 28 226 0
0.665243 0.141836 -0.113533 29 225 0
0.671017 0.143201 -0.11328 31 223 0
0.676912 0.142986 -0.112803 33 221 0
0.681449 0.139223 -0.112166 34 220 0
0.685747 0.135154 -0.111495 36 218 0
0.68892 0.130232 -0.110666 38 216 0
0.69082 0.124702 -0.110017 39 215 0
0.690123 0.118906 -0.109448 41 213 0
0.68836 0.113248 -0.108771 43 211 0
0.684329 0.108823 -0.108407 44 210 0
0.679675 0.105089 -0.108147 46 208 0
0.674286 0.102453 -0.108132 48 206 0
0.668414 0.101914 -0.108349 49 205 0
0.66269 0.103591 -0.108634 51 203 0
0.658502 0.107835 -0.109245 52 202 0
0.654856 0.112485 -0.109877 54 200 0
0.654321 0.118277 -0.110637 56 198 0
0.656714 0.123275 -0.111188 57 197 0
0.660156 0.128094 -0.111497 59 195 0
0.664708 0.131582 -0.111592 61 193 0
0.670451 0.133127 -0.111431 62 192 0
0.676343 0.132661 -0.111185 64 190 0
0.681679 0.130052 -0.110822 66 188 0
0.686211 0.126181 -0.110319 67 187 0
0.689901 0.121533 -0.109653 69 185 0
0.691022 0.1159 -0.109042 71 183 0
0.690965 0.109919 -0.108564 72 182 0
0.689947 0.104103 -0.108101 74 180 0
0.686602 0.0993191 -0.107723 76 178 0
0.681893 0.0956922 -0.107482 77 177 0
0.676715 0.0926643 -0.107383 79 175 0
0.671035 0.0915123 -0.107454 81 173 0
0.665713 0.0935294 -0.107689 82 172 0
0.660754 0.0968907 -0.108009 84 170 0
0.65729 0.101737 -0.108404 86 168 0
0.656614 0.107649 -0.108831 87 167 0
0.657861 0.113354 -0.109123 89 165 0
0.661297 0.118211 -0.109322 91 163 0
0.666038 0.121818 -0.109447 92 162 0
0.671691 0.12164 -0.109467 94 160 0
0.677663 0.121437 -0.109345 96 158 0
0.683221 0.119363 -0.10908 97 157 0
0.687905 0.115622 -0.10881 99 155 0
0.690595 0.11037 -0.108466 101 153 0
0.692352 0.104651 -0.108084 102 152 0
0.691254 0.0988531 -0.10781 104 150 0
0.689653 0.0930773 -0.107532 105 149 0
0.686366 0.0881924 -0.107327 107 147 0
0.681824 0.084409 -0.107134 109 145 0
0.676412 0.081826 -0.107047 110 144 0
0.670845 0.0825684 -0.107053 112 142 0
0.665013 0.0834888 -0.107152 114 140 0
0.6606 0.0865648 -0.107309 115 139 0
0.657881 0.0918364 -0.107496 117 137 0
0.657194 0.0977211 -0.107698 119 135 0
0.658723 0.103433 -0.107865 120 134 0
0.662675 0.107897 -0.107929 122 132 0
0.667404 0.111463 -0.107932 124 130 0
0.673405 0.111495 -0.107924 125 129 0
0.679287 0.110987 -0.107916 127 127 0
0.684559 0.108141 -0.107856 129 125 0
0.689213 0.104489 -0.107743 130 124 0
0.692409 0.0994305 -0.107596 132 122 0
0.692409 0.093434 -0.107379 134 120 0
0.692394 0.0874377 -0.107214 135 119 0
0.690943 0.0816172 -0.107061 137 117 0
0.687646 0.0766466 -0.106957 139 115 0
0.68262 0.0736759 -0.106891 140 114 0
0.676974 0.0716549 -0.106868 142 112 0
0.671005 0.0714593 -0.106862 144 110 0
0.665228 0.0730515 -0.106857 145 109 0
0.660978 0.0772819 -0.106868 147 107 0
0.658974 0.0828411 -0.106908 149 105 0
0.657433 0.0884781 -0.106973 150 104 0
0.659093 0.0941663 -0.107 152 102 0
0.663869 0.0977834 -0.107016 153 101 0
0.669021 0.10086 -0.107012 155 99 0
0.674731 0.101917 -0.106998 157 97 0
0.680459 0.100928 -0.106982 158 96 0
0.685866 0.098381 -0.106962 160 94 0
0.690412 0.0950145 -0.106932 162 92 0
0.693034 0.0896456 -0.106881 163 91 0
0.694404 0.0838428 -0.106813 165 89 0
0.694246 0.0779641 -0.106747 167 87 0
0.691872 0.0725182 -0.106678 168 86 0
0.688208 0.067855 -0.106618 170 84 0
0.684445 0.0635024 -0.106594 172 82 0
0.678961 0.0615589 -0.106596 173 81 0
0.67296 0.0615545 -0.106612 175 79 0
0.66745 0.0633975 -0.106634 177 77 0
0.66329 0.0674891 -0.106678 178 76 0
0.659536 0.0721637 -0.106741 180 74 0
0.658799 0.0778912 -0.106827 182 72 0
0.661163 0.0833908 -0.106891 183 71 0
0.664315 0.0882817 -0.106938 185 69 0
0.6696 0.0909984 -0.106965 187 67 0
0.675495 0.0915121 -0.106969 188 66 0
0.681437 0.091338 -0.106952 190 64 0
0.686306 0.0878359 -0.106917 192 62 0
0.690598 0.0838067 -0.106899 193 61 0
0.694045 0.0788977 -0.106913 195 59 0
0.694813 0.0731522 -0.106923 197 57 0
0.694817 0.0671516 -0.106918 198 56 0
0.692494 0.0619249 -0.106903 200 54 0
0.689143 0.0569474 -0.106897 202 52 0
0.684866 0.0529967 -0.106881 203 51 0
0.679197 0.0513972 -0.10685 205 49 0
0.673197 0.0513914 -0.106803 206 48 0
0.667835 0.0540834 -0.10679 208 46 0
0.663628 0.0580205 -0.106755 210 44 0
0.660284 0.0626312 -0.106753 211 43 0
0.66036 0.0686307 -0.106789 213 41 0
0.6615 0.0741716 -0.106792 215 39 0
0.665739 0.078418 -0.106792 216 38 0
0.670991 0.0810816 -0.106821 218 36 0
0.676985 0.081253 -0.106864 220 34 0
0.682942 0.0814328 -0.10686 221 33 0
0.688196 0.0785523 -0.106867 223 31 0
0.692809 0.0748012 -0.106926 225 29 0
0.694817 0.0693568 -0.107054 226 28 0
0.69691 0.0639354 -0.107227 228 26 0
0.696824 0.0580704 -0.107446 230 24 0
0.693814 0.0529775 -0.107598 231 23 0
0.691093 0.0477887 -0.107699 233 21 0
0.687421 0.0436298 -0.107686 235 19 0
0.682231 0.0412034 -0.107536 236 18 0
0.67624 0.0411263 -0.107248 238 16 0
0.670505 0.0418522 -0.10685 240 14 0
0.665631 0.0452449 -0.106686 241 13 0
0.662795 0.0498233 -0.106586 243 11 0
0.660391 0.0534228 -0.106576 245 9 0
0.660391 0.0594213 -0.106599 246 8 0
0.662681 0.0644239 -0.10657 248 6 0
0.665176 0.0670957 -0.106564 250 4 0
0.668408 0.0698565 -0.106667 251 3 0
0.672807 0.0714597 -0.10672 253 1 0
0.678734 0.0713054 -0.10663 255 0 0
