ply
format ascii 1.0
comment Generated by robot_control PLYWriter
element vertex 11
property float x
property float y
property float z
property uchar red
property uchar green
property uchar blue
end_header
0.590809 0.117666 -0.120422 0 255 0
0.591719 0.112993 -0.119445 25 229 0
0.592531 0.108266 -0.118632 51 204 0
0.593283 0.103515 -0.117901 76 178 0
0.594085 0.0987711 -0.117181 102 153 0
0.594823 0.0940144 -0.116487 127 127 0
0.595519 0.0892447 -0.115835 153 101 0
0.596331 0.0844962 -0.115156 178 76 0
0.597075 0.0797461 -0.114411 204 50 0
0.597815 0.074992 -0.113689 229 25 0
0.598591 0.0702354 -0.113033 255 0 0
