ply
format ascii 1.0
comment Generated by robot_control PLYWriter
element vertex 14
property float x
property float y
property float z
property uchar red
property uchar green
property uchar blue
end_header
0.487234 0.109596 -0.127423 0 255 0
0.487552 0.104599 -0.126212 19 235 0
0.488122 0.0996078 -0.12508 39 215 0
0.488571 0.0946123 -0.123908 58 196 0
0.489025 0.0896134 -0.122753 78 176 0
0.489518 0.0845922 -0.121717 98 156 0
0.489764 0.0795423 -0.120737 117 137 0
0.49007 0.0744888 -0.119789 137 117 0
0.490556 0.0694386 -0.118902 156 98 0
0.491029 0.06439 -0.117998 176 78 0
0.491361 0.0593363 -0.11706 196 58 0
0.491678 0.0542769 -0.116148 215 39 0
0.491985 0.0491917 -0.115392 235 19 0
0.492501 0.0441475 -0.114492 255 0 0
