ply
format ascii 1.0
comment Generated by robot_control PLYWriter
element vertex 48
property float x
property float y
property float z
property uchar red
property uchar green
property uchar blue
end_header
0.634948 0.112984 -0.138918 0 255 0
0.639177 0.110526 -0.137032 5 249 0
0.642517 0.10645 -0.135474 10 244 0
0.643286 0.100721 -0.133862 16 238 0
0.64283 0.0950194 -0.132565 21 233 0
0.638562 0.0908264 -0.132027 27 227 0
0.635182 0.0861571 -0.131946 32 222 0
0.629639 0.0838996 -0.132308 37 217 0
0.623821 0.0833522 -0.133255 43 211 0
0.618175 0.0844914 -0.134844 48 206 0
0.613924 0.0881469 -0.136452 54 200 0
0.610236 0.0924947 -0.138072 59 195 0
0.610411 0.0982815 -0.139194 65 189 0
0.612092 0.103621 -0.140033 70 184 0
0.616977 0.107105 -0.140165 75 179 0
0.622386 0.108527 -0.139663 81 173 0
0.628283 0.108062 -0.138773 86 168 0
0.633139 0.10486 -0.137527 92 162 0
0.635143 0.1001 -0.135869 97 157 0
0.634895 0.094294 -0.134403 103 151 0
0.632879 0.0886973 -0.13365 108 146 0
0.629637 0.0836739 -0.133275 113 141 0
0.625572 0.0794153 -0.13329 119 135 0
0.619898 0.0777611 -0.133637 124 130 0
0.614029 0.0786533 -0.134499 130 124 0
0.608491 0.0803674 -0.135741 135 119 0
0.605251 0.0848075 -0.137104 141 113 0
0.602754 0.0899656 -0.138511 146 108 0
0.603863 0.095442 -0.139466 151 103 0
0.607653 0.100068 -0.139984 157 97 0
0.612352 0.103689 -0.140052 162 92 0
0.618303 0.10414 -0.139403 168 86 0
0.622761 0.101413 -0.138338 173 81 0
0.627278 0.0983059 -0.136793 179 75 0
0.628399 0.0927409 -0.13522 184 70 0
0.627907 0.087035 -0.133719 189 65 0
0.624415 0.0822206 -0.132934 195 59 0
0.62156 0.0769599 -0.132512 200 54 0
0.61693 0.0737531 -0.132496 206 48 0
0.610962 0.0737308 -0.132743 211 43 0
0.605134 0.0743798 -0.134021 217 37 0
0.600553 0.0776075 -0.135792 222 32 0
0.597162 0.0813292 -0.138002 227 27 0
0.596376 0.0860134 -0.139977 233 21 0
0.597588 0.0911828 -0.142028 238 16 0
0.600471 0.0958773 -0.143086 244 10 0
0.605191 0.0971781 -0.143214 249 5 0
0.608609 0.0984431 -0.14212 255 0 0
