ply
format ascii 1.0
comment Generated by robot_control PLYWriter
element vertex 117
property float x
property float y
property float z
property uchar red
property uchar green
property uchar blue
end_header
0.58054 0.0255506 -0.109867 0 255 0
0.584116 0.0237728 -0.110029 2 252 0
0.588347 0.0212439 -0.110499 4 250 0
0.59077 0.0165915 -0.111002 6 248 0
0.593197 0.0123999 -0.111787 8 246 0
0.593025 0.00652452 -0.112553 10 244 0
0.590343 0.00153127 -0.113233 13 241 0
0.585761 -0.00208766 -0.114027 15 239 0
0.580483 -0.00420345 -0.114561 17 237 0
0.574509 -0.00414139 -0.11487 19 235 0
0.568623 -0.00382678 -0.11493 21 233 0
0.563428 -0.00115974 -0.11465 24 230 0
0.560869 0.00380812 -0.114237 26 228 0
0.557416 0.0085221 -0.113293 28 226 0
0.556848 0.0143196 -0.112623 30 224 0
0.55701 0.0199555 -0.11177 32 222 0
0.559777 0.0252077 -0.111149 35 219 0
0.562828 0.0302787 -0.11039 37 217 0
0.567608 0.0337869 -0.109937 39 215 0
0.573336 0.035145 -0.109583 41 213 0
0.579274 0.0350021 -0.10951 43 211 0
0.584827 0.0327852 -0.109743 46 208 0
0.589186 0.0289659 -0.110062 48 206 0
0.592904 0.0243037 -0.110534 50 204 0
0.593182 0.0184459 -0.111127 52 202 0
0.591525 0.012905 -0.111782 54 200 0
0.587647 0.00845488 -0.112215 57 197 0
0.582663 0.00522198 -0.112608 59 195 0
0.576943 0.00377642 -0.112764 61 193 0
0.571091 0.00438919 -0.112671 63 191 0
0.566163 0.00770393 -0.112365 65 189 0
0.561527 0.0114702 -0.112018 68 186 0
0.558901 0.0163435 -0.111607 70 184 0
0.557521 0.0221046 -0.111164 72 182 0
0.556243 0.0278197 -0.110641 74 180 0
0.557566 0.0335516 -0.110155 76 178 0
0.561109 0.0379179 -0.109811 79 175 0
0.56608 0.0412024 -0.109515 81 173 0
0.571123 0.0441765 -0.109271 83 171 0
0.576968 0.0453419 -0.109128 85 169 0
0.582722 0.0441231 -0.109212 87 167 0
0.587557 0.0408821 -0.109485 90 164 0
0.590515 0.0357498 -0.109879 92 162 0
0.592852 0.0302562 -0.110267 94 160 0
0.590574 0.0250628 -0.110697 96 158 0
0.588418 0.0194853 -0.11092 98 156 0
0.584034 0.0154822 -0.110995 101 153 0
0.578726 0.0131668 -0.110877 103 151 0
0.572816 0.0137342 -0.110702 105 149 0
0.567547 0.0162033 -0.110495 107 147 0
0.563128 0.0202066 -0.110245 109 145 0
0.558413 0.0237386 -0.109967 112 142 0
0.55654 0.0294145 -0.109687 114 140 0
0.556262 0.0353493 -0.109352 116 138 0
0.558508 0.0407651 -0.108988 118 136 0
0.560741 0.0463084 -0.108747 120 134 0
0.56505 0.0502516 -0.108596 123 131 0
0.570258 0.0531226 -0.108513 125 129 0
0.576047 0.0540853 -0.108566 127 127 0
0.582005 0.0536043 -0.108702 129 125 0
0.587089 0.0505993 -0.108858 131 123 0
0.59034 0.045767 -0.109153 134 120 0
0.593125 0.0404823 -0.109495 136 118 0
0.592896 0.0345805 -0.109735 138 116 0
0.590331 0.029308 -0.109843 140 114 0
0.584898 0.0268231 -0.109798 142 112 0
0.58016 0.0232198 -0.109633 145 109 0
0.574224 0.0234496 -0.109287 147 107 0
0.568697 0.0257102 -0.108933 149 105 0
0.563649 0.0282826 -0.108566 151 103 0
0.56086 0.0335532 -0.108304 153 101 0
0.55657 0.0377158 -0.108032 156 98 0
0.556326 0.0435731 -0.107794 158 96 0
0.558391 0.0489753 -0.107492 160 94 0
0.560828 0.0544305 -0.107324 162 92 0
0.564351 0.0592282 -0.107257 164 90 0
0.568965 0.0630353 -0.107353 167 87 0
0.574889 0.0634294 -0.107543 169 85 0
0.580833 0.0635288 -0.107895 171 83 0
0.585956 0.060925 -0.108287 173 81 0
0.589204 0.0559229 -0.108618 175 79 0
0.592346 0.0508652 -0.108989 178 76 0
0.591566 0.0454559 -0.109228 180 74 0
0.588554 0.0403548 -0.10941 182 72 0
0.585234 0.035378 -0.109406 184 70 0
0.579598 0.0336097 -0.109163 186 68 0
0.573634 0.0335773 -0.108693 189 65 0
0.567851 0.0345846 -0.108212 191 63 0
0.563653 0.0386273 -0.107741 193 61 0
0.559473 0.0428564 -0.107214 195 59 0
0.556688 0.0481438 -0.106918 197 57 0
0.556401 0.0540396 -0.106571 200 54 0
0.556507 0.0600007 -0.106364 202 52 0
0.559984 0.0648325 -0.106186 204 50 0
0.564288 0.0689821 -0.106167 206 48 0
0.568987 0.0726603 -0.106401 208 46 0
0.574921 0.0730505 -0.106686 211 43 0
0.580875 0.0732065 -0.107227 213 41 0
0.586058 0.0709511 -0.107749 215 39 0
0.589992 0.0665352 -0.108434 217 37 0
0.593164 0.0615044 -0.108824 219 35 0
0.593192 0.0555323 -0.109188 222 32 0
0.590186 0.0503841 -0.109296 224 30 0
0.586681 0.0455816 -0.109302 226 28 0
0.581425 0.043076 -0.109067 228 26 0
0.57546 0.0430567 -0.108595 230 24 0
0.56978 0.0441884 -0.107964 233 21 0
0.564652 0.0472087 -0.107365 235 19 0
0.561267 0.0520204 -0.106558 237 17 0
0.558169 0.0563776 -0.105741 239 15 0
0.556413 0.0619363 -0.10528 241 13 0
0.556414 0.0679133 -0.105018 244 10 0
0.558847 0.0729436 -0.104877 246 8 0
0.561845 0.0763293 -0.104972 248 6 0
0.56597 0.0802454 -0.105248 250 4 0
0.569798 0.0823956 -0.105466 252 2 0
0.574763 0.0839819 -0.105877 255 0 0
