ply
format ascii 1.0
comment Generated by robot_control PLYWriter
element vertex 10
property float x
property float y
property float z
property uchar red
property uchar green
property uchar blue
end_header
0.666305 -0.192494 -0.0418155 0 255 0
0.666317 -0.197723 -0.0422062 28 226 0
0.666389 -0.202941 -0.0426931 56 198 0
0.666477 -0.208184 -0.0427514 85 169 0
0.666582 -0.213413 -0.0423863 113 141 0
0.666663 -0.218597 -0.041599 141 113 0
0.666758 -0.223777 -0.0407735 170 84 0
0.666832 -0.228982 -0.0401127 198 56 0
0.666881 -0.234056 -0.0389104 226 28 0
0.666923 -0.238992 -0.0371551 255 0 0
