ply
format ascii 1.0
comment Generated by robot_control PLYWriter
element vertex 48
property float x
property float y
property float z
property uchar red
property uchar green
property uchar blue
end_header
0.749138 0.107489 -0.163041 0 255 0
0.753654 0.104415 -0.161924 5 249 0
0.75567 0.0994533 -0.160082 10 244 0
0.757649 0.0955068 -0.157948 16 238 0
0.756791 0.0909138 -0.154249 21 233 0
0.755418 0.0857405 -0.151713 27 227 0
0.751544 0.0834123 -0.148155 32 222 0
0.747191 0.0803323 -0.146038 37 217 0
0.741628 0.0810742 -0.143927 43 211 0
0.736019 0.0822148 -0.142519 48 206 0
0.731808 0.085236 -0.142099 54 200 0
0.727638 0.08951 -0.142738 59 195 0
0.724666 0.0942857 -0.144982 65 189 0
0.725532 0.0998501 -0.146932 70 184 0
0.728086 0.104491 -0.149546 75 179 0
0.73348 0.105839 -0.151448 81 173 0
0.738522 0.10451 -0.15256 86 168 0
0.743722 0.101715 -0.15256 92 162 0
0.746741 0.0966265 -0.151485 97 157 0
0.748775 0.0913773 -0.149304 103 151 0
0.747281 0.086438 -0.147126 108 146 0
0.745541 0.0810857 -0.144995 113 141 0
0.740858 0.0787666 -0.142698 119 135 0
0.735507 0.0765088 -0.140977 124 130 0
0.729848 0.0778802 -0.139436 130 124 0
0.724339 0.079719 -0.138268 135 119 0
0.720421 0.0843039 -0.13804 141 113 0
0.716329 0.0887054 -0.138726 146 108 0
0.716348 0.0935059 -0.140215 151 103 0
0.717235 0.0984894 -0.142242 157 97 0
0.721475 0.102261 -0.144011 162 92 0
0.725897 0.102251 -0.145492 168 86 0
0.731604 0.100472 -0.146258 173 81 0
0.737122 0.0981136 -0.146066 179 75 0
0.738464 0.0923338 -0.144961 184 70 0
0.739063 0.0867533 -0.143015 189 65 0
0.737244 0.0815266 -0.140656 195 59 0
0.734158 0.0769264 -0.138319 200 54 0
0.729242 0.0743477 -0.136286 206 48 0
0.723695 0.0740388 -0.134335 211 43 0
0.718044 0.0750847 -0.133303 217 37 0
0.713542 0.0780796 -0.132928 222 32 0
0.708536 0.0814599 -0.133185 227 27 0
0.707218 0.0869641 -0.134043 233 21 0
0.706892 0.092587 -0.136033 238 16 0
0.708985 0.0971798 -0.138119 244 10 0
0.713124 0.0995946 -0.139928 249 5 0
0.718102 0.100122 -0.141688 255 0 0
