ply
format ascii 1.0
comment Generated by robot_control PLYWriter
element vertex 9
property float x
property float y
property float z
property uchar red
property uchar green
property uchar blue
end_header
0.529967 0.0111868 -0.11926 0 255 0
0.530213 0.00615828 -0.118912 31 223 0
0.530559 0.00112763 -0.11865 63 191 0
0.53071 -0.00391842 -0.118743 95 159 0
0.530842 -0.00895409 -0.11909 127 127 0
0.530951 -0.0139831 -0.119529 159 95 0
0.531069 -0.0190111 -0.119977 191 63 0
0.531183 -0.0240481 -0.120309 223 31 0
0.531149 -0.029088 -0.120612 255 0 0
