ply
format ascii 1.0
comment Generated by robot_control PLYWriter
element vertex 9
property float x
property float y
property float z
property uchar red
property uchar green
property uchar blue
end_header
0.531184 -0.0337637 -0.120587 0 255 0
0.531764 -0.0385125 -0.120582 31 223 0
0.532063 -0.0432903 -0.12062 63 191 0
0.532357 -0.0480684 -0.120682 95 159 0
0.532785 -0.0528322 -0.120845 127 127 0
0.533205 -0.0575924 -0.121106 159 95 0
0.533474 -0.0623612 -0.121431 191 63 0
0.533767 -0.0671257 -0.121792 223 31 0
0.534321 -0.0718572 -0.122254 255 0 0
