ply
format ascii 1.0
comment Generated by robot_control PLYWriter
element vertex 9
property float x
property float y
property float z
property uchar red
property uchar green
property uchar blue
end_header
0.600973 -0.116006 -0.119556 0 255 0
0.600259 -0.110949 -0.119485 31 223 0
0.599578 -0.10587 -0.119638 63 191 0
0.599123 -0.100772 -0.119943 95 159 0
0.59856 -0.0956811 -0.120177 127 127 0
0.597798 -0.0906122 -0.120292 159 95 0
0.597511 -0.0854928 -0.120295 191 63 0
0.59721 -0.0803845 -0.119972 223 31 0
0.596548 -0.0753411 -0.119361 255 0 0
