ply
format ascii 1.0
comment Generated by robot_control PLYWriter
element vertex 10
property float x
property float y
property float z
property uchar red
property uchar green
property uchar blue
end_header
0.56888 -0.120778 -0.038679 0 255 0
0.568886 -0.115717 -0.0384427 28 226 0
0.56888 -0.110658 -0.0381861 56 198 0
0.568886 -0.105602 -0.0378634 85 169 0
0.568835 -0.100539 -0.037656 113 141 0
0.568733 -0.0954784 -0.0374327 141 113 0
0.568637 -0.0904205 -0.0371406 170 84 0
0.568537 -0.0853656 -0.0368028 198 56 0
0.568434 -0.0803171 -0.0363825 226 28 0
0.568191 -0.0752838 -0.0358533 255 0 0
