ply
format ascii 1.0
comment Generated by robot_control PLYWriter
element vertex 9
property float x
property float y
property float z
property uchar red
property uchar green
property uchar blue
end_header
0.578494 0.0762382 -0.126147 0 255 0
0.578213 0.0809276 -0.126783 31 223 0
0.577887 0.0856102 -0.127502 63 191 0
0.577578 0.090306 -0.128144 95 159 0
0.577267 0.0950025 -0.128781 127 127 0
0.576821 0.0996758 -0.129488 159 95 0
0.576342 0.104332 -0.130282 191 63 0
0.576049 0.108996 -0.131127 223 31 0
0.575634 0.113647 -0.131987 255 0 0
