ply
format ascii 1.0
comment Generated by robot_control PLYWriter
element vertex 114
property float x
property float y
property float z
property uchar red
property uchar green
property uchar blue
end_header
0.686281 0.0809301 -0.158523 0 255 0
0.689915 0.0781544 -0.158645 2 252 0
0.692805 0.0748579 -0.158487 4 250 0
0.695327 0.0700725 -0.15808 6 248 0
0.695084 0.0641192 -0.157402 9 245 0
0.69509 0.0581956 -0.156435 11 243 0
0.691439 0.0537017 -0.155782 13 241 0
0.687571 0.0505627 -0.15511 15 239 0
0.68299 0.0472259 -0.154896 18 236 0
0.676996 0.0471685 -0.155189 20 234 0
0.671964 0.0502211 -0.155651 22 232 0
0.667983 0.0544432 -0.156383 24 230 0
0.666808 0.0600688 -0.157243 27 227 0
0.668188 0.0655836 -0.157781 29 225 0
0.671972 0.0702114 -0.158018 31 223 0
0.677167 0.0722361 -0.158048 33 221 0
0.683021 0.072584 -0.157918 36 218 0
0.688323 0.0699853 -0.157625 38 216 0
0.693373 0.066786 -0.157138 40 214 0
0.696076 0.0614774 -0.156391 42 212 0
0.696684 0.0556895 -0.155715 45 209 0
0.695989 0.0499188 -0.154801 47 207 0
0.69331 0.0445944 -0.154083 49 205 0
0.688535 0.0413476 -0.153494 51 203 0
0.683258 0.0386274 -0.153221 54 200 0
0.67748 0.0389582 -0.153334 56 198 0
0.672238 0.0418019 -0.153911 58 196 0
0.668097 0.045729 -0.154629 60 194 0
0.666819 0.0513401 -0.155433 63 191 0
0.669898 0.0564268 -0.155991 65 189 0
0.673291 0.0610901 -0.156412 67 187 0
0.678947 0.0617759 -0.15664 69 185 0
0.684467 0.0627244 -0.156475 72 182 0
0.689956 0.060373 -0.155916 74 180 0
0.693853 0.0559996 -0.155274 76 178 0
0.696795 0.050899 -0.154263 78 176 0
0.698316 0.045204 -0.15326 81 173 0
0.697582 0.0395761 -0.152439 83 171 0
0.694476 0.0345029 -0.151773 85 169 0
0.69008 0.0313935 -0.151169 88 166 0
0.684657 0.029163 -0.150804 90 164 0
0.678672 0.0290588 -0.150811 92 162 0
0.673763 0.0310894 -0.151126 94 160 0
0.670637 0.0361668 -0.151795 97 157 0
0.66887 0.0417076 -0.152669 99 155 0
0.671573 0.0466155 -0.153412 101 153 0
0.675106 0.0512307 -0.154027 103 151 0
0.680722 0.0529263 -0.154175 106 148 0
0.686649 0.0524019 -0.154002 108 146 0
0.692038 0.0501425 -0.153411 110 144 0
0.695807 0.045601 -0.152472 112 142 0
0.698687 0.0404271 -0.151518 115 139 0
0.699307 0.0345494 -0.150547 117 137 0
0.698718 0.028739 -0.149593 119 135 0
0.694743 0.0243236 -0.14875 121 133 0
0.690236 0.020919 -0.148109 124 130 0
0.684383 0.0196543 -0.14779 126 128 0
0.678419 0.0199326 -0.147861 128 126 0
0.672974 0.0222228 -0.148295 130 124 0
0.670514 0.0274902 -0.149018 133 121 0
0.670243 0.0334056 -0.149838 135 119 0
0.672405 0.0388553 -0.150662 137 117 0
0.676865 0.0424246 -0.151238 139 115 0
0.682711 0.0435573 -0.151377 142 112 0
0.688501 0.0422413 -0.151041 144 110 0
0.694022 0.0399908 -0.150373 146 108 0
0.698685 0.0364213 -0.149359 148 106 0
0.700598 0.0308184 -0.148361 151 103 0
0.700382 0.0249611 -0.147162 153 101 0
0.699856 0.0191272 -0.146036 155 99 0
0.696195 0.0146935 -0.144946 157 97 0
0.691583 0.0109898 -0.14409 160 94 0
0.686069 0.00891931 -0.14375 162 92 0
0.680978 0.0107912 -0.143767 164 90 0
0.675432 0.0130222 -0.144196 166 88 0
0.671321 0.017022 -0.145167 169 85 0
0.671072 0.022566 -0.146438 171 83 0
0.673987 0.0276956 -0.147378 173 81 0
0.67807 0.0319791 -0.148277 176 78 0
0.682796 0.0354581 -0.148649 178 76 0
0.688233 0.0343365 -0.148474 180 74 0
0.692741 0.0313762 -0.147827 182 72 0
0.697669 0.0287285 -0.146913 185 69 0
0.700323 0.0236743 -0.145664 187 67 0
0.702536 0.0182182 -0.144492 189 65 0
0.700912 0.0127199 -0.143107 191 63 0
0.699812 0.00735421 -0.141677 194 60 0
0.695013 0.00399592 -0.140692 196 58 0
0.690496 0.000218804 -0.139923 198 56 0
0.684503 0.000173757 -0.139635 200 54 0
0.678876 0.00175762 -0.140007 203 51 0
0.674074 0.00514469 -0.141138 205 49 0
0.672642 0.0106954 -0.142364 207 47 0
0.67329 0.016385 -0.143718 209 45 0
0.677239 0.0206918 -0.145051 212 42 0
0.682048 0.023488 -0.145725 214 40 0
0.687687 0.024653 -0.145845 216 38 0
0.693346 0.0232325 -0.145255 218 36 0
0.697662 0.0196403 -0.144352 221 33 0
0.701125 0.0151152 -0.142798 223 31 0
0.702831 0.0102153 -0.141449 225 29 0
0.70237 0.00445975 -0.139814 227 27 0
0.701451 -0.00101737 -0.138291 230 24 0
0.697151 -0.00498701 -0.137081 232 22 0
0.692673 -0.00889379 -0.136503 234 20 0
0.686683 -0.00890332 -0.136137 236 18 0
0.680684 -0.00889519 -0.136279 239 15 0
0.676445 -0.00613201 -0.137285 241 13 0
0.674737 -0.00110761 -0.138085 243 11 0
0.674067 0.00455477 -0.13963 245 9 0
0.67665 0.00866136 -0.141019 248 6 0
0.678666 0.0116436 -0.141956 250 4 0
0.683054 0.0134377 -0.142644 252 2 0
0.688774 0.014211 -0.142929 255 0 0
