ply
format ascii 1.0
comment Generated by robot_control PLYWriter
element vertex 89
property float x
property float y
property float z
property uchar red
property uchar green
property uchar blue
end_header
0.72078 0.0981116 -0.125437 0 255 0
0.724112 0.0970604 -0.125172 2 252 0
0.727164 0.0926956 -0.124363 5 249 0
0.730072 0.0882428 -0.122963 8 246 0
0.729896 0.0835981 -0.121153 11 243 0
0.728602 0.0786553 -0.119536 14 240 0
0.725477 0.0744064 -0.117917 17 237 0
0.722405 0.071186 -0.116228 20 234 0
0.717975 0.070371 -0.115441 23 231 0
0.712712 0.0693202 -0.115059 26 228 0
0.707799 0.0720304 -0.115176 28 226 0
0.70381 0.0763914 -0.116059 31 223 0
0.702122 0.0816596 -0.117538 34 220 0
0.705665 0.0862581 -0.118819 37 217 0
0.710715 0.0893027 -0.119861 40 214 0
0.716381 0.0903464 -0.12047 43 211 0
0.721746 0.0876937 -0.120292 46 208 0
0.725649 0.0834304 -0.119612 49 205 0
0.728248 0.0784448 -0.118738 52 202 0
0.730123 0.0734249 -0.117539 55 199 0
0.72844 0.0680064 -0.116416 57 197 0
0.725779 0.0636279 -0.115008 60 194 0
0.720739 0.060576 -0.113869 63 191 0
0.715214 0.0586051 -0.113206 66 188 0
0.709365 0.0585427 -0.112878 69 185 0
0.704765 0.0620898 -0.112966 72 182 0
0.703057 0.0676544 -0.113545 75 179 0
0.703993 0.0733705 -0.114533 78 176 0
0.70773 0.0778147 -0.115482 81 173 0
0.713356 0.0791138 -0.115933 84 170 0
0.719186 0.0778354 -0.116055 86 168 0
0.7244 0.0752039 -0.115884 89 165 0
0.727202 0.0700408 -0.115467 92 162 0
0.728445 0.0642231 -0.114703 95 159 0
0.728839 0.058378 -0.11387 98 156 0
0.725742 0.0533509 -0.112843 101 153 0
0.721101 0.0497541 -0.112144 104 150 0
0.715558 0.0477771 -0.111511 107 147 0
0.709789 0.0479513 -0.111068 110 144 0
0.704721 0.0511347 -0.111025 113 141 0
0.70257 0.0564707 -0.11131 115 139 0
0.702653 0.0624526 -0.111859 118 136 0
0.706229 0.0671414 -0.112476 121 133 0
0.711114 0.0693667 -0.112871 124 130 0
0.716984 0.0685895 -0.113203 127 127 0
0.722076 0.0654067 -0.113259 130 124 0
0.726447 0.0618462 -0.1131 133 121 0
0.728256 0.0561342 -0.112739 136 118 0
0.727812 0.0503871 -0.112185 139 115 0
0.726449 0.0446361 -0.11141 141 113 0
0.723027 0.0397329 -0.11088 144 110 0
0.717742 0.0375355 -0.110153 147 107 0
0.711807 0.0380099 -0.109701 150 104 0
0.706273 0.0393417 -0.109385 153 101 0
0.702107 0.0436576 -0.10943 156 98 0
0.701445 0.0492892 -0.109712 159 95 0
0.703871 0.0547722 -0.110121 162 92 0
0.708309 0.0580473 -0.110638 165 89 0
0.714276 0.0583431 -0.111109 168 86 0
0.719709 0.0559843 -0.111265 170 84 0
0.723486 0.0513618 -0.111287 173 81 0
0.72746 0.0470685 -0.111063 176 78 0
0.728182 0.0411852 -0.110712 179 75 0
0.726092 0.0356004 -0.110167 182 72 0
0.723138 0.030403 -0.109535 185 69 0
0.718772 0.0265608 -0.108881 188 66 0
0.712975 0.0251582 -0.108375 191 63 0
0.70834 0.0275983 -0.107967 194 60 0
0.703725 0.0298043 -0.107799 197 57 0
0.700478 0.0342625 -0.107882 199 55 0
0.702177 0.0398865 -0.10831 202 52 0
0.703991 0.0449537 -0.108854 205 49 0
0.709177 0.0473741 -0.10952 208 46 0
0.715162 0.0476373 -0.109957 211 43 0
0.720357 0.0452079 -0.110293 214 40 0
0.724417 0.0409603 -0.11043 217 37 0
0.726787 0.0357057 -0.110309 220 34 0
0.726598 0.0297136 -0.109958 223 31 0
0.726585 0.0238348 -0.109229 226 28 0
0.722726 0.0193202 -0.10847 228 26 0
0.718218 0.0154559 -0.107756 231 23 0
0.712351 0.0152266 -0.106831 234 20 0
0.707208 0.0166282 -0.106252 237 17 0
0.702775 0.0190313 -0.106033 240 14 0
0.700237 0.0237433 -0.106218 243 11 0
0.700422 0.0295948 -0.10675 246 8 0
0.703397 0.0337716 -0.107487 249 5 0
0.708044 0.0355689 -0.108041 252 2 0
0.712796 0.0374298 -0.108927 255 0 0
