ply
format ascii 1.0
comment Generated by robot_control PLYWriter
element vertex 36
property float x
property float y
property float z
property uchar red
property uchar green
property uchar blue
end_header
0.519386 0.17589 -0.142575 0 255 0
0.525179 0.176062 -0.141915 7 247 0
0.528614 0.172941 -0.140652 14 240 0
0.531237 0.169517 -0.139666 21 233 0
0.530786 0.164036 -0.138413 29 225 0
0.527094 0.161243 -0.137897 36 218 0
0.521106 0.160564 -0.138228 43 211 0
0.516017 0.163053 -0.139408 51 204 0
0.512623 0.167774 -0.140857 58 196 0
0.512972 0.173586 -0.142402 65 189 0
0.515907 0.178476 -0.143335 72 182 0
0.520047 0.182399 -0.143826 80 174 0
0.525682 0.184226 -0.14385 87 167 0
0.531261 0.183408 -0.143372 94 160 0
0.536085 0.179843 -0.142814 102 153 0
0.536274 0.173924 -0.141546 109 145 0
0.53296 0.169935 -0.140706 116 138 0
0.528482 0.16676 -0.140719 123 131 0
0.523101 0.168526 -0.141419 131 123 0
0.519599 0.173124 -0.142876 138 116 0
0.519124 0.179051 -0.143717 145 109 0
0.520556 0.184438 -0.145236 153 101 0
0.524427 0.189085 -0.145774 160 94 0
0.529714 0.190699 -0.146244 167 87 0
0.535471 0.190708 -0.146013 174 80 0
0.540112 0.186999 -0.145106 182 72 0
0.542825 0.182058 -0.143552 189 65 0
0.540746 0.176961 -0.142231 196 58 0
0.5355 0.174109 -0.141881 204 50 0
0.529842 0.175092 -0.142337 211 43 0
0.52594 0.178307 -0.143684 218 36 0
0.52406 0.183123 -0.145406 225 29 0
0.524618 0.188759 -0.147287 233 21 0
0.527628 0.193258 -0.148706 240 14 0
0.531887 0.196512 -0.149766 247 7 0
0.537443 0.197718 -0.14954 255 0 0
