ply
format ascii 1.0
comment Generated by robot_control PLYWriter
element vertex 120
property float x
property float y
property float z
property uchar red
property uchar green
property uchar blue
end_header
0.630298 -0.158423 -0.114609 0 255 0
0.63451 -0.161033 -0.114861 2 252 0
0.635185 -0.16663 -0.114423 4 250 0
0.633649 -0.170477 -0.113491 6 248 0
0.630288 -0.172951 -0.11269 8 246 0
0.625139 -0.174437 -0.111943 10 244 0
0.620679 -0.17274 -0.111468 12 242 0
0.616551 -0.169709 -0.111406 15 240 0
0.614101 -0.164952 -0.111748 17 237 0
0.61422 -0.159029 -0.112706 19 235 0
0.615065 -0.153518 -0.113905 21 233 0
0.619395 -0.150259 -0.115267 23 231 0
0.624996 -0.148777 -0.116085 25 229 0
0.630754 -0.14939 -0.116448 27 227 0
0.63465 -0.152099 -0.116222 30 225 0
0.634455 -0.158039 -0.115503 32 222 0
0.631614 -0.162464 -0.114559 34 220 0
0.626944 -0.164839 -0.113718 36 218 0
0.62154 -0.163703 -0.113532 38 216 0
0.616693 -0.160454 -0.113652 40 214 0
0.61419 -0.155447 -0.114212 42 212 0
0.612628 -0.150016 -0.115261 45 210 0
0.614529 -0.144491 -0.116146 47 207 0
0.617779 -0.140256 -0.117559 49 205 0
0.622857 -0.13775 -0.118571 51 203 0
0.628494 -0.139085 -0.119062 53 201 0
0.63308 -0.142123 -0.118815 55 199 0
0.634614 -0.14777 -0.118014 57 197 0
0.630883 -0.151722 -0.116905 60 195 0
0.625746 -0.154281 -0.116141 62 192 0
0.620344 -0.1529 -0.115879 64 190 0
0.615419 -0.149518 -0.116326 66 188 0
0.612677 -0.144499 -0.117152 68 186 0
0.612886 -0.138721 -0.118594 70 184 0
0.614987 -0.133186 -0.11956 72 182 0
0.618541 -0.12859 -0.12079 75 179 0
0.624159 -0.128342 -0.121755 77 177 0
0.62974 -0.12946 -0.121999 79 175 0
0.632678 -0.134304 -0.12129 81 173 0
0.632367 -0.140239 -0.12043 83 171 0
0.62787 -0.143496 -0.119502 85 169 0
0.621976 -0.143938 -0.118979 87 167 0
0.616357 -0.142103 -0.119011 90 165 0
0.613056 -0.137467 -0.119479 92 162 0
0.611211 -0.131841 -0.120194 94 160 0
0.612774 -0.126303 -0.121288 96 158 0
0.615953 -0.121376 -0.122296 98 156 0
0.620758 -0.118669 -0.123244 100 154 0
0.62673 -0.11866 -0.123847 102 152 0
0.63108 -0.121782 -0.123893 105 149 0
0.632748 -0.127376 -0.123381 107 147 0
0.629333 -0.131744 -0.1228 109 145 0
0.623906 -0.134198 -0.122319 111 143 0
0.618455 -0.132604 -0.121853 113 141 0
0.613633 -0.129438 -0.121753 115 139 0
0.611286 -0.123964 -0.122075 117 137 0
0.611215 -0.118002 -0.12282 120 135 0
0.613384 -0.112683 -0.123605 122 132 0
0.617872 -0.108781 -0.124376 124 130 0
0.623506 -0.107862 -0.124905 126 128 0
0.62861 -0.110014 -0.125302 128 126 0
0.631108 -0.115178 -0.125307 130 124 0
0.631043 -0.121148 -0.124842 132 122 0
0.625759 -0.123845 -0.124167 135 119 0
0.620089 -0.123682 -0.12347 137 117 0
0.614707 -0.121094 -0.123101 139 115 0
0.611205 -0.116907 -0.12303 141 113 0
0.609476 -0.111328 -0.123259 143 111 0
0.61154 -0.105995 -0.123693 145 109 0
0.61443 -0.100799 -0.124531 147 107 0
0.619393 -0.0980105 -0.125363 150 104 0
0.625237 -0.0983311 -0.126157 152 102 0
0.628771 -0.102598 -0.126519 154 100 0
0.631281 -0.107395 -0.126452 156 98 0
0.628712 -0.112373 -0.125919 158 96 0
0.62355 -0.114614 -0.12519 160 94 0
0.617727 -0.114158 -0.124144 162 92 0
0.613317 -0.110501 -0.123573 165 89 0
0.609612 -0.105903 -0.123367 167 87 0
0.608969 -0.100077 -0.123472 169 85 0
0.611755 -0.0948049 -0.123831 171 83 0
0.615397 -0.0901718 -0.124543 173 81 0
0.620751 -0.0881221 -0.125514 175 79 0
0.625842 -0.0897851 -0.126487 177 77 0
0.630315 -0.0924671 -0.127076 180 74 0
0.630485 -0.098044 -0.127113 182 72 0
0.626666 -0.102631 -0.126579 184 70 0
0.621281 -0.104573 -0.125603 186 68 0
0.615602 -0.104046 -0.124831 188 66 0
0.611178 -0.100233 -0.123874 190 64 0
0.608502 -0.0949922 -0.123183 192 62 0
0.608131 -0.0890492 -0.122881 195 59 0
0.610128 -0.0836494 -0.123082 197 57 0
0.614673 -0.079763 -0.123539 199 55 0
0.62007 -0.0783064 -0.124486 201 53 0
0.625333 -0.0793058 -0.12554 203 51 0
0.628823 -0.0838167 -0.126401 205 49 0
0.628671 -0.0897689 -0.126735 207 47 0
0.624886 -0.0942607 -0.126285 210 44 0
0.619088 -0.0947177 -0.125413 212 42 0
0.614178 -0.0924977 -0.124131 214 40 0
0.610115 -0.0890417 -0.123064 216 38 0
0.608254 -0.0835406 -0.122299 218 36 0
0.608829 -0.0777068 -0.121997 220 34 0
0.610287 -0.0725118 -0.122169 222 32 0
0.614656 -0.0685978 -0.123055 225 29 0
0.620512 -0.0683974 -0.124371 227 27 0
0.625895 -0.0694637 -0.125879 229 25 0
0.628679 -0.0733682 -0.126644 231 23 0
0.628064 -0.0788467 -0.126558 233 21 0
0.624614 -0.0831409 -0.125722 235 19 0
0.619545 -0.0848683 -0.124509 237 17 0
0.614231 -0.0845019 -0.123174 240 14 0
0.611268 -0.0800727 -0.121915 242 12 0
0.608132 -0.0760673 -0.121133 244 10 0
0.606439 -0.0709788 -0.120706 246 8 0
0.608345 -0.0670477 -0.120719 248 6 0
0.609111 -0.0621085 -0.121347 250 4 0
0.612752 -0.0603843 -0.122545 252 2 0
0.616253 -0.0585695 -0.124001 255 0 0
