ply
format ascii 1.0
comment Generated by robot_control PLYWriter
element vertex 48
property float x
property float y
property float z
property uchar red
property uchar green
property uchar blue
end_header
0.54092 0.18771 -0.144057 0 255 0
0.545791 0.185146 -0.142318 5 249 0
0.548037 0.181056 -0.140198 10 244 0
0.547822 0.175427 -0.138569 16 238 0
0.546064 0.170074 -0.137787 21 233 0
0.541006 0.167543 -0.137856 27 227 0
0.535792 0.165267 -0.139107 32 222 0
0.530368 0.164651 -0.140399 37 217 0
0.525242 0.167098 -0.142032 43 211 0
0.521456 0.170964 -0.14448 48 206 0
0.51891 0.175547 -0.146562 54 200 0
0.518588 0.181261 -0.148296 59 195 0
0.520943 0.18666 -0.149309 65 189 0
0.524147 0.191717 -0.149787 70 184 0
0.528764 0.195336 -0.149703 75 179 0
0.534494 0.196559 -0.149199 81 173 0
0.54021 0.195536 -0.147777 86 168 0
0.544475 0.192595 -0.145894 92 162 0
0.54623 0.18702 -0.14463 97 157 0
0.54452 0.181683 -0.143276 103 151 0
0.541081 0.176813 -0.143068 108 146 0
0.535787 0.174077 -0.143799 113 141 0
0.530405 0.172974 -0.145198 119 135 0
0.525163 0.175212 -0.146943 124 130 0
0.520453 0.178293 -0.148996 130 124 0
0.51675 0.182407 -0.150811 135 119 0
0.51609 0.188153 -0.152426 141 113 0
0.516924 0.193607 -0.153892 146 108 0
0.520562 0.198275 -0.154828 151 103 0
0.525386 0.201542 -0.155326 157 97 0
0.530454 0.204687 -0.15501 162 92 0
0.535936 0.204332 -0.153676 168 86 0
0.541306 0.202498 -0.151773 173 81 0
0.54261 0.197598 -0.149869 179 75 0
0.543217 0.192707 -0.148142 184 70 0
0.540677 0.187474 -0.146824 189 65 0
0.536689 0.183026 -0.146573 195 59 0
0.531538 0.182511 -0.147503 200 54 0
0.526499 0.18089 -0.149394 206 48 0
0.521561 0.183432 -0.151411 211 43 0
0.517447 0.186687 -0.153979 217 37 0
0.515184 0.190966 -0.156724 222 32 0
0.51378 0.195716 -0.159623 227 27 0
0.515476 0.200897 -0.161932 233 21 0
0.517968 0.205415 -0.163175 238 16 0
0.521289 0.209537 -0.163774 244 10 0
0.526137 0.211633 -0.163584 249 5 0
0.528988 0.211105 -0.16289 255 0 0
