ply
format ascii 1.0
comment Generated by robot_control PLYWriter
element vertex 32
property float x
property float y
property float z
property uchar red
property uchar green
property uchar blue
end_header
0.626991 0.150172 -0.16245 0 255 0
0.631746 0.147721 -0.160345 8 246 0
0.635265 0.144483 -0.157191 16 238 0
0.638123 0.140835 -0.154072 24 230 0
0.638655 0.135394 -0.151805 32 222 0
0.637405 0.129966 -0.15031 41 213 0
0.63389 0.125153 -0.149738 49 205 0
0.628939 0.121902 -0.150481 57 197 0
0.623372 0.120738 -0.151728 65 189 0
0.618624 0.122864 -0.154195 74 180 0
0.616243 0.127956 -0.155885 82 172 0
0.615997 0.133758 -0.157371 90 164 0
0.619089 0.138653 -0.158047 98 156 0
0.623802 0.14237 -0.157922 106 148 0
0.628799 0.145305 -0.157183 115 139 0
0.634581 0.146268 -0.15588 123 131 0
0.639775 0.144694 -0.154062 131 123 0
0.644879 0.142541 -0.151768 139 115 0
0.647898 0.137709 -0.149846 148 106 0
0.649364 0.132356 -0.147634 156 98 0
0.649073 0.126743 -0.145551 164 90 0
0.646407 0.121869 -0.144444 172 82 0
0.641686 0.118331 -0.143781 180 74 0
0.635869 0.117098 -0.144481 189 65 0
0.630652 0.118718 -0.146116 197 57 0
0.626848 0.122248 -0.148239 205 49 0
0.626187 0.127383 -0.150469 213 41 0
0.628685 0.132285 -0.15224 222 32 0
0.630188 0.137072 -0.15386 230 24 0
0.635647 0.139462 -0.154168 238 16 0
0.640286 0.142009 -0.153735 246 8 0
0.644854 0.142581 -0.152588 255 0 0
