ply
format ascii 1.0
comment Generated by robot_control PLYWriter
element vertex 9
property float x
property float y
property float z
property uchar red
property uchar green
property uchar blue
end_header
0.590088 -0.153129 -0.140518 0 255 0
0.590411 -0.157921 -0.139617 31 223 0
0.590796 -0.162707 -0.138651 63 191 0
0.591084 -0.167479 -0.137568 95 159 0
0.59144 -0.172237 -0.13644 127 127 0
0.591858 -0.176991 -0.135318 159 95 0
0.592177 -0.181742 -0.134168 191 63 0
0.592215 -0.186486 -0.132938 223 31 0
0.592518 -0.191251 -0.131832 255 0 0
