ply
format ascii 1.0
comment Generated by robot_control PLYWriter
element vertex 12
property float x
property float y
property float z
property uchar red
property uchar green
property uchar blue
end_header
0.50664 0.0095575 -0.120978 0 255 0
0.506121 0.0146248 -0.121031 23 231 0
0.505832 0.0197087 -0.121184 46 208 0
0.505571 0.0247907 -0.121432 69 185 0
0.505296 0.0298687 -0.121744 92 162 0
0.50501 0.0349415 -0.12212 115 139 0
0.504806 0.04001 -0.122583 139 115 0
0.50463 0.0450732 -0.123112 162 92 0
0.504322 0.0501314 -0.123638 185 69 0
0.504028 0.0551948 -0.124121 208 46 0
0.503742 0.0602603 -0.124587 231 23 0
0.503284 0.0653199 -0.124951 255 0 0
