ply
format ascii 1.0
comment Generated by robot_control PLYWriter
element vertex 97
property float x
property float y
property float z
property uchar red
property uchar green
property uchar blue
end_header
0.682171 0.0817392 -0.143692 0 255 0
0.686333 0.0798013 -0.142155 2 252 0
0.690382 0.0779092 -0.141309 5 249 0
0.69219 0.0732401 -0.140167 7 247 0
0.694528 0.0680772 -0.139427 10 244 0
0.694809 0.0621281 -0.139132 13 241 0
0.69221 0.0570234 -0.139131 15 239 0
0.687999 0.0527474 -0.139546 18 236 0
0.683118 0.0497748 -0.140223 21 233 0
0.677544 0.0491687 -0.141041 23 231 0
0.671722 0.0496181 -0.14189 26 228 0
0.668093 0.053539 -0.142558 29 225 0
0.664398 0.058098 -0.143175 31 223 0
0.664663 0.0640444 -0.143565 34 220 0
0.668314 0.0686577 -0.143526 37 217 0
0.672789 0.0719764 -0.143011 39 215 0
0.678352 0.0735778 -0.142368 42 212 0
0.683988 0.0719963 -0.141624 45 209 0
0.688817 0.068587 -0.140742 47 207 0
0.692288 0.0641368 -0.139958 50 204 0
0.69478 0.0587726 -0.139362 53 201 0
0.694753 0.0527749 -0.138821 55 199 0
0.692486 0.0472703 -0.138588 58 196 0
0.689019 0.0426507 -0.138677 61 193 0
0.683568 0.0401217 -0.139036 63 191 0
0.677703 0.039485 -0.139706 66 188 0
0.672017 0.0407605 -0.140356 69 185 0
0.668401 0.04528 -0.141066 71 183 0
0.666215 0.0507321 -0.14155 74 180 0
0.666814 0.0564058 -0.141807 77 177 0
0.671308 0.0603995 -0.14175 79 175 0
0.676635 0.0629396 -0.141397 82 172 0
0.682618 0.0631884 -0.140826 85 169 0
0.68742 0.0613863 -0.140184 87 167 0
0.691703 0.0574993 -0.139415 90 164 0
0.694568 0.0524015 -0.138743 92 162 0
0.69716 0.0470515 -0.138075 95 159 0
0.696823 0.041122 -0.137585 98 156 0
0.693439 0.0361994 -0.137243 100 154 0
0.689213 0.0319117 -0.137144 103 151 0
0.684401 0.0285453 -0.137338 106 148 0
0.678656 0.029017 -0.137705 108 146 0
0.673019 0.0310537 -0.138188 111 143 0
0.668332 0.0341868 -0.138839 114 140 0
0.666942 0.0400011 -0.139312 116 138 0
0.668602 0.0453589 -0.139724 119 135 0
0.671991 0.0501931 -0.139889 122 132 0
0.677203 0.0528862 -0.139844 124 130 0
0.683183 0.0533279 -0.139547 127 127 0
0.688818 0.0516739 -0.138968 130 124 0
0.69346 0.0478876 -0.138471 132 122 0
0.697103 0.0432284 -0.137662 135 119 0
0.697044 0.0372469 -0.136967 138 116 0
0.696431 0.0313581 -0.13625 140 114 0
0.69406 0.0258861 -0.135738 143 111 0
0.68988 0.0217482 -0.135449 146 108 0
0.68427 0.019811 -0.135426 148 106 0
0.678309 0.0194623 -0.135637 151 103 0
0.672786 0.0217801 -0.136107 154 100 0
0.669214 0.0257213 -0.136568 156 98 0
0.668708 0.0316178 -0.137162 159 95 0
0.670511 0.0369132 -0.137599 162 92 0
0.674502 0.041394 -0.137843 164 90 0
0.680064 0.0434421 -0.13788 167 87 0
0.685906 0.0429568 -0.137613 170 84 0
0.691389 0.0405492 -0.137058 172 82 0
0.695652 0.0364028 -0.136525 175 79 0
0.698563 0.031303 -0.135661 177 77 0
0.698398 0.025328 -0.134927 180 74 0
0.697399 0.0195274 -0.134231 183 71 0
0.693908 0.0147559 -0.133747 185 69 0
0.690626 0.0097398 -0.133486 188 66 0
0.68479 0.00877932 -0.133419 191 63 0
0.678776 0.00893803 -0.133577 193 61 0
0.674388 0.0127232 -0.133916 196 58 0
0.670399 0.0162455 -0.134545 199 55 0
0.670143 0.0221817 -0.135341 201 53 0
0.672152 0.027343 -0.135924 204 50 0
0.675499 0.032198 -0.136293 207 47 0
0.681091 0.0334493 -0.136365 209 45 0
0.687103 0.0332083 -0.136122 212 42 0
0.692612 0.0311666 -0.135628 215 39 0
0.69642 0.0268043 -0.134818 217 37 0
0.700027 0.0221328 -0.134058 220 34 0
0.700621 0.0162497 -0.133093 223 31 0
0.698757 0.0107038 -0.132297 225 29 0
0.69569 0.00587622 -0.131741 228 26 0
0.692256 0.00101185 -0.13149 231 23 0
0.687085 -0.000498068 -0.131559 233 21 0
0.681082 -0.000390526 -0.131954 236 18 0
0.676206 0.00191199 -0.132508 239 15 0
0.673223 0.00681338 -0.133135 241 13 0
0.67081 0.0114075 -0.133845 244 10 0
0.672586 0.016606 -0.134404 247 7 0
0.676363 0.0206179 -0.13483 249 5 0
0.680844 0.023499 -0.135028 252 2 0
0.686792 0.0235287 -0.134965 255 0 0
