ply
format ascii 1.0
comment Generated by robot_control PLYWriter
element vertex 32
property float x
property float y
property float z
property uchar red
property uchar green
property uchar blue
end_header
0.727146 0.0578066 -0.160509 0 255 0
0.731185 0.0548364 -0.158761 8 246 0
0.733955 0.0505842 -0.15665 16 238 0
0.734218 0.0453294 -0.154602 24 230 0
0.732148 0.0402755 -0.152682 32 222 0
0.729124 0.0355125 -0.151062 41 213 0
0.72435 0.0322277 -0.150137 49 205 0
0.718467 0.0317567 -0.149924 57 197 0
0.712562 0.0317207 -0.150083 65 189 0
0.707524 0.0340812 -0.150771 74 180 0
0.70297 0.0377308 -0.151706 82 172 0
0.69895 0.0419147 -0.15282 90 164 0
0.698127 0.047439 -0.154523 98 156 0
0.700091 0.05275 -0.155783 106 148 0
0.705013 0.0556873 -0.156484 115 139 0
0.710434 0.0565757 -0.156616 123 131 0
0.71565 0.0538916 -0.156141 131 123 0
0.720191 0.0504922 -0.155011 139 115 0
0.722135 0.0454079 -0.15347 148 106 0
0.721062 0.0398063 -0.152023 156 98 0
0.718708 0.0347254 -0.150344 164 90 0
0.714123 0.031213 -0.149095 172 82 0
0.709415 0.0281822 -0.148134 180 74 0
0.703613 0.0281046 -0.147433 189 65 0
0.69775 0.0285479 -0.147325 197 57 0
0.692695 0.0314386 -0.147567 205 49 0
0.689348 0.03595 -0.14859 213 41 0
0.687382 0.0408989 -0.150552 222 32 0
0.686743 0.0463147 -0.152629 230 24 0
0.690096 0.0506358 -0.154469 238 16 0
0.69367 0.0529958 -0.156241 246 8 0
0.698689 0.0534037 -0.157755 255 0 0
