ply
format ascii 1.0
comment Generated by robot_control PLYWriter
element vertex 9
property float x
property float y
property float z
property uchar red
property uchar green
property uchar blue
end_header
0.548799 -0.118571 -0.118523 0 255 0
0.548286 -0.113738 -0.118629 31 223 0
0.548012 -0.108885 -0.118682 63 191 0
0.547688 -0.10405 -0.119014 95 159 0
0.547424 -0.0992248 -0.119533 127 127 0
0.547261 -0.0943958 -0.120069 159 95 0
0.547127 -0.0895567 -0.120511 191 63 0
0.547031 -0.0847104 -0.120867 223 31 0
0.546975 -0.0798726 -0.12121 255 0 0
