ply
format ascii 1.0
comment Generated by robot_control PLYWriter
element vertex 11
property float x
property float y
property float z
property uchar red
property uchar green
property uchar blue
end_header
0.590533 -0.191289 -0.0408595 0 255 0
0.590475 -0.195444 -0.0377071 25 229 0
0.590455 -0.200179 -0.0355252 51 204 0
0.59065 -0.205166 -0.0340458 76 178 0
0.591027 -0.21031 -0.0336149 102 153 0
0.591385 -0.215409 -0.0344945 127 127 0
0.591794 -0.220268 -0.0363797 153 101 0
0.592195 -0.225068 -0.038408 178 76 0
0.592594 -0.23004 -0.0399658 204 50 0
0.592605 -0.235205 -0.0407829 229 25 0
0.592606 -0.24042 -0.0409871 255 0 0
