ply
format ascii 1.0
comment Generated by robot_control PLYWriter
element vertex 80
property float x
property float y
property float z
property uchar red
property uchar green
property uchar blue
end_header
0.728335 0.0735818 -0.122754 0 255 0
0.732924 0.0707738 -0.122081 3 251 0
0.736176 0.0663005 -0.121211 6 248 0
0.736876 0.0612655 -0.120073 9 245 0
0.738194 0.0558067 -0.118648 12 242 0
0.736494 0.0505505 -0.117453 16 238 0
0.733422 0.0457484 -0.116444 19 235 0
0.729085 0.0417184 -0.115606 22 232 0
0.723196 0.0413559 -0.115215 25 229 0
0.717167 0.0413692 -0.114975 29 225 0
0.712262 0.0443219 -0.11518 32 222 0
0.708262 0.0482274 -0.115766 35 219 0
0.708472 0.0541557 -0.116733 38 216 0
0.709999 0.0595945 -0.117483 41 213 0
0.713667 0.0635149 -0.118183 45 209 0
0.719274 0.0654063 -0.118588 48 206 0
0.725152 0.0643997 -0.118794 51 203 0
0.730356 0.0614785 -0.11867 54 200 0
0.734519 0.0571546 -0.118158 58 196 0
0.737826 0.052208 -0.117456 61 193 0
0.737941 0.0463328 -0.116629 64 190 0
0.735591 0.0408438 -0.115844 67 187 0
0.731905 0.0362932 -0.115186 71 183 0
0.726713 0.0333205 -0.11457 74 180 0
0.721241 0.0310844 -0.114188 77 177 0
0.715628 0.0328769 -0.114034 80 174 0
0.710733 0.0363405 -0.114195 83 171 0
0.70806 0.0413839 -0.114554 87 167 0
0.70822 0.0473933 -0.115066 90 164 0
0.711735 0.0521809 -0.115564 93 161 0
0.716411 0.0554172 -0.115962 96 158 0
0.722434 0.0555559 -0.116258 100 154 0
0.728339 0.0545523 -0.116344 103 151 0
0.733134 0.0510176 -0.116264 106 148 0
0.735581 0.045517 -0.115888 109 145 0
0.736577 0.0397803 -0.115355 112 142 0
0.735843 0.0338298 -0.114727 116 138 0
0.734388 0.0280026 -0.114175 119 135 0
0.729315 0.0251497 -0.113573 122 132 0
0.723495 0.023656 -0.113211 125 129 0
0.71749 0.0233026 -0.112962 129 125 0
0.712386 0.0256378 -0.112885 132 122 0
0.708588 0.0299794 -0.113005 135 119 0
0.7088 0.0359765 -0.113374 138 116 0
0.710805 0.0414435 -0.113903 142 112 0
0.715126 0.0453108 -0.114392 145 109 0
0.720794 0.0473375 -0.114781 148 106 0
0.726329 0.0464359 -0.115113 151 103 0
0.731341 0.0430823 -0.115114 154 100 0
0.735356 0.0386191 -0.114852 158 96 0
0.73747 0.0333113 -0.114442 161 93 0
0.736793 0.0273469 -0.113848 164 90 0
0.735297 0.021598 -0.113174 167 87 0
0.732404 0.0163702 -0.112547 171 83 0
0.727179 0.0138012 -0.111989 174 80 0
0.721196 0.0135853 -0.111388 177 77 0
0.715307 0.0144481 -0.110952 180 74 0
0.710248 0.0175688 -0.110904 183 71 0
0.708934 0.0233832 -0.111219 187 67 0
0.708389 0.0293658 -0.111769 190 64 0
0.711371 0.0338429 -0.11246 193 61 0
0.715671 0.0374501 -0.112992 196 58 0
0.721677 0.0374486 -0.113584 200 54 0
0.727643 0.0376495 -0.113924 203 51 0
0.731874 0.0334671 -0.114112 206 48 0
0.735008 0.0283252 -0.113983 209 45 0
0.736902 0.022688 -0.11367 213 41 0
0.737055 0.0167052 -0.113066 216 38 0
0.734502 0.0114555 -0.112211 219 35 0
0.731439 0.00654343 -0.111394 222 32 0
0.726084 0.00487983 -0.110313 225 29 0
0.720787 0.00419003 -0.109379 229 25 0
0.716164 0.00582316 -0.108839 232 22 0
0.711923 0.00801495 -0.108661 235 19 0
0.708785 0.0128552 -0.108893 238 16 0
0.707795 0.0179209 -0.10962 242 12 0
0.710075 0.0226851 -0.110611 245 9 0
0.713404 0.0256734 -0.111469 248 6 0
0.717083 0.0281396 -0.112338 251 3 0
0.722435 0.0294876 -0.112825 255 0 0
