ply
format ascii 1.0
comment Generated by robot_control PLYWriter
element vertex 9
property float x
property float y
property float z
property uchar red
property uchar green
property uchar blue
end_header
0.64113 0.0279751 -0.106369 0 255 0
0.641111 0.0230447 -0.106108 31 223 0
0.641075 0.0181268 -0.105672 63 191 0
0.640585 0.0132377 -0.1052 95 159 0
0.640054 0.00835027 -0.104744 127 127 0
0.639521 0.00346426 -0.104274 159 95 0
0.639006 -0.00142187 -0.103786 191 63 0
0.63851 -0.00632186 -0.10345 223 31 0
0.63849 -0.0112519 -0.103183 255 0 0
