ply
format ascii 1.0
comment Generated by robot_control PLYWriter
element vertex 49
property float x
property float y
property float z
property uchar red
property uchar green
property uchar blue
end_header
0.646623 0.0966884 -0.152696 0 255 0
0.649488 0.0941832 -0.150001 5 249 0
0.653506 0.0926773 -0.147008 10 244 0
0.655965 0.0883168 -0.144953 15 239 0
0.656771 0.0826144 -0.143835 21 233 0
0.656177 0.0767776 -0.143135 26 228 0
0.653133 0.0715727 -0.142919 31 223 0
0.648761 0.0677047 -0.143079 37 217 0
0.642788 0.0674805 -0.143924 42 212 0
0.637439 0.0652346 -0.145168 47 207 0
0.632421 0.0668099 -0.146875 53 201 0
0.627771 0.0702188 -0.148607 58 196 0
0.624346 0.0746003 -0.150522 63 191 0
0.625245 0.0802972 -0.151829 69 185 0
0.628723 0.0851004 -0.152582 74 180 0
0.631737 0.0897084 -0.152543 79 175 0
0.637659 0.0905007 -0.151965 85 169 0
0.643365 0.0894548 -0.150511 90 164 0
0.648007 0.0860924 -0.149145 95 159 0
0.650165 0.0808424 -0.147114 100 154 0
0.650809 0.0751825 -0.145517 106 148 0
0.648398 0.0699313 -0.144313 111 143 0
0.64411 0.0657356 -0.143929 116 138 0
0.639184 0.0622783 -0.144175 122 132 0
0.634395 0.0590783 -0.144658 127 127 0
0.628623 0.0601035 -0.145727 132 122 0
0.623563 0.0630102 -0.147064 138 116 0
0.619141 0.0668211 -0.148599 143 111 0
0.619191 0.0723835 -0.150516 148 106 0
0.620441 0.0780572 -0.151725 154 100 0
0.624335 0.0824877 -0.152496 159 95 0
0.630087 0.0842306 -0.152496 164 90 0
0.635921 0.0854636 -0.151657 170 84 0
0.639877 0.0814962 -0.150184 175 79 0
0.643766 0.0780222 -0.147912 180 74 0
0.64428 0.0724852 -0.145801 185 69 0
0.642362 0.067003 -0.144231 191 63 0
0.640775 0.0616686 -0.14277 196 58 0
0.636199 0.0581458 -0.141962 201 53 0
0.631154 0.054984 -0.141736 207 47 0
0.625462 0.0541789 -0.142554 212 42 0
0.619722 0.0547673 -0.143799 217 37 0
0.615334 0.0584213 -0.145718 223 31 0
0.613137 0.0628732 -0.148457 228 26 0
0.612327 0.0673902 -0.151904 233 21 0
0.613238 0.072476 -0.154604 239 15 0
0.61631 0.0769297 -0.15581 244 10 0
0.621296 0.0791554 -0.156255 249 5 0
0.626161 0.0801436 -0.155385 255 0 0
