ply
format ascii 1.0
comment Generated by robot_control PLYWriter
element vertex 13
property float x
property float y
property float z
property uchar red
property uchar green
property uchar blue
end_header
0.598017 0.0983419 -0.138975 0 255 0
0.597184 0.10296 -0.140757 21 233 0
0.59628 0.107738 -0.142013 42 212 0
0.595274 0.112524 -0.143163 63 191 0
0.594195 0.117354 -0.144035 85 169 0
0.593288 0.12225 -0.144716 106 148 0
0.59219 0.127127 -0.145237 127 127 0
0.591053 0.131998 -0.145729 148 106 0
0.589675 0.136793 -0.146327 170 84 0
0.588479 0.141559 -0.147356 191 63 0
0.587315 0.146175 -0.148946 212 42 0
0.586237 0.150789 -0.150613 233 21 0
0.584949 0.155179 -0.152684 255 0 0
