ply
format ascii 1.0
comment Generated by robot_control PLYWriter
element vertex 88
property float x
property float y
property float z
property uchar red
property uchar green
property uchar blue
end_header
0.581015 0.0133105 -0.0541256 0 255 0
0.584786 0.011317 -0.0525816 2 252 0
0.588182 0.00827105 -0.0514711 5 249 0
0.590448 0.00303578 -0.0500862 8 246 0
0.592685 -0.00191507 -0.04869 11 243 0
0.59247 -0.00755715 -0.0468842 14 240 0
0.590497 -0.012846 -0.0456627 17 237 0
0.587062 -0.0172444 -0.0446743 20 234 0
0.58298 -0.021558 -0.0444884 23 231 0
0.577186 -0.0221883 -0.0450388 26 228 0
0.571845 -0.0242205 -0.0458064 29 225 0
0.566673 -0.0215784 -0.0471828 32 222 0
0.563245 -0.0173238 -0.0491508 35 219 0
0.562426 -0.0119177 -0.0507561 38 216 0
0.561795 -0.00628823 -0.0522196 41 213 0
0.565595 -0.0017491 -0.0528925 43 211 0
0.56983 0.00230014 -0.05299 46 208 0
0.575467 0.00415513 -0.0524425 49 205 0
0.581102 0.00350769 -0.0513977 52 202 0
0.586071 0.000455659 -0.050002 55 199 0
0.590282 -0.00307521 -0.0477625 58 196 0
0.592214 -0.00836615 -0.0460961 61 193 0
0.592647 -0.0140772 -0.0443811 64 190 0
0.592659 -0.0198969 -0.0428836 67 187 0
0.59021 -0.0252673 -0.0419811 70 184 0
0.585857 -0.0292714 -0.0414761 73 181 0
0.580304 -0.031546 -0.0414401 76 178 0
0.574521 -0.0326333 -0.0419061 79 175 0
0.569102 -0.0306218 -0.0429296 82 172 0
0.564483 -0.0271886 -0.0444972 85 169 0
0.562762 -0.021945 -0.0462061 87 167 0
0.562694 -0.0160569 -0.0473913 90 164 0
0.565045 -0.0107828 -0.0483262 93 161 0
0.570243 -0.00778989 -0.0485023 96 158 0
0.575753 -0.0054904 -0.048025 99 155 0
0.581279 -0.00559009 -0.0470776 102 152 0
0.586588 -0.00799223 -0.0456192 105 149 0
0.589943 -0.0122873 -0.0439454 108 146 0
0.592371 -0.0175189 -0.0422511 111 143 0
0.59422 -0.0231197 -0.0411194 114 140 0
0.592783 -0.028394 -0.0397861 117 137 0
0.590581 -0.0339181 -0.038944 120 134 0
0.585778 -0.0373287 -0.0384663 123 131 0
0.580821 -0.040719 -0.0382659 126 128 0
0.575021 -0.042119 -0.0385816 128 126 0
0.569392 -0.040457 -0.0395697 131 123 0
0.564885 -0.0369318 -0.0412334 134 120 0
0.563237 -0.0315966 -0.0426307 137 117 0
0.56297 -0.0256857 -0.0436731 140 114 0
0.565883 -0.020725 -0.04445 143 111 0
0.570872 -0.0173937 -0.0444571 146 108 0
0.576355 -0.0151499 -0.044016 149 105 0
0.582099 -0.015552 -0.0431923 152 102 0
0.587595 -0.0174647 -0.0417778 155 99 0
0.591751 -0.0215254 -0.040485 158 96 0
0.594673 -0.0263607 -0.0387372 161 93 0
0.59469 -0.0322557 -0.0375604 164 90 0
0.594681 -0.0381589 -0.0364249 167 87 0
0.590608 -0.0424915 -0.0356192 170 84 0
0.587097 -0.0472191 -0.0350204 172 82 0
0.582227 -0.0505886 -0.0349565 175 79 0
0.576435 -0.0512178 -0.035466 178 76 0
0.571235 -0.0507657 -0.0365213 181 73 0
0.567017 -0.0466361 -0.0375355 184 70 0
0.563372 -0.0423622 -0.0390914 187 67 0
0.563367 -0.0367344 -0.0400559 190 64 0
0.565223 -0.0310688 -0.0406862 193 61 0
0.569677 -0.0273197 -0.0407979 196 58 0
0.574993 -0.0246887 -0.0403526 199 55 0
0.580955 -0.0245343 -0.0396268 202 52 0
0.586604 -0.0256772 -0.0385861 205 49 0
0.590776 -0.0294772 -0.036981 208 46 0
0.593268 -0.0347727 -0.0357365 211 43 0
0.594684 -0.0401593 -0.0343033 213 41 0
0.594689 -0.0460339 -0.0330811 216 38 0
0.593078 -0.0516468 -0.0325774 219 35 0
0.589973 -0.0567149 -0.0324529 222 32 0
0.584477 -0.0586135 -0.0326808 225 29 0
0.579281 -0.0606152 -0.0331766 228 26 0
0.573347 -0.0603712 -0.0340608 231 23 0
0.568041 -0.0585365 -0.0351426 234 20 0
0.56462 -0.0539136 -0.036404 237 17 0
0.562784 -0.0488287 -0.037682 240 14 0
0.56444 -0.0434857 -0.0385514 243 11 0
0.566707 -0.039995 -0.0390479 246 8 0
0.570368 -0.0362538 -0.039026 249 5 0
0.575382 -0.0348365 -0.038087 252 2 0
0.580328 -0.0341515 -0.0367389 255 0 0
