ply
format ascii 1.0
comment Generated by robot_control PLYWriter
element vertex 11
property float x
property float y
property float z
property uchar red
property uchar green
property uchar blue
end_header
0.658837 0.0524132 -0.0158835 0 255 0
0.658085 0.0567499 -0.0181275 25 229 0
0.657406 0.0611734 -0.0202287 51 204 0
0.656651 0.0656332 -0.0222333 76 178 0
0.656066 0.0701844 -0.0240674 102 153 0
0.655503 0.0748518 -0.0255815 127 127 0
0.65471 0.0796143 -0.0266342 153 101 0
0.65381 0.084435 -0.0272092 178 76 0
0.652715 0.0892544 -0.0272626 204 50 0
0.651947 0.094136 -0.0270701 229 25 0
0.651115 0.099 -0.026905 255 0 0
