ply
format ascii 1.0
comment Generated by robot_control PLYWriter
element vertex 9
property float x
property float y
property float z
property uchar red
property uchar green
property uchar blue
end_header
0.649719 0.0998899 -0.0263328 0 255 0
0.650823 0.0948118 -0.0268358 31 223 0
0.651975 0.0897415 -0.0274135 63 191 0
0.652926 0.0846012 -0.0272412 95 159 0
0.654082 0.0795342 -0.026652 127 127 0
0.655038 0.0745053 -0.0255882 159 95 0
0.656346 0.0696657 -0.0241022 191 63 0
0.657259 0.0649003 -0.0221461 223 31 0
0.658349 0.0603087 -0.0199108 255 0 0
