ply
format ascii 1.0
comment Generated by robot_control PLYWriter
element vertex 155
property float x
property float y
property float z
property uchar red
property uchar green
property uchar blue
end_header
0.684665 0.0712044 -0.106602 0 255 0
0.689041 0.0698486 -0.106635 1 253 0
0.693302 0.0665522 -0.106801 3 251 0
0.695189 0.0614479 -0.107221 4 250 0
0.696596 0.0563692 -0.107547 6 248 0
0.695729 0.0508401 -0.108 8 246 0
0.692346 0.0462201 -0.108096 9 245 0
0.688701 0.0436371 -0.107946 11 243 0
0.683706 0.0412136 -0.107664 13 241 0
0.67772 0.0411717 -0.107351 14 240 0
0.672311 0.0427451 -0.107099 16 238 0
0.667502 0.0462884 -0.106838 18 236 0
0.662796 0.0495059 -0.106662 19 235 0
0.661775 0.0551625 -0.106622 21 233 0
0.660353 0.0606953 -0.106691 23 231 0
0.660357 0.0666881 -0.106769 24 230 0
0.66301 0.0718227 -0.106803 26 228 0
0.666163 0.0769201 -0.106787 28 226 0
0.6713 0.0796771 -0.106801 29 225 0
0.677016 0.0812555 -0.106852 31 223 0
0.683001 0.0815793 -0.106864 33 221 0
0.688436 0.0801472 -0.106838 34 220 0
0.69231 0.0755914 -0.106852 36 218 0
0.694815 0.0706252 -0.106931 38 216 0
0.694817 0.0646305 -0.106994 39 215 0
0.693431 0.0589491 -0.10701 41 213 0
0.689324 0.0549159 -0.106987 43 211 0
0.684018 0.0521567 -0.106955 44 210 0
0.67823 0.0513935 -0.106917 46 208 0
0.672338 0.0518227 -0.106901 48 206 0
0.667278 0.0549231 -0.106874 49 205 0
0.66372 0.0596755 -0.106846 51 203 0
0.660702 0.0648546 -0.106835 52 202 0
0.659013 0.0705757 -0.106843 54 200 0
0.660021 0.0763915 -0.106862 56 198 0
0.662938 0.0815186 -0.106881 57 197 0
0.665351 0.086835 -0.106903 59 195 0
0.67036 0.0900897 -0.106943 61 193 0
0.676018 0.0915124 -0.106968 62 192 0
0.682013 0.0915138 -0.106963 64 190 0
0.687626 0.0898994 -0.106931 66 188 0
0.691517 0.0855791 -0.106846 67 187 0
0.694983 0.080886 -0.106765 69 185 0
0.694813 0.0748965 -0.106682 71 183 0
0.693507 0.0692614 -0.106631 72 182 0
0.689381 0.0650398 -0.106588 74 180 0
0.684071 0.0622746 -0.106588 76 178 0
0.678245 0.0615576 -0.106606 77 177 0
0.672337 0.0619234 -0.106624 79 175 0
0.666975 0.0646048 -0.106633 81 173 0
0.662597 0.0686399 -0.106652 82 172 0
0.660136 0.0740832 -0.106705 84 170 0
0.658796 0.0799122 -0.106784 86 168 0
0.658893 0.0859059 -0.106866 87 167 0
0.660509 0.0916507 -0.106933 89 165 0
0.664401 0.0962105 -0.106977 91 163 0
0.66912 0.0998074 -0.107019 92 162 0
0.67474 0.101895 -0.107024 94 160 0
0.680731 0.101915 -0.107005 96 158 0
0.685773 0.0988446 -0.106974 97 157 0
0.69073 0.0956017 -0.106944 99 155 0
0.693677 0.0905309 -0.106923 101 153 0
0.693393 0.0851327 -0.106898 102 152 0
0.691292 0.0795656 -0.10687 104 150 0
0.688101 0.074617 -0.106863 105 149 0
0.683038 0.0718092 -0.106867 107 147 0
0.677154 0.0713453 -0.106867 109 145 0
0.67127 0.0723422 -0.106874 110 144 0
0.665971 0.0748796 -0.106969 112 142 0
0.661931 0.0792798 -0.107102 114 140 0
0.658774 0.0843235 -0.107248 115 139 0
0.657189 0.0899429 -0.107416 117 137 0
0.657744 0.095857 -0.107595 119 135 0
0.659858 0.101426 -0.107731 120 134 0
0.663207 0.106284 -0.107801 122 132 0
0.668166 0.109602 -0.10784 124 130 0
0.673778 0.111494 -0.107843 125 129 0
0.679773 0.111499 -0.107836 127 127 0
0.685173 0.109825 -0.107821 129 125 0
0.689551 0.105784 -0.107745 130 124 0
0.692105 0.100447 -0.107555 132 122 0
0.692409 0.0945037 -0.107393 134 120 0
0.689413 0.0894161 -0.107241 135 119 0
0.686706 0.0840722 -0.107091 137 117 0
0.68125 0.0816507 -0.107007 139 115 0
0.675289 0.0811205 -0.107054 140 114 0
0.66965 0.0830178 -0.107214 142 112 0
0.664588 0.0861519 -0.107536 144 110 0
0.660189 0.090215 -0.107788 145 109 0
0.657672 0.0954331 -0.108132 147 107 0
0.656757 0.10133 -0.108454 149 105 0
0.656603 0.107303 -0.108749 150 104 0
0.658719 0.11269 -0.108947 152 102 0
0.662527 0.117216 -0.109084 153 101 0
0.667413 0.120678 -0.109198 155 99 0
0.672746 0.122066 -0.109287 157 97 0
0.678656 0.121511 -0.109276 158 96 0
0.684407 0.120176 -0.109108 160 94 0
0.688125 0.115969 -0.108803 162 92 0
0.690967 0.110897 -0.108376 163 91 0
0.690696 0.104972 -0.108034 165 89 0
0.688051 0.0996081 -0.107631 167 87 0
0.684297 0.095118 -0.107394 168 86 0
0.678984 0.0924841 -0.107369 170 84 0
0.673167 0.0915122 -0.107482 172 82 0
0.667698 0.0933766 -0.107779 173 81 0
0.662956 0.0970034 -0.108225 175 79 0
0.65908 0.101543 -0.108736 177 77 0
0.656761 0.107023 -0.109281 178 76 0
0.654604 0.112595 -0.109768 180 74 0
0.656249 0.118122 -0.110203 182 72 0
0.658773 0.123524 -0.110781 183 71 0
0.662215 0.128292 -0.111171 185 69 0
0.667156 0.131661 -0.111348 187 67 0
0.672856 0.133251 -0.111307 188 66 0
0.678495 0.132449 -0.111105 190 64 0
0.683735 0.129634 -0.110734 192 62 0
0.68837 0.125961 -0.110249 193 61 0
0.691092 0.120869 -0.109593 195 59 0
0.689905 0.115264 -0.108993 197 57 0
0.688563 0.109743 -0.108382 198 56 0
0.684476 0.105467 -0.108086 200 54 0
0.679139 0.102816 -0.10805 202 52 0
0.673291 0.101917 -0.108208 203 51 0
0.667544 0.103191 -0.108513 205 49 0
0.66206 0.105534 -0.109005 206 48 0
0.658568 0.110359 -0.109649 208 46 0
0.655468 0.115434 -0.110409 210 44 0
0.654391 0.121028 -0.111317 211 43 0
0.654568 0.126995 -0.111865 213 41 0
0.656735 0.132492 -0.112498 215 39 0
0.660617 0.13701 -0.113026 216 38 0
0.665382 0.140621 -0.113303 218 36 0
0.670919 0.142766 -0.11328 220 34 0
0.676752 0.143033 -0.113034 221 33 0
0.682027 0.141237 -0.112537 223 31 0
0.686027 0.137382 -0.111821 225 29 0
0.689176 0.132457 -0.111047 226 28 0
0.690314 0.126852 -0.11041 228 26 0
0.688264 0.121428 -0.109802 230 24 0
0.683726 0.117553 -0.109406 231 23 0
0.678768 0.114192 -0.109191 233 21 0
0.673495 0.112322 -0.109299 235 19 0
0.668797 0.113818 -0.109595 236 18 0
0.66322 0.115144 -0.110197 238 16 0
0.658165 0.118215 -0.110839 240 14 0
0.655438 0.123114 -0.111736 241 13 0
0.653266 0.127445 -0.11263 243 11 0
0.653049 0.133088 -0.113389 245 9 0
0.653928 0.138766 -0.114141 246 8 0
0.656147 0.143081 -0.114844 248 6 0
0.658895 0.147053 -0.115259 250 4 0
0.662602 0.149727 -0.11558 251 3 0
0.666182 0.152161 -0.11568 253 1 0
0.671076 0.153819 -0.115503 255 0 0
