ply
format ascii 1.0
comment Generated by robot_control PLYWriter
element vertex 12
property float x
property float y
property float z
property uchar red
property uchar green
property uchar blue
end_header
0.636623 -0.118529 -0.109945 0 255 0
0.636188 -0.123381 -0.110883 23 231 0
0.635933 -0.128266 -0.111713 46 208 0
0.635675 -0.133158 -0.112499 69 185 0
0.635411 -0.138057 -0.113236 92 162 0
0.63514 -0.142963 -0.113925 115 139 0
0.634891 -0.147874 -0.114582 139 115 0
0.63481 -0.152806 -0.115118 162 92 0
0.634731 -0.157748 -0.115544 185 69 0
0.634652 -0.162697 -0.115887 208 46 0
0.63464 -0.167646 -0.116232 231 23 0
0.634652 -0.172596 -0.116572 255 0 0
