ply
format ascii 1.0
comment Generated by robot_control PLYWriter
element vertex 49
property float x
property float y
property float z
property uchar red
property uchar green
property uchar blue
end_header
0.741951 0.142872 -0.146586 0 255 0
0.746629 0.139364 -0.146643 5 249 0
0.750318 0.135984 -0.146039 10 244 0
0.754375 0.132196 -0.144953 15 239 0
0.754232 0.126573 -0.143033 21 233 0
0.753398 0.120927 -0.141362 26 228 0
0.749494 0.117639 -0.139641 31 223 0
0.744154 0.115446 -0.138949 37 217 0
0.738548 0.117096 -0.138839 42 212 0
0.733555 0.120125 -0.139291 47 207 0
0.730519 0.125215 -0.140317 53 201 0
0.729504 0.130464 -0.141564 58 196 0
0.730584 0.1361 -0.14298 63 191 0
0.733693 0.139729 -0.144782 69 185 0
0.73794 0.143321 -0.146877 74 180 0
0.742861 0.145992 -0.148073 79 175 0
0.748727 0.145282 -0.148978 85 169 0
0.754548 0.143815 -0.149341 90 164 0
0.759039 0.140254 -0.149182 95 159 0
0.763084 0.135875 -0.14865 100 154 0
0.764263 0.130069 -0.14781 106 148 0
0.762331 0.124623 -0.146509 111 143 0
0.757796 0.121029 -0.14493 116 138 0
0.752133 0.12002 -0.143514 122 132 0
0.746362 0.12082 -0.142764 127 127 0
0.741912 0.124693 -0.142804 132 122 0
0.738155 0.129111 -0.143749 138 116 0
0.73845 0.134922 -0.145326 143 111 0
0.739856 0.140454 -0.147197 148 106 0
0.742417 0.145418 -0.149421 154 100 0
0.747438 0.147618 -0.151232 159 95 0
0.752866 0.149544 -0.153017 164 90 0
0.758438 0.148451 -0.154499 170 84 0
0.763705 0.145961 -0.155609 175 79 0
0.767977 0.141712 -0.155902 180 74 0
0.771531 0.136937 -0.155236 185 69 0
0.771733 0.131577 -0.153672 191 63 0
0.76921 0.126923 -0.151132 196 58 0
0.7647 0.12394 -0.149001 201 53 0
0.759363 0.122875 -0.146541 207 47 0
0.754194 0.124466 -0.14499 212 42 0
0.749998 0.128553 -0.144594 217 37 0
0.747001 0.133499 -0.145681 223 31 0
0.746216 0.138951 -0.147427 228 26 0
0.748476 0.143677 -0.149892 233 21 0
0.751007 0.146916 -0.153182 239 15 0
0.754386 0.149758 -0.156146 244 10 0
0.757669 0.152494 -0.158642 249 5 0
0.761397 0.151175 -0.161087 255 0 0
