ply
format ascii 1.0
comment Generated by robot_control PLYWriter
element vertex 200
property float x
property float y
property float z
property uchar red
property uchar green
property uchar blue
end_header
0.595164 -0.256474 -0.138795 0 255 0
0.595164 -0.256474 -0.138795 1 253 0
0.595164 -0.256474 -0.138795 2 252 0
0.595164 -0.256474 -0.138795 3 251 0
0.595164 -0.256474 -0.138795 5 249 0
0.595164 -0.256474 -0.138795 6 248 0
0.595164 -0.256474 -0.138795 7 247 0
0.595164 -0.256474 -0.138795 8 246 0
0.595164 -0.256474 -0.138795 10 244 0
0.595164 -0.256474 -0.138795 11 243 0
0.595164 -0.256474 -0.138795 12 242 0
0.595164 -0.256474 -0.138795 14 240 0
0.595164 -0.256474 -0.138795 15 239 0
0.595164 -0.256474 -0.138795 16 238 0
0.595164 -0.256474 -0.138795 17 237 0
0.595164 -0.256474 -0.138795 19 235 0
0.595164 -0.256474 -0.138795 20 234 0
0.595164 -0.256474 -0.138795 21 233 0
0.595164 -0.256474 -0.138795 23 231 0
0.595164 -0.256474 -0.138795 24 230 0
0.595164 -0.256474 -0.138795 25 229 0
0.595164 -0.256474 -0.138795 26 228 0
0.595164 -0.256474 -0.138795 28 226 0
0.595164 -0.256474 -0.138795 29 225 0
0.595164 -0.256474 -0.138795 30 224 0
0.595164 -0.256474 -0.138795 32 222 0
0.595164 -0.256474 -0.138795 33 221 0
0.595164 -0.256474 -0.138795 34 220 0
0.595164 -0.256474 -0.138795 35 219 0
0.595164 -0.256474 -0.138795 37 217 0
0.595164 -0.256474 -0.138795 38 216 0
0.595164 -0.256474 -0.138795 39 215 0
0.595164 -0.256474 -0.138795 41 213 0
0.595164 -0.256474 -0.138795 42 212 0
0.595164 -0.256474 -0.138795 43 211 0
0.595164 -0.256474 -0.138795 44 210 0
0.595164 -0.256474 -0.138795 46 208 0
0.595164 -0.256474 -0.138795 47 207 0
0.595164 -0.256474 -0.138795 48 206 0
0.595164 -0.256474 -0.138795 49 205 0
0.595164 -0.256474 -0.138795 51 203 0
0.595164 -0.256474 -0.138795 52 202 0
0.595164 -0.256474 -0.138795 53 201 0
0.595164 -0.256474 -0.138795 55 199 0
0.595164 -0.256474 -0.138795 56 198 0
0.595164 -0.256474 -0.138795 57 197 0
0.595164 -0.256474 -0.138795 58 196 0
0.595164 -0.256474 -0.138795 60 194 0
0.595164 -0.256474 -0.138795 61 193 0
0.595164 -0.256474 -0.138795 62 192 0
0.595164 -0.256474 -0.138795 64 190 0
0.595164 -0.256474 -0.138795 65 189 0
0.595164 -0.256474 -0.138795 66 188 0
0.595164 -0.256474 -0.138795 67 187 0
0.595164 -0.256474 -0.138795 69 185 0
0.595164 -0.256474 -0.138795 70 184 0
0.595164 -0.256474 -0.138795 71 183 0
0.595164 -0.256474 -0.138795 73 181 0
0.595164 -0.256474 -0.138795 74 180 0
0.595164 -0.256474 -0.138795 75 179 0
0.595164 -0.256474 -0.138795 76 178 0
0.595164 -0.256474 -0.138795 78 176 0
0.595164 -0.256474 -0.138795 79 175 0
0.595164 -0.256474 -0.138795 80 174 0
0.595164 -0.256474 -0.138795 82 172 0
0.595164 -0.256474 -0.138795 83 171 0
0.595164 -0.256474 -0.138795 84 170 0
0.595164 -0.256474 -0.138795 85 169 0
0.595164 -0.256474 -0.138795 87 167 0
0.595164 -0.256474 -0.138795 88 166 0
0.595164 -0.256474 -0.138795 89 165 0
0.595164 -0.256474 -0.138795 90 164 0
0.595164 -0.256474 -0.138795 92 162 0
0.595164 -0.256474 -0.138795 93 161 0
0.595164 -0.256474 -0.138795 94 160 0
0.595164 -0.256474 -0.138795 96 158 0
0.595164 -0.256474 -0.138795 97 157 0
0.595164 -0.256474 -0.138795 98 156 0
0.595164 -0.256474 -0.138795 99 155 0
0.595164 -0.256474 -0.138795 101 153 0
0.595164 -0.256474 -0.138795 102 152 0
0.595164 -0.256474 -0.138795 103 151 0
0.595164 -0.256474 -0.138795 105 149 0
0.595164 -0.256474 -0.138795 106 148 0
0.595164 -0.256474 -0.138795 107 147 0
0.595164 -0.256474 -0.138795 108 146 0
0.595164 -0.256474 -0.138795 110 144 0
0.595164 -0.256474 -0.138795 111 143 0
0.595164 -0.256474 -0.138795 112 142 0
0.595164 -0.256474 -0.138795 114 140 0
0.595164 -0.256474 -0.138795 115 139 0
0.595164 -0.256474 -0.138795 116 138 0
0.595164 -0.256474 -0.138795 117 137 0
0.595164 -0.256474 -0.138795 119 135 0
0.595164 -0.256474 -0.138795 120 134 0
0.595164 -0.256474 -0.138795 121 133 0
0.595164 -0.256474 -0.138795 123 131 0
0.595164 -0.256474 -0.138795 124 130 0
0.595164 -0.256474 -0.138795 125 129 0
0.595164 -0.256474 -0.138795 126 128 0
0.595164 -0.256474 -0.138795 128 126 0
0.595164 -0.256474 -0.138795 129 125 0
0.595164 -0.256474 -0.138795 130 124 0
0.595164 -0.256474 -0.138795 131 123 0
0.595164 -0.256474 -0.138795 133 121 0
0.595164 -0.256474 -0.138795 134 120 0
0.595164 -0.256474 -0.138795 135 119 0
0.595164 -0.256474 -0.138795 137 117 0
0.595164 -0.256474 -0.138795 138 116 0
0.595164 -0.256474 -0.138795 139 115 0
0.595164 -0.256474 -0.138795 140 114 0
0.595164 -0.256474 -0.138795 142 112 0
0.595164 -0.256474 -0.138795 143 111 0
0.595164 -0.256474 -0.138795 144 110 0
0.595164 -0.256474 -0.138795 146 108 0
0.595164 -0.256474 -0.138795 147 107 0
0.595164 -0.256474 -0.138795 148 106 0
0.595164 -0.256474 -0.138795 149 105 0
0.595164 -0.256474 -0.138795 151 103 0
0.595164 -0.256474 -0.138795 152 102 0
0.595164 -0.256474 -0.138795 153 101 0
0.595164 -0.256474 -0.138795 155 99 0
0.595164 -0.256474 -0.138795 156 98 0
0.595164 -0.256474 -0.138795 157 97 0
0.595164 -0.256474 -0.138795 158 96 0
0.595164 -0.256474 -0.138795 160 94 0
0.595164 -0.256474 -0.138795 161 93 0
0.595164 -0.256474 -0.138795 162 92 0
0.595164 -0.256474 -0.138795 164 90 0
0.595164 -0.256474 -0.138795 165 89 0
0.595164 -0.256474 -0.138795 166 88 0
0.595164 -0.256474 -0.138795 167 87 0
0.595164 -0.256474 -0.138795 169 85 0
0.595164 -0.256474 -0.138795 170 84 0
0.595164 -0.256474 -0.138795 171 83 0
0.595164 -0.256474 -0.138795 172 82 0
0.595164 -0.256474 -0.138795 174 80 0
0.595164 -0.256474 -0.138795 175 79 0
0.595164 -0.256474 -0.138795 176 78 0
0.595164 -0.256474 -0.138795 178 76 0
0.595164 -0.256474 -0.138795 179 75 0
0.595164 -0.256474 -0.138795 180 74 0
0.595164 -0.256474 -0.138795 181 73 0
0.595164 -0.256474 -0.138795 183 71 0
0.595164 -0.256474 -0.138795 184 70 0
0.595164 -0.256474 -0.138795 185 69 0
0.595164 -0.256474 -0.138795 187 67 0
0.595164 -0.256474 -0.138795 188 66 0
0.595164 -0.256474 -0.138795 189 65 0
0.595164 -0.256474 -0.138795 190 64 0
0.595164 -0.256474 -0.138795 192 62 0
0.595164 -0.256474 -0.138795 193 61 0
0.595164 -0.256474 -0.138795 194 60 0
0.595164 -0.256474 -0.138795 196 58 0
0.595164 -0.256474 -0.138795 197 57 0
0.595164 -0.256474 -0.138795 198 56 0
0.595164 -0.256474 -0.138795 199 55 0
0.595164 -0.256474 -0.138795 201 53 0
0.595164 -0.256474 -0.138795 202 52 0
0.595164 -0.256474 -0.138795 203 51 0
0.595164 -0.256474 -0.138795 205 49 0
0.595164 -0.256474 -0.138795 206 48 0
0.595164 -0.256474 -0.138795 207 47 0
0.595164 -0.256474 -0.138795 208 46 0
0.595164 -0.256474 -0.138795 210 44 0
0.595164 -0.256474 -0.138795 211 43 0
0.595164 -0.256474 -0.138795 212 42 0
0.595164 -0.256474 -0.138795 213 41 0
0.595164 -0.256474 -0.138795 215 39 0
0.595164 -0.256474 -0.138795 216 38 0
0.595164 -0.256474 -0.138795 217 37 0
0.595164 -0.256474 -0.138795 219 35 0
0.595164 -0.256474 -0.138795 220 34 0
0.595164 -0.256474 -0.138795 221 33 0
0.595164 -0.256474 -0.138795 222 32 0
0.595164 -0.256474 -0.138795 224 30 0
0.595164 -0.256474 -0.138795 225 29 0
0.595164 -0.256474 -0.138795 226 28 0
0.595164 -0.256474 -0.138795 228 26 0
0.595164 -0.256474 -0.138795 229 25 0
0.595164 -0.256474 -0.138795 230 24 0
0.595164 -0.256474 -0.138795 231 23 0
0.595164 -0.256474 -0.138795 233 21 0
0.595164 -0.256474 -0.138795 234 20 0
0.595164 -0.256474 -0.138795 235 19 0
0.595164 -0.256474 -0.138795 237 17 0
0.595164 -0.256474 -0.138795 238 16 0
0.595164 -0.256474 -0.138795 239 15 0
0.595164 -0.256474 -0.138795 240 14 0
0.595164 -0.256474 -0.138795 242 12 0
0.595164 -0.256474 -0.138795 243 11 0
0.595164 -0.256474 -0.138795 244 10 0
0.595164 -0.256474 -0.138795 246 8 0
0.595164 -0.256474 -0.138795 247 7 0
0.595164 -0.256474 -0.138795 248 6 0
0.595164 -0.256474 -0.138795 249 5 0
0.595164 -0.256474 -0.138795 251 3 0
0.595164 -0.256474 -0.138795 252 2 0
0.595164 -0.256474 -0.138795 253 1 0
0.595164 -0.256474 -0.138795 255 0 0
