ply
format ascii 1.0
comment Generated by robot_control PLYWriter
element vertex 48
property float x
property float y
property float z
property uchar red
property uchar green
property uchar blue
end_header
0.608613 -0.146331 -0.117025 0 255 0
0.612672 -0.149457 -0.116568 5 249 0
0.614361 -0.154714 -0.11649 10 244 0
0.612805 -0.160088 -0.116779 16 238 0
0.608167 -0.162611 -0.1176 21 233 0
0.602289 -0.161892 -0.118248 27 227 0
0.597987 -0.159171 -0.118838 32 222 0
0.595883 -0.153789 -0.119133 37 217 0
0.594886 -0.148088 -0.118985 43 211 0
0.596578 -0.142455 -0.11854 48 206 0
0.601113 -0.138716 -0.11773 54 200 0
0.606432 -0.136619 -0.116934 59 195 0
0.612385 -0.136614 -0.116313 65 189 0
0.616763 -0.13991 -0.116007 70 184 0
0.617104 -0.145652 -0.115993 75 179 0
0.615758 -0.151059 -0.116397 81 173 0
0.610115 -0.152049 -0.117034 86 168 0
0.604441 -0.150418 -0.11746 92 162 0
0.600533 -0.14714 -0.117531 97 157 0
0.598123 -0.141824 -0.11727 103 151 0
0.599127 -0.136016 -0.116822 108 146 0
0.601609 -0.130627 -0.11627 113 141 0
0.60616 -0.126922 -0.115704 119 135 0
0.611902 -0.12598 -0.114923 124 130 0
0.616751 -0.128532 -0.1144 130 124 0
0.620197 -0.133337 -0.114349 135 119 0
0.619244 -0.138754 -0.114869 141 113 0
0.614396 -0.142186 -0.115602 146 108 0
0.608919 -0.140705 -0.116082 151 103 0
0.603893 -0.137848 -0.116073 157 97 0
0.601319 -0.13258 -0.115636 162 92 0
0.600569 -0.126676 -0.115052 168 86 0
0.603705 -0.121855 -0.11428 173 81 0
0.607497 -0.117308 -0.113436 179 75 0
0.612893 -0.116337 -0.112193 184 70 0
0.618838 -0.116335 -0.111481 189 65 0
0.623175 -0.119752 -0.11141 195 59 0
0.624264 -0.125032 -0.111822 200 54 0
0.622285 -0.1302 -0.112699 206 48 0
0.617302 -0.132064 -0.113509 211 43 0
0.612034 -0.131862 -0.114279 217 37 0
0.608573 -0.128582 -0.114486 222 32 0
0.604694 -0.124103 -0.114282 227 27 0
0.604428 -0.118172 -0.113473 233 21 0
0.606206 -0.112967 -0.112523 238 16 0
0.608587 -0.109813 -0.111423 244 10 0
0.610994 -0.106555 -0.1104 249 5 0
0.614941 -0.104947 -0.10955 255 0 0
