ply
format ascii 1.0
comment Generated by robot_control PLYWriter
element vertex 12
property float x
property float y
property float z
property uchar red
property uchar green
property uchar blue
end_header
0.539344 -0.400219 -0.103925 0 255 0
0.538408 -0.405315 -0.103503 23 231 0
0.537546 -0.410445 -0.103397 46 208 0
0.536759 -0.415585 -0.103364 69 185 0
0.536065 -0.420733 -0.103648 92 162 0
0.535215 -0.425837 -0.104179 115 139 0
0.53444 -0.430946 -0.104759 139 115 0
0.533754 -0.436081 -0.105244 162 92 0
0.533003 -0.441219 -0.105564 185 69 0
0.532447 -0.446388 -0.10556 208 46 0
0.53191 -0.451561 -0.10548 231 23 0
0.531311 -0.456706 -0.105102 255 0 0
