ply
format ascii 1.0
comment Generated by robot_control PLYWriter
element vertex 129
property float x
property float y
property float z
property uchar red
property uchar green
property uchar blue
end_header
0.638138 0.183214 -0.138238 0 255 0
0.642097 0.181213 -0.137364 1 253 0
0.644954 0.177115 -0.136292 3 251 0
0.64672 0.172217 -0.134803 5 249 0
0.648288 0.16817 -0.133077 7 247 0
0.646504 0.163153 -0.131467 9 245 0
0.64462 0.157941 -0.129954 11 243 0
0.640558 0.154847 -0.128477 13 241 0
0.635515 0.152732 -0.127694 15 239 0
0.63086 0.152551 -0.127543 17 237 0
0.625383 0.15402 -0.128055 19 235 0
0.620574 0.156898 -0.129364 21 233 0
0.618227 0.161592 -0.130728 23 231 0
0.618314 0.167183 -0.132817 25 229 0
0.621718 0.171938 -0.133861 27 227 0
0.626498 0.174488 -0.134584 29 225 0
0.632054 0.176236 -0.134705 31 223 0
0.637659 0.17429 -0.134361 33 221 0
0.642474 0.170994 -0.133454 35 219 0
0.646114 0.166858 -0.131961 37 217 0
0.648301 0.161556 -0.130318 39 215 0
0.648671 0.155948 -0.128457 41 213 0
0.645811 0.151076 -0.126883 43 211 0
0.643027 0.146128 -0.12521 45 209 0
0.637917 0.14368 -0.124221 47 207 0
0.632096 0.14298 -0.123837 49 205 0
0.626409 0.143094 -0.124049 51 203 0
0.622628 0.147641 -0.12493 53 201 0
0.619164 0.15133 -0.126354 55 199 0
0.620566 0.15668 -0.128128 57 197 0
0.621607 0.161974 -0.129372 59 195 0
0.626769 0.164827 -0.130297 61 193 0
0.632433 0.165789 -0.130755 63 191 0
0.638401 0.165747 -0.130482 65 189 0
0.64273 0.162802 -0.129532 67 187 0
0.646706 0.158669 -0.128038 69 185 0
0.648847 0.153386 -0.126559 71 183 0
0.649204 0.147648 -0.124998 73 181 0
0.647734 0.142184 -0.123328 75 179 0
0.644817 0.137196 -0.121866 77 177 0
0.639579 0.134867 -0.120589 79 175 0
0.634056 0.13342 -0.120009 81 173 0
0.62823 0.134552 -0.120019 83 171 0
0.623149 0.137386 -0.120866 85 169 0
0.621033 0.142273 -0.121971 87 167 0
0.621659 0.147824 -0.123687 89 165 0
0.624219 0.153096 -0.124849 91 163 0
0.628957 0.156463 -0.125412 93 161 0
0.634684 0.157338 -0.125751 95 159 0
0.640203 0.15609 -0.12533 97 157 0
0.644532 0.152039 -0.124645 99 155 0
0.648064 0.147396 -0.123568 101 153 0
0.650109 0.142023 -0.12207 103 151 0
0.650309 0.136277 -0.120601 105 149 0
0.648289 0.130968 -0.118993 107 147 0
0.643891 0.127324 -0.117783 109 145 0
0.638355 0.125295 -0.117001 111 143 0
0.632784 0.123715 -0.11664 113 141 0
0.627406 0.125716 -0.116878 115 139 0
0.623648 0.130239 -0.117602 117 137 0
0.621295 0.135607 -0.118779 119 135 0
0.622352 0.141206 -0.119732 121 133 0
0.626297 0.145461 -0.120581 123 131 0
0.631968 0.146853 -0.121129 125 129 0
0.6379 0.147568 -0.121142 127 127 0
0.643529 0.145798 -0.120828 129 125 0
0.647011 0.141138 -0.120191 131 123 0
0.650686 0.136621 -0.119078 133 121 0
0.652622 0.131097 -0.118061 135 119 0
0.652044 0.12537 -0.116775 137 117 0
0.648761 0.120858 -0.115509 139 115 0
0.644604 0.11684 -0.114557 141 113 0
0.639646 0.11491 -0.114029 143 111 0
0.633675 0.114931 -0.113743 145 109 0
0.628367 0.117429 -0.113885 147 107 0
0.623734 0.120951 -0.114462 149 105 0
0.622354 0.126418 -0.115385 151 103 0
0.62443 0.131879 -0.116289 153 101 0
0.628239 0.136352 -0.117088 155 99 0
0.633783 0.138305 -0.117474 157 97 0
0.63967 0.138662 -0.117489 159 95 0
0.645046 0.136249 -0.117209 161 93 0
0.648708 0.131596 -0.116438 163 91 0
0.651753 0.12652 -0.115674 165 89 0
0.653077 0.120973 -0.114676 167 87 0
0.652859 0.115165 -0.113441 169 85 0
0.649121 0.110557 -0.112706 171 83 0
0.644511 0.107066 -0.111831 173 81 0
0.638791 0.105664 -0.111357 175 79 0
0.632819 0.105653 -0.111126 177 77 0
0.628017 0.10901 -0.111357 179 75 0
0.624645 0.113788 -0.112141 181 73 0
0.624672 0.119701 -0.113023 183 71 0
0.62745 0.1244 -0.113859 185 69 0
0.631127 0.127829 -0.114351 187 67 0
0.636738 0.129673 -0.114568 189 65 0
0.642326 0.127857 -0.114556 191 63 0
0.647144 0.12443 -0.11406 193 61 0
0.650575 0.119639 -0.113311 195 59 0
0.653572 0.114705 -0.112275 197 57 0
0.653471 0.109119 -0.111359 199 55 0
0.652555 0.103356 -0.110384 201 53 0
0.648014 0.0998655 -0.109636 203 51 0
0.643826 0.0962513 -0.10901 205 49 0
0.637931 0.0958598 -0.108657 207 47 0
0.632151 0.096894 -0.108747 209 45 0
0.627475 0.100454 -0.109285 211 43 0
0.62452 0.10512 -0.109998 213 41 0
0.625108 0.110873 -0.110824 215 39 0
0.62801 0.115615 -0.11171 217 37 0
0.632658 0.119332 -0.112202 219 35 0
0.638208 0.119598 -0.112462 221 33 0
0.643875 0.118838 -0.11237 223 31 0
0.648828 0.116094 -0.111798 225 29 0
0.652299 0.111298 -0.111223 227 27 0
0.654307 0.105906 -0.110386 229 25 0
0.654195 0.100075 -0.109179 231 23 0
0.653172 0.0944743 -0.108151 233 21 0
0.649757 0.089669 -0.107349 235 19 0
0.644491 0.087562 -0.106859 237 17 0
0.639078 0.0855464 -0.106714 239 15 0
0.633873 0.0868922 -0.106867 241 13 0
0.629632 0.089895 -0.107327 243 11 0
0.626665 0.0936767 -0.107917 245 9 0
0.625306 0.0984142 -0.108608 247 7 0
0.62689 0.10336 -0.109328 249 5 0
0.630001 0.107878 -0.110204 251 3 0
0.635026 0.109761 -0.110775 253 1 0
0.640793 0.110311 -0.110982 255 0 0
