ply
format ascii 1.0
comment Generated by robot_control PLYWriter
element vertex 9
property float x
property float y
property float z
property uchar red
property uchar green
property uchar blue
end_header
0.604459 -0.16041 -0.111325 0 255 0
0.603924 -0.155557 -0.112304 31 223 0
0.603641 -0.150696 -0.113353 63 191 0
0.603385 -0.14587 -0.11456 95 159 0
0.602983 -0.141061 -0.115787 127 127 0
0.602589 -0.136231 -0.11693 159 95 0
0.60227 -0.131363 -0.117929 191 63 0
0.601833 -0.126481 -0.118814 223 31 0
0.601154 -0.121615 -0.119543 255 0 0
