ply
format ascii 1.0
comment Generated by robot_control PLYWriter
element vertex 11
property float x
property float y
property float z
property uchar red
property uchar green
property uchar blue
end_header
0.664575 -0.069053 -0.039259 0 255 0
0.664596 -0.0643402 -0.0375934 25 229 0
0.664568 -0.0594983 -0.0363563 51 204 0
0.664508 -0.054613 -0.0352987 76 178 0
0.664513 -0.0496677 -0.0346502 102 153 0
0.664534 -0.0446874 -0.0346978 127 127 0
0.664491 -0.0397318 -0.0353415 153 101 0
0.664478 -0.0348072 -0.0362041 178 76 0
0.664487 -0.0298822 -0.0370549 204 50 0
0.664589 -0.0249164 -0.0376203 229 25 0
0.664604 -0.0199445 -0.0378925 255 0 0
