ply
format ascii 1.0
comment Generated by robot_control PLYWriter
element vertex 40
property float x
property float y
property float z
property uchar red
property uchar green
property uchar blue
end_header
0.533135 0.209687 -0.159607 0 255 0
0.537801 0.208887 -0.156814 6 248 0
0.540472 0.205156 -0.154591 13 241 0
0.540585 0.200464 -0.151886 19 235 0
0.538683 0.195626 -0.150552 26 228 0
0.533988 0.192782 -0.151087 32 222 0
0.528989 0.192267 -0.153299 39 215 0
0.524186 0.194392 -0.155476 45 209 0
0.522864 0.19951 -0.157896 52 202 0
0.522478 0.205094 -0.159912 58 196 0
0.524922 0.210103 -0.16151 65 189 0
0.528572 0.214699 -0.162167 71 183 0
0.533678 0.217131 -0.161908 78 176 0
0.539306 0.218 -0.160884 85 169 0
0.543917 0.215869 -0.159205 91 163 0
0.548115 0.212753 -0.157411 98 156 0
0.549024 0.207378 -0.155329 104 150 0
0.546756 0.202154 -0.154307 111 143 0
0.54143 0.200457 -0.154165 117 137 0
0.535696 0.199198 -0.154919 124 130 0
0.531793 0.202838 -0.157039 130 124 0
0.529469 0.207536 -0.159564 137 117 0
0.529981 0.212953 -0.161311 143 111 0
0.532288 0.218202 -0.16289 150 104 0
0.53643 0.222136 -0.16392 156 98 0
0.541539 0.224725 -0.164192 163 91 0
0.54738 0.224604 -0.163445 170 84 0
0.552972 0.223276 -0.162051 176 78 0
0.55571 0.219403 -0.159855 183 71 0
0.556413 0.214667 -0.157596 189 65 0
0.553907 0.209691 -0.155842 196 58 0
0.548592 0.208261 -0.155551 202 52 0
0.543697 0.207366 -0.156917 209 45 0
0.539859 0.211152 -0.158709 215 39 0
0.536265 0.214794 -0.161039 222 32 0
0.537087 0.218963 -0.164401 228 26 0
0.538573 0.223544 -0.166731 235 19 0
0.541291 0.227737 -0.168116 241 13 0
0.54576 0.230329 -0.1693 248 6 0
0.550757 0.231487 -0.168988 255 0 0
