ply
format ascii 1.0
comment Generated by robot_control PLYWriter
element vertex 99
property float x
property float y
property float z
property uchar red
property uchar green
property uchar blue
end_header
0.724418 0.0433612 -0.114284 0 255 0
0.72953 0.0410157 -0.114023 2 252 0
0.73205 0.0367565 -0.113478 5 249 0
0.734595 0.0316759 -0.112978 7 247 0
0.732051 0.0271095 -0.112152 10 244 0
0.729356 0.0223243 -0.111089 13 241 0
0.725428 0.0197093 -0.110297 15 239 0
0.719798 0.018841 -0.109872 18 236 0
0.714173 0.0202762 -0.109775 20 234 0
0.709261 0.0228987 -0.11006 23 231 0
0.706219 0.0279259 -0.110573 26 228 0
0.703785 0.0327019 -0.111536 28 226 0
0.702984 0.0383816 -0.112336 31 223 0
0.704682 0.0440397 -0.113074 33 221 0
0.707904 0.0488899 -0.11411 36 218 0
0.712866 0.0520158 -0.114871 39 215 0
0.718626 0.0529134 -0.115343 41 213 0
0.724603 0.0528085 -0.115399 44 210 0
0.729637 0.0498813 -0.115174 46 208 0
0.730927 0.0444501 -0.114695 49 205 0
0.732257 0.0389575 -0.11404 52 202 0
0.730334 0.0334157 -0.113383 54 200 0
0.725482 0.030075 -0.112697 57 197 0
0.719846 0.0293144 -0.112384 59 195 0
0.714017 0.0302507 -0.112284 62 192 0
0.708575 0.0326571 -0.112357 65 189 0
0.704688 0.0369879 -0.112578 67 187 0
0.702587 0.0425496 -0.113031 70 184 0
0.701655 0.0479195 -0.113579 72 182 0
0.703187 0.0535557 -0.114251 75 179 0
0.705916 0.0583502 -0.115057 78 176 0
0.710097 0.0625879 -0.11563 80 174 0
0.715683 0.0633775 -0.116153 83 171 0
0.721606 0.0625971 -0.116366 85 169 0
0.726521 0.0601186 -0.116396 88 166 0
0.730633 0.0561692 -0.11622 91 163 0
0.731273 0.0502578 -0.1159 93 161 0
0.728888 0.0450537 -0.115394 96 158 0
0.724378 0.0411764 -0.114948 98 156 0
0.718964 0.0391537 -0.114417 101 153 0
0.713143 0.0397969 -0.113943 104 150 0
0.70801 0.0428024 -0.11344 106 148 0
0.703748 0.0468992 -0.113121 109 145 0
0.700828 0.0520274 -0.113118 111 143 0
0.700996 0.0579971 -0.11343 114 140 0
0.701613 0.0638282 -0.11398 117 137 0
0.704997 0.0687034 -0.11465 119 135 0
0.709521 0.0723727 -0.115342 122 132 0
0.715212 0.0739096 -0.115856 124 130 0
0.721121 0.0734125 -0.116247 127 127 0
0.725394 0.0695159 -0.11666 130 124 0
0.727861 0.0641741 -0.117095 132 122 0
0.728359 0.0582862 -0.117255 135 119 0
0.72514 0.0534326 -0.116922 137 117 0
0.7203 0.0502369 -0.116213 140 114 0
0.714637 0.0493959 -0.114943 143 111 0
0.708832 0.0505547 -0.114086 145 109 0
0.704749 0.054511 -0.112905 148 106 0
0.700603 0.0583818 -0.111855 150 104 0
0.699504 0.0641609 -0.111074 153 101 0
0.699091 0.0701146 -0.110695 156 98 0
0.701351 0.0753559 -0.110716 158 96 0
0.705352 0.0797387 -0.111269 161 93 0
0.709437 0.0835675 -0.1121 163 91 0
0.715314 0.08357 -0.112966 166 88 0
0.720754 0.0816363 -0.114508 169 85 0
0.725919 0.0793757 -0.115776 171 83 0
0.727582 0.0739435 -0.116838 174 80 0
0.727136 0.0680407 -0.117654 176 78 0
0.724472 0.0629246 -0.117781 179 75 0
0.71936 0.0600007 -0.116868 182 72 0
0.713697 0.059412 -0.115479 184 70 0
0.70844 0.0604722 -0.113194 187 67 0
0.70342 0.0633373 -0.111775 189 65 0
0.699426 0.0673326 -0.110096 192 62 0
0.697328 0.0727387 -0.108867 195 59 0
0.696797 0.0786274 -0.107984 197 57 0
0.697978 0.0842394 -0.107211 200 54 0
0.70162 0.088903 -0.107079 202 52 0
0.705988 0.0921795 -0.107628 205 49 0
0.711585 0.0933943 -0.109115 208 46 0
0.717042 0.0935749 -0.111241 210 44 0
0.72136 0.0903415 -0.113522 213 41 0
0.725137 0.0864992 -0.115418 215 39 0
0.725164 0.0807311 -0.116945 218 36 0
0.724486 0.0750313 -0.117708 221 33 0
0.719935 0.0712209 -0.117458 223 31 0
0.714935 0.0693618 -0.115674 226 28 0
0.709613 0.0689302 -0.113093 228 26 0
0.704706 0.0713787 -0.110974 231 23 0
0.700738 0.0751578 -0.108646 234 20 0
0.697062 0.0794028 -0.106684 236 18 0
0.695375 0.0845247 -0.105364 239 15 0
0.694545 0.090053 -0.105573 241 13 0
0.69715 0.0947239 -0.106715 244 10 0
0.699679 0.0984957 -0.108932 247 7 0
0.703248 0.101512 -0.11053 249 5 0
0.706996 0.103177 -0.113123 252 2 0
0.710648 0.104521 -0.114859 255 0 0
