ply
format ascii 1.0
comment Generated by robot_control PLYWriter
element vertex 200
property float x
property float y
property float z
property uchar red
property uchar green
property uchar blue
end_header
0.595099 -0.311979 -0.136002 0 255 0
0.595099 -0.311979 -0.136002 1 253 0
0.595099 -0.311979 -0.136002 2 252 0
0.595099 -0.311979 -0.136002 3 251 0
0.595099 -0.311979 -0.136002 5 249 0
0.595099 -0.311979 -0.136002 6 248 0
0.595099 -0.311979 -0.136002 7 247 0
0.595099 -0.311979 -0.136002 8 246 0
0.595099 -0.311979 -0.136002 10 244 0
0.595099 -0.311979 -0.136002 11 243 0
0.595099 -0.311979 -0.136002 12 242 0
0.595099 -0.311979 -0.136002 14 240 0
0.595099 -0.311979 -0.136002 15 239 0
0.595099 -0.311979 -0.136002 16 238 0
0.595099 -0.311979 -0.136002 17 237 0
0.595099 -0.311979 -0.136002 19 235 0
0.595099 -0.311979 -0.136002 20 234 0
0.595099 -0.311979 -0.136002 21 233 0
0.595099 -0.311979 -0.136002 23 231 0
0.595099 -0.311979 -0.136002 24 230 0
0.595099 -0.311979 -0.136002 25 229 0
0.595099 -0.311979 -0.136002 26 228 0
0.595099 -0.311979 -0.136002 28 226 0
0.595099 -0.311979 -0.136002 29 225 0
0.595099 -0.311979 -0.136002 30 224 0
0.595099 -0.311979 -0.136002 32 222 0
0.595099 -0.311979 -0.136002 33 221 0
0.595099 -0.311979 -0.136002 34 220 0
0.595099 -0.311979 -0.136002 35 219 0
0.595099 -0.311979 -0.136002 37 217 0
0.595099 -0.311979 -0.136002 38 216 0
0.595099 -0.311979 -0.136002 39 215 0
0.595099 -0.311979 -0.136002 41 213 0
0.595099 -0.311979 -0.136002 42 212 0
0.595099 -0.311979 -0.136002 43 211 0
0.595099 -0.311979 -0.136002 44 210 0
0.595099 -0.311979 -0.136002 46 208 0
0.595099 -0.311979 -0.136002 47 207 0
0.595099 -0.311979 -0.136002 48 206 0
0.595099 -0.311979 -0.136002 49 205 0
0.595099 -0.311979 -0.136002 51 203 0
0.595099 -0.311979 -0.136002 52 202 0
0.595099 -0.311979 -0.136002 53 201 0
0.595099 -0.311979 -0.136002 55 199 0
0.595099 -0.311979 -0.136002 56 198 0
0.595099 -0.311979 -0.136002 57 197 0
0.595099 -0.311979 -0.136002 58 196 0
0.595099 -0.311979 -0.136002 60 194 0
0.595099 -0.311979 -0.136002 61 193 0
0.595099 -0.311979 -0.136002 62 192 0
0.595099 -0.311979 -0.136002 64 190 0
0.595099 -0.311979 -0.136002 65 189 0
0.595099 -0.311979 -0.136002 66 188 0
0.595099 -0.311979 -0.136002 67 187 0
0.595099 -0.311979 -0.136002 69 185 0
0.595099 -0.311979 -0.136002 70 184 0
0.595099 -0.311979 -0.136002 71 183 0
0.595099 -0.311979 -0.136002 73 181 0
0.595099 -0.311979 -0.136002 74 180 0
0.595099 -0.311979 -0.136002 75 179 0
0.595099 -0.311979 -0.136002 76 178 0
0.595099 -0.311979 -0.136002 78 176 0
0.595099 -0.311979 -0.136002 79 175 0
0.595099 -0.311979 -0.136002 80 174 0
0.595099 -0.311979 -0.136002 82 172 0
0.595099 -0.311979 -0.136002 83 171 0
0.595099 -0.311979 -0.136002 84 170 0
0.595099 -0.311979 -0.136002 85 169 0
0.595099 -0.311979 -0.136002 87 167 0
0.595099 -0.311979 -0.136002 88 166 0
0.595099 -0.311979 -0.136002 89 165 0
0.595099 -0.311979 -0.136002 90 164 0
0.595099 -0.311979 -0.136002 92 162 0
0.595099 -0.311979 -0.136002 93 161 0
0.595099 -0.311979 -0.136002 94 160 0
0.595099 -0.311979 -0.136002 96 158 0
0.595099 -0.311979 -0.136002 97 157 0
0.595099 -0.311979 -0.136002 98 156 0
0.595099 -0.311979 -0.136002 99 155 0
0.595099 -0.311979 -0.136002 101 153 0
0.595099 -0.311979 -0.136002 102 152 0
0.595099 -0.311979 -0.136002 103 151 0
0.595099 -0.311979 -0.136002 105 149 0
0.595099 -0.311979 -0.136002 106 148 0
0.595099 -0.311979 -0.136002 107 147 0
0.595099 -0.311979 -0.136002 108 146 0
0.595099 -0.311979 -0.136002 110 144 0
0.595099 -0.311979 -0.136002 111 143 0
0.595099 -0.311979 -0.136002 112 142 0
0.595099 -0.311979 -0.136002 114 140 0
0.595099 -0.311979 -0.136002 115 139 0
0.595099 -0.311979 -0.136002 116 138 0
0.595099 -0.311979 -0.136002 117 137 0
0.595099 -0.311979 -0.136002 119 135 0
0.595099 -0.311979 -0.136002 120 134 0
0.595099 -0.311979 -0.136002 121 133 0
0.595099 -0.311979 -0.136002 123 131 0
0.595099 -0.311979 -0.136002 124 130 0
0.595099 -0.311979 -0.136002 125 129 0
0.595099 -0.311979 -0.136002 126 128 0
0.595099 -0.311979 -0.136002 128 126 0
0.595099 -0.311979 -0.136002 129 125 0
0.595099 -0.311979 -0.136002 130 124 0
0.595099 -0.311979 -0.136002 131 123 0
0.595099 -0.311979 -0.136002 133 121 0
0.595099 -0.311979 -0.136002 134 120 0
0.595099 -0.311979 -0.136002 135 119 0
0.595099 -0.311979 -0.136002 137 117 0
0.595099 -0.311979 -0.136002 138 116 0
0.595099 -0.311979 -0.136002 139 115 0
0.595099 -0.311979 -0.136002 140 114 0
0.595099 -0.311979 -0.136002 142 112 0
0.595099 -0.311979 -0.136002 143 111 0
0.595099 -0.311979 -0.136002 144 110 0
0.595099 -0.311979 -0.136002 146 108 0
0.595099 -0.311979 -0.136002 147 107 0
0.595099 -0.311979 -0.136002 148 106 0
0.595099 -0.311979 -0.136002 149 105 0
0.595099 -0.311979 -0.136002 151 103 0
0.595099 -0.311979 -0.136002 152 102 0
0.595099 -0.311979 -0.136002 153 101 0
0.595099 -0.311979 -0.136002 155 99 0
0.595099 -0.311979 -0.136002 156 98 0
0.595099 -0.311979 -0.136002 157 97 0
0.595099 -0.311979 -0.136002 158 96 0
0.595099 -0.311979 -0.136002 160 94 0
0.595099 -0.311979 -0.136002 161 93 0
0.595099 -0.311979 -0.136002 162 92 0
0.595099 -0.311979 -0.136002 164 90 0
0.595099 -0.311979 -0.136002 165 89 0
0.595099 -0.311979 -0.136002 166 88 0
0.595099 -0.311979 -0.136002 167 87 0
0.595099 -0.311979 -0.136002 169 85 0
0.595099 -0.311979 -0.136002 170 84 0
0.595099 -0.311979 -0.136002 171 83 0
0.595099 -0.311979 -0.136002 172 82 0
0.595099 -0.311979 -0.136002 174 80 0
0.595099 -0.311979 -0.136002 175 79 0
0.595099 -0.311979 -0.136002 176 78 0
0.595099 -0.311979 -0.136002 178 76 0
0.595099 -0.311979 -0.136002 179 75 0
0.595099 -0.311979 -0.136002 180 74 0
0.595099 -0.311979 -0.136002 181 73 0
0.595099 -0.311979 -0.136002 183 71 0
0.595099 -0.311979 -0.136002 184 70 0
0.595099 -0.311979 -0.136002 185 69 0
0.595099 -0.311979 -0.136002 187 67 0
0.595099 -0.311979 -0.136002 188 66 0
0.595099 -0.311979 -0.136002 189 65 0
0.595099 -0.311979 -0.136002 190 64 0
0.595099 -0.311979 -0.136002 192 62 0
0.595099 -0.311979 -0.136002 193 61 0
0.595099 -0.311979 -0.136002 194 60 0
0.595099 -0.311979 -0.136002 196 58 0
0.595099 -0.311979 -0.136002 197 57 0
0.595099 -0.311979 -0.136002 198 56 0
0.595099 -0.311979 -0.136002 199 55 0
0.595099 -0.311979 -0.136002 201 53 0
0.595099 -0.311979 -0.136002 202 52 0
0.595099 -0.311979 -0.136002 203 51 0
0.595099 -0.311979 -0.136002 205 49 0
0.595099 -0.311979 -0.136002 206 48 0
0.595099 -0.311979 -0.136002 207 47 0
0.595099 -0.311979 -0.136002 208 46 0
0.595099 -0.311979 -0.136002 210 44 0
0.595099 -0.311979 -0.136002 211 43 0
0.595099 -0.311979 -0.136002 212 42 0
0.595099 -0.311979 -0.136002 213 41 0
0.595099 -0.311979 -0.136002 215 39 0
0.595099 -0.311979 -0.136002 216 38 0
0.595099 -0.311979 -0.136002 217 37 0
0.595099 -0.311979 -0.136002 219 35 0
0.595099 -0.311979 -0.136002 220 34 0
0.595099 -0.311979 -0.136002 221 33 0
0.595099 -0.311979 -0.136002 222 32 0
0.595099 -0.311979 -0.136002 224 30 0
0.595099 -0.311979 -0.136002 225 29 0
0.595099 -0.311979 -0.136002 226 28 0
0.595099 -0.311979 -0.136002 228 26 0
0.595099 -0.311979 -0.136002 229 25 0
0.595099 -0.311979 -0.136002 230 24 0
0.595099 -0.311979 -0.136002 231 23 0
0.595099 -0.311979 -0.136002 233 21 0
0.595099 -0.311979 -0.136002 234 20 0
0.595099 -0.311979 -0.136002 235 19 0
0.595099 -0.311979 -0.136002 237 17 0
0.595099 -0.311979 -0.136002 238 16 0
0.595099 -0.311979 -0.136002 239 15 0
0.595099 -0.311979 -0.136002 240 14 0
0.595099 -0.311979 -0.136002 242 12 0
0.595099 -0.311979 -0.136002 243 11 0
0.595099 -0.311979 -0.136002 244 10 0
0.595099 -0.311979 -0.136002 246 8 0
0.595099 -0.311979 -0.136002 247 7 0
0.595099 -0.311979 -0.136002 248 6 0
0.595099 -0.311979 -0.136002 249 5 0
0.595099 -0.311979 -0.136002 251 3 0
0.595099 -0.311979 -0.136002 252 2 0
0.595099 -0.311979 -0.136002 253 1 0
0.595099 -0.311979 -0.136002 255 0 0
