ply
format ascii 1.0
comment Generated by robot_control PLYWriter
element vertex 59
property float x
property float y
property float z
property uchar red
property uchar green
property uchar blue
end_header
0.59808 0.11195 -0.107427 0 255 0
0.601854 0.109459 -0.106923 4 250 0
0.604378 0.105422 -0.106555 8 246 0
0.606744 0.100739 -0.106277 13 241 0
0.606733 0.0947798 -0.106163 17 237 0
0.604489 0.0897362 -0.106272 21 233 0
0.600711 0.0851934 -0.106723 26 228 0
0.5964 0.0811251 -0.107268 30 224 0
0.590526 0.0814148 -0.108021 35 219 0
0.584734 0.0820031 -0.108774 39 215 0
0.581477 0.086432 -0.109197 43 211 0
0.580135 0.0919477 -0.109181 48 206 0
0.581951 0.0972098 -0.108897 52 202 0
0.586863 0.100513 -0.108369 57 197 0
0.592472 0.101935 -0.107703 61 193 0
0.597867 0.100062 -0.107009 65 189 0
0.603018 0.0972197 -0.106508 70 184 0
0.605721 0.0919468 -0.106226 74 180 0
0.606734 0.0861819 -0.106173 79 175 0
0.605915 0.0804083 -0.106346 83 171 0
0.602766 0.0754158 -0.106615 87 167 0
0.597945 0.0721655 -0.106975 92 162 0
0.592412 0.0701864 -0.107532 96 158 0
0.586675 0.0712292 -0.10806 101 153 0
0.582008 0.0747677 -0.108575 105 149 0
0.580319 0.080183 -0.108698 109 145 0
0.582851 0.0852797 -0.10861 114 140 0
0.585668 0.090314 -0.108321 118 136 0
0.591405 0.0911364 -0.107797 123 131 0
0.597188 0.0911003 -0.107127 127 127 0
0.602141 0.0879574 -0.106627 131 123 0
0.605853 0.0833323 -0.106177 136 118 0
0.60672 0.0776454 -0.105946 140 114 0
0.606697 0.0716839 -0.105951 145 109 0
0.603854 0.0664635 -0.106134 149 105 0
0.600145 0.0622915 -0.106485 153 101 0
0.594903 0.0594953 -0.106974 158 96 0
0.589065 0.059895 -0.107528 162 92 0
0.584046 0.0628879 -0.108017 167 87 0
0.58194 0.0677016 -0.108441 171 83 0
0.582153 0.0725637 -0.108519 175 79 0
0.583767 0.0780066 -0.108314 180 74 0
0.588947 0.0807981 -0.107924 184 70 0
0.594747 0.0810774 -0.107171 189 65 0
0.600373 0.0794856 -0.106591 193 61 0
0.603753 0.0748494 -0.106051 197 57 0
0.606682 0.0700517 -0.10575 202 52 0
0.606743 0.0640943 -0.105654 206 48 0
0.606722 0.0581388 -0.105849 211 43 0
0.60295 0.0535598 -0.106276 215 39 0
0.598257 0.0508905 -0.107 219 35 0
0.59316 0.0492483 -0.107831 224 30 0
0.58762 0.0502696 -0.108818 228 26 0
0.58361 0.0538985 -0.109303 233 21 0
0.580376 0.0586031 -0.109432 237 17 0
0.582743 0.0634631 -0.109219 241 13 0
0.585363 0.0670355 -0.108642 246 8 0
0.589404 0.0702955 -0.10793 250 4 0
0.594768 0.0698482 -0.107087 255 0 0
