ply
format ascii 1.0
comment Generated by robot_control PLYWriter
element vertex 11
property float x
property float y
property float z
property uchar red
property uchar green
property uchar blue
end_header
0.667991 -0.116547 -0.022874 0 255 0
0.668235 -0.121363 -0.021902 25 229 0
0.668607 -0.126172 -0.0209321 51 204 0
0.668696 -0.131007 -0.0200413 76 178 0
0.668714 -0.135859 -0.019225 102 153 0
0.668739 -0.140724 -0.0184923 127 127 0
0.668718 -0.1456 -0.0178367 153 101 0
0.668661 -0.150482 -0.0172217 178 76 0
0.668643 -0.15536 -0.0165824 204 50 0
0.668657 -0.16023 -0.0158841 229 25 0
0.668658 -0.165068 -0.0149891 255 0 0
