ply
format ascii 1.0
comment Generated by robot_control PLYWriter
element vertex 114
property float x
property float y
property float z
property uchar red
property uchar green
property uchar blue
end_header
0.67396 0.0465637 -0.0979781 0 255 0
0.678237 0.0436753 -0.0968097 2 252 0
0.681165 0.0409253 -0.0952262 4 250 0
0.683319 0.0371463 -0.0935393 6 248 0
0.68481 0.0325149 -0.0918587 9 245 0
0.6851 0.0267723 -0.0903282 11 243 0
0.683197 0.0215357 -0.0896886 13 241 0
0.67979 0.01718 -0.0894565 15 239 0
0.675948 0.0131494 -0.0897768 18 236 0
0.670497 0.011654 -0.0905602 20 234 0
0.664768 0.0123846 -0.0920367 22 232 0
0.66026 0.0160337 -0.0935298 24 230 0
0.656821 0.0202271 -0.0952807 27 227 0
0.655604 0.0249942 -0.0963475 29 225 0
0.657308 0.0303557 -0.0968614 31 223 0
0.661685 0.0344174 -0.0967791 33 221 0
0.666831 0.0372484 -0.0959708 36 218 0
0.67267 0.0372168 -0.0946514 38 216 0
0.677626 0.0342269 -0.093536 40 214 0
0.681982 0.0310403 -0.0925205 42 212 0
0.685005 0.0259745 -0.0914245 45 209 0
0.68648 0.020454 -0.0903342 47 207 0
0.684915 0.0149815 -0.0894651 49 205 0
0.68416 0.00929084 -0.0891306 51 203 0
0.679915 0.00503944 -0.0891792 54 200 0
0.675022 0.00163509 -0.0895254 56 198 0
0.669095 0.0014682 -0.0902333 58 196 0
0.663864 0.00344716 -0.0909521 60 194 0
0.659648 0.00739468 -0.0918176 63 191 0
0.65711 0.012787 -0.0925677 65 189 0
0.658906 0.0183403 -0.0931217 67 187 0
0.66203 0.0232627 -0.0930126 69 185 0
0.66718 0.0262873 -0.092607 72 182 0
0.672983 0.0274171 -0.0920212 74 180 0
0.678059 0.0243809 -0.0913468 76 178 0
0.682817 0.0207836 -0.0907365 78 176 0
0.686197 0.0162025 -0.0899911 81 173 0
0.686453 0.0102781 -0.0893754 83 171 0
0.686435 0.00428201 -0.088971 85 169 0
0.684454 -0.00126239 -0.0887018 88 166 0
0.67969 -0.00490825 -0.088734 90 164 0
0.674437 -0.00780778 -0.0889625 92 162 0
0.668746 -0.00864344 -0.0894115 94 160 0
0.663428 -0.00587789 -0.08977 97 157 0
0.659174 -0.001958 -0.0901061 99 155 0
0.657276 0.00367367 -0.0903364 101 153 0
0.659389 0.00929625 -0.0904499 103 151 0
0.663074 0.0138232 -0.0905375 106 148 0
0.668053 0.0171573 -0.0905646 108 146 0
0.673852 0.0165971 -0.0904899 110 144 0
0.679423 0.0147664 -0.0901791 112 142 0
0.683653 0.0105198 -0.0897483 115 139 0
0.687016 0.00576182 -0.0892267 117 137 0
0.688247 -4.71946e-05 -0.0887087 119 135 0
0.687238 -0.00590138 -0.0883232 121 133 0
0.685338 -0.011592 -0.0881308 124 130 0
0.681461 -0.0160894 -0.0881013 126 128 0
0.675997 -0.0183282 -0.0881271 128 126 0
0.67006 -0.0184121 -0.0881876 130 124 0
0.66478 -0.0156634 -0.0882881 133 121 0
0.661175 -0.0110133 -0.0883996 135 119 0
0.658507 -0.00581027 -0.0886145 137 117 0
0.659853 -0.000169606 -0.0888936 139 115 0
0.664265 0.00368378 -0.0891828 142 112 0
0.669857 0.00555771 -0.089369 144 110 0
0.675863 0.00536377 -0.0893588 146 108 0
0.680895 0.00307682 -0.0891284 148 106 0
0.685132 -0.00117028 -0.0887884 151 103 0
0.687954 -0.00632531 -0.0883288 153 101 0
0.688333 -0.0123088 -0.0879563 155 99 0
0.688581 -0.0183007 -0.0877058 157 97 0
0.685574 -0.0233918 -0.0874164 160 94 0
0.68043 -0.0264697 -0.0871791 162 92 0
0.675329 -0.0286449 -0.0869362 164 90 0
0.66932 -0.0286388 -0.086859 166 88 0
0.664029 -0.0259578 -0.0868983 169 85 0
0.660954 -0.0209607 -0.0870533 171 83 0
0.658735 -0.0154802 -0.0872977 173 81 0
0.660786 -0.0102031 -0.0875559 176 78 0
0.665196 -0.00621098 -0.0879689 178 76 0
0.670306 -0.00421474 -0.0883151 180 74 0
0.676312 -0.0042074 -0.0884608 182 72 0
0.681901 -0.0059481 -0.0883573 185 69 0
0.686239 -0.010005 -0.0881928 187 67 0
0.688978 -0.0153332 -0.0879761 189 65 0
0.690787 -0.0209617 -0.0877463 191 63 0
0.689032 -0.0266753 -0.0873838 194 60 0
0.686549 -0.0320579 -0.0869975 196 58 0
0.682618 -0.0365436 -0.0866557 198 56 0
0.677171 -0.0388578 -0.0863227 200 54 0
0.67117 -0.0388656 -0.0860183 203 51 0
0.66604 -0.0360247 -0.0858425 205 49 0
0.662307 -0.0314042 -0.0858867 207 47 0
0.661205 -0.0256162 -0.0861937 209 45 0
0.662805 -0.0201025 -0.0864966 212 42 0
0.666086 -0.0151214 -0.086823 214 40 0
0.671609 -0.0134716 -0.0870816 216 38 0
0.677251 -0.0150267 -0.0873621 218 36 0
0.683081 -0.0159641 -0.0875478 221 33 0
0.686054 -0.0206407 -0.0875831 223 31 0
0.689297 -0.0253371 -0.0875256 225 29 0
0.691006 -0.030876 -0.0874521 227 27 0
0.690775 -0.0368784 -0.0873376 230 24 0
0.688552 -0.0422064 -0.0871573 232 22 0
0.684021 -0.0459226 -0.086898 234 20 0
0.678607 -0.0479764 -0.0865822 236 18 0
0.672604 -0.0480467 -0.0863387 239 15 0
0.666999 -0.0467602 -0.0859781 241 13 0
0.662824 -0.0427394 -0.0856868 243 11 0
0.661097 -0.0375121 -0.0855851 245 9 0
0.661911 -0.0318025 -0.0856136 248 6 0
0.665687 -0.0272478 -0.0857372 250 4 0
0.670798 -0.024742 -0.0857884 252 2 0
0.676711 -0.0247573 -0.0859207 255 0 0
