ply
format ascii 1.0
comment Generated by robot_control PLYWriter
element vertex 49
property float x
property float y
property float z
property uchar red
property uchar green
property uchar blue
end_header
0.764691 0.115892 -0.141791 0 255 0
0.769216 0.113152 -0.142982 5 249 0
0.771469 0.108582 -0.142538 10 244 0
0.77381 0.104023 -0.140743 15 239 0
0.772676 0.0989929 -0.137917 21 233 0
0.770406 0.0941843 -0.135407 26 228 0
0.766991 0.090188 -0.132968 31 223 0
0.762131 0.088064 -0.130648 37 217 0
0.756487 0.087564 -0.128819 42 212 0
0.751052 0.089344 -0.127875 47 207 0
0.74605 0.0923325 -0.127362 53 201 0
0.742427 0.0967893 -0.127518 58 196 0
0.741091 0.101846 -0.128039 63 191 0
0.741152 0.107349 -0.128993 69 185 0
0.743912 0.112501 -0.130139 74 180 0
0.749316 0.113726 -0.131439 79 175 0
0.755147 0.114094 -0.132592 85 169 0
0.760405 0.111767 -0.1331 90 164 0
0.763998 0.107029 -0.133089 95 159 0
0.765339 0.101592 -0.132564 100 154 0
0.76456 0.095733 -0.13195 106 148 0
0.761776 0.0909066 -0.131075 111 143 0
0.757092 0.0876246 -0.12959 116 138 0
0.751835 0.0858214 -0.127631 122 132 0
0.746059 0.0857442 -0.126197 127 127 0
0.74097 0.0873319 -0.1254 132 122 0
0.736603 0.0913482 -0.125227 138 116 0
0.732676 0.0956602 -0.125347 143 111 0
0.731709 0.101318 -0.125706 148 106 0
0.733418 0.106986 -0.126108 154 100 0
0.737624 0.110901 -0.126665 159 95 0
0.743075 0.111319 -0.12776 164 90 0
0.748764 0.110979 -0.128799 170 84 0
0.752263 0.106807 -0.12938 175 79 0
0.755898 0.102216 -0.129281 180 74 0
0.756676 0.0964162 -0.128828 185 69 0
0.754769 0.0910236 -0.128059 191 63 0
0.751651 0.0860341 -0.127192 196 58 0
0.746732 0.0839604 -0.126104 201 53 0
0.741962 0.0821783 -0.124257 207 47 0
0.736378 0.0830997 -0.122657 212 42 0
0.731432 0.0852267 -0.120963 217 37 0
0.727124 0.0889698 -0.119322 223 31 0
0.724097 0.093608 -0.118192 228 26 0
0.723062 0.0992276 -0.117737 233 21 0
0.724481 0.104375 -0.119348 239 15 0
0.727546 0.105405 -0.122862 244 10 0
0.730441 0.10923 -0.125007 249 5 0
0.734506 0.108968 -0.127912 255 0 0
