ply
format ascii 1.0
comment Generated by robot_control PLYWriter
element vertex 65
property float x
property float y
property float z
property uchar red
property uchar green
property uchar blue
end_header
0.682228 -0.052089 -0.101059 0 255 0
0.686806 -0.0544795 -0.101241 3 251 0
0.689866 -0.0583527 -0.101423 7 247 0
0.691689 -0.0630633 -0.101277 11 243 0
0.691551 -0.0688163 -0.100663 15 239 0
0.687546 -0.0731829 -0.0999056 19 235 0
0.682457 -0.0757273 -0.099007 23 231 0
0.677106 -0.0758089 -0.0984595 27 227 0
0.671767 -0.0743033 -0.0982432 31 223 0
0.667469 -0.0702372 -0.0983119 35 219 0
0.66395 -0.065437 -0.0987329 39 215 0
0.66268 -0.0597135 -0.0993586 43 211 0
0.662785 -0.0537346 -0.0999376 47 207 0
0.665907 -0.0488952 -0.100773 51 203 0
0.669891 -0.0444569 -0.101378 55 199 0
0.674288 -0.0405006 -0.10202 59 195 0
0.68026 -0.0407778 -0.102403 63 191 0
0.686038 -0.0423203 -0.102603 67 187 0
0.690484 -0.046193 -0.102535 71 183 0
0.69295 -0.0516449 -0.102102 75 179 0
0.69142 -0.0571128 -0.101618 79 175 0
0.68799 -0.0616285 -0.101047 83 171 0
0.682478 -0.0639368 -0.100579 87 167 0
0.676536 -0.0635777 -0.100422 91 163 0
0.670827 -0.0617922 -0.100453 95 159 0
0.667213 -0.0573454 -0.100734 99 155 0
0.664977 -0.0517893 -0.101127 103 151 0
0.663227 -0.0460719 -0.101674 107 147 0
0.664697 -0.0405183 -0.10244 111 143 0
0.666575 -0.0349429 -0.103112 115 139 0
0.67185 -0.0321408 -0.103764 119 135 0
0.677175 -0.0296531 -0.104298 123 131 0
0.683076 -0.0303908 -0.104669 127 127 0
0.688549 -0.0327278 -0.104714 131 123 0
0.692508 -0.0370649 -0.104409 135 119 0
0.693976 -0.0428693 -0.103946 139 115 0
0.692729 -0.0481377 -0.103329 143 111 0
0.688581 -0.052437 -0.102778 147 107 0
0.683097 -0.0543749 -0.102274 151 103 0
0.677215 -0.05361 -0.102064 155 99 0
0.671828 -0.0510875 -0.102103 159 95 0
0.668611 -0.0461957 -0.102493 163 91 0
0.665169 -0.0412952 -0.10298 167 87 0
0.664757 -0.0355282 -0.103962 171 83 0
0.665693 -0.0297339 -0.104946 175 79 0
0.668538 -0.0247008 -0.105757 179 75 0
0.673363 -0.0213686 -0.106598 183 71 0
0.678264 -0.0180409 -0.10741 187 67 0
0.684042 -0.0188196 -0.107908 191 63 0
0.688515 -0.0227467 -0.108055 195 59 0
0.69337 -0.0258267 -0.107721 199 55 0
0.694685 -0.0315188 -0.107031 203 51 0
0.692954 -0.0368664 -0.10603 207 47 0
0.688898 -0.0402614 -0.10469 211 43 0
0.683724 -0.0429767 -0.104041 215 39 0
0.678128 -0.0419337 -0.103531 219 35 0
0.6727 -0.0404754 -0.103554 223 31 0
0.669136 -0.0356628 -0.104 227 27 0
0.666521 -0.030705 -0.104796 231 23 0
0.665187 -0.0253075 -0.105857 235 19 0
0.66682 -0.0199158 -0.107101 239 15 0
0.668695 -0.0149447 -0.108741 243 11 0
0.672741 -0.0108042 -0.109727 247 7 0
0.676927 -0.00966248 -0.111287 251 3 0
0.68049 -0.00759912 -0.112415 255 0 0
