ply
format ascii 1.0
comment Generated by robot_control PLYWriter
element vertex 10
property float x
property float y
property float z
property uchar red
property uchar green
property uchar blue
end_header
0.634643 -0.167231 -0.116448 0 255 0
0.634598 -0.162377 -0.116016 28 226 0
0.634612 -0.157519 -0.115633 56 198 0
0.6347 -0.15267 -0.115164 85 169 0
0.634986 -0.147836 -0.114637 113 141 0
0.635363 -0.143012 -0.114055 141 113 0
0.635747 -0.1382 -0.113389 170 84 0
0.636131 -0.133404 -0.112618 198 56 0
0.636493 -0.128615 -0.111794 226 28 0
0.636689 -0.123839 -0.110886 255 0 0
