ply
format ascii 1.0
comment Generated by robot_control PLYWriter
element vertex 31
property float x
property float y
property float z
property uchar red
property uchar green
property uchar blue
end_header
0.70426 0.0524128 -0.139455 0 255 0
0.708463 0.0494348 -0.138574 8 246 0
0.710866 0.0446782 -0.136737 17 238 0
0.711929 0.0390993 -0.135179 25 229 0
0.709452 0.0342132 -0.133128 34 221 0
0.705866 0.0300611 -0.131292 42 212 0
0.700488 0.0278225 -0.130058 51 204 0
0.694464 0.027503 -0.129348 59 195 0
0.688461 0.0275087 -0.129156 68 187 0
0.683636 0.0312048 -0.129309 76 178 0
0.680057 0.0358705 -0.129996 85 169 0
0.676778 0.0408007 -0.13092 93 161 0
0.677797 0.0462827 -0.131862 102 153 0
0.680979 0.0511472 -0.133303 110 144 0
0.686005 0.0533713 -0.134021 119 135 0
0.691963 0.0528336 -0.134438 127 127 0
0.696945 0.049656 -0.134263 136 118 0
0.700391 0.044852 -0.133321 144 110 0
0.70148 0.0391136 -0.132123 153 101 0
0.700043 0.0333874 -0.130795 161 93 0
0.695367 0.030332 -0.12965 170 84 0
0.690133 0.0274939 -0.128486 178 76 0
0.684561 0.0259757 -0.127685 187 67 0
0.678942 0.0281916 -0.127148 195 59 0
0.673156 0.0300617 -0.127054 204 50 0
0.669929 0.0348304 -0.127544 212 42 0
0.66668 0.0398087 -0.128633 221 33 0
0.666545 0.0454926 -0.130249 229 25 0
0.66954 0.0499368 -0.132141 238 16 0
0.673006 0.0539855 -0.133618 246 8 0
0.678428 0.053559 -0.135012 255 0 0
