ply
format ascii 1.0
comment Generated by robot_control PLYWriter
element vertex 32
property float x
property float y
property float z
property uchar red
property uchar green
property uchar blue
end_header
0.556926 0.082738 -0.151782 0 255 0
0.561386 0.0806996 -0.149991 8 246 0
0.565137 0.0765454 -0.147877 16 238 0
0.568061 0.0716092 -0.146038 24 230 0
0.568127 0.0658315 -0.144114 32 222 0
0.566743 0.060226 -0.142743 41 213 0
0.563221 0.0554104 -0.141802 49 205 0
0.557544 0.0532551 -0.142027 57 197 0
0.551867 0.0535323 -0.14286 65 189 0
0.547384 0.0571854 -0.144007 74 180 0
0.545095 0.0626855 -0.145227 82 172 0
0.54457 0.0684709 -0.14642 90 164 0
0.547994 0.0733078 -0.147436 98 156 0
0.552028 0.0770949 -0.148018 106 148 0
0.557599 0.079532 -0.148312 115 139 0
0.563178 0.0803643 -0.148453 123 131 0
0.569041 0.0789106 -0.148315 131 123 0
0.573619 0.0756559 -0.147998 139 115 0
0.577616 0.0711006 -0.147482 148 106 0
0.579828 0.0655287 -0.146888 156 98 0
0.579835 0.05992 -0.145782 164 90 0
0.576994 0.0546633 -0.144636 172 82 0
0.572073 0.0514811 -0.143766 180 74 0
0.566302 0.0498341 -0.143158 189 65 0
0.560479 0.0511404 -0.142571 197 57 0
0.556594 0.0557775 -0.142322 205 49 0
0.554932 0.0613465 -0.142706 213 41 0
0.55634 0.0671194 -0.143275 222 32 0
0.558688 0.07205 -0.144542 230 24 0
0.563601 0.0747739 -0.146662 238 16 0
0.568113 0.0775244 -0.148352 246 8 0
0.573056 0.0787275 -0.149886 255 0 0
