ply
format ascii 1.0
comment Generated by robot_control PLYWriter
element vertex 15
property float x
property float y
property float z
property uchar red
property uchar green
property uchar blue
end_header
0.632686 -0.328233 -0.107128 0 255 0
0.637145 -0.331879 -0.107178 18 236 0
0.639659 -0.33702 -0.10685 36 218 0
0.641203 -0.342601 -0.106285 54 200 0
0.638664 -0.347833 -0.105439 72 182 0
0.635503 -0.352456 -0.104382 91 163 0
0.629927 -0.354023 -0.103455 109 145 0
0.624076 -0.354005 -0.102754 127 127 0
0.619045 -0.351245 -0.102107 145 109 0
0.614844 -0.347045 -0.101859 163 91 0
0.614534 -0.34123 -0.101867 182 72 0
0.616136 -0.335856 -0.102169 200 54 0
0.618776 -0.331281 -0.103036 218 36 0
0.623655 -0.328942 -0.104165 236 18 0
0.628034 -0.326827 -0.105038 255 0 0
