ply
format ascii 1.0
comment Generated by robot_control PLYWriter
element vertex 81
property float x
property float y
property float z
property uchar red
property uchar green
property uchar blue
end_header
0.682025 -0.0255005 -0.0866091 0 255 0
0.686182 -0.0288149 -0.0869788 3 251 0
0.688744 -0.0325227 -0.0871821 6 248 0
0.690773 -0.0378194 -0.087363 9 245 0
0.690938 -0.043809 -0.0875146 12 242 0
0.690165 -0.0494602 -0.087538 15 239 0
0.68673 -0.0538187 -0.0874721 19 235 0
0.682013 -0.0575027 -0.0873851 22 232 0
0.67658 -0.058851 -0.0871284 25 229 0
0.670589 -0.058857 -0.0867737 28 226 0
0.665845 -0.0557553 -0.0864373 31 223 0
0.662305 -0.0510471 -0.0861244 35 219 0
0.661208 -0.0452448 -0.0859459 38 216 0
0.663178 -0.039888 -0.0858141 41 213 0
0.667414 -0.0356359 -0.0858407 44 210 0
0.672766 -0.034078 -0.0859718 47 207 0
0.678759 -0.0340836 -0.0862925 51 204 0
0.684202 -0.0361575 -0.0866432 54 200 0
0.687105 -0.0413247 -0.0869665 57 197 0
0.689705 -0.0466919 -0.0872037 60 194 0
0.69097 -0.0523005 -0.0873575 63 191 0
0.690939 -0.0583014 -0.0874483 66 188 0
0.688007 -0.0634142 -0.087488 70 184 0
0.683377 -0.067092 -0.0874711 73 181 0
0.67756 -0.0681709 -0.0872975 76 178 0
0.671563 -0.0681793 -0.0870622 79 175 0
0.666146 -0.0671543 -0.0868258 82 172 0
0.6627 -0.0622728 -0.0865673 86 168 0
0.661191 -0.0568354 -0.0863673 89 165 0
0.662247 -0.0511513 -0.0863484 92 162 0
0.666211 -0.0467961 -0.0864628 95 159 0
0.671829 -0.0449673 -0.0866618 98 156 0
0.67776 -0.0453368 -0.086875 102 153 0
0.683219 -0.0477769 -0.0870823 105 149 0
0.68776 -0.0516212 -0.0870997 108 146 0
0.690283 -0.0569637 -0.0869627 111 143 0
0.691082 -0.0628105 -0.0866896 114 140 0
0.688623 -0.0682815 -0.0865042 117 137 0
0.685597 -0.0734257 -0.0863059 121 133 0
0.681131 -0.07742 -0.0861317 124 130 0
0.675778 -0.0794006 -0.0859739 127 127 0
0.670014 -0.0782674 -0.0857626 130 124 0
0.664414 -0.0761197 -0.0855487 133 121 0
0.661788 -0.0707963 -0.0855238 137 117 0
0.660787 -0.0650853 -0.0858411 140 114 0
0.663467 -0.0598272 -0.0863422 143 111 0
0.667882 -0.0558426 -0.0867789 146 108 0
0.673421 -0.0541933 -0.0871615 149 105 0
0.67911 -0.0559075 -0.0871975 153 101 0
0.684463 -0.0585856 -0.0870347 156 98 0
0.68889 -0.0625929 -0.0867063 159 95 0
0.688956 -0.068525 -0.086221 162 92 0
0.690565 -0.0739878 -0.0856442 165 89 0
0.688576 -0.0796117 -0.0850195 168 86 0
0.685747 -0.0848113 -0.084226 172 82 0
0.680931 -0.0879571 -0.0836072 175 79 0
0.675316 -0.0899989 -0.083073 178 76 0
0.669466 -0.089753 -0.082742 181 73 0
0.664652 -0.0864155 -0.0829324 184 70 0
0.661772 -0.081204 -0.0834564 188 66 0
0.661133 -0.0754243 -0.0841724 191 63 0
0.663232 -0.0699505 -0.0850829 194 60 0
0.667633 -0.0662543 -0.0862065 197 57 0
0.673214 -0.0643035 -0.0866893 200 54 0
0.678541 -0.0667076 -0.0868479 204 50 0
0.68412 -0.0687398 -0.086645 207 47 0
0.687357 -0.0734532 -0.0861697 210 44 0
0.689352 -0.0790762 -0.0855476 213 41 0
0.690503 -0.0846656 -0.0845294 216 38 0
0.688005 -0.0900341 -0.083599 219 35 0
0.684742 -0.0947494 -0.0824543 223 31 0
0.680456 -0.097954 -0.0814169 226 28 0
0.67547 -0.100369 -0.0804623 229 25 0
0.669886 -0.0993459 -0.0798851 232 22 0
0.66501 -0.0974415 -0.0797388 235 19 0
0.661144 -0.0932817 -0.0800396 239 15 0
0.660703 -0.087583 -0.0808845 242 12 0
0.661632 -0.0823747 -0.0822857 245 9 0
0.664959 -0.0783876 -0.0836156 248 6 0
0.669222 -0.0760455 -0.0845295 251 3 0
0.675034 -0.0760853 -0.0848273 255 0 0
