ply
format ascii 1.0
comment Generated by robot_control PLYWriter
element vertex 9
property float x
property float y
property float z
property uchar red
property uchar green
property uchar blue
end_header
0.688405 -0.0611459 -0.104534 0 255 0
0.688534 -0.0564331 -0.104285 31 223 0
0.688738 -0.0517223 -0.104047 63 191 0
0.688743 -0.0470074 -0.103836 95 159 0
0.688724 -0.042288 -0.10371 127 127 0
0.688846 -0.0375706 -0.103613 159 95 0
0.689111 -0.0328589 -0.103476 191 63 0
0.689406 -0.0281504 -0.103292 223 31 0
0.689816 -0.0234505 -0.103164 255 0 0
