ply
format ascii 1.0
comment Generated by robot_control PLYWriter
element vertex 37
property float x
property float y
property float z
property uchar red
property uchar green
property uchar blue
end_header
0.620645 0.137372 -0.146823 0 255 0
0.625678 0.136412 -0.14559 7 247 0
0.629004 0.134565 -0.144088 14 240 0
0.63215 0.13126 -0.142663 21 233 0
0.63209 0.126001 -0.14099 28 226 0
0.62821 0.122479 -0.140411 35 219 0
0.623107 0.121334 -0.140815 42 212 0
0.617705 0.122558 -0.142191 49 205 0
0.614555 0.126819 -0.143793 56 198 0
0.613869 0.132309 -0.145504 63 191 0
0.617099 0.13692 -0.146917 70 184 0
0.621672 0.140641 -0.147404 77 177 0
0.626764 0.143659 -0.147332 85 169 0
0.63211 0.143341 -0.146776 92 162 0
0.636561 0.139588 -0.145773 99 155 0
0.639023 0.134666 -0.144558 106 148 0
0.637864 0.129139 -0.143272 113 141 0
0.632901 0.127405 -0.142839 120 134 0
0.627013 0.127279 -0.143355 127 127 0
0.622824 0.130243 -0.144859 134 120 0
0.620588 0.135087 -0.146696 141 113 0
0.620971 0.140712 -0.148356 148 106 0
0.623679 0.145377 -0.149294 155 99 0
0.628686 0.14809 -0.150139 162 92 0
0.634577 0.148215 -0.150169 170 84 0
0.640282 0.147248 -0.149034 177 77 0
0.64443 0.143935 -0.147519 184 70 0
0.644181 0.138255 -0.145996 191 63 0
0.641364 0.134296 -0.144144 198 56 0
0.636577 0.131305 -0.143697 205 49 0
0.631586 0.132586 -0.144294 212 42 0
0.627874 0.135887 -0.14592 219 35 0
0.626675 0.141054 -0.148178 226 28 0
0.625989 0.145441 -0.15096 233 21 0
0.629336 0.149666 -0.152791 240 14 0
0.633003 0.152433 -0.15468 247 7 0
0.638166 0.154098 -0.154979 255 0 0
