ply
format ascii 1.0
comment Generated by robot_control PLYWriter
element vertex 10
property float x
property float y
property float z
property uchar red
property uchar green
property uchar blue
end_header
0.638603 0.0508775 -0.0119198 0 255 0
0.63856 0.0555997 -0.0136656 28 226 0
0.638552 0.0603262 -0.015432 56 198 0
0.638263 0.0648446 -0.0176371 85 169 0
0.637933 0.0692583 -0.0200639 113 141 0
0.637597 0.0737389 -0.0223502 141 113 0
0.637232 0.0784302 -0.0241312 170 84 0
0.636985 0.0833685 -0.0250106 198 56 0
0.636783 0.0884087 -0.0248324 226 28 0
0.636842 0.0933999 -0.0242281 255 0 0
