ply
format ascii 1.0
comment Generated by robot_control PLYWriter
element vertex 76
property float x
property float y
property float z
property uchar red
property uchar green
property uchar blue
end_header
0.665073 0.227575 -0.146665 0 255 0
0.670111 0.225253 -0.146543 3 251 0
0.674458 0.221711 -0.145859 6 248 0
0.677939 0.217329 -0.144664 10 244 0
0.679587 0.212597 -0.142834 13 241 0
0.680953 0.207104 -0.141527 17 238 0
0.679005 0.202094 -0.139557 20 234 0
0.676083 0.197311 -0.138257 23 231 0
0.672009 0.193272 -0.137312 27 227 0
0.666443 0.191464 -0.137098 30 224 0
0.660551 0.192101 -0.137172 34 221 0
0.655187 0.194183 -0.137538 37 217 0
0.650391 0.197733 -0.138017 40 214 0
0.647234 0.20258 -0.139398 44 210 0
0.647152 0.208481 -0.140436 47 207 0
0.648554 0.213978 -0.14159 51 204 0
0.653008 0.217662 -0.142507 54 200 0
0.658631 0.219655 -0.142929 57 197 0
0.664139 0.221066 -0.143049 61 193 0
0.669851 0.219316 -0.142903 64 190 0
0.675645 0.217887 -0.142485 68 187 0
0.680301 0.214598 -0.141685 71 183 0
0.683575 0.209685 -0.140729 74 180 0
0.685706 0.204207 -0.13975 78 176 0
0.685465 0.198622 -0.13864 81 173 0
0.68382 0.193017 -0.137326 85 169 0
0.679874 0.188745 -0.136535 88 166 0
0.674854 0.185749 -0.13565 91 163 0
0.66915 0.183917 -0.135488 95 159 0
0.663603 0.185494 -0.135591 98 156 0
0.658179 0.187918 -0.136023 102 153 0
0.654523 0.192544 -0.136923 105 149 0
0.652493 0.197585 -0.13818 108 146 0
0.653122 0.203352 -0.139141 112 142 0
0.655835 0.208492 -0.140219 115 139 0
0.660955 0.211343 -0.140764 119 135 0
0.666539 0.213494 -0.140972 122 132 0
0.672402 0.214183 -0.140931 125 129 0
0.677723 0.211993 -0.140613 129 125 0
0.682918 0.209207 -0.140032 132 122 0
0.687156 0.205903 -0.139163 136 118 0
0.68939 0.20043 -0.13824 139 115 0
0.690468 0.194795 -0.1368 142 112 0
0.689306 0.189152 -0.135345 146 108 0
0.686535 0.184068 -0.134261 149 105 0
0.682606 0.179635 -0.133365 153 101 0
0.6773 0.177571 -0.132913 156 98 0
0.67135 0.177131 -0.132834 159 95 0
0.665938 0.179233 -0.133109 163 91 0
0.661272 0.182912 -0.133747 166 88 0
0.658348 0.187945 -0.134738 170 84 0
0.658625 0.193791 -0.136023 173 81 0
0.660433 0.1988 -0.137213 176 78 0
0.663669 0.203434 -0.138358 180 74 0
0.668844 0.20553 -0.138917 183 71 0
0.674446 0.20757 -0.139217 187 67 0
0.679927 0.206505 -0.139192 190 64 0
0.685489 0.204311 -0.13881 193 61 0
0.690753 0.201575 -0.138064 197 57 0
0.694811 0.19743 -0.13709 200 54 0
0.695819 0.191681 -0.135817 204 50 0
0.696623 0.185986 -0.13452 207 47 0
0.695072 0.180406 -0.133213 210 44 0
0.692555 0.175172 -0.131773 214 40 0
0.6881 0.171656 -0.130578 217 37 0
0.682456 0.170667 -0.129676 221 33 0
0.677215 0.169784 -0.129148 224 30 0
0.672112 0.172088 -0.129231 227 27 0
0.666893 0.174953 -0.129817 231 23 0
0.664601 0.179353 -0.130803 234 20 0
0.663179 0.184827 -0.132189 238 16 0
0.665026 0.189628 -0.134396 241 13 0
0.667518 0.194534 -0.136079 244 10 0
0.671877 0.197674 -0.13742 248 6 0
0.676556 0.2001 -0.138405 251 3 0
0.682328 0.200134 -0.138832 255 0 0
