ply
format ascii 1.0
comment Generated by robot_control PLYWriter
element vertex 28
property float x
property float y
property float z
property uchar red
property uchar green
property uchar blue
end_header
0.679486 0.0611451 -0.133559 0 255 0
0.684311 0.0596635 -0.132752 9 245 0
0.687986 0.0551525 -0.131395 18 236 0
0.688688 0.0494245 -0.129831 28 226 0
0.685669 0.0445821 -0.128453 37 217 0
0.680456 0.0428211 -0.127648 47 207 0
0.674557 0.0428093 -0.127666 56 198 0
0.668837 0.0446567 -0.128147 66 188 0
0.664492 0.0483236 -0.129144 75 179 0
0.662932 0.0539466 -0.130399 85 169 0
0.66398 0.0596368 -0.131821 94 160 0
0.666284 0.0650472 -0.133097 103 151 0
0.670979 0.0685249 -0.13416 113 141 0
0.67655 0.0704236 -0.134791 122 132 0
0.682455 0.069588 -0.135008 132 122 0
0.687021 0.0661332 -0.134836 141 113 0
0.690417 0.0612346 -0.134104 151 103 0
0.690661 0.0553865 -0.133106 160 94 0
0.686673 0.0520081 -0.132005 170 84 0
0.681278 0.0499939 -0.131342 179 75 0
0.675329 0.0504798 -0.131327 188 66 0
0.671491 0.0545939 -0.131713 198 56 0
0.667738 0.0588641 -0.132666 207 47 0
0.666659 0.0644649 -0.133983 217 37 0
0.667734 0.0698401 -0.136143 226 28 0
0.670383 0.0740938 -0.1381 236 18 0
0.674476 0.0780526 -0.139576 245 9 0
0.679438 0.0784666 -0.141254 255 0 0
