ply
format ascii 1.0
comment Generated by robot_control PLYWriter
element vertex 29
property float x
property float y
property float z
property uchar red
property uchar green
property uchar blue
end_header
0.531544 0.15955 -0.135018 0 255 0
0.53594 0.156786 -0.133756 9 245 0
0.538506 0.153073 -0.131829 18 236 0
0.538675 0.147178 -0.130485 27 227 0
0.535365 0.142865 -0.129551 36 218 0
0.529969 0.140164 -0.129484 45 209 0
0.524424 0.138586 -0.129962 54 200 0
0.518974 0.140731 -0.131023 63 191 0
0.514362 0.144072 -0.132233 72 182 0
0.511612 0.149 -0.133866 81 173 0
0.509933 0.154506 -0.135135 91 163 0
0.511605 0.159975 -0.136618 100 154 0
0.514412 0.16521 -0.137609 109 145 0
0.519185 0.168095 -0.138062 118 136 0
0.525185 0.168691 -0.138067 127 127 0
0.530745 0.168096 -0.137587 136 118 0
0.534848 0.163899 -0.136674 145 109 0
0.535056 0.157955 -0.135575 154 100 0
0.531627 0.153882 -0.134635 163 91 0
0.526889 0.150145 -0.134261 173 81 0
0.521424 0.148764 -0.134502 182 72 0
0.515718 0.150419 -0.135158 191 63 0
0.510826 0.153562 -0.136519 200 54 0
0.507043 0.157845 -0.137829 209 45 0
0.506253 0.163349 -0.139738 218 36 0
0.506864 0.169064 -0.141471 227 27 0
0.509788 0.173991 -0.142784 236 18 0
0.514387 0.177095 -0.143666 245 9 0
0.519108 0.179536 -0.143985 255 0 0
