ply
format ascii 1.0
comment Generated by robot_control PLYWriter
element vertex 48
property float x
property float y
property float z
property uchar red
property uchar green
property uchar blue
end_header
0.602636 0.117983 -0.149844 0 255 0
0.607323 0.117022 -0.147171 5 249 0
0.610329 0.1126 -0.144888 10 244 0
0.612494 0.107817 -0.142398 16 238 0
0.610969 0.102656 -0.140312 21 233 0
0.608977 0.0975819 -0.138661 27 227 0
0.605155 0.0931157 -0.137615 32 222 0
0.599856 0.0904507 -0.137218 37 217 0
0.594653 0.0877793 -0.137506 43 211 0
0.588959 0.0892493 -0.138355 48 206 0
0.58395 0.0921464 -0.139602 54 200 0
0.57997 0.0960812 -0.14159 59 195 0
0.578632 0.100892 -0.143518 65 189 0
0.581289 0.106108 -0.14472 70 184 0
0.584766 0.110676 -0.145834 75 179 0
0.59035 0.11192 -0.145856 81 173 0
0.596083 0.112624 -0.145147 86 168 0
0.600863 0.109837 -0.143807 92 162 0
0.60415 0.105254 -0.14211 97 157 0
0.605176 0.0996889 -0.140758 103 151 0
0.605132 0.0939102 -0.13924 108 146 0
0.600837 0.0904416 -0.138119 113 141 0
0.596674 0.086293 -0.137204 119 135 0
0.592124 0.0826162 -0.136889 124 130 0
0.586167 0.0829597 -0.137141 130 124 0
0.580645 0.0841304 -0.138025 135 119 0
0.575973 0.0876058 -0.139069 141 113 0
0.573403 0.0926762 -0.140688 146 108 0
0.573666 0.098368 -0.142109 151 103 0
0.576352 0.103366 -0.142988 157 97 0
0.581075 0.106939 -0.143614 162 92 0
0.586607 0.109196 -0.143597 168 86 0
0.592174 0.107187 -0.142838 173 81 0
0.596162 0.103447 -0.141735 179 75 0
0.598877 0.098477 -0.139917 184 70 0
0.599372 0.0930457 -0.138443 189 65 0
0.597324 0.0876332 -0.137016 195 59 0
0.59422 0.0828485 -0.135562 200 54 0
0.589003 0.0801381 -0.134948 206 48 0
0.58358 0.0776842 -0.134774 211 43 0
0.577823 0.0775784 -0.135379 217 37 0
0.572377 0.0795882 -0.136267 222 32 0
0.568368 0.0836614 -0.13782 227 27 0
0.566585 0.0884772 -0.140193 233 21 0
0.567869 0.0934297 -0.142167 238 16 0
0.570944 0.0983484 -0.143478 244 10 0
0.575531 0.100611 -0.144233 249 5 0
0.580778 0.102479 -0.144058 255 0 0
