ply
format ascii 1.0
comment Generated by robot_control PLYWriter
element vertex 27
property float x
property float y
property float z
property uchar red
property uchar green
property uchar blue
end_header
0.584889 0.0591797 -0.0755936 0 255 0
0.590185 0.0576619 -0.0762245 9 245 0
0.592885 0.053324 -0.0777025 19 235 0
0.592919 0.0477178 -0.0796731 29 225 0
0.591602 0.0423918 -0.0807438 39 215 0
0.586185 0.0405865 -0.081073 49 205 0
0.580614 0.0407811 -0.0808208 58 196 0
0.575837 0.0441003 -0.0800898 68 186 0
0.57378 0.0495949 -0.0791205 78 176 0
0.574499 0.0549735 -0.0780844 88 166 0
0.576351 0.0605621 -0.0772573 98 156 0
0.579827 0.064717 -0.0766258 107 147 0
0.584835 0.0676186 -0.0761399 117 137 0
0.590717 0.0685022 -0.076011 127 127 0
0.59621 0.067239 -0.075987 137 117 0
0.600654 0.0633597 -0.0762447 147 107 0
0.602786 0.0579216 -0.0765044 156 98 0
0.600185 0.053124 -0.0767353 166 88 0
0.595986 0.0493242 -0.0768176 176 78 0
0.590101 0.0496327 -0.0768675 186 68 0
0.585159 0.052846 -0.0768391 196 58 0
0.582997 0.0580767 -0.0767089 205 49 0
0.582242 0.063792 -0.0766544 215 39 0
0.584453 0.0687504 -0.0769386 225 29 0
0.587812 0.0733291 -0.0776971 235 19 0
0.591594 0.0756556 -0.0788042 245 9 0
0.59597 0.0773803 -0.0801687 255 0 0
