ply
format ascii 1.0
comment Generated by robot_control PLYWriter
element vertex 32
property float x
property float y
property float z
property uchar red
property uchar green
property uchar blue
end_header
0.690494 0.0971507 -0.146157 0 255 0
0.694448 0.0934077 -0.145065 8 246 0
0.6987 0.0896063 -0.143541 16 238 0
0.70093 0.0842255 -0.1425 24 230 0
0.700912 0.0784686 -0.141456 32 222 0
0.699634 0.072812 -0.140805 41 213 0
0.695943 0.0682826 -0.140462 49 205 0
0.690862 0.0654994 -0.140642 57 197 0
0.685406 0.0649742 -0.141225 65 189 0
0.680097 0.067512 -0.141857 74 180 0
0.676183 0.0711933 -0.142794 82 172 0
0.67627 0.0770911 -0.143413 90 164 0
0.678865 0.0821445 -0.143923 98 156 0
0.681267 0.0871257 -0.143924 106 148 0
0.686618 0.0891111 -0.143701 115 139 0
0.692519 0.0888283 -0.14321 123 131 0
0.698337 0.0881059 -0.142455 131 123 0
0.702938 0.0848191 -0.141747 139 115 0
0.707222 0.0808033 -0.14095 148 106 0
0.709005 0.0755912 -0.140201 156 98 0
0.709004 0.0697114 -0.139484 164 90 0
0.708085 0.0640656 -0.138921 172 82 0
0.704103 0.0597137 -0.138519 180 74 0
0.699035 0.0577386 -0.138467 189 65 0
0.693185 0.0570853 -0.138842 197 57 0
0.687792 0.0589271 -0.139541 205 49 0
0.685025 0.0639253 -0.140389 213 41 0
0.684397 0.0697127 -0.141064 222 32 0
0.685735 0.0751678 -0.141457 230 24 0
0.690217 0.0789893 -0.14149 238 16 0
0.695332 0.081222 -0.141255 246 8 0
0.701103 0.081263 -0.14099 255 0 0
