ply
format ascii 1.0
comment Generated by robot_control PLYWriter
element vertex 9
property float x
property float y
property float z
property uchar red
property uchar green
property uchar blue
end_header
0.62236 -0.360516 -0.126043 0 255 0
0.621955 -0.365349 -0.125547 31 223 0
0.621657 -0.370187 -0.125015 63 191 0
0.621354 -0.375026 -0.124495 95 159 0
0.621185 -0.379869 -0.123967 127 127 0
0.621171 -0.38472 -0.123469 159 95 0
0.621167 -0.389581 -0.123098 191 63 0
0.621169 -0.394453 -0.122903 223 31 0
0.621188 -0.399329 -0.122803 255 0 0
