ply
format ascii 1.0
comment Generated by robot_control PLYWriter
element vertex 97
property float x
property float y
property float z
property uchar red
property uchar green
property uchar blue
end_header
0.624424 0.0420862 -0.104896 0 255 0
0.629011 0.0397195 -0.104595 2 252 0
0.631959 0.0360882 -0.104537 5 249 0
0.633055 0.0306204 -0.10464 7 247 0
0.631994 0.0250278 -0.104775 10 244 0
0.628921 0.0212814 -0.104895 13 241 0
0.624223 0.0180793 -0.10505 15 239 0
0.618228 0.017709 -0.105194 18 236 0
0.61329 0.0203871 -0.10536 21 233 0
0.608823 0.0239591 -0.105641 23 231 0
0.604343 0.0278297 -0.106031 26 228 0
0.604353 0.0338477 -0.106388 29 225 0
0.60435 0.0398627 -0.106788 31 223 0
0.606205 0.0451202 -0.107157 34 220 0
0.610005 0.0496628 -0.107352 37 217 0
0.614597 0.0533897 -0.107343 39 215 0
0.620389 0.0534302 -0.107119 42 212 0
0.626106 0.05156 -0.106762 45 209 0
0.630311 0.0474835 -0.106128 47 207 0
0.633041 0.0427704 -0.105442 50 204 0
0.632788 0.0368058 -0.105105 53 201 0
0.628871 0.0322554 -0.104908 55 199 0
0.624 0.0290554 -0.105004 58 196 0
0.617982 0.0292437 -0.105301 61 193 0
0.612311 0.0311184 -0.105719 63 191 0
0.608098 0.0352345 -0.106381 66 188 0
0.604844 0.0402622 -0.107044 69 185 0
0.604419 0.0461062 -0.10768 71 183 0
0.604825 0.0520053 -0.108194 74 180 0
0.607753 0.0572477 -0.108643 77 177 0
0.611821 0.0616053 -0.108878 79 175 0
0.617136 0.0639722 -0.108924 82 172 0
0.623122 0.0640837 -0.108682 85 169 0
0.628217 0.0617372 -0.108255 87 167 0
0.632002 0.0570828 -0.107738 90 164 0
0.633173 0.0515575 -0.107155 92 162 0
0.632178 0.0458438 -0.106658 95 159 0
0.627799 0.0419066 -0.106273 98 156 0
0.622221 0.0397017 -0.10632 100 154 0
0.61644 0.0407213 -0.106638 103 151 0
0.610818 0.0428341 -0.107052 106 148 0
0.60697 0.0470264 -0.107645 108 146 0
0.604762 0.0526119 -0.108122 111 143 0
0.604421 0.0585371 -0.1088 114 140 0
0.604993 0.0643856 -0.109348 116 138 0
0.608665 0.0690533 -0.109834 119 135 0
0.613708 0.0722084 -0.110099 122 132 0
0.619487 0.0734207 -0.110155 124 130 0
0.625514 0.073421 -0.110024 127 127 0
0.630501 0.0705828 -0.109688 130 124 0
0.633946 0.0656589 -0.10924 132 122 0
0.633073 0.060422 -0.108899 135 119 0
0.630451 0.0550014 -0.108652 138 116 0
0.626541 0.0511131 -0.108536 140 114 0
0.620703 0.0497588 -0.108483 143 111 0
0.615201 0.0507007 -0.108559 146 108 0
0.609759 0.0532905 -0.108722 148 106 0
0.606532 0.0582492 -0.108975 151 103 0
0.604433 0.0638645 -0.109254 154 100 0
0.604444 0.06988 -0.109652 156 98 0
0.605378 0.0757237 -0.109971 159 95 0
0.609095 0.0803126 -0.110141 162 92 0
0.61408 0.0835892 -0.11024 164 90 0
0.619858 0.0851631 -0.110274 167 87 0
0.625793 0.0846617 -0.110285 170 84 0
0.629696 0.0807358 -0.110229 172 82 0
0.633393 0.0760694 -0.110121 175 79 0
0.633443 0.0709657 -0.110031 177 77 0
0.630214 0.0658848 -0.10995 180 74 0
0.625995 0.061723 -0.109965 183 71 0
0.620359 0.0614801 -0.110021 185 69 0
0.614553 0.0626108 -0.110013 188 66 0
0.609442 0.0657263 -0.109999 191 63 0
0.605989 0.0706366 -0.110152 193 61 0
0.604456 0.0762654 -0.110434 196 58 0
0.604567 0.0822501 -0.110825 199 55 0
0.607322 0.0875995 -0.111177 201 53 0
0.611381 0.0919106 -0.111583 204 50 0
0.616583 0.094874 -0.11175 207 47 0
0.622392 0.0957367 -0.11185 209 45 0
0.628014 0.0942715 -0.111779 212 42 0
0.631812 0.0900268 -0.11156 215 39 0
0.635045 0.0850978 -0.111255 217 37 0
0.632669 0.0797262 -0.110924 220 34 0
0.629867 0.0751182 -0.110569 223 31 0
0.625277 0.0718863 -0.1105 225 29 0
0.619478 0.0710047 -0.110552 228 26 0
0.61445 0.0734199 -0.110503 231 23 0
0.609919 0.0764976 -0.110408 233 21 0
0.606845 0.0811972 -0.110423 236 18 0
0.604435 0.0859255 -0.110764 239 15 0
0.604477 0.0919307 -0.111294 241 13 0
0.606089 0.0971637 -0.112385 244 10 0
0.608585 0.10067 -0.113404 247 7 0
0.612603 0.103325 -0.114503 249 5 0
0.615894 0.104547 -0.115684 252 2 0
0.619119 0.104737 -0.116287 255 0 0
