ply
format ascii 1.0
comment Generated by robot_control PLYWriter
element vertex 44
property float x
property float y
property float z
property uchar red
property uchar green
property uchar blue
end_header
0.663591 0.182178 -0.163399 0 255 0
0.667752 0.178831 -0.162133 5 249 0
0.669885 0.173751 -0.160429 11 243 0
0.671193 0.170099 -0.157005 17 237 0
0.669956 0.165485 -0.153675 23 231 0
0.667801 0.16112 -0.150819 29 225 0
0.663436 0.157937 -0.148602 35 219 0
0.658461 0.156467 -0.146265 41 213 0
0.653174 0.157678 -0.144544 47 207 0
0.64814 0.160899 -0.144095 53 201 0
0.643726 0.164907 -0.144713 59 195 0
0.64115 0.169747 -0.146717 65 189 0
0.642664 0.174459 -0.149392 71 183 0
0.644909 0.178881 -0.151377 77 177 0
0.650089 0.180219 -0.152378 83 171 0
0.65553 0.177832 -0.153045 88 166 0
0.660203 0.17428 -0.152618 94 160 0
0.663413 0.169292 -0.151678 100 154 0
0.663475 0.163965 -0.149392 106 148 0
0.662041 0.158737 -0.147505 112 142 0
0.657764 0.155238 -0.145121 118 136 0
0.652566 0.153394 -0.14312 124 130 0
0.646766 0.152537 -0.141858 130 124 0
0.641513 0.155314 -0.141132 136 118 0
0.636465 0.15854 -0.141242 142 112 0
0.634718 0.163703 -0.141974 148 106 0
0.634434 0.169578 -0.143152 154 100 0
0.636851 0.173949 -0.144516 160 94 0
0.642484 0.175126 -0.145958 166 88 0
0.647083 0.172761 -0.146606 171 83 0
0.652101 0.169457 -0.146298 177 77 0
0.655443 0.164721 -0.145052 183 71 0
0.655884 0.159081 -0.143707 189 65 0
0.653038 0.154473 -0.141508 195 59 0
0.648664 0.150867 -0.13963 201 53 0
0.643455 0.14912 -0.137674 207 47 0
0.637863 0.149708 -0.136725 213 41 0
0.632143 0.1511 -0.136202 219 35 0
0.628077 0.155402 -0.136706 225 29 0
0.625219 0.159479 -0.137838 231 23 0
0.625504 0.165173 -0.13919 237 17 0
0.627142 0.169294 -0.141163 243 11 0
0.631748 0.171269 -0.142989 249 5 0
0.636544 0.172043 -0.144387 255 0 0
