ply
format ascii 1.0
comment Generated by robot_control PLYWriter
element vertex 200
property float x
property float y
property float z
property uchar red
property uchar green
property uchar blue
end_header
0.567363 -0.316204 -0.0930583 0 255 0
0.567363 -0.316204 -0.0930583 1 253 0
0.567363 -0.316204 -0.0930583 2 252 0
0.567363 -0.316204 -0.0930583 3 251 0
0.567363 -0.316204 -0.0930583 5 249 0
0.567363 -0.316204 -0.0930583 6 248 0
0.567363 -0.316204 -0.0930583 7 247 0
0.567363 -0.316204 -0.0930583 8 246 0
0.567363 -0.316204 -0.0930583 10 244 0
0.567363 -0.316204 -0.0930583 11 243 0
0.567363 -0.316204 -0.0930583 12 242 0
0.567363 -0.316204 -0.0930583 14 240 0
0.567363 -0.316204 -0.0930583 15 239 0
0.567363 -0.316204 -0.0930583 16 238 0
0.567363 -0.316204 -0.0930583 17 237 0
0.567363 -0.316204 -0.0930583 19 235 0
0.567363 -0.316204 -0.0930583 20 234 0
0.567363 -0.316204 -0.0930583 21 233 0
0.567363 -0.316204 -0.0930583 23 231 0
0.567363 -0.316204 -0.0930583 24 230 0
0.567363 -0.316204 -0.0930583 25 229 0
0.567363 -0.316204 -0.0930583 26 228 0
0.567363 -0.316204 -0.0930583 28 226 0
0.567363 -0.316204 -0.0930583 29 225 0
0.567363 -0.316204 -0.0930583 30 224 0
0.567363 -0.316204 -0.0930583 32 222 0
0.567363 -0.316204 -0.0930583 33 221 0
0.567363 -0.316204 -0.0930583 34 220 0
0.567363 -0.316204 -0.0930583 35 219 0
0.567363 -0.316204 -0.0930583 37 217 0
0.567363 -0.316204 -0.0930583 38 216 0
0.567363 -0.316204 -0.0930583 39 215 0
0.567363 -0.316204 -0.0930583 41 213 0
0.567363 -0.316204 -0.0930583 42 212 0
0.567363 -0.316204 -0.0930583 43 211 0
0.567363 -0.316204 -0.0930583 44 210 0
0.567363 -0.316204 -0.0930583 46 208 0
0.567363 -0.316204 -0.0930583 47 207 0
0.567363 -0.316204 -0.0930583 48 206 0
0.567363 -0.316204 -0.0930583 49 205 0
0.567363 -0.316204 -0.0930583 51 203 0
0.567363 -0.316204 -0.0930583 52 202 0
0.567363 -0.316204 -0.0930583 53 201 0
0.567363 -0.316204 -0.0930583 55 199 0
0.567363 -0.316204 -0.0930583 56 198 0
0.567363 -0.316204 -0.0930583 57 197 0
0.567363 -0.316204 -0.0930583 58 196 0
0.567363 -0.316204 -0.0930583 60 194 0
0.567363 -0.316204 -0.0930583 61 193 0
0.567363 -0.316204 -0.0930583 62 192 0
0.567363 -0.316204 -0.0930583 64 190 0
0.567363 -0.316204 -0.0930583 65 189 0
0.567363 -0.316204 -0.0930583 66 188 0
0.567363 -0.316204 -0.0930583 67 187 0
0.567363 -0.316204 -0.0930583 69 185 0
0.567363 -0.316204 -0.0930583 70 184 0
0.567363 -0.316204 -0.0930583 71 183 0
0.567363 -0.316204 -0.0930583 73 181 0
0.567363 -0.316204 -0.0930583 74 180 0
0.567363 -0.316204 -0.0930583 75 179 0
0.567363 -0.316204 -0.0930583 76 178 0
0.567363 -0.316204 -0.0930583 78 176 0
0.567363 -0.316204 -0.0930583 79 175 0
0.567363 -0.316204 -0.0930583 80 174 0
0.567363 -0.316204 -0.0930583 82 172 0
0.567363 -0.316204 -0.0930583 83 171 0
0.567363 -0.316204 -0.0930583 84 170 0
0.567363 -0.316204 -0.0930583 85 169 0
0.567363 -0.316204 -0.0930583 87 167 0
0.567363 -0.316204 -0.0930583 88 166 0
0.567363 -0.316204 -0.0930583 89 165 0
0.567363 -0.316204 -0.0930583 90 164 0
0.567363 -0.316204 -0.0930583 92 162 0
0.567363 -0.316204 -0.0930583 93 161 0
0.567363 -0.316204 -0.0930583 94 160 0
0.567363 -0.316204 -0.0930583 96 158 0
0.567363 -0.316204 -0.0930583 97 157 0
0.567363 -0.316204 -0.0930583 98 156 0
0.567363 -0.316204 -0.0930583 99 155 0
0.567363 -0.316204 -0.0930583 101 153 0
0.567363 -0.316204 -0.0930583 102 152 0
0.567363 -0.316204 -0.0930583 103 151 0
0.567363 -0.316204 -0.0930583 105 149 0
0.567363 -0.316204 -0.0930583 106 148 0
0.567363 -0.316204 -0.0930583 107 147 0
0.567363 -0.316204 -0.0930583 108 146 0
0.567363 -0.316204 -0.0930583 110 144 0
0.567363 -0.316204 -0.0930583 111 143 0
0.567363 -0.316204 -0.0930583 112 142 0
0.567363 -0.316204 -0.0930583 114 140 0
0.567363 -0.316204 -0.0930583 115 139 0
0.567363 -0.316204 -0.0930583 116 138 0
0.567363 -0.316204 -0.0930583 117 137 0
0.567363 -0.316204 -0.0930583 119 135 0
0.567363 -0.316204 -0.0930583 120 134 0
0.567363 -0.316204 -0.0930583 121 133 0
0.567363 -0.316204 -0.0930583 123 131 0
0.567363 -0.316204 -0.0930583 124 130 0
0.567363 -0.316204 -0.0930583 125 129 0
0.567363 -0.316204 -0.0930583 126 128 0
0.567363 -0.316204 -0.0930583 128 126 0
0.567363 -0.316204 -0.0930583 129 125 0
0.567363 -0.316204 -0.0930583 130 124 0
0.567363 -0.316204 -0.0930583 131 123 0
0.567363 -0.316204 -0.0930583 133 121 0
0.567363 -0.316204 -0.0930583 134 120 0
0.567363 -0.316204 -0.0930583 135 119 0
0.567363 -0.316204 -0.0930583 137 117 0
0.567363 -0.316204 -0.0930583 138 116 0
0.567363 -0.316204 -0.0930583 139 115 0
0.567363 -0.316204 -0.0930583 140 114 0
0.567363 -0.316204 -0.0930583 142 112 0
0.567363 -0.316204 -0.0930583 143 111 0
0.567363 -0.316204 -0.0930583 144 110 0
0.567363 -0.316204 -0.0930583 146 108 0
0.567363 -0.316204 -0.0930583 147 107 0
0.567363 -0.316204 -0.0930583 148 106 0
0.567363 -0.316204 -0.0930583 149 105 0
0.567363 -0.316204 -0.0930583 151 103 0
0.567363 -0.316204 -0.0930583 152 102 0
0.567363 -0.316204 -0.0930583 153 101 0
0.567363 -0.316204 -0.0930583 155 99 0
0.567363 -0.316204 -0.0930583 156 98 0
0.567363 -0.316204 -0.0930583 157 97 0
0.567363 -0.316204 -0.0930583 158 96 0
0.567363 -0.316204 -0.0930583 160 94 0
0.567363 -0.316204 -0.0930583 161 93 0
0.567363 -0.316204 -0.0930583 162 92 0
0.567363 -0.316204 -0.0930583 164 90 0
0.567363 -0.316204 -0.0930583 165 89 0
0.567363 -0.316204 -0.0930583 166 88 0
0.567363 -0.316204 -0.0930583 167 87 0
0.567363 -0.316204 -0.0930583 169 85 0
0.567363 -0.316204 -0.0930583 170 84 0
0.567363 -0.316204 -0.0930583 171 83 0
0.567363 -0.316204 -0.0930583 172 82 0
0.567363 -0.316204 -0.0930583 174 80 0
0.567363 -0.316204 -0.0930583 175 79 0
0.567363 -0.316204 -0.0930583 176 78 0
0.567363 -0.316204 -0.0930583 178 76 0
0.567363 -0.316204 -0.0930583 179 75 0
0.567363 -0.316204 -0.0930583 180 74 0
0.567363 -0.316204 -0.0930583 181 73 0
0.567363 -0.316204 -0.0930583 183 71 0
0.567363 -0.316204 -0.0930583 184 70 0
0.567363 -0.316204 -0.0930583 185 69 0
0.567363 -0.316204 -0.0930583 187 67 0
0.567363 -0.316204 -0.0930583 188 66 0
0.567363 -0.316204 -0.0930583 189 65 0
0.567363 -0.316204 -0.0930583 190 64 0
0.567363 -0.316204 -0.0930583 192 62 0
0.567363 -0.316204 -0.0930583 193 61 0
0.567363 -0.316204 -0.0930583 194 60 0
0.567363 -0.316204 -0.0930583 196 58 0
0.567363 -0.316204 -0.0930583 197 57 0
0.567363 -0.316204 -0.0930583 198 56 0
0.567363 -0.316204 -0.0930583 199 55 0
0.567363 -0.316204 -0.0930583 201 53 0
0.567363 -0.316204 -0.0930583 202 52 0
0.567363 -0.316204 -0.0930583 203 51 0
0.567363 -0.316204 -0.0930583 205 49 0
0.567363 -0.316204 -0.0930583 206 48 0
0.567363 -0.316204 -0.0930583 207 47 0
0.567363 -0.316204 -0.0930583 208 46 0
0.567363 -0.316204 -0.0930583 210 44 0
0.567363 -0.316204 -0.0930583 211 43 0
0.567363 -0.316204 -0.0930583 212 42 0
0.567363 -0.316204 -0.0930583 213 41 0
0.567363 -0.316204 -0.0930583 215 39 0
0.567363 -0.316204 -0.0930583 216 38 0
0.567363 -0.316204 -0.0930583 217 37 0
0.567363 -0.316204 -0.0930583 219 35 0
0.567363 -0.316204 -0.0930583 220 34 0
0.567363 -0.316204 -0.0930583 221 33 0
0.567363 -0.316204 -0.0930583 222 32 0
0.567363 -0.316204 -0.0930583 224 30 0
0.567363 -0.316204 -0.0930583 225 29 0
0.567363 -0.316204 -0.0930583 226 28 0
0.567363 -0.316204 -0.0930583 228 26 0
0.567363 -0.316204 -0.0930583 229 25 0
0.567363 -0.316204 -0.0930583 230 24 0
0.567363 -0.316204 -0.0930583 231 23 0
0.567363 -0.316204 -0.0930583 233 21 0
0.567363 -0.316204 -0.0930583 234 20 0
0.567363 -0.316204 -0.0930583 235 19 0
0.567363 -0.316204 -0.0930583 237 17 0
0.567363 -0.316204 -0.0930583 238 16 0
0.567363 -0.316204 -0.0930583 239 15 0
0.567363 -0.316204 -0.0930583 240 14 0
0.567363 -0.316204 -0.0930583 242 12 0
0.567363 -0.316204 -0.0930583 243 11 0
0.567363 -0.316204 -0.0930583 244 10 0
0.567363 -0.316204 -0.0930583 246 8 0
0.567363 -0.316204 -0.0930583 247 7 0
0.567363 -0.316204 -0.0930583 248 6 0
0.567363 -0.316204 -0.0930583 249 5 0
0.567363 -0.316204 -0.0930583 251 3 0
0.567363 -0.316204 -0.0930583 252 2 0
0.567363 -0.316204 -0.0930583 253 1 0
0.567363 -0.316204 -0.0930583 255 0 0
