ply
format ascii 1.0
comment Generated by robot_control PLYWriter
element vertex 200
property float x
property float y
property float z
property uchar red
property uchar green
property uchar blue
end_header
0.69861 -0.332377 -0.0882179 0 255 0
0.69861 -0.332377 -0.0882179 1 253 0
0.69861 -0.332377 -0.0882179 2 252 0
0.69861 -0.332377 -0.0882179 3 251 0
0.69861 -0.332377 -0.0882179 5 249 0
0.69861 -0.332377 -0.0882179 6 248 0
0.69861 -0.332377 -0.0882179 7 247 0
0.69861 -0.332377 -0.0882179 8 246 0
0.69861 -0.332377 -0.0882179 10 244 0
0.69861 -0.332377 -0.0882179 11 243 0
0.69861 -0.332377 -0.0882179 12 242 0
0.69861 -0.332377 -0.0882179 14 240 0
0.69861 -0.332377 -0.0882179 15 239 0
0.69861 -0.332377 -0.0882179 16 238 0
0.69861 -0.332377 -0.0882179 17 237 0
0.69861 -0.332377 -0.0882179 19 235 0
0.69861 -0.332377 -0.0882179 20 234 0
0.69861 -0.332377 -0.0882179 21 233 0
0.69861 -0.332377 -0.0882179 23 231 0
0.69861 -0.332377 -0.0882179 24 230 0
0.69861 -0.332377 -0.0882179 25 229 0
0.69861 -0.332377 -0.0882179 26 228 0
0.69861 -0.332377 -0.0882179 28 226 0
0.69861 -0.332377 -0.0882179 29 225 0
0.69861 -0.332377 -0.0882179 30 224 0
0.69861 -0.332377 -0.0882179 32 222 0
0.69861 -0.332377 -0.0882179 33 221 0
0.69861 -0.332377 -0.0882179 34 220 0
0.69861 -0.332377 -0.0882179 35 219 0
0.69861 -0.332377 -0.0882179 37 217 0
0.69861 -0.332377 -0.0882179 38 216 0
0.69861 -0.332377 -0.0882179 39 215 0
0.69861 -0.332377 -0.0882179 41 213 0
0.69861 -0.332377 -0.0882179 42 212 0
0.69861 -0.332377 -0.0882179 43 211 0
0.69861 -0.332377 -0.0882179 44 210 0
0.69861 -0.332377 -0.0882179 46 208 0
0.69861 -0.332377 -0.0882179 47 207 0
0.69861 -0.332377 -0.0882179 48 206 0
0.69861 -0.332377 -0.0882179 49 205 0
0.69861 -0.332377 -0.0882179 51 203 0
0.69861 -0.332377 -0.0882179 52 202 0
0.69861 -0.332377 -0.0882179 53 201 0
0.69861 -0.332377 -0.0882179 55 199 0
0.69861 -0.332377 -0.0882179 56 198 0
0.69861 -0.332377 -0.0882179 57 197 0
0.69861 -0.332377 -0.0882179 58 196 0
0.69861 -0.332377 -0.0882179 60 194 0
0.69861 -0.332377 -0.0882179 61 193 0
0.69861 -0.332377 -0.0882179 62 192 0
0.69861 -0.332377 -0.0882179 64 190 0
0.69861 -0.332377 -0.0882179 65 189 0
0.69861 -0.332377 -0.0882179 66 188 0
0.69861 -0.332377 -0.0882179 67 187 0
0.69861 -0.332377 -0.0882179 69 185 0
0.69861 -0.332377 -0.0882179 70 184 0
0.69861 -0.332377 -0.0882179 71 183 0
0.69861 -0.332377 -0.0882179 73 181 0
0.69861 -0.332377 -0.0882179 74 180 0
0.69861 -0.332377 -0.0882179 75 179 0
0.69861 -0.332377 -0.0882179 76 178 0
0.69861 -0.332377 -0.0882179 78 176 0
0.69861 -0.332377 -0.0882179 79 175 0
0.69861 -0.332377 -0.0882179 80 174 0
0.69861 -0.332377 -0.0882179 82 172 0
0.69861 -0.332377 -0.0882179 83 171 0
0.69861 -0.332377 -0.0882179 84 170 0
0.69861 -0.332377 -0.0882179 85 169 0
0.69861 -0.332377 -0.0882179 87 167 0
0.69861 -0.332377 -0.0882179 88 166 0
0.69861 -0.332377 -0.0882179 89 165 0
0.69861 -0.332377 -0.0882179 90 164 0
0.69861 -0.332377 -0.0882179 92 162 0
0.69861 -0.332377 -0.0882179 93 161 0
0.69861 -0.332377 -0.0882179 94 160 0
0.69861 -0.332377 -0.0882179 96 158 0
0.69861 -0.332377 -0.0882179 97 157 0
0.69861 -0.332377 -0.0882179 98 156 0
0.69861 -0.332377 -0.0882179 99 155 0
0.69861 -0.332377 -0.0882179 101 153 0
0.69861 -0.332377 -0.0882179 102 152 0
0.69861 -0.332377 -0.0882179 103 151 0
0.69861 -0.332377 -0.0882179 105 149 0
0.69861 -0.332377 -0.0882179 106 148 0
0.69861 -0.332377 -0.0882179 107 147 0
0.69861 -0.332377 -0.0882179 108 146 0
0.69861 -0.332377 -0.0882179 110 144 0
0.69861 -0.332377 -0.0882179 111 143 0
0.69861 -0.332377 -0.0882179 112 142 0
0.69861 -0.332377 -0.0882179 114 140 0
0.69861 -0.332377 -0.0882179 115 139 0
0.69861 -0.332377 -0.0882179 116 138 0
0.69861 -0.332377 -0.0882179 117 137 0
0.69861 -0.332377 -0.0882179 119 135 0
0.69861 -0.332377 -0.0882179 120 134 0
0.69861 -0.332377 -0.0882179 121 133 0
0.69861 -0.332377 -0.0882179 123 131 0
0.69861 -0.332377 -0.0882179 124 130 0
0.69861 -0.332377 -0.0882179 125 129 0
0.69861 -0.332377 -0.0882179 126 128 0
0.69861 -0.332377 -0.0882179 128 126 0
0.69861 -0.332377 -0.0882179 129 125 0
0.69861 -0.332377 -0.0882179 130 124 0
0.69861 -0.332377 -0.0882179 131 123 0
0.69861 -0.332377 -0.0882179 133 121 0
0.69861 -0.332377 -0.0882179 134 120 0
0.69861 -0.332377 -0.0882179 135 119 0
0.69861 -0.332377 -0.0882179 137 117 0
0.69861 -0.332377 -0.0882179 138 116 0
0.69861 -0.332377 -0.0882179 139 115 0
0.69861 -0.332377 -0.0882179 140 114 0
0.69861 -0.332377 -0.0882179 142 112 0
0.69861 -0.332377 -0.0882179 143 111 0
0.69861 -0.332377 -0.0882179 144 110 0
0.69861 -0.332377 -0.0882179 146 108 0
0.69861 -0.332377 -0.0882179 147 107 0
0.69861 -0.332377 -0.0882179 148 106 0
0.69861 -0.332377 -0.0882179 149 105 0
0.69861 -0.332377 -0.0882179 151 103 0
0.69861 -0.332377 -0.0882179 152 102 0
0.69861 -0.332377 -0.0882179 153 101 0
0.69861 -0.332377 -0.0882179 155 99 0
0.69861 -0.332377 -0.0882179 156 98 0
0.69861 -0.332377 -0.0882179 157 97 0
0.69861 -0.332377 -0.0882179 158 96 0
0.69861 -0.332377 -0.0882179 160 94 0
0.69861 -0.332377 -0.0882179 161 93 0
0.69861 -0.332377 -0.0882179 162 92 0
0.69861 -0.332377 -0.0882179 164 90 0
0.69861 -0.332377 -0.0882179 165 89 0
0.69861 -0.332377 -0.0882179 166 88 0
0.69861 -0.332377 -0.0882179 167 87 0
0.69861 -0.332377 -0.0882179 169 85 0
0.69861 -0.332377 -0.0882179 170 84 0
0.69861 -0.332377 -0.0882179 171 83 0
0.69861 -0.332377 -0.0882179 172 82 0
0.69861 -0.332377 -0.0882179 174 80 0
0.69861 -0.332377 -0.0882179 175 79 0
0.69861 -0.332377 -0.0882179 176 78 0
0.69861 -0.332377 -0.0882179 178 76 0
0.69861 -0.332377 -0.0882179 179 75 0
0.69861 -0.332377 -0.0882179 180 74 0
0.69861 -0.332377 -0.0882179 181 73 0
0.69861 -0.332377 -0.0882179 183 71 0
0.69861 -0.332377 -0.0882179 184 70 0
0.69861 -0.332377 -0.0882179 185 69 0
0.69861 -0.332377 -0.0882179 187 67 0
0.69861 -0.332377 -0.0882179 188 66 0
0.69861 -0.332377 -0.0882179 189 65 0
0.69861 -0.332377 -0.0882179 190 64 0
0.69861 -0.332377 -0.0882179 192 62 0
0.69861 -0.332377 -0.0882179 193 61 0
0.69861 -0.332377 -0.0882179 194 60 0
0.69861 -0.332377 -0.0882179 196 58 0
0.69861 -0.332377 -0.0882179 197 57 0
0.69861 -0.332377 -0.0882179 198 56 0
0.69861 -0.332377 -0.0882179 199 55 0
0.69861 -0.332377 -0.0882179 201 53 0
0.69861 -0.332377 -0.0882179 202 52 0
0.69861 -0.332377 -0.0882179 203 51 0
0.69861 -0.332377 -0.0882179 205 49 0
0.69861 -0.332377 -0.0882179 206 48 0
0.69861 -0.332377 -0.0882179 207 47 0
0.69861 -0.332377 -0.0882179 208 46 0
0.69861 -0.332377 -0.0882179 210 44 0
0.69861 -0.332377 -0.0882179 211 43 0
0.69861 -0.332377 -0.0882179 212 42 0
0.69861 -0.332377 -0.0882179 213 41 0
0.69861 -0.332377 -0.0882179 215 39 0
0.69861 -0.332377 -0.0882179 216 38 0
0.69861 -0.332377 -0.0882179 217 37 0
0.69861 -0.332377 -0.0882179 219 35 0
0.69861 -0.332377 -0.0882179 220 34 0
0.69861 -0.332377 -0.0882179 221 33 0
0.69861 -0.332377 -0.0882179 222 32 0
0.69861 -0.332377 -0.0882179 224 30 0
0.69861 -0.332377 -0.0882179 225 29 0
0.69861 -0.332377 -0.0882179 226 28 0
0.69861 -0.332377 -0.0882179 228 26 0
0.69861 -0.332377 -0.0882179 229 25 0
0.69861 -0.332377 -0.0882179 230 24 0
0.69861 -0.332377 -0.0882179 231 23 0
0.69861 -0.332377 -0.0882179 233 21 0
0.69861 -0.332377 -0.0882179 234 20 0
0.69861 -0.332377 -0.0882179 235 19 0
0.69861 -0.332377 -0.0882179 237 17 0
0.69861 -0.332377 -0.0882179 238 16 0
0.69861 -0.332377 -0.0882179 239 15 0
0.69861 -0.332377 -0.0882179 240 14 0
0.69861 -0.332377 -0.0882179 242 12 0
0.69861 -0.332377 -0.0882179 243 11 0
0.69861 -0.332377 -0.0882179 244 10 0
0.69861 -0.332377 -0.0882179 246 8 0
0.69861 -0.332377 -0.0882179 247 7 0
0.69861 -0.332377 -0.0882179 248 6 0
0.69861 -0.332377 -0.0882179 249 5 0
0.69861 -0.332377 -0.0882179 251 3 0
0.69861 -0.332377 -0.0882179 252 2 0
0.69861 -0.332377 -0.0882179 253 1 0
0.69861 -0.332377 -0.0882179 255 0 0
