ply
format ascii 1.0
comment Generated by robot_control PLYWriter
element vertex 35
property float x
property float y
property float z
property uchar red
property uchar green
property uchar blue
end_header
0.623996 0.181747 -0.146013 0 255 0
0.627027 0.177439 -0.144933 7 247 0
0.627186 0.17218 -0.143002 15 240 0
0.623723 0.169349 -0.141401 22 232 0
0.619148 0.165992 -0.140532 30 225 0
0.613666 0.166719 -0.14037 37 217 0
0.608751 0.170107 -0.140558 45 210 0
0.605275 0.173946 -0.141442 52 202 0
0.602702 0.178853 -0.142568 60 195 0
0.602758 0.184628 -0.144052 67 187 0
0.606688 0.188228 -0.145077 75 179 0
0.612584 0.188379 -0.145693 82 172 0
0.617924 0.186029 -0.145436 90 165 0
0.620553 0.181072 -0.144495 97 157 0
0.618357 0.175854 -0.143509 105 149 0
0.613856 0.172657 -0.142684 112 142 0
0.607968 0.172472 -0.142087 120 135 0
0.602394 0.174408 -0.142151 127 127 0
0.597702 0.178041 -0.142717 135 119 0
0.595159 0.183229 -0.143678 142 112 0
0.596209 0.188751 -0.144918 150 104 0
0.599155 0.193364 -0.146199 157 97 0
0.604942 0.194173 -0.147163 165 89 0
0.610396 0.192778 -0.147244 172 82 0
0.613656 0.188094 -0.146343 180 74 0
0.612102 0.18267 -0.145109 187 67 0
0.607003 0.180518 -0.14385 195 59 0
0.60261 0.178279 -0.143222 202 52 0
0.597002 0.179821 -0.142919 210 44 0
0.592603 0.182331 -0.143257 217 37 0
0.589201 0.186816 -0.14415 225 29 0
0.588381 0.192221 -0.145994 232 22 0
0.59011 0.196662 -0.147914 240 14 0
0.592718 0.199934 -0.149533 247 7 0
0.596911 0.200425 -0.150932 255 0 0
