ply
format ascii 1.0
comment Generated by robot_control PLYWriter
element vertex 32
property float x
property float y
property float z
property uchar red
property uchar green
property uchar blue
end_header
0.607092 0.142249 -0.152681 0 255 0
0.611612 0.139465 -0.150363 8 246 0
0.615306 0.136386 -0.14763 16 238 0
0.61826 0.132645 -0.144918 24 230 0
0.620428 0.1276 -0.142883 32 222 0
0.619851 0.121937 -0.141274 41 213 0
0.617345 0.11651 -0.140617 49 205 0
0.612229 0.113918 -0.140604 57 197 0
0.606867 0.111499 -0.141628 65 189 0
0.601684 0.113205 -0.143026 74 180 0
0.598438 0.117916 -0.144859 82 172 0
0.596968 0.123532 -0.146145 90 164 0
0.598044 0.129199 -0.147043 98 156 0
0.601972 0.133649 -0.147492 106 148 0
0.607252 0.136519 -0.147392 115 139 0
0.612837 0.13864 -0.146896 123 131 0
0.618643 0.138678 -0.145935 131 123 0
0.624105 0.136586 -0.144543 139 115 0
0.628538 0.133349 -0.143165 148 106 0
0.631163 0.128146 -0.141792 156 98 0
0.630776 0.122703 -0.140247 164 90 0
0.630074 0.11696 -0.138952 172 82 0
0.625892 0.112777 -0.138286 180 74 0
0.620339 0.11053 -0.138038 189 65 0
0.614701 0.110488 -0.138497 197 57 0
0.609914 0.113816 -0.139641 205 49 0
0.608581 0.119058 -0.141518 213 41 0
0.608725 0.124835 -0.143107 222 32 0
0.610504 0.130295 -0.144101 230 24 0
0.614828 0.133878 -0.144873 238 16 0
0.619532 0.135278 -0.145259 246 8 0
0.62474 0.136757 -0.144811 255 0 0
