ply
format ascii 1.0
comment Generated by robot_control PLYWriter
element vertex 59
property float x
property float y
property float z
property uchar red
property uchar green
property uchar blue
end_header
0.67595 0.0341062 -0.136938 0 255 0
0.680358 0.0310868 -0.136493 4 250 0
0.682756 0.0264327 -0.135999 8 246 0
0.68508 0.0215188 -0.135211 13 241 0
0.684947 0.0155745 -0.134489 17 237 0
0.681582 0.011628 -0.13397 21 233 0
0.679958 0.00676431 -0.133471 26 228 0
0.674475 0.0052154 -0.133033 30 224 0
0.6691 0.00373076 -0.132864 35 219 0
0.663412 0.00521156 -0.132977 39 215 0
0.658543 0.00872288 -0.133386 43 211 0
0.656683 0.0141378 -0.133974 48 206 0
0.659359 0.0195247 -0.134406 52 202 0
0.663698 0.0233115 -0.13479 57 197 0
0.668885 0.0259834 -0.134979 61 193 0
0.674591 0.0248014 -0.134901 65 189 0
0.679564 0.0214163 -0.134626 70 184 0
0.682834 0.0165432 -0.13417 74 180 0
0.684419 0.010766 -0.133656 79 175 0
0.683559 0.00509031 -0.133205 83 171 0
0.681048 -0.000369066 -0.132781 87 167 0
0.676636 -0.00431205 -0.132292 92 162 0
0.671501 -0.00639932 -0.131982 96 158 0
0.66556 -0.00599836 -0.131891 101 153 0
0.660041 -0.00358317 -0.131974 105 149 0
0.65813 0.00112809 -0.132182 109 145 0
0.657388 0.00644901 -0.132613 114 140 0
0.660975 0.0108948 -0.133024 118 136 0
0.665353 0.0141285 -0.133265 123 131 0
0.671383 0.0141167 -0.133337 127 127 0
0.676619 0.0116875 -0.133245 131 123 0
0.681285 0.00814991 -0.133022 136 118 0
0.683156 0.00251351 -0.132744 140 114 0
0.683113 -0.00350168 -0.132333 145 109 0
0.681745 -0.00925409 -0.131864 149 105 0
0.677889 -0.013736 -0.131349 153 101 0
0.672984 -0.0171779 -0.131008 158 96 0
0.667155 -0.0181433 -0.130789 162 92 0
0.661616 -0.016004 -0.130758 167 87 0
0.657437 -0.012226 -0.130846 171 83 0
0.656862 -0.00655423 -0.131061 175 79 0
0.658126 -0.000740468 -0.131377 180 74 0
0.662626 0.00288065 -0.13171 184 70 0
0.668488 0.00373419 -0.13193 189 65 0
0.674362 0.00305042 -0.132009 193 61 0
0.678405 -0.00114784 -0.131951 197 57 0
0.682046 -0.00591122 -0.131781 202 52 0
0.683077 -0.0116981 -0.131557 206 48 0
0.682348 -0.017618 -0.13119 211 43 0
0.679176 -0.0225809 -0.130769 215 39 0
0.675331 -0.0261292 -0.130236 219 35 0
0.669775 -0.028212 -0.129872 224 30 0
0.663752 -0.0282765 -0.129617 228 26 0
0.658866 -0.0251102 -0.129566 233 21 0
0.656272 -0.0202176 -0.129839 237 17 0
0.656775 -0.0143967 -0.130179 241 13 0
0.659445 -0.00991956 -0.130377 246 8 0
0.663828 -0.0082666 -0.130552 250 4 0
0.66881 -0.00638659 -0.130884 255 0 0
