ply
format ascii 1.0
comment Generated by robot_control PLYWriter
element vertex 12
property float x
property float y
property float z
property uchar red
property uchar green
property uchar blue
end_header
0.538422 -0.137415 -0.127492 0 255 0
0.538038 -0.132603 -0.127584 23 231 0
0.53781 -0.12778 -0.127593 46 208 0
0.537549 -0.122959 -0.127596 69 185 0
0.537154 -0.118149 -0.127458 92 162 0
0.53675 -0.113346 -0.127155 115 139 0
0.536348 -0.108553 -0.126729 139 115 0
0.53597 -0.103762 -0.126256 162 92 0
0.535577 -0.0989786 -0.125728 185 69 0
0.535202 -0.0942007 -0.125138 208 46 0
0.534681 -0.0894489 -0.124472 231 23 0
0.534215 -0.0846888 -0.123815 255 0 0
