ply
format ascii 1.0
comment Generated by robot_control PLYWriter
element vertex 33
property float x
property float y
property float z
property uchar red
property uchar green
property uchar blue
end_header
0.607194 0.142223 -0.153096 0 255 0
0.611493 0.139639 -0.150656 7 247 0
0.613864 0.136074 -0.147672 15 239 0
0.614535 0.130643 -0.145651 23 231 0
0.613402 0.125091 -0.144344 31 223 0
0.609717 0.120778 -0.144122 39 215 0
0.605432 0.117571 -0.144674 47 207 0
0.599813 0.116019 -0.145806 55 199 0
0.594386 0.116571 -0.147824 63 191 0
0.589147 0.11789 -0.14986 71 183 0
0.584987 0.12147 -0.152144 79 175 0
0.581649 0.125582 -0.154667 87 167 0
0.580635 0.13091 -0.156928 95 159 0
0.581046 0.136575 -0.158164 103 151 0
0.584717 0.141147 -0.159067 111 143 0
0.589224 0.144841 -0.158923 119 135 0
0.594875 0.146446 -0.158123 127 127 0
0.599585 0.143587 -0.156749 135 119 0
0.602139 0.140198 -0.155129 143 111 0
0.603332 0.134582 -0.153819 151 103 0
0.601638 0.129382 -0.152652 159 95 0
0.597462 0.125181 -0.152173 167 87 0
0.592915 0.121642 -0.152354 175 79 0
0.58718 0.120395 -0.153236 183 71 0
0.581358 0.120371 -0.154429 191 63 0
0.576176 0.122046 -0.156449 199 55 0
0.572431 0.125851 -0.158948 207 47 0
0.569302 0.129999 -0.161498 215 39 0
0.569167 0.135421 -0.163895 223 31 0
0.571051 0.140522 -0.165749 231 23 0
0.574247 0.145192 -0.166858 239 15 0
0.578618 0.148605 -0.167182 247 7 0
0.583303 0.149437 -0.166723 255 0 0
