ply
format ascii 1.0
comment Generated by robot_control PLYWriter
element vertex 65
property float x
property float y
property float z
property uchar red
property uchar green
property uchar blue
end_header
0.692497 0.0235726 -0.134387 0 255 0
0.695389 0.0191853 -0.133578 3 251 0
0.698613 0.0153306 -0.132582 7 247 0
0.70123 0.0105966 -0.131841 11 243 0
0.701146 0.00464398 -0.131222 15 239 0
0.69884 -0.000369879 -0.130777 19 235 0
0.697559 -0.00583641 -0.130644 23 231 0
0.692595 -0.00911678 -0.130642 27 227 0
0.686833 -0.0104089 -0.130845 31 223 0
0.680861 -0.0105437 -0.131222 35 219 0
0.675434 -0.00856964 -0.13165 39 215 0
0.672317 -0.0036577 -0.132093 43 211 0
0.671085 0.00179314 -0.132505 47 207 0
0.673224 0.00690128 -0.132814 51 203 0
0.677479 0.0107497 -0.132822 55 199 0
0.682633 0.013281 -0.132624 59 195 0
0.688373 0.0138419 -0.132339 63 191 0
0.69375 0.0115728 -0.132045 67 187 0
0.697435 0.0068665 -0.13171 71 183 0
0.700212 0.0016143 -0.13142 75 179 0
0.701142 -0.00417024 -0.131047 79 175 0
0.700908 -0.0101321 -0.13068 83 171 0
0.698496 -0.0153696 -0.130447 87 167 0
0.693557 -0.0187498 -0.130371 91 163 0
0.688475 -0.0218676 -0.130426 95 159 0
0.682752 -0.0230968 -0.13056 99 155 0
0.677226 -0.0212124 -0.130757 103 151 0
0.673663 -0.0165979 -0.13101 107 147 0
0.671327 -0.0113236 -0.131117 111 143 0
0.672579 -0.00561607 -0.131222 115 139 0
0.67544 -0.000414668 -0.131306 119 135 0
0.680459 0.00207607 -0.131322 123 131 0
0.686443 0.00201691 -0.131311 127 127 0
0.691907 -5.78304e-06 -0.131228 131 123 0
0.695899 -0.00438728 -0.131068 135 119 0
0.699556 -0.00902583 -0.130813 139 115 0
0.701147 -0.0147918 -0.130618 143 111 0
0.701049 -0.0207565 -0.130455 147 107 0
0.698366 -0.026071 -0.130283 151 103 0
0.693696 -0.0294872 -0.130188 155 99 0
0.688272 -0.0320174 -0.130171 159 95 0
0.682545 -0.0331157 -0.130192 163 91 0
0.677733 -0.0300973 -0.130206 167 87 0
0.673503 -0.0261816 -0.130267 171 83 0
0.671306 -0.0206207 -0.130371 175 79 0
0.673146 -0.0152114 -0.130444 179 75 0
0.676611 -0.0103858 -0.130519 183 71 0
0.682049 -0.00806018 -0.130618 187 67 0
0.687547 -0.00982649 -0.130715 191 63 0
0.692903 -0.0124936 -0.130719 195 59 0
0.697535 -0.0160658 -0.130664 199 55 0
0.700323 -0.0213612 -0.13057 203 51 0
0.700986 -0.0271464 -0.130467 207 47 0
0.700189 -0.0329436 -0.13045 211 43 0
0.696588 -0.0375971 -0.130474 215 39 0
0.692567 -0.0419357 -0.130483 219 35 0
0.687452 -0.0447103 -0.130489 223 31 0
0.681464 -0.0446533 -0.130515 227 27 0
0.6761 -0.0427219 -0.130524 231 23 0
0.672736 -0.0377758 -0.130489 235 19 0
0.671192 -0.0323921 -0.130322 239 15 0
0.672318 -0.0269828 -0.130042 243 11 0
0.675853 -0.0233296 -0.129926 247 7 0
0.680362 -0.0206736 -0.130013 251 3 0
0.686224 -0.0204927 -0.130217 255 0 0
