ply
format ascii 1.0
comment Generated by robot_control PLYWriter
element vertex 57
property float x
property float y
property float z
property uchar red
property uchar green
property uchar blue
end_header
0.535487 0.155789 -0.12619 0 255 0
0.539888 0.153855 -0.12453 4 250 0
0.54284 0.14989 -0.122462 9 245 0
0.544196 0.144469 -0.121058 13 241 0
0.543986 0.138812 -0.119385 18 236 0
0.541191 0.133568 -0.118579 22 232 0
0.537573 0.128919 -0.118679 27 227 0
0.532686 0.125541 -0.119484 31 223 0
0.527412 0.123331 -0.120372 36 218 0
0.521652 0.124551 -0.121505 40 214 0
0.515986 0.125783 -0.12292 45 209 0
0.510962 0.128527 -0.124524 50 204 0
0.507244 0.132844 -0.126164 54 200 0
0.504156 0.137658 -0.127792 59 195 0
0.504693 0.143561 -0.128729 63 191 0
0.505315 0.149497 -0.129345 68 186 0
0.508189 0.154672 -0.12971 72 182 0
0.512724 0.158533 -0.129498 77 177 0
0.518303 0.159599 -0.128858 81 173 0
0.524176 0.159065 -0.127782 86 168 0
0.529337 0.156509 -0.126437 91 163 0
0.532848 0.15182 -0.125323 95 159 0
0.534273 0.146165 -0.124441 100 154 0
0.5332 0.140523 -0.123995 104 150 0
0.530132 0.135369 -0.123864 109 145 0
0.526257 0.131211 -0.124007 113 141 0
0.520747 0.128977 -0.124437 118 136 0
0.515479 0.126655 -0.125128 122 132 0
0.509649 0.127556 -0.12623 127 127 0
0.503926 0.128756 -0.127313 132 122 0
0.499386 0.132501 -0.128489 136 118 0
0.497038 0.13771 -0.130052 141 113 0
0.494256 0.142947 -0.13098 145 109 0
0.494631 0.148681 -0.131873 150 104 0
0.496382 0.154373 -0.132523 154 100 0
0.499295 0.159581 -0.132832 159 95 0
0.50451 0.162196 -0.132577 163 91 0
0.509885 0.164184 -0.13196 168 86 0
0.515412 0.162375 -0.130866 173 81 0
0.519795 0.158541 -0.129746 177 77 0
0.522463 0.153322 -0.128631 182 72 0
0.523723 0.14782 -0.127773 186 68 0
0.521964 0.142116 -0.127258 191 63 0
0.518545 0.137366 -0.127048 195 59 0
0.513717 0.133839 -0.127257 200 54 0
0.50823 0.131671 -0.128094 204 50 0
0.502479 0.130638 -0.129209 209 45 0
0.496751 0.13133 -0.130768 214 40 0
0.491755 0.134056 -0.132448 218 36 0
0.487546 0.13776 -0.134082 223 31 0
0.484751 0.142573 -0.136027 227 27 0
0.484366 0.14841 -0.137358 232 22 0
0.484567 0.15428 -0.138547 236 18 0
0.48657 0.159848 -0.139025 241 13 0
0.490236 0.163755 -0.138846 245 9 0
0.495016 0.166208 -0.138391 250 4 0
0.498691 0.167783 -0.137643 255 0 0
