ply
format ascii 1.0
comment Generated by robot_control PLYWriter
element vertex 15
property float x
property float y
property float z
property uchar red
property uchar green
property uchar blue
end_header
0.611872 0.0414688 -0.119662 0 255 0
0.611146 0.046377 -0.119748 18 236 0
0.610664 0.0513176 -0.119943 36 218 0
0.610265 0.0562624 -0.120225 54 200 0
0.609671 0.0611877 -0.120478 72 182 0
0.609104 0.0661127 -0.120802 91 163 0
0.608591 0.0710367 -0.121224 109 145 0
0.608005 0.0759481 -0.121695 127 127 0
0.607461 0.0808585 -0.12221 145 109 0
0.607022 0.0857705 -0.122815 163 91 0
0.606501 0.0906622 -0.123513 182 72 0
0.605928 0.0955415 -0.124258 200 54 0
0.605306 0.100416 -0.12499 218 36 0
0.604775 0.105294 -0.125743 236 18 0
0.604191 0.110166 -0.126519 255 0 0
