ply
format ascii 1.0
comment Generated by robot_control PLYWriter
element vertex 51
property float x
property float y
property float z
property uchar red
property uchar green
property uchar blue
end_header
0.607423 0.118599 -0.156356 0 255 0
0.611022 0.119566 -0.153504 5 249 0
0.614393 0.117583 -0.150842 10 244 0
0.617303 0.114331 -0.14778 15 239 0
0.619001 0.109375 -0.145344 20 234 0
0.620504 0.104071 -0.143857 25 229 0
0.618395 0.0988667 -0.143207 30 224 0
0.615363 0.0940612 -0.143187 35 219 0
0.611106 0.0899797 -0.143678 40 214 0
0.605908 0.087159 -0.144727 45 209 0
0.60029 0.0876246 -0.146458 51 204 0
0.594861 0.0884929 -0.148525 56 198 0
0.590966 0.0925257 -0.15058 61 193 0
0.588695 0.0975282 -0.152709 66 188 0
0.588374 0.103218 -0.154441 71 183 0
0.589601 0.108776 -0.155371 76 178 0
0.594414 0.112115 -0.155082 81 173 0
0.600075 0.113882 -0.154302 86 168 0
0.605754 0.113263 -0.152963 91 163 0
0.610378 0.110005 -0.15135 96 158 0
0.61247 0.104697 -0.149619 102 153 0
0.614571 0.0996004 -0.147987 107 147 0
0.61342 0.0940524 -0.14684 112 142 0
0.610024 0.089183 -0.146038 117 137 0
0.606269 0.0845297 -0.145835 122 132 0
0.601015 0.0818762 -0.146245 127 127 0
0.595115 0.0814055 -0.147026 132 122 0
0.589848 0.0834732 -0.148469 137 117 0
0.584753 0.0860913 -0.149791 142 112 0
0.58205 0.0911264 -0.151596 147 107 0
0.580706 0.0965615 -0.152932 153 101 0
0.582921 0.101793 -0.153849 158 96 0
0.587867 0.105095 -0.153856 163 91 0
0.593094 0.108 -0.153279 168 86 0
0.597947 0.106938 -0.152368 173 81 0
0.602789 0.104832 -0.150954 178 76 0
0.605906 0.099812 -0.149899 183 71 0
0.607117 0.0942989 -0.14857 188 66 0
0.606923 0.0883961 -0.147578 193 61 0
0.603803 0.083353 -0.146934 198 56 0
0.599797 0.0788896 -0.147029 204 50 0
0.594916 0.075707 -0.147764 209 45 0
0.589076 0.0755788 -0.149077 214 40 0
0.583388 0.0764007 -0.150419 219 35 0
0.578267 0.0792834 -0.151534 224 30 0
0.575632 0.084536 -0.152316 229 25 0
0.574895 0.0900457 -0.153204 234 20 0
0.576446 0.095631 -0.15371 239 15 0
0.580719 0.0987322 -0.15436 244 10 0
0.583319 0.101584 -0.154723 249 5 0
0.588372 0.102598 -0.154856 255 0 0
