ply
format ascii 1.0
comment Generated by robot_control PLYWriter
element vertex 8
property float x
property float y
property float z
property uchar red
property uchar green
property uchar blue
end_header
0.636772 0.0910663 -0.0396153 0 255 0
0.636829 0.0859453 -0.0382189 36 218 0
0.636917 0.080712 -0.037287 72 182 0
0.637027 0.0754128 -0.036897 109 145 0
0.636998 0.0701005 -0.0370572 145 109 0
0.636924 0.0648261 -0.0377202 182 72 0
0.636846 0.0595727 -0.0385334 218 36 0
0.636734 0.054333 -0.039426 255 0 0
