ply
format ascii 1.0
comment Generated by robot_control PLYWriter
element vertex 32
property float x
property float y
property float z
property uchar red
property uchar green
property uchar blue
end_header
0.569226 0.0643339 -0.144992 0 255 0
0.573188 0.061589 -0.143156 8 246 0
0.576535 0.059024 -0.140099 16 238 0
0.576693 0.0533485 -0.138307 24 230 0
0.574823 0.0480526 -0.136768 32 222 0
0.570573 0.0440367 -0.136172 41 213 0
0.565296 0.0412992 -0.136517 49 205 0
0.560019 0.0394378 -0.137995 57 197 0
0.554246 0.0393463 -0.139465 65 189 0
0.549197 0.0412543 -0.141428 74 180 0
0.545344 0.0452917 -0.143452 82 172 0
0.542103 0.0498584 -0.145352 90 164 0
0.542823 0.0554922 -0.147124 98 156 0
0.544298 0.0610302 -0.148721 106 148 0
0.54749 0.0654094 -0.149757 115 139 0
0.55295 0.0675254 -0.149908 123 131 0
0.558785 0.0669808 -0.148818 131 123 0
0.563312 0.0644086 -0.146706 139 115 0
0.564684 0.0592287 -0.14474 148 106 0
0.56283 0.0537667 -0.143595 156 98 0
0.560022 0.0488013 -0.14322 164 90 0
0.554642 0.0462698 -0.143544 172 82 0
0.549287 0.0437967 -0.144423 180 74 0
0.543704 0.0446407 -0.145716 189 65 0
0.538345 0.0458657 -0.147975 197 57 0
0.533924 0.0486195 -0.150316 205 49 0
0.532431 0.0529293 -0.153613 213 41 0
0.530985 0.0578207 -0.156278 222 32 0
0.53115 0.0632308 -0.158522 230 24 0
0.53438 0.0676424 -0.160248 238 16 0
0.538806 0.0712822 -0.160739 246 8 0
0.542587 0.0730318 -0.1606 255 0 0
